<?xml version='1.0' encoding='UTF-8'?>
<svg xmlns:inkscape="http://www.inkscape.org/namespaces/inkscape" xmlns:sodipodi="http://sodipodi.sourceforge.net/DTD/sodipodi-0.dtd" xmlns="http://www.w3.org/2000/svg" xmlns:svg="http://www.w3.org/2000/svg" xmlns:rdf="http://www.w3.org/1999/02/22-rdf-syntax-ns#" xmlns:cc="http://creativecommons.org/ns#" xmlns:dc="http://purl.org/dc/elements/1.1/" width="64" height="64" version="1.1" id="svg73" sodipodi:docname="folder-scripts.svg" inkscape:version="1.4.2 (ebf0e940d0, 2025-05-08)">
  <metadata id="metadata77">
    <rdf:RDF>
      <cc:Work rdf:about="">
        <dc:format>image/svg+xml</dc:format>
        <dc:type rdf:resource="http://purl.org/dc/dcmitype/StillImage"/>
      </cc:Work>
    </rdf:RDF>
  </metadata>
  <sodipodi:namedview pagecolor="#f5f7fa" bordercolor="#666666" borderopacity="1" objecttolerance="10" gridtolerance="10" guidetolerance="10" inkscape:pageopacity="0" inkscape:pageshadow="2" inkscape:window-width="2560" inkscape:window-height="1376" id="namedview75" showgrid="false" inkscape:zoom="6.2890628" inkscape:cx="11.925465" inkscape:cy="22.896893" inkscape:window-x="0" inkscape:window-y="0" inkscape:window-maximized="1" inkscape:current-layer="svg73" inkscape:document-rotation="0" inkscape:pagecheckerboard="0" inkscape:showpageshadow="2" inkscape:deskcolor="#d1d1d1"/>
  <defs id="defs29">
    <filter style="color-interpolation-filters:sRGB;" inkscape:label="Blur" id="filter1780" x="-0.088182512" y="-0.11071178" width="1.176365" height="1.2214236">
      <feGaussianBlur stdDeviation="2 2" result="blur" id="feGaussianBlur1778"/>
    </filter>
    <style id="current-color-scheme" type="text/css">.ColorScheme-Text {color:#d8dee9} .ColorScheme-Highlight {color:#3b4252}</style>
  <linearGradient id="linearGradient1" inkscape:collect="always">
      <stop style="stop-color:#000000;stop-opacity:1;" offset="0" id="stop1"/>
      <stop style="stop-color:#000000;stop-opacity:0;" offset="1" id="stop2"/>
    </linearGradient>
    <linearGradient xmlns:xlink="http://www.w3.org/1999/xlink" inkscape:collect="always" xlink:href="#linearGradient1" id="linearGradient2" x1="49.374069" y1="50.441799" x2="14.733399" y2="15.801128" gradientUnits="userSpaceOnUse"/>
  </defs>
  <path style="fill:#000000;fill-opacity:1;stroke:none;stroke-width:0.722755;filter:url(#filter1780);opacity:0.5" d="M 7.3485699,54.25847 C 6.6663746,53.948651 5.914866,53.308064 5.5754123,52.747033 5.0044211,51.803325 4.9835199,51.278758 4.8972987,35.728141 4.7727953,13.273037 4.7864748,12.73229 5.4970042,12.02176 6.0530529,11.465712 6.4606782,11.443556 16.134899,11.443556 h 10.05969 l 2.789175,2.457369 2.789175,2.457369 h 11.823902 c 11.765593,0 11.830186,0.0033 13.098059,0.663129 0.905341,0.471182 1.46244,1.032852 1.924634,1.940422 0.650359,1.277054 0.65048,1.280172 0.65048,16.621745 0,15.338179 -2.66e-4,15.344979 -0.65048,16.633203 -0.4286,0.84916 -1.044931,1.509417 -1.806889,1.935667 l -1.156409,0.646915 -23.561829,-0.0017 C 9.7429673,54.796195 8.471754,54.768424 7.3485699,54.258329 Z" id="path1575-7" transform="matrix(0.99,0,0,0.99,0.34131783,0.43681597)"/>
  <path style="opacity:1;fill:currentColor;fill-opacity:1;stroke:none;stroke-width:0.65048" d="M 9.8190863,52.14477 C 9.2051104,51.865933 8.5287528,51.289404 8.2232444,50.784477 7.7093523,49.935139 7.6905412,49.463029 7.6129421,35.467474 7.5008891,15.25788 7.5132006,14.771208 8.1526771,14.131731 8.6531209,13.631288 9.0199837,13.611347 17.726782,13.611347 h 9.053721 l 2.510257,2.211632 2.510258,2.211632 H 42.44253 c 10.589034,0 10.647168,0.0029 11.788253,0.596816 0.814807,0.424064 1.316196,0.929567 1.732171,1.74638 0.585323,1.149348 0.585432,1.152155 0.585432,14.959571 0,13.80436 -2.39e-4,13.81048 -0.585432,14.969883 -0.38574,0.764244 -0.940438,1.358475 -1.6262,1.742099 l -1.040768,0.582224 -21.205646,-0.0016 c -20.116296,-0.0013 -21.260388,-0.0263 -22.2712537,-0.485388 z" id="path1575" class="ColorScheme-Text" transform="matrix(1.1,0,0,1.1,-3.1845928,-3.2065454)"/>
  <path style="fill:#f5f7fa;stroke-width:0.204426;fill-opacity:1" d="" id="path3" transform="matrix(1.1,0,0,1.1,-3.1845928,-3.2065454)"/>
  <rect style="fill:currentColor;fill-opacity:1;stroke:currentColor;stroke-width:0.891;stroke-dasharray:none;stroke-dashoffset:0;stroke-opacity:1" id="rect1-6-7" width="45.051292" height="30.928782" x="9.537137" y="19.827698" rx="3.8921614" ry="3.5523398" class="ColorScheme-Highlight" transform="matrix(1.1,0,0,1.1,-3.1845928,-3.2065454)"/>
  <path style="clip-rule:nonzero;display:inline;overflow:visible;visibility:visible;opacity:0.3;isolation:auto;mix-blend-mode:normal;color-interpolation:sRGB;color-interpolation-filters:linearRGB;solid-opacity:1;fill:#000000;fill-opacity:1;fill-rule:nonzero;stroke:none;stroke-width:0.548215;stroke-linecap:butt;stroke-linejoin:miter;stroke-miterlimit:4;stroke-dasharray:none;stroke-dashoffset:0;stroke-opacity:0.3;marker:none;color-rendering:auto;image-rendering:auto;shape-rendering:auto;text-rendering:auto;enable-background:accumulate" d="m 40.995085,31.863223 c -0.21604,0 -0.396075,0.834428 -0.501754,2.026941 a 6.6024999,6.6025015 0 0 0 -1.595526,0.670566 c -0.921677,-0.772461 -1.641641,-1.238747 -1.794819,-1.085568 l -1.69869,1.698692 c -0.153179,0.153174 0.313107,0.873142 1.085567,1.794819 a 6.6024999,6.6025015 0 0 0 -0.664706,1.595526 c -1.195852,0.105577 -2.0328,0.28535 -2.0328,0.501754 v 2.400907 c 0,0.216041 0.834427,0.396077 2.02694,0.501756 a 6.6024999,6.6025015 0 0 0 0.668221,1.599036 c -0.770703,0.920027 -1.236218,1.638309 -1.083222,1.791306 l 1.69869,1.698687 c 0.152846,0.152836 0.870227,-0.311547 1.788958,-1.080877 a 6.6024999,6.6025015 0 0 0 1.601387,0.660016 c 0.105577,1.195855 0.285352,2.032803 0.501754,2.032803 h 2.400907 c 0.216044,0 0.396076,-0.834428 0.501756,-2.02694 a 6.6024999,6.6025015 0 0 0 1.595525,-0.670564 c 0.921679,0.772459 1.641638,1.238743 1.79482,1.085562 l 1.698695,-1.698687 c 0.153175,-0.153123 -0.313113,-0.873143 -1.085572,-1.794821 a 6.6024999,6.6025015 0 0 0 0.664702,-1.595521 c 1.195853,-0.105579 2.032803,-0.285351 2.032803,-0.501756 v -2.400908 c 0,-0.216041 -0.834429,-0.396076 -2.026938,-0.501753 a 6.6024999,6.6025015 0 0 0 -0.668225,-1.599042 c 0.770704,-0.920028 1.23622,-1.638309 1.08323,-1.791303 l -1.698695,-1.698692 c -0.152858,-0.152849 -0.870229,0.311553 -1.788962,1.080879 a 6.6024999,6.6025015 0 0 0 -1.601383,-0.660016 c -0.105579,-1.195853 -0.285352,-2.032799 -0.501756,-2.032799 z m 1.200456,5.402046 a 3.0011366,3.0011367 0 0 1 3.001135,3.001137 3.0011366,3.0011367 0 0 1 -3.001135,3.001135 3.0011366,3.0011367 0 0 1 -3.001139,-3.001135 3.0011366,3.0011367 0 0 1 3.001139,-3.001137 z" id="path4690" inkscape:connector-curvature="0" transform="matrix(1.1,0,0,1.1,-3.1845928,-3.2065454)"/>
  <path style="clip-rule:nonzero;display:inline;overflow:visible;visibility:visible;isolation:auto;mix-blend-mode:normal;color-interpolation:sRGB;color-interpolation-filters:linearRGB;solid-opacity:1;fill:currentColor;fill-opacity:1;fill-rule:nonzero;stroke:none;stroke-width:0.548215;stroke-linecap:butt;stroke-linejoin:miter;stroke-miterlimit:4;stroke-dasharray:none;stroke-dashoffset:0;stroke-opacity:0.3;marker:none;color-rendering:auto;image-rendering:auto;shape-rendering:auto;text-rendering:auto;enable-background:accumulate" d="m 40.995083,30.045041 c -0.216038,0 -0.396073,0.834428 -0.501752,2.026942 a 6.6024999,6.6025015 0 0 0 -1.595526,0.670566 C 37.976128,31.970087 37.256164,31.503801 37.102986,31.65698 l -1.69869,1.698692 c -0.153179,0.153175 0.313107,0.873143 1.085567,1.794819 a 6.6024999,6.6025015 0 0 0 -0.664706,1.595526 c -1.195852,0.105577 -2.0328,0.28535 -2.0328,0.501754 v 2.400907 c 0,0.216041 0.834427,0.396077 2.02694,0.501756 a 6.6024999,6.6025015 0 0 0 0.668221,1.599036 c -0.770703,0.920027 -1.236218,1.638309 -1.083222,1.791306 l 1.69869,1.698687 c 0.152846,0.152836 0.870227,-0.311547 1.788958,-1.080877 a 6.6024999,6.6025015 0 0 0 1.601387,0.660016 c 0.105577,1.195855 0.285352,2.032803 0.501752,2.032803 h 2.40091 c 0.21604,0 0.39608,-0.834428 0.50176,-2.02694 a 6.6024999,6.6025015 0 0 0 1.59552,-0.670564 c 0.92168,0.772459 1.64164,1.238743 1.79482,1.085562 l 1.6987,-1.698687 c 0.15317,-0.153123 -0.31312,-0.873143 -1.08558,-1.794821 a 6.6024999,6.6025015 0 0 0 0.6647,-1.595521 c 1.19586,-0.105579 2.03281,-0.285351 2.03281,-0.501756 V 37.24777 c 0,-0.216041 -0.83443,-0.396076 -2.02694,-0.501753 a 6.6024999,6.6025015 0 0 0 -0.66823,-1.599042 c 0.77071,-0.920027 1.23622,-1.638309 1.08323,-1.791303 l -1.69869,-1.698692 c -0.15286,-0.152849 -0.87023,0.311553 -1.78896,1.080879 a 6.6024999,6.6025015 0 0 0 -1.60139,-0.660016 c -0.10557,-1.195853 -0.28535,-2.032799 -0.50175,-2.032799 z m 1.20046,5.402046 a 3.0011366,3.0011367 0 0 1 3.00113,3.001137 3.0011366,3.0011367 0 0 1 -3.00113,3.001135 3.0011366,3.0011367 0 0 1 -3.001141,-3.001135 3.0011366,3.0011367 0 0 1 3.001141,-3.001137 z" id="path4690-6" inkscape:connector-curvature="0" class="ColorScheme-Text" transform="matrix(1.1,0,0,1.1,-3.1845928,-3.2065454)"/>
<path style="opacity:0.3;fill:url(#linearGradient2);fill-opacity:1;stroke:none;stroke-width:0.65048" d="M 9.8190863,52.14477 C 9.2051104,51.865933 8.5287528,51.289404 8.2232444,50.784477 7.7093523,49.935139 7.6905412,49.463029 7.6129421,35.467474 7.5008891,15.25788 7.5132006,14.771208 8.1526771,14.131731 8.6531209,13.631288 9.0199837,13.611347 17.726782,13.611347 h 9.053721 l 2.510257,2.211632 2.510258,2.211632 H 42.44253 c 10.589034,0 10.647168,0.0029 11.788253,0.596816 0.814807,0.424064 1.316196,0.929567 1.732171,1.74638 0.585323,1.149348 0.585432,1.152155 0.585432,14.959571 0,13.80436 -2.39e-4,13.81048 -0.585432,14.969883 -0.38574,0.764244 -0.940438,1.358475 -1.6262,1.742099 l -1.040768,0.582224 -21.205646,-0.0016 c -20.116296,-0.0013 -21.260388,-0.0263 -22.2712537,-0.485388 z" id="gradient-path1" class="ColorScheme-Text" transform="matrix(1.1,0,0,1.1,-3.1845928,-3.2065454)"/>
</svg>
