<?xml version='1.0' encoding='UTF-8'?>
<svg xmlns:inkscape="http://www.inkscape.org/namespaces/inkscape" xmlns:sodipodi="http://sodipodi.sourceforge.net/DTD/sodipodi-0.dtd" xmlns:xlink="http://www.w3.org/1999/xlink" xmlns="http://www.w3.org/2000/svg" xmlns:svg="http://www.w3.org/2000/svg" xmlns:rdf="http://www.w3.org/1999/02/22-rdf-syntax-ns#" xmlns:cc="http://creativecommons.org/ns#" xmlns:dc="http://purl.org/dc/elements/1.1/" width="64" height="64" version="1.1" viewBox="0 0 16.933 16.933" id="svg7" sodipodi:docname="start-here-kde.svg" inkscape:version="1.4 (e7c3feb100, 2024-10-09)">
  <sodipodi:namedview id="namedview7" pagecolor="#9c4444" bordercolor="#000000" borderopacity="0.25" inkscape:showpageshadow="2" inkscape:pageopacity="0.0" inkscape:pagecheckerboard="0" inkscape:deskcolor="#d1d1d1" inkscape:zoom="4.3531261" inkscape:cx="36.295755" inkscape:cy="25.958357" inkscape:window-width="1280" inkscape:window-height="669" inkscape:window-x="180" inkscape:window-y="166" inkscape:window-maximized="0" inkscape:current-layer="svg7" showgrid="false"/>
  <defs id="defs2">
    <filter style="color-interpolation-filters:sRGB;" inkscape:label="Blur" id="filter3" x="-0.10843471" y="-0.10870992" width="1.2168694" height="1.2174198">
      <feGaussianBlur stdDeviation="0.5 0.5" result="blur" id="feGaussianBlur3"/>
    </filter>
    <style id="current-color-scheme" type="text/css">.ColorScheme-Text {color:#d8dee9} .ColorScheme-Highlight {color:#3b4252}</style><linearGradient id="linearGradient3" inkscape:collect="always">
      <stop style="stop-color:#000000;stop-opacity:1;" offset="0" id="stop3"/>
      <stop style="stop-color:#000000;stop-opacity:0;" offset="1" id="stop4"/>
    </linearGradient>
    <linearGradient inkscape:collect="always" xlink:href="#linearGradient3" id="linearGradient4" x1="13.512321" y1="13.490874" x2="3.3783066" y2="3.3568602" gradientUnits="userSpaceOnUse"/>
  </defs>
  <metadata id="metadata2">
    <rdf:RDF>
      <cc:Work rdf:about="">
        <dc:format>image/svg+xml</dc:format>
        <dc:type rdf:resource="http://purl.org/dc/dcmitype/StillImage"/>
      </cc:Work>
    </rdf:RDF>
  </metadata>
  <ellipse style="opacity:1;fill:none;stroke:#000000;stroke-width:0.582072;stroke-dasharray:none;stroke-opacity:1;filter:url(#filter3)" id="path1-5" cx="8.4450111" cy="8.423522" rx="6.8752708" ry="6.8578653"/>
  <ellipse style="opacity:1;fill:none;stroke-width:0.58207188;stroke-opacity:1;stroke:currentColor;stroke-dasharray:none;fill-opacity:1" id="path1" cx="8.4450111" cy="8.423522" rx="6.8752708" ry="6.8578653" class="ColorScheme-Text"/>
  <ellipse style="fill:currentColor;stroke:none;stroke-width:0.285844;stroke-dasharray:none;stroke-opacity:1" id="path1-2" cx="8.4557552" cy="8.423522" rx="6.5738997" ry="6.5692253" class="ColorScheme-Highlight"/>
<path style="fill:#000000;fill-opacity:1;stroke:none;stroke-width:0.0964386;stroke-dasharray:none;stroke-opacity:0.6;opacity:0.3" d="M 9.8492114,5.1290161 8.9205217,6.0319102 10.623124,7.7087151 8.9205217,9.3855205 9.8492114,10.288413 12.428914,7.7087151 Z M 6.4956051,5.3869866 A 0.51593972,0.51593972 0 0 0 5.9796656,5.902925 0.51593972,0.51593972 0 0 0 6.4956051,6.4188656 0.51593972,0.51593972 0 0 0 7.0115455,5.902925 0.51593972,0.51593972 0 0 0 6.4956051,5.3869866 Z M 5.3347412,8.2246553 A 0.64492464,0.64492464 0 0 0 4.6898163,8.8695822 0.64492464,0.64492464 0 0 0 5.3347412,9.5145054 0.64492464,0.64492464 0 0 0 5.9796656,8.8695822 0.64492464,0.64492464 0 0 0 5.3347412,8.2246553 Z M 7.785454,10.804356 a 1.0318793,1.0318793 0 0 0 -1.031879,1.031879 1.0318793,1.0318793 0 0 0 1.031879,1.03188 1.0318793,1.0318793 0 0 0 1.0318795,-1.03188 1.0318793,1.0318793 0 0 0 -1.0318795,-1.031879 z" class="ColorScheme-Text" id="path5-4-9"/>
  <path style="fill:currentColor;fill-opacity:1;stroke:none;stroke-width:0.0964386;stroke-dasharray:none;stroke-opacity:0.6" d="M 9.8492114,4.5998599 8.9205217,5.502754 10.623124,7.1795589 8.9205217,8.8563643 9.8492114,9.7592571 12.428914,7.1795589 Z M 6.4956051,4.8578304 A 0.51593972,0.51593972 0 0 0 5.9796656,5.3737688 0.51593972,0.51593972 0 0 0 6.4956051,5.8897094 0.51593972,0.51593972 0 0 0 7.0115455,5.3737688 0.51593972,0.51593972 0 0 0 6.4956051,4.8578304 Z M 5.3347412,7.6954991 A 0.64492464,0.64492464 0 0 0 4.6898163,8.340426 0.64492464,0.64492464 0 0 0 5.3347412,8.9853492 0.64492464,0.64492464 0 0 0 5.9796656,8.340426 0.64492464,0.64492464 0 0 0 5.3347412,7.6954991 Z M 7.785454,10.2752 a 1.0318793,1.0318793 0 0 0 -1.031879,1.031879 1.0318793,1.0318793 0 0 0 1.031879,1.03188 1.0318793,1.0318793 0 0 0 1.0318795,-1.03188 A 1.0318793,1.0318793 0 0 0 7.785454,10.2752 Z" class="ColorScheme-Text" id="path5-4"/>
<path id="gradient-path1" style="opacity:0.3;baseline-shift:baseline;display:inline;overflow:visible;vector-effect:none;enable-background:accumulate;stop-color:#000000;stop-opacity:1;fill:url(#linearGradient4)" d="M 8.4453131 1.2753492 C 4.4913166 1.2753492 1.2794833 4.4784283 1.2794833 8.4236094 C 1.2794833 12.36879 4.4913166 15.572386 8.4453131 15.572386 C 12.39931 15.572386 15.611143 12.36879 15.611143 8.4236094 C 15.611143 4.4784283 12.39931 1.2753492 8.4453131 1.2753492 z "/>
</svg>
