<?xml version="1.0" encoding="UTF-8" standalone="no"?>
<svg
   width="64"
   height="64"
   version="1.1"
   viewBox="0 0 16.933 16.933"
   id="svg7"
   sodipodi:docname="antconc.svg"
   inkscape:version="1.4.2 (ebf0e940d0, 2025-05-08)"
   xmlns:inkscape="http://www.inkscape.org/namespaces/inkscape"
   xmlns:sodipodi="http://sodipodi.sourceforge.net/DTD/sodipodi-0.dtd"
   xmlns:xlink="http://www.w3.org/1999/xlink"
   xmlns="http://www.w3.org/2000/svg"
   xmlns:svg="http://www.w3.org/2000/svg"
   xmlns:rdf="http://www.w3.org/1999/02/22-rdf-syntax-ns#"
   xmlns:cc="http://creativecommons.org/ns#"
   xmlns:dc="http://purl.org/dc/elements/1.1/">
  <sodipodi:namedview
     id="namedview7"
     pagecolor="#9c4444"
     bordercolor="#000000"
     borderopacity="0.25"
     inkscape:showpageshadow="2"
     inkscape:pageopacity="0.0"
     inkscape:pagecheckerboard="0"
     inkscape:deskcolor="#d1d1d1"
     inkscape:zoom="8.7062522"
     inkscape:cx="72.074641"
     inkscape:cy="15.276378"
     inkscape:window-width="2560"
     inkscape:window-height="1388"
     inkscape:window-x="0"
     inkscape:window-y="0"
     inkscape:window-maximized="1"
     inkscape:current-layer="svg7"
     showgrid="false" />
  <defs
     id="defs2">
    <filter
       style="color-interpolation-filters:sRGB;"
       inkscape:label="Blur"
       id="filter3"
       x="-0.10843471"
       y="-0.10870992"
       width="1.2168694"
       height="1.2174198">
      <feGaussianBlur
         stdDeviation="0.5 0.5"
         result="blur"
         id="feGaussianBlur3" />
    </filter>
    <style
       id="current-color-scheme"
       type="text/css">.ColorScheme-Text {color:#d8dee9} .ColorScheme-Highlight {color:#3b4252}</style>
    <linearGradient
       id="linearGradient3"
       inkscape:collect="always">
      <stop
         style="stop-color:#000000;stop-opacity:1;"
         offset="0"
         id="stop3" />
      <stop
         style="stop-color:#000000;stop-opacity:0;"
         offset="1"
         id="stop4" />
    </linearGradient>
    <linearGradient
       inkscape:collect="always"
       xlink:href="#linearGradient3"
       id="linearGradient4"
       x1="13.512321"
       y1="13.490874"
       x2="3.3783066"
       y2="3.3568602"
       gradientUnits="userSpaceOnUse" />
  </defs>
  <metadata
     id="metadata2">
    <rdf:RDF>
      <cc:Work
         rdf:about="">
        <dc:format>image/svg+xml</dc:format>
        <dc:type
           rdf:resource="http://purl.org/dc/dcmitype/StillImage" />
      </cc:Work>
    </rdf:RDF>
  </metadata>
  <ellipse
     style="opacity:1;fill:none;stroke:#000000;stroke-width:0.582072;stroke-dasharray:none;stroke-opacity:1;filter:url(#filter3)"
     id="path1-5"
     cx="8.4450111"
     cy="8.423522"
     rx="6.8752708"
     ry="6.8578653" />
  <ellipse
     style="opacity:1;fill:none;stroke-width:0.58207188;stroke-opacity:1;stroke:currentColor;stroke-dasharray:none;fill-opacity:1"
     id="path1"
     cx="8.4450111"
     cy="8.423522"
     rx="6.8752708"
     ry="6.8578653"
     class="ColorScheme-Text" />
  <ellipse
     style="fill:currentColor;stroke:none;stroke-width:0.285844;stroke-dasharray:none;stroke-opacity:1"
     id="path1-2"
     cx="8.4557552"
     cy="8.423522"
     rx="6.5738997"
     ry="6.5692253"
     class="ColorScheme-Highlight" />
  <path
     id="path5-6"
     d="m 4.6631903,6.6805977 c -0.09128,0 -0.165362,0.074082 -0.165362,0.1653616 v 4.2993957 c 0,0.09128 0.07408,0.165361 0.165362,0.165361 h 2.6457811 0.661445 4.2993956 c 0.09128,0 0.16536,-0.07392 0.16536,-0.165361 V 7.8381271 c 0,-0.091445 -0.07408,-0.1653611 -0.16536,-0.1653611 H 7.9704155 V 6.8459593 c 0,-0.09128 -0.07408,-0.1653616 -0.165361,-0.1653616 z m 0.496083,0.8268068 h 2.1496981 v 0.6058942 l -0.06598,0.0883 c -0.0093,0.012402 -0.926185,1.2539273 -0.926185,2.4476713 H 5.6553613 c 0,-0.9969641 0.5026991,-1.9709422 0.8157291,-2.4804207 H 5.1592773 Z M 7.9704155,8.0034886 H 12.104449 V 10.979995 H 7.9704155 Z m 0.4960839,0.6614452 v 0.2784661 h 0.7310791 l -0.72365,1.1739051 v 0.201243 H 9.6240296 V 10.041244 H 8.8929514 L 9.6104649,8.8617203 V 8.6649338 Z m 1.488253,0 V 10.314575 H 10.285475 V 8.6649338 Z m 0.6614456,0 V 10.315254 H 10.96759 V 9.7353257 h 0.234316 c 0.178426,0 0.31999,-0.048113 0.419701,-0.1408802 0.101368,-0.094421 0.15212,-0.221925 0.15212,-0.3826565 0,-0.1623847 -0.05077,-0.2933445 -0.15396,-0.3943802 -0.101368,-0.1010359 -0.239441,-0.152475 -0.410755,-0.152475 z m 0.351554,0.2784661 h 0.244749 c 0.063,0 0.113601,0.024807 0.150309,0.072926 0.03853,0.049774 0.05587,0.1159169 0.05587,0.1971094 0,0.079539 -0.01736,0.140715 -0.05407,0.1822207 -0.03671,0.041506 -0.08913,0.061365 -0.155607,0.061365 h -0.241254 z"
     style="opacity:0.3;fill:#000000;fill-opacity:1;stroke-width:0.165361" />
  <path
     id="path5-6-5"
     d="m 4.6631903,6.151441 c -0.09128,0 -0.165362,0.074082 -0.165362,0.1653615 v 4.2993945 c 0,0.09128 0.07408,0.165362 0.165362,0.165362 h 2.6457811 0.661445 4.2993956 c 0.09128,0 0.16536,-0.07392 0.16536,-0.165362 V 7.3089704 c 0,-0.091445 -0.07408,-0.1653612 -0.16536,-0.1653612 H 7.9704155 V 6.3168025 c 0,-0.09128 -0.07408,-0.1653615 -0.165361,-0.1653615 z m 0.496083,0.8268068 H 7.3089714 V 7.584142 l -0.06598,0.0883 c -0.0093,0.012402 -0.926185,1.2539274 -0.926185,2.447671 H 5.6553613 c 0,-0.9969637 0.5026991,-1.9709418 0.8157291,-2.4804203 H 5.1592773 Z M 7.9704155,7.4743319 H 12.104449 V 10.450837 H 7.9704155 Z m 0.4960839,0.6614452 v 0.278466 h 0.7310791 l -0.72365,1.1739048 V 9.789391 H 9.6240296 V 9.5120876 H 8.8929514 L 9.6104649,8.3325636 V 8.1357771 Z m 1.488253,0 V 9.7854182 H 10.285475 V 8.1357771 Z m 0.6614456,0 V 9.786097 H 10.96759 V 9.206169 h 0.234316 c 0.178426,0 0.31999,-0.048113 0.419701,-0.1408803 0.101368,-0.094421 0.15212,-0.221925 0.15212,-0.3826564 0,-0.1623847 -0.05077,-0.2933445 -0.15396,-0.3943803 C 11.518399,8.1872162 11.380326,8.1357771 11.209012,8.1357771 Z m 0.351554,0.278466 h 0.244749 c 0.063,0 0.113601,0.024807 0.150309,0.072927 0.03853,0.049774 0.05587,0.115917 0.05587,0.1971093 0,0.079539 -0.01736,0.140715 -0.05407,0.1822207 -0.03671,0.041506 -0.08913,0.061365 -0.155607,0.061365 h -0.241254 z"
     style="fill:currentColor;stroke-width:0.165361"
     class="ColorScheme-Text" />
  <path
     id="gradient-path1"
     style="opacity:0.3;baseline-shift:baseline;display:inline;overflow:visible;vector-effect:none;enable-background:accumulate;stop-color:#000000;stop-opacity:1;fill:url(#linearGradient4)"
     d="M 8.4453131 1.2753492 C 4.4913166 1.2753492 1.2794833 4.4784283 1.2794833 8.4236094 C 1.2794833 12.36879 4.4913166 15.572386 8.4453131 15.572386 C 12.39931 15.572386 15.611143 12.36879 15.611143 8.4236094 C 15.611143 4.4784283 12.39931 1.2753492 8.4453131 1.2753492 z " />
</svg>
