<?xml version='1.0' encoding='UTF-8'?>
<svg xmlns:inkscape="http://www.inkscape.org/namespaces/inkscape" xmlns:sodipodi="http://sodipodi.sourceforge.net/DTD/sodipodi-0.dtd" xmlns="http://www.w3.org/2000/svg" xmlns:svg="http://www.w3.org/2000/svg" xmlns:rdf="http://www.w3.org/1999/02/22-rdf-syntax-ns#" xmlns:cc="http://creativecommons.org/ns#" xmlns:dc="http://purl.org/dc/elements/1.1/" width="64" height="64" version="1.1" viewBox="0 0 16.933 16.933" id="svg7" sodipodi:docname="a7800.svg" inkscape:version="1.4.2 (ebf0e940d0, 2025-05-08)">
  <sodipodi:namedview id="namedview7" pagecolor="#9c4444" bordercolor="#000000" borderopacity="0.25" inkscape:showpageshadow="2" inkscape:pageopacity="0.0" inkscape:pagecheckerboard="0" inkscape:deskcolor="#d1d1d1" inkscape:zoom="4.3531261" inkscape:cx="36.066035" inkscape:cy="26.073217" inkscape:window-width="1280" inkscape:window-height="669" inkscape:window-x="0" inkscape:window-y="0" inkscape:window-maximized="0" inkscape:current-layer="svg7" showgrid="false"/>
  <defs id="defs2">
    <filter style="color-interpolation-filters:sRGB;" inkscape:label="Blur" id="filter3" x="-0.10843471" y="-0.10870992" width="1.2168694" height="1.2174198">
      <feGaussianBlur stdDeviation="0.5 0.5" result="blur" id="feGaussianBlur3"/>
    </filter>
    <style id="current-color-scheme" type="text/css">.ColorScheme-Text {color:#d8dee9} .ColorScheme-Highlight {color:#3b4252}</style>
  <linearGradient id="linearGradient3" inkscape:collect="always">
      <stop style="stop-color:#000000;stop-opacity:1;" offset="0" id="stop3"/>
      <stop style="stop-color:#000000;stop-opacity:0;" offset="1" id="stop4"/>
    </linearGradient>
    <linearGradient xmlns:xlink="http://www.w3.org/1999/xlink" inkscape:collect="always" xlink:href="#linearGradient3" id="linearGradient4" x1="13.512321" y1="13.490874" x2="3.3783066" y2="3.3568602" gradientUnits="userSpaceOnUse"/>
  </defs>
  <metadata id="metadata2">
    <rdf:RDF>
      <cc:Work rdf:about="">
        <dc:format>image/svg+xml</dc:format>
        <dc:type rdf:resource="http://purl.org/dc/dcmitype/StillImage"/>
      </cc:Work>
    </rdf:RDF>
  </metadata>
  <ellipse style="opacity:1;fill:none;stroke:#000000;stroke-width:0.582072;stroke-dasharray:none;stroke-opacity:1;filter:url(#filter3)" id="path1-5" cx="8.4450111" cy="8.423522" rx="6.8752708" ry="6.8578653"/>
  <ellipse style="opacity:1;fill:none;stroke-width:0.58207188;stroke-opacity:1;stroke:currentColor;stroke-dasharray:none;fill-opacity:1" id="path1" cx="8.4450111" cy="8.423522" rx="6.8752708" ry="6.8578653" class="ColorScheme-Text"/>
  <ellipse style="fill:currentColor;stroke:none;stroke-width:0.285844;stroke-dasharray:none;stroke-opacity:1" id="path1-2" cx="8.4557552" cy="8.423522" rx="6.5738997" ry="6.5692253" class="ColorScheme-Highlight"/>
<path id="path2-6" style="fill:#000000;fill-opacity:1;opacity:0.3" d="M 44.972179 3.9637102 C 44.846811 3.9672053 44.702478 3.979774 44.534956 4.0008329 L 38.001357 4.0008329 L 37.865241 4.0008329 L 25.998345 4.0008329 L 25.998345 4.0379556 L 19.464746 4.0379556 C 18.124566 3.8694842 18.230422 4.2494081 18.223197 5.3784983 C 18.022431 23.664357 14.487751 41.349955 3.2297436 49.781395 C 1.9813988 50.591698 1.8445753 50.588734 2.6151564 51.942762 L 6.5171667 58.806341 C 7.2317575 60.495863 7.5806628 60.055734 8.7321556 59.280687 C 16.502116 53.888699 21.463347 46.786939 23.95247 38.07124 C 25.207624 33.676303 25.761099 28.927257 25.998345 23.647001 L 25.998345 58.32787 C 25.920705 59.922241 25.988878 59.969519 27.479129 59.969519 L 36.805181 59.969519 C 38.351078 60.139078 38.001357 59.651807 38.001357 58.228876 L 38.001357 23.597504 C 38.238297 28.882633 38.791114 33.631681 40.047232 38.029992 C 42.536355 46.745691 47.497586 53.851576 55.267547 59.243564 C 56.41904 60.018611 56.767944 60.45874 57.482535 58.769218 L 61.38867 51.90564 C 62.159251 50.551612 62.022428 50.550451 60.774083 49.740148 C 49.516076 41.308708 45.977271 23.627234 45.776505 5.3413756 C 45.770183 4.3534216 45.849756 3.9392447 44.972179 3.9637102 z " transform="matrix(0.12528143,0,0,0.12528143,4.4575128,5.1164044)"/>
  <path id="path2" style="opacity:1;fill:currentColor;fill-opacity:1" class="ColorScheme-Text" d="M 44.972179 3.9637098 C 44.846811 3.9672049 44.702478 3.9797736 44.534956 4.0008325 L 38.001357 4.0008325 L 37.865241 4.0008325 L 25.998345 4.0008325 L 25.998345 4.0379552 L 19.464746 4.0379552 C 18.124566 3.8694838 18.230422 4.2494077 18.223197 5.3784979 C 18.022431 23.664356 14.487751 41.349955 3.2297436 49.781395 C 1.9813988 50.591698 1.8445753 50.588734 2.6151564 51.942762 L 6.5171667 58.80634 C 7.2317575 60.495862 7.5806628 60.055733 8.7321556 59.280686 C 16.502116 53.888698 21.463347 46.786938 23.95247 38.071239 C 25.207624 33.676303 25.761099 28.927257 25.998345 23.647 L 25.998345 58.32787 C 25.920705 59.922241 25.988878 59.969519 27.479129 59.969519 L 36.805181 59.969519 C 38.351078 60.139078 38.001357 59.651807 38.001357 58.228876 L 38.001357 23.597504 C 38.238297 28.882633 38.791114 33.631681 40.047232 38.029992 C 42.536355 46.745691 47.497586 53.851576 55.267547 59.243564 C 56.41904 60.018611 56.767944 60.45874 57.482535 58.769218 L 61.38867 51.905639 C 62.159251 50.551611 62.022428 50.55045 60.774083 49.740147 C 49.516076 41.308707 45.977271 23.627234 45.776505 5.3413752 C 45.770183 4.3534212 45.849756 3.9392443 44.972179 3.9637098 z " transform="matrix(0.12528143,0,0,0.12528143,4.4575128,4.5872481)"/>
<path id="gradient-path1" style="opacity:0.3;baseline-shift:baseline;display:inline;overflow:visible;vector-effect:none;enable-background:accumulate;stop-color:#000000;stop-opacity:1;fill:url(#linearGradient4)" d="M 8.4453131 1.2753492 C 4.4913166 1.2753492 1.2794833 4.4784283 1.2794833 8.4236094 C 1.2794833 12.36879 4.4913166 15.572386 8.4453131 15.572386 C 12.39931 15.572386 15.611143 12.36879 15.611143 8.4236094 C 15.611143 4.4784283 12.39931 1.2753492 8.4453131 1.2753492 z "/>
</svg>
