<?xml version='1.0' encoding='UTF-8'?>
<svg xmlns:inkscape="http://www.inkscape.org/namespaces/inkscape" xmlns:sodipodi="http://sodipodi.sourceforge.net/DTD/sodipodi-0.dtd" xmlns:xlink="http://www.w3.org/1999/xlink" xmlns="http://www.w3.org/2000/svg" xmlns:svg="http://www.w3.org/2000/svg" xmlns:rdf="http://www.w3.org/1999/02/22-rdf-syntax-ns#" xmlns:cc="http://creativecommons.org/ns#" xmlns:dc="http://purl.org/dc/elements/1.1/" width="64" height="64" version="1.1" viewBox="0 0 16.933 16.933" id="svg7" sodipodi:docname="accessories-character-map.svg" inkscape:version="1.4 (e7c3feb100, 2024-10-09)">
  <sodipodi:namedview id="namedview7" pagecolor="#9c4444" bordercolor="#000000" borderopacity="0.25" inkscape:showpageshadow="2" inkscape:pageopacity="0.0" inkscape:pagecheckerboard="0" inkscape:deskcolor="#d1d1d1" inkscape:zoom="4.3531261" inkscape:cx="36.066035" inkscape:cy="25.958357" inkscape:window-width="1280" inkscape:window-height="669" inkscape:window-x="61" inkscape:window-y="142" inkscape:window-maximized="0" inkscape:current-layer="svg7" showgrid="false"/>
  <defs id="defs2">
    <filter style="color-interpolation-filters:sRGB;" inkscape:label="Blur" id="filter3" x="-0.10843471" y="-0.10870992" width="1.2168694" height="1.2174198">
      <feGaussianBlur stdDeviation="0.5 0.5" result="blur" id="feGaussianBlur3"/>
    </filter>
    <style id="current-color-scheme" type="text/css">.ColorScheme-Text {color:#d8dee9} .ColorScheme-Highlight {color:#3b4252}</style><linearGradient id="linearGradient3" inkscape:collect="always">
      <stop style="stop-color:#000000;stop-opacity:1;" offset="0" id="stop3"/>
      <stop style="stop-color:#000000;stop-opacity:0;" offset="1" id="stop4"/>
    </linearGradient>
    <linearGradient inkscape:collect="always" xlink:href="#linearGradient3" id="linearGradient4" x1="13.512321" y1="13.490874" x2="3.3783066" y2="3.3568602" gradientUnits="userSpaceOnUse"/>
  </defs>
  <metadata id="metadata2">
    <rdf:RDF>
      <cc:Work rdf:about="">
        <dc:format>image/svg+xml</dc:format>
        <dc:type rdf:resource="http://purl.org/dc/dcmitype/StillImage"/>
      </cc:Work>
    </rdf:RDF>
  </metadata>
  <ellipse style="opacity:1;fill:none;stroke:#000000;stroke-width:0.582072;stroke-dasharray:none;stroke-opacity:1;filter:url(#filter3)" id="path1-5" cx="8.4450111" cy="8.423522" rx="6.8752708" ry="6.8578653"/>
  <ellipse style="opacity:1;fill:none;stroke-width:0.58207188;stroke-opacity:1;stroke:currentColor;stroke-dasharray:none;fill-opacity:1" id="path1" cx="8.4450111" cy="8.423522" rx="6.8752708" ry="6.8578653" class="ColorScheme-Text"/>
  <ellipse style="fill:currentColor;stroke:none;stroke-width:0.285844;stroke-dasharray:none;stroke-opacity:1" id="path1-2" cx="8.4557552" cy="8.423522" rx="6.5738997" ry="6.5692253" class="ColorScheme-Highlight"/>
<path style="fill:#000000;stroke:none;stroke-width:0.0964386;stroke-dasharray:none;stroke-opacity:0.6;opacity:0.3" class="ColorScheme-Text" d="m 5.8231311,6.3196793 c 0,0 -0.9662461,0 -0.9662461,0.9662463 v 3.8649864 c 0,0.966246 0.9662461,0.966246 0.9662461,0.966246 h 5.3143549 c 0,0 0.966247,0 0.966247,-0.966246 V 7.2859256 c 0,-0.9662463 -0.966247,-0.9662463 -0.966247,-0.9662463 z m 0.1207808,0.9662463 h 0.7246849 c 0.066911,0 0.1207802,0.05387 0.1207802,0.1207811 V 8.131391 c 0,0.066911 -0.05387,0.1207806 -0.1207802,0.1207806 H 5.9439119 c -0.066911,0 -0.1207808,-0.053869 -0.1207808,-0.1207806 V 7.4067067 c 0,-0.06691 0.053869,-0.1207811 0.1207808,-0.1207811 z m 1.4493694,0 h 0.7246843 c 0.066911,0 0.1207811,0.05387 0.1207811,0.1207811 V 8.131391 c 0,0.066911 -0.053868,0.1207806 -0.1207811,0.1207806 H 7.3932813 c -0.066911,0 -0.1207807,-0.053869 -0.1207807,-0.1207806 V 7.4067067 c 0,-0.06691 0.053869,-0.1207811 0.1207807,-0.1207811 z m 1.4493695,0 H 9.567335 c 0.066915,0 0.1207819,0.05387 0.1207819,0.1207811 V 8.131391 c 0,0.066911 -0.053873,0.1207806 -0.1207819,0.1207806 H 8.8426508 c -0.06691,0 -0.1207808,-0.053869 -0.1207808,-0.1207806 V 7.4067067 c 0,-0.06691 0.05387,-0.1207811 0.1207808,-0.1207811 z m 1.4493722,0 h 0.724683 c 0.06693,0 0.12078,0.05387 0.12078,0.1207811 V 8.131391 c 0,0.066911 -0.05387,0.1207806 -0.12078,0.1207806 h -0.724683 c -0.06693,0 -0.120782,-0.053869 -0.120782,-0.1207806 V 7.4067067 c 0,-0.06691 0.05387,-0.1207811 0.120782,-0.1207811 z M 5.9439119,8.7352953 h 0.7246849 c 0.066911,0 0.1207802,0.05387 0.1207802,0.1207803 v 0.7246847 c 0,0.06691 -0.05387,0.1207808 -0.1207802,0.1207808 H 5.9439119 c -0.066911,0 -0.1207808,-0.05387 -0.1207808,-0.1207808 V 8.8560756 c 0,-0.066912 0.053869,-0.1207803 0.1207808,-0.1207803 z m 1.4493694,0 h 0.7246843 c 0.066911,0 0.1207811,0.05387 0.1207811,0.1207803 v 0.7246847 c 0,0.06691 -0.053868,0.1207808 -0.1207811,0.1207808 H 7.3932813 c -0.066911,0 -0.1207807,-0.05387 -0.1207807,-0.1207808 V 8.8560756 c 0,-0.066912 0.053869,-0.1207803 0.1207807,-0.1207803 z m 1.4493695,0 H 9.567335 c 0.066915,0 0.1207819,0.05387 0.1207819,0.1207803 v 0.7246847 c 0,0.06691 -0.053873,0.1207808 -0.1207819,0.1207808 H 8.8426508 c -0.06691,0 -0.1207808,-0.05387 -0.1207808,-0.1207808 V 8.8560756 c 0,-0.066912 0.05387,-0.1207803 0.1207808,-0.1207803 z m 1.4493722,0 h 0.724683 c 0.06693,0 0.12078,0.05387 0.12078,0.1207803 v 0.7246847 c 0,0.06691 -0.05387,0.1207808 -0.12078,0.1207808 h -0.724683 c -0.06693,0 -0.120782,-0.05387 -0.120782,-0.1207808 V 8.8560756 c 0,-0.066912 0.05387,-0.1207803 0.120782,-0.1207803 z M 6.9101579,10.184665 h 3.1403011 c 0.06691,0 0.120782,0.05387 0.120782,0.12078 v 0.724685 c 0,0.0669 -0.05387,0.120782 -0.120782,0.120782 H 6.9101579 c -0.06691,0 -0.1207809,-0.05387 -0.1207809,-0.120782 v -0.724685 c 0,-0.06691 0.05387,-0.12078 0.1207809,-0.12078 z" id="path5-2"/>
  <path style="opacity:1;fill:currentColor;stroke:none;stroke-width:0.0964386;stroke-dasharray:none;stroke-opacity:0.6" class="ColorScheme-Text" d="m 5.8231311,5.7905231 c 0,0 -0.9662461,0 -0.9662461,0.9662463 v 3.8649866 c 0,0.966246 0.9662461,0.966246 0.9662461,0.966246 h 5.3143549 c 0,0 0.966247,0 0.966247,-0.966246 V 6.7567694 c 0,-0.9662463 -0.966247,-0.9662463 -0.966247,-0.9662463 z m 0.1207808,0.9662463 h 0.7246849 c 0.066911,0 0.1207802,0.05387 0.1207802,0.1207811 v 0.7246843 c 0,0.066911 -0.05387,0.1207806 -0.1207802,0.1207806 H 5.9439119 c -0.066911,0 -0.1207808,-0.053869 -0.1207808,-0.1207806 V 6.8775505 c 0,-0.06691 0.053869,-0.1207811 0.1207808,-0.1207811 z m 1.4493694,0 h 0.7246843 c 0.066911,0 0.1207811,0.05387 0.1207811,0.1207811 v 0.7246843 c 0,0.066911 -0.053868,0.1207806 -0.1207811,0.1207806 H 7.3932813 c -0.066911,0 -0.1207807,-0.053869 -0.1207807,-0.1207806 V 6.8775505 c 0,-0.06691 0.053869,-0.1207811 0.1207807,-0.1207811 z m 1.4493695,0 H 9.567335 c 0.066915,0 0.1207819,0.05387 0.1207819,0.1207811 v 0.7246843 c 0,0.066911 -0.053873,0.1207806 -0.1207819,0.1207806 H 8.8426508 c -0.06691,0 -0.1207808,-0.053869 -0.1207808,-0.1207806 V 6.8775505 c 0,-0.06691 0.05387,-0.1207811 0.1207808,-0.1207811 z m 1.4493722,0 h 0.724683 c 0.06693,0 0.12078,0.05387 0.12078,0.1207811 v 0.7246843 c 0,0.066911 -0.05387,0.1207806 -0.12078,0.1207806 h -0.724683 c -0.06693,0 -0.120782,-0.053869 -0.120782,-0.1207806 V 6.8775505 c 0,-0.06691 0.05387,-0.1207811 0.120782,-0.1207811 z M 5.9439119,8.2061391 h 0.7246849 c 0.066911,0 0.1207802,0.05387 0.1207802,0.1207803 v 0.7246847 c 0,0.06691 -0.05387,0.1207808 -0.1207802,0.1207808 H 5.9439119 c -0.066911,0 -0.1207808,-0.05387 -0.1207808,-0.1207808 V 8.3269194 c 0,-0.066912 0.053869,-0.1207803 0.1207808,-0.1207803 z m 1.4493694,0 h 0.7246843 c 0.066911,0 0.1207811,0.05387 0.1207811,0.1207803 v 0.7246847 c 0,0.06691 -0.053868,0.1207808 -0.1207811,0.1207808 H 7.3932813 c -0.066911,0 -0.1207807,-0.05387 -0.1207807,-0.1207808 V 8.3269194 c 0,-0.066912 0.053869,-0.1207803 0.1207807,-0.1207803 z m 1.4493695,0 H 9.567335 c 0.066915,0 0.1207819,0.05387 0.1207819,0.1207803 v 0.7246847 c 0,0.06691 -0.053873,0.1207808 -0.1207819,0.1207808 H 8.8426508 c -0.06691,0 -0.1207808,-0.05387 -0.1207808,-0.1207808 V 8.3269194 c 0,-0.066912 0.05387,-0.1207803 0.1207808,-0.1207803 z m 1.4493722,0 h 0.724683 c 0.06693,0 0.12078,0.05387 0.12078,0.1207803 v 0.7246847 c 0,0.06691 -0.05387,0.1207808 -0.12078,0.1207808 h -0.724683 c -0.06693,0 -0.120782,-0.05387 -0.120782,-0.1207808 V 8.3269194 c 0,-0.066912 0.05387,-0.1207803 0.120782,-0.1207803 z M 6.9101579,9.6555086 h 3.1403011 c 0.06691,0 0.120782,0.053866 0.120782,0.1207799 v 0.7246855 c 0,0.0669 -0.05387,0.120782 -0.120782,0.120782 H 6.9101579 c -0.06691,0 -0.1207809,-0.05387 -0.1207809,-0.120782 V 9.7762885 c 0,-0.066908 0.05387,-0.1207799 0.1207809,-0.1207799 z" id="path5"/>
<path id="gradient-path1" style="opacity:0.3;baseline-shift:baseline;display:inline;overflow:visible;vector-effect:none;enable-background:accumulate;stop-color:#000000;stop-opacity:1;fill:url(#linearGradient4)" d="M 8.4453131 1.2753492 C 4.4913166 1.2753492 1.2794833 4.4784283 1.2794833 8.4236094 C 1.2794833 12.36879 4.4913166 15.572386 8.4453131 15.572386 C 12.39931 15.572386 15.611143 12.36879 15.611143 8.4236094 C 15.611143 4.4784283 12.39931 1.2753492 8.4453131 1.2753492 z "/>
</svg>
