<?xml version='1.0' encoding='UTF-8'?>
<svg xmlns:inkscape="http://www.inkscape.org/namespaces/inkscape" xmlns:sodipodi="http://sodipodi.sourceforge.net/DTD/sodipodi-0.dtd" xmlns="http://www.w3.org/2000/svg" xmlns:svg="http://www.w3.org/2000/svg" xmlns:rdf="http://www.w3.org/1999/02/22-rdf-syntax-ns#" xmlns:cc="http://creativecommons.org/ns#" xmlns:dc="http://purl.org/dc/elements/1.1/" width="64" height="64" version="1.1" viewBox="0 0 16.933 16.933" id="svg7" sodipodi:docname="akregator.svg" inkscape:version="1.4.2 (ebf0e940d0, 2025-05-08)">
  <sodipodi:namedview id="namedview7" pagecolor="#9c4444" bordercolor="#000000" borderopacity="0.25" inkscape:showpageshadow="2" inkscape:pageopacity="0.0" inkscape:pagecheckerboard="0" inkscape:deskcolor="#d1d1d1" inkscape:zoom="4.3531261" inkscape:cx="36.066035" inkscape:cy="26.073217" inkscape:window-width="1280" inkscape:window-height="669" inkscape:window-x="0" inkscape:window-y="0" inkscape:window-maximized="0" inkscape:current-layer="svg7" showgrid="false"/>
  <defs id="defs2">
    <filter style="color-interpolation-filters:sRGB;" inkscape:label="Blur" id="filter3" x="-0.10843471" y="-0.10870992" width="1.2168694" height="1.2174198">
      <feGaussianBlur stdDeviation="0.5 0.5" result="blur" id="feGaussianBlur3"/>
    </filter>
    <style id="current-color-scheme" type="text/css">.ColorScheme-Text {color:#d8dee9} .ColorScheme-Highlight {color:#3b4252}</style>
  <linearGradient id="linearGradient3" inkscape:collect="always">
      <stop style="stop-color:#000000;stop-opacity:1;" offset="0" id="stop3"/>
      <stop style="stop-color:#000000;stop-opacity:0;" offset="1" id="stop4"/>
    </linearGradient>
    <linearGradient xmlns:xlink="http://www.w3.org/1999/xlink" inkscape:collect="always" xlink:href="#linearGradient3" id="linearGradient4" x1="13.512321" y1="13.490874" x2="3.3783066" y2="3.3568602" gradientUnits="userSpaceOnUse"/>
  </defs>
  <metadata id="metadata2">
    <rdf:RDF>
      <cc:Work rdf:about="">
        <dc:format>image/svg+xml</dc:format>
        <dc:type rdf:resource="http://purl.org/dc/dcmitype/StillImage"/>
      </cc:Work>
    </rdf:RDF>
  </metadata>
  <ellipse style="opacity:1;fill:none;stroke:#000000;stroke-width:0.582072;stroke-dasharray:none;stroke-opacity:1;filter:url(#filter3)" id="path1-5" cx="8.4450111" cy="8.423522" rx="6.8752708" ry="6.8578653"/>
  <ellipse style="opacity:1;fill:none;stroke-width:0.58207188;stroke-opacity:1;stroke:currentColor;stroke-dasharray:none;fill-opacity:1" id="path1" cx="8.4450111" cy="8.423522" rx="6.8752708" ry="6.8578653" class="ColorScheme-Text"/>
  <ellipse style="fill:currentColor;stroke:none;stroke-width:0.285844;stroke-dasharray:none;stroke-opacity:1" id="path1-2" cx="8.4557552" cy="8.423522" rx="6.5738997" ry="6.5692253" class="ColorScheme-Highlight"/>
<path id="circle24-3" style="font-size:34.1545px;line-height:1.25;font-family:'padmaa-Bold.1.1';-inkscape-font-specification:'padmaa-Bold.1.1';fill:#000000;fill-opacity:1;stroke:none;stroke-width:0.569489;stroke-dasharray:none;stroke-opacity:0.3;opacity:0.3" d="M 37.999457 13.999526 L 37.999457 15.351868 C 37.999457 16.080868 38.60305 16.667405 39.33205 16.668405 C 45.95205 16.668405 51.341647 22.062867 51.331647 28.683867 C 51.340647 29.412867 51.935241 30.000404 52.664241 30.000404 L 54.000588 30.000404 L 54.000588 28.551662 C 54.000588 20.667662 47.582198 13.999526 39.726198 13.999526 L 37.999457 13.999526 z M 37.999457 18.999886 L 37.999457 20.407314 C 38.009457 21.158314 38.619839 21.76141 39.370839 21.76241 C 43.132839 21.76241 46.24527 24.885782 46.24527 28.628782 C 46.24627 29.385782 46.850893 29.999404 47.607893 30.000404 L 49.000547 30.000404 L 49.000547 28.645307 C 49.000547 23.476307 44.872972 18.999886 39.749972 18.999886 L 37.999457 18.999886 z M 40.999982 24.000247 A 3 3 0 0 0 37.999457 26.999637 A 3 3 0 0 0 40.999982 30.000404 A 3 3 0 0 0 44.000507 26.999637 A 3 3 0 0 0 40.999982 24.000247 z " transform="matrix(0.41298656,0,0,0.37523983,-10.382583,0.49777707)"/>
  <path id="circle24" style="font-size:34.1545px;line-height:1.25;font-family:'padmaa-Bold.1.1';-inkscape-font-specification:'padmaa-Bold.1.1';opacity:1;fill:currentColor;fill-opacity:1;stroke:none;stroke-width:0.569489;stroke-dasharray:none;stroke-opacity:0.3" class="ColorScheme-Text" d="M 37.999457 13.999526 L 37.999457 15.351868 C 37.999457 16.080868 38.60305 16.667405 39.33205 16.668405 C 45.95205 16.668405 51.341647 22.062867 51.331647 28.683867 C 51.340647 29.412867 51.935241 30.000404 52.664241 30.000404 L 54.000588 30.000404 L 54.000588 28.551662 C 54.000588 20.667662 47.582198 13.999526 39.726198 13.999526 L 37.999457 13.999526 z M 37.999457 18.999886 L 37.999457 20.407314 C 38.009457 21.158314 38.619839 21.76141 39.370839 21.76241 C 43.132839 21.76241 46.24527 24.885782 46.24527 28.628782 C 46.24627 29.385782 46.850893 29.999404 47.607893 30.000404 L 49.000547 30.000404 L 49.000547 28.645307 C 49.000547 23.476307 44.872972 18.999886 39.749972 18.999886 L 37.999457 18.999886 z M 40.999982 24.000247 A 3 3 0 0 0 37.999457 26.999637 A 3 3 0 0 0 40.999982 30.000404 A 3 3 0 0 0 44.000507 26.999637 A 3 3 0 0 0 40.999982 24.000247 z " transform="matrix(0.41298656,0,0,0.37523983,-10.382583,-0.03137917)"/>
<path id="gradient-path1" style="opacity:0.3;baseline-shift:baseline;display:inline;overflow:visible;vector-effect:none;enable-background:accumulate;stop-color:#000000;stop-opacity:1;fill:url(#linearGradient4)" d="M 8.4453131 1.2753492 C 4.4913166 1.2753492 1.2794833 4.4784283 1.2794833 8.4236094 C 1.2794833 12.36879 4.4913166 15.572386 8.4453131 15.572386 C 12.39931 15.572386 15.611143 12.36879 15.611143 8.4236094 C 15.611143 4.4784283 12.39931 1.2753492 8.4453131 1.2753492 z "/>
</svg>
