<?xml version="1.0" encoding="UTF-8" standalone="no"?>
<svg
   width="64"
   height="64"
   version="1.1"
   viewBox="0 0 16.933 16.933"
   id="svg7"
   sodipodi:docname="antconc.svg"
   inkscape:version="1.4.2 (ebf0e940d0, 2025-05-08)"
   xmlns:inkscape="http://www.inkscape.org/namespaces/inkscape"
   xmlns:sodipodi="http://sodipodi.sourceforge.net/DTD/sodipodi-0.dtd"
   xmlns:xlink="http://www.w3.org/1999/xlink"
   xmlns="http://www.w3.org/2000/svg"
   xmlns:svg="http://www.w3.org/2000/svg"
   xmlns:rdf="http://www.w3.org/1999/02/22-rdf-syntax-ns#"
   xmlns:cc="http://creativecommons.org/ns#"
   xmlns:dc="http://purl.org/dc/elements/1.1/">
  <sodipodi:namedview
     id="namedview7"
     pagecolor="#9c4444"
     bordercolor="#000000"
     borderopacity="0.25"
     inkscape:showpageshadow="2"
     inkscape:pageopacity="0.0"
     inkscape:pagecheckerboard="0"
     inkscape:deskcolor="#d1d1d1"
     inkscape:zoom="8.7062522"
     inkscape:cx="71.959781"
     inkscape:cy="15.276378"
     inkscape:window-width="2560"
     inkscape:window-height="1392"
     inkscape:window-x="0"
     inkscape:window-y="0"
     inkscape:window-maximized="1"
     inkscape:current-layer="svg7"
     showgrid="false" />
  <defs
     id="defs2">
    <filter
       style="color-interpolation-filters:sRGB;"
       inkscape:label="Blur"
       id="filter3"
       x="-0.10843471"
       y="-0.10870992"
       width="1.2168694"
       height="1.2174198">
      <feGaussianBlur
         stdDeviation="0.5 0.5"
         result="blur"
         id="feGaussianBlur3" />
    </filter>
    <style
       id="current-color-scheme"
       type="text/css">.ColorScheme-Text {color:#d8dee9} .ColorScheme-Highlight {color:#3b4252}</style>
    <linearGradient
       id="linearGradient3"
       inkscape:collect="always">
      <stop
         style="stop-color:#000000;stop-opacity:1;"
         offset="0"
         id="stop3" />
      <stop
         style="stop-color:#000000;stop-opacity:0;"
         offset="1"
         id="stop4" />
    </linearGradient>
    <linearGradient
       inkscape:collect="always"
       xlink:href="#linearGradient3"
       id="linearGradient4"
       x1="13.512321"
       y1="13.490874"
       x2="3.3783066"
       y2="3.3568602"
       gradientUnits="userSpaceOnUse" />
  </defs>
  <metadata
     id="metadata2">
    <rdf:RDF>
      <cc:Work
         rdf:about="">
        <dc:format>image/svg+xml</dc:format>
        <dc:type
           rdf:resource="http://purl.org/dc/dcmitype/StillImage" />
      </cc:Work>
    </rdf:RDF>
  </metadata>
  <ellipse
     style="opacity:1;fill:none;stroke:#000000;stroke-width:0.582072;stroke-dasharray:none;stroke-opacity:1;filter:url(#filter3)"
     id="path1-5"
     cx="8.4450111"
     cy="8.423522"
     rx="6.8752708"
     ry="6.8578653" />
  <ellipse
     style="opacity:1;fill:none;stroke-width:0.58207188;stroke-opacity:1;stroke:currentColor;stroke-dasharray:none;fill-opacity:1"
     id="path1"
     cx="8.4450111"
     cy="8.423522"
     rx="6.8752708"
     ry="6.8578653"
     class="ColorScheme-Text" />
  <ellipse
     style="fill:currentColor;stroke:none;stroke-width:0.285844;stroke-dasharray:none;stroke-opacity:1"
     id="path1-2"
     cx="8.4557552"
     cy="8.423522"
     rx="6.5738997"
     ry="6.5692253"
     class="ColorScheme-Highlight" />
  <path
     id="path5"
     d="m 4.9342676,5.027153 c -0.01085,0 -0.02157,5.264e-4 -0.03268,0.00226 -0.100671,0.015475 -0.169337,0.1064855 -0.152668,0.2027898 0.01653,0.096304 0.111258,0.1616706 0.21193,0.1459287 0.126732,-0.019579 0.262591,0.013494 0.392896,0.093261 0.129774,0.078843 0.248308,0.1943162 0.356785,0.3193267 0.05768,0.065614 0.112048,0.1346721 0.16536,0.2053126 -0.424777,0.1440597 -0.77322,0.4424937 -0.972049,0.8251977 -0.24394,0.1501451 -0.406001,0.4118116 -0.406001,0.7099847 0,0.3103439 0.175414,0.5808778 0.43589,0.7274506 0.462611,0.8176616 1.529379,1.5056826 1.528982,1.5054183 0,2.637e-4 1.04931,-0.6884263 1.508085,-1.5072782 0.258756,-0.1469702 0.432851,-0.4164378 0.432851,-0.7255907 0,-0.2980407 -0.161912,-0.5594468 -0.405587,-0.7095918 -0.198829,-0.3828365 -0.547284,-0.6812745 -0.972194,-0.8254666 0.05318,-0.07064 0.107546,-0.1396775 0.165092,-0.2052917 0.108608,-0.1250105 0.227283,-0.2405049 0.357322,-0.3193472 0.129643,-0.079901 0.265767,-0.1129727 0.392896,-0.093262 0.01085,0.00187 0.0226,0.00266 0.03398,0.00238 0.101861,-0.00238 0.182698,-0.083208 0.179787,-0.1805708 -0.002,-0.097891 -0.08638,-0.1754092 -0.188242,-0.1730262 l -0.01296,5.377e-4 c -0.225155,0.00509 -0.432851,0.1079447 -0.575061,0.2361306 -0.145517,0.1287146 -0.248313,0.2777887 -0.338534,0.4271396 -0.05278,0.087971 -0.09934,0.1772596 -0.144049,0.2669499 a 1.7993838,1.7993582 0 0 0 -0.44515,-0.056614 c -0.154115,0 -0.303072,0.020236 -0.445149,0.056615 A 3.8731331,3.8730781 0 0 0 5.8618536,5.6908468 C 5.7716336,5.5414953 5.6685806,5.3924212 5.5225336,5.2637066 5.3805886,5.1355213 5.1734336,5.0324722 4.9482796,5.027576 Z m 3.67389,1.3474592 c 0.09617,0.2870614 0.57096,1.4133513 0.401102,1.6478948 A 3.5946666,3.5946155 0 0 1 8.0848336,8.9057867 1.1497165,1.1497002 0 0 0 7.7526666,8.6831531 c -0.401891,0.8406792 -1.224471,1.3370179 -1.224471,1.3367529 1.31e-4,0 -0.21086,-0.1653662 -0.367886,-0.4093019 -0.06614,0.4299299 0.123281,0.6752009 0.345789,0.8725729 -0.0672,0.04828 -0.121688,0.09167 -0.149733,0.123026 -0.337997,0.377942 0.748081,0.897819 0.901667,1.018728 -0.118133,-0.133344 -0.716873,-0.705342 -0.647819,-0.824929 0.02315,-0.04035 0.08415,-0.08904 0.16286,-0.139975 a 1.176571,1.1765543 0 0 0 0.507986,0.115089 1.1847729,1.1847561 0 0 0 0.420532,-0.07739 c -0.0095,0.124085 0.0053,0.246202 0.04961,0.362878 0.0717,0.18864 0.21021,0.341811 0.397795,0.456636 0.06919,0.531394 0.373056,1.089779 0.414992,1.255004 -0.01084,-0.169062 -0.08082,-0.688274 -0.09432,-1.111721 0.190097,0.05913 0.409564,0.08941 0.649534,0.0902 a 3.6199336,3.6198822 0 0 0 0.357179,0.778505 77.083525,77.082432 0 0 0 -0.05914,-0.793449 c 0.289843,-0.02739 0.6020394,-0.09352 0.9290554,-0.207421 0.245395,-0.08546 0.470545,-0.215623 0.674401,-0.369472 -0.240764,0.527823 -0.930374,1.570896 -1.0835644,1.80544 0.2665614,-0.282696 2.1015304,-1.950161 1.4432644,-2.421232 -0.173695,-0.124217 -0.45376,-0.165354 -0.730375,-0.18361 0.340642,-0.0168 0.768742,-0.0225 0.96744,0.119182 0.06059,0.04339 0.09816,0.0975 0.117075,0.159942 0.09326,-0.01442 0.124615,-0.02315 0.224228,-0.04696 0.34051,-0.08188 -0.896389,1.787181 -1.108182,2.111414 0.266296,-0.282563 2.100856,-1.950165 1.443119,-2.420839 -0.173033,-0.123688 -0.451231,-0.164821 -0.726655,-0.18334 0.215498,-0.1037133 0.337348,-0.08308 0.471752,-0.07474 0.238251,-0.3591574 0.310464,-0.5660619 0.310464,-0.5660619 0,0 -1.65452,-0.7955656 -2.9243544,-0.3529354 -0.398055,0.1387684 -0.735923,0.3169534 -1.004336,0.5169707 A 1.0422985,1.0422837 0 0 0 8.3836836,9.3956363 C 8.6600336,9.1923128 9.2472486,8.7492859 9.4094336,8.5456968 9.9975866,7.806217 8.7547356,6.640241 8.6081606,6.3746101 Z m -3.229278,0.3995049 c 0.421867,0 0.76384,0.339066 0.76384,0.7570908 0,0.4186859 -0.341973,0.7573392 -0.76384,0.7573392 -0.421867,0 -0.763572,-0.3387852 -0.763572,-0.7573392 0,-0.4180248 0.341705,-0.7570908 0.763572,-0.7570908 z m 2.143606,1.438e-4 c 0.421867,0 0.763819,0.3390461 0.763819,0.7570704 0,0.418554 -0.341952,0.7573392 -0.763819,0.7573392 -0.421867,0 -0.76384,-0.3387852 -0.76384,-0.7573392 0,-0.4180243 0.341973,-0.7570704 0.76384,-0.7570704 z m -2.143606,0.2366473 c -0.289447,0 -0.52506,0.2330962 -0.52506,0.5204225 0,0.2875901 0.235481,0.5209392 0.52506,0.5209392 0.289976,0 0.525308,-0.2333491 0.525308,-0.5209392 -1.32e-4,-0.2873263 -0.235332,-0.520423 -0.525308,-0.5204225 z m 2.143606,0 a 0.52491947,0.52067887 0 0 0 -0.524937,0.5206925 0.52491947,0.52067887 0 0 0 0.524937,0.5206709 0.52491947,0.52067887 0 0 0 0.524915,-0.5206709 0.52491947,0.52067887 0 0 0 -0.524915,-0.5206913 z m 1.686013,3.7377488 c 0.200813,0.09088 0.8128944,0.317888 1.7801854,0.08559 0.04776,-0.01151 0.102267,0.109533 0.09512,0.165358 -1.3787084,0.399505 -1.8791544,-0.24843 -1.8791544,-0.24843 z"
     style="opacity:0.3;fill:#000000;fill-opacity:1;stroke-width:0.132287" />
  <path
     id="path5-7"
     d="m 4.9342676,4.497996 c -0.01085,0 -0.02157,5.264e-4 -0.03268,0.00226 -0.100671,0.015475 -0.169337,0.1064855 -0.152668,0.2027898 0.01653,0.096304 0.111258,0.1616706 0.21193,0.1459287 0.126732,-0.019579 0.262591,0.013494 0.392896,0.093261 0.129774,0.078843 0.248308,0.1943162 0.356785,0.3193267 0.05768,0.065614 0.112048,0.1346721 0.16536,0.2053126 -0.424777,0.1440597 -0.77322,0.4424937 -0.972049,0.8251977 -0.24394,0.1501451 -0.406001,0.4118116 -0.406001,0.7099847 0,0.3103439 0.175414,0.5808778 0.43589,0.7274506 0.462611,0.8176616 1.529379,1.5056826 1.528982,1.5054183 0,2.637e-4 1.04931,-0.6884263 1.508085,-1.5072782 0.258756,-0.1469702 0.432851,-0.4164378 0.432851,-0.7255907 0,-0.2980407 -0.161912,-0.5594468 -0.405587,-0.7095918 -0.198829,-0.3828365 -0.547284,-0.6812745 -0.972194,-0.8254666 0.05318,-0.07064 0.107546,-0.1396775 0.165092,-0.2052917 0.108608,-0.1250105 0.227283,-0.2405049 0.357322,-0.3193472 0.129643,-0.079901 0.265767,-0.1129727 0.392896,-0.093262 0.01085,0.00187 0.0226,0.00266 0.03398,0.00238 0.101861,-0.00238 0.182698,-0.083208 0.179787,-0.1805708 -0.002,-0.097891 -0.08638,-0.1754092 -0.188242,-0.1730262 l -0.01296,5.377e-4 c -0.225155,0.00509 -0.432851,0.1079447 -0.575061,0.2361306 -0.145517,0.1287146 -0.248313,0.2777887 -0.338534,0.4271396 -0.05278,0.087971 -0.09934,0.1772596 -0.144049,0.2669499 a 1.7993838,1.7993582 0 0 0 -0.44515,-0.056614 c -0.154115,0 -0.303072,0.020236 -0.445149,0.056615 A 3.8731331,3.8730781 0 0 0 5.8618536,5.1616898 C 5.7716336,5.0123383 5.6685806,4.8632642 5.5225336,4.7345496 5.3805886,4.6063643 5.1734336,4.5033152 4.9482796,4.498419 Z m 3.67389,1.3474592 c 0.09617,0.2870614 0.57096,1.4133513 0.401102,1.6478948 A 3.5946666,3.5946155 0 0 1 8.0848336,8.3766297 1.1497165,1.1497002 0 0 0 7.7526666,8.1539961 c -0.401891,0.8406792 -1.224471,1.3370177 -1.224471,1.3367528 1.31e-4,0 -0.21086,-0.1653661 -0.367886,-0.4093018 -0.06614,0.4299299 0.123281,0.6752014 0.345789,0.8725726 -0.0672,0.048283 -0.121688,0.091674 -0.149733,0.1230263 -0.337997,0.377942 0.748081,0.897819 0.901667,1.018728 -0.118133,-0.133344 -0.716873,-0.705342 -0.647819,-0.824929 0.02315,-0.04035 0.08415,-0.08904 0.16286,-0.139975 a 1.176571,1.1765543 0 0 0 0.507986,0.115089 1.1847729,1.1847561 0 0 0 0.420532,-0.07739 c -0.0095,0.124085 0.0053,0.246202 0.04961,0.362878 0.0717,0.18864 0.21021,0.341811 0.397795,0.456636 0.06919,0.531394 0.373056,1.089779 0.414992,1.255004 -0.01084,-0.169062 -0.08082,-0.688274 -0.09432,-1.111721 0.190097,0.05913 0.409564,0.08941 0.649534,0.0902 a 3.6199336,3.6198822 0 0 0 0.357179,0.778505 77.083525,77.082432 0 0 0 -0.05914,-0.793449 c 0.289843,-0.02739 0.6020394,-0.09352 0.9290554,-0.207421 0.245395,-0.08546 0.470545,-0.215623 0.674401,-0.369472 -0.240764,0.527823 -0.930374,1.570896 -1.0835644,1.80544 0.2665614,-0.282696 2.1015304,-1.950161 1.4432644,-2.421232 -0.173695,-0.1242169 -0.45376,-0.1653537 -0.730375,-0.1836096 0.340642,-0.0168 0.768742,-0.0225 0.96744,0.1191815 0.06059,0.043392 0.09816,0.097503 0.117075,0.1599421 0.09326,-0.01442 0.124615,-0.02315 0.224228,-0.04696 0.34051,-0.081885 -0.896389,1.787181 -1.108182,2.111414 C 11.11688,11.891342 12.95144,10.22374 12.293703,9.7530658 12.12067,9.629378 11.842472,9.5882452 11.567048,9.5697256 c 0.215498,-0.1037129 0.337348,-0.083076 0.471752,-0.074742 0.238251,-0.359157 0.310464,-0.5660615 0.310464,-0.5660615 0,0 -1.65452,-0.7955656 -2.9243544,-0.3529354 -0.398055,0.1387684 -0.735923,0.3169534 -1.004336,0.5169707 A 1.0422985,1.0422837 0 0 0 8.3836836,8.8664793 C 8.6600336,8.6631558 9.2472486,8.2201289 9.4094336,8.0165398 9.9975866,7.27706 8.7547356,6.111084 8.6081606,5.8454531 Z m -3.229278,0.3995049 c 0.421867,0 0.76384,0.339066 0.76384,0.7570908 0,0.4186859 -0.341973,0.7573392 -0.76384,0.7573392 -0.421867,0 -0.763572,-0.3387852 -0.763572,-0.7573392 0,-0.4180248 0.341705,-0.7570908 0.763572,-0.7570908 z m 2.143606,1.438e-4 c 0.421867,0 0.763819,0.3390461 0.763819,0.7570704 0,0.418554 -0.341952,0.7573392 -0.763819,0.7573392 -0.421867,0 -0.76384,-0.3387852 -0.76384,-0.7573392 0,-0.4180243 0.341973,-0.7570704 0.76384,-0.7570704 z m -2.143606,0.2366473 c -0.289447,0 -0.52506,0.2330962 -0.52506,0.5204225 0,0.2875901 0.235481,0.5209392 0.52506,0.5209392 0.289976,0 0.525308,-0.2333491 0.525308,-0.5209392 -1.32e-4,-0.2873263 -0.235332,-0.520423 -0.525308,-0.5204225 z m 2.143606,0 A 0.52491947,0.52067887 0 0 0 6.9975486,7.0024437 0.52491947,0.52067887 0 0 0 7.5224856,7.5231146 0.52491947,0.52067887 0 0 0 8.0474006,7.0024437 0.52491947,0.52067887 0 0 0 7.5224856,6.4817524 Z M 9.2084986,10.2195 c 0.200813,0.09088 0.8128944,0.317888 1.7801854,0.08559 0.04776,-0.01151 0.102267,0.109533 0.09512,0.165358 -1.3787084,0.399505 -1.8791544,-0.24843 -1.8791544,-0.24843 z"
     style="fill:currentColor;stroke-width:0.132287"
     class="ColorScheme-Text" />
  <path
     id="gradient-path1"
     style="opacity:0.3;baseline-shift:baseline;display:inline;overflow:visible;vector-effect:none;enable-background:accumulate;stop-color:#000000;stop-opacity:1;fill:url(#linearGradient4)"
     d="M 8.4453131 1.2753492 C 4.4913166 1.2753492 1.2794833 4.4784283 1.2794833 8.4236094 C 1.2794833 12.36879 4.4913166 15.572386 8.4453131 15.572386 C 12.39931 15.572386 15.611143 12.36879 15.611143 8.4236094 C 15.611143 4.4784283 12.39931 1.2753492 8.4453131 1.2753492 z " />
</svg>
