<?xml version="1.0" encoding="UTF-8" standalone="no"?>
<svg
   width="64"
   height="64"
   version="1.1"
   viewBox="0 0 16.933 16.933"
   id="svg7"
   sodipodi:docname="app.drey.Dialect.svg"
   inkscape:version="1.4.2 (ebf0e940d0, 2025-05-08)"
   xmlns:inkscape="http://www.inkscape.org/namespaces/inkscape"
   xmlns:sodipodi="http://sodipodi.sourceforge.net/DTD/sodipodi-0.dtd"
   xmlns:xlink="http://www.w3.org/1999/xlink"
   xmlns="http://www.w3.org/2000/svg"
   xmlns:svg="http://www.w3.org/2000/svg"
   xmlns:rdf="http://www.w3.org/1999/02/22-rdf-syntax-ns#"
   xmlns:cc="http://creativecommons.org/ns#"
   xmlns:dc="http://purl.org/dc/elements/1.1/">
  <sodipodi:namedview
     id="namedview7"
     pagecolor="#9c4444"
     bordercolor="#000000"
     borderopacity="0.25"
     inkscape:showpageshadow="2"
     inkscape:pageopacity="0.0"
     inkscape:pagecheckerboard="0"
     inkscape:deskcolor="#d1d1d1"
     inkscape:zoom="4.3531261"
     inkscape:cx="36.870055"
     inkscape:cy="26.188077"
     inkscape:window-width="2560"
     inkscape:window-height="1392"
     inkscape:window-x="0"
     inkscape:window-y="0"
     inkscape:window-maximized="1"
     inkscape:current-layer="svg7"
     showgrid="false" />
  <defs
     id="defs2">
    <filter
       style="color-interpolation-filters:sRGB;"
       inkscape:label="Blur"
       id="filter3"
       x="-0.10843471"
       y="-0.10870992"
       width="1.2168694"
       height="1.2174198">
      <feGaussianBlur
         stdDeviation="0.5 0.5"
         result="blur"
         id="feGaussianBlur3" />
    </filter>
    <style
       id="current-color-scheme"
       type="text/css">.ColorScheme-Text {color:#d8dee9} .ColorScheme-Highlight {color:#3b4252}</style>
    <linearGradient
       id="linearGradient3"
       inkscape:collect="always">
      <stop
         style="stop-color:#000000;stop-opacity:1;"
         offset="0"
         id="stop3" />
      <stop
         style="stop-color:#000000;stop-opacity:0;"
         offset="1"
         id="stop4" />
    </linearGradient>
    <linearGradient
       inkscape:collect="always"
       xlink:href="#linearGradient3"
       id="linearGradient4"
       x1="13.512321"
       y1="13.490874"
       x2="3.3783066"
       y2="3.3568602"
       gradientUnits="userSpaceOnUse" />
  </defs>
  <metadata
     id="metadata2">
    <rdf:RDF>
      <cc:Work
         rdf:about="">
        <dc:format>image/svg+xml</dc:format>
        <dc:type
           rdf:resource="http://purl.org/dc/dcmitype/StillImage" />
      </cc:Work>
    </rdf:RDF>
  </metadata>
  <ellipse
     style="opacity:1;fill:none;stroke:#000000;stroke-width:0.582072;stroke-dasharray:none;stroke-opacity:1;filter:url(#filter3)"
     id="path1-5"
     cx="8.4450111"
     cy="8.423522"
     rx="6.8752708"
     ry="6.8578653" />
  <ellipse
     style="opacity:1;fill:none;stroke-width:0.58207188;stroke-opacity:1;stroke:currentColor;stroke-dasharray:none;fill-opacity:1"
     id="path1"
     cx="8.4450111"
     cy="8.423522"
     rx="6.8752708"
     ry="6.8578653"
     class="ColorScheme-Text" />
  <ellipse
     style="fill:currentColor;stroke:none;stroke-width:0.285844;stroke-dasharray:none;stroke-opacity:1"
     id="path1-2"
     cx="8.4557552"
     cy="8.423522"
     rx="6.5738997"
     ry="6.5692253"
     class="ColorScheme-Highlight" />
  <path
     id="path5"
     style="display:inline;opacity:0.3;fill:#000000;fill-opacity:1;stroke-width:0.0488399;stroke-linecap:square;enable-background:new;stop-color:#000000"
     d="m 5.002243,5.7635699 c -0.279472,0 -0.504463,0.22499 -0.504463,0.504463 v 3.8446451 c 0,0.279473 0.224991,0.504463 0.504463,0.504463 h 4.28654 c 0.143014,0 0.300073,0.09153 0.357537,0.214523 0,0 -1.263294,-4.0794901 -1.43015,-4.5636311 C 8.115455,6.0073389 7.991179,5.7635699 7.711707,5.7635699 Z m 0.979877,1.395514 h 0.7046 c 0.329015,0 0.58192,0.08361 0.758789,0.250974 0.176868,0.16736 0.26536,0.40901 0.26536,0.724712 0,0.235825 -0.04469,0.432645 -0.134077,0.590495 -0.08748,0.157852 -0.211052,0.275792 -0.370806,0.353767 -0.159752,0.07797 -0.348129,0.116898 -0.564937,0.116898 H 5.98212 Z m 2.745077,0.206142 c 0.165235,0.524693 0.372817,1.189717 0.565078,1.80724 0.12811,0.01719 0.28372,0.02933 0.413401,0.02933 h 0.04441 c 0.01046,-0.06797 0.02089,-0.125531 0.02612,-0.16997 0.01046,-0.08365 0.01575,-0.146316 0.01313,-0.2168969 l 0.232678,0.01299 c -0.02091,0.06796 -0.03403,0.1489689 -0.04972,0.21955 -0.0078,0.03921 -0.0157,0.09151 -0.02877,0.1490209 0.305848,-0.01307 0.674405,-0.04967 0.995937,-0.12025 l 0.0027,0.1987401 c -0.305848,0.0549 -0.705848,0.09671 -1.037836,0.109775 -0.04706,0.219584 -0.107114,0.467889 -0.16201,0.616892 0.227426,-0.159459 0.462623,-0.224718 0.734489,-0.224718 0.41564,0 0.658791,0.214357 0.658791,0.517591 0,0.531364 -0.526606,0.736359 -1.286577,0.670243 0.0078,0.02516 0.01187,0.03841 0.01187,0.03841 -0.0041,-0.0088 -0.0087,-0.01739 -0.01383,-0.02584 l 0.01383,0.03478 c 0.05005,0.124912 0.01299,0.295929 -0.143015,0.357538 l -0.643568,0.429045 c -0.105709,0.05223 -0.285493,0.285398 -0.0012,0.424854 0.02281,0.0028 0.04699,0.0042 0.07277,0.0042 h 2.784881 c 0.279473,0 0.504464,-0.22499 0.504464,-0.504462 V 7.8696969 c 0,-0.279473 -0.224991,-0.504464 -0.504464,-0.504464 z m -2.194526,0.238824 v 1.141187 h 0.122764 c 0.16736,0 0.289898,-0.04854 0.367873,-0.145529 0.07797,-0.09699 0.117037,-0.245276 0.117037,-0.444967 0,-0.36705 -0.149314,-0.550691 -0.4479,-0.550691 z m 4.759718,1.027781 c 0.06797,0.09672 0.169883,0.258861 0.21955,0.355582 l -0.14106,0.06536 c -0.05751,-0.115019 -0.143842,-0.264029 -0.217036,-0.36075 z m -0.29008,0.104607 c 0.06535,0.09411 0.161961,0.253572 0.214243,0.36075 l -0.14106,0.06271 c -0.05228,-0.107178 -0.141149,-0.266542 -0.211729,-0.363264 z m -1.646768,0.639098 c 0.06701,0.215363 0.131198,0.422024 0.190081,0.611585 0.0686,-0.198756 0.124516,-0.413208 0.165222,-0.597199 h -0.0025 c -0.124808,0 -0.242104,-0.0062 -0.35279,-0.01438 z m 1.100405,0.579044 c -0.311076,0 -0.59859,0.1071711 -0.773733,0.3136831 -0.01261,0.01576 -0.02401,0.03116 -0.03478,0.04693 0.05455,0.175749 0.101213,0.326184 0.136869,0.441195 0.5863,0.07005 1.136858,-0.03848 1.136858,-0.456698 0,-0.193443 -0.15937,-0.3451071 -0.465218,-0.3451071 z M 8.099831,10.788648 8.5022,11.870199 c 0.06257,0.148566 0.114243,0.322122 0.357537,0.353905 -0.28603,-0.139385 -0.105864,-0.373109 0,-0.425413 L 9.503304,11.369646 C 9.659308,11.308036 9.696371,11.13702 9.64632,11.012108 l -0.01411,-0.03533 v -1.4e-4 C 9.56599,10.867247 9.421304,10.788652 9.288779,10.788652 Z m 1.712408,0.142177 c 0.0062,0.0071 0.01192,0.0146 0.01746,0.02207 -0.0031,-0.0042 -0.0056,-0.0087 -0.0089,-0.01271 -3.5e-5,-7.1e-5 -2.33e-4,-3.46e-4 -2.79e-4,-4.19e-4 -2.97e-4,-3.51e-4 -6.79e-4,-7.92e-4 -9.62e-4,-0.0011 -0.0022,-0.0027 -0.0049,-0.0052 -0.0073,-0.0078 z" />
  <path
     id="path5-7"
     style="display:inline;fill:currentColor;stroke-width:0.0488399;stroke-linecap:square;enable-background:new;stop-color:#000000"
     d="m 5.002243,5.2344146 c -0.279472,0 -0.504463,0.22499 -0.504463,0.504463 v 3.844645 c 0,0.279473 0.224991,0.5044634 0.504463,0.5044634 h 4.28654 c 0.143014,0 0.300073,0.09153 0.357537,0.214523 0,0 -1.263294,-4.0794904 -1.43015,-4.5636314 C 8.115455,5.4781836 7.991179,5.2344146 7.711707,5.2344146 Z m 0.979877,1.395514 h 0.7046 c 0.329015,0 0.58192,0.08361 0.758789,0.250974 0.176868,0.16736 0.26536,0.40901 0.26536,0.724712 0,0.235825 -0.04469,0.432645 -0.134077,0.590495 -0.08748,0.157852 -0.211052,0.275792 -0.370806,0.353767 -0.159752,0.07797 -0.348129,0.116898 -0.564937,0.116898 H 5.98212 Z m 2.745077,0.206142 c 0.165235,0.524693 0.372817,1.189717 0.565078,1.80724 0.12811,0.01719 0.28372,0.02933 0.413401,0.02933 h 0.04441 c 0.01046,-0.06797 0.02089,-0.125531 0.02612,-0.16997 0.01046,-0.08365 0.01575,-0.146316 0.01313,-0.216897 l 0.232678,0.01299 c -0.02091,0.06796 -0.03403,0.148969 -0.04972,0.21955 -0.0078,0.03921 -0.0157,0.09151 -0.02877,0.149021 0.305848,-0.01307 0.674405,-0.04967 0.995937,-0.12025 l 0.0027,0.19874 c -0.305848,0.0549 -0.705848,0.09671 -1.037836,0.109775 -0.04706,0.219584 -0.107114,0.467889 -0.16201,0.616892 0.227426,-0.159459 0.462623,-0.224718 0.734489,-0.224718 0.41564,0 0.658791,0.214357 0.658791,0.517591 0,0.5313644 -0.526606,0.7363594 -1.286577,0.6702434 0.0078,0.02516 0.01187,0.03841 0.01187,0.03841 -0.0041,-0.0088 -0.0087,-0.01739 -0.01383,-0.02584 l 0.01383,0.03478 c 0.05005,0.124912 0.01299,0.295929 -0.143015,0.357538 l -0.643568,0.429045 c -0.105709,0.05223 -0.285493,0.285398 -0.0012,0.424854 0.02281,0.0028 0.04699,0.0042 0.07277,0.0042 h 2.784881 c 0.279473,0 0.504464,-0.22499 0.504464,-0.504462 V 7.3405416 c 0,-0.279473 -0.224991,-0.504464 -0.504464,-0.504464 z m -2.194526,0.238824 v 1.141187 h 0.122764 c 0.16736,0 0.289898,-0.04854 0.367873,-0.145529 0.07797,-0.09699 0.117037,-0.245276 0.117037,-0.444967 0,-0.36705 -0.149314,-0.550691 -0.4479,-0.550691 z m 4.759718,1.027781 c 0.06797,0.09672 0.169883,0.258861 0.21955,0.355582 l -0.14106,0.06536 c -0.05751,-0.115019 -0.143842,-0.264029 -0.217036,-0.36075 z m -0.29008,0.104607 c 0.06535,0.09411 0.161961,0.253572 0.214243,0.36075 l -0.14106,0.06271 c -0.05228,-0.107178 -0.141149,-0.266542 -0.211729,-0.363264 z m -1.646768,0.639098 c 0.06701,0.215363 0.131198,0.422024 0.190081,0.611585 0.0686,-0.198756 0.124516,-0.413208 0.165222,-0.597199 h -0.0025 c -0.124808,0 -0.242104,-0.0062 -0.35279,-0.01438 z m 1.100405,0.579044 c -0.311076,0 -0.59859,0.107171 -0.773733,0.313683 -0.01261,0.01576 -0.02401,0.03116 -0.03478,0.04693 0.05455,0.175749 0.101213,0.3261844 0.136869,0.4411954 0.5863,0.07005 1.136858,-0.03848 1.136858,-0.4566984 0,-0.193443 -0.15937,-0.345107 -0.465218,-0.345107 z M 8.099831,10.259493 8.5022,11.341044 c 0.06257,0.148566 0.114243,0.322122 0.357537,0.353905 -0.28603,-0.139385 -0.105864,-0.373109 0,-0.425413 l 0.643567,-0.429045 c 0.156004,-0.06161 0.193067,-0.232626 0.143016,-0.357538 l -0.01411,-0.03533 v -1.4e-4 C 9.56599,10.338092 9.421304,10.259497 9.288779,10.259497 Z m 1.712408,0.142177 c 0.0062,0.0071 0.01192,0.0146 0.01746,0.02207 -0.0031,-0.0042 -0.0056,-0.0087 -0.0089,-0.01271 -3.5e-5,-7.1e-5 -2.33e-4,-3.46e-4 -2.79e-4,-4.19e-4 -2.97e-4,-3.51e-4 -6.79e-4,-7.92e-4 -9.62e-4,-0.0011 -0.0022,-0.0027 -0.0049,-0.0052 -0.0073,-0.0078 z"
     class="ColorScheme-Text" />
  <path
     id="gradient-path1"
     style="opacity:0.3;baseline-shift:baseline;display:inline;overflow:visible;vector-effect:none;enable-background:accumulate;stop-color:#000000;stop-opacity:1;fill:url(#linearGradient4)"
     d="M 8.4453131 1.2753492 C 4.4913166 1.2753492 1.2794833 4.4784283 1.2794833 8.4236094 C 1.2794833 12.36879 4.4913166 15.572386 8.4453131 15.572386 C 12.39931 15.572386 15.611143 12.36879 15.611143 8.4236094 C 15.611143 4.4784283 12.39931 1.2753492 8.4453131 1.2753492 z " />
</svg>
