<?xml version='1.0' encoding='UTF-8'?>
<svg xmlns:inkscape="http://www.inkscape.org/namespaces/inkscape" xmlns:sodipodi="http://sodipodi.sourceforge.net/DTD/sodipodi-0.dtd" xmlns="http://www.w3.org/2000/svg" xmlns:svg="http://www.w3.org/2000/svg" xmlns:rdf="http://www.w3.org/1999/02/22-rdf-syntax-ns#" xmlns:cc="http://creativecommons.org/ns#" xmlns:dc="http://purl.org/dc/elements/1.1/" width="64" height="64" version="1.1" viewBox="0 0 16.933 16.933" id="svg7" sodipodi:docname="appimagekit-1password.svg" inkscape:version="1.4.2 (ebf0e940d0, 2025-05-08)">
  <sodipodi:namedview id="namedview7" pagecolor="#9c4444" bordercolor="#000000" borderopacity="0.25" inkscape:showpageshadow="2" inkscape:pageopacity="0.0" inkscape:pagecheckerboard="0" inkscape:deskcolor="#d1d1d1" inkscape:zoom="4.3531261" inkscape:cx="36.066035" inkscape:cy="26.073217" inkscape:window-width="1280" inkscape:window-height="669" inkscape:window-x="0" inkscape:window-y="0" inkscape:window-maximized="0" inkscape:current-layer="svg7" showgrid="false"/>
  <defs id="defs2">
    <filter style="color-interpolation-filters:sRGB;" inkscape:label="Blur" id="filter3" x="-0.10843471" y="-0.10870992" width="1.2168694" height="1.2174198">
      <feGaussianBlur stdDeviation="0.5 0.5" result="blur" id="feGaussianBlur3"/>
    </filter>
    <style id="current-color-scheme" type="text/css">.ColorScheme-Text {color:#d8dee9} .ColorScheme-Highlight {color:#3b4252}</style>
  <linearGradient id="linearGradient3" inkscape:collect="always">
      <stop style="stop-color:#000000;stop-opacity:1;" offset="0" id="stop3"/>
      <stop style="stop-color:#000000;stop-opacity:0;" offset="1" id="stop4"/>
    </linearGradient>
    <linearGradient xmlns:xlink="http://www.w3.org/1999/xlink" inkscape:collect="always" xlink:href="#linearGradient3" id="linearGradient4" x1="13.512321" y1="13.490874" x2="3.3783066" y2="3.3568602" gradientUnits="userSpaceOnUse"/>
  </defs>
  <metadata id="metadata2">
    <rdf:RDF>
      <cc:Work rdf:about="">
        <dc:format>image/svg+xml</dc:format>
        <dc:type rdf:resource="http://purl.org/dc/dcmitype/StillImage"/>
      </cc:Work>
    </rdf:RDF>
  </metadata>
  <ellipse style="opacity:1;fill:none;stroke:#000000;stroke-width:0.582072;stroke-dasharray:none;stroke-opacity:1;filter:url(#filter3)" id="path1-5" cx="8.4450111" cy="8.423522" rx="6.8752708" ry="6.8578653"/>
  <ellipse style="opacity:1;fill:none;stroke-width:0.58207188;stroke-opacity:1;stroke:currentColor;stroke-dasharray:none;fill-opacity:1" id="path1" cx="8.4450111" cy="8.423522" rx="6.8752708" ry="6.8578653" class="ColorScheme-Text"/>
  <ellipse style="fill:currentColor;stroke:none;stroke-width:0.285844;stroke-dasharray:none;stroke-opacity:1" id="path1-2" cx="8.4557552" cy="8.423522" rx="6.5738997" ry="6.5692253" class="ColorScheme-Highlight"/>
<path id="path2-5" style="fill:#000000;fill-opacity:1;opacity:0.3" d="M 24 5.7893764 C 13.969 5.7893764 5.7893728 13.969003 5.7893728 24.000003 C 5.7893728 34.031003 13.969 42.21063 24 42.21063 C 34.031 42.21063 42.210627 34.031003 42.210627 24.000003 C 42.210627 13.969003 34.031 5.7893764 24 5.7893764 z M 24 10.342033 C 31.57 10.342033 37.65797 16.430003 37.65797 24.000003 C 37.65797 31.570003 31.57 37.657974 24 37.657974 C 16.43 37.657974 10.34203 31.570003 10.34203 24.000003 C 10.34203 16.430003 16.43 10.342033 24 10.342033 z M 21.723671 13.756526 C 21.092671 13.756526 20.585507 14.26469 20.585507 14.89469 L 20.585507 19.506988 C 20.585507 19.506988 21.818104 20.592578 21.818104 21.323578 C 21.818104 22.055578 20.585507 23.140168 20.585507 23.140168 L 20.585507 33.105317 C 20.585507 33.735317 21.092671 34.243481 21.723671 34.243481 L 26.276328 34.243481 C 26.907328 34.243481 27.414492 33.735317 27.414492 33.105317 L 27.414492 28.510414 L 27.402067 28.495503 C 27.402067 28.495503 26.115798 27.364877 26.114798 26.601877 C 26.114798 25.837877 27.402067 24.705765 27.402067 24.705765 L 27.414492 24.688369 L 27.414492 14.89469 C 27.414492 14.26469 26.907328 13.756526 26.276328 13.756526 L 21.723671 13.756526 z " transform="matrix(0.20794311,0,0,0.20794311,3.4758655,4.0050209)"/>
  <path id="path2" style="opacity:1;fill:currentColor;fill-opacity:1" class="ColorScheme-Text" d="M 24 5.7893762 C 13.969 5.7893762 5.7893728 13.969003 5.7893728 24.000003 C 5.7893728 34.031003 13.969 42.21063 24 42.21063 C 34.031 42.21063 42.210627 34.031003 42.210627 24.000003 C 42.210627 13.969003 34.031 5.7893762 24 5.7893762 z M 24 10.342033 C 31.57 10.342033 37.65797 16.430003 37.65797 24.000003 C 37.65797 31.570003 31.57 37.657973 24 37.657973 C 16.43 37.657973 10.34203 31.570003 10.34203 24.000003 C 10.34203 16.430003 16.43 10.342033 24 10.342033 z M 21.723671 13.756525 C 21.092671 13.756525 20.585507 14.26469 20.585507 14.89469 L 20.585507 19.506988 C 20.585507 19.506988 21.818104 20.592578 21.818104 21.323578 C 21.818104 22.055578 20.585507 23.140167 20.585507 23.140167 L 20.585507 33.105317 C 20.585507 33.735317 21.092671 34.243481 21.723671 34.243481 L 26.276328 34.243481 C 26.907328 34.243481 27.414492 33.735317 27.414492 33.105317 L 27.414492 28.510414 L 27.402067 28.495503 C 27.402067 28.495503 26.115798 27.364876 26.114798 26.601876 C 26.114798 25.837876 27.402067 24.705764 27.402067 24.705764 L 27.414492 24.688369 L 27.414492 14.89469 C 27.414492 14.26469 26.907328 13.756525 26.276328 13.756525 L 21.723671 13.756525 z " transform="matrix(0.20794311,0,0,0.20794311,3.4758655,3.4758647)"/>
<path id="gradient-path1" style="opacity:0.3;baseline-shift:baseline;display:inline;overflow:visible;vector-effect:none;enable-background:accumulate;stop-color:#000000;stop-opacity:1;fill:url(#linearGradient4)" d="M 8.4453131 1.2753492 C 4.4913166 1.2753492 1.2794833 4.4784283 1.2794833 8.4236094 C 1.2794833 12.36879 4.4913166 15.572386 8.4453131 15.572386 C 12.39931 15.572386 15.611143 12.36879 15.611143 8.4236094 C 15.611143 4.4784283 12.39931 1.2753492 8.4453131 1.2753492 z "/>
</svg>
