<?xml version='1.0' encoding='UTF-8'?>
<svg xmlns:inkscape="http://www.inkscape.org/namespaces/inkscape" xmlns:sodipodi="http://sodipodi.sourceforge.net/DTD/sodipodi-0.dtd" xmlns="http://www.w3.org/2000/svg" xmlns:svg="http://www.w3.org/2000/svg" xmlns:rdf="http://www.w3.org/1999/02/22-rdf-syntax-ns#" xmlns:cc="http://creativecommons.org/ns#" xmlns:dc="http://purl.org/dc/elements/1.1/" width="64" height="64" version="1.1" viewBox="0 0 16.933 16.933" id="svg7" sodipodi:docname="application-x-prl21free.svg" inkscape:version="1.4.2 (ebf0e940d0, 2025-05-08)">
  <sodipodi:namedview id="namedview7" pagecolor="#9c4444" bordercolor="#000000" borderopacity="0.25" inkscape:showpageshadow="2" inkscape:pageopacity="0.0" inkscape:pagecheckerboard="0" inkscape:deskcolor="#d1d1d1" inkscape:zoom="4.3531261" inkscape:cx="36.984915" inkscape:cy="26.073217" inkscape:window-width="1280" inkscape:window-height="669" inkscape:window-x="0" inkscape:window-y="0" inkscape:window-maximized="0" inkscape:current-layer="svg7" showgrid="false"/>
  <defs id="defs2">
    <filter style="color-interpolation-filters:sRGB;" inkscape:label="Blur" id="filter3" x="-0.10843471" y="-0.10870992" width="1.2168694" height="1.2174198">
      <feGaussianBlur stdDeviation="0.5 0.5" result="blur" id="feGaussianBlur3"/>
    </filter>
    <style id="current-color-scheme" type="text/css">.ColorScheme-Text {color:#d8dee9} .ColorScheme-Highlight {color:#3b4252}</style>
  <linearGradient id="linearGradient3" inkscape:collect="always">
      <stop style="stop-color:#000000;stop-opacity:1;" offset="0" id="stop3"/>
      <stop style="stop-color:#000000;stop-opacity:0;" offset="1" id="stop4"/>
    </linearGradient>
    <linearGradient xmlns:xlink="http://www.w3.org/1999/xlink" inkscape:collect="always" xlink:href="#linearGradient3" id="linearGradient4" x1="13.512321" y1="13.490874" x2="3.3783066" y2="3.3568602" gradientUnits="userSpaceOnUse"/>
  </defs>
  <metadata id="metadata2">
    <rdf:RDF>
      <cc:Work rdf:about="">
        <dc:format>image/svg+xml</dc:format>
        <dc:type rdf:resource="http://purl.org/dc/dcmitype/StillImage"/>
      </cc:Work>
    </rdf:RDF>
  </metadata>
  <ellipse style="opacity:1;fill:none;stroke:#000000;stroke-width:0.582072;stroke-dasharray:none;stroke-opacity:1;filter:url(#filter3)" id="path1-5" cx="8.4450111" cy="8.423522" rx="6.8752708" ry="6.8578653"/>
  <ellipse style="opacity:1;fill:none;stroke-width:0.58207188;stroke-opacity:1;stroke:currentColor;stroke-dasharray:none;fill-opacity:1" id="path1" cx="8.4450111" cy="8.423522" rx="6.8752708" ry="6.8578653" class="ColorScheme-Text"/>
  <ellipse style="fill:currentColor;stroke:none;stroke-width:0.285844;stroke-dasharray:none;stroke-opacity:1" id="path1-2" cx="8.4557552" cy="8.423522" rx="6.5738997" ry="6.5692253" class="ColorScheme-Highlight"/>
<path id="path2-2-2" style="fill:#000000;fill-opacity:1;opacity:1" d="M 6.0017231 5.9981899 L 6.0017231 48.000488 L 9.9986028 48.000488 L 9.9986028 9.9991944 L 54.001403 9.9991944 L 54.001403 54.001994 L 16.00011 54.001994 L 16.00011 57.998874 L 57.998283 57.998874 L 57.998283 5.9981899 L 6.0017231 5.9981899 z M 32.218614 14.998388 C 30.505083 14.998388 28.968038 15.233457 27.603023 15.703719 C 26.238006 16.142631 25.076027 16.787627 24.117612 17.634101 C 23.159195 18.480575 22.417145 19.513228 21.894373 20.735911 C 21.3716 21.927244 21.110671 23.277446 21.110671 24.782287 C 21.110671 26.287129 21.359395 27.572996 21.853125 28.638926 C 22.346854 29.673505 22.982849 30.56759 23.767008 31.320011 C 24.551166 32.04108 25.435886 32.649786 26.423345 33.151399 C 27.410803 33.621663 28.401579 34.045611 29.389038 34.421821 C 31.654384 35.236944 33.660972 36.006485 34.590344 36.727554 C 35.519718 37.417274 35.984508 38.293215 35.984508 39.359143 C 35.984508 39.860758 35.915236 40.316873 35.770022 40.724434 C 35.624807 41.131995 35.359754 41.491608 34.982195 41.805118 C 34.604637 42.087275 34.099107 42.322345 33.460163 42.51045 C 32.850261 42.667197 32.063349 42.74556 31.104933 42.74556 C 29.188101 42.74556 27.565456 42.542658 26.229482 42.135098 C 24.922551 41.696185 23.817641 41.207901 22.91731 40.674937 L 20.999303 46.507329 C 21.405905 46.758136 21.899229 47.025373 22.480087 47.30753 C 23.089988 47.589688 23.803504 47.856923 24.616706 48.107731 C 25.458951 48.358538 26.417067 48.56144 27.491654 48.718194 C 28.566241 48.906299 29.768959 48.998676 31.104933 48.998676 C 35.083812 48.998676 38.064217 48.168925 40.039135 46.507329 C 42.014052 44.814383 43.000703 42.449673 43.000703 39.40864 C 43.000703 37.841097 42.813171 36.504916 42.435613 35.407635 C 42.058055 34.310356 41.475004 33.356059 40.690845 32.540936 C 39.93573 31.725815 38.977613 31.020608 37.815896 30.424941 C 36.654179 29.797924 34.875863 29.171075 33.307548 28.544057 C 32.552431 28.261899 31.855244 27.994662 31.216301 27.743856 C 30.606399 27.461698 30.056006 27.162295 29.562277 26.848786 C 29.09759 26.503926 28.73473 26.13029 28.473344 25.72273 C 28.211965 25.315169 28.081493 24.812864 28.081493 24.217197 C 28.081493 23.213969 28.428024 22.476595 29.125054 22.006333 C 29.851126 21.504719 31.029435 21.255629 32.655838 21.255629 C 34.107983 21.255629 35.755834 21.444509 36.772335 21.820719 C 37.81788 22.165578 38.759667 22.57138 39.601911 23.041644 L 41.561166 17.258749 C 40.60275 16.694433 39.383704 16.173982 37.902516 15.703719 C 36.421327 15.233457 34.251618 14.998388 32.218614 14.998388 z M 6.0017231 52.001492 L 6.0017231 57.998874 L 11.999105 57.998874 L 11.999105 52.001492 L 6.0017231 52.001492 z " transform="matrix(0.12528142,0,0,0.12528142,4.4574942,5.1188655)"/>
  <path id="path2-2" style="fill:currentColor;fill-opacity:1;opacity:1" class="ColorScheme-Text" d="M 6.0017231 5.9981895 L 6.0017231 48.000487 L 9.9986028 48.000487 L 9.9986028 9.999194 L 54.001403 9.999194 L 54.001403 54.001994 L 16.00011 54.001994 L 16.00011 57.998874 L 57.998283 57.998874 L 57.998283 5.9981895 L 6.0017231 5.9981895 z M 32.218614 14.998387 C 30.505083 14.998387 28.968038 15.233457 27.603023 15.703719 C 26.238006 16.142631 25.076027 16.787627 24.117612 17.634101 C 23.159195 18.480574 22.417145 19.513228 21.894373 20.73591 C 21.3716 21.927243 21.110671 23.277446 21.110671 24.782287 C 21.110671 26.287128 21.359395 27.572996 21.853125 28.638925 C 22.346854 29.673504 22.982849 30.567589 23.767008 31.320011 C 24.551166 32.04108 25.435886 32.649785 26.423345 33.151398 C 27.410803 33.621662 28.401579 34.04561 29.389038 34.42182 C 31.654384 35.236944 33.660972 36.006485 34.590344 36.727554 C 35.519718 37.417274 35.984508 38.293214 35.984508 39.359143 C 35.984508 39.860757 35.915236 40.316873 35.770022 40.724434 C 35.624807 41.131995 35.359754 41.491608 34.982195 41.805117 C 34.604637 42.087275 34.099107 42.322344 33.460163 42.510449 C 32.850261 42.667196 32.063349 42.74556 31.104933 42.74556 C 29.188101 42.74556 27.565456 42.542658 26.229482 42.135097 C 24.922551 41.696184 23.817641 41.207901 22.91731 40.674937 L 20.999303 46.507329 C 21.405905 46.758136 21.899229 47.025372 22.480087 47.30753 C 23.089988 47.589687 23.803504 47.856923 24.616706 48.107731 C 25.458951 48.358537 26.417067 48.561439 27.491654 48.718193 C 28.566241 48.906298 29.768959 48.998676 31.104933 48.998676 C 35.083812 48.998676 38.064217 48.168924 40.039135 46.507329 C 42.014052 44.814383 43.000703 42.449673 43.000703 39.408639 C 43.000703 37.841096 42.813171 36.504916 42.435613 35.407635 C 42.058055 34.310356 41.475004 33.356059 40.690845 32.540936 C 39.93573 31.725814 38.977613 31.020608 37.815896 30.424941 C 36.654179 29.797924 34.875863 29.171074 33.307548 28.544056 C 32.552431 28.261899 31.855244 27.994662 31.216301 27.743855 C 30.606399 27.461698 30.056006 27.162295 29.562277 26.848785 C 29.09759 26.503926 28.73473 26.13029 28.473344 25.722729 C 28.211965 25.315168 28.081493 24.812864 28.081493 24.217197 C 28.081493 23.213969 28.428024 22.476595 29.125054 22.006332 C 29.851126 21.504719 31.029435 21.255628 32.655838 21.255628 C 34.107983 21.255628 35.755834 21.444509 36.772335 21.820719 C 37.81788 22.165578 38.759667 22.57138 39.601911 23.041644 L 41.561166 17.258749 C 40.60275 16.694432 39.383704 16.173981 37.902516 15.703719 C 36.421327 15.233457 34.251618 14.998387 32.218614 14.998387 z M 6.0017231 52.001492 L 6.0017231 57.998874 L 11.999105 57.998874 L 11.999105 52.001492 L 6.0017231 52.001492 z " transform="matrix(0.12528142,0,0,0.12528142,4.4574942,4.5897092)"/>
<path id="gradient-path1" style="opacity:0.3;baseline-shift:baseline;display:inline;overflow:visible;vector-effect:none;enable-background:accumulate;stop-color:#000000;stop-opacity:1;fill:url(#linearGradient4)" d="M 8.4453131 1.2753492 C 4.4913166 1.2753492 1.2794833 4.4784283 1.2794833 8.4236094 C 1.2794833 12.36879 4.4913166 15.572386 8.4453131 15.572386 C 12.39931 15.572386 15.611143 12.36879 15.611143 8.4236094 C 15.611143 4.4784283 12.39931 1.2753492 8.4453131 1.2753492 z "/>
</svg>
