<?xml version="1.0" encoding="UTF-8" standalone="no"?>
<svg
   width="64"
   height="64"
   version="1.1"
   viewBox="0 0 16.933 16.933"
   id="svg7"
   sodipodi:docname="application-sweethome3d.svg"
   inkscape:version="1.4.3 (0d15f75042, 2025-12-25)"
   xmlns:inkscape="http://www.inkscape.org/namespaces/inkscape"
   xmlns:sodipodi="http://sodipodi.sourceforge.net/DTD/sodipodi-0.dtd"
   xmlns:xlink="http://www.w3.org/1999/xlink"
   xmlns="http://www.w3.org/2000/svg"
   xmlns:svg="http://www.w3.org/2000/svg"
   xmlns:rdf="http://www.w3.org/1999/02/22-rdf-syntax-ns#"
   xmlns:cc="http://creativecommons.org/ns#"
   xmlns:dc="http://purl.org/dc/elements/1.1/">
  <sodipodi:namedview
     id="namedview7"
     pagecolor="#9c4444"
     bordercolor="#000000"
     borderopacity="0.25"
     inkscape:showpageshadow="2"
     inkscape:pageopacity="0.0"
     inkscape:pagecheckerboard="0"
     inkscape:deskcolor="#d1d1d1"
     inkscape:zoom="4.3531261"
     inkscape:cx="36.180895"
     inkscape:cy="25.958357"
     inkscape:window-width="2560"
     inkscape:window-height="1388"
     inkscape:window-x="0"
     inkscape:window-y="0"
     inkscape:window-maximized="1"
     inkscape:current-layer="svg7"
     showgrid="false" />
  <defs
     id="defs2">
    <filter
       style="color-interpolation-filters:sRGB;"
       inkscape:label="Blur"
       id="filter3"
       x="-0.10843471"
       y="-0.10870992"
       width="1.2168694"
       height="1.2174198">
      <feGaussianBlur
         stdDeviation="0.5 0.5"
         result="blur"
         id="feGaussianBlur3" />
    </filter>
    <style
       id="current-color-scheme"
       type="text/css">.ColorScheme-Text {color:#d8dee9} .ColorScheme-Highlight {color:#3b4252}</style>
    <linearGradient
       id="linearGradient3"
       inkscape:collect="always">
      <stop
         style="stop-color:#000000;stop-opacity:1;"
         offset="0"
         id="stop3" />
      <stop
         style="stop-color:#000000;stop-opacity:0;"
         offset="1"
         id="stop4" />
    </linearGradient>
    <linearGradient
       inkscape:collect="always"
       xlink:href="#linearGradient3"
       id="linearGradient4"
       x1="13.512321"
       y1="13.490874"
       x2="3.3783066"
       y2="3.3568602"
       gradientUnits="userSpaceOnUse" />
  </defs>
  <metadata
     id="metadata2">
    <rdf:RDF>
      <cc:Work
         rdf:about="">
        <dc:format>image/svg+xml</dc:format>
        <dc:type
           rdf:resource="http://purl.org/dc/dcmitype/StillImage" />
      </cc:Work>
    </rdf:RDF>
  </metadata>
  <ellipse
     style="opacity:1;fill:none;stroke:#000000;stroke-width:0.582072;stroke-dasharray:none;stroke-opacity:1;filter:url(#filter3)"
     id="path1-5"
     cx="8.4450111"
     cy="8.423522"
     rx="6.8752708"
     ry="6.8578653" />
  <ellipse
     style="opacity:1;fill:none;stroke-width:0.58207188;stroke-opacity:1;stroke:currentColor;stroke-dasharray:none;fill-opacity:1"
     id="path1"
     cx="8.4450111"
     cy="8.423522"
     rx="6.8752708"
     ry="6.8578653"
     class="ColorScheme-Text" />
  <ellipse
     style="fill:currentColor;stroke:none;stroke-width:0.285844;stroke-dasharray:none;stroke-opacity:1"
     id="path1-2"
     cx="8.4557552"
     cy="8.423522"
     rx="6.5738997"
     ry="6.5692253"
     class="ColorScheme-Highlight" />
  <path
     id="path5-6"
     style="opacity:0.3;fill:#000000;fill-opacity:1;stroke-width:0.566038"
     d="m 6.2869199,10.241861 -1.126262,0.910698 c 0.05285,0.05322 0.112856,0.0993 0.178003,0.136905 l 2.704062,1.561197 c 0.262484,0.151556 0.585343,0.151555 0.847826,0 l 2.7040621,-1.561197 c 0.06476,-0.03766 0.124313,-0.08392 0.176913,-0.137177 l -1.125717,-0.910426 -2.1793071,1.22996 z m 2.108542,-5.2143346 c -0.124009,0.01014 -0.244595,0.04747 -0.353011,0.109687 l -2.704062,1.561742 c -0.262439,0.151538 -0.424073,0.431314 -0.424049,0.734329 v 3.1221226 c 2.01e-4,0.175305 0.05489,0.34568 0.155412,0.48801 l 1.151846,-0.931656 V 7.6684434 l 2.173864,-1.226693 z m 0.142076,-5.42e-4 v 1.414767 l 2.1738641,1.226694 v 2.4435896 l 1.151573,0.931384 c 0.100708,-0.142299 0.15536,-0.312551 0.155685,-0.48801 V 7.4332864 c 2.09e-4,-0.303242 -0.161458,-0.583247 -0.424049,-0.734873 L 8.8902759,5.1377604 c -0.108232,-0.06254 -0.228629,-0.100282 -0.352738,-0.110776 z m -2.249973,2.604237 -0.06597,0.03722 v 0.09696 l 2.173864,1.212564 -0.0025,2.4523676 0.07352,0.04149 0.06893,-0.0389 0.0021,-2.4549526 2.1738641,-1.214912 v -0.09461 l -0.06801,-0.03838 -2.1766161,1.224877 z"
     class="ColorScheme-Text" />
  <path
     id="path5-6-5"
     style="fill:currentColor;stroke-width:0.566038"
     d="m 6.2869199,9.7127052 -1.126262,0.9106978 c 0.05285,0.05322 0.112856,0.0993 0.178003,0.136905 l 2.704062,1.561197 c 0.262484,0.151556 0.585343,0.151555 0.847826,0 l 2.7040621,-1.561197 c 0.06476,-0.03766 0.124313,-0.08392 0.176913,-0.137177 L 10.645807,9.7127052 8.4664999,10.942665 Z m 2.108542,-5.214335 c -0.124009,0.01014 -0.244595,0.04747 -0.353011,0.109687 l -2.704062,1.561742 c -0.262439,0.151538 -0.424073,0.431314 -0.424049,0.734329 v 3.1221228 c 2.01e-4,0.175305 0.05489,0.34568 0.155412,0.48801 l 1.151846,-0.9316558 v -2.443318 l 2.173864,-1.226693 z m 0.142076,-5.42e-4 v 1.414767 l 2.1738641,1.226694 v 2.44359 l 1.151573,0.9313838 c 0.100708,-0.142299 0.15536,-0.312551 0.155685,-0.48801 V 6.9041302 c 2.09e-4,-0.303242 -0.161458,-0.583247 -0.424049,-0.734873 L 8.8902759,4.6086042 c -0.108232,-0.06254 -0.228629,-0.100282 -0.352738,-0.110776 z m -2.249973,2.604237 -0.06597,0.03722 v 0.09696 l 2.173864,1.212564 -0.0025,2.4523678 0.07352,0.04149 0.06893,-0.0389 0.0021,-2.4549528 2.1738641,-1.214912 v -0.09461 l -0.06801,-0.03838 -2.1766161,1.224877 z"
     class="ColorScheme-Text" />
  <path
     id="gradient-path1"
     style="opacity:0.3;baseline-shift:baseline;display:inline;overflow:visible;vector-effect:none;enable-background:accumulate;stop-color:#000000;stop-opacity:1;fill:url(#linearGradient4)"
     d="M 8.4453131 1.2753492 C 4.4913166 1.2753492 1.2794833 4.4784283 1.2794833 8.4236094 C 1.2794833 12.36879 4.4913166 15.572386 8.4453131 15.572386 C 12.39931 15.572386 15.611143 12.36879 15.611143 8.4236094 C 15.611143 4.4784283 12.39931 1.2753492 8.4453131 1.2753492 z " />
</svg>
