<?xml version='1.0' encoding='UTF-8'?>
<svg xmlns:inkscape="http://www.inkscape.org/namespaces/inkscape" xmlns:sodipodi="http://sodipodi.sourceforge.net/DTD/sodipodi-0.dtd" xmlns="http://www.w3.org/2000/svg" xmlns:svg="http://www.w3.org/2000/svg" xmlns:rdf="http://www.w3.org/1999/02/22-rdf-syntax-ns#" xmlns:cc="http://creativecommons.org/ns#" xmlns:dc="http://purl.org/dc/elements/1.1/" width="64" height="64" version="1.1" viewBox="0 0 16.933 16.933" id="svg7" sodipodi:docname="arch-update_updates-available-light.svg" inkscape:version="1.4.2 (ebf0e940d0, 2025-05-08)">
  <sodipodi:namedview id="namedview7" pagecolor="#9c4444" bordercolor="#000000" borderopacity="0.25" inkscape:showpageshadow="2" inkscape:pageopacity="0.0" inkscape:pagecheckerboard="0" inkscape:deskcolor="#d1d1d1" inkscape:zoom="4.3531261" inkscape:cx="36.640335" inkscape:cy="-28.714996" inkscape:window-width="964" inkscape:window-height="1104" inkscape:window-x="0" inkscape:window-y="0" inkscape:window-maximized="0" inkscape:current-layer="svg7" showgrid="false"/>
  <defs id="defs2">
    <filter style="color-interpolation-filters:sRGB;" inkscape:label="Blur" id="filter3" x="-0.10843471" y="-0.10870992" width="1.2168694" height="1.2174198">
      <feGaussianBlur stdDeviation="0.5 0.5" result="blur" id="feGaussianBlur3"/>
    </filter>
    <style id="current-color-scheme" type="text/css">.ColorScheme-Text {color:#d8dee9} .ColorScheme-Highlight {color:#3b4252}</style>
  <linearGradient id="linearGradient3" inkscape:collect="always">
      <stop style="stop-color:#000000;stop-opacity:1;" offset="0" id="stop3"/>
      <stop style="stop-color:#000000;stop-opacity:0;" offset="1" id="stop4"/>
    </linearGradient>
    <linearGradient xmlns:xlink="http://www.w3.org/1999/xlink" inkscape:collect="always" xlink:href="#linearGradient3" id="linearGradient4" x1="13.512321" y1="13.490874" x2="3.3783066" y2="3.3568602" gradientUnits="userSpaceOnUse"/>
  </defs>
  <metadata id="metadata2">
    <rdf:RDF>
      <cc:Work rdf:about="">
        <dc:format>image/svg+xml</dc:format>
        <dc:type rdf:resource="http://purl.org/dc/dcmitype/StillImage"/>
      </cc:Work>
    </rdf:RDF>
  </metadata>
  <ellipse style="opacity:1;fill:none;stroke:#000000;stroke-width:0.582072;stroke-dasharray:none;stroke-opacity:1;filter:url(#filter3)" id="path1-5" cx="8.4450111" cy="8.423522" rx="6.8752708" ry="6.8578653"/>
  <ellipse style="opacity:1;fill:none;stroke-width:0.58207188;stroke-opacity:1;stroke:currentColor;stroke-dasharray:none;fill-opacity:1" id="path1" cx="8.4450111" cy="8.423522" rx="6.8752708" ry="6.8578653" class="ColorScheme-Text"/>
  <ellipse style="fill:currentColor;stroke:none;stroke-width:0.285844;stroke-dasharray:none;stroke-opacity:1" id="path1-2" cx="8.4557552" cy="8.423522" rx="6.5738997" ry="6.5692253" class="ColorScheme-Highlight"/>
<path id="path65" style="opacity:0.3;fill:#000000;fill-opacity:1" d="M 0.41553113 27.363441 C -0.80558976 24.370042 -1.5419619 22.412822 -2.9000473 19.510184 C -2.0667123 18.627343 -1.0420555 17.596922 0.6180092 16.436856 C -1.1674681 17.171178 -2.3868799 17.909287 -3.297772 18.674962 C -5.0370452 15.046252 -7.76 9.8759612 -13.289703 -0.059682645 C -8.9431697 2.4502192 -5.5756959 3.9975145 -2.4354324 4.5882737 C -2.5707525 5.1674811 -2.646459 5.7950755 -2.6415261 6.448541 L -2.6379105 6.5877447 C -2.5686061 9.3715754 -1.1182065 11.512887 0.59631512 11.367673 C 0.86527615 11.344584 1.1260037 11.267113 1.3718784 11.141693 C 2.5632975 12.800107 4.4596539 13.908427 6.616422 14.010735 C 3.1277687 20.755653 2.3244618 22.883973 0.41553113 27.363441 z M 6.999684 13.000153 C 5.911144 13.000153 4.9070961 12.732131 3.9878228 12.195664 C 3.0685494 11.659197 2.3404055 10.93106 1.8039522 10.011793 C 1.2674922 9.0925268 0.99946342 8.0884655 0.99946342 6.9999322 C 0.99946342 5.9113988 1.2674922 4.9073376 1.8039522 3.9880709 C 2.3404055 3.0688042 3.0685494 2.340667 3.9878228 1.8042003 C 4.9070961 1.2677336 5.911144 0.99971154 6.999684 0.99971154 C 8.088224 0.99971154 9.092272 1.2677336 10.011545 1.8042003 C 10.930812 2.340667 11.658956 3.0688042 12.195416 3.9880709 C 12.731876 4.9073376 12.999905 5.9113988 12.999905 6.9999322 C 12.999905 8.0884655 12.731876 9.0925268 12.195416 10.011793 C 11.658956 10.93106 10.930812 11.659197 10.011545 12.195664 C 9.092272 12.732131 8.088224 13.000153 6.999684 13.000153 z M 6.5007202 11.000682 L 7.5004557 11.000682 C 7.635869 11.000682 7.7522166 10.951372 7.8511766 10.852439 C 7.9501366 10.753439 7.9994195 10.63531 7.9994195 10.49991 L 7.9994195 6.5787055 L 9.4764247 8.0539028 C 9.5753847 8.1528362 9.6935402 8.2039535 9.8289535 8.2039535 C 9.9643735 8.2039535 10.080714 8.1528362 10.179674 8.0539028 L 10.890156 7.3434217 C 10.983909 7.2496217 11.031167 7.1333008 11.031167 6.9927008 C 11.031167 6.8521008 10.983909 6.733972 10.890156 6.640172 L 8.0626939 3.8127104 L 7.3522128 3.1022293 C 7.2584662 3.0084293 7.1403107 2.9612178 6.999684 2.9612178 C 6.8590574 2.9612178 6.7427098 3.0084293 6.6489631 3.1022293 L 5.9366742 3.8127104 L 3.1092126 6.640172 C 3.0154659 6.733972 2.9682011 6.8521008 2.9682011 6.9927008 C 2.9682011 7.1333008 3.0154659 7.2496217 3.1092126 7.3434217 L 3.8196937 8.0539028 C 3.913447 8.1476362 4.0316024 8.1949143 4.1722224 8.1949143 C 4.3128491 8.1949143 4.42919 8.1476362 4.5229434 8.0539028 L 5.9999486 6.5787055 L 5.9999486 10.49991 C 5.9999486 10.63531 6.0492315 10.753439 6.1481915 10.852439 C 6.2471448 10.951372 6.3653002 11.000682 6.5007202 11.000682 z M 12.506364 2.9395238 C 12.131778 2.4213714 11.686797 1.9581486 11.188449 1.5637576 L 11.188449 1.5619497 C 12.12079 1.0734993 13.094995 0.53421903 14.127997 -0.061490485 C 13.550437 1.001217 13.017919 1.9906804 12.506364 2.9395238 z " transform="matrix(0.28584065,0,0,-0.28584065,8.3466908,12.89766)"/>
  <path id="path65-3" style="fill:currentColor;fill-opacity:1" class="ColorScheme-Text" d="M 0.41552693 27.363442 C -0.80559396 24.370043 -1.5419661 22.412823 -2.9000514 19.510185 C -2.0667165 18.627344 -1.0420597 17.596923 0.618005 16.436857 C -1.1674723 17.171179 -2.3868841 17.909288 -3.2977762 18.674963 C -5.0370494 15.046253 -7.7600042 9.8759635 -13.289707 -0.05968177 C -8.9431739 2.4502201 -5.5757001 3.9975154 -2.4354366 4.5882746 C -2.5707567 5.1674819 -2.6464632 5.795075 -2.6415303 6.4485419 L -2.6379147 6.5877455 C -2.5686103 9.3715762 -1.1182107 11.512888 0.59631092 11.367674 C 0.86527196 11.344584 1.1259995 11.267114 1.3718742 11.141694 C 2.5632933 12.800108 4.4596497 13.908427 6.6164178 14.010736 C 3.1277645 20.755654 2.3244576 22.883973 0.41552693 27.363442 z M 6.9996798 13.000154 C 5.9111398 13.000154 4.9070919 12.732132 3.9878186 12.195665 C 3.0685452 11.659198 2.3404013 10.931061 1.803948 10.011794 C 1.267488 9.0925277 0.99945922 8.0884664 0.99945922 6.999933 C 0.99945922 5.9113997 1.267488 4.9073384 1.803948 3.9880718 C 2.3404013 3.0688051 3.0685452 2.3406678 3.9878186 1.8042012 C 4.9070919 1.2677345 5.9111398 0.99971241 6.9996798 0.99971241 C 8.0882198 0.99971241 9.0922678 1.2677345 10.011541 1.8042012 C 10.930808 2.3406678 11.658952 3.0688051 12.195412 3.9880718 C 12.731872 4.9073384 12.9999 5.9113997 12.9999 6.999933 C 12.9999 8.0884664 12.731872 9.0925277 12.195412 10.011794 C 11.658952 10.931061 10.930808 11.659198 10.011541 12.195665 C 9.0922678 12.732132 8.0882198 13.000154 6.9996798 13.000154 z M 6.500716 11.000683 L 7.5004515 11.000683 C 7.6358648 11.000683 7.7522124 10.951373 7.8511724 10.85244 C 7.9501324 10.75344 7.9994153 10.635311 7.9994153 10.499911 L 7.9994153 6.5787063 L 9.4764205 8.0539037 C 9.5753805 8.152837 9.693536 8.2039544 9.8289493 8.2039544 C 9.9643693 8.2039544 10.08071 8.152837 10.17967 8.0539037 L 10.890151 7.3434226 C 10.983905 7.2496226 11.031163 7.1333017 11.031163 6.9927017 C 11.031163 6.8521017 10.983905 6.7339729 10.890151 6.6401729 L 8.0626897 3.8127113 L 7.3522086 3.1022302 C 7.258462 3.0084302 7.1403065 2.9612187 6.9996798 2.9612187 C 6.8590532 2.9612187 6.7427056 3.0084302 6.6489589 3.1022302 L 5.93667 3.8127113 L 3.1092084 6.6401729 C 3.0154617 6.7339729 2.9681969 6.8521017 2.9681969 6.9927017 C 2.9681969 7.1333017 3.0154617 7.2496226 3.1092084 7.3434226 L 3.8196895 8.0539037 C 3.9134428 8.147637 4.0315982 8.1949152 4.1722182 8.1949152 C 4.3128449 8.1949152 4.4291859 8.147637 4.5229392 8.0539037 L 5.9999444 6.5787063 L 5.9999444 10.499911 C 5.9999444 10.635311 6.0492273 10.75344 6.1481873 10.85244 C 6.2471406 10.951373 6.365296 11.000683 6.500716 11.000683 z M 12.50636 2.9395246 C 12.131774 2.4213723 11.686792 1.9581495 11.188445 1.5637585 L 11.188445 1.5619506 C 12.120786 1.0735002 13.09499 0.5342199 14.127993 -0.06148961 C 13.550433 1.0012178 13.017914 1.9906813 12.50636 2.9395246 z " transform="matrix(0.28584065,0,0,-0.28584065,8.3466919,12.368504)"/>
<path id="gradient-path1" style="opacity:0.3;baseline-shift:baseline;display:inline;overflow:visible;vector-effect:none;enable-background:accumulate;stop-color:#000000;stop-opacity:1;fill:url(#linearGradient4)" d="M 8.4453131 1.2753492 C 4.4913166 1.2753492 1.2794833 4.4784283 1.2794833 8.4236094 C 1.2794833 12.36879 4.4913166 15.572386 8.4453131 15.572386 C 12.39931 15.572386 15.611143 12.36879 15.611143 8.4236094 C 15.611143 4.4784283 12.39931 1.2753492 8.4453131 1.2753492 z "/>
</svg>
