<?xml version='1.0' encoding='UTF-8'?>
<svg xmlns:inkscape="http://www.inkscape.org/namespaces/inkscape" xmlns:sodipodi="http://sodipodi.sourceforge.net/DTD/sodipodi-0.dtd" xmlns="http://www.w3.org/2000/svg" xmlns:svg="http://www.w3.org/2000/svg" xmlns:rdf="http://www.w3.org/1999/02/22-rdf-syntax-ns#" xmlns:cc="http://creativecommons.org/ns#" xmlns:dc="http://purl.org/dc/elements/1.1/" width="64" height="64" version="1.1" viewBox="0 0 16.933 16.933" id="svg7" sodipodi:docname="arch-update-blue.svg" inkscape:version="1.4.2 (ebf0e940d0, 2025-05-08)">
  <sodipodi:namedview id="namedview7" pagecolor="#9c4444" bordercolor="#000000" borderopacity="0.25" inkscape:showpageshadow="2" inkscape:pageopacity="0.0" inkscape:pagecheckerboard="0" inkscape:deskcolor="#d1d1d1" inkscape:zoom="4.3531261" inkscape:cx="36.755195" inkscape:cy="26.188077" inkscape:window-width="2560" inkscape:window-height="1376" inkscape:window-x="0" inkscape:window-y="0" inkscape:window-maximized="1" inkscape:current-layer="svg7" showgrid="false"/>
  <defs id="defs2">
    <filter style="color-interpolation-filters:sRGB;" inkscape:label="Blur" id="filter3" x="-0.10843471" y="-0.10870992" width="1.2168694" height="1.2174198">
      <feGaussianBlur stdDeviation="0.5 0.5" result="blur" id="feGaussianBlur3"/>
    </filter>
    <style id="current-color-scheme" type="text/css">.ColorScheme-Text {color:#d8dee9} .ColorScheme-Highlight {color:#3b4252}</style>
  <linearGradient id="linearGradient3" inkscape:collect="always">
      <stop style="stop-color:#000000;stop-opacity:1;" offset="0" id="stop3"/>
      <stop style="stop-color:#000000;stop-opacity:0;" offset="1" id="stop4"/>
    </linearGradient>
    <linearGradient xmlns:xlink="http://www.w3.org/1999/xlink" inkscape:collect="always" xlink:href="#linearGradient3" id="linearGradient4" x1="13.512321" y1="13.490874" x2="3.3783066" y2="3.3568602" gradientUnits="userSpaceOnUse"/>
  </defs>
  <metadata id="metadata2">
    <rdf:RDF>
      <cc:Work rdf:about="">
        <dc:format>image/svg+xml</dc:format>
        <dc:type rdf:resource="http://purl.org/dc/dcmitype/StillImage"/>
      </cc:Work>
    </rdf:RDF>
  </metadata>
  <ellipse style="opacity:1;fill:none;stroke:#000000;stroke-width:0.582072;stroke-dasharray:none;stroke-opacity:1;filter:url(#filter3)" id="path1-5" cx="8.4450111" cy="8.423522" rx="6.8752708" ry="6.8578653"/>
  <ellipse style="opacity:1;fill:none;stroke-width:0.58207188;stroke-opacity:1;stroke:currentColor;stroke-dasharray:none;fill-opacity:1" id="path1" cx="8.4450111" cy="8.423522" rx="6.8752708" ry="6.8578653" class="ColorScheme-Text"/>
  <ellipse style="fill:currentColor;stroke:none;stroke-width:0.285844;stroke-dasharray:none;stroke-opacity:1" id="path1-2" cx="8.4557552" cy="8.423522" rx="6.5738997" ry="6.5692253" class="ColorScheme-Highlight"/>
<path id="path62" style="opacity:0.3;fill:#000000;fill-opacity:1;stroke-width:0.0471685" d="m 8.4655785,5.0761959 c -0.349048,0.855638 -0.559412,1.41505 -0.947609,2.244745 0.238201,0.252351 0.53058,0.546735 1.005096,0.87833 -0.510364,-0.2099 -0.858409,-0.420769 -1.11878,-0.639632 -0.497157,1.037237 -1.275934,2.5149951 -2.856554,5.3550141 1.242421,-0.717434 2.205097,-1.159411 3.102715,-1.328275 -0.03868,-0.165561 -0.06038,-0.345241 -0.05896,-0.532028 l 0.0015,-0.03961 c 0.01981,-0.795733 0.433944,-1.4080141 0.924025,-1.3665061 0.07689,0.0066 0.151374,0.02883 0.221655,0.06467 0.340557,-0.474044 0.883044,-0.790586 1.4995365,-0.81983 l 4.63e-4,4.61e-4 C 9.2410435,6.9648119 9.0113395,6.3568239 8.4655995,5.0761969 Z m 1.8819515,4.105508 c -0.311148,0 -0.5980595,0.07669 -0.8608265,0.230039 -0.262766,0.153345 -0.470813,0.361392 -0.624154,0.6241541 -0.15334,0.262767 -0.230039,0.54977 -0.230039,0.860917 0,0.311148 0.0767,0.59806 0.230039,0.860827 0.153341,0.262762 0.361388,0.470809 0.624154,0.624154 0.262767,0.153345 0.5496785,0.230039 0.8608265,0.230039 0.311152,0 0.598152,-0.07669 0.860919,-0.230039 0.262761,-0.153345 0.470814,-0.361392 0.624154,-0.624154 0.153345,-0.262767 0.230039,-0.549679 0.230039,-0.860827 0,-0.311147 -0.07669,-0.59815 -0.230039,-0.860917 C 11.679263,9.7731349 11.47121,9.5650879 11.208449,9.4117429 10.945683,9.2583979 10.658682,9.1817039 10.34753,9.1817039 Z m 0.898874,0.8239761 c 0.04414,0 0.08168,0.01544 0.112578,0.04634 l 0.225065,0.225064 c 0.0309,0.03089 0.04634,0.06843 0.04634,0.112578 0,0.04415 -0.01544,0.08167 -0.04634,0.112579 l -1.198469,1.198467 -0.225064,0.225064 c -0.0309,0.03091 -0.06844,0.04643 -0.112578,0.04643 -0.04415,0 -0.081679,-0.01553 -0.1125775,-0.04643 l -0.225064,-0.225064 -0.599281,-0.59928 c -0.0309,-0.03089 -0.04634,-0.06834 -0.04634,-0.112486 0,-0.04415 0.01544,-0.08167 0.04634,-0.112578 l 0.225157,-0.225157 c 0.0309,-0.03089 0.06843,-0.04634 0.112578,-0.04634 0.04414,0 0.08159,0.01545 0.112486,0.04634 l 0.4867015,0.488361 1.085891,-1.087548 c 0.0309,-0.0309 0.06843,-0.04634 0.112577,-0.04634 z m 0.675193,2.051924 c -0.107073,0.148109 -0.234439,0.280184 -0.376888,0.392917 v 4.64e-4 c 0.266502,0.139619 0.545283,0.293852 0.840559,0.464131 -0.165091,-0.303766 -0.317449,-0.58629 -0.463671,-0.85751 z"/>
  <path id="path62-6" style="fill:currentColor;fill-opacity:1;stroke-width:0.0471685" d="m 8.4655785,4.5470395 c -0.349048,0.855638 -0.559412,1.41505 -0.947609,2.244745 0.238201,0.252351 0.53058,0.546735 1.005096,0.87833 -0.510364,-0.2099 -0.858409,-0.420769 -1.11878,-0.639632 -0.497157,1.037237 -1.275934,2.514995 -2.856554,5.3550145 1.242421,-0.717434 2.205097,-1.159411 3.102715,-1.328275 -0.03868,-0.165561 -0.06038,-0.345241 -0.05896,-0.532028 l 0.0015,-0.03961 c 0.01981,-0.7957335 0.433944,-1.4080145 0.924025,-1.3665065 0.07689,0.0066 0.151374,0.02883 0.221655,0.06467 0.340557,-0.474044 0.883044,-0.790586 1.4995365,-0.81983 l 4.64e-4,4.61e-4 C 9.2410435,6.4356555 9.0113395,5.8276675 8.4655995,4.5470405 Z m 1.8819525,4.105508 c -0.311148,0 -0.5980605,0.07669 -0.8608275,0.230039 -0.262766,0.153345 -0.470813,0.361392 -0.624154,0.624154 -0.15334,0.262767 -0.230039,0.5497705 -0.230039,0.8609175 0,0.311148 0.0767,0.59806 0.230039,0.860827 0.153341,0.262762 0.361388,0.470809 0.624154,0.624154 0.262767,0.153346 0.5496795,0.23004 0.8608275,0.23004 0.311152,0 0.598152,-0.07669 0.860919,-0.23004 0.262761,-0.153345 0.470814,-0.361391 0.624154,-0.624154 0.153345,-0.262767 0.230039,-0.549679 0.230039,-0.860827 0,-0.311147 -0.07669,-0.5981505 -0.230039,-0.8609175 -0.15334,-0.262762 -0.361393,-0.470809 -0.624154,-0.624154 -0.262767,-0.153345 -0.549767,-0.230039 -0.860919,-0.230039 z m 0.898874,0.823976 c 0.04414,0 0.08168,0.01544 0.112578,0.04634 l 0.225065,0.225064 c 0.0309,0.03089 0.04634,0.06843 0.04634,0.112578 0,0.04415 -0.01544,0.08167 -0.04634,0.112579 l -1.198469,1.1984675 -0.225065,0.225064 c -0.0309,0.03091 -0.06844,0.04643 -0.112578,0.04643 -0.04415,0 -0.081679,-0.01553 -0.1125775,-0.04643 l -0.225064,-0.225064 -0.599281,-0.59928 c -0.0309,-0.03089 -0.04634,-0.06834 -0.04634,-0.112486 0,-0.04415 0.01544,-0.08167 0.04634,-0.112578 l 0.225157,-0.225157 c 0.0309,-0.03089 0.06843,-0.04634 0.112578,-0.04634 0.04414,0 0.08159,0.01545 0.112486,0.04634 l 0.4867015,0.488361 1.085891,-1.0875485 c 0.0309,-0.0309 0.06843,-0.04634 0.112578,-0.04634 z m 0.675193,2.0519255 c -0.107073,0.148109 -0.234439,0.280183 -0.376888,0.392917 v 4.64e-4 c 0.266502,0.139619 0.545283,0.293852 0.840559,0.46413 -0.165091,-0.303765 -0.31745,-0.58629 -0.463671,-0.85751 z" class="ColorScheme-Text"/>
<path id="gradient-path1" style="opacity:0.3;baseline-shift:baseline;display:inline;overflow:visible;vector-effect:none;enable-background:accumulate;stop-color:#000000;stop-opacity:1;fill:url(#linearGradient4)" d="M 8.4453131 1.2753492 C 4.4913166 1.2753492 1.2794833 4.4784283 1.2794833 8.4236094 C 1.2794833 12.36879 4.4913166 15.572386 8.4453131 15.572386 C 12.39931 15.572386 15.611143 12.36879 15.611143 8.4236094 C 15.611143 4.4784283 12.39931 1.2753492 8.4453131 1.2753492 z "/>
</svg>
