<?xml version="1.0" encoding="UTF-8" standalone="no"?>
<svg
   width="64"
   height="64"
   version="1.1"
   viewBox="0 0 16.933 16.933"
   id="svg7"
   sodipodi:docname="ardour.svg"
   inkscape:version="1.4.2 (ebf0e940d0, 2025-05-08)"
   xmlns:inkscape="http://www.inkscape.org/namespaces/inkscape"
   xmlns:sodipodi="http://sodipodi.sourceforge.net/DTD/sodipodi-0.dtd"
   xmlns:xlink="http://www.w3.org/1999/xlink"
   xmlns="http://www.w3.org/2000/svg"
   xmlns:svg="http://www.w3.org/2000/svg"
   xmlns:rdf="http://www.w3.org/1999/02/22-rdf-syntax-ns#"
   xmlns:cc="http://creativecommons.org/ns#"
   xmlns:dc="http://purl.org/dc/elements/1.1/">
  <sodipodi:namedview
     id="namedview7"
     pagecolor="#9c4444"
     bordercolor="#000000"
     borderopacity="0.25"
     inkscape:showpageshadow="2"
     inkscape:pageopacity="0.0"
     inkscape:pagecheckerboard="0"
     inkscape:deskcolor="#d1d1d1"
     inkscape:zoom="8.7062522"
     inkscape:cx="72.419221"
     inkscape:cy="15.276378"
     inkscape:window-width="2560"
     inkscape:window-height="1388"
     inkscape:window-x="0"
     inkscape:window-y="0"
     inkscape:window-maximized="1"
     inkscape:current-layer="svg7"
     showgrid="false" />
  <defs
     id="defs2">
    <filter
       style="color-interpolation-filters:sRGB;"
       inkscape:label="Blur"
       id="filter3"
       x="-0.10843471"
       y="-0.10870992"
       width="1.2168694"
       height="1.2174198">
      <feGaussianBlur
         stdDeviation="0.5 0.5"
         result="blur"
         id="feGaussianBlur3" />
    </filter>
    <style
       id="current-color-scheme"
       type="text/css">.ColorScheme-Text {color:#d8dee9} .ColorScheme-Highlight {color:#3b4252}</style>
    <linearGradient
       id="linearGradient3"
       inkscape:collect="always">
      <stop
         style="stop-color:#000000;stop-opacity:1;"
         offset="0"
         id="stop3" />
      <stop
         style="stop-color:#000000;stop-opacity:0;"
         offset="1"
         id="stop4" />
    </linearGradient>
    <linearGradient
       inkscape:collect="always"
       xlink:href="#linearGradient3"
       id="linearGradient4"
       x1="13.512321"
       y1="13.490874"
       x2="3.3783066"
       y2="3.3568602"
       gradientUnits="userSpaceOnUse" />
  </defs>
  <metadata
     id="metadata2">
    <rdf:RDF>
      <cc:Work
         rdf:about="">
        <dc:format>image/svg+xml</dc:format>
        <dc:type
           rdf:resource="http://purl.org/dc/dcmitype/StillImage" />
      </cc:Work>
    </rdf:RDF>
  </metadata>
  <ellipse
     style="opacity:1;fill:none;stroke:#000000;stroke-width:0.582072;stroke-dasharray:none;stroke-opacity:1;filter:url(#filter3)"
     id="path1-5"
     cx="8.4450111"
     cy="8.423522"
     rx="6.8752708"
     ry="6.8578653" />
  <ellipse
     style="opacity:1;fill:none;stroke-width:0.58207188;stroke-opacity:1;stroke:currentColor;stroke-dasharray:none;fill-opacity:1"
     id="path1"
     cx="8.4450111"
     cy="8.423522"
     rx="6.8752708"
     ry="6.8578653"
     class="ColorScheme-Text" />
  <ellipse
     style="fill:currentColor;stroke:none;stroke-width:0.285844;stroke-dasharray:none;stroke-opacity:1"
     id="path1-2"
     cx="8.4557552"
     cy="8.423522"
     rx="6.5738997"
     ry="6.5692253"
     class="ColorScheme-Highlight" />
  <path
     d="M 8.4665004,5.5561406 4.1450672,12.964309 h 0.074732 c 0.1479974,-0.0032 0.2066759,-0.242981 0.2834444,-0.242981 0.050502,0 0.123768,0.03758 0.1745628,0.03758 0.096039,0 0.1237671,-0.502719 0.2049221,-0.500985 0.080855,0.0016 0.065679,0.429333 0.2177668,0.434823 0.1579215,0.0055 0.054003,-0.98608 0.2084213,-0.98608 0.1345714,0 0.067135,0.845956 0.2507498,0.851732 0.1780608,0.0055 0.040283,-1.465683 0.2180522,-1.47984 0.2072584,-0.01674 0.075899,1.369184 0.2901577,1.369184 0.1871199,0 0.063635,-1.945868 0.2291516,-1.945868 0.1652183,0 0.1153019,1.879995 0.2837401,1.864105 0.1623008,0 0.00551,-2.267436 0.1929476,-2.267436 0.2396599,0 0.1170548,2.250679 0.2814051,2.249812 0.1847744,-5.28e-4 0.033852,-2.4708335 0.2495775,-2.4708335 0.2233143,0 0.070943,2.4951015 0.2574697,2.4884575 0.19616,-0.0069 -0.00994,-2.337644 0.20638,-2.337644 0.2081274,0 0.066556,2.370292 0.2481187,2.370292 0.1923726,0 -0.013692,-2.339667 0.2376197,-2.323487 0.2434529,0.01589 0.084065,2.391671 0.2580427,2.391671 0.165809,0 0.066855,-2.075592 0.2647655,-2.064324 0.2320692,0.01302 0.096914,2.128466 0.2571693,2.128466 0.1485863,0 0.081153,-1.688732 0.2779021,-1.688732 0.207841,0 0.05138,1.752581 0.2428651,1.744492 0.1912022,-0.0077 0.105671,-1.33625 0.2916179,-1.33625 0.1783571,0 0.030945,1.448927 0.2320691,1.448927 0.2093,0 0.10363,-1.014391 0.288116,-1.014391 0.190324,0 0.07035,1.10829 0.216013,1.10829 0.141579,0 0.100131,-0.698316 0.239947,-0.698316 0.140119,0 0.07444,0.738766 0.192078,0.738766 0.122021,0 0.07211,-0.426446 0.201126,-0.426446 0.129318,0 0.0832,0.460537 0.182447,0.466027 0.08785,0.0049 0.07648,-0.290365 0.157629,-0.290365 0.08261,0 0.04787,0.328213 0.161424,0.327924 0.109466,-2.65e-4 0.07591,-0.181729 0.15413,-0.181729 0.07648,0 0.07883,0.213221 0.169306,0.213221 0.06451,-9.66e-4 0.133112,-0.09736 0.21514,-0.09736 0.107714,0 0.140992,0.119324 0.41714,0.119324 h 0.114719 z"
     id="path5"
     style="opacity:0.3;fill:#000000;fill-opacity:1;stroke-width:0.29039"
     class="ColorScheme-Text" />
  <path
     d="M 8.4664999,4.7624025 4.1450667,12.170571 h 0.074732 c 0.1479973,-0.0032 0.2066768,-0.242981 0.2834443,-0.242981 0.050503,0 0.123768,0.03758 0.1745628,0.03758 0.096039,0 0.1237672,-0.502719 0.2049232,-0.500985 0.080854,0.0016 0.065679,0.429333 0.2177657,0.434823 0.1579225,0.0055 0.054003,-0.98608 0.2084214,-0.98608 0.1345714,0 0.067135,0.845956 0.2507497,0.851732 0.1780618,0.0055 0.040283,-1.465683 0.2180524,-1.47984 0.2072581,-0.01674 0.075898,1.369184 0.2901577,1.369184 0.1871197,0 0.063634,-1.9458678 0.2291524,-1.9458678 0.1652172,0 0.1153008,1.8799948 0.2837392,1.8641048 0.1623017,0 0.00551,-2.2674368 0.1929476,-2.2674368 0.2396608,0 0.1170556,2.2506798 0.2814048,2.2498128 0.1847755,-5.28e-4 0.033852,-2.4708339 0.2495775,-2.4708339 0.2233154,0 0.070943,2.4951019 0.2574697,2.4884579 0.1961602,-0.0069 -0.00994,-2.3376443 0.2063812,-2.3376443 0.2081273,0 0.066556,2.3702923 0.2481178,2.3702923 0.1923727,0 -0.013692,-2.3396676 0.2376196,-2.323487 0.2434538,0.015892 0.084065,2.391671 0.2580437,2.391671 0.1658081,0 0.066855,-2.0755927 0.2647646,-2.0643242 0.2320691,0.013025 0.096914,2.1284662 0.2571692,2.1284662 0.1485863,0 0.081153,-1.688732 0.2779021,-1.688732 0.2078413,0 0.05138,1.752581 0.2428653,1.744492 0.1912022,-0.0077 0.105671,-1.336249 0.2916179,-1.336249 0.1783575,0 0.030945,1.448927 0.2320685,1.448927 0.209299,0 0.103629,-1.014392 0.288116,-1.014392 0.190324,0 0.07035,1.10829 0.216012,1.10829 0.14158,0 0.100132,-0.698316 0.239948,-0.698316 0.140119,0 0.07444,0.738766 0.192078,0.738766 0.122021,0 0.07211,-0.426446 0.201126,-0.426446 0.129318,0 0.08321,0.460537 0.182447,0.466027 0.08785,0.0049 0.07648,-0.290365 0.15763,-0.290365 0.08261,0 0.04787,0.328213 0.161422,0.327924 0.109467,-2.65e-4 0.07591,-0.181729 0.15413,-0.181729 0.07648,0 0.07883,0.213221 0.169306,0.213221 0.06451,-9.66e-4 0.133112,-0.09736 0.215141,-0.09736 0.107714,0 0.140991,0.119324 0.41714,0.119324 h 0.11472 z"
     id="path5-7"
     style="fill:currentColor;fill-opacity:1;stroke-width:0.29039"
     class="ColorScheme-Text" />
  <path
     id="gradient-path1"
     style="opacity:0.3;baseline-shift:baseline;display:inline;overflow:visible;vector-effect:none;enable-background:accumulate;stop-color:#000000;stop-opacity:1;fill:url(#linearGradient4)"
     d="M 8.4453131 1.2753492 C 4.4913166 1.2753492 1.2794833 4.4784283 1.2794833 8.4236094 C 1.2794833 12.36879 4.4913166 15.572386 8.4453131 15.572386 C 12.39931 15.572386 15.611143 12.36879 15.611143 8.4236094 C 15.611143 4.4784283 12.39931 1.2753492 8.4453131 1.2753492 z " />
</svg>
