<?xml version='1.0' encoding='UTF-8'?>
<svg xmlns:inkscape="http://www.inkscape.org/namespaces/inkscape" xmlns:sodipodi="http://sodipodi.sourceforge.net/DTD/sodipodi-0.dtd" xmlns="http://www.w3.org/2000/svg" xmlns:svg="http://www.w3.org/2000/svg" xmlns:rdf="http://www.w3.org/1999/02/22-rdf-syntax-ns#" xmlns:cc="http://creativecommons.org/ns#" xmlns:dc="http://purl.org/dc/elements/1.1/" width="64" height="64" version="1.1" viewBox="0 0 16.933 16.933" id="svg7" sodipodi:docname="arduino-icon-small.svg" inkscape:version="1.4.2 (ebf0e940d0, 2025-05-08)">
  <sodipodi:namedview id="namedview7" pagecolor="#9c4444" bordercolor="#000000" borderopacity="0.25" inkscape:showpageshadow="2" inkscape:pageopacity="0.0" inkscape:pagecheckerboard="0" inkscape:deskcolor="#d1d1d1" inkscape:zoom="4.3531261" inkscape:cx="36.755195" inkscape:cy="26.073217" inkscape:window-width="1280" inkscape:window-height="669" inkscape:window-x="0" inkscape:window-y="0" inkscape:window-maximized="0" inkscape:current-layer="svg7" showgrid="false"/>
  <defs id="defs2">
    <filter style="color-interpolation-filters:sRGB;" inkscape:label="Blur" id="filter3" x="-0.10843471" y="-0.10870992" width="1.2168694" height="1.2174198">
      <feGaussianBlur stdDeviation="0.5 0.5" result="blur" id="feGaussianBlur3"/>
    </filter>
    <style id="current-color-scheme" type="text/css">.ColorScheme-Text {color:#d8dee9} .ColorScheme-Highlight {color:#3b4252}</style>
  <linearGradient id="linearGradient3" inkscape:collect="always">
      <stop style="stop-color:#000000;stop-opacity:1;" offset="0" id="stop3"/>
      <stop style="stop-color:#000000;stop-opacity:0;" offset="1" id="stop4"/>
    </linearGradient>
    <linearGradient xmlns:xlink="http://www.w3.org/1999/xlink" inkscape:collect="always" xlink:href="#linearGradient3" id="linearGradient4" x1="13.512321" y1="13.490874" x2="3.3783066" y2="3.3568602" gradientUnits="userSpaceOnUse"/>
  </defs>
  <metadata id="metadata2">
    <rdf:RDF>
      <cc:Work rdf:about="">
        <dc:format>image/svg+xml</dc:format>
        <dc:type rdf:resource="http://purl.org/dc/dcmitype/StillImage"/>
      </cc:Work>
    </rdf:RDF>
  </metadata>
  <ellipse style="opacity:1;fill:none;stroke:#000000;stroke-width:0.582072;stroke-dasharray:none;stroke-opacity:1;filter:url(#filter3)" id="path1-5" cx="8.4450111" cy="8.423522" rx="6.8752708" ry="6.8578653"/>
  <ellipse style="opacity:1;fill:none;stroke-width:0.58207188;stroke-opacity:1;stroke:currentColor;stroke-dasharray:none;fill-opacity:1" id="path1" cx="8.4450111" cy="8.423522" rx="6.8752708" ry="6.8578653" class="ColorScheme-Text"/>
  <ellipse style="fill:currentColor;stroke:none;stroke-width:0.285844;stroke-dasharray:none;stroke-opacity:1" id="path1-2" cx="8.4557552" cy="8.423522" rx="6.5738997" ry="6.5692253" class="ColorScheme-Highlight"/>
<path id="path3-5-5" style="fill:#000000;fill-opacity:1;opacity:0.3;stroke-linecap:round;stroke-linejoin:round;-inkscape-stroke:none" d="M 19.00131 16.998946 C 12.042983 16.998946 7.7207046 20.7582 5.8413062 24.360381 C 4.2872898 27.338913 4.0446601 30.271865 4.0074439 31.198386 L 4.0000193 31.198386 C 4.0000193 31.198386 3.9978095 31.255455 4.0000193 31.358014 C 3.997885 31.451227 4.0000193 31.49908 4.0000193 31.49908 L 4.0074439 31.49908 C 4.0416846 32.46953 4.2746774 35.635074 5.8413062 38.637779 C 7.7207047 42.239959 12.042984 45.999214 19.00131 45.999214 C 22.959639 45.999214 26.282321 44.057887 28.927925 41.607596 C 30.556939 40.098846 32.005183 38.373357 33.360378 36.596029 C 34.668571 38.349936 36.044156 40.054808 37.573806 41.551912 C 40.070838 43.995816 43.203814 45.999214 46.999265 45.999214 C 53.544713 45.999214 57.620562 42.122245 59.331432 38.544972 C 60.743204 35.593085 60.961596 32.715566 60.99453 31.799774 L 60.998242 31.799774 C 60.998242 31.799774 61.000074 31.748171 60.998242 31.647571 C 61.000153 31.552383 60.998242 31.49908 60.998242 31.49908 L 60.99453 31.49908 C 60.964361 30.539056 60.754997 27.433446 59.331432 24.4569 C 57.620562 20.879627 53.544713 16.998946 46.999265 16.998946 C 43.203814 16.998946 40.070838 19.006056 37.573806 21.44996 C 36.044181 22.947039 34.668552 24.651967 33.360378 26.405843 C 32.005202 24.628546 30.556913 22.903002 28.927925 21.394276 C 26.282321 18.943985 22.959639 16.998946 19.00131 16.998946 z M 19.00131 23.00169 C 21.042975 23.00169 22.84121 23.931113 24.851851 25.793318 C 26.447767 27.271414 28.049981 29.295441 29.670379 31.49908 C 28.049959 33.702753 26.447788 35.726726 24.851851 37.204842 C 22.84121 39.067047 21.042975 40.000183 19.00131 40.000183 C 13.959648 40.000183 12.281591 38.008813 11.160992 35.860999 C 10.208331 34.035065 10.03644 31.943506 10.006475 31.358014 C 10.036257 30.839098 10.20764 28.964422 11.160992 27.13716 C 12.281591 24.989345 13.959649 23.00169 19.00131 23.00169 z M 46.999265 23.00169 C 51.453806 23.00169 52.879811 24.871633 53.918939 27.044354 C 54.805177 28.897396 54.96713 31.047294 54.995498 31.640146 C 54.966948 32.170524 54.804503 34.10218 53.918939 35.953806 C 52.879811 38.126527 51.453806 40.000183 46.999265 40.000183 C 45.294721 40.000183 43.677888 39.129118 41.768674 37.260526 C 40.249908 35.774074 38.690322 33.727322 37.07265 31.49908 C 38.690298 29.270873 40.249928 27.224066 41.768674 25.737634 C 43.677888 23.869042 45.294721 23.00169 46.999265 23.00169 z M 46.50182 26.001205 A 1.5 1.5 0 0 0 44.99835 27.500963 L 44.99835 29.999322 L 42.474005 29.999322 A 1.5 1.5 0 0 0 40.974247 31.49908 A 1.5 1.5 0 0 0 42.474005 32.998838 L 44.99835 32.998838 L 44.99835 35.500909 A 1.5 1.5 0 0 0 46.50182 37.000667 A 1.5 1.5 0 0 0 48.001578 35.500909 L 48.001578 32.998838 L 50.499937 32.998838 A 1.5 1.5 0 0 0 51.999695 31.49908 A 1.5 1.5 0 0 0 50.499937 29.999322 L 48.001578 29.999322 L 48.001578 27.500963 A 1.5 1.5 0 0 0 46.50182 26.001205 z M 14.498324 29.999322 A 1.5 1.5 0 0 0 12.998566 31.49908 A 1.5 1.5 0 0 0 14.498324 32.998838 L 22.49827 32.998838 A 1.5 1.5 0 0 0 24.00174 31.49908 A 1.5 1.5 0 0 0 22.49827 29.999322 L 14.498324 29.999322 z " transform="matrix(0.13920159,0,0,0.13920159,3.9689238,4.7432233)"/>
  <path id="path3-5" style="fill:currentColor;fill-opacity:1;stroke-linecap:round;stroke-linejoin:round;-inkscape-stroke:none" class="ColorScheme-Text" d="M 19.00131 16.998946 C 12.042983 16.998946 7.7207046 20.7582 5.8413062 24.360381 C 4.2872898 27.338913 4.0446601 30.271865 4.0074439 31.198386 L 4.0000193 31.198386 C 4.0000193 31.198386 3.9978095 31.255454 4.0000193 31.358013 C 3.997885 31.451226 4.0000193 31.49908 4.0000193 31.49908 L 4.0074439 31.49908 C 4.0416846 32.46953 4.2746774 35.635073 5.8413062 38.637778 C 7.7207047 42.239958 12.042984 45.999214 19.00131 45.999214 C 22.959639 45.999214 26.282321 44.057887 28.927925 41.607596 C 30.556939 40.098845 32.005183 38.373356 33.360378 36.596029 C 34.668571 38.349935 36.044156 40.054808 37.573806 41.551912 C 40.070838 43.995816 43.203814 45.999214 46.999265 45.999214 C 53.544713 45.999214 57.620562 42.122245 59.331432 38.544972 C 60.743204 35.593084 60.961596 32.715566 60.99453 31.799774 L 60.998242 31.799774 C 60.998242 31.799774 61.000074 31.74817 60.998242 31.64757 C 61.000153 31.552383 60.998242 31.49908 60.998242 31.49908 L 60.99453 31.49908 C 60.964361 30.539055 60.754997 27.433446 59.331432 24.4569 C 57.620562 20.879627 53.544713 16.998946 46.999265 16.998946 C 43.203814 16.998946 40.070838 19.006056 37.573806 21.44996 C 36.044181 22.947039 34.668552 24.651966 33.360378 26.405843 C 32.005202 24.628546 30.556913 22.903002 28.927925 21.394275 C 26.282321 18.943984 22.959639 16.998946 19.00131 16.998946 z M 19.00131 23.001689 C 21.042975 23.001689 22.84121 23.931113 24.851851 25.793318 C 26.447767 27.271413 28.049981 29.295441 29.670379 31.49908 C 28.049959 33.702753 26.447788 35.726726 24.851851 37.204841 C 22.84121 39.067046 21.042975 40.000182 19.00131 40.000182 C 13.959648 40.000182 12.281591 38.008813 11.160992 35.860999 C 10.208331 34.035065 10.03644 31.943506 10.006475 31.358013 C 10.036257 30.839098 10.20764 28.964422 11.160992 27.13716 C 12.281591 24.989345 13.959649 23.001689 19.00131 23.001689 z M 46.999265 23.001689 C 51.453806 23.001689 52.879811 24.871632 53.918939 27.044353 C 54.805177 28.897396 54.96713 31.047294 54.995498 31.640146 C 54.966948 32.170523 54.804503 34.102179 53.918939 35.953806 C 52.879811 38.126527 51.453806 40.000182 46.999265 40.000182 C 45.294721 40.000182 43.677888 39.129118 41.768674 37.260526 C 40.249908 35.774074 38.690322 33.727321 37.07265 31.49908 C 38.690298 29.270873 40.249928 27.224066 41.768674 25.737634 C 43.677888 23.869042 45.294721 23.001689 46.999265 23.001689 z M 46.50182 26.001205 A 1.5 1.5 0 0 0 44.99835 27.500963 L 44.99835 29.999322 L 42.474005 29.999322 A 1.5 1.5 0 0 0 40.974247 31.49908 A 1.5 1.5 0 0 0 42.474005 32.998837 L 44.99835 32.998837 L 44.99835 35.500909 A 1.5 1.5 0 0 0 46.50182 37.000667 A 1.5 1.5 0 0 0 48.001578 35.500909 L 48.001578 32.998837 L 50.499937 32.998837 A 1.5 1.5 0 0 0 51.999695 31.49908 A 1.5 1.5 0 0 0 50.499937 29.999322 L 48.001578 29.999322 L 48.001578 27.500963 A 1.5 1.5 0 0 0 46.50182 26.001205 z M 14.498324 29.999322 A 1.5 1.5 0 0 0 12.998566 31.49908 A 1.5 1.5 0 0 0 14.498324 32.998837 L 22.49827 32.998837 A 1.5 1.5 0 0 0 24.00174 31.49908 A 1.5 1.5 0 0 0 22.49827 29.999322 L 14.498324 29.999322 z " transform="matrix(0.13920159,0,0,0.13920159,3.9689238,4.214067)"/>
<path id="gradient-path1" style="opacity:0.3;baseline-shift:baseline;display:inline;overflow:visible;vector-effect:none;enable-background:accumulate;stop-color:#000000;stop-opacity:1;fill:url(#linearGradient4)" d="M 8.4453131 1.2753492 C 4.4913166 1.2753492 1.2794833 4.4784283 1.2794833 8.4236094 C 1.2794833 12.36879 4.4913166 15.572386 8.4453131 15.572386 C 12.39931 15.572386 15.611143 12.36879 15.611143 8.4236094 C 15.611143 4.4784283 12.39931 1.2753492 8.4453131 1.2753492 z "/>
</svg>
