<?xml version="1.0" encoding="UTF-8" standalone="no"?>
<svg
   width="64"
   height="64"
   version="1.1"
   viewBox="0 0 16.933 16.933"
   id="svg7"
   sodipodi:docname="audacious.svg"
   inkscape:version="1.4.2 (ebf0e940d0, 2025-05-08)"
   xmlns:inkscape="http://www.inkscape.org/namespaces/inkscape"
   xmlns:sodipodi="http://sodipodi.sourceforge.net/DTD/sodipodi-0.dtd"
   xmlns:xlink="http://www.w3.org/1999/xlink"
   xmlns="http://www.w3.org/2000/svg"
   xmlns:svg="http://www.w3.org/2000/svg"
   xmlns:rdf="http://www.w3.org/1999/02/22-rdf-syntax-ns#"
   xmlns:cc="http://creativecommons.org/ns#"
   xmlns:dc="http://purl.org/dc/elements/1.1/">
  <sodipodi:namedview
     id="namedview7"
     pagecolor="#9c4444"
     bordercolor="#000000"
     borderopacity="0.25"
     inkscape:showpageshadow="2"
     inkscape:pageopacity="0.0"
     inkscape:pagecheckerboard="0"
     inkscape:deskcolor="#d1d1d1"
     inkscape:zoom="4.3531261"
     inkscape:cx="36.755195"
     inkscape:cy="26.188077"
     inkscape:window-width="2560"
     inkscape:window-height="1388"
     inkscape:window-x="0"
     inkscape:window-y="0"
     inkscape:window-maximized="1"
     inkscape:current-layer="svg7"
     showgrid="false" />
  <defs
     id="defs2">
    <filter
       style="color-interpolation-filters:sRGB;"
       inkscape:label="Blur"
       id="filter3"
       x="-0.10843471"
       y="-0.10870992"
       width="1.2168694"
       height="1.2174198">
      <feGaussianBlur
         stdDeviation="0.5 0.5"
         result="blur"
         id="feGaussianBlur3" />
    </filter>
    <filter
       style="color-interpolation-filters:sRGB"
       inkscape:label="Blur"
       id="filter3-8"
       x="-0.10843471"
       y="-0.10870992"
       width="1.2168694"
       height="1.2174198">
      <feGaussianBlur
         stdDeviation="0.5 0.5"
         result="blur"
         id="feGaussianBlur3-7" />
    </filter>
    <style
       id="current-color-scheme"
       type="text/css">.ColorScheme-Text {color:#d8dee9} .ColorScheme-Highlight {color:#3b4252}</style>
    <linearGradient
       id="linearGradient3"
       inkscape:collect="always">
      <stop
         style="stop-color:#000000;stop-opacity:1;"
         offset="0"
         id="stop3" />
      <stop
         style="stop-color:#000000;stop-opacity:0;"
         offset="1"
         id="stop4" />
    </linearGradient>
    <linearGradient
       inkscape:collect="always"
       xlink:href="#linearGradient3"
       id="linearGradient4"
       x1="13.512321"
       y1="13.490874"
       x2="3.3783066"
       y2="3.3568602"
       gradientUnits="userSpaceOnUse" />
  </defs>
  <metadata
     id="metadata2">
    <rdf:RDF>
      <cc:Work
         rdf:about="">
        <dc:format>image/svg+xml</dc:format>
        <dc:type
           rdf:resource="http://purl.org/dc/dcmitype/StillImage" />
      </cc:Work>
    </rdf:RDF>
  </metadata>
  <ellipse
     style="opacity:1;fill:none;stroke:#000000;stroke-width:0.582072;stroke-dasharray:none;stroke-opacity:1;filter:url(#filter3)"
     id="path1-5"
     cx="8.4450111"
     cy="8.423522"
     rx="6.8752708"
     ry="6.8578653" />
  <ellipse
     style="opacity:1;fill:none;stroke-width:0.58207188;stroke-opacity:1;stroke:currentColor;stroke-dasharray:none;fill-opacity:1"
     id="path1"
     cx="8.4450111"
     cy="8.423522"
     rx="6.8752708"
     ry="6.8578653"
     class="ColorScheme-Text" />
  <ellipse
     style="fill:currentColor;stroke:none;stroke-width:0.285844;stroke-dasharray:none;stroke-opacity:1"
     id="path1-2"
     cx="8.4557552"
     cy="8.423522"
     rx="6.5738997"
     ry="6.5692253"
     class="ColorScheme-Highlight" />
  <path
     id="path9"
     style="baseline-shift:baseline;display:inline;overflow:visible;opacity:0.3;vector-effect:none;fill:#000000;fill-opacity:1;stroke-width:0.293976;enable-background:accumulate;stop-color:#000000"
     d="m 8.4664991,5.0269844 c -2.187523,0 -3.968671,1.725193 -3.968671,3.9689814 v 0.1469649 h 0.294007 V 10.68893 h 0.01783 c -0.01034,0.06938 -0.01783,0.139893 -0.01783,0.211921 0,0.896366 0.838717,1.622427 1.764121,1.622427 v -1.053481 c -0.02912,-0.142598 -0.04088,-0.29405 -0.03418,-0.452057 0.0053,-0.125044 0.01412,-0.210056 0.03418,-0.289821 V 9.2779585 c -0.574703,0 -0.848629,0.221777 -1.176107,0.6489401 V 9.1429308 h 0.196419 V 8.9959659 c 0,-1.6444835 1.288216,-2.8709305 2.890231,-2.8709305 1.6020139,0 2.8902309,1.226447 2.8902309,2.8709304 v 0.1469649 h 0.196419 V 9.9268986 C 11.225671,9.4997354 10.952288,9.2779585 10.377585,9.2779585 v 0.3194314 c 0.03099,0.1430729 0.03587,0.2834112 0.03511,0.6729691 -6.79e-4,0.359425 -0.007,0.52068 -0.03511,0.683201 v 0.604524 c 0.0334,0.123766 0.03928,0.25463 0,0.375009 v 0.590185 c 0.925405,0 1.763578,-0.726061 1.763578,-1.622427 0,-0.07203 -0.0076,-0.142541 -0.01783,-0.211921 h 0.01783 V 9.1429307 h 0.294008 V 8.9959658 c 0,-2.2437884 -1.781148,-3.9689814 -3.9686719,-3.9689814 z m 0,1.392058 c -0.897867,0 -1.69723,0.385474 -2.226409,1.013639 l 0.287186,0.240058 c 0.512382,-0.537115 1.210481,-0.839825 1.939223,-0.840707 0.729035,5.659e-4 1.42771,0.302756 1.9403859,0.840164 L 10.692908,7.4326813 C 10.163732,6.8044143 9.3644441,6.4190424 8.4664991,6.4190424 Z m 0.04697,1.981313 c -0.801187,5.4e-4 -1.279196,0.1421056 -1.394072,0.4131448 -0.08308,0.196016 -0.03369,0.5006654 0.100689,0.6222752 0.07503,0.067901 0.308359,0.075519 0.775518,0.024804 0.419315,-0.045521 0.537833,-0.035321 0.636383,0.05387 0.100147,0.090631 0.02982,0.2386817 -0.148593,0.3132305 -0.04713,0.019692 -0.23305,0.054311 -0.413145,0.076505 -0.357379,0.044049 -0.46516,0.074556 -0.69816,0.1987441 -0.223401,0.119072 -0.404099,0.304227 -0.502208,0.513756 -0.06927,0.147935 -0.08475,0.214977 -0.09309,0.411905 -0.02677,0.631937 0.282287,1.117979 0.825746,1.29819 0.198177,0.06573 0.581265,0.053 0.788386,-0.02604 0.07783,-0.0297 0.206558,-0.09738 0.285559,-0.149833 0.178492,-0.118516 0.279088,-0.113043 0.459265,0.02449 0.142241,0.108579 0.299011,0.158494 0.417252,0.132857 0.102861,-0.0223 0.4910919,-0.298713 0.5536769,-0.394309 0.06179,-0.09437 0.05822,-0.232866 -0.0098,-0.386558 -0.06938,-0.156968 -0.06911,-0.182377 0.0022,-0.48717 0.04923,-0.21046 0.05783,-0.325289 0.05868,-0.770558 9.06e-4,-0.4701953 -0.0047,-0.5438775 -0.05899,-0.731956 C 10.017966,9.2574153 9.8851591,9.0206672 9.7056971,8.8364417 9.4064431,8.5292461 9.0528981,8.4000103 8.5134681,8.4003523 Z m -1.656609,0.88923 v 0.8955866 c 0.112021,-0.12316 0.247345,-0.2285485 0.395317,-0.3074168 0.07101,-0.037851 0.132657,-0.06829 0.192697,-0.093559 v -0.036589 c -0.162716,-0.00817 -0.305756,-0.041253 -0.396014,-0.122936 -0.09333,-0.084466 -0.156936,-0.2042694 -0.192,-0.3350892 z m 1.697077,1.3340006 c 0.05147,8.49e-4 0.103392,0.01264 0.15239,0.03798 0.174568,0.09027 0.240192,0.315891 0.141074,0.483682 -0.07782,0.131743 -0.263392,0.201255 -0.417253,0.156111 -0.109252,-0.03205 -0.21306,-0.140656 -0.248972,-0.260522 -0.06476,-0.216156 0.149741,-0.42079 0.372761,-0.417252 z m -1.697072,1.49453 v 0.640646 c 0,0.114008 0.13115,0.205565 0.294007,0.205565 0.162856,0 0.294007,-0.09156 0.294007,-0.205565 v -0.217967 c -0.239592,-0.0934 -0.437547,-0.238342 -0.588014,-0.422679 z m 3.2192739,0.167119 c -0.1624789,0.125855 -0.3604689,0.24875 -0.4691099,0.272303 -0.03945,0.0085 -0.07919,0.01263 -0.118905,0.01271 v 0.188512 c 0,0.114008 0.131151,0.205565 0.294008,0.205565 0.162857,0 0.2940069,-0.09156 0.2940069,-0.205565 z" />
  <path
     id="path9-7"
     style="baseline-shift:baseline;display:inline;overflow:visible;vector-effect:none;fill:currentColor;fill-opacity:1;stroke-width:0.293976;enable-background:accumulate;stop-color:#000000"
     class="ColorScheme-Text"
     d="m 8.4664995,4.4978282 c -2.187523,0 -3.968671,1.725193 -3.968671,3.9689814 v 0.1469649 h 0.294007 v 1.5459995 h 0.01783 c -0.01034,0.06938 -0.01783,0.139893 -0.01783,0.211921 0,0.896366 0.838717,1.622427 1.764121,1.622427 v -1.053481 c -0.02912,-0.142598 -0.04088,-0.29405 -0.03418,-0.452057 0.0053,-0.125044 0.01412,-0.210056 0.03418,-0.289821 V 8.7488023 c -0.574703,0 -0.848629,0.221777 -1.176107,0.6489401 V 8.6137746 h 0.196419 V 8.4668097 c 0,-1.6444835 1.288216,-2.8709305 2.890231,-2.8709305 1.6020135,0 2.8902305,1.226447 2.8902305,2.8709304 v 0.1469649 h 0.196419 V 9.3977424 C 11.225671,8.9705792 10.952288,8.7488023 10.377585,8.7488023 v 0.3194314 c 0.03099,0.1430729 0.03587,0.2834112 0.03511,0.6729691 -6.79e-4,0.3594252 -0.007,0.5206802 -0.03511,0.6832012 v 0.604524 c 0.0334,0.123766 0.03928,0.25463 0,0.375009 v 0.590185 c 0.925405,0 1.763578,-0.726061 1.763578,-1.622427 0,-0.07203 -0.0076,-0.142541 -0.01783,-0.211921 h 0.01783 V 8.6137745 h 0.294008 V 8.4668096 c 0,-2.2437884 -1.781148,-3.9689814 -3.9686715,-3.9689814 z m 0,1.392058 c -0.897867,0 -1.69723,0.385474 -2.226409,1.013639 l 0.287186,0.240058 c 0.512382,-0.537115 1.210481,-0.839825 1.939223,-0.840707 0.729035,5.66e-4 1.42771,0.302756 1.9403855,0.840164 l 0.286023,-0.239515 C 10.163732,6.2752582 9.3644445,5.8898862 8.4664995,5.8898862 Z m 0.04697,1.981313 c -0.801187,5.4e-4 -1.279196,0.1421056 -1.394072,0.4131448 -0.08308,0.196016 -0.03369,0.5006654 0.100689,0.6222752 0.07503,0.067901 0.308359,0.075519 0.775518,0.024804 0.419315,-0.045521 0.537833,-0.035321 0.636383,0.05387 0.100147,0.090631 0.02982,0.2386817 -0.148593,0.3132305 -0.04713,0.019692 -0.23305,0.054311 -0.413145,0.076505 -0.357379,0.044049 -0.46516,0.074556 -0.69816,0.1987437 -0.223401,0.1190723 -0.404099,0.3042277 -0.502208,0.5137566 -0.06927,0.147935 -0.08475,0.214977 -0.09309,0.411905 -0.02677,0.631937 0.282287,1.117979 0.825746,1.29819 0.198177,0.06573 0.581265,0.053 0.788386,-0.02604 0.07783,-0.0297 0.206558,-0.09738 0.285559,-0.149833 0.178492,-0.118516 0.279088,-0.113043 0.459265,0.02449 0.142241,0.108579 0.299011,0.158494 0.417252,0.132857 0.102861,-0.0223 0.4910915,-0.298713 0.5536765,-0.394309 0.06179,-0.09437 0.05822,-0.232866 -0.0098,-0.386558 -0.06938,-0.156968 -0.06911,-0.182377 0.0022,-0.48717 0.04923,-0.21046 0.05783,-0.325289 0.05868,-0.7705579 9.06e-4,-0.4701956 -0.0047,-0.5438778 -0.05899,-0.7319563 C 10.017966,8.7282591 9.8851595,8.491511 9.7056975,8.3072855 9.4064435,8.00009 9.0528985,7.8708542 8.5134685,7.8711962 Z m -1.656609,0.88923 V 9.6560158 C 6.9688815,9.5328562 7.1042055,9.4274673 7.2521775,9.348599 7.3231875,9.310748 7.3848345,9.280309 7.4448745,9.25504 V 9.218451 C 7.2821585,9.210281 7.1391185,9.177198 7.0488605,9.095515 6.9555305,9.011049 6.8919245,8.8912456 6.8568605,8.7604258 Z m 1.697077,1.3340008 c 0.05147,8.49e-4 0.103392,0.01264 0.15239,0.03798 0.174568,0.09027 0.240192,0.315891 0.141074,0.483682 -0.07782,0.131743 -0.263392,0.201255 -0.417253,0.156111 -0.109252,-0.03205 -0.21306,-0.140656 -0.248972,-0.260522 -0.06476,-0.216156 0.149741,-0.42079 0.372761,-0.417252 z m -1.697072,1.49453 v 0.640646 c 0,0.114008 0.13115,0.205565 0.294007,0.205565 0.162856,0 0.294007,-0.09156 0.294007,-0.205565 v -0.217967 c -0.239592,-0.0934 -0.437547,-0.238342 -0.588014,-0.422679 z m 3.2192725,0.167119 c -0.1624775,0.125855 -0.3604675,0.24875 -0.4691085,0.272303 -0.03945,0.0085 -0.07919,0.01263 -0.118905,0.01271 v 0.188512 c 0,0.114008 0.131151,0.205565 0.294008,0.205565 0.162857,0 0.2940055,-0.09156 0.2940055,-0.205565 z" />
  <path
     id="gradient-path1"
     style="opacity:0.3;baseline-shift:baseline;display:inline;overflow:visible;vector-effect:none;enable-background:accumulate;stop-color:#000000;stop-opacity:1;fill:url(#linearGradient4)"
     d="M 8.4453131 1.2753492 C 4.4913166 1.2753492 1.2794833 4.4784283 1.2794833 8.4236094 C 1.2794833 12.36879 4.4913166 15.572386 8.4453131 15.572386 C 12.39931 15.572386 15.611143 12.36879 15.611143 8.4236094 C 15.611143 4.4784283 12.39931 1.2753492 8.4453131 1.2753492 z " />
</svg>
