<?xml version='1.0' encoding='UTF-8'?>
<svg xmlns:inkscape="http://www.inkscape.org/namespaces/inkscape" xmlns:sodipodi="http://sodipodi.sourceforge.net/DTD/sodipodi-0.dtd" xmlns="http://www.w3.org/2000/svg" xmlns:svg="http://www.w3.org/2000/svg" xmlns:rdf="http://www.w3.org/1999/02/22-rdf-syntax-ns#" xmlns:cc="http://creativecommons.org/ns#" xmlns:dc="http://purl.org/dc/elements/1.1/" width="64" height="64" version="1.1" viewBox="0 0 16.933 16.933" id="svg7" sodipodi:docname="audacity.svg" inkscape:version="1.4.2 (ebf0e940d0, 2025-05-08)">
  <sodipodi:namedview id="namedview7" pagecolor="#9c4444" bordercolor="#000000" borderopacity="0.25" inkscape:showpageshadow="2" inkscape:pageopacity="0.0" inkscape:pagecheckerboard="0" inkscape:deskcolor="#d1d1d1" inkscape:zoom="4.3531261" inkscape:cx="39.741555" inkscape:cy="24.235457" inkscape:window-width="1280" inkscape:window-height="669" inkscape:window-x="0" inkscape:window-y="0" inkscape:window-maximized="0" inkscape:current-layer="svg7" showgrid="false"/>
  <defs id="defs2">
    <filter style="color-interpolation-filters:sRGB;" inkscape:label="Blur" id="filter3" x="-0.10843471" y="-0.10870992" width="1.2168694" height="1.2174198">
      <feGaussianBlur stdDeviation="0.5 0.5" result="blur" id="feGaussianBlur3"/>
    </filter>
    <filter style="color-interpolation-filters:sRGB" inkscape:label="Blur" id="filter3-8" x="-0.10843471" y="-0.10870992" width="1.2168694" height="1.2174198">
      <feGaussianBlur stdDeviation="0.5 0.5" result="blur" id="feGaussianBlur3-7"/>
    </filter>
    <style id="current-color-scheme" type="text/css">.ColorScheme-Text {color:#d8dee9} .ColorScheme-Highlight {color:#3b4252}</style>
  <linearGradient id="linearGradient3" inkscape:collect="always">
      <stop style="stop-color:#000000;stop-opacity:1;" offset="0" id="stop3"/>
      <stop style="stop-color:#000000;stop-opacity:0;" offset="1" id="stop4"/>
    </linearGradient>
    <linearGradient xmlns:xlink="http://www.w3.org/1999/xlink" inkscape:collect="always" xlink:href="#linearGradient3" id="linearGradient4" x1="13.512321" y1="13.490874" x2="3.3783066" y2="3.3568602" gradientUnits="userSpaceOnUse"/>
  </defs>
  <metadata id="metadata2">
    <rdf:RDF>
      <cc:Work rdf:about="">
        <dc:format>image/svg+xml</dc:format>
        <dc:type rdf:resource="http://purl.org/dc/dcmitype/StillImage"/>
      </cc:Work>
    </rdf:RDF>
  </metadata>
  <ellipse style="opacity:1;fill:none;stroke:#000000;stroke-width:0.582072;stroke-dasharray:none;stroke-opacity:1;filter:url(#filter3)" id="path1-5" cx="8.4450111" cy="8.423522" rx="6.8752708" ry="6.8578653"/>
  <ellipse style="opacity:1;fill:none;stroke-width:0.58207188;stroke-opacity:1;stroke:currentColor;stroke-dasharray:none;fill-opacity:1" id="path1" cx="8.4450111" cy="8.423522" rx="6.8752708" ry="6.8578653" class="ColorScheme-Text"/>
  <ellipse style="fill:currentColor;stroke:none;stroke-width:0.285844;stroke-dasharray:none;stroke-opacity:1" id="path1-2" cx="8.4557552" cy="8.423522" rx="6.5738997" ry="6.5692253" class="ColorScheme-Highlight"/>
<path id="path8-2-4" style="fill:#000000;fill-opacity:1;stroke:none;stroke-width:1.57081;stroke-dasharray:none;stroke-opacity:0.3;opacity:0.3" d="M 32.122658 10.995782 C 27.162757 10.995782 22.212763 12.658428 18.876076 15.450413 C 15.539386 18.2424 13.372146 22.239075 13.372146 26.683123 L 13.372146 28.289658 C 10.05922 30.091964 8.1875681 34.818466 8.1875681 40.359851 C 8.1875681 47.452707 11.947547 53.208872 16.790514 53.208872 L 16.790514 26.683123 C 16.790514 23.355134 18.395884 20.290674 21.150643 17.985675 C 23.905058 15.680315 27.794091 14.658551 32.122658 14.658551 C 36.451391 14.658551 40.34317 15.680719 43.097931 17.985675 C 45.85269 20.290635 47.45806 23.355134 47.45806 26.683123 L 47.45806 53.208872 C 52.301197 53.208872 56.057747 47.452707 56.057747 40.359851 C 56.057747 34.818099 54.274249 30.092242 50.961153 28.289658 L 50.961153 26.683123 C 50.961153 22.239075 48.793913 18.2424 45.457223 15.450413 C 42.120195 12.658243 37.082044 10.995782 32.122658 10.995782 z M 21.867555 23.838285 A 0.85488792 0.9179372 0 0 0 21.023554 24.594301 L 19.302965 34.862439 L 19.302965 28.325503 C 18.961059 27.917574 18.27604 27.507572 17.592152 27.507572 L 17.592152 27.51083 L 17.592152 53.208872 C 18.275962 53.208872 18.960982 52.799436 19.302965 51.983604 L 19.302965 43.879238 A 0.85488792 0.9179372 0 0 0 19.628834 43.27638 L 21.476512 32.265261 L 22.721332 52.351836 A 0.85488792 0.9179372 0 0 0 24.425628 52.358353 L 25.315251 38.997718 L 26.142959 50.52371 A 0.85488792 0.9179372 0 0 0 27.843996 50.536745 L 28.890036 38.166752 L 29.567843 43.243793 A 0.85488792 0.9179372 0 0 0 31.24607 43.312226 L 32.976435 34.956941 L 32.976435 48.620634 A 0.85488792 0.9179372 0 0 0 34.677472 48.760758 L 37.189923 31.209445 L 39.822946 52.413751 A 0.85488792 0.9179372 0 0 0 41.520724 52.374647 L 42.866564 36.485267 L 44.476357 41.572084 A 0.85531408 0.91839456 0 0 0 44.945609 42.119545 L 44.945609 51.983604 C 45.287592 52.799437 45.972612 53.208872 46.656422 53.208872 L 46.656422 27.51083 L 46.656422 27.507572 C 45.972534 27.507572 45.287513 27.917588 44.945609 28.325503 L 44.945609 37.34882 L 43.189174 31.802527 A 0.85488792 0.9179372 0 0 0 41.527241 32.014342 L 40.51053 44.045431 L 38.099098 24.633406 A 0.85488792 0.9179372 0 0 0 36.404578 24.617112 L 34.687248 36.615615 L 34.687248 26.591879 A 0.85488792 0.9179372 0 0 0 32.999246 26.393099 L 30.594331 38.000558 L 29.548291 30.134077 A 0.85488792 0.9179372 0 0 0 27.853772 30.179699 L 27.065168 39.483263 L 26.136441 26.520188 A 0.85488792 0.9179372 0 0 0 24.432145 26.526705 L 23.604438 38.961872 L 22.718074 24.695321 A 0.85488792 0.9179372 0 0 0 21.867555 23.838285 z " transform="matrix(0.15857719,0,0,0.15857719,3.3751631,3.8326139)"/>
  <path id="path8-2" style="fill:currentColor;fill-opacity:1;stroke:none;stroke-width:1.57081;stroke-dasharray:none;stroke-opacity:0.3" class="ColorScheme-Text" d="M 32.122658 10.995781 C 27.162757 10.995781 22.212763 12.658428 18.876076 15.450413 C 15.539386 18.2424 13.372146 22.239074 13.372146 26.683122 L 13.372146 28.289657 C 10.05922 30.091963 8.1875681 34.818466 8.1875681 40.359851 C 8.1875681 47.452707 11.947547 53.208872 16.790514 53.208872 L 16.790514 26.683122 C 16.790514 23.355133 18.395884 20.290674 21.150643 17.985675 C 23.905058 15.680315 27.794091 14.658551 32.122658 14.658551 C 36.451391 14.658551 40.34317 15.680719 43.097931 17.985675 C 45.85269 20.290635 47.45806 23.355133 47.45806 26.683122 L 47.45806 53.208872 C 52.301197 53.208872 56.057747 47.452707 56.057747 40.359851 C 56.057747 34.818099 54.274249 30.092241 50.961153 28.289657 L 50.961153 26.683122 C 50.961153 22.239074 48.793913 18.2424 45.457223 15.450413 C 42.120195 12.658243 37.082044 10.995781 32.122658 10.995781 z M 21.867555 23.838285 A 0.85488792 0.9179372 0 0 0 21.023554 24.594301 L 19.302965 34.862438 L 19.302965 28.325503 C 18.961059 27.917574 18.27604 27.507571 17.592152 27.507571 L 17.592152 27.51083 L 17.592152 53.208872 C 18.275962 53.208872 18.960982 52.799436 19.302965 51.983604 L 19.302965 43.879238 A 0.85488792 0.9179372 0 0 0 19.628834 43.27638 L 21.476512 32.265261 L 22.721332 52.351836 A 0.85488792 0.9179372 0 0 0 24.425628 52.358353 L 25.315251 38.997718 L 26.142959 50.52371 A 0.85488792 0.9179372 0 0 0 27.843996 50.536745 L 28.890036 38.166751 L 29.567843 43.243793 A 0.85488792 0.9179372 0 0 0 31.24607 43.312225 L 32.976435 34.95694 L 32.976435 48.620634 A 0.85488792 0.9179372 0 0 0 34.677472 48.760758 L 37.189923 31.209445 L 39.822946 52.413751 A 0.85488792 0.9179372 0 0 0 41.520724 52.374647 L 42.866564 36.485267 L 44.476357 41.572084 A 0.85531408 0.91839456 0 0 0 44.945609 42.119544 L 44.945609 51.983604 C 45.287592 52.799437 45.972612 53.208872 46.656422 53.208872 L 46.656422 27.51083 L 46.656422 27.507571 C 45.972534 27.507571 45.287513 27.917588 44.945609 28.325503 L 44.945609 37.34882 L 43.189174 31.802527 A 0.85488792 0.9179372 0 0 0 41.527241 32.014342 L 40.51053 44.045431 L 38.099098 24.633405 A 0.85488792 0.9179372 0 0 0 36.404578 24.617112 L 34.687248 36.615614 L 34.687248 26.591879 A 0.85488792 0.9179372 0 0 0 32.999246 26.393099 L 30.594331 38.000558 L 29.548291 30.134077 A 0.85488792 0.9179372 0 0 0 27.853772 30.179698 L 27.065168 39.483263 L 26.136441 26.520188 A 0.85488792 0.9179372 0 0 0 24.432145 26.526705 L 23.604438 38.961872 L 22.718074 24.695321 A 0.85488792 0.9179372 0 0 0 21.867555 23.838285 z " transform="matrix(0.15857719,0,0,0.15857719,3.3751631,3.3034576)"/>
<path id="gradient-path1" style="opacity:0.3;baseline-shift:baseline;display:inline;overflow:visible;vector-effect:none;enable-background:accumulate;stop-color:#000000;stop-opacity:1;fill:url(#linearGradient4)" d="M 8.4453131 1.2753492 C 4.4913166 1.2753492 1.2794833 4.4784283 1.2794833 8.4236094 C 1.2794833 12.36879 4.4913166 15.572386 8.4453131 15.572386 C 12.39931 15.572386 15.611143 12.36879 15.611143 8.4236094 C 15.611143 4.4784283 12.39931 1.2753492 8.4453131 1.2753492 z "/>
</svg>
