<?xml version='1.0' encoding='UTF-8'?>
<svg xmlns:inkscape="http://www.inkscape.org/namespaces/inkscape" xmlns:sodipodi="http://sodipodi.sourceforge.net/DTD/sodipodi-0.dtd" xmlns="http://www.w3.org/2000/svg" xmlns:svg="http://www.w3.org/2000/svg" xmlns:rdf="http://www.w3.org/1999/02/22-rdf-syntax-ns#" xmlns:cc="http://creativecommons.org/ns#" xmlns:dc="http://purl.org/dc/elements/1.1/" width="64" height="64" version="1.1" viewBox="0 0 16.933 16.933" id="svg7" sodipodi:docname="betterbird.svg" inkscape:version="1.4.2 (ebf0e940d0, 2025-05-08)">
  <sodipodi:namedview id="namedview7" pagecolor="#9c4444" bordercolor="#000000" borderopacity="0.25" inkscape:showpageshadow="2" inkscape:pageopacity="0.0" inkscape:pagecheckerboard="0" inkscape:deskcolor="#d1d1d1" inkscape:zoom="4.3531261" inkscape:cx="126.5757" inkscape:cy="90.050229" inkscape:window-width="2560" inkscape:window-height="1376" inkscape:window-x="0" inkscape:window-y="0" inkscape:window-maximized="1" inkscape:current-layer="svg7" showgrid="false"/>
  <defs id="defs2">
    <filter style="color-interpolation-filters:sRGB;" inkscape:label="Blur" id="filter3" x="-0.10843471" y="-0.10870992" width="1.2168694" height="1.2174198">
      <feGaussianBlur stdDeviation="0.5 0.5" result="blur" id="feGaussianBlur3"/>
    </filter>
    <style id="current-color-scheme" type="text/css">.ColorScheme-Text {color:#d8dee9} .ColorScheme-Highlight {color:#3b4252}</style>
  <linearGradient id="linearGradient3" inkscape:collect="always">
      <stop style="stop-color:#000000;stop-opacity:1;" offset="0" id="stop3"/>
      <stop style="stop-color:#000000;stop-opacity:0;" offset="1" id="stop4"/>
    </linearGradient>
    <linearGradient xmlns:xlink="http://www.w3.org/1999/xlink" inkscape:collect="always" xlink:href="#linearGradient3" id="linearGradient4" x1="13.512321" y1="13.490874" x2="3.3783066" y2="3.3568602" gradientUnits="userSpaceOnUse"/>
  </defs>
  <metadata id="metadata2">
    <rdf:RDF>
      <cc:Work rdf:about="">
        <dc:format>image/svg+xml</dc:format>
        <dc:type rdf:resource="http://purl.org/dc/dcmitype/StillImage"/>
      </cc:Work>
    </rdf:RDF>
  </metadata>
  <ellipse style="opacity:1;fill:none;stroke:#000000;stroke-width:0.582072;stroke-dasharray:none;stroke-opacity:1;filter:url(#filter3)" id="path1-5" cx="8.4450111" cy="8.423522" rx="6.8752708" ry="6.8578653"/>
  <ellipse style="opacity:1;fill:none;stroke-width:0.58207188;stroke-opacity:1;stroke:currentColor;stroke-dasharray:none;fill-opacity:1" id="path1" cx="8.4450111" cy="8.423522" rx="6.8752708" ry="6.8578653" class="ColorScheme-Text"/>
  <ellipse style="fill:currentColor;stroke:none;stroke-width:0.285844;stroke-dasharray:none;stroke-opacity:1" id="path1-2" cx="8.4557552" cy="8.423522" rx="6.5738997" ry="6.5692253" class="ColorScheme-Highlight"/>
<path d="m 8.4665033,5.0761959 c 0.335454,0 0.670552,0.0427 0.995061,0.12739 v 3.7e-4 c 0.8231367,0.21572 1.5411347,0.69243 2.0594667,1.33595 0.0058,0.51833 -0.06132,1.07314 -0.201128,1.66447 0.216096,-0.46466 0.373061,-0.92933 0.400436,-1.39399 0.255514,0.37925 0.446054,0.80522 0.556296,1.26294 -0.150017,0.41321 -0.363927,0.7625196 -0.622366,1.0673096 0.230698,-0.14454 0.461021,-0.37961 0.691719,-0.7052096 0.05771,0.4027596 0.05291,0.8120196 -0.01423,1.2133096 -0.2818,0.28362 -0.563243,0.4653905 -0.84467,0.6176105 0.228869,0.0168 0.474892,-0.0361 0.738808,-0.15842 -0.402256,1.361139 -1.539672,2.413109 -2.9161877,2.716069 -0.231063,-0.2431 -0.327792,-0.5216 -0.532203,-0.8764 -0.01131,0.21938 0.104026,0.56103 0.264273,0.92567 -0.380723,0.0559 -0.769474,0.0559 -1.150189,-3.5e-4 0.160239,-0.36466 0.275227,-0.70594 0.263907,-0.92532 -0.204411,0.35479 -0.300782,0.6333 -0.531837,0.87603 -1.375784,-0.30186 -2.514297,-1.3553 -2.916554,-2.715699 0.263916,0.12228 0.509939,0.1752 0.738808,0.15842 -0.281434,-0.15222 -0.562869,-0.3339905 -0.84467,-0.6176105 -0.06714,-0.40129 -0.07194,-0.81054 -0.01424,-1.2132996 0.230698,0.3255796 0.461395,0.5606596 0.691728,0.7051996 -0.258074,-0.30479 -0.472341,-0.6540996 -0.622367,-1.0672996 0.1106,-0.45773 0.30114,-0.88371 0.556296,-1.26295 0.02738,0.46466 0.184341,0.92932 0.400437,1.39399 -0.139812,-0.59133 -0.206971,-1.14615 -0.201129,-1.66447 0.423433,-0.52599 0.980451,-0.94028 1.618891,-1.19177 v -3.7e-4 c 0.455901,-0.17995 0.945761,-0.27157 1.435638,-0.27157 -1.427619,0 -2.585113,1.15746 -2.585113,2.58504 0,0.72929 0.302245,1.3881496 0.788456,1.8579196 -0.07994,-1.2184196 0.53148,-2.2054196 1.401697,-2.3897396 -0.302245,-0.0303 -0.551916,0.027 -0.777137,0.1668 0.123381,-0.18506 0.323778,-0.27084 0.466141,-0.33837 -0.278518,0.008 -0.501544,0.0774 -0.780062,0.27194 1.199838,-1.47685 3.9145317,0.18433 2.929327,1.18082 0.1138897,-0.40662 -0.350057,-0.6552 -0.844305,-0.65447 -1.553542,10e-4 -1.189249,1.9356796 0.175947,2.0466396 1.1790277,0.0956 1.8101537,-1.10673 1.8101537,-2.1415396 0,-1.42758 -1.1574947,-2.58504 -2.5851047,-2.58504 z m 0.283263,1.99335 c 0.304796,0.11461 0.582209,0.0318 0.451531,0.21061 -0.164262,-0.0493 -0.311728,-0.12411 -0.451531,-0.21061 z" id="path6" style="opacity:0.3;fill:#000000;fill-opacity:1;stroke-width:0.00850424"/>
  <path class="ColorScheme-Text" d="m 8.4665033,4.5470245 c 0.335454,0 0.670552,0.0427 0.995061,0.12739 v 3.7e-4 c 0.8231367,0.21572 1.5411347,0.69243 2.0594667,1.33595 0.0058,0.51833 -0.06132,1.07314 -0.201128,1.66447 0.216096,-0.46466 0.373061,-0.92933 0.400436,-1.39399 0.255514,0.37925 0.446054,0.80522 0.556296,1.26294 -0.150017,0.41321 -0.363927,0.7625196 -0.622366,1.0673096 0.230698,-0.14454 0.461021,-0.37961 0.691719,-0.7052096 0.05771,0.4027596 0.05291,0.8120196 -0.01423,1.2133096 -0.2818,0.28362 -0.563243,0.46539 -0.84467,0.61761 0.228869,0.0168 0.474892,-0.0361 0.738808,-0.15842 -0.402256,1.3611399 -1.539672,2.4131099 -2.9161877,2.7160699 -0.231063,-0.2431 -0.327792,-0.5216 -0.532203,-0.8764 -0.01131,0.21938 0.104026,0.56103 0.264273,0.92567 -0.380723,0.0559 -0.769474,0.0559 -1.150189,-3.5e-4 0.160239,-0.36466 0.275227,-0.70594 0.263907,-0.92532 -0.204411,0.35479 -0.300782,0.6333 -0.531837,0.87603 -1.375784,-0.30186 -2.514297,-1.3553 -2.916554,-2.7156999 0.263916,0.12228 0.509939,0.1752 0.738808,0.15842 -0.281434,-0.15222 -0.562869,-0.33399 -0.84467,-0.61761 -0.06714,-0.40129 -0.07194,-0.81054 -0.01424,-1.2132996 0.230698,0.3255796 0.461395,0.5606596 0.691728,0.7051996 -0.258074,-0.30479 -0.472341,-0.6540996 -0.622367,-1.0672996 0.1106,-0.45773 0.30114,-0.88371 0.556296,-1.26295 0.02738,0.46466 0.184341,0.92932 0.400437,1.39399 -0.139812,-0.59133 -0.206971,-1.14615 -0.201129,-1.66447 0.423433,-0.52599 0.980451,-0.94028 1.618891,-1.19177 v -3.7e-4 c 0.455901,-0.17995 0.945761,-0.27157 1.435638,-0.27157 -1.427619,0 -2.585113,1.15746 -2.585113,2.58504 0,0.72929 0.302245,1.3881496 0.788456,1.8579196 -0.07994,-1.2184196 0.53148,-2.2054196 1.401697,-2.3897396 -0.302245,-0.0303 -0.551916,0.027 -0.777137,0.1668 0.123381,-0.18506 0.323778,-0.27084 0.466141,-0.33837 -0.278518,0.008 -0.501544,0.0774 -0.780062,0.27194 1.199838,-1.47685 3.9145317,0.18433 2.929327,1.18082 0.1138897,-0.40662 -0.350057,-0.6552 -0.844305,-0.65447 -1.553542,10e-4 -1.189249,1.9356796 0.175947,2.0466396 1.1790277,0.0956 1.8101537,-1.10673 1.8101537,-2.1415396 0,-1.42758 -1.1574947,-2.58504 -2.5851047,-2.58504 z m 0.283263,1.99335 c 0.304796,0.11461 0.582209,0.0318 0.451531,0.21061 -0.164262,-0.0493 -0.311728,-0.12411 -0.451531,-0.21061 z" id="path6-6" style="fill:currentColor;fill-opacity:1;stroke-width:0.00850424"/>
<path id="gradient-path1" style="opacity:0.3;baseline-shift:baseline;display:inline;overflow:visible;vector-effect:none;enable-background:accumulate;stop-color:#000000;stop-opacity:1;fill:url(#linearGradient4)" d="M 8.4453131 1.2753492 C 4.4913166 1.2753492 1.2794833 4.4784283 1.2794833 8.4236094 C 1.2794833 12.36879 4.4913166 15.572386 8.4453131 15.572386 C 12.39931 15.572386 15.611143 12.36879 15.611143 8.4236094 C 15.611143 4.4784283 12.39931 1.2753492 8.4453131 1.2753492 z "/>
</svg>
