<?xml version='1.0' encoding='UTF-8'?>
<svg xmlns:inkscape="http://www.inkscape.org/namespaces/inkscape" xmlns:sodipodi="http://sodipodi.sourceforge.net/DTD/sodipodi-0.dtd" xmlns="http://www.w3.org/2000/svg" xmlns:svg="http://www.w3.org/2000/svg" xmlns:rdf="http://www.w3.org/1999/02/22-rdf-syntax-ns#" xmlns:cc="http://creativecommons.org/ns#" xmlns:dc="http://purl.org/dc/elements/1.1/" width="64" height="64" version="1.1" viewBox="0 0 16.933 16.933" id="svg7" sodipodi:docname="bluemail.svg" inkscape:version="1.4.2 (ebf0e940d0, 2025-05-08)">
  <sodipodi:namedview id="namedview7" pagecolor="#9c4444" bordercolor="#000000" borderopacity="0.25" inkscape:showpageshadow="2" inkscape:pageopacity="0.0" inkscape:pagecheckerboard="0" inkscape:deskcolor="#d1d1d1" inkscape:zoom="4.3531261" inkscape:cx="36.755195" inkscape:cy="53.754473" inkscape:window-width="2560" inkscape:window-height="1376" inkscape:window-x="0" inkscape:window-y="0" inkscape:window-maximized="1" inkscape:current-layer="svg7" showgrid="false"/>
  <defs id="defs2">
    <filter style="color-interpolation-filters:sRGB;" inkscape:label="Blur" id="filter3" x="-0.10843471" y="-0.10870992" width="1.2168694" height="1.2174198">
      <feGaussianBlur stdDeviation="0.5 0.5" result="blur" id="feGaussianBlur3"/>
    </filter>
    <style id="current-color-scheme" type="text/css">.ColorScheme-Text {color:#d8dee9} .ColorScheme-Highlight {color:#3b4252}</style>
  <linearGradient id="linearGradient3" inkscape:collect="always">
      <stop style="stop-color:#000000;stop-opacity:1;" offset="0" id="stop3"/>
      <stop style="stop-color:#000000;stop-opacity:0;" offset="1" id="stop4"/>
    </linearGradient>
    <linearGradient xmlns:xlink="http://www.w3.org/1999/xlink" inkscape:collect="always" xlink:href="#linearGradient3" id="linearGradient4" x1="13.512321" y1="13.490874" x2="3.3783066" y2="3.3568602" gradientUnits="userSpaceOnUse"/>
  </defs>
  <metadata id="metadata2">
    <rdf:RDF>
      <cc:Work rdf:about="">
        <dc:format>image/svg+xml</dc:format>
        <dc:type rdf:resource="http://purl.org/dc/dcmitype/StillImage"/>
      </cc:Work>
    </rdf:RDF>
  </metadata>
  <ellipse style="opacity:1;fill:none;stroke:#000000;stroke-width:0.582072;stroke-dasharray:none;stroke-opacity:1;filter:url(#filter3)" id="path1-5" cx="8.4450111" cy="8.423522" rx="6.8752708" ry="6.8578653"/>
  <ellipse style="opacity:1;fill:none;stroke-width:0.58207188;stroke-opacity:1;stroke:currentColor;stroke-dasharray:none;fill-opacity:1" id="path1" cx="8.4450111" cy="8.423522" rx="6.8752708" ry="6.8578653" class="ColorScheme-Text"/>
  <ellipse style="fill:currentColor;stroke:none;stroke-width:0.285844;stroke-dasharray:none;stroke-opacity:1" id="path1-2" cx="8.4557552" cy="8.423522" rx="6.5738997" ry="6.5692253" class="ColorScheme-Highlight"/>
<path style="opacity:0.3;fill:#000000;fill-opacity:1;stroke-width:0.489862" class="ColorScheme-Text" d="m 8.4205193,5.321816 c -0.235641,0.00711 -0.381747,0.1823268 -0.486035,0.2640663 l -0.773064,0.6113711 c 0.192853,-0.1291891 0.469405,-0.2473322 0.81516,-0.2860719 v 2.3498084 c 0,0.2705435 0.21932,0.4898623 0.489862,0.4898623 0.270545,0 0.489864,-0.2193191 0.489864,-0.4898623 0,-0.2705436 -0.219319,-0.4898623 -0.489864,-0.4898623 -0.06306,4.899e-4 -0.125437,0.013164 -0.183703,0.037313 V 6.8057544 c 0.06493,-0.00902 0.118143,-0.014071 0.183703,-0.014349 0.811632,0 1.469589,0.6579566 1.469589,1.4695871 0,0.8116301 -0.657957,1.4695871 -1.469589,1.4695871 -0.811629,0 -1.469586,-0.657957 -1.469586,-1.4695871 V 6.3273732 l -2.252218,1.7776644 1.327987,1.0878388 1.583441,1.2811046 c 0.243681,-0.121663 0.468765,-0.227556 0.733836,-0.254499 0.27754,-0.02821 0.575466,0.04227 0.924233,0.22484 0,0 10e-4,0 10e-4,0 L 10.80381,9.2397578 12.188245,8.1059943 8.9984003,5.5858823 C 8.8938843,5.504143 8.7480053,5.3289334 8.5123653,5.321816 c -0.01463,-4.71e-4 -0.03051,9.825e-4 -0.04593,0.00191 -0.01537,-9.191e-4 -0.03122,-0.00235 -0.04592,-0.00191 z m -3.872975,3.2673434 v 0.2468447 1.3844349 0.537701 1.336597 0.08515 c 0,0.0063 0.0017,0.01198 0.0018,0.01818 l 2.643647,-1.468634 -1.234224,-0.9988596 h -0.003 L 5.7548863,9.5660131 Z m 7.8377967,0 -1.239963,1.0036438 -0.168392,0.1377743 h -0.0018 L 9.7725343,10.703605 12.38545,12.183716 c 1.2e-5,-0.0013 0,-0.0025 0,-0.0038 V 12.094747 10.75815 10.22045 8.8360147 Z M 8.5697743,10.705518 c -0.04542,-0.0031 -0.08806,-0.0024 -0.130122,0.0019 -0.168282,0.01711 -0.346346,0.09592 -0.597976,0.221968 l -3.030066,1.682949 c 0.06775,0.03531 0.143824,0.05741 0.225796,0.05741 h 0.08324 6.6915957 0.08324 c 0.08733,0 0.168337,-0.02437 0.239192,-0.0641 L 9.0873823,10.878687 c -0.222674,-0.116639 -0.381355,-0.163863 -0.517608,-0.173175 z" id="path1-6"/>
  <path style="fill:currentColor;stroke-width:0.489862" class="ColorScheme-Text" d="m 8.4205193,4.7925815 c -0.235641,0.00711 -0.381746,0.1823268 -0.486035,0.2640663 l -0.773064,0.6113711 c 0.192853,-0.1291891 0.469405,-0.2473322 0.81516,-0.2860719 v 2.349808 c 0,0.270544 0.21932,0.489863 0.489862,0.489863 0.270545,0 0.489864,-0.219319 0.489864,-0.489863 0,-0.270543 -0.219319,-0.489862 -0.489864,-0.489862 -0.06306,4.9e-4 -0.125437,0.01316 -0.183703,0.03731 V 6.276517 c 0.06493,-0.009 0.118143,-0.01407 0.183703,-0.01435 0.811632,0 1.469589,0.657956 1.469589,1.469587 0,0.81163 -0.657957,1.469587 -1.469589,1.469587 -0.811629,0 -1.469586,-0.657957 -1.469586,-1.469587 V 5.7981387 l -2.252218,1.7776643 1.327987,1.087839 1.583441,1.281104 c 0.243681,-0.121662 0.468765,-0.227555 0.733836,-0.254498 0.27754,-0.02821 0.575466,0.04227 0.924233,0.224839 0,0 10e-4,0 10e-4,0 L 10.80381,8.710523 12.188246,7.57676 8.9984003,5.0566478 c -0.104516,-0.081739 -0.250395,-0.2569489 -0.486034,-0.2640663 -0.01463,-4.71e-4 -0.03051,9.825e-4 -0.04593,0.00191 -0.01537,-9.191e-4 -0.03122,-0.00235 -0.04592,-0.00191 z M 4.5475453,8.059925 v 0.246845 1.384434 0.537701 1.336597 0.08515 c 0,0.0063 0.0017,0.01198 0.0018,0.01818 l 2.643646,-1.468633 -1.234223,-0.99886 h -0.003 L 5.7548863,9.036776 Z m 7.8377957,0 -1.239962,1.003644 -0.168393,0.137774 h -0.0018 l -1.2026527,0.973027 2.6129157,1.480111 c 1.2e-5,-0.0013 0,-0.0025 0,-0.0038 V 11.565511 10.228915 9.691214 8.306779 Z m -3.8155667,2.116358 c -0.04542,-0.0031 -0.08806,-0.0024 -0.130122,0.0019 -0.168282,0.01711 -0.346346,0.09592 -0.597976,0.221969 L 4.8116103,12.0831 c 0.06775,0.03531 0.143824,0.05741 0.225796,0.05741 h 0.08324 6.6915957 0.08324 c 0.08733,0 0.168337,-0.02437 0.239192,-0.0641 L 9.0873823,10.349452 C 8.8647083,10.232814 8.7060273,10.18559 8.5697753,10.176278 Z" id="path1-6-5"/>
<path id="gradient-path1" style="opacity:0.3;baseline-shift:baseline;display:inline;overflow:visible;vector-effect:none;enable-background:accumulate;stop-color:#000000;stop-opacity:1;fill:url(#linearGradient4)" d="M 8.4453131 1.2753492 C 4.4913166 1.2753492 1.2794833 4.4784283 1.2794833 8.4236094 C 1.2794833 12.36879 4.4913166 15.572386 8.4453131 15.572386 C 12.39931 15.572386 15.611143 12.36879 15.611143 8.4236094 C 15.611143 4.4784283 12.39931 1.2753492 8.4453131 1.2753492 z "/>
</svg>
