<?xml version='1.0' encoding='UTF-8'?>
<svg xmlns:inkscape="http://www.inkscape.org/namespaces/inkscape" xmlns:sodipodi="http://sodipodi.sourceforge.net/DTD/sodipodi-0.dtd" xmlns="http://www.w3.org/2000/svg" xmlns:svg="http://www.w3.org/2000/svg" xmlns:rdf="http://www.w3.org/1999/02/22-rdf-syntax-ns#" xmlns:cc="http://creativecommons.org/ns#" xmlns:dc="http://purl.org/dc/elements/1.1/" width="64" height="64" version="1.1" viewBox="0 0 16.933 16.933" id="svg7" sodipodi:docname="btrfs-assistant.svg" inkscape:version="1.4.2 (ebf0e940d0, 2025-05-08)">
  <sodipodi:namedview id="namedview7" pagecolor="#9c4444" bordercolor="#000000" borderopacity="0.25" inkscape:showpageshadow="2" inkscape:pageopacity="0.0" inkscape:pagecheckerboard="0" inkscape:deskcolor="#d1d1d1" inkscape:zoom="4.3531261" inkscape:cx="36.755195" inkscape:cy="26.188077" inkscape:window-width="2560" inkscape:window-height="1376" inkscape:window-x="0" inkscape:window-y="0" inkscape:window-maximized="1" inkscape:current-layer="svg7" showgrid="false"/>
  <defs id="defs2">
    <filter style="color-interpolation-filters:sRGB;" inkscape:label="Blur" id="filter3" x="-0.10843471" y="-0.10870992" width="1.2168694" height="1.2174198">
      <feGaussianBlur stdDeviation="0.5 0.5" result="blur" id="feGaussianBlur3"/>
    </filter>
    <style id="current-color-scheme" type="text/css">.ColorScheme-Text {color:#d8dee9} .ColorScheme-Highlight {color:#3b4252}</style>
    <linearGradient id="linearGradient3" inkscape:collect="always">
      <stop style="stop-color:#000000;stop-opacity:1;" offset="0" id="stop3"/>
      <stop style="stop-color:#000000;stop-opacity:0;" offset="1" id="stop4"/>
    </linearGradient>
    <linearGradient xmlns:xlink="http://www.w3.org/1999/xlink" inkscape:collect="always" xlink:href="#linearGradient3" id="linearGradient4" x1="13.512321" y1="13.490874" x2="3.3783066" y2="3.3568602" gradientUnits="userSpaceOnUse"/>
  </defs>
  <metadata id="metadata2">
    <rdf:RDF>
      <cc:Work rdf:about="">
        <dc:format>image/svg+xml</dc:format>
        <dc:type rdf:resource="http://purl.org/dc/dcmitype/StillImage"/>
      </cc:Work>
    </rdf:RDF>
  </metadata>
  <ellipse style="opacity:1;fill:none;stroke:#000000;stroke-width:0.582072;stroke-dasharray:none;stroke-opacity:1;filter:url(#filter3)" id="path1-5" cx="8.4450111" cy="8.423522" rx="6.8752708" ry="6.8578653"/>
  <ellipse style="opacity:1;fill:none;stroke-width:0.58207188;stroke-opacity:1;stroke:currentColor;stroke-dasharray:none;fill-opacity:1" id="path1" cx="8.4450111" cy="8.423522" rx="6.8752708" ry="6.8578653" class="ColorScheme-Text"/>
  <ellipse style="fill:currentColor;stroke:none;stroke-width:0.285844;stroke-dasharray:none;stroke-opacity:1" id="path1-2" cx="8.4557552" cy="8.423522" rx="6.5738997" ry="6.5692253" class="ColorScheme-Highlight"/>
<path d="M 5.056413,8.3199785 4.833943,8.1256445 4.615896,7.9347275 c -0.0416,-0.03577 -0.06833,-0.09023 -0.06833,-0.144696 0,-0.03718 0.0058,-0.07396 0.02432,-0.106512 l 0.805269,-1.3943 c 0.04682,-0.07898 0.152131,-0.117766 0.23915,-0.08782 l 0.83662,0.282558 c 0.251609,-0.200966 0.538186,-0.364552 0.843051,-0.483524 l 0.169816,-0.860334 c 0.02191,-0.117163 0.13103,-0.163385 0.19554,-0.163385 h 1.610539 c 0.09184,0.0012 0.177855,0.07315 0.195138,0.163184 l 0.169816,0.860335 c 0.304865,0.118971 0.591442,0.282557 0.843051,0.483523 l 0.836821,-0.282558 c 0.08682,-0.02995 0.192324,0.0088 0.238949,0.08782 l 0.805269,1.3943 c 0.01849,0.03296 0.02432,0.06913 0.02432,0.106713 0,0.05426 -0.02693,0.109124 -0.06833,0.144494 L 11.6501,8.5185325 c 0.02352,0.156552 0.03778,0.314109 0.03778,0.477293 0,0.163185 -0.01427,0.320742 -0.03778,0.477294 l 0.666604,0.5840065 c 0.04221,0.03617 0.06873,0.08782 0.06873,0.144294 0,0.03657 -0.0064,0.07496 -0.02452,0.106913 l -0.80527,1.3941 c -0.04682,0.07898 -0.152131,0.117765 -0.23915,0.08782 l -0.836821,-0.282558 c -0.251408,0.200965 -0.538186,0.364552 -0.843051,0.483523 l -0.169816,0.860334 c -0.01708,0.09003 -0.103095,0.161979 -0.194937,0.163185 H 7.66133 C 7.56949,13.013537 7.483676,12.941587 7.466393,12.851552 L 7.296577,11.991218 C 6.991712,11.872247 6.704934,11.70866 6.453526,11.507695 l -0.836821,0.282558 c -0.08702,0.02994 -0.192526,-0.0088 -0.23915,-0.08782 l -0.805269,-1.3941 c -0.01829,-0.03236 -0.02431,-0.06994 -0.02431,-0.106913 0,-0.05627 0.02652,-0.108522 0.06833,-0.144294 L 5.28311,9.4731195 C 5.25959,9.3165675 5.24533,9.1590105 5.24533,8.9958255 c 0,-0.163184 0.01427,-0.320741 0.03778,-0.477293 z M 8.4666,6.5840365 c -1.205794,0 -2.411589,1.004829 -2.411589,2.411588 0,1.4067615 1.205795,2.4115895 2.411589,2.4115895 1.205794,0 2.411588,-1.004828 2.411588,-2.4115895 0,-1.406759 -1.205794,-2.411588 -2.411588,-2.411588 z m -0.803863,0.803863 c 0.401931,0 0.401931,0.401931 0.401931,0.401931 v 0.602897 c 0,0.106713 -0.100483,0.200966 -0.100483,0.200966 0,0 0.100483,0.09566 0.100483,0.200966 v 0.401931 c 0,0 0,0.200966 0.200966,0.200966 h 0.401931 c 0.200966,0 0.200966,-0.200966 0.200966,-0.200966 v -0.602897 c 0,0 0,-0.401932 0.401932,-0.401932 h 0.401931 c 0.401931,0 0.401931,0.401932 0.401931,0.401932 v 0.602897 c 0,0.103296 -0.100483,0.200966 -0.100483,0.200966 0,0 0.100483,0.09224 0.100483,0.200966 V 10.20142 c 0,0 0,0.401931 -0.401931,0.401931 H 9.270463 c -0.402133,0 -0.401932,-0.401931 -0.401932,-0.401931 v -0.200966 c 0,-0.2009665 -0.200966,-0.2009665 -0.200966,-0.2009665 H 7.260806 c -0.401932,0 -0.401932,-0.401931 -0.401932,-0.401931 v -0.602897 c 0,-0.08019 0.100483,-0.200966 0.100483,-0.200966 0,0 -0.100483,-0.09586 -0.100483,-0.200966 v -0.602897 c 0,0 0,-0.401931 0.401932,-0.401931 z m 0,1.607725 c 0,0 0,-0.200965 -0.200966,-0.200965 -0.200965,0 -0.200965,0.200965 -0.200965,0.200965 v 0.200966 c 0,0 0,0.200966 0.200965,0.200966 0.200966,0 0.200966,-0.200966 0.200966,-0.200966 z M 7.461771,7.7898305 c -0.200965,0 -0.200965,0.200965 -0.200965,0.200965 v 0.200966 c 0,0 0,0.200966 0.200965,0.200966 0.200966,0 0.200966,-0.200966 0.200966,-0.200966 v -0.200966 c 0,0 0,-0.200965 -0.200966,-0.200965 z m 2.210623,2.009657 c 0,0 0,-0.200965 -0.200966,-0.200965 -0.200965,0 -0.200965,0.200965 -0.200965,0.200965 v 0.2009665 c 0,0 0,0.200966 0.200965,0.200966 0.200966,0 0.200966,-0.200966 0.200966,-0.200966 z M 9.471428,8.5936935 c -0.200965,0 -0.200965,0.200966 -0.200965,0.200966 v 0.200965 c 0,0 0,0.200966 0.200965,0.200966 0.200966,0 0.200966,-0.200966 0.200966,-0.200966 v -0.200965 c 0,0 0,-0.200966 -0.200966,-0.200966 z" fill="url(#a)" id="path2" style="opacity:0.3;fill:#000000;fill-opacity:1;stroke-width:0.200966"/>
  <path d="M 5.056413,7.7907529 4.833943,7.5964189 4.615896,7.4055019 c -0.0416,-0.03577 -0.06833,-0.09023 -0.06833,-0.144696 0,-0.03718 0.0058,-0.07396 0.02432,-0.106512 L 5.377155,5.7599941 c 0.04682,-0.07898 0.152131,-0.117766 0.23915,-0.08782 l 0.83662,0.282558 c 0.251609,-0.200966 0.538186,-0.364552 0.843051,-0.483524 l 0.169816,-0.860334 c 0.02191,-0.117163 0.13103,-0.163385 0.19554,-0.163385 h 1.610539 c 0.09184,0.0012 0.177855,0.07315 0.195138,0.163184 l 0.169816,0.860335 c 0.304865,0.118971 0.591442,0.282557 0.843051,0.483523 l 0.836821,-0.282558 c 0.08682,-0.02995 0.192324,0.0088 0.238949,0.08782 l 0.805269,1.3942998 c 0.01849,0.03296 0.02432,0.06913 0.02432,0.106713 0,0.05426 -0.02693,0.109124 -0.06833,0.144494 L 11.6501,7.9893069 c 0.02352,0.156552 0.03778,0.314109 0.03778,0.477293 0,0.163185 -0.01427,0.320742 -0.03778,0.477294 l 0.666604,0.584006 c 0.04221,0.03617 0.06873,0.08782 0.06873,0.144294 0,0.03657 -0.0064,0.07496 -0.02452,0.106913 l -0.80527,1.3941001 c -0.04682,0.07898 -0.152131,0.117765 -0.23915,0.08782 l -0.836821,-0.282558 c -0.251408,0.200965 -0.538186,0.364552 -0.843051,0.483523 l -0.169816,0.860334 c -0.01708,0.09003 -0.103095,0.161979 -0.194937,0.163185 H 7.66133 C 7.56949,12.484311 7.483676,12.412361 7.466393,12.322326 L 7.296577,11.461992 C 6.991712,11.343021 6.704934,11.179434 6.453526,10.978469 l -0.836821,0.282558 c -0.08702,0.02994 -0.192526,-0.0088 -0.23915,-0.08782 L 4.572286,9.7791069 c -0.01829,-0.03236 -0.02431,-0.06994 -0.02431,-0.106913 0,-0.05627 0.02652,-0.108522 0.06833,-0.144294 L 5.28311,8.9438939 C 5.25959,8.7873419 5.24533,8.6297849 5.24533,8.4665999 c 0,-0.163184 0.01427,-0.320741 0.03778,-0.477293 z M 8.4666,6.0548111 c -1.205794,0 -2.411589,1.0048288 -2.411589,2.4115878 0,1.406761 1.205795,2.4115891 2.411589,2.4115891 1.205794,0 2.411588,-1.0048281 2.411588,-2.4115891 0,-1.406759 -1.205794,-2.4115878 -2.411588,-2.4115878 z M 7.662737,6.8586739 c 0.401931,0 0.401931,0.401931 0.401931,0.401931 v 0.602897 c 0,0.106713 -0.100483,0.200966 -0.100483,0.200966 0,0 0.100483,0.09566 0.100483,0.200966 v 0.401931 c 0,0 0,0.200966 0.200966,0.200966 h 0.401931 c 0.200966,0 0.200966,-0.200966 0.200966,-0.200966 v -0.602897 c 0,0 0,-0.401932 0.401932,-0.401932 h 0.401931 c 0.401931,0 0.401931,0.401932 0.401931,0.401932 v 0.602897 c 0,0.103296 -0.100483,0.200966 -0.100483,0.200966 0,0 0.100483,0.09224 0.100483,0.200966 v 0.602897 c 0,0 0,0.4019311 -0.401931,0.4019311 H 9.270463 c -0.402133,0 -0.401932,-0.4019311 -0.401932,-0.4019311 v -0.200966 c 0,-0.200966 -0.200966,-0.200966 -0.200966,-0.200966 H 7.260806 c -0.401932,0 -0.401932,-0.401931 -0.401932,-0.401931 v -0.602897 c 0,-0.08019 0.100483,-0.200966 0.100483,-0.200966 0,0 -0.100483,-0.09586 -0.100483,-0.200966 v -0.602897 c 0,0 0,-0.401931 0.401932,-0.401931 z m 0,1.607725 c 0,0 0,-0.200965 -0.200966,-0.200965 -0.200965,0 -0.200965,0.200965 -0.200965,0.200965 v 0.200966 c 0,0 0,0.200966 0.200965,0.200966 0.200966,0 0.200966,-0.200966 0.200966,-0.200966 z M 7.461771,7.2606049 c -0.200965,0 -0.200965,0.200965 -0.200965,0.200965 v 0.200966 c 0,0 0,0.200966 0.200965,0.200966 0.200966,0 0.200966,-0.200966 0.200966,-0.200966 v -0.200966 c 0,0 0,-0.200965 -0.200966,-0.200965 z m 2.210623,2.009657 c 0,0 0,-0.200965 -0.200966,-0.200965 -0.200965,0 -0.200965,0.200965 -0.200965,0.200965 v 0.200966 c 0,0 0,0.200966 0.200965,0.200966 0.200966,0 0.200966,-0.200966 0.200966,-0.200966 z M 9.471428,8.0644679 c -0.200965,0 -0.200965,0.200966 -0.200965,0.200966 v 0.200965 c 0,0 0,0.200966 0.200965,0.200966 0.200966,0 0.200966,-0.200966 0.200966,-0.200966 v -0.200965 c 0,0 0,-0.200966 -0.200966,-0.200966 z" fill="url(#a)" id="path2-6" style="fill:currentColor;fill-opacity:1;stroke-width:0.200966" class="ColorScheme-Text"/>
<path id="gradient-path1" style="opacity:0.3;baseline-shift:baseline;display:inline;overflow:visible;vector-effect:none;enable-background:accumulate;stop-color:#000000;stop-opacity:1;fill:url(#linearGradient4)" d="M 8.4453131 1.2753492 C 4.4913166 1.2753492 1.2794833 4.4784283 1.2794833 8.4236094 C 1.2794833 12.36879 4.4913166 15.572386 8.4453131 15.572386 C 12.39931 15.572386 15.611143 12.36879 15.611143 8.4236094 C 15.611143 4.4784283 12.39931 1.2753492 8.4453131 1.2753492 z "/>
</svg>
