<?xml version="1.0" encoding="UTF-8" standalone="no"?>
<svg
   width="64"
   height="64"
   version="1.1"
   viewBox="0 0 16.933 16.933"
   id="svg7"
   sodipodi:docname="calf_plugin.svg"
   inkscape:version="1.4.2 (ebf0e940d0, 2025-05-08)"
   xmlns:inkscape="http://www.inkscape.org/namespaces/inkscape"
   xmlns:sodipodi="http://sodipodi.sourceforge.net/DTD/sodipodi-0.dtd"
   xmlns:xlink="http://www.w3.org/1999/xlink"
   xmlns="http://www.w3.org/2000/svg"
   xmlns:svg="http://www.w3.org/2000/svg"
   xmlns:rdf="http://www.w3.org/1999/02/22-rdf-syntax-ns#"
   xmlns:cc="http://creativecommons.org/ns#"
   xmlns:dc="http://purl.org/dc/elements/1.1/">
  <sodipodi:namedview
     id="namedview7"
     pagecolor="#9c4444"
     bordercolor="#000000"
     borderopacity="0.25"
     inkscape:showpageshadow="2"
     inkscape:pageopacity="0.0"
     inkscape:pagecheckerboard="0"
     inkscape:deskcolor="#d1d1d1"
     inkscape:zoom="4.3531261"
     inkscape:cx="36.984915"
     inkscape:cy="26.188077"
     inkscape:window-width="2560"
     inkscape:window-height="1392"
     inkscape:window-x="0"
     inkscape:window-y="0"
     inkscape:window-maximized="1"
     inkscape:current-layer="svg7"
     showgrid="false" />
  <defs
     id="defs2">
    <filter
       style="color-interpolation-filters:sRGB;"
       inkscape:label="Blur"
       id="filter3"
       x="-0.10843471"
       y="-0.10870992"
       width="1.2168694"
       height="1.2174198">
      <feGaussianBlur
         stdDeviation="0.5 0.5"
         result="blur"
         id="feGaussianBlur3" />
    </filter>
    <filter
       style="color-interpolation-filters:sRGB"
       inkscape:label="Blur"
       id="filter3-8"
       x="-0.10843471"
       y="-0.10870992"
       width="1.2168694"
       height="1.2174198">
      <feGaussianBlur
         stdDeviation="0.5 0.5"
         result="blur"
         id="feGaussianBlur3-7" />
    </filter>
    <style
       id="current-color-scheme"
       type="text/css">.ColorScheme-Text {color:#d8dee9} .ColorScheme-Highlight {color:#3b4252}</style>
    <linearGradient
       id="linearGradient3"
       inkscape:collect="always">
      <stop
         style="stop-color:#000000;stop-opacity:1;"
         offset="0"
         id="stop3" />
      <stop
         style="stop-color:#000000;stop-opacity:0;"
         offset="1"
         id="stop4" />
    </linearGradient>
    <linearGradient
       inkscape:collect="always"
       xlink:href="#linearGradient3"
       id="linearGradient4"
       x1="13.512321"
       y1="13.490874"
       x2="3.3783066"
       y2="3.3568602"
       gradientUnits="userSpaceOnUse" />
  </defs>
  <metadata
     id="metadata2">
    <rdf:RDF>
      <cc:Work
         rdf:about="">
        <dc:format>image/svg+xml</dc:format>
        <dc:type
           rdf:resource="http://purl.org/dc/dcmitype/StillImage" />
      </cc:Work>
    </rdf:RDF>
  </metadata>
  <ellipse
     style="opacity:1;fill:none;stroke:#000000;stroke-width:0.582072;stroke-dasharray:none;stroke-opacity:1;filter:url(#filter3)"
     id="path1-5"
     cx="8.4450111"
     cy="8.423522"
     rx="6.8752708"
     ry="6.8578653" />
  <ellipse
     style="opacity:1;fill:none;stroke-width:0.58207188;stroke-opacity:1;stroke:currentColor;stroke-dasharray:none;fill-opacity:1"
     id="path1"
     cx="8.4450111"
     cy="8.423522"
     rx="6.8752708"
     ry="6.8578653"
     class="ColorScheme-Text" />
  <ellipse
     style="fill:currentColor;stroke:none;stroke-width:0.285844;stroke-dasharray:none;stroke-opacity:1"
     id="path1-2"
     cx="8.4557552"
     cy="8.423522"
     rx="6.5738997"
     ry="6.5692253"
     class="ColorScheme-Highlight" />
  <path
     id="path5"
     style="baseline-shift:baseline;display:inline;overflow:visible;opacity:0.3;vector-effect:none;fill:#000000;fill-opacity:1;stroke-width:0.029735;marker:none;enable-background:accumulate;stop-color:#000000"
     d="m 7.913583,5.1592734 -0.03043,0.060807 H 5.401787 c -0.410924,0 -0.741228,0.3303034 -0.741228,0.7412265 v 3.491603 c 1.75e-4,4.77e-5 3.48e-4,6.95e-5 5.23e-4,1.158e-4 v 2.6016433 c 0,0.429737 0.347029,0.776768 0.77677,0.776768 h 1.182084 c -4.2e-5,1.45e-4 -7.4e-5,2.89e-4 -1.16e-4,6.02e-4 h 4.911393 c 0.410924,0 0.741228,-0.330309 0.741228,-0.741229 V 9.2033573 c -7.9e-5,-3.47e-5 -1.6e-4,-8.11e-5 -2.32e-4,-1.158e-4 v -1.540764 c 8e-5,2.9e-6 1.59e-4,-7.3e-6 2.32e-4,0 V 5.9613069 c 0,-0.4109231 -0.330304,-0.7412265 -0.741228,-0.7412265 H 9.927728 c 0.167926,0.1488226 0.368983,0.2562793 0.585118,0.3122176 -3.19e-4,4.343e-4 -6.57e-4,8.7e-4 -9.85e-4,0.00116 l -0.01237,-0.0032 C 10.292739,5.476747 10.100546,5.3738391 9.939754,5.2313384 L 9.927204,5.2202494 H 7.939482 Z m 0.05686,0.1491976 h 1.924938 c 0.152616,0.1319311 0.331151,0.2293989 0.523093,0.2881167 -0.269356,0.3721977 -0.35872,0.865569 -0.191942,1.3303529 0.268417,0.7480335 1.094067,1.138417 1.842121,0.8699829 0.04079,-0.014637 0.07764,-0.033685 0.115397,-0.051746 V 9.1375547 C 12.11814,9.1120597 12.050443,9.0910357 11.980261,9.0773297 11.811646,8.6715763 11.417269,8.4240988 10.999643,8.4254234 10.881972,8.4258577 10.762674,8.4459164 10.645959,8.4877984 10.37378,8.5854684 10.168751,8.7851165 10.052477,9.0268627 9.778459,8.8775898 9.445757,8.8389585 9.130575,8.9520597 8.745397,9.0902796 8.483161,9.4167148 8.406713,9.7907396 c -0.0815,-0.00193 -0.16519,0.010061 -0.245895,0.039027 -0.351333,0.1260736 -0.534705,0.5141464 -0.408625,0.8655104 0.02363,0.06585 0.05895,0.123073 0.09885,0.175506 -0.09533,0.06131 -0.177166,0.136903 -0.24485,0.223594 -0.25392,-0.277763 -0.656598,-0.391717 -1.030273,-0.257625 -0.498213,0.178782 -0.756835,0.729769 -0.578091,1.227906 0.02363,0.06586 0.05379,0.12726 0.08949,0.183926 0.124055,0.207497 0.322404,0.353486 0.547195,0.415885 -0.0092,0.02597 -0.01769,0.05215 -0.02486,0.07881 H 5.437849 c -0.382475,0 -0.688611,-0.30614 -0.688611,-0.68861 V 9.5002995 C 5.416212,9.6520811 6.113728,9.3061284 6.376071,8.651457 l 2.31e-4,-5.8e-4 0.01992,-0.054766 5.8e-5,-2.895e-4 C 6.47622,8.3695308 6.49405,8.1352822 6.46034,7.9126714 6.55534,7.8302424 6.63377,7.726768 6.683643,7.6023112 l 0.0055,-0.012653 C 6.939881,7.5288002 7.159325,7.3544266 7.26253,7.0968805 l 1.16e-4,-2.896e-4 0.01208,-0.031187 2.32e-4,-5.8e-4 C 7.334458,6.8963968 7.332568,6.7216115 7.286288,6.5617677 7.579341,6.4899697 7.836304,6.2873359 7.957011,5.9861163 l 1.16e-4,-2.895e-4 0.01406,-0.036123 2.32e-4,-5.8e-4 C 8.047349,5.7341987 8.040199,5.5096337 7.970434,5.3085426 Z" />
  <path
     id="path5-7"
     class="ColorScheme-Text"
     style="baseline-shift:baseline;display:inline;overflow:visible;vector-effect:none;fill:currentColor;fill-opacity:1;stroke-width:0.029735;marker:none;enable-background:accumulate;stop-color:#000000"
     d="m 7.913583,4.6301169 -0.03043,0.060807 H 5.401787 c -0.410924,0 -0.741228,0.3303034 -0.741228,0.7412265 v 3.491603 c 1.75e-4,4.77e-5 3.48e-4,6.95e-5 5.23e-4,1.158e-4 v 2.6016438 c 0,0.429737 0.347029,0.776768 0.77677,0.776768 h 1.182084 c -4.2e-5,1.45e-4 -7.4e-5,2.89e-4 -1.16e-4,6.02e-4 h 4.911393 c 0.410924,0 0.741228,-0.330309 0.741228,-0.74123 V 8.6742008 c -7.9e-5,-3.47e-5 -1.6e-4,-8.11e-5 -2.32e-4,-1.158e-4 V 7.133321 c 8e-5,2.9e-6 1.59e-4,-7.3e-6 2.32e-4,0 V 5.4321504 c 0,-0.4109231 -0.330304,-0.7412265 -0.741228,-0.7412265 H 9.927728 c 0.167926,0.1488226 0.368983,0.2562793 0.585118,0.3122176 -3.19e-4,4.343e-4 -6.57e-4,8.7e-4 -9.85e-4,0.00116 l -0.01237,-0.0032 C 10.292739,4.9475905 10.100546,4.8446826 9.939754,4.7021819 L 9.927204,4.6910929 H 7.939482 Z m 0.05686,0.1491976 h 1.924938 c 0.152616,0.1319311 0.331151,0.2293989 0.523093,0.2881167 -0.269356,0.3721977 -0.35872,0.865569 -0.191942,1.3303529 0.268417,0.7480335 1.094067,1.138417 1.842121,0.8699829 0.04079,-0.014637 0.07764,-0.033685 0.115397,-0.051746 V 8.6083982 C 12.11814,8.5829032 12.050443,8.5618792 11.980261,8.5481732 11.811646,8.1424198 11.417269,7.8949423 10.999643,7.8962669 10.881972,7.8967012 10.762674,7.9167599 10.645959,7.9586419 10.37378,8.0563119 10.168751,8.25596 10.052477,8.4977062 9.778459,8.3484333 9.445757,8.309802 9.130575,8.4229032 8.745397,8.5611231 8.483161,8.8875583 8.406713,9.2615831 8.325213,9.2596531 8.241523,9.2716441 8.160818,9.3006101 7.809485,9.4266837 7.626113,9.814757 7.752193,10.166121 c 0.02363,0.06585 0.05895,0.123073 0.09885,0.175506 -0.09533,0.06132 -0.177166,0.136902 -0.24485,0.223594 -0.25392,-0.277763 -0.656598,-0.391717 -1.030273,-0.257626 -0.498213,0.178782 -0.756835,0.72977 -0.578091,1.227906 0.02363,0.06586 0.05379,0.12726 0.08949,0.183926 0.124055,0.207498 0.322404,0.353487 0.547195,0.415886 -0.0092,0.02597 -0.01769,0.05215 -0.02486,0.07881 H 5.437849 c -0.382475,0 -0.688611,-0.30614 -0.688611,-0.68861 V 8.971143 C 5.416212,9.1229246 6.113728,8.7769719 6.376071,8.1223005 l 2.31e-4,-5.8e-4 0.01992,-0.054766 5.8e-5,-2.895e-4 C 6.47622,7.8403743 6.49405,7.6061257 6.46034,7.3835149 6.55534,7.3010859 6.63377,7.1976115 6.683643,7.0731547 l 0.0055,-0.012653 C 6.939881,6.9996437 7.159325,6.8252701 7.26253,6.567724 l 1.16e-4,-2.896e-4 0.01208,-0.031187 2.32e-4,-5.8e-4 C 7.334458,6.3672403 7.332568,6.192455 7.286288,6.0326112 7.579341,5.9608132 7.836304,5.7581794 7.957011,5.4569598 l 1.16e-4,-2.895e-4 0.01406,-0.036123 2.32e-4,-5.8e-4 C 8.047349,5.2050422 8.040199,4.9804772 7.970434,4.7793861 Z" />
  <path
     id="gradient-path1"
     style="opacity:0.3;baseline-shift:baseline;display:inline;overflow:visible;vector-effect:none;enable-background:accumulate;stop-color:#000000;stop-opacity:1;fill:url(#linearGradient4)"
     d="M 8.4453131 1.2753492 C 4.4913166 1.2753492 1.2794833 4.4784283 1.2794833 8.4236094 C 1.2794833 12.36879 4.4913166 15.572386 8.4453131 15.572386 C 12.39931 15.572386 15.611143 12.36879 15.611143 8.4236094 C 15.611143 4.4784283 12.39931 1.2753492 8.4453131 1.2753492 z " />
</svg>
