<?xml version='1.0' encoding='UTF-8'?>
<svg xmlns:inkscape="http://www.inkscape.org/namespaces/inkscape" xmlns:sodipodi="http://sodipodi.sourceforge.net/DTD/sodipodi-0.dtd" xmlns="http://www.w3.org/2000/svg" xmlns:svg="http://www.w3.org/2000/svg" xmlns:rdf="http://www.w3.org/1999/02/22-rdf-syntax-ns#" xmlns:cc="http://creativecommons.org/ns#" xmlns:dc="http://purl.org/dc/elements/1.1/" width="64" height="64" version="1.1" viewBox="0 0 16.933 16.933" id="svg7" sodipodi:docname="calf.svg" inkscape:version="1.4.2 (ebf0e940d0, 2025-05-08)">
  <sodipodi:namedview id="namedview7" pagecolor="#a9abb3" bordercolor="#000000" borderopacity="0.25" inkscape:showpageshadow="2" inkscape:pageopacity="0.0" inkscape:pagecheckerboard="0" inkscape:deskcolor="#d1d1d1" inkscape:zoom="4.3531261" inkscape:cx="36.066035" inkscape:cy="26.647517" inkscape:window-width="1920" inkscape:window-height="1044" inkscape:window-x="0" inkscape:window-y="0" inkscape:window-maximized="1" inkscape:current-layer="svg7" showgrid="false"/>
  <defs id="defs2">
    <filter style="color-interpolation-filters:sRGB;" inkscape:label="Blur" id="filter3" x="-0.10843471" y="-0.10870992" width="1.2168694" height="1.2174198">
      <feGaussianBlur stdDeviation="0.5 0.5" result="blur" id="feGaussianBlur3"/>
    </filter>
    <style id="current-color-scheme" type="text/css">.ColorScheme-Text {color:#d8dee9} .ColorScheme-Highlight {color:#3b4252}</style>
  <linearGradient id="linearGradient3" inkscape:collect="always">
      <stop style="stop-color:#000000;stop-opacity:1;" offset="0" id="stop3"/>
      <stop style="stop-color:#000000;stop-opacity:0;" offset="1" id="stop4"/>
    </linearGradient>
    <linearGradient xmlns:xlink="http://www.w3.org/1999/xlink" inkscape:collect="always" xlink:href="#linearGradient3" id="linearGradient4" x1="13.512321" y1="13.490874" x2="3.3783066" y2="3.3568602" gradientUnits="userSpaceOnUse"/>
  </defs>
  <metadata id="metadata2">
    <rdf:RDF>
      <cc:Work rdf:about="">
        <dc:format>image/svg+xml</dc:format>
        <dc:type rdf:resource="http://purl.org/dc/dcmitype/StillImage"/>
      </cc:Work>
    </rdf:RDF>
  </metadata>
  <ellipse style="opacity:1;fill:none;stroke:#000000;stroke-width:0.582072;stroke-dasharray:none;stroke-opacity:1;filter:url(#filter3)" id="path1-5" cx="8.4450111" cy="8.423522" rx="6.8752708" ry="6.8578653"/>
  <ellipse style="opacity:1;fill:none;stroke-width:0.58207188;stroke-opacity:1;stroke:currentColor;stroke-dasharray:none;fill-opacity:1" id="path1" cx="8.4450111" cy="8.423522" rx="6.8752708" ry="6.8578653" class="ColorScheme-Text"/>
  <ellipse style="fill:currentColor;stroke:none;stroke-width:0.285844;stroke-dasharray:none;stroke-opacity:1" id="path1-2" cx="8.4557552" cy="8.423522" rx="6.5738997" ry="6.5692253" class="ColorScheme-Highlight"/>
<path id="ellipse6-7" style="opacity:0.3;fill:#000000;fill-opacity:1;stroke-width:0.28437" d="M 6.72168,6.5999014 A 2.0417926,2.3955264 0 0 0 4.679467,8.9955737 2.0417926,2.3955264 0 0 0 6.72168,11.391246 2.0417926,2.3955264 0 0 0 8.466242,10.233717 2.0417926,2.3955264 0 0 0 10.211837,11.391246 2.0417926,2.3955264 0 0 0 12.253533,8.9955737 2.0417926,2.3955264 0 0 0 10.211837,6.5999014 2.0417926,2.3955264 0 0 0 8.466242,7.7574307 2.0417926,2.3955264 0 0 0 6.72168,6.5999014 Z M 9.161276,8.4850206 A 0.81612539,0.81527472 0 0 1 9.977231,9.2999419 0.81612539,0.81527472 0 0 1 9.161276,10.11538 0.81612539,0.81527472 0 0 1 8.391829,9.5722713 0.53361994,0.53306288 0 0 1 7.932952,9.8332321 0.53361994,0.53306288 0 0 1 7.399144,9.2999419 0.53361994,0.53306288 0 0 1 7.932952,8.7671683 0.53361994,0.53306288 0 0 1 8.391829,9.0281292 0.81612539,0.81527472 0 0 1 9.161276,8.4850206 Z"/>
  <path id="ellipse6-7-6" style="color:#d8dee9;fill:currentColor;fill-opacity:1;stroke-width:0.28437" class="ColorScheme-Text" d="M 6.72168,6.0708277 A 2.0417926,2.3955264 0 0 0 4.679467,8.4665 2.0417926,2.3955264 0 0 0 6.72168,10.862172 2.0417926,2.3955264 0 0 0 8.466242,9.704643 2.0417926,2.3955264 0 0 0 10.211837,10.862172 2.0417926,2.3955264 0 0 0 12.253533,8.4665 2.0417926,2.3955264 0 0 0 10.211837,6.0708277 2.0417926,2.3955264 0 0 0 8.466242,7.228357 2.0417926,2.3955264 0 0 0 6.72168,6.0708277 Z M 9.161276,7.9559469 A 0.81612539,0.81527472 0 0 1 9.977231,8.7708683 0.81612539,0.81527472 0 0 1 9.161276,9.5863063 0.81612539,0.81527472 0 0 1 8.391829,9.0431977 0.53361994,0.53306288 0 0 1 7.932952,9.3041584 0.53361994,0.53306288 0 0 1 7.399144,8.7708683 0.53361994,0.53306288 0 0 1 7.932952,8.2380946 0.53361994,0.53306288 0 0 1 8.391829,8.4990556 0.81612539,0.81527472 0 0 1 9.161276,7.9559469 Z"/>
<path id="gradient-path1" style="opacity:0.3;baseline-shift:baseline;display:inline;overflow:visible;vector-effect:none;enable-background:accumulate;stop-color:#000000;stop-opacity:1;fill:url(#linearGradient4)" d="M 8.4453131 1.2753492 C 4.4913166 1.2753492 1.2794833 4.4784283 1.2794833 8.4236094 C 1.2794833 12.36879 4.4913166 15.572386 8.4453131 15.572386 C 12.39931 15.572386 15.611143 12.36879 15.611143 8.4236094 C 15.611143 4.4784283 12.39931 1.2753492 8.4453131 1.2753492 z "/>
</svg>
