<?xml version="1.0" encoding="UTF-8" standalone="no"?>
<svg
   width="64"
   height="64"
   version="1.1"
   viewBox="0 0 16.933 16.933"
   id="svg7"
   sodipodi:docname="calibre-gui.svg"
   inkscape:version="1.4.2 (ebf0e940d0, 2025-05-08)"
   xmlns:inkscape="http://www.inkscape.org/namespaces/inkscape"
   xmlns:sodipodi="http://sodipodi.sourceforge.net/DTD/sodipodi-0.dtd"
   xmlns:xlink="http://www.w3.org/1999/xlink"
   xmlns="http://www.w3.org/2000/svg"
   xmlns:svg="http://www.w3.org/2000/svg"
   xmlns:rdf="http://www.w3.org/1999/02/22-rdf-syntax-ns#"
   xmlns:cc="http://creativecommons.org/ns#"
   xmlns:dc="http://purl.org/dc/elements/1.1/">
  <sodipodi:namedview
     id="namedview7"
     pagecolor="#9c4444"
     bordercolor="#000000"
     borderopacity="0.25"
     inkscape:showpageshadow="2"
     inkscape:pageopacity="0.0"
     inkscape:pagecheckerboard="0"
     inkscape:deskcolor="#d1d1d1"
     inkscape:zoom="4.3531261"
     inkscape:cx="36.755195"
     inkscape:cy="26.188077"
     inkscape:window-width="2560"
     inkscape:window-height="1376"
     inkscape:window-x="0"
     inkscape:window-y="0"
     inkscape:window-maximized="1"
     inkscape:current-layer="svg7"
     showgrid="false" />
  <defs
     id="defs2">
    <filter
       style="color-interpolation-filters:sRGB;"
       inkscape:label="Blur"
       id="filter3"
       x="-0.10843471"
       y="-0.10870992"
       width="1.2168694"
       height="1.2174198">
      <feGaussianBlur
         stdDeviation="0.5 0.5"
         result="blur"
         id="feGaussianBlur3" />
    </filter>
    <style
       id="current-color-scheme"
       type="text/css">.ColorScheme-Text {color:#d8dee9} .ColorScheme-Highlight {color:#3b4252}</style>
    <linearGradient
       id="linearGradient3"
       inkscape:collect="always">
      <stop
         style="stop-color:#000000;stop-opacity:1;"
         offset="0"
         id="stop3" />
      <stop
         style="stop-color:#000000;stop-opacity:0;"
         offset="1"
         id="stop4" />
    </linearGradient>
    <linearGradient
       inkscape:collect="always"
       xlink:href="#linearGradient3"
       id="linearGradient4"
       x1="13.512321"
       y1="13.490874"
       x2="3.3783066"
       y2="3.3568602"
       gradientUnits="userSpaceOnUse" />
  </defs>
  <metadata
     id="metadata2">
    <rdf:RDF>
      <cc:Work
         rdf:about="">
        <dc:format>image/svg+xml</dc:format>
        <dc:type
           rdf:resource="http://purl.org/dc/dcmitype/StillImage" />
      </cc:Work>
    </rdf:RDF>
    <itype>type-a</itype>
  </metadata>
  <ellipse
     style="opacity:1;fill:none;stroke:#000000;stroke-width:0.582072;stroke-dasharray:none;stroke-opacity:1;filter:url(#filter3)"
     id="path1-5"
     cx="8.4450111"
     cy="8.423522"
     rx="6.8752708"
     ry="6.8578653" />
  <ellipse
     style="opacity:1;fill:none;stroke-width:0.58207188;stroke-opacity:1;stroke:currentColor;stroke-dasharray:none;fill-opacity:1"
     id="path1"
     cx="8.4450111"
     cy="8.423522"
     rx="6.8752708"
     ry="6.8578653"
     class="ColorScheme-Text" />
  <ellipse
     style="fill:currentColor;stroke:none;stroke-width:0.285844;stroke-dasharray:none;stroke-opacity:1"
     id="path1-2"
     cx="8.4557552"
     cy="8.423522"
     rx="6.5738997"
     ry="6.5692253"
     class="ColorScheme-Highlight" />
  <path
     id="path928"
     style="opacity:0.3;fill:#000000;fill-opacity:1;fill-rule:nonzero;stroke:none;stroke-width:0.391023;stroke-linecap:round;stroke-linejoin:round;stroke-miterlimit:4;stroke-dasharray:none;stroke-dashoffset:0;stroke-opacity:1"
     d="m 5.0707486,5.8675491 c -0.216628,0 -0.391023,0.1743961 -0.391023,0.3910226 v 0.649668 h 1.56409 v -0.649668 c 0,-0.2166265 -0.174396,-0.3910226 -0.391022,-0.3910226 z m 1.955113,0 c -0.216627,0 -0.391023,0.1743961 -0.391023,0.3910226 v 0.6517045 h 1.56409 V 6.2585717 c 0,-0.2166265 -0.174395,-0.3910226 -0.391022,-0.3910226 z m 2.262636,0.2617 c -0.06303,-4.171e-4 -0.127124,0.014475 -0.186856,0.046332 l -0.689891,0.367602 C 8.2206096,6.645125 8.1489196,6.8810426 8.2508616,7.0721838 L 8.4967776,7.5329592 9.8959066,6.8333951 9.6306426,6.3364705 C 9.5605626,6.2050611 9.4271546,6.130169 9.2884976,6.1292491 Z M 10.01861,7.0635286 8.6194816,7.7630924 10.389776,11.083221 11.789413,10.383657 Z M 4.6797256,7.1689215 v 3.6525995 h 1.56409 V 7.1689215 Z m 1.955113,0.00203 v 3.6495445 h 1.56409 V 7.1709534 Z m 5.2767694,3.4423235 -1.399128,0.699564 0.314651,0.590098 c 0.101943,0.191141 0.33786,0.262831 0.529001,0.160889 l 0.68989,-0.368111 c 0.19114,-0.101938 0.262832,-0.337857 0.16089,-0.528997 z m -5.2767694,0.467909 v 0.651704 c 0,0.216626 0.174396,0.391022 0.391023,0.391022 h 0.782045 c 0.216627,0 0.391022,-0.174396 0.391022,-0.391022 v -0.651703 z m -1.955113,10e-4 v 0.650687 c 0,0.216627 0.174395,0.391023 0.391023,0.391023 h 0.782045 c 0.216626,0 0.391022,-0.174396 0.391022,-0.391023 v -0.650684 z" />
  <path
     id="path928-6"
     class="ColorScheme-Text"
     style="fill:currentColor;fill-opacity:1;fill-rule:nonzero;stroke:none;stroke-width:0.391023;stroke-linecap:round;stroke-linejoin:round;stroke-miterlimit:4;stroke-dasharray:none;stroke-dashoffset:0;stroke-opacity:1"
     d="m 5.0707486,5.3383195 c -0.216628,0 -0.391023,0.1743961 -0.391023,0.3910226 v 0.649668 h 1.56409 v -0.649668 c 0,-0.2166265 -0.174396,-0.3910226 -0.391022,-0.3910226 z m 1.955113,0 c -0.216627,0 -0.391023,0.1743961 -0.391023,0.3910226 v 0.6517045 h 1.56409 V 5.7293421 c 0,-0.2166265 -0.174395,-0.3910226 -0.391022,-0.3910226 z m 2.262636,0.2617 c -0.06303,-4.171e-4 -0.127124,0.014475 -0.186856,0.046332 L 8.4117506,6.0139534 C 8.2206096,6.1158953 8.1489196,6.3518129 8.2508616,6.5429541 L 8.4967776,7.0037296 9.8959066,6.3041655 9.6306426,5.8072409 C 9.5605626,5.6758315 9.4271546,5.6009393 9.2884976,5.6000195 Z M 10.01861,6.534299 8.6194816,7.2338628 10.389776,10.553991 11.789413,9.8544277 Z M 4.6797256,6.6396919 v 3.6525991 h 1.56409 V 6.6396919 Z m 1.955113,0.00203 v 3.6495451 h 1.56409 V 6.6417238 Z m 5.2767694,3.4423231 -1.399128,0.699564 0.314651,0.590098 c 0.101943,0.191141 0.33786,0.262831 0.529001,0.160889 l 0.68989,-0.368111 c 0.19114,-0.101939 0.262832,-0.337857 0.16089,-0.528997 z m -5.2767694,0.467909 v 0.651704 c 0,0.216626 0.174396,0.391022 0.391023,0.391022 h 0.782045 c 0.216627,0 0.391022,-0.174396 0.391022,-0.391022 v -0.651704 z m -1.955113,10e-4 v 0.650687 c 0,0.216627 0.174395,0.391023 0.391023,0.391023 h 0.782045 c 0.216626,0 0.391022,-0.174396 0.391022,-0.391023 v -0.650684 z" />
  <path
     id="gradient-path1"
     style="opacity:0.3;baseline-shift:baseline;display:inline;overflow:visible;vector-effect:none;enable-background:accumulate;stop-color:#000000;stop-opacity:1;fill:url(#linearGradient4)"
     d="M 8.4453131 1.2753492 C 4.4913166 1.2753492 1.2794833 4.4784283 1.2794833 8.4236094 C 1.2794833 12.36879 4.4913166 15.572386 8.4453131 15.572386 C 12.39931 15.572386 15.611143 12.36879 15.611143 8.4236094 C 15.611143 4.4784283 12.39931 1.2753492 8.4453131 1.2753492 z " />
</svg>
