<?xml version="1.0" encoding="UTF-8" standalone="no"?>
<svg
   width="64"
   height="64"
   version="1.1"
   viewBox="0 0 16.933 16.933"
   id="svg7"
   sodipodi:docname="cider.svg"
   inkscape:version="1.4.2 (ebf0e940d0, 2025-05-08)"
   xmlns:inkscape="http://www.inkscape.org/namespaces/inkscape"
   xmlns:sodipodi="http://sodipodi.sourceforge.net/DTD/sodipodi-0.dtd"
   xmlns:xlink="http://www.w3.org/1999/xlink"
   xmlns="http://www.w3.org/2000/svg"
   xmlns:svg="http://www.w3.org/2000/svg"
   xmlns:rdf="http://www.w3.org/1999/02/22-rdf-syntax-ns#"
   xmlns:cc="http://creativecommons.org/ns#"
   xmlns:dc="http://purl.org/dc/elements/1.1/">
  <sodipodi:namedview
     id="namedview7"
     pagecolor="#9c4444"
     bordercolor="#000000"
     borderopacity="0.25"
     inkscape:showpageshadow="2"
     inkscape:pageopacity="0.0"
     inkscape:pagecheckerboard="0"
     inkscape:deskcolor="#d1d1d1"
     inkscape:zoom="8.7062522"
     inkscape:cx="72.419221"
     inkscape:cy="15.276378"
     inkscape:window-width="1763"
     inkscape:window-height="1372"
     inkscape:window-x="0"
     inkscape:window-y="0"
     inkscape:window-maximized="0"
     inkscape:current-layer="svg7"
     showgrid="false" />
  <defs
     id="defs2">
    <filter
       style="color-interpolation-filters:sRGB;"
       inkscape:label="Blur"
       id="filter3"
       x="-0.10843471"
       y="-0.10870992"
       width="1.2168694"
       height="1.2174198">
      <feGaussianBlur
         stdDeviation="0.5 0.5"
         result="blur"
         id="feGaussianBlur3" />
    </filter>
    <style
       id="current-color-scheme"
       type="text/css">.ColorScheme-Text {color:#d8dee9} .ColorScheme-Highlight {color:#3b4252}</style>
    <linearGradient
       id="linearGradient3"
       inkscape:collect="always">
      <stop
         style="stop-color:#000000;stop-opacity:1;"
         offset="0"
         id="stop3" />
      <stop
         style="stop-color:#000000;stop-opacity:0;"
         offset="1"
         id="stop4" />
    </linearGradient>
    <linearGradient
       inkscape:collect="always"
       xlink:href="#linearGradient3"
       id="linearGradient4"
       x1="13.512321"
       y1="13.490874"
       x2="3.3783066"
       y2="3.3568602"
       gradientUnits="userSpaceOnUse" />
  </defs>
  <metadata
     id="metadata2">
    <rdf:RDF>
      <cc:Work
         rdf:about="">
        <dc:format>image/svg+xml</dc:format>
        <dc:type
           rdf:resource="http://purl.org/dc/dcmitype/StillImage" />
      </cc:Work>
    </rdf:RDF>
  </metadata>
  <ellipse
     style="opacity:1;fill:none;stroke:#000000;stroke-width:0.582072;stroke-dasharray:none;stroke-opacity:1;filter:url(#filter3)"
     id="path1-5"
     cx="8.4450111"
     cy="8.423522"
     rx="6.8752708"
     ry="6.8578653" />
  <ellipse
     style="opacity:1;fill:none;stroke-width:0.58207188;stroke-opacity:1;stroke:currentColor;stroke-dasharray:none;fill-opacity:1"
     id="path1"
     cx="8.4450111"
     cy="8.423522"
     rx="6.8752708"
     ry="6.8578653"
     class="ColorScheme-Text" />
  <ellipse
     style="fill:currentColor;stroke:none;stroke-width:0.285844;stroke-dasharray:none;stroke-opacity:1"
     id="path1-2"
     cx="8.4557552"
     cy="8.423522"
     rx="6.5738997"
     ry="6.5692253"
     class="ColorScheme-Highlight" />
  <path
     id="path5"
     style="opacity:0.3;fill:#000000;fill-opacity:1;stroke-width:0.00828532"
     d="m 8.4665,5.0269844 c -2.190367,0 -3.968672,1.778304 -3.968672,3.9686719 0,2.1903677 1.778305,3.9686717 3.968672,3.9686717 2.190367,0 3.968672,-1.778304 3.968672,-3.9686717 0,-2.1903679 -1.778305,-3.9686719 -3.968672,-3.9686719 z m 0,1.22623 c 1.513597,0 2.742444,1.2288456 2.742444,2.7424419 0,1.5135967 -1.228847,2.7424417 -2.742444,2.7424417 -1.513597,0 -2.742443,-1.228845 -2.742443,-2.7424417 0,-1.5135963 1.228846,-2.7424419 2.742443,-2.7424419 z m 0,0.455689 c -1.259809,0 -2.282608,1.0228019 -2.282608,2.2826095 0,1.2598071 1.022799,2.2826091 2.282608,2.2826091 1.259809,0 2.282608,-1.022802 2.282608,-2.2826091 0,-1.2598076 -1.022799,-2.2826095 -2.282608,-2.2826095 z M 7.918519,8.2046185 c 0.01281,-2.208e-4 0.02602,0.00283 0.03845,0.010076 l 1.24,0.7163717 c 0.04969,0.028698 0.04969,0.1004264 0,0.1291359 l -1.24,0.7163717 C 7.907259,9.8052718 7.845101,9.7694438 7.845101,9.7120058 V 8.2792623 c 0,-0.043076 0.03496,-0.073998 0.07342,-0.074666 z" />
  <path
     id="path5-7"
     style="fill:currentColor;stroke-width:0.00828532"
     d="m 8.4664995,4.4978281 c -2.190366,0 -3.968672,1.778304 -3.968672,3.9686719 0,2.190368 1.778306,3.968672 3.968672,3.968672 2.1903675,0 3.9686725,-1.778304 3.9686725,-3.968672 0,-2.1903679 -1.778305,-3.9686719 -3.9686725,-3.9686719 z m 0,1.22623 c 1.513597,0 2.7424435,1.2288456 2.7424435,2.7424419 0,1.5135963 -1.2288465,2.742442 -2.7424435,2.742442 -1.513597,0 -2.742442,-1.2288457 -2.742442,-2.742442 0,-1.5135963 1.228845,-2.7424419 2.742442,-2.7424419 z m 0,0.455689 c -1.259809,0 -2.282608,1.0228019 -2.282608,2.2826095 0,1.2598076 1.022799,2.2826094 2.282608,2.2826094 1.259809,0 2.2826075,-1.0228018 2.2826075,-2.2826094 0,-1.2598076 -1.0227985,-2.2826095 -2.2826075,-2.2826095 z m -0.547981,1.4957151 c 0.01281,-2.208e-4 0.02602,0.00283 0.03845,0.010076 l 1.24,0.7163717 c 0.04969,0.028698 0.04969,0.1004264 0,0.1291359 l -1.24,0.7163717 c -0.04971,0.028698 -0.111868,-0.00713 -0.111868,-0.064568 V 7.750106 c 0,-0.043076 0.03496,-0.073998 0.07342,-0.074666 z"
     class="ColorScheme-Text" />
  <path
     id="gradient-path1"
     style="opacity:0.3;baseline-shift:baseline;display:inline;overflow:visible;vector-effect:none;enable-background:accumulate;stop-color:#000000;stop-opacity:1;fill:url(#linearGradient4)"
     d="M 8.4453131 1.2753492 C 4.4913166 1.2753492 1.2794833 4.4784283 1.2794833 8.4236094 C 1.2794833 12.36879 4.4913166 15.572386 8.4453131 15.572386 C 12.39931 15.572386 15.611143 12.36879 15.611143 8.4236094 C 15.611143 4.4784283 12.39931 1.2753492 8.4453131 1.2753492 z " />
</svg>
