<?xml version='1.0' encoding='UTF-8'?>
<svg xmlns:inkscape="http://www.inkscape.org/namespaces/inkscape" xmlns:sodipodi="http://sodipodi.sourceforge.net/DTD/sodipodi-0.dtd" xmlns="http://www.w3.org/2000/svg" xmlns:svg="http://www.w3.org/2000/svg" xmlns:rdf="http://www.w3.org/1999/02/22-rdf-syntax-ns#" xmlns:cc="http://creativecommons.org/ns#" xmlns:dc="http://purl.org/dc/elements/1.1/" width="64" height="64" version="1.1" viewBox="0 0 16.933 16.933" id="svg7" sodipodi:docname="ckb-next.svg" inkscape:version="1.4.2 (ebf0e940d0, 2025-05-08)">
  <sodipodi:namedview id="namedview7" pagecolor="#9c4444" bordercolor="#000000" borderopacity="0.25" inkscape:showpageshadow="2" inkscape:pageopacity="0.0" inkscape:pagecheckerboard="0" inkscape:deskcolor="#d1d1d1" inkscape:zoom="4.3531261" inkscape:cx="36.755195" inkscape:cy="26.188077" inkscape:window-width="2560" inkscape:window-height="1376" inkscape:window-x="0" inkscape:window-y="0" inkscape:window-maximized="1" inkscape:current-layer="svg7" showgrid="false"/>
  <defs id="defs2">
    <filter style="color-interpolation-filters:sRGB;" inkscape:label="Blur" id="filter3" x="-0.10843471" y="-0.10870992" width="1.2168694" height="1.2174198">
      <feGaussianBlur stdDeviation="0.5 0.5" result="blur" id="feGaussianBlur3"/>
    </filter>
    <style id="current-color-scheme" type="text/css">.ColorScheme-Text {color:#d8dee9} .ColorScheme-Highlight {color:#3b4252}</style>
  <linearGradient id="linearGradient3" inkscape:collect="always">
      <stop style="stop-color:#000000;stop-opacity:1;" offset="0" id="stop3"/>
      <stop style="stop-color:#000000;stop-opacity:0;" offset="1" id="stop4"/>
    </linearGradient>
    <linearGradient xmlns:xlink="http://www.w3.org/1999/xlink" inkscape:collect="always" xlink:href="#linearGradient3" id="linearGradient4" x1="13.512321" y1="13.490874" x2="3.3783066" y2="3.3568602" gradientUnits="userSpaceOnUse"/>
  </defs>
  <metadata id="metadata2">
    <rdf:RDF>
      <cc:Work rdf:about="">
        <dc:format>image/svg+xml</dc:format>
        <dc:type rdf:resource="http://purl.org/dc/dcmitype/StillImage"/>
      </cc:Work>
    </rdf:RDF>
  </metadata>
  <ellipse style="opacity:1;fill:none;stroke:#000000;stroke-width:0.582072;stroke-dasharray:none;stroke-opacity:1;filter:url(#filter3)" id="path1-5" cx="8.4450111" cy="8.423522" rx="6.8752708" ry="6.8578653"/>
  <ellipse style="opacity:1;fill:none;stroke-width:0.58207188;stroke-opacity:1;stroke:currentColor;stroke-dasharray:none;fill-opacity:1" id="path1" cx="8.4450111" cy="8.423522" rx="6.8752708" ry="6.8578653" class="ColorScheme-Text"/>
  <ellipse style="fill:currentColor;stroke:none;stroke-width:0.285844;stroke-dasharray:none;stroke-opacity:1" id="path1-2" cx="8.4557552" cy="8.423522" rx="6.5738997" ry="6.5692253" class="ColorScheme-Highlight"/>
<path d="m 4.5681123,12.695976 c 0.309863,-0.420326 0.405133,-0.569086 0.542182,-0.845716 0.289291,-0.583961 0.38646,-1.003338 0.386776,-1.668959 3.16e-4,-0.5390174 -0.04084,-0.8007715 -0.194653,-1.2407208 -0.04812,-0.138314 -0.09559,-0.2744144 -0.105089,-0.3029006 -0.01042,-0.031016 -0.0026,-0.051591 0.01963,-0.051591 0.04654,0 1.488866,0.755194 1.574957,0.8248261 0.05824,0.04716 0.06456,0.086407 0.07754,0.4918571 0.01233,0.3896242 -0.01337,0.8052022 -0.07215,1.1736202 -0.03419,0.212696 0.04304,0.09369 0.136406,-0.209846 0.168698,-0.548829 0.194338,-0.73462 0.193071,-1.3942283 -0.0016,-0.6833457 -0.04431,-0.9539622 -0.237382,-1.5069057 -0.05793,-0.1661685 -0.09812,-0.3092309 -0.08893,-0.3180932 0.0089,-0.00886 0.407982,0.2440299 0.886862,0.5621225 l 0.870719,0.5785812 0.02025,0.1351492 c 0.03576,0.2380159 0.01963,1.1416533 -0.02533,1.4353743 -0.02406,0.15414 -0.05159,0.340249 -0.0614,0.413363 l -0.01772,0.132934 0.07153,-0.132934 c 0.09686,-0.179461 0.219658,-0.543448 0.288025,-0.8526791 0.219025,-0.9944755 0.102865,-2.028515 -0.33392,-2.9650693 -0.06648,-0.1427468 -0.113947,-0.2665015 -0.105713,-0.2747311 0.03514,-0.035134 1.291995,0.9112337 2.1424587,1.6129371 0.591556,0.4880592 1.437589,1.3271279 1.624014,1.611038 0.22029,0.3348684 0.273149,0.6387174 0.183893,1.0584104 -0.04747,0.22314 -0.22947,0.637452 -0.313346,0.713098 -0.04905,0.04463 -0.05571,0.04178 -0.09779,-0.03925 -0.20225,-0.389941 -0.940352,-0.592824 -1.856016,-0.510531 -1.2821847,0.115842 -2.8381487,0.558324 -4.9448407,1.406572 -0.299736,0.120907 -0.558325,0.219658 -0.574785,0.219658 -0.0165,0 -0.01164,-0.02501 0.01077,-0.05539 z m 1.789233,-3.9149172 c -0.195602,-0.050324 -0.372215,-0.102549 -0.392472,-0.1155262 -0.02121,-0.013601 -0.03703,-0.084509 -0.03703,-0.1645861 0,-0.2003506 -0.07184,-0.4203255 -0.241181,-0.7381021 -0.08103,-0.1522412 -0.141166,-0.2826434 -0.133888,-0.2899235 0.0073,-0.00728 0.223138,0.1038153 0.479829,0.2471949 l 0.466852,0.2601713 0.06614,0.1851587 c 0.12503,0.349111 0.204148,0.656759 0.175347,0.6823962 -0.01546,0.013931 -0.185159,-0.015511 -0.383612,-0.066784 z M 11.040116,8.1841204 C 10.852108,7.8011431 10.292202,7.3884133 9.5582143,7.0921596 l -0.237066,-0.095586 -0.01867,-0.217126 c -0.0288,-0.3313867 -0.151919,-0.7507628 -0.36747,-1.2511656 -0.05951,-0.1376817 -0.103178,-0.2646028 -0.09748,-0.2816944 0.02911,-0.087357 1.09481,0.7111989 1.5372917,1.1520976 0.589026,0.587127 0.856793,1.0739201 0.857743,1.5603965 3.16e-4,0.159521 -0.05793,0.3905736 -0.09844,0.3905736 -0.0069,0 -0.04936,-0.07438 -0.09401,-0.1655345 z M 7.9728153,7.9825032 7.5730613,7.8270972 7.5373013,7.5770543 c -0.03988,-0.27758 -0.142435,-0.5861774 -0.295939,-0.8916098 -0.05602,-0.1110951 -0.09779,-0.2139609 -0.09274,-0.2288372 0.005,-0.015199 0.237066,0.1243884 0.515594,0.3095473 l 0.506734,0.3370837 0.06363,0.1728143 c 0.08673,0.2342178 0.240231,0.8292573 0.219342,0.8498305 -0.02849,0.028483 -0.06806,0.01678 -0.481096,-0.143379 z" fill="#ffffff" fill-rule="nonzero" id="path3" style="opacity:0.3;fill:#000000;fill-opacity:1;stroke-width:0.316511"/>
  <path d="m 4.5681123,12.166809 c 0.309863,-0.420326 0.405133,-0.569086 0.542182,-0.845716 0.289291,-0.583961 0.38646,-1.003338 0.386776,-1.6689588 3.16e-4,-0.5390174 -0.04084,-0.8007715 -0.194653,-1.2407208 -0.04812,-0.138314 -0.09559,-0.2744144 -0.105089,-0.3029006 -0.01042,-0.031016 -0.0026,-0.051591 0.01963,-0.051591 0.04654,0 1.488866,0.755194 1.574957,0.8248261 0.05824,0.04716 0.06456,0.086407 0.07754,0.4918571 0.01233,0.3896242 -0.01337,0.805202 -0.07215,1.173621 -0.03419,0.212695 0.04304,0.09369 0.136406,-0.209847 0.168698,-0.5488287 0.194338,-0.7346201 0.193071,-1.3942281 -0.0016,-0.6833457 -0.04431,-0.9539622 -0.237382,-1.5069057 -0.05793,-0.1661685 -0.09812,-0.3092309 -0.08893,-0.3180932 0.0089,-0.00886 0.407982,0.2440299 0.886862,0.5621225 l 0.870719,0.5785812 0.02025,0.1351492 c 0.03576,0.2380159 0.01963,1.1416531 -0.02533,1.4353747 -0.02406,0.1541397 -0.05159,0.3402484 -0.0614,0.4133624 l -0.01772,0.132935 0.07153,-0.132935 c 0.09686,-0.179461 0.219658,-0.5434482 0.288025,-0.8526789 0.219025,-0.9944755 0.102865,-2.028515 -0.33392,-2.9650693 -0.06648,-0.1427468 -0.113947,-0.2665015 -0.105713,-0.2747311 0.03514,-0.035134 1.291995,0.9112337 2.1424587,1.6129371 0.591556,0.4880592 1.437589,1.3271279 1.624014,1.611038 0.22029,0.334868 0.273149,0.6387172 0.183893,1.0584112 -0.04747,0.223139 -0.22947,0.637452 -0.313346,0.713097 -0.04905,0.04463 -0.05571,0.04178 -0.09779,-0.03925 -0.20225,-0.389941 -0.940352,-0.592824 -1.856016,-0.510531 -1.2821847,0.115842 -2.8381487,0.558324 -4.9448407,1.406572 -0.299736,0.120907 -0.558325,0.219658 -0.574785,0.219658 -0.0165,0 -0.01164,-0.02501 0.01077,-0.05539 z M 6.3573453,8.251892 C 6.1617433,8.201568 5.9851303,8.149343 5.9648733,8.1363658 c -0.02121,-0.013601 -0.03703,-0.084509 -0.03703,-0.1645861 0,-0.2003506 -0.07184,-0.4203255 -0.241181,-0.7381021 -0.08103,-0.1522412 -0.141166,-0.2826434 -0.133888,-0.2899235 0.0073,-0.00728 0.223138,0.1038153 0.479829,0.2471949 l 0.466852,0.2601713 0.06614,0.1851587 c 0.12503,0.349111 0.204148,0.656759 0.175347,0.6823962 -0.01546,0.013931 -0.185159,-0.015511 -0.383612,-0.066784 z M 11.040116,7.6549536 C 10.852108,7.2719763 10.292202,6.8592465 9.5582143,6.5629928 l -0.237066,-0.095586 -0.01867,-0.217126 c -0.0288,-0.3313867 -0.151919,-0.7507628 -0.36747,-1.2511656 -0.05951,-0.1376817 -0.103178,-0.2646028 -0.09748,-0.2816944 0.02911,-0.087357 1.09481,0.7111989 1.5372917,1.1520976 0.589026,0.587127 0.856793,1.0739201 0.857743,1.5603965 3.16e-4,0.159521 -0.05793,0.3905736 -0.09844,0.3905736 -0.0069,0 -0.04936,-0.07438 -0.09401,-0.1655345 z M 7.9728153,7.4533364 7.5730613,7.2979304 7.5373013,7.0478875 c -0.03988,-0.27758 -0.142435,-0.5861774 -0.295939,-0.8916098 -0.05602,-0.1110951 -0.09779,-0.2139609 -0.09274,-0.2288372 0.005,-0.015199 0.237066,0.1243884 0.515594,0.3095473 l 0.506734,0.3370837 0.06363,0.1728143 c 0.08673,0.2342178 0.240231,0.8292573 0.219342,0.8498305 -0.02849,0.028483 -0.06806,0.01678 -0.481096,-0.143379 z" fill="#ffffff" fill-rule="nonzero" id="path3-5" style="fill:currentColor;fill-opacity:1;stroke-width:0.316511" class="ColorScheme-Text"/>
<path id="gradient-path1" style="opacity:0.3;baseline-shift:baseline;display:inline;overflow:visible;vector-effect:none;enable-background:accumulate;stop-color:#000000;stop-opacity:1;fill:url(#linearGradient4)" d="M 8.4453131 1.2753492 C 4.4913166 1.2753492 1.2794833 4.4784283 1.2794833 8.4236094 C 1.2794833 12.36879 4.4913166 15.572386 8.4453131 15.572386 C 12.39931 15.572386 15.611143 12.36879 15.611143 8.4236094 C 15.611143 4.4784283 12.39931 1.2753492 8.4453131 1.2753492 z "/>
</svg>
