<?xml version="1.0" encoding="UTF-8" standalone="no"?>
<svg
   width="64"
   height="64"
   version="1.1"
   viewBox="0 0 16.933 16.933"
   id="svg7"
   sodipodi:docname="claws-mail.svg"
   inkscape:version="1.4.2 (ebf0e940d0, 2025-05-08)"
   xmlns:inkscape="http://www.inkscape.org/namespaces/inkscape"
   xmlns:sodipodi="http://sodipodi.sourceforge.net/DTD/sodipodi-0.dtd"
   xmlns:xlink="http://www.w3.org/1999/xlink"
   xmlns="http://www.w3.org/2000/svg"
   xmlns:svg="http://www.w3.org/2000/svg"
   xmlns:rdf="http://www.w3.org/1999/02/22-rdf-syntax-ns#"
   xmlns:cc="http://creativecommons.org/ns#"
   xmlns:dc="http://purl.org/dc/elements/1.1/">
  <sodipodi:namedview
     id="namedview7"
     pagecolor="#9c4444"
     bordercolor="#000000"
     borderopacity="0.25"
     inkscape:showpageshadow="2"
     inkscape:pageopacity="0.0"
     inkscape:pagecheckerboard="0"
     inkscape:deskcolor="#d1d1d1"
     inkscape:zoom="8.7062522"
     inkscape:cx="72.419221"
     inkscape:cy="15.276378"
     inkscape:window-width="2560"
     inkscape:window-height="1388"
     inkscape:window-x="0"
     inkscape:window-y="0"
     inkscape:window-maximized="1"
     inkscape:current-layer="svg7"
     showgrid="false" />
  <defs
     id="defs2">
    <filter
       style="color-interpolation-filters:sRGB;"
       inkscape:label="Blur"
       id="filter3"
       x="-0.10843471"
       y="-0.10870992"
       width="1.2168694"
       height="1.2174198">
      <feGaussianBlur
         stdDeviation="0.5 0.5"
         result="blur"
         id="feGaussianBlur3" />
    </filter>
    <style
       id="current-color-scheme"
       type="text/css">.ColorScheme-Text {color:#d8dee9} .ColorScheme-Highlight {color:#3b4252}</style>
    <linearGradient
       id="linearGradient3"
       inkscape:collect="always">
      <stop
         style="stop-color:#000000;stop-opacity:1;"
         offset="0"
         id="stop3" />
      <stop
         style="stop-color:#000000;stop-opacity:0;"
         offset="1"
         id="stop4" />
    </linearGradient>
    <linearGradient
       inkscape:collect="always"
       xlink:href="#linearGradient3"
       id="linearGradient4"
       x1="13.512321"
       y1="13.490874"
       x2="3.3783066"
       y2="3.3568602"
       gradientUnits="userSpaceOnUse" />
  </defs>
  <metadata
     id="metadata2">
    <rdf:RDF>
      <cc:Work
         rdf:about="">
        <dc:format>image/svg+xml</dc:format>
        <dc:type
           rdf:resource="http://purl.org/dc/dcmitype/StillImage" />
      </cc:Work>
    </rdf:RDF>
  </metadata>
  <ellipse
     style="opacity:1;fill:none;stroke:#000000;stroke-width:0.582072;stroke-dasharray:none;stroke-opacity:1;filter:url(#filter3)"
     id="path1-5"
     cx="8.4450111"
     cy="8.423522"
     rx="6.8752708"
     ry="6.8578653" />
  <ellipse
     style="opacity:1;fill:none;stroke-width:0.58207188;stroke-opacity:1;stroke:currentColor;stroke-dasharray:none;fill-opacity:1"
     id="path1"
     cx="8.4450111"
     cy="8.423522"
     rx="6.8752708"
     ry="6.8578653"
     class="ColorScheme-Text" />
  <ellipse
     style="fill:currentColor;stroke:none;stroke-width:0.285844;stroke-dasharray:none;stroke-opacity:1"
     id="path1-2"
     cx="8.4557552"
     cy="8.423522"
     rx="6.5738997"
     ry="6.5692253"
     class="ColorScheme-Highlight" />
  <path
     id="path5"
     style="opacity:0.3;fill:#000000;fill-opacity:1;stroke:none;stroke-width:0.017106"
     d="m 7.7536986,5.027006 c -0.292156,-0.00215 -0.604209,0.1564607 -0.806421,0.3323976 -0.07979,0.069425 -0.261304,0.2200884 -0.2611,0.3371756 1.83e-4,0.1055513 0.208713,0.2384189 0.278206,0.307908 0.265632,0.2656154 0.524906,0.5327941 0.745414,0.838194 0.55602,0.7700788 0.794127,1.6583236 0.794127,2.6001127 C 8.6903156,9.2583681 8.7827326,8.8858452 8.8532276,8.6388117 9.1024286,7.7655392 9.0030456,6.8334842 8.6455826,6.0044872 8.5279806,5.7317522 8.3755366,5.321345 8.1275586,5.142973 8.0151766,5.062136 7.8864976,5.0279711 7.7536986,5.027006 Z m 1.568775,0.6157158 c -0.1517,0.00757 -0.305521,0.052443 -0.442217,0.1051755 0.122562,0.3159055 0.255812,0.6241328 0.324947,0.9579359 0.04751,0.2294099 0.03297,0.5202705 0.117069,0.7355584 0.09117,0.2334061 0.284656,0.4358806 0.390899,0.6671341 C 9.9927546,8.717076 10.111889,9.3748382 10.111889,10.041504 10.290067,9.8652041 10.381182,9.508058 10.449031,9.2717339 10.702342,8.3894303 10.60277,7.4808427 10.262402,6.6374094 10.154234,6.3693691 9.9880986,5.9390855 9.7519616,5.761395 9.6237346,5.664906 9.4741726,5.635155 9.3224736,5.6427218 Z m 1.2341714,0.8407333 c 0.02604,0.1738132 0.118482,0.3447242 0.170626,0.5131804 0.08264,0.2669914 0.133789,0.5439219 0.166616,0.8210884 0.02364,0.1995639 0.03818,0.4150397 0.01908,0.615816 -0.01182,0.1241779 -0.05766,0.2881018 -0.03461,0.4105442 0.03987,0.2118141 0.184382,0.4231255 0.247569,0.6329222 0.138207,0.4588835 0.200494,0.9416067 0.200494,1.4197987 0.164416,-0.198432 0.250661,-0.509599 0.325415,-0.752664 0.2705,-0.8795363 0.165461,-1.8080139 -0.174902,-2.6514313 C 11.307388,7.0725791 11.078,6.4942178 10.55665,6.4834551 Z M 5.3392126,8.428261 c -0.06991,-5.456e-4 -0.14151,0.00853 -0.188066,0.015204 -0.306375,0.043891 -0.681405,0.193466 -0.744645,0.5374696 -0.03862,0.2100724 0.08121,0.4998338 0.138719,0.701346 0.226458,0.7935724 0.785379,1.6871564 1.700711,1.7619194 -0.09854,-0.208301 -0.248646,-0.393009 -0.354816,-0.598711 -0.220359,-0.426938 -0.351603,-0.9039641 -0.363403,-1.3855864 -0.0057,-0.233413 -0.02338,-0.4869616 0.007,-0.7184522 0.0084,-0.064179 0.04129,-0.2235883 -0.01758,-0.2706554 -0.03981,-0.031834 -0.108031,-0.041983 -0.177943,-0.042532 z m 1.184825,0.04106 c -0.178824,0 -0.343386,0.056772 -0.478768,0.1520167 0.03009,0.024957 0.06011,0.049398 0.08753,0.07417 l 0.51612,0.4661387 1.55658,1.4067686 0.424543,0.382914 c 0.142709,0.1289 0.276571,0.264876 0.482777,0.264876 0.205848,0 0.340179,-0.136506 0.48281,-0.264876 0.138862,-0.124978 0.278712,-0.248837 0.4162244,-0.375296 0.322225,-0.296326 0.647655,-0.5893267 0.973338,-0.8820289 -0.01396,-0.05404 -0.02894,-0.1077463 -0.045,-0.1610705 -0.025,-0.083019 -0.07242,-0.1816324 -0.122716,-0.2899335 -0.03491,-0.075166 -0.07364,-0.1612165 -0.101935,-0.2525138 -0.0215,0.1117777 -0.04811,0.2234201 -0.08008,0.3347699 -0.05993,0.2087444 -0.163035,0.6323717 -0.387156,0.8541308 l -0.3303604,0.326885 v -0.464768 c 0,-0.5412924 -0.08125,-1.0723449 -0.265444,-1.5721826 h -0.556513 c -0.01639,0.074544 -0.03511,0.1488186 -0.0562,0.2227126 -0.06228,0.2182646 -0.166819,0.6584624 -0.399452,0.8886432 l -0.33036,0.3268852 V 9.4427933 c 0,-0.3340719 -0.03073,-0.6592967 -0.09589,-0.9734719 z m 5.4307564,0.035785 c 0.01394,0.094974 0.02472,0.1903799 0.03217,0.2860578 l 0.10591,-0.095654 c 0.02909,-0.02627 0.0611,-0.052172 0.09301,-0.078714 -0.07003,-0.048317 -0.147769,-0.086354 -0.231098,-0.11169 z m 0.247101,0.1234839 c 0.02437,0.017694 0.04776,0.036617 0.07003,0.056797 -0.02228,-0.020202 -0.04563,-0.039091 -0.07003,-0.056797 z m -6.1732634,0.00481 c -0.02159,0.016002 -0.04228,0.032977 -0.06218,0.050949 0.01989,-0.017955 0.04061,-0.034964 0.06218,-0.050949 z m -0.159968,0.1539209 c -0.07446,0.094879 -0.128699,0.2064798 -0.156326,0.3283884 0.0016,0.1110249 0.0065,0.2258105 0.0093,0.3394476 0.01102,0.4495614 0.134075,0.8988612 0.341819,1.3013602 0.08199,0.158849 0.259662,0.397295 0.35779,0.604723 l 0.14363,0.303599 -0.334769,-0.02733 c -0.19453,-0.01589 -0.373914,-0.06392 -0.538483,-0.137013 v 0.631452 c 0,0.18227 0.05867,0.349944 0.157296,0.486753 0.103546,-0.113795 0.197253,-0.246512 0.293608,-0.353579 0.360082,-0.400114 0.711405,-0.808309 1.073034,-1.20701 0.12713,-0.140162 0.253568,-0.281515 0.377502,-0.424509 0.02911,-0.03359 0.119626,-0.103383 0.119608,-0.149845 -1.6e-5,-0.04358 -0.09286,-0.10337 -0.12315,-0.129665 -0.123942,-0.107612 -0.244433,-0.219536 -0.366242,-0.329557 L 6.1910736,9.0922253 C 6.0837986,8.9953313 5.9789856,8.8864441 5.8686656,8.7873241 Z m 6.5044254,0.00581 c -0.122243,0.1167475 -0.247422,0.2306207 -0.373927,0.3431891 -0.0028,0.3561933 -0.05391,0.71371 -0.161905,1.0648491 -0.06997,0.227501 -0.164483,0.581608 -0.361498,0.819384 l -0.240921,0.290769 c 0.257816,0.290174 0.51488,0.58104 0.773412,0.870569 l 0.332966,0.374562 c 0.0169,0.01892 0.03353,0.03896 0.05031,0.0592 0.0715,-0.100303 0.121248,-0.217276 0.142494,-0.344159 V 12.271468 9.8428154 9.162217 C 12.51099,9.0246823 12.45449,8.8987735 12.373083,8.7931351 Z m -1.324011,1.1876313 c -0.01002,0.0094 -0.02005,0.018798 -0.03003,0.028234 -0.119358,0.112711 -0.243015,0.222405 -0.366242,0.330894 -0.03662,0.03224 -0.126316,0.08683 -0.138619,0.135579 -0.01103,0.04371 0.08471,0.119549 0.111256,0.149811 0.119808,0.136593 0.240682,0.272346 0.361699,0.407872 0.04849,0.0543 0.09694,0.108661 0.145334,0.163041 v -0.299388 c 0,-0.306909 -0.02667,-0.615067 -0.08339,-0.9160406 z M 7.9224876,10.669781 c -0.04967,-6.8e-4 -0.115382,0.104406 -0.145034,0.138618 -0.119033,0.13734 -0.240235,0.273615 -0.362734,0.407872 -0.349951,0.38354 -0.691544,0.775611 -1.034546,1.16538 -0.118654,0.134831 -0.252358,0.265264 -0.372222,0.403527 0.141734,0.111964 0.32063,0.179145 0.516086,0.179145 h 5.1891334 c 0.192317,0 0.368999,-0.06454 0.509639,-0.173265 -0.121156,-0.140447 -0.256969,-0.272669 -0.377301,-0.409407 -0.343,-0.389768 -0.684595,-0.781841 -1.034546,-1.16538 -0.122499,-0.134257 -0.2437,-0.270532 -0.362734,-0.407872 -0.02965,-0.03421 -0.09536,-0.13928 -0.145033,-0.138618 -0.03376,4.52e-4 -0.06814,0.04814 -0.09158,0.06849 -0.08197,0.07117 -0.161764,0.14545 -0.2413884,0.219238 -0.245254,0.227276 -0.496569,0.516821 -0.857405,0.516821 -0.360836,0 -0.612118,-0.289545 -0.857372,-0.516821 -0.07962,-0.07379 -0.159422,-0.148066 -0.241388,-0.219238 -0.02344,-0.02036 -0.05782,-0.06804 -0.09158,-0.06849 z m -2.06388,1.961883 c 0.01685,0.02244 0.03473,0.04396 0.05372,0.06455 -0.01898,-0.02058 -0.03688,-0.04212 -0.05372,-0.06455 z m 0.06876,0.08112 c 0.02366,0.02431 0.04876,0.04712 0.07524,0.06839 -0.02647,-0.02126 -0.05159,-0.04409 -0.07524,-0.06839 z" />
  <path
     id="path5-7"
     style="fill:currentColor;stroke:none;stroke-width:0.017106"
     d="m 7.7536986,4.4978522 c -0.292156,-0.00215 -0.604209,0.1564607 -0.806421,0.3323976 -0.07979,0.069425 -0.261304,0.2200884 -0.2611,0.3371756 1.83e-4,0.1055513 0.208713,0.2384189 0.278206,0.307908 0.265632,0.2656154 0.524906,0.5327941 0.745414,0.838194 0.55602,0.7700788 0.794127,1.6583236 0.794127,2.6001127 C 8.6903156,8.7292143 8.7827326,8.3566914 8.8532276,8.1096579 9.1024286,7.2363854 9.0030456,6.3043304 8.6455826,5.4753334 8.5279806,5.2025984 8.3755366,4.7921912 8.1275586,4.6138192 8.0151766,4.5329822 7.8864976,4.4988173 7.7536986,4.4978522 Z m 1.568775,0.6157158 c -0.1517,0.00757 -0.305521,0.052443 -0.442217,0.1051755 0.122562,0.3159055 0.255812,0.6241328 0.324947,0.9579359 0.04751,0.2294099 0.03297,0.5202705 0.117069,0.7355584 0.09117,0.2334061 0.284656,0.4358806 0.390899,0.6671341 0.279583,0.6085503 0.3987174,1.2663125 0.3987174,1.9329788 C 10.290067,9.3360503 10.381182,8.9789042 10.449031,8.7425801 10.702342,7.8602765 10.60277,6.9516889 10.262402,6.1082556 10.154234,5.8402153 9.9880986,5.4099317 9.7519616,5.2322412 9.6237346,5.1357522 9.4741726,5.1060012 9.3224736,5.113568 Z m 1.2341714,0.8407333 c 0.02604,0.1738132 0.118482,0.3447242 0.170626,0.5131804 0.08264,0.2669914 0.133789,0.5439219 0.166616,0.8210884 0.02364,0.1995639 0.03818,0.4150397 0.01908,0.615816 -0.01182,0.1241779 -0.05766,0.2881018 -0.03461,0.4105442 0.03987,0.2118141 0.184382,0.4231255 0.247569,0.6329222 0.138207,0.4588835 0.200494,0.9416071 0.200494,1.4197985 0.164416,-0.198432 0.250661,-0.5095991 0.325415,-0.7526641 0.2705,-0.879536 0.165461,-1.8080136 -0.174902,-2.651431 C 11.307388,6.5434253 11.078,5.965064 10.55665,5.9543013 Z M 5.3392126,7.8991072 c -0.06991,-5.456e-4 -0.14151,0.00853 -0.188066,0.015204 -0.306375,0.043891 -0.681405,0.193466 -0.744645,0.5374696 -0.03862,0.2100724 0.08121,0.4998338 0.138719,0.701346 0.226458,0.793573 0.785379,1.6871562 1.700711,1.7619192 -0.09854,-0.2083 -0.248646,-0.393009 -0.354816,-0.598711 -0.220359,-0.4269375 -0.351603,-0.9039639 -0.363403,-1.3855862 -0.0057,-0.233413 -0.02338,-0.4869616 0.007,-0.7184522 0.0084,-0.064179 0.04129,-0.2235883 -0.01758,-0.2706554 -0.03981,-0.031834 -0.108031,-0.041983 -0.177943,-0.042532 z m 1.184825,0.04106 c -0.178824,0 -0.343386,0.056772 -0.478768,0.1520167 0.03009,0.024957 0.06011,0.049398 0.08753,0.07417 l 0.51612,0.4661387 1.55658,1.4067684 0.424543,0.382914 c 0.142709,0.1289 0.276571,0.264876 0.482777,0.264876 0.205848,0 0.340179,-0.136505 0.48281,-0.264876 0.138862,-0.124978 0.278712,-0.248837 0.4162244,-0.375296 0.322225,-0.2963256 0.647655,-0.5893265 0.973338,-0.8820287 -0.01396,-0.05404 -0.02894,-0.1077463 -0.045,-0.1610705 -0.025,-0.083019 -0.07242,-0.1816324 -0.122716,-0.2899335 -0.03491,-0.075166 -0.07364,-0.1612165 -0.101935,-0.2525138 -0.0215,0.1117777 -0.04811,0.2234201 -0.08008,0.3347699 -0.05993,0.2087444 -0.163035,0.6323717 -0.387156,0.854131 L 9.9179446,9.9771184 V 9.5123501 c 0,-0.5412923 -0.08125,-1.0723448 -0.265444,-1.5721825 h -0.556513 c -0.01639,0.074544 -0.03511,0.1488186 -0.0562,0.2227126 -0.06228,0.2182646 -0.166819,0.6584624 -0.399452,0.8886432 l -0.33036,0.3268852 V 8.9136395 c 0,-0.3340719 -0.03073,-0.6592967 -0.09589,-0.9734719 z m 5.4307564,0.035785 c 0.01394,0.094974 0.02472,0.1903799 0.03217,0.2860578 l 0.10591,-0.095654 c 0.02909,-0.02627 0.0611,-0.052172 0.09301,-0.078714 -0.07003,-0.048317 -0.147769,-0.086354 -0.231098,-0.11169 z m 0.247101,0.1234839 c 0.02437,0.017694 0.04776,0.036617 0.07003,0.056797 -0.02228,-0.020202 -0.04563,-0.039091 -0.07003,-0.056797 z m -6.1732634,0.00481 c -0.02159,0.016002 -0.04228,0.032977 -0.06218,0.050949 0.01989,-0.017955 0.04061,-0.034964 0.06218,-0.050949 z M 5.8686636,8.258167 c -0.07446,0.094879 -0.128699,0.2064798 -0.156326,0.3283884 0.0016,0.1110249 0.0065,0.2258105 0.0093,0.3394476 0.01102,0.4495614 0.134075,0.898861 0.341819,1.30136 0.08199,0.15885 0.259662,0.397295 0.35779,0.604724 l 0.14363,0.303598 -0.334769,-0.02733 c -0.19453,-0.01589 -0.373914,-0.06392 -0.538483,-0.137014 v 0.631452 c 0,0.18227 0.05867,0.349944 0.157296,0.486753 0.103546,-0.113795 0.197253,-0.246512 0.293608,-0.353579 0.360082,-0.400114 0.711405,-0.808309 1.073034,-1.20701 0.12713,-0.140161 0.253568,-0.281515 0.377502,-0.424509 0.02911,-0.03359 0.119626,-0.103383 0.119608,-0.1498451 -1.6e-5,-0.043579 -0.09286,-0.1033693 -0.12315,-0.1296645 C 7.4655806,9.7173276 7.3450896,9.6054033 7.2232806,9.4953826 L 6.1910736,8.5630715 C 6.0837986,8.4661775 5.9789856,8.3572903 5.8686656,8.2581703 Z m 6.5044254,0.00581 c -0.122243,0.1167475 -0.247422,0.2306207 -0.373927,0.3431891 -0.0028,0.3561933 -0.05391,0.71371 -0.161905,1.0648493 -0.06997,0.2275007 -0.164483,0.5816086 -0.361498,0.8193846 l -0.240921,0.290768 c 0.257816,0.290174 0.51488,0.58104 0.773412,0.870569 l 0.332966,0.374561 c 0.0169,0.01892 0.03353,0.03895 0.05031,0.0592 0.0715,-0.100303 0.121248,-0.217275 0.142494,-0.344157 V 11.742314 9.3136616 8.6330632 C 12.51099,8.4955285 12.45449,8.3696197 12.373083,8.2639813 Z m -1.324011,1.1876313 c -0.01002,0.0094 -0.02005,0.018798 -0.03003,0.028234 -0.119358,0.1127111 -0.243015,0.2224046 -0.366242,0.3308942 -0.03662,0.032242 -0.126316,0.086827 -0.138619,0.1355785 -0.01103,0.043709 0.08471,0.119549 0.111256,0.149811 0.119808,0.136593 0.240682,0.272346 0.361699,0.407872 0.04849,0.0543 0.09694,0.108661 0.145334,0.163041 v -0.299388 c 0,-0.306909 -0.02667,-0.6150664 -0.08339,-0.9160404 z M 7.9224876,10.140627 c -0.04967,-6.8e-4 -0.115382,0.104406 -0.145034,0.138618 -0.119033,0.13734 -0.240235,0.273615 -0.362734,0.407872 -0.349951,0.38354 -0.691544,0.775611 -1.034546,1.165379 -0.118654,0.134832 -0.252358,0.265264 -0.372222,0.403528 0.141734,0.111963 0.32063,0.179145 0.516086,0.179145 h 5.1891334 c 0.192317,0 0.368999,-0.06454 0.509639,-0.173265 -0.121156,-0.140447 -0.256969,-0.272669 -0.377301,-0.409408 -0.343,-0.389766 -0.684595,-0.78184 -1.034546,-1.165379 -0.122499,-0.134257 -0.2437,-0.270532 -0.362734,-0.407872 -0.02965,-0.03421 -0.09536,-0.13928 -0.145033,-0.138618 -0.03376,4.52e-4 -0.06814,0.04814 -0.09158,0.06849 -0.08197,0.07117 -0.161764,0.14545 -0.2413884,0.219237 -0.245254,0.227276 -0.496569,0.516822 -0.857405,0.516822 -0.360836,0 -0.612118,-0.289546 -0.857372,-0.516822 -0.07962,-0.07379 -0.159422,-0.148066 -0.241388,-0.219237 -0.02344,-0.02036 -0.05782,-0.06804 -0.09158,-0.06849 z m -2.06388,1.961882 c 0.01685,0.02244 0.03473,0.04396 0.05372,0.06455 -0.01898,-0.02058 -0.03688,-0.04212 -0.05372,-0.06455 z m 0.06876,0.08112 c 0.02366,0.02431 0.04876,0.04712 0.07524,0.06839 -0.02647,-0.02126 -0.05159,-0.04409 -0.07524,-0.06839 z"
     class="ColorScheme-Text" />
  <path
     id="gradient-path1"
     style="opacity:0.3;baseline-shift:baseline;display:inline;overflow:visible;vector-effect:none;enable-background:accumulate;stop-color:#000000;stop-opacity:1;fill:url(#linearGradient4)"
     d="M 8.4453131 1.2753492 C 4.4913166 1.2753492 1.2794833 4.4784283 1.2794833 8.4236094 C 1.2794833 12.36879 4.4913166 15.572386 8.4453131 15.572386 C 12.39931 15.572386 15.611143 12.36879 15.611143 8.4236094 C 15.611143 4.4784283 12.39931 1.2753492 8.4453131 1.2753492 z " />
</svg>
