<?xml version="1.0" encoding="UTF-8" standalone="no"?>
<svg
   width="64"
   height="64"
   version="1.1"
   viewBox="0 0 16.933 16.933"
   id="svg7"
   sodipodi:docname="clion.svg"
   inkscape:version="1.4.2 (ebf0e940d0, 2025-05-08)"
   xmlns:inkscape="http://www.inkscape.org/namespaces/inkscape"
   xmlns:sodipodi="http://sodipodi.sourceforge.net/DTD/sodipodi-0.dtd"
   xmlns:xlink="http://www.w3.org/1999/xlink"
   xmlns="http://www.w3.org/2000/svg"
   xmlns:svg="http://www.w3.org/2000/svg"
   xmlns:rdf="http://www.w3.org/1999/02/22-rdf-syntax-ns#"
   xmlns:cc="http://creativecommons.org/ns#"
   xmlns:dc="http://purl.org/dc/elements/1.1/">
  <sodipodi:namedview
     id="namedview7"
     pagecolor="#9c4444"
     bordercolor="#000000"
     borderopacity="0.25"
     inkscape:showpageshadow="2"
     inkscape:pageopacity="0.0"
     inkscape:pagecheckerboard="0"
     inkscape:deskcolor="#d1d1d1"
     inkscape:zoom="8.7062522"
     inkscape:cx="72.591511"
     inkscape:cy="29.059576"
     inkscape:window-width="2560"
     inkscape:window-height="1388"
     inkscape:window-x="0"
     inkscape:window-y="0"
     inkscape:window-maximized="1"
     inkscape:current-layer="svg7"
     showgrid="false" />
  <defs
     id="defs2">
    <filter
       style="color-interpolation-filters:sRGB;"
       inkscape:label="Blur"
       id="filter3"
       x="-0.10843471"
       y="-0.10870992"
       width="1.2168694"
       height="1.2174198">
      <feGaussianBlur
         stdDeviation="0.5 0.5"
         result="blur"
         id="feGaussianBlur3" />
    </filter>
    <style
       id="current-color-scheme"
       type="text/css">.ColorScheme-Text {color:#d8dee9} .ColorScheme-Highlight {color:#3b4252}</style>
    <linearGradient
       id="linearGradient3"
       inkscape:collect="always">
      <stop
         style="stop-color:#000000;stop-opacity:1;"
         offset="0"
         id="stop3" />
      <stop
         style="stop-color:#000000;stop-opacity:0;"
         offset="1"
         id="stop4" />
    </linearGradient>
    <linearGradient
       inkscape:collect="always"
       xlink:href="#linearGradient3"
       id="linearGradient4"
       x1="13.512321"
       y1="13.490874"
       x2="3.3783066"
       y2="3.3568602"
       gradientUnits="userSpaceOnUse" />
  </defs>
  <metadata
     id="metadata2">
    <rdf:RDF>
      <cc:Work
         rdf:about="">
        <dc:format>image/svg+xml</dc:format>
        <dc:type
           rdf:resource="http://purl.org/dc/dcmitype/StillImage" />
      </cc:Work>
    </rdf:RDF>
  </metadata>
  <ellipse
     style="opacity:1;fill:none;stroke:#000000;stroke-width:0.582072;stroke-dasharray:none;stroke-opacity:1;filter:url(#filter3)"
     id="path1-5"
     cx="8.4450111"
     cy="8.423522"
     rx="6.8752708"
     ry="6.8578653" />
  <ellipse
     style="opacity:1;fill:none;stroke-width:0.58207188;stroke-opacity:1;stroke:currentColor;stroke-dasharray:none;fill-opacity:1"
     id="path1"
     cx="8.4450111"
     cy="8.423522"
     rx="6.8752708"
     ry="6.8578653"
     class="ColorScheme-Text" />
  <ellipse
     style="fill:currentColor;stroke:none;stroke-width:0.285844;stroke-dasharray:none;stroke-opacity:1"
     id="path1-2"
     cx="8.4557552"
     cy="8.423522"
     rx="6.5738997"
     ry="6.5692253"
     class="ColorScheme-Highlight" />
  <path
     id="path5"
     style="opacity:0.3;fill:#000000;fill-opacity:1;stroke-width:0.720611;paint-order:stroke fill markers"
     d="M 8.4665,5.0269844 A 4.039541,3.9686719 0 0 0 4.426959,8.9956563 4.039541,3.9686719 0 0 0 8.4665,12.964328 4.039541,3.9686719 0 0 0 12.506041,8.9956563 4.039541,3.9686719 0 0 0 8.4665,5.0269844 Z M 6.576841,6.1608905 h 3.779318 c 0.523531,0 0.945106,0.4215768 0.945106,0.9451066 v 3.7793179 c 0,0.52353 -0.421575,0.945107 -0.945106,0.945107 H 6.576841 c -0.52353,0 -0.945107,-0.421577 -0.945107,-0.945107 V 7.1059971 c 0,-0.5235298 0.421577,-0.9451066 0.945107,-0.9451066 z m 0.779837,0.6156758 c -0.734318,0 -1.109268,0.5265227 -1.109268,1.2072669 0,0.6807431 0.402093,1.2464206 1.109268,1.2335659 0.454307,0 0.73029,-0.1785468 0.970299,-0.4457004 L 8.022461,8.4616462 C 7.836027,8.6352234 7.623833,8.7730828 7.356678,8.773083 6.94523,8.773083 6.6947,8.3889136 6.692557,7.9774661 c 0.0022,-0.41073 0.266246,-0.7571373 0.664121,-0.7571373 0.240725,0 0.444304,0.089133 0.631455,0.2627142 L 8.278254,7.1358948 C 8.051099,6.9087442 7.810985,6.7765663 7.356678,6.7765663 Z m 1.331564,0 v 2.4408328 h 1.553031 V 8.7739134 H 9.132004 V 6.7765663 Z M 6.025944,10.770983 v 0.443763 h 2.218814 v -0.443763 z" />
  <path
     id="path5-6"
     style="fill:currentColor;stroke-width:0.720611;paint-order:stroke fill markers"
     d="M 8.4665,4.4978279 A 4.039541,3.9686719 0 0 0 4.426959,8.4664998 4.039541,3.9686719 0 0 0 8.4665,12.435172 4.039541,3.9686719 0 0 0 12.506041,8.4664998 4.039541,3.9686719 0 0 0 8.4665,4.4978279 Z M 6.576841,5.631734 h 3.779318 c 0.523531,0 0.945106,0.4215768 0.945106,0.9451066 v 3.7793184 c 0,0.52353 -0.421575,0.945106 -0.945106,0.945106 H 6.576841 c -0.52353,0 -0.945107,-0.421576 -0.945107,-0.945106 V 6.5768406 c 0,-0.5235298 0.421577,-0.9451066 0.945107,-0.9451066 z m 0.779837,0.6156758 c -0.734318,0 -1.109268,0.5265227 -1.109268,1.2072669 0,0.6807431 0.402093,1.2464206 1.109268,1.2335659 0.454307,0 0.73029,-0.1785468 0.970299,-0.4457004 L 8.022461,7.9324897 C 7.836027,8.1060669 7.623833,8.2439263 7.356678,8.2439265 c -0.411448,0 -0.661978,-0.3841694 -0.664121,-0.7956169 0.0022,-0.41073 0.266246,-0.7571373 0.664121,-0.7571373 0.240725,0 0.444304,0.089133 0.631455,0.2627142 L 8.278254,6.6067383 C 8.051099,6.3795877 7.810985,6.2474098 7.356678,6.2474098 Z m 1.331564,0 v 2.4408328 h 1.553031 V 8.2447569 H 9.132004 V 6.2474098 Z M 6.025944,10.241827 v 0.443763 h 2.218814 v -0.443763 z"
     class="ColorScheme-Text" />
  <path
     id="gradient-path1"
     style="opacity:0.3;baseline-shift:baseline;display:inline;overflow:visible;vector-effect:none;enable-background:accumulate;stop-color:#000000;stop-opacity:1;fill:url(#linearGradient4)"
     d="M 8.4453131 1.2753492 C 4.4913166 1.2753492 1.2794833 4.4784283 1.2794833 8.4236094 C 1.2794833 12.36879 4.4913166 15.572386 8.4453131 15.572386 C 12.39931 15.572386 15.611143 12.36879 15.611143 8.4236094 C 15.611143 4.4784283 12.39931 1.2753492 8.4453131 1.2753492 z " />
</svg>
