<?xml version="1.0" encoding="UTF-8" standalone="no"?>
<svg
   width="64"
   height="64"
   version="1.1"
   viewBox="0 0 16.933 16.933"
   id="svg7"
   sodipodi:docname="com.vysp3r.ProtonPlus.svg"
   inkscape:version="1.4.2 (ebf0e940d0, 2025-05-08)"
   xmlns:inkscape="http://www.inkscape.org/namespaces/inkscape"
   xmlns:sodipodi="http://sodipodi.sourceforge.net/DTD/sodipodi-0.dtd"
   xmlns:xlink="http://www.w3.org/1999/xlink"
   xmlns="http://www.w3.org/2000/svg"
   xmlns:svg="http://www.w3.org/2000/svg"
   xmlns:rdf="http://www.w3.org/1999/02/22-rdf-syntax-ns#"
   xmlns:cc="http://creativecommons.org/ns#"
   xmlns:dc="http://purl.org/dc/elements/1.1/">
  <sodipodi:namedview
     id="namedview7"
     pagecolor="#9c4444"
     bordercolor="#000000"
     borderopacity="0.25"
     inkscape:showpageshadow="2"
     inkscape:pageopacity="0.0"
     inkscape:pagecheckerboard="0"
     inkscape:deskcolor="#d1d1d1"
     inkscape:zoom="4.3531261"
     inkscape:cx="36.066035"
     inkscape:cy="26.417797"
     inkscape:window-width="2560"
     inkscape:window-height="1392"
     inkscape:window-x="0"
     inkscape:window-y="0"
     inkscape:window-maximized="1"
     inkscape:current-layer="svg7"
     showgrid="false" />
  <defs
     id="defs2">
    <filter
       style="color-interpolation-filters:sRGB;"
       inkscape:label="Blur"
       id="filter3"
       x="-0.10843471"
       y="-0.10870992"
       width="1.2168694"
       height="1.2174198">
      <feGaussianBlur
         stdDeviation="0.5 0.5"
         result="blur"
         id="feGaussianBlur3" />
    </filter>
    <style
       id="current-color-scheme"
       type="text/css">.ColorScheme-Text {color:#d8dee9} .ColorScheme-Highlight {color:#3b4252}</style>
    <linearGradient
       id="linearGradient3"
       inkscape:collect="always">
      <stop
         style="stop-color:#000000;stop-opacity:1;"
         offset="0"
         id="stop3" />
      <stop
         style="stop-color:#000000;stop-opacity:0;"
         offset="1"
         id="stop4" />
    </linearGradient>
    <linearGradient
       inkscape:collect="always"
       xlink:href="#linearGradient3"
       id="linearGradient4"
       x1="13.512321"
       y1="13.490874"
       x2="3.3783066"
       y2="3.3568602"
       gradientUnits="userSpaceOnUse" />
  </defs>
  <metadata
     id="metadata2">
    <rdf:RDF>
      <cc:Work
         rdf:about="">
        <dc:format>image/svg+xml</dc:format>
        <dc:type
           rdf:resource="http://purl.org/dc/dcmitype/StillImage" />
      </cc:Work>
    </rdf:RDF>
  </metadata>
  <ellipse
     style="opacity:1;fill:none;stroke:#000000;stroke-width:0.582072;stroke-dasharray:none;stroke-opacity:1;filter:url(#filter3)"
     id="path1-5"
     cx="8.4450111"
     cy="8.423522"
     rx="6.8752708"
     ry="6.8578653" />
  <ellipse
     style="opacity:1;fill:none;stroke-width:0.58207188;stroke-opacity:1;stroke:currentColor;stroke-dasharray:none;fill-opacity:1"
     id="path1"
     cx="8.4450111"
     cy="8.423522"
     rx="6.8752708"
     ry="6.8578653"
     class="ColorScheme-Text" />
  <ellipse
     style="fill:currentColor;stroke:none;stroke-width:0.285844;stroke-dasharray:none;stroke-opacity:1"
     id="path1-2"
     cx="8.4557552"
     cy="8.423522"
     rx="6.5738997"
     ry="6.5692253"
     class="ColorScheme-Highlight" />
  <path
     id="rect5"
     style="display:inline;opacity:0.3;mix-blend-mode:normal;vector-effect:none;fill:#000000;fill-opacity:1;stroke:#000000;stroke-width:0.0755581;stroke-linecap:butt;stroke-linejoin:miter;stroke-miterlimit:4;stroke-dasharray:0.0755581, 0.0755581;stroke-dashoffset:0;stroke-opacity:0;marker:none;marker-start:none;marker-mid:none;marker-end:none;paint-order:normal;enable-background:new"
     d="m 5.948271,5.0647634 c -0.782616,0 -1.412664,0.6300484 -1.412664,1.4126646 v 5.036456 c 0,0.782617 0.630048,1.412665 1.412664,1.412665 h 5.036457 c 0.782616,0 1.412665,-0.630048 1.412665,-1.412665 V 6.477428 c 0,-0.7826162 -0.630049,-1.4126646 -1.412665,-1.4126646 z M 8.255128,6.182323 c 0.467386,0.00196 0.934809,6.057e-4 1.402108,0.010797 0.260296,0.014964 0.524971,0.096053 0.725166,0.2682337 0.07211,0.059531 0.1294,0.1337732 0.18606,0.2074131 0.05076,0.074047 0.09428,0.1532968 0.130998,0.2352442 0.01973,0.032753 0.02192,0.073375 0.04283,0.1040065 0.02499,0.09454 0.05158,0.1892239 0.06142,0.2869478 0.02949,0.2664052 0.01143,0.5387171 -0.05506,0.7984628 -0.01368,0.037238 -0.01,0.081474 -0.03227,0.1146824 -0.01015,0.041321 -0.02302,0.079872 -0.03863,0.1204412 C 10.62081,8.4845585 10.5465,8.6335688 10.463259,8.7770876 10.361606,8.9587316 10.225305,9.1186521 10.075065,9.2618508 10.004985,9.3311098 9.927741,9.3921382 9.848338,9.4501902 9.733855,9.5328612 9.609459,9.6021215 9.480416,9.659283 9.443636,9.677221 9.404926,9.687229 9.366573,9.69959 9.318183,9.714485 9.270373,9.732013 9.22058,9.741696 9.14334,9.75393 9.066784,9.772987 8.988575,9.777565 8.702804,9.789112 8.416788,9.788143 8.130851,9.792318 8.117641,9.84741 8.106801,9.9031046 8.097981,9.9590648 c -0.0028,0.042045 -0.02798,0.07785 -0.02328,0.1210402 -0.02156,0.03648 -0.0079,0.08197 -0.02927,0.118762 -0.02524,0.141968 -0.0556,0.283186 -0.08193,0.425023 -0.02098,0.08417 -0.02548,0.170912 -0.02663,0.257317 0.0024,0.03921 -0.0073,0.0828 0.01199,0.118402 0.0066,0.08241 0.05185,0.155119 0.09873,0.220969 0.04399,0.06397 0.106006,0.111878 0.171664,0.151871 0.02677,0.03159 0.09988,0.0293 0.09225,0.07893 -0.01348,0.09176 -0.03349,0.182453 -0.04786,0.274111 H 5.92476 c -0.02312,0.0053 -0.0045,-0.02552 -0.0065,-0.03839 0.01128,-0.05988 0.02063,-0.120359 0.03347,-0.179821 0.01467,-0.03733 0.01332,-0.08259 0.0625,-0.09381 0.138234,-0.06535 0.266428,-0.151074 0.381357,-0.2518 0.03163,-0.03187 0.07408,-0.06087 0.08541,-0.106525 0.03881,-0.0494 0.06475,-0.10724 0.09249,-0.163387 0.02427,-0.03488 0.02554,-0.07822 0.04498,-0.113604 0.02731,-0.146022 0.05876,-0.291461 0.08709,-0.437379 0.01293,-0.04754 0.01311,-0.107767 0.05806,-0.137955 0.06539,-0.03281 0.124206,-0.07734 0.189659,-0.109765 0.03071,-0.02144 0.06483,-0.03771 0.09069,-0.05806 0.102344,-0.053179 0.199461,-0.1158564 0.296905,-0.1774232 0.02268,-0.019305 0.08109,-0.043542 0.07977,-0.063219 -0.20122,-0.011236 -0.40293,-0.00627 -0.604365,-0.010436 -0.04024,-0.00307 -0.08368,0.00324 -0.121641,-0.010435 0.02036,-0.094117 0.03305,-0.1909951 0.02711,-0.2875471 C 6.714445,9.3263437 6.649165,9.1643065 6.52213,9.0629541 6.49235,9.0385448 6.44117,9.0167705 6.45951,8.9686648 6.47792,8.8944168 6.4887,8.818423 6.50917,8.7446967 c 0.172093,-0.00347 0.344171,-0.00494 0.516194,-0.010795 0.01666,-0.067054 0.02586,-0.1358703 0.04055,-0.2032164 0.02127,-0.033215 0.0041,-0.076363 0.02651,-0.1094046 C 7.125474,8.2280803 7.166304,8.0361416 7.204228,7.8437863 7.242088,7.662649 7.276468,7.4808463 7.313393,7.2995223 7.345143,7.1572018 7.363853,7.0073225 7.329103,6.8637025 7.296903,6.7632113 7.233373,6.6749757 7.160918,6.599427 7.132508,6.567459 7.094408,6.548106 7.058591,6.526371 7.027701,6.500811 6.961411,6.493096 6.970181,6.440238 c 0.01348,-0.08375 0.02962,-0.1671858 0.0463,-0.2503592 0.0096,-0.00202 0.01933,-0.0017 0.02903,-0.00228 0.403103,-0.00786 0.80641,-0.00481 1.20957,-0.00528 z m 0.451174,1.0626174 c -0.04255,2.396e-4 -0.0911,1.797e-4 -0.09549,0.052183 -0.02512,0.1466575 -0.05469,0.2926562 -0.08409,0.4385789 -0.01489,0.060821 -0.01832,0.1243576 -0.03971,0.1834211 -0.02407,0.1232041 -0.04631,0.2469142 -0.0709,0.3700807 -0.0063,0.0535 -0.03262,0.101855 -0.03803,0.1555897 -0.006,0.070433 -0.03216,0.1402174 -0.01764,0.2112517 0.0074,0.044699 0.05128,0.073168 0.09237,0.082053 0.112872,0.011334 0.226938,0.00286 0.33961,-0.0072 C 8.949372,8.721102 9.092005,8.6375733 9.20437,8.5317647 9.3037,8.4415005 9.370306,8.3231923 9.427018,8.2031906 9.442138,8.163448 9.458558,8.1271242 9.471878,8.0875474 9.519648,7.9225555 9.540078,7.743504 9.489988,7.5765122 9.451078,7.439228 9.351904,7.3147361 9.214437,7.2673731 9.199187,7.2623231 9.183257,7.2602431 9.167407,7.2580131 9.014401,7.2418851 8.859957,7.2396281 8.706276,7.2449381 Z m 1.169144,2.6427487 c 0.101704,7.924e-4 0.203476,0.00164 0.305181,0.00243 0.08004,0.00266 0.160987,-0.00481 0.240282,0.00779 0.04093,0.023972 -0.0035,0.082214 -0.0012,0.1205609 -0.02921,0.14207 -0.05879,0.284098 -0.08337,0.427063 -0.02326,0.0419 5.54e-4,0.0727 0.04774,0.06394 0.172855,0.004 0.345696,0.0013 0.518593,0.002 0.01179,0.0031 0.04121,-0.0087 0.03251,0.01187 -0.01803,0.09739 -0.03661,0.194598 -0.0541,0.292105 -0.008,0.02568 -0.0092,0.08843 -0.02028,0.09525 -2.99e-4,-3.74e-4 -5.54e-4,-6.79e-4 -8.49e-4,-8.49e-4 -5.7e-5,-2.7e-5 -3e-4,-10e-5 -3.45e-4,-1.2e-4 -5.5e-5,-1.2e-5 -2.99e-4,-1.14e-4 -3.44e-4,-1.2e-4 h -1.2e-4 c -5.3e-5,9e-6 -3.14e-4,1.04e-4 -3.44e-4,1.2e-4 h -1.2e-4 l -1.2e-4,1.2e-4 c -0.0058,0.0041 -0.0081,0.05051 -0.01176,0.06298 -0.01224,0.03404 0.0016,0.09607 -0.03911,0.107006 -0.154729,0.0096 -0.309916,0.0031 -0.464851,0.0062 -0.04492,0.0025 -0.09199,-0.0031 -0.135316,0.0095 -0.02167,0.05886 -0.01697,0.124374 -0.04091,0.182701 -0.01965,0.104401 -0.04061,0.208722 -0.0619,0.31286 -0.01365,0.03407 -2.24e-4,0.097 -0.04175,0.107246 -0.149826,0.008 -0.300099,0.0016 -0.449855,-0.0057 -0.02763,-0.0107 -0.104276,0.01246 -0.09765,-0.03011 0.01171,-0.05288 0.01546,-0.107568 0.02999,-0.159669 0.0184,-0.03439 0.0046,-0.07711 0.02639,-0.110965 0.0152,-0.102679 0.04435,-0.203037 0.0529,-0.306741 -0.192231,-9.06e-4 -0.384607,0.0023 -0.576774,-0.0031 -0.04241,0.0076 -0.03435,-0.01985 -0.02363,-0.04894 0.02509,-0.15218 0.05878,-0.302842 0.08637,-0.454533 -0.0067,-0.04905 0.03636,-0.06992 0.07929,-0.06502 0.178185,-0.0042 0.356554,-0.0013 0.534787,-0.0022 0.0242,0.0064 0.02113,-0.02838 0.02963,-0.04271 0.02186,-0.102936 0.04034,-0.20664 0.05974,-0.3101 -1.5e-4,-0.04171 0.02436,-0.07711 0.02459,-0.118042 0.0075,-0.042006 0.01944,-0.082147 0.02675,-0.125239 0.0033,-0.00923 0.0066,-0.018475 0.01,-0.027713 z" />
  <path
     id="rect5-7"
     class="ColorScheme-Text"
     style="display:inline;mix-blend-mode:normal;vector-effect:none;fill:currentColor;fill-opacity:1;stroke:#000000;stroke-width:0.0755581;stroke-linecap:butt;stroke-linejoin:miter;stroke-miterlimit:4;stroke-dasharray:0.0755581, 0.0755581;stroke-dashoffset:0;stroke-opacity:0;marker:none;marker-start:none;marker-mid:none;marker-end:none;paint-order:normal;enable-background:new"
     d="m 5.948271,4.5356071 c -0.782616,0 -1.412664,0.6300484 -1.412664,1.4126646 v 5.0364563 c 0,0.782617 0.630048,1.412665 1.412664,1.412665 h 5.036457 c 0.782616,0 1.412665,-0.630048 1.412665,-1.412665 V 5.9482717 c 0,-0.7826162 -0.630049,-1.4126646 -1.412665,-1.4126646 z m 2.306857,1.1175596 c 0.467386,0.00196 0.934809,6.057e-4 1.402108,0.010797 0.260296,0.014964 0.524971,0.096053 0.725166,0.2682337 0.07211,0.059531 0.1294,0.1337732 0.18606,0.2074131 0.05076,0.074047 0.09428,0.1532968 0.130998,0.2352442 0.01973,0.032753 0.02192,0.073375 0.04283,0.1040065 0.02499,0.09454 0.05158,0.1892239 0.06142,0.2869478 0.02949,0.2664052 0.01143,0.5387171 -0.05506,0.7984627 -0.01368,0.037238 -0.01,0.081474 -0.03227,0.1146824 -0.01015,0.041321 -0.02302,0.079872 -0.03863,0.1204413 -0.05694,0.1560067 -0.13125,0.3050171 -0.214491,0.4485355 -0.101653,0.181644 -0.237954,0.341565 -0.388194,0.484764 -0.07008,0.06926 -0.147324,0.130287 -0.226727,0.188339 -0.114483,0.08267 -0.238879,0.151931 -0.367922,0.209093 -0.03678,0.01794 -0.07549,0.02795 -0.113843,0.04031 -0.04839,0.01489 -0.0962,0.03242 -0.145993,0.04211 -0.07724,0.01223 -0.153796,0.03129 -0.232005,0.03587 -0.285771,0.01155 -0.571787,0.01058 -0.857724,0.01475 -0.01321,0.05509 -0.02405,0.110787 -0.03287,0.166747 -0.0028,0.04205 -0.02798,0.07785 -0.02328,0.12104 -0.02156,0.03648 -0.0079,0.08197 -0.02927,0.118762 -0.02524,0.141968 -0.0556,0.283186 -0.08193,0.4250231 -0.02098,0.08417 -0.02548,0.170912 -0.02663,0.257318 0.0024,0.03921 -0.0073,0.0828 0.01199,0.118401 0.0066,0.08241 0.05185,0.155119 0.09873,0.220969 0.04399,0.06397 0.106006,0.111878 0.171664,0.151871 0.02677,0.03158 0.09988,0.0293 0.09225,0.07893 -0.01348,0.09176 -0.03349,0.182454 -0.04786,0.274111 H 5.92476 c -0.02312,0.0053 -0.0045,-0.02552 -0.0065,-0.03839 0.01128,-0.05988 0.02063,-0.120358 0.03347,-0.179821 0.01467,-0.03733 0.01332,-0.08259 0.0625,-0.09381 0.138234,-0.06535 0.266428,-0.151074 0.381357,-0.251799 0.03163,-0.03187 0.07408,-0.06087 0.08541,-0.106526 0.03881,-0.0494 0.06475,-0.10724 0.09249,-0.163387 0.02427,-0.03489 0.02554,-0.07822 0.04498,-0.113604 0.02731,-0.146022 0.05876,-0.2914611 0.08709,-0.4373791 0.01293,-0.04754 0.01311,-0.107767 0.05806,-0.137955 0.06539,-0.03281 0.124206,-0.07734 0.189659,-0.109765 0.03071,-0.02144 0.06483,-0.03771 0.09069,-0.05806 0.102344,-0.05318 0.199461,-0.115856 0.296905,-0.177423 0.02268,-0.0193 0.08109,-0.04354 0.07977,-0.06322 -0.20122,-0.01124 -0.40293,-0.0063 -0.604365,-0.01044 -0.04024,-0.0031 -0.08368,0.0032 -0.121641,-0.01044 0.02036,-0.09412 0.03305,-0.190995 0.02711,-0.287547 -0.0073,-0.159595 -0.07258,-0.321632 -0.199615,-0.422984 -0.02978,-0.02441 -0.08096,-0.04618 -0.06262,-0.09429 0.01841,-0.07425 0.02919,-0.150242 0.04966,-0.223968 0.172093,-0.0035 0.344171,-0.0049 0.516194,-0.01079 0.01666,-0.067055 0.02586,-0.1358707 0.04055,-0.2032168 0.02127,-0.033214 0.0041,-0.076362 0.02651,-0.1094046 0.03305,-0.1932004 0.07388,-0.3851392 0.111804,-0.5774944 0.03786,-0.1811373 0.07224,-0.36294 0.109165,-0.544264 C 7.345143,6.6280405 7.363853,6.4781612 7.329103,6.3345412 7.296903,6.23405 7.233373,6.1458144 7.160918,6.0702657 7.132508,6.0382977 7.094408,6.0189447 7.058591,5.9972097 c -0.03089,-0.02556 -0.09718,-0.033275 -0.08841,-0.086133 0.01348,-0.08375 0.02962,-0.1671858 0.0463,-0.2503592 0.0096,-0.00202 0.01933,-0.0017 0.02903,-0.00228 0.403103,-0.00786 0.80641,-0.00481 1.20957,-0.00528 z m 0.451174,1.0626174 c -0.04255,2.396e-4 -0.0911,1.797e-4 -0.09549,0.052183 -0.02512,0.1466575 -0.05469,0.2926562 -0.08409,0.4385789 -0.01489,0.060821 -0.01832,0.1243576 -0.03971,0.1834211 -0.02407,0.1232041 -0.04631,0.2469142 -0.0709,0.3700807 -0.0063,0.0535 -0.03262,0.101855 -0.03803,0.1555896 -0.006,0.070433 -0.03216,0.1402175 -0.01764,0.2112518 0.0074,0.044699 0.05128,0.073168 0.09237,0.082054 0.112872,0.01133 0.226938,0.0029 0.33961,-0.0072 0.15695,-0.0098 0.299583,-0.093327 0.411948,-0.1991355 C 9.3037,7.9123437 9.370306,7.7940352 9.427018,7.6740336 9.442138,7.6342906 9.458558,7.5979676 9.471878,7.5583903 9.519648,7.3933985 9.540078,7.214347 9.489988,7.0473552 9.451078,6.910071 9.351904,6.7855791 9.214437,6.7382161 9.199187,6.7331661 9.183257,6.7310861 9.167407,6.7288561 9.014401,6.7127281 8.859957,6.7104711 8.706276,6.7157811 Z m 1.169144,2.6427488 c 0.101704,7.92e-4 0.203476,0.0016 0.305181,0.0024 0.08004,0.0027 0.160987,-0.0048 0.240282,0.0078 0.04093,0.02397 -0.0035,0.08221 -0.0012,0.120561 -0.02921,0.14207 -0.05879,0.284098 -0.08337,0.427062 -0.02326,0.0419 5.54e-4,0.07269 0.04774,0.06394 0.172855,0.004 0.345696,0.0013 0.518593,0.002 0.01179,0.0031 0.04121,-0.0087 0.03251,0.01187 -0.01803,0.09739 -0.03661,0.1945991 -0.0541,0.2921071 -0.008,0.02568 -0.0092,0.08843 -0.02028,0.09525 -2.99e-4,-3.75e-4 -5.54e-4,-6.8e-4 -8.49e-4,-8.49e-4 -5.7e-5,-2.8e-5 -3e-4,-1.01e-4 -3.45e-4,-1.21e-4 -5.5e-5,-1.2e-5 -2.99e-4,-1.14e-4 -3.44e-4,-1.19e-4 h -1.2e-4 c -5.3e-5,9e-6 -3.14e-4,1.03e-4 -3.44e-4,1.19e-4 h -1.2e-4 l -1.2e-4,1.21e-4 c -0.0058,0.0041 -0.0081,0.05051 -0.01176,0.06298 -0.01224,0.03404 0.0016,0.09607 -0.03911,0.107005 -0.154729,0.0096 -0.309916,0.0031 -0.464851,0.0062 -0.04492,0.0025 -0.09199,-0.0031 -0.135316,0.0095 -0.02167,0.05886 -0.01697,0.124374 -0.04091,0.182701 -0.01965,0.104401 -0.04061,0.208722 -0.0619,0.31286 -0.01365,0.03407 -2.24e-4,0.097 -0.04175,0.107246 -0.149826,0.008 -0.300099,0.0016 -0.449855,-0.0057 -0.02763,-0.0107 -0.104276,0.01246 -0.09765,-0.03011 0.01171,-0.05288 0.01546,-0.107568 0.02999,-0.159669 0.0184,-0.03439 0.0046,-0.07711 0.02639,-0.110965 0.0152,-0.102678 0.04435,-0.203037 0.0529,-0.306741 -0.192231,-9.05e-4 -0.384607,0.0023 -0.576774,-0.0031 -0.04241,0.0076 -0.03435,-0.01985 -0.02363,-0.04894 0.02509,-0.15218 0.05878,-0.302842 0.08637,-0.454533 -0.0067,-0.04905 0.03636,-0.06992 0.07929,-0.06502 0.178185,-0.0042 0.356554,-0.0013 0.534787,-0.0022 0.0242,0.0064 0.02113,-0.02838 0.02963,-0.04271 0.02186,-0.102937 0.04034,-0.206641 0.05974,-0.3101 -1.5e-4,-0.04171 0.02436,-0.07711 0.02459,-0.118042 0.0075,-0.04201 0.01944,-0.08215 0.02675,-0.12524 0.0033,-0.0092 0.0066,-0.01848 0.01,-0.02771 z" />
  <path
     id="gradient-path1"
     style="opacity:0.3;baseline-shift:baseline;display:inline;overflow:visible;vector-effect:none;enable-background:accumulate;stop-color:#000000;stop-opacity:1;fill:url(#linearGradient4)"
     d="M 8.4453131 1.2753492 C 4.4913166 1.2753492 1.2794833 4.4784283 1.2794833 8.4236094 C 1.2794833 12.36879 4.4913166 15.572386 8.4453131 15.572386 C 12.39931 15.572386 15.611143 12.36879 15.611143 8.4236094 C 15.611143 4.4784283 12.39931 1.2753492 8.4453131 1.2753492 z " />
</svg>
