<?xml version='1.0' encoding='UTF-8'?>
<svg xmlns:inkscape="http://www.inkscape.org/namespaces/inkscape" xmlns:sodipodi="http://sodipodi.sourceforge.net/DTD/sodipodi-0.dtd" xmlns="http://www.w3.org/2000/svg" xmlns:svg="http://www.w3.org/2000/svg" xmlns:rdf="http://www.w3.org/1999/02/22-rdf-syntax-ns#" xmlns:cc="http://creativecommons.org/ns#" xmlns:dc="http://purl.org/dc/elements/1.1/" width="64" height="64" version="1.1" viewBox="0 0 16.933 16.933" id="svg7" sodipodi:docname="com.mitchellh.ghostty.svg" inkscape:version="1.4.2 (ebf0e940d0, 2025-05-08)">
  <sodipodi:namedview id="namedview7" pagecolor="#9c4444" bordercolor="#000000" borderopacity="0.25" inkscape:showpageshadow="2" inkscape:pageopacity="0.0" inkscape:pagecheckerboard="0" inkscape:deskcolor="#d1d1d1" inkscape:zoom="4.3531261" inkscape:cx="36.755195" inkscape:cy="26.417797" inkscape:window-width="2560" inkscape:window-height="1376" inkscape:window-x="0" inkscape:window-y="0" inkscape:window-maximized="1" inkscape:current-layer="svg7" showgrid="false"/>
  <defs id="defs2">
    <filter style="color-interpolation-filters:sRGB;" inkscape:label="Blur" id="filter3" x="-0.10843471" y="-0.10870992" width="1.2168694" height="1.2174198">
      <feGaussianBlur stdDeviation="0.5 0.5" result="blur" id="feGaussianBlur3"/>
    </filter>
    <style id="current-color-scheme" type="text/css">.ColorScheme-Text {color:#d8dee9} .ColorScheme-Highlight {color:#3b4252}</style>
  <linearGradient id="linearGradient3" inkscape:collect="always">
      <stop style="stop-color:#000000;stop-opacity:1;" offset="0" id="stop3"/>
      <stop style="stop-color:#000000;stop-opacity:0;" offset="1" id="stop4"/>
    </linearGradient>
    <linearGradient xmlns:xlink="http://www.w3.org/1999/xlink" inkscape:collect="always" xlink:href="#linearGradient3" id="linearGradient4" x1="13.512321" y1="13.490874" x2="3.3783066" y2="3.3568602" gradientUnits="userSpaceOnUse"/>
  </defs>
  <metadata id="metadata2">
    <rdf:RDF>
      <cc:Work rdf:about="">
        <dc:format>image/svg+xml</dc:format>
        <dc:type rdf:resource="http://purl.org/dc/dcmitype/StillImage"/>
      </cc:Work>
    </rdf:RDF>
  </metadata>
  <ellipse style="opacity:1;fill:none;stroke:#000000;stroke-width:0.582072;stroke-dasharray:none;stroke-opacity:1;filter:url(#filter3)" id="path1-5" cx="8.4450111" cy="8.423522" rx="6.8752708" ry="6.8578653"/>
  <ellipse style="opacity:1;fill:none;stroke-width:0.58207188;stroke-opacity:1;stroke:currentColor;stroke-dasharray:none;fill-opacity:1" id="path1" cx="8.4450111" cy="8.423522" rx="6.8752708" ry="6.8578653" class="ColorScheme-Text"/>
  <ellipse style="fill:currentColor;stroke:none;stroke-width:0.285844;stroke-dasharray:none;stroke-opacity:1" id="path1-2" cx="8.4557552" cy="8.423522" rx="6.5738997" ry="6.5692253" class="ColorScheme-Highlight"/>
<path id="path3" style="opacity:0.3;fill:#000000;fill-opacity:1;stroke-width:0.297217" d="m 8.466209,5.0761959 c -1.731465,0 -3.135286,1.403804 -3.135286,3.135287 v 3.6409031 c 0,0.579007 0.47285,1.066473 1.051867,1.062317 0.241085,-0.0014 0.462847,-0.08481 0.639133,-0.223493 0.236203,-0.186028 0.561411,-0.186028 0.797608,0 0.177676,0.140049 0.401519,0.223493 0.646098,0.223493 0.244579,0 0.469002,-0.08344 0.646678,-0.223493 0.233433,-0.183944 0.558739,-0.192413 0.790063,-0.0064 0.193012,0.155385 0.442507,0.24334 0.712855,0.228718 0.556716,-0.03067 0.986852,-0.502596 0.986852,-1.059996 V 8.2114829 c 0,-1.731483 -1.404373,-3.135287 -3.135868,-3.135287 z m -1.937712,2.14321 c 0.05131,0.0013 0.103462,0.01494 0.15093,0.04238 l 1.168549,0.674543 v 5.81e-4 c 0.211826,0.122661 0.211826,0.428845 0,0.551476 l -1.168549,0.674542 c -0.152593,0.0878 -0.347005,0.03523 -0.434795,-0.116681 -0.08779,-0.152591 -0.0358,-0.347027 0.1161,-0.434795 L 7.052109,8.2126469 6.360732,7.8132629 c -0.151892,-0.0878 -0.203891,-0.282888 -0.1161,-0.434796 0.06036,-0.104435 0.170977,-0.161952 0.283865,-0.159057 z m 2.429978,0.673962 h 1.534845 c 0.176279,0 0.318695,0.141836 0.318695,0.318115 0,0.176279 -0.1431,0.318695 -0.318695,0.318695 H 8.958475 c -0.176279,0 -0.318695,-0.142416 -0.318695,-0.318695 0,-0.176279 0.143129,-0.318115 0.318695,-0.318115 z"/>
  <path id="path3-6" class="ColorScheme-Text" style="fill:currentColor;fill-opacity:1;stroke-width:0.297217" d="m 8.466209,4.5470461 c -1.731465,0 -3.135286,1.403804 -3.135286,3.135287 v 3.6409029 c 0,0.579007 0.47285,1.066473 1.051867,1.062317 0.241085,-0.0014 0.462847,-0.08481 0.639133,-0.223493 0.236203,-0.186028 0.561411,-0.186028 0.797608,0 0.177676,0.140049 0.401519,0.223493 0.646098,0.223493 0.244579,0 0.469002,-0.08344 0.646678,-0.223493 0.233433,-0.183944 0.558739,-0.192413 0.790063,-0.0064 0.193012,0.155385 0.442507,0.24334 0.712855,0.228718 0.556716,-0.03067 0.986852,-0.502596 0.986852,-1.059996 V 7.6823331 c 0,-1.731483 -1.404373,-3.135287 -3.135868,-3.135287 z m -1.937712,2.14321 c 0.05131,0.0013 0.103462,0.01494 0.15093,0.04238 l 1.168549,0.674543 v 5.81e-4 c 0.211826,0.122661 0.211826,0.428845 0,0.551476 l -1.168549,0.674542 c -0.152593,0.0878 -0.347005,0.03523 -0.434795,-0.116681 -0.08779,-0.152591 -0.0358,-0.347027 0.1161,-0.434795 L 7.052109,7.6834971 6.360732,7.2841131 c -0.151892,-0.0878 -0.203891,-0.282888 -0.1161,-0.434796 0.06036,-0.104435 0.170977,-0.161952 0.283865,-0.159057 z m 2.429978,0.673962 h 1.534845 c 0.176279,0 0.318695,0.141836 0.318695,0.318115 0,0.176279 -0.1431,0.318695 -0.318695,0.318695 H 8.958475 c -0.176279,0 -0.318695,-0.142416 -0.318695,-0.318695 0,-0.176279 0.143129,-0.318115 0.318695,-0.318115 z"/>
<path id="gradient-path1" style="opacity:0.3;baseline-shift:baseline;display:inline;overflow:visible;vector-effect:none;enable-background:accumulate;stop-color:#000000;stop-opacity:1;fill:url(#linearGradient4)" d="M 8.4453131 1.2753492 C 4.4913166 1.2753492 1.2794833 4.4784283 1.2794833 8.4236094 C 1.2794833 12.36879 4.4913166 15.572386 8.4453131 15.572386 C 12.39931 15.572386 15.611143 12.36879 15.611143 8.4236094 C 15.611143 4.4784283 12.39931 1.2753492 8.4453131 1.2753492 z "/>
</svg>
