<?xml version='1.0' encoding='UTF-8'?>
<svg xmlns:inkscape="http://www.inkscape.org/namespaces/inkscape" xmlns:sodipodi="http://sodipodi.sourceforge.net/DTD/sodipodi-0.dtd" xmlns:xlink="http://www.w3.org/1999/xlink" xmlns="http://www.w3.org/2000/svg" xmlns:svg="http://www.w3.org/2000/svg" xmlns:rdf="http://www.w3.org/1999/02/22-rdf-syntax-ns#" xmlns:cc="http://creativecommons.org/ns#" xmlns:dc="http://purl.org/dc/elements/1.1/" width="64" height="64" version="1.1" viewBox="0 0 16.933 16.933" id="svg7" sodipodi:docname="Misc.svg" inkscape:version="1.4 (e7c3feb100, 2024-10-09)">
  <sodipodi:namedview id="namedview7" pagecolor="#9c4444" bordercolor="#000000" borderopacity="0.25" inkscape:showpageshadow="2" inkscape:pageopacity="0.0" inkscape:pagecheckerboard="0" inkscape:deskcolor="#d1d1d1" inkscape:zoom="4.3531261" inkscape:cx="36.755195" inkscape:cy="25.958357" inkscape:window-width="1280" inkscape:window-height="669" inkscape:window-x="24" inkscape:window-y="205" inkscape:window-maximized="0" inkscape:current-layer="svg7" showgrid="false"/>
  <defs id="defs2">
    <filter style="color-interpolation-filters:sRGB;" inkscape:label="Blur" id="filter3" x="-0.10843471" y="-0.10870992" width="1.2168694" height="1.2174198">
      <feGaussianBlur stdDeviation="0.5 0.5" result="blur" id="feGaussianBlur3"/>
    </filter>
    <style id="current-color-scheme" type="text/css">.ColorScheme-Text {color:#d8dee9} .ColorScheme-Highlight {color:#3b4252}</style><linearGradient id="linearGradient3" inkscape:collect="always">
      <stop style="stop-color:#000000;stop-opacity:1;" offset="0" id="stop3"/>
      <stop style="stop-color:#000000;stop-opacity:0;" offset="1" id="stop4"/>
    </linearGradient>
    <linearGradient inkscape:collect="always" xlink:href="#linearGradient3" id="linearGradient4" x1="13.512321" y1="13.490874" x2="3.3783066" y2="3.3568602" gradientUnits="userSpaceOnUse"/>
  </defs>
  <metadata id="metadata2">
    <rdf:RDF>
      <cc:Work rdf:about="">
        <dc:format>image/svg+xml</dc:format>
        <dc:type rdf:resource="http://purl.org/dc/dcmitype/StillImage"/>
      </cc:Work>
    </rdf:RDF>
  </metadata>
  <ellipse style="opacity:1;fill:none;stroke:#000000;stroke-width:0.582072;stroke-dasharray:none;stroke-opacity:1;filter:url(#filter3)" id="path1-5" cx="8.4450111" cy="8.423522" rx="6.8752708" ry="6.8578653"/>
  <ellipse style="opacity:1;fill:none;stroke-width:0.58207188;stroke-opacity:1;stroke:currentColor;stroke-dasharray:none;fill-opacity:1" id="path1" cx="8.4450111" cy="8.423522" rx="6.8752708" ry="6.8578653" class="ColorScheme-Text"/>
  <ellipse style="fill:currentColor;stroke:none;stroke-width:0.285844;stroke-dasharray:none;stroke-opacity:1" id="path1-2" cx="8.4557552" cy="8.423522" rx="6.5738997" ry="6.5692253" class="ColorScheme-Highlight"/>
<path style="fill:#000000;fill-opacity:1;stroke-width:0.171853;opacity:0.3" d="m 8.4665002,5.8231697 c 0,0 -2.7135717,0.00156 -2.7824852,0.042963 -0.1464193,0.087817 -0.1390298,-0.020966 -0.1390298,2.0252968 0,2.0765097 -0.00257,2.034921 0.1570746,2.4375755 0.1837116,0.463146 0.4796438,0.854629 0.9653028,1.280139 0.4076372,0.356941 0.8908901,0.680197 1.4299956,0.954648 0.1823367,0.0928 0.2765127,0.135076 0.369142,0.13353 0.092629,0.0016 0.1868051,-0.04073 0.3691418,-0.13353 0.5391054,-0.274451 1.0223588,-0.597707 1.429996,-0.954648 0.485659,-0.42551 0.781591,-0.816993 0.965304,-1.280139 0.15965,-0.4026545 0.157071,-0.3610657 0.157071,-2.4375755 0,-2.0462632 0.0075,-1.9374799 -0.139028,-2.0252969 -0.06892,-0.041416 -2.7824848,-0.042964 -2.7824848,-0.042963 z m 0,1.0311228 h 1.8903928 v 2.7496611 c 0,0 -0.0011,0.1342178 -0.08455,0.3450826 C 10.154969,10.244796 9.9922237,10.478345 9.5863045,10.83374 9.2781706,11.10355 8.8897811,11.353425 8.4665052,11.578897 Z" id="path4-2"/>
  <path style="fill:currentColor;fill-opacity:1;stroke-width:0.171853" d="m 8.4665002,5.2940135 c 0,0 -2.7135717,0.00156 -2.7824852,0.042963 -0.1464193,0.087817 -0.1390298,-0.020966 -0.1390298,2.0252968 0,2.0765097 -0.00257,2.034921 0.1570746,2.4375751 0.1837116,0.4631466 0.4796438,0.8546296 0.9653028,1.2801396 0.4076372,0.356941 0.8908901,0.680197 1.4299956,0.954648 0.1823367,0.0928 0.2765127,0.135076 0.369142,0.13353 0.092629,0.0016 0.1868051,-0.04073 0.3691418,-0.13353 0.5391054,-0.274451 1.0223588,-0.597707 1.429996,-0.954648 0.485659,-0.42551 0.781591,-0.816993 0.965304,-1.2801396 0.15965,-0.4026541 0.157071,-0.3610653 0.157071,-2.4375751 0,-2.0462632 0.0075,-1.9374799 -0.139028,-2.0252969 -0.06892,-0.041416 -2.7824848,-0.042964 -2.7824848,-0.042963 z m 0,1.0311228 h 1.8903928 v 2.7496611 c 0,0 -0.0011,0.1342178 -0.08455,0.3450825 -0.117374,0.2957598 -0.2801193,0.5293092 -0.6860385,0.8847041 -0.3081339,0.26981 -0.6965234,0.519685 -1.1197993,0.745157 z" id="path4" class="ColorScheme-Text"/>
<path id="gradient-path1" style="opacity:0.3;baseline-shift:baseline;display:inline;overflow:visible;vector-effect:none;enable-background:accumulate;stop-color:#000000;stop-opacity:1;fill:url(#linearGradient4)" d="M 8.4453131 1.2753492 C 4.4913166 1.2753492 1.2794833 4.4784283 1.2794833 8.4236094 C 1.2794833 12.36879 4.4913166 15.572386 8.4453131 15.572386 C 12.39931 15.572386 15.611143 12.36879 15.611143 8.4236094 C 15.611143 4.4784283 12.39931 1.2753492 8.4453131 1.2753492 z "/>
</svg>
