<?xml version="1.0" encoding="UTF-8" standalone="no"?>
<svg
   width="64"
   height="64"
   version="1.1"
   viewBox="0 0 16.933 16.933"
   id="svg7"
   sodipodi:docname="com.github.neithern.g4music.svg"
   inkscape:version="1.4.2 (ebf0e940d0, 2025-05-08)"
   xmlns:inkscape="http://www.inkscape.org/namespaces/inkscape"
   xmlns:sodipodi="http://sodipodi.sourceforge.net/DTD/sodipodi-0.dtd"
   xmlns:xlink="http://www.w3.org/1999/xlink"
   xmlns="http://www.w3.org/2000/svg"
   xmlns:svg="http://www.w3.org/2000/svg"
   xmlns:rdf="http://www.w3.org/1999/02/22-rdf-syntax-ns#"
   xmlns:cc="http://creativecommons.org/ns#"
   xmlns:dc="http://purl.org/dc/elements/1.1/">
  <sodipodi:namedview
     id="namedview7"
     pagecolor="#9c4444"
     bordercolor="#000000"
     borderopacity="0.25"
     inkscape:showpageshadow="2"
     inkscape:pageopacity="0.0"
     inkscape:pagecheckerboard="0"
     inkscape:deskcolor="#d1d1d1"
     inkscape:zoom="4.3531261"
     inkscape:cx="36.870055"
     inkscape:cy="26.188077"
     inkscape:window-width="2560"
     inkscape:window-height="1392"
     inkscape:window-x="0"
     inkscape:window-y="0"
     inkscape:window-maximized="1"
     inkscape:current-layer="svg7"
     showgrid="false" />
  <defs
     id="defs2">
    <filter
       style="color-interpolation-filters:sRGB;"
       inkscape:label="Blur"
       id="filter3"
       x="-0.10843471"
       y="-0.10870992"
       width="1.2168694"
       height="1.2174198">
      <feGaussianBlur
         stdDeviation="0.5 0.5"
         result="blur"
         id="feGaussianBlur3" />
    </filter>
    <style
       id="current-color-scheme"
       type="text/css">.ColorScheme-Text {color:#d8dee9} .ColorScheme-Highlight {color:#3b4252}</style>
    <linearGradient
       id="linearGradient3"
       inkscape:collect="always">
      <stop
         style="stop-color:#000000;stop-opacity:1;"
         offset="0"
         id="stop3" />
      <stop
         style="stop-color:#000000;stop-opacity:0;"
         offset="1"
         id="stop4" />
    </linearGradient>
    <linearGradient
       inkscape:collect="always"
       xlink:href="#linearGradient3"
       id="linearGradient4"
       x1="13.512321"
       y1="13.490874"
       x2="3.3783066"
       y2="3.3568602"
       gradientUnits="userSpaceOnUse" />
  </defs>
  <metadata
     id="metadata2">
    <rdf:RDF>
      <cc:Work
         rdf:about="">
        <dc:format>image/svg+xml</dc:format>
        <dc:type
           rdf:resource="http://purl.org/dc/dcmitype/StillImage" />
      </cc:Work>
    </rdf:RDF>
  </metadata>
  <ellipse
     style="opacity:1;fill:none;stroke:#000000;stroke-width:0.582072;stroke-dasharray:none;stroke-opacity:1;filter:url(#filter3)"
     id="path1-5"
     cx="8.4450111"
     cy="8.423522"
     rx="6.8752708"
     ry="6.8578653" />
  <ellipse
     style="opacity:1;fill:none;stroke-width:0.58207188;stroke-opacity:1;stroke:currentColor;stroke-dasharray:none;fill-opacity:1"
     id="path1"
     cx="8.4450111"
     cy="8.423522"
     rx="6.8752708"
     ry="6.8578653"
     class="ColorScheme-Text" />
  <ellipse
     style="fill:currentColor;stroke:none;stroke-width:0.285844;stroke-dasharray:none;stroke-opacity:1"
     id="path1-2"
     cx="8.4557552"
     cy="8.423522"
     rx="6.5738997"
     ry="6.5692253"
     class="ColorScheme-Highlight" />
  <path
     id="path19"
     style="opacity:0.3;fill:#000000;fill-opacity:1;stroke-width:0.0640108"
     d="m 11.667022,5.0591343 c -0.424327,0 -0.768129,0.343802 -0.768129,0.768129 7.93e-4,-0.02151 0.0023,-0.04276 0.0048,-0.06401 0.0016,0.01892 0.0045,0.03741 0.0074,0.05588 -1.28e-4,5.66e-4 -2.66e-4,0.0011 -3.88e-4,0.0018 3.88e-4,0.0024 0.0012,0.0046 0.0016,0.007 0.0049,0.02901 0.01097,0.05764 0.019,0.08539 0.0076,0.02646 0.01708,0.05198 0.02738,0.07714 0.0026,0.0064 0.0054,0.01261 0.0081,0.01888 0.0214,0.04846 0.04782,0.09392 0.07826,0.136397 0.01935,0.02694 0.04005,0.05275 0.06264,0.07689 0.0011,0.0011 0.0019,0.0025 0.003,0.0036 0.0072,0.0077 0.01547,0.01416 0.023,0.0215 0.01774,0.01726 0.03594,0.03402 0.05526,0.0495 0.01245,0.01 0.02531,0.01928 0.03838,0.02851 0.01665,0.01173 0.0338,0.0226 0.05138,0.033 0.01601,0.0095 0.03166,0.01942 0.04838,0.02775 0.02716,0.01353 0.05506,0.02572 0.08389,0.03601 v 3.77e-4 c 0.0014,4.79e-4 0.0028,7.93e-4 0.0041,0.0012 0.01158,0.0041 0.02344,0.0075 0.03526,0.011 0.004,0.0012 0.0079,0.0025 0.01187,0.0036 5.66e-4,1.6e-4 0.0012,2.18e-4 0.0018,3.78e-4 0.01806,0.005 0.03633,0.0093 0.05488,0.013 0.0031,6.8e-4 0.0062,0.0014 0.0094,0.002 1.91e-4,3.8e-5 4.59e-4,8.9e-5 6.22e-4,1.27e-4 0.01484,0.0027 0.0299,0.0048 0.04501,0.0066 6.22e-4,7.7e-5 0.0012,1.72e-4 0.0019,2.49e-4 0.0067,7.92e-4 0.01335,0.002 0.02013,0.0026 4.6e-4,4.3e-5 9.06e-4,8.3e-5 0.0014,1.27e-4 0.023,0.0022 0.04625,0.0035 0.06976,0.0035 0.0237,-6e-5 0.04708,-0.0014 0.07026,-0.0035 0.0027,-2.49e-4 0.0053,-7.35e-4 0.008,-0.001 0.0061,-7.93e-4 0.01207,-0.0017 0.01813,-0.0025 0.01424,-0.0018 0.02852,-0.0037 0.04251,-0.0062 0.01034,-0.0019 0.02043,-0.0044 0.03063,-0.0068 0.01197,-0.0027 0.02388,-0.0055 0.03563,-0.0088 1.92e-4,-5.7e-5 4.6e-4,-7e-5 6.23e-4,-1.28e-4 0.0103,-0.0029 0.02038,-0.0062 0.0305,-0.0095 0.0065,-0.0022 0.01329,-0.0038 0.01975,-0.0061 0.09027,-0.03219 0.17254,-0.0812 0.24379,-0.142773 1.92e-4,-1.73e-4 4.6e-4,-3.27e-4 6.23e-4,-4.99e-4 1.92e-4,-1.54e-4 3.15e-4,-3.46e-4 5.08e-4,-4.98e-4 0.04568,-0.03963 0.08647,-0.08452 0.121771,-0.133897 0.0026,-0.0036 0.0052,-0.0073 0.0077,-0.011 0.03252,-0.04722 0.05994,-0.09821 0.08139,-0.1524 0.0027,-0.0067 0.0052,-0.01345 0.0076,-0.02025 0.0097,-0.02679 0.01862,-0.05401 0.02538,-0.08214 0.0046,-0.01914 0.0085,-0.03856 0.01163,-0.05826 v -1.28e-4 -1.28e-4 c 0.0036,-0.02247 0.0063,-0.04527 0.0079,-0.06839 -0.03765,-0.389186 -0.365349,-0.693369 -0.764422,-0.693369 z m -3.3285539,0.192032 c -2.121122,0 -3.84064,1.719519 -3.84064,3.84064 0,2.1211217 1.719518,3.8406397 3.84064,3.8406397 2.1211199,0 3.8406389,-1.719518 3.8406389,-3.8406397 0,-0.381587 -0.05565,-0.750138 -0.159277,-1.098058 v 1.418112 c -4e-6,0.09359 -0.03721,0.183256 -0.103393,0.249416 l -0.716618,0.7166197 c -0.187694,0.416657 -0.463764,0.785015 -0.804259,1.081179 l 0.02025,0.02025 8.49e-4,8.49e-4 c 0.103835,0.109141 0.01332,0.28626 -0.132022,0.272045 -0.03566,-0.0035 -0.06861,-0.01915 -0.09539,-0.04463 l -8.49e-4,-8.5e-4 -0.04788,-0.04788 c -0.03352,0.02359 -0.07055,0.0421 -0.105018,0.06439 l -0.2916739,0.291673 c -0.08276,0.08274 -0.214458,0.08737 -0.302676,0.01388 -0.03382,0.01271 -0.07016,0.01969 -0.104516,0.03126 l -0.04438,0.04438 c -3.9e-5,6.3e-5 -2.11e-4,3.14e-4 -2.43e-4,3.86e-4 l -1.28e-4,1.29e-4 -1.27e-4,1.28e-4 -5.09e-4,3.86e-4 c -0.03865,0.03938 -0.08424,0.06222 -0.134022,0.06814 -0.0459,0.0054 -0.08869,-0.0035 -0.125521,-0.02225 -0.223026,0.05035 -0.455039,0.07699 -0.693235,0.07699 -1.731488,0 -3.136523,-1.405034 -3.136523,-3.1365217 0,-1.731488 1.405035,-3.136522 3.136523,-3.136522 1.384297,0 2.5599349,0.898023 2.9757449,2.142982 v -1.043688 c -0.07589,-0.03599 -0.128018,-0.113164 -0.128018,-0.203159 V 6.6742883 C 11.010804,6.5568693 10.881131,6.3774633 10.828261,6.1674543 10.157796,5.5960643 9.2884201,5.2511763 8.3384721,5.2511763 Z m 2.5630519,0.640107 c -0.0018,0.02111 -0.0026,0.04245 -0.0026,0.06401 0,0.284402 0.154445,0.532577 0.384064,0.66536 v 0.230789 c 0,0.07105 0.05697,0.128021 0.128021,0.128021 h 0.512085 c 0.07105,0 0.128022,-0.05697 0.128022,-0.128021 v -0.230789 c 0.229619,-0.132783 0.384064,-0.380958 0.384064,-0.66536 0,-0.02155 -9.06e-4,-0.04291 -0.0026,-0.06401 -0.02592,0.314388 -0.241334,0.574464 -0.531588,0.667236 -0.0088,0.0028 -0.01766,0.0056 -0.02663,0.0081 -0.01403,0.0039 -0.0283,0.0072 -0.04263,0.01038 -0.008,0.0018 -0.016,0.0037 -0.02413,0.0053 -0.0159,0.0029 -0.03203,0.005 -0.04825,0.007 -0.0071,8.49e-4 -0.01401,0.002 -0.02113,0.0026 -0.02343,0.0022 -0.04715,0.0035 -0.07114,0.0035 -0.02399,-1e-6 -0.04771,-0.0014 -0.07114,-0.0035 -0.0071,-6.22e-4 -0.01407,-0.0018 -0.02113,-0.0026 -0.01623,-0.0019 -0.03235,-0.0041 -0.04826,-0.007 -0.0081,-0.0015 -0.01609,-0.0035 -0.02413,-0.0053 -0.01434,-0.0031 -0.02861,-0.0065 -0.04263,-0.01038 -0.009,-0.0025 -0.0178,-0.0053 -0.02663,-0.0081 -0.290249,-0.09278 -0.505671,-0.352852 -0.531588,-0.667236 z m -2.5630519,0.192032 c -1.662293,0 -3.008501,1.346209 -3.008501,3.008501 0,1.6622927 1.346208,3.0085007 3.008501,3.0085007 0.201439,0 0.398275,-0.01981 0.588597,-0.05751 -0.03768,-0.07905 -0.03159,-0.178628 0.04638,-0.255168 l 3.88e-4,-5.08e-4 1.28e-4,-1.28e-4 h 1.28e-4 1.28e-4 v -1.28e-4 l 1.27e-4,-1.28e-4 1.28e-4,-1.28e-4 0.02488,-0.02488 c -0.212023,0.0524 -0.432754,0.08254 -0.660878,0.08254 -1.519486,0 -2.752458,-1.232973 -2.752458,-2.7524577 0,-1.519485 1.232972,-2.752459 2.752458,-2.752459 1.519485,0 2.7524579,1.232974 2.7524579,2.752459 0,0.146567 -0.01141,0.290435 -0.0335,0.430822 l 0.256783,-0.256799 V 8.6459813 C 11.098993,7.1953043 9.8492801,6.0833043 8.3384691,6.0833043 Z m 0,0.384064 c -1.450227,0 -2.624438,1.174212 -2.624438,2.624437 0,1.4502247 1.174211,2.6244367 2.624438,2.6244367 0.242351,0 0.476998,-0.03275 0.699741,-0.09414 -0.05667,-0.08159 -0.05308,-0.192553 0.01075,-0.27042 -0.224322,0.07054 -0.463001,0.108517 -0.710494,0.108517 -1.307226,0 -2.368394,-1.061168 -2.368394,-2.3683937 0,-1.307226 1.061168,-2.368394 2.368394,-2.368394 1.307225,0 2.3683939,1.061168 2.3683939,2.368394 0,0.359054 -0.08006,0.699506 -0.223287,1.0045427 l 0.412319,-0.4121937 c 0.04385,-0.190332 0.06701,-0.388634 0.06701,-0.592349 0,-1.450225 -1.1742119,-2.624437 -2.6244369,-2.624437 z m 0,0.384064 c -1.237967,0 -2.240374,1.002407 -2.240374,2.240373 0,1.2379657 1.002407,2.2403727 2.240374,2.2403727 0.333964,0 0.649656,-0.07506 0.93428,-0.205909 l 0.515336,-0.515336 c 0.04216,-0.04216 0.09926,-0.06588 0.158901,-0.06589 0.02582,4e-6 0.05116,0.0044 0.07501,0.01288 l 0.06589,-0.06589 c 0.307275,-0.383473 0.490957,-0.8702427 0.490957,-1.4002337 0,-1.237966 -1.0024069,-2.240373 -2.2403729,-2.240372 z m 0,0.256043 c 1.095222,0 1.9843299,0.889108 1.9843299,1.98433 0,1.0952227 -0.8891079,1.9843297 -1.9843299,1.9843297 -1.095223,0 -1.984332,-0.889107 -1.984332,-1.9843297 0,-1.095222 0.889109,-1.98433 1.984332,-1.98433 z m 3.0725099,0 v 2.198366 l -1.305091,1.3050917 0.36206,0.36206 1.380104,-1.3801047 a 0.25597863,0.25597863 0 0 0 0.07501,-0.181029 v -2.304384 z m -3.0725109,0.128021 c -1.025899,0 -1.856309,0.83041 -1.856309,1.856309 0,1.0258987 0.83041,1.8563087 1.856309,1.8563087 1.025899,0 1.8563099,-0.83041 1.8563099,-1.8563087 0,-1.025899 -0.8304109,-1.856309 -1.8563099,-1.856309 z m 0,0.256043 c 0.883155,0 1.600267,0.717111 1.600267,1.600266 0,0.883155 -0.717112,1.6002667 -1.600267,1.6002667 -0.883155,0 -1.600266,-0.7171117 -1.600266,-1.6002667 0,-0.883155 0.717111,-1.600266 1.600266,-1.600266 z m 0,0.128021 c -0.813896,0 -1.472244,0.65835 -1.472244,1.472245 0,0.813896 0.658348,1.4722447 1.472244,1.4722447 0.813896,0 1.472245,-0.6583487 1.472245,-1.4722447 0,-0.813895 -0.658349,-1.472245 -1.472245,-1.472245 z m 0,0.448075 c 0.565598,0 1.024171,0.458572 1.024171,1.02417 0,0.565598 -0.458573,1.0241697 -1.024171,1.0241697 -0.565598,0 -1.02417,-0.4585717 -1.02417,-1.0241697 0,-0.565598 0.458572,-1.02417 1.02417,-1.02417 z m 0,0.128021 c -0.463877,0 -0.845618,0.352711 -0.891523,0.804509 -0.0031,0.03012 -0.0046,0.06072 -0.0046,0.09164 0,0.494803 0.401347,0.896149 0.896149,0.896149 0.494804,0 0.896149,-0.401346 0.896149,-0.896149 0,-0.494802 -0.401345,-0.896149 -0.896149,-0.896149 z m -0.0064,0.704492 a 0.192096,0.192096 0 0 1 0.012,0 0.19200374,0.19169947 0 0 1 0.01388,8.49e-4 0.192096,0.192096 0 0 1 0.01263,0.0018 0.19200374,0.19169947 0 0 1 0.01187,0.0024 0.192096,0.192096 0 0 1 0.0125,0.0035 0.19200374,0.19169947 0 0 1 0.01313,0.0045 0.192096,0.192096 0 0 1 0.01025,0.0044 0.19200374,0.19169947 0 0 1 0.01238,0.0061 0.192096,0.192096 0 0 1 0.01075,0.0065 0.19200374,0.19169947 0 0 1 0.011,0.0075 0.192096,0.192096 0 0 1 0.0092,0.0075 0.19200374,0.19169947 0 0 1 0.01013,0.0088 0.192096,0.192096 0 0 1 0.0091,0.0098 0.19200374,0.19169947 0 0 1 0.0079,0.009 0.192096,0.192096 0 0 1 0.0085,0.012 0.19200374,0.19169947 0 0 1 0.0061,0.0094 0.192096,0.192096 0 0 1 0.0054,0.01025 0.19200374,0.19169947 0 0 1 0.0065,0.01313 0.192096,0.192096 0 0 1 0.0036,0.01025 0.19200374,0.19169947 0 0 1 0.0046,0.0135 0.192096,0.192096 0 0 1 0.002,0.0098 0.19200374,0.19169947 0 0 1 0.0031,0.01563 0.19200374,0.19169947 0 0 1 0.0016,0.025 0.19200374,0.19169947 0 0 1 -2.42e-4,0.0056 0.192096,0.192096 0 0 1 -0.0014,0.01738 0.19200374,0.19169947 0 0 1 -0.001,0.0077 0.192096,0.192096 0 0 1 -0.005,0.02288 0.192096,0.192096 0 0 1 -0.0089,0.02388 0.192096,0.192096 0 0 1 -2.43e-4,6.23e-4 0.19200374,0.19169947 0 0 1 -0.003,0.0055 0.192096,0.192096 0 0 1 -0.0088,0.01663 0.19200374,0.19169947 0 0 1 -0.0038,0.0055 0.192096,0.192096 0 0 1 -0.01113,0.0155 0.19200374,0.19169947 0 0 1 -0.0044,0.0048 0.192096,0.192096 0 0 1 -0.01313,0.01375 0.19200374,0.19169947 0 0 1 -0.0058,0.0049 0.192096,0.192096 0 0 1 -0.01388,0.01113 0.19200374,0.19169947 0 0 1 -0.0071,0.0048 0.192096,0.192096 0 0 1 -0.015,0.0088 0.19200374,0.19169947 0 0 1 -0.0068,0.0032 0.192096,0.192096 0 0 1 -0.01663,0.0071 0.19200374,0.19169947 0 0 1 -0.007,0.0024 0.192096,0.192096 0 0 1 -0.01763,0.0049 0.19200374,0.19169947 0 0 1 -0.008,0.0015 0.192096,0.192096 0 0 1 -0.0165,0.0021 0.19200374,0.19169947 0 0 1 -0.0089,6.23e-4 0.192096,0.192096 0 0 1 -0.01713,-1.28e-4 0.19200374,0.19169947 0 0 1 -0.0083,-4.99e-4 0.192096,0.192096 0 0 1 -0.019,-0.0028 0.19200374,0.19169947 0 0 1 -0.0053,-0.0011 0.192096,0.192096 0 0 1 -0.0205,-0.0058 0.19200374,0.19169947 0 0 1 -0.004,-0.0014 0.192096,0.192096 0 0 1 -0.01925,-0.0084 0.19200374,0.19169947 0 0 1 -0.0048,-0.0024 0.192096,0.192096 0 0 1 -0.018,-0.011 0.19200374,0.19169947 0 0 1 -0.0037,-0.0025 0.192096,0.192096 0 0 1 -0.01913,-0.01563 0.192096,0.192096 0 0 1 -0.01588,-0.01688 0.19200374,0.19169947 0 0 1 -0.0026,-0.003 0.192096,0.192096 0 0 1 -0.01238,-0.01763 0.192096,0.192096 0 0 1 -0.0024,-0.0034 0.192096,0.192096 0 0 1 -0.01163,-0.0225 0.192096,0.192096 0 0 1 -0.0086,-0.02426 0.192096,0.192096 0 0 1 -1.28e-4,-3.77e-4 0.192096,0.192096 0 0 1 -0.0054,-0.02551 0.192096,0.192096 0 0 1 -0.0019,-0.026 0.192096,0.192096 0 0 1 0,-1.28e-4 0.192096,0.192096 0 0 1 0.0071,-0.05176 0.192096,0.192096 0 0 1 0,-1.28e-4 0.192096,0.192096 0 0 1 0.03613,-0.06926 0.192096,0.192096 0 0 1 0,-1.29e-4 0.192096,0.192096 0 0 1 0.018,-0.01913 0.19200374,0.19169947 0 0 1 0.04276,-0.03013 0.192096,0.192096 0 0 1 0.02263,-0.0096 0.19200374,0.19169947 0 0 1 0.0078,-0.0025 0.192096,0.192096 0 0 1 0.01525,-0.0042 0.19200374,0.19169947 0 0 1 0.01213,-0.0022 0.192096,0.192096 0 0 1 0.01175,-0.0016 0.19200374,0.19169947 0 0 1 0.01225,-7.36e-4 z m 1.614894,1.7416647 a 0.12802132,0.12802132 0 0 0 -0.09051,0.0375 l -0.724121,0.724122 a 0.12802132,0.12802132 0 0 0 0,0.18103 l 0.362061,0.36206 a 0.12802132,0.12802132 0 0 0 0.18103,0 l 0.7241199,-0.724121 a 0.12802132,0.12802132 0 0 0 0,-0.181029 L 10.03748,10.679315 a 0.12802132,0.12802132 0 0 0 -0.09051,-0.03751 z m 0.9419069,0.04713 -0.368061,0.367936 v 1.28e-4 c 0.01059,0.0301 0.01458,0.06204 0.01201,0.09352 0.132955,-0.141669 0.252321,-0.296193 0.35606,-0.461577 z m -0.609726,0.790631 -0.09051,0.09052 0.06739,0.06739 a 0.06402363,0.06402363 0 0 0 0.09051,-0.09051 z m -1.1246869,0.263795 -0.112644,0.112643 a 0.12802132,0.12802132 0 1 0 0.18103,0.18103 l 0.112644,-0.112644 z" />
  <path
     id="path19-7"
     style="fill:currentColor;fill-opacity:1;stroke-width:0.0640108"
     d="m 11.66702,4.529912 c -0.424327,0 -0.768129,0.343802 -0.768129,0.768129 7.93e-4,-0.02151 0.0023,-0.04276 0.0048,-0.06401 0.0016,0.01892 0.0045,0.03741 0.0074,0.05588 -1.28e-4,5.66e-4 -2.66e-4,0.0011 -3.88e-4,0.0018 3.88e-4,0.0024 0.0012,0.0046 0.0016,0.007 0.0049,0.02901 0.01097,0.05764 0.019,0.08539 0.0076,0.02646 0.01708,0.05198 0.02738,0.07714 0.0026,0.0064 0.0054,0.01261 0.0081,0.01888 0.0214,0.04846 0.04782,0.09392 0.07826,0.136397 0.01935,0.02694 0.04005,0.05275 0.06264,0.07689 0.0011,0.0011 0.0019,0.0025 0.003,0.0036 0.0072,0.0077 0.01547,0.01416 0.023,0.0215 0.01774,0.01726 0.03594,0.03402 0.05526,0.0495 0.01245,0.01 0.02531,0.01928 0.03838,0.02851 0.01665,0.01173 0.0338,0.0226 0.05138,0.033 0.01601,0.0095 0.03166,0.01942 0.04838,0.02775 0.02716,0.01353 0.05506,0.02572 0.08389,0.03601 v 3.77e-4 c 0.0014,4.79e-4 0.0028,7.93e-4 0.0041,0.0012 0.01158,0.0041 0.02344,0.0075 0.03526,0.011 0.004,0.0012 0.0079,0.0025 0.01187,0.0036 5.66e-4,1.6e-4 0.0012,2.18e-4 0.0018,3.78e-4 0.01806,0.005 0.03633,0.0093 0.05488,0.013 0.0031,6.8e-4 0.0062,0.0014 0.0094,0.002 1.91e-4,3.8e-5 4.59e-4,8.9e-5 6.22e-4,1.27e-4 0.01484,0.0027 0.0299,0.0048 0.04501,0.0066 6.22e-4,7.7e-5 0.0012,1.72e-4 0.0019,2.49e-4 0.0067,7.92e-4 0.01335,0.002 0.02013,0.0026 4.6e-4,4.3e-5 9.06e-4,8.3e-5 0.0014,1.27e-4 0.023,0.0022 0.04625,0.0035 0.06976,0.0035 0.0237,-6e-5 0.04708,-0.0014 0.07026,-0.0035 0.0027,-2.49e-4 0.0053,-7.35e-4 0.008,-10e-4 0.0061,-7.93e-4 0.01207,-0.0017 0.01813,-0.0025 0.01424,-0.0018 0.02852,-0.0037 0.04251,-0.0062 0.01034,-0.0019 0.02043,-0.0044 0.03063,-0.0068 0.01197,-0.0027 0.02388,-0.0055 0.03563,-0.0088 1.92e-4,-5.7e-5 4.6e-4,-7e-5 6.23e-4,-1.28e-4 0.0103,-0.0029 0.02038,-0.0062 0.0305,-0.0095 0.0065,-0.0022 0.01329,-0.0038 0.01975,-0.0061 0.09027,-0.03219 0.17254,-0.0812 0.24379,-0.142773 1.92e-4,-1.73e-4 4.6e-4,-3.27e-4 6.23e-4,-4.99e-4 1.92e-4,-1.54e-4 3.15e-4,-3.46e-4 5.08e-4,-4.98e-4 0.04568,-0.03963 0.08647,-0.08452 0.121771,-0.133897 0.0026,-0.0036 0.0052,-0.0073 0.0077,-0.011 0.03252,-0.04722 0.05994,-0.09821 0.08139,-0.1524 0.0027,-0.0067 0.0052,-0.01345 0.0076,-0.02025 0.0097,-0.02679 0.01862,-0.05401 0.02538,-0.08214 0.0046,-0.01914 0.0085,-0.03856 0.01163,-0.05826 v -1.28e-4 -1.28e-4 c 0.0036,-0.02247 0.0063,-0.04527 0.0079,-0.06839 C 12.39378,4.833959 12.066081,4.529776 11.667008,4.529776 Z M 8.338466,4.721944 c -2.121122,0 -3.84064,1.719519 -3.84064,3.84064 0,2.121122 1.719518,3.84064 3.84064,3.84064 2.12112,0 3.840639,-1.719518 3.840639,-3.84064 0,-0.381587 -0.05565,-0.750138 -0.159277,-1.098058 v 1.418112 c -4e-6,0.09359 -0.03721,0.183256 -0.103393,0.249416 l -0.716618,0.71662 c -0.187694,0.416657 -0.463764,0.785015 -0.804259,1.081179 l 0.02025,0.02025 8.49e-4,8.49e-4 c 0.103835,0.109141 0.01332,0.28626 -0.132022,0.272045 -0.03566,-0.0035 -0.06861,-0.01915 -0.09539,-0.04463 l -8.49e-4,-8.5e-4 -0.04788,-0.04788 c -0.03352,0.02359 -0.07055,0.0421 -0.105018,0.06439 L 9.743824,11.4857 c -0.08276,0.08274 -0.214458,0.08737 -0.302676,0.01388 -0.03382,0.01271 -0.07016,0.01969 -0.104516,0.03126 l -0.04438,0.04438 c -3.9e-5,6.3e-5 -2.11e-4,3.14e-4 -2.43e-4,3.86e-4 l -1.28e-4,1.29e-4 -1.27e-4,1.28e-4 -5.09e-4,3.86e-4 c -0.03865,0.03938 -0.08424,0.06222 -0.134022,0.06814 -0.0459,0.0054 -0.08869,-0.0035 -0.125521,-0.02225 -0.223026,0.05035 -0.455039,0.07699 -0.693235,0.07699 -1.731488,0 -3.136523,-1.405034 -3.136523,-3.136522 0,-1.731488 1.405035,-3.136522 3.136523,-3.136522 1.384297,0 2.559935,0.898023 2.975745,2.142982 V 6.525379 C 11.238322,6.489389 11.186194,6.412215 11.186194,6.32222 V 6.145066 C 11.010802,6.027647 10.881129,5.848241 10.828259,5.638232 10.157794,5.066842 9.288418,4.721954 8.33847,4.721954 Z m 2.563052,0.640107 c -0.0018,0.02111 -0.0026,0.04245 -0.0026,0.06401 0,0.284402 0.154445,0.532577 0.384064,0.66536 V 6.32221 c 0,0.07105 0.05697,0.128021 0.128021,0.128021 h 0.512085 c 0.07105,0 0.128022,-0.05697 0.128022,-0.128021 V 6.091421 c 0.229619,-0.132783 0.384064,-0.380958 0.384064,-0.66536 0,-0.02155 -9.06e-4,-0.04291 -0.0026,-0.06401 -0.02592,0.314388 -0.241334,0.574464 -0.531588,0.667236 -0.0088,0.0028 -0.01766,0.0056 -0.02663,0.0081 -0.01403,0.0039 -0.0283,0.0072 -0.04263,0.01038 -0.008,0.0018 -0.016,0.0037 -0.02413,0.0053 -0.0159,0.0029 -0.03203,0.005 -0.04825,0.007 -0.0071,8.49e-4 -0.01401,0.002 -0.02113,0.0026 -0.02343,0.0022 -0.04715,0.0035 -0.07114,0.0035 -0.02399,-1e-6 -0.04771,-0.0014 -0.07114,-0.0035 -0.0071,-6.22e-4 -0.01407,-0.0018 -0.02113,-0.0026 -0.01623,-0.0019 -0.03235,-0.0041 -0.04826,-0.007 -0.0081,-0.0015 -0.01609,-0.0035 -0.02413,-0.0053 -0.01434,-0.0031 -0.02861,-0.0065 -0.04263,-0.01038 -0.009,-0.0025 -0.0178,-0.0053 -0.02663,-0.0081 C 11.142907,5.936507 10.927485,5.676435 10.901568,5.362051 Z M 8.338466,5.554083 c -1.662293,0 -3.008501,1.346209 -3.008501,3.008501 0,1.662293 1.346208,3.008501 3.008501,3.008501 0.201439,0 0.398275,-0.01981 0.588597,-0.05751 -0.03768,-0.07905 -0.03159,-0.178628 0.04638,-0.255168 l 3.88e-4,-5.08e-4 1.28e-4,-1.28e-4 h 1.28e-4 1.28e-4 v -1.28e-4 l 1.27e-4,-1.28e-4 1.28e-4,-1.28e-4 0.02488,-0.02488 c -0.212023,0.0524 -0.432754,0.08254 -0.660878,0.08254 -1.519486,0 -2.752458,-1.232973 -2.752458,-2.752458 0,-1.519485 1.232972,-2.752459 2.752458,-2.752459 1.519485,0 2.752458,1.232974 2.752458,2.752459 0,0.146567 -0.01141,0.290435 -0.0335,0.430822 L 11.314213,8.736612 V 8.116759 C 11.098991,6.666082 9.849278,5.554082 8.338467,5.554082 Z m 0,0.384064 c -1.450227,0 -2.624438,1.174212 -2.624438,2.624437 0,1.450225 1.174211,2.624437 2.624438,2.624437 0.242351,0 0.476998,-0.03275 0.699741,-0.09414 -0.05667,-0.08159 -0.05308,-0.192553 0.01075,-0.27042 -0.224322,0.07054 -0.463001,0.108517 -0.710494,0.108517 -1.307226,0 -2.368394,-1.061168 -2.368394,-2.368394 0,-1.307226 1.061168,-2.368394 2.368394,-2.368394 1.307225,0 2.368394,1.061168 2.368394,2.368394 0,0.359054 -0.08006,0.699506 -0.223287,1.004543 l 0.412319,-0.412194 c 0.04385,-0.190332 0.06701,-0.388634 0.06701,-0.592349 0,-1.450225 -1.174212,-2.624437 -2.624437,-2.624437 z m 0,0.384064 c -1.237967,0 -2.240374,1.002407 -2.240374,2.240373 0,1.237966 1.002407,2.240373 2.240374,2.240373 0.333964,0 0.649656,-0.07506 0.93428,-0.205909 l 0.515336,-0.515336 c 0.04216,-0.04216 0.09926,-0.06588 0.158901,-0.06589 0.02582,4e-6 0.05116,0.0044 0.07501,0.01288 l 0.06589,-0.06589 c 0.307275,-0.383473 0.490957,-0.870243 0.490957,-1.400234 0,-1.237966 -1.002407,-2.240373 -2.240373,-2.240372 z m 0,0.256043 c 1.095222,0 1.98433,0.889108 1.98433,1.98433 0,1.095223 -0.889108,1.98433 -1.98433,1.98433 -1.095223,0 -1.984332,-0.889107 -1.984332,-1.98433 0,-1.095222 0.889109,-1.98433 1.984332,-1.98433 z m 3.07251,0 V 8.77662 l -1.305091,1.305092 0.36206,0.36206 1.380104,-1.380105 a 0.25597863,0.25597863 0 0 0 0.07501,-0.181029 V 6.578254 Z M 8.338465,6.706275 c -1.025899,0 -1.856309,0.83041 -1.856309,1.856309 0,1.025899 0.83041,1.856309 1.856309,1.856309 1.025899,0 1.85631,-0.83041 1.85631,-1.856309 0,-1.025899 -0.830411,-1.856309 -1.85631,-1.856309 z m 0,0.256043 c 0.883155,0 1.600267,0.717111 1.600267,1.600266 0,0.883155 -0.717112,1.600267 -1.600267,1.600267 -0.883155,0 -1.600266,-0.717112 -1.600266,-1.600267 0,-0.883155 0.717111,-1.600266 1.600266,-1.600266 z m 0,0.128021 c -0.813896,0 -1.472244,0.65835 -1.472244,1.472245 0,0.813896 0.658348,1.472245 1.472244,1.472245 0.813896,0 1.472245,-0.658349 1.472245,-1.472245 0,-0.813895 -0.658349,-1.472245 -1.472245,-1.472245 z m 0,0.448075 c 0.565598,0 1.024171,0.458572 1.024171,1.02417 0,0.565598 -0.458573,1.02417 -1.024171,1.02417 -0.565598,0 -1.02417,-0.458572 -1.02417,-1.02417 0,-0.565598 0.458572,-1.02417 1.02417,-1.02417 z m 0,0.128021 c -0.463877,0 -0.845618,0.352711 -0.891523,0.804509 -0.0031,0.03012 -0.0046,0.06072 -0.0046,0.09164 0,0.494803 0.401347,0.896149 0.896149,0.896149 0.494804,0 0.896149,-0.401346 0.896149,-0.896149 0,-0.494802 -0.401345,-0.896149 -0.896149,-0.896149 z m -0.0064,0.704492 a 0.192096,0.192096 0 0 1 0.012,0 0.19200374,0.19169947 0 0 1 0.01388,8.49e-4 0.192096,0.192096 0 0 1 0.01263,0.0018 0.19200374,0.19169947 0 0 1 0.01187,0.0024 0.192096,0.192096 0 0 1 0.0125,0.0035 0.19200374,0.19169947 0 0 1 0.01313,0.0045 0.192096,0.192096 0 0 1 0.01025,0.0044 0.19200374,0.19169947 0 0 1 0.01238,0.0061 0.192096,0.192096 0 0 1 0.01075,0.0065 0.19200374,0.19169947 0 0 1 0.011,0.0075 0.192096,0.192096 0 0 1 0.0092,0.0075 0.19200374,0.19169947 0 0 1 0.01013,0.0088 0.192096,0.192096 0 0 1 0.0091,0.0098 0.19200374,0.19169947 0 0 1 0.0079,0.009 0.192096,0.192096 0 0 1 0.0085,0.012 0.19200374,0.19169947 0 0 1 0.0061,0.0094 0.192096,0.192096 0 0 1 0.0054,0.01025 0.19200374,0.19169947 0 0 1 0.0065,0.01313 0.192096,0.192096 0 0 1 0.0036,0.01025 0.19200374,0.19169947 0 0 1 0.0046,0.0135 0.192096,0.192096 0 0 1 0.002,0.0098 0.19200374,0.19169947 0 0 1 0.0031,0.01563 0.19200374,0.19169947 0 0 1 0.0016,0.025 0.19200374,0.19169947 0 0 1 -2.42e-4,0.0056 0.192096,0.192096 0 0 1 -0.0014,0.01738 0.19200374,0.19169947 0 0 1 -0.001,0.0077 0.192096,0.192096 0 0 1 -0.005,0.02288 0.192096,0.192096 0 0 1 -0.0089,0.02388 0.192096,0.192096 0 0 1 -2.43e-4,6.23e-4 0.19200374,0.19169947 0 0 1 -0.003,0.0055 0.192096,0.192096 0 0 1 -0.0088,0.01663 0.19200374,0.19169947 0 0 1 -0.0038,0.0055 0.192096,0.192096 0 0 1 -0.01113,0.0155 0.19200374,0.19169947 0 0 1 -0.0044,0.0048 0.192096,0.192096 0 0 1 -0.01313,0.01375 0.19200374,0.19169947 0 0 1 -0.0058,0.0049 0.192096,0.192096 0 0 1 -0.01388,0.01113 0.19200374,0.19169947 0 0 1 -0.0071,0.0048 0.192096,0.192096 0 0 1 -0.015,0.0088 0.19200374,0.19169947 0 0 1 -0.0068,0.0032 0.192096,0.192096 0 0 1 -0.01663,0.0071 0.19200374,0.19169947 0 0 1 -0.007,0.0024 0.192096,0.192096 0 0 1 -0.01763,0.0049 0.19200374,0.19169947 0 0 1 -0.008,0.0015 0.192096,0.192096 0 0 1 -0.0165,0.0021 0.19200374,0.19169947 0 0 1 -0.0089,6.23e-4 0.192096,0.192096 0 0 1 -0.01713,-1.28e-4 0.19200374,0.19169947 0 0 1 -0.0083,-4.99e-4 0.192096,0.192096 0 0 1 -0.019,-0.0028 0.19200374,0.19169947 0 0 1 -0.0053,-0.0011 0.192096,0.192096 0 0 1 -0.0205,-0.0058 0.19200374,0.19169947 0 0 1 -0.004,-0.0014 0.192096,0.192096 0 0 1 -0.01925,-0.0084 0.19200374,0.19169947 0 0 1 -0.0048,-0.0024 0.192096,0.192096 0 0 1 -0.018,-0.011 0.19200374,0.19169947 0 0 1 -0.0037,-0.0025 0.192096,0.192096 0 0 1 -0.01913,-0.01563 0.192096,0.192096 0 0 1 -0.01588,-0.01688 0.19200374,0.19169947 0 0 1 -0.0026,-0.003 0.192096,0.192096 0 0 1 -0.01238,-0.01763 0.192096,0.192096 0 0 1 -0.0024,-0.0034 0.192096,0.192096 0 0 1 -0.01163,-0.0225 0.192096,0.192096 0 0 1 -0.0086,-0.02426 0.192096,0.192096 0 0 1 -1.28e-4,-3.77e-4 0.192096,0.192096 0 0 1 -0.0054,-0.02551 0.192096,0.192096 0 0 1 -0.0019,-0.026 0.192096,0.192096 0 0 1 0,-1.28e-4 0.192096,0.192096 0 0 1 0.0071,-0.05176 0.192096,0.192096 0 0 1 0,-1.28e-4 0.192096,0.192096 0 0 1 0.03613,-0.06926 0.192096,0.192096 0 0 1 0,-1.29e-4 0.192096,0.192096 0 0 1 0.018,-0.01913 0.19200374,0.19169947 0 0 1 0.04276,-0.03013 0.192096,0.192096 0 0 1 0.02263,-0.0096 0.19200374,0.19169947 0 0 1 0.0078,-0.0025 0.192096,0.192096 0 0 1 0.01525,-0.0042 0.19200374,0.19169947 0 0 1 0.01213,-0.0022 0.192096,0.192096 0 0 1 0.01175,-0.0016 0.19200374,0.19169947 0 0 1 0.01225,-7.36e-4 z m 1.614894,1.741665 a 0.12802132,0.12802132 0 0 0 -0.09051,0.0375 l -0.724121,0.724122 a 0.12802132,0.12802132 0 0 0 0,0.18103 l 0.362061,0.36206 a 0.12802132,0.12802132 0 0 0 0.18103,0 l 0.72412,-0.724121 a 0.12802132,0.12802132 0 0 0 0,-0.181029 l -0.362061,-0.362061 a 0.12802132,0.12802132 0 0 0 -0.09051,-0.03751 z m 0.941907,0.04713 -0.368061,0.367936 v 1.28e-4 c 0.01059,0.0301 0.01458,0.06204 0.01201,0.09352 0.132955,-0.141669 0.252321,-0.296193 0.35606,-0.461577 z m -0.609726,0.790631 -0.09051,0.09052 0.06739,0.06739 a 0.06402363,0.06402363 0 0 0 0.09051,-0.09051 z m -1.124687,0.263795 -0.112644,0.112643 a 0.12802132,0.12802132 0 1 0 0.18103,0.18103 l 0.112644,-0.112644 z"
     class="ColorScheme-Text" />
  <path
     id="gradient-path1"
     style="opacity:0.3;baseline-shift:baseline;display:inline;overflow:visible;vector-effect:none;enable-background:accumulate;stop-color:#000000;stop-opacity:1;fill:url(#linearGradient4)"
     d="M 8.4453131 1.2753492 C 4.4913166 1.2753492 1.2794833 4.4784283 1.2794833 8.4236094 C 1.2794833 12.36879 4.4913166 15.572386 8.4453131 15.572386 C 12.39931 15.572386 15.611143 12.36879 15.611143 8.4236094 C 15.611143 4.4784283 12.39931 1.2753492 8.4453131 1.2753492 z " />
</svg>
