<?xml version='1.0' encoding='UTF-8'?>
<svg xmlns:inkscape="http://www.inkscape.org/namespaces/inkscape" xmlns:sodipodi="http://sodipodi.sourceforge.net/DTD/sodipodi-0.dtd" xmlns:xlink="http://www.w3.org/1999/xlink" xmlns="http://www.w3.org/2000/svg" xmlns:svg="http://www.w3.org/2000/svg" xmlns:rdf="http://www.w3.org/1999/02/22-rdf-syntax-ns#" xmlns:cc="http://creativecommons.org/ns#" xmlns:dc="http://purl.org/dc/elements/1.1/" width="64" height="64" version="1.1" viewBox="0 0 16.933 16.933" id="svg7" sodipodi:docname="Misc.svg" inkscape:version="1.4 (e7c3feb100, 2024-10-09)">
  <sodipodi:namedview id="namedview7" pagecolor="#9c4444" bordercolor="#000000" borderopacity="0.25" inkscape:showpageshadow="2" inkscape:pageopacity="0.0" inkscape:pagecheckerboard="0" inkscape:deskcolor="#d1d1d1" inkscape:zoom="4.3531261" inkscape:cx="36.755195" inkscape:cy="25.958357" inkscape:window-width="1280" inkscape:window-height="669" inkscape:window-x="24" inkscape:window-y="205" inkscape:window-maximized="0" inkscape:current-layer="svg7" showgrid="false"/>
  <defs id="defs2">
    <filter style="color-interpolation-filters:sRGB;" inkscape:label="Blur" id="filter3" x="-0.10843471" y="-0.10870992" width="1.2168694" height="1.2174198">
      <feGaussianBlur stdDeviation="0.5 0.5" result="blur" id="feGaussianBlur3"/>
    </filter>
    <style id="current-color-scheme" type="text/css">.ColorScheme-Text {color:#d8dee9} .ColorScheme-Highlight {color:#3b4252}</style><linearGradient id="linearGradient3" inkscape:collect="always">
      <stop style="stop-color:#000000;stop-opacity:1;" offset="0" id="stop3"/>
      <stop style="stop-color:#000000;stop-opacity:0;" offset="1" id="stop4"/>
    </linearGradient>
    <linearGradient inkscape:collect="always" xlink:href="#linearGradient3" id="linearGradient4" x1="13.512321" y1="13.490874" x2="3.3783066" y2="3.3568602" gradientUnits="userSpaceOnUse"/>
  </defs>
  <metadata id="metadata2">
    <rdf:RDF>
      <cc:Work rdf:about="">
        <dc:format>image/svg+xml</dc:format>
        <dc:type rdf:resource="http://purl.org/dc/dcmitype/StillImage"/>
      </cc:Work>
    </rdf:RDF>
  </metadata>
  <ellipse style="opacity:1;fill:none;stroke:#000000;stroke-width:0.582072;stroke-dasharray:none;stroke-opacity:1;filter:url(#filter3)" id="path1-5" cx="8.4450111" cy="8.423522" rx="6.8752708" ry="6.8578653"/>
  <ellipse style="opacity:1;fill:none;stroke-width:0.58207188;stroke-opacity:1;stroke:currentColor;stroke-dasharray:none;fill-opacity:1" id="path1" cx="8.4450111" cy="8.423522" rx="6.8752708" ry="6.8578653" class="ColorScheme-Text"/>
  <ellipse style="fill:currentColor;stroke:none;stroke-width:0.285844;stroke-dasharray:none;stroke-opacity:1" id="path1-2" cx="8.4557552" cy="8.423522" rx="6.5738997" ry="6.5692253" class="ColorScheme-Highlight"/>
<path id="path6-7" style="fill:#000000;fill-opacity:1;stroke:none;stroke-width:0.0247596;stroke-dasharray:none;stroke-opacity:1;opacity:0.3" d="m 7.4820989,6.0311419 c -0.1483731,1.04e-4 -0.1744164,0.00462 -0.2575975,0.046686 -0.07649,0.038678 -0.3198218,0.2740449 -1.4030559,1.3571936 -1.4951732,1.4950554 -1.4093313,1.3939508 -1.4088227,1.6661458 2.482e-4,0.1279083 0.00684,0.1632971 0.04806,0.2556754 0.044935,0.1007008 0.1255505,0.1852289 1.3118805,1.3753183 0.6951806,0.697385 1.3004154,1.294995 1.3451101,1.328084 0.044695,0.03308 0.1189596,0.07363 0.1650494,0.09008 0.0632,0.02255 0.1206961,0.0286 0.2334304,0.02471 0.2275496,-0.0078 0.287108,-0.04322 0.6096662,-0.361131 L 8.3900072,11.553837 8.2090298,11.371763 8.0277776,11.189686 7.8031348,11.412132 7.5784922,11.634852 H 7.4895139 7.400261 L 6.1908156,10.42568 C 5.3110019,9.54617 4.9763833,9.2016785 4.96297,9.1610354 4.9230243,9.0399985 4.897448,9.0687397 6.1823021,7.7843436 7.2474532,6.7195722 7.3911137,6.5819541 7.4447502,6.5732503 7.552686,6.5557345 7.5891963,6.5781787 7.8127466,6.7995407 L 8.0280522,7.0126493 8.2049103,6.8349672 8.3820431,6.6572855 8.1054962,6.3840343 C 7.7682826,6.0509997 7.7326438,6.030973 7.4820989,6.0311419 Z m 1.9113854,0.098315 C 9.2323919,6.1305069 9.1529404,6.2210269 7.8811283,7.4896713 6.8931605,8.475178 6.5699376,8.8072634 6.537666,8.8699331 c -0.057295,0.1112616 -0.068783,0.2676008 -0.02911,0.39848 0.029013,0.095713 0.042572,0.1098283 1.3352236,1.4060769 1.2393287,1.242777 1.3534285,1.350251 1.4788522,1.391521 0.072979,0.02402 0.2662328,0.0059 0.3548151,-0.03324 C 9.7462059,12.002431 9.974383,11.78242 11.044252,10.713753 12.488922,9.27071 12.433534,9.3349619 12.433028,9.1022624 12.432492,8.8668693 12.498905,8.9439068 11.051117,7.4981853 9.6187488,6.0678576 9.694559,6.133787 9.4712032,6.1313797 c -0.030069,-3.246e-4 -0.054705,-0.00207 -0.077719,-0.00192 z"/>
  <path id="path6" style="fill:currentColor;fill-opacity:1;stroke:none;stroke-width:0.0247596;stroke-dasharray:none;stroke-opacity:1" d="m 7.4820989,5.5019857 c -0.1483731,1.04e-4 -0.1744164,0.00462 -0.2575975,0.046686 -0.07649,0.038678 -0.3198218,0.2740449 -1.4030559,1.3571936 -1.4951732,1.4950554 -1.4093313,1.3939508 -1.4088227,1.6661458 2.482e-4,0.1279083 0.00684,0.1632971 0.04806,0.2556754 0.044935,0.1007008 0.1255505,0.1852289 1.3118805,1.3753185 0.6951806,0.697385 1.3004154,1.294995 1.3451101,1.328084 0.044695,0.03308 0.1189596,0.07363 0.1650494,0.09008 0.0632,0.02255 0.1206961,0.0286 0.2334304,0.02471 0.2275496,-0.0078 0.287108,-0.04322 0.6096662,-0.361131 L 8.3900072,11.024681 8.2090298,10.842607 8.0277776,10.66053 7.8031348,10.882976 7.5784922,11.105696 H 7.4895139 7.400261 L 6.1908156,9.8965242 C 5.3110019,9.0170138 4.9763833,8.6725223 4.96297,8.6318792 4.9230243,8.5108423 4.897448,8.5395835 6.1823021,7.2551874 7.2474532,6.190416 7.3911137,6.0527979 7.4447502,6.0440941 7.552686,6.0265783 7.5891963,6.0490225 7.8127466,6.2703845 L 8.0280522,6.4834931 8.2049103,6.305811 8.3820431,6.1281293 8.1054962,5.8548781 C 7.7682826,5.5218435 7.7326438,5.5018168 7.4820989,5.5019857 Z m 1.9113854,0.098315 c -0.1610924,0.00105 -0.2405439,0.09157 -1.512356,1.3602144 -0.9879678,0.9855067 -1.3111907,1.3175921 -1.3434623,1.3802618 -0.057295,0.1112616 -0.068783,0.2676008 -0.02911,0.39848 0.029013,0.095713 0.042572,0.1098283 1.3352236,1.4060771 1.2393287,1.242777 1.3534285,1.350251 1.4788522,1.391521 0.072979,0.02402 0.2662328,0.0059 0.3548151,-0.03324 0.068759,-0.03034 0.2969361,-0.250351 1.3668051,-1.319018 1.44467,-1.4430432 1.389282,-1.3787913 1.388776,-1.6114908 C 12.432492,8.3377131 12.498905,8.4147506 11.051117,6.9690291 9.6187488,5.5387014 9.694559,5.6046308 9.4712032,5.6022235 c -0.030069,-3.246e-4 -0.054705,-0.00207 -0.077719,-0.00192 z" class="ColorScheme-Text"/>
<path id="gradient-path1" style="opacity:0.3;baseline-shift:baseline;display:inline;overflow:visible;vector-effect:none;enable-background:accumulate;stop-color:#000000;stop-opacity:1;fill:url(#linearGradient4)" d="M 8.4453131 1.2753492 C 4.4913166 1.2753492 1.2794833 4.4784283 1.2794833 8.4236094 C 1.2794833 12.36879 4.4913166 15.572386 8.4453131 15.572386 C 12.39931 15.572386 15.611143 12.36879 15.611143 8.4236094 C 15.611143 4.4784283 12.39931 1.2753492 8.4453131 1.2753492 z "/>
</svg>
