<?xml version='1.0' encoding='UTF-8'?>
<svg xmlns:inkscape="http://www.inkscape.org/namespaces/inkscape" xmlns:sodipodi="http://sodipodi.sourceforge.net/DTD/sodipodi-0.dtd" xmlns:xlink="http://www.w3.org/1999/xlink" xmlns="http://www.w3.org/2000/svg" xmlns:svg="http://www.w3.org/2000/svg" xmlns:rdf="http://www.w3.org/1999/02/22-rdf-syntax-ns#" xmlns:cc="http://creativecommons.org/ns#" xmlns:dc="http://purl.org/dc/elements/1.1/" width="64" height="64" version="1.1" viewBox="0 0 16.933 16.933" id="svg7" sodipodi:docname="anydesk.svg" inkscape:version="1.4 (e7c3feb100, 2024-10-09)">
  <sodipodi:namedview id="namedview7" pagecolor="#9c4444" bordercolor="#000000" borderopacity="0.25" inkscape:showpageshadow="2" inkscape:pageopacity="0.0" inkscape:pagecheckerboard="0" inkscape:deskcolor="#d1d1d1" inkscape:zoom="4.3531261" inkscape:cx="36.755195" inkscape:cy="25.958357" inkscape:window-width="1280" inkscape:window-height="669" inkscape:window-x="24" inkscape:window-y="205" inkscape:window-maximized="0" inkscape:current-layer="svg7" showgrid="false"/>
  <defs id="defs2">
    <filter style="color-interpolation-filters:sRGB;" inkscape:label="Blur" id="filter3" x="-0.10843471" y="-0.10870992" width="1.2168694" height="1.2174198">
      <feGaussianBlur stdDeviation="0.5 0.5" result="blur" id="feGaussianBlur3"/>
    </filter>
    <style id="current-color-scheme" type="text/css">.ColorScheme-Text {color:#d8dee9} .ColorScheme-Highlight {color:#3b4252}</style><linearGradient id="linearGradient3" inkscape:collect="always">
      <stop style="stop-color:#000000;stop-opacity:1;" offset="0" id="stop3"/>
      <stop style="stop-color:#000000;stop-opacity:0;" offset="1" id="stop4"/>
    </linearGradient>
    <linearGradient inkscape:collect="always" xlink:href="#linearGradient3" id="linearGradient4" x1="13.512321" y1="13.490874" x2="3.3783066" y2="3.3568602" gradientUnits="userSpaceOnUse"/>
  </defs>
  <metadata id="metadata2">
    <rdf:RDF>
      <cc:Work rdf:about="">
        <dc:format>image/svg+xml</dc:format>
        <dc:type rdf:resource="http://purl.org/dc/dcmitype/StillImage"/>
      </cc:Work>
    </rdf:RDF>
  </metadata>
  <ellipse style="opacity:1;fill:none;stroke:#000000;stroke-width:0.582072;stroke-dasharray:none;stroke-opacity:1;filter:url(#filter3)" id="path1-5" cx="8.4450111" cy="8.423522" rx="6.8752708" ry="6.8578653"/>
  <ellipse style="opacity:1;fill:none;stroke-width:0.58207188;stroke-opacity:1;stroke:currentColor;stroke-dasharray:none;fill-opacity:1" id="path1" cx="8.4450111" cy="8.423522" rx="6.8752708" ry="6.8578653" class="ColorScheme-Text"/>
  <ellipse style="fill:currentColor;stroke:none;stroke-width:0.285844;stroke-dasharray:none;stroke-opacity:1" id="path1-2" cx="8.4557552" cy="8.423522" rx="6.5738997" ry="6.5692253" class="ColorScheme-Highlight"/>
<path d="m 5.3560274,7.0184553 2.6520019,5.1407937 c 0,0 0.143764,0.27555 0.5051057,0.27555 0.3603751,0 0.5041395,-0.27555 0.5041395,-0.27555 0,0 1.8430785,-3.0973297 2.5954625,-4.7495683 0.07573,-0.166173 0.157182,-0.3344474 0.191692,-0.5153529 a 0.80028105,0.8781632 0 0 0 0.0066,-0.3786121 0.73991738,0.81192488 0 0 0 -0.198395,-0.4080689 0.78883286,0.86560107 0 0 0 -0.444718,-0.2124476 0.92301786,1.0128445 0 0 0 -0.51277,0.1135816 0.6709091,0.73620085 0 0 0 -0.26549,0.2818658 0.81468852,0.89397278 0 0 0 -0.08338,0.391242 0.97184763,1.0664264 0 0 0 0.05463,0.3659978 c 0.02491,0.074692 0.05749,0.1472354 0.08338,0.2208653 0.02013,0.063154 0.04984,0.1230421 0.05558,0.1893064 a 0.61340351,0.67309894 0 0 1 -0.02683,0.3165607 C 10.300627,8.2563181 10.002546,8.7179861 9.6086121,9.0009366 9.4456723,9.117672 9.236733,9.1471205 9.0431263,9.1565895 8.8207672,9.1670987 8.5638997,9.1480436 8.3846698,9.0398454 8.2044821,8.9325708 8.1201394,8.745367 8.0070441,8.5812962 7.4894847,7.8272095 6.6431538,6.1760043 6.6431538,6.1760043 c 0,0 -0.3680463,-0.7141187 -1.0303347,-0.2818565 -0.6613298,0.4333046 -0.257825,1.1253068 -0.257825,1.1253068 z" fill="url(#linearGradient984)" fill-rule="evenodd" id="path20-7-2" style="fill:#000000;fill-opacity:1;stroke:none;stroke-width:0.217527;stroke-dasharray:none;stroke-opacity:0.3;opacity:0.3"/>
  <path d="m 5.3560274,6.4892991 2.6520019,5.1407939 c 0,0 0.143764,0.27555 0.5051057,0.27555 0.3603751,0 0.5041395,-0.27555 0.5041395,-0.27555 0,0 1.8430785,-3.0973299 2.5954625,-4.7495685 0.07573,-0.166173 0.157182,-0.3344474 0.191692,-0.5153529 a 0.80028105,0.8781632 0 0 0 0.0066,-0.3786121 0.73991738,0.81192488 0 0 0 -0.198395,-0.4080689 0.78883286,0.86560107 0 0 0 -0.444718,-0.2124476 0.92301786,1.0128445 0 0 0 -0.51277,0.1135815 0.6709091,0.73620085 0 0 0 -0.26549,0.2818659 0.81468852,0.89397278 0 0 0 -0.08338,0.391242 0.97184763,1.0664264 0 0 0 0.05463,0.3659978 c 0.02491,0.074692 0.05749,0.1472354 0.08338,0.2208653 0.02013,0.063154 0.04984,0.1230421 0.05558,0.1893064 a 0.61340351,0.67309894 0 0 1 -0.02683,0.3165607 C 10.300627,7.7271619 10.002546,8.1888299 9.6086121,8.4717804 9.4456723,8.5885158 9.236733,8.6179643 9.0431263,8.6274333 8.8207672,8.6379425 8.5638997,8.6188874 8.3846698,8.5106892 8.2044821,8.4034146 8.1201394,8.2162108 8.0070441,8.05214 7.4894847,7.2980533 6.6431538,5.6468481 6.6431538,5.6468481 c 0,0 -0.3680463,-0.7141187 -1.0303347,-0.2818565 -0.6613298,0.4333046 -0.257825,1.1253068 -0.257825,1.1253068 z" fill="url(#linearGradient984)" fill-rule="evenodd" id="path20-7" style="fill:currentColor;fill-opacity:1;stroke:none;stroke-width:0.217527;stroke-dasharray:none;stroke-opacity:0.3" class="ColorScheme-Text"/>
<path id="gradient-path1" style="opacity:0.3;baseline-shift:baseline;display:inline;overflow:visible;vector-effect:none;enable-background:accumulate;stop-color:#000000;stop-opacity:1;fill:url(#linearGradient4)" d="M 8.4453131 1.2753492 C 4.4913166 1.2753492 1.2794833 4.4784283 1.2794833 8.4236094 C 1.2794833 12.36879 4.4913166 15.572386 8.4453131 15.572386 C 12.39931 15.572386 15.611143 12.36879 15.611143 8.4236094 C 15.611143 4.4784283 12.39931 1.2753492 8.4453131 1.2753492 z "/>
</svg>
