<?xml version='1.0' encoding='UTF-8'?>
<svg xmlns:inkscape="http://www.inkscape.org/namespaces/inkscape" xmlns:sodipodi="http://sodipodi.sourceforge.net/DTD/sodipodi-0.dtd" xmlns="http://www.w3.org/2000/svg" xmlns:svg="http://www.w3.org/2000/svg" xmlns:rdf="http://www.w3.org/1999/02/22-rdf-syntax-ns#" xmlns:cc="http://creativecommons.org/ns#" xmlns:dc="http://purl.org/dc/elements/1.1/" width="64" height="64" version="1.1" viewBox="0 0 16.933 16.933" id="svg7" sodipodi:docname="code-oss.svg" inkscape:version="1.4.2 (ebf0e940d0, 2025-05-08)">
  <sodipodi:namedview id="namedview7" pagecolor="#9c4444" bordercolor="#000000" borderopacity="0.25" inkscape:showpageshadow="2" inkscape:pageopacity="0.0" inkscape:pagecheckerboard="0" inkscape:deskcolor="#d1d1d1" inkscape:zoom="4.3531261" inkscape:cx="36.755195" inkscape:cy="26.073217" inkscape:window-width="1280" inkscape:window-height="669" inkscape:window-x="0" inkscape:window-y="0" inkscape:window-maximized="0" inkscape:current-layer="svg7" showgrid="false"/>
  <defs id="defs2">
    <filter style="color-interpolation-filters:sRGB;" inkscape:label="Blur" id="filter3" x="-0.10843471" y="-0.10870992" width="1.2168694" height="1.2174198">
      <feGaussianBlur stdDeviation="0.5 0.5" result="blur" id="feGaussianBlur3"/>
    </filter>
    <style id="current-color-scheme" type="text/css">.ColorScheme-Text {color:#d8dee9} .ColorScheme-Highlight {color:#3b4252}</style>
  <linearGradient id="linearGradient3" inkscape:collect="always">
      <stop style="stop-color:#000000;stop-opacity:1;" offset="0" id="stop3"/>
      <stop style="stop-color:#000000;stop-opacity:0;" offset="1" id="stop4"/>
    </linearGradient>
    <linearGradient xmlns:xlink="http://www.w3.org/1999/xlink" inkscape:collect="always" xlink:href="#linearGradient3" id="linearGradient4" x1="13.512321" y1="13.490874" x2="3.3783066" y2="3.3568602" gradientUnits="userSpaceOnUse"/>
  </defs>
  <metadata id="metadata2">
    <rdf:RDF>
      <cc:Work rdf:about="">
        <dc:format>image/svg+xml</dc:format>
        <dc:type rdf:resource="http://purl.org/dc/dcmitype/StillImage"/>
      </cc:Work>
    </rdf:RDF>
  </metadata>
  <ellipse style="opacity:1;fill:none;stroke:#000000;stroke-width:0.582072;stroke-dasharray:none;stroke-opacity:1;filter:url(#filter3)" id="path1-5" cx="8.4450111" cy="8.423522" rx="6.8752708" ry="6.8578653"/>
  <ellipse style="opacity:1;fill:none;stroke-width:0.58207188;stroke-opacity:1;stroke:currentColor;stroke-dasharray:none;fill-opacity:1" id="path1" cx="8.4450111" cy="8.423522" rx="6.8752708" ry="6.8578653" class="ColorScheme-Text"/>
  <ellipse style="fill:currentColor;stroke:none;stroke-width:0.285844;stroke-dasharray:none;stroke-opacity:1" id="path1-2" cx="8.4557552" cy="8.423522" rx="6.5738997" ry="6.5692253" class="ColorScheme-Highlight"/>
<path id="path1-2-9-3" style="fill:#000000;fill-opacity:1;opacity:0.3;stroke-linecap:round;-inkscape-stroke:none" d="M 21.999621 4.0013832 A 3 3 0 0 0 19.000106 7.0008989 L 19.000106 57.001489 A 3 3 0 0 0 21.999621 60.001005 A 3 3 0 0 0 24.999137 57.001489 L 24.999137 7.0008989 A 3 3 0 0 0 21.999621 4.0013832 z M 30.044114 10.999016 A 3 3 0 0 0 27.044598 13.998531 A 3 3 0 0 0 30.044114 17.001759 L 40.999028 17.001759 A 3 3 0 0 0 43.998543 13.998531 A 3 3 0 0 0 40.999028 10.999016 L 30.044114 10.999016 z M 34.042231 20.001275 A 3 3 0 0 0 31.042715 23.000791 A 3 3 0 0 0 34.042231 26.000307 L 48.000372 26.000307 A 3 3 0 0 0 50.999887 23.000791 A 3 3 0 0 0 48.000372 20.001275 L 34.042231 20.001275 z M 34.042231 28.999822 A 3 3 0 0 0 31.042715 31.999338 A 3 3 0 0 0 34.042231 34.998854 L 48.000372 34.998854 A 3 3 0 0 0 50.999887 31.999338 A 3 3 0 0 0 48.000372 28.999822 L 34.042231 28.999822 z M 34.042231 37.998369 A 3 3 0 0 0 31.042715 41.001597 A 3 3 0 0 0 34.042231 44.001113 L 48.000372 44.001113 A 3 3 0 0 0 50.999887 41.001597 A 3 3 0 0 0 48.000372 37.998369 L 34.042231 37.998369 z M 30.044114 47.000629 A 3 3 0 0 0 27.044598 50.000144 A 3 3 0 0 0 30.044114 52.99966 L 40.999028 52.99966 A 3 3 0 0 0 43.998543 50.000144 A 3 3 0 0 0 40.999028 47.000629 L 30.044114 47.000629 z " transform="matrix(0.1392016,0,0,0.13920159,3.8590225,4.6735866)"/>
  <path id="path1-2-9" style="fill:currentColor;fill-opacity:1;stroke-linecap:round;-inkscape-stroke:none" class="ColorScheme-Text" d="M 21.999621 4.0013829 A 3 3 0 0 0 19.000106 7.0008986 L 19.000106 57.001489 A 3 3 0 0 0 21.999621 60.001004 A 3 3 0 0 0 24.999137 57.001489 L 24.999137 7.0008986 A 3 3 0 0 0 21.999621 4.0013829 z M 30.044114 10.999015 A 3 3 0 0 0 27.044598 13.998531 A 3 3 0 0 0 30.044114 17.001759 L 40.999028 17.001759 A 3 3 0 0 0 43.998543 13.998531 A 3 3 0 0 0 40.999028 10.999015 L 30.044114 10.999015 z M 34.042231 20.001275 A 3 3 0 0 0 31.042715 23.00079 A 3 3 0 0 0 34.042231 26.000306 L 48.000372 26.000306 A 3 3 0 0 0 50.999887 23.00079 A 3 3 0 0 0 48.000372 20.001275 L 34.042231 20.001275 z M 34.042231 28.999822 A 3 3 0 0 0 31.042715 31.999338 A 3 3 0 0 0 34.042231 34.998853 L 48.000372 34.998853 A 3 3 0 0 0 50.999887 31.999338 A 3 3 0 0 0 48.000372 28.999822 L 34.042231 28.999822 z M 34.042231 37.998369 A 3 3 0 0 0 31.042715 41.001597 A 3 3 0 0 0 34.042231 44.001113 L 48.000372 44.001113 A 3 3 0 0 0 50.999887 41.001597 A 3 3 0 0 0 48.000372 37.998369 L 34.042231 37.998369 z M 30.044114 47.000628 A 3 3 0 0 0 27.044598 50.000144 A 3 3 0 0 0 30.044114 52.99966 L 40.999028 52.99966 A 3 3 0 0 0 43.998543 50.000144 A 3 3 0 0 0 40.999028 47.000628 L 30.044114 47.000628 z " transform="matrix(0.1392016,0,0,0.13920159,3.8590225,4.1444303)"/>
<path id="gradient-path1" style="opacity:0.3;baseline-shift:baseline;display:inline;overflow:visible;vector-effect:none;enable-background:accumulate;stop-color:#000000;stop-opacity:1;fill:url(#linearGradient4)" d="M 8.4453131 1.2753492 C 4.4913166 1.2753492 1.2794833 4.4784283 1.2794833 8.4236094 C 1.2794833 12.36879 4.4913166 15.572386 8.4453131 15.572386 C 12.39931 15.572386 15.611143 12.36879 15.611143 8.4236094 C 15.611143 4.4784283 12.39931 1.2753492 8.4453131 1.2753492 z "/>
</svg>
