<?xml version='1.0' encoding='UTF-8'?>
<svg xmlns:inkscape="http://www.inkscape.org/namespaces/inkscape" xmlns:sodipodi="http://sodipodi.sourceforge.net/DTD/sodipodi-0.dtd" xmlns="http://www.w3.org/2000/svg" xmlns:svg="http://www.w3.org/2000/svg" xmlns:rdf="http://www.w3.org/1999/02/22-rdf-syntax-ns#" xmlns:cc="http://creativecommons.org/ns#" xmlns:dc="http://purl.org/dc/elements/1.1/" width="64" height="64" version="1.1" viewBox="0 0 16.933 16.933" id="svg7" sodipodi:docname="com.teamspeak.TeamSpeak3.svg" inkscape:version="1.4.2 (ebf0e940d0, 2025-05-08)">
  <sodipodi:namedview id="namedview7" pagecolor="#9c4444" bordercolor="#000000" borderopacity="0.25" inkscape:showpageshadow="2" inkscape:pageopacity="0.0" inkscape:pagecheckerboard="0" inkscape:deskcolor="#d1d1d1" inkscape:zoom="4.3531261" inkscape:cx="36.755195" inkscape:cy="26.073217" inkscape:window-width="1280" inkscape:window-height="669" inkscape:window-x="0" inkscape:window-y="0" inkscape:window-maximized="0" inkscape:current-layer="svg7" showgrid="false"/>
  <defs id="defs2">
    <filter style="color-interpolation-filters:sRGB;" inkscape:label="Blur" id="filter3" x="-0.10843471" y="-0.10870992" width="1.2168694" height="1.2174198">
      <feGaussianBlur stdDeviation="0.5 0.5" result="blur" id="feGaussianBlur3"/>
    </filter>
    <filter style="color-interpolation-filters:sRGB" inkscape:label="Blur" id="filter3-8" x="-0.10843471" y="-0.10870992" width="1.2168694" height="1.2174198">
      <feGaussianBlur stdDeviation="0.5 0.5" result="blur" id="feGaussianBlur3-7"/>
    </filter>
    <style id="current-color-scheme" type="text/css">.ColorScheme-Text {color:#d8dee9} .ColorScheme-Highlight {color:#3b4252}</style>
  <linearGradient id="linearGradient3" inkscape:collect="always">
      <stop style="stop-color:#000000;stop-opacity:1;" offset="0" id="stop3"/>
      <stop style="stop-color:#000000;stop-opacity:0;" offset="1" id="stop4"/>
    </linearGradient>
    <linearGradient xmlns:xlink="http://www.w3.org/1999/xlink" inkscape:collect="always" xlink:href="#linearGradient3" id="linearGradient4" x1="13.512321" y1="13.490874" x2="3.3783066" y2="3.3568602" gradientUnits="userSpaceOnUse"/>
  </defs>
  <metadata id="metadata2">
    <rdf:RDF>
      <cc:Work rdf:about="">
        <dc:format>image/svg+xml</dc:format>
        <dc:type rdf:resource="http://purl.org/dc/dcmitype/StillImage"/>
      </cc:Work>
    </rdf:RDF>
  </metadata>
  <ellipse style="opacity:1;fill:none;stroke:#000000;stroke-width:0.582072;stroke-dasharray:none;stroke-opacity:1;filter:url(#filter3)" id="path1-5" cx="8.4450111" cy="8.423522" rx="6.8752708" ry="6.8578653"/>
  <ellipse style="opacity:1;fill:none;stroke-width:0.58207188;stroke-opacity:1;stroke:currentColor;stroke-dasharray:none;fill-opacity:1" id="path1" cx="8.4450111" cy="8.423522" rx="6.8752708" ry="6.8578653" class="ColorScheme-Text"/>
  <ellipse style="fill:currentColor;stroke:none;stroke-width:0.285844;stroke-dasharray:none;stroke-opacity:1" id="path1-2" cx="8.4557552" cy="8.423522" rx="6.5738997" ry="6.5692253" class="ColorScheme-Highlight"/>
<path id="path9-9" style="fill:#000000;fill-opacity:1;opacity:0.3;stroke-width:1.43844" class="st0" d="M -40.839827 2.3953225 C -43.407983 2.5427185 -46.056972 3.0737601 -48.792339 3.9915994 C -53.351283 5.5723251 -57.189747 8.4276409 -60.452997 12.302964 C -60.83689 12.812874 -61.125642 13.477084 -60.74173 14.088979 C -60.357801 14.64988 -60.548667 14.852478 -60.836599 15.260407 C -63.140067 18.62582 -64.726723 22.400431 -65.398569 26.479718 C -65.494546 27.040621 -65.682868 27.245058 -66.066778 27.449033 C -67.650412 28.264891 -68.662041 29.744855 -68.949975 31.631526 C -69.141925 32.804318 -68.948875 33.925369 -69.044845 34.894201 C -69.044845 35.914019 -69.043744 36.678784 -69.139714 37.290679 C -69.139714 41.166 -67.207596 43.562155 -63.608429 43.358181 C -62.69664 43.358181 -62.214264 42.796371 -62.214264 41.980515 C -62.118304 39.481951 -62.119395 37.033913 -62.119395 34.535348 C -62.119395 31.934803 -62.215681 29.183383 -61.735794 26.582836 C -59.000427 11.387484 -42.267855 3.0752365 -29.694762 10.417955 C -22.064528 14.905175 -17.806438 21.941303 -17.51851 31.272673 C -17.42255 34.740071 -17.51851 38.207889 -17.51851 41.675284 C -17.51851 42.542134 -17.180901 43.154206 -16.413078 43.358181 C -13.629723 44.021064 -11.167819 41.929924 -10.68793 38.870457 C -10.400006 36.779823 -10.593061 34.691476 -10.593061 32.600842 C -10.593061 30.204261 -11.59946 28.416726 -13.567003 27.345915 C -13.854938 27.141949 -14.143377 26.937145 -14.239337 26.529215 C -14.959168 22.347946 -16.54472 18.476193 -18.896176 15.008798 C -19.088152 14.804832 -19.376872 14.598184 -19.184908 14.39421 C -18.177139 13.017449 -19.184292 12.252626 -19.952111 11.436767 C -26.178672 4.9736446 -33.13536 1.9531346 -40.839827 2.3953225 z M -53.511049 33.108186 C -54.937342 33.19982 -56.065698 34.417445 -56.377748 36.374985 C -56.922418 39.507059 -56.378344 42.447515 -54.78972 45.057576 C -53.65499 46.908347 -52.063996 47.71383 -50.112258 47.903652 C -49.02292 47.856202 -44.622578 48.095651 -43.669404 47.668541 C -42.443895 47.193984 -41.532889 46.293592 -41.260552 44.822466 C -40.988219 43.35134 -42.579667 41.311195 -44.712965 39.175688 C -46.937036 36.945272 -49.839431 34.568724 -51.428052 33.714523 C -52.151444 33.254797 -52.862734 33.066533 -53.511049 33.108186 z M -26.093858 37.550538 C -26.338119 37.55044 -26.594061 37.57481 -26.856937 37.624783 C -28.780962 37.924623 -30.436937 38.872039 -32.181984 39.571663 C -33.748051 40.27129 -35.13449 41.12034 -36.253109 42.219751 C -37.819175 43.868868 -36.969301 46.117789 -34.508341 46.967334 C -34.195127 47.117252 -33.746612 47.217991 -33.254419 47.317938 C -31.867332 47.517842 -30.570382 47.820206 -29.183294 47.920151 C -27.34876 48.020091 -25.963933 47.42059 -24.934805 46.171258 C -23.637206 44.622087 -23.009804 42.672376 -23.099292 40.623474 C -23.177605 38.743232 -24.384033 37.55122 -26.093858 37.550538 z M -17.749496 44.962707 C -18.00483 44.951586 -18.287309 45.126828 -18.454828 45.391681 C -19.380746 48.280989 -23.666836 57.959092 -38.286609 58.970347 C -55.537941 60.174225 -29.07719 63.83585 -21.523639 58.298013 C -18.94081 56.323653 -16.01863 54.349029 -16.116096 48.66673 C -16.116096 47.559161 -16.652168 45.680808 -17.431891 45.102949 C -17.523264 45.012658 -17.633435 44.967763 -17.749496 44.962707 z " transform="matrix(0.12528143,0,0,0.12528143,13.553517,5.0136936)"/>
  <path id="path9" style="fill:currentColor;fill-opacity:1;stroke-width:1.43844" class="ColorScheme-Text" d="M -40.839827 2.3953221 C -43.407983 2.5427181 -46.056972 3.0737597 -48.792339 3.991599 C -53.351283 5.5723247 -57.189747 8.4276405 -60.452997 12.302963 C -60.83689 12.812873 -61.125642 13.477084 -60.74173 14.088979 C -60.357801 14.64988 -60.548667 14.852478 -60.836599 15.260407 C -63.140067 18.62582 -64.726723 22.40043 -65.398569 26.479717 C -65.494546 27.04062 -65.682868 27.245058 -66.066778 27.449033 C -67.650412 28.264891 -68.662041 29.744855 -68.949975 31.631526 C -69.141925 32.804318 -68.948875 33.925368 -69.044845 34.8942 C -69.044845 35.914018 -69.043744 36.678783 -69.139714 37.290678 C -69.139714 41.165999 -67.207596 43.562154 -63.608429 43.35818 C -62.69664 43.35818 -62.214264 42.796371 -62.214264 41.980515 C -62.118304 39.481951 -62.119395 37.033912 -62.119395 34.535347 C -62.119395 31.934802 -62.215681 29.183383 -61.735794 26.582836 C -59.000427 11.387484 -42.267855 3.0752361 -29.694762 10.417954 C -22.064528 14.905174 -17.806438 21.941303 -17.51851 31.272673 C -17.42255 34.740071 -17.51851 38.207889 -17.51851 41.675284 C -17.51851 42.542134 -17.180901 43.154205 -16.413078 43.35818 C -13.629723 44.021063 -11.167819 41.929923 -10.68793 38.870456 C -10.400006 36.779822 -10.593061 34.691475 -10.593061 32.600841 C -10.593061 30.20426 -11.59946 28.416725 -13.567003 27.345914 C -13.854938 27.141948 -14.143377 26.937144 -14.239337 26.529214 C -14.959168 22.347945 -16.54472 18.476192 -18.896176 15.008797 C -19.088152 14.804831 -19.376872 14.598184 -19.184908 14.39421 C -18.177139 13.017449 -19.184292 12.252626 -19.952111 11.436767 C -26.178672 4.9736442 -33.13536 1.9531342 -40.839827 2.3953221 z M -53.511049 33.108185 C -54.937342 33.19982 -56.065698 34.417444 -56.377748 36.374984 C -56.922418 39.507058 -56.378344 42.447515 -54.78972 45.057576 C -53.65499 46.908347 -52.063996 47.713829 -50.112258 47.903651 C -49.02292 47.856201 -44.622578 48.095651 -43.669404 47.668541 C -42.443895 47.193984 -41.532889 46.293591 -41.260552 44.822465 C -40.988219 43.351339 -42.579667 41.311194 -44.712965 39.175687 C -46.937036 36.945271 -49.839431 34.568724 -51.428052 33.714523 C -52.151444 33.254797 -52.862734 33.066533 -53.511049 33.108185 z M -26.093858 37.550537 C -26.338119 37.55044 -26.594061 37.574809 -26.856937 37.624783 C -28.780962 37.924623 -30.436937 38.872039 -32.181984 39.571663 C -33.748051 40.27129 -35.13449 41.120339 -36.253109 42.21975 C -37.819175 43.868867 -36.969301 46.117789 -34.508341 46.967334 C -34.195127 47.117252 -33.746612 47.21799 -33.254419 47.317937 C -31.867332 47.517841 -30.570382 47.820205 -29.183294 47.92015 C -27.34876 48.02009 -25.963933 47.42059 -24.934805 46.171258 C -23.637206 44.622087 -23.009804 42.672375 -23.099292 40.623473 C -23.177605 38.743231 -24.384033 37.55122 -26.093858 37.550537 z M -17.749496 44.962707 C -18.00483 44.951585 -18.287309 45.126827 -18.454828 45.39168 C -19.380746 48.280988 -23.666836 57.959091 -38.286609 58.970346 C -55.537941 60.174224 -29.07719 63.83585 -21.523639 58.298013 C -18.94081 56.323653 -16.01863 54.349028 -16.116096 48.666729 C -16.116096 47.55916 -16.652168 45.680807 -17.431891 45.102948 C -17.523264 45.012657 -17.633435 44.967762 -17.749496 44.962707 z " transform="matrix(0.12528143,0,0,0.12528143,13.553517,4.4845373)"/>
<path id="gradient-path1" style="opacity:0.3;baseline-shift:baseline;display:inline;overflow:visible;vector-effect:none;enable-background:accumulate;stop-color:#000000;stop-opacity:1;fill:url(#linearGradient4)" d="M 8.4453131 1.2753492 C 4.4913166 1.2753492 1.2794833 4.4784283 1.2794833 8.4236094 C 1.2794833 12.36879 4.4913166 15.572386 8.4453131 15.572386 C 12.39931 15.572386 15.611143 12.36879 15.611143 8.4236094 C 15.611143 4.4784283 12.39931 1.2753492 8.4453131 1.2753492 z "/>
</svg>
