<?xml version='1.0' encoding='UTF-8'?>
<svg xmlns:inkscape="http://www.inkscape.org/namespaces/inkscape" xmlns:sodipodi="http://sodipodi.sourceforge.net/DTD/sodipodi-0.dtd" xmlns="http://www.w3.org/2000/svg" xmlns:svg="http://www.w3.org/2000/svg" xmlns:rdf="http://www.w3.org/1999/02/22-rdf-syntax-ns#" xmlns:cc="http://creativecommons.org/ns#" xmlns:dc="http://purl.org/dc/elements/1.1/" width="64" height="64" version="1.1" viewBox="0 0 16.933 16.933" id="svg7" sodipodi:docname="com.slack.Slack.svg" inkscape:version="1.4.2 (ebf0e940d0, 2025-05-08)">
  <sodipodi:namedview id="namedview7" pagecolor="#9c4444" bordercolor="#000000" borderopacity="0.25" inkscape:showpageshadow="2" inkscape:pageopacity="0.0" inkscape:pagecheckerboard="0" inkscape:deskcolor="#d1d1d1" inkscape:zoom="4.3531261" inkscape:cx="36.755195" inkscape:cy="26.073217" inkscape:window-width="1280" inkscape:window-height="669" inkscape:window-x="0" inkscape:window-y="0" inkscape:window-maximized="0" inkscape:current-layer="svg7" showgrid="false"/>
  <defs id="defs2">
    <filter style="color-interpolation-filters:sRGB;" inkscape:label="Blur" id="filter3" x="-0.10843471" y="-0.10870992" width="1.2168694" height="1.2174198">
      <feGaussianBlur stdDeviation="0.5 0.5" result="blur" id="feGaussianBlur3"/>
    </filter>
    <filter style="color-interpolation-filters:sRGB" inkscape:label="Blur" id="filter3-8" x="-0.10843471" y="-0.10870992" width="1.2168694" height="1.2174198">
      <feGaussianBlur stdDeviation="0.5 0.5" result="blur" id="feGaussianBlur3-7"/>
    </filter>
    <style id="current-color-scheme" type="text/css">.ColorScheme-Text {color:#d8dee9} .ColorScheme-Highlight {color:#3b4252}</style>
  <linearGradient id="linearGradient3" inkscape:collect="always">
      <stop style="stop-color:#000000;stop-opacity:1;" offset="0" id="stop3"/>
      <stop style="stop-color:#000000;stop-opacity:0;" offset="1" id="stop4"/>
    </linearGradient>
    <linearGradient xmlns:xlink="http://www.w3.org/1999/xlink" inkscape:collect="always" xlink:href="#linearGradient3" id="linearGradient4" x1="13.512321" y1="13.490874" x2="3.3783066" y2="3.3568602" gradientUnits="userSpaceOnUse"/>
  </defs>
  <metadata id="metadata2">
    <rdf:RDF>
      <cc:Work rdf:about="">
        <dc:format>image/svg+xml</dc:format>
        <dc:type rdf:resource="http://purl.org/dc/dcmitype/StillImage"/>
      </cc:Work>
    </rdf:RDF>
  </metadata>
  <ellipse style="opacity:1;fill:none;stroke:#000000;stroke-width:0.582072;stroke-dasharray:none;stroke-opacity:1;filter:url(#filter3)" id="path1-5" cx="8.4450111" cy="8.423522" rx="6.8752708" ry="6.8578653"/>
  <ellipse style="opacity:1;fill:none;stroke-width:0.58207188;stroke-opacity:1;stroke:currentColor;stroke-dasharray:none;fill-opacity:1" id="path1" cx="8.4450111" cy="8.423522" rx="6.8752708" ry="6.8578653" class="ColorScheme-Text"/>
  <ellipse style="fill:currentColor;stroke:none;stroke-width:0.285844;stroke-dasharray:none;stroke-opacity:1" id="path1-2" cx="8.4557552" cy="8.423522" rx="6.5738997" ry="6.5692253" class="ColorScheme-Highlight"/>
<path id="path10-5" style="fill:#000000;fill-opacity:1;opacity:0.3;stroke-width:1.44395" d="M 24.030614 2.4033095 A 5.7408003 5.8110043 0 0 0 18.288966 8.2150774 A 5.7408003 5.8110043 0 0 0 24.030614 14.026845 L 29.768136 14.026845 L 29.768136 8.2150774 A 5.7408003 5.8110043 0 0 0 24.030614 2.4033095 z M 39.816019 2.4033095 A 5.7408003 5.8110043 0 0 0 34.074372 8.2150774 L 34.074372 24.194346 A 5.7408003 5.8110043 0 0 0 39.816019 30.006114 A 5.7408003 5.8110043 0 0 0 45.557666 24.194346 L 45.557666 8.2150774 A 5.7408003 5.8110043 0 0 0 39.816019 2.4033095 z M 8.2410837 18.386703 A 5.7408003 5.8110043 0 0 0 2.4994365 24.194346 A 5.7408003 5.8110043 0 0 0 8.2410837 30.006114 L 24.030614 30.006114 A 5.7408003 5.8110043 0 0 0 29.768136 24.194346 A 5.7408003 5.8110043 0 0 0 24.030614 18.386703 L 8.2410837 18.386703 z M 55.601424 18.386703 A 5.7408003 5.8110043 0 0 0 49.863902 24.194346 L 49.863902 30.006114 L 55.601424 30.006114 A 5.7408003 5.8110043 0 0 0 61.343071 24.194346 A 5.7408003 5.8110043 0 0 0 55.601424 18.386703 z M 8.2410837 34.365971 A 5.7408003 5.8110043 0 0 0 2.4994365 40.177739 A 5.7408003 5.8110043 0 0 0 8.2410837 45.985382 A 5.7408003 5.8110043 0 0 0 13.982731 40.177739 L 13.982731 34.365971 L 8.2410837 34.365971 z M 24.030614 34.365971 A 5.7408003 5.8110043 0 0 0 18.288966 40.177739 L 18.288966 56.157007 A 5.7408003 5.8110043 0 0 0 24.030614 61.968775 A 5.7408003 5.8110043 0 0 0 29.768136 56.157007 L 29.768136 40.177739 A 5.7408003 5.8110043 0 0 0 24.030614 34.365971 z M 39.816019 34.365971 A 5.7408003 5.8110043 0 0 0 34.074372 40.177739 A 5.7408003 5.8110043 0 0 0 39.816019 45.985382 L 55.601424 45.985382 A 5.7408003 5.8110043 0 0 0 61.343071 40.177739 A 5.7408003 5.8110043 0 0 0 55.601424 34.365971 L 39.816019 34.365971 z M 34.074372 50.345239 L 34.074372 56.157007 A 5.7408003 5.8110043 0 0 0 39.816019 61.968775 A 5.7408003 5.8110043 0 0 0 45.557666 56.157007 A 5.7408003 5.8110043 0 0 0 39.816019 50.345239 L 34.074372 50.345239 z " transform="matrix(0.12528143,0,0,0.12528143,4.4466894,5.0654019)"/>
  <path id="path10" style="fill:currentColor;fill-opacity:1;stroke-width:1.44395" class="ColorScheme-Text" d="M 24.030614 2.4033091 A 5.7408003 5.8110043 0 0 0 18.288966 8.215077 A 5.7408003 5.8110043 0 0 0 24.030614 14.026845 L 29.768136 14.026845 L 29.768136 8.215077 A 5.7408003 5.8110043 0 0 0 24.030614 2.4033091 z M 39.816019 2.4033091 A 5.7408003 5.8110043 0 0 0 34.074372 8.215077 L 34.074372 24.194345 A 5.7408003 5.8110043 0 0 0 39.816019 30.006113 A 5.7408003 5.8110043 0 0 0 45.557666 24.194345 L 45.557666 8.215077 A 5.7408003 5.8110043 0 0 0 39.816019 2.4033091 z M 8.2410837 18.386702 A 5.7408003 5.8110043 0 0 0 2.4994365 24.194345 A 5.7408003 5.8110043 0 0 0 8.2410837 30.006113 L 24.030614 30.006113 A 5.7408003 5.8110043 0 0 0 29.768136 24.194345 A 5.7408003 5.8110043 0 0 0 24.030614 18.386702 L 8.2410837 18.386702 z M 55.601424 18.386702 A 5.7408003 5.8110043 0 0 0 49.863902 24.194345 L 49.863902 30.006113 L 55.601424 30.006113 A 5.7408003 5.8110043 0 0 0 61.343071 24.194345 A 5.7408003 5.8110043 0 0 0 55.601424 18.386702 z M 8.2410837 34.36597 A 5.7408003 5.8110043 0 0 0 2.4994365 40.177738 A 5.7408003 5.8110043 0 0 0 8.2410837 45.985382 A 5.7408003 5.8110043 0 0 0 13.982731 40.177738 L 13.982731 34.36597 L 8.2410837 34.36597 z M 24.030614 34.36597 A 5.7408003 5.8110043 0 0 0 18.288966 40.177738 L 18.288966 56.157007 A 5.7408003 5.8110043 0 0 0 24.030614 61.968775 A 5.7408003 5.8110043 0 0 0 29.768136 56.157007 L 29.768136 40.177738 A 5.7408003 5.8110043 0 0 0 24.030614 34.36597 z M 39.816019 34.36597 A 5.7408003 5.8110043 0 0 0 34.074372 40.177738 A 5.7408003 5.8110043 0 0 0 39.816019 45.985382 L 55.601424 45.985382 A 5.7408003 5.8110043 0 0 0 61.343071 40.177738 A 5.7408003 5.8110043 0 0 0 55.601424 34.36597 L 39.816019 34.36597 z M 34.074372 50.345239 L 34.074372 56.157007 A 5.7408003 5.8110043 0 0 0 39.816019 61.968775 A 5.7408003 5.8110043 0 0 0 45.557666 56.157007 A 5.7408003 5.8110043 0 0 0 39.816019 50.345239 L 34.074372 50.345239 z " transform="matrix(0.12528143,0,0,0.12528143,4.4466894,4.5362457)"/>
<path id="gradient-path1" style="opacity:0.3;baseline-shift:baseline;display:inline;overflow:visible;vector-effect:none;enable-background:accumulate;stop-color:#000000;stop-opacity:1;fill:url(#linearGradient4)" d="M 8.4453131 1.2753492 C 4.4913166 1.2753492 1.2794833 4.4784283 1.2794833 8.4236094 C 1.2794833 12.36879 4.4913166 15.572386 8.4453131 15.572386 C 12.39931 15.572386 15.611143 12.36879 15.611143 8.4236094 C 15.611143 4.4784283 12.39931 1.2753492 8.4453131 1.2753492 z "/>
</svg>
