<?xml version="1.0" encoding="UTF-8" standalone="no"?>
<svg
   width="64"
   height="64"
   version="1.1"
   viewBox="0 0 16.933 16.933"
   id="svg7"
   sodipodi:docname="compton.svg"
   inkscape:version="1.4.2 (ebf0e940d0, 2025-05-08)"
   xmlns:inkscape="http://www.inkscape.org/namespaces/inkscape"
   xmlns:sodipodi="http://sodipodi.sourceforge.net/DTD/sodipodi-0.dtd"
   xmlns:xlink="http://www.w3.org/1999/xlink"
   xmlns="http://www.w3.org/2000/svg"
   xmlns:svg="http://www.w3.org/2000/svg"
   xmlns:rdf="http://www.w3.org/1999/02/22-rdf-syntax-ns#"
   xmlns:cc="http://creativecommons.org/ns#"
   xmlns:dc="http://purl.org/dc/elements/1.1/">
  <sodipodi:namedview
     id="namedview7"
     pagecolor="#9c4444"
     bordercolor="#000000"
     borderopacity="0.25"
     inkscape:showpageshadow="2"
     inkscape:pageopacity="0.0"
     inkscape:pagecheckerboard="0"
     inkscape:deskcolor="#d1d1d1"
     inkscape:zoom="4.3531261"
     inkscape:cx="36.984915"
     inkscape:cy="25.958357"
     inkscape:window-width="2560"
     inkscape:window-height="1376"
     inkscape:window-x="0"
     inkscape:window-y="0"
     inkscape:window-maximized="1"
     inkscape:current-layer="svg7"
     showgrid="false" />
  <defs
     id="defs2">
    <filter
       style="color-interpolation-filters:sRGB;"
       inkscape:label="Blur"
       id="filter3"
       x="-0.10843471"
       y="-0.10870992"
       width="1.2168694"
       height="1.2174198">
      <feGaussianBlur
         stdDeviation="0.5 0.5"
         result="blur"
         id="feGaussianBlur3" />
    </filter>
    <filter
       style="color-interpolation-filters:sRGB"
       inkscape:label="Blur"
       id="filter3-8"
       x="-0.10843471"
       y="-0.10870992"
       width="1.2168694"
       height="1.2174198">
      <feGaussianBlur
         stdDeviation="0.5 0.5"
         result="blur"
         id="feGaussianBlur3-7" />
    </filter>
    <style
       id="current-color-scheme"
       type="text/css">.ColorScheme-Text {color:#d8dee9} .ColorScheme-Highlight {color:#3b4252}</style>
    <linearGradient
       id="linearGradient3"
       inkscape:collect="always">
      <stop
         style="stop-color:#000000;stop-opacity:1;"
         offset="0"
         id="stop3" />
      <stop
         style="stop-color:#000000;stop-opacity:0;"
         offset="1"
         id="stop4" />
    </linearGradient>
    <linearGradient
       inkscape:collect="always"
       xlink:href="#linearGradient3"
       id="linearGradient4"
       x1="13.512321"
       y1="13.490874"
       x2="3.3783066"
       y2="3.3568602"
       gradientUnits="userSpaceOnUse" />
  </defs>
  <metadata
     id="metadata2">
    <rdf:RDF>
      <cc:Work
         rdf:about="">
        <dc:format>image/svg+xml</dc:format>
        <dc:type
           rdf:resource="http://purl.org/dc/dcmitype/StillImage" />
      </cc:Work>
    </rdf:RDF>
  </metadata>
  <ellipse
     style="opacity:1;fill:none;stroke:#000000;stroke-width:0.582072;stroke-dasharray:none;stroke-opacity:1;filter:url(#filter3)"
     id="path1-5"
     cx="8.4450111"
     cy="8.423522"
     rx="6.8752708"
     ry="6.8578653" />
  <ellipse
     style="opacity:1;fill:none;stroke-width:0.58207188;stroke-opacity:1;stroke:currentColor;stroke-dasharray:none;fill-opacity:1"
     id="path1"
     cx="8.4450111"
     cy="8.423522"
     rx="6.8752708"
     ry="6.8578653"
     class="ColorScheme-Text" />
  <ellipse
     style="fill:currentColor;stroke:none;stroke-width:0.285844;stroke-dasharray:none;stroke-opacity:1"
     id="path1-2"
     cx="8.4557552"
     cy="8.423522"
     rx="6.5738997"
     ry="6.5692253"
     class="ColorScheme-Highlight" />
  <path
     id="path4"
     d="m 8.210173,5.1592894 c -0.111669,0.0076 -0.222098,0.02001 -0.33101,0.03697 l -0.159236,0.798281 c -0.296508,0.0777 -0.575588,0.196666 -0.829954,0.353678 L 6.208141,5.8927474 c -0.320336,0.234977 -0.60333,0.518142 -0.837959,0.838737 l 0.467115,0.700309 c -0.142342,0.247248 -0.255255,0.51611 -0.324515,0.800608 l -0.836448,0.165186 c -0.0304,0.193725 -0.04622,0.391896 -0.04622,0.59362 0,0.20235 0.01591,0.401245 0.0465,0.595326 l 0.852719,0.168471 C 5.602243,10.028121 5.713717,10.28631 5.85437,10.523868 l -0.484011,0.727238 c 0.235073,0.321039 0.518598,0.604658 0.839557,0.839815 l 0.728073,-0.485163 c 0.237563,0.140649 0.495844,0.254174 0.768969,0.327076 l 0.168647,0.8527 c 0.194176,0.03058 0.392982,0.0465 0.595338,0.0465 0.201733,0 0.399996,-0.01582 0.593549,-0.04614 l 0.165279,-0.836429 c 0.284506,-0.06926 0.553544,-0.180119 0.800797,-0.322457 l 0.699615,0.465419 c 0.320957,-0.23489 0.604585,-0.518139 0.839747,-0.838912 l -0.453883,-0.681033 c 0.157012,-0.254451 0.27402,-0.533602 0.351726,-0.8301066 l 0.798123,-0.159406 c 0.01707,-0.108908 0.02943,-0.219336 0.03699,-0.330999 v -0.521519 c -0.0076,-0.111043 -0.01983,-0.22084 -0.03673,-0.329127 l -0.782387,-0.156123 c -0.07362,-0.308149 -0.191672,-0.598159 -0.350284,-0.862476 l 0.436535,-0.653461 c -0.234806,-0.320239 -0.517796,-0.603228 -0.838133,-0.837853 l -0.652675,0.435294 C 9.814977,6.1680084 9.524958,6.0519694 9.216803,5.9783584 L 9.060849,5.1959834 c -0.10829,-0.01691 -0.218087,-0.02916 -0.329133,-0.03671 z m 0.352958,1.596039 c 0.596306,0 1.157146,0.231963 1.579282,0.65311 L 9.527072,8.0250834 C 9.269415,7.7680584 8.927121,7.6264294 8.563131,7.6264294 c -0.75252,0 -1.364827,0.612209 -1.364827,1.364795 0,0.752504 0.612219,1.3647946 1.364827,1.3647946 0.36399,0 0.706284,-0.141535 0.963941,-0.3986536 l 0.615341,0.6166506 c -0.422136,0.421147 -0.982976,0.65311 -1.579282,0.65311 -0.597286,0 -1.158741,-0.232578 -1.581055,-0.654883 C 6.559763,10.149936 6.327195,9.5884074 6.327195,8.9912244 c 0,-0.59727 0.232568,-1.158712 0.654881,-1.581012 0.422314,-0.422306 0.983858,-0.654884 1.581055,-0.654884 z"
     style="opacity:0.3;fill:#000000;fill-opacity:1;stroke-width:0.00889068" />
  <path
     id="path4-7"
     d="m 8.210173,4.6301355 c -0.111669,0.0076 -0.222098,0.02001 -0.33101,0.03697 l -0.159236,0.798281 c -0.296508,0.0777 -0.575588,0.196666 -0.829954,0.353678 L 6.208141,5.3635935 c -0.320336,0.234977 -0.60333,0.518142 -0.837959,0.838737 l 0.467115,0.700309 c -0.142342,0.247248 -0.255255,0.51611 -0.324515,0.800608 l -0.836448,0.165186 c -0.0304,0.193725 -0.04622,0.391896 -0.04622,0.59362 0,0.20235 0.01591,0.401245 0.0465,0.595326 l 0.852719,0.168471 c 0.07291,0.273117 0.184384,0.531306 0.325037,0.768864 L 5.370359,10.721952 c 0.235073,0.321039 0.518598,0.604658 0.839557,0.839815 l 0.728073,-0.485163 c 0.237563,0.140649 0.495844,0.254174 0.768969,0.327076 l 0.168647,0.8527 c 0.194176,0.03058 0.392982,0.0465 0.595338,0.0465 0.201733,0 0.399996,-0.01582 0.593549,-0.04614 l 0.165279,-0.836429 c 0.284506,-0.06926 0.553544,-0.180119 0.800797,-0.322457 l 0.699615,0.465419 c 0.320957,-0.23489 0.604585,-0.518139 0.839747,-0.838912 l -0.453883,-0.681033 c 0.157012,-0.2544505 0.27402,-0.5336015 0.351726,-0.8301065 l 0.798123,-0.159406 c 0.01707,-0.108908 0.02943,-0.219336 0.03699,-0.330999 v -0.521519 c -0.0076,-0.111043 -0.01983,-0.22084 -0.03673,-0.329127 l -0.782387,-0.156123 c -0.07362,-0.308149 -0.191672,-0.598159 -0.350284,-0.862476 l 0.436535,-0.653461 c -0.234806,-0.320239 -0.517796,-0.603228 -0.838133,-0.837853 l -0.652675,0.435294 C 9.814977,5.6388545 9.524958,5.5228155 9.216803,5.4492045 L 9.060849,4.6668295 c -0.10829,-0.01691 -0.218087,-0.02916 -0.329133,-0.03671 z m 0.352958,1.596039 c 0.596306,0 1.157146,0.231963 1.579282,0.65311 L 9.527072,7.4959295 C 9.269415,7.2389045 8.927121,7.0972755 8.563131,7.0972755 c -0.75252,0 -1.364827,0.612209 -1.364827,1.364795 0,0.752504 0.612219,1.364795 1.364827,1.364795 0.36399,0 0.706284,-0.141535 0.963941,-0.398654 l 0.615341,0.6166495 c -0.422136,0.421148 -0.982976,0.653111 -1.579282,0.653111 -0.597286,0 -1.158741,-0.232578 -1.581055,-0.654884 C 6.559763,9.6207825 6.327195,9.0592535 6.327195,8.4620705 c 0,-0.59727 0.232568,-1.158712 0.654881,-1.581012 0.422314,-0.422306 0.983858,-0.654884 1.581055,-0.654884 z"
     class="ColorScheme-Text"
     style="fill:currentColor;fill-opacity:1;stroke-width:0.00889068" />
  <path
     id="gradient-path1"
     style="opacity:0.3;baseline-shift:baseline;display:inline;overflow:visible;vector-effect:none;enable-background:accumulate;stop-color:#000000;stop-opacity:1;fill:url(#linearGradient4)"
     d="M 8.4453131 1.2753492 C 4.4913166 1.2753492 1.2794833 4.4784283 1.2794833 8.4236094 C 1.2794833 12.36879 4.4913166 15.572386 8.4453131 15.572386 C 12.39931 15.572386 15.611143 12.36879 15.611143 8.4236094 C 15.611143 4.4784283 12.39931 1.2753492 8.4453131 1.2753492 z " />
</svg>
