<?xml version="1.0" encoding="UTF-8" standalone="no"?>
<svg
   width="64"
   height="64"
   version="1.1"
   viewBox="0 0 16.933 16.933"
   id="svg7"
   sodipodi:docname="conky.svg"
   inkscape:version="1.4.2 (ebf0e940d0, 2025-05-08)"
   xmlns:inkscape="http://www.inkscape.org/namespaces/inkscape"
   xmlns:sodipodi="http://sodipodi.sourceforge.net/DTD/sodipodi-0.dtd"
   xmlns:xlink="http://www.w3.org/1999/xlink"
   xmlns="http://www.w3.org/2000/svg"
   xmlns:svg="http://www.w3.org/2000/svg"
   xmlns:rdf="http://www.w3.org/1999/02/22-rdf-syntax-ns#"
   xmlns:cc="http://creativecommons.org/ns#"
   xmlns:dc="http://purl.org/dc/elements/1.1/">
  <sodipodi:namedview
     id="namedview7"
     pagecolor="#9c4444"
     bordercolor="#000000"
     borderopacity="0.25"
     inkscape:showpageshadow="2"
     inkscape:pageopacity="0.0"
     inkscape:pagecheckerboard="0"
     inkscape:deskcolor="#d1d1d1"
     inkscape:zoom="4.3531261"
     inkscape:cx="36.755195"
     inkscape:cy="27.106957"
     inkscape:window-width="2560"
     inkscape:window-height="1376"
     inkscape:window-x="0"
     inkscape:window-y="0"
     inkscape:window-maximized="1"
     inkscape:current-layer="svg7"
     showgrid="false" />
  <defs
     id="defs2">
    <filter
       style="color-interpolation-filters:sRGB;"
       inkscape:label="Blur"
       id="filter3"
       x="-0.10843471"
       y="-0.10870992"
       width="1.2168694"
       height="1.2174198">
      <feGaussianBlur
         stdDeviation="0.5 0.5"
         result="blur"
         id="feGaussianBlur3" />
    </filter>
    <style
       id="current-color-scheme"
       type="text/css">.ColorScheme-Text {color:#d8dee9} .ColorScheme-Highlight {color:#3b4252}</style>
    <linearGradient
       id="linearGradient3"
       inkscape:collect="always">
      <stop
         style="stop-color:#000000;stop-opacity:1;"
         offset="0"
         id="stop3" />
      <stop
         style="stop-color:#000000;stop-opacity:0;"
         offset="1"
         id="stop4" />
    </linearGradient>
    <linearGradient
       inkscape:collect="always"
       xlink:href="#linearGradient3"
       id="linearGradient4"
       x1="13.512321"
       y1="13.490874"
       x2="3.3783066"
       y2="3.3568602"
       gradientUnits="userSpaceOnUse" />
  </defs>
  <metadata
     id="metadata2">
    <rdf:RDF>
      <cc:Work
         rdf:about="">
        <dc:format>image/svg+xml</dc:format>
        <dc:type
           rdf:resource="http://purl.org/dc/dcmitype/StillImage" />
      </cc:Work>
    </rdf:RDF>
  </metadata>
  <ellipse
     style="opacity:1;fill:none;stroke:#000000;stroke-width:0.582072;stroke-dasharray:none;stroke-opacity:1;filter:url(#filter3)"
     id="path1-5"
     cx="8.4450111"
     cy="8.423522"
     rx="6.8752708"
     ry="6.8578653" />
  <ellipse
     style="opacity:1;fill:none;stroke-width:0.58207188;stroke-opacity:1;stroke:currentColor;stroke-dasharray:none;fill-opacity:1"
     id="path1"
     cx="8.4450111"
     cy="8.423522"
     rx="6.8752708"
     ry="6.8578653"
     class="ColorScheme-Text" />
  <ellipse
     style="fill:currentColor;stroke:none;stroke-width:0.285844;stroke-dasharray:none;stroke-opacity:1"
     id="path1-2"
     cx="8.4557552"
     cy="8.423522"
     rx="6.5738997"
     ry="6.5692253"
     class="ColorScheme-Highlight" />
  <path
     id="path5"
     style="opacity:0.3;fill:#000000;fill-opacity:1;stroke-width:0.00949953"
     d="m 6.3726115,5.2614124 c -0.486546,0 -0.947493,0.1782134 -1.302799,0.511113 -0.37558,0.3531724 -0.571927,0.8569499 -0.571927,1.368036 v 0.084034 0.7704013 0.9412331 0.1462297 c 0.0011,0.2464738 0.0085,0.4906838 0.08956,0.7275552 0.08963,0.2656793 0.238062,0.5090323 0.43012,0.7106933 0.05762,0.06082 0.120672,0.118273 0.185759,0.170555 0.202727,0.163249 0.440397,0.283886 0.700742,0.344704 0.218732,0.05121 0.433435,0.05335 0.654302,0.05335 h 1.402036 v 0.251825 c -0.374512,0.09069 -0.721551,0.283851 -0.9979,0.557 -0.182455,0.18032 -0.193125,0.514223 0,0.691343 0.106698,0.0971 0.243396,0.145168 0.376769,0.138766 0.113101,-0.0053 0.225224,-0.05021 0.314851,-0.138766 0.03521,-0.03521 0.07129,-0.06829 0.108635,-0.09924 0.016,-0.01067 0.0321,-0.02222 0.0481,-0.03289 0.06402,-0.04268 0.130225,-0.07915 0.199579,-0.112229 0.09389,-0.03521 0.19098,-0.06171 0.289143,-0.07878 0.05762,-0.0053 0.116255,-0.0077 0.173873,-0.0066 0.04161,0.0011 0.08333,0.0023 0.124944,0.0066 0.09923,0.01814 0.195248,0.04358 0.289142,0.07878 0.06829,0.03308 0.135562,0.06955 0.199581,0.112229 0.016,0.01067 0.03071,0.02112 0.04671,0.03179 0.03734,0.03308 0.07481,0.06513 0.110018,0.100344 0.09923,0.09709 0.241102,0.146273 0.37981,0.139871 0.115235,-0.0053 0.228269,-0.05025 0.310427,-0.139871 0.1781875,-0.194192 0.1953105,-0.499286 0.0011,-0.691344 -0.276349,-0.273148 -0.623112,-0.466306 -0.997624,-0.557 v -0.251824 h 1.3296115 c 0.06829,0 0.137414,0.0022 0.206768,0.0022 h 0.0492 c 0.04375,0 0.08645,-0.0012 0.130197,-0.0033 0.392651,-0.0192 0.77038,-0.160078 1.074471,-0.396949 0.06295,-0.04801 0.122574,-0.101329 0.179124,-0.158946 0.113101,-0.114167 0.212398,-0.244336 0.291354,-0.388379 0.14511,-0.2614116 0.223978,-0.5526382 0.233581,-0.8513943 0.0011,-0.01707 0.0011,-0.034028 0.0011,-0.050033 0.0021,-0.241139 -0.201652,-0.472795 -0.449193,-0.4909339 -0.01387,0 -0.02869,-0.00107 -0.04257,0 h -0.0052 c -0.0053,0 -0.0118,0.00111 -0.01714,0.00111 -0.122704,0.0096 -0.234668,0.061783 -0.317892,0.1418069 -0.06295,0.060818 -0.110002,0.1397689 -0.132409,0.2283285 -0.0096,0.037343 -0.01493,0.076936 -0.01493,0.1174813 0,0.039478 -0.0023,0.077727 -0.0055,0.117205 -0.01387,0.075756 -0.03414,0.1494156 -0.06081,0.2219707 -0.02668,0.055483 -0.05653,0.1099416 -0.09067,0.1611567 -0.0075,0.011736 -0.01492,0.0225 -0.02239,0.033171 -0.02454,0.028806 -0.04906,0.05653 -0.07574,0.083204 -0.02668,0.025607 -0.05436,0.050096 -0.0821,0.074635 -0.01174,0.00854 -0.02226,0.016027 -0.034,0.023494 -0.05228,0.034145 -0.106779,0.063993 -0.162263,0.090668 -0.07149,0.02561 -0.145109,0.04584 -0.220865,0.05971 -0.06402,0.0053 -0.128136,0.0075 -0.193222,0.0075 h -0.05114 c -0.08429,0 -0.167456,-0.0019 -0.249614,-0.0019 H 6.8143545 c -0.103497,0 -0.208112,0.0042 -0.313744,0.0042 h -0.04257 -0.0066 c -0.07469,0 -0.149177,-0.0021 -0.222799,-0.0086 -0.07576,-0.01387 -0.149416,-0.0341 -0.221971,-0.05971 -0.05548,-0.02668 -0.10998,-0.056524 -0.162263,-0.090668 l -0.03206,-0.022392 c -0.02774,-0.024543 -0.05653,-0.049069 -0.08321,-0.075741 -0.02668,-0.026692 -0.0512,-0.054373 -0.07574,-0.082114 -0.0075,-0.010672 -0.01492,-0.021429 -0.02239,-0.033171 -0.03414,-0.051214 -0.06289,-0.1045287 -0.08956,-0.1589454 -0.02668,-0.073622 -0.04698,-0.148465 -0.06192,-0.2252878 v -0.00111 c -0.0085,-0.085357 -0.01165,-0.1717937 -0.01272,-0.2592867 v -8.291e-4 c -0.0021,-0.180321 0.0075,-0.3608068 0.0075,-0.5379266 v -1.2323104 -0.089562 -0.00553 c -0.0011,-0.041612 -0.0011,-0.083056 0,-0.1246685 v -0.00636 c 0.0011,-0.036279 0.002,-0.073741 0.0052,-0.1100179 0.01494,-0.075756 0.03525,-0.1494156 0.06192,-0.2219707 0.02668,-0.055483 0.05648,-0.1077302 0.08956,-0.1589453 l 0.02239,-0.032065 c 0.02561,-0.027741 0.05017,-0.05653 0.07685,-0.083204 0.02668,-0.027741 0.0544,-0.052305 0.0832,-0.076847 l 0.03206,-0.02239 c 0.05121,-0.034145 0.104568,-0.063993 0.160051,-0.090668 0.07256,-0.026677 0.14732,-0.046945 0.223076,-0.060814 0.06829,-0.00535 0.13769,-0.00746 0.207044,-0.00746 h 0.03732 0.0011 c 0.08323,0 0.167455,0.00221 0.249613,0.00221 h 3.3928615 c 0.103498,0 0.208074,-0.00442 0.312638,-0.00442 h 0.0492 c 0.07469,0.00107 0.149217,0.00328 0.223906,0.00967 0.07576,0.013871 0.151627,0.034139 0.224182,0.060814 0.05442,0.026677 0.108835,0.056524 0.160051,0.090668 0.01174,0.00747 0.0225,0.014923 0.03317,0.02239 0.02774,0.024543 0.05653,0.049069 0.0832,0.075741 0.02668,0.025607 0.0512,0.053569 0.07574,0.082375 0.0075,0.011736 0.01492,0.022229 0.02239,0.032895 0.03414,0.051214 0.06289,0.1045677 0.08956,0.1600511 0.02774,0.072555 0.04698,0.1473203 0.06192,0.2230764 0.0032,0.035209 0.0042,0.071529 0.0052,0.1078064 v 0.00857 c 0.0011,0.1291056 0.05771,0.254878 0.147335,0.3466391 0.07789,0.080024 0.182438,0.1343383 0.296606,0.141807 0.0075,0.00107 0.01382,0.00111 0.02128,0.00111 h 0.02349 0.0044 c 0.249675,-0.013871 0.466121,-0.1982911 0.483193,-0.4522342 0.0011,-0.011736 0.0011,-0.024752 0.0011,-0.036488 C 12.429714,6.4659196 12.092621,5.8653191 11.544191,5.5281513 11.228338,5.335028 10.868605,5.2614006 10.503696,5.2614006 H 6.8717255 Z m 1.847083,1.7138458 c -0.02538,0 -0.04672,0.1945097 -0.04672,0.4345428 v 2.4709787 h 1.8838485 c 0.07516,0 0.151216,0.00193 0.228329,0.00193 h 0.04699 c 0.05857,0 0.11807,-0.00171 0.176637,-0.00636 0.06833,-0.0121 0.135692,-0.029919 0.202068,-0.052247 0.05076,-0.023262 0.100612,-0.049288 0.148441,-0.079058 0.01074,-0.00651 0.0212,-0.013944 0.03096,-0.020456 0.02538,-0.021399 0.05079,-0.041976 0.07519,-0.065237 0.02441,-0.023262 0.04693,-0.048235 0.06938,-0.072424 0.0068,-0.0093 0.01363,-0.019439 0.02046,-0.028748 0.03124,-0.045586 0.05853,-0.092323 0.08293,-0.1407012 0.02441,-0.063265 0.04217,-0.1274431 0.05584,-0.1934987 0.0029,-0.034425 0.0047,-0.067854 0.0047,-0.1022779 0,-0.036284 0.005,-0.069715 0.01382,-0.1022778 v -8.292e-4 h -0.124116 c -0.0059,0 -0.0117,0.00455 -0.01659,0.011057 V 8.7618076 c 0,-0.1311811 -0.02036,-0.2374506 -0.04672,-0.2374506 h -0.196263 c -0.02636,0 -0.04782,0.1062695 -0.04782,0.2374506 V 8.1837993 c 0,-0.1767684 -0.02063,-0.3209315 -0.04699,-0.3209315 h -0.195973 c -0.02538,0 -0.04699,0.1432329 -0.04699,0.3209315 v 0.3015815 c -0.0078,-0.075359 -0.02251,-0.1266034 -0.04008,-0.1266034 h -0.195987 c -0.02538,0 -0.04699,0.1152848 -0.04699,0.2576297 v 0.9564365 c 0,-0.065125 -0.02148,-0.1180342 -0.04782,-0.1180342 H 9.9639655 c -0.02538,0 -0.04671,0.052909 -0.04671,0.1180342 v -0.811036 c 0,-0.1311806 -0.02148,-0.2374506 -0.04782,-0.2374506 h -0.196263 c -0.02636,0 -0.04782,0.1062699 -0.04782,0.2374506 V 8.0312083 c 0,-0.2400331 -0.02036,-0.4342664 -0.04672,-0.4342664 h -0.196263 c -0.02538,0 -0.04699,0.1942333 -0.04699,0.4342664 v 1.6002344 c 0,-0.060473 -0.02036,-0.1097414 -0.04672,-0.1097414 h -0.19627 c -0.02538,0 -0.04671,0.049268 -0.04671,0.1097414 v -0.273386 c 0,-0.082802 -0.02175,-0.1498234 -0.04809,-0.1498234 h -0.195987 c -0.02636,0 -0.04782,0.067021 -0.04782,0.1498234 V 8.9923441 c 0,-0.111643 -0.02064,-0.2028973 -0.04699,-0.2028973 h -0.196264 c -0.02636,0 -0.04782,0.090324 -0.04782,0.2028973 V 7.409801 c 0,-0.2400331 -0.02035,-0.4345428 -0.04672,-0.4345428 z m -1.998841,0.4392421 c -0.02607,0.00301 -0.04699,0.196385 -0.04699,0.4345428 v 1.3470275 c 0,-0.095827 -0.02064,-0.1738724 -0.04699,-0.1738724 h -0.196264 c -0.02636,0 -0.04782,0.078046 -0.04782,0.1738724 V 8.7645684 c 0,-0.1311806 -0.02035,-0.2374505 -0.04672,-0.2374505 h -0.108364 c 0,0.1535092 -0.0089,0.3118655 -0.0069,0.4690961 v 8.292e-4 c 9.63e-4,0.075359 0.0041,0.1516887 0.01189,0.2261171 v 8.291e-4 c 0.01366,0.066986 0.03199,0.1320682 0.05639,0.196263 0.02441,0.047448 0.05086,0.094109 0.0821,0.1387662 0.0068,0.0093 0.01363,0.019445 0.02046,0.028748 0.02245,0.024191 0.04498,0.048335 0.06938,0.071594 0.0244,0.022328 0.04966,0.044666 0.07602,0.066066 l 0.0293,0.019626 c 0.04783,0.029769 0.09768,0.055799 0.148441,0.079058 0.06638,0.022333 0.133869,0.040157 0.203174,0.052247 0.06735,0.00558 0.135674,0.00719 0.204003,0.00719 h 0.0058 0.03898 c 0.09664,-8.558e-4 0.192248,-0.00358 0.286931,-0.00358 h 0.958649 V 8.7618084 c 0,-0.1302501 -0.02147,-0.23652 -0.04782,-0.2374506 h -0.196263 c -0.02538,0 -0.04699,0.10627 -0.04699,0.2374506 V 8.1840723 c 0,-0.1767684 -0.02147,-0.3212079 -0.04782,-0.3212079 h -0.195987 c -0.02635,0 -0.04782,0.1435092 -0.04782,0.3212079 v 0.3013051 c -0.0078,-0.075359 -0.02252,-0.1266034 -0.04008,-0.1266034 h -0.196264 c -0.02636,0 -0.04782,0.1155613 -0.04782,0.2579062 v 0.9572657 c 0,-0.065125 -0.02036,-0.1183106 -0.04672,-0.1183106 h -0.196263 c -0.02538,0 -0.04699,0.053185 -0.04699,0.1183106 V 8.7626335 c 0,-0.131181 -0.02036,-0.2371742 -0.04672,-0.2371742 h -0.196291 c -0.02538,0 -0.04671,0.1059932 -0.04671,0.2371742 V 7.8490431 c 0,-0.240033 -0.02146,-0.4345428 -0.04782,-0.4345428 h -0.196263 c -2.06e-4,0 -6.42e-4,-2.37e-5 -8.03e-4,0 z m 5.3828585,0.290248 v 0.9420624 c 0.083,-0.051738 0.194021,-0.085528 0.315679,-0.091774 6.95e-4,0 0.0015,1.5e-5 0.0022,0 v -0.75658 c -0.0075,0 -0.01382,-5.51e-4 -0.02128,-5.51e-4 -0.114165,-0.00492 -0.217649,-0.040669 -0.296606,-0.093156 z" />
  <path
     id="path5-1"
     class="ColorScheme-Text"
     style="fill:currentColor;fill-opacity:1;stroke-width:0.00949953"
     d="m 6.372612,4.7322547 c -0.486545,0 -0.947493,0.1782134 -1.302799,0.511113 -0.37558,0.3531724 -0.571927,0.8569499 -0.571927,1.368036 v 0.084034 0.7704013 0.9412331 0.1462297 c 0.0011,0.2464738 0.0085,0.4906838 0.08956,0.7275552 0.08963,0.2656795 0.238062,0.5090326 0.430119,0.7106933 0.05762,0.060818 0.120672,0.1182727 0.185759,0.1705547 0.202727,0.163249 0.440397,0.283886 0.700742,0.344705 0.218732,0.05121 0.433435,0.05335 0.654303,0.05335 h 1.402035 v 0.251824 c -0.374511,0.09069 -0.721551,0.283852 -0.9979,0.557 -0.182455,0.180321 -0.193125,0.514224 0,0.691344 0.106698,0.09709 0.243396,0.145168 0.376769,0.138766 0.113101,-0.0053 0.225224,-0.05021 0.314851,-0.138766 0.03521,-0.03521 0.07129,-0.0683 0.108635,-0.09924 0.016,-0.01067 0.0321,-0.02222 0.0481,-0.03289 0.06402,-0.04268 0.130225,-0.07915 0.199579,-0.112229 0.09389,-0.03521 0.190981,-0.06171 0.289144,-0.07878 0.05762,-0.0053 0.116254,-0.0077 0.173873,-0.0066 0.04161,0.0011 0.08333,0.0023 0.124944,0.0066 0.09923,0.01814 0.195247,0.04357 0.289142,0.07878 0.06829,0.03308 0.135561,0.06955 0.19958,0.112229 0.016,0.01067 0.03071,0.02112 0.04671,0.03179 0.03734,0.03308 0.07481,0.06513 0.110018,0.100343 0.09923,0.0971 0.241102,0.146274 0.37981,0.139872 0.115235,-0.0053 0.228269,-0.05025 0.310427,-0.139872 0.178187,-0.194191 0.195311,-0.499285 0.0011,-0.691343 -0.276349,-0.273148 -0.623112,-0.466306 -0.997624,-0.557 v -0.251825 h 1.329612 c 0.06829,0 0.137414,0.0022 0.206768,0.0022 h 0.0492 c 0.04375,0 0.08645,-0.0012 0.130197,-0.0033 0.392651,-0.0192 0.77038,-0.160077 1.074471,-0.396949 0.06295,-0.04802 0.122574,-0.101328 0.179124,-0.158945 0.113101,-0.114168 0.212397,-0.2443366 0.291354,-0.3883795 0.14511,-0.2614118 0.223978,-0.5526384 0.233581,-0.8513945 0.0011,-0.01707 0.0011,-0.034028 0.0011,-0.050033 0.0021,-0.241139 -0.201652,-0.472795 -0.449193,-0.4909339 -0.01387,0 -0.02869,-0.00107 -0.04257,0 h -0.0052 c -0.0053,0 -0.0118,0.00111 -0.01714,0.00111 -0.122704,0.0096 -0.234667,0.061783 -0.317891,0.1418069 -0.06295,0.060818 -0.110002,0.1397689 -0.132409,0.2283285 -0.0096,0.037343 -0.01493,0.076936 -0.01493,0.1174813 0,0.039478 -0.0023,0.077727 -0.0055,0.117205 -0.01387,0.075756 -0.03414,0.1494156 -0.06081,0.2219707 -0.02668,0.055483 -0.05653,0.1099416 -0.09067,0.1611567 -0.0075,0.011736 -0.01492,0.0225 -0.02239,0.033171 -0.02454,0.028806 -0.04906,0.05653 -0.07574,0.083204 -0.02668,0.025607 -0.05436,0.050096 -0.0821,0.074635 -0.01174,0.00854 -0.02226,0.016027 -0.034,0.023494 -0.05228,0.034145 -0.106779,0.063993 -0.162263,0.090668 -0.07149,0.025607 -0.145109,0.045838 -0.220865,0.059708 -0.06402,0.00535 -0.128136,0.00746 -0.193222,0.00746 h -0.05114 c -0.08429,0 -0.167456,-0.00193 -0.249614,-0.00193 H 6.814354 c -0.103497,0 -0.208112,0.00417 -0.313744,0.00417 H 6.45804 6.45144 c -0.07469,0 -0.149177,-0.00214 -0.222799,-0.00857 C 6.152881,9.5636262 6.079225,9.5433952 6.00667,9.5177892 5.95119,9.4911122 5.89669,9.4612652 5.844407,9.4271212 L 5.812347,9.4047292 C 5.784607,9.3801862 5.755817,9.3556602 5.729137,9.3289882 5.702457,9.3022962 5.677937,9.2746152 5.653397,9.2468742 5.645897,9.2362022 5.638477,9.2254452 5.631007,9.2137032 5.596867,9.1624892 5.568117,9.1091745 5.541447,9.0547578 5.514767,8.9811358 5.494467,8.9062928 5.479527,8.82947 V 8.82836 C 5.471027,8.743003 5.467877,8.6565663 5.466807,8.5690733 v -8.291e-4 c -0.0021,-0.180321 0.0075,-0.3608068 0.0075,-0.5379266 v -1.2323104 -0.089562 -0.00553 c -0.0011,-0.041612 -0.0011,-0.083056 0,-0.1246685 v -0.00636 c 0.0011,-0.036279 0.002,-0.073741 0.0052,-0.1100179 0.01494,-0.075756 0.03525,-0.1494156 0.06192,-0.2219707 0.02668,-0.055483 0.05648,-0.1077302 0.08956,-0.1589453 l 0.02239,-0.032065 c 0.02561,-0.027741 0.05017,-0.05653 0.07685,-0.083204 0.02668,-0.027741 0.0544,-0.052305 0.0832,-0.076847 l 0.03206,-0.02239 c 0.05121,-0.034145 0.104568,-0.063993 0.160051,-0.090668 0.07256,-0.026677 0.14732,-0.046945 0.223076,-0.060814 0.06829,-0.00535 0.13769,-0.00746 0.207044,-0.00746 h 0.03732 0.0011 c 0.08323,0 0.167455,0.00221 0.249613,0.00221 h 3.392862 c 0.103498,0 0.208074,-0.00442 0.312638,-0.00442 h 0.0492 c 0.07469,0.00107 0.149217,0.00328 0.223906,0.00967 0.07576,0.013871 0.151627,0.034139 0.224182,0.060814 0.05442,0.026677 0.108835,0.056524 0.160051,0.090668 0.01174,0.00747 0.0225,0.014923 0.03317,0.02239 0.02774,0.024543 0.05653,0.049069 0.0832,0.075741 0.02668,0.025607 0.0512,0.053569 0.07574,0.082375 0.0075,0.011736 0.01492,0.022229 0.02239,0.032895 0.03414,0.051214 0.06289,0.1045677 0.08956,0.1600511 0.02774,0.072555 0.04698,0.1473203 0.06192,0.2230764 0.0032,0.035209 0.0042,0.071529 0.0052,0.1078064 v 0.00857 c 0.0011,0.1291056 0.05771,0.254878 0.147335,0.3466391 0.07789,0.080024 0.182438,0.1343383 0.296606,0.141807 0.0075,0.00107 0.01382,0.00111 0.02128,0.00111 h 0.02349 0.0044 c 0.249675,-0.013871 0.466121,-0.1982911 0.483193,-0.4522342 0.0011,-0.011736 0.0011,-0.024752 0.0011,-0.036488 C 12.429715,5.9367619 12.092622,5.3361614 11.544192,4.9989936 11.228339,4.8058703 10.868606,4.7322429 10.503697,4.7322429 H 6.871726 Z m 1.847084,1.7138458 c -0.02538,0 -0.04672,0.1945097 -0.04672,0.4345428 V 9.351622 h 1.883848 c 0.07516,0 0.151217,0.00193 0.228329,0.00193 h 0.04699 c 0.05857,0 0.11807,-0.00171 0.176637,-0.00636 0.06833,-0.0121 0.135691,-0.029919 0.202068,-0.052247 0.05076,-0.023262 0.100612,-0.049288 0.14844,-0.079058 0.01074,-0.00651 0.0212,-0.013944 0.03096,-0.020456 0.02538,-0.021399 0.05079,-0.041976 0.07519,-0.065237 0.02441,-0.023262 0.04693,-0.048235 0.06938,-0.072424 0.0068,-0.0093 0.01363,-0.019439 0.02046,-0.028748 0.03124,-0.045586 0.05853,-0.092323 0.08293,-0.1407012 0.02441,-0.063265 0.04217,-0.1274431 0.05584,-0.1934987 0.0029,-0.034425 0.0047,-0.067854 0.0047,-0.1022779 0,-0.036284 0.005,-0.069715 0.01382,-0.1022778 v -8.292e-4 h -0.124115 c -0.0059,0 -0.0117,0.00455 -0.01659,0.011057 V 8.2326499 c 0,-0.1311811 -0.02036,-0.2374506 -0.04672,-0.2374506 H 10.82888 c -0.02636,0 -0.04782,0.1062695 -0.04782,0.2374506 V 7.6546416 c 0,-0.1767684 -0.02063,-0.3209315 -0.04699,-0.3209315 h -0.195973 c -0.02538,0 -0.04699,0.1432329 -0.04699,0.3209315 v 0.3015815 c -0.0078,-0.075359 -0.02251,-0.1266034 -0.04008,-0.1266034 h -0.195988 c -0.02538,0 -0.04699,0.1152848 -0.04699,0.2576297 v 0.9564365 c 0,-0.065125 -0.02148,-0.1180342 -0.04782,-0.1180342 H 9.963967 c -0.02538,0 -0.04671,0.052909 -0.04671,0.1180342 v -0.811036 c 0,-0.1311806 -0.02148,-0.2374506 -0.04782,-0.2374506 H 9.673173 c -0.02636,0 -0.04782,0.1062699 -0.04782,0.2374506 V 7.5020506 c 0,-0.2400331 -0.02036,-0.4342664 -0.04672,-0.4342664 H 9.38237 c -0.02538,0 -0.04699,0.1942333 -0.04699,0.4342664 V 9.102285 c 0,-0.060473 -0.02036,-0.1097414 -0.04672,-0.1097414 H 9.09239 c -0.02538,0 -0.04671,0.049268 -0.04671,0.1097414 V 8.828899 c 0,-0.082802 -0.02175,-0.1498234 -0.04809,-0.1498234 H 8.801603 c -0.02636,0 -0.04782,0.067021 -0.04782,0.1498234 V 8.4631864 c 0,-0.111643 -0.02064,-0.2028973 -0.04699,-0.2028973 H 8.510529 c -0.02636,0 -0.04782,0.090324 -0.04782,0.2028973 V 6.8806433 c 0,-0.2400331 -0.02035,-0.4345428 -0.04672,-0.4345428 z M 6.220855,6.8853426 c -0.02607,0.00301 -0.04699,0.196385 -0.04699,0.4345428 v 1.3470275 c 0,-0.095827 -0.02064,-0.1738724 -0.04699,-0.1738724 H 5.930611 c -0.02636,0 -0.04782,0.078046 -0.04782,0.1738724 V 8.2354107 c 0,-0.1311806 -0.02035,-0.2374505 -0.04672,-0.2374505 H 5.727707 c 0,0.1535092 -0.0089,0.3118655 -0.0069,0.4690961 v 8.292e-4 c 9.63e-4,0.075359 0.0041,0.1516887 0.01189,0.2261171 v 8.291e-4 c 0.01366,0.066986 0.03199,0.1320682 0.05639,0.196263 0.02441,0.047448 0.05086,0.094109 0.0821,0.1387662 0.0068,0.0093 0.01363,0.019445 0.02046,0.028748 0.02245,0.024191 0.04498,0.048335 0.06938,0.071594 0.0244,0.022328 0.04966,0.044666 0.07602,0.066066 l 0.0293,0.019626 c 0.04783,0.029769 0.09768,0.055799 0.148441,0.079058 0.06638,0.022333 0.133869,0.040157 0.203174,0.052247 0.06735,0.00558 0.135675,0.00719 0.204003,0.00719 h 0.0058 0.03898 c 0.09664,-8.558e-4 0.192248,-0.00358 0.286931,-0.00358 H 7.912325 V 8.2326507 c 0,-0.1302501 -0.02147,-0.23652 -0.04782,-0.2374506 H 7.668242 c -0.02538,0 -0.04699,0.10627 -0.04699,0.2374506 V 7.6549146 c 0,-0.1767684 -0.02147,-0.3212079 -0.04782,-0.3212079 H 7.377445 c -0.02635,0 -0.04782,0.1435092 -0.04782,0.3212079 V 7.9562197 C 7.321825,7.8808607 7.307105,7.8296163 7.289545,7.8296163 H 7.093281 c -0.02636,0 -0.04782,0.1155613 -0.04782,0.2579062 v 0.9572657 c 0,-0.065125 -0.02036,-0.1183106 -0.04672,-0.1183106 H 6.802478 c -0.02538,0 -0.04699,0.053185 -0.04699,0.1183106 V 8.2334758 c 0,-0.131181 -0.02036,-0.2371742 -0.04672,-0.2371742 H 6.512477 c -0.02538,0 -0.04671,0.1059932 -0.04671,0.2371742 V 7.3198854 c 0,-0.240033 -0.02146,-0.4345428 -0.04782,-0.4345428 H 6.221685 c -2.07e-4,0 -6.42e-4,-2.37e-5 -8.04e-4,0 z m 5.382858,0.290248 V 8.117653 c 0.083,-0.051738 0.19402,-0.085528 0.315679,-0.091774 6.94e-4,0 0.0015,1.5e-5 0.0022,0 v -0.75658 c -0.0075,0 -0.01382,-5.51e-4 -0.02128,-5.51e-4 -0.114165,-0.00492 -0.217649,-0.040669 -0.296606,-0.093156 z" />
  <path
     id="gradient-path1"
     style="opacity:0.3;baseline-shift:baseline;display:inline;overflow:visible;vector-effect:none;enable-background:accumulate;stop-color:#000000;stop-opacity:1;fill:url(#linearGradient4)"
     d="M 8.4453131 1.2753492 C 4.4913166 1.2753492 1.2794833 4.4784283 1.2794833 8.4236094 C 1.2794833 12.36879 4.4913166 15.572386 8.4453131 15.572386 C 12.39931 15.572386 15.611143 12.36879 15.611143 8.4236094 C 15.611143 4.4784283 12.39931 1.2753492 8.4453131 1.2753492 z " />
</svg>
