<?xml version="1.0" encoding="UTF-8" standalone="no"?>
<svg
   width="64"
   height="64"
   version="1.1"
   viewBox="0 0 16.933 16.933"
   id="svg7"
   sodipodi:docname="converseen.svg"
   inkscape:version="1.4.2 (ebf0e940d0, 2025-05-08)"
   xmlns:inkscape="http://www.inkscape.org/namespaces/inkscape"
   xmlns:sodipodi="http://sodipodi.sourceforge.net/DTD/sodipodi-0.dtd"
   xmlns:xlink="http://www.w3.org/1999/xlink"
   xmlns="http://www.w3.org/2000/svg"
   xmlns:svg="http://www.w3.org/2000/svg"
   xmlns:rdf="http://www.w3.org/1999/02/22-rdf-syntax-ns#"
   xmlns:cc="http://creativecommons.org/ns#"
   xmlns:dc="http://purl.org/dc/elements/1.1/">
  <sodipodi:namedview
     id="namedview7"
     pagecolor="#9c4444"
     bordercolor="#000000"
     borderopacity="0.25"
     inkscape:showpageshadow="2"
     inkscape:pageopacity="0.0"
     inkscape:pagecheckerboard="0"
     inkscape:deskcolor="#d1d1d1"
     inkscape:zoom="4.3531261"
     inkscape:cx="36.066035"
     inkscape:cy="26.188077"
     inkscape:window-width="2560"
     inkscape:window-height="1376"
     inkscape:window-x="0"
     inkscape:window-y="0"
     inkscape:window-maximized="1"
     inkscape:current-layer="svg7"
     showgrid="false" />
  <defs
     id="defs2">
    <filter
       style="color-interpolation-filters:sRGB;"
       inkscape:label="Blur"
       id="filter3"
       x="-0.10843471"
       y="-0.10870992"
       width="1.2168694"
       height="1.2174198">
      <feGaussianBlur
         stdDeviation="0.5 0.5"
         result="blur"
         id="feGaussianBlur3" />
    </filter>
    <style
       id="current-color-scheme"
       type="text/css">.ColorScheme-Text {color:#d8dee9} .ColorScheme-Highlight {color:#3b4252}</style>
    <linearGradient
       id="linearGradient3"
       inkscape:collect="always">
      <stop
         style="stop-color:#000000;stop-opacity:1;"
         offset="0"
         id="stop3" />
      <stop
         style="stop-color:#000000;stop-opacity:0;"
         offset="1"
         id="stop4" />
    </linearGradient>
    <linearGradient
       inkscape:collect="always"
       xlink:href="#linearGradient3"
       id="linearGradient4"
       x1="13.512321"
       y1="13.490874"
       x2="3.3783066"
       y2="3.3568602"
       gradientUnits="userSpaceOnUse" />
  </defs>
  <metadata
     id="metadata2">
    <rdf:RDF>
      <cc:Work
         rdf:about="">
        <dc:format>image/svg+xml</dc:format>
        <dc:type
           rdf:resource="http://purl.org/dc/dcmitype/StillImage" />
      </cc:Work>
    </rdf:RDF>
  </metadata>
  <ellipse
     style="opacity:1;fill:none;stroke:#000000;stroke-width:0.582072;stroke-dasharray:none;stroke-opacity:1;filter:url(#filter3)"
     id="path1-5"
     cx="8.4450111"
     cy="8.423522"
     rx="6.8752708"
     ry="6.8578653" />
  <ellipse
     style="opacity:1;fill:none;stroke-width:0.58207188;stroke-opacity:1;stroke:currentColor;stroke-dasharray:none;fill-opacity:1"
     id="path1"
     cx="8.4450111"
     cy="8.423522"
     rx="6.8752708"
     ry="6.8578653"
     class="ColorScheme-Text" />
  <ellipse
     style="fill:currentColor;stroke:none;stroke-width:0.285844;stroke-dasharray:none;stroke-opacity:1"
     id="path1-2"
     cx="8.4557552"
     cy="8.423522"
     rx="6.5738997"
     ry="6.5692253"
     class="ColorScheme-Highlight" />
  <path
     id="rect6"
     style="opacity:0.3;fill:#000000;fill-opacity:1;stroke-width:0.0629548;stroke-linejoin:bevel;paint-order:fill markers stroke"
     d="m 9.4093542,5.0269844 0.122221,0.09185 c 0.06724,0.05054 0.158864,0.133364 0.203497,0.18407 0.205142,0.233054 0.7613908,1.255919 0.9674398,1.778845 0.264869,0.672201 0.359865,1.170382 0.29461,1.545347 -0.10106,0.580708 -0.428754,0.962372 -0.98945,1.152247 -0.1362648,0.04614 -0.4759088,0.125851 -0.4928188,0.116319 -5.8e-5,-4.1e-5 -2.02e-4,-3.28e-4 -2.38e-4,-3.71e-4 l -1.26e-4,-1.26e-4 -1.26e-4,-1.26e-4 v -1.26e-4 c -4e-6,-5.6e-5 -7e-6,-1.89e-4 0,-2.45e-4 1.64e-4,-0.0014 0.06332,-0.328549 0.140296,-0.726932 0.07698,-0.398384 0.136615,-0.727664 0.13255,-0.731729 -0.0041,-0.0041 -0.08013,0.09981 -0.169069,0.230794 -0.624794,0.920207 -1.423223,1.6151986 -2.239333,1.9492666 -0.08962,0.03669 -0.167415,0.07114 -0.172758,0.07648 l -1.26e-4,1.26e-4 v 1.26e-4 l -1.26e-4,1.25e-4 v 1.26e-4 l -1.26e-4,1.26e-4 c -7e-6,5.3e-5 0,3.14e-4 0,3.78e-4 7e-6,5.9e-5 1.08e-4,3.15e-4 1.26e-4,3.79e-4 0.0024,0.0074 0.05231,0.03058 0.116934,0.05386 0.298798,0.107589 0.756216,0.377769 1.09335,0.64578 0.399502,0.317592 0.877105,0.843027 1.194053,1.313691 0.09507,0.141172 0.175578,0.253918 0.178905,0.250591 0.0033,-0.0033 -0.05627,-0.33178 -0.132549,-0.730007 -0.07628,-0.398225 -0.135989,-0.726844 -0.132672,-0.730252 0.0033,-0.0034 0.09523,-0.01965 0.204234,-0.03603 0.6671418,-0.100222 1.2527988,-0.297376 1.6520748,-0.556141 0.75394,-0.48862 1.099286,-1.2836006 0.965104,-2.2219896 -0.141303,-0.988283 -0.68897,-2.021209 -1.500701,-2.830536 -0.312856,-0.311929 -0.564763,-0.505979 -0.8469408,-0.65242 -0.192326,-0.09981 -0.412365,-0.173495 -0.517903,-0.173495 z m -2.265393,0.0064 c -0.0033,0.0033 0.05627,0.331781 0.132549,0.730007 0.07628,0.398226 0.135989,0.726845 0.132672,0.730252 -0.0033,0.0034 -0.09523,0.01965 -0.204234,0.03603 -0.667142,0.100221 -1.252799,0.297377 -1.652075,0.556142 -0.75394,0.488619 -1.099287,1.283724 -0.965104,2.222112 0.141314,0.9882586 0.688981,2.0210626 1.500713,2.8303886 0.308006,0.307095 0.561497,0.50339 0.836858,0.647994 0.191161,0.100387 0.412949,0.175808 0.52073,0.17706 l 0.07759,9.63e-4 -0.122221,-0.09197 c -0.06724,-0.05054 -0.158741,-0.133355 -0.203373,-0.184061 -0.205144,-0.233055 -0.761515,-1.25592 -0.967564,-1.778846 -0.264868,-0.672202 -0.359864,-1.1703816 -0.294609,-1.5453466 0.101061,-0.580708 0.428753,-0.962373 0.98945,-1.152247 0.136264,-0.04614 0.475908,-0.125729 0.492819,-0.116197 l 1.25e-4,1.26e-4 c 4.8e-5,4.5e-5 2.08e-4,2.02e-4 2.39e-4,2.46e-4 l 1.25e-4,1.25e-4 v 1.26e-4 c 5e-6,5.6e-5 7e-6,1.89e-4 0,2.46e-4 -1.63e-4,0.0014 -0.06332,0.328549 -0.140296,0.726932 -0.07697,0.398383 -0.136614,0.727663 -0.13255,0.731728 0.0041,0.0041 0.08013,-0.09981 0.169069,-0.230794 0.624787,-0.920208 1.423339,-1.615199 2.239449,-1.949267 0.08962,-0.03668 0.167292,-0.07114 0.172635,-0.07648 l 1.26e-4,-1.26e-4 1.26e-4,-1.26e-4 v -1.25e-4 l 1.26e-4,-1.27e-4 v -1.25e-4 c 7e-6,-5.4e-5 -10e-7,-3.14e-4 0,-3.72e-4 -7e-6,-5.7e-5 -1.26e-4,-3.09e-4 -1.26e-4,-3.71e-4 -0.0024,-0.0074 -0.05231,-0.03058 -0.116934,-0.05386 -0.29881,-0.107576 -0.756228,-0.377757 -1.093362,-0.645768 -0.399502,-0.317592 -0.877105,-0.843028 -1.194053,-1.313692 -0.09507,-0.141171 -0.175578,-0.253918 -0.178905,-0.25059 z" />
  <path
     id="rect6-7"
     class="ColorScheme-Text"
     style="fill:currentColor;stroke-width:0.0629548;stroke-linejoin:bevel;paint-order:fill markers stroke"
     d="m 9.4093542,4.4978255 0.122221,0.09185 c 0.06724,0.05054 0.158864,0.133364 0.203497,0.18407 0.205142,0.233054 0.7613908,1.255919 0.9674398,1.778845 0.264869,0.672201 0.359865,1.170382 0.29461,1.545347 -0.101059,0.580708 -0.428754,0.962372 -0.98945,1.152247 -0.1362648,0.04614 -0.4759088,0.125851 -0.4928178,0.116319 -5.9e-5,-4.1e-5 -2.02e-4,-3.28e-4 -2.39e-4,-3.71e-4 l -1.26e-4,-1.26e-4 -1.26e-4,-1.26e-4 v -1.26e-4 c -4e-6,-5.6e-5 -7e-6,-1.89e-4 0,-2.45e-4 1.64e-4,-0.0014 0.06332,-0.328549 0.140296,-0.726932 0.07698,-0.398384 0.136615,-0.727664 0.13255,-0.731729 -0.0041,-0.0041 -0.08013,0.09981 -0.169069,0.230794 -0.624794,0.920207 -1.423223,1.615199 -2.239332,1.9492665 -0.08962,0.03669 -0.167415,0.07114 -0.172759,0.07648 l -1.26e-4,1.26e-4 v 1.26e-4 l -1.26e-4,1.25e-4 v 1.26e-4 l -1.26e-4,1.26e-4 c -7e-6,5.3e-5 0,3.14e-4 0,3.78e-4 7e-6,5.9e-5 1.08e-4,3.15e-4 1.26e-4,3.79e-4 0.0024,0.0074 0.05231,0.03058 0.116934,0.05386 0.298798,0.107589 0.756216,0.37777 1.09335,0.645781 0.399502,0.317592 0.877105,0.843027 1.194053,1.313691 0.09507,0.141172 0.175578,0.253918 0.178905,0.250591 0.0033,-0.0033 -0.05627,-0.331781 -0.132549,-0.730007 -0.07628,-0.398225 -0.135989,-0.726844 -0.132672,-0.730252 0.0033,-0.0034 0.09523,-0.01965 0.204234,-0.03603 0.6671418,-0.100222 1.2527988,-0.297376 1.6520748,-0.556141 0.75394,-0.4886195 1.099286,-1.2836005 0.965104,-2.2219895 -0.141303,-0.988283 -0.68897,-2.021209 -1.500701,-2.830536 -0.312856,-0.311929 -0.564763,-0.505979 -0.8469408,-0.65242 -0.192326,-0.09981 -0.412365,-0.173495 -0.517903,-0.173495 z m -2.265393,0.0064 c -0.0033,0.0033 0.05627,0.331781 0.132549,0.730007 0.07628,0.398226 0.135989,0.726845 0.132672,0.730252 -0.0033,0.0034 -0.09523,0.01965 -0.204234,0.03603 -0.667142,0.100221 -1.252799,0.297377 -1.652075,0.556142 -0.75394,0.488619 -1.099287,1.283724 -0.965104,2.222112 0.141314,0.988259 0.688981,2.0210625 1.500713,2.8303885 0.308006,0.307095 0.561497,0.50339 0.836858,0.647994 0.191161,0.100387 0.412949,0.175808 0.52073,0.17706 l 0.07759,9.63e-4 -0.122221,-0.09197 c -0.06724,-0.05054 -0.158741,-0.133356 -0.203373,-0.184062 -0.205144,-0.233055 -0.761514,-1.255919 -0.967563,-1.778846 -0.264868,-0.6722005 -0.359865,-1.1703805 -0.29461,-1.5453455 0.101062,-0.580708 0.428754,-0.962373 0.98945,-1.152247 0.136265,-0.04614 0.475909,-0.125729 0.49282,-0.116197 l 1.24e-4,1.26e-4 c 4.8e-5,4.5e-5 2.08e-4,2.02e-4 2.39e-4,2.46e-4 l 1.26e-4,1.25e-4 v 1.26e-4 c 5e-6,5.6e-5 7e-6,1.89e-4 0,2.46e-4 -1.63e-4,0.0014 -0.06332,0.328549 -0.140296,0.726932 -0.07697,0.398383 -0.136614,0.727663 -0.13255,0.731728 0.0041,0.0041 0.08013,-0.09981 0.169069,-0.230794 0.624787,-0.920208 1.423339,-1.615199 2.239449,-1.949267 0.08962,-0.03668 0.167292,-0.07114 0.172635,-0.07648 l 1.26e-4,-1.26e-4 1.26e-4,-1.26e-4 v -1.25e-4 l 1.26e-4,-1.27e-4 v -1.25e-4 c 7e-6,-5.4e-5 -10e-7,-3.14e-4 0,-3.72e-4 -7e-6,-5.7e-5 -1.26e-4,-3.09e-4 -1.26e-4,-3.71e-4 -0.0024,-0.0074 -0.05231,-0.03058 -0.116934,-0.05386 -0.29881,-0.107576 -0.756228,-0.377757 -1.093362,-0.645768 -0.399502,-0.317592 -0.877105,-0.843028 -1.194053,-1.313692 -0.09507,-0.141171 -0.175578,-0.253918 -0.178905,-0.25059 z" />
  <path
     id="gradient-path1"
     style="opacity:0.3;baseline-shift:baseline;display:inline;overflow:visible;vector-effect:none;enable-background:accumulate;stop-color:#000000;stop-opacity:1;fill:url(#linearGradient4)"
     d="M 8.4453131 1.2753492 C 4.4913166 1.2753492 1.2794833 4.4784283 1.2794833 8.4236094 C 1.2794833 12.36879 4.4913166 15.572386 8.4453131 15.572386 C 12.39931 15.572386 15.611143 12.36879 15.611143 8.4236094 C 15.611143 4.4784283 12.39931 1.2753492 8.4453131 1.2753492 z " />
</svg>
