<?xml version="1.0" encoding="UTF-8" standalone="no"?>
<svg
   width="64"
   height="64"
   version="1.1"
   viewBox="0 0 16.933 16.933"
   id="svg7"
   sodipodi:docname="copyq.svg"
   inkscape:version="1.4.2 (ebf0e940d0, 2025-05-08)"
   xmlns:inkscape="http://www.inkscape.org/namespaces/inkscape"
   xmlns:sodipodi="http://sodipodi.sourceforge.net/DTD/sodipodi-0.dtd"
   xmlns:xlink="http://www.w3.org/1999/xlink"
   xmlns="http://www.w3.org/2000/svg"
   xmlns:svg="http://www.w3.org/2000/svg"
   xmlns:rdf="http://www.w3.org/1999/02/22-rdf-syntax-ns#"
   xmlns:cc="http://creativecommons.org/ns#"
   xmlns:dc="http://purl.org/dc/elements/1.1/">
  <sodipodi:namedview
     id="namedview7"
     pagecolor="#9c4444"
     bordercolor="#000000"
     borderopacity="0.25"
     inkscape:showpageshadow="2"
     inkscape:pageopacity="0.0"
     inkscape:pagecheckerboard="0"
     inkscape:deskcolor="#d1d1d1"
     inkscape:zoom="8.7062522"
     inkscape:cx="72.419221"
     inkscape:cy="15.276378"
     inkscape:window-width="2560"
     inkscape:window-height="1388"
     inkscape:window-x="0"
     inkscape:window-y="0"
     inkscape:window-maximized="1"
     inkscape:current-layer="svg7"
     showgrid="false" />
  <defs
     id="defs2">
    <filter
       style="color-interpolation-filters:sRGB;"
       inkscape:label="Blur"
       id="filter3"
       x="-0.10843471"
       y="-0.10870992"
       width="1.2168694"
       height="1.2174198">
      <feGaussianBlur
         stdDeviation="0.5 0.5"
         result="blur"
         id="feGaussianBlur3" />
    </filter>
    <style
       id="current-color-scheme"
       type="text/css">.ColorScheme-Text {color:#d8dee9} .ColorScheme-Highlight {color:#3b4252}</style>
    <linearGradient
       id="linearGradient3"
       inkscape:collect="always">
      <stop
         style="stop-color:#000000;stop-opacity:1;"
         offset="0"
         id="stop3" />
      <stop
         style="stop-color:#000000;stop-opacity:0;"
         offset="1"
         id="stop4" />
    </linearGradient>
    <linearGradient
       inkscape:collect="always"
       xlink:href="#linearGradient3"
       id="linearGradient4"
       x1="13.512321"
       y1="13.490874"
       x2="3.3783066"
       y2="3.3568602"
       gradientUnits="userSpaceOnUse" />
  </defs>
  <metadata
     id="metadata2">
    <rdf:RDF>
      <cc:Work
         rdf:about="">
        <dc:format>image/svg+xml</dc:format>
        <dc:type
           rdf:resource="http://purl.org/dc/dcmitype/StillImage" />
      </cc:Work>
    </rdf:RDF>
  </metadata>
  <ellipse
     style="opacity:1;fill:none;stroke:#000000;stroke-width:0.582072;stroke-dasharray:none;stroke-opacity:1;filter:url(#filter3)"
     id="path1-5"
     cx="8.4450111"
     cy="8.423522"
     rx="6.8752708"
     ry="6.8578653" />
  <ellipse
     style="opacity:1;fill:none;stroke-width:0.58207188;stroke-opacity:1;stroke:currentColor;stroke-dasharray:none;fill-opacity:1"
     id="path1"
     cx="8.4450111"
     cy="8.423522"
     rx="6.8752708"
     ry="6.8578653"
     class="ColorScheme-Text" />
  <ellipse
     style="fill:currentColor;stroke:none;stroke-width:0.285844;stroke-dasharray:none;stroke-opacity:1"
     id="path1-2"
     cx="8.4557552"
     cy="8.423522"
     rx="6.5738997"
     ry="6.5692253"
     class="ColorScheme-Highlight" />
  <path
     id="path5"
     style="opacity:0.3;fill:#000000;fill-opacity:1;stroke:none;stroke-width:0.616443"
     d="m 6.542066,5.0269844 c -0.471254,0 -0.949876,0.154173 -1.325598,0.488224 -0.375721,0.334052 -0.621326,0.857598 -0.62126,1.459865 6.6e-5,0.602205 0.245504,1.1255049 0.62126,1.4594947 0.375758,0.3340514 0.855247,0.4882243 1.326501,0.4882243 0.471253,0 0.950176,-0.1550358 1.325899,-0.4890873 0.307534,-0.273455 0.52768,-0.6729729 0.597481,-1.1393137 0.0698,0.4663408 0.290248,0.8658587 0.597783,1.1393137 0.375721,0.3340515 0.854645,0.4890873 1.325899,0.4890873 0.471253,0 0.950742,-0.1541729 1.3265,-0.4882243 0.375757,-0.3339898 0.621195,-0.8572897 0.621261,-1.4594947 6.6e-5,-0.602267 -0.24554,-1.125813 -0.621261,-1.459865 -0.375722,-0.334051 -0.854344,-0.488224 -1.325597,-0.488224 -0.471254,0 -0.950142,0.154235 -1.325898,0.488224 C 8.757298,5.7887254 8.536254,6.1894144 8.466349,6.6563094 8.396439,6.1894144 8.1757,5.7887254 7.867965,5.5152084 7.492207,5.1812194 7.01332,5.0269844 6.542066,5.0269844 Z m 0,1.129327 c 0.220254,0 0.432885,0.07613 0.57581,0.20318 0.142925,0.127049 0.242871,0.295647 0.242906,0.615582 3.6e-5,0.319873 -0.100047,0.488224 -0.242906,0.615212 -0.142858,0.126987 -0.354653,0.20318 -0.574907,0.20318 -0.220255,0 -0.432885,-0.076131 -0.57581,-0.20318 -0.142925,-0.12705 -0.24287,-0.295339 -0.242905,-0.615212 -3.6e-5,-0.319935 0.09944,-0.488533 0.242303,-0.615582 0.142859,-0.126988 0.355255,-0.20318 0.575509,-0.20318 z m 3.848868,0 c 0.220254,0 0.432651,0.07619 0.575508,0.20318 0.142859,0.127049 0.242039,0.295647 0.242004,0.615582 -3.6e-5,0.319873 -0.09968,0.488162 -0.242606,0.615212 -0.142924,0.127049 -0.355555,0.20318 -0.575809,0.20318 -0.220255,0 -0.432049,-0.076193 -0.574908,-0.20318 -0.142858,-0.126988 -0.242941,-0.295339 -0.242905,-0.615212 3.5e-5,-0.319935 0.09998,-0.488533 0.242905,-0.615582 0.142925,-0.127049 0.355556,-0.20318 0.575811,-0.20318 z M 8.331803,8.4204515 C 8.13374,8.6333099 7.565762,9.0973696 7.565762,9.0973696 c 0,0 1.568816,2.5567044 2.219262,3.8669584 0,0 2.141068,-2.591164 -1.453221,-4.5438765 z M 7.280114,9.3980714 C 5.640029,11.139219 7.147976,12.964328 7.147976,12.964328 7.413372,12.429685 7.831767,11.687732 8.233978,10.996389 7.809181,10.270403 7.420459,9.6287451 7.280114,9.3980714 Z" />
  <path
     id="path5-7"
     style="fill:currentColor;fill-opacity:1;stroke:none;stroke-width:0.616443"
     d="m 6.542066,4.4978281 c -0.471254,0 -0.949876,0.154173 -1.325598,0.488224 -0.375721,0.334052 -0.621326,0.857598 -0.62126,1.459865 6.6e-5,0.602205 0.245504,1.1255049 0.62126,1.4594947 0.375758,0.3340514 0.855247,0.4882243 1.326501,0.4882243 0.471253,0 0.950176,-0.1550358 1.325899,-0.4890873 0.307534,-0.273455 0.52768,-0.6729729 0.597481,-1.1393137 0.0698,0.4663408 0.290248,0.8658587 0.597783,1.1393137 0.375721,0.3340515 0.854645,0.4890873 1.325899,0.4890873 0.471253,0 0.950742,-0.1541729 1.3265,-0.4882243 0.375757,-0.3339898 0.621195,-0.8572897 0.621261,-1.4594947 6.6e-5,-0.602267 -0.24554,-1.125813 -0.621261,-1.459865 -0.375722,-0.334051 -0.854344,-0.488224 -1.325597,-0.488224 -0.471254,0 -0.950142,0.154235 -1.325898,0.488224 C 8.757298,5.2595691 8.536254,5.6602581 8.466349,6.1271531 8.396439,5.6602581 8.1757,5.2595691 7.867965,4.9860521 7.492207,4.6520631 7.01332,4.4978281 6.542066,4.4978281 Z m 0,1.129327 c 0.220254,0 0.432885,0.07613 0.57581,0.20318 0.142925,0.127049 0.242871,0.295647 0.242906,0.615582 3.6e-5,0.319873 -0.100047,0.488224 -0.242906,0.615212 -0.142858,0.126987 -0.354653,0.20318 -0.574907,0.20318 -0.220255,0 -0.432885,-0.076131 -0.57581,-0.20318 -0.142925,-0.12705 -0.24287,-0.295339 -0.242905,-0.615212 -3.6e-5,-0.319935 0.09944,-0.488533 0.242303,-0.615582 0.142859,-0.126988 0.355255,-0.20318 0.575509,-0.20318 z m 3.848868,0 c 0.220254,0 0.432651,0.07619 0.575508,0.20318 0.142859,0.127049 0.242039,0.295647 0.242004,0.615582 -3.6e-5,0.319873 -0.09968,0.488162 -0.242606,0.615212 -0.142924,0.127049 -0.355555,0.20318 -0.575809,0.20318 -0.220255,0 -0.432049,-0.076193 -0.574908,-0.20318 -0.142858,-0.126988 -0.242941,-0.295339 -0.242905,-0.615212 3.5e-5,-0.319935 0.09998,-0.488533 0.242905,-0.615582 0.142925,-0.127049 0.355556,-0.20318 0.575811,-0.20318 z M 8.331803,7.8912952 C 8.13374,8.1041536 7.565762,8.5682133 7.565762,8.5682133 c 0,0 1.568816,2.5567047 2.219262,3.8669587 0,0 2.141068,-2.5911642 -1.453221,-4.5438768 z M 7.280114,8.8689151 C 5.640029,10.610063 7.147976,12.435172 7.147976,12.435172 7.413372,11.900529 7.831767,11.158576 8.233978,10.467233 7.809181,9.7412464 7.420459,9.0995888 7.280114,8.8689151 Z"
     class="ColorScheme-Text" />
  <path
     id="gradient-path1"
     style="opacity:0.3;baseline-shift:baseline;display:inline;overflow:visible;vector-effect:none;enable-background:accumulate;stop-color:#000000;stop-opacity:1;fill:url(#linearGradient4)"
     d="M 8.4453131 1.2753492 C 4.4913166 1.2753492 1.2794833 4.4784283 1.2794833 8.4236094 C 1.2794833 12.36879 4.4913166 15.572386 8.4453131 15.572386 C 12.39931 15.572386 15.611143 12.36879 15.611143 8.4236094 C 15.611143 4.4784283 12.39931 1.2753492 8.4453131 1.2753492 z " />
</svg>
