<?xml version="1.0" encoding="UTF-8" standalone="no"?>
<svg
   width="64"
   height="64"
   version="1.1"
   viewBox="0 0 16.933 16.933"
   id="svg7"
   sodipodi:docname="datagrip.svg"
   inkscape:version="1.4.2 (ebf0e940d0, 2025-05-08)"
   xmlns:inkscape="http://www.inkscape.org/namespaces/inkscape"
   xmlns:sodipodi="http://sodipodi.sourceforge.net/DTD/sodipodi-0.dtd"
   xmlns:xlink="http://www.w3.org/1999/xlink"
   xmlns="http://www.w3.org/2000/svg"
   xmlns:svg="http://www.w3.org/2000/svg"
   xmlns:rdf="http://www.w3.org/1999/02/22-rdf-syntax-ns#"
   xmlns:cc="http://creativecommons.org/ns#"
   xmlns:dc="http://purl.org/dc/elements/1.1/">
  <sodipodi:namedview
     id="namedview7"
     pagecolor="#9c4444"
     bordercolor="#000000"
     borderopacity="0.25"
     inkscape:showpageshadow="2"
     inkscape:pageopacity="0.0"
     inkscape:pagecheckerboard="0"
     inkscape:deskcolor="#d1d1d1"
     inkscape:zoom="8.7062522"
     inkscape:cx="72.706371"
     inkscape:cy="29.059576"
     inkscape:window-width="2560"
     inkscape:window-height="1388"
     inkscape:window-x="0"
     inkscape:window-y="0"
     inkscape:window-maximized="1"
     inkscape:current-layer="svg7"
     showgrid="false" />
  <defs
     id="defs2">
    <filter
       style="color-interpolation-filters:sRGB;"
       inkscape:label="Blur"
       id="filter3"
       x="-0.10843471"
       y="-0.10870992"
       width="1.2168694"
       height="1.2174198">
      <feGaussianBlur
         stdDeviation="0.5 0.5"
         result="blur"
         id="feGaussianBlur3" />
    </filter>
    <style
       id="current-color-scheme"
       type="text/css">.ColorScheme-Text {color:#d8dee9} .ColorScheme-Highlight {color:#3b4252}</style>
    <linearGradient
       id="linearGradient3"
       inkscape:collect="always">
      <stop
         style="stop-color:#000000;stop-opacity:1;"
         offset="0"
         id="stop3" />
      <stop
         style="stop-color:#000000;stop-opacity:0;"
         offset="1"
         id="stop4" />
    </linearGradient>
    <linearGradient
       inkscape:collect="always"
       xlink:href="#linearGradient3"
       id="linearGradient4"
       x1="13.512321"
       y1="13.490874"
       x2="3.3783066"
       y2="3.3568602"
       gradientUnits="userSpaceOnUse" />
  </defs>
  <metadata
     id="metadata2">
    <rdf:RDF>
      <cc:Work
         rdf:about="">
        <dc:format>image/svg+xml</dc:format>
        <dc:type
           rdf:resource="http://purl.org/dc/dcmitype/StillImage" />
      </cc:Work>
    </rdf:RDF>
  </metadata>
  <ellipse
     style="opacity:1;fill:none;stroke:#000000;stroke-width:0.582072;stroke-dasharray:none;stroke-opacity:1;filter:url(#filter3)"
     id="path1-5"
     cx="8.4450111"
     cy="8.423522"
     rx="6.8752708"
     ry="6.8578653" />
  <ellipse
     style="opacity:1;fill:none;stroke-width:0.58207188;stroke-opacity:1;stroke:currentColor;stroke-dasharray:none;fill-opacity:1"
     id="path1"
     cx="8.4450111"
     cy="8.423522"
     rx="6.8752708"
     ry="6.8578653"
     class="ColorScheme-Text" />
  <ellipse
     style="fill:currentColor;stroke:none;stroke-width:0.285844;stroke-dasharray:none;stroke-opacity:1"
     id="path1-2"
     cx="8.4557552"
     cy="8.423522"
     rx="6.5738997"
     ry="6.5692253"
     class="ColorScheme-Highlight" />
  <path
     id="path5-3"
     style="opacity:0.3;fill:#000000;fill-opacity:1;stroke-width:0.200196"
     d="m 8.4665,5.0269844 c -2.237906,0 -4.039541,1.7700277 -4.039541,3.9686718 0,2.1986438 1.801635,3.9686718 4.039541,3.9686718 2.237905,0 4.039541,-1.770028 4.039541,-3.9686718 0,-2.1986441 -1.801636,-3.9686718 -4.039541,-3.9686718 z M 6.543068,6.1608907 h 3.847141 c 0.532883,0 0.961717,0.421573 0.961717,0.9451064 v 3.7795949 c 0,0.523534 -0.428834,0.94483 -0.961717,0.94483 H 6.543068 c -0.532883,0 -0.961994,-0.421296 -0.961994,-0.94483 V 7.1059971 c 0,-0.5235334 0.429111,-0.9451064 0.961994,-0.9451064 z M 6.261529,6.8474354 6.26123,9.2459129 h 0.665781 l 0.345212,-0.00388 c 0.429765,-0.00505 0.986631,-0.428425 0.986631,-1.1898265 v -0.011075 c 0,-0.7540613 -0.463382,-1.1937021 -1.037569,-1.1937021 z m 3.440198,0 c -0.35214,6.07e-5 -0.665666,0.113917 -0.885033,0.3294308 -0.219505,0.2154378 -0.335522,0.5237666 -0.335522,0.869808 0,0.346074 0.116105,0.6539513 0.335522,0.8695311 0.219289,0.2156549 0.532816,0.3297076 0.885033,0.3297076 0.322343,0 0.564161,-0.09901 0.720596,-0.2026414 0.156436,-0.1036181 0.241397,-0.2261722 0.241397,-0.2261722 l 0.03682,-0.054536 V 7.9376022 H 9.590716 v 0.4360112 h 0.665785 v 0.2355847 c -0.01384,0.016721 -0.01778,0.029847 -0.08222,0.07253 -0.09322,0.061716 -0.239947,0.1281734 -0.472553,0.1281734 -0.258133,0 -0.443994,-0.076644 -0.571383,-0.201811 C 9.00294,8.4829253 8.924935,8.3002776 8.924935,8.0466742 c 0,-0.2535949 0.078,-0.4359809 0.20541,-0.5611397 0.1274,-0.1251663 0.31325,-0.2020877 0.571383,-0.2020877 0.258103,0 0.444048,0.076679 0.571383,0.201811 L 10.58704,7.1768662 C 10.367806,6.9612679 10.054111,6.847496 9.702004,6.8474354 Z M 6.705292,7.2834468 h 0.443763 c 0.267226,0 0.666058,0.221713 0.666058,0.7576907 v 0.011073 c 0,0.5433709 -0.398901,0.7576908 -0.666058,0.7576908 H 6.705292 Z M 6.039508,10.772368 v 0.436011 h 2.219369 v -0.436011 z" />
  <path
     id="path5-3-7"
     style="fill:currentColor;fill-opacity:1;stroke-width:0.200196"
     d="m 8.4665,4.497828 c -2.237906,0 -4.039541,1.7700277 -4.039541,3.968672 0,2.198644 1.801635,3.968672 4.039541,3.968672 2.237905,0 4.039541,-1.770028 4.039541,-3.968672 0,-2.1986443 -1.801636,-3.968672 -4.039541,-3.968672 z M 6.543068,5.6317343 h 3.847141 c 0.532883,0 0.961717,0.421573 0.961717,0.9451064 v 3.7795953 c 0,0.523534 -0.428834,0.94483 -0.961717,0.94483 H 6.543068 c -0.532883,0 -0.961994,-0.421296 -0.961994,-0.94483 V 6.5768407 c 0,-0.5235334 0.429111,-0.9451064 0.961994,-0.9451064 z M 6.261529,6.318279 6.26123,8.716757 h 0.665781 l 0.345212,-0.0039 C 7.701988,8.707757 8.258854,8.284432 8.258854,7.5230306 v -0.011075 c 0,-0.7540613 -0.463382,-1.1937021 -1.037569,-1.1937021 z m 3.440198,0 c -0.35214,6.07e-5 -0.665666,0.113917 -0.885033,0.3294308 -0.219505,0.2154378 -0.335522,0.5237666 -0.335522,0.869808 0,0.346074 0.116105,0.6539512 0.335522,0.8695312 0.219289,0.215655 0.532816,0.329708 0.885033,0.329708 0.322343,0 0.564161,-0.09901 0.720596,-0.202642 0.156436,-0.103618 0.241397,-0.226172 0.241397,-0.226172 l 0.03682,-0.05454 V 7.4084458 H 9.590716 V 7.844457 h 0.665785 v 0.2355847 c -0.01384,0.016721 -0.01778,0.029847 -0.08222,0.07253 -0.09322,0.06172 -0.239947,0.128173 -0.472553,0.128173 -0.258133,0 -0.443994,-0.07664 -0.571383,-0.2018111 -0.127405,-0.1251653 -0.20541,-0.307813 -0.20541,-0.5614164 0,-0.2535949 0.078,-0.4359809 0.20541,-0.5611397 0.1274,-0.1251663 0.31325,-0.2020877 0.571383,-0.2020877 0.258103,0 0.444048,0.076679 0.571383,0.201811 L 10.58704,6.6477098 C 10.367806,6.4321115 10.054111,6.3183396 9.702004,6.318279 Z M 6.705292,6.7542904 h 0.443763 c 0.267226,0 0.666058,0.221713 0.666058,0.7576907 v 0.011073 c 0,0.5433709 -0.398901,0.7576909 -0.666058,0.7576909 H 6.705292 Z M 6.039508,10.243212 v 0.436011 h 2.219369 v -0.436011 z"
     class="ColorScheme-Text" />
  <path
     id="gradient-path1"
     style="opacity:0.3;baseline-shift:baseline;display:inline;overflow:visible;vector-effect:none;enable-background:accumulate;stop-color:#000000;stop-opacity:1;fill:url(#linearGradient4)"
     d="M 8.4453131 1.2753492 C 4.4913166 1.2753492 1.2794833 4.4784283 1.2794833 8.4236094 C 1.2794833 12.36879 4.4913166 15.572386 8.4453131 15.572386 C 12.39931 15.572386 15.611143 12.36879 15.611143 8.4236094 C 15.611143 4.4784283 12.39931 1.2753492 8.4453131 1.2753492 z " />
</svg>
