<?xml version="1.0" encoding="UTF-8" standalone="no"?>
<svg
   width="64"
   height="64"
   version="1.1"
   viewBox="0 0 16.933 16.933"
   id="svg7"
   sodipodi:docname="deadbeef.svg"
   inkscape:version="1.4.2 (ebf0e940d0, 2025-05-08)"
   xmlns:inkscape="http://www.inkscape.org/namespaces/inkscape"
   xmlns:sodipodi="http://sodipodi.sourceforge.net/DTD/sodipodi-0.dtd"
   xmlns:xlink="http://www.w3.org/1999/xlink"
   xmlns="http://www.w3.org/2000/svg"
   xmlns:svg="http://www.w3.org/2000/svg"
   xmlns:rdf="http://www.w3.org/1999/02/22-rdf-syntax-ns#"
   xmlns:cc="http://creativecommons.org/ns#"
   xmlns:dc="http://purl.org/dc/elements/1.1/">
  <sodipodi:namedview
     id="namedview7"
     pagecolor="#9c4444"
     bordercolor="#000000"
     borderopacity="0.25"
     inkscape:showpageshadow="2"
     inkscape:pageopacity="0.0"
     inkscape:pagecheckerboard="0"
     inkscape:deskcolor="#d1d1d1"
     inkscape:zoom="8.7062522"
     inkscape:cx="71.385481"
     inkscape:cy="15.276378"
     inkscape:window-width="2560"
     inkscape:window-height="1392"
     inkscape:window-x="0"
     inkscape:window-y="0"
     inkscape:window-maximized="1"
     inkscape:current-layer="svg7"
     showgrid="false" />
  <defs
     id="defs2">
    <filter
       style="color-interpolation-filters:sRGB;"
       inkscape:label="Blur"
       id="filter3"
       x="-0.10843471"
       y="-0.10870992"
       width="1.2168694"
       height="1.2174198">
      <feGaussianBlur
         stdDeviation="0.5 0.5"
         result="blur"
         id="feGaussianBlur3" />
    </filter>
    <style
       id="current-color-scheme"
       type="text/css">.ColorScheme-Text {color:#d8dee9} .ColorScheme-Highlight {color:#3b4252}</style>
    <linearGradient
       id="linearGradient3"
       inkscape:collect="always">
      <stop
         style="stop-color:#000000;stop-opacity:1;"
         offset="0"
         id="stop3" />
      <stop
         style="stop-color:#000000;stop-opacity:0;"
         offset="1"
         id="stop4" />
    </linearGradient>
    <linearGradient
       inkscape:collect="always"
       xlink:href="#linearGradient3"
       id="linearGradient4"
       x1="13.512321"
       y1="13.490874"
       x2="3.3783066"
       y2="3.3568602"
       gradientUnits="userSpaceOnUse" />
  </defs>
  <metadata
     id="metadata2">
    <rdf:RDF>
      <cc:Work
         rdf:about="">
        <dc:format>image/svg+xml</dc:format>
        <dc:type
           rdf:resource="http://purl.org/dc/dcmitype/StillImage" />
      </cc:Work>
    </rdf:RDF>
  </metadata>
  <ellipse
     style="opacity:1;fill:none;stroke:#000000;stroke-width:0.582072;stroke-dasharray:none;stroke-opacity:1;filter:url(#filter3)"
     id="path1-5"
     cx="8.4450111"
     cy="8.423522"
     rx="6.8752708"
     ry="6.8578653" />
  <ellipse
     style="opacity:1;fill:none;stroke-width:0.58207188;stroke-opacity:1;stroke:currentColor;stroke-dasharray:none;fill-opacity:1"
     id="path1"
     cx="8.4450111"
     cy="8.423522"
     rx="6.8752708"
     ry="6.8578653"
     class="ColorScheme-Text" />
  <ellipse
     style="fill:currentColor;stroke:none;stroke-width:0.285844;stroke-dasharray:none;stroke-opacity:1"
     id="path1-2"
     cx="8.4557552"
     cy="8.423522"
     rx="6.5738997"
     ry="6.5692253"
     class="ColorScheme-Highlight" />
  <path
     id="path5-6"
     d="m 8.4665,5.0269844 c -0.992168,0 -3.968672,2.9765038 -3.968672,3.9686719 0,0.9921679 2.976504,3.9686717 3.968672,3.9686717 0.992168,0 3.968672,-2.9765038 3.968672,-3.9686717 0,-0.9921681 -2.976504,-3.9686719 -3.968672,-3.9686719 z m 0,0.248042 c 0.124021,0 0.493576,0.152495 0.895761,0.435527 0.4022,0.283016 0.859532,0.67836 1.285264,1.104077 0.425718,0.425733 0.821062,0.883065 1.104078,1.2852648 0.283031,0.4021847 0.435527,0.7717401 0.435527,0.8957611 0,0.1240209 -0.152496,0.4935764 -0.435527,0.895761 -0.283016,0.4022007 -0.67836,0.8595307 -1.104078,1.2852647 -0.425732,0.425717 -0.883064,0.821061 -1.285264,1.104077 -0.402185,0.283031 -0.77174,0.435527 -0.895761,0.435527 -0.124021,0 -0.493577,-0.152496 -0.895761,-0.435527 C 7.168538,11.997743 6.711208,11.602399 6.285474,11.176682 5.859757,10.750948 5.464413,10.293618 5.181397,9.8914173 4.898365,9.4892327 4.74587,9.1196772 4.74587,8.9956563 4.74587,8.8716353 4.898365,8.5020799 5.181397,8.0998952 5.464413,7.6976954 5.859757,7.2403634 6.285474,6.8146304 6.711208,6.3889134 7.168538,5.9935694 7.570739,5.7105534 7.972923,5.4275214 8.342479,5.2750264 8.4665,5.2750264 Z m 0,0.197113 c -0.0045,8.49e-4 -0.01704,0.0027 -0.03167,0.0068 -0.03268,0.0091 -0.08297,0.02661 -0.144126,0.05211 -0.152892,0.06375 -0.375729,0.177536 -0.606812,0.340149 -0.389144,0.273856 -0.840604,0.663201 -1.259619,1.082217 -0.419015,0.419015 -0.808359,0.870473 -1.082216,1.2596184 -0.162613,0.2310811 -0.276404,0.45392 -0.34015,0.6068126 -0.0255,0.061157 -0.043,0.1114416 -0.05211,0.144126 -0.0041,0.014629 -0.006,0.027207 -0.0068,0.031671 7.92e-4,0.00447 0.0027,0.017043 0.0068,0.031671 0.0091,0.032684 0.02661,0.082969 0.05211,0.1441261 0.06375,0.1528925 0.177536,0.3757295 0.34015,0.6068126 0.273855,0.3891439 0.663201,0.8406029 1.082216,1.2596179 0.419015,0.419015 0.870473,0.808359 1.259619,1.082217 0.231081,0.162612 0.45392,0.276403 0.606812,0.340149 0.06116,0.0255 0.111442,0.043 0.144126,0.05211 0.01463,0.0041 0.02721,0.006 0.03167,0.0068 0.0045,-8.49e-4 0.01704,-0.0027 0.03167,-0.0068 0.03268,-0.0091 0.08297,-0.02661 0.144125,-0.05211 0.152893,-0.06375 0.37573,-0.177536 0.606813,-0.340149 0.389144,-0.273856 0.840604,-0.663202 1.259619,-1.082217 0.419015,-0.419015 0.808359,-0.870473 1.082216,-1.2596179 0.162612,-0.2310811 0.276404,-0.4539201 0.340149,-0.6068126 0.0255,-0.061157 0.043,-0.1114417 0.05211,-0.1441261 0.0041,-0.014629 0.006,-0.027207 0.0068,-0.031671 -8.49e-4,-0.00447 -0.0027,-0.017043 -0.0068,-0.031671 -0.0091,-0.032684 -0.02661,-0.082969 -0.05211,-0.144126 C 11.867342,8.6669538 11.753556,8.4441168 11.590943,8.2130338 11.317088,7.8238904 10.927742,7.3724304 10.508727,6.9534154 10.089712,6.5343994 9.638254,6.1450554 9.249108,5.8711984 9.018027,5.7085864 8.795188,5.5947954 8.642295,5.5310494 c -0.06116,-0.0255 -0.111441,-0.043 -0.144125,-0.05211 -0.01463,-0.0041 -0.02721,-0.006 -0.03167,-0.0068 z m -1.116189,1.043097 1.860315,1.24021 1.860315,1.2402099 -3.72063,2.4804197 V 10.855971 L 10.140784,8.9956563 8.745547,8.0654987 7.350311,8.9956563 V 7.1353414 Z"
     style="opacity:0.3;fill:#000000;fill-opacity:1;stroke-width:0.0155027" />
  <path
     id="path5-6-5"
     d="m 8.4665,4.4978281 c -0.992168,0 -3.968672,2.9765038 -3.968672,3.9686719 0,0.9921679 2.976504,3.968672 3.968672,3.968672 0.992168,0 3.968672,-2.9765041 3.968672,-3.968672 0,-0.9921681 -2.976504,-3.9686719 -3.968672,-3.9686719 z m 0,0.248042 c 0.124021,0 0.493576,0.152495 0.895761,0.435527 0.4022,0.283016 0.859532,0.67836 1.285264,1.104077 0.425718,0.425733 0.821062,0.883065 1.104078,1.2852648 0.283031,0.4021847 0.435527,0.7717401 0.435527,0.8957611 0,0.1240209 -0.152496,0.4935764 -0.435527,0.895761 -0.283016,0.4022004 -0.67836,0.859531 -1.104078,1.285264 -0.425732,0.425718 -0.883064,0.821062 -1.285264,1.104078 -0.402185,0.283031 -0.77174,0.435527 -0.895761,0.435527 -0.124021,0 -0.493577,-0.152496 -0.895761,-0.435527 C 7.168538,11.468587 6.711208,11.073243 6.285474,10.647525 5.859757,10.221792 5.464413,9.7644614 5.181397,9.362261 4.898365,8.9600764 4.74587,8.5905209 4.74587,8.4665 4.74587,8.342479 4.898365,7.9729236 5.181397,7.5707389 5.464413,7.1685391 5.859757,6.7112071 6.285474,6.2854741 6.711208,5.8597571 7.168538,5.4644131 7.570739,5.1813971 7.972923,4.8983651 8.342479,4.7458701 8.4665,4.7458701 Z m 0,0.197113 c -0.0045,8.49e-4 -0.01704,0.0027 -0.03167,0.0068 -0.03268,0.0091 -0.08297,0.02661 -0.144126,0.05211 -0.152892,0.06375 -0.375729,0.177536 -0.606812,0.340149 -0.389144,0.273856 -0.840604,0.663201 -1.259619,1.082217 -0.419015,0.419015 -0.808359,0.870473 -1.082216,1.2596184 -0.162613,0.2310811 -0.276404,0.45392 -0.34015,0.6068126 -0.0255,0.061157 -0.043,0.1114416 -0.05211,0.144126 -0.0041,0.014629 -0.006,0.027207 -0.0068,0.031671 7.92e-4,0.00447 0.0027,0.017043 0.0068,0.031671 0.0091,0.032684 0.02661,0.082969 0.05211,0.1441261 0.06375,0.1528925 0.177536,0.3757295 0.34015,0.6068126 0.273855,0.3891436 0.663201,0.8406032 1.082216,1.2596182 0.419015,0.419015 0.870473,0.808359 1.259619,1.082217 0.231081,0.162612 0.45392,0.276403 0.606812,0.340149 0.06116,0.0255 0.111442,0.043 0.144126,0.05211 0.01463,0.0041 0.02721,0.006 0.03167,0.0068 0.0045,-8.49e-4 0.01704,-0.0027 0.03167,-0.0068 0.03268,-0.0091 0.08297,-0.02661 0.144125,-0.05211 0.152893,-0.06375 0.37573,-0.177536 0.606813,-0.340149 0.389144,-0.273856 0.840604,-0.663202 1.259619,-1.082217 0.419015,-0.419015 0.808359,-0.8704729 1.082216,-1.2596182 0.162612,-0.2310811 0.276404,-0.4539201 0.340149,-0.6068126 0.0255,-0.061157 0.043,-0.1114417 0.05211,-0.1441261 0.0041,-0.014629 0.006,-0.027207 0.0068,-0.031671 -8.49e-4,-0.00447 -0.0027,-0.017043 -0.0068,-0.031671 -0.0091,-0.032684 -0.02661,-0.082969 -0.05211,-0.144126 C 11.867342,8.1377975 11.753556,7.9149605 11.590943,7.6838775 11.317088,7.2947341 10.927742,6.8432741 10.508727,6.4242591 10.089712,6.0052431 9.638254,5.6158991 9.249108,5.3420421 9.018027,5.1794301 8.795188,5.0656391 8.642295,5.0018931 c -0.06116,-0.0255 -0.111441,-0.043 -0.144125,-0.05211 -0.01463,-0.0041 -0.02721,-0.006 -0.03167,-0.0068 z m -1.116189,1.043097 1.860315,1.24021 1.860315,1.2402099 -3.72063,2.48042 V 10.326815 L 10.140784,8.4665 8.745547,7.5363424 7.350311,8.4665 V 6.6061851 Z"
     style="fill:currentColor;stroke-width:0.0155027"
     class="ColorScheme-Text" />
  <path
     id="gradient-path1"
     style="opacity:0.3;baseline-shift:baseline;display:inline;overflow:visible;vector-effect:none;enable-background:accumulate;stop-color:#000000;stop-opacity:1;fill:url(#linearGradient4)"
     d="M 8.4453131 1.2753492 C 4.4913166 1.2753492 1.2794833 4.4784283 1.2794833 8.4236094 C 1.2794833 12.36879 4.4913166 15.572386 8.4453131 15.572386 C 12.39931 15.572386 15.611143 12.36879 15.611143 8.4236094 C 15.611143 4.4784283 12.39931 1.2753492 8.4453131 1.2753492 z " />
</svg>
