<?xml version='1.0' encoding='UTF-8'?>
<svg xmlns:inkscape="http://www.inkscape.org/namespaces/inkscape" xmlns:sodipodi="http://sodipodi.sourceforge.net/DTD/sodipodi-0.dtd" xmlns:xlink="http://www.w3.org/1999/xlink" xmlns="http://www.w3.org/2000/svg" xmlns:svg="http://www.w3.org/2000/svg" xmlns:rdf="http://www.w3.org/1999/02/22-rdf-syntax-ns#" xmlns:cc="http://creativecommons.org/ns#" xmlns:dc="http://purl.org/dc/elements/1.1/" width="64" height="64" version="1.1" viewBox="0 0 16.933 16.933" id="svg7" sodipodi:docname="dosbox.svg" inkscape:version="1.4.2 (ebf0e940d0, 2025-05-08)">
  <sodipodi:namedview id="namedview7" pagecolor="#a9abb3" bordercolor="#000000" borderopacity="0.25" inkscape:showpageshadow="2" inkscape:pageopacity="0.0" inkscape:pagecheckerboard="0" inkscape:deskcolor="#d1d1d1" inkscape:zoom="4.3531261" inkscape:cx="36.066035" inkscape:cy="26.417797" inkscape:window-width="2560" inkscape:window-height="1372" inkscape:window-x="0" inkscape:window-y="0" inkscape:window-maximized="1" inkscape:current-layer="svg7" showgrid="false"/>
  <defs id="defs2">
    <filter style="color-interpolation-filters:sRGB;" inkscape:label="Blur" id="filter3" x="-0.10843471" y="-0.10870992" width="1.2168694" height="1.2174198">
      <feGaussianBlur stdDeviation="0.5 0.5" result="blur" id="feGaussianBlur3"/>
    </filter>
    <style id="current-color-scheme" type="text/css">.ColorScheme-Text {color:#d8dee9} .ColorScheme-Highlight {color:#3b4252}</style><linearGradient id="linearGradient3" inkscape:collect="always">
      <stop style="stop-color:#000000;stop-opacity:1;" offset="0" id="stop3"/>
      <stop style="stop-color:#000000;stop-opacity:0;" offset="1" id="stop4"/>
    </linearGradient>
    <linearGradient inkscape:collect="always" xlink:href="#linearGradient3" id="linearGradient4" x1="13.512321" y1="13.490874" x2="3.3783066" y2="3.3568602" gradientUnits="userSpaceOnUse"/>
  </defs>
  <metadata id="metadata2">
    <rdf:RDF>
      <cc:Work rdf:about="">
        <dc:format>image/svg+xml</dc:format>
        <dc:type rdf:resource="http://purl.org/dc/dcmitype/StillImage"/>
      </cc:Work>
    </rdf:RDF>
  </metadata>
  <ellipse style="opacity:1;fill:none;stroke:#000000;stroke-width:0.582072;stroke-dasharray:none;stroke-opacity:1;filter:url(#filter3)" id="path1-5" cx="8.4450111" cy="8.423522" rx="6.8752708" ry="6.8578653"/>
  <ellipse style="opacity:1;fill:none;stroke-width:0.58207188;stroke-opacity:1;stroke:currentColor;stroke-dasharray:none;fill-opacity:1" id="path1" cx="8.4450111" cy="8.423522" rx="6.8752708" ry="6.8578653" class="ColorScheme-Text"/>
  <ellipse style="fill:currentColor;stroke:none;stroke-width:0.285844;stroke-dasharray:none;stroke-opacity:1" id="path1-2" cx="8.4557552" cy="8.423522" rx="6.5738997" ry="6.5692253" class="ColorScheme-Highlight"/>
<path fill="currentColor" class="ColorScheme-Text" d="m 4.6795934,5.5873608 v 0.37869 H 5.058284 V 8.2381946 H 4.6795934 V 8.6168852 H 6.5730463 V 8.2381946 H 6.9517365 V 5.9660508 H 6.5730463 v -0.37869 z m 3.0295245,0 v 0.37869 H 7.3304272 V 8.2381946 H 7.7091179 V 8.6168852 H 9.2238797 V 8.2381946 H 9.6025704 V 5.9660508 H 9.2238797 v -0.37869 z m 2.6508321,0 v 0.37869 H 9.9812611 V 6.7234324 H 10.35995 V 7.102123 h 0.757384 v 0.3786901 h 0.378689 V 8.2381946 H 10.73864 V 7.4808131 H 9.9812611 V 8.2381946 H 10.35995 v 0.3786906 h 1.514762 V 8.2381946 h 0.378695 V 7.4808131 H 11.874712 V 7.102123 H 11.496023 V 6.7234324 H 10.73864 V 5.9660508 h 0.757383 v 0.7573816 h 0.757384 V 5.9660508 h -0.378695 v -0.37869 z m -4.5442851,0.37869 H 6.1943556 V 8.2381946 H 5.8156649 Z m 2.2721437,0 H 8.8451895 V 8.2381946 H 8.0878086 Z M 4.6795934,9.3742662 V 9.7529567 H 5.058284 V 12.0251 H 4.6795934 v 0.378691 H 6.5730463 V 12.0251 H 6.9517365 V 10.889028 H 6.5730463 v -0.37869 H 6.9517365 V 9.7529567 H 6.5730463 V 9.3742662 Z m 3.0295245,0 V 9.7529567 H 7.3304272 V 12.0251 h 0.3786907 v 0.378691 H 9.2238797 V 12.0251 H 9.6025704 V 9.7529567 H 9.2238797 V 9.3742662 Z m 1.8934525,0 V 9.7529567 H 9.9812611 V 10.510338 H 10.35995 v 0.757381 H 9.9812611 V 12.0251 H 9.6025704 v 0.378691 H 10.35995 V 12.0251 h 0.37869 v -0.378691 h 0.378694 V 12.0251 h 0.378689 v 0.378691 h 0.757384 V 12.0251 h -0.378695 v -0.757381 h -0.378689 v -0.757381 h 0.378689 V 9.7529567 h 0.378695 V 9.3742662 H 11.496023 V 9.7529567 H 11.117334 V 10.131647 H 10.73864 V 9.7529567 H 10.35995 V 9.3742662 Z M 5.8156649,9.7529567 H 6.1943556 V 10.510338 H 5.8156649 Z m 2.2721437,0 H 8.8451895 V 12.0251 H 8.0878086 Z M 5.8156649,10.889028 H 6.1943556 V 12.0251 H 5.8156649 Z" id="path24-3" style="fill:#000000;fill-opacity:1;stroke-width:0.20581;opacity:0.3"/>
  <path fill="currentColor" class="ColorScheme-Text" d="M 4.6795934,5.0582852 V 5.4369751 H 5.058284 V 7.7091189 H 4.6795934 V 8.0878096 H 6.5730463 V 7.7091189 H 6.9517365 V 5.4369751 H 6.5730463 V 5.0582852 Z m 3.0295245,0 V 5.4369751 H 7.3304272 V 7.7091189 H 7.7091179 V 8.0878096 H 9.2238797 V 7.7091189 H 9.6025704 V 5.4369751 H 9.2238797 V 5.0582852 Z m 2.6508321,0 V 5.4369751 H 9.9812611 V 6.1943568 H 10.35995 v 0.3786905 h 0.757384 v 0.3786901 h 0.378689 V 7.7091189 H 10.73864 V 6.9517374 H 9.9812611 V 7.7091189 H 10.35995 v 0.3786907 h 1.514762 V 7.7091189 h 0.378695 V 6.9517374 H 11.874712 V 6.5730473 H 11.496023 V 6.1943568 H 10.73864 V 5.4369751 h 0.757383 v 0.7573817 h 0.757384 V 5.4369751 H 11.874712 V 5.0582852 Z M 5.8156649,5.4369751 H 6.1943556 V 7.7091189 H 5.8156649 Z m 2.2721437,0 H 8.8451895 V 7.7091189 H 8.0878086 Z M 4.6795934,8.8451905 V 9.2238813 H 5.058284 V 11.496024 H 4.6795934 v 0.378691 H 6.5730463 V 11.496024 H 6.9517365 V 10.359952 H 6.5730463 V 9.9812617 H 6.9517365 V 9.2238813 H 6.5730463 V 8.8451905 Z m 3.0295245,0 V 9.2238813 H 7.3304272 v 2.2721427 h 0.3786907 v 0.378691 H 9.2238797 V 11.496024 H 9.6025704 V 9.2238813 H 9.2238797 V 8.8451905 Z m 1.8934525,0 V 9.2238813 H 9.9812611 V 9.9812617 H 10.35995 V 10.738643 H 9.9812611 v 0.757381 H 9.6025704 v 0.378691 H 10.35995 v -0.378691 h 0.37869 v -0.378691 h 0.378694 v 0.378691 h 0.378689 v 0.378691 h 0.757384 V 11.496024 H 11.874712 V 10.738643 H 11.496023 V 9.9812617 h 0.378689 V 9.2238813 h 0.378695 V 8.8451905 H 11.496023 V 9.2238813 H 11.117334 V 9.602571 H 10.73864 V 9.2238813 H 10.35995 V 8.8451905 Z M 5.8156649,9.2238813 H 6.1943556 V 9.9812617 H 5.8156649 Z m 2.2721437,0 H 8.8451895 V 11.496024 H 8.0878086 Z M 5.8156649,10.359952 h 0.3786907 v 1.136072 H 5.8156649 Z" id="path24-3-7" style="fill:currentColor;fill-opacity:1;stroke-width:0.20581"/>
<path id="gradient-path1" style="opacity:0.3;baseline-shift:baseline;display:inline;overflow:visible;vector-effect:none;enable-background:accumulate;stop-color:#000000;stop-opacity:1;fill:url(#linearGradient4)" d="M 8.4453131 1.2753492 C 4.4913166 1.2753492 1.2794833 4.4784283 1.2794833 8.4236094 C 1.2794833 12.36879 4.4913166 15.572386 8.4453131 15.572386 C 12.39931 15.572386 15.611143 12.36879 15.611143 8.4236094 C 15.611143 4.4784283 12.39931 1.2753492 8.4453131 1.2753492 z "/>
</svg>
