<?xml version="1.0" encoding="UTF-8" standalone="no"?>
<svg
   width="64"
   height="64"
   version="1.1"
   viewBox="0 0 16.933 16.933"
   id="svg7"
   sodipodi:docname="dupeguru.svg"
   inkscape:version="1.4.2 (ebf0e940d0, 2025-05-08)"
   xmlns:inkscape="http://www.inkscape.org/namespaces/inkscape"
   xmlns:sodipodi="http://sodipodi.sourceforge.net/DTD/sodipodi-0.dtd"
   xmlns:xlink="http://www.w3.org/1999/xlink"
   xmlns="http://www.w3.org/2000/svg"
   xmlns:svg="http://www.w3.org/2000/svg"
   xmlns:rdf="http://www.w3.org/1999/02/22-rdf-syntax-ns#"
   xmlns:cc="http://creativecommons.org/ns#"
   xmlns:dc="http://purl.org/dc/elements/1.1/">
  <sodipodi:namedview
     id="namedview7"
     pagecolor="#9c4444"
     bordercolor="#000000"
     borderopacity="0.25"
     inkscape:showpageshadow="2"
     inkscape:pageopacity="0.0"
     inkscape:pagecheckerboard="0"
     inkscape:deskcolor="#d1d1d1"
     inkscape:zoom="8.7062522"
     inkscape:cx="72.074641"
     inkscape:cy="15.276378"
     inkscape:window-width="2560"
     inkscape:window-height="1392"
     inkscape:window-x="0"
     inkscape:window-y="0"
     inkscape:window-maximized="1"
     inkscape:current-layer="svg7"
     showgrid="false" />
  <defs
     id="defs2">
    <filter
       style="color-interpolation-filters:sRGB;"
       inkscape:label="Blur"
       id="filter3"
       x="-0.10843471"
       y="-0.10870992"
       width="1.2168694"
       height="1.2174198">
      <feGaussianBlur
         stdDeviation="0.5 0.5"
         result="blur"
         id="feGaussianBlur3" />
    </filter>
    <style
       id="current-color-scheme"
       type="text/css">.ColorScheme-Text {color:#d8dee9} .ColorScheme-Highlight {color:#3b4252}</style>
    <linearGradient
       id="linearGradient3"
       inkscape:collect="always">
      <stop
         style="stop-color:#000000;stop-opacity:1;"
         offset="0"
         id="stop3" />
      <stop
         style="stop-color:#000000;stop-opacity:0;"
         offset="1"
         id="stop4" />
    </linearGradient>
    <linearGradient
       inkscape:collect="always"
       xlink:href="#linearGradient3"
       id="linearGradient4"
       x1="13.512321"
       y1="13.490874"
       x2="3.3783066"
       y2="3.3568602"
       gradientUnits="userSpaceOnUse" />
  </defs>
  <metadata
     id="metadata2">
    <rdf:RDF>
      <cc:Work
         rdf:about="">
        <dc:format>image/svg+xml</dc:format>
        <dc:type
           rdf:resource="http://purl.org/dc/dcmitype/StillImage" />
      </cc:Work>
    </rdf:RDF>
  </metadata>
  <ellipse
     style="opacity:1;fill:none;stroke:#000000;stroke-width:0.582072;stroke-dasharray:none;stroke-opacity:1;filter:url(#filter3)"
     id="path1-5"
     cx="8.4450111"
     cy="8.423522"
     rx="6.8752708"
     ry="6.8578653" />
  <ellipse
     style="opacity:1;fill:none;stroke-width:0.58207188;stroke-opacity:1;stroke:currentColor;stroke-dasharray:none;fill-opacity:1"
     id="path1"
     cx="8.4450111"
     cy="8.423522"
     rx="6.8752708"
     ry="6.8578653"
     class="ColorScheme-Text" />
  <ellipse
     style="fill:currentColor;stroke:none;stroke-width:0.285844;stroke-dasharray:none;stroke-opacity:1"
     id="path1-2"
     cx="8.4557552"
     cy="8.423522"
     rx="6.5738997"
     ry="6.5692253"
     class="ColorScheme-Highlight" />
  <path
     id="path5-6"
     style="opacity:0.3;fill:#000000;fill-opacity:1;stroke-width:0.0297902"
     d="m 5.7747095,5.0269844 c -0.165037,0 -0.297925,0.132888 -0.297925,0.297926 v 1.260186 h -3.7e-5 v 0.61129 c 0,0.1590391 -0.123383,0.2882073 -0.280041,0.2973865 h -3.6e-5 l -0.863478,-1.097e-4 2.632898,2.6333658 1.288938,-1.2825683 C 7.5399605,8.0275472 6.6990775,7.1425779 6.4330695,5.1985644 c -0.01295,-0.09463 -0.09911,-0.17158 -0.194647,-0.17158 z m 1.612343,0 c -0.09629,0 -0.182219,0.07765 -0.189429,0.173667 -0.13451,1.7911511 0.462325,2.7453421 1.16727,3.530888 l 1.234528,-1.2373709 -0.65926,-6.96e-5 v -2.506e-4 h -0.186514 c -0.162587,0 -0.293953,-0.1289246 -0.297818,-0.2905493 V 5.3249104 c 0,-0.165038 -0.132888,-0.297926 -0.297927,-0.297926 z m 2.579855,2.8372974 -1.288938,1.2825691 c 0.715069,0.8169145 1.5559515,1.7018841 1.8219595,3.6458981 0.01294,0.09463 0.09911,0.171579 0.194647,0.171579 h 0.463713 c 0.165037,0 0.297926,-0.132888 0.297926,-0.297926 v -1.260185 h 3.5e-5 v -0.611291 c 0,-0.159039 0.123385,-0.288207 0.280042,-0.297385 h 3.7e-5 l 0.863478,1.11e-4 z m -1.398802,1.3954922 -1.234528,1.237371 0.659259,7e-5 v 2.5e-4 h 0.186515 c 0.162587,0 0.293953,0.128924 0.297818,0.290549 v 1.878384 c 0,0.165039 0.132888,0.297927 0.297926,0.297927 h 0.770851 c 0.09628,0 0.182219,-0.07766 0.189429,-0.173668 0.13451,-1.791146 -0.462326,-2.745337 -1.16727,-3.530883 z" />
  <path
     id="path5-6-5"
     style="fill:currentColor;stroke-width:0.0297902"
     d="m 5.7747095,4.4978281 c -0.165037,0 -0.297925,0.132888 -0.297925,0.297926 v 1.260186 h -3.7e-5 v 0.61129 c 0,0.1590391 -0.123383,0.2882073 -0.280041,0.2973865 h -3.6e-5 L 4.3331925,6.9645069 6.9660905,9.597873 8.2550285,8.3153044 C 7.5399605,7.4983909 6.6990775,6.6134216 6.4330695,4.6694081 c -0.01295,-0.09463 -0.09911,-0.17158 -0.194647,-0.17158 z m 1.612343,0 c -0.09629,0 -0.182219,0.07765 -0.189429,0.173667 -0.13451,1.7911511 0.462325,2.7453421 1.16727,3.530888 l 1.234528,-1.2373709 -0.65926,-6.96e-5 V 6.964692 h -0.186514 c -0.162587,0 -0.293953,-0.1289246 -0.297818,-0.2905493 V 4.7957541 c 0,-0.165038 -0.132888,-0.297926 -0.297927,-0.297926 z m 2.579855,2.8372974 -1.288938,1.2825691 c 0.715069,0.8169145 1.5559515,1.7018844 1.8219595,3.6458984 0.01294,0.09463 0.09911,0.171579 0.194647,0.171579 h 0.463713 c 0.165037,0 0.297926,-0.132888 0.297926,-0.297926 v -1.260185 h 3.5e-5 V 10.26577 c 0,-0.159039 0.123385,-0.2882068 0.280042,-0.2973856 h 3.7e-5 l 0.863478,1.115e-4 z m -1.398802,1.3954922 -1.234528,1.237371 0.659259,6.96e-5 v 2.502e-4 h 0.186515 c 0.162587,0 0.293953,0.1289245 0.297818,0.2905495 v 1.878384 c 0,0.165039 0.132888,0.297927 0.297926,0.297927 h 0.770851 c 0.09628,0 0.182219,-0.07766 0.189429,-0.173668 0.13451,-1.791146 -0.462326,-2.7453372 -1.16727,-3.5308833 z"
     class="ColorScheme-Text" />
  <path
     id="gradient-path1"
     style="opacity:0.3;baseline-shift:baseline;display:inline;overflow:visible;vector-effect:none;enable-background:accumulate;stop-color:#000000;stop-opacity:1;fill:url(#linearGradient4)"
     d="M 8.4453131 1.2753492 C 4.4913166 1.2753492 1.2794833 4.4784283 1.2794833 8.4236094 C 1.2794833 12.36879 4.4913166 15.572386 8.4453131 15.572386 C 12.39931 15.572386 15.611143 12.36879 15.611143 8.4236094 C 15.611143 4.4784283 12.39931 1.2753492 8.4453131 1.2753492 z " />
</svg>
