<?xml version="1.0" encoding="UTF-8" standalone="no"?>
<svg
   width="64"
   height="64"
   version="1.1"
   viewBox="0 0 16.933 16.933"
   id="svg7"
   sodipodi:docname="easytag.svg"
   inkscape:version="1.4.2 (ebf0e940d0, 2025-05-08)"
   xmlns:inkscape="http://www.inkscape.org/namespaces/inkscape"
   xmlns:sodipodi="http://sodipodi.sourceforge.net/DTD/sodipodi-0.dtd"
   xmlns:xlink="http://www.w3.org/1999/xlink"
   xmlns="http://www.w3.org/2000/svg"
   xmlns:svg="http://www.w3.org/2000/svg"
   xmlns:rdf="http://www.w3.org/1999/02/22-rdf-syntax-ns#"
   xmlns:cc="http://creativecommons.org/ns#"
   xmlns:dc="http://purl.org/dc/elements/1.1/">
  <sodipodi:namedview
     id="namedview7"
     pagecolor="#9c4444"
     bordercolor="#000000"
     borderopacity="0.25"
     inkscape:showpageshadow="2"
     inkscape:pageopacity="0.0"
     inkscape:pagecheckerboard="0"
     inkscape:deskcolor="#d1d1d1"
     inkscape:zoom="8.7062522"
     inkscape:cx="72.189501"
     inkscape:cy="15.276378"
     inkscape:window-width="2560"
     inkscape:window-height="1388"
     inkscape:window-x="0"
     inkscape:window-y="0"
     inkscape:window-maximized="1"
     inkscape:current-layer="svg7"
     showgrid="false" />
  <defs
     id="defs2">
    <filter
       style="color-interpolation-filters:sRGB;"
       inkscape:label="Blur"
       id="filter3"
       x="-0.10843471"
       y="-0.10870992"
       width="1.2168694"
       height="1.2174198">
      <feGaussianBlur
         stdDeviation="0.5 0.5"
         result="blur"
         id="feGaussianBlur3" />
    </filter>
    <style
       id="current-color-scheme"
       type="text/css">.ColorScheme-Text {color:#d8dee9} .ColorScheme-Highlight {color:#3b4252}</style>
    <linearGradient
       id="linearGradient3"
       inkscape:collect="always">
      <stop
         style="stop-color:#000000;stop-opacity:1;"
         offset="0"
         id="stop3" />
      <stop
         style="stop-color:#000000;stop-opacity:0;"
         offset="1"
         id="stop4" />
    </linearGradient>
    <linearGradient
       inkscape:collect="always"
       xlink:href="#linearGradient3"
       id="linearGradient4"
       x1="13.512321"
       y1="13.490874"
       x2="3.3783066"
       y2="3.3568602"
       gradientUnits="userSpaceOnUse" />
  </defs>
  <metadata
     id="metadata2">
    <rdf:RDF>
      <cc:Work
         rdf:about="">
        <dc:format>image/svg+xml</dc:format>
        <dc:type
           rdf:resource="http://purl.org/dc/dcmitype/StillImage" />
      </cc:Work>
    </rdf:RDF>
  </metadata>
  <ellipse
     style="opacity:1;fill:none;stroke:#000000;stroke-width:0.582072;stroke-dasharray:none;stroke-opacity:1;filter:url(#filter3)"
     id="path1-5"
     cx="8.4450111"
     cy="8.423522"
     rx="6.8752708"
     ry="6.8578653" />
  <ellipse
     style="opacity:1;fill:none;stroke-width:0.58207188;stroke-opacity:1;stroke:currentColor;stroke-dasharray:none;fill-opacity:1"
     id="path1"
     cx="8.4450111"
     cy="8.423522"
     rx="6.8752708"
     ry="6.8578653"
     class="ColorScheme-Text" />
  <ellipse
     style="fill:currentColor;stroke:none;stroke-width:0.285844;stroke-dasharray:none;stroke-opacity:1"
     id="path1-2"
     cx="8.4557552"
     cy="8.423522"
     rx="6.5738997"
     ry="6.5692253"
     class="ColorScheme-Highlight" />
  <path
     id="path5"
     d="m 6.824783,5.02699 c -0.0013,0 -0.0027,1.862e-4 -0.004,1.986e-4 -7.37e-4,3.4e-6 -0.0014,-1.364e-4 -0.0022,-1.239e-4 -0.0035,2.66e-5 -0.0071,6.81e-4 -0.01065,7.944e-4 -0.02768,5.66e-4 -0.05558,0.0026 -0.08363,0.0059 -5.34e-4,6.4e-5 -0.0011,6.34e-5 -0.0016,1.239e-4 -0.0061,7.377e-4 -0.01207,0.0017 -0.01808,0.0026 -0.02672,0.00373 -0.05323,0.00871 -0.07971,0.014813 -0.04213,0.00971 -0.08372,0.021645 -0.123771,0.036939 -5.67e-4,2.235e-4 -0.0011,4.216e-4 -0.0018,6.242e-4 -0.0014,5.338e-4 -0.0026,0.00124 -0.004,0.00181 -0.0272,0.010607 -0.05352,0.022579 -0.07901,0.035591 -1.85e-4,9.5e-5 -3.97e-4,1.613e-4 -5.66e-4,2.609e-4 -0.0085,0.00436 -0.01651,0.009 -0.02475,0.013596 -0.01985,0.011055 -0.03884,0.022789 -0.05714,0.035269 -2.24e-4,1.488e-4 -4.84e-4,2.976e-4 -6.81e-4,4.465e-4 -1.24e-4,8.89e-5 -2.61e-4,1.738e-4 -3.85e-4,2.61e-4 -0.0034,0.00232 -0.0067,0.00476 -0.01007,0.00705 -0.01031,0.00734 -0.02076,0.014468 -0.03047,0.022251 -0.0174,0.013964 -0.03419,0.028397 -0.04938,0.043737 L 5.801548,5.6949632 C 5.620959,5.8774898 5.325419,6.1760531 5.144731,6.3585146 L 4.703389,6.804409 c -0.0045,0.00447 -0.0088,0.00904 -0.01315,0.013726 -0.0033,0.00356 -0.0065,0.00718 -0.0097,0.01084 -0.0024,0.00272 -0.0047,0.00538 -0.007,0.00815 -0.0081,0.00955 -0.01494,0.020666 -0.02244,0.030973 -0.0014,0.00187 -0.0028,0.00385 -0.0042,0.00571 -0.01007,0.013817 -0.02029,0.02722 -0.0295,0.042067 -0.0014,0.00215 -0.0028,0.0043 -0.0041,0.00654 -0.0054,0.00905 -0.01014,0.018741 -0.01513,0.028216 -1.37e-4,2.479e-4 -2.5e-4,5.213e-4 -3.85e-4,7.944e-4 -0.01402,0.025568 -0.02678,0.051945 -0.03829,0.079521 -3.54e-4,6.809e-4 -7.38e-4,0.00136 -0.001,0.00209 -0.0015,0.00351 -0.0028,0.00702 -0.0042,0.010517 -1.25e-4,3.102e-4 -1.95e-4,6.242e-4 -3.2e-4,9.647e-4 -0.0128,0.032167 -0.02376,0.065078 -0.03296,0.098888 -8.1e-5,3.012e-4 -1.75e-4,6.242e-4 -2.56e-4,9.079e-4 -0.0093,0.03421 -0.01659,0.068678 -0.02193,0.1035694 -2e-5,1.279e-4 -4.5e-5,2.558e-4 -6.5e-5,3.849e-4 -3.56e-4,0.00226 -8.51e-4,0.00459 -0.0011,0.00686 -2.6e-5,1.738e-4 -4e-5,3.402e-4 -6.5e-5,5.14e-4 -0.0039,0.026847 -0.0063,0.05341 -0.0077,0.080098 -3.9e-5,3.86e-4 -1.08e-4,7.944e-4 -1.28e-4,0.00113 -5.65e-4,0.011989 -0.0019,0.024078 -0.002,0.035976 -7e-6,7.945e-4 3.6e-5,0.00158 6.4e-5,0.00238 -3e-6,5.66e-4 6.6e-5,0.00113 6.4e-5,0.00175 -1e-4,0.026632 0.0019,0.052533 0.0044,0.078302 v 6.57e-5 6.56e-5 6.57e-5 6.57e-5 c 3.66e-4,0.0039 3.86e-4,0.00792 8.51e-4,0.011802 5.4e-5,4.528e-4 1.29e-4,9.079e-4 1.93e-4,0.00136 2.2e-5,1.936e-4 4.1e-5,3.849e-4 6.4e-5,5.66e-4 0.0015,0.012277 0.0027,0.024639 0.0048,0.036616 v 6.57e-5 c 2.95e-4,0.0017 5.65e-4,0.00334 9.07e-4,0.00498 4.77e-4,0.0026 9.65e-4,0.00521 0.0015,0.00782 v 6.57e-5 c 4.8e-5,2.434e-4 1.44e-4,4.63e-4 1.92e-4,6.809e-4 0.0042,0.021096 0.009,0.041835 0.01533,0.061693 l 0.391393,1.2351094 c 0.1437,-0.3094729 0.314977,-0.6073654 0.508613,-0.8757572 0.0021,-0.00289 0.0066,-0.0089 0.0065,-0.00885 C 5.572727,7.7247739 5.737693,7.5328552 5.915903,7.364906 5.846923,7.2613118 5.80669,7.1369325 5.80669,7.0031492 c 0,-0.3610379 0.292702,-0.6537394 0.65374,-0.6537394 0.361002,0 0.653709,0.2927044 0.653739,0.6537394 0,0.3610023 -0.292697,0.6536761 -0.653739,0.6536761 -0.07018,0 -0.137805,-0.011021 -0.201175,-0.031488 C 6.03454,7.828893 5.832318,8.0802644 5.653163,8.3557122 l -1.28e-4,2.626e-4 -1.93e-4,2.627e-4 c -0.0088,0.01341 -0.02413,0.040725 -0.03893,0.064066 L 5.61372,8.4206317 C 5.5179,8.5734826 5.430099,8.7286951 5.351813,8.8903185 l -2.55e-4,3.849e-4 -1.94e-4,4.488e-4 c -0.05833,0.1181462 -0.114906,0.2346034 -0.162056,0.3508545 -7.37e-4,0.00181 -0.0014,0.00368 -0.0022,0.00549 l 1.93e-4,3.289e-4 -0.02155,0.055924 c -0.004,0.010302 -0.0079,0.020603 -0.0118,0.030911 0.07805,0.1215305 0.164413,0.2337158 0.244847,0.3133383 l 0.645596,0.6390541 0.64925,0.642646 C 6.671574,10.781963 6.650904,10.63401 6.630354,10.486237 6.520588,9.6970606 6.41068,8.9073089 6.329842,8.1146512 c -0.01519,-0.1487638 -0.01405,-0.282641 0.0043,-0.4029279 0.04101,0.00729 0.0832,0.011094 0.126272,0.011094 0.396838,0 0.71973,-0.3228606 0.71973,-0.7196652 -4e-6,-0.034782 -0.0025,-0.069001 -0.0073,-0.1024797 0.751,-0.2298675 1.507698,-0.443941 2.268145,-0.6412987 L 9.093737,5.9154296 C 9.048117,5.8702546 8.992032,5.8233006 8.929693,5.7771011 8.867373,5.7309131 8.798847,5.6855241 8.728325,5.6433903 8.657805,5.6012553 8.585305,5.5624263 8.515093,5.5294316 8.444883,5.4964326 8.37697,5.4692616 8.315585,5.4504876 L 7.017877,5.0538604 c -0.01505,-0.00459 -0.03053,-0.00854 -0.0463,-0.011926 -0.0059,-0.00124 -0.01199,-0.00209 -0.01795,-0.00323 -0.01006,-0.00187 -0.02005,-0.00379 -0.03033,-0.00521 -0.01015,-0.00136 -0.02089,-0.00113 -0.03123,-0.00204 -0.02226,-0.00198 -0.04438,-0.00447 -0.06727,-0.00447 z m 0.01718,0.1775756 c 0.04981,-0.00221 0.09845,-6.809e-4 0.151411,0.00859 0.02909,0.00424 0.04609,0.00965 0.07413,0.016738 0.02269,0.0067 0.04551,0.013403 0.06836,0.02014 0.09148,0.026694 0.183894,0.054197 0.276849,0.082535 0.186073,0.056212 0.375058,0.1132937 0.564086,0.1703934 0.09433,0.029189 0.188617,0.058382 0.282556,0.087473 0.0986,0.032507 0.190546,0.074363 0.278773,0.1206928 0.08764,0.04728 0.172162,0.098118 0.251261,0.1555787 0.01983,0.014479 0.03978,0.027729 0.05926,0.043097 0.0194,0.015628 0.03876,0.031188 0.05804,0.046686 0.02009,0.015334 0.03605,0.031596 0.05342,0.047394 l 0.02559,0.023728 0.0063,0.0059 0.0077,0.00751 0.01219,0.012379 c 0.04984,0.050076 0.09883,0.099754 0.146921,0.1487807 -0.03679,0.00976 -0.07359,0.019534 -0.110367,0.029371 -0.03594,-0.034646 -0.07213,-0.069697 -0.108572,-0.1052368 l -0.0125,-0.012124 -0.0048,-0.00453 -0.0065,-0.00577 -0.0261,-0.023213 C 8.872541,6.0654744 8.855111,6.0485904 8.837321,6.0359794 8.819651,6.0223834 8.801961,6.0087874 8.784161,5.9951294 8.766231,5.9815334 8.746381,5.9688894 8.727471,5.9556264 8.651161,5.9027914 8.569168,5.8556404 8.485768,5.8107553 8.401648,5.7672503 8.314403,5.7286663 8.225914,5.7000676 8.131744,5.6716306 8.037247,5.6430516 7.942716,5.6145186 7.754082,5.5561716 7.565432,5.4978022 7.37972,5.440342 7.2868,5.411809 7.194845,5.382952 7.104091,5.353959 7.009261,5.321192 6.934665,5.303628 6.845454,5.307336 6.673238,5.312656 6.501836,5.371584 6.38327,5.4732401 6.261652,5.5904592 6.14665,5.7012606 6.040497,5.8035728 5.827269,6.0092482 5.647548,6.1786556 5.521365,6.2968595 5.394559,6.4144731 5.322114,6.4816819 5.322114,6.4816819 c 0,0 0.263913,-0.294489 0.670799,-0.7252444 C 6.043743,5.7025575 6.096705,5.646437 6.151505,5.588353 6.179025,5.559457 6.206985,5.530054 6.235455,5.500174 6.249705,5.485265 6.264035,5.47026 6.278485,5.455158 6.292675,5.440119 6.307355,5.424819 6.324725,5.408727 6.460692,5.2849738 6.645416,5.2146161 6.841996,5.2046013 Z m -0.381506,1.253995 c -0.300305,0 -0.544655,0.2443509 -0.544655,0.5446547 0,0.1052923 0.03006,0.2037012 0.08202,0.2871097 0.0565,-0.049759 0.114263,-0.097101 0.173215,-0.1417274 -0.02202,-0.043737 -0.03444,-0.093151 -0.03444,-0.1454463 0,-0.1788163 0.144973,-0.3237916 0.323856,-0.3237916 0.178849,0 0.323791,0.1449753 0.323791,0.3237916 0,0.1219698 -0.06743,0.2282226 -0.167058,0.2834538 -0.01197,0.049556 -0.04188,0.094961 -0.08767,0.1258233 -0.0079,0.00532 -0.01584,0.010754 -0.02373,0.016222 -0.0306,0.021232 -0.06086,0.043369 -0.09074,0.066375 -0.01844,0.01419 -0.03674,0.028715 -0.0549,0.043544 0.03252,0.00608 0.06605,0.00924 0.100299,0.00924 0.300304,0 0.544655,-0.2443193 0.544655,-0.5445908 C 7.005067,6.7029148 6.760716,6.4585638 6.460445,6.4585638 Z m -0.04919,0.6908068 c -0.01685,-2.38e-5 -0.03388,0.00481 -0.04893,0.014944 -0.311902,0.2102512 -0.594346,0.5027127 -0.839011,0.8401009 -0.0022,0.003 -0.0044,0.00581 -0.0065,0.00878 -0.734828,1.0185126 -1.124268,2.4447717 -0.927061,3.2809477 0.08806,0.373558 0.290275,0.59137 0.584736,0.629819 0.0479,0.0063 0.09462,0.0094 0.139995,0.0094 0.213818,0 0.399267,-0.06946 0.552735,-0.20714 C 6.157153,11.466034 6.269146,11.015069 6.3121,10.68334 L 6.152224,10.525093 C 6.125954,10.830841 6.0385,11.337593 5.750065,11.59619 5.601687,11.729137 5.42061,11.779547 5.197138,11.750358 4.978099,11.721695 4.83108,11.554693 4.760157,11.253929 4.648622,10.781015 4.758857,10.014595 5.050025,9.259169 l -6.24e-4,-0.00108 0.0058,-0.014558 c 7.94e-4,-0.00198 0.0015,-0.00385 0.0023,-0.00584 l 8.51e-4,-0.00204 C 5.063652,9.222258 5.069022,9.208827 5.074452,9.19544 5.123722,9.0739638 5.181681,8.9548282 5.240228,8.8362484 5.320898,8.6696944 5.41114,8.5103432 5.50906,8.3541843 5.52287,8.3324253 5.53517,8.3095873 5.54927,8.2881313 5.803679,7.896979 6.10559,7.5485669 6.460234,7.3095094 c 0.04009,-0.027022 0.05072,-0.081468 0.02367,-0.1215259 -0.01686,-0.025036 -0.04443,-0.038563 -0.07253,-0.038609 z m 2.726609,0.3503412 c -0.02414,2.037e-4 -0.05155,0.0051 -0.08215,0.013919 C 8.716743,7.6117696 8.372936,7.6955355 8.03914,7.8089458 7.96727,7.8335738 7.878949,7.9615297 7.884138,8.0359656 7.907188,8.3697606 7.961418,8.7014914 8.009255,9.0714702 8.441948,8.9498514 8.847624,8.8442354 9.245807,8.7152288 9.306687,8.6955588 9.373577,8.5660972 9.368488,8.4921209 9.349178,8.2081028 9.299738,7.9262096 9.265752,7.6429132 9.253412,7.5404697 9.210312,7.4990959 9.137877,7.4997112 Z m 1.670583,0.113318 c 0.03667,0.2883017 0.06281,0.5781765 0.08042,0.8672277 0.03293,0.5419005 -0.191713,0.8519824 -0.710366,1.0249873 -0.565312,0.1886347 -1.141994,0.3435862 -1.713806,0.5127814 -0.09522,0.02811 -0.191145,0.05386 -0.304489,0.08568 0.02758,0.237197 0.05612,0.436489 0.07247,0.636681 0.01681,0.208138 0.09976,0.273634 0.312697,0.211051 0.741633,-0.217856 1.487655,-0.421499 2.231783,-0.630588 0.08767,-0.02463 0.175318,-0.04929 0.296281,-0.08324 0.0167,0.247588 0.03279,0.485304 0.04874,0.72082 l 1.188903,-1.2010239 v -6.56e-5 c 0.007,-0.00705 0.01286,-0.01475 0.0193,-0.022126 0.0064,-0.00739 0.01347,-0.01444 0.01937,-0.022126 v -6.56e-5 c 0.01061,-0.013845 0.02001,-0.028262 0.02886,-0.042967 v -6.56e-5 l 6.6e-5,-6.57e-5 v -6.57e-5 l 6.5e-5,-6.57e-5 h 6.6e-5 v -6.56e-5 -6.57e-5 l 6.5e-5,-6.56e-5 c 9.08e-4,-0.00147 0.0021,-0.00283 0.003,-0.0043 0.0014,-0.00238 0.0025,-0.00493 0.0038,-0.00738 0.01701,-0.030316 0.03055,-0.062073 0.04027,-0.094784 9.8e-5,-3.725e-4 3.35e-4,-7.377e-4 4.47e-4,-0.00108 v -6.41e-5 h 6.6e-5 v -6.53e-5 c 6.5e-5,-1.981e-4 6.5e-5,-3.843e-4 1.36e-4,-5.66e-4 4.35e-4,-0.00147 6.24e-4,-0.003 10e-4,-0.00447 0.004,-0.01419 0.0072,-0.028522 0.0099,-0.042967 9.8e-5,-5.191e-4 2.97e-4,-0.00102 3.84e-4,-0.00153 6.6e-5,-4.069e-4 1.99e-4,-7.944e-4 2.61e-4,-0.00124 v -7.02e-5 -6.57e-5 c 1.99e-4,-0.00113 5.66e-4,-0.00226 7.94e-4,-0.00339 2.98e-4,-0.00164 3.36e-4,-0.00334 5.67e-4,-0.00498 v -6.04e-5 -6.57e-5 -6.56e-5 -6.57e-5 -6.57e-5 c 0.0081,-0.051588 0.0076,-0.1041489 -0.0015,-0.1555792 -6.5e-5,-2.949e-4 -6.5e-5,-6.242e-4 -1.36e-4,-9.079e-4 -3e-5,-1.636e-4 -3.1e-5,-3.448e-4 -6.6e-5,-5.123e-4 v -6.57e-5 c -1.98e-4,-0.00113 -2.35e-4,-0.00226 -4.46e-4,-0.00339 -3.2e-5,9.85e-5 -9.8e-5,2.293e-4 -1.37e-4,3.289e-4 -10e-6,-3.29e-5 -3.2e-5,-1.319e-4 -6.5e-5,-1.976e-4 v -6.56e-5 c -0.0092,-0.049211 -0.02636,-0.097079 -0.05137,-0.1417274 -6.5e-5,-1.314e-4 -1.36e-4,-2.627e-4 -1.98e-4,-3.844e-4 l -6.6e-5,-6.56e-5 -6.5e-5,-6.57e-5 v -6.57e-5 l -6.6e-5,-6.57e-5 -6.5e-5,-6.56e-5 v -6.62e-5 l -6.7e-5,-6.56e-5 c -0.0083,-0.014728 -0.01738,-0.029111 -0.02739,-0.043029 h -6.7e-5 v -6.57e-5 l -6.7e-5,-6.57e-5 v -6.57e-5 l -6.5e-5,-6.56e-5 v -6.57e-5 c -6.6e-5,-9.84e-5 -1.37e-4,-2.292e-4 -1.98e-4,-3.288e-4 -1.99e-4,-2.955e-4 -4.35e-4,-5.508e-4 -6.24e-4,-8.512e-4 -0.01053,-0.01453 -0.02164,-0.028726 -0.03405,-0.042197 -0.0035,-0.00385 -0.0071,-0.00768 -0.01078,-0.011417 -0.0014,-0.00141 -0.0028,-0.00277 -0.0042,-0.00419 h -5.8e-5 z m -0.345147,4.0110004 c -0.797131,0.224292 -1.594243,0.448178 -2.392108,0.669324 l 0.541768,0.536254 c 0.01128,0.01116 0.02299,0.02165 0.03507,0.03143 l 6.6e-5,6.6e-5 h 6.5e-5 v 6.6e-5 h 6.6e-5 c 1.61e-4,1.36e-4 3.47e-4,2.6e-4 5.08e-4,3.84e-4 3.48e-4,2.61e-4 6.81e-4,4.97e-4 10e-4,7.95e-4 8.51e-4,6.81e-4 0.0018,0.0012 0.0027,0.0019 0.01018,0.008 0.02056,0.01564 0.03123,0.0227 6.81e-4,4.47e-4 0.0012,9.64e-4 0.0019,0.0014 h 6.6e-5 l 6.5e-5,6.6e-5 v 6.5e-5 h 6.6e-5 c 0.0028,0.0018 0.0057,0.0032 0.0085,0.0049 1.99e-4,1.37e-4 4.34e-4,2.61e-4 6.24e-4,3.85e-4 0.0087,0.0054 0.01737,0.01057 0.02629,0.01533 0.0015,7.95e-4 0.003,0.0018 0.0045,0.0026 h 6.6e-5 v 6.5e-5 h 6.5e-5 6.6e-5 v 6.6e-5 h 6.5e-5 6.6e-5 v 6.6e-5 h 6.5e-5 l 6.6e-5,6.5e-5 h 6.6e-5 c 5.66e-4,2.98e-4 0.0012,5.34e-4 0.0018,8.52e-4 0.0028,0.0014 0.0057,0.0026 0.0085,0.0039 1.36e-4,6.5e-5 2.6e-4,1.36e-4 3.85e-4,1.98e-4 0.0077,0.0037 0.01538,0.0073 0.02321,0.01058 0.0022,10e-4 0.0044,0.0021 0.0067,0.003 h 6.5e-5 l 6.6e-5,6.6e-5 6.6e-5,6.6e-5 h 6.6e-5 c 0.003,0.0012 0.006,0.0021 0.009,0.0032 0.0078,0.0029 0.01554,0.0056 0.02341,0.0081 0.003,0.0011 0.006,0.0023 0.009,0.0032 3.2e-5,9e-6 1.61e-4,6.5e-5 1.99e-4,6.5e-5 3.2e-5,1.2e-5 1.98e-4,6.6e-5 2.6e-4,6.6e-5 h 6.5e-5 l 6.6e-5,6.6e-5 h 6.6e-5 c 9.8e-5,1.7e-5 2.36e-4,3.3e-5 3.22e-4,6.5e-5 0.0023,6.81e-4 0.0046,0.0011 0.0069,0.0016 0.0091,0.0026 0.01838,0.0047 0.02764,0.0066 0.003,7.38e-4 0.006,0.0016 0.009,0.0022 h 6.6e-5 6.6e-5 6.6e-5 l 6.6e-5,6.6e-5 h 6.5e-5 c 9.9e-5,1.7e-5 2.36e-4,3.3e-5 3.23e-4,6.6e-5 0.0012,2.35e-4 0.0023,3.35e-4 0.0035,5.09e-4 0.01103,0.002 0.0221,0.0035 0.03322,0.0047 0.0022,2.97e-4 0.0044,6.81e-4 0.0065,9.07e-4 h 6.6e-5 6.5e-5 6.6e-5 6.6e-5 c 2.35e-4,3.3e-5 4.71e-4,9.9e-5 7.37e-4,1.37e-4 4.71e-4,3.4e-5 9.65e-4,2.5e-5 0.0014,6.6e-5 0.01399,0.0012 0.02804,0.002 0.04207,0.002 9.8e-5,0 1.61e-4,-10e-7 2.6e-4,0 h 3.85e-4 c 1.61e-4,-10e-7 3.35e-4,-3.2e-5 5.08e-4,-6.6e-5 h 6.6e-5 c 3.3e-5,0 9.9e-5,0 1.37e-4,0 0.0087,-3.3e-5 0.01745,-7.95e-4 0.02616,-0.0013 0.0096,-5.59e-4 0.01921,-0.0015 0.02879,-0.0027 0.0064,-7.95e-4 0.0127,-0.0015 0.01904,-0.0025 0.0011,-1.61e-4 0.0023,-3.23e-4 0.0035,-5.09e-4 0.004,-5.34e-4 0.0081,-10e-4 0.01206,-0.0018 h 6.6e-5 l 6.6e-5,-6.6e-5 h 6.5e-5 c 0.0012,-2.36e-4 0.0023,-5.66e-4 0.0035,-8.51e-4 0.0046,-0.0011 0.0091,-0.0023 0.01373,-0.0033 0.0087,-0.002 0.01745,-0.0039 0.02604,-0.0064 1.37e-4,-3.3e-5 2.6e-4,-9.9e-5 3.85e-4,-1.37e-4 h 6.6e-5 6.5e-5 l 6.6e-5,-6.5e-5 h 6.6e-5 l 6.5e-5,-6.6e-5 h 6.6e-5 6.6e-5 v -6.5e-5 h 6.5e-5 c 5.67e-4,-1.62e-4 0.0012,-3.23e-4 0.0018,-5.09e-4 0.002,-6.25e-4 0.004,-0.0012 0.006,-0.0019 0.01157,-0.0037 0.02301,-0.0078 0.03431,-0.01244 1.62e-4,-6.6e-5 3.48e-4,-1.36e-4 5.09e-4,-1.99e-4 h 6.6e-5 6.5e-5 v -6.6e-5 h 6.6e-5 l 6.6e-5,-6.5e-5 h 6.6e-5 6.5e-5 c 1.62e-4,-6.6e-5 2.98e-4,-1.37e-4 4.46e-4,-1.99e-4 0.0028,-0.0011 0.0056,-0.0024 0.0083,-0.0036 6.25e-4,-2.6e-4 0.0012,-5.58e-4 0.0019,-8.51e-4 5.09e-4,-2.36e-4 10e-4,-4.1e-4 0.0015,-6.24e-4 0.0092,-0.0041 0.01834,-0.0086 0.02732,-0.01327 5.09e-4,-2.61e-4 10e-4,-4.97e-4 0.0015,-7.95e-4 h 6.5e-5 l 6.6e-5,-6.5e-5 h 6.6e-5 c 1.37e-4,-6.6e-5 2.61e-4,-1.37e-4 3.85e-4,-1.99e-4 8.51e-4,-4.59e-4 0.0016,-0.001 0.0025,-0.0015 0.0026,-0.0014 0.005,-0.0031 0.0076,-0.0045 0.0059,-0.0033 0.01181,-0.0068 0.01764,-0.01045 0.0032,-0.002 0.0064,-0.0037 0.0096,-0.0057 2.6e-4,-1.61e-4 5.21e-4,-2.98e-4 7.94e-4,-4.46e-4 3.34e-4,-2.36e-4 6.81e-4,-4.22e-4 0.001,-6.24e-4 h 6.6e-5 l 6.6e-5,-6.6e-5 1.99e-4,-1.37e-4 c 0.0062,-0.0041 0.01205,-0.0089 0.01809,-0.0134 0.0045,-0.0033 0.0092,-0.0065 0.0136,-0.01007 0.0018,-0.0015 0.0038,-0.0027 0.0056,-0.0042 l 6.6e-5,-6.5e-5 c 0.01211,-0.01 0.02382,-0.02063 0.03507,-0.032 z"
     style="opacity:0.3;fill:#000000;fill-opacity:1;stroke-width:0.0328345" />
  <path
     id="path5-7"
     d="m 6.824783,4.4978267 c -0.0013,0 -0.0027,1.862e-4 -0.004,1.986e-4 -7.37e-4,3.4e-6 -0.0014,-1.364e-4 -0.0022,-1.239e-4 -0.0035,2.66e-5 -0.0071,6.81e-4 -0.01065,7.944e-4 -0.02768,5.66e-4 -0.05558,0.0026 -0.08363,0.0059 -5.34e-4,6.4e-5 -0.0011,6.34e-5 -0.0016,1.239e-4 -0.0061,7.377e-4 -0.01207,0.0017 -0.01808,0.0026 -0.02672,0.00373 -0.05323,0.00871 -0.07971,0.014813 -0.04213,0.00971 -0.08372,0.021645 -0.123771,0.036939 -5.67e-4,2.235e-4 -0.0011,4.216e-4 -0.0018,6.242e-4 -0.0014,5.338e-4 -0.0026,0.00124 -0.004,0.00181 -0.0272,0.010607 -0.05352,0.022579 -0.07901,0.035591 -1.85e-4,9.5e-5 -3.97e-4,1.613e-4 -5.66e-4,2.609e-4 -0.0085,0.00436 -0.01651,0.009 -0.02475,0.013596 -0.01985,0.011055 -0.03884,0.022789 -0.05714,0.035269 -2.24e-4,1.488e-4 -4.84e-4,2.976e-4 -6.81e-4,4.465e-4 -1.24e-4,8.89e-5 -2.61e-4,1.738e-4 -3.85e-4,2.61e-4 -0.0034,0.00232 -0.0067,0.00476 -0.01007,0.00705 -0.01031,0.00734 -0.02076,0.014468 -0.03047,0.022251 -0.0174,0.013964 -0.03419,0.028397 -0.04938,0.043737 L 5.801548,5.1657999 C 5.620959,5.3483265 5.325419,5.6468898 5.144731,5.8293513 L 4.703389,6.2752457 c -0.0045,0.00447 -0.0088,0.00904 -0.01315,0.013726 -0.0033,0.00356 -0.0065,0.00718 -0.0097,0.01084 -0.0024,0.00272 -0.0047,0.00538 -0.007,0.00815 -0.0081,0.00955 -0.01494,0.020666 -0.02244,0.030973 -0.0014,0.00187 -0.0028,0.00385 -0.0042,0.00571 -0.01007,0.013817 -0.02029,0.02722 -0.0295,0.042067 -0.0014,0.00215 -0.0028,0.0043 -0.0041,0.00654 -0.0054,0.00905 -0.01014,0.018741 -0.01513,0.028216 -1.37e-4,2.479e-4 -2.5e-4,5.213e-4 -3.85e-4,7.944e-4 -0.01402,0.025568 -0.02678,0.051945 -0.03829,0.079521 -3.54e-4,6.809e-4 -7.38e-4,0.00136 -0.001,0.00209 -0.0015,0.00351 -0.0028,0.00702 -0.0042,0.010517 -1.25e-4,3.102e-4 -1.95e-4,6.242e-4 -3.2e-4,9.647e-4 -0.0128,0.032167 -0.02376,0.065078 -0.03296,0.098888 -8.1e-5,3.012e-4 -1.75e-4,6.242e-4 -2.56e-4,9.079e-4 -0.0093,0.03421 -0.01659,0.068678 -0.02193,0.1035694 -2e-5,1.279e-4 -4.5e-5,2.558e-4 -6.5e-5,3.849e-4 -3.56e-4,0.00226 -8.51e-4,0.00459 -0.0011,0.00686 -2.6e-5,1.738e-4 -4e-5,3.402e-4 -6.5e-5,5.14e-4 -0.0039,0.026847 -0.0063,0.05341 -0.0077,0.080098 -3.9e-5,3.86e-4 -1.08e-4,7.944e-4 -1.28e-4,0.00113 -5.65e-4,0.011989 -0.0019,0.024078 -0.002,0.035976 -7e-6,7.945e-4 3.6e-5,0.00158 6.4e-5,0.00238 -3e-6,5.66e-4 6.6e-5,0.00113 6.4e-5,0.00175 -1e-4,0.026632 0.0019,0.052533 0.0044,0.078302 v 6.57e-5 6.56e-5 6.57e-5 6.57e-5 c 3.66e-4,0.0039 3.86e-4,0.00792 8.51e-4,0.011802 5.4e-5,4.528e-4 1.29e-4,9.079e-4 1.93e-4,0.00136 2.2e-5,1.936e-4 4.1e-5,3.849e-4 6.4e-5,5.66e-4 0.0015,0.012277 0.0027,0.024639 0.0048,0.036616 v 6.57e-5 c 2.95e-4,0.0017 5.65e-4,0.00334 9.07e-4,0.00498 4.77e-4,0.0026 9.65e-4,0.00521 0.0015,0.00782 v 6.57e-5 c 4.8e-5,2.434e-4 1.44e-4,4.63e-4 1.92e-4,6.809e-4 0.0042,0.021096 0.009,0.041835 0.01533,0.061693 l 0.391393,1.2351094 c 0.1437,-0.3094729 0.314977,-0.6073654 0.508613,-0.8757572 0.0021,-0.00289 0.0066,-0.0089 0.0065,-0.00885 C 5.572727,7.1956106 5.737693,7.0036919 5.915903,6.8357427 5.846923,6.7321485 5.80669,6.6077692 5.80669,6.4739859 c 0,-0.3610379 0.292702,-0.6537394 0.65374,-0.6537394 0.361002,0 0.653709,0.2927044 0.653739,0.6537394 0,0.3610023 -0.292697,0.6536761 -0.653739,0.6536761 -0.07018,0 -0.137805,-0.011021 -0.201175,-0.031488 C 6.03454,7.2997297 5.832318,7.5511011 5.653163,7.8265489 l -1.28e-4,2.626e-4 -1.93e-4,2.627e-4 c -0.0088,0.01341 -0.02413,0.040725 -0.03893,0.064066 L 5.61372,7.8914684 C 5.5179,8.0443193 5.430099,8.1995318 5.351813,8.3611552 l -2.55e-4,3.849e-4 -1.94e-4,4.488e-4 c -0.05833,0.1181462 -0.114906,0.2346034 -0.162056,0.3508545 -7.37e-4,0.00181 -0.0014,0.00368 -0.0022,0.00549 l 1.93e-4,3.289e-4 -0.02155,0.055924 c -0.004,0.010302 -0.0079,0.020603 -0.0118,0.030911 0.07805,0.1215305 0.164413,0.2337158 0.244847,0.3133383 l 0.645596,0.6390546 0.64925,0.6426448 C 6.671574,10.252799 6.650904,10.104847 6.630354,9.9570736 6.520588,9.1678973 6.41068,8.3781456 6.329842,7.5854879 6.314652,7.4367241 6.315792,7.3028469 6.334142,7.18256 c 0.04101,0.00729 0.0832,0.011094 0.126272,0.011094 0.396838,0 0.71973,-0.3228606 0.71973,-0.7196652 -4e-6,-0.034782 -0.0025,-0.069001 -0.0073,-0.1024797 0.751,-0.2298675 1.507698,-0.443941 2.268145,-0.6412987 L 9.093737,5.3862663 C 9.048117,5.3410913 8.992032,5.2941373 8.929693,5.2479378 8.867373,5.2017498 8.798847,5.1563608 8.728325,5.114227 8.657805,5.072092 8.585305,5.033263 8.515093,5.0002683 8.444883,4.9672693 8.37697,4.9400983 8.315585,4.9213243 L 7.017877,4.5246971 c -0.01505,-0.00459 -0.03053,-0.00854 -0.0463,-0.011926 -0.0059,-0.00124 -0.01199,-0.00209 -0.01795,-0.00323 -0.01006,-0.00187 -0.02005,-0.00379 -0.03033,-0.00521 -0.01015,-0.00136 -0.02089,-0.00113 -0.03123,-0.00204 -0.02226,-0.00198 -0.04438,-0.00447 -0.06727,-0.00447 z m 0.01718,0.1775756 c 0.04981,-0.00221 0.09845,-6.809e-4 0.151411,0.00859 0.02909,0.00424 0.04609,0.00965 0.07413,0.016738 0.02269,0.0067 0.04551,0.013403 0.06836,0.02014 0.09148,0.026694 0.183894,0.054197 0.276849,0.082535 0.186073,0.056212 0.375058,0.1132937 0.564086,0.1703934 0.09433,0.029189 0.188617,0.058382 0.282556,0.087473 0.0986,0.032507 0.190546,0.074363 0.278773,0.1206928 0.08764,0.04728 0.172162,0.098118 0.251261,0.1555787 0.01983,0.014479 0.03978,0.027729 0.05926,0.043097 0.0194,0.015628 0.03876,0.031188 0.05804,0.046686 0.02009,0.015334 0.03605,0.031596 0.05342,0.047394 l 0.02559,0.023728 0.0063,0.0059 0.0077,0.00751 0.01219,0.012379 c 0.04984,0.050076 0.09883,0.099754 0.146921,0.1487807 -0.03679,0.00976 -0.07359,0.019534 -0.110367,0.029371 -0.03594,-0.034646 -0.07213,-0.069697 -0.108572,-0.1052368 l -0.0125,-0.012124 -0.0048,-0.00453 -0.0065,-0.00577 -0.0261,-0.023213 C 8.872541,5.5363111 8.855111,5.5194271 8.837321,5.5068161 8.819651,5.4932201 8.801961,5.4796241 8.784161,5.4659661 8.766231,5.4523701 8.746381,5.4397261 8.727471,5.4264631 8.651161,5.3736281 8.569168,5.3264771 8.485768,5.281592 8.401648,5.238087 8.314403,5.199503 8.225914,5.1709043 8.131744,5.1424673 8.037247,5.1138883 7.942716,5.0853553 7.754082,5.0270083 7.565432,4.9686389 7.37972,4.9111787 7.2868,4.8826457 7.194845,4.8537887 7.104091,4.8247957 7.009261,4.7920287 6.934665,4.7744647 6.845454,4.7781727 6.673238,4.7834927 6.501836,4.8424207 6.38327,4.9440768 6.261652,5.0612959 6.14665,5.1720973 6.040497,5.2744095 5.827269,5.4800849 5.647548,5.6494923 5.521365,5.7676962 5.394559,5.8853098 5.322114,5.9525186 5.322114,5.9525186 c 0,0 0.263913,-0.294489 0.670799,-0.7252444 0.05083,-0.05388 0.103792,-0.1100005 0.158592,-0.1680845 0.02752,-0.028896 0.05548,-0.058299 0.08395,-0.088179 0.01425,-0.014909 0.02858,-0.029914 0.04303,-0.045016 0.01419,-0.015039 0.02887,-0.030339 0.04624,-0.046431 C 6.460692,4.7558105 6.645416,4.6854528 6.841996,4.675438 Z m -0.381506,1.253995 c -0.300305,0 -0.544655,0.2443509 -0.544655,0.5446547 0,0.1052923 0.03006,0.2037012 0.08202,0.2871097 0.0565,-0.049759 0.114263,-0.097101 0.173215,-0.1417274 -0.02202,-0.043737 -0.03444,-0.093151 -0.03444,-0.1454463 0,-0.1788163 0.144973,-0.3237916 0.323856,-0.3237916 0.178849,0 0.323791,0.1449753 0.323791,0.3237916 0,0.1219698 -0.06743,0.2282226 -0.167058,0.2834538 -0.01197,0.049556 -0.04188,0.094961 -0.08767,0.1258233 -0.0079,0.00532 -0.01584,0.010754 -0.02373,0.016222 -0.0306,0.021232 -0.06086,0.043369 -0.09074,0.066375 -0.01844,0.01419 -0.03674,0.028715 -0.0549,0.043544 0.03252,0.00608 0.06605,0.00924 0.100299,0.00924 0.300304,0 0.544655,-0.2443193 0.544655,-0.5445908 C 7.005067,6.1737515 6.760716,5.9294005 6.460445,5.9294005 Z m -0.04919,0.6908068 c -0.01685,-2.38e-5 -0.03388,0.00481 -0.04893,0.014944 -0.311902,0.2102512 -0.594346,0.5027127 -0.839011,0.8401009 -0.0022,0.003 -0.0044,0.00581 -0.0065,0.00878 -0.734828,1.0185126 -1.124268,2.4447718 -0.927061,3.280947 0.08806,0.373558 0.290275,0.591371 0.584736,0.62982 0.0479,0.0063 0.09462,0.0094 0.139995,0.0094 0.213818,0 0.399267,-0.06946 0.552735,-0.20714 0.289922,-0.260185 0.401915,-0.71115 0.444869,-1.04288 L 6.152224,9.9959294 C 6.125954,10.301678 6.0385,10.80843 5.750065,11.067026 5.601687,11.199973 5.42061,11.250384 5.197138,11.221194 4.978099,11.192532 4.83108,11.025529 4.760157,10.724766 4.648622,10.251852 4.758857,9.4854317 5.050025,8.7300057 l -6.24e-4,-0.00108 0.0058,-0.014558 c 7.94e-4,-0.00198 0.0015,-0.00385 0.0023,-0.00584 l 8.51e-4,-0.00204 c 0.0053,-0.013393 0.01067,-0.026824 0.0161,-0.040211 C 5.123722,8.5448005 5.181681,8.4256649 5.240228,8.3070851 5.320898,8.1405311 5.41114,7.9811799 5.50906,7.825021 5.52287,7.803262 5.53517,7.780424 5.54927,7.758968 5.803679,7.3678157 6.10559,7.0194036 6.460234,6.7803461 c 0.04009,-0.027022 0.05072,-0.081468 0.02367,-0.1215259 -0.01686,-0.025036 -0.04443,-0.038563 -0.07253,-0.038609 z m 2.726609,0.3503412 c -0.02414,2.037e-4 -0.05155,0.0051 -0.08215,0.013919 C 8.716743,7.0826063 8.372936,7.1663722 8.03914,7.2797825 7.96727,7.3044105 7.878949,7.4323664 7.884138,7.5068023 7.907188,7.8405973 7.961418,8.1723281 8.009255,8.5423069 8.441948,8.4206881 8.847624,8.3150721 9.245807,8.1860655 9.306687,8.1663955 9.373577,8.0369339 9.368488,7.9629576 9.349178,7.6789395 9.299738,7.3970463 9.265752,7.1137499 9.253412,7.0113064 9.210312,6.9699326 9.137877,6.9705479 Z m 1.670583,0.113318 c 0.03667,0.2883017 0.06281,0.5781765 0.08042,0.8672277 0.03293,0.5419005 -0.191713,0.8519824 -0.710366,1.0249873 C 9.613201,9.164713 9.036519,9.3196645 8.464707,9.48886 8.369487,9.516972 8.273562,9.542723 8.160218,9.574538 c 0.02758,0.2371963 0.05612,0.436489 0.07247,0.636681 0.01681,0.208138 0.09976,0.273633 0.312697,0.211051 0.741633,-0.217856 1.487655,-0.421499 2.231783,-0.6305885 0.08767,-0.024628 0.175318,-0.049289 0.296281,-0.083241 0.0167,0.2475882 0.03279,0.4853035 0.04874,0.7208195 l 1.188903,-1.2010232 v -6.56e-5 c 0.007,-0.00705 0.01286,-0.01475 0.0193,-0.022126 0.0064,-0.00739 0.01347,-0.01444 0.01937,-0.022126 v -6.56e-5 c 0.01061,-0.013845 0.02001,-0.028262 0.02886,-0.042967 v -6.56e-5 l 6.6e-5,-6.57e-5 v -6.57e-5 l 6.5e-5,-6.57e-5 h 6.6e-5 v -6.56e-5 -6.57e-5 l 6.5e-5,-6.56e-5 c 9.08e-4,-0.00147 0.0021,-0.00283 0.003,-0.0043 0.0014,-0.00238 0.0025,-0.00493 0.0038,-0.00738 0.01701,-0.030316 0.03055,-0.062073 0.04027,-0.094784 9.8e-5,-3.725e-4 3.35e-4,-7.377e-4 4.47e-4,-0.00108 v -6.41e-5 h 6.6e-5 v -6.53e-5 c 6.5e-5,-1.981e-4 6.5e-5,-3.843e-4 1.36e-4,-5.66e-4 4.35e-4,-0.00147 6.24e-4,-0.003 10e-4,-0.00447 0.004,-0.01419 0.0072,-0.028522 0.0099,-0.042967 9.8e-5,-5.191e-4 2.97e-4,-0.00102 3.84e-4,-0.00153 6.6e-5,-4.069e-4 1.99e-4,-7.944e-4 2.61e-4,-0.00124 v -7.02e-5 -6.57e-5 c 1.99e-4,-0.00113 5.66e-4,-0.00226 7.94e-4,-0.00339 2.98e-4,-0.00164 3.36e-4,-0.00334 5.67e-4,-0.00498 v -6.04e-5 -6.57e-5 -6.56e-5 -6.57e-5 -6.57e-5 c 0.0081,-0.051588 0.0076,-0.1041489 -0.0015,-0.1555792 -6.5e-5,-2.949e-4 -6.5e-5,-6.242e-4 -1.36e-4,-9.079e-4 -3e-5,-1.636e-4 -3.1e-5,-3.448e-4 -6.6e-5,-5.123e-4 v -6.57e-5 c -1.98e-4,-0.00113 -2.35e-4,-0.00226 -4.46e-4,-0.00339 -3.2e-5,9.85e-5 -9.8e-5,2.293e-4 -1.37e-4,3.289e-4 -10e-6,-3.29e-5 -3.2e-5,-1.319e-4 -6.5e-5,-1.976e-4 v -6.56e-5 c -0.0092,-0.049211 -0.02636,-0.097079 -0.05137,-0.1417274 -6.5e-5,-1.314e-4 -1.36e-4,-2.627e-4 -1.98e-4,-3.844e-4 l -6.6e-5,-6.56e-5 -6.5e-5,-6.57e-5 v -6.57e-5 l -6.6e-5,-6.57e-5 -6.5e-5,-6.56e-5 v -6.62e-5 l -6.7e-5,-6.56e-5 c -0.0083,-0.014728 -0.01738,-0.029111 -0.02739,-0.043029 h -6.7e-5 v -6.57e-5 l -6.7e-5,-6.57e-5 v -6.57e-5 l -6.5e-5,-6.56e-5 v -6.57e-5 c -6.6e-5,-9.84e-5 -1.37e-4,-2.292e-4 -1.98e-4,-3.288e-4 -1.99e-4,-2.955e-4 -4.35e-4,-5.508e-4 -6.24e-4,-8.512e-4 -0.01053,-0.01453 -0.02164,-0.028726 -0.03405,-0.042197 -0.0035,-0.00385 -0.0071,-0.00768 -0.01078,-0.011417 -0.0014,-0.00141 -0.0028,-0.00277 -0.0042,-0.00419 h -5.8e-5 z m -0.345147,4.0110007 c -0.797131,0.224292 -1.594243,0.448178 -2.392108,0.669324 l 0.541768,0.536253 c 0.01128,0.01116 0.02299,0.02165 0.03507,0.03143 l 6.6e-5,6.6e-5 h 6.5e-5 v 6.5e-5 h 6.6e-5 c 1.61e-4,1.37e-4 3.47e-4,2.61e-4 5.08e-4,3.85e-4 3.48e-4,2.61e-4 6.81e-4,4.97e-4 10e-4,7.95e-4 8.51e-4,6.81e-4 0.0018,0.0013 0.0027,0.0019 0.01018,0.008 0.02056,0.01564 0.03123,0.0227 6.81e-4,4.47e-4 0.0012,9.64e-4 0.0019,0.0014 h 6.6e-5 l 6.5e-5,6.5e-5 v 6.6e-5 h 6.6e-5 c 0.0028,0.0018 0.0057,0.0032 0.0085,0.0049 1.99e-4,1.37e-4 4.34e-4,2.61e-4 6.24e-4,3.85e-4 0.0087,0.0054 0.01737,0.01057 0.02629,0.01533 0.0015,7.94e-4 0.003,0.0018 0.0045,0.0026 h 6.6e-5 v 6.5e-5 h 6.5e-5 6.6e-5 v 6.6e-5 h 6.5e-5 6.6e-5 v 6.6e-5 h 6.5e-5 l 6.6e-5,6.5e-5 h 6.6e-5 c 5.66e-4,2.98e-4 0.0012,5.34e-4 0.0018,8.51e-4 0.0028,0.0014 0.0057,0.0026 0.0085,0.0039 1.36e-4,6.6e-5 2.6e-4,1.37e-4 3.85e-4,1.99e-4 0.0077,0.0037 0.01538,0.0073 0.02321,0.01058 0.0022,0.001 0.0044,0.0021 0.0067,0.003 h 6.5e-5 l 6.6e-5,6.6e-5 6.6e-5,6.6e-5 h 6.6e-5 c 0.003,0.0012 0.006,0.0021 0.009,0.0032 0.0078,0.0029 0.01554,0.0056 0.02341,0.0081 0.003,0.0011 0.006,0.0023 0.009,0.0032 3.2e-5,10e-6 1.61e-4,6.5e-5 1.99e-4,6.5e-5 3.2e-5,1.3e-5 1.98e-4,6.6e-5 2.6e-4,6.6e-5 h 6.5e-5 l 6.6e-5,6.6e-5 h 6.6e-5 c 9.8e-5,1.7e-5 2.36e-4,3.3e-5 3.22e-4,6.5e-5 0.0023,6.81e-4 0.0046,0.0011 0.0069,0.0017 0.0091,0.0025 0.01838,0.0046 0.02764,0.0066 0.003,7.38e-4 0.006,0.0016 0.009,0.0022 h 6.6e-5 6.6e-5 6.6e-5 l 6.6e-5,6.7e-5 h 6.5e-5 c 9.9e-5,1.7e-5 2.36e-4,3.3e-5 3.23e-4,6.5e-5 0.0012,2.35e-4 0.0023,3.35e-4 0.0035,5.09e-4 0.01103,0.002 0.0221,0.0035 0.03322,0.0047 0.0022,2.98e-4 0.0044,6.81e-4 0.0065,9.08e-4 h 6.6e-5 6.5e-5 6.6e-5 6.6e-5 c 2.35e-4,3.3e-5 4.71e-4,9.9e-5 7.37e-4,1.37e-4 4.71e-4,3.3e-5 9.65e-4,2.4e-5 0.0014,6.5e-5 0.01399,0.0012 0.02804,0.002 0.04207,0.002 9.8e-5,0 1.61e-4,-10e-7 2.6e-4,0 h 3.85e-4 c 1.61e-4,-10e-7 3.35e-4,-3.2e-5 5.08e-4,-6.6e-5 h 6.6e-5 c 3.3e-5,1e-6 9.9e-5,0 1.37e-4,0 0.0087,-3.3e-5 0.01745,-7.94e-4 0.02616,-0.0013 0.0096,-5.59e-4 0.01921,-0.0015 0.02879,-0.0027 0.0064,-7.94e-4 0.0127,-0.0015 0.01904,-0.0025 0.0011,-1.61e-4 0.0023,-3.23e-4 0.0035,-5.09e-4 0.004,-5.34e-4 0.0081,-0.001 0.01206,-0.0018 h 6.6e-5 l 6.6e-5,-6.6e-5 h 6.5e-5 c 0.0012,-2.35e-4 0.0023,-5.66e-4 0.0035,-8.51e-4 0.0046,-0.0011 0.0091,-0.0023 0.01373,-0.0034 0.0087,-0.002 0.01745,-0.0039 0.02604,-0.0064 1.37e-4,-3.2e-5 2.6e-4,-9.8e-5 3.85e-4,-1.36e-4 h 6.6e-5 6.5e-5 l 6.6e-5,-6.6e-5 h 6.6e-5 l 6.5e-5,-6.5e-5 h 6.6e-5 6.6e-5 v -6.6e-5 h 6.5e-5 c 5.67e-4,-1.61e-4 0.0012,-3.23e-4 0.0018,-5.09e-4 0.002,-6.24e-4 0.004,-0.0013 0.006,-0.0019 0.01157,-0.0037 0.02301,-0.0078 0.03431,-0.01244 1.62e-4,-6.6e-5 3.48e-4,-1.36e-4 5.09e-4,-1.99e-4 h 6.6e-5 6.5e-5 v -6.6e-5 h 6.6e-5 l 6.6e-5,-6.5e-5 h 6.6e-5 6.5e-5 c 1.62e-4,-6.6e-5 2.98e-4,-1.37e-4 4.46e-4,-1.99e-4 0.0028,-0.0011 0.0056,-0.0024 0.0083,-0.0036 6.25e-4,-2.6e-4 0.0012,-5.58e-4 0.0019,-8.51e-4 5.09e-4,-2.36e-4 10e-4,-4.1e-4 0.0015,-6.24e-4 0.0092,-0.0041 0.01834,-0.0086 0.02732,-0.01327 5.09e-4,-2.61e-4 10e-4,-4.97e-4 0.0015,-7.95e-4 h 6.5e-5 l 6.6e-5,-6.6e-5 h 6.6e-5 c 1.37e-4,-6.5e-5 2.61e-4,-1.36e-4 3.85e-4,-1.98e-4 8.51e-4,-4.59e-4 0.0016,-0.001 0.0025,-0.0015 0.0026,-0.0014 0.005,-0.0031 0.0076,-0.0045 0.0059,-0.0033 0.01181,-0.0068 0.01764,-0.01045 0.0032,-0.002 0.0064,-0.0037 0.0096,-0.0057 2.6e-4,-1.61e-4 5.21e-4,-2.98e-4 7.94e-4,-4.47e-4 3.34e-4,-2.35e-4 6.81e-4,-4.21e-4 0.001,-6.24e-4 h 6.6e-5 l 6.6e-5,-6.6e-5 1.99e-4,-1.37e-4 c 0.0062,-0.0041 0.01205,-0.0089 0.01809,-0.0134 0.0045,-0.0033 0.0092,-0.0065 0.0136,-0.01007 0.0018,-0.0015 0.0038,-0.0027 0.0056,-0.0042 l 6.6e-5,-6.5e-5 c 0.01211,-0.01 0.02382,-0.02063 0.03507,-0.032 z"
     style="fill:currentColor;fill-opacity:1;stroke-width:0.0328345"
     class="ColorScheme-Text" />
  <path
     id="gradient-path1"
     style="opacity:0.3;baseline-shift:baseline;display:inline;overflow:visible;vector-effect:none;enable-background:accumulate;stop-color:#000000;stop-opacity:1;fill:url(#linearGradient4)"
     d="M 8.4453131 1.2753492 C 4.4913166 1.2753492 1.2794833 4.4784283 1.2794833 8.4236094 C 1.2794833 12.36879 4.4913166 15.572386 8.4453131 15.572386 C 12.39931 15.572386 15.611143 12.36879 15.611143 8.4236094 C 15.611143 4.4784283 12.39931 1.2753492 8.4453131 1.2753492 z " />
</svg>
