<?xml version='1.0' encoding='UTF-8'?>
<svg xmlns:inkscape="http://www.inkscape.org/namespaces/inkscape" xmlns:sodipodi="http://sodipodi.sourceforge.net/DTD/sodipodi-0.dtd" xmlns="http://www.w3.org/2000/svg" xmlns:svg="http://www.w3.org/2000/svg" xmlns:rdf="http://www.w3.org/1999/02/22-rdf-syntax-ns#" xmlns:cc="http://creativecommons.org/ns#" xmlns:dc="http://purl.org/dc/elements/1.1/" width="64" height="64" version="1.1" viewBox="0 0 16.933 16.933" id="svg7" sodipodi:docname="electron34.svg" inkscape:version="1.4.2 (ebf0e940d0, 2025-05-08)">
  <sodipodi:namedview id="namedview7" pagecolor="#9c4444" bordercolor="#000000" borderopacity="0.25" inkscape:showpageshadow="2" inkscape:pageopacity="0.0" inkscape:pagecheckerboard="0" inkscape:deskcolor="#d1d1d1" inkscape:zoom="4.3531261" inkscape:cx="36.755195" inkscape:cy="26.188077" inkscape:window-width="2560" inkscape:window-height="1376" inkscape:window-x="0" inkscape:window-y="0" inkscape:window-maximized="1" inkscape:current-layer="svg7" showgrid="false"/>
  <defs id="defs2">
    <filter style="color-interpolation-filters:sRGB;" inkscape:label="Blur" id="filter3" x="-0.10843471" y="-0.10870992" width="1.2168694" height="1.2174198">
      <feGaussianBlur stdDeviation="0.5 0.5" result="blur" id="feGaussianBlur3"/>
    </filter>
    <style id="current-color-scheme" type="text/css">.ColorScheme-Text {color:#d8dee9} .ColorScheme-Highlight {color:#3b4252}</style>
    <linearGradient id="linearGradient3" inkscape:collect="always">
      <stop style="stop-color:#000000;stop-opacity:1;" offset="0" id="stop3"/>
      <stop style="stop-color:#000000;stop-opacity:0;" offset="1" id="stop4"/>
    </linearGradient>
    <linearGradient xmlns:xlink="http://www.w3.org/1999/xlink" inkscape:collect="always" xlink:href="#linearGradient3" id="linearGradient4" x1="13.512321" y1="13.490874" x2="3.3783066" y2="3.3568602" gradientUnits="userSpaceOnUse"/>
  </defs>
  <metadata id="metadata2">
    <rdf:RDF>
      <cc:Work rdf:about="">
        <dc:format>image/svg+xml</dc:format>
        <dc:type rdf:resource="http://purl.org/dc/dcmitype/StillImage"/>
      </cc:Work>
    </rdf:RDF>
  </metadata>
  <ellipse style="opacity:1;fill:none;stroke:#000000;stroke-width:0.582072;stroke-dasharray:none;stroke-opacity:1;filter:url(#filter3)" id="path1-5" cx="8.4450111" cy="8.423522" rx="6.8752708" ry="6.8578653"/>
  <ellipse style="opacity:1;fill:none;stroke-width:0.58207188;stroke-opacity:1;stroke:currentColor;stroke-dasharray:none;fill-opacity:1" id="path1" cx="8.4450111" cy="8.423522" rx="6.8752708" ry="6.8578653" class="ColorScheme-Text"/>
  <ellipse style="fill:currentColor;stroke:none;stroke-width:0.285844;stroke-dasharray:none;stroke-opacity:1" id="path1-2" cx="8.4557552" cy="8.423522" rx="6.5738997" ry="6.5692253" class="ColorScheme-Highlight"/>
<path d="m 8.466361,4.8055325 c -0.289694,0 -0.526617,0.236366 -0.526617,0.52606 0,0.289695 0.236923,0.526617 0.526617,0.526617 0.219424,0 0.408573,-0.136098 0.487176,-0.328024 0.359966,0.207202 0.692157,0.642716 0.93491,1.242103 0.266365,0.6557711 0.428016,1.4990245 0.428016,2.4181033 0,0.7493729 -0.107212,1.4484722 -0.290806,2.0364722 l 0.185538,0.05805 c 0.190815,-0.609387 0.300249,-1.3265405 0.300249,-2.0942451 0,-0.9421321 -0.164429,-1.8076053 -0.442458,-2.4922624 C 9.804289,6.0459705 9.435991,5.5565715 8.992978,5.3304825 8.991378,5.0424545 8.75439,4.8060875 8.466361,4.8055325 Z m 0,0.194703 c 0.184427,0 0.331357,0.147208 0.331357,0.331357 0,0.184149 -0.147208,0.331636 -0.331357,0.331636 -0.184426,0 -0.331079,-0.147487 -0.331079,-0.331636 0,-0.184149 0.14693,-0.331357 0.331079,-0.331357 z m -1.907318,1.508745 c -0.22109,-0.0028 -0.441902,0.02083 -0.657159,0.07027 C 5.501922,6.6756305 5.181119,6.8761665 5.001136,7.1869696 4.735051,7.6483144 4.834207,8.2490907 5.181397,8.854866 L 5.35027,8.758486 C 5.022801,8.1865964 4.951141,7.6638685 5.170009,7.284738 5.317495,7.0292064 5.583581,6.8564455 5.947713,6.7686765 c 0.363299,-0.08777 0.821588,-0.0861 1.328206,0.0061 l 0.03472,-0.192204 C 7.047052,6.5345225 6.79541,6.5098025 6.559043,6.5086925 Z m 3.865187,0.0056 -0.002,0.195815 c 0.642994,0.0083 1.118226,0.206924 1.333483,0.5796664 0.147764,0.2549758 0.163874,0.5710564 0.0586,0.9288004 -0.105269,0.3580214 -0.33358,0.753539 -0.665215,1.1451684 l 0.149153,0.1255434 c 0.344688,-0.407183 0.587443,-0.8218656 0.703543,-1.2154396 0.1161,-0.393573 0.102213,-0.7710372 -0.07694,-1.0812854 C 11.663249,6.7392815 11.106913,6.5237465 10.4242,6.5145805 Z M 9.455434,6.6201255 C 8.81855,6.7565015 8.124172,7.0242538 7.441459,7.4183831 6.612372,7.8972265 5.936326,8.4830039 5.482479,9.075725 c -0.440236,0.5743893 -0.674101,1.156834 -0.61883,1.662619 -0.191092,0.08388 -0.315525,0.273585 -0.31608,0.482176 0,0.289695 0.237199,0.526061 0.526616,0.526061 0.289417,0 0.526061,-0.236644 0.526061,-0.526061 0,-0.289417 -0.236644,-0.526894 -0.526061,-0.526894 -0.0067,0 -0.0125,0.0019 -0.01916,0.0022 C 5.017805,10.270044 5.221953,9.735928 5.637191,9.1945905 6.071873,8.6265892 6.730143,8.053866 7.539232,7.5869665 8.205558,7.2025587 8.881604,6.9423055 9.49599,6.8106515 Z m -0.989073,2.123687 c -0.26803,0 -0.487453,0.2194233 -0.487453,0.4874529 0,0.2677525 0.219423,0.4877313 0.487453,0.4877313 0.268308,0 0.487454,-0.2197012 0.487454,-0.4874531 0,-0.2680299 -0.219146,-0.4874537 -0.487454,-0.4874537 z M 5.897995,9.4962404 5.753565,9.6276169 c 0.434958,0.4780101 1.00907,0.9396321 1.684839,1.3298731 0.804923,0.464956 1.625956,0.753817 2.350886,0.859084 0.685213,0.09916 1.285711,0.03444 1.70706,-0.216923 0.09471,0.09055 0.2222,0.14693 0.362466,0.14693 0.289694,0 0.526615,-0.236644 0.526615,-0.526061 0,-0.289417 -0.236921,-0.526894 -0.526615,-0.526894 -0.289973,0 -0.526062,0.2372 -0.526062,0.526894 0,0.07916 0.01833,0.153041 0.04999,0.219979 -0.364409,0.209702 -0.916301,0.276918 -1.565684,0.182483 C 9.121849,11.522436 8.321092,11.242185 7.535334,10.788339 6.87623,10.40782 6.317672,9.9573075 5.89799,9.4962404 Z m -0.82381,1.3926446 c 0.184149,0 0.330802,0.147208 0.330802,0.331635 0,0.184427 -0.146653,0.331358 -0.330802,0.331358 -0.184149,0 -0.332191,-0.147208 -0.332191,-0.331358 0,-0.184149 0.147764,-0.331635 0.332191,-0.331635 z m 6.784631,0 c 0.184148,0 0.331913,0.147208 0.331913,0.331635 0,0.184427 -0.147765,0.331358 -0.331913,0.331358 -0.184427,0 -0.33108,-0.147208 -0.33108,-0.331358 0,-0.184149 0.146931,-0.331635 0.33108,-0.331635 z m -4.88759,0.536338 -0.183594,0.06527 c 0.179983,0.503285 0.417738,0.922412 0.701323,1.220161 0.283028,0.29775 0.617163,0.475233 0.97574,0.475233 0.519951,0 0.981572,-0.368298 1.329317,-0.946854 L 9.627084,12.138765 c -0.327469,0.544949 -0.73493,0.852419 -1.162389,0.852419 -0.294972,0 -0.57689,-0.144153 -0.834921,-0.41496 C 7.371743,12.305138 7.144543,11.909065 6.971226,11.425223 Z" fill="url(#b)" fill-rule="nonzero" id="path4" style="opacity:0.3;fill:#000000;fill-opacity:1;stroke-width:0.27775"/>
  <path d="m 8.466361,4.276323 c -0.289694,0 -0.526617,0.236366 -0.526617,0.52606 0,0.289695 0.236923,0.526617 0.526617,0.526617 0.219424,0 0.408573,-0.136098 0.487176,-0.328024 0.359966,0.207202 0.692157,0.642716 0.93491,1.242103 0.266365,0.655771 0.428016,1.499025 0.428016,2.418103 0,0.749373 -0.107212,1.448473 -0.290806,2.036472 l 0.185538,0.05805 c 0.190815,-0.609386 0.300249,-1.32654 0.300249,-2.094245 0,-0.942132 -0.164429,-1.807605 -0.442458,-2.492262 C 9.804289,5.516761 9.435991,5.027362 8.992978,4.801273 8.991378,4.513245 8.75439,4.276878 8.466361,4.276323 Z m 0,0.194703 c 0.184427,0 0.331357,0.147208 0.331357,0.331357 0,0.184149 -0.147208,0.331636 -0.331357,0.331636 -0.184426,0 -0.331079,-0.147487 -0.331079,-0.331636 0,-0.184149 0.14693,-0.331357 0.331079,-0.331357 z M 6.559043,5.979771 C 6.337953,5.976971 6.117141,6.000601 5.901884,6.050041 5.501922,6.146421 5.181119,6.346957 5.001136,6.65776 4.735051,7.119105 4.834207,7.719881 5.181397,8.325657 L 5.35027,8.229277 C 5.022801,7.657387 4.951141,7.134659 5.170009,6.755529 5.317495,6.499997 5.583581,6.327236 5.947713,6.239467 c 0.363299,-0.08777 0.821588,-0.0861 1.328206,0.0061 L 7.310639,6.053363 C 7.047052,6.005313 6.79541,5.980593 6.559043,5.979483 Z m 3.865187,0.0056 -0.002,0.195815 c 0.642994,0.0083 1.118226,0.206924 1.333483,0.579666 0.147764,0.254976 0.163874,0.571057 0.0586,0.928801 -0.105269,0.358021 -0.33358,0.753539 -0.665215,1.145168 l 0.149153,0.125544 C 11.642939,8.553182 11.885694,8.138499 12.001794,7.744925 12.117894,7.351352 12.104007,6.973888 11.924854,6.66364 11.663249,6.210072 11.106913,5.994537 10.4242,5.985371 Z M 9.455434,6.090916 C 8.81855,6.227292 8.124172,6.495044 7.441459,6.889174 6.612372,7.368017 5.936326,7.953794 5.482479,8.546516 5.042243,9.120905 4.808378,9.70335 4.863649,10.209135 c -0.191092,0.08388 -0.315525,0.273585 -0.31608,0.482176 0,0.289694 0.237199,0.52606 0.526616,0.52606 0.289417,0 0.526061,-0.236643 0.526061,-0.52606 0,-0.289417 -0.236644,-0.526894 -0.526061,-0.526894 -0.0067,0 -0.0125,0.0019 -0.01916,0.0022 C 5.017805,9.740824 5.221953,9.206709 5.637191,8.665371 6.071873,8.09737 6.730143,7.524646 7.539232,7.057747 8.205558,6.673339 8.881604,6.413086 9.49599,6.281432 Z M 8.466361,8.214603 c -0.26803,0 -0.487453,0.219423 -0.487453,0.487453 0,0.267752 0.219423,0.487731 0.487453,0.487731 0.268308,0 0.487454,-0.219701 0.487454,-0.487453 0,-0.26803 -0.219146,-0.487454 -0.487454,-0.487454 z M 5.897995,8.967031 5.753565,9.098407 c 0.434958,0.478011 1.00907,0.939633 1.684839,1.329873 0.804923,0.464956 1.625956,0.753817 2.350886,0.859085 0.685213,0.09916 1.285711,0.03444 1.70706,-0.216924 0.09471,0.09055 0.2222,0.146931 0.362466,0.146931 0.289694,0 0.526615,-0.236644 0.526615,-0.526061 0,-0.289417 -0.236921,-0.526894 -0.526615,-0.526894 -0.289973,0 -0.526062,0.237199 -0.526062,0.526894 0,0.07916 0.01833,0.153041 0.04999,0.219979 -0.364409,0.209702 -0.916301,0.276918 -1.565684,0.182483 C 9.121849,10.993227 8.321092,10.712975 7.535334,10.25913 6.87623,9.878611 6.317672,9.428098 5.89799,8.967031 Z m -0.82381,1.392645 c 0.184149,0 0.330802,0.147208 0.330802,0.331635 0,0.184427 -0.146653,0.331357 -0.330802,0.331357 -0.184149,0 -0.332191,-0.147208 -0.332191,-0.331357 0,-0.184149 0.147764,-0.331635 0.332191,-0.331635 z m 6.784631,0 c 0.184148,0 0.331913,0.147208 0.331913,0.331635 0,0.184427 -0.147765,0.331357 -0.331913,0.331357 -0.184427,0 -0.33108,-0.147208 -0.33108,-0.331357 0,-0.184149 0.146931,-0.331635 0.33108,-0.331635 z m -4.88759,0.536338 -0.183594,0.06527 c 0.179983,0.503285 0.417738,0.922412 0.701323,1.220161 0.283028,0.297749 0.617163,0.475232 0.97574,0.475232 0.519951,0 0.981572,-0.368298 1.329317,-0.946854 L 9.627084,11.609555 c -0.327469,0.544948 -0.73493,0.852419 -1.162389,0.852419 -0.294972,0 -0.57689,-0.144153 -0.834921,-0.41496 -0.258031,-0.271086 -0.485231,-0.667159 -0.658548,-1.151 z" fill="url(#b)" fill-rule="nonzero" id="path4-2" style="fill:currentColor;fill-opacity:1;stroke-width:0.27775" class="ColorScheme-Text"/>
<path id="gradient-path1" style="opacity:0.3;baseline-shift:baseline;display:inline;overflow:visible;vector-effect:none;enable-background:accumulate;stop-color:#000000;stop-opacity:1;fill:url(#linearGradient4)" d="M 8.4453131 1.2753492 C 4.4913166 1.2753492 1.2794833 4.4784283 1.2794833 8.4236094 C 1.2794833 12.36879 4.4913166 15.572386 8.4453131 15.572386 C 12.39931 15.572386 15.611143 12.36879 15.611143 8.4236094 C 15.611143 4.4784283 12.39931 1.2753492 8.4453131 1.2753492 z "/>
</svg>
