<?xml version="1.0" encoding="UTF-8" standalone="no"?>
<svg
   width="64"
   height="64"
   version="1.1"
   viewBox="0 0 16.933 16.933"
   id="svg7"
   sodipodi:docname="elisa.svg"
   inkscape:version="1.4.2 (ebf0e940d0, 2025-05-08)"
   xmlns:inkscape="http://www.inkscape.org/namespaces/inkscape"
   xmlns:sodipodi="http://sodipodi.sourceforge.net/DTD/sodipodi-0.dtd"
   xmlns:xlink="http://www.w3.org/1999/xlink"
   xmlns="http://www.w3.org/2000/svg"
   xmlns:svg="http://www.w3.org/2000/svg"
   xmlns:rdf="http://www.w3.org/1999/02/22-rdf-syntax-ns#"
   xmlns:cc="http://creativecommons.org/ns#"
   xmlns:dc="http://purl.org/dc/elements/1.1/">
  <sodipodi:namedview
     id="namedview7"
     pagecolor="#9c4444"
     bordercolor="#000000"
     borderopacity="0.25"
     inkscape:showpageshadow="2"
     inkscape:pageopacity="0.0"
     inkscape:pagecheckerboard="0"
     inkscape:deskcolor="#d1d1d1"
     inkscape:zoom="8.7062522"
     inkscape:cx="71.500341"
     inkscape:cy="15.276378"
     inkscape:window-width="2560"
     inkscape:window-height="1392"
     inkscape:window-x="0"
     inkscape:window-y="0"
     inkscape:window-maximized="1"
     inkscape:current-layer="svg7"
     showgrid="false" />
  <defs
     id="defs2">
    <filter
       style="color-interpolation-filters:sRGB;"
       inkscape:label="Blur"
       id="filter3"
       x="-0.10843471"
       y="-0.10870992"
       width="1.2168694"
       height="1.2174198">
      <feGaussianBlur
         stdDeviation="0.5 0.5"
         result="blur"
         id="feGaussianBlur3" />
    </filter>
    <style
       id="current-color-scheme"
       type="text/css">.ColorScheme-Text {color:#d8dee9} .ColorScheme-Highlight {color:#3b4252}</style>
    <linearGradient
       id="linearGradient3"
       inkscape:collect="always">
      <stop
         style="stop-color:#000000;stop-opacity:1;"
         offset="0"
         id="stop3" />
      <stop
         style="stop-color:#000000;stop-opacity:0;"
         offset="1"
         id="stop4" />
    </linearGradient>
    <linearGradient
       inkscape:collect="always"
       xlink:href="#linearGradient3"
       id="linearGradient4"
       x1="13.512321"
       y1="13.490874"
       x2="3.3783066"
       y2="3.3568602"
       gradientUnits="userSpaceOnUse" />
  </defs>
  <metadata
     id="metadata2">
    <rdf:RDF>
      <cc:Work
         rdf:about="">
        <dc:format>image/svg+xml</dc:format>
        <dc:type
           rdf:resource="http://purl.org/dc/dcmitype/StillImage" />
      </cc:Work>
    </rdf:RDF>
  </metadata>
  <ellipse
     style="opacity:1;fill:none;stroke:#000000;stroke-width:0.582072;stroke-dasharray:none;stroke-opacity:1;filter:url(#filter3)"
     id="path1-5"
     cx="8.4450111"
     cy="8.423522"
     rx="6.8752708"
     ry="6.8578653" />
  <ellipse
     style="opacity:1;fill:none;stroke-width:0.58207188;stroke-opacity:1;stroke:currentColor;stroke-dasharray:none;fill-opacity:1"
     id="path1"
     cx="8.4450111"
     cy="8.423522"
     rx="6.8752708"
     ry="6.8578653"
     class="ColorScheme-Text" />
  <ellipse
     style="fill:currentColor;stroke:none;stroke-width:0.285844;stroke-dasharray:none;stroke-opacity:1"
     id="path1-2"
     cx="8.4557552"
     cy="8.423522"
     rx="6.5738997"
     ry="6.5692253"
     class="ColorScheme-Highlight" />
  <path
     id="path5"
     style="opacity:0.3;fill:#000000;fill-opacity:1;stroke-width:0.198431;paint-order:markers fill stroke"
     d="m 5.093144,5.8196604 c -0.357056,0 -0.595299,0.238621 -0.595299,0.5953 V 11.57423 c 0,0.356679 0.239791,0.5953 0.595299,0.5953 h 0.0027 l 0.791022,-1.383996 h 5.159268 l 0.791021,1.383996 h 0.0027 c 0.215952,0 0.5953,-0.238085 0.5953,-0.5953 V 6.4149604 c 0,-0.357215 -0.239038,-0.5953 -0.5953,-0.5953 z m 0.39648,0.599951 h 5.953002 c 0.199339,0 0.396868,0.198691 0.396868,0.396867 v 3.3733676 c 0,0.199309 -0.198354,0.396868 -0.396868,0.396868 H 5.489624 c -0.198408,0 -0.396867,-0.198541 -0.396867,-0.396868 V 6.8164784 c 0,-0.199196 0.198188,-0.396867 0.396867,-0.396867 z m 4.762789,1.5839794 -3.571801,0.00117 c -0.436836,0 -0.793734,0.357243 -0.793734,0.7929586 0,0.4367608 0.356215,0.7937338 0.793734,0.7937338 h 3.571801 c 0.435577,0 0.793735,-0.3565906 0.793735,-0.792571 v -0.00155 c 0,-0.4359734 -0.358135,-0.7938103 -0.793735,-0.7937337 z M 6.680612,8.2024119 c 0.328778,0 0.5953,0.2665211 0.5953,0.5953002 0,0.011128 -5.55e-4,0.021967 -0.0012,0.032943 -8.49e-4,0.014523 -0.0024,0.028795 -0.0043,0.04302 -6.23e-4,0.00475 -0.0012,0.00963 -0.0019,0.014341 -0.0028,0.017899 -0.0061,0.035764 -0.01046,0.053097 -3.1e-5,1.216e-4 3.1e-5,2.58e-4 0,3.969e-4 -0.0041,0.016234 -0.009,0.031997 -0.01434,0.047671 -7.36e-4,0.00216 -0.0012,0.00444 -0.0019,0.00658 -2.78e-4,7.698e-4 -4.96e-4,0.00157 -7.36e-4,0.00233 -0.0061,0.016936 -0.01299,0.033424 -0.02054,0.049608 -0.0079,0.016922 -0.01657,0.033599 -0.02596,0.049608 -0.103388,0.1761057 -0.294925,0.2941622 -0.513912,0.2941622 -0.307694,0 -0.560994,-0.2334663 -0.5922,-0.5329023 -2.6e-5,-2.58e-4 2.7e-5,-5.16e-4 0,-7.698e-4 -0.002,-0.019734 -0.0031,-0.039816 -0.0031,-0.060073 0,-4.962e-4 -1e-6,-0.00105 0,-0.00155 0,-0.00221 -3.5e-5,-0.00437 0,-0.00659 0.0044,-0.3250012 0.269258,-0.5871613 0.5953,-0.5871613 z m 3.571801,0 c 0.328779,0 0.595301,0.2665211 0.595301,0.5953002 0,0.023834 -0.0023,0.047048 -0.005,0.07015 -0.03549,0.294861 -0.285823,0.5236009 -0.590262,0.5236009 -0.307744,0 -0.56106,-0.2333981 -0.5922,-0.5329024 -2.5e-5,-2.579e-4 2.5e-5,-5.159e-4 0,-7.698e-4 -0.002,-0.019738 -0.0031,-0.039811 -0.0031,-0.060073 0,-5.358e-4 -10e-7,-0.00101 0,-0.00155 9.06e-4,-0.3280347 0.267062,-0.5937499 0.595301,-0.5937499 z M 7.474345,8.402008 H 9.45868 V 9.1957416 H 7.474345 Z m 0.08255,0.082164 V 9.1143533 H 8.211881 C 8.246121,9.012488 8.264611,8.9060947 8.264981,8.7992627 8.264623,8.6928624 8.246121,8.5860304 8.211881,8.484172 Z M 5.962839,10.882038 5.19236,12.171856 h 6.54869 l -0.770868,-1.289818 z m 0.717771,0.100767 c 0.219183,2e-6 0.396865,0.177684 0.396866,0.396867 -1e-6,0.219183 -0.177683,0.396865 -0.396866,0.396867 -0.219183,-2e-6 -0.396865,-0.177684 -0.396867,-0.396867 2e-6,-0.219183 0.177684,-0.396865 0.396867,-0.396867 z m 3.571801,0 c 0.219183,2e-6 0.396866,0.177684 0.396868,0.396867 -2e-6,0.219183 -0.177685,0.396866 -0.396868,0.396867 -0.219183,-2e-6 -0.396865,-0.177684 -0.396867,-0.396867 2e-6,-0.219183 0.177684,-0.396865 0.396867,-0.396867 z"
     sodipodi:nodetypes="ssssccccssssssssssssssccssssscccscccsccccccsccscccccscsscsccccccccccccccccccccccccccccc" />
  <path
     id="path5-7"
     style="fill:currentColor;stroke-width:0.198431;paint-order:markers fill stroke"
     d="m 5.093144,5.2904023 c -0.357056,0 -0.595299,0.238621 -0.595299,0.5953 v 5.1592697 c 0,0.356679 0.239791,0.5953 0.595299,0.5953 h 0.0027 l 0.791022,-1.383996 h 5.159268 l 0.791021,1.383996 h 0.0027 c 0.215952,0 0.5953,-0.238085 0.5953,-0.5953 V 5.8857023 c 0,-0.357215 -0.239038,-0.5953 -0.5953,-0.5953 z m 0.39648,0.599951 h 5.953002 c 0.199339,0 0.396868,0.198691 0.396868,0.396867 v 3.373368 c 0,0.1993089 -0.198354,0.3968677 -0.396868,0.3968677 H 5.489624 c -0.198408,0 -0.396867,-0.1985414 -0.396867,-0.3968677 v -3.373368 c 0,-0.199196 0.198188,-0.396867 0.396867,-0.396867 z m 4.762789,1.5839794 -3.571801,0.00117 c -0.436836,0 -0.793734,0.357243 -0.793734,0.7929586 0,0.4367608 0.356215,0.7937338 0.793734,0.7937338 h 3.571801 c 0.435577,0 0.793735,-0.3565906 0.793735,-0.792571 v -0.00155 c 0,-0.4359734 -0.358135,-0.7938103 -0.793735,-0.7937337 z M 6.680612,7.6731538 c 0.328778,0 0.5953,0.2665211 0.5953,0.5953002 0,0.011128 -5.55e-4,0.021967 -0.0012,0.032943 -8.49e-4,0.014523 -0.0024,0.028795 -0.0043,0.04302 -6.23e-4,0.00475 -0.0012,0.00963 -0.0019,0.014341 -0.0028,0.017899 -0.0061,0.035764 -0.01046,0.053097 -3.1e-5,1.216e-4 3.1e-5,2.58e-4 0,3.969e-4 -0.0041,0.016234 -0.009,0.031997 -0.01434,0.047671 -7.36e-4,0.00216 -0.0012,0.00444 -0.0019,0.00658 -2.78e-4,7.698e-4 -4.96e-4,0.00157 -7.36e-4,0.00233 -0.0061,0.016936 -0.01299,0.033424 -0.02054,0.049608 -0.0079,0.016922 -0.01657,0.033599 -0.02596,0.049608 -0.103388,0.1761057 -0.294925,0.2941622 -0.513912,0.2941622 -0.307694,0 -0.560994,-0.2334663 -0.5922,-0.5329023 -2.6e-5,-2.58e-4 2.7e-5,-5.16e-4 0,-7.698e-4 -0.002,-0.019734 -0.0031,-0.039816 -0.0031,-0.060073 0,-4.962e-4 -1e-6,-0.00105 0,-0.00155 0,-0.00221 -3.5e-5,-0.00437 0,-0.00659 0.0044,-0.3250012 0.269258,-0.5871613 0.5953,-0.5871613 z m 3.571801,0 c 0.328779,0 0.595301,0.2665211 0.595301,0.5953002 0,0.023834 -0.0023,0.047048 -0.005,0.07015 -0.03549,0.294861 -0.285823,0.5236009 -0.590262,0.5236009 -0.307744,0 -0.56106,-0.2333981 -0.5922,-0.5329024 -2.5e-5,-2.579e-4 2.5e-5,-5.159e-4 0,-7.698e-4 -0.002,-0.019738 -0.0031,-0.039811 -0.0031,-0.060073 0,-5.358e-4 -10e-7,-0.00101 0,-0.00155 C 9.658058,7.938875 9.924214,7.6731598 10.252453,7.6731598 Z M 7.474345,7.8727499 H 9.45868 V 8.6664835 H 7.474345 Z m 0.08255,0.082164 V 8.5850952 H 8.211881 C 8.246121,8.4832299 8.264611,8.3768366 8.264981,8.2700046 8.264623,8.1636043 8.246121,8.0567723 8.211881,7.9549139 Z M 5.962839,10.35278 5.19236,11.642598 h 6.54869 L 10.970182,10.35278 Z m 0.717771,0.100767 c 0.219183,2e-6 0.396865,0.177684 0.396866,0.396867 -1e-6,0.219183 -0.177683,0.396865 -0.396866,0.396867 -0.219183,-2e-6 -0.396865,-0.177684 -0.396867,-0.396867 2e-6,-0.219183 0.177684,-0.396865 0.396867,-0.396867 z m 3.571801,0 c 0.219183,2e-6 0.396866,0.177684 0.396868,0.396867 -2e-6,0.219183 -0.177685,0.396866 -0.396868,0.396867 -0.219183,-2e-6 -0.396865,-0.177684 -0.396867,-0.396867 2e-6,-0.219183 0.177684,-0.396865 0.396867,-0.396867 z"
     class="ColorScheme-Text"
     sodipodi:nodetypes="ssssccccssssssssssssssccssssscccscccsccccccsccscccccscsscsccccccccccccccccccccccccccccc" />
  <path
     id="gradient-path1"
     style="opacity:0.3;baseline-shift:baseline;display:inline;overflow:visible;vector-effect:none;enable-background:accumulate;stop-color:#000000;stop-opacity:1;fill:url(#linearGradient4)"
     d="M 8.4453131 1.2753492 C 4.4913166 1.2753492 1.2794833 4.4784283 1.2794833 8.4236094 C 1.2794833 12.36879 4.4913166 15.572386 8.4453131 15.572386 C 12.39931 15.572386 15.611143 12.36879 15.611143 8.4236094 C 15.611143 4.4784283 12.39931 1.2753492 8.4453131 1.2753492 z " />
</svg>
