<?xml version='1.0' encoding='UTF-8'?>
<svg xmlns:inkscape="http://www.inkscape.org/namespaces/inkscape" xmlns:sodipodi="http://sodipodi.sourceforge.net/DTD/sodipodi-0.dtd" xmlns="http://www.w3.org/2000/svg" xmlns:svg="http://www.w3.org/2000/svg" xmlns:rdf="http://www.w3.org/1999/02/22-rdf-syntax-ns#" xmlns:cc="http://creativecommons.org/ns#" xmlns:dc="http://purl.org/dc/elements/1.1/" width="64" height="64" version="1.1" viewBox="0 0 16.933 16.933" id="svg7" sodipodi:docname="endeavouros-icon.svg" inkscape:version="1.4.2 (ebf0e940d0, 2025-05-08)">
  <sodipodi:namedview id="namedview7" pagecolor="#a9abb3" bordercolor="#000000" borderopacity="0.25" inkscape:showpageshadow="2" inkscape:pageopacity="0.0" inkscape:pagecheckerboard="0" inkscape:deskcolor="#d1d1d1" inkscape:zoom="4.3531261" inkscape:cx="36.066035" inkscape:cy="26.647517" inkscape:window-width="2560" inkscape:window-height="1376" inkscape:window-x="0" inkscape:window-y="0" inkscape:window-maximized="1" inkscape:current-layer="svg7" showgrid="false"/>
  <defs id="defs2">
    <filter style="color-interpolation-filters:sRGB;" inkscape:label="Blur" id="filter3" x="-0.10843471" y="-0.10870992" width="1.2168694" height="1.2174198">
      <feGaussianBlur stdDeviation="0.5 0.5" result="blur" id="feGaussianBlur3"/>
    </filter>
    <inkscape:path-effect effect="offset" id="path-effect3" is_visible="true" lpeversion="1.3" linejoin_type="miter" unit="mm" offset="-0.2" miter_limit="4" attempt_force_join="false" update_on_knot_move="true"/>
    <inkscape:path-effect effect="offset" id="path-effect1" is_visible="true" lpeversion="1.3" linejoin_type="miter" unit="mm" offset="-0.35" miter_limit="4" attempt_force_join="false" update_on_knot_move="true"/>
    <inkscape:path-effect effect="offset" id="path-effect2" is_visible="true" lpeversion="1.3" linejoin_type="miter" unit="mm" offset="-0.3" miter_limit="4" attempt_force_join="false" update_on_knot_move="true"/>
    <inkscape:path-effect effect="offset" id="path-effect3-3" is_visible="true" lpeversion="1.3" linejoin_type="miter" unit="mm" offset="-0.2" miter_limit="4" attempt_force_join="false" update_on_knot_move="true"/>
    <inkscape:path-effect effect="offset" id="path-effect1-6" is_visible="true" lpeversion="1.3" linejoin_type="miter" unit="mm" offset="-0.35" miter_limit="4" attempt_force_join="false" update_on_knot_move="true"/>
    <inkscape:path-effect effect="offset" id="path-effect2-7" is_visible="true" lpeversion="1.3" linejoin_type="miter" unit="mm" offset="-0.3" miter_limit="4" attempt_force_join="false" update_on_knot_move="true"/>
    <style id="current-color-scheme" type="text/css">.ColorScheme-Text {color:#d8dee9} .ColorScheme-Highlight {color:#3b4252}</style>
  <linearGradient id="linearGradient3" inkscape:collect="always">
      <stop style="stop-color:#000000;stop-opacity:1;" offset="0" id="stop3"/>
      <stop style="stop-color:#000000;stop-opacity:0;" offset="1" id="stop4"/>
    </linearGradient>
    <linearGradient xmlns:xlink="http://www.w3.org/1999/xlink" inkscape:collect="always" xlink:href="#linearGradient3" id="linearGradient4" x1="13.512321" y1="13.490874" x2="3.3783066" y2="3.3568602" gradientUnits="userSpaceOnUse"/>
  </defs>
  <metadata id="metadata2">
    <rdf:RDF>
      <cc:Work rdf:about="">
        <dc:format>image/svg+xml</dc:format>
        <dc:type rdf:resource="http://purl.org/dc/dcmitype/StillImage"/>
      </cc:Work>
    </rdf:RDF>
  </metadata>
  <ellipse style="opacity:1;fill:none;stroke:#000000;stroke-width:0.582072;stroke-dasharray:none;stroke-opacity:1;filter:url(#filter3)" id="path1-5" cx="8.4450111" cy="8.423522" rx="6.8752708" ry="6.8578653"/>
  <ellipse style="opacity:1;fill:none;stroke-width:0.58207188;stroke-opacity:1;stroke:currentColor;stroke-dasharray:none;fill-opacity:1" id="path1" cx="8.4450111" cy="8.423522" rx="6.8752708" ry="6.8578653" class="ColorScheme-Text"/>
  <ellipse style="fill:currentColor;stroke:none;stroke-width:0.285844;stroke-dasharray:none;stroke-opacity:1" id="path1-2" cx="8.4557552" cy="8.423522" rx="6.5738997" ry="6.5692253" class="ColorScheme-Highlight"/>
<path id="path3195" style="opacity:0.3;fill:#000000;fill-opacity:1;stroke-width:0.585391" d="M -125.80376 -41.067891 L -125.80376 -41.065225 C -125.81189 -41.056373 -125.82257 -41.04779 -125.83309 -41.035895 C -125.84478 -41.022677 -125.85622 -41.00718 -125.87042 -40.990566 C -125.8838 -40.974917 -125.90043 -40.955654 -125.91575 -40.937238 C -125.84039 -40.993752 -125.8064 -41.046746 -125.8011 -41.062559 L -125.8011 -41.065225 L -125.8011 -41.067891 L -125.80376 -41.067891 z M -126.737 -39.846679 C -128.53196 -37.322524 -132.12952 -31.724967 -135.82143 -25.85607 C -138.83577 -21.06429 -141.94035 -16.0526 -144.29259 -12.241423 C -145.79408 -9.8086628 -146.33645 -8.9299005 -146.94833 -7.9325177 C -146.72934 -7.9110998 -146.47729 -7.8868513 -146.1804 -7.8578584 C -144.19077 -7.6635556 -141.45467 -7.404488 -138.46384 -7.151262 C -132.48217 -6.6448099 -125.44632 -6.1623736 -121.51885 -6.228687 C -117.1698 -6.3021191 -114.98883 -7.4406295 -113.90894 -8.9617487 C -112.82906 -10.482868 -112.64616 -12.795301 -113.30367 -15.721077 C -114.09268 -19.232008 -116.06428 -23.421599 -118.3645 -27.394584 C -121.22845 -32.341242 -124.58081 -36.964643 -126.737 -39.846679 z M -116.90065 -29.802344 C -113.75091 -24.540162 -110.93792 -18.723939 -110.46662 -13.97725 C -110.2117 -11.409815 -110.61722 -9.0151648 -112.12779 -7.1619276 C -112.96517 -6.1345909 -114.09431 -5.329246 -115.54611 -4.7541669 L -115.57278 -4.7435013 C -116.8962 -4.1520538 -118.85564 -3.8919093 -121.03357 -3.7862631 C -129.86438 -3.3579006 -145.9298 -5.5481837 -148.93746 -5.6660763 L -148.94013 -5.6660763 C -150.24695 -3.5182686 -150.61073 -2.9218375 -151.35589 -1.6904713 C -150.94829 -1.6788383 -150.40979 -1.6641877 -149.52407 -1.6424761 C -147.26075 -1.5869956 -144.06581 -1.5356215 -140.35432 -1.5544849 C -132.93134 -1.5922116 -123.43017 -1.9106672 -115.16749 -3.0183394 C -112.8911 -3.3235065 -111.17161 -3.8865367 -109.92534 -4.6075148 C -108.67907 -5.3284928 -107.89986 -6.1914516 -107.41626 -7.1992572 C -106.44906 -9.2148685 -106.69864 -12.005648 -107.90154 -15.227793 C -109.34503 -19.094366 -112.10553 -23.46881 -115.16215 -27.549235 C -115.73353 -28.311992 -116.31577 -29.064133 -116.90065 -29.802344 z M -136.68268 -29.362388 C -140.92225 -24.35055 -145.09756 -19.264189 -149.30009 -14.190562 C -150.81564 -12.354847 -152.32396 -10.511107 -153.83564 -8.6631117 C -152.61672 -8.4173133 -151.37348 -8.2114464 -150.11601 -8.0178425 C -149.16496 -9.2496302 -148.3202 -10.743036 -147.29496 -12.27342 C -143.72973 -17.899808 -140.22941 -23.64296 -136.68268 -29.362388 z M -148.52684 -6.3433423 L -148.68149 -6.0927005 C -148.75197 -5.9768549 -148.82114 -5.8646534 -148.8868 -5.7567339 C -148.7222 -5.8447746 -148.56344 -6.0148383 -148.52684 -6.3433423 z M -149.21744 -5.6714091 C -149.23595 -5.6712139 -149.25404 -5.669195 -149.2681 -5.6687427 C -149.28075 -5.6683356 -149.29168 -5.6692221 -149.30009 -5.6687427 C -149.27752 -5.6665341 -149.22586 -5.6620055 -149.15344 -5.6714091 C -149.17687 -5.6715784 -149.19821 -5.6716117 -149.21744 -5.6714091 z " transform="matrix(0.19380206,0,0,0.19380206,33.724461,12.596394)"/>
  <path id="path3195-6" style="opacity:1;fill:currentColor;fill-opacity:1;stroke-width:0.585391" class="ColorScheme-Text" d="M -125.80376 -41.067893 L -125.80376 -41.065226 C -125.81189 -41.056374 -125.82257 -41.047792 -125.83309 -41.035896 C -125.84478 -41.022678 -125.85622 -41.007181 -125.87042 -40.990567 C -125.8838 -40.974918 -125.90043 -40.955655 -125.91575 -40.937239 C -125.84039 -40.993753 -125.8064 -41.046747 -125.8011 -41.06256 L -125.8011 -41.065226 L -125.8011 -41.067893 L -125.80376 -41.067893 z M -126.737 -39.846681 C -128.53196 -37.322526 -132.12952 -31.724968 -135.82143 -25.856071 C -138.83577 -21.064292 -141.94035 -16.052601 -144.29259 -12.241424 C -145.79408 -9.808664 -146.33645 -8.9299017 -146.94833 -7.932519 C -146.72934 -7.9111011 -146.47729 -7.8868526 -146.1804 -7.8578597 C -144.19077 -7.6635569 -141.45467 -7.4044893 -138.46384 -7.1512633 C -132.48217 -6.6448112 -125.44632 -6.1623748 -121.51885 -6.2286883 C -117.1698 -6.3021204 -114.98883 -7.4406308 -113.90894 -8.96175 C -112.82906 -10.482869 -112.64616 -12.795302 -113.30367 -15.721078 C -114.09268 -19.232009 -116.06428 -23.421601 -118.3645 -27.394585 C -121.22845 -32.341244 -124.58081 -36.964644 -126.737 -39.846681 z M -116.90065 -29.802346 C -113.75091 -24.540163 -110.93792 -18.72394 -110.46662 -13.977252 C -110.2117 -11.409816 -110.61722 -9.0151661 -112.12779 -7.1619289 C -112.96517 -6.1345922 -114.09431 -5.3292473 -115.54611 -4.7541682 L -115.57278 -4.7435026 C -116.8962 -4.1520551 -118.85564 -3.8919106 -121.03357 -3.7862644 C -129.86438 -3.3579019 -145.9298 -5.548185 -148.93746 -5.6660775 L -148.94013 -5.6660775 C -150.24695 -3.5182699 -150.61073 -2.9218388 -151.35589 -1.6904726 C -150.94829 -1.6788396 -150.40979 -1.664189 -149.52407 -1.6424774 C -147.26075 -1.5869969 -144.06581 -1.5356228 -140.35432 -1.5544862 C -132.93134 -1.5922129 -123.43017 -1.9106685 -115.16749 -3.0183407 C -112.8911 -3.3235078 -111.17161 -3.886538 -109.92534 -4.6075161 C -108.67907 -5.3284941 -107.89986 -6.1914528 -107.41626 -7.1992585 C -106.44906 -9.2148698 -106.69864 -12.005649 -107.90154 -15.227794 C -109.34503 -19.094367 -112.10553 -23.468811 -115.16215 -27.549236 C -115.73353 -28.311993 -116.31577 -29.064134 -116.90065 -29.802346 z M -136.68268 -29.362389 C -140.92225 -24.350551 -145.09756 -19.26419 -149.30009 -14.190564 C -150.81564 -12.354848 -152.32396 -10.511108 -153.83564 -8.663113 C -152.61672 -8.4173146 -151.37348 -8.2114477 -150.11601 -8.0178438 C -149.16496 -9.2496314 -148.3202 -10.743038 -147.29496 -12.273421 C -143.72973 -17.899809 -140.22941 -23.642961 -136.68268 -29.362389 z M -148.52684 -6.3433436 L -148.68149 -6.0927018 C -148.75197 -5.9768562 -148.82114 -5.8646547 -148.8868 -5.7567352 C -148.7222 -5.8447759 -148.56344 -6.0148396 -148.52684 -6.3433436 z M -149.21744 -5.6714103 C -149.23595 -5.6712152 -149.25404 -5.6691963 -149.2681 -5.6687439 C -149.28075 -5.6683368 -149.29168 -5.6692234 -149.30009 -5.6687439 C -149.27752 -5.6665354 -149.22586 -5.6620068 -149.15344 -5.6714103 C -149.17687 -5.6715797 -149.19821 -5.671613 -149.21744 -5.6714103 z " transform="matrix(0.19380206,0,0,0.19380206,33.724461,12.067238)"/>
<path id="gradient-path1" style="opacity:0.3;baseline-shift:baseline;display:inline;overflow:visible;vector-effect:none;enable-background:accumulate;stop-color:#000000;stop-opacity:1;fill:url(#linearGradient4)" d="M 8.4453131 1.2753492 C 4.4913166 1.2753492 1.2794833 4.4784283 1.2794833 8.4236094 C 1.2794833 12.36879 4.4913166 15.572386 8.4453131 15.572386 C 12.39931 15.572386 15.611143 12.36879 15.611143 8.4236094 C 15.611143 4.4784283 12.39931 1.2753492 8.4453131 1.2753492 z "/>
</svg>
