<?xml version="1.0" encoding="UTF-8" standalone="no"?>
<svg
   width="64"
   height="64"
   version="1.1"
   viewBox="0 0 16.933 16.933"
   id="svg7"
   sodipodi:docname="falkon.svg"
   inkscape:version="1.4.2 (ebf0e940d0, 2025-05-08)"
   xmlns:inkscape="http://www.inkscape.org/namespaces/inkscape"
   xmlns:sodipodi="http://sodipodi.sourceforge.net/DTD/sodipodi-0.dtd"
   xmlns:xlink="http://www.w3.org/1999/xlink"
   xmlns="http://www.w3.org/2000/svg"
   xmlns:svg="http://www.w3.org/2000/svg"
   xmlns:rdf="http://www.w3.org/1999/02/22-rdf-syntax-ns#"
   xmlns:cc="http://creativecommons.org/ns#"
   xmlns:dc="http://purl.org/dc/elements/1.1/">
  <sodipodi:namedview
     id="namedview7"
     pagecolor="#9c4444"
     bordercolor="#000000"
     borderopacity="0.25"
     inkscape:showpageshadow="2"
     inkscape:pageopacity="0.0"
     inkscape:pagecheckerboard="0"
     inkscape:deskcolor="#d1d1d1"
     inkscape:zoom="4.3531261"
     inkscape:cx="36.066035"
     inkscape:cy="26.417797"
     inkscape:window-width="2560"
     inkscape:window-height="1376"
     inkscape:window-x="0"
     inkscape:window-y="0"
     inkscape:window-maximized="1"
     inkscape:current-layer="svg7"
     showgrid="false" />
  <defs
     id="defs2">
    <filter
       style="color-interpolation-filters:sRGB;"
       inkscape:label="Blur"
       id="filter3"
       x="-0.10843471"
       y="-0.10870992"
       width="1.2168694"
       height="1.2174198">
      <feGaussianBlur
         stdDeviation="0.5 0.5"
         result="blur"
         id="feGaussianBlur3" />
    </filter>
    <style
       id="current-color-scheme"
       type="text/css">.ColorScheme-Text {color:#d8dee9} .ColorScheme-Highlight {color:#3b4252}</style>
    <linearGradient
       id="linearGradient3"
       inkscape:collect="always">
      <stop
         style="stop-color:#000000;stop-opacity:1;"
         offset="0"
         id="stop3" />
      <stop
         style="stop-color:#000000;stop-opacity:0;"
         offset="1"
         id="stop4" />
    </linearGradient>
    <linearGradient
       inkscape:collect="always"
       xlink:href="#linearGradient3"
       id="linearGradient4"
       x1="13.512321"
       y1="13.490874"
       x2="3.3783066"
       y2="3.3568602"
       gradientUnits="userSpaceOnUse" />
  </defs>
  <metadata
     id="metadata2">
    <rdf:RDF>
      <cc:Work
         rdf:about="">
        <dc:format>image/svg+xml</dc:format>
        <dc:type
           rdf:resource="http://purl.org/dc/dcmitype/StillImage" />
      </cc:Work>
    </rdf:RDF>
  </metadata>
  <ellipse
     style="opacity:1;fill:none;stroke:#000000;stroke-width:0.582072;stroke-dasharray:none;stroke-opacity:1;filter:url(#filter3)"
     id="path1-5"
     cx="8.4450111"
     cy="8.423522"
     rx="6.8752708"
     ry="6.8578653" />
  <ellipse
     style="opacity:1;fill:none;stroke-width:0.58207188;stroke-opacity:1;stroke:currentColor;stroke-dasharray:none;fill-opacity:1"
     id="path1"
     cx="8.4450111"
     cy="8.423522"
     rx="6.8752708"
     ry="6.8578653"
     class="ColorScheme-Text" />
  <ellipse
     style="fill:currentColor;stroke:none;stroke-width:0.285844;stroke-dasharray:none;stroke-opacity:1"
     id="path1-2"
     cx="8.4557552"
     cy="8.423522"
     rx="6.5738997"
     ry="6.5692253"
     class="ColorScheme-Highlight" />
  <path
     id="ellipse4650-0-7-2-3-4-4"
     style="opacity:0.3;fill:#000000;fill-opacity:1;stroke:none;stroke-width:0.127728"
     d="M 8.466616,5.0269844 A 4.1675488,4.092137 0 0 0 4.298993,9.1190189 4.1675488,4.092137 0 0 0 5.367218,11.854941 C 5.334428,11.327265 5.417438,10.64088 5.777095,9.8078018 8.904962,7.2292666 12.126821,9.1417205 12.126821,9.1417205 8.303517,8.7046997 6.622858,11.189412 6.027562,12.43745 a 4.1675488,4.092137 0 0 0 0.124235,0.08457 c 0.123882,-0.280315 1.520554,-3.2578268 4.977149,-3.3126933 -2.755766,0.6713582 8.44e-4,3.0500183 0.004,3.0527473 A 4.1675488,4.092137 0 0 0 12.634007,9.1190189 4.1675488,4.092137 0 0 0 8.466632,5.0269844 Z M 8.116113,6.3506652 c 1.664177,0.08694 2.48341,1.3151981 2.625908,1.3830542 0.859513,0.1809507 1.33911,0.8141278 1.411493,1.3750712 C 8.100228,7.0459596 5.385928,10.031575 5.385928,10.031575 5.437528,9.021356 5.909924,6.7541557 7.503169,7.0279726 7.480739,6.930191 7.085314,6.8010926 6.164021,6.7293586 6.912702,6.4194809 7.561388,6.321685 8.116113,6.3506652 Z M 6.92041,6.7510623 c 0.223774,0.043904 0.453325,0.1077899 0.603963,0.2003234 0.08329,-0.023815 0.151214,-0.074071 0.185605,-0.1369583 -0.0014,-2.427e-4 -0.0028,-4.973e-4 -0.0043,-7.538e-4 C 7.646108,6.803601 7.55827,6.7927601 7.454962,6.7829891 7.299854,6.7683183 7.109229,6.7560068 6.920351,6.7510569 Z m 2.58275,0.7082416 c -0.126838,0.00471 -0.224523,0.039666 -0.224523,0.039666 0,0 0.100086,0.555556 0.784829,0.4909543 C 10.006942,7.5276412 9.714554,7.4514503 9.50316,7.4593039 Z M 7.511151,8.6225763 C 7.302199,8.6579647 7.089786,8.699807 6.884986,8.7493064 6.472029,8.8491164 6.089861,8.9811494 5.834473,9.145712 5.664214,9.2554203 5.553466,9.3772301 5.514904,9.5069426 l -4.83e-4,0.0015 -4.83e-4,0.00149 c -0.03543,0.1030779 -0.04807,0.2351764 -0.05039,0.3397762 -5.1e-5,0.00223 -2.09e-4,0.00454 -2.5e-4,0.00673 0.0096,-0.00947 0.01933,-0.019093 0.02918,-0.028689 0.282456,-0.2749102 0.95391,-0.8390803 2.0187,-1.2051828 z M 9.771089,9.1881216 C 9.318862,9.2445986 8.762476,9.3757499 8.167505,9.6566238 7.283937,10.073737 6.314222,10.820535 5.470747,12.149813 c -0.001,0.230938 0.07715,0.464876 0.158413,0.641633 0.03075,0.06689 0.06196,0.125573 0.08881,0.172882 0.03062,-0.08167 0.06833,-0.17548 0.106274,-0.263189 C 6.20635,11.817796 7.337461,9.7667956 9.771087,9.1881216 Z" />
  <path
     id="ellipse4650-0-7-2-3-4-4-7"
     class="ColorScheme-Text"
     style="fill:currentColor;fill-opacity:1;stroke:none;stroke-width:0.127728"
     d="M 8.466616,4.497828 A 4.1675488,4.092137 0 0 0 4.298993,8.589862 4.1675488,4.092137 0 0 0 5.367218,11.325785 C 5.334428,10.798109 5.417438,10.111723 5.777095,9.278645 8.904962,6.70011 12.126821,8.612564 12.126821,8.612564 8.303517,8.175543 6.622858,10.660256 6.027562,11.908294 a 4.1675488,4.092137 0 0 0 0.124235,0.08457 c 0.123882,-0.280315 1.520554,-3.257827 4.977149,-3.312694 -2.755766,0.671358 8.44e-4,3.050019 0.004,3.052748 A 4.1675488,4.092137 0 0 0 12.634007,8.589862 4.1675488,4.092137 0 0 0 8.466632,4.497828 Z M 8.116113,5.821509 c 1.664177,0.08694 2.48341,1.315198 2.625908,1.383054 0.859513,0.180951 1.33911,0.814128 1.411493,1.375071 C 8.100228,6.516803 5.385928,9.502419 5.385928,9.502419 5.437528,8.4922 5.909924,6.224999 7.503169,6.498816 7.480739,6.401036 7.085314,6.271936 6.164021,6.200202 6.912702,5.890324 7.561388,5.792529 8.116113,5.821509 Z M 6.92041,6.221906 c 0.223774,0.0439 0.453325,0.10779 0.603963,0.200323 0.08329,-0.02381 0.151214,-0.07407 0.185605,-0.136958 -0.0014,-2.43e-4 -0.0028,-4.97e-4 -0.0043,-7.54e-4 C 7.646108,6.274447 7.55827,6.263607 7.454962,6.253837 7.299854,6.239167 7.109229,6.226857 6.920351,6.221907 Z m 2.58275,0.708241 c -0.126838,0.0047 -0.224523,0.03967 -0.224523,0.03967 0,0 0.100086,0.555556 0.784829,0.490955 C 10.006946,6.998489 9.714554,6.922298 9.50316,6.930151 Z M 7.511151,8.09342 C 7.302199,8.12881 7.089786,8.17065 6.884986,8.22015 6.472029,8.31996 6.089861,8.451993 5.834473,8.616556 5.664214,8.726264 5.553466,8.848074 5.514904,8.977786 l -4.83e-4,0.0015 -4.83e-4,0.0015 c -0.03543,0.103078 -0.04807,0.235177 -0.05039,0.339776 -5.1e-5,0.0022 -2.09e-4,0.0045 -2.5e-4,0.0067 0.0096,-0.0095 0.01933,-0.01909 0.02918,-0.02869 0.282456,-0.27491 0.95391,-0.83908 2.0187,-1.205182 z M 9.771089,8.658965 C 9.318862,8.715445 8.762476,8.846593 8.167505,9.127467 7.283937,9.54458 6.314222,10.291378 5.470747,11.620657 c -0.001,0.230937 0.07715,0.464876 0.158413,0.641633 0.03075,0.06689 0.06196,0.125573 0.08881,0.172882 0.03062,-0.08167 0.06833,-0.17548 0.106274,-0.26319 C 6.20635,11.28864 7.337461,9.237639 9.771087,8.658965 Z" />
  <path
     id="gradient-path1"
     style="opacity:0.3;baseline-shift:baseline;display:inline;overflow:visible;vector-effect:none;enable-background:accumulate;stop-color:#000000;stop-opacity:1;fill:url(#linearGradient4)"
     d="M 8.4453131 1.2753492 C 4.4913166 1.2753492 1.2794833 4.4784283 1.2794833 8.4236094 C 1.2794833 12.36879 4.4913166 15.572386 8.4453131 15.572386 C 12.39931 15.572386 15.611143 12.36879 15.611143 8.4236094 C 15.611143 4.4784283 12.39931 1.2753492 8.4453131 1.2753492 z " />
</svg>
