<?xml version="1.0" encoding="UTF-8" standalone="no"?>
<svg
   width="64"
   height="64"
   version="1.1"
   viewBox="0 0 16.933 16.933"
   id="svg7"
   sodipodi:docname="faugus-launcher.svg"
   inkscape:version="1.4.2 (ebf0e940d0, 2025-05-08)"
   xmlns:inkscape="http://www.inkscape.org/namespaces/inkscape"
   xmlns:sodipodi="http://sodipodi.sourceforge.net/DTD/sodipodi-0.dtd"
   xmlns:xlink="http://www.w3.org/1999/xlink"
   xmlns="http://www.w3.org/2000/svg"
   xmlns:svg="http://www.w3.org/2000/svg"
   xmlns:rdf="http://www.w3.org/1999/02/22-rdf-syntax-ns#"
   xmlns:cc="http://creativecommons.org/ns#"
   xmlns:dc="http://purl.org/dc/elements/1.1/">
  <sodipodi:namedview
     id="namedview7"
     pagecolor="#9c4444"
     bordercolor="#000000"
     borderopacity="0.25"
     inkscape:showpageshadow="2"
     inkscape:pageopacity="0.0"
     inkscape:pagecheckerboard="0"
     inkscape:deskcolor="#d1d1d1"
     inkscape:zoom="8.7062522"
     inkscape:cx="71.844921"
     inkscape:cy="15.276378"
     inkscape:window-width="2560"
     inkscape:window-height="1392"
     inkscape:window-x="0"
     inkscape:window-y="0"
     inkscape:window-maximized="1"
     inkscape:current-layer="svg7"
     showgrid="false" />
  <defs
     id="defs2">
    <filter
       style="color-interpolation-filters:sRGB;"
       inkscape:label="Blur"
       id="filter3"
       x="-0.10843471"
       y="-0.10870992"
       width="1.2168694"
       height="1.2174198">
      <feGaussianBlur
         stdDeviation="0.5 0.5"
         result="blur"
         id="feGaussianBlur3" />
    </filter>
    <style
       id="current-color-scheme"
       type="text/css">.ColorScheme-Text {color:#d8dee9} .ColorScheme-Highlight {color:#3b4252}</style>
    <linearGradient
       id="linearGradient3"
       inkscape:collect="always">
      <stop
         style="stop-color:#000000;stop-opacity:1;"
         offset="0"
         id="stop3" />
      <stop
         style="stop-color:#000000;stop-opacity:0;"
         offset="1"
         id="stop4" />
    </linearGradient>
    <linearGradient
       inkscape:collect="always"
       xlink:href="#linearGradient3"
       id="linearGradient4"
       x1="13.512321"
       y1="13.490874"
       x2="3.3783066"
       y2="3.3568602"
       gradientUnits="userSpaceOnUse" />
  </defs>
  <metadata
     id="metadata2">
    <rdf:RDF>
      <cc:Work
         rdf:about="">
        <dc:format>image/svg+xml</dc:format>
        <dc:type
           rdf:resource="http://purl.org/dc/dcmitype/StillImage" />
      </cc:Work>
    </rdf:RDF>
  </metadata>
  <ellipse
     style="opacity:1;fill:none;stroke:#000000;stroke-width:0.582072;stroke-dasharray:none;stroke-opacity:1;filter:url(#filter3)"
     id="path1-5"
     cx="8.4450111"
     cy="8.423522"
     rx="6.8752708"
     ry="6.8578653" />
  <ellipse
     style="opacity:1;fill:none;stroke-width:0.58207188;stroke-opacity:1;stroke:currentColor;stroke-dasharray:none;fill-opacity:1"
     id="path1"
     cx="8.4450111"
     cy="8.423522"
     rx="6.8752708"
     ry="6.8578653"
     class="ColorScheme-Text" />
  <ellipse
     style="fill:currentColor;stroke:none;stroke-width:0.285844;stroke-dasharray:none;stroke-opacity:1"
     id="path1-2"
     cx="8.4557552"
     cy="8.423522"
     rx="6.5738997"
     ry="6.5692253"
     class="ColorScheme-Highlight" />
  <path
     id="path7"
     d="M 8.466476,5.0271081 C 7.293807,5.0155081 6.258336,5.8203991 6.011568,7.114104 5.938158,7.498949 5.931938,7.889792 5.880376,8.276058 5.807846,8.820062 5.570246,9.2976591 5.317033,9.7677091 4.944422,10.074122 4.696885,10.527132 4.662694,11.038474 c -0.0026,0.04031 -0.004,0.08105 -0.004,0.122017 0,0.02087 3.22e-4,0.04182 0.0011,0.06258 3.26e-4,0.007 7.6e-4,0.01398 0.0011,0.02097 6.56e-4,0.01365 0.0012,0.02744 0.0022,0.04109 5.46e-4,0.0084 0.0014,0.0167 0.0021,0.02511 9.83e-4,0.01213 0.002,0.02436 0.0032,0.03638 9.83e-4,0.0091 0.0021,0.01803 0.0032,0.02699 0.0013,0.01136 0.0026,0.02261 0.0041,0.03386 0.0013,0.0093 0.0028,0.01869 0.0043,0.02797 0.0017,0.01081 0.0033,0.02151 0.0051,0.03222 0.0016,0.0095 0.0035,0.019 0.0052,0.0285 0.002,0.01027 0.0039,0.02065 0.006,0.03091 0.002,0.0097 0.0042,0.01934 0.0063,0.02895 0.0023,0.0099 0.0045,0.01989 0.0069,0.02983 0.0024,0.0097 0.0049,0.01944 0.0074,0.02917 0.0025,0.0096 0.005,0.01924 0.0076,0.02874 0.0027,0.0098 0.0056,0.01966 0.0085,0.02938 0.0027,0.0093 0.0055,0.01856 0.0084,0.02774 0.0032,0.0099 0.0063,0.01968 0.0096,0.02951 0.0031,0.009 0.006,0.0179 0.0092,0.02686 0.0035,0.0098 0.0071,0.01968 0.01071,0.02951 0.0033,0.0086 0.0065,0.01725 0.0098,0.02588 0.0038,0.0099 0.0078,0.01978 0.0118,0.02961 0.0034,0.0083 0.0069,0.0166 0.01037,0.0249 0.0041,0.0099 0.0085,0.01976 0.01289,0.02959 0.0036,0.008 0.0072,0.01596 0.01092,0.02394 0.0046,0.0099 0.0093,0.01976 0.0141,0.02959 0.0038,0.0076 0.0077,0.01518 0.01148,0.02283 0.005,0.0099 0.01003,0.01989 0.01528,0.02972 0.0038,0.0073 0.0079,0.01464 0.0118,0.02185 0.0054,0.0099 0.01081,0.01989 0.01649,0.02972 0.0012,0.0021 0.0023,0.0041 0.0035,0.0062 0.0069,0.01202 0.014,0.02394 0.02121,0.03584 0.026,0.04282 0.05385,0.08444 0.08323,0.124749 0.224156,0.307395 0.543234,0.541271 0.914206,0.658265 0.171394,0.05418 0.353829,0.08336 0.543138,0.08336 0.667553,0 1.250343,-0.362908 1.561889,-0.902215 h 0.88711 c 0.30674,0.531005 0.876521,0.890736 1.531293,0.90166 0.0097,0.0013 0.01967,0.0021 0.02972,0.0021 0.18931,0 0.371745,-0.02915 0.543139,-0.08334 0.370972,-0.116994 0.69005,-0.350869 0.914206,-0.658265 0.02939,-0.04031 0.05723,-0.08193 0.08323,-0.124748 2.06e-4,-2.19e-4 3.3e-4,-4.44e-4 4.45e-4,-6.62e-4 1.24e-4,-3.26e-4 4.3e-4,-7.68e-4 4.3e-4,-7.68e-4 l -2.07e-4,1.07e-4 c 9.83e-4,-0.0015 0.0019,-0.0031 0.0027,-0.0046 0.006,-0.0099 0.01203,-0.01978 0.01771,-0.02983 -4.1e-5,5.4e-5 -1.24e-4,9.9e-5 -1.65e-4,1.07e-4 h -2.2e-5 -2.2e-5 -2.2e-5 c 0.153589,-0.265339 0.241754,-0.573265 0.241754,-0.901852 0,-0.04096 -0.0013,-0.0815 -0.0041,-0.121805 -0.03419,-0.511451 -0.281726,-0.964563 -0.654446,-1.2710839 h -1.23e-4 C 11.362537,9.2975631 11.12496,8.820073 11.052426,8.276068 11.000866,7.889803 10.994646,7.498959 10.921234,7.114114 10.674469,5.8204051 9.638998,5.0155381 8.466329,5.0271181 Z m -1.390649,1.436454 c 0.144214,-0.007 0.298476,0.04994 0.453273,0.171516 C 7.708578,6.7759951 7.854731,6.949801 8.00821,7.11628 8.151968,7.272162 8.290273,7.433513 8.466583,7.564817 8.642893,7.433513 8.781177,7.272162 8.924934,7.11628 9.078413,6.949801 9.224588,6.7759951 9.404066,6.6350781 c 0.353821,-0.277901 0.7048,-0.218249 0.939552,0.17173 0.220224,0.3660559 0.226438,0.7659839 0.148005,1.1712559 -0.06817,0.352511 -0.214215,0.669613 -0.466117,0.926431 0.08903,0.1507491 0.17424,0.3018441 0.254639,0.4534661 H 6.653021 C 6.733421,9.2063391 6.81861,9.0552441 6.907639,8.904495 6.655736,8.647677 6.509686,8.330575 6.441522,7.978064 6.363092,7.572792 6.369322,7.172864 6.589547,6.8068081 6.721596,6.5874451 6.890408,6.4726021 7.075827,6.4635621 Z M 7.471281,7.058418 c -0.06512,-0.0033 -0.135938,0.01999 -0.214508,0.06998 0.04053,0.274843 0.137637,0.57067 -0.186472,0.776037 0.01398,0.0899 0.05429,0.161016 0.103882,0.225794 H 7.174074 C 7.324604,8.32653 7.544711,8.324454 7.696005,8.127529 7.875264,7.894088 7.876578,7.437479 7.698605,7.202399 7.629295,7.110779 7.554983,7.062665 7.471254,7.058449 Z m 2.031376,0 c -0.06512,-0.0033 -0.135938,0.01999 -0.214507,0.06998 0.04053,0.274843 0.137657,0.57067 -0.186451,0.776037 0.01398,0.0899 0.05429,0.161016 0.103882,0.225794 0.15053,0.196301 0.370637,0.194225 0.521931,-0.0027 H 9.727405 C 9.906664,7.894088 9.907978,7.437479 9.730005,7.202399 9.660695,7.110779 9.586361,7.062665 9.502633,7.058449 Z M 8.466583,8.446464 C 8.226587,8.59907 8.001337,8.742186 7.760249,8.895556 c 0.230273,0.06281 0.45323,0.06401 0.648984,0.1703001 0.01496,0.0082 0.03627,0.0119 0.05735,0.01124 0.02108,6.55e-4 0.04238,-0.0031 0.05735,-0.01124 C 8.719687,8.9595681 8.942643,8.9583681 9.172917,8.895556 8.931829,8.742186 8.706578,8.59907 8.466583,8.446464 Z m -1.991394,1.813925 c 0.101747,0.0026 0.189011,0.0383 0.25353,0.127672 0.03496,0.0485 0.05384,0.103011 0.05428,0.162981 5.46e-4,0.08488 0.0013,0.169658 -2.15e-4,0.254426 -5.46e-4,0.02567 0.0051,0.03451 0.03256,0.03386 0.07843,-0.002 0.156855,-9.89e-4 0.235288,-6.61e-4 0.182864,8.74e-4 0.311008,0.129992 0.311008,0.313184 0,0.155664 -0.06651,0.262184 -0.193449,0.311669 -0.03933,0.01529 -0.07997,0.01912 -0.121485,0.01912 -0.07843,-1.08e-4 -0.156855,6.46e-4 -0.235288,-5.55e-4 -0.02239,-4.37e-4 -0.02885,0.0062 -0.02863,0.0285 0.0011,0.08575 0.0012,0.171726 1.07e-4,0.257477 -0.0021,0.161563 -0.133369,0.289366 -0.295369,0.292425 -0.08138,0.0014 -0.158617,-0.0068 -0.22558,-0.05833 -0.078,-0.05986 -0.119841,-0.138724 -0.121698,-0.237038 -0.0015,-0.08477 -9.67e-4,-0.169529 2.35e-4,-0.254298 3.26e-4,-0.02218 -0.0062,-0.0294 -0.02842,-0.02863 -0.04664,0.0015 -0.09327,4.48e-4 -0.139918,4.48e-4 v -0.001 c -0.04238,0 -0.08488,0.0019 -0.12716,-3.22e-4 -0.154244,-0.008 -0.274943,-0.130981 -0.283464,-0.285662 -0.0068,-0.122892 0.02446,-0.228528 0.12987,-0.303028 0.05178,-0.03659 0.109894,-0.05352 0.172924,-0.05385 0.08269,-4.37e-4 0.165399,-8.63e-4 0.247983,4.48e-4 0.02261,4.37e-4 0.02851,-0.0065 0.02818,-0.02853 -0.0013,-0.08051 -6.64e-4,-0.161116 -5.55e-4,-0.241625 4.37e-4,-0.171065 0.12048,-0.29745 0.290782,-0.307828 0.0151,-9.14e-4 0.02995,-0.0012 0.04449,-8.53e-4 z m 4.003227,0.01417 a 0.31132797,0.31132797 0 0 1 0.311328,0.311327 0.31132797,0.31132797 0 0 1 -0.311328,0.311328 0.31132797,0.31132797 0 0 1 -0.311328,-0.311328 0.31132797,0.31132797 0 0 1 0.311328,-0.311327 z m -0.589223,0.588902 a 0.31132797,0.31132797 0 0 1 0.311328,0.311328 0.31132797,0.31132797 0 0 1 -0.311328,0.311328 0.31132797,0.31132797 0 0 1 -0.311328,-0.311328 0.31132797,0.31132797 0 0 1 0.311328,-0.311328 z m 1.175182,0 a 0.31132797,0.31132797 0 0 1 0.311328,0.311328 0.31132797,0.31132797 0 0 1 -0.311328,0.311328 0.31132797,0.31132797 0 0 1 -0.311328,-0.311328 0.31132797,0.31132797 0 0 1 0.311328,-0.311328 z m -0.585959,0.560079 a 0.31132797,0.31132797 0 0 1 0.311328,0.311328 0.31132797,0.31132797 0 0 1 -0.311328,0.311328 0.31132797,0.31132797 0 0 1 -0.311328,-0.311328 0.31132797,0.31132797 0 0 1 0.311328,-0.311328 z"
     style="opacity:0.3;fill:#000000;fill-opacity:1;stroke-width:0.0109238" />
  <path
     id="path7-6"
     d="m 8.466476,4.4979407 c -1.172669,-0.0116 -2.20814,0.793291 -2.454908,2.086996 -0.07341,0.3848454 -0.07963,0.7756884 -0.131192,1.1619544 -0.07253,0.544004 -0.31013,1.021601 -0.563343,1.491651 -0.372611,0.306413 -0.620148,0.759423 -0.654339,1.2707649 -0.0026,0.04031 -0.004,0.08105 -0.004,0.122017 0,0.02087 3.22e-4,0.04182 0.0011,0.06258 3.26e-4,0.007 7.6e-4,0.01398 0.0011,0.02097 6.56e-4,0.01365 0.0012,0.02744 0.0022,0.04109 5.46e-4,0.0084 0.0014,0.0167 0.0021,0.02511 9.83e-4,0.01213 0.002,0.02436 0.0032,0.03638 9.83e-4,0.0091 0.0021,0.01803 0.0032,0.02699 0.0013,0.01136 0.0026,0.02261 0.0041,0.03386 0.0013,0.0093 0.0028,0.01869 0.0043,0.02797 0.0017,0.01081 0.0033,0.02151 0.0051,0.03222 0.0016,0.0095 0.0035,0.019 0.0052,0.0285 0.002,0.01027 0.0039,0.02065 0.006,0.03091 0.002,0.0097 0.0042,0.01934 0.0063,0.02895 0.0023,0.0099 0.0045,0.01989 0.0069,0.02983 0.0024,0.0097 0.0049,0.01944 0.0074,0.02917 0.0025,0.0096 0.005,0.01924 0.0076,0.02874 0.0027,0.0098 0.0056,0.01966 0.0085,0.02938 0.0027,0.0093 0.0055,0.01856 0.0084,0.02774 0.0032,0.0099 0.0063,0.01968 0.0096,0.02951 0.0031,0.009 0.006,0.0179 0.0092,0.02686 0.0035,0.0098 0.0071,0.01968 0.01071,0.02951 0.0033,0.0086 0.0065,0.01725 0.0098,0.02588 0.0038,0.0099 0.0078,0.01978 0.0118,0.02961 0.0034,0.0083 0.0069,0.0166 0.01037,0.0249 0.0041,0.0099 0.0085,0.01976 0.01289,0.02959 0.0036,0.008 0.0072,0.01596 0.01092,0.02394 0.0046,0.0099 0.0093,0.01976 0.0141,0.02959 0.0038,0.0076 0.0077,0.01518 0.01148,0.02283 0.005,0.0099 0.01003,0.01989 0.01528,0.02972 0.0038,0.0073 0.0079,0.01464 0.0118,0.02185 0.0054,0.0099 0.01081,0.01989 0.01649,0.02972 0.0012,0.0021 0.0023,0.0041 0.0035,0.0062 0.0069,0.01202 0.014,0.02394 0.02121,0.03584 0.026,0.04282 0.05385,0.08444 0.08323,0.124749 0.224156,0.307395 0.543234,0.541271 0.914206,0.658265 0.171394,0.05418 0.353829,0.08336 0.543138,0.08336 0.667553,0 1.250343,-0.362908 1.561889,-0.902215 h 0.88711 c 0.30674,0.531005 0.876521,0.890736 1.531293,0.90166 0.0097,0.0013 0.01967,0.0021 0.02972,0.0021 0.18931,0 0.371745,-0.02915 0.543139,-0.08334 0.370972,-0.116994 0.69005,-0.350869 0.914206,-0.658265 0.02939,-0.04031 0.05723,-0.08193 0.08323,-0.124748 2.06e-4,-2.19e-4 3.3e-4,-4.44e-4 4.45e-4,-6.62e-4 1.24e-4,-3.26e-4 4.3e-4,-7.68e-4 4.3e-4,-7.68e-4 l -2.07e-4,1.07e-4 c 9.83e-4,-0.0015 0.0019,-0.0031 0.0027,-0.0046 0.006,-0.0099 0.01203,-0.01978 0.01771,-0.02983 -4.1e-5,5.4e-5 -1.24e-4,9.9e-5 -1.65e-4,1.07e-4 h -2.2e-5 -2.2e-5 -2.2e-5 c 0.153589,-0.265339 0.241754,-0.573265 0.241754,-0.901852 0,-0.04096 -0.0013,-0.0815 -0.0041,-0.121805 C 12.236016,9.9980761 11.98848,9.5449641 11.61576,9.2384431 h -1.23e-4 c -0.2531,-0.470047 -0.490677,-0.947537 -0.563211,-1.491542 -0.05156,-0.386265 -0.05778,-0.777109 -0.131192,-1.1619544 -0.246765,-1.293709 -1.282236,-2.098576 -2.454905,-2.086996 z m -1.390649,1.436454 c 0.144214,-0.007 0.298476,0.04994 0.453273,0.171516 0.179478,0.140917 0.325631,0.314723 0.47911,0.481202 0.143758,0.155882 0.282063,0.3172334 0.458373,0.4485374 0.17631,-0.131304 0.314594,-0.2926554 0.458351,-0.4485374 0.153479,-0.166479 0.299654,-0.340285 0.479132,-0.481202 0.353821,-0.277901 0.7048,-0.218249 0.939552,0.17173 0.220224,0.366056 0.226438,0.7659844 0.148005,1.1712564 -0.06817,0.352511 -0.214215,0.669613 -0.466117,0.926431 0.08903,0.150749 0.17424,0.301844 0.254639,0.453466 H 6.653021 C 6.733421,8.6771721 6.81861,8.5260771 6.907639,8.3753281 6.655736,8.1185101 6.509686,7.8014081 6.441522,7.4488971 6.363092,7.0436251 6.369322,6.6436967 6.589547,6.2776407 6.721596,6.0582777 6.890408,5.9434347 7.075827,5.9343947 Z m 0.395454,0.594856 c -0.06512,-0.0033 -0.135938,0.01999 -0.214508,0.06998 0.04053,0.2748434 0.137637,0.5706704 -0.186472,0.7760374 0.01398,0.0899 0.05429,0.161016 0.103882,0.225794 h -1.09e-4 c 0.15053,0.196301 0.370637,0.194225 0.521931,-0.0027 0.179259,-0.233441 0.180573,-0.69005 0.0026,-0.9251304 -0.06931,-0.09162 -0.143622,-0.139734 -0.227351,-0.14395 z m 2.031376,0 c -0.06512,-0.0033 -0.135938,0.01999 -0.214507,0.06998 0.04053,0.2748434 0.137657,0.5706704 -0.186451,0.7760374 0.01398,0.0899 0.05429,0.161016 0.103882,0.225794 0.15053,0.196301 0.370637,0.194225 0.521931,-0.0027 h -1.07e-4 c 0.179259,-0.233441 0.180573,-0.69005 0.0026,-0.9251304 -0.06931,-0.09162 -0.143644,-0.139734 -0.227372,-0.14395 z M 8.466583,7.9172971 c -0.239996,0.152606 -0.465246,0.295722 -0.706334,0.449092 0.230273,0.06281 0.45323,0.06401 0.648984,0.1703 0.01496,0.0082 0.03627,0.0119 0.05735,0.01124 0.02108,6.55e-4 0.04238,-0.0031 0.05735,-0.01124 0.195754,-0.106288 0.41871,-0.107488 0.648984,-0.1703 -0.241088,-0.15337 -0.466339,-0.296486 -0.706334,-0.449092 z m -1.991394,1.813925 c 0.101747,0.0026 0.189011,0.0383 0.25353,0.127672 0.03496,0.0485 0.05384,0.103011 0.05428,0.1629809 5.46e-4,0.08488 0.0013,0.169658 -2.15e-4,0.254426 -5.46e-4,0.02567 0.0051,0.03451 0.03256,0.03386 0.07843,-0.002 0.156855,-9.89e-4 0.235288,-6.61e-4 0.182864,8.74e-4 0.311008,0.129992 0.311008,0.313184 0,0.155664 -0.06651,0.262184 -0.193449,0.311669 -0.03933,0.01529 -0.07997,0.01912 -0.121485,0.01912 -0.07843,-1.08e-4 -0.156855,6.46e-4 -0.235288,-5.55e-4 -0.02239,-4.37e-4 -0.02885,0.0062 -0.02863,0.0285 0.0011,0.08575 0.0012,0.171726 1.07e-4,0.257477 -0.0021,0.161563 -0.133369,0.289366 -0.295369,0.292425 -0.08138,0.0014 -0.158617,-0.0068 -0.22558,-0.05833 -0.078,-0.05986 -0.119841,-0.138724 -0.121698,-0.237038 -0.0015,-0.08477 -9.67e-4,-0.169529 2.35e-4,-0.254298 3.26e-4,-0.02218 -0.0062,-0.0294 -0.02842,-0.02863 -0.04664,0.0015 -0.09327,4.48e-4 -0.139918,4.48e-4 v -10e-4 c -0.04238,0 -0.08488,0.0019 -0.12716,-3.22e-4 -0.154244,-0.008 -0.274943,-0.130981 -0.283464,-0.285662 -0.0068,-0.122892 0.02446,-0.228528 0.12987,-0.303028 0.05178,-0.03659 0.109894,-0.05352 0.172924,-0.05385 0.08269,-4.37e-4 0.165399,-8.63e-4 0.247983,4.48e-4 0.02261,4.37e-4 0.02851,-0.0065 0.02818,-0.02853 -0.0013,-0.08051 -6.64e-4,-0.161116 -5.55e-4,-0.241625 4.37e-4,-0.1710649 0.12048,-0.2974499 0.290782,-0.3078279 0.0151,-9.14e-4 0.02995,-0.0012 0.04449,-8.53e-4 z m 4.003227,0.01417 a 0.31132797,0.31132797 0 0 1 0.311328,0.3113269 0.31132797,0.31132797 0 0 1 -0.311328,0.311328 0.31132797,0.31132797 0 0 1 -0.311328,-0.311328 0.31132797,0.31132797 0 0 1 0.311328,-0.3113269 z M 9.889193,10.334294 a 0.31132797,0.31132797 0 0 1 0.311328,0.311328 0.31132797,0.31132797 0 0 1 -0.311328,0.311328 0.31132797,0.31132797 0 0 1 -0.311328,-0.311328 0.31132797,0.31132797 0 0 1 0.311328,-0.311328 z m 1.175182,0 a 0.31132797,0.31132797 0 0 1 0.311328,0.311328 0.31132797,0.31132797 0 0 1 -0.311328,0.311328 0.31132797,0.31132797 0 0 1 -0.311328,-0.311328 0.31132797,0.31132797 0 0 1 0.311328,-0.311328 z m -0.585959,0.560079 a 0.31132797,0.31132797 0 0 1 0.311328,0.311328 0.31132797,0.31132797 0 0 1 -0.311328,0.311328 0.31132797,0.31132797 0 0 1 -0.311328,-0.311328 0.31132797,0.31132797 0 0 1 0.311328,-0.311328 z"
     style="fill:currentColor;stroke-width:0.0109238"
     class="ColorScheme-Text" />
  <path
     id="gradient-path1"
     style="opacity:0.3;baseline-shift:baseline;display:inline;overflow:visible;vector-effect:none;enable-background:accumulate;stop-color:#000000;stop-opacity:1;fill:url(#linearGradient4)"
     d="M 8.4453131 1.2753492 C 4.4913166 1.2753492 1.2794833 4.4784283 1.2794833 8.4236094 C 1.2794833 12.36879 4.4913166 15.572386 8.4453131 15.572386 C 12.39931 15.572386 15.611143 12.36879 15.611143 8.4236094 C 15.611143 4.4784283 12.39931 1.2753492 8.4453131 1.2753492 z " />
</svg>
