<?xml version='1.0' encoding='UTF-8'?>
<svg xmlns:inkscape="http://www.inkscape.org/namespaces/inkscape" xmlns:sodipodi="http://sodipodi.sourceforge.net/DTD/sodipodi-0.dtd" xmlns:xlink="http://www.w3.org/1999/xlink" xmlns="http://www.w3.org/2000/svg" xmlns:svg="http://www.w3.org/2000/svg" xmlns:rdf="http://www.w3.org/1999/02/22-rdf-syntax-ns#" xmlns:cc="http://creativecommons.org/ns#" xmlns:dc="http://purl.org/dc/elements/1.1/" width="64" height="64" version="1.1" viewBox="0 0 16.933 16.933" id="svg7" sodipodi:docname="com.bitwarden.desktop.svg" inkscape:version="1.4 (e7c3feb100, 2024-10-09)">
  <sodipodi:namedview id="namedview7" pagecolor="#9c4444" bordercolor="#000000" borderopacity="0.25" inkscape:showpageshadow="2" inkscape:pageopacity="0.0" inkscape:pagecheckerboard="0" inkscape:deskcolor="#d1d1d1" inkscape:zoom="4.3531261" inkscape:cx="36.755195" inkscape:cy="25.958357" inkscape:window-width="1280" inkscape:window-height="669" inkscape:window-x="24" inkscape:window-y="205" inkscape:window-maximized="0" inkscape:current-layer="svg7" showgrid="false"/>
  <defs id="defs2">
    <filter style="color-interpolation-filters:sRGB;" inkscape:label="Blur" id="filter3" x="-0.10843471" y="-0.10870992" width="1.2168694" height="1.2174198">
      <feGaussianBlur stdDeviation="0.5 0.5" result="blur" id="feGaussianBlur3"/>
    </filter>
    <style id="current-color-scheme" type="text/css">.ColorScheme-Text {color:#d8dee9} .ColorScheme-Highlight {color:#3b4252}</style><linearGradient id="linearGradient3" inkscape:collect="always">
      <stop style="stop-color:#000000;stop-opacity:1;" offset="0" id="stop3"/>
      <stop style="stop-color:#000000;stop-opacity:0;" offset="1" id="stop4"/>
    </linearGradient>
    <linearGradient inkscape:collect="always" xlink:href="#linearGradient3" id="linearGradient4" x1="13.512321" y1="13.490874" x2="3.3783066" y2="3.3568602" gradientUnits="userSpaceOnUse"/>
  </defs>
  <metadata id="metadata2">
    <rdf:RDF>
      <cc:Work rdf:about="">
        <dc:format>image/svg+xml</dc:format>
        <dc:type rdf:resource="http://purl.org/dc/dcmitype/StillImage"/>
      </cc:Work>
    </rdf:RDF>
  </metadata>
  <ellipse style="opacity:1;fill:none;stroke:#000000;stroke-width:0.582072;stroke-dasharray:none;stroke-opacity:1;filter:url(#filter3)" id="path1-5" cx="8.4450111" cy="8.423522" rx="6.8752708" ry="6.8578653"/>
  <ellipse style="opacity:1;fill:none;stroke-width:0.58207188;stroke-opacity:1;stroke:currentColor;stroke-dasharray:none;fill-opacity:1" id="path1" cx="8.4450111" cy="8.423522" rx="6.8752708" ry="6.8578653" class="ColorScheme-Text"/>
  <ellipse style="fill:currentColor;stroke:none;stroke-width:0.285844;stroke-dasharray:none;stroke-opacity:1" id="path1-2" cx="8.4557552" cy="8.423522" rx="6.5738997" ry="6.5692253" class="ColorScheme-Highlight"/>
<path d="M 9.4644818,7.2198197 C 9.340506,7.215247 9.1989175,7.2646522 8.9802444,7.346769 8.7483046,7.433918 8.5099604,7.5048266 8.4504886,7.5048266 c -0.059929,0 -0.2431479,-0.056727 -0.4082962,-0.1267205 C 7.6311512,7.203122 7.4666889,7.1797907 7.2987957,7.2726582 7.2242273,7.3138308 6.9479126,7.572533 6.6839495,7.8470179 6.2827441,8.2642349 6.1647153,8.3612197 5.9664002,8.4403627 5.6544025,8.5652534 5.3915831,8.5954467 5.1756549,8.530714 4.8826423,8.4428789 4.7243561,8.6075696 4.8503903,8.8683306 4.9707061,9.1171967 5.4505973,9.3427319 6.0871736,9.4490948 6.9707863,9.5970878 7.5558966,9.4596168 8.1769187,8.9595966 8.296091,8.8637556 8.4285299,8.785299 8.4710749,8.785299 c 0.042316,0 0.1866499,0.08875 0.3206901,0.1964852 0.3181737,0.2561859 0.4732576,0.3376164 0.8506745,0.448554 0.2683093,0.079143 0.3719265,0.088063 0.7495715,0.064505 0.79372,-0.049865 1.325076,-0.2173007 1.604822,-0.5066535 0.09424,-0.097442 0.129466,-0.172468 0.129466,-0.27357 0,-0.2031189 -0.109566,-0.2538983 -0.38954,-0.1820749 -0.169722,0.043918 -0.263964,0.044605 -0.435058,0.00617 C 10.883111,8.4449381 10.693715,8.3154728 10.206048,7.7916641 9.8268021,7.384969 9.6703451,7.2273688 9.4644818,7.2198205 Z m -1.226719,2.4991851 c -0.1253481,0 -0.2287375,0.1033893 -0.2287375,0.2287377 0,0.015097 0.0016,0.029965 0.00458,0.044605 l 0.2287376,1.1436874 c 0.021275,0.106592 0.1155124,0.183676 0.2241625,0.183676 0.1086502,0 0.2028902,-0.07709 0.2241626,-0.183676 L 8.9194001,9.9923461 c 0.00298,-0.014639 0.00458,-0.029506 0.00458,-0.044605 0,-0.1253483 -0.1033891,-0.2287377 -0.2287374,-0.2287377 z" fill="#ffffff" fill-opacity="0.89" fill-rule="nonzero" id="path3-3-9" style="fill:#000000;fill-opacity:1;stroke-width:0.228739;opacity:0.3"/>
  <path d="M 9.4644818,6.6906635 C 9.340506,6.6860908 9.1989175,6.735496 8.9802444,6.8176128 8.7483046,6.9047618 8.5099604,6.9756704 8.4504886,6.9756704 c -0.059929,0 -0.2431479,-0.056727 -0.4082962,-0.1267205 C 7.6311512,6.6739658 7.4666889,6.6506345 7.2987957,6.743502 7.2242273,6.7846746 6.9479126,7.0433768 6.6839495,7.3178617 6.2827441,7.7350787 6.1647153,7.8320635 5.9664002,7.9112065 5.6544025,8.0360972 5.3915831,8.0662905 5.1756549,8.0015578 4.8826423,7.9137227 4.7243561,8.0784134 4.8503903,8.3391744 c 0.1203158,0.2488661 0.600207,0.4744013 1.2367833,0.5807642 0.8836127,0.147993 1.468723,0.010522 2.0897451,-0.4894982 0.1191723,-0.095841 0.2516112,-0.1742976 0.2941562,-0.1742976 0.042316,0 0.1866499,0.08875 0.3206901,0.1964852 0.3181737,0.2561859 0.4732576,0.3376164 0.8506745,0.448554 0.2683093,0.079143 0.3719265,0.088063 0.7495715,0.064505 0.79372,-0.049865 1.325076,-0.2173007 1.604822,-0.5066535 0.09424,-0.097442 0.129466,-0.172468 0.129466,-0.27357 0,-0.2031189 -0.109566,-0.2538983 -0.38954,-0.1820749 -0.169722,0.043918 -0.263964,0.044605 -0.435058,0.00617 C 10.883111,7.9157819 10.693715,7.7863166 10.206048,7.2625079 9.8268021,6.8558128 9.6703451,6.6982126 9.4644818,6.6906643 Z m -1.226719,2.4991851 c -0.1253481,0 -0.2287375,0.1033893 -0.2287375,0.2287377 0,0.015097 0.0016,0.029965 0.00458,0.044605 l 0.2287376,1.1436877 c 0.021275,0.106592 0.1155124,0.183676 0.2241625,0.183676 0.1086502,0 0.2028902,-0.07709 0.2241626,-0.183676 L 8.9194001,9.4631899 c 0.00298,-0.014639 0.00458,-0.029506 0.00458,-0.044605 0,-0.1253483 -0.1033891,-0.2287377 -0.2287374,-0.2287377 z" fill="#ffffff" fill-opacity="0.89" fill-rule="nonzero" id="path3-3" style="fill:currentColor;fill-opacity:1;stroke-width:0.228739" class="ColorScheme-Text"/>
<path id="gradient-path1" style="opacity:0.3;baseline-shift:baseline;display:inline;overflow:visible;vector-effect:none;enable-background:accumulate;stop-color:#000000;stop-opacity:1;fill:url(#linearGradient4)" d="M 8.4453131 1.2753492 C 4.4913166 1.2753492 1.2794833 4.4784283 1.2794833 8.4236094 C 1.2794833 12.36879 4.4913166 15.572386 8.4453131 15.572386 C 12.39931 15.572386 15.611143 12.36879 15.611143 8.4236094 C 15.611143 4.4784283 12.39931 1.2753492 8.4453131 1.2753492 z "/>
</svg>
