<?xml version="1.0" encoding="UTF-8" standalone="no"?>
<svg
   width="64"
   height="64"
   version="1.1"
   viewBox="0 0 16.933 16.933"
   id="svg7"
   sodipodi:docname="filezilla.svg"
   inkscape:version="1.4.2 (ebf0e940d0, 2025-05-08)"
   xmlns:inkscape="http://www.inkscape.org/namespaces/inkscape"
   xmlns:sodipodi="http://sodipodi.sourceforge.net/DTD/sodipodi-0.dtd"
   xmlns:xlink="http://www.w3.org/1999/xlink"
   xmlns="http://www.w3.org/2000/svg"
   xmlns:svg="http://www.w3.org/2000/svg"
   xmlns:rdf="http://www.w3.org/1999/02/22-rdf-syntax-ns#"
   xmlns:cc="http://creativecommons.org/ns#"
   xmlns:dc="http://purl.org/dc/elements/1.1/">
  <sodipodi:namedview
     id="namedview7"
     pagecolor="#9c4444"
     bordercolor="#000000"
     borderopacity="0.25"
     inkscape:showpageshadow="2"
     inkscape:pageopacity="0.0"
     inkscape:pagecheckerboard="0"
     inkscape:deskcolor="#d1d1d1"
     inkscape:zoom="8.7062522"
     inkscape:cx="71.500341"
     inkscape:cy="15.276378"
     inkscape:window-width="2560"
     inkscape:window-height="1392"
     inkscape:window-x="0"
     inkscape:window-y="0"
     inkscape:window-maximized="1"
     inkscape:current-layer="svg7"
     showgrid="false" />
  <defs
     id="defs2">
    <filter
       style="color-interpolation-filters:sRGB;"
       inkscape:label="Blur"
       id="filter3"
       x="-0.10843471"
       y="-0.10870992"
       width="1.2168694"
       height="1.2174198">
      <feGaussianBlur
         stdDeviation="0.5 0.5"
         result="blur"
         id="feGaussianBlur3" />
    </filter>
    <style
       id="current-color-scheme"
       type="text/css">.ColorScheme-Text {color:#d8dee9} .ColorScheme-Highlight {color:#3b4252}</style>
    <linearGradient
       id="linearGradient3"
       inkscape:collect="always">
      <stop
         style="stop-color:#000000;stop-opacity:1;"
         offset="0"
         id="stop3" />
      <stop
         style="stop-color:#000000;stop-opacity:0;"
         offset="1"
         id="stop4" />
    </linearGradient>
    <linearGradient
       inkscape:collect="always"
       xlink:href="#linearGradient3"
       id="linearGradient4"
       x1="13.512321"
       y1="13.490874"
       x2="3.3783066"
       y2="3.3568602"
       gradientUnits="userSpaceOnUse" />
  </defs>
  <metadata
     id="metadata2">
    <rdf:RDF>
      <cc:Work
         rdf:about="">
        <dc:format>image/svg+xml</dc:format>
        <dc:type
           rdf:resource="http://purl.org/dc/dcmitype/StillImage" />
      </cc:Work>
    </rdf:RDF>
  </metadata>
  <ellipse
     style="opacity:1;fill:none;stroke:#000000;stroke-width:0.582072;stroke-dasharray:none;stroke-opacity:1;filter:url(#filter3)"
     id="path1-5"
     cx="8.4450111"
     cy="8.423522"
     rx="6.8752708"
     ry="6.8578653" />
  <ellipse
     style="opacity:1;fill:none;stroke-width:0.58207188;stroke-opacity:1;stroke:currentColor;stroke-dasharray:none;fill-opacity:1"
     id="path1"
     cx="8.4450111"
     cy="8.423522"
     rx="6.8752708"
     ry="6.8578653"
     class="ColorScheme-Text" />
  <ellipse
     style="fill:currentColor;stroke:none;stroke-width:0.285844;stroke-dasharray:none;stroke-opacity:1"
     id="path1-2"
     cx="8.4557552"
     cy="8.423522"
     rx="6.5738997"
     ry="6.5692253"
     class="ColorScheme-Highlight" />
  <path
     id="path5"
     style="opacity:0.3;fill:#000000;fill-opacity:1;stroke-width:0.0208878"
     d="m 4.763577,5.0269844 c 0,0.06999 -0.02838,0.138485 -0.0778,0.18799 -0.04951,0.04941 -0.118004,0.0778 -0.187949,0.0778 v 0.3504 c 0.146522,0 0.265747,0.119234 0.265747,0.265706 0,0.146563 -0.119225,0.265748 -0.265747,0.265748 v 0.3504 c 0.146522,0 0.265747,0.119235 0.265747,0.265707 0,0.1465628 -0.119225,0.2657885 -0.265747,0.2657885 v 0.3503999 c 0.146522,0 0.265747,0.119216 0.265747,0.2658702 0,0.1466536 -0.119225,0.2658696 -0.265747,0.2658696 v 0.3504005 c 0.146522,0 0.265747,0.1191435 0.265747,0.2657066 0,0.146563 -0.119225,0.2657881 -0.265747,0.2657881 v 0.3504005 c 0.146522,0 0.265747,0.1191028 0.265747,0.2656658 0,0.146563 -0.119225,0.265789 -0.265747,0.265789 v 0.3503999 c 0.146522,0 0.265747,0.119144 0.265747,0.265707 0,0.146563 -0.119225,0.265789 -0.265747,0.265789 v 0.3504 c 0.146522,0 0.265747,0.119102 0.265747,0.265665 0,0.146563 -0.119225,0.265789 -0.265747,0.265789 v 0.3504 c 0.146522,0 0.265747,0.119144 0.265747,0.265707 0,0.146563 -0.119225,0.265788 -0.265747,0.265788 v 0.350563 c 0.06994,0 0.138442,0.0283 0.187949,0.0778 0.04941,0.04941 0.0778,0.117919 0.0778,0.187908 h 0.3504 c 0,-0.146563 0.119225,-0.265707 0.265748,-0.265707 0.146522,0 0.265748,0.119144 0.265748,0.265707 h 0.3504 c 0,-0.146563 0.119225,-0.265707 0.265747,-0.265707 0.146522,0 0.265748,0.119144 0.265748,0.265707 h 0.350441 c 0,-0.146563 0.119226,-0.265707 0.265747,-0.265707 0.146522,0 0.265748,0.119144 0.265748,0.265707 h 0.3504 c 0,-0.146563 0.119226,-0.265707 0.265748,-0.265707 0.146522,0 0.265747,0.119144 0.265747,0.265707 h 0.3504 c 0,-0.146563 0.119225,-0.265707 0.265748,-0.265707 0.146523,0 0.265748,0.119144 0.265748,0.265707 h 0.350399 c 0,-0.146563 0.119226,-0.265707 0.265748,-0.265707 0.146522,0 0.265747,0.119144 0.265747,0.265707 h 0.3504 c 0,-0.146563 0.119226,-0.265707 0.265748,-0.265707 0.146522,0 0.265748,0.119144 0.265748,0.265707 h 0.350441 c 0,-0.146563 0.119225,-0.265707 0.265747,-0.265707 0.146522,0 0.265748,0.119144 0.265748,0.265707 h 0.350563 c 0,-0.06999 0.02842,-0.138494 0.07792,-0.187908 0.04941,-0.04951 0.117876,-0.0778 0.187868,-0.0778 v -0.3504 c -0.146568,0 -0.265789,-0.119225 -0.265789,-0.265788 0,-0.146563 0.119221,-0.265666 0.265789,-0.265666 v -0.3504 c -0.146568,0 -0.265789,-0.119226 -0.265789,-0.265788 0,-0.146564 0.119221,-0.265707 0.265789,-0.265707 v -0.3504 c -0.146568,0 -0.265789,-0.119226 -0.265789,-0.265789 0,-0.146563 0.119221,-0.265666 0.265789,-0.265666 V 9.7026178 c -0.146568,0 -0.265789,-0.1192259 -0.265789,-0.2657889 0,-0.1465631 0.119221,-0.2657066 0.265789,-0.2657066 v -0.3504 c -0.146568,0 -0.265789,-0.1192256 -0.265789,-0.2657886 0,-0.146563 0.119221,-0.2657066 0.265789,-0.2657066 V 7.9388679 c -0.146568,0 -0.265789,-0.1192574 -0.265789,-0.2659109 0,-0.1466536 0.119221,-0.2658702 0.265789,-0.2658702 V 7.0566869 c -0.146568,0 -0.265789,-0.1192257 -0.265789,-0.2657885 0,-0.146472 0.119221,-0.265666 0.265789,-0.265666 v -0.3504 c -0.146568,0 -0.265789,-0.119226 -0.265789,-0.265789 0,-0.146472 0.119221,-0.265706 0.265789,-0.265706 v -0.350563 c -0.06999,0 -0.138452,-0.02839 -0.187868,-0.0778 -0.0495,-0.04951 -0.07792,-0.118002 -0.07792,-0.18799 h -0.3504 c 0,0.146563 -0.119225,0.265789 -0.265747,0.265789 -0.146523,0 -0.265748,-0.119226 -0.265748,-0.265789 h -0.3504 c 0,0.146563 -0.119225,0.265789 -0.265748,0.265789 -0.146521,0 -0.265747,-0.119226 -0.265747,-0.265789 h -0.3504 c 0,0.146563 -0.119225,0.265789 -0.265748,0.265789 -0.146521,0 -0.265747,-0.119226 -0.265747,-0.265789 H 9.173257 c 0,0.146563 -0.119224,0.265789 -0.265747,0.265789 -0.146522,0 -0.265748,-0.119226 -0.265748,-0.265789 h -0.3504 c 0,0.146563 -0.119225,0.265789 -0.265747,0.265789 -0.146523,0 -0.265748,-0.119226 -0.265748,-0.265789 h -0.3504 c 0,0.146563 -0.119225,0.265789 -0.265748,0.265789 -0.146522,0 -0.265748,-0.119226 -0.265748,-0.265789 h -0.3504 c 0,0.146563 -0.119225,0.265789 -0.265747,0.265789 -0.146522,0 -0.265748,-0.119226 -0.265748,-0.265789 h -0.3504 c 0,0.146563 -0.119225,0.265789 -0.265748,0.265789 -0.146521,0 -0.265747,-0.119226 -0.265747,-0.265789 z m 1.907557,1.168 h 3.469732 L 9.919424,7.2358634 H 7.50538 L 7.298704,8.2029416 h 3.960759 L 11.089627,8.8969287 8.971723,10.956534 c 0.191941,0.02952 0.37651,0.0738 0.575719,0.0738 0.484576,0 1.041716,-0.147703 1.418286,-0.302668 l -0.193456,0.908005 c -0.553751,0.265785 -0.893225,0.287941 -1.22483,0.287941 -0.361627,0 -0.708585,-0.118187 -1.06299,-0.118187 -0.199345,0 -0.487276,0.01483 -0.66441,0.132915 L 7.436188,11.259203 9.621079,9.0961789 H 7.106595 L 6.62687,11.347813 H 5.578526 Z" />
  <path
     id="path5-7"
     style="fill:currentColor;fill-opacity:1;stroke-width:0.0208878"
     d="m 4.763577,4.4978276 c 0,0.06999 -0.02838,0.138485 -0.0778,0.18799 -0.04951,0.04941 -0.118004,0.0778 -0.187949,0.0778 v 0.3504 c 0.146522,0 0.265747,0.119234 0.265747,0.265706 0,0.146563 -0.119225,0.265748 -0.265747,0.265748 v 0.3504 c 0.146522,0 0.265747,0.119235 0.265747,0.265707 0,0.1465628 -0.119225,0.2657885 -0.265747,0.2657885 V 6.877767 c 0.146522,0 0.265747,0.1192161 0.265747,0.2658702 0,0.1466536 -0.119225,0.2658696 -0.265747,0.2658696 v 0.3504005 c 0.146522,0 0.265747,0.1191436 0.265747,0.2657066 0,0.146563 -0.119225,0.2657881 -0.265747,0.2657881 v 0.3504005 c 0.146522,0 0.265747,0.1191028 0.265747,0.2656658 0,0.146563 -0.119225,0.265789 -0.265747,0.265789 v 0.3504001 c 0.146522,0 0.265747,0.1191435 0.265747,0.2657065 0,0.146563 -0.119225,0.2657891 -0.265747,0.2657891 v 0.3504 c 0.146522,0 0.265747,0.119102 0.265747,0.265665 0,0.146563 -0.119225,0.265789 -0.265747,0.265789 v 0.3504 c 0.146522,0 0.265747,0.119144 0.265747,0.265707 0,0.146563 -0.119225,0.265788 -0.265747,0.265788 v 0.350563 c 0.06994,0 0.138442,0.0283 0.187949,0.0778 0.04941,0.04941 0.0778,0.117919 0.0778,0.187908 h 0.3504 c 0,-0.146563 0.119225,-0.265707 0.265748,-0.265707 0.146522,0 0.265748,0.119144 0.265748,0.265707 h 0.3504 c 0,-0.146563 0.119225,-0.265707 0.265747,-0.265707 0.146522,0 0.265748,0.119144 0.265748,0.265707 h 0.350441 c 0,-0.146563 0.119226,-0.265707 0.265747,-0.265707 0.146522,0 0.265748,0.119144 0.265748,0.265707 h 0.3504 c 0,-0.146563 0.119226,-0.265707 0.265748,-0.265707 0.146522,0 0.265747,0.119144 0.265747,0.265707 h 0.3504 c 0,-0.146563 0.119225,-0.265707 0.265748,-0.265707 0.146523,0 0.265748,0.119144 0.265748,0.265707 h 0.350399 c 0,-0.146563 0.119226,-0.265707 0.265748,-0.265707 0.146522,0 0.265747,0.119144 0.265747,0.265707 h 0.3504 c 0,-0.146563 0.119226,-0.265707 0.265748,-0.265707 0.146522,0 0.265748,0.119144 0.265748,0.265707 h 0.350441 c 0,-0.146563 0.119225,-0.265707 0.265747,-0.265707 0.146522,0 0.265748,0.119144 0.265748,0.265707 h 0.350563 c 0,-0.06999 0.02842,-0.138494 0.07792,-0.187908 0.04941,-0.04951 0.117876,-0.0778 0.187868,-0.0778 v -0.3504 c -0.146568,0 -0.265789,-0.119225 -0.265789,-0.265788 0,-0.146563 0.119221,-0.265666 0.265789,-0.265666 v -0.3504 c -0.146568,0 -0.265789,-0.119226 -0.265789,-0.265788 0,-0.146564 0.119221,-0.265707 0.265789,-0.265707 v -0.3504 c -0.146568,0 -0.265789,-0.119226 -0.265789,-0.2657891 0,-0.146563 0.119221,-0.2656658 0.265789,-0.2656658 V 9.173461 c -0.146568,0 -0.265789,-0.1192259 -0.265789,-0.2657889 0,-0.1465631 0.119221,-0.2657066 0.265789,-0.2657066 v -0.3504 c -0.146568,0 -0.265789,-0.1192256 -0.265789,-0.2657886 0,-0.146563 0.119221,-0.2657066 0.265789,-0.2657066 V 7.4097111 c -0.146568,0 -0.265789,-0.1192574 -0.265789,-0.2659109 0,-0.1466536 0.119221,-0.2658702 0.265789,-0.2658702 V 6.5275301 c -0.146568,0 -0.265789,-0.1192257 -0.265789,-0.2657885 0,-0.146472 0.119221,-0.265666 0.265789,-0.265666 v -0.3504 c -0.146568,0 -0.265789,-0.119226 -0.265789,-0.265789 0,-0.146472 0.119221,-0.265706 0.265789,-0.265706 v -0.350563 c -0.06999,0 -0.138452,-0.02839 -0.187868,-0.0778 -0.0495,-0.04951 -0.07792,-0.118002 -0.07792,-0.18799 h -0.3504 c 0,0.146563 -0.119225,0.265789 -0.265747,0.265789 -0.146523,0 -0.265748,-0.119226 -0.265748,-0.265789 h -0.3504 c 0,0.146563 -0.119225,0.265789 -0.265748,0.265789 -0.146521,0 -0.265747,-0.119226 -0.265747,-0.265789 h -0.3504 c 0,0.146563 -0.119225,0.265789 -0.265748,0.265789 -0.146521,0 -0.265747,-0.119226 -0.265747,-0.265789 H 9.173257 c 0,0.146563 -0.119224,0.265789 -0.265747,0.265789 -0.146522,0 -0.265748,-0.119226 -0.265748,-0.265789 h -0.3504 c 0,0.146563 -0.119225,0.265789 -0.265747,0.265789 -0.146523,0 -0.265748,-0.119226 -0.265748,-0.265789 h -0.3504 c 0,0.146563 -0.119225,0.265789 -0.265748,0.265789 -0.146522,0 -0.265748,-0.119226 -0.265748,-0.265789 h -0.3504 c 0,0.146563 -0.119225,0.265789 -0.265747,0.265789 -0.146522,0 -0.265748,-0.119226 -0.265748,-0.265789 h -0.3504 c 0,0.146563 -0.119225,0.265789 -0.265748,0.265789 -0.146521,0 -0.265747,-0.119226 -0.265747,-0.265789 z m 1.907557,1.168 h 3.469732 L 9.919424,6.7067066 H 7.50538 L 7.298704,7.6737848 h 3.960759 L 11.089627,8.3677719 8.971723,10.427377 c 0.191941,0.02952 0.37651,0.0738 0.575719,0.0738 0.484576,0 1.041716,-0.147703 1.418286,-0.302668 l -0.193456,0.908005 c -0.553751,0.265785 -0.893225,0.287941 -1.22483,0.287941 -0.361627,0 -0.708585,-0.118187 -1.06299,-0.118187 -0.199345,0 -0.487276,0.01483 -0.66441,0.132915 L 7.436188,10.730046 9.621079,8.5670221 H 7.106595 L 6.62687,10.818656 H 5.578526 Z"
     class="ColorScheme-Text" />
  <path
     id="gradient-path1"
     style="opacity:0.3;baseline-shift:baseline;display:inline;overflow:visible;vector-effect:none;enable-background:accumulate;stop-color:#000000;stop-opacity:1;fill:url(#linearGradient4)"
     d="M 8.4453131 1.2753492 C 4.4913166 1.2753492 1.2794833 4.4784283 1.2794833 8.4236094 C 1.2794833 12.36879 4.4913166 15.572386 8.4453131 15.572386 C 12.39931 15.572386 15.611143 12.36879 15.611143 8.4236094 C 15.611143 4.4784283 12.39931 1.2753492 8.4453131 1.2753492 z " />
</svg>
