<?xml version='1.0' encoding='UTF-8'?>
<svg xmlns:inkscape="http://www.inkscape.org/namespaces/inkscape" xmlns:sodipodi="http://sodipodi.sourceforge.net/DTD/sodipodi-0.dtd" xmlns:xlink="http://www.w3.org/1999/xlink" xmlns="http://www.w3.org/2000/svg" xmlns:svg="http://www.w3.org/2000/svg" xmlns:rdf="http://www.w3.org/1999/02/22-rdf-syntax-ns#" xmlns:cc="http://creativecommons.org/ns#" xmlns:dc="http://purl.org/dc/elements/1.1/" width="64" height="64" version="1.1" viewBox="0 0 16.933 16.933" id="svg7" sodipodi:docname="firewall-config.svg" inkscape:version="1.4.2 (ebf0e940d0, 2025-05-08)">
  <sodipodi:namedview id="namedview7" pagecolor="#a9abb3" bordercolor="#000000" borderopacity="0.25" inkscape:showpageshadow="2" inkscape:pageopacity="0.0" inkscape:pagecheckerboard="0" inkscape:deskcolor="#d1d1d1" inkscape:zoom="4.3531261" inkscape:cx="36.066035" inkscape:cy="26.417797" inkscape:window-width="2560" inkscape:window-height="1372" inkscape:window-x="0" inkscape:window-y="0" inkscape:window-maximized="1" inkscape:current-layer="svg7" showgrid="false"/>
  <defs id="defs2">
    <filter style="color-interpolation-filters:sRGB;" inkscape:label="Blur" id="filter3" x="-0.10843471" y="-0.10870992" width="1.2168694" height="1.2174198">
      <feGaussianBlur stdDeviation="0.5 0.5" result="blur" id="feGaussianBlur3"/>
    </filter>
    <style id="current-color-scheme" type="text/css">.ColorScheme-Text {color:#d8dee9} .ColorScheme-Highlight {color:#3b4252}</style><linearGradient id="linearGradient3" inkscape:collect="always">
      <stop style="stop-color:#000000;stop-opacity:1;" offset="0" id="stop3"/>
      <stop style="stop-color:#000000;stop-opacity:0;" offset="1" id="stop4"/>
    </linearGradient>
    <linearGradient inkscape:collect="always" xlink:href="#linearGradient3" id="linearGradient4" x1="13.512321" y1="13.490874" x2="3.3783066" y2="3.3568602" gradientUnits="userSpaceOnUse"/>
  </defs>
  <metadata id="metadata2">
    <rdf:RDF>
      <cc:Work rdf:about="">
        <dc:format>image/svg+xml</dc:format>
        <dc:type rdf:resource="http://purl.org/dc/dcmitype/StillImage"/>
      </cc:Work>
    </rdf:RDF>
  </metadata>
  <ellipse style="opacity:1;fill:none;stroke:#000000;stroke-width:0.582072;stroke-dasharray:none;stroke-opacity:1;filter:url(#filter3)" id="path1-5" cx="8.4450111" cy="8.423522" rx="6.8752708" ry="6.8578653"/>
  <ellipse style="opacity:1;fill:none;stroke-width:0.58207188;stroke-opacity:1;stroke:currentColor;stroke-dasharray:none;fill-opacity:1" id="path1" cx="8.4450111" cy="8.423522" rx="6.8752708" ry="6.8578653" class="ColorScheme-Text"/>
  <ellipse style="fill:currentColor;stroke:none;stroke-width:0.285844;stroke-dasharray:none;stroke-opacity:1" id="path1-2" cx="8.4557552" cy="8.423522" rx="6.5738997" ry="6.5692253" class="ColorScheme-Highlight"/>
<path id="path2-2" style="fill:#000000;fill-opacity:1;stroke-width:0.0460839;opacity:0.3" d="m 8.4792085,4.2030881 c -0.08258,0 -0.936015,0.2613641 -1.896713,0.5807054 -1.503012,0.4996092 -1.758057,0.5970237 -1.825787,0.7003923 -0.06859,0.1046785 -0.07824,0.2565465 -0.07702,1.1819119 8.05e-4,0.6116012 0.02683,1.2478348 0.06151,1.4999703 0.382814,2.783162 1.493734,4.614996 3.324095,5.480681 0.16475,0.07792 0.336314,0.141277 0.381227,0.141297 0.241624,1.08e-4 1.145112,-0.525544 1.6279705,-0.947523 1.034981,-0.904503 1.775941,-2.469992 2.070695,-4.3746828 0.09863,-0.6373434 0.147937,-2.6864328 0.06926,-2.8763742 C 12.172806,5.4889295 12.085556,5.4154694 11.906367,5.3306976 11.519917,5.1478788 8.6483495,4.2030881 8.4792085,4.2030881 Z m -0.09088,2.485728 c 0.491543,-0.012005 1.002284,0.1791361 1.219038,0.5297274 0.130182,0.2105617 0.140811,0.2614555 0.156259,0.7480457 l 0.01662,0.5219697 h 0.151272 c 0.08317,0 0.2000395,0.039631 0.2598765,0.088103 0.108397,0.087799 0.10916,0.091913 0.10916,1.1043377 0,0.9139194 -0.0086,1.0248184 -0.08257,1.0987954 -0.07539,0.07541 -0.215059,0.08273 -1.6817195,0.09142 -0.879898,0.0053 -1.645186,-0.0088 -1.700558,-0.03158 -0.18004,-0.07413 -0.198927,-0.185297 -0.198927,-1.1747079 0,-0.9470275 2.58e-4,-0.9505534 0.113039,-1.0633331 0.06816,-0.068158 0.166497,-0.1130375 0.247132,-0.1130375 h 0.133541 l 0.02383,-0.5025768 c 0.02785,-0.5875558 0.118322,-0.8039473 0.437745,-1.0472638 0.213618,-0.16272 0.501327,-0.2426988 0.796254,-0.2499028 z m 0.08533,0.5657443 c -0.155557,-0.0011 -0.314931,0.033174 -0.454369,0.1052799 -0.210207,0.1087024 -0.2765,0.2846157 -0.2765,0.7347477 v 0.3939707 h 0.741951 0.741397 L 9.2100775,8.0535841 C 9.1950695,7.644908 9.1861155,7.6106988 9.0582525,7.4773118 8.9201985,7.3332991 8.7010185,7.2561722 8.4736685,7.2545604 Z"/>
  <path id="path2-2-6" style="fill:currentColor;fill-opacity:1;stroke-width:0.0460839" d="m 8.4792085,3.6740204 c -0.08258,0 -0.936015,0.2613641 -1.896713,0.5807054 -1.503012,0.4996091 -1.758057,0.5970237 -1.825787,0.7003923 -0.06859,0.1046785 -0.07824,0.2565465 -0.07702,1.1819119 8.05e-4,0.6116012 0.02683,1.2478348 0.06151,1.4999703 0.382814,2.7831627 1.493734,4.6149977 3.324095,5.4806817 0.16475,0.07792 0.336314,0.141277 0.381227,0.141298 0.241624,1.08e-4 1.145112,-0.525545 1.6279705,-0.947524 1.034981,-0.904503 1.775941,-2.469993 2.070695,-4.3746835 0.09863,-0.6373434 0.147937,-2.6864328 0.06926,-2.8763743 C 12.172806,4.9598618 12.085556,4.8864016 11.906367,4.8016299 11.519917,4.618811 8.6483495,3.6740204 8.4792085,3.6740204 Z m -0.09088,2.485728 c 0.491543,-0.012005 1.002284,0.1791361 1.219038,0.5297274 0.130182,0.2105617 0.140811,0.2614555 0.156259,0.7480457 l 0.01662,0.5219697 h 0.151272 c 0.08317,0 0.2000395,0.039631 0.2598765,0.088103 0.108397,0.087799 0.10916,0.091913 0.10916,1.1043377 0,0.9139191 -0.0086,1.0248181 -0.08257,1.0987951 -0.07539,0.07541 -0.215059,0.08273 -1.6817195,0.09142 -0.879898,0.0053 -1.645186,-0.0088 -1.700558,-0.03158 -0.18004,-0.07413 -0.198927,-0.185296 -0.198927,-1.1747076 0,-0.9470275 2.58e-4,-0.9505534 0.113039,-1.0633331 0.06816,-0.068158 0.166497,-0.1130375 0.247132,-0.1130375 h 0.133541 l 0.02383,-0.5025768 c 0.02785,-0.5875558 0.118322,-0.8039473 0.437745,-1.0472638 0.213618,-0.16272 0.501327,-0.2426988 0.796254,-0.2499028 z m 0.08533,0.5657443 c -0.155557,-0.0011 -0.314931,0.033174 -0.454369,0.1052799 -0.210207,0.1087024 -0.2765,0.2846157 -0.2765,0.7347477 V 7.959491 h 0.741951 0.741397 L 9.2100775,7.5245164 C 9.1950695,7.1158403 9.1861155,7.0816311 9.0582525,6.9482441 8.9201985,6.8042314 8.7010185,6.7271045 8.4736685,6.7254927 Z" class="ColorScheme-Text"/>
<path id="gradient-path1" style="opacity:0.3;baseline-shift:baseline;display:inline;overflow:visible;vector-effect:none;enable-background:accumulate;stop-color:#000000;stop-opacity:1;fill:url(#linearGradient4)" d="M 8.4453131 1.2753492 C 4.4913166 1.2753492 1.2794833 4.4784283 1.2794833 8.4236094 C 1.2794833 12.36879 4.4913166 15.572386 8.4453131 15.572386 C 12.39931 15.572386 15.611143 12.36879 15.611143 8.4236094 C 15.611143 4.4784283 12.39931 1.2753492 8.4453131 1.2753492 z "/>
</svg>
