<?xml version="1.0" encoding="UTF-8" standalone="no"?>
<svg
   width="64"
   height="64"
   version="1.1"
   viewBox="0 0 16.933 16.933"
   id="svg7"
   sodipodi:docname="fish.svg"
   inkscape:version="1.4.2 (ebf0e940d0, 2025-05-08)"
   xmlns:inkscape="http://www.inkscape.org/namespaces/inkscape"
   xmlns:sodipodi="http://sodipodi.sourceforge.net/DTD/sodipodi-0.dtd"
   xmlns:xlink="http://www.w3.org/1999/xlink"
   xmlns="http://www.w3.org/2000/svg"
   xmlns:svg="http://www.w3.org/2000/svg"
   xmlns:rdf="http://www.w3.org/1999/02/22-rdf-syntax-ns#"
   xmlns:cc="http://creativecommons.org/ns#"
   xmlns:dc="http://purl.org/dc/elements/1.1/">
  <sodipodi:namedview
     id="namedview7"
     pagecolor="#9c4444"
     bordercolor="#000000"
     borderopacity="0.25"
     inkscape:showpageshadow="2"
     inkscape:pageopacity="0.0"
     inkscape:pagecheckerboard="0"
     inkscape:deskcolor="#d1d1d1"
     inkscape:zoom="4.3531261"
     inkscape:cx="36.066035"
     inkscape:cy="25.958357"
     inkscape:window-width="2560"
     inkscape:window-height="1376"
     inkscape:window-x="0"
     inkscape:window-y="0"
     inkscape:window-maximized="1"
     inkscape:current-layer="svg7"
     showgrid="false" />
  <defs
     id="defs2">
    <filter
       style="color-interpolation-filters:sRGB;"
       inkscape:label="Blur"
       id="filter3"
       x="-0.10843471"
       y="-0.10870992"
       width="1.2168694"
       height="1.2174198">
      <feGaussianBlur
         stdDeviation="0.5 0.5"
         result="blur"
         id="feGaussianBlur3" />
    </filter>
    <style
       id="current-color-scheme"
       type="text/css">.ColorScheme-Text {color:#d8dee9} .ColorScheme-Highlight {color:#3b4252}</style>
    <linearGradient
       id="linearGradient3"
       inkscape:collect="always">
      <stop
         style="stop-color:#000000;stop-opacity:1;"
         offset="0"
         id="stop3" />
      <stop
         style="stop-color:#000000;stop-opacity:0;"
         offset="1"
         id="stop4" />
    </linearGradient>
    <linearGradient
       inkscape:collect="always"
       xlink:href="#linearGradient3"
       id="linearGradient4"
       x1="13.512321"
       y1="13.490874"
       x2="3.3783066"
       y2="3.3568602"
       gradientUnits="userSpaceOnUse" />
  </defs>
  <metadata
     id="metadata2">
    <rdf:RDF>
      <cc:Work
         rdf:about="">
        <dc:format>image/svg+xml</dc:format>
        <dc:type
           rdf:resource="http://purl.org/dc/dcmitype/StillImage" />
      </cc:Work>
    </rdf:RDF>
  </metadata>
  <ellipse
     style="opacity:1;fill:none;stroke:#000000;stroke-width:0.582072;stroke-dasharray:none;stroke-opacity:1;filter:url(#filter3)"
     id="path1-5"
     cx="8.4450111"
     cy="8.423522"
     rx="6.8752708"
     ry="6.8578653" />
  <ellipse
     style="opacity:1;fill:none;stroke-width:0.58207188;stroke-opacity:1;stroke:currentColor;stroke-dasharray:none;fill-opacity:1"
     id="path1"
     cx="8.4450111"
     cy="8.423522"
     rx="6.8752708"
     ry="6.8578653"
     class="ColorScheme-Text" />
  <ellipse
     style="fill:currentColor;stroke:none;stroke-width:0.285844;stroke-dasharray:none;stroke-opacity:1"
     id="path1-2"
     cx="8.4557552"
     cy="8.423522"
     rx="6.5738997"
     ry="6.5692253"
     class="ColorScheme-Highlight" />
  <path
     id="rect9"
     style="opacity:0.3;fill:#000000;fill-opacity:1;stroke:none;stroke-width:0.0103101;stroke-linejoin:bevel;paint-order:fill markers stroke"
     d="m 5.160136,6.1286877 c -0.366918,0 -0.662308,0.2953892 -0.662308,0.6623077 v 4.4095206 c 0,0.366918 0.29539,0.662307 0.662308,0.662307 h 6.612728 c 0.366918,0 0.662308,-0.295389 0.662308,-0.662307 V 6.7909954 c 0,-0.3669185 -0.29539,-0.6623077 -0.662308,-0.6623077 z M 7.83291,6.7529644 H 8.000815 8.168462 L 8.557826,7.1531949 9.015491,7.6237955 8.767385,7.6225024 8.619401,7.6217222 8.296008,7.3283406 C 8.166738,7.2111642 8.049061,7.108915 7.99978,7.0696247 7.99538,7.0728947 7.99038,7.0765547 7.98503,7.0807487 7.96143,7.0991947 7.93006,7.1256767 7.8981,7.1547407 7.83248,7.2144087 7.692436,7.3414239 7.586607,7.4367389 L 7.379638,7.6230131 H 7.232171 L 6.98484,7.623278 7.443023,7.1531947 Z M 7.270984,7.7068427 c 0.144821,0.00122 0.301166,0.012922 0.394797,0.035185 0.228704,0.054383 0.469124,0.15357 0.692836,0.2858789 l 0.117455,0.069594 v 0.109436 c 0,0.02254 -5.5e-4,0.043858 -0.0013,0.059504 -3.05e-4,0.00636 -0.0012,0.024229 -0.0042,0.034409 -9.39e-4,0.00332 -0.01175,0.037255 -0.04864,0.037255 -0.0118,0 -0.02118,-0.00468 -0.02173,-0.00492 C 8.385262,8.3269246 8.309952,8.2906366 8.258943,8.2656596 8.186281,8.2300809 8.062346,8.1776447 7.98963,8.1515668 7.742804,8.0630459 7.512692,8.0183242 7.282306,8.0160008 7.05192,8.0136808 6.820831,8.0536778 6.572136,8.1373377 6.496296,8.1628507 6.361228,8.2183157 6.278755,8.2576396 L 6.052372,8.3655233 V 8.204345 c 0,-0.066268 -0.0026,-0.1050448 0.07373,-0.1549697 0.03955,-0.025862 0.112146,-0.062063 0.214732,-0.1143515 0.183655,-0.09361 0.351329,-0.1554258 0.540712,-0.1994687 0.09045,-0.021031 0.244594,-0.029897 0.389365,-0.028717 z m 3.890539,0.3329649 c 0.206362,2.781e-4 0.23218,0.00448 0.32391,0.040359 0.133927,0.052373 0.223415,0.1152538 0.278894,0.2054189 0.06724,0.1092813 0.08394,0.1775389 0.07684,0.3122676 -0.0098,0.1855436 -0.07444,0.2844326 -0.248624,0.3821205 -0.0077,0.00434 -0.01527,0.00861 -0.02225,0.012936 0.01388,0.00794 0.0298,0.016634 0.04657,0.025095 0.12351,0.062317 0.183452,0.125899 0.239052,0.2532809 0.02629,0.060227 0.03062,0.1006889 0.02664,0.2346535 -0.0041,0.1365208 -0.01121,0.1753994 -0.04553,0.2486241 -0.02219,0.047323 -0.06667,0.1122059 -0.102193,0.147726 -0.08602,0.086011 -0.250748,0.1648209 -0.385483,0.1888609 -0.121411,0.02166 -0.347894,0.02368 -0.470601,0.0044 -0.04472,-0.007 -0.129082,-0.02659 -0.187827,-0.04294 l -0.143326,-0.03984 V 9.8676225 9.6834181 l 0.131944,0.058211 c 0.127247,0.056288 0.283729,0.08323 0.426619,0.079943 0.07145,-0.00159 0.139359,-0.01067 0.198434,-0.02665 0.05907,-0.01597 0.109145,-0.038975 0.14488,-0.066231 0.0717,-0.054688 0.111195,-0.1414626 0.115127,-0.2318077 0.0039,-0.090344 -0.02794,-0.1818 -0.09495,-0.2444841 -0.07563,-0.070742 -0.173608,-0.1026468 -0.382896,-0.1133166 l -0.2093,-0.010607 V 9.0027418 8.8764895 l 0.224822,-0.010349 c 0.139025,-0.00665 0.232418,-0.025348 0.29183,-0.056141 0.02971,-0.015397 0.05129,-0.033312 0.06908,-0.055882 0.01779,-0.022571 0.03172,-0.050286 0.04294,-0.085893 0.01447,-0.045891 0.01666,-0.088891 0.0083,-0.1288394 -0.0084,-0.039948 -0.0273,-0.077187 -0.05821,-0.1115058 -0.116808,-0.1296857 -0.361554,-0.1507038 -0.764759,-0.028976 -0.03238,0.00978 -0.07123,4.24e-5 -0.08305,-0.046569 -0.0054,-0.021508 -0.0057,-0.05889 -0.0057,-0.096242 v -0.142552 l 0.18731,-0.040618 c 0.123976,-0.02694 0.194891,-0.033381 0.371512,-0.033116 z M 8.554204,8.1735627 8.772042,8.3683743 c 0.07363,0.065915 0.256125,0.2284292 0.405404,0.3611645 l 0.288207,0.2563856 v 0.099087 0.099087 L 9.225567,9.397796 C 9.102716,9.5071539 8.920351,9.6697941 8.820162,9.7589608 L 8.554204,9.9951673 V 9.7271398 9.5481099 L 8.83258,9.3018141 C 8.933802,9.2121761 9.023757,9.1267858 9.063354,9.0850118 9.023764,9.0431988 8.933825,8.9577076 8.83258,8.8679508 L 8.554204,8.6213965 V 8.4423663 Z m 1.891458,7.802e-4 0.007,0.257679 0.0049,0.1725623 -0.09055,0.084341 c -0.04146,0.038524 -0.160909,0.1448873 -0.262854,0.2343948 -0.06767,0.059419 -0.128774,0.1186584 -0.158333,0.1505716 0.03826,0.04069 0.126956,0.1249454 0.231032,0.217061 l 0.277599,0.2460369 7.95e-4,0.1767016 c 1.18e-4,0.048241 -3.96e-4,0.1392257 -0.0031,0.1593676 -1.72e-4,0.0013 -7.95e-4,0.01231 -0.0091,0.024057 -0.0047,0.00672 -0.01891,0.022417 -0.04346,0.021218 -0.02102,-0.00108 -0.03566,-0.016291 -0.03596,-0.016558 -0.03455,-0.029309 -0.208103,-0.182623 -0.40129,-0.3546929 L 9.541672,9.172465 l 0.0054,-0.1032269 0.0052,-0.099864 0.414201,-0.3686673 z m -4.543017,0.063385 h 2.65e-4 2.65e-4 0.05019 v 0.043464 c 0.0053,0.024744 0.007,0.106886 0.007,0.1562631 V 8.6097586 L 5.67551,8.8632928 c -0.07337,0.065277 -0.140105,0.1263826 -0.188085,0.1720447 -0.01903,0.018105 -0.03514,0.033755 -0.04734,0.046051 0.0613,0.049665 0.220826,0.1913738 0.253539,0.2204244 l 0.264664,0.235171 0.0011,0.1767016 c 2.92e-4,0.048129 2.38e-4,0.1388284 -0.0026,0.1596263 -1.84e-4,0.00137 -0.0066,0.045527 -0.05019,0.045527 -0.02222,0 -0.03796,-0.016284 -0.03829,-0.016558 C 5.834518,9.8737518 5.654138,9.7139355 5.467561,9.5475872 L 5.04889,9.1745269 V 9.0715588 c 0,-0.084349 0.01069,-0.1130446 0.05226,-0.1451387 C 5.1238,8.9089351 5.379334,8.6840169 5.67446,8.4188234 5.75014,8.3508164 5.845773,8.2669479 5.869789,8.2496246 c 0.001,-7.369e-4 0.01358,-0.0119 0.03285,-0.0119 z M 6.2175,8.7737832 H 6.343235 6.46897 v 0.146433 0.1464321 H 6.343235 6.2175 V 8.920216 Z m 2.258572,0.9939785 v 0.1635023 0.113058 l -0.125476,0.07089 c -0.140749,0.08025 -0.376456,0.190939 -0.486641,0.226634 -0.05167,0.01674 -0.155437,0.04296 -0.228961,0.05795 -0.328617,0.06704 -0.712044,0.03941 -1.018299,-0.07348 C 6.494379,10.281227 6.266561,10.173021 6.149458,10.1046 L 6.052438,10.04794 V 9.9372079 c 0,-0.010562 -7.95e-4,-0.058271 0.0047,-0.08719 v -0.04502 h 2.65e-4 v -2.65e-4 h 0.05019 2.65e-4 c 0.01242,0 0.02068,0.0043 0.02147,0.0047 0.01707,0.00679 0.103209,0.047218 0.161438,0.07503 0.18024,0.08608 0.386714,0.1568941 0.580555,0.1989511 0.08892,0.01929 0.23012,0.03081 0.371253,0.03208 0.141133,0.0013 0.284041,-0.0076 0.376688,-0.02536 0.171409,-0.03281 0.465173,-0.1322272 0.636953,-0.215767 z M 6.61592,10.478447 h 0.18084 0.180842 v 0.160919 c 0,0.07957 0.01138,0.150102 0.05304,0.311492 0.02384,0.09239 0.0502,0.196021 0.05484,0.217061 1.46e-4,6.67e-4 0.0021,0.0082 0.0021,0.01449 v 2.65e-4 0.05019 h -0.04295 c -0.02763,0.0063 -0.07067,0.0057 -0.08175,0.0057 h -0.1053 L 6.732624,10.996152 6.615943,10.769777 v -0.126769 z" />
  <path
     id="rect9-7"
     class="ColorScheme-Text"
     style="fill:currentColor;fill-opacity:1;stroke:none;stroke-width:0.0103101;stroke-linejoin:bevel;paint-order:fill markers stroke"
     d="m 5.160136,5.5994325 c -0.366918,0 -0.662308,0.295389 -0.662308,0.662308 V 10.67126 c 0,0.366918 0.29539,0.662307 0.662308,0.662307 h 6.612728 c 0.366918,0 0.662308,-0.295389 0.662308,-0.662307 V 6.2617405 c 0,-0.366919 -0.29539,-0.662308 -0.662308,-0.662308 z m 2.672774,0.624277 h 0.167905 0.167647 l 0.389364,0.40023 0.457665,0.470601 -0.248106,-0.0013 -0.147984,-7.81e-4 -0.323393,-0.293381 C 8.166738,6.6819015 8.049061,6.5796525 7.99978,6.5403625 c -0.0044,0.0033 -0.0094,0.0069 -0.01475,0.01112 -0.0236,0.01845 -0.05497,0.04493 -0.08693,0.07399 -0.06562,0.05967 -0.205664,0.186683 -0.311493,0.281998 L 7.379638,7.0937575 H 7.232171 l -0.247331,2.65e-4 0.458183,-0.470083 z m -0.561926,0.953878 c 0.144821,0.0012 0.301166,0.01292 0.394797,0.03519 0.228704,0.05438 0.469124,0.15357 0.692836,0.285879 l 0.117455,0.06959 v 0.109436 c 0,0.02254 -5.5e-4,0.04386 -0.0013,0.0595 -3.05e-4,0.0064 -0.0012,0.02423 -0.0042,0.03441 -9.39e-4,0.0033 -0.01175,0.03725 -0.04864,0.03725 -0.0118,0 -0.02118,-0.0047 -0.02173,-0.0049 -0.01494,-0.0063 -0.09025,-0.04255 -0.141259,-0.06752 -0.07266,-0.03558 -0.196597,-0.08802 -0.269313,-0.114093 -0.246826,-0.08852 -0.476938,-0.133243 -0.707324,-0.135566 -0.230386,-0.0023 -0.461475,0.03768 -0.71017,0.121337 -0.07584,0.02551 -0.210908,0.08098 -0.293381,0.120302 l -0.226383,0.107883 v -0.161178 c 0,-0.06627 -0.0026,-0.105045 0.07373,-0.15497 0.03955,-0.02586 0.112146,-0.06206 0.214732,-0.114351 0.183655,-0.09361 0.351329,-0.155426 0.540712,-0.199469 0.09045,-0.02103 0.244594,-0.0299 0.389365,-0.02872 z m 3.890539,0.332965 c 0.206362,2.78e-4 0.23218,0.0045 0.32391,0.04036 0.133927,0.05237 0.223415,0.115254 0.278894,0.205419 0.06724,0.109281 0.08394,0.177539 0.07684,0.312267 -0.0098,0.185544 -0.07444,0.284433 -0.248624,0.382121 -0.0077,0.0043 -0.01527,0.0086 -0.02225,0.01294 0.01388,0.0079 0.0298,0.01663 0.04657,0.0251 0.12351,0.06232 0.183452,0.125899 0.239052,0.253281 0.02629,0.06023 0.03062,0.100689 0.02664,0.234653 -0.0041,0.136521 -0.01121,0.1754 -0.04553,0.248624 -0.02219,0.04732 -0.06667,0.112206 -0.102193,0.147726 -0.08602,0.08601 -0.250748,0.164822 -0.385483,0.188862 -0.121411,0.02166 -0.347894,0.02368 -0.470601,0.0044 -0.04472,-0.007 -0.129082,-0.02659 -0.187827,-0.04294 l -0.143326,-0.03985 v -0.145148 -0.184205 l 0.131944,0.05821 c 0.127247,0.05629 0.283729,0.08323 0.426619,0.07994 0.07145,-0.0016 0.139359,-0.01067 0.198434,-0.02665 0.05907,-0.01597 0.109145,-0.03898 0.14488,-0.06623 0.0717,-0.05469 0.111195,-0.141462 0.115127,-0.231807 0.0039,-0.09034 -0.02794,-0.1818 -0.09495,-0.244485 -0.07563,-0.07074 -0.173608,-0.102646 -0.382896,-0.113316 l -0.2093,-0.01061 v -0.125734 -0.126252 l 0.224822,-0.01035 c 0.139025,-0.0067 0.232418,-0.02535 0.29183,-0.05614 0.02971,-0.0154 0.05129,-0.03331 0.06908,-0.05588 0.01779,-0.02257 0.03172,-0.05029 0.04294,-0.08589 0.01447,-0.04589 0.01666,-0.08889 0.0083,-0.12884 -0.0084,-0.03995 -0.0273,-0.07719 -0.05821,-0.111506 -0.116808,-0.129685 -0.361554,-0.150703 -0.764759,-0.02898 -0.03238,0.0098 -0.07123,4.3e-5 -0.08305,-0.04657 -0.0054,-0.02151 -0.0057,-0.05889 -0.0057,-0.09624 v -0.142552 l 0.18731,-0.04062 c 0.123976,-0.02694 0.194891,-0.03338 0.371512,-0.03311 z m -2.607319,0.133755 0.217838,0.194812 c 0.07363,0.06592 0.256125,0.228429 0.405404,0.361164 l 0.288207,0.256386 v 0.09909 0.09909 l -0.240086,0.213697 c -0.122851,0.109358 -0.305216,0.271998 -0.405405,0.361165 l -0.265958,0.236206 v -0.268027 -0.17903 L 8.83258,8.7725645 C 8.933802,8.6829245 9.023757,8.5975365 9.063354,8.5557625 9.023764,8.5139525 8.933825,8.4284585 8.83258,8.3387015 L 8.554204,8.0921475 v -0.17903 z m 1.891458,7.8e-4 0.007,0.257679 0.0049,0.172562 -0.09055,0.08434 c -0.04146,0.03852 -0.160909,0.144888 -0.262854,0.234395 -0.06767,0.05942 -0.128774,0.118659 -0.158333,0.150572 0.03826,0.04069 0.126956,0.124945 0.231032,0.217061 l 0.277599,0.246037 7.95e-4,0.176701 c 1.18e-4,0.04824 -3.96e-4,0.139226 -0.0031,0.159368 -1.72e-4,0.0013 -7.95e-4,0.01231 -0.0091,0.02406 -0.0047,0.0067 -0.01891,0.02242 -0.04346,0.02122 -0.02102,-0.0011 -0.03566,-0.01629 -0.03596,-0.01656 -0.03455,-0.02931 -0.208103,-0.182623 -0.40129,-0.354693 l -0.420669,-0.374618 0.0054,-0.103227 0.0052,-0.09986 0.414201,-0.368667 z m -4.543017,0.06339 h 2.65e-4 2.65e-4 0.05019 v 0.04346 c 0.0053,0.02474 0.007,0.106886 0.007,0.156263 v 0.172304 L 5.67551,8.3340385 c -0.07337,0.06528 -0.140105,0.126383 -0.188085,0.172045 -0.01903,0.0181 -0.03514,0.03375 -0.04734,0.04605 0.0613,0.04967 0.220826,0.191374 0.253539,0.220424 l 0.264664,0.235171 0.0011,0.176702 c 2.92e-4,0.04813 2.38e-4,0.138828 -0.0026,0.159626 -1.84e-4,0.0014 -0.0066,0.04553 -0.05019,0.04553 -0.02222,0 -0.03796,-0.01628 -0.03829,-0.01656 -0.03379,-0.02853 -0.21417,-0.188345 -0.400747,-0.354694 L 5.04889,8.6452725 v -0.102968 c 0,-0.08435 0.01069,-0.113045 0.05226,-0.145139 0.02265,-0.01749 0.278184,-0.242403 0.57331,-0.507596 0.07568,-0.06801 0.171313,-0.151876 0.195329,-0.169199 0.001,-7.37e-4 0.01358,-0.0119 0.03285,-0.0119 z M 6.2175,8.2445325 H 6.343235 6.46897 v 0.146433 0.146433 H 6.343235 6.2175 v -0.146433 z m 2.258572,0.993979 v 0.163502 0.113058 l -0.125476,0.07089 c -0.140749,0.08025 -0.376456,0.190939 -0.486641,0.226634 -0.05167,0.01674 -0.155437,0.04296 -0.228961,0.05795 -0.328617,0.06704 -0.712044,0.03941 -1.018299,-0.07348 -0.122316,-0.04509 -0.350134,-0.1533 -0.467237,-0.221721 l -0.09702,-0.05666 v -0.110732 c 0,-0.01056 -7.95e-4,-0.05827 0.0047,-0.08719 v -0.04502 h 2.65e-4 v -2.65e-4 h 0.05019 2.65e-4 c 0.01242,0 0.02068,0.0043 0.02147,0.0047 0.01707,0.0068 0.103209,0.04722 0.161438,0.07503 0.18024,0.08608 0.386714,0.156894 0.580555,0.198952 0.08892,0.01929 0.23012,0.03081 0.371253,0.03208 0.141133,0.0013 0.284041,-0.0076 0.376688,-0.02536 0.171409,-0.03281 0.465173,-0.132228 0.636953,-0.215768 z M 6.61592,9.9491975 h 0.18084 0.180842 v 0.1609185 c 0,0.07957 0.01138,0.150102 0.05304,0.311492 0.02384,0.09239 0.0502,0.196022 0.05484,0.217061 1.46e-4,6.67e-4 0.0021,0.0082 0.0021,0.01449 v 2.64e-4 0.05019 h -0.04295 c -0.02763,0.0063 -0.07067,0.0057 -0.08175,0.0057 h -0.1053 L 6.732624,10.466896 6.615943,10.24052 v -0.126769 z" />
  <path
     id="gradient-path1"
     style="opacity:0.3;baseline-shift:baseline;display:inline;overflow:visible;vector-effect:none;enable-background:accumulate;stop-color:#000000;stop-opacity:1;fill:url(#linearGradient4)"
     d="M 8.4453131 1.2753492 C 4.4913166 1.2753492 1.2794833 4.4784283 1.2794833 8.4236094 C 1.2794833 12.36879 4.4913166 15.572386 8.4453131 15.572386 C 12.39931 15.572386 15.611143 12.36879 15.611143 8.4236094 C 15.611143 4.4784283 12.39931 1.2753492 8.4453131 1.2753492 z " />
</svg>
