<?xml version="1.0" encoding="UTF-8" standalone="no"?>
<svg
   width="64"
   height="64"
   version="1.1"
   viewBox="0 0 16.933 16.933"
   id="svg7"
   sodipodi:docname="floorp.svg"
   inkscape:version="1.4.2 (ebf0e940d0, 2025-05-08)"
   xmlns:inkscape="http://www.inkscape.org/namespaces/inkscape"
   xmlns:sodipodi="http://sodipodi.sourceforge.net/DTD/sodipodi-0.dtd"
   xmlns:xlink="http://www.w3.org/1999/xlink"
   xmlns="http://www.w3.org/2000/svg"
   xmlns:svg="http://www.w3.org/2000/svg"
   xmlns:rdf="http://www.w3.org/1999/02/22-rdf-syntax-ns#"
   xmlns:cc="http://creativecommons.org/ns#"
   xmlns:dc="http://purl.org/dc/elements/1.1/">
  <sodipodi:namedview
     id="namedview7"
     pagecolor="#9c4444"
     bordercolor="#000000"
     borderopacity="0.25"
     inkscape:showpageshadow="2"
     inkscape:pageopacity="0.0"
     inkscape:pagecheckerboard="0"
     inkscape:deskcolor="#d1d1d1"
     inkscape:zoom="8.7062522"
     inkscape:cx="72.419221"
     inkscape:cy="15.276378"
     inkscape:window-width="2560"
     inkscape:window-height="1388"
     inkscape:window-x="0"
     inkscape:window-y="0"
     inkscape:window-maximized="1"
     inkscape:current-layer="svg7"
     showgrid="false" />
  <defs
     id="defs2">
    <filter
       style="color-interpolation-filters:sRGB;"
       inkscape:label="Blur"
       id="filter3"
       x="-0.10843471"
       y="-0.10870992"
       width="1.2168694"
       height="1.2174198">
      <feGaussianBlur
         stdDeviation="0.5 0.5"
         result="blur"
         id="feGaussianBlur3" />
    </filter>
    <style
       id="current-color-scheme"
       type="text/css">.ColorScheme-Text {color:#d8dee9} .ColorScheme-Highlight {color:#3b4252}</style>
    <linearGradient
       id="linearGradient3"
       inkscape:collect="always">
      <stop
         style="stop-color:#000000;stop-opacity:1;"
         offset="0"
         id="stop3" />
      <stop
         style="stop-color:#000000;stop-opacity:0;"
         offset="1"
         id="stop4" />
    </linearGradient>
    <linearGradient
       inkscape:collect="always"
       xlink:href="#linearGradient3"
       id="linearGradient4"
       x1="13.512321"
       y1="13.490874"
       x2="3.3783066"
       y2="3.3568602"
       gradientUnits="userSpaceOnUse" />
  </defs>
  <metadata
     id="metadata2">
    <rdf:RDF>
      <cc:Work
         rdf:about="">
        <dc:format>image/svg+xml</dc:format>
        <dc:type
           rdf:resource="http://purl.org/dc/dcmitype/StillImage" />
      </cc:Work>
    </rdf:RDF>
  </metadata>
  <ellipse
     style="opacity:1;fill:none;stroke:#000000;stroke-width:0.582072;stroke-dasharray:none;stroke-opacity:1;filter:url(#filter3)"
     id="path1-5"
     cx="8.4450111"
     cy="8.423522"
     rx="6.8752708"
     ry="6.8578653" />
  <ellipse
     style="opacity:1;fill:none;stroke-width:0.58207188;stroke-opacity:1;stroke:currentColor;stroke-dasharray:none;fill-opacity:1"
     id="path1"
     cx="8.4450111"
     cy="8.423522"
     rx="6.8752708"
     ry="6.8578653"
     class="ColorScheme-Text" />
  <ellipse
     style="fill:currentColor;stroke:none;stroke-width:0.285844;stroke-dasharray:none;stroke-opacity:1"
     id="path1-2"
     cx="8.4557552"
     cy="8.423522"
     rx="6.5738997"
     ry="6.5692253"
     class="ColorScheme-Highlight" />
  <path
     id="path5"
     style="opacity:0.3;fill:#000000;fill-opacity:1;stroke:none;stroke-width:0.0135326"
     d="m 7.1309145,5.0269844 c -0.700903,0 -1.026019,0.1194439 -1.403837,0.7738457 l -1.385823,2.4094401 c 0,0 -0.262341,0.3385664 -0.262341,0.7843958 0,0.4458288 0.262341,0.7885465 0.262341,0.7885465 l 1.389822,2.4072315 c 0.377819,0.654403 0.702934,0.773884 1.403837,0.773884 h 2.663174 c 0.7009035,0 1.0260165,-0.119481 1.4038365,-0.773884 l 1.389822,-2.4072315 c 0,0 0.26234,-0.3427177 0.26234,-0.7885465 0,-0.4458294 -0.26234,-0.7843958 -0.26234,-0.7843958 L 11.205923,5.8008301 C 10.828105,5.1464283 10.50299,5.0269844 9.8020865,5.0269844 Z m 0.01025,0.7256662 c 0.01675,1.693e-4 0.03359,5.084e-4 0.05065,0.00102 h 2.550932 0.004 c 0.3377815,-0.00851 0.6148655,0.043885 0.8426675,0.4384539 l 0.40768,0.706089 c 0.173286,0.3001392 0.02744,0.5562351 -0.207648,0.6136149 l 0.464163,0.8038578 h 0.264892 c 0.237936,0 0.572021,0.1924941 0.571034,0.6666311 -2.95e-4,0.180223 -0.03589,0.2848347 -0.114452,0.420896 l -0.236061,0.4091275 -0.0046,0.00689 C 11.658842,9.9346496 11.532887,10.09334 11.267443,10.09334 h -0.255104 l -0.386999,0.670288 -0.496384,0.859731 -3.8e-5,3.8e-5 c -0.0029,0.0051 -0.006,0.01012 -0.0093,0.01497 h -3.8e-5 v 3.8e-5 3.8e-5 l -3.8e-5,3.8e-5 c -10e-4,0.0015 -0.0021,0.0029 -0.0031,0.0044 -1.48e-4,1.47e-4 -2.29e-4,2.36e-4 -3.03e-4,3.83e-4 -0.002,0.003 -0.0041,0.006 -0.0062,0.0088 -0.0018,0.0024 -0.0037,0.0047 -0.0055,0.007 -0.0016,0.0019 -0.0032,0.0039 -0.0048,0.0058 h -3.7e-5 v 3.8e-5 l -3.8e-5,3.8e-5 c -0.0021,0.0024 -0.0042,0.0048 -0.0064,0.0072 l -3.02e-4,2.66e-4 c -0.0014,0.0015 -0.0027,0.003 -0.0041,0.0045 -7.4e-5,7.4e-5 -1.62e-4,1.55e-4 -2.29e-4,2.28e-4 -0.0023,0.0023 -0.0045,0.0046 -0.0069,0.0068 l -3.48e-4,3.84e-4 c -0.0014,0.0013 -0.0028,0.0027 -0.0042,0.0039 -0.0025,0.0023 -0.005,0.0044 -0.0076,0.0065 l -3.8e-5,3.7e-5 c -5.38e-4,4.5e-4 -0.0011,9.06e-4 -0.0016,0.0014 -0.0011,9.06e-4 -0.0022,0.0018 -0.0033,0.0027 h -3.8e-5 v 3.8e-5 h -3.8e-5 v 3.9e-5 c -0.0024,0.0019 -0.0047,0.0036 -0.0071,0.0054 -0.0015,0.0011 -0.0031,0.0022 -0.0046,0.0033 -3.62e-4,2.21e-4 -6.8e-4,5.01e-4 -10e-4,7.36e-4 l -3.8e-5,3.8e-5 -3.8e-5,3.8e-5 h -3.9e-5 c -1.8e-5,10e-6 -9.5e-5,6.3e-5 -1.17e-4,7.4e-5 -2.51e-4,1.47e-4 -5.46e-4,3.83e-4 -8.49e-4,5.31e-4 -0.0021,0.0014 -0.0042,0.0028 -0.0063,0.0041 -7.4e-5,7.3e-5 -2.28e-4,1.61e-4 -3.02e-4,2.28e-4 -0.0021,0.0013 -0.0042,0.0025 -0.0063,0.0037 l -3.8e-5,3.8e-5 h -3.8e-5 l -3.8e-5,3.9e-5 h -3.9e-5 c -0.0022,0.0012 -0.0042,0.0024 -0.0064,0.0036 -1.48e-4,7.3e-5 -1.99e-4,9.5e-5 -3.46e-4,1.55e-4 -0.0025,0.0014 -0.005,0.0027 -0.0076,0.0039 l -3.8e-5,3.8e-5 -3.8e-5,3.8e-5 c -3.8e-5,2.4e-5 -1.25e-4,6.1e-5 -1.55e-4,7.4e-5 -4.12e-4,2.21e-4 -7.92e-4,3.9e-4 -0.0012,6.22e-4 -0.0016,7.36e-4 -0.0032,0.0015 -0.0048,0.0022 h -3.8e-5 -3.8e-5 c -1.4e-5,6e-6 -6.3e-5,3.2e-5 -7.4e-5,3.8e-5 h -3.7e-5 l -3.9e-5,3.8e-5 -3.8e-5,3.9e-5 -3.8e-5,3.8e-5 c -0.0027,0.0012 -0.0054,0.0023 -0.0082,0.0035 v 3.8e-5 h -3.9e-5 -3.8e-5 c -0.002,7.92e-4 -0.0039,0.0015 -0.0059,0.0023 -0.0031,0.0012 -0.0063,0.0023 -0.0095,0.0033 -0.0018,5.66e-4 -0.0036,0.0011 -0.0055,0.0016 -1.4e-4,5.4e-5 -3.68e-4,1.1e-4 -4.94e-4,1.55e-4 -0.0032,9.06e-4 -0.0063,0.0018 -0.0096,0.0026 -0.002,4.86e-4 -0.004,9.06e-4 -0.0059,0.0014 -1.8e-5,0 -6e-5,-10e-7 -7.4e-5,0 -8.8e-5,1.4e-5 -1.91e-4,5.5e-5 -3.02e-4,7.4e-5 -0.0019,4.05e-4 -0.0037,7.92e-4 -0.0055,0.0011 -0.0013,2.88e-4 -0.0025,5.66e-4 -0.0038,7.92e-4 l -3.8e-5,3.8e-5 -3.7e-5,-3.8e-5 h -3.9e-5 -3.8e-5 c -0.0024,4.43e-4 -0.0049,8.49e-4 -0.0074,0.0012 -2.21e-4,2.7e-5 -3.53e-4,4.8e-5 -5.66e-4,7.4e-5 -0.0027,3.98e-4 -0.0053,8.49e-4 -0.008,0.0011 -1.47e-4,1.1e-5 -2.28e-4,2.7e-5 -3.02e-4,3.8e-5 -0.0036,4.35e-4 -0.0072,7.36e-4 -0.01078,0.001 -1.48e-4,1.1e-5 -3.09e-4,2.6e-5 -4.57e-4,3.8e-5 h -3.8e-5 c -0.0018,1.48e-4 -0.0037,3.84e-4 -0.0055,4.57e-4 -0.0028,2.21e-4 -0.0057,2.29e-4 -0.0085,3.02e-4 -0.0031,7.4e-5 -0.0061,2.66e-4 -0.0092,2.66e-4 H 9.721076 v 3.8e-5 H 9.129647 7.506697 v 0.05226 c 0,0.233011 -0.177019,0.439216 -0.464239,0.439216 -0.450978,0 -0.662307,-0.367791 -0.681599,-0.401206 L 5.297627,9.9979547 5.055967,9.5791913 c -0.295345,-0.5115509 -0.29404,-0.6450385 0,-1.1543314 L 5.937369,6.8982693 6.345011,6.1921797 C 6.559604,5.8204933 6.822685,5.7494658 7.141213,5.7527358 Z m -0.0031,0.2947908 c -0.241221,-0.00249 -0.389817,0.035723 -0.537785,0.2920109 l -0.407641,0.706089 -0.881441,1.5266291 c -0.23928,0.414446 -0.240092,0.4437265 0,0.8595786 l 0.241736,0.4187246 1.063191,1.8414924 c 0.01372,0.02375 0.148246,0.253771 0.426304,0.253771 0.124846,0 0.16941,-0.07231 0.16941,-0.144348 V 10.084136 9.9232579 c 0,-0.094721 0.04324,-0.1238199 0.146177,-0.1238199 v -0.00102 h 3.9094835 c 0.118494,0 0.167307,-0.05982 0.220293,-0.14073 L 11.71978,9.2558352 C 11.77506,9.1600902 11.79456,9.1017779 11.79477,8.9816873 11.79545,8.6633166 11.582966,8.6104181 11.518451,8.6104181 H 7.3580135 c -0.102937,0 -0.146177,-0.02914 -0.146177,-0.1238581 V 8.3257199 7.5136732 7.3527951 c 0,-0.094721 0.04324,-0.1238197 0.146177,-0.1238197 h 3.3303755 c 0.06511,0 0.134918,-0.042226 0.0534,-0.1834256 L 10.334147,6.3394608 C 10.176316,6.0660884 10.01776,6.0408499 9.7468505,6.0484405 h -2.559271 c -0.01693,-5.015e-4 -0.03343,-8.491e-4 -0.04951,-0.00102 z" />
  <path
     id="path5-7"
     style="fill:currentColor;fill-opacity:1;stroke:none;stroke-width:0.0135326"
     d="m 7.1309145,4.4978281 c -0.700903,0 -1.026019,0.1194439 -1.403837,0.7738457 l -1.385823,2.4094401 c 0,0 -0.262341,0.3385664 -0.262341,0.7843958 0,0.4458288 0.262341,0.7885465 0.262341,0.7885465 l 1.389822,2.4072318 c 0.377819,0.654403 0.702934,0.773884 1.403837,0.773884 h 2.663174 c 0.7009025,0 1.0260165,-0.119481 1.4038365,-0.773884 l 1.389822,-2.4072318 c 0,0 0.26234,-0.3427177 0.26234,-0.7885465 0,-0.4458294 -0.26234,-0.7843958 -0.26234,-0.7843958 L 11.205923,5.2716738 C 10.828105,4.617272 10.502989,4.4978281 9.8020865,4.4978281 Z m 0.01025,0.7256662 c 0.01675,1.693e-4 0.03359,5.084e-4 0.05065,0.00102 h 2.550932 0.004 c 0.3377815,-0.00851 0.6148645,0.043885 0.8426675,0.4384539 l 0.40768,0.706089 c 0.173286,0.3001392 0.02744,0.5562351 -0.207648,0.6136149 l 0.464162,0.8038578 H 11.5185 c 0.237937,0 0.572022,0.1924941 0.571035,0.6666311 -2.95e-4,0.180223 -0.03589,0.2848347 -0.114452,0.420896 l -0.236061,0.4091275 -0.0046,0.00689 c -0.07558,0.1154188 -0.201535,0.2741097 -0.46698,0.2741097 h -0.255104 l -0.386999,0.6702878 -0.496384,0.859731 -3.8e-5,3.8e-5 c -0.0029,0.0051 -0.006,0.01012 -0.0093,0.01497 h -3.8e-5 v 3.8e-5 3.8e-5 l -3.8e-5,3.8e-5 c -10e-4,0.0015 -0.0021,0.0029 -0.0031,0.0044 -1.48e-4,1.47e-4 -2.29e-4,2.35e-4 -3.03e-4,3.83e-4 -0.002,0.003 -0.0041,0.006 -0.0062,0.0088 -0.0018,0.0024 -0.0037,0.0047 -0.0055,0.007 -0.0016,0.0019 -0.0032,0.0039 -0.0048,0.0058 h -3.7e-5 v 3.8e-5 l -3.8e-5,3.8e-5 c -0.0021,0.0024 -0.0042,0.0048 -0.0064,0.0072 l -3.02e-4,2.66e-4 c -0.0014,0.0015 -0.0027,0.003 -0.0041,0.0045 -7.4e-5,7.4e-5 -1.62e-4,1.55e-4 -2.29e-4,2.28e-4 -0.0023,0.0023 -0.0045,0.0046 -0.0069,0.0068 l -3.47e-4,3.83e-4 c -0.0014,0.0013 -0.0028,0.0027 -0.0042,0.0039 -0.0025,0.0023 -0.005,0.0044 -0.0076,0.0065 l -3.8e-5,3.8e-5 c -5.38e-4,4.5e-4 -0.0011,9.06e-4 -0.0016,0.0014 -0.0011,9.06e-4 -0.0022,0.0018 -0.0033,0.0027 h -3.8e-5 v 3.8e-5 h -3.8e-5 v 3.9e-5 c -0.0024,0.0019 -0.0047,0.0036 -0.0071,0.0054 -0.0015,0.0011 -0.0031,0.0022 -0.0046,0.0033 -3.62e-4,2.21e-4 -6.8e-4,5.01e-4 -10e-4,7.36e-4 l -3.8e-5,3.8e-5 -3.8e-5,3.8e-5 h -3.9e-5 c -1.8e-5,10e-6 -9.5e-5,6.3e-5 -1.17e-4,7.4e-5 -2.51e-4,1.47e-4 -5.46e-4,3.83e-4 -8.49e-4,5.3e-4 -0.0021,0.0014 -0.0042,0.0028 -0.0063,0.0041 -7.4e-5,7.4e-5 -2.28e-4,1.62e-4 -3.02e-4,2.29e-4 -0.0021,0.0013 -0.0042,0.0025 -0.0063,0.0037 l -3.8e-5,3.8e-5 h -3.8e-5 l -3.8e-5,3.9e-5 h -3.9e-5 c -0.0022,0.0012 -0.0042,0.0024 -0.0064,0.0036 -1.48e-4,7.3e-5 -1.99e-4,9.5e-5 -3.46e-4,1.55e-4 -0.0025,0.0014 -0.005,0.0027 -0.0076,0.0039 l -3.8e-5,3.8e-5 -3.8e-5,3.8e-5 c -3.8e-5,2.4e-5 -1.25e-4,6.1e-5 -1.55e-4,7.4e-5 -4.12e-4,2.2e-4 -7.92e-4,3.9e-4 -0.0012,6.22e-4 -0.0016,7.36e-4 -0.0032,0.0015 -0.0048,0.0022 h -3.8e-5 -3.8e-5 c -1.4e-5,5e-6 -6.3e-5,3.2e-5 -7.4e-5,3.8e-5 h -3.7e-5 l -3.9e-5,3.8e-5 -3.8e-5,3.9e-5 -3.8e-5,3.8e-5 c -0.0027,0.0012 -0.0054,0.0023 -0.0082,0.0035 v 3.8e-5 h -3.9e-5 -3.8e-5 c -0.002,7.92e-4 -0.0039,0.0015 -0.0059,0.0023 -0.0031,0.0012 -0.0063,0.0023 -0.0095,0.0033 -0.0018,5.66e-4 -0.0036,0.0011 -0.0055,0.0016 -1.4e-4,5.4e-5 -3.68e-4,1.1e-4 -4.94e-4,1.55e-4 -0.0032,9.05e-4 -0.0063,0.0018 -0.0096,0.0026 -0.002,4.86e-4 -0.004,9.05e-4 -0.0059,0.0014 -1.8e-5,0 -6e-5,-1e-6 -7.4e-5,0 -8.8e-5,1.4e-5 -1.91e-4,5.5e-5 -3.02e-4,7.4e-5 -0.0019,4.05e-4 -0.0037,7.92e-4 -0.0055,0.0011 -0.0013,2.87e-4 -0.0025,5.66e-4 -0.0038,7.92e-4 l -3.8e-5,3.8e-5 -3.7e-5,-3.8e-5 h -3.9e-5 -3.8e-5 c -0.0024,4.42e-4 -0.0049,8.49e-4 -0.0074,0.0012 -2.21e-4,2.7e-5 -3.53e-4,4.8e-5 -5.66e-4,7.4e-5 -0.0027,3.98e-4 -0.0053,8.49e-4 -0.008,0.0011 -1.47e-4,1.1e-5 -2.28e-4,2.7e-5 -3.02e-4,3.8e-5 -0.0036,4.35e-4 -0.0072,7.36e-4 -0.01078,0.001 -1.48e-4,1.1e-5 -3.09e-4,2.6e-5 -4.57e-4,3.8e-5 h -3.8e-5 c -0.0018,1.47e-4 -0.0037,3.83e-4 -0.0055,4.57e-4 -0.0028,2.21e-4 -0.0057,2.29e-4 -0.0085,3.02e-4 -0.0031,7.4e-5 -0.0061,2.66e-4 -0.0092,2.66e-4 H 9.721076 v 3.8e-5 H 9.129647 7.506697 v 0.05226 c 0,0.233011 -0.177019,0.439216 -0.464239,0.439216 -0.450978,0 -0.662307,-0.367791 -0.681599,-0.401206 L 5.2976275,9.4687984 5.0559675,9.050035 c -0.295345,-0.5115509 -0.29404,-0.6450385 0,-1.1543314 L 5.9373695,6.369113 6.3450115,5.6630234 C 6.5596045,5.291337 6.8226855,5.2203095 7.1412135,5.2235795 Z m -0.0031,0.2947908 c -0.241221,-0.00249 -0.389817,0.035723 -0.537785,0.2920109 l -0.407641,0.706089 -0.881441,1.5266291 c -0.23928,0.414446 -0.240092,0.4437265 0,0.8595786 l 0.241736,0.4187246 1.063191,1.8414927 c 0.01372,0.02375 0.148246,0.253771 0.426304,0.253771 0.124846,0 0.16941,-0.07231 0.16941,-0.144348 V 9.5549797 9.3941016 c 0,-0.094721 0.04324,-0.1238199 0.146177,-0.1238199 v -0.00102 h 3.9094835 c 0.118494,0 0.167307,-0.05982 0.220293,-0.14073 l 0.231987,-0.4018528 c 0.05528,-0.095745 0.07478,-0.1540573 0.07499,-0.2741479 C 11.795448,8.1341603 11.582964,8.0812618 11.51845,8.0812618 H 7.3580135 c -0.102937,0 -0.146177,-0.02914 -0.146177,-0.1238581 V 7.7965636 6.9845169 6.8236388 c 0,-0.094721 0.04324,-0.1238197 0.146177,-0.1238197 h 3.3303755 c 0.06511,0 0.134918,-0.042226 0.0534,-0.1834256 L 10.334147,5.8103045 C 10.176316,5.5369321 10.01776,5.5116936 9.7468505,5.5192842 h -2.559271 c -0.01693,-5.015e-4 -0.03343,-8.491e-4 -0.04951,-0.00102 z"
     class="ColorScheme-Text" />
  <path
     id="gradient-path1"
     style="opacity:0.3;baseline-shift:baseline;display:inline;overflow:visible;vector-effect:none;enable-background:accumulate;stop-color:#000000;stop-opacity:1;fill:url(#linearGradient4)"
     d="M 8.4453131 1.2753492 C 4.4913166 1.2753492 1.2794833 4.4784283 1.2794833 8.4236094 C 1.2794833 12.36879 4.4913166 15.572386 8.4453131 15.572386 C 12.39931 15.572386 15.611143 12.36879 15.611143 8.4236094 C 15.611143 4.4784283 12.39931 1.2753492 8.4453131 1.2753492 z " />
</svg>
