<?xml version="1.0" encoding="UTF-8" standalone="no"?>
<svg
   width="64"
   height="64"
   version="1.1"
   viewBox="0 0 16.933 16.933"
   id="svg7"
   sodipodi:docname="gg.minion.Minion.svg"
   inkscape:version="1.4.2 (ebf0e940d0, 2025-05-08)"
   xmlns:inkscape="http://www.inkscape.org/namespaces/inkscape"
   xmlns:sodipodi="http://sodipodi.sourceforge.net/DTD/sodipodi-0.dtd"
   xmlns:xlink="http://www.w3.org/1999/xlink"
   xmlns="http://www.w3.org/2000/svg"
   xmlns:svg="http://www.w3.org/2000/svg"
   xmlns:rdf="http://www.w3.org/1999/02/22-rdf-syntax-ns#"
   xmlns:cc="http://creativecommons.org/ns#"
   xmlns:dc="http://purl.org/dc/elements/1.1/">
  <sodipodi:namedview
     id="namedview7"
     pagecolor="#9c4444"
     bordercolor="#000000"
     borderopacity="0.25"
     inkscape:showpageshadow="2"
     inkscape:pageopacity="0.0"
     inkscape:pagecheckerboard="0"
     inkscape:deskcolor="#d1d1d1"
     inkscape:zoom="4.3531261"
     inkscape:cx="57.889433"
     inkscape:cy="33.998556"
     inkscape:window-width="2560"
     inkscape:window-height="1376"
     inkscape:window-x="0"
     inkscape:window-y="0"
     inkscape:window-maximized="1"
     inkscape:current-layer="svg7"
     showgrid="false" />
  <defs
     id="defs2">
    <filter
       style="color-interpolation-filters:sRGB;"
       inkscape:label="Blur"
       id="filter3"
       x="-0.10843471"
       y="-0.10870992"
       width="1.2168694"
       height="1.2174198">
      <feGaussianBlur
         stdDeviation="0.5 0.5"
         result="blur"
         id="feGaussianBlur3" />
    </filter>
    <style
       id="current-color-scheme"
       type="text/css">.ColorScheme-Text {color:#d8dee9} .ColorScheme-Highlight {color:#3b4252}</style>
    <linearGradient
       id="linearGradient3"
       inkscape:collect="always">
      <stop
         style="stop-color:#000000;stop-opacity:1;"
         offset="0"
         id="stop3" />
      <stop
         style="stop-color:#000000;stop-opacity:0;"
         offset="1"
         id="stop4" />
    </linearGradient>
    <linearGradient
       inkscape:collect="always"
       xlink:href="#linearGradient3"
       id="linearGradient4"
       x1="13.512321"
       y1="13.490874"
       x2="3.3783066"
       y2="3.3568602"
       gradientUnits="userSpaceOnUse" />
  </defs>
  <metadata
     id="metadata2">
    <rdf:RDF>
      <cc:Work
         rdf:about="">
        <dc:format>image/svg+xml</dc:format>
        <dc:type
           rdf:resource="http://purl.org/dc/dcmitype/StillImage" />
      </cc:Work>
    </rdf:RDF>
  </metadata>
  <ellipse
     style="opacity:1;fill:none;stroke:#000000;stroke-width:0.582072;stroke-dasharray:none;stroke-opacity:1;filter:url(#filter3)"
     id="path1-5"
     cx="8.4450111"
     cy="8.423522"
     rx="6.8752708"
     ry="6.8578653" />
  <ellipse
     style="opacity:1;fill:none;stroke-width:0.58207188;stroke-opacity:1;stroke:currentColor;stroke-dasharray:none;fill-opacity:1"
     id="path1"
     cx="8.4450111"
     cy="8.423522"
     rx="6.8752708"
     ry="6.8578653"
     class="ColorScheme-Text" />
  <ellipse
     style="fill:currentColor;stroke:none;stroke-width:0.285844;stroke-dasharray:none;stroke-opacity:1"
     id="path1-2"
     cx="8.4557552"
     cy="8.423522"
     rx="6.5738997"
     ry="6.5692253"
     class="ColorScheme-Highlight" />
  <path
     id="path5"
     style="opacity:0.3;fill:#000000;fill-opacity:1;stroke-width:0.139777;stroke-linejoin:bevel;paint-order:fill markers stroke"
     d="m 5.4612921,5.2915625 c -0.3871821,0 -0.6988856,0.311703 -0.6988856,0.6988857 v 6.0104168 c 0,0.387182 0.3117035,0.698885 0.6988856,0.698885 h 6.0104149 c 0.387183,0 0.698886,-0.311703 0.698886,-0.698885 V 5.9904482 c 0,-0.3871827 -0.311703,-0.6988857 -0.698886,-0.6988857 z M 5.9925547,5.372098 5.7921709,5.4780228 C 5.4789526,5.6436051 5.2545448,5.8378629 5.0334978,6.1340473 4.9284073,6.27486 4.8408709,6.3819892 4.830384,6.3835712 H 4.8301114 V 6.3832917 H 4.8298389 V 6.3830122 H 4.8295664 V 6.3827326 L 4.8292938,6.382453 v -2.795e-4 c 0,-0.090761 0.097545,-0.3330352 0.1946504,-0.4840327 0.1998734,-0.3107844 0.46018,-0.4807855 0.7791467,-0.5091165 z m 5.0139563,0.00655 c 0.304686,-0.00239 0.671496,0.2321833 0.858592,0.5492803 0.08359,0.1416669 0.192731,0.4552583 0.165986,0.4722939 -6.74e-4,3.494e-4 -0.0013,5.445e-4 -0.0021,5.445e-4 -0.0043,0 -0.0652,-0.084423 -0.135409,-0.1875525 C 11.712402,5.9471728 11.39014,5.654416 11.115732,5.5064153 L 10.880385,5.3794692 Z M 8.3676733,6.0161104 c 0.6290928,-0.021956 1.2396001,0.1675702 1.8348477,0.5689364 0.673918,0.4544128 1.088616,1.0778865 1.125588,1.6926135 0.03103,0.516003 -0.160402,1.0024861 -0.568118,1.4441815 -0.391279,0.4238872 -0.8342661,0.7018062 -1.4586502,0.9153772 -0.2800271,0.09578 -0.3538967,0.106522 -0.7974391,0.115206 -0.2688401,0.0053 -0.5190238,0.0016 -0.5561052,-0.0079 C 7.1583272,10.542303 6.5987034,10.23839 6.1569017,9.7715283 5.4808398,9.057117 5.3534921,8.2506336 5.7959929,7.4867731 6.0651466,7.02215 6.658866,6.5186243 7.214512,6.2839254 7.6060453,6.118546 7.9902175,6.0292844 8.3676733,6.0161104 Z M 7.342823,6.1214891 c 0.00121,-8.18e-5 0.00233,-5.56e-5 0.00327,0 0.016203,9.427e-4 -0.115373,0.071441 -0.2926588,0.1564303 -0.421843,0.202228 -0.6960208,0.4034732 -1.0128427,0.7442039 -0.8142679,0.8757148 -0.8178538,1.894053 -0.00983,2.763055 0.3147723,0.3385257 0.6123955,0.5563957 1.0417773,0.7630417 0.9329609,0.449002 1.8761876,0.432997 2.8195654,-0.04805 0.5049038,-0.257461 1.0432378,-0.7500368 1.2779228,-1.1689958 0.07011,-0.1251613 0.112682,-0.1886347 0.122033,-0.1902826 h 2.79e-4 2.79e-4 v 2.796e-4 h 2.8e-4 2.79e-4 v 2.8e-4 2.796e-4 l 2.8e-4,2.795e-4 c 5.2e-5,1.32e-4 2.37e-4,3.914e-4 2.8e-4,5.445e-4 0.0016,0.011404 -0.0241,0.073239 -0.08027,0.1853684 C 10.88741,9.9788338 10.156492,10.578443 9.3510576,10.855098 9.0043952,10.974173 8.3429129,11.066453 8.1181793,11.02709 8.0707249,11.018799 7.9386937,10.994999 7.8247029,10.974672 6.8128147,10.794247 5.8726149,10.126379 5.4736177,9.3044469 5.1954358,8.7313938 5.2307709,8.069558 5.5705331,7.4865254 5.7259257,7.2198713 6.1846506,6.7559099 6.4894586,6.557226 6.728657,6.4013084 7.2673816,6.1266658 7.342864,6.1215145 Z m 1.0816353,1.3314317 c -0.1888899,0.0024 -0.379555,0.070033 -0.5372687,0.2104846 -0.014373,0.012803 -0.027972,0.025557 -0.041225,0.038493 -0.022633,0.029141 -0.041123,0.048433 -0.053779,0.056512 -0.137088,0.155147 -0.1985461,0.3240861 -0.1981989,0.5372681 9.333e-4,0.5849227 0.5279857,0.9886288 1.0860023,0.8318376 0.3140004,-0.088228 0.5323146,-0.370996 0.5834052,-0.6860545 -0.00205,-0.00852 -0.00308,-0.020776 -0.00252,-0.035491 7.784e-4,-0.019535 0.00364,-0.031842 0.00709,-0.036036 1.25e-4,-1.297e-4 3.35e-4,-3.215e-4 5.189e-4,-5.444e-4 l 2.791e-4,-2.796e-4 2.79e-4,-2.796e-4 h 2.8e-4 2.8e-4 l 2.791e-4,-2.794e-4 c 8.49e-5,-1.19e-5 4.611e-4,3.9e-6 5.18e-4,0 h 2.8e-4 l 2.791e-4,2.794e-4 c 1.68e-4,3.85e-5 6.225e-4,2.097e-4 8.297e-4,2.796e-4 h 2.8e-4 c 0.00233,-0.02951 0.00308,-0.059276 0.00252,-0.088999 -6.739e-4,2.096e-4 -0.00159,3.354e-4 -0.00215,2.795e-4 -0.00765,-0.00128 -0.012637,-0.020293 -0.011461,-0.04914 7.775e-4,-0.019951 0.00355,-0.032369 0.00709,-0.036309 l 2.791e-4,-2.797e-4 h 2.791e-4 C 9.258385,8.1117343 9.2356024,8.029458 9.1993069,7.9505983 9.0500361,7.6262818 8.7393416,7.4489309 8.4245264,7.4529153 Z M 8.2857724,7.6950737 c 0.054264,6.844e-4 0.107968,0.012684 0.1526084,0.036855 0.096973,0.052506 0.1743345,0.2268548 0.1501509,0.3382499 C 8.550433,8.2456521 8.3209908,8.3826865 8.1670169,8.3218871 7.9542375,8.2378675 7.8886652,7.9408876 8.0474411,7.7802508 8.1032544,7.723785 8.1953277,7.6939314 8.2857724,7.6950737 Z M 6.6837963,11.118521 c 0.035084,5.71e-4 0.054115,0.03004 0.089003,0.114115 0.075908,0.182921 0.108163,0.86378 0.040945,0.86378 -0.02632,0 -0.1839161,-0.06956 -0.3502613,-0.15452 -0.1663471,-0.08495 -0.3478141,-0.19212 -0.4032271,-0.238058 l -0.1007365,-0.08354 0.1176635,-0.103741 c 0.171303,-0.151149 0.4763891,-0.361958 0.5648411,-0.39012 0.016445,-0.0052 0.030072,-0.0081 0.041767,-0.0079 z m -1.2129488,0.212397 c 0.055617,-3.6e-5 0.1226027,0.06023 0.2216779,0.190009 0.2036188,0.266737 0.5480281,0.508001 0.9200165,0.644832 0.3480055,0.128006 0.6960903,0.174993 1.2997637,0.174993 0.5361879,0 0.5828928,0.005 0.6016966,0.06498 0.026301,0.08384 -0.00653,0.168632 -0.075619,0.19547 -0.098529,0.03826 -0.8844407,0.05066 -1.1403298,0.01802 C 6.5786796,12.527449 5.9768691,12.244621 5.5816893,11.812777 5.3765939,11.588653 5.3209477,11.463144 5.3897689,11.379249 c 0.025891,-0.03158 0.051949,-0.04831 0.081079,-0.04833 z" />
  <path
     id="path5-7"
     class="ColorScheme-Text"
     style="fill:currentColor;fill-opacity:1;stroke-width:0.139777;stroke-linejoin:bevel;paint-order:fill markers stroke"
     d="m 5.4612921,4.7624065 c -0.3871821,0 -0.6988856,0.3117029 -0.6988856,0.6988856 v 6.0104159 c 0,0.387182 0.3117035,0.698885 0.6988856,0.698885 h 6.0104149 c 0.387183,0 0.698886,-0.311703 0.698886,-0.698885 V 5.4612921 c 0,-0.3871827 -0.311703,-0.6988856 -0.698886,-0.6988856 z M 5.9925547,4.8429423 5.7921709,4.9488675 C 5.4789526,5.1144488 5.2545448,5.3087067 5.0334978,5.6048911 4.9284073,5.7457039 4.8408709,5.852833 4.830384,5.854415 H 4.8301114 V 5.8541357 H 4.8298389 V 5.8538562 H 4.8295664 V 5.8535767 L 4.8292938,5.853297 v -2.795e-4 c 0,-0.090761 0.097544,-0.3330353 0.1946504,-0.4840329 0.1998734,-0.3107843 0.46018,-0.4807853 0.7791467,-0.5091164 z m 5.0139563,0.00655 c 0.304686,-0.00239 0.671496,0.2321833 0.858592,0.5492804 0.08359,0.1416667 0.192731,0.4552582 0.165987,0.4722939 -6.75e-4,3.494e-4 -0.0013,5.444e-4 -0.0021,5.444e-4 -0.0043,0 -0.06521,-0.084423 -0.135411,-0.1875524 C 11.712403,5.4180167 11.390141,5.12526 11.115732,4.9772591 L 10.880385,4.8503132 Z M 8.3676734,5.4869542 c 0.6290928,-0.021955 1.2396001,0.1675703 1.8348476,0.5689365 0.673918,0.454413 1.088616,1.0778871 1.125588,1.692614 0.03104,0.5160027 -0.160402,1.0024859 -0.568118,1.4441812 -0.391279,0.4238874 -0.834266,0.701807 -1.4586501,0.9153771 -0.2800271,0.09578 -0.3538967,0.106521 -0.7974391,0.115206 -0.2688401,0.0053 -0.5190238,0.0016 -0.5561053,-0.0079 C 7.1583272,10.013128 6.5987034,9.7092158 6.1569017,9.2423541 5.4808398,8.5279424 5.3534921,7.7214594 5.7959929,6.9575989 6.0651466,6.4929753 6.658866,5.9894494 7.214512,5.7547506 7.6060454,5.5893712 7.9902176,5.5001095 8.3676734,5.4869355 Z M 7.342823,5.5923328 c 0.00121,-8.19e-5 0.00233,-5.57e-5 0.00327,0 C 7.3622965,5.5932755 7.2307205,5.6637742 7.0534346,5.748763 6.6315912,5.9509914 6.3574134,6.1522368 6.0405915,6.4929669 5.2263236,7.3686818 5.2227377,8.3870203 6.0307635,9.2560228 6.3455358,9.5945484 6.643159,9.8124173 7.0725408,10.019064 8.0055017,10.468065 8.9487285,10.45206 9.8921063,9.9710159 10.39701,9.7135558 10.935343,9.2209789 11.170029,8.8020204 11.240141,8.6768587 11.282711,8.6133855 11.292062,8.6117371 h 2.79e-4 2.79e-4 v 2.8e-4 h 2.8e-4 2.79e-4 v 2.8e-4 2.8e-4 l 2.8e-4,2.792e-4 c 5.2e-5,1.324e-4 2.37e-4,3.909e-4 2.8e-4,5.449e-4 0.0016,0.011405 -0.0241,0.073239 -0.08027,0.1853684 C 10.88741,9.4496811 10.156493,10.049289 9.3510577,10.325945 9.0043953,10.445019 8.342913,10.537299 8.1181793,10.497936 8.0707288,10.489629 7.9386937,10.465848 7.8247029,10.44552 6.8128147,10.265095 5.8726149,9.597227 5.4736177,8.7752955 5.1954358,8.2022427 5.2307709,7.5404067 5.5705331,6.957374 5.7259257,6.6907197 6.1846506,6.2267588 6.4894586,6.0280745 6.728657,5.872157 7.2673816,5.5975142 7.342864,5.592363 Z m 1.0816354,1.3314317 c -0.1888899,0.00243 -0.3795551,0.070037 -0.5372688,0.2104844 -0.014373,0.012805 -0.027972,0.025555 -0.041225,0.038491 -0.022633,0.029139 -0.041123,0.048431 -0.053779,0.056513 C 7.6550976,7.3844 7.5936395,7.5533399 7.5939867,7.7665215 7.59492,8.3514443 8.1219725,8.7551502 8.6799892,8.5983595 8.9939895,8.5101315 9.2123037,8.2273633 9.2633943,7.9123045 c -0.00205,-0.00849 -0.00308,-0.020776 -0.00252,-0.035495 7.784e-4,-0.019535 0.00364,-0.031845 0.00709,-0.036036 1.25e-4,-1.297e-4 3.35e-4,-3.211e-4 5.189e-4,-5.441e-4 l 2.791e-4,-2.8e-4 2.79e-4,-2.791e-4 h 2.8e-4 2.8e-4 l 2.791e-4,-2.8e-4 c 8.49e-5,-1.12e-5 4.611e-4,3.7e-6 5.18e-4,0 h 2.8e-4 l 2.791e-4,2.8e-4 c 1.68e-4,3.83e-5 6.225e-4,2.091e-4 8.297e-4,2.791e-4 h 2.8e-4 c 0.00233,-0.029512 0.00308,-0.059276 0.00252,-0.089003 -6.739e-4,2.1e-4 -0.00159,3.36e-4 -0.00215,2.799e-4 -0.00765,-0.00131 -0.012637,-0.020291 -0.011461,-0.04914 7.775e-4,-0.019955 0.00355,-0.032368 0.00709,-0.036307 l 2.791e-4,-2.799e-4 h 2.791e-4 C 9.2583861,7.5825738 9.2356034,7.5002967 9.1993061,7.4214366 9.0500353,7.0971201 8.7393408,6.919769 8.4245256,6.9237534 Z M 8.2857725,7.1659179 c 0.054264,6.842e-4 0.107968,0.012684 0.1526084,0.036857 0.096973,0.05251 0.1743345,0.2268544 0.1501509,0.3382497 C 8.5504332,7.7164979 8.3209909,7.8535326 8.1670169,7.7927335 7.9542376,7.7087148 7.8886652,7.4117338 8.0474412,7.2510968 8.1032541,7.1946298 8.1953277,7.1647818 8.2857725,7.1659208 Z M 6.6837963,10.589365 c 0.035084,5.71e-4 0.054115,0.03004 0.089003,0.114115 0.075908,0.18292 0.1081629,0.863778 0.040945,0.863778 -0.02632,0 -0.1839161,-0.06957 -0.3502613,-0.154519 -0.1663471,-0.08495 -0.3478141,-0.192121 -0.4032271,-0.238057 l -0.1007361,-0.08354 0.1176635,-0.103746 c 0.1713026,-0.151147 0.4763887,-0.361955 0.5648407,-0.390118 0.016445,-0.0052 0.030072,-0.0081 0.041767,-0.0079 z m -1.2129488,0.212396 c 0.055617,-3.6e-5 0.1226027,0.06022 0.2216779,0.190009 0.2036188,0.266737 0.5480281,0.508002 0.9200165,0.644832 0.3480055,0.128006 0.6960903,0.174993 1.2997637,0.174993 0.536188,0 0.5828929,0.005 0.6016968,0.06498 0.026301,0.08384 -0.00653,0.168631 -0.075619,0.195469 -0.098529,0.03826 -0.8844406,0.05066 -1.1403298,0.01802 -0.719374,-0.09177 -1.3211845,-0.3746 -1.7163643,-0.806444 -0.2050954,-0.224124 -0.2607416,-0.349632 -0.1919204,-0.433527 0.025891,-0.03157 0.051949,-0.04831 0.081079,-0.04833 z" />
  <path
     id="gradient-path1"
     style="opacity:0.3;baseline-shift:baseline;display:inline;overflow:visible;vector-effect:none;enable-background:accumulate;stop-color:#000000;stop-opacity:1;fill:url(#linearGradient4)"
     d="M 8.4453131 1.2753492 C 4.4913166 1.2753492 1.2794833 4.4784283 1.2794833 8.4236094 C 1.2794833 12.36879 4.4913166 15.572386 8.4453131 15.572386 C 12.39931 15.572386 15.611143 12.36879 15.611143 8.4236094 C 15.611143 4.4784283 12.39931 1.2753492 8.4453131 1.2753492 z " />
</svg>
