<?xml version="1.0" encoding="UTF-8" standalone="no"?>
<svg
   width="64"
   height="64"
   version="1.1"
   viewBox="0 0 16.933 16.933"
   id="svg7"
   sodipodi:docname="gimp.svg"
   inkscape:version="1.4.2 (ebf0e940d0, 2025-05-08)"
   xmlns:inkscape="http://www.inkscape.org/namespaces/inkscape"
   xmlns:sodipodi="http://sodipodi.sourceforge.net/DTD/sodipodi-0.dtd"
   xmlns:xlink="http://www.w3.org/1999/xlink"
   xmlns="http://www.w3.org/2000/svg"
   xmlns:svg="http://www.w3.org/2000/svg"
   xmlns:rdf="http://www.w3.org/1999/02/22-rdf-syntax-ns#"
   xmlns:cc="http://creativecommons.org/ns#"
   xmlns:dc="http://purl.org/dc/elements/1.1/">
  <sodipodi:namedview
     id="namedview7"
     pagecolor="#9c4444"
     bordercolor="#000000"
     borderopacity="0.25"
     inkscape:showpageshadow="2"
     inkscape:pageopacity="0.0"
     inkscape:pagecheckerboard="0"
     inkscape:deskcolor="#d1d1d1"
     inkscape:zoom="4.3531261"
     inkscape:cx="36.066035"
     inkscape:cy="26.188077"
     inkscape:window-width="2560"
     inkscape:window-height="1376"
     inkscape:window-x="0"
     inkscape:window-y="0"
     inkscape:window-maximized="1"
     inkscape:current-layer="svg7"
     showgrid="false" />
  <defs
     id="defs2">
    <filter
       style="color-interpolation-filters:sRGB;"
       inkscape:label="Blur"
       id="filter3"
       x="-0.10843471"
       y="-0.10870992"
       width="1.2168694"
       height="1.2174198">
      <feGaussianBlur
         stdDeviation="0.5 0.5"
         result="blur"
         id="feGaussianBlur3" />
    </filter>
    <style
       id="current-color-scheme"
       type="text/css">.ColorScheme-Text {color:#d8dee9} .ColorScheme-Highlight {color:#3b4252}</style>
    <linearGradient
       id="linearGradient3"
       inkscape:collect="always">
      <stop
         style="stop-color:#000000;stop-opacity:1;"
         offset="0"
         id="stop3" />
      <stop
         style="stop-color:#000000;stop-opacity:0;"
         offset="1"
         id="stop4" />
    </linearGradient>
    <linearGradient
       inkscape:collect="always"
       xlink:href="#linearGradient3"
       id="linearGradient4"
       x1="13.512321"
       y1="13.490874"
       x2="3.3783066"
       y2="3.3568602"
       gradientUnits="userSpaceOnUse" />
  </defs>
  <metadata
     id="metadata2">
    <rdf:RDF>
      <cc:Work
         rdf:about="">
        <dc:format>image/svg+xml</dc:format>
        <dc:type
           rdf:resource="http://purl.org/dc/dcmitype/StillImage" />
      </cc:Work>
    </rdf:RDF>
  </metadata>
  <ellipse
     style="opacity:1;fill:none;stroke:#000000;stroke-width:0.582072;stroke-dasharray:none;stroke-opacity:1;filter:url(#filter3)"
     id="path1-5"
     cx="8.4450111"
     cy="8.423522"
     rx="6.8752708"
     ry="6.8578653" />
  <ellipse
     style="opacity:1;fill:none;stroke-width:0.58207188;stroke-opacity:1;stroke:currentColor;stroke-dasharray:none;fill-opacity:1"
     id="path1"
     cx="8.4450111"
     cy="8.423522"
     rx="6.8752708"
     ry="6.8578653"
     class="ColorScheme-Text" />
  <ellipse
     style="fill:currentColor;stroke:none;stroke-width:0.285844;stroke-dasharray:none;stroke-opacity:1"
     id="path1-2"
     cx="8.4557552"
     cy="8.423522"
     rx="6.5738997"
     ry="6.5692253"
     class="ColorScheme-Highlight" />
  <path
     id="path5"
     d="m 11.845526,5.5768866 c -0.04744,-0.0017 -0.09368,0.016423 -0.108194,0.059952 C 11.405712,6.3000809 10.742469,7.1291327 9.482309,7.493916 9.217012,7.2617815 8.85223,7.0959706 8.454284,7.0959706 8.089502,7.0959706 7.724719,7.2617815 7.459422,7.493916 7.260449,7.2949432 6.961991,7.1954567 6.663532,7.1954567 6.298749,6.8969978 6.132939,6.4990528 6.00029,6.2005939 V 6.1674324 C 5.96713,6.0679469 5.867642,6.1011083 5.867642,6.2005939 v 1.2601596 c -0.198973,0.1658102 -0.364784,0.431107 -0.431107,0.6964037 0.09949,0.033162 0.165809,0.099487 0.265296,0.1658109 0.06632,-0.4974314 0.497431,-0.8622146 0.994863,-0.8622146 0.232135,0 0.46427,0.099487 0.630079,0.2321345 0.06632,0.033162 0.132649,0.1326487 0.198973,0.1989725 0.06632,-0.099485 0.132648,-0.1658102 0.198973,-0.2321346 0.198972,-0.1989724 0.49743,-0.2984589 0.79589,-0.2984589 0.530593,0 0.9617,0.331621 1.127511,0.7958902 0.03316,0.1326488 0.06632,0.2652968 0.06632,0.3979456 0,0.066324 -0.03316,0.1658101 -0.03316,0.2321345 -0.09949,0.5637551 -0.596919,0.9617005 -1.160674,0.9617005 -0.46427,0 -0.862215,-0.2652967 -1.061187,-0.6300801 -0.198973,0.1989731 -0.46427,0.3316212 -0.762728,0.3316212 -0.06632,0 -0.132649,-0.033162 -0.198973,-0.033162 0,0.066324 0.03316,0.1326488 0.03316,0.1989726 0.03316,0.331621 -0.03316,0.6964045 -0.29846,0.9617015 -0.132647,0.09949 -0.265295,0.16581 -0.397945,0.198973 0.63008,0.497431 1.624943,0.862213 3.183561,0.862213 0.630081,0 1.127512,-0.132648 1.525457,-0.298458 C 10.278202,11.141746 10.046067,10.975936 9.880256,10.810126 9.747608,10.71064 9.648122,10.611153 9.581798,10.544829 9.548637,10.511667 9.515476,10.445343 9.482316,10.41218 8.951722,10.677477 8.321642,10.776964 7.724724,10.743801 H 7.558915 c -0.06632,-0.03316 -0.132649,-0.09949 -0.132649,-0.16581 0.03316,-0.06633 0.09949,-0.132649 0.16581,-0.132649 h 0.165811 c 0.696404,0.03316 1.359645,-0.132648 1.923401,-0.4974313 h -0.03316 c -0.09949,0 -0.132647,-0.099487 -0.09949,-0.1658104 0,-0.099487 0.09949,-0.1326485 0.16581,-0.099487 0.232135,0.066324 0.397946,0.2652968 0.46427,0.4642697 v 0.06632 c 0.03316,0 0.03316,0.03316 0.06632,0.03316 0.232134,0.132648 0.563756,0.298459 0.895377,0.530594 0.928538,-1.1275123 1.028025,-3.1503998 0.829052,-5.1069632 0,-0.055962 -0.06295,-0.090928 -0.123943,-0.093113 z M 6.76302,7.9581841 c 0.132649,0.033162 0.232135,0.1658102 0.232135,0.3316212 0,0.1989723 -0.165811,0.3316204 -0.331621,0.3316204 -0.132649,0 -0.265297,-0.099485 -0.331621,-0.2321345 v 0.1326486 c 0,0.2984589 0.265298,0.5637551 0.563756,0.5637551 0.33162,0 0.563755,-0.2652962 0.563755,-0.5637551 0,-0.3316211 -0.265297,-0.5637557 -0.563755,-0.5637557 z m 1.857078,0.066324 c 0.16581,0.033162 0.298458,0.1989725 0.298458,0.3647828 0,0.1989724 -0.16581,0.3979453 -0.397945,0.3979453 -0.198972,0 -0.397945,-0.1658108 -0.397945,-0.3979453 v -0.066324 c -0.06632,0.099485 -0.09949,0.2321346 -0.09949,0.3647827 0.03316,0.3647833 0.331621,0.6632415 0.696405,0.6632415 0.364782,0 0.663241,-0.2984582 0.663241,-0.6632415 0,-0.3647827 -0.298459,-0.6632416 -0.663241,-0.6632416 z M 4.723551,8.235917 C 4.516289,8.223484 4.325607,8.273224 4.176378,8.3892913 3.811594,8.7209123 3.944243,9.4173161 4.441673,9.9810718 4.939105,10.544828 5.635509,10.710638 6.000293,10.379017 l 0.09948,-0.09948 c 0.09949,-0.09949 0.13265,-0.198973 0.16581,-0.2984594 0,-0.1989725 -0.03316,-0.431107 -0.132647,-0.6632416 C 6.066616,9.1520193 5.933971,8.9862092 5.801322,8.8203988 L 5.701832,8.7209118 C 5.602345,8.6214253 5.469698,8.5219395 5.370212,8.4556152 5.154659,8.3229672 4.930814,8.2483525 4.723551,8.235917 Z M 4.607482,8.4224534 c 0.232135,0 0.397944,0.1989724 0.397944,0.4642691 0,0.2652968 -0.165809,0.4642693 -0.397944,0.4642693 -0.232135,0 -0.397945,-0.1989725 -0.397945,-0.4642693 0,-0.2652967 0.16581,-0.4642691 0.397945,-0.4642691 z m 5.073075,1.7429006 c -0.01867,9.1e-4 -0.03244,0.01469 -0.03244,0.01469 v 0.03316 c 0.03316,0.03316 0.06632,0.06632 0.09949,0.132648 l 0.06632,0.06632 c 0.198972,0.165811 0.530593,0.431108 0.928538,0.729567 0.06632,0.06632 0.16581,0.132649 0.232135,0.198972 0.364782,0.232135 0.696402,0.46427 0.9617,0.596918 -0.232135,0.596918 1.028025,0.464269 1.028025,0.464269 0,0 -0.497433,-1.160673 -0.895377,-0.729566 -0.232125,-0.165809 -0.530584,-0.431106 -0.895367,-0.663241 -0.06632,-0.03316 -0.132648,-0.09949 -0.198972,-0.132649 -0.431108,-0.298458 -0.862215,-0.530593 -1.094349,-0.630079 -0.03316,0 -0.03316,-0.03316 -0.06632,-0.03316 -0.03316,0 -0.06632,-0.03316 -0.09949,-0.03316 -0.01031,-0.01036 -0.02073,-0.01424 -0.03007,-0.01469 -0.0013,-6.1e-5 -0.0024,-6.1e-5 -0.0038,0 z"
     style="opacity:0.3;fill:#000000;fill-opacity:1;stroke-width:0.33162" />
  <path
     id="path5-7"
     class="ColorScheme-Text"
     d="m 11.845526,5.0477717 c -0.04744,-0.0017 -0.09368,0.01642 -0.108194,0.05995 -0.33162,0.663243 -0.994863,1.492294 -2.255023,1.857078 -0.265297,-0.232135 -0.630079,-0.397946 -1.028025,-0.397946 -0.364782,0 -0.729565,0.165811 -0.994862,0.397946 C 7.260449,6.7658267 6.961991,6.6663397 6.663532,6.6663397 6.298749,6.3678807 6.132939,5.9699367 6.00029,5.6714777 v -0.03316 c -0.03316,-0.09949 -0.132648,-0.06632 -0.132648,0.03316 v 1.260159 c -0.198973,0.16581 -0.364784,0.431107 -0.431107,0.696404 0.09949,0.03316 0.165809,0.09949 0.265296,0.165811 0.06632,-0.497432 0.497431,-0.862215 0.994863,-0.862215 0.232135,0 0.46427,0.09949 0.630079,0.232135 0.06632,0.03316 0.132649,0.132648 0.198973,0.198972 0.06632,-0.09948 0.132648,-0.16581 0.198973,-0.232134 0.198972,-0.198973 0.49743,-0.298459 0.79589,-0.298459 0.530593,0 0.9617,0.331621 1.127511,0.79589 0.03316,0.132649 0.06632,0.265297 0.06632,0.397945 0,0.06632 -0.03316,0.165811 -0.03316,0.232135 -0.09949,0.563755 -0.596919,0.9617 -1.160674,0.9617 -0.46427,0 -0.862215,-0.265296 -1.061187,-0.63008 -0.198973,0.198974 -0.46427,0.331622 -0.762728,0.331622 -0.06632,0 -0.132649,-0.03316 -0.198973,-0.03316 0,0.06632 0.03316,0.132648 0.03316,0.198972 0.03316,0.331621 -0.03316,0.696404 -0.29846,0.9617013 -0.132647,0.09949 -0.265295,0.16581 -0.397945,0.198973 0.63008,0.497431 1.624943,0.862214 3.183561,0.862214 0.630081,0 1.127512,-0.132648 1.525457,-0.298459 C 10.278202,10.612632 10.046067,10.446821 9.880256,10.281011 9.747608,10.181521 9.648122,10.082038 9.581798,10.015714 9.548638,9.9825537 9.515478,9.9162237 9.482318,9.8830647 8.951724,10.148362 8.321644,10.247849 7.724726,10.214687 H 7.558917 c -0.06632,-0.03316 -0.132649,-0.09949 -0.132649,-0.165811 0.03316,-0.06633 0.09949,-0.1326483 0.16581,-0.1326483 h 0.165811 c 0.696404,0.03316 1.359645,-0.132648 1.923401,-0.497432 H 9.64813 c -0.09949,0 -0.132647,-0.09949 -0.09949,-0.16581 0,-0.09949 0.09949,-0.132649 0.16581,-0.09949 0.232135,0.06632 0.397946,0.265297 0.46427,0.464269 v 0.06632 c 0.03316,0 0.03316,0.03316 0.06632,0.03316 0.232134,0.132648 0.563756,0.2984593 0.895377,0.5305943 0.928538,-1.1275123 1.028025,-3.1503993 0.829052,-5.1069633 0,-0.05596 -0.06295,-0.09093 -0.123943,-0.09311 z M 6.76302,7.4290697 c 0.132649,0.03316 0.232135,0.16581 0.232135,0.331621 0,0.198972 -0.165811,0.33162 -0.331621,0.33162 -0.132649,0 -0.265297,-0.09949 -0.331621,-0.232134 v 0.132648 c 0,0.298459 0.265298,0.563756 0.563756,0.563756 0.33162,0 0.563755,-0.265297 0.563755,-0.563756 0,-0.331621 -0.265297,-0.563755 -0.563755,-0.563755 z m 1.857078,0.06632 c 0.16581,0.03316 0.298458,0.198973 0.298458,0.364783 0,0.198972 -0.16581,0.397945 -0.397945,0.397945 -0.198972,0 -0.397945,-0.165811 -0.397945,-0.397945 v -0.06632 c -0.06632,0.09949 -0.09949,0.232135 -0.09949,0.364783 0.03316,0.364783 0.331621,0.663241 0.696405,0.663241 0.364782,0 0.663241,-0.298458 0.663241,-0.663241 0,-0.364783 -0.298459,-0.663242 -0.663241,-0.663242 z m -3.896547,0.211409 c -0.207262,-0.01243 -0.397944,0.03731 -0.547173,0.153374 -0.364784,0.331621 -0.232135,1.028025 0.265295,1.59178 0.497432,0.5637563 1.193836,0.7295663 1.55862,0.397945 l 0.09948,-0.09948 c 0.09949,-0.09949 0.13265,-0.198973 0.16581,-0.298459 0,-0.198972 -0.03316,-0.431107 -0.132647,-0.663241 -0.06632,-0.165812 -0.198965,-0.331622 -0.331614,-0.497433 l -0.09949,-0.09949 C 5.602342,8.0923047 5.469698,7.9928227 5.370212,7.9264987 5.154659,7.7938507 4.930814,7.7192357 4.723551,7.7068007 Z m -0.116069,0.186536 c 0.232135,0 0.397944,0.198972 0.397944,0.464269 0,0.265297 -0.165809,0.464269 -0.397944,0.464269 -0.232135,0 -0.397945,-0.198972 -0.397945,-0.464269 0,-0.265297 0.16581,-0.464269 0.397945,-0.464269 z m 5.073075,1.742901 c -0.01867,9.09e-4 -0.03244,0.01469 -0.03244,0.01469 v 0.03316 c 0.03316,0.03316 0.06632,0.06632 0.09949,0.132648 l 0.06632,0.06632 c 0.198972,0.1658103 0.530593,0.4311073 0.928538,0.7295663 0.06632,0.06632 0.16581,0.132649 0.232135,0.198972 0.364782,0.232135 0.696402,0.46427 0.9617,0.596918 -0.232135,0.596918 1.028025,0.464269 1.028025,0.464269 0,0 -0.497433,-1.160672 -0.895377,-0.729566 -0.232125,-0.165809 -0.530584,-0.431106 -0.895367,-0.663241 -0.06632,-0.03316 -0.132648,-0.09949 -0.198972,-0.132648 -0.431108,-0.298459 -0.862215,-0.5305943 -1.094349,-0.6300803 -0.03316,0 -0.03316,-0.03316 -0.06632,-0.03316 -0.03316,0 -0.06632,-0.03316 -0.09949,-0.03316 -0.01031,-0.01036 -0.02073,-0.01424 -0.03007,-0.01469 -0.0013,-6e-5 -0.0024,-6e-5 -0.0038,0 z"
     style="fill:currentColor;fill-opacity:1;stroke-width:0.33162" />
  <path
     id="gradient-path1"
     style="opacity:0.3;baseline-shift:baseline;display:inline;overflow:visible;vector-effect:none;enable-background:accumulate;stop-color:#000000;stop-opacity:1;fill:url(#linearGradient4)"
     d="M 8.4453131 1.2753492 C 4.4913166 1.2753492 1.2794833 4.4784283 1.2794833 8.4236094 C 1.2794833 12.36879 4.4913166 15.572386 8.4453131 15.572386 C 12.39931 15.572386 15.611143 12.36879 15.611143 8.4236094 C 15.611143 4.4784283 12.39931 1.2753492 8.4453131 1.2753492 z " />
</svg>
