<?xml version='1.0' encoding='UTF-8'?>
<svg xmlns:inkscape="http://www.inkscape.org/namespaces/inkscape" xmlns:sodipodi="http://sodipodi.sourceforge.net/DTD/sodipodi-0.dtd" xmlns:xlink="http://www.w3.org/1999/xlink" xmlns="http://www.w3.org/2000/svg" xmlns:svg="http://www.w3.org/2000/svg" xmlns:rdf="http://www.w3.org/1999/02/22-rdf-syntax-ns#" xmlns:cc="http://creativecommons.org/ns#" xmlns:dc="http://purl.org/dc/elements/1.1/" width="64" height="64" version="1.1" viewBox="0 0 16.933 16.933" id="svg7" sodipodi:docname="appimagekit-com.github.coslyk.MoonPlayer.svg" inkscape:version="1.4 (e7c3feb100, 2024-10-09)">
  <sodipodi:namedview id="namedview7" pagecolor="#9c4444" bordercolor="#000000" borderopacity="0.25" inkscape:showpageshadow="2" inkscape:pageopacity="0.0" inkscape:pagecheckerboard="0" inkscape:deskcolor="#d1d1d1" inkscape:zoom="3.078125" inkscape:cx="18.680203" inkscape:cy="27.451777" inkscape:window-width="1189" inkscape:window-height="932" inkscape:window-x="26" inkscape:window-y="32" inkscape:window-maximized="0" inkscape:current-layer="svg7" showgrid="false"/>
  <defs id="defs2">
    <filter style="color-interpolation-filters:sRGB;" inkscape:label="Blur" id="filter15" x="-0.17127055" y="-0.17247509" width="1.3425411" height="1.3449502">
      <feGaussianBlur stdDeviation="0.7 0.7" result="blur" id="feGaussianBlur15"/>
    </filter>
    <style id="current-color-scheme" type="text/css">.ColorScheme-Text {color:#d8dee9} .ColorScheme-Highlight {color:#3b4252}</style></defs>
  <metadata id="metadata2">
    <rdf:RDF>
      <cc:Work rdf:about="">
        <dc:format>image/svg+xml</dc:format>
        <dc:type rdf:resource="http://purl.org/dc/dcmitype/StillImage"/>
      </cc:Work>
    </rdf:RDF>
  </metadata>
  <rect style="fill:none;fill-opacity:0.996424;stroke:#000000;stroke-width:0.859699;stroke-dasharray:none;filter:url(#filter15)" id="rect1-2-2-0" width="12.31881" height="12.232778" x="2.3539793" y="2.56182" rx="2.5597992" ry="2.6693144"/>
  <rect style="fill:none;fill-opacity:0.996424;stroke:url(#linearGradient14);stroke-width:0.859699;stroke-dasharray:none" id="rect1-2-2" width="12.31881" height="12.232778" x="2.3539793" y="2.56182" rx="2.5597992" ry="2.6693144"/>
  <rect style="fill:url(#linearGradient4);fill-opacity:0.996424;stroke:url(#linearGradient41);stroke-width:0.859699;stroke-dasharray:none;stroke-opacity:1" id="rect1-2" width="12.31881" height="12.232778" x="2.3539793" y="1.9004092" rx="2.5597992" ry="2.6693144"/>
  <path style="opacity:0.3;fill:#000000;fill-opacity:1;stroke-width:0.190948" d="M 11.296425,6.0221631 C 11.133711,6.0145629 10.675237,6.0689086 9.9586656,6.5674112 9.5577935,6.4465332 9.1001899,6.4017883 8.6231437,6.4029416 8.1867405,6.4039919 7.734198,6.4397511 7.2943351,6.5674112 6.5775341,6.0689348 6.2111949,6.0148603 6.0483204,6.022536 5.9940164,6.025086 5.9677644,6.033349 5.9677644,6.033349 5.6952619,6.7402612 5.8676692,7.263235 5.9192814,7.3931145 c -0.32012,0.3588246 -0.5079532,0.8170559 -0.5079532,1.377665 0,1.9681645 1.2752721,2.4090335 2.3864853,2.5386465 -0.142856,0.128333 -0.2327504,0.393675 -0.2782179,0.725382 -0.2850974,0.131482 -1.0498748,0.453276 -1.496262,-0.331551 0,0 -0.2640912,-0.493342 -0.7664056,-0.529584 0,0 -0.4883274,-0.0062 -0.033939,0.312157 0,0 0.3280289,0.158058 0.5556906,0.751487 0,0 0.3380889,0.903268 1.7300994,0.592985 0.00139,0.240987 0.00334,0.275077 0.00452,0.709687 0.3095267,0.05533 0.654206,0.02507 0.9801228,0.02507 0.5312044,0 1.0123232,-0.412201 1.4959597,-0.555157 0.00139,-0.529884 0.00693,-0.345436 0.00693,-0.753177 0,-0.478962 -0.1980084,-0.792417 -0.3774228,-0.951014 1.1145753,-0.127073 2.2846713,-0.561717 2.2846713,-2.5349217 0,-0.5606093 -0.155906,-1.0192175 -0.476625,-1.3780378 0.0513,-0.12991 0.223512,-0.6524804 -0.0496,-1.3593905 0,0 -0.02631,-0.00866 -0.08055,-0.011187 z" id="path5-3-5" sodipodi:nodetypes="ccccsccsccccccccscscscccc"/>
  <path style="fill:currentColor;fill-opacity:1;stroke-width:0.190948" d="M 11.296425,5.6252959 C 11.133711,5.6176957 10.675237,5.6720414 9.9586656,6.170544 9.5577935,6.049666 9.1001899,6.0049211 8.6231437,6.0060744 8.1867405,6.0071247 7.734198,6.0428839 7.2943351,6.170544 6.5775341,5.6720676 6.2111949,5.6179931 6.0483204,5.6256688 c -0.054304,0.00255 -0.080556,0.010813 -0.080556,0.010813 -0.2725025,0.7069122 -0.1000952,1.229886 -0.048483,1.3597655 -0.32012,0.3588246 -0.5079532,0.8170559 -0.5079532,1.377665 0,1.9681657 1.2752721,2.4090347 2.3864853,2.5386477 -0.142856,0.128333 -0.2327504,0.393675 -0.2782179,0.725382 -0.2850974,0.131482 -1.0498748,0.453276 -1.496262,-0.331551 0,0 -0.2640912,-0.493342 -0.7664056,-0.529584 0,0 -0.4883274,-0.0062 -0.033939,0.312157 0,0 0.3280289,0.158058 0.5556906,0.751487 0,0 0.3380889,0.903268 1.7300994,0.592985 0.00139,0.240987 0.00334,0.804233 0.00452,1.238843 0.3095267,0.05533 0.654206,0.02507 0.9801228,0.02507 0.5312044,0 1.0123232,0.116956 1.4959597,-0.026 0.00139,-0.529884 0.00693,-1.403749 0.00693,-1.81149 0,-0.478962 -0.1980084,-0.792417 -0.3774228,-0.951014 1.1145753,-0.127073 2.2846713,-0.561717 2.2846713,-2.5349229 0,-0.5606093 -0.155906,-1.0192175 -0.476625,-1.3780378 0.0513,-0.12991 0.223512,-0.6524804 -0.0496,-1.3593905 0,0 -0.02631,-0.00866 -0.08055,-0.011187 z" id="path5-3" sodipodi:nodetypes="ccccsccsccccccccscscscccc" class="ColorScheme-Text"/>
</svg>
