<?xml version="1.0" encoding="UTF-8" standalone="no"?>
<svg
   width="64"
   height="64"
   version="1.1"
   viewBox="0 0 16.933 16.933"
   id="svg7"
   sodipodi:docname="gnucash-icon.svg"
   inkscape:version="1.4.3 (0d15f75042, 2025-12-25)"
   xmlns:inkscape="http://www.inkscape.org/namespaces/inkscape"
   xmlns:sodipodi="http://sodipodi.sourceforge.net/DTD/sodipodi-0.dtd"
   xmlns:xlink="http://www.w3.org/1999/xlink"
   xmlns="http://www.w3.org/2000/svg"
   xmlns:svg="http://www.w3.org/2000/svg"
   xmlns:rdf="http://www.w3.org/1999/02/22-rdf-syntax-ns#"
   xmlns:cc="http://creativecommons.org/ns#"
   xmlns:dc="http://purl.org/dc/elements/1.1/">
  <sodipodi:namedview
     id="namedview7"
     pagecolor="#9c4444"
     bordercolor="#000000"
     borderopacity="0.25"
     inkscape:showpageshadow="2"
     inkscape:pageopacity="0.0"
     inkscape:pagecheckerboard="0"
     inkscape:deskcolor="#d1d1d1"
     inkscape:zoom="4.3531261"
     inkscape:cx="36.410615"
     inkscape:cy="25.958357"
     inkscape:window-width="2560"
     inkscape:window-height="1388"
     inkscape:window-x="0"
     inkscape:window-y="0"
     inkscape:window-maximized="1"
     inkscape:current-layer="svg7"
     showgrid="false" />
  <defs
     id="defs2">
    <filter
       style="color-interpolation-filters:sRGB;"
       inkscape:label="Blur"
       id="filter3"
       x="-0.10843471"
       y="-0.10870992"
       width="1.2168694"
       height="1.2174198">
      <feGaussianBlur
         stdDeviation="0.5 0.5"
         result="blur"
         id="feGaussianBlur3" />
    </filter>
    <style
       id="current-color-scheme"
       type="text/css">.ColorScheme-Text {color:#d8dee9} .ColorScheme-Highlight {color:#3b4252}</style>
    <linearGradient
       id="linearGradient3"
       inkscape:collect="always">
      <stop
         style="stop-color:#000000;stop-opacity:1;"
         offset="0"
         id="stop3" />
      <stop
         style="stop-color:#000000;stop-opacity:0;"
         offset="1"
         id="stop4" />
    </linearGradient>
    <linearGradient
       inkscape:collect="always"
       xlink:href="#linearGradient3"
       id="linearGradient4"
       x1="13.512321"
       y1="13.490874"
       x2="3.3783066"
       y2="3.3568602"
       gradientUnits="userSpaceOnUse" />
  </defs>
  <metadata
     id="metadata2">
    <rdf:RDF>
      <cc:Work
         rdf:about="">
        <dc:format>image/svg+xml</dc:format>
        <dc:type
           rdf:resource="http://purl.org/dc/dcmitype/StillImage" />
      </cc:Work>
    </rdf:RDF>
  </metadata>
  <ellipse
     style="opacity:1;fill:none;stroke:#000000;stroke-width:0.582072;stroke-dasharray:none;stroke-opacity:1;filter:url(#filter3)"
     id="path1-5"
     cx="8.4450111"
     cy="8.423522"
     rx="6.8752708"
     ry="6.8578653" />
  <ellipse
     style="opacity:1;fill:none;stroke-width:0.58207188;stroke-opacity:1;stroke:currentColor;stroke-dasharray:none;fill-opacity:1"
     id="path1"
     cx="8.4450111"
     cy="8.423522"
     rx="6.8752708"
     ry="6.8578653"
     class="ColorScheme-Text" />
  <ellipse
     style="fill:currentColor;stroke:none;stroke-width:0.285844;stroke-dasharray:none;stroke-opacity:1"
     id="path1-2"
     cx="8.4557552"
     cy="8.423522"
     rx="6.5738997"
     ry="6.5692253"
     class="ColorScheme-Highlight" />
  <path
     id="path5-6"
     style="opacity:0.3;fill:#000000;fill-opacity:1;stroke-width:0.566038"
     d="m 6.2576281,5.0269844 c -0.975014,0 -1.7598,0.784786 -1.7598,1.759799 v 0.552145 3.8656006 c 0,0.975013 0.784786,1.759799 1.7598,1.759799 h 4.4177459 c 0.975013,0 1.759799,-0.784786 1.759799,-1.759799 V 7.3389284 6.7867834 c 0,-0.975013 -0.784786,-1.759799 -1.759799,-1.759799 z m 3.8474969,3.667343 h 1.108963 c 0.130538,0 0.235632,0.105094 0.235632,0.235632 v 2.7002856 c 0,0.130538 -0.105094,0.235632 -0.235632,0.235632 h -1.108963 c -0.1305379,0 -0.2356319,-0.105094 -0.2356319,-0.235632 V 8.9299594 c 0,-0.130538 0.105094,-0.235632 0.2356319,-0.235632 z m -4.3415379,0.842963 h 1.108671 c 0.130538,0 0.235632,0.105094 0.235632,0.235633 v 1.8573216 c 0,0.130538 -0.105094,0.235632 -0.235632,0.235632 h -1.108671 c -0.130539,0 -0.235632,-0.105094 -0.235632,-0.235632 V 9.7729234 c 0,-0.130539 0.105093,-0.235633 0.235632,-0.235633 z m 2.170623,0.5194426 h 1.108962 c 0.130539,0 0.235633,0.105094 0.235633,0.235632 v 1.33788 c 0,0.130538 -0.105094,0.235632 -0.235633,0.235632 h -1.108962 c -0.130538,0 -0.235633,-0.105094 -0.235633,-0.235632 v -1.33788 c 0,-0.130538 0.105095,-0.235632 0.235633,-0.235632 z"
     class="ColorScheme-Text" />
  <path
     id="path5-6-5"
     style="fill:currentColor;stroke-width:0.566038"
     d="m 6.2576275,4.497828 c -0.975014,0 -1.7598,0.784786 -1.7598,1.759799 v 0.552145 3.865601 c 0,0.975013 0.784786,1.759799 1.7598,1.759799 h 4.4177455 c 0.975013,0 1.759799,-0.784786 1.759799,-1.759799 V 6.809772 6.257627 c 0,-0.975013 -0.784785,-1.759799 -1.759799,-1.759799 z m 3.8474965,3.667343 h 1.108963 c 0.130538,0 0.235632,0.105094 0.235632,0.235632 v 2.700286 c 0,0.130538 -0.105094,0.235632 -0.235632,0.235632 h -1.108963 c -0.1305375,0 -0.2356315,-0.105094 -0.2356315,-0.235632 V 8.400803 c 0,-0.130538 0.105094,-0.235632 0.2356315,-0.235632 z M 5.7635865,9.008134 h 1.108671 c 0.130538,0 0.235632,0.105094 0.235632,0.235633 v 1.857322 c 0,0.130538 -0.105094,0.235632 -0.235632,0.235632 h -1.108671 c -0.130539,0 -0.235632,-0.105094 -0.235632,-0.235632 V 9.243767 c 0,-0.130539 0.105093,-0.235633 0.235632,-0.235633 z m 2.170623,0.519443 h 1.108962 c 0.130539,0 0.235633,0.105094 0.235633,0.235632 v 1.33788 c 0,0.130538 -0.105094,0.235632 -0.235633,0.235632 h -1.108962 c -0.130538,0 -0.235633,-0.105094 -0.235633,-0.235632 v -1.33788 c 0,-0.130538 0.105095,-0.235632 0.235633,-0.235632 z"
     class="ColorScheme-Text" />
  <path
     id="gradient-path1"
     style="opacity:0.3;baseline-shift:baseline;display:inline;overflow:visible;vector-effect:none;enable-background:accumulate;stop-color:#000000;stop-opacity:1;fill:url(#linearGradient4)"
     d="M 8.4453131 1.2753492 C 4.4913166 1.2753492 1.2794833 4.4784283 1.2794833 8.4236094 C 1.2794833 12.36879 4.4913166 15.572386 8.4453131 15.572386 C 12.39931 15.572386 15.611143 12.36879 15.611143 8.4236094 C 15.611143 4.4784283 12.39931 1.2753492 8.4453131 1.2753492 z " />
</svg>
