<?xml version="1.0" encoding="UTF-8" standalone="no"?>
<svg
   width="64"
   height="64"
   version="1.1"
   viewBox="0 0 16.933 16.933"
   id="svg7"
   sodipodi:docname="golang.svg"
   inkscape:version="1.4.2 (ebf0e940d0, 2025-05-08)"
   xmlns:inkscape="http://www.inkscape.org/namespaces/inkscape"
   xmlns:sodipodi="http://sodipodi.sourceforge.net/DTD/sodipodi-0.dtd"
   xmlns:xlink="http://www.w3.org/1999/xlink"
   xmlns="http://www.w3.org/2000/svg"
   xmlns:svg="http://www.w3.org/2000/svg"
   xmlns:rdf="http://www.w3.org/1999/02/22-rdf-syntax-ns#"
   xmlns:cc="http://creativecommons.org/ns#"
   xmlns:dc="http://purl.org/dc/elements/1.1/">
  <sodipodi:namedview
     id="namedview7"
     pagecolor="#9c4444"
     bordercolor="#000000"
     borderopacity="0.25"
     inkscape:showpageshadow="2"
     inkscape:pageopacity="0.0"
     inkscape:pagecheckerboard="0"
     inkscape:deskcolor="#d1d1d1"
     inkscape:zoom="8.7062522"
     inkscape:cx="72.878661"
     inkscape:cy="29.059576"
     inkscape:window-width="2560"
     inkscape:window-height="1388"
     inkscape:window-x="0"
     inkscape:window-y="0"
     inkscape:window-maximized="1"
     inkscape:current-layer="svg7"
     showgrid="false" />
  <defs
     id="defs2">
    <filter
       style="color-interpolation-filters:sRGB;"
       inkscape:label="Blur"
       id="filter3"
       x="-0.10843471"
       y="-0.10870992"
       width="1.2168694"
       height="1.2174198">
      <feGaussianBlur
         stdDeviation="0.5 0.5"
         result="blur"
         id="feGaussianBlur3" />
    </filter>
    <style
       id="current-color-scheme"
       type="text/css">.ColorScheme-Text {color:#d8dee9} .ColorScheme-Highlight {color:#3b4252}</style>
    <linearGradient
       id="linearGradient3"
       inkscape:collect="always">
      <stop
         style="stop-color:#000000;stop-opacity:1;"
         offset="0"
         id="stop3" />
      <stop
         style="stop-color:#000000;stop-opacity:0;"
         offset="1"
         id="stop4" />
    </linearGradient>
    <linearGradient
       inkscape:collect="always"
       xlink:href="#linearGradient3"
       id="linearGradient4"
       x1="13.512321"
       y1="13.490874"
       x2="3.3783066"
       y2="3.3568602"
       gradientUnits="userSpaceOnUse" />
  </defs>
  <metadata
     id="metadata2">
    <rdf:RDF>
      <cc:Work
         rdf:about="">
        <dc:format>image/svg+xml</dc:format>
        <dc:type
           rdf:resource="http://purl.org/dc/dcmitype/StillImage" />
      </cc:Work>
    </rdf:RDF>
  </metadata>
  <ellipse
     style="opacity:1;fill:none;stroke:#000000;stroke-width:0.582072;stroke-dasharray:none;stroke-opacity:1;filter:url(#filter3)"
     id="path1-5"
     cx="8.4450111"
     cy="8.423522"
     rx="6.8752708"
     ry="6.8578653" />
  <ellipse
     style="opacity:1;fill:none;stroke-width:0.58207188;stroke-opacity:1;stroke:currentColor;stroke-dasharray:none;fill-opacity:1"
     id="path1"
     cx="8.4450111"
     cy="8.423522"
     rx="6.8752708"
     ry="6.8578653"
     class="ColorScheme-Text" />
  <ellipse
     style="fill:currentColor;stroke:none;stroke-width:0.285844;stroke-dasharray:none;stroke-opacity:1"
     id="path1-2"
     cx="8.4557552"
     cy="8.423522"
     rx="6.5738997"
     ry="6.5692253"
     class="ColorScheme-Highlight" />
  <path
     id="path5-3"
     style="opacity:0.3;fill:#000000;fill-opacity:1;stroke-width:0.560555;stroke-opacity:0.550265"
     d="m 8.4665,5.0269844 c -2.237944,0 -4.039541,1.7698171 -4.039541,3.9683951 0,2.1985735 1.801597,3.9689485 4.039541,3.9689485 2.237944,0 4.039541,-1.770375 4.039541,-3.9689485 0,-2.198578 -1.801597,-3.9683951 -4.039541,-3.9683951 z M 6.587638,6.1608907 h 3.757725 c 0.520447,0 0.939293,0.4213389 0.939293,0.9448296 v 3.7798717 c 0,0.523491 -0.418846,0.94483 -0.939293,0.94483 H 6.587638 c -0.520446,0 -0.939294,-0.421339 -0.939294,-0.94483 V 7.1057203 c 0,-0.5234907 0.418848,-0.9448296 0.939294,-0.9448296 z m 0.733606,0.6619066 c -0.630637,0 -1.136397,0.4606032 -1.136397,1.2463003 0,0.79529 0.492948,1.2266452 1.136397,1.2266452 0.329723,0 0.608423,-0.1287495 0.768488,-0.2865218 V 7.9337264 H 7.247607 v 0.3895034 h 0.419401 v 0.4703387 c -0.06723,0.057959 -0.182504,0.08997 -0.29455,0.08997 -0.467376,0 -0.704262,-0.312109 -0.704262,-0.8304977 0,-0.5119671 0.275355,-0.8210853 0.669106,-0.8210853 0.214481,0 0.348849,0.086895 0.467292,0.1995962 L 8.054297,7.1286968 C 7.900638,6.9709174 7.663771,6.8227968 7.321244,6.8227973 Z m 2.218537,0 c -0.627435,0 -1.059714,0.4509177 -1.059714,1.226922 0,0.7727901 0.432279,1.2460235 1.059714,1.2460235 0.627442,0 1.059438,-0.4732049 1.059438,-1.2460235 0,-0.77279 -0.432004,-1.226922 -1.059438,-1.226922 z m 0,0.4091587 c 0.352134,0 0.576088,0.3057962 0.576088,0.8177633 0,0.5087529 -0.223954,0.8338197 -0.576088,0.8338197 -0.352136,0 -0.576366,-0.3251025 -0.576366,-0.8338197 0,-0.5119671 0.22423,-0.8177633 0.576366,-0.8177633 z m -3.327806,3.58775 v 0.443762 h 2.205526 v -0.443762 z" />
  <path
     id="path5-3-7"
     style="fill:currentColor;fill-opacity:1;stroke-width:0.560555;stroke-opacity:0.550265"
     d="m 8.4665,4.4978279 c -2.237944,0 -4.039541,1.7698171 -4.039541,3.9683952 0,2.1985739 1.801597,3.9689489 4.039541,3.9689489 2.237944,0 4.039541,-1.770375 4.039541,-3.9689489 0,-2.1985781 -1.801597,-3.9683952 -4.039541,-3.9683952 z M 6.587638,5.6317342 h 3.757725 c 0.520447,0 0.939293,0.4213389 0.939293,0.9448296 v 3.7798722 c 0,0.52349 -0.418846,0.944829 -0.939293,0.944829 H 6.587638 c -0.520446,0 -0.939294,-0.421339 -0.939294,-0.944829 V 6.5765638 c 0,-0.5234907 0.418848,-0.9448296 0.939294,-0.9448296 z m 0.733606,0.6619066 c -0.630637,0 -1.136397,0.4606032 -1.136397,1.2463003 0,0.79529 0.492948,1.226645 1.136397,1.226645 0.329723,0 0.608423,-0.128749 0.768488,-0.286522 V 7.4045699 H 7.247607 v 0.3895034 h 0.419401 v 0.4703388 c -0.06723,0.05796 -0.182504,0.08997 -0.29455,0.08997 -0.467376,0 -0.704262,-0.3121091 -0.704262,-0.8304978 0,-0.5119671 0.275355,-0.8210853 0.669106,-0.8210853 0.214481,0 0.348849,0.086895 0.467292,0.1995962 L 8.054297,6.5995403 C 7.900638,6.4417609 7.663771,6.2936403 7.321244,6.2936408 Z m 2.218537,0 c -0.627435,0 -1.059714,0.4509177 -1.059714,1.226922 0,0.7727903 0.432279,1.2460233 1.059714,1.2460233 0.627442,0 1.059438,-0.473205 1.059438,-1.2460233 0,-0.77279 -0.432004,-1.226922 -1.059438,-1.226922 z m 0,0.4091587 c 0.352134,0 0.576088,0.3057962 0.576088,0.8177633 0,0.5087529 -0.223954,0.8338193 -0.576088,0.8338193 -0.352136,0 -0.576366,-0.3251021 -0.576366,-0.8338193 0,-0.5119671 0.22423,-0.8177633 0.576366,-0.8177633 z M 6.211975,10.29055 v 0.443762 H 8.417501 V 10.29055 Z"
     class="ColorScheme-Text" />
  <path
     id="gradient-path1"
     style="opacity:0.3;baseline-shift:baseline;display:inline;overflow:visible;vector-effect:none;enable-background:accumulate;stop-color:#000000;stop-opacity:1;fill:url(#linearGradient4)"
     d="M 8.4453131 1.2753492 C 4.4913166 1.2753492 1.2794833 4.4784283 1.2794833 8.4236094 C 1.2794833 12.36879 4.4913166 15.572386 8.4453131 15.572386 C 12.39931 15.572386 15.611143 12.36879 15.611143 8.4236094 C 15.611143 4.4784283 12.39931 1.2753492 8.4453131 1.2753492 z " />
</svg>
