<?xml version='1.0' encoding='UTF-8'?>
<svg xmlns:inkscape="http://www.inkscape.org/namespaces/inkscape" xmlns:sodipodi="http://sodipodi.sourceforge.net/DTD/sodipodi-0.dtd" xmlns="http://www.w3.org/2000/svg" xmlns:svg="http://www.w3.org/2000/svg" xmlns:rdf="http://www.w3.org/1999/02/22-rdf-syntax-ns#" xmlns:cc="http://creativecommons.org/ns#" xmlns:dc="http://purl.org/dc/elements/1.1/" width="64" height="64" version="1.1" viewBox="0 0 16.933 16.933" id="svg7" sodipodi:docname="grub-customizer.svg" inkscape:version="1.4.2 (ebf0e940d0, 2025-05-08)">
  <sodipodi:namedview id="namedview7" pagecolor="#a9abb3" bordercolor="#000000" borderopacity="0.25" inkscape:showpageshadow="2" inkscape:pageopacity="0.0" inkscape:pagecheckerboard="0" inkscape:deskcolor="#d1d1d1" inkscape:zoom="4.3531261" inkscape:cx="36.066035" inkscape:cy="26.417797" inkscape:window-width="2560" inkscape:window-height="1376" inkscape:window-x="0" inkscape:window-y="0" inkscape:window-maximized="1" inkscape:current-layer="svg7" showgrid="false"/>
  <defs id="defs2">
    <filter style="color-interpolation-filters:sRGB;" inkscape:label="Blur" id="filter3" x="-0.10843471" y="-0.10870992" width="1.2168694" height="1.2174198">
      <feGaussianBlur stdDeviation="0.5 0.5" result="blur" id="feGaussianBlur3"/>
    </filter>
    <style id="current-color-scheme" type="text/css">.ColorScheme-Text {color:#d8dee9} .ColorScheme-Highlight {color:#3b4252}</style>
  <linearGradient id="linearGradient3" inkscape:collect="always">
      <stop style="stop-color:#000000;stop-opacity:1;" offset="0" id="stop3"/>
      <stop style="stop-color:#000000;stop-opacity:0;" offset="1" id="stop4"/>
    </linearGradient>
    <linearGradient xmlns:xlink="http://www.w3.org/1999/xlink" inkscape:collect="always" xlink:href="#linearGradient3" id="linearGradient4" x1="13.512321" y1="13.490874" x2="3.3783066" y2="3.3568602" gradientUnits="userSpaceOnUse"/>
  </defs>
  <metadata id="metadata2">
    <rdf:RDF>
      <cc:Work rdf:about="">
        <dc:format>image/svg+xml</dc:format>
        <dc:type rdf:resource="http://purl.org/dc/dcmitype/StillImage"/>
      </cc:Work>
    </rdf:RDF>
  </metadata>
  <ellipse style="opacity:1;fill:none;stroke:#000000;stroke-width:0.582072;stroke-dasharray:none;stroke-opacity:1;filter:url(#filter3)" id="path1-5" cx="8.4450111" cy="8.423522" rx="6.8752708" ry="6.8578653"/>
  <ellipse style="opacity:1;fill:none;stroke-width:0.58207188;stroke-opacity:1;stroke:currentColor;stroke-dasharray:none;fill-opacity:1" id="path1" cx="8.4450111" cy="8.423522" rx="6.8752708" ry="6.8578653" class="ColorScheme-Text"/>
  <ellipse style="fill:currentColor;stroke:none;stroke-width:0.285844;stroke-dasharray:none;stroke-opacity:1" id="path1-2" cx="8.4557552" cy="8.423522" rx="6.5738997" ry="6.5692253" class="ColorScheme-Highlight"/>
<path id="path24" style="fill:#000000;fill-opacity:1;opacity:0.3" class="ColorScheme-Text" inkscape:label="path24" d="M 32.306722 22.000279 L 29.673627 22.394498 L 29.673627 23.203627 A 6.99 6.99 0 0 0 27.569988 23.964839 L 26.92154 23.191647 L 24.916151 24.897025 L 25.552592 25.65606 A 6.99 6.99 0 0 0 24.918335 26.576267 C 24.726567 26.908605 24.575183 27.252173 24.44346 27.59993 L 23.439129 27.421333 L 23.000279 30.015337 L 23.993694 30.191756 C 24.007854 30.939797 24.138772 31.677615 24.38451 32.380651 L 23.49262 32.897927 L 24.822268 35.169586 L 25.705425 34.659933 C 26.181949 35.209351 26.749178 35.693651 27.406239 36.085437 L 27.052539 37.062272 L 29.532802 37.945453 L 29.883226 36.983864 C 30.624676 37.102811 31.372708 37.107245 32.101489 36.990398 L 32.455189 37.960699 L 34.923443 37.047026 L 34.576293 36.091971 C 35.208445 35.716584 35.785416 35.238453 36.281474 34.664289 L 37.173364 35.178298 L 38.476812 32.890304 L 37.598022 32.382829 C 37.846501 31.66674 37.970733 30.927539 37.980104 30.192845 L 38.999719 30.013159 L 38.524845 27.423511 L 37.523789 27.59993 C 37.261297 26.909065 36.883502 26.261737 36.41029 25.67784 L 37.078389 24.882868 L 35.048984 23.203627 L 34.400535 23.976818 A 6.98 6.98 0 0 0 32.306722 23.209072 L 32.306722 22.000279 z M 30.984716 24.080274 A 6 6 0 0 1 36.984506 30.079588 A 6 6 0 0 1 30.984716 36.079992 A 6 6 0 0 1 24.983834 30.079588 A 6 6 0 0 1 30.984716 24.080274 z M 31.225974 25.087601 A 4.976 4.976 0 0 0 30.6332 25.094135 A 4.989 4.989 0 0 0 26.650807 27.575972 A 5.013 5.013 0 0 0 28.486987 34.409462 A 5.002 5.002 0 0 0 35.316442 32.584294 A 5.01 5.01 0 0 0 33.480262 25.751892 A 4.976 4.976 0 0 0 31.225974 25.087601 z M 30.984716 26.079682 A 4 4 0 0 1 34.984576 30.079588 A 4 4 0 0 1 30.984716 34.079494 A 4 4 0 0 1 26.984856 30.079588 A 4 4 0 0 1 30.984716 26.079682 z " transform="matrix(0.47336336,0,0,0.47452063,-6.2077643,-5.2307042)"/>
  <path id="path24-7" style="fill:currentColor;" class="ColorScheme-Text" inkscape:label="path24" d="M 32.306722 22.000279 L 29.673627 22.394498 L 29.673627 23.203626 A 6.99 6.99 0 0 0 27.569988 23.964839 L 26.92154 23.191647 L 24.916151 24.897025 L 25.552592 25.65606 A 6.99 6.99 0 0 0 24.918335 26.576267 C 24.726567 26.908605 24.575183 27.252172 24.44346 27.599929 L 23.439129 27.421333 L 23.000279 30.015337 L 23.993694 30.191755 C 24.007854 30.939796 24.138772 31.677614 24.38451 32.38065 L 23.49262 32.897927 L 24.822268 35.169586 L 25.705425 34.659933 C 26.181949 35.209351 26.749178 35.693651 27.406239 36.085437 L 27.052539 37.062272 L 29.532802 37.945453 L 29.883226 36.983864 C 30.624676 37.102811 31.372708 37.107245 32.101489 36.990398 L 32.455189 37.960699 L 34.923443 37.047026 L 34.576293 36.091971 C 35.208445 35.716584 35.785416 35.238453 36.281474 34.664289 L 37.173364 35.178298 L 38.476812 32.890304 L 37.598022 32.382828 C 37.846501 31.666739 37.970733 30.927538 37.980104 30.192844 L 38.999719 30.013159 L 38.524845 27.423511 L 37.523789 27.599929 C 37.261297 26.909064 36.883502 26.261737 36.41029 25.67784 L 37.078389 24.882868 L 35.048984 23.203626 L 34.400535 23.976818 A 6.98 6.98 0 0 0 32.306722 23.209071 L 32.306722 22.000279 z M 30.984716 24.080273 A 6 6 0 0 1 36.984506 30.079588 A 6 6 0 0 1 30.984716 36.079992 A 6 6 0 0 1 24.983834 30.079588 A 6 6 0 0 1 30.984716 24.080273 z M 31.225974 25.087601 A 4.976 4.976 0 0 0 30.6332 25.094135 A 4.989 4.989 0 0 0 26.650807 27.575971 A 5.013 5.013 0 0 0 28.486987 34.409462 A 5.002 5.002 0 0 0 35.316442 32.584294 A 5.01 5.01 0 0 0 33.480262 25.751892 A 4.976 4.976 0 0 0 31.225974 25.087601 z M 30.984716 26.079682 A 4 4 0 0 1 34.984576 30.079588 A 4 4 0 0 1 30.984716 34.079494 A 4 4 0 0 1 26.984856 30.079588 A 4 4 0 0 1 30.984716 26.079682 z " transform="matrix(0.47336336,0,0,0.47452063,-6.2077643,-5.7598605)"/>
<path id="gradient-path1" style="opacity:0.3;baseline-shift:baseline;display:inline;overflow:visible;vector-effect:none;enable-background:accumulate;stop-color:#000000;stop-opacity:1;fill:url(#linearGradient4)" d="M 8.4453131 1.2753492 C 4.4913166 1.2753492 1.2794833 4.4784283 1.2794833 8.4236094 C 1.2794833 12.36879 4.4913166 15.572386 8.4453131 15.572386 C 12.39931 15.572386 15.611143 12.36879 15.611143 8.4236094 C 15.611143 4.4784283 12.39931 1.2753492 8.4453131 1.2753492 z "/>
</svg>
