<?xml version="1.0" encoding="UTF-8" standalone="no"?>
<svg
   width="64"
   height="64"
   version="1.1"
   viewBox="0 0 16.933 16.933"
   id="svg7"
   sodipodi:docname="gwenview.svg"
   inkscape:version="1.4.2 (ebf0e940d0, 2025-05-08)"
   xmlns:inkscape="http://www.inkscape.org/namespaces/inkscape"
   xmlns:sodipodi="http://sodipodi.sourceforge.net/DTD/sodipodi-0.dtd"
   xmlns:xlink="http://www.w3.org/1999/xlink"
   xmlns="http://www.w3.org/2000/svg"
   xmlns:svg="http://www.w3.org/2000/svg"
   xmlns:rdf="http://www.w3.org/1999/02/22-rdf-syntax-ns#"
   xmlns:cc="http://creativecommons.org/ns#"
   xmlns:dc="http://purl.org/dc/elements/1.1/">
  <sodipodi:namedview
     id="namedview7"
     pagecolor="#9c4444"
     bordercolor="#000000"
     borderopacity="0.25"
     inkscape:showpageshadow="2"
     inkscape:pageopacity="0.0"
     inkscape:pagecheckerboard="0"
     inkscape:deskcolor="#d1d1d1"
     inkscape:zoom="8.7062522"
     inkscape:cx="72.304361"
     inkscape:cy="15.276378"
     inkscape:window-width="2560"
     inkscape:window-height="1388"
     inkscape:window-x="0"
     inkscape:window-y="0"
     inkscape:window-maximized="1"
     inkscape:current-layer="svg7"
     showgrid="false" />
  <defs
     id="defs2">
    <filter
       style="color-interpolation-filters:sRGB;"
       inkscape:label="Blur"
       id="filter3"
       x="-0.10843471"
       y="-0.10870992"
       width="1.2168694"
       height="1.2174198">
      <feGaussianBlur
         stdDeviation="0.5 0.5"
         result="blur"
         id="feGaussianBlur3" />
    </filter>
    <style
       id="current-color-scheme"
       type="text/css">.ColorScheme-Text {color:#d8dee9} .ColorScheme-Highlight {color:#3b4252}</style>
    <linearGradient
       id="linearGradient3"
       inkscape:collect="always">
      <stop
         style="stop-color:#000000;stop-opacity:1;"
         offset="0"
         id="stop3" />
      <stop
         style="stop-color:#000000;stop-opacity:0;"
         offset="1"
         id="stop4" />
    </linearGradient>
    <linearGradient
       inkscape:collect="always"
       xlink:href="#linearGradient3"
       id="linearGradient4"
       x1="13.512321"
       y1="13.490874"
       x2="3.3783066"
       y2="3.3568602"
       gradientUnits="userSpaceOnUse" />
  </defs>
  <metadata
     id="metadata2">
    <rdf:RDF>
      <cc:Work
         rdf:about="">
        <dc:format>image/svg+xml</dc:format>
        <dc:type
           rdf:resource="http://purl.org/dc/dcmitype/StillImage" />
      </cc:Work>
    </rdf:RDF>
  </metadata>
  <ellipse
     style="opacity:1;fill:none;stroke:#000000;stroke-width:0.582072;stroke-dasharray:none;stroke-opacity:1;filter:url(#filter3)"
     id="path1-5"
     cx="8.4450111"
     cy="8.423522"
     rx="6.8752708"
     ry="6.8578653" />
  <ellipse
     style="opacity:1;fill:none;stroke-width:0.58207188;stroke-opacity:1;stroke:currentColor;stroke-dasharray:none;fill-opacity:1"
     id="path1"
     cx="8.4450111"
     cy="8.423522"
     rx="6.8752708"
     ry="6.8578653"
     class="ColorScheme-Text" />
  <ellipse
     style="fill:currentColor;stroke:none;stroke-width:0.285844;stroke-dasharray:none;stroke-opacity:1"
     id="path1-2"
     cx="8.4557552"
     cy="8.423522"
     rx="6.5738997"
     ry="6.5692253"
     class="ColorScheme-Highlight" />
  <path
     id="path5-6"
     style="opacity:0.3;fill:#000000;fill-opacity:1;stroke-width:0.56604"
     d="M 8.466524,5.8286561 A 4.0760502,4.0760502 0 0 0 6.556238,6.3152482 c -0.0226,0.011925 -0.04606,0.022229 -0.06842,0.034565 A 4.0760502,4.0760502 0 0 0 6.257085,6.4913893 C 6.188455,6.5354572 6.121606,6.5815934 6.05583,6.6296862 A 4.0760502,4.0760502 0 0 0 5.891697,6.7541386 C 5.770488,6.8525228 5.653325,6.9556213 5.54414,7.0674961 5.058465,7.5651005 4.698216,8.1914988 4.519668,8.9035363 a 4.0760502,4.0760502 0 0 0 -0.02184,0.088788 4.0760502,4.0760502 0 0 0 6.79e-4,0.00187 h -3.64e-4 a 4.0760502,4.0760502 0 0 0 1.026656,1.9077417 4.0760502,4.0760502 0 0 0 0.853787,0.682 4.0760502,4.0760502 0 0 0 3.73e-4,0 4.0760502,4.0760502 0 0 0 2.08752,0.57866 4.0760502,4.0760502 0 0 0 2.940944,-1.258107 4.0760502,4.0760502 0 0 0 0.642707,-0.882906 4.0760502,4.0760502 0 0 0 0.385042,-1.0223019 4.0760502,4.0760502 0 0 0 -0.01674,-0.055304 C 12.386879,8.8157217 12.348976,8.6906732 12.305975,8.5680282 A 4.0760502,4.0760502 0 0 0 12.240464,8.3922408 C 12.196494,8.2832169 12.148294,8.1765036 12.095619,8.0727157 A 4.0760502,4.0760502 0 0 0 11.963511,7.8354196 C 11.926471,7.7731842 11.888281,7.7119549 11.848144,7.6520112 A 4.0760502,4.0760502 0 0 0 11.491157,7.1890809 4.0760502,4.0760502 0 0 0 11.269522,6.9627226 c -0.01446,-0.013789 -0.02938,-0.026888 -0.04404,-0.040396 A 4.0760502,4.0760502 0 0 0 8.466507,5.8294223 Z M 8.434134,6.647146 a 2.3036447,2.3036447 0 0 1 0.01347,0 2.3035747,2.3035747 0 0 1 0.0051,0 2.3363866,2.3363866 0 0 1 0.01419,0 v 0 a 2.3363866,2.3363866 0 0 1 0.01201,0 2.3363866,2.3363866 0 0 1 0.0029,0 2.3036447,2.3036447 0 0 1 0.02693,0 2.3036447,2.3036447 0 0 1 0.0575,0.00503 2.3363866,2.3363866 0 0 1 0.07897,0.00876 2.3035747,2.3035747 0 0 1 0.14812,0.016025 2.3035747,2.3035747 0 0 1 0.0011,0 2.3035747,2.3035747 0 0 1 0.0011,0 2.3035747,2.3035747 0 0 1 0.0033,0 2.3363866,2.3363866 0 0 1 0.0025,0 2.3363866,2.3363866 0 0 1 2.001632,2.302974 A 2.3363866,2.3363866 0 0 1 8.46687,11.316393 2.3363866,2.3363866 0 0 1 6.130419,8.979935 2.3363866,2.3363866 0 0 1 6.131098,8.966519 2.3035747,2.3035747 0 0 0 6.136198,9.03822 2.3035747,2.3035747 0 0 1 6.130398,8.947606 2.3035747,2.3035747 0 0 1 6.805131,7.3186387 2.3036447,2.3036447 0 0 1 7.552286,6.81932 2.3035747,2.3035747 0 0 1 7.837609,6.72252 2.3036447,2.3036447 0 0 1 8.434096,6.643906 Z m 1.705755,0.7628133 a 2.3036447,2.3036447 0 0 1 0.159038,0.1983337 2.3035747,2.3035747 0 0 0 -0.153943,-0.1939735 2.3035747,2.3035747 0 0 0 -0.0051,-0.00429 z M 9.690432,7.792074 A 0.4863312,0.4863312 0 0 0 9.203854,8.278666 0.4863312,0.4863312 0 0 0 9.690432,8.7648668 0.4863312,0.4863312 0 0 0 10.176647,8.278666 0.4863312,0.4863312 0 0 0 9.690432,7.792074 Z M 7.193122,7.9227312 6.398656,9.4108488 c 0.209462,0.9678922 1.06482,1.6590042 2.055131,1.6602712 0.857236,0.0095 1.725465,-0.694466 1.989259,-1.3149014 L 9.793062,9.7231076 8.788242,8.729203 8.051277,9.3912098 Z"
     class="ColorScheme-Text" />
  <path
     id="path5-6-5"
     style="fill:currentColor;stroke-width:0.56604"
     d="M 8.466524,5.29953 A 4.0760502,4.0760502 0 0 0 6.556238,5.7861221 c -0.0226,0.011925 -0.04606,0.022229 -0.06842,0.034565 A 4.0760502,4.0760502 0 0 0 6.257085,5.9622635 C 6.188455,6.0063315 6.121606,6.0524675 6.05583,6.1005605 A 4.0760502,4.0760502 0 0 0 5.891697,6.2250124 C 5.770488,6.3233967 5.653325,6.4264952 5.54414,6.53837 5.058465,7.0359744 4.698216,7.6623727 4.519668,8.3744101 a 4.0760502,4.0760502 0 0 0 -0.02184,0.088788 4.0760502,4.0760502 0 0 0 6.79e-4,0.00187 h -3.64e-4 a 4.0760502,4.0760502 0 0 0 1.026656,1.9077419 4.0760502,4.0760502 0 0 0 0.853787,0.682 4.0760502,4.0760502 0 0 0 3.73e-4,0 4.0760502,4.0760502 0 0 0 2.08752,0.57866 4.0760502,4.0760502 0 0 0 2.940944,-1.258107 4.0760502,4.0760502 0 0 0 0.642707,-0.8829061 4.0760502,4.0760502 0 0 0 0.385042,-1.022302 4.0760502,4.0760502 0 0 0 -0.01674,-0.055304 C 12.386879,8.2865955 12.348976,8.161547 12.305975,8.038902 A 4.0760502,4.0760502 0 0 0 12.240464,7.8631147 C 12.196494,7.7540908 12.148294,7.6473775 12.095619,7.5435896 A 4.0760502,4.0760502 0 0 0 11.963511,7.3062935 C 11.926471,7.2440581 11.888281,7.1828287 11.848144,7.1228851 A 4.0760502,4.0760502 0 0 0 11.491157,6.6599548 4.0760502,4.0760502 0 0 0 11.269522,6.4335965 c -0.01446,-0.013789 -0.02938,-0.026888 -0.04404,-0.040397 A 4.0760502,4.0760502 0 0 0 8.466507,5.3002962 Z m -0.03239,0.8184898 a 2.3036447,2.3036447 0 0 1 0.01347,0 2.3035747,2.3035747 0 0 1 0.0051,0 2.3363866,2.3363866 0 0 1 0.01419,0 v 0 a 2.3363866,2.3363866 0 0 1 0.01201,0 2.3363866,2.3363866 0 0 1 0.0029,0 2.3036447,2.3036447 0 0 1 0.02693,0 2.3036447,2.3036447 0 0 1 0.0575,0.00503 2.3363866,2.3363866 0 0 1 0.07897,0.00876 2.3035747,2.3035747 0 0 1 0.14812,0.016025 2.3035747,2.3035747 0 0 1 0.0011,0 2.3035747,2.3035747 0 0 1 0.0011,0 2.3035747,2.3035747 0 0 1 0.0033,0 2.3363866,2.3363866 0 0 1 0.0025,0 2.3363866,2.3363866 0 0 1 2.001632,2.302974 2.3363866,2.3363866 0 0 1 -2.336086,2.3364582 2.3363866,2.3363866 0 0 1 -2.336451,-2.3364582 2.3363866,2.3363866 0 0 1 6.79e-4,-0.013416 2.3035747,2.3035747 0 0 0 0.0051,0.071701 2.3035747,2.3035747 0 0 1 -0.0058,-0.090614 2.3035747,2.3035747 0 0 1 0.674733,-1.6289673 2.3036447,2.3036447 0 0 1 0.747155,-0.4993187 2.3035747,2.3035747 0 0 1 0.285323,-0.0968 2.3036447,2.3036447 0 0 1 0.596487,-0.078614 z m 1.705755,0.7628133 a 2.3036447,2.3036447 0 0 1 0.159038,0.1983337 2.3035747,2.3035747 0 0 0 -0.153943,-0.1939734 2.3035747,2.3035747 0 0 0 -0.0051,-0.00429 z M 9.690432,7.2629479 A 0.4863312,0.4863312 0 0 0 9.203854,7.7495399 0.4863312,0.4863312 0 0 0 9.690432,8.2357407 0.4863312,0.4863312 0 0 0 10.176647,7.7495399 0.4863312,0.4863312 0 0 0 9.690432,7.2629479 Z M 7.193122,7.3936051 6.398656,8.8817229 c 0.209462,0.967892 1.06482,1.6590041 2.055131,1.6602711 0.857236,0.0095 1.725465,-0.6944661 1.989259,-1.3149011 L 9.793062,9.1939819 8.788242,8.2000769 8.051277,8.8620839 Z"
     class="ColorScheme-Text" />
  <path
     id="gradient-path1"
     style="opacity:0.3;baseline-shift:baseline;display:inline;overflow:visible;vector-effect:none;enable-background:accumulate;stop-color:#000000;stop-opacity:1;fill:url(#linearGradient4)"
     d="M 8.4453131 1.2753492 C 4.4913166 1.2753492 1.2794833 4.4784283 1.2794833 8.4236094 C 1.2794833 12.36879 4.4913166 15.572386 8.4453131 15.572386 C 12.39931 15.572386 15.611143 12.36879 15.611143 8.4236094 C 15.611143 4.4784283 12.39931 1.2753492 8.4453131 1.2753492 z " />
</svg>
