<?xml version="1.0" encoding="UTF-8" standalone="no"?>
<svg
   width="64"
   height="64"
   version="1.1"
   viewBox="0 0 16.933 16.933"
   id="svg7"
   sodipodi:docname="gzdoom.svg"
   inkscape:version="1.4.2 (ebf0e940d0, 2025-05-08)"
   xmlns:inkscape="http://www.inkscape.org/namespaces/inkscape"
   xmlns:sodipodi="http://sodipodi.sourceforge.net/DTD/sodipodi-0.dtd"
   xmlns:xlink="http://www.w3.org/1999/xlink"
   xmlns="http://www.w3.org/2000/svg"
   xmlns:svg="http://www.w3.org/2000/svg"
   xmlns:rdf="http://www.w3.org/1999/02/22-rdf-syntax-ns#"
   xmlns:cc="http://creativecommons.org/ns#"
   xmlns:dc="http://purl.org/dc/elements/1.1/">
  <sodipodi:namedview
     id="namedview7"
     pagecolor="#9c4444"
     bordercolor="#000000"
     borderopacity="0.25"
     inkscape:showpageshadow="2"
     inkscape:pageopacity="0.0"
     inkscape:pagecheckerboard="0"
     inkscape:deskcolor="#d1d1d1"
     inkscape:zoom="8.7062522"
     inkscape:cx="72.304361"
     inkscape:cy="15.276378"
     inkscape:window-width="2560"
     inkscape:window-height="1388"
     inkscape:window-x="0"
     inkscape:window-y="0"
     inkscape:window-maximized="1"
     inkscape:current-layer="svg7"
     showgrid="false" />
  <defs
     id="defs2">
    <filter
       style="color-interpolation-filters:sRGB;"
       inkscape:label="Blur"
       id="filter3"
       x="-0.10843471"
       y="-0.10870992"
       width="1.2168694"
       height="1.2174198">
      <feGaussianBlur
         stdDeviation="0.5 0.5"
         result="blur"
         id="feGaussianBlur3" />
    </filter>
    <style
       id="current-color-scheme"
       type="text/css">.ColorScheme-Text {color:#d8dee9} .ColorScheme-Highlight {color:#3b4252}</style>
    <linearGradient
       id="linearGradient3"
       inkscape:collect="always">
      <stop
         style="stop-color:#000000;stop-opacity:1;"
         offset="0"
         id="stop3" />
      <stop
         style="stop-color:#000000;stop-opacity:0;"
         offset="1"
         id="stop4" />
    </linearGradient>
    <linearGradient
       inkscape:collect="always"
       xlink:href="#linearGradient3"
       id="linearGradient4"
       x1="13.512321"
       y1="13.490874"
       x2="3.3783066"
       y2="3.3568602"
       gradientUnits="userSpaceOnUse" />
  </defs>
  <metadata
     id="metadata2">
    <rdf:RDF>
      <cc:Work
         rdf:about="">
        <dc:format>image/svg+xml</dc:format>
        <dc:type
           rdf:resource="http://purl.org/dc/dcmitype/StillImage" />
      </cc:Work>
    </rdf:RDF>
  </metadata>
  <ellipse
     style="opacity:1;fill:none;stroke:#000000;stroke-width:0.582072;stroke-dasharray:none;stroke-opacity:1;filter:url(#filter3)"
     id="path1-5"
     cx="8.4450111"
     cy="8.423522"
     rx="6.8752708"
     ry="6.8578653" />
  <ellipse
     style="opacity:1;fill:none;stroke-width:0.58207188;stroke-opacity:1;stroke:currentColor;stroke-dasharray:none;fill-opacity:1"
     id="path1"
     cx="8.4450111"
     cy="8.423522"
     rx="6.8752708"
     ry="6.8578653"
     class="ColorScheme-Text" />
  <ellipse
     style="fill:currentColor;stroke:none;stroke-width:0.285844;stroke-dasharray:none;stroke-opacity:1"
     id="path1-2"
     cx="8.4557552"
     cy="8.423522"
     rx="6.5738997"
     ry="6.5692253"
     class="ColorScheme-Highlight" />
  <path
     id="path5-6"
     style="opacity:0.3;fill:#000000;fill-opacity:1;stroke-width:0.141738"
     d="M 8.4665,5.0269844 A 3.9686721,3.9686721 0 0 0 4.497828,8.9956565 3.9686721,3.9686721 0 0 0 8.4665,12.964328 3.9686721,3.9686721 0 0 0 12.435172,8.9956565 3.9686721,3.9686721 0 0 0 8.4665,5.0269844 Z M 6.723008,7.5782736 H 7.899547 V 8.4287034 H 6.933125 C 6.858335,8.5339271 6.76564,8.7095499 6.76564,9.0665256 c 0,0.2691582 0.0681,0.4076318 0.119869,0.4852876 0.003,0.00447 0.0042,0.00583 0.0047,0.00637 v 2.834e-4 h 2.82e-4 v 2.836e-4 h 2.84e-4 2.83e-4 c 4.26e-4,4.677e-4 0.0014,0.00182 0.0028,0.00387 H 7.616094 V 8.995669 h 0.85043 V 9.1861298 L 8.065671,9.5869834 C 7.817096,9.835731 7.864721,10.207864 8.087261,10.41056 a 0.42525738,0.42525738 0 0 1 -0.04595,0.0025 H 6.723034 a 0.42525738,0.42525738 0 0 1 -0.216759,-0.05952 c 0,0 -0.188748,-0.120619 -0.328324,-0.329984 C 6.038375,9.8141826 5.915237,9.4918965 5.915237,9.066537 c 0,-0.8507189 0.512971,-1.3692139 0.512971,-1.3692139 A 0.42525738,0.42525738 0 0 1 6.723034,7.578285 Z m 1.318277,0 h 2.409551 a 0.42525738,0.42525738 0 0 1 0.30064,0.7258551 L 9.492995,9.5626096 h 1.383056 V 10.413039 H 8.4665 A 0.42525738,0.42525738 0 0 1 8.16586,9.6871844 L 9.42434,8.4287034 H 8.041285 Z" />
  <path
     id="path5-6-5"
     style="fill:currentColor;stroke-width:0.141738"
     d="M 8.4665,4.4978281 A 3.9686721,3.9686721 0 0 0 4.497828,8.4665002 3.9686721,3.9686721 0 0 0 8.4665,12.435172 3.9686721,3.9686721 0 0 0 12.435172,8.4665002 3.9686721,3.9686721 0 0 0 8.4665,4.4978281 Z M 6.723008,7.0491173 H 7.899547 V 7.8995471 H 6.933125 C 6.858335,8.0047708 6.76564,8.1803936 6.76564,8.5373693 c 0,0.2691582 0.0681,0.4076318 0.119869,0.4852876 0.003,0.00447 0.0042,0.00583 0.0047,0.00637 v 2.834e-4 h 2.82e-4 v 2.836e-4 h 2.84e-4 2.83e-4 c 4.26e-4,4.677e-4 0.0014,0.00182 0.0028,0.00387 H 7.616094 V 8.4665127 h 0.85043 V 8.6569735 L 8.065671,9.0578271 c -0.248575,0.2487476 -0.20095,0.6208807 0.02159,0.8235771 a 0.42525738,0.42525738 0 0 1 -0.04595,0.00249 H 6.723034 A 0.42525738,0.42525738 0 0 1 6.506275,9.8243752 c 0,0 -0.188748,-0.1206198 -0.328324,-0.3299841 C 6.038375,9.2850263 5.915237,8.9627402 5.915237,8.5373807 c 0,-0.8507189 0.512971,-1.3692139 0.512971,-1.3692139 A 0.42525738,0.42525738 0 0 1 6.723034,7.0491287 Z m 1.318277,0 h 2.409551 a 0.42525738,0.42525738 0 0 1 0.30064,0.7258551 L 9.492995,9.0334533 h 1.383056 V 9.8838829 H 8.4665 A 0.42525738,0.42525738 0 0 1 8.16586,9.1580281 L 9.42434,7.8995471 H 8.041285 Z"
     class="ColorScheme-Text" />
  <path
     id="gradient-path1"
     style="opacity:0.3;baseline-shift:baseline;display:inline;overflow:visible;vector-effect:none;enable-background:accumulate;stop-color:#000000;stop-opacity:1;fill:url(#linearGradient4)"
     d="M 8.4453131 1.2753492 C 4.4913166 1.2753492 1.2794833 4.4784283 1.2794833 8.4236094 C 1.2794833 12.36879 4.4913166 15.572386 8.4453131 15.572386 C 12.39931 15.572386 15.611143 12.36879 15.611143 8.4236094 C 15.611143 4.4784283 12.39931 1.2753492 8.4453131 1.2753492 z " />
</svg>
