<?xml version='1.0' encoding='UTF-8'?>
<svg xmlns:inkscape="http://www.inkscape.org/namespaces/inkscape" xmlns:sodipodi="http://sodipodi.sourceforge.net/DTD/sodipodi-0.dtd" xmlns="http://www.w3.org/2000/svg" xmlns:svg="http://www.w3.org/2000/svg" xmlns:rdf="http://www.w3.org/1999/02/22-rdf-syntax-ns#" xmlns:cc="http://creativecommons.org/ns#" xmlns:dc="http://purl.org/dc/elements/1.1/" width="64" height="64" version="1.1" viewBox="0 0 16.933 16.933" id="svg7" sodipodi:docname="heroic.svg" inkscape:version="1.4.2 (ebf0e940d0, 2025-05-08)">
  <sodipodi:namedview id="namedview7" pagecolor="#9c4444" bordercolor="#000000" borderopacity="0.25" inkscape:showpageshadow="2" inkscape:pageopacity="0.0" inkscape:pagecheckerboard="0" inkscape:deskcolor="#d1d1d1" inkscape:zoom="4.3531261" inkscape:cx="36.755195" inkscape:cy="26.188077" inkscape:window-width="2560" inkscape:window-height="1376" inkscape:window-x="0" inkscape:window-y="0" inkscape:window-maximized="1" inkscape:current-layer="svg7" showgrid="false"/>
  <defs id="defs2">
    <filter style="color-interpolation-filters:sRGB;" inkscape:label="Blur" id="filter3" x="-0.10843471" y="-0.10870992" width="1.2168694" height="1.2174198">
      <feGaussianBlur stdDeviation="0.5 0.5" result="blur" id="feGaussianBlur3"/>
    </filter>
    <style id="current-color-scheme" type="text/css">.ColorScheme-Text {color:#d8dee9} .ColorScheme-Highlight {color:#3b4252}</style>
  <linearGradient id="linearGradient3" inkscape:collect="always">
      <stop style="stop-color:#000000;stop-opacity:1;" offset="0" id="stop3"/>
      <stop style="stop-color:#000000;stop-opacity:0;" offset="1" id="stop4"/>
    </linearGradient>
    <linearGradient xmlns:xlink="http://www.w3.org/1999/xlink" inkscape:collect="always" xlink:href="#linearGradient3" id="linearGradient4" x1="13.512321" y1="13.490874" x2="3.3783066" y2="3.3568602" gradientUnits="userSpaceOnUse"/>
  </defs>
  <metadata id="metadata2">
    <rdf:RDF>
      <cc:Work rdf:about="">
        <dc:format>image/svg+xml</dc:format>
        <dc:type rdf:resource="http://purl.org/dc/dcmitype/StillImage"/>
      </cc:Work>
    </rdf:RDF>
  </metadata>
  <ellipse style="opacity:1;fill:none;stroke:#000000;stroke-width:0.582072;stroke-dasharray:none;stroke-opacity:1;filter:url(#filter3)" id="path1-5" cx="8.4450111" cy="8.423522" rx="6.8752708" ry="6.8578653"/>
  <ellipse style="opacity:1;fill:none;stroke-width:0.58207188;stroke-opacity:1;stroke:currentColor;stroke-dasharray:none;fill-opacity:1" id="path1" cx="8.4450111" cy="8.423522" rx="6.8752708" ry="6.8578653" class="ColorScheme-Text"/>
  <ellipse style="fill:currentColor;stroke:none;stroke-width:0.285844;stroke-dasharray:none;stroke-opacity:1" id="path1-2" cx="8.4557552" cy="8.423522" rx="6.5738997" ry="6.5692253" class="ColorScheme-Highlight"/>
<path style="opacity:0.3;fill:#000000;fill-opacity:1;stroke-width:0.03926" d="m 8.3347647,12.876132 c -0.04254,-0.02144 -0.108355,-0.06265 -0.146262,-0.09157 -0.172751,-0.13181 -1.264341,-1.081019 -1.361194,-1.183648 -0.197323,-0.209091 -0.132802,-0.01074 -1.010277,-3.1057109 -0.424951,-1.4988541 -0.781327,-2.7620457 -0.791948,-2.8070929 -0.02708,-0.1148458 -0.02501,-0.2099579 0.0059,-0.2705357 0.05023,-0.098454 0.140218,-0.1541671 0.424217,-0.2626306 l 0.206192,-0.078748 h 2.805417 2.8054163 l 0.20041,0.076588 c 0.313606,0.119847 0.395227,0.1706765 0.43784,0.2726646 0.02599,0.062183 0.02056,0.191342 -0.01333,0.3181677 -0.01636,0.06118 -0.372514,1.318483 -0.791467,2.7940062 -0.865216,3.0472276 -0.802402,2.8546926 -0.999367,3.0631536 -0.09747,0.103159 -1.1880603,1.051709 -1.3601073,1.182964 -0.103332,0.07883 -0.215077,0.131376 -0.279398,0.131376 -0.03467,0 -0.08304,-0.01428 -0.132048,-0.03898 z m 0.295833,-0.811753 c 0.08626,-0.04324 0.156839,-0.084 0.156839,-0.09057 0,-0.0066 -0.01778,-0.169943 -0.03951,-0.363048 l -0.03951,-0.351099 -0.113986,-0.114516 c -0.06269,-0.06299 -0.120119,-0.114516 -0.127617,-0.114516 -0.0075,0 -0.06493,0.05153 -0.127618,0.114516 l -0.113985,0.114516 -0.03951,0.3511 c -0.02173,0.193105 -0.03951,0.356472 -0.03951,0.363041 0,0.01086 0.294089,0.166927 0.317553,0.168517 0.0055,3.84e-4 0.08059,-0.03469 0.166855,-0.07794 z m -0.844292,-1.066704 c 0.179941,-0.01784 0.336694,-0.03245 0.34834,-0.03246 0.01225,-9e-6 0.05545,-0.052 0.102461,-0.123295 l 0.08129,-0.12328 -0.07977,-0.118627 c -0.05177,-0.07699 -0.09003,-0.120777 -0.109005,-0.124753 -0.03722,-0.0078 -0.70172,-0.0728 -0.744229,-0.0728 -0.02763,0 -0.04207,0.02073 -0.109568,0.157234 l -0.07775,0.157235 0.08146,0.163542 0.08146,0.163543 0.04906,-0.007 c 0.02699,-0.0038 0.19629,-0.02155 0.376232,-0.03939 z m 1.867851,-0.117344 0.08139,-0.163389 -0.07775,-0.157235 c -0.06749,-0.1365 -0.08194,-0.157234 -0.109568,-0.157234 -0.04251,0 -0.707005,0.06499 -0.744229,0.0728 -0.01898,0.004 -0.05724,0.04777 -0.109006,0.124751 l -0.07976,0.118627 0.08129,0.123279 c 0.06747,0.102326 0.08711,0.123422 0.115548,0.124124 0.01884,4.43e-4 0.190318,0.01743 0.381057,0.03769 0.190739,0.02026 0.354188,0.03755 0.363222,0.03842 0.009,9.03e-4 0.05305,-0.07195 0.09781,-0.161816 z m -1.059433,-0.592669 0.114278,-0.11481 0.197382,-1.9346567 0.197382,-1.9346576 -0.317263,-0.4762617 c -0.174495,-0.2619439 -0.318355,-0.4762616 -0.31969,-0.4762616 -0.0013,0 -0.145195,0.2143177 -0.31969,0.4762616 l -0.317264,0.4762617 0.197383,1.9346576 0.197382,1.9346567 0.114278,0.11481 c 0.06285,0.06315 0.120413,0.114811 0.127911,0.114811 0.0075,0 0.06506,-0.05167 0.127911,-0.114811 z" id="path6" class="ColorScheme-Text"/>
  <path style="fill:currentColor;fill-opacity:1;stroke-width:0.03926" d="m 8.3347647,12.346977 c -0.04254,-0.02144 -0.108355,-0.06265 -0.146262,-0.09157 -0.172751,-0.13181 -1.264341,-1.081019 -1.361194,-1.183649 -0.197323,-0.20909 -0.132802,-0.01074 -1.010277,-3.1057099 -0.424951,-1.498854 -0.781327,-2.7620463 -0.791948,-2.8070933 -0.02708,-0.114846 -0.02501,-0.209958 0.0059,-0.270536 0.05023,-0.09845 0.140218,-0.154167 0.424217,-0.26263 l 0.206192,-0.07875 h 2.805417 2.8054163 l 0.20041,0.07659 c 0.313606,0.119847 0.395227,0.170676 0.43784,0.272664 0.02599,0.06218 0.02056,0.191342 -0.01333,0.318168 -0.01636,0.06118 -0.372514,1.3184833 -0.791467,2.7940063 -0.865216,3.0472279 -0.802402,2.8546929 -0.999367,3.0631539 -0.09747,0.103159 -1.1880603,1.051709 -1.3601073,1.182963 -0.103332,0.07883 -0.215077,0.131377 -0.279398,0.131377 -0.03467,0 -0.08304,-0.01428 -0.132048,-0.03898 z m 0.295833,-0.811753 c 0.08626,-0.04324 0.156839,-0.084 0.156839,-0.09057 0,-0.0066 -0.01778,-0.169944 -0.03951,-0.363048 l -0.03951,-0.3511 -0.113986,-0.114516 c -0.06269,-0.06299 -0.120119,-0.114515 -0.127617,-0.114515 -0.0075,0 -0.06493,0.05153 -0.127618,0.114515 l -0.113985,0.114516 -0.03951,0.351101 c -0.02173,0.193104 -0.03951,0.356472 -0.03951,0.36304 0,0.01086 0.294089,0.166928 0.317553,0.168518 0.0055,3.83e-4 0.08059,-0.03469 0.166855,-0.07794 z M 7.7863057,10.46852 c 0.179941,-0.01784 0.336694,-0.03245 0.34834,-0.03246 0.01225,-9e-6 0.05545,-0.052 0.102461,-0.123295 l 0.08129,-0.12328 -0.07977,-0.118627 c -0.05177,-0.07699 -0.09003,-0.1207779 -0.109005,-0.1247539 -0.03722,-0.0078 -0.70172,-0.0728 -0.744229,-0.0728 -0.02763,0 -0.04207,0.02073 -0.109568,0.1572349 l -0.07775,0.157234 0.08146,0.163543 0.08146,0.163543 0.04906,-0.007 c 0.02699,-0.0038 0.19629,-0.02155 0.376232,-0.03939 z m 1.867851,-0.117345 0.08139,-0.163389 -0.07775,-0.157235 c -0.06749,-0.1364989 -0.08194,-0.1572339 -0.109568,-0.1572339 -0.04251,0 -0.707005,0.06499 -0.744229,0.0728 -0.01898,0.004 -0.05724,0.04777 -0.109006,0.1247519 l -0.07976,0.118627 0.08129,0.123278 c 0.06747,0.102327 0.08711,0.123423 0.115548,0.124125 0.01884,4.43e-4 0.190318,0.01743 0.381057,0.03769 0.190739,0.02026 0.354188,0.03755 0.363222,0.03842 0.009,9.02e-4 0.05305,-0.07195 0.09781,-0.161816 z m -1.059433,-0.5926679 0.114278,-0.114811 0.197382,-1.934656 0.197382,-1.9346583 -0.317263,-0.476261 c -0.174495,-0.261944 -0.318355,-0.476262 -0.31969,-0.476262 -0.0013,0 -0.145195,0.214318 -0.31969,0.476262 l -0.317264,0.476261 0.197383,1.9346583 0.197382,1.934656 0.114278,0.114811 c 0.06285,0.06315 0.120413,0.11481 0.127911,0.11481 0.0075,0 0.06506,-0.05167 0.127911,-0.11481 z" id="path6-9" class="ColorScheme-Text"/>
<path id="gradient-path1" style="opacity:0.3;baseline-shift:baseline;display:inline;overflow:visible;vector-effect:none;enable-background:accumulate;stop-color:#000000;stop-opacity:1;fill:url(#linearGradient4)" d="M 8.4453131 1.2753492 C 4.4913166 1.2753492 1.2794833 4.4784283 1.2794833 8.4236094 C 1.2794833 12.36879 4.4913166 15.572386 8.4453131 15.572386 C 12.39931 15.572386 15.611143 12.36879 15.611143 8.4236094 C 15.611143 4.4784283 12.39931 1.2753492 8.4453131 1.2753492 z "/>
</svg>
