<?xml version="1.0" encoding="UTF-8" standalone="no"?>
<svg
   width="64"
   height="64"
   version="1.1"
   viewBox="0 0 16.933 16.933"
   id="svg7"
   sodipodi:docname="hwloc.svg"
   inkscape:version="1.4.3 (0d15f75042, 2025-12-25)"
   xmlns:inkscape="http://www.inkscape.org/namespaces/inkscape"
   xmlns:sodipodi="http://sodipodi.sourceforge.net/DTD/sodipodi-0.dtd"
   xmlns:xlink="http://www.w3.org/1999/xlink"
   xmlns="http://www.w3.org/2000/svg"
   xmlns:svg="http://www.w3.org/2000/svg"
   xmlns:rdf="http://www.w3.org/1999/02/22-rdf-syntax-ns#"
   xmlns:cc="http://creativecommons.org/ns#"
   xmlns:dc="http://purl.org/dc/elements/1.1/">
  <sodipodi:namedview
     id="namedview7"
     pagecolor="#9c4444"
     bordercolor="#000000"
     borderopacity="0.25"
     inkscape:showpageshadow="2"
     inkscape:pageopacity="0.0"
     inkscape:pagecheckerboard="0"
     inkscape:deskcolor="#d1d1d1"
     inkscape:zoom="4.3531261"
     inkscape:cx="36.180895"
     inkscape:cy="25.958357"
     inkscape:window-width="2560"
     inkscape:window-height="1388"
     inkscape:window-x="0"
     inkscape:window-y="0"
     inkscape:window-maximized="1"
     inkscape:current-layer="svg7"
     showgrid="false" />
  <defs
     id="defs2">
    <filter
       style="color-interpolation-filters:sRGB;"
       inkscape:label="Blur"
       id="filter3"
       x="-0.10843471"
       y="-0.10870992"
       width="1.2168694"
       height="1.2174198">
      <feGaussianBlur
         stdDeviation="0.5 0.5"
         result="blur"
         id="feGaussianBlur3" />
    </filter>
    <style
       id="current-color-scheme"
       type="text/css">.ColorScheme-Text {color:#d8dee9} .ColorScheme-Highlight {color:#3b4252}</style>
    <linearGradient
       id="linearGradient3"
       inkscape:collect="always">
      <stop
         style="stop-color:#000000;stop-opacity:1;"
         offset="0"
         id="stop3" />
      <stop
         style="stop-color:#000000;stop-opacity:0;"
         offset="1"
         id="stop4" />
    </linearGradient>
    <linearGradient
       inkscape:collect="always"
       xlink:href="#linearGradient3"
       id="linearGradient4"
       x1="13.512321"
       y1="13.490874"
       x2="3.3783066"
       y2="3.3568602"
       gradientUnits="userSpaceOnUse" />
  </defs>
  <metadata
     id="metadata2">
    <rdf:RDF>
      <cc:Work
         rdf:about="">
        <dc:format>image/svg+xml</dc:format>
        <dc:type
           rdf:resource="http://purl.org/dc/dcmitype/StillImage" />
      </cc:Work>
    </rdf:RDF>
  </metadata>
  <ellipse
     style="opacity:1;fill:none;stroke:#000000;stroke-width:0.582072;stroke-dasharray:none;stroke-opacity:1;filter:url(#filter3)"
     id="path1-5"
     cx="8.4450111"
     cy="8.423522"
     rx="6.8752708"
     ry="6.8578653" />
  <ellipse
     style="opacity:1;fill:none;stroke-width:0.58207188;stroke-opacity:1;stroke:currentColor;stroke-dasharray:none;fill-opacity:1"
     id="path1"
     cx="8.4450111"
     cy="8.423522"
     rx="6.8752708"
     ry="6.8578653"
     class="ColorScheme-Text" />
  <ellipse
     style="fill:currentColor;stroke:none;stroke-width:0.285844;stroke-dasharray:none;stroke-opacity:1"
     id="path1-2"
     cx="8.4557552"
     cy="8.423522"
     rx="6.5738997"
     ry="6.5692253"
     class="ColorScheme-Highlight" />
  <path
     id="path5-6"
     style="opacity:0.3;fill:#000000;fill-opacity:1;stroke-width:0.566038"
     d="m 8.464685,5.0269861 c -0.093,0 -0.186015,0.035626 -0.257274,0.1068877 -0.07126,0.07126 -0.258825,0.251927 -0.46734,0.4646151 0.208514,-0.2126876 0.46734,0.049891 0.46734,0.049891 l 3.855427,3.8554275 c 0,0 0.118149,-0.11136 0.260668,-0.2538787 0.142519,-0.1425186 0.142519,-0.371988 0,-0.5145067 L 8.721918,5.1338721 C 8.650659,5.0626131 8.557681,5.0269844 8.464684,5.0269844 Z M 7.847316,5.6550519 c -0.093,0 -0.186014,0.035626 -0.257273,0.1068877 L 4.609494,8.7424885 c -0.142519,0.1425186 -0.142519,0.371988 0,0.5145073 l 3.600443,3.6004432 c 0.142519,0.142519 0.371989,0.142519 0.514507,0 L 11.704993,9.8768903 C 11.847512,9.7343716 11.952991,9.6103414 11.952991,9.6103414 L 8.104549,5.7619396 C 8.033289,5.6906806 7.940313,5.6550519 7.847316,5.6550519 Z M 7.920656,6.1657695 8.100171,6.3452448 7.918288,6.527128 c -0.03567,0.035666 -0.06774,0.066173 -0.09627,0.091534 -0.02773,0.024566 -0.05034,0.043211 -0.06777,0.055891 l 0.0095,0.00951 c 0.05468,-0.011887 0.105403,-0.0095 0.152162,0.00714 0.04755,0.017434 0.09114,0.045945 0.130767,0.085574 0.06974,0.069742 0.106988,0.1450172 0.111743,0.2258541 0.0055,0.080045 -0.0333,0.161704 -0.116518,0.2449189 L 7.618691,7.6707599 7.439216,7.491245 7.817232,7.1131902 c 0.09352,-0.093517 0.105815,-0.174746 0.03687,-0.2436951 -0.0531,-0.0531 -0.108205,-0.070919 -0.165266,-0.053485 -0.05627,0.016641 -0.118855,0.059451 -0.187804,0.1284 L 7.196709,7.2487329 7.017194,7.069218 Z m 0.44342,0.9522028 0.175962,0.1759233 -0.212789,0.3625823 c -0.01426,0.025358 -0.0333,0.053915 -0.05708,0.085613 -0.02298,0.032491 -0.04558,0.063786 -0.06777,0.093902 -0.0214,0.029326 -0.03882,0.052313 -0.0523,0.068956 l 0.0048,0.00475 c 0.01189,-0.010302 0.02814,-0.023383 0.04875,-0.039232 0.0214,-0.016641 0.0436,-0.033289 0.06659,-0.04993 0.02377,-0.015849 0.04477,-0.030498 0.063,-0.04397 0.01981,-0.013472 0.03328,-0.022206 0.04042,-0.026168 L 8.764779,7.5185844 8.959728,7.7135719 8.724361,8.1011005 c -0.0079,0.014264 -0.02218,0.035649 -0.04279,0.06418 -0.01981,0.029327 -0.04085,0.058267 -0.06304,0.086797 -0.0214,0.029321 -0.03961,0.051532 -0.05467,0.066588 l 0.0048,0.00475 c 0.01506,-0.011887 0.03726,-0.028534 0.06659,-0.04993 0.03012,-0.022189 0.0618,-0.045181 0.09508,-0.068956 0.03408,-0.022981 0.06381,-0.041587 0.08917,-0.055851 L 9.184452,7.9382574 9.358046,8.1118125 8.522322,8.5742573 8.329742,8.3816771 8.50685,8.1046679 c 0.0103,-0.016641 0.02538,-0.041196 0.04519,-0.073692 0.0214,-0.032491 0.04356,-0.067351 0.06655,-0.1045987 0.02377,-0.038043 0.0452,-0.072937 0.06422,-0.1046383 0.01981,-0.032496 0.03446,-0.055874 0.04397,-0.07014 l -0.0048,-0.00475 c -0.01426,0.00951 -0.03765,0.024158 -0.07014,0.04397 -0.03091,0.019811 -0.06541,0.041626 -0.103454,0.065403 -0.03725,0.022981 -0.0725,0.044762 -0.105783,0.065365 -0.03328,0.020604 -0.05866,0.036464 -0.0761,0.047564 L 8.089486,8.1415263 7.899274,7.9513144 Z m -1.72355,0.1184931 c 0.03973,0 0.07945,0.015192 0.109888,0.045628 l 1.53839,1.5383897 c 0.06087,0.060876 0.06087,0.1588998 0,0.2197754 -0.06088,0.060876 -0.111349,0.1084268 -0.111349,0.1084268 L 6.530638,7.5018683 c 0,0 -0.110541,-0.1121626 -0.199606,-0.021317 C 6.420102,7.3897043 6.5002,7.3125282 6.530638,7.28209 6.561068,7.251654 6.600798,7.236462 6.640525,7.236462 Z M 6.376819,7.5047113 c 0.03973,0 0.07945,0.015232 0.109888,0.045668 l 1.643817,1.643817 c 0,0 -0.04502,0.052998 -0.105901,0.1138743 L 6.75148,10.581175 c -0.06088,0.06088 -0.15886,0.06088 -0.219736,0 L 4.993825,9.0432582 c -0.06088,-0.060876 -0.06088,-0.1588997 0,-0.2197754 L 6.266928,7.5503792 c 0.03044,-0.030436 0.07016,-0.045668 0.109888,-0.045668 z m 0.129703,0.2455896 c -0.01429,0 -0.02857,0.00549 -0.03951,0.016421 -0.01095,0.010947 -0.03973,0.038694 -0.07177,0.071356 0.03203,-0.032672 0.07176,0.0077 0.07176,0.0077 l 0.592226,0.5921863 c 0,0 0.01813,-0.017106 0.04002,-0.039 0.02189,-0.021889 0.0219,-0.05713 1e-6,-0.079021 L 6.54606,7.766715 C 6.53511,7.755768 6.52079,7.750294 6.50651,7.750294 Z m -0.09481,0.096506 c -0.01429,0 -0.02857,0.00549 -0.03951,0.016421 L 5.914376,8.3210148 c -0.02189,0.021894 -0.02189,0.057131 0,0.079022 l 0.553031,0.5530703 c 0.02189,0.021889 0.05713,0.021889 0.07902,0 L 7.004254,8.4952806 c 0.02189,-0.021889 0.03809,-0.04093 0.03809,-0.04093 L 6.451226,7.8632318 C 6.440276,7.8522848 6.425996,7.8468108 6.411716,7.8468108 Z M 9.710951,7.956063 9.890466,8.1355779 8.98701,9.0390345 8.807495,8.8595191 Z M 5.799119,8.4577416 c -0.01429,6e-7 -0.02856,0.00549 -0.03951,0.016421 -0.01095,0.010947 -0.03977,0.038694 -0.0718,0.071365 0.03203,-0.032672 0.0718,0.00766 0.0718,0.00766 l 0.592186,0.592226 c 0,0 0.01813,-0.017106 0.04002,-0.039 0.02189,-0.021889 0.02189,-0.05713 0,-0.079021 L 5.838626,8.4741638 c -0.01095,-0.010947 -0.02523,-0.016421 -0.03951,-0.016421 z m 1.420292,0.00543 c -0.01429,-6e-7 -0.02856,0.00549 -0.03951,0.016421 -0.01095,0.010947 -0.03973,0.038694 -0.07177,0.071356 0.03203,-0.032672 0.07176,0.0077 0.07176,0.0077 l 0.592226,0.5921863 c 0,0 0.01813,-0.017106 0.04002,-0.039 0.02189,-0.021894 0.02189,-0.05713 1e-6,-0.079022 L 7.258919,8.4795949 c -0.01095,-0.010947 -0.02523,-0.016421 -0.03951,-0.016421 z m -1.515141,0.09102 c -0.01429,6e-7 -0.02857,0.00549 -0.03951,0.016421 L 5.206934,9.0284391 c -0.02189,0.021889 -0.02189,0.05713 0,0.079022 l 0.55303,0.5530307 c 0.02189,0.021889 0.05717,0.021889 0.07906,0 L 6.296811,9.2027049 c 0.02189,-0.021889 0.03809,-0.04097 0.03809,-0.04097 L 5.74378,8.5706144 C 5.73283,8.5596674 5.71855,8.5541934 5.70427,8.5541934 Z m 1.420331,0.00543 c -0.01429,0 -0.02857,0.00549 -0.03951,0.016421 L 6.627264,9.0338691 c -0.02189,0.021889 -0.02189,0.05713 0,0.079022 l 0.553031,0.5530307 c 0.02189,0.021889 0.05713,0.021889 0.07902,0 L 7.717141,9.2081349 c 0.02189,-0.021889 0.03809,-0.04097 0.03809,-0.04097 L 7.16411,8.5760439 C 7.15316,8.5650969 7.13888,8.5596229 7.1246,8.5596229 Z M 9.78942,8.6930735 c 0.114915,-7.925e-4 0.221523,0.047926 0.319795,0.1462013 0.06102,0.061024 0.101835,0.1279964 0.122441,0.2009083 0.0214,0.072119 0.02061,0.1466116 -0.0024,0.2234863 -0.02298,0.076874 -0.07053,0.1513664 -0.142649,0.2234859 C 9.978825,9.5949379 9.867087,9.6496517 9.751378,9.6512366 9.636463,9.6536166 9.530247,9.6060276 9.432767,9.5085487 9.371747,9.4475237 9.330541,9.38016 9.309143,9.3064557 c -0.0206,-0.072911 -0.01943,-0.1477959 0.0036,-0.22467 0.02377,-0.077667 0.07171,-0.1525506 0.143833,-0.22467 C 9.564359,8.7493331 9.675314,8.6946584 9.789437,8.6930735 Z m 0.0688,0.2261699 c -0.01318,-3.962e-4 -0.02659,0.00108 -0.04026,0.00447 -0.05468,0.013472 -0.114136,0.052285 -0.178331,0.1164793 -0.0634,0.063401 -0.102605,0.1232462 -0.117663,0.1795149 -0.01426,0.055477 0.0024,0.1069788 0.04993,0.1545299 0.04597,0.045968 0.09669,0.061828 0.152161,0.047564 0.05627,-0.015057 0.116114,-0.0543 0.179515,-0.1177025 0.06419,-0.064194 0.103007,-0.1236079 0.116479,-0.1782916 0.01347,-0.054685 -0.0032,-0.1054421 -0.04993,-0.1522008 -0.03507,-0.035066 -0.07237,-0.053162 -0.1119,-0.054351 z M 8.523857,9.1197176 c 0.03972,0 0.07945,0.015232 0.109888,0.045668 l 1.53835,1.5383894 c 0.06088,0.06088 0.06088,0.1589 0,0.219775 -0.06088,0.06088 -0.111308,0.108428 -0.111308,0.108428 L 8.413964,9.3851693 c 0,0 -0.110582,-0.112162 -0.199646,-0.021317 0.08907,-0.090847 0.169208,-0.1680227 0.199646,-0.1984602 0.03044,-0.030436 0.07016,-0.045668 0.109887,-0.045668 z m -2.011846,0.050881 c -0.01429,0 -0.0286,0.00549 -0.03955,0.016421 -0.01095,0.010947 -0.03973,0.038694 -0.07177,0.071355 0.03203,-0.032672 0.07176,0.00766 0.07176,0.00766 l 0.592226,0.592226 c 0,0 0.01813,-0.017106 0.04002,-0.039 0.02189,-0.021889 0.02189,-0.05713 0,-0.079021 L 6.551508,9.1870113 c -0.01095,-0.010947 -0.02523,-0.016421 -0.03951,-0.016421 z m -0.09485,0.096468 c -0.01429,0 -0.02856,0.00549 -0.03951,0.016421 l -0.457826,0.457826 c -0.02189,0.021889 -0.02189,0.057131 0,0.079022 l 0.553031,0.5530304 c 0.02189,0.02189 0.05713,0.02189 0.07902,0 L 7.009703,9.9155794 c 0.02189,-0.021889 0.03809,-0.04097 0.03809,-0.04097 L 6.456673,9.2834888 C 6.445723,9.2725418 6.431443,9.2670678 6.417163,9.2670678 Z M 8.26015,9.3880062 c 0.03972,0 0.07945,0.015232 0.109888,0.045668 l 1.643817,1.6438168 c 0,0 -0.04506,0.05296 -0.105941,0.113835 l -1.27311,1.273151 c -0.06087,0.06088 -0.158899,0.06088 -0.219775,0 L 6.877152,10.926561 c -0.06088,-0.06088 -0.06088,-0.1589 0,-0.219775 L 8.150256,9.4336822 c 0.03044,-0.030436 0.07016,-0.045668 0.109888,-0.045668 z m 2.287435,0.050723 c 0.03785,0.00102 0.07477,0.00804 0.110834,0.021119 0.07291,0.025359 0.140668,0.069344 0.203277,0.1319525 0.03725,0.037251 0.06897,0.076844 0.09513,0.1188475 0.02615,0.042006 0.04558,0.082853 0.05826,0.1224792 l -0.189027,0.082021 c -0.01347,-0.034081 -0.02934,-0.066586 -0.04756,-0.097494 -0.01664,-0.030906 -0.03685,-0.058245 -0.06063,-0.082021 -0.04597,-0.045968 -0.09786,-0.065392 -0.155714,-0.058259 -0.05706,0.00792 -0.118081,0.044389 -0.183067,0.1093748 -0.06419,0.064194 -0.09948,0.1240382 -0.105823,0.179515 -0.0055,0.05627 0.01388,0.1065958 0.05826,0.1509768 0.03328,0.03328 0.06975,0.06101 0.109375,0.0832 0.04042,0.0214 0.08123,0.03765 0.122439,0.04875 l -0.146241,0.146201 c -0.04042,-0.0103 -0.08041,-0.02656 -0.120031,-0.04875 -0.03884,-0.0214 -0.07925,-0.05308 -0.121256,-0.09509 -0.06261,-0.06261 -0.1062,-0.12919 -0.130768,-0.199724 -0.02298,-0.070535 -0.02298,-0.1434207 0,-0.21871 0.02298,-0.075289 0.07288,-0.1513873 0.149754,-0.228262 0.07925,-0.079252 0.15813,-0.129579 0.23659,-0.1509775 0.03963,-0.011094 0.07836,-0.016149 0.116204,-0.015159 z"
     class="ColorScheme-Text" />
  <path
     id="path5-6-5"
     style="fill:currentColor;stroke-width:0.566038"
     d="m 8.464685,4.49783 c -0.093,0 -0.186015,0.035626 -0.257274,0.1068877 -0.07126,0.07126 -0.258825,0.251927 -0.46734,0.4646151 0.208514,-0.2126876 0.46734,0.049891 0.46734,0.049891 l 3.855427,3.8554275 c 0,0 0.118149,-0.11136 0.260668,-0.2538787 0.142519,-0.1425186 0.142519,-0.371988 0,-0.5145067 L 8.721918,4.604716 C 8.650659,4.533457 8.557681,4.4978283 8.464684,4.4978283 Z M 7.847316,5.1258958 c -0.093,0 -0.186014,0.035626 -0.257273,0.1068877 L 4.609494,8.2133324 c -0.142519,0.1425186 -0.142519,0.371988 0,0.5145073 l 3.600443,3.6004433 c 0.142519,0.142518 0.371989,0.142518 0.514507,0 L 11.704993,9.3477342 C 11.847512,9.2052155 11.952991,9.0811853 11.952991,9.0811853 L 8.104549,5.2327835 C 8.033289,5.1615245 7.940313,5.1258958 7.847316,5.1258958 Z m 0.07334,0.5107176 0.179515,0.1794753 -0.181883,0.1818832 c -0.03567,0.035666 -0.06774,0.066173 -0.09627,0.091534 -0.02773,0.024566 -0.05034,0.043211 -0.06777,0.055891 l 0.0095,0.00951 c 0.05468,-0.011887 0.105403,-0.0095 0.152162,0.00714 0.04755,0.017434 0.09114,0.045945 0.130767,0.085574 0.06974,0.069742 0.106988,0.1450172 0.111743,0.2258541 0.0055,0.080045 -0.0333,0.161704 -0.116518,0.2449189 L 7.618691,7.1416038 7.439216,6.9620889 7.817232,6.5840341 C 7.910752,6.4905171 7.923047,6.4092881 7.854102,6.340339 7.801002,6.287239 7.745897,6.26942 7.688836,6.286854 7.632566,6.303495 7.569981,6.346305 7.501032,6.415254 L 7.196709,6.7195768 7.017194,6.5400619 Z m 0.44342,0.9522028 0.175962,0.1759233 -0.212789,0.3625823 c -0.01426,0.025358 -0.0333,0.053915 -0.05708,0.085613 -0.02298,0.032491 -0.04558,0.063786 -0.06777,0.093902 -0.0214,0.029326 -0.03882,0.052313 -0.0523,0.068956 l 0.0048,0.00475 c 0.01189,-0.010302 0.02814,-0.023383 0.04875,-0.039232 0.0214,-0.016641 0.0436,-0.033289 0.06659,-0.04993 0.02377,-0.015849 0.04477,-0.030498 0.063,-0.04397 0.01981,-0.013472 0.03328,-0.022206 0.04042,-0.026168 L 8.764779,6.9894283 8.959728,7.1844158 8.724361,7.5719444 c -0.0079,0.014264 -0.02218,0.035649 -0.04279,0.06418 -0.01981,0.029327 -0.04085,0.058267 -0.06304,0.086797 -0.0214,0.029321 -0.03961,0.051532 -0.05467,0.066588 l 0.0048,0.00475 c 0.01506,-0.011887 0.03726,-0.028534 0.06659,-0.04993 0.03012,-0.022189 0.0618,-0.045181 0.09508,-0.068956 0.03408,-0.022981 0.06381,-0.041587 0.08917,-0.055851 L 9.184452,7.4091013 9.358046,7.5826564 8.522322,8.0451012 8.329742,7.852521 8.50685,7.5755118 c 0.0103,-0.016641 0.02538,-0.041196 0.04519,-0.073692 0.0214,-0.032491 0.04356,-0.067351 0.06655,-0.1045987 0.02377,-0.038043 0.0452,-0.072937 0.06422,-0.1046383 0.01981,-0.032496 0.03446,-0.055874 0.04397,-0.07014 l -0.0048,-0.00475 c -0.01426,0.00951 -0.03765,0.024158 -0.07014,0.04397 -0.03091,0.019811 -0.06541,0.041626 -0.103454,0.065403 -0.03725,0.022981 -0.0725,0.044762 -0.105783,0.065365 -0.03328,0.020604 -0.05866,0.036464 -0.0761,0.047564 L 8.089486,7.6123702 7.899274,7.4221583 Z m -1.72355,0.1184931 c 0.03973,0 0.07945,0.015192 0.109888,0.045628 l 1.53839,1.5383897 c 0.06087,0.060876 0.06087,0.1588998 0,0.2197754 -0.06088,0.060876 -0.111349,0.1084268 -0.111349,0.1084268 L 6.530638,6.9727122 c 0,0 -0.110541,-0.1121626 -0.199606,-0.021317 0.08907,-0.090847 0.169168,-0.1680231 0.199606,-0.1984613 0.03043,-0.030436 0.07016,-0.045628 0.109887,-0.045628 z M 6.376819,6.9755552 c 0.03973,0 0.07945,0.015232 0.109888,0.045668 l 1.643817,1.643817 c 0,0 -0.04502,0.052998 -0.105901,0.1138743 L 6.75148,10.052019 c -0.06088,0.06088 -0.15886,0.06088 -0.219736,0 L 4.993825,8.5141021 c -0.06088,-0.060876 -0.06088,-0.1588997 0,-0.2197754 L 6.266928,7.0212231 c 0.03044,-0.030436 0.07016,-0.045668 0.109888,-0.045668 z m 0.129703,0.2455896 c -0.01429,0 -0.02857,0.00549 -0.03951,0.016421 -0.01095,0.010947 -0.03973,0.038694 -0.07177,0.071356 0.03203,-0.032672 0.07176,0.0077 0.07176,0.0077 l 0.592226,0.5921863 c 0,0 0.01813,-0.017106 0.04002,-0.039 0.02189,-0.021889 0.0219,-0.05713 1e-6,-0.079021 L 6.54606,7.2375589 C 6.53511,7.2266119 6.52079,7.2211379 6.50651,7.2211379 Z m -0.09481,0.096506 c -0.01429,0 -0.02857,0.00549 -0.03951,0.016421 L 5.914376,7.7918587 c -0.02189,0.021894 -0.02189,0.057131 0,0.079022 L 6.467407,8.423951 c 0.02189,0.021889 0.05713,0.021889 0.07902,0 L 7.004254,7.9661245 c 0.02189,-0.021889 0.03809,-0.04093 0.03809,-0.04093 L 6.451226,7.3340757 C 6.440276,7.3231287 6.425996,7.3176547 6.411716,7.3176547 Z M 9.710951,7.4269069 9.890466,7.6064218 8.98701,8.5098784 8.807495,8.330363 Z M 5.799119,7.9285855 c -0.01429,6e-7 -0.02856,0.00549 -0.03951,0.016421 -0.01095,0.010947 -0.03977,0.038694 -0.0718,0.071365 0.03203,-0.032672 0.0718,0.00766 0.0718,0.00766 l 0.592186,0.592226 c 0,0 0.01813,-0.017106 0.04002,-0.039 0.02189,-0.021889 0.02189,-0.05713 0,-0.079021 L 5.838626,7.9450077 c -0.01095,-0.010947 -0.02523,-0.016421 -0.03951,-0.016421 z m 1.420292,0.00543 c -0.01429,-6e-7 -0.02856,0.00549 -0.03951,0.016421 -0.01095,0.010947 -0.03973,0.038694 -0.07177,0.071356 0.03203,-0.032672 0.07176,0.0077 0.07176,0.0077 l 0.592226,0.5921863 c 0,0 0.01813,-0.017106 0.04002,-0.039 0.02189,-0.021894 0.02189,-0.05713 1e-6,-0.079022 L 7.258919,7.9504388 c -0.01095,-0.010947 -0.02523,-0.016421 -0.03951,-0.016421 z m -1.515141,0.09102 c -0.01429,6e-7 -0.02857,0.00549 -0.03951,0.016421 L 5.206934,8.499283 c -0.02189,0.021889 -0.02189,0.05713 0,0.079022 l 0.55303,0.5530307 c 0.02189,0.021889 0.05717,0.021889 0.07906,0 L 6.296811,8.6735488 c 0.02189,-0.021889 0.03809,-0.04097 0.03809,-0.04097 L 5.74378,8.0414583 C 5.73283,8.0305113 5.71855,8.0250373 5.70427,8.0250373 Z m 1.420331,0.00543 c -0.01429,0 -0.02857,0.00549 -0.03951,0.016421 L 6.627264,8.504713 c -0.02189,0.021889 -0.02189,0.05713 0,0.079022 l 0.553031,0.5530307 c 0.02189,0.021889 0.05713,0.021889 0.07902,0 L 7.717141,8.6789788 c 0.02189,-0.021889 0.03809,-0.04097 0.03809,-0.04097 L 7.16411,8.0468878 C 7.15316,8.0359408 7.13888,8.0304668 7.1246,8.0304668 Z M 9.78942,8.1639174 c 0.114915,-7.925e-4 0.221523,0.047926 0.319795,0.1462013 0.06102,0.061024 0.101835,0.1279964 0.122441,0.2009083 0.0214,0.072119 0.02061,0.1466116 -0.0024,0.2234863 -0.02298,0.076874 -0.07053,0.1513664 -0.142649,0.2234859 C 9.978825,9.0657818 9.867087,9.1204956 9.751378,9.1220805 9.636463,9.1244605 9.530247,9.0768715 9.432767,8.9793926 9.371747,8.9183676 9.330541,8.8510039 9.309143,8.7772996 9.288543,8.7043886 9.289713,8.6295037 9.312743,8.5526296 9.336513,8.4749626 9.384453,8.400079 9.456576,8.3279596 9.564359,8.220177 9.675314,8.1655023 9.789437,8.1639174 Z m 0.0688,0.2261699 c -0.01318,-3.962e-4 -0.02659,0.00108 -0.04026,0.00447 -0.05468,0.013472 -0.114136,0.052285 -0.178331,0.1164793 -0.0634,0.063401 -0.102605,0.1232462 -0.117663,0.1795149 -0.01426,0.055477 0.0024,0.1069788 0.04993,0.1545299 0.04597,0.045968 0.09669,0.061828 0.152161,0.047564 0.05627,-0.015057 0.116114,-0.0543 0.179515,-0.1177025 0.06419,-0.064194 0.103007,-0.1236079 0.116479,-0.1782916 0.01347,-0.054685 -0.0032,-0.1054421 -0.04993,-0.1522008 -0.03507,-0.035066 -0.07237,-0.053162 -0.1119,-0.054351 z M 8.523857,8.5905615 c 0.03972,0 0.07945,0.015232 0.109888,0.045668 l 1.53835,1.5383895 c 0.06088,0.06088 0.06088,0.1589 0,0.219776 -0.06088,0.06088 -0.111308,0.108427 -0.111308,0.108427 L 8.413964,8.8560132 c 0,0 -0.110582,-0.112162 -0.199646,-0.021317 C 8.303388,8.7438492 8.383526,8.6666735 8.413964,8.636236 8.444404,8.6058 8.484124,8.590568 8.523851,8.590568 Z m -2.011846,0.050881 c -0.01429,0 -0.0286,0.00549 -0.03955,0.016421 -0.01095,0.010947 -0.03973,0.038694 -0.07177,0.071355 0.03203,-0.032672 0.07176,0.00766 0.07176,0.00766 l 0.592226,0.592226 c 0,0 0.01813,-0.017106 0.04002,-0.039 0.02189,-0.021889 0.02189,-0.05713 0,-0.079021 L 6.551508,8.6578552 c -0.01095,-0.010947 -0.02523,-0.016421 -0.03951,-0.016421 z m -0.09485,0.096468 c -0.01429,0 -0.02856,0.00549 -0.03951,0.016421 l -0.457826,0.457826 c -0.02189,0.021889 -0.02189,0.057131 0,0.079022 l 0.553031,0.5530307 c 0.02189,0.021894 0.05713,0.021889 0.07902,0 L 7.009703,9.3864233 c 0.02189,-0.021889 0.03809,-0.04097 0.03809,-0.04097 L 6.456673,8.7543327 C 6.445723,8.7433857 6.431443,8.7379117 6.417163,8.7379117 Z M 8.26015,8.8588501 c 0.03972,0 0.07945,0.015232 0.109888,0.045668 l 1.643817,1.6438169 c 0,0 -0.04506,0.05296 -0.105941,0.113835 l -1.27311,1.273152 c -0.06087,0.06088 -0.158899,0.06088 -0.219775,0 L 6.877152,10.397405 c -0.06088,-0.06088 -0.06088,-0.1589 0,-0.219775 L 8.150256,8.9045261 c 0.03044,-0.030436 0.07016,-0.045668 0.109888,-0.045668 z m 2.287435,0.050723 c 0.03785,0.00102 0.07477,0.00804 0.110834,0.021119 0.07291,0.025359 0.140668,0.069344 0.203277,0.1319525 0.03725,0.037251 0.06897,0.076844 0.09513,0.1188475 0.02615,0.042006 0.04558,0.082853 0.05826,0.1224792 l -0.189027,0.082021 c -0.01347,-0.034081 -0.02934,-0.066586 -0.04756,-0.097494 -0.01664,-0.030906 -0.03685,-0.058245 -0.06063,-0.082021 -0.04597,-0.045968 -0.09786,-0.065392 -0.155714,-0.058259 -0.05706,0.00792 -0.118081,0.044389 -0.183067,0.1093748 -0.06419,0.064194 -0.09948,0.1240382 -0.105823,0.179515 -0.0055,0.05627 0.01388,0.1065956 0.05826,0.1509769 0.03328,0.033283 0.06975,0.061015 0.109375,0.083205 0.04042,0.021396 0.08123,0.037653 0.122439,0.048747 l -0.146241,0.1462013 c -0.04042,-0.010302 -0.08041,-0.026559 -0.120031,-0.048747 -0.03884,-0.021396 -0.07925,-0.053083 -0.121256,-0.095086 -0.06261,-0.062609 -0.1062,-0.1291902 -0.130768,-0.1997241 -0.02298,-0.070535 -0.02298,-0.143421 0,-0.2187103 0.02298,-0.075289 0.07288,-0.1513873 0.149754,-0.228262 0.07925,-0.079252 0.15813,-0.129579 0.23659,-0.1509775 0.03963,-0.011094 0.07836,-0.016149 0.116204,-0.015159 z"
     class="ColorScheme-Text" />
  <path
     id="gradient-path1"
     style="opacity:0.3;baseline-shift:baseline;display:inline;overflow:visible;vector-effect:none;enable-background:accumulate;stop-color:#000000;stop-opacity:1;fill:url(#linearGradient4)"
     d="M 8.4453131 1.2753492 C 4.4913166 1.2753492 1.2794833 4.4784283 1.2794833 8.4236094 C 1.2794833 12.36879 4.4913166 15.572386 8.4453131 15.572386 C 12.39931 15.572386 15.611143 12.36879 15.611143 8.4236094 C 15.611143 4.4784283 12.39931 1.2753492 8.4453131 1.2753492 z " />
</svg>
