<?xml version="1.0" encoding="UTF-8" standalone="no"?>
<svg
   width="64"
   height="64"
   version="1.1"
   viewBox="0 0 16.933 16.933"
   id="svg7"
   sodipodi:docname="idea.svg"
   inkscape:version="1.4.2 (ebf0e940d0, 2025-05-08)"
   xmlns:inkscape="http://www.inkscape.org/namespaces/inkscape"
   xmlns:sodipodi="http://sodipodi.sourceforge.net/DTD/sodipodi-0.dtd"
   xmlns:xlink="http://www.w3.org/1999/xlink"
   xmlns="http://www.w3.org/2000/svg"
   xmlns:svg="http://www.w3.org/2000/svg"
   xmlns:rdf="http://www.w3.org/1999/02/22-rdf-syntax-ns#"
   xmlns:cc="http://creativecommons.org/ns#"
   xmlns:dc="http://purl.org/dc/elements/1.1/">
  <sodipodi:namedview
     id="namedview7"
     pagecolor="#9c4444"
     bordercolor="#000000"
     borderopacity="0.25"
     inkscape:showpageshadow="2"
     inkscape:pageopacity="0.0"
     inkscape:pagecheckerboard="0"
     inkscape:deskcolor="#d1d1d1"
     inkscape:zoom="8.7062522"
     inkscape:cx="72.993521"
     inkscape:cy="29.059576"
     inkscape:window-width="2560"
     inkscape:window-height="1388"
     inkscape:window-x="0"
     inkscape:window-y="0"
     inkscape:window-maximized="1"
     inkscape:current-layer="svg7"
     showgrid="false" />
  <defs
     id="defs2">
    <filter
       style="color-interpolation-filters:sRGB;"
       inkscape:label="Blur"
       id="filter3"
       x="-0.10843471"
       y="-0.10870992"
       width="1.2168694"
       height="1.2174198">
      <feGaussianBlur
         stdDeviation="0.5 0.5"
         result="blur"
         id="feGaussianBlur3" />
    </filter>
    <style
       id="current-color-scheme"
       type="text/css">.ColorScheme-Text {color:#d8dee9} .ColorScheme-Highlight {color:#3b4252}</style>
    <linearGradient
       id="linearGradient3"
       inkscape:collect="always">
      <stop
         style="stop-color:#000000;stop-opacity:1;"
         offset="0"
         id="stop3" />
      <stop
         style="stop-color:#000000;stop-opacity:0;"
         offset="1"
         id="stop4" />
    </linearGradient>
    <linearGradient
       inkscape:collect="always"
       xlink:href="#linearGradient3"
       id="linearGradient4"
       x1="13.512321"
       y1="13.490874"
       x2="3.3783066"
       y2="3.3568602"
       gradientUnits="userSpaceOnUse" />
  </defs>
  <metadata
     id="metadata2">
    <rdf:RDF>
      <cc:Work
         rdf:about="">
        <dc:format>image/svg+xml</dc:format>
        <dc:type
           rdf:resource="http://purl.org/dc/dcmitype/StillImage" />
      </cc:Work>
    </rdf:RDF>
  </metadata>
  <ellipse
     style="opacity:1;fill:none;stroke:#000000;stroke-width:0.582072;stroke-dasharray:none;stroke-opacity:1;filter:url(#filter3)"
     id="path1-5"
     cx="8.4450111"
     cy="8.423522"
     rx="6.8752708"
     ry="6.8578653" />
  <ellipse
     style="opacity:1;fill:none;stroke-width:0.58207188;stroke-opacity:1;stroke:currentColor;stroke-dasharray:none;fill-opacity:1"
     id="path1"
     cx="8.4450111"
     cy="8.423522"
     rx="6.8752708"
     ry="6.8578653"
     class="ColorScheme-Text" />
  <ellipse
     style="fill:currentColor;stroke:none;stroke-width:0.285844;stroke-dasharray:none;stroke-opacity:1"
     id="path1-2"
     cx="8.4557552"
     cy="8.423522"
     rx="6.5738997"
     ry="6.5692253"
     class="ColorScheme-Highlight" />
  <path
     id="path5"
     style="opacity:0.3;fill:#000000;fill-opacity:1;stroke-width:0.202946"
     d="M 8.466778,5.0269844 A 4.039533,3.9688329 0 0 0 4.426959,8.9956563 4.039533,3.9688329 0 0 0 8.466778,12.964328 4.039533,3.9688329 0 0 0 12.506041,8.9956563 4.039533,3.9688329 0 0 0 8.466778,5.0269844 Z M 6.53836,6.1608907 h 3.838563 c 0.531662,0 0.959777,0.4213389 0.959777,0.9448296 v 3.7798717 c 0,0.523491 -0.428115,0.94483 -0.959777,0.94483 H 6.53836 c -0.531663,0 -0.959777,-0.421339 -0.959777,-0.94483 V 7.1057203 c 0,-0.5234907 0.428114,-0.9448296 0.959777,-0.9448296 z M 6.429843,6.7771198 V 7.2208827 H 6.88025 V 8.7739134 H 6.429843 V 9.2173991 H 7.781616 V 8.7739135 H 7.330932 V 7.2208827 H 7.781616 V 6.7771198 Z m 2.929166,0 v 1.5447259 c 0,0.1468774 -3e-4,0.2700193 -0.108795,0.3607129 C 9.141677,8.7732246 8.961087,8.788422 8.820569,8.7700376 8.680065,8.7516417 8.544748,8.6418136 8.454873,8.5499557 L 8.181362,8.8541947 C 8.352781,9.0083218 8.54429,9.183197 8.816416,9.2138001 l 0.137588,0.00277 C 9.169145,9.1872171 9.399654,9.1690051 9.577707,8.9895673 9.689035,8.8720197 9.809443,8.6612594 9.808308,8.3486999 l 0.0012,-1.5715785 z m -3.37985,3.9938632 v 0.443763 H 8.2323 v -0.443763 z" />
  <path
     id="path5-6"
     style="fill:currentColor;fill-opacity:1;stroke-width:0.202946"
     d="M 8.4667775,4.4978284 A 4.039533,3.9688329 0 0 0 4.4269585,8.4665003 4.039533,3.9688329 0 0 0 8.4667775,12.435172 4.039533,3.9688329 0 0 0 12.506041,8.4665003 4.039533,3.9688329 0 0 0 8.4667775,4.4978284 Z m -1.928418,1.1339063 h 3.8385625 c 0.531663,0 0.959777,0.4213389 0.959777,0.9448296 v 3.7798727 c 0,0.52349 -0.428114,0.944829 -0.959777,0.944829 H 6.5383595 c -0.531663,0 -0.959777,-0.421339 -0.959777,-0.944829 V 6.5765643 c 0,-0.5234907 0.428115,-0.9448296 0.959777,-0.9448296 z m -0.108517,0.6162291 v 0.4437629 h 0.450407 v 1.5530307 h -0.450407 v 0.4434857 h 1.351774 V 8.2447574 H 7.3309325 V 6.6917267 h 0.450684 V 6.2479638 Z m 2.929166,0 v 1.5447259 c 0,0.1468774 -3e-4,0.2700193 -0.108795,0.3607129 -0.108537,0.090666 -0.289127,0.1058633 -0.429645,0.087479 -0.140504,-0.018396 -0.275821,-0.128224 -0.365696,-0.2200819 l -0.273511,0.304239 c 0.171419,0.1541271 0.362928,0.3290023 0.635054,0.3596054 l 0.137588,0.00277 c 0.215141,-0.029353 0.44565,-0.047565 0.623703,-0.2270028 0.111328,-0.1175476 0.231736,-0.328308 0.230601,-0.6408674 l 0.0012,-1.5715785 z m -3.37985,3.9938642 v 0.443763 h 2.253141 v -0.443763 z"
     class="ColorScheme-Text" />
  <path
     id="gradient-path1"
     style="opacity:0.3;baseline-shift:baseline;display:inline;overflow:visible;vector-effect:none;enable-background:accumulate;stop-color:#000000;stop-opacity:1;fill:url(#linearGradient4)"
     d="M 8.4453131 1.2753492 C 4.4913166 1.2753492 1.2794833 4.4784283 1.2794833 8.4236094 C 1.2794833 12.36879 4.4913166 15.572386 8.4453131 15.572386 C 12.39931 15.572386 15.611143 12.36879 15.611143 8.4236094 C 15.611143 4.4784283 12.39931 1.2753492 8.4453131 1.2753492 z " />
</svg>
