<?xml version='1.0' encoding='UTF-8'?>
<svg xmlns:inkscape="http://www.inkscape.org/namespaces/inkscape" xmlns:sodipodi="http://sodipodi.sourceforge.net/DTD/sodipodi-0.dtd" xmlns:xlink="http://www.w3.org/1999/xlink" xmlns="http://www.w3.org/2000/svg" xmlns:svg="http://www.w3.org/2000/svg" xmlns:rdf="http://www.w3.org/1999/02/22-rdf-syntax-ns#" xmlns:cc="http://creativecommons.org/ns#" xmlns:dc="http://purl.org/dc/elements/1.1/" width="64" height="64" version="1.1" viewBox="0 0 16.933 16.933" id="svg7" sodipodi:docname="insomnia.svg" inkscape:version="1.4.2 (ebf0e940d0, 2025-05-08)">
  <sodipodi:namedview id="namedview7" pagecolor="#a9abb3" bordercolor="#000000" borderopacity="0.25" inkscape:showpageshadow="2" inkscape:pageopacity="0.0" inkscape:pagecheckerboard="0" inkscape:deskcolor="#d1d1d1" inkscape:zoom="6.15625" inkscape:cx="135.14721" inkscape:cy="70.497462" inkscape:window-width="2560" inkscape:window-height="1372" inkscape:window-x="0" inkscape:window-y="0" inkscape:window-maximized="1" inkscape:current-layer="svg7" showgrid="false"/>
  <defs id="defs2">
    <filter style="color-interpolation-filters:sRGB;" inkscape:label="Blur" id="filter3" x="-0.10843471" y="-0.10870992" width="1.2168694" height="1.2174198">
      <feGaussianBlur stdDeviation="0.5 0.5" result="blur" id="feGaussianBlur3"/>
    </filter>
    <style id="current-color-scheme" type="text/css">.ColorScheme-Text {color:#d8dee9} .ColorScheme-Highlight {color:#3b4252}</style><linearGradient id="linearGradient3" inkscape:collect="always">
      <stop style="stop-color:#000000;stop-opacity:1;" offset="0" id="stop3"/>
      <stop style="stop-color:#000000;stop-opacity:0;" offset="1" id="stop4"/>
    </linearGradient>
    <linearGradient inkscape:collect="always" xlink:href="#linearGradient3" id="linearGradient4" x1="13.512321" y1="13.490874" x2="3.3783066" y2="3.3568602" gradientUnits="userSpaceOnUse"/>
  </defs>
  <metadata id="metadata2">
    <rdf:RDF>
      <cc:Work rdf:about="">
        <dc:format>image/svg+xml</dc:format>
        <dc:type rdf:resource="http://purl.org/dc/dcmitype/StillImage"/>
      </cc:Work>
    </rdf:RDF>
  </metadata>
  <ellipse style="opacity:1;fill:none;stroke:#000000;stroke-width:0.582072;stroke-dasharray:none;stroke-opacity:1;filter:url(#filter3)" id="path1-5" cx="8.4450111" cy="8.423522" rx="6.8752708" ry="6.8578653"/>
  <ellipse style="opacity:1;fill:none;stroke-width:0.58207188;stroke-opacity:1;stroke:currentColor;stroke-dasharray:none;fill-opacity:1" id="path1" cx="8.4450111" cy="8.423522" rx="6.8752708" ry="6.8578653" class="ColorScheme-Text"/>
  <ellipse style="fill:currentColor;stroke:none;stroke-width:0.285844;stroke-dasharray:none;stroke-opacity:1" id="path1-2" cx="8.4557552" cy="8.423522" rx="6.5738997" ry="6.5692253" class="ColorScheme-Highlight"/>
<path d="m 8.4665005,5.2087495 c -2.077434,0 -3.786907,1.70947 -3.786907,3.78691 0,2.0774305 1.709473,3.7869025 3.786907,3.7869025 2.0774335,0 3.7869055,-1.709472 3.7869055,-3.7869025 0,-2.07744 -1.709472,-3.78691 -3.7869055,-3.78691 z m 0,0.782 c 1.6586645,0 3.0049095,1.34624 3.0049095,3.00491 0,1.6586605 -1.346245,3.0049105 -3.0049095,3.0049105 -1.658665,0 -3.004911,-1.34625 -3.004911,-3.0049105 0,-0.27929 0.03787,-0.54942 0.109505,-0.80598 a 1.5021397,1.5021397 0 0 0 1.238634,0.65198 1.503402,1.503402 0 0 0 1.502771,-1.50278 1.5015085,1.5015085 0 0 0 -0.652295,-1.23863 3.0061728,3.0061728 0 0 1 0.806296,-0.1095 z" id="path1-6" style="fill:#000000;fill-opacity:1;stroke-width:0.315576;opacity:0.3"/>
  <path d="m 8.4665,4.679594 c -2.077433,0 -3.786907,1.70947 -3.786907,3.78691 0,2.07743 1.709474,3.786902 3.786907,3.786902 2.077435,0 3.786907,-1.709472 3.786907,-3.786902 0,-2.07744 -1.709473,-3.78691 -3.786907,-3.78691 z m 0,0.782 c 1.658665,0 3.004911,1.34624 3.004911,3.00491 0,1.65866 -1.346246,3.00491 -3.004911,3.00491 -1.658665,0 -3.004911,-1.34625 -3.004911,-3.00491 0,-0.27929 0.03787,-0.54942 0.109505,-0.80598 a 1.5021397,1.5021397 0 0 0 1.238635,0.65198 1.503402,1.503402 0 0 0 1.50277,-1.50278 1.5015085,1.5015085 0 0 0 -0.652294,-1.23863 3.0061728,3.0061728 0 0 1 0.806295,-0.1095 z" id="path1-6-5" style="fill:currentColor;fill-opacity:1;stroke-width:0.315642;stroke-dasharray:none" class="ColorScheme-Text"/>
<path id="gradient-path1" style="opacity:0.3;baseline-shift:baseline;display:inline;overflow:visible;vector-effect:none;enable-background:accumulate;stop-color:#000000;stop-opacity:1;fill:url(#linearGradient4)" d="M 8.4453131 1.2753492 C 4.4913166 1.2753492 1.2794833 4.4784283 1.2794833 8.4236094 C 1.2794833 12.36879 4.4913166 15.572386 8.4453131 15.572386 C 12.39931 15.572386 15.611143 12.36879 15.611143 8.4236094 C 15.611143 4.4784283 12.39931 1.2753492 8.4453131 1.2753492 z "/>
</svg>
