<?xml version="1.0" encoding="UTF-8" standalone="no"?>
<svg
   width="64"
   height="64"
   version="1.1"
   viewBox="0 0 16.933 16.933"
   id="svg7"
   sodipodi:docname="io.github.ilya_zlobintsev.LACT.svg"
   inkscape:version="1.4.2 (ebf0e940d0, 2025-05-08)"
   xmlns:inkscape="http://www.inkscape.org/namespaces/inkscape"
   xmlns:sodipodi="http://sodipodi.sourceforge.net/DTD/sodipodi-0.dtd"
   xmlns:xlink="http://www.w3.org/1999/xlink"
   xmlns="http://www.w3.org/2000/svg"
   xmlns:svg="http://www.w3.org/2000/svg"
   xmlns:rdf="http://www.w3.org/1999/02/22-rdf-syntax-ns#"
   xmlns:cc="http://creativecommons.org/ns#"
   xmlns:dc="http://purl.org/dc/elements/1.1/">
  <sodipodi:namedview
     id="namedview7"
     pagecolor="#9c4444"
     bordercolor="#000000"
     borderopacity="0.25"
     inkscape:showpageshadow="2"
     inkscape:pageopacity="0.0"
     inkscape:pagecheckerboard="0"
     inkscape:deskcolor="#d1d1d1"
     inkscape:zoom="4.3531261"
     inkscape:cx="36.066035"
     inkscape:cy="26.647517"
     inkscape:window-width="2560"
     inkscape:window-height="1392"
     inkscape:window-x="0"
     inkscape:window-y="0"
     inkscape:window-maximized="1"
     inkscape:current-layer="svg7"
     showgrid="false" />
  <defs
     id="defs2">
    <filter
       style="color-interpolation-filters:sRGB;"
       inkscape:label="Blur"
       id="filter3"
       x="-0.10843471"
       y="-0.10870992"
       width="1.2168694"
       height="1.2174198">
      <feGaussianBlur
         stdDeviation="0.5 0.5"
         result="blur"
         id="feGaussianBlur3" />
    </filter>
    <style
       id="current-color-scheme"
       type="text/css">.ColorScheme-Text {color:#d8dee9} .ColorScheme-Highlight {color:#3b4252}</style>
    <linearGradient
       id="linearGradient3"
       inkscape:collect="always">
      <stop
         style="stop-color:#000000;stop-opacity:1;"
         offset="0"
         id="stop3" />
      <stop
         style="stop-color:#000000;stop-opacity:0;"
         offset="1"
         id="stop4" />
    </linearGradient>
    <linearGradient
       inkscape:collect="always"
       xlink:href="#linearGradient3"
       id="linearGradient4"
       x1="13.512321"
       y1="13.490874"
       x2="3.3783066"
       y2="3.3568602"
       gradientUnits="userSpaceOnUse" />
  </defs>
  <metadata
     id="metadata2">
    <rdf:RDF>
      <cc:Work
         rdf:about="">
        <dc:format>image/svg+xml</dc:format>
        <dc:type
           rdf:resource="http://purl.org/dc/dcmitype/StillImage" />
      </cc:Work>
    </rdf:RDF>
  </metadata>
  <ellipse
     style="opacity:1;fill:none;stroke:#000000;stroke-width:0.582072;stroke-dasharray:none;stroke-opacity:1;filter:url(#filter3)"
     id="path1-5"
     cx="8.4450111"
     cy="8.423522"
     rx="6.8752708"
     ry="6.8578653" />
  <ellipse
     style="opacity:1;fill:none;stroke-width:0.58207188;stroke-opacity:1;stroke:currentColor;stroke-dasharray:none;fill-opacity:1"
     id="path1"
     cx="8.4450111"
     cy="8.423522"
     rx="6.8752708"
     ry="6.8578653"
     class="ColorScheme-Text" />
  <ellipse
     style="fill:currentColor;stroke:none;stroke-width:0.285844;stroke-dasharray:none;stroke-opacity:1"
     id="path1-2"
     cx="8.4557552"
     cy="8.423522"
     rx="6.5738997"
     ry="6.5692253"
     class="ColorScheme-Highlight" />
  <path
     d="M 3.836383,5.9530078 H 5.2717178 V 11.703446 H 4.6476503 V 11.186391 H 4.3926193 V 9.7099672 h 0.255031 V 8.636556 H 4.3926193 V 7.1601735 h 0.255031 V 6.5770748 H 3.836383 Z m 9.260234,1.9579929 v 3.2549653 c 0,0.275694 -0.22348,0.499333 -0.499214,0.499333 h -5.17e-4 V 12.16042 H 9.409157 V 11.665299 H 9.1066805 V 12.16042 H 5.9189506 V 11.665299 H 5.6394418 V 7.4118269 h 6.9579612 c 0.275735,0 0.499214,0.22348 0.499214,0.4991738 z M 6.3207308,11.640503 H 6.1617829 v 0.357631 h 0.1589479 z m 0.3178933,0 H 6.4796786 v 0.357631 h 0.1589455 z m 0.3178956,0 H 6.7975719 v 0.357631 h 0.1589478 z m 0.3178945,0 H 7.1154676 v 0.357631 H 7.2744142 Z M 7.3724026,9.5449007 H 6.9755107 v 0.1559671 h 0.2208967 v 0.077209 c -0.08547,0.099898 -0.1812008,0.1498076 -0.2872567,0.1498076 -0.046328,0 -0.089332,-0.0095 -0.1289458,-0.02861 -0.039655,-0.01903 -0.073873,-0.04502 -0.1026783,-0.07796 -0.02884,-0.032941 -0.051532,-0.071844 -0.067993,-0.1166282 -0.01645,-0.044781 -0.024675,-0.092904 -0.024675,-0.1444035 0,-0.049436 0.00747,-0.096283 0.022377,-0.1405496 0.014933,-0.04423 0.036038,-0.083407 0.063338,-0.1173823 0.0273,-0.033937 0.060235,-0.060718 0.098863,-0.080307 0.038582,-0.019553 0.08106,-0.029324 0.1273976,-0.029324 0.058648,0 0.1129684,0.014383 0.16296,0.043233 0.04991,0.028851 0.088772,0.070533 0.116585,0.1250916 L 7.3354822,9.2436572 C 7.2983706,9.1705409 7.2430589,9.1123666 7.1694224,9.0691327 c -0.073628,-0.043276 -0.1619275,-0.06489 -0.2648473,-0.06489 -0.076218,0 -0.1467084,0.014665 -0.2115575,0.043989 -0.06489,0.029366 -0.1212774,0.068983 -0.1691212,0.1189328 -0.04788,0.049952 -0.08547,0.1081243 -0.11277,0.1745236 -0.0273,0.066401 -0.040892,0.1372118 -0.040892,0.2123538 0,0.079315 0.013627,0.153146 0.040892,0.2216127 0.0273,0.068507 0.06433,0.1279918 0.1112183,0.1783788 0.046807,0.05047 0.101885,0.09012 0.1652257,0.1189326 0.063338,0.02885 0.1310132,0.04323 0.2030957,0.04323 0.1163516,0 0.2182343,-0.04375 0.305774,-0.1312916 V 10.108448 H 7.3724737 V 9.544899 Z m 0.2199038,2.0956023 h -0.158949 v 0.357631 h 0.158949 z m 0.3178945,0 H 7.7512542 v 0.357631 h 0.1589467 z m 0.3178945,0 H 8.0691487 v 0.357631 H 8.2280954 Z M 8.291317,9.0120694 H 7.5546347 v 1.0965386 h 0.213108 V 9.6545348 H 8.2033002 V 9.4815598 H 7.7677812 V 9.1989513 H 8.291352 V 9.0120694 Z M 8.5459864,11.640503 H 8.3870397 v 0.357631 h 0.1589467 z m 0.3178956,0 H 8.7049342 v 0.357631 H 8.863882 Z M 8.938432,9.5680674 9.329165,9.0120694 H 9.0990493 L 8.8272487,9.419809 8.5538602,9.0120694 H 8.3222325 L 8.7129655,9.5680675 8.334591,10.108568 H 8.566256 L 8.8272475,9.7162855 9.0866897,10.108568 H 9.3168065 Z M 9.810973,11.640503 H 9.652026 v 0.357631 h 0.158947 z m 0.317895,0 H 9.969922 v 0.357631 h 0.158946 z m 0.317896,0 h -0.158948 v 0.357631 h 0.158948 z m 0.317893,0 h -0.158946 v 0.357631 h 0.158946 z m 0.317896,0 h -0.158948 v 0.357631 h 0.158948 z m 0.317894,0 h -0.158946 v 0.357631 h 0.158946 z m 0.317895,0 h -0.158947 v 0.357631 h 0.158947 z m 0.317894,0 H 11.87729 v 0.357631 h 0.158946 z m 0.317896,0 h -0.158948 v 0.357631 h 0.158948 z m 0.134033,-2.0205 c 0,-0.7680338 -0.622677,-1.3907896 -1.390791,-1.3907896 -0.768113,0 -1.390789,0.6227558 -1.390789,1.3907896 0,0.767994 0.622676,1.390791 1.390789,1.390791 0.768114,0 1.390791,-0.622796 1.390791,-1.390791 z m -0.64183,0.022133 c 0.03422,-0.018438 0.06847,-0.036714 0.102118,-0.054877 0.03343,-0.019032 0.06636,-0.037787 0.09819,-0.055949 0.03194,-0.018282 0.06289,-0.035844 0.09191,-0.054042 0.0023,-0.00138 0.0044,-0.00271 0.0067,-0.00414 -0.03688,-0.2656011 -0.172259,-0.4998097 -0.368281,-0.6641218 -0.0027,0.00366 -0.0056,0.00763 -0.0084,0.011445 -0.0122,0.016848 -0.02591,0.035604 -0.04086,0.056147 -0.01597,0.020663 -0.03318,0.042994 -0.0515,0.066718 -0.01797,0.023842 -0.03831,0.048482 -0.05933,0.074069 -0.02106,0.025707 -0.04284,0.052213 -0.06492,0.079315 -0.02309,0.026385 -0.04649,0.053328 -0.06998,0.080388 -7.9e-5,0 -1.59e-4,1.193e-4 -2.79e-4,2.783e-4 0.0016,-0.026146 0.0033,-0.052693 0.0049,-0.079593 0.0023,-0.038028 0.0029,-0.076692 0.0043,-0.1153565 0.0013,-0.038824 0.0026,-0.077606 0.0037,-0.1157928 1.97e-4,-0.038585 3.18e-4,-0.076414 4.76e-4,-0.1131305 2.39e-4,-0.036834 3.98e-4,-0.07248 -8.58e-4,-0.1066532 0,-0.00277 -1.19e-4,-0.00516 -1.98e-4,-0.00786 -0.122589,-0.049712 -0.256383,-0.077129 -0.396733,-0.077129 -0.127476,0 -0.249587,0.022528 -0.362797,0.063737 0.0019,0.00432 0.004,0.0089 0.006,0.013393 0.0084,0.018996 0.01787,0.040252 0.02821,0.063579 0.0099,0.024082 0.02066,0.050185 0.03199,0.077884 0.01168,0.027495 0.02289,0.057377 0.03449,0.088375 0.01173,0.031232 0.02384,0.063222 0.03607,0.095805 0.01143,0.033301 0.02305,0.067076 0.03468,0.1008525 4e-5,1.589e-4 7.9e-5,1.985e-4 1.98e-4,4.768e-4 -0.02189,-0.014545 -0.04398,-0.029204 -0.06656,-0.044187 -0.03171,-0.020903 -0.06481,-0.040811 -0.09767,-0.061473 -0.03298,-0.020388 -0.06601,-0.040888 -0.09847,-0.061037 -0.03331,-0.01935 -0.066,-0.038507 -0.09771,-0.056981 -0.03176,-0.018558 -0.06251,-0.036479 -0.0927,-0.052572 -0.0023,-0.00126 -0.0044,-0.00239 -0.0068,-0.00372 -0.202142,0.1580333 -0.345234,0.3878315 -0.39113,0.6511282 0.0045,4.768e-4 0.0093,0.00102 0.01414,0.00138 0.02055,0.00222 0.04378,0.00474 0.0691,0.00743 0.02583,0.00342 0.05381,0.00723 0.08345,0.011293 0.02961,0.00353 0.06112,0.0089 0.09382,0.014306 0.03274,0.00546 0.06668,0.010932 0.101045,0.016651 0.03449,0.00672 0.06954,0.01355 0.104591,0.020388 1.59e-4,0 2.78e-4,0 4.76e-4,0 -0.02344,0.011684 -0.0472,0.023523 -0.07148,0.035604 -0.03397,0.017004 -0.06768,0.035725 -0.102002,0.053802 -0.03422,0.018396 -0.06847,0.036678 -0.10213,0.05484 -0.03345,0.019032 -0.06639,0.037787 -0.09819,0.056069 -0.03194,0.018161 -0.0629,0.035844 -0.09188,0.053964 -0.0023,0.00138 -0.0044,0.00264 -0.0068,0.00408 0.03691,0.26568 0.172299,0.499812 0.368321,0.664162 0.0027,-0.0036 0.0056,-0.0076 0.0084,-0.01148 0.01219,-0.01677 0.02591,-0.03556 0.04084,-0.05615 0.01594,-0.02066 0.03322,-0.04296 0.0515,-0.06664 0.01795,-0.02392 0.0383,-0.04856 0.05932,-0.07407 0.02106,-0.02575 0.04279,-0.05226 0.06493,-0.07924 0.02309,-0.02643 0.04649,-0.05345 0.06998,-0.08039 4e-5,-8e-5 1.59e-4,-2.78e-4 2.78e-4,-3.57e-4 -0.0016,0.02611 -0.0033,0.05261 -0.0049,0.07959 -0.0023,0.03803 -0.0029,0.07661 -0.0043,0.115356 -0.0013,0.03878 -0.0026,0.07765 -0.0037,0.115793 -1.59e-4,0.03851 -2.78e-4,0.07645 -4.37e-4,0.113091 -2.38e-4,0.03688 -3.97e-4,0.07244 7.93e-4,0.106654 4e-5,0.0028 1.59e-4,0.0052 1.59e-4,0.0078 0.122587,0.04975 0.256421,0.07717 0.396771,0.07717 0.127476,0 0.249588,-0.02249 0.362759,-0.06378 -0.0019,-0.0043 -0.0038,-0.0089 -0.006,-0.01339 -0.0084,-0.01891 -0.01788,-0.04021 -0.02822,-0.0635 -0.0099,-0.02412 -0.02066,-0.05027 -0.03194,-0.07784 -0.01168,-0.02754 -0.02293,-0.0575 -0.03449,-0.08842 -0.01173,-0.03115 -0.02388,-0.0633 -0.03607,-0.09588 -0.01143,-0.03326 -0.02309,-0.06708 -0.03473,-0.100773 -3.9e-5,-1.19e-4 -7.9e-5,-2.78e-4 -1.58e-4,-5.16e-4 0.02186,0.01462 0.04395,0.0292 0.06652,0.04423 0.03167,0.02082 0.06481,0.04073 0.09767,0.0614 0.03298,0.02043 0.06601,0.04093 0.09847,0.06112 0.03331,0.01935 0.06601,0.03851 0.09767,0.05698 0.03179,0.01848 0.06251,0.03648 0.0927,0.05249 0.0023,0.0014 0.0046,0.0024 0.0068,0.0038 0.202181,-0.158074 0.345234,-0.387753 0.391171,-0.6510896 -0.0046,-5.17e-4 -0.0093,-10e-4 -0.01415,-0.0014 -0.02058,-0.0022 -0.04375,-0.0047 -0.0691,-0.00735 -0.02583,-0.00348 -0.05384,-0.00727 -0.08345,-0.011398 -0.02964,-0.00348 -0.06112,-0.00878 -0.09382,-0.014185 -0.03274,-0.00546 -0.06668,-0.010967 -0.101056,-0.016687 -0.03449,-0.00672 -0.06954,-0.013592 -0.104592,-0.020388 -1.59e-4,0 -2.79e-4,0 -4.77e-4,0 0.02344,-0.011762 0.0472,-0.023567 0.07145,-0.035683 0.03402,-0.01689 0.06775,-0.035683 0.102083,-0.053724 z"
     id="path1-6"
     style="opacity:0.3;fill:#000000;fill-opacity:1;stroke-width:0.0397368" />
  <path
     d="M 3.836383,5.3627943 H 5.2717178 V 11.113232 H 4.6476503 V 10.596176 H 4.3926193 V 9.1197537 h 0.255031 V 8.0463424 H 4.3926193 V 6.56996 h 0.255031 V 5.9868613 H 3.836383 Z m 9.260234,1.9579929 v 3.2549648 c 0,0.275694 -0.22348,0.499332 -0.499214,0.499332 h -5.17e-4 v 0.495122 H 9.409157 V 11.075084 H 9.1066805 v 0.495122 H 5.9189506 V 11.075084 H 5.6394418 V 6.8216134 h 6.9579612 c 0.275735,0 0.499214,0.22348 0.499214,0.4991738 z M 6.3207308,11.050289 H 6.1617829 v 0.357631 h 0.1589479 z m 0.3178933,0 H 6.4796786 v 0.357631 h 0.1589455 z m 0.3178956,0 H 6.7975719 v 0.357631 h 0.1589478 z m 0.3178945,0 H 7.1154676 V 11.40792 H 7.2744142 Z M 7.3724026,8.9546872 H 6.9755107 v 0.1559669 h 0.2208967 v 0.077209 c -0.08547,0.099898 -0.1812008,0.1498077 -0.2872567,0.1498077 -0.046328,0 -0.089332,-0.0095 -0.1289458,-0.02861 -0.039655,-0.019032 -0.073873,-0.045022 -0.1026783,-0.077964 -0.02884,-0.032941 -0.051532,-0.071844 -0.067993,-0.1166281 -0.01645,-0.044781 -0.024675,-0.092904 -0.024675,-0.1444034 0,-0.049436 0.00747,-0.096283 0.022377,-0.1405497 0.014933,-0.04423 0.036038,-0.083407 0.063338,-0.1173823 0.0273,-0.033937 0.060235,-0.060718 0.098863,-0.080307 0.038582,-0.019553 0.08106,-0.029324 0.1273976,-0.029324 0.058648,0 0.1129684,0.014383 0.16296,0.043233 0.04991,0.028851 0.088772,0.070533 0.116585,0.1250916 L 7.3354822,8.6534436 C 7.2983706,8.5803274 7.2430589,8.522153 7.1694224,8.4789192 c -0.073628,-0.043276 -0.1619275,-0.06489 -0.2648473,-0.06489 -0.076218,0 -0.1467084,0.014665 -0.2115575,0.043989 -0.06489,0.029366 -0.1212774,0.068983 -0.1691212,0.1189329 -0.04788,0.049952 -0.08547,0.1081243 -0.11277,0.1745236 -0.0273,0.066401 -0.040892,0.1372118 -0.040892,0.2123538 0,0.079315 0.013627,0.153146 0.040892,0.2216127 0.0273,0.068507 0.06433,0.1279922 0.1112183,0.1783786 0.046807,0.050468 0.101885,0.090123 0.1652257,0.1189326 0.063338,0.028852 0.1310132,0.043234 0.2030957,0.043234 0.1163516,0 0.2182343,-0.04375 0.305774,-0.1312908 V 9.5182379 H 7.3724737 V 8.9546854 Z m 0.2199038,2.0956018 h -0.158949 v 0.357631 h 0.158949 z m 0.3178945,0 H 7.7512542 v 0.357631 h 0.1589467 z m 0.3178945,0 H 8.0691487 V 11.40792 H 8.2280954 Z M 8.291317,8.4218559 H 7.5546347 v 1.0965376 h 0.213108 V 9.0643213 H 8.2033002 V 8.8913463 H 7.7677812 V 8.6087378 H 8.291352 V 8.4218559 Z M 8.5459864,11.050289 H 8.3870397 v 0.357631 h 0.1589467 z m 0.3178956,0 H 8.7049342 V 11.40792 H 8.863882 Z M 8.938432,8.9778539 9.329165,8.4218559 H 9.0990493 L 8.8272487,8.8295955 8.5538602,8.4218559 H 8.3222325 l 0.390733,0.555998 -0.3783745,0.5405 H 8.566256 L 8.8272475,9.126072 9.0866897,9.5183539 H 9.3168065 Z M 9.810973,11.050289 H 9.652026 v 0.357631 h 0.158947 z m 0.317895,0 H 9.969922 v 0.357631 h 0.158946 z m 0.317896,0 h -0.158948 v 0.357631 h 0.158948 z m 0.317893,0 h -0.158946 v 0.357631 h 0.158946 z m 0.317896,0 h -0.158948 v 0.357631 h 0.158948 z m 0.317894,0 h -0.158946 v 0.357631 h 0.158946 z m 0.317895,0 h -0.158947 v 0.357631 h 0.158947 z m 0.317894,0 H 11.87729 v 0.357631 h 0.158946 z m 0.317896,0 h -0.158948 v 0.357631 h 0.158948 z m 0.134033,-2.0204995 c 0,-0.7680338 -0.622677,-1.3907896 -1.390791,-1.3907896 -0.768113,0 -1.390789,0.6227558 -1.390789,1.3907896 0,0.7679942 0.622676,1.3907905 1.390789,1.3907905 0.768114,0 1.390791,-0.6227963 1.390791,-1.3907905 z m -0.64183,0.022133 c 0.03422,-0.018438 0.06847,-0.036714 0.102118,-0.054876 0.03343,-0.019032 0.06636,-0.037787 0.09819,-0.055949 0.03194,-0.018282 0.06289,-0.035844 0.09191,-0.054042 0.0023,-0.00138 0.0044,-0.00271 0.0067,-0.00414 -0.03688,-0.2656011 -0.172259,-0.4998098 -0.368281,-0.6641218 -0.0027,0.00366 -0.0056,0.00763 -0.0084,0.011445 -0.0122,0.016848 -0.02591,0.035604 -0.04086,0.056147 -0.01597,0.020663 -0.03318,0.042994 -0.0515,0.066718 -0.01797,0.023842 -0.03831,0.048482 -0.05933,0.074069 -0.02106,0.025708 -0.04284,0.052213 -0.06492,0.079315 -0.02309,0.026385 -0.04649,0.053328 -0.06998,0.080388 -7.9e-5,0 -1.59e-4,1.194e-4 -2.79e-4,2.784e-4 0.0016,-0.026146 0.0033,-0.052692 0.0049,-0.079593 0.0023,-0.038028 0.0029,-0.076692 0.0043,-0.1153565 0.0013,-0.038824 0.0026,-0.077606 0.0037,-0.1157928 1.97e-4,-0.038585 3.18e-4,-0.076414 4.76e-4,-0.1131305 2.39e-4,-0.036834 3.98e-4,-0.07248 -8.58e-4,-0.1066532 0,-0.00277 -1.19e-4,-0.00516 -1.98e-4,-0.00786 -0.122589,-0.049712 -0.256383,-0.077129 -0.396733,-0.077129 -0.127476,0 -0.249587,0.022528 -0.362797,0.063737 0.0019,0.00432 0.004,0.0089 0.006,0.013393 0.0084,0.018996 0.01787,0.040252 0.02821,0.063579 0.0099,0.024082 0.02066,0.050185 0.03199,0.077884 0.01168,0.027495 0.02289,0.057377 0.03449,0.088375 0.01173,0.031232 0.02384,0.063222 0.03607,0.095806 0.01143,0.033301 0.02305,0.067076 0.03468,0.1008525 4e-5,1.589e-4 7.9e-5,1.985e-4 1.98e-4,4.768e-4 -0.02189,-0.014545 -0.04398,-0.029204 -0.06656,-0.044187 -0.03171,-0.020903 -0.06481,-0.040811 -0.09767,-0.061473 -0.03298,-0.020388 -0.06601,-0.040888 -0.09847,-0.061037 -0.03331,-0.01935 -0.066,-0.038507 -0.09771,-0.056981 -0.03176,-0.018558 -0.06251,-0.036479 -0.0927,-0.052572 -0.0023,-0.00126 -0.0044,-0.00239 -0.0068,-0.00372 -0.202142,0.1580333 -0.345234,0.3878315 -0.39113,0.6511282 0.0045,4.768e-4 0.0093,0.00102 0.01414,0.00138 0.02055,0.00222 0.04378,0.00474 0.0691,0.00743 0.02583,0.00342 0.05381,0.00723 0.08345,0.011293 0.02961,0.00353 0.06112,0.0089 0.09382,0.014306 0.03274,0.00546 0.06668,0.010932 0.101045,0.016651 0.03449,0.00672 0.06954,0.01355 0.104591,0.020388 1.59e-4,0 2.78e-4,0 4.76e-4,0 -0.02344,0.011684 -0.0472,0.023523 -0.07148,0.035604 -0.03397,0.017004 -0.06768,0.035725 -0.102002,0.053802 -0.03422,0.018396 -0.06847,0.036678 -0.10213,0.05484 -0.03345,0.019032 -0.06639,0.037787 -0.09819,0.056069 -0.03194,0.018162 -0.0629,0.035844 -0.09188,0.053964 -0.0023,0.00138 -0.0044,0.00264 -0.0068,0.00408 0.03691,0.2656809 0.172299,0.4998111 0.368321,0.6641621 0.0027,-0.0036 0.0056,-0.0076 0.0084,-0.01148 0.01219,-0.01677 0.02591,-0.03556 0.04084,-0.05615 0.01594,-0.02066 0.03322,-0.04296 0.0515,-0.06664 0.01795,-0.02392 0.0383,-0.04856 0.05932,-0.07407 0.02106,-0.02575 0.04279,-0.05226 0.06493,-0.079235 0.02309,-0.026428 0.04649,-0.053451 0.06998,-0.080388 4e-5,-7.98e-5 1.59e-4,-2.782e-4 2.78e-4,-3.575e-4 -0.0016,0.026109 -0.0033,0.052608 -0.0049,0.079592 -0.0023,0.038025 -0.0029,0.076612 -0.0043,0.1153565 -0.0013,0.03878 -0.0026,0.07765 -0.0037,0.115793 -1.59e-4,0.03851 -2.78e-4,0.07645 -4.37e-4,0.113091 -2.38e-4,0.03688 -3.97e-4,0.07244 7.93e-4,0.1066533 4e-5,0.0028 1.59e-4,0.0052 1.59e-4,0.0078 0.122587,0.04975 0.256421,0.07717 0.396771,0.07717 0.127476,0 0.249588,-0.02249 0.362759,-0.06378 -0.0019,-0.0043 -0.0038,-0.0089 -0.006,-0.01339 -0.0084,-0.01891 -0.01788,-0.04021 -0.02822,-0.0635 -0.0099,-0.02412 -0.02066,-0.05027 -0.03194,-0.07784 -0.01168,-0.02754 -0.02293,-0.0575 -0.03449,-0.08841 -0.01173,-0.03115 -0.02388,-0.0633 -0.03607,-0.09588 -0.01143,-0.03326 -0.02309,-0.06708 -0.03473,-0.100773 -3.9e-5,-1.19e-4 -7.9e-5,-2.78e-4 -1.58e-4,-5.17e-4 0.02186,0.01462 0.04395,0.0292 0.06652,0.04423 0.03167,0.02082 0.06481,0.04073 0.09767,0.0614 0.03298,0.02043 0.06601,0.04093 0.09847,0.06112 0.03331,0.01935 0.06601,0.03851 0.09767,0.05698 0.03179,0.01848 0.06251,0.03648 0.0927,0.05249 0.0023,0.0014 0.0046,0.0024 0.0068,0.0038 0.202181,-0.158074 0.345234,-0.3877526 0.391171,-0.6510883 -0.0046,-5.17e-4 -0.0093,-0.00102 -0.01415,-0.00143 -0.02058,-0.00222 -0.04375,-0.00468 -0.0691,-0.00735 -0.02583,-0.00348 -0.05384,-0.00727 -0.08345,-0.011398 -0.02964,-0.00348 -0.06112,-0.00879 -0.09382,-0.014185 -0.03274,-0.00546 -0.06668,-0.010967 -0.101056,-0.016687 -0.03449,-0.00672 -0.06954,-0.013592 -0.104592,-0.020388 -1.59e-4,0 -2.79e-4,0 -4.77e-4,0 0.02344,-0.011762 0.0472,-0.023567 0.07145,-0.035683 0.03402,-0.01689 0.06775,-0.035683 0.102083,-0.053724 z"
     id="path1-6-5"
     class="ColorScheme-Text"
     style="fill:currentColor;fill-opacity:1;stroke-width:0.0397368" />
  <path
     id="gradient-path1"
     style="opacity:0.3;baseline-shift:baseline;display:inline;overflow:visible;vector-effect:none;enable-background:accumulate;stop-color:#000000;stop-opacity:1;fill:url(#linearGradient4)"
     d="M 8.4453131 1.2753492 C 4.4913166 1.2753492 1.2794833 4.4784283 1.2794833 8.4236094 C 1.2794833 12.36879 4.4913166 15.572386 8.4453131 15.572386 C 12.39931 15.572386 15.611143 12.36879 15.611143 8.4236094 C 15.611143 4.4784283 12.39931 1.2753492 8.4453131 1.2753492 z " />
</svg>
