<?xml version="1.0" encoding="UTF-8" standalone="no"?>
<svg
   width="64"
   height="64"
   version="1.1"
   viewBox="0 0 16.933 16.933"
   id="svg7"
   sodipodi:docname="io.github.TheWisker.Cavasik.svg"
   inkscape:version="1.4.2 (ebf0e940d0, 2025-05-08)"
   xmlns:inkscape="http://www.inkscape.org/namespaces/inkscape"
   xmlns:sodipodi="http://sodipodi.sourceforge.net/DTD/sodipodi-0.dtd"
   xmlns:xlink="http://www.w3.org/1999/xlink"
   xmlns="http://www.w3.org/2000/svg"
   xmlns:svg="http://www.w3.org/2000/svg"
   xmlns:rdf="http://www.w3.org/1999/02/22-rdf-syntax-ns#"
   xmlns:cc="http://creativecommons.org/ns#"
   xmlns:dc="http://purl.org/dc/elements/1.1/">
  <sodipodi:namedview
     id="namedview7"
     pagecolor="#9c4444"
     bordercolor="#000000"
     borderopacity="0.25"
     inkscape:showpageshadow="2"
     inkscape:pageopacity="0.0"
     inkscape:pagecheckerboard="0"
     inkscape:deskcolor="#d1d1d1"
     inkscape:zoom="6.15625"
     inkscape:cx="90.639594"
     inkscape:cy="43.045685"
     inkscape:window-width="2560"
     inkscape:window-height="1376"
     inkscape:window-x="0"
     inkscape:window-y="0"
     inkscape:window-maximized="1"
     inkscape:current-layer="svg7"
     showgrid="false" />
  <defs
     id="defs2">
    <filter
       style="color-interpolation-filters:sRGB;"
       inkscape:label="Blur"
       id="filter3"
       x="-0.10843471"
       y="-0.10870992"
       width="1.2168694"
       height="1.2174198">
      <feGaussianBlur
         stdDeviation="0.5 0.5"
         result="blur"
         id="feGaussianBlur3" />
    </filter>
    <style
       id="current-color-scheme"
       type="text/css">.ColorScheme-Text {color:#d8dee9} .ColorScheme-Highlight {color:#3b4252}</style>
    <linearGradient
       id="linearGradient3"
       inkscape:collect="always">
      <stop
         style="stop-color:#000000;stop-opacity:1;"
         offset="0"
         id="stop3" />
      <stop
         style="stop-color:#000000;stop-opacity:0;"
         offset="1"
         id="stop4" />
    </linearGradient>
    <linearGradient
       inkscape:collect="always"
       xlink:href="#linearGradient3"
       id="linearGradient4"
       x1="13.512321"
       y1="13.490874"
       x2="3.3783066"
       y2="3.3568602"
       gradientUnits="userSpaceOnUse" />
  </defs>
  <metadata
     id="metadata2">
    <rdf:RDF>
      <cc:Work
         rdf:about="">
        <dc:format>image/svg+xml</dc:format>
        <dc:type
           rdf:resource="http://purl.org/dc/dcmitype/StillImage" />
      </cc:Work>
    </rdf:RDF>
  </metadata>
  <ellipse
     style="opacity:1;fill:none;stroke:#000000;stroke-width:0.582072;stroke-dasharray:none;stroke-opacity:1;filter:url(#filter3)"
     id="path1-5"
     cx="8.4450111"
     cy="8.423522"
     rx="6.8752708"
     ry="6.8578653" />
  <ellipse
     style="opacity:1;fill:none;stroke-width:0.58207188;stroke-opacity:1;stroke:currentColor;stroke-dasharray:none;fill-opacity:1"
     id="path1"
     cx="8.4450111"
     cy="8.423522"
     rx="6.8752708"
     ry="6.8578653"
     class="ColorScheme-Text" />
  <ellipse
     style="fill:currentColor;stroke:none;stroke-width:0.285844;stroke-dasharray:none;stroke-opacity:1"
     id="path1-2"
     cx="8.4557552"
     cy="8.423522"
     rx="6.5738997"
     ry="6.5692253"
     class="ColorScheme-Highlight" />
  <path
     id="rect2751"
     style="opacity:0.3;fill:#000000;fill-opacity:1;stroke-width:0.210608"
     d="m 5.134218,6.1723464 c -0.35003,0 -0.631823,0.2817934 -0.631823,0.6318238 v 3.5581218 l -0.0046,4.21e-4 v 0.730958 c 0,0.351917 0.238697,0.648999 0.563129,0.72273 l 0.01152,0.0024 h 6.660063 c 0.07471,0 0.146965,-0.009 0.215544,-0.02592 l 0.0057,-0.0012 0.0057,-0.0021 c 0.27864,-0.103518 0.474454,-0.377055 0.474454,-0.695989 V 7.1188447 h 0.0013 V 6.8041669 c 0,-0.3500304 -0.281794,-0.6318238 -0.631824,-0.6318238 z m 7.091152,1.0575645 v 3.8637501 c 0,0.232455 -0.141453,0.42381 -0.335656,0.497726 -0.04974,0.01157 -0.102055,0.01892 -0.157133,0.01892 H 5.103779 C 4.877904,11.556762 4.706421,11.35007 4.706421,11.09366 V 10.550275 C 6.053554,10.436452 7.033316,10.055197 7.866774,8.8711708 8.449399,8.0434038 9.014035,7.6417951 9.708359,7.4364043 10.377941,7.2383327 11.188044,7.2303677 12.22537,7.2299109 Z M 11.122969,7.9468825 A 0.66144181,0.66144181 0 0 0 10.462763,8.517005 0.66144181,0.66144181 0 0 0 10.545443,8.9369866 0.66144181,0.66144181 0 0 0 10.211021,8.7872576 0.66144181,0.66144181 0 0 0 9.464432,9.3507983 0.66144181,0.66144181 0 0 0 9.533952,9.7460994 0.66144181,0.66144181 0 0 0 9.218039,9.6103562 0.66144181,0.66144181 0 0 0 8.471452,10.174308 0.66144181,0.66144181 0 0 0 9.035403,10.920485 0.66144181,0.66144181 0 0 0 9.781581,10.356944 0.66144181,0.66144181 0 0 0 9.712881,9.9620548 0.66144181,0.66144181 0 0 0 10.02797,10.097387 0.66144181,0.66144181 0 0 0 10.774558,9.5334349 0.66144181,0.66144181 0 0 0 10.691878,9.1138644 0.66144181,0.66144181 0 0 0 11.026711,9.2635936 0.66144181,0.66144181 0 0 0 11.773299,8.6996414 0.66144181,0.66144181 0 0 0 11.209347,7.953464 0.66144181,0.66144181 0 0 0 11.122967,7.946884 Z m 0.0082,0.3430608 a 0.31880225,0.31880225 0 0 1 0.03085,0.00288 0.31880225,0.31880225 0 0 1 0.02262,0.0037 0.31880225,0.31880225 0 0 1 0.02221,0.00575 0.31880225,0.31880225 0 0 1 0.02139,0.00658 0.31880225,0.31880225 0 0 1 0.02139,0.00905 0.31880225,0.31880225 0 0 1 0.02016,0.010284 0.31880225,0.31880225 0 0 1 0.01933,0.011518 0.31880225,0.31880225 0 0 1 0.01892,0.012752 0.31880225,0.31880225 0 0 1 0.01769,0.013987 0.31880225,0.31880225 0 0 1 0.01687,0.01522 0.31880225,0.31880225 0 0 1 0.01563,0.016865 0.31880225,0.31880225 0 0 1 0.0144,0.017687 0.31880225,0.31880225 0 0 1 0.01317,0.01851 0.31880225,0.31880225 0 0 1 0.01152,0.019744 0.31880225,0.31880225 0 0 1 0.01028,0.020155 0.31880225,0.31880225 0 0 1 0.0091,0.020979 0.31880225,0.31880225 0 0 1 0.007,0.021801 0.31880225,0.31880225 0 0 1 0.0062,0.021801 0.31880225,0.31880225 0 0 1 0.0037,0.022213 0.31880225,0.31880225 0 0 1 0.0029,0.023035 0.31880225,0.31880225 0 0 1 7.78e-4,0.022213 0.31880225,0.31880225 0 0 1 -7.78e-4,0.023035 0.31880225,0.31880225 0 0 1 -0.0024,0.022624 0.31880225,0.31880225 0 0 1 -0.0144,0.060878 0.31880225,0.31880225 0 0 1 -0.02674,0.056354 0.31880225,0.31880225 0 0 1 -0.03619,0.050596 0.31880225,0.31880225 0 0 1 -0.04648,0.042779 0.31880225,0.31880225 0 0 1 -0.05306,0.032497 0.31880225,0.31880225 0 0 1 -0.05883,0.02139 0.31880225,0.31880225 0 0 1 -0.06129,0.00987 0.31880225,0.31880225 0 0 1 -0.06293,-0.00247 0.31880225,0.31880225 0 0 1 -0.06047,-0.014807 0.31880225,0.31880225 0 0 1 -0.05676,-0.026326 0.31880225,0.31880225 0 0 1 -0.0506,-0.036609 0.31880225,0.31880225 0 0 1 -0.04237,-0.046071 0.31880225,0.31880225 0 0 1 -0.03249,-0.053474 0.31880225,0.31880225 0 0 1 -0.02181,-0.058822 0.31880225,0.31880225 0 0 1 -0.0095,-0.06129 0.31880225,0.31880225 0 0 1 0.0024,-0.062525 0.31880225,0.31880225 0 0 1 0.0144,-0.060468 0.31880225,0.31880225 0 0 1 0.02632,-0.057177 0.31880225,0.31880225 0 0 1 0.03702,-0.050596 0.31880225,0.31880225 0 0 1 0.04566,-0.041957 0.31880225,0.31880225 0 0 1 0.05389,-0.032907 0.31880225,0.31880225 0 0 1 0.05841,-0.02139 0.31880225,0.31880225 0 0 1 0.0617,-0.00946 0.31880225,0.31880225 0 0 1 0.03126,-4.212e-4 z m -0.998743,0.8337933 a 0.31880225,0.31880225 0 0 1 0.03126,0.00288 0.31880225,0.31880225 0 0 1 0.02262,0.0037 0.31880225,0.31880225 0 0 1 0.02221,0.00575 0.31880225,0.31880225 0 0 1 0.02139,0.00658 0.31880225,0.31880225 0 0 1 0.02098,0.00905 0.31880225,0.31880225 0 0 1 0.02015,0.010284 0.31880225,0.31880225 0 0 1 0.01974,0.011105 0.31880225,0.31880225 0 0 1 0.01892,0.013163 0.31880225,0.31880225 0 0 1 0.01769,0.013987 0.31880225,0.31880225 0 0 1 0.01687,0.015221 0.31880225,0.31880225 0 0 1 0.01563,0.016865 0.31880225,0.31880225 0 0 1 0.01398,0.017687 0.31880225,0.31880225 0 0 1 0.01317,0.018511 0.31880225,0.31880225 0 0 1 0.01193,0.019744 0.31880225,0.31880225 0 0 1 0.0099,0.020155 0.31880225,0.31880225 0 0 1 0.0091,0.020979 0.31880225,0.31880225 0 0 1 0.007,0.021801 0.31880225,0.31880225 0 0 1 0.0062,0.021801 0.31880225,0.31880225 0 0 1 0.0041,0.022213 0.31880225,0.31880225 0 0 1 0.0024,0.023035 0.31880225,0.31880225 0 0 1 7.78e-4,0.022213 0.31880225,0.31880225 0 0 1 -7.78e-4,0.023035 0.31880225,0.31880225 0 0 1 -0.0024,0.022623 0.31880225,0.31880225 0 0 1 -0.01398,0.060879 0.31880225,0.31880225 0 0 1 -0.02674,0.056354 0.31880225,0.31880225 0 0 1 -0.03661,0.050595 0.31880225,0.31880225 0 0 1 -0.04607,0.04278 0.31880225,0.31880225 0 0 1 -0.05306,0.032496 0.31880225,0.31880225 0 0 1 -0.05883,0.02139 0.31880225,0.31880225 0 0 1 -0.0617,0.00987 0.31880225,0.31880225 0 0 1 -0.06253,-0.00247 0.31880225,0.31880225 0 0 1 -0.06088,-0.014808 0.31880225,0.31880225 0 0 1 -0.05635,-0.026326 0.31880225,0.31880225 0 0 1 -0.05059,-0.036609 0.31880225,0.31880225 0 0 1 -0.04278,-0.04607 0.31880225,0.31880225 0 0 1 -0.03249,-0.053474 0.31880225,0.31880225 0 0 1 -0.02139,-0.058822 0.31880225,0.31880225 0 0 1 -0.0095,-0.061291 0.31880225,0.31880225 0 0 1 0.0024,-0.062524 0.31880225,0.31880225 0 0 1 0.0148,-0.060468 0.31880225,0.31880225 0 0 1 0.02592,-0.057177 0.31880225,0.31880225 0 0 1 0.03661,-0.050596 0.31880225,0.31880225 0 0 1 0.04607,-0.041957 0.31880225,0.31880225 0 0 1 0.05348,-0.032907 0.31880225,0.31880225 0 0 1 0.05883,-0.021389 0.31880225,0.31880225 0 0 1 0.06129,-0.00946 0.31880225,0.31880225 0 0 1 0.03126,-4.212e-4 z M 9.108182,9.9472465 a 0.31880225,0.31880225 0 0 1 0.06253,0.00244 0.31880225,0.31880225 0 0 1 0.02262,0.00411 0.31880225,0.31880225 0 0 1 0.02221,0.00576 0.31880225,0.31880225 0 0 1 0.02139,0.00658 0.31880225,0.31880225 0 0 1 0.02139,0.00864 0.31880225,0.31880225 0 0 1 0.02016,0.010283 0.31880225,0.31880225 0 0 1 0.01933,0.011517 0.31880225,0.31880225 0 0 1 0.01892,0.01316 0.31880225,0.31880225 0 0 1 0.01769,0.01399 0.31880225,0.31880225 0 0 1 0.01687,0.01522 0.31880225,0.31880225 0 0 1 0.01563,0.01687 0.31880225,0.31880225 0 0 1 0.01398,0.01769 0.31880225,0.31880225 0 0 1 0.01317,0.01851 0.31880225,0.31880225 0 0 1 0.01193,0.01933 0.31880225,0.31880225 0 0 1 0.0099,0.02057 0.31880225,0.31880225 0 0 1 0.0095,0.02098 0.31880225,0.31880225 0 0 1 0.007,0.02139 0.31880225,0.31880225 0 0 1 0.0057,0.02221 0.31880225,0.31880225 0 0 1 0.0041,0.02221 0.31880225,0.31880225 0 0 1 0.0024,0.02262 0.31880225,0.31880225 0 0 1 0.0013,0.02262 0.31880225,0.31880225 0 0 1 -0.0013,0.02262 0.31880225,0.31880225 0 0 1 -0.0024,0.02303 0.31880225,0.31880225 0 0 1 -0.01398,0.06088 0.31880225,0.31880225 0 0 1 -0.02674,0.05635 0.31880225,0.31880225 0 0 1 -0.03661,0.05059 0.31880225,0.31880225 0 0 1 -0.04607,0.04237 0.31880225,0.31880225 0 0 1 -0.05306,0.03249 0.31880225,0.31880225 0 0 1 -0.05883,0.0218 0.31880225,0.31880225 0 0 1 -0.0617,0.0099 0.31880225,0.31880225 0 0 1 -0.06253,-0.0029 0.31880225,0.31880225 0 0 1 -0.06088,-0.01439 0.31880225,0.31880225 0 0 1 -0.05636,-0.02633 0.31880225,0.31880225 0 0 1 -0.05059,-0.03702 0.31880225,0.31880225 0 0 1 -0.04278,-0.04566 0.31880225,0.31880225 0 0 1 -0.03209,-0.05347 0.31880225,0.31880225 0 0 1 -0.0218,-0.05882 0.31880225,0.31880225 0 0 1 -0.0099,-0.0617 0.31880225,0.31880225 0 0 1 0.0024,-0.06211 0.31880225,0.31880225 0 0 1 0.01481,-0.06088 0.31880225,0.31880225 0 0 1 0.02632,-0.05677 0.31880225,0.31880225 0 0 1 0.03702,-0.05059 0.31880225,0.31880225 0 0 1 0.04566,-0.04237 0.31880225,0.31880225 0 0 1 0.05348,-0.032493 0.31880225,0.31880225 0 0 1 0.05883,-0.021389 0.31880225,0.31880225 0 0 1 0.06129,-0.00987 z" />
  <path
     id="rect2751-7"
     class="ColorScheme-Text"
     style="fill:currentColor;fill-opacity:1;stroke-width:0.210608"
     d="m 5.134218,5.6432742 c -0.35003,0 -0.631823,0.2817934 -0.631823,0.6318238 v 3.5581221 l -0.0046,4.21e-4 v 0.7309569 c 0,0.351918 0.238697,0.649 0.563129,0.722731 l 0.01152,0.0024 h 6.660063 c 0.07471,0 0.146965,-0.009 0.215544,-0.02592 l 0.0057,-0.0012 0.0057,-0.0021 c 0.27864,-0.103519 0.474454,-0.377055 0.474454,-0.695989 V 6.5897725 h 0.0013 V 6.2750947 c 0,-0.3500304 -0.281794,-0.6318238 -0.631824,-0.6318238 z m 7.091152,1.0575645 v 3.8637503 c 0,0.232455 -0.141453,0.42381 -0.335656,0.497726 -0.04974,0.01157 -0.102055,0.01892 -0.157133,0.01892 H 5.103779 C 4.877904,11.027685 4.706421,10.820996 4.706421,10.564586 V 10.021201 C 6.053554,9.9073781 7.033316,9.5261231 7.866774,8.3420966 8.449399,7.5143296 9.014035,7.1127209 9.708359,6.9073301 10.377941,6.7092585 11.188044,6.7012935 12.22537,6.7008367 Z m -1.102401,0.7169716 a 0.66144181,0.66144181 0 0 0 -0.660206,0.5701225 0.66144181,0.66144181 0 0 0 0.08268,0.4199816 0.66144181,0.66144181 0 0 0 -0.334422,-0.149729 0.66144181,0.66144181 0 0 0 -0.746589,0.5635407 0.66144181,0.66144181 0 0 0 0.06952,0.395301 0.66144181,0.66144181 0 0 0 -0.315913,-0.135743 0.66144181,0.66144181 0 0 0 -0.746587,0.563952 0.66144181,0.66144181 0 0 0 0.563951,0.7461769 0.66144181,0.66144181 0 0 0 0.746178,-0.5635409 0.66144181,0.66144181 0 0 0 -0.0687,-0.394889 0.66144181,0.66144181 0 0 0 0.315089,0.135332 0.66144181,0.66144181 0 0 0 0.746588,-0.563952 0.66144181,0.66144181 0 0 0 -0.08268,-0.4195709 0.66144181,0.66144181 0 0 0 0.334833,0.1497292 0.66144181,0.66144181 0 0 0 0.746588,-0.5639522 0.66144181,0.66144181 0 0 0 -0.563952,-0.7461774 0.66144181,0.66144181 0 0 0 -0.08638,-0.00658 z m 0.0082,0.3430608 a 0.31880225,0.31880225 0 0 1 0.03085,0.00288 0.31880225,0.31880225 0 0 1 0.02262,0.0037 0.31880225,0.31880225 0 0 1 0.02221,0.00575 0.31880225,0.31880225 0 0 1 0.02139,0.00658 0.31880225,0.31880225 0 0 1 0.02139,0.00905 0.31880225,0.31880225 0 0 1 0.02016,0.010284 0.31880225,0.31880225 0 0 1 0.01933,0.011518 0.31880225,0.31880225 0 0 1 0.01892,0.012752 0.31880225,0.31880225 0 0 1 0.01769,0.013987 0.31880225,0.31880225 0 0 1 0.01687,0.01522 0.31880225,0.31880225 0 0 1 0.01563,0.016865 0.31880225,0.31880225 0 0 1 0.0144,0.017687 0.31880225,0.31880225 0 0 1 0.01317,0.01851 0.31880225,0.31880225 0 0 1 0.01152,0.019744 0.31880225,0.31880225 0 0 1 0.01028,0.020155 0.31880225,0.31880225 0 0 1 0.0091,0.020979 0.31880225,0.31880225 0 0 1 0.007,0.021801 0.31880225,0.31880225 0 0 1 0.0062,0.021801 0.31880225,0.31880225 0 0 1 0.0037,0.022213 0.31880225,0.31880225 0 0 1 0.0029,0.023035 0.31880225,0.31880225 0 0 1 7.78e-4,0.022213 0.31880225,0.31880225 0 0 1 -7.78e-4,0.023035 0.31880225,0.31880225 0 0 1 -0.0024,0.022624 0.31880225,0.31880225 0 0 1 -0.0144,0.060878 0.31880225,0.31880225 0 0 1 -0.02674,0.056354 0.31880225,0.31880225 0 0 1 -0.03619,0.050596 0.31880225,0.31880225 0 0 1 -0.04648,0.042779 0.31880225,0.31880225 0 0 1 -0.05306,0.032497 0.31880225,0.31880225 0 0 1 -0.05883,0.02139 0.31880225,0.31880225 0 0 1 -0.06129,0.00987 0.31880225,0.31880225 0 0 1 -0.06293,-0.00247 0.31880225,0.31880225 0 0 1 -0.06047,-0.014807 0.31880225,0.31880225 0 0 1 -0.05676,-0.026326 0.31880225,0.31880225 0 0 1 -0.0506,-0.036609 0.31880225,0.31880225 0 0 1 -0.04237,-0.046071 0.31880225,0.31880225 0 0 1 -0.03249,-0.053474 0.31880225,0.31880225 0 0 1 -0.02181,-0.058822 0.31880225,0.31880225 0 0 1 -0.0095,-0.06129 0.31880225,0.31880225 0 0 1 0.0024,-0.062525 0.31880225,0.31880225 0 0 1 0.0144,-0.060468 0.31880225,0.31880225 0 0 1 0.02632,-0.057177 0.31880225,0.31880225 0 0 1 0.03702,-0.050596 0.31880225,0.31880225 0 0 1 0.04566,-0.041957 0.31880225,0.31880225 0 0 1 0.05389,-0.032907 0.31880225,0.31880225 0 0 1 0.05841,-0.02139 0.31880225,0.31880225 0 0 1 0.0617,-0.00946 0.31880225,0.31880225 0 0 1 0.03126,-4.212e-4 z m -0.998743,0.8337933 a 0.31880225,0.31880225 0 0 1 0.03126,0.00288 0.31880225,0.31880225 0 0 1 0.02262,0.0037 0.31880225,0.31880225 0 0 1 0.02221,0.00575 0.31880225,0.31880225 0 0 1 0.02139,0.00658 0.31880225,0.31880225 0 0 1 0.02098,0.00905 0.31880225,0.31880225 0 0 1 0.02015,0.010284 0.31880225,0.31880225 0 0 1 0.01974,0.011105 0.31880225,0.31880225 0 0 1 0.01892,0.013163 0.31880225,0.31880225 0 0 1 0.01769,0.013987 0.31880225,0.31880225 0 0 1 0.01687,0.015221 0.31880225,0.31880225 0 0 1 0.01563,0.016865 0.31880225,0.31880225 0 0 1 0.01398,0.017687 0.31880225,0.31880225 0 0 1 0.01317,0.018511 0.31880225,0.31880225 0 0 1 0.01193,0.019744 0.31880225,0.31880225 0 0 1 0.0099,0.020155 0.31880225,0.31880225 0 0 1 0.0091,0.02098 0.31880225,0.31880225 0 0 1 0.007,0.0218 0.31880225,0.31880225 0 0 1 0.0062,0.0218 0.31880225,0.31880225 0 0 1 0.0041,0.02221 0.31880225,0.31880225 0 0 1 0.0024,0.02304 0.31880225,0.31880225 0 0 1 7.78e-4,0.02221 0.31880225,0.31880225 0 0 1 -7.78e-4,0.02304 0.31880225,0.31880225 0 0 1 -0.0024,0.02262 0.31880225,0.31880225 0 0 1 -0.01398,0.06088 0.31880225,0.31880225 0 0 1 -0.02674,0.05635 0.31880225,0.31880225 0 0 1 -0.03661,0.05059 0.31880225,0.31880225 0 0 1 -0.04607,0.04278 0.31880225,0.31880225 0 0 1 -0.05306,0.0325 0.31880225,0.31880225 0 0 1 -0.05883,0.02139 0.31880225,0.31880225 0 0 1 -0.0617,0.0099 0.31880225,0.31880225 0 0 1 -0.06253,-0.0025 0.31880225,0.31880225 0 0 1 -0.06088,-0.01481 0.31880225,0.31880225 0 0 1 -0.05635,-0.02633 0.31880225,0.31880225 0 0 1 -0.05059,-0.03661 0.31880225,0.31880225 0 0 1 -0.04278,-0.04607 0.31880225,0.31880225 0 0 1 -0.03249,-0.05347 0.31880225,0.31880225 0 0 1 -0.02139,-0.05882 0.31880225,0.31880225 0 0 1 -0.0095,-0.06129 0.31880225,0.31880225 0 0 1 0.0024,-0.06252 0.31880225,0.31880225 0 0 1 0.0148,-0.06047 0.31880225,0.31880225 0 0 1 0.02592,-0.057177 0.31880225,0.31880225 0 0 1 0.03661,-0.050596 0.31880225,0.31880225 0 0 1 0.04607,-0.041957 0.31880225,0.31880225 0 0 1 0.05348,-0.032907 0.31880225,0.31880225 0 0 1 0.05883,-0.021389 0.31880225,0.31880225 0 0 1 0.06129,-0.00946 0.31880225,0.31880225 0 0 1 0.03126,-4.212e-4 z M 9.108182,9.4181741 a 0.31880225,0.31880225 0 0 1 0.06253,0.0024 0.31880225,0.31880225 0 0 1 0.02262,0.0041 0.31880225,0.31880225 0 0 1 0.02221,0.0058 0.31880225,0.31880225 0 0 1 0.02139,0.0066 0.31880225,0.31880225 0 0 1 0.02139,0.0086 0.31880225,0.31880225 0 0 1 0.02016,0.01028 0.31880225,0.31880225 0 0 1 0.01933,0.01152 0.31880225,0.31880225 0 0 1 0.01892,0.01316 0.31880225,0.31880225 0 0 1 0.01769,0.01399 0.31880225,0.31880225 0 0 1 0.01687,0.01522 0.31880225,0.31880225 0 0 1 0.01563,0.01687 0.31880225,0.31880225 0 0 1 0.01398,0.01769 0.31880225,0.31880225 0 0 1 0.01317,0.01851 0.31880225,0.31880225 0 0 1 0.01193,0.01933 0.31880225,0.31880225 0 0 1 0.0099,0.02057 0.31880225,0.31880225 0 0 1 0.0095,0.02098 0.31880225,0.31880225 0 0 1 0.007,0.02139 0.31880225,0.31880225 0 0 1 0.0057,0.02221 0.31880225,0.31880225 0 0 1 0.0041,0.02221 0.31880225,0.31880225 0 0 1 0.0024,0.02262 0.31880225,0.31880225 0 0 1 0.0013,0.02262 0.31880225,0.31880225 0 0 1 -0.0013,0.02262 0.31880225,0.31880225 0 0 1 -0.0024,0.02303 0.31880225,0.31880225 0 0 1 -0.01398,0.06088 0.31880225,0.31880225 0 0 1 -0.02674,0.05635 0.31880225,0.31880225 0 0 1 -0.03661,0.05059 0.31880225,0.31880225 0 0 1 -0.04607,0.04237 0.31880225,0.31880225 0 0 1 -0.05306,0.03249 0.31880225,0.31880225 0 0 1 -0.05883,0.0218 0.31880225,0.31880225 0 0 1 -0.0617,0.0099 0.31880225,0.31880225 0 0 1 -0.06253,-0.0029 0.31880225,0.31880225 0 0 1 -0.06088,-0.01439 0.31880225,0.31880225 0 0 1 -0.05636,-0.02633 0.31880225,0.31880225 0 0 1 -0.05059,-0.03702 0.31880225,0.31880225 0 0 1 -0.04278,-0.04566 0.31880225,0.31880225 0 0 1 -0.03209,-0.05347 0.31880225,0.31880225 0 0 1 -0.0218,-0.05882 0.31880225,0.31880225 0 0 1 -0.0099,-0.0617 0.31880225,0.31880225 0 0 1 0.0024,-0.06211 0.31880225,0.31880225 0 0 1 0.01481,-0.06088 0.31880225,0.31880225 0 0 1 0.02632,-0.05676 0.31880225,0.31880225 0 0 1 0.03702,-0.05059 0.31880225,0.31880225 0 0 1 0.04566,-0.04237 0.31880225,0.31880225 0 0 1 0.05348,-0.03249 0.31880225,0.31880225 0 0 1 0.05883,-0.02139 0.31880225,0.31880225 0 0 1 0.06129,-0.0099 z" />
  <path
     id="gradient-path1"
     style="opacity:0.3;baseline-shift:baseline;display:inline;overflow:visible;vector-effect:none;enable-background:accumulate;stop-color:#000000;stop-opacity:1;fill:url(#linearGradient4)"
     d="M 8.4453131 1.2753492 C 4.4913166 1.2753492 1.2794833 4.4784283 1.2794833 8.4236094 C 1.2794833 12.36879 4.4913166 15.572386 8.4453131 15.572386 C 12.39931 15.572386 15.611143 12.36879 15.611143 8.4236094 C 15.611143 4.4784283 12.39931 1.2753492 8.4453131 1.2753492 z "
     inkscape:label="gradient-path1" />
</svg>
