<?xml version="1.0" encoding="UTF-8" standalone="no"?>
<svg
   width="64"
   height="64"
   version="1.1"
   viewBox="0 0 16.933 16.933"
   id="svg7"
   sodipodi:docname="io.gitlab.theevilskeleton.Upscaler.svg"
   inkscape:version="1.4.2 (ebf0e940d0, 2025-05-08)"
   xmlns:inkscape="http://www.inkscape.org/namespaces/inkscape"
   xmlns:sodipodi="http://sodipodi.sourceforge.net/DTD/sodipodi-0.dtd"
   xmlns:xlink="http://www.w3.org/1999/xlink"
   xmlns="http://www.w3.org/2000/svg"
   xmlns:svg="http://www.w3.org/2000/svg"
   xmlns:rdf="http://www.w3.org/1999/02/22-rdf-syntax-ns#"
   xmlns:cc="http://creativecommons.org/ns#"
   xmlns:dc="http://purl.org/dc/elements/1.1/">
  <sodipodi:namedview
     id="namedview7"
     pagecolor="#9c4444"
     bordercolor="#000000"
     borderopacity="0.25"
     inkscape:showpageshadow="2"
     inkscape:pageopacity="0.0"
     inkscape:pagecheckerboard="0"
     inkscape:deskcolor="#d1d1d1"
     inkscape:zoom="8.7062522"
     inkscape:cx="72.074641"
     inkscape:cy="15.276378"
     inkscape:window-width="2560"
     inkscape:window-height="1388"
     inkscape:window-x="0"
     inkscape:window-y="0"
     inkscape:window-maximized="1"
     inkscape:current-layer="svg7"
     showgrid="false" />
  <defs
     id="defs2">
    <filter
       style="color-interpolation-filters:sRGB;"
       inkscape:label="Blur"
       id="filter3"
       x="-0.10843471"
       y="-0.10870992"
       width="1.2168694"
       height="1.2174198">
      <feGaussianBlur
         stdDeviation="0.5 0.5"
         result="blur"
         id="feGaussianBlur3" />
    </filter>
    <style
       id="current-color-scheme"
       type="text/css">.ColorScheme-Text {color:#d8dee9} .ColorScheme-Highlight {color:#3b4252}</style>
    <linearGradient
       id="linearGradient3"
       inkscape:collect="always">
      <stop
         style="stop-color:#000000;stop-opacity:1;"
         offset="0"
         id="stop3" />
      <stop
         style="stop-color:#000000;stop-opacity:0;"
         offset="1"
         id="stop4" />
    </linearGradient>
    <linearGradient
       inkscape:collect="always"
       xlink:href="#linearGradient3"
       id="linearGradient4"
       x1="13.512321"
       y1="13.490874"
       x2="3.3783066"
       y2="3.3568602"
       gradientUnits="userSpaceOnUse" />
  </defs>
  <metadata
     id="metadata2">
    <rdf:RDF>
      <cc:Work
         rdf:about="">
        <dc:format>image/svg+xml</dc:format>
        <dc:type
           rdf:resource="http://purl.org/dc/dcmitype/StillImage" />
      </cc:Work>
    </rdf:RDF>
  </metadata>
  <ellipse
     style="opacity:1;fill:none;stroke:#000000;stroke-width:0.582072;stroke-dasharray:none;stroke-opacity:1;filter:url(#filter3)"
     id="path1-5"
     cx="8.4450111"
     cy="8.423522"
     rx="6.8752708"
     ry="6.8578653" />
  <ellipse
     style="opacity:1;fill:none;stroke-width:0.58207188;stroke-opacity:1;stroke:currentColor;stroke-dasharray:none;fill-opacity:1"
     id="path1"
     cx="8.4450111"
     cy="8.423522"
     rx="6.8752708"
     ry="6.8578653"
     class="ColorScheme-Text" />
  <ellipse
     style="fill:currentColor;stroke:none;stroke-width:0.285844;stroke-dasharray:none;stroke-opacity:1"
     id="path1-2"
     cx="8.4557552"
     cy="8.423522"
     rx="6.5738997"
     ry="6.5692253"
     class="ColorScheme-Highlight" />
  <path
     id="path5-6"
     style="opacity:0.3;fill:#000000;fill-opacity:1;stroke-width:0.0715194"
     d="m 5.340732,5.0269844 c -0.311313,0 -0.561936,0.2597768 -0.561936,0.5825145 v 6.4810571 c 0,0.322738 0.250623,0.582515 0.561936,0.582515 H 8.439474 V 11.681314 H 5.237838 c -0.09838,0 -0.177525,-0.08213 -0.177525,-0.18411 V 5.5503694 c 0,-0.1019852 0.07915,-0.184111 0.177525,-0.184111 h 3.201636 v -0.339274 z m 3.236756,0 V 12.673071 H 8.713993 V 5.0269844 Z m 0.27452,0 v 0.339274 h 2.843154 c 0.09837,0 0.177526,0.082126 0.177526,0.184111 v 5.9468346 c 0,0.101985 -0.07915,0.18411 -0.177526,0.18411 H 8.852008 v 0.991757 h 2.740261 c 0.311312,0 0.561935,-0.259777 0.561935,-0.582515 V 5.6094989 c 0,-0.3227377 -0.250623,-0.5825145 -0.561935,-0.5825145 z M 9.284984,5.8683791 V 6.4589879 H 9.854877 V 5.8683791 Z M 8.854066,6.0103721 V 7.4947828 H 9.146283 V 6.9059574 H 9.716039 V 6.6027645 H 9.146283 V 6.0103721 Z M 8.439474,6.8343435 a 0.61787503,0.85720587 15.855548 0 0 -0.0056,0.6316291 0.61787503,0.85720587 15.855548 0 0 0.0056,0.016463 z M 7.126826,6.8804395 6.39642,6.8944335 6.620316,7.6153742 A 0.84039064,0.63023798 39.051973 0 0 7.574482,8.3221841 0.84039064,0.63023798 39.051973 0 0 8.080993,7.5875243 h 1.4e-4 A 0.84039064,0.63023798 39.051973 0 0 7.126826,6.8804395 Z M 9.284984,7.0497336 V 7.6385591 H 8.852008 v 0.590746 h 0.432976 v 0.00165 h 1.709405 v 0.5890997 h 0.569756 V 8.2294438 H 10.994389 V 7.640344 H 9.854877 V 7.0497351 Z m 1.709405,1.7703175 H 10.424633 V 9.41066 h 0.569756 z M 8.439474,8.0955435 A 0.41625401,0.43153052 0 0 0 8.168521,8.6167335 0.41625401,0.43153052 0 0 0 8.439474,8.914576 Z M 8.854066,8.3732188 V 8.6761374 H 9.146283 V 8.3732188 Z m 0.569618,0 v 0.8935275 h 0.862111 V 8.6761374 h 0.569893 V 8.3732192 H 9.854877 Z M 7.580793,8.7205874 A 0.62952743,0.84133921 49.085168 0 0 6.648578,9.458677 L 6.446906,10.186615 7.17745,10.17646 A 0.62952743,0.84133921 49.085168 0 0 8.109392,9.4385072 0.62952743,0.84133921 49.085168 0 0 7.580793,8.7207219 Z m 1.271215,0.097543 V 9.4088765 H 9.284984 V 8.8181304 Z M 9.284984,9.4088765 V 10.590369 H 8.852008 v 0.590608 H 9.854877 V 9.4088768 Z m -0.84551,0.015503 a 0.85792881,0.61735439 76.617976 0 0 -0.05337,0.1116738 0.85792881,0.61735439 76.617976 0 0 0.05337,0.8450987 z M 8.854066,9.5527907 V 10.446455 H 9.146283 V 9.5527906 Z M 4.804451,12.557007 c 0.07144,0.23655 0.283943,0.407321 0.536281,0.407321 h 6.251537 c 0.252338,0 0.464838,-0.170771 0.536281,-0.407321 -0.128349,0.158396 -0.320898,0.259017 -0.536281,0.259017 H 5.340732 c -0.215383,0 -0.407932,-0.100621 -0.536281,-0.259017 z" />
  <path
     id="path5-6-5"
     style="fill:currentColor;fill-opacity:1;stroke-width:0.0715194"
     d="m 5.340732,4.4978283 c -0.311313,0 -0.561936,0.2597768 -0.561936,0.5825145 v 6.4810582 c 0,0.322737 0.250623,0.582514 0.561936,0.582514 H 8.439474 V 11.152159 H 5.237838 c -0.09838,0 -0.177525,-0.08213 -0.177525,-0.184111 V 5.0212133 c 0,-0.1019852 0.07915,-0.184111 0.177525,-0.184111 h 3.201636 v -0.339274 z m 3.236756,0 V 12.143915 H 8.713993 V 4.4978283 Z m 0.27452,0 v 0.339274 h 2.843154 c 0.09837,0 0.177526,0.082126 0.177526,0.184111 v 5.9468347 c 0,0.101985 -0.07915,0.184111 -0.177526,0.184111 H 8.852008 v 0.991756 h 2.740261 c 0.311312,0 0.561935,-0.259777 0.561935,-0.582514 V 5.0803428 c 0,-0.3227377 -0.250623,-0.5825145 -0.561935,-0.5825145 z M 9.284984,5.339223 V 5.9298318 H 9.854877 V 5.339223 Z M 8.854066,5.481216 V 6.9656267 H 9.146283 V 6.3768013 H 9.716039 V 6.0736084 H 9.146283 V 5.481216 Z M 8.439474,6.3051874 a 0.61787503,0.85720587 15.855548 0 0 -0.0056,0.6316291 0.61787503,0.85720587 15.855548 0 0 0.0056,0.016463 z M 7.126826,6.3512834 6.39642,6.3652774 6.620316,7.0862181 A 0.84039064,0.63023798 39.051973 0 0 7.574482,7.793028 0.84039064,0.63023798 39.051973 0 0 8.080993,7.0583682 h 1.4e-4 A 0.84039064,0.63023798 39.051973 0 0 7.126826,6.3512834 Z M 9.284984,6.5205775 V 7.109403 H 8.852008 v 0.590746 h 0.432976 v 0.00165 h 1.709405 v 0.5890997 h 0.569756 V 7.7002877 H 10.994389 V 7.1111879 H 9.854877 V 6.520579 Z m 1.709405,1.7703175 h -0.569756 v 0.5906089 h 0.569756 z M 8.439474,7.5663874 a 0.41625401,0.43153052 0 0 0 -0.270953,0.52119 0.41625401,0.43153052 0 0 0 0.270953,0.2978425 z M 8.854066,7.8440627 V 8.1469813 H 9.146283 V 7.8440627 Z m 0.569618,0 v 0.8935275 h 0.862111 V 8.1469813 h 0.569893 V 7.8440631 H 9.854877 Z M 7.580793,8.1914313 A 0.62952743,0.84133921 49.085168 0 0 6.648578,8.9295209 L 6.446906,9.6574586 7.17745,9.6473036 A 0.62952743,0.84133921 49.085168 0 0 8.109392,8.9093511 0.62952743,0.84133921 49.085168 0 0 7.580793,8.1915658 Z m 1.271215,0.097543 V 8.8797204 H 9.284984 V 8.2889743 Z M 9.284984,8.8797204 V 10.061213 H 8.852008 v 0.590608 H 9.854877 V 8.8797207 Z m -0.84551,0.015503 A 0.85792881,0.61735439 76.617976 0 0 8.386104,9.0068972 0.85792881,0.61735439 76.617976 0 0 8.439474,9.851996 Z M 8.854066,9.0236346 V 9.9172992 H 9.146283 V 9.0236345 Z M 4.804451,12.027851 c 0.07144,0.23655 0.283943,0.407321 0.536281,0.407321 h 6.251537 c 0.252338,0 0.464838,-0.170771 0.536281,-0.407321 -0.128349,0.158396 -0.320898,0.259018 -0.536281,0.259018 H 5.340732 c -0.215383,0 -0.407932,-0.100622 -0.536281,-0.259018 z"
     class="ColorScheme-Text" />
  <path
     id="gradient-path1"
     style="opacity:0.3;baseline-shift:baseline;display:inline;overflow:visible;vector-effect:none;enable-background:accumulate;stop-color:#000000;stop-opacity:1;fill:url(#linearGradient4)"
     d="M 8.4453131 1.2753492 C 4.4913166 1.2753492 1.2794833 4.4784283 1.2794833 8.4236094 C 1.2794833 12.36879 4.4913166 15.572386 8.4453131 15.572386 C 12.39931 15.572386 15.611143 12.36879 15.611143 8.4236094 C 15.611143 4.4784283 12.39931 1.2753492 8.4453131 1.2753492 z " />
</svg>
