<?xml version="1.0" encoding="UTF-8" standalone="no"?>
<svg
   width="64"
   height="64"
   version="1.1"
   viewBox="0 0 16.933 16.933"
   id="svg7"
   sodipodi:docname="io.github.nokse22.high-tide.svg"
   inkscape:version="1.4.2 (ebf0e940d0, 2025-05-08)"
   xmlns:inkscape="http://www.inkscape.org/namespaces/inkscape"
   xmlns:sodipodi="http://sodipodi.sourceforge.net/DTD/sodipodi-0.dtd"
   xmlns:xlink="http://www.w3.org/1999/xlink"
   xmlns="http://www.w3.org/2000/svg"
   xmlns:svg="http://www.w3.org/2000/svg"
   xmlns:rdf="http://www.w3.org/1999/02/22-rdf-syntax-ns#"
   xmlns:cc="http://creativecommons.org/ns#"
   xmlns:dc="http://purl.org/dc/elements/1.1/">
  <sodipodi:namedview
     id="namedview7"
     pagecolor="#9c4444"
     bordercolor="#000000"
     borderopacity="0.25"
     inkscape:showpageshadow="2"
     inkscape:pageopacity="0.0"
     inkscape:pagecheckerboard="0"
     inkscape:deskcolor="#d1d1d1"
     inkscape:zoom="4.3531261"
     inkscape:cx="36.066035"
     inkscape:cy="26.417797"
     inkscape:window-width="2560"
     inkscape:window-height="1392"
     inkscape:window-x="0"
     inkscape:window-y="0"
     inkscape:window-maximized="1"
     inkscape:current-layer="svg7"
     showgrid="false" />
  <defs
     id="defs2">
    <filter
       style="color-interpolation-filters:sRGB;"
       inkscape:label="Blur"
       id="filter3"
       x="-0.10843471"
       y="-0.10870992"
       width="1.2168694"
       height="1.2174198">
      <feGaussianBlur
         stdDeviation="0.5 0.5"
         result="blur"
         id="feGaussianBlur3" />
    </filter>
    <style
       id="current-color-scheme"
       type="text/css">.ColorScheme-Text {color:#d8dee9} .ColorScheme-Highlight {color:#3b4252}</style>
    <linearGradient
       id="linearGradient3"
       inkscape:collect="always">
      <stop
         style="stop-color:#000000;stop-opacity:1;"
         offset="0"
         id="stop3" />
      <stop
         style="stop-color:#000000;stop-opacity:0;"
         offset="1"
         id="stop4" />
    </linearGradient>
    <linearGradient
       inkscape:collect="always"
       xlink:href="#linearGradient3"
       id="linearGradient4"
       x1="13.512321"
       y1="13.490874"
       x2="3.3783066"
       y2="3.3568602"
       gradientUnits="userSpaceOnUse" />
  </defs>
  <metadata
     id="metadata2">
    <rdf:RDF>
      <cc:Work
         rdf:about="">
        <dc:format>image/svg+xml</dc:format>
        <dc:type
           rdf:resource="http://purl.org/dc/dcmitype/StillImage" />
      </cc:Work>
    </rdf:RDF>
  </metadata>
  <ellipse
     style="opacity:1;fill:none;stroke:#000000;stroke-width:0.582072;stroke-dasharray:none;stroke-opacity:1;filter:url(#filter3)"
     id="path1-5"
     cx="8.4450111"
     cy="8.423522"
     rx="6.8752708"
     ry="6.8578653" />
  <ellipse
     style="opacity:1;fill:none;stroke-width:0.58207188;stroke-opacity:1;stroke:currentColor;stroke-dasharray:none;fill-opacity:1"
     id="path1"
     cx="8.4450111"
     cy="8.423522"
     rx="6.8752708"
     ry="6.8578653"
     class="ColorScheme-Text" />
  <ellipse
     style="fill:currentColor;stroke:none;stroke-width:0.285844;stroke-dasharray:none;stroke-opacity:1"
     id="path1-2"
     cx="8.4557552"
     cy="8.423522"
     rx="6.5738997"
     ry="6.5692253"
     class="ColorScheme-Highlight" />
  <path
     id="path15"
     d="M 8.46637,5.0269844 C 6.274485,5.0272434 4.497828,6.8038428 4.497828,8.9956563 4.497569,11.18747 6.274485,12.964328 8.46637,12.964328 c 2.191885,0 3.968802,-1.776858 3.968802,-3.9686717 0,-2.1918135 -1.776917,-3.9686719 -3.968802,-3.9686719 z m -0.0025,0.182435 h 1.29e-4 c 0.776641,-0.02093 1.694301,0.263584 2.435962,0.883369 0.7417,0.619818 1.303341,1.5794477 1.352865,2.8908007 a 0.0996647,0.09966144 0 0 1 1.29e-4,0.00376 c 0,1.9381129 -1.556811,3.7864959 -3.78662,3.7864959 -1.737579,0 -3.204892,-1.147709 -3.470528,-2.7744104 C 4.956657,9.759784 4.942837,9.5412227 4.950397,9.3428759 a 0.09965473,0.09965148 0 0 1 -0.0021,0 0.09965473,0.09965148 0 0 1 -0.09966,-0.099652 c 0,-0.5221185 0.08715,-0.9922573 0.250175,-1.3869462 a 0.09965473,0.09965148 0 0 1 -0.0095,-0.00337 0.09965473,0.09965148 0 0 1 -0.0545,-0.130014 C 5.409243,6.8100403 5.892554,6.3399014 6.366526,6.1474144 c 0.236986,-0.09624 0.468828,-0.122258 0.679417,-0.102247 0.210588,0.02001 0.399908,0.08602 0.551605,0.173871 0.219731,0.127279 0.400593,0.3589056 0.501517,0.6285312 0.100925,0.2696251 0.120594,0.5820079 -0.0065,0.8637759 A 0.09965473,0.09965148 0 0 1 7.960731,7.7611715 0.09965473,0.09965148 0 0 1 7.910901,7.6293409 c 0.101078,-0.2240162 0.08766,-0.48171 0.0015,-0.711964 C 7.826211,6.6871228 7.665934,6.489068 7.497687,6.3916114 7.243636,6.2444854 6.854703,6.1642774 6.44158,6.3320514 6.149218,6.4507849 5.839305,6.695336 5.555198,7.1399039 5.770414,6.9156169 6.030431,6.7521949 6.329338,6.6622774 6.436253,6.6301224 6.545299,6.6138934 6.653216,6.6121924 6.976969,6.6070824 7.28982,6.7321969 7.499114,6.9461807 7.638643,7.0888363 7.731569,7.2745384 7.740855,7.4840132 7.750155,7.6934885 7.675525,7.9220714 7.50106,8.1493944 A 0.0996647,0.09966144 0 0 1 7.322512,8.0825704 C 7.337332,7.8417708 7.225022,7.6460796 7.034837,7.5260533 6.844647,7.4060264 6.57455,7.3658318 6.278862,7.4650693 6.058867,7.5389253 5.855733,7.7304412 5.695337,7.9438635 5.803131,7.8847205 5.916194,7.8429289 6.029725,7.8174826 6.352764,7.7450806 6.681336,7.8004356 6.919092,7.9646241 7.156849,8.1288126 7.296401,8.4164733 7.217278,8.7527533 A 0.0996647,0.09966144 0 0 1 7.02783,8.7671563 C 6.98191,8.6532627 6.859083,8.5606424 6.692019,8.5175093 6.524954,8.4743763 6.320152,8.4835373 6.136652,8.5595503 5.953151,8.6355623 5.790296,8.7750231 5.692098,8.9999372 c -0.0982,0.2249147 -0.131747,0.5400401 -0.03568,0.9675794 0.299069,1.3299344 1.407048,2.1453604 2.835877,2.1453614 1.838654,0 3.110837,-1.522635 3.110837,-3.1107351 0,-1.4706007 -1.165368,-3.1115135 -3.104868,-3.1115135 -0.214659,0 -0.301612,4.35e-4 -0.622971,0.06332 A 0.09965473,0.09965148 0 0 1 7.75838,5.8751894 0.09965473,0.09965148 0 0 1 7.83714,5.7582804 c 0.328472,-0.06428 0.4455,-0.06695 0.66112,-0.06695 2.05188,0 3.304178,1.7347807 3.304178,3.3108165 0,1.6946891 -1.3614,3.3100371 -3.310147,3.3100381 -1.505794,0 -2.711674,-0.884357 -3.030256,-2.301066 C 5.359178,9.5533419 5.390655,9.1924065 5.509525,8.9201422 5.628396,8.6478776 5.834657,8.4689768 6.06048,8.3754327 6.286304,8.2818887 6.531067,8.2701504 6.741844,8.3245687 6.846981,8.3517127 6.945267,8.3961037 7.026924,8.4573076 7.000324,8.3203603 6.924048,8.2102869 6.805816,8.1286392 6.622797,8.0022506 6.346141,7.950843 6.073327,8.0119899 5.813295,8.0702719 5.558042,8.2263897 5.380545,8.5103769 c -8.49e-4,0.00133 -0.0016,0.00269 -0.0025,0.00402 -0.0079,0.012685 -0.01555,0.025604 -0.02309,0.038797 -0.178021,0.3112109 -0.267676,0.7699942 -0.162458,1.4140651 0.249247,1.526332 1.62365,2.607287 3.273814,2.607287 2.119152,0 3.586411,-1.754769 3.587181,-3.5857662 C 12.005392,7.7314796 11.474081,6.8323534 10.772147,6.2457664 10.069761,5.6588024 9.192661,5.3891984 8.469318,5.4087204 a 0.0996647,0.09966144 0 0 0 -1.3e-4,0 c -0.402228,0.01065 -0.910385,0.08735 -1.160562,0.191647 a 0.09965473,0.09965148 0 0 1 -0.130408,-0.05359 0.09965473,0.09965148 0 0 1 0.05359,-0.130403 c 0.302565,-0.126137 0.810603,-0.195794 1.232059,-0.206959 z m 0.06034,0.979387 h 1.29e-4 c 0.907831,0.01168 1.610017,0.3976702 2.081071,0.9378657 0.471075,0.5402213 0.715264,1.2317606 0.724443,1.867557 0.02161,1.4837949 -1.254902,2.8085369 -2.807201,2.8085369 -1.065004,0 -2.156271,-0.462848 -2.527701,-1.465318 C 5.843989,9.929644 5.830929,9.601745 5.908431,9.3530003 5.985931,9.1042555 6.156569,8.939204 6.349091,8.8687564 c 0.192523,-0.070447 0.406671,-0.049737 0.574053,0.060985 0.167383,0.1107222 0.281444,0.314719 0.275478,0.5777968 a 0.0996647,0.09966144 0 0 1 -0.15078,0.083302 C 6.857178,9.4767871 6.736172,9.4650568 6.679327,9.4845713 c -0.05684,0.019514 -0.09039,0.070468 -0.102639,0.178672 -0.0245,0.216407 0.09338,0.5954767 0.295072,0.8471677 0.304562,0.380045 1.029897,0.637447 1.663507,0.633461 0.70113,-0.0044 1.227513,-0.281882 1.587729,-0.687958 0.360215,-0.406077 0.551153,-0.9440974 0.561466,-1.4622041 0.0222,-1.127866 -0.959914,-2.1758382 -2.160225,-2.1595046 A 0.09965473,0.09965148 0 0 1 8.423285,6.7358513 0.09965473,0.09965148 0 0 1 8.521645,6.6349022 c 1.31701,-0.017921 2.38664,1.1176155 2.362129,2.3627002 -0.01123,0.5640461 -0.216897,1.1454826 -0.611683,1.5905306 -0.394786,0.445049 -0.981798,0.750338 -1.735523,0.755042 -0.685777,0.0043 -1.450592,-0.246917 -1.820256,-0.7082 C 6.480459,10.340659 6.344461,9.9430816 6.378679,9.6407956 6.395789,9.4896522 6.469709,9.3457719 6.614581,9.2960379 6.714451,9.2617549 6.835332,9.2875379 6.967265,9.3396349 6.937275,9.2326758 6.888355,9.1457273 6.813112,9.0959561 6.702016,9.0224671 6.55305,9.0062531 6.417477,9.0558621 6.281905,9.1054711 6.159501,9.2174367 6.09879,9.4122979 6.03808,9.6071597 6.04165,9.8895197 6.18184,10.268159 c 0.333939,0.901287 1.333346,1.335303 2.340848,1.335303 1.438382,0 2.627805,-1.239207 2.607892,-2.6063788 C 11.12208,8.4105919 10.893202,7.7597559 10.455316,7.2575941 10.01743,6.7554324 9.374841,6.3990474 8.52165,6.3881094 a 0.0996647,0.09966144 0 0 0 -1.29e-4,0 c -0.07442,-0.0011 -0.15891,-0.0055 -0.324787,0.020372 a 0.09965473,0.09965148 0 0 1 -0.113798,-0.083173 0.09965473,0.09965148 0 0 1 0.08318,-0.113795 c 0.180254,-0.02811 0.289293,-0.02371 0.358134,-0.02271 z M 6.656202,6.8126662 c -0.09022,8.547e-4 -0.181201,0.013794 -0.269509,0.040353 -0.686416,0.2064871 -1.158089,0.8524178 -1.29655,1.7911315 0.02727,-0.067394 0.058,-0.1306199 0.09187,-0.1898309 0.0074,-0.01299 0.01499,-0.02582 0.02271,-0.038407 C 5.345435,8.0374722 5.695592,7.4507064 6.215544,7.276149 6.561643,7.1599932 6.895962,7.202711 7.141243,7.357505 7.301412,7.4585856 7.41632,7.6123006 7.475891,7.7914042 7.520371,7.6853039 7.545721,7.584032 7.541681,7.4928389 7.534781,7.3362274 7.467221,7.1984358 7.356669,7.0854099 7.190847,6.9158708 6.926882,6.8101055 6.656231,6.8126658 Z m 1.81016,1.049195 c 0.626216,0 1.133832,0.5075998 1.133832,1.1337951 0,0.6261954 -0.507616,1.1337947 -1.133832,1.1337947 -0.626216,0 -1.133832,-0.5075993 -1.133832,-1.1337947 0,-0.6261953 0.507616,-1.1337951 1.133832,-1.1337951 z m 0,0.1372803 c -0.550393,0 -0.996547,0.4461394 -0.996547,0.9965148 0,0.5503755 0.446154,0.9965151 0.996547,0.9965151 0.550393,0 0.996548,-0.4461396 0.996548,-0.9965151 0,-0.5503754 -0.446155,-0.9965148 -0.996548,-0.9965148 z m -0.0023,0.7349298 c 0.144385,0 0.261465,0.1172056 0.261465,0.261585 0,0.1443794 -0.11708,0.2615853 -0.261465,0.2615853 -0.144612,0 -0.261593,-0.1172059 -0.261593,-0.2615853 0,-0.1443794 0.116981,-0.261585 0.261593,-0.261585 z"
     style="opacity:0.3;fill:#000000;fill-opacity:1;stroke-width:0.0664353" />
  <path
     id="path15-7"
     class="ColorScheme-Text"
     d="M 8.46637,4.4978281 C 6.274485,4.4980871 4.497828,6.2746865 4.497828,8.4665 c -2.59e-4,2.191814 1.776657,3.968672 3.968542,3.968672 2.191885,0 3.968802,-1.776858 3.968802,-3.968672 0,-2.1918135 -1.776917,-3.9686719 -3.968802,-3.9686719 z m -0.0025,0.182435 h 1.29e-4 c 0.776641,-0.02093 1.694301,0.263584 2.435962,0.883369 0.7417,0.619818 1.303341,1.5794477 1.352865,2.8908007 a 0.0996647,0.09966144 0 0 1 1.29e-4,0.00376 c 0,1.9381132 -1.556811,3.7864962 -3.78662,3.7864962 -1.737579,0 -3.204892,-1.147709 -3.470528,-2.7744107 C 4.956657,9.2306277 4.942837,9.0120664 4.950397,8.8137196 a 0.09965473,0.09965148 0 0 1 -0.0021,0 0.09965473,0.09965148 0 0 1 -0.09966,-0.099652 c 0,-0.5221185 0.08715,-0.9922573 0.250175,-1.3869462 a 0.09965473,0.09965148 0 0 1 -0.0095,-0.00337 0.09965473,0.09965148 0 0 1 -0.0545,-0.130014 C 5.409243,6.280884 5.892554,5.8107451 6.366526,5.6182581 c 0.236986,-0.09624 0.468828,-0.122258 0.679417,-0.102247 0.210588,0.02001 0.399908,0.08602 0.551605,0.173871 0.219731,0.127279 0.400593,0.3589056 0.501517,0.6285312 0.100925,0.2696251 0.120594,0.5820079 -0.0065,0.8637759 A 0.09965473,0.09965148 0 0 1 7.960731,7.2320152 0.09965473,0.09965148 0 0 1 7.910901,7.1001846 c 0.101078,-0.2240162 0.08766,-0.48171 0.0015,-0.711964 C 7.826211,6.1579665 7.665934,5.9599117 7.497687,5.8624551 7.243636,5.7153291 6.854703,5.6351211 6.44158,5.8028951 6.149218,5.9216286 5.839305,6.1661797 5.555198,6.6107476 5.770414,6.3864606 6.030431,6.2230386 6.329338,6.1331211 6.436253,6.1009661 6.545299,6.0847371 6.653216,6.0830361 6.976969,6.0779261 7.28982,6.2030406 7.499114,6.4170244 7.638643,6.55968 7.731569,6.7453821 7.740855,6.9548569 7.750155,7.1643322 7.675525,7.3929151 7.50106,7.6202381 A 0.0996647,0.09966144 0 0 1 7.322512,7.5534141 C 7.337332,7.3126145 7.225022,7.1169233 7.034837,6.996897 6.844647,6.8768701 6.57455,6.8366755 6.278862,6.935913 6.058867,7.009769 5.855733,7.2012849 5.695337,7.4147072 5.803131,7.3555642 5.916194,7.3137726 6.029725,7.2883263 6.352764,7.2159243 6.681336,7.2712793 6.919092,7.4354678 7.156849,7.5996563 7.296401,7.887317 7.217278,8.223597 A 0.0996647,0.09966144 0 0 1 7.02783,8.238 C 6.98191,8.1241064 6.859083,8.0314861 6.692019,7.988353 6.524954,7.94522 6.320152,7.954381 6.136652,8.030394 5.953151,8.106406 5.790296,8.2458668 5.692098,8.4707809 5.593898,8.6956956 5.560351,9.010821 5.656418,9.4383603 c 0.299069,1.3299347 1.407048,2.1453607 2.835877,2.1453617 1.838654,0 3.110837,-1.522635 3.110837,-3.1107354 0,-1.4706007 -1.165368,-3.1115135 -3.104868,-3.1115135 -0.214659,0 -0.301612,4.35e-4 -0.622971,0.06332 A 0.09965473,0.09965148 0 0 1 7.75838,5.3460331 0.09965473,0.09965148 0 0 1 7.83714,5.2291241 c 0.328472,-0.06428 0.4455,-0.06695 0.66112,-0.06695 2.05188,0 3.304178,1.7347807 3.304178,3.3108165 0,1.6946894 -1.3614,3.3100374 -3.310147,3.3100384 -1.505794,0 -2.711674,-0.884357 -3.030256,-2.3010667 C 5.359178,9.0241856 5.390655,8.6632502 5.509525,8.3909859 5.628396,8.1187213 5.834657,7.9398205 6.06048,7.8462764 6.286304,7.7527324 6.531067,7.7409941 6.741844,7.7954124 6.846981,7.8225564 6.945267,7.8669474 7.026924,7.9281513 7.000324,7.791204 6.924048,7.6811306 6.805816,7.5994829 6.622797,7.4730943 6.346141,7.4216867 6.073327,7.4828336 5.813295,7.5411156 5.558042,7.6972334 5.380545,7.9812206 c -8.49e-4,0.00133 -0.0016,0.00269 -0.0025,0.00402 -0.0079,0.012685 -0.01555,0.025604 -0.02309,0.038797 -0.178021,0.3112109 -0.267676,0.7699942 -0.162458,1.4140651 0.249247,1.5263323 1.62365,2.6072873 3.273814,2.6072873 2.119152,0 3.586411,-1.754769 3.587181,-3.5857665 C 12.005392,7.2023233 11.474081,6.3031971 10.772147,5.7166101 10.069761,5.1296461 9.192661,4.8600421 8.469318,4.8795641 a 0.0996647,0.09966144 0 0 0 -1.3e-4,0 c -0.402228,0.01065 -0.910385,0.08735 -1.160562,0.191647 a 0.09965473,0.09965148 0 0 1 -0.130408,-0.05359 0.09965473,0.09965148 0 0 1 0.05359,-0.130403 c 0.302565,-0.126137 0.810603,-0.195794 1.232059,-0.206959 z m 0.06034,0.979387 h 1.29e-4 c 0.907831,0.01168 1.610017,0.3976702 2.081071,0.9378657 0.471075,0.5402213 0.715264,1.2317606 0.724443,1.867557 0.02161,1.4837946 -1.254902,2.8085372 -2.807201,2.8085372 -1.065004,0 -2.156271,-0.462848 -2.527701,-1.4653181 C 5.843989,9.4004877 5.830929,9.0725887 5.908431,8.823844 c 0.0775,-0.2487448 0.248138,-0.4137963 0.44066,-0.4842439 0.192523,-0.070447 0.406671,-0.049737 0.574053,0.060985 0.167383,0.1107222 0.281444,0.314719 0.275478,0.5777968 a 0.0996647,0.09966144 0 0 1 -0.15078,0.083302 C 6.857178,8.9476308 6.736172,8.9359005 6.679327,8.955415 6.622487,8.974929 6.588937,9.025883 6.576688,9.134087 6.552188,9.350494 6.670068,9.7295639 6.87176,9.9812543 7.176322,10.3613 7.901657,10.618702 8.535267,10.614716 9.236397,10.610356 9.76278,10.332834 10.122996,9.9267573 10.483211,9.5206812 10.674149,8.9826603 10.684462,8.4645536 10.706662,7.3366876 9.724548,6.2887154 8.524237,6.305049 A 0.09965473,0.09965148 0 0 1 8.423285,6.206695 0.09965473,0.09965148 0 0 1 8.521645,6.1057459 c 1.31701,-0.017921 2.38664,1.1176155 2.362129,2.3627002 -0.01123,0.5640461 -0.216897,1.145483 -0.611683,1.5905309 -0.394786,0.445049 -0.981798,0.750338 -1.735523,0.755042 -0.685777,0.0043 -1.450592,-0.246917 -1.820256,-0.7082 C 6.480459,9.8115023 6.344461,9.4139253 6.378679,9.1116393 6.395789,8.9604959 6.469709,8.8166156 6.614581,8.7668816 6.714451,8.7325986 6.835332,8.7583816 6.967265,8.8104786 6.937275,8.7035195 6.888355,8.616571 6.813112,8.5667998 6.702016,8.4933108 6.55305,8.4770968 6.417477,8.5267058 6.281905,8.5763148 6.159501,8.6882803 6.09879,8.8831415 6.03808,9.0780033 6.04165,9.3603633 6.18184,9.7390024 6.515779,10.64029 7.515186,11.074306 8.522688,11.074306 c 1.438382,0 2.627805,-1.2392074 2.607892,-2.6063791 C 11.12208,7.8814356 10.893202,7.2305996 10.455316,6.7284378 10.01743,6.2262761 9.374841,5.8698911 8.52165,5.8589531 a 0.0996647,0.09966144 0 0 0 -1.29e-4,0 c -0.07442,-0.0011 -0.15891,-0.0055 -0.324787,0.020372 a 0.09965473,0.09965148 0 0 1 -0.113798,-0.083173 0.09965473,0.09965148 0 0 1 0.08318,-0.113795 c 0.180254,-0.02811 0.289293,-0.02371 0.358134,-0.02271 z M 6.656202,6.2835099 C 6.565982,6.2843646 6.475001,6.2973039 6.386693,6.3238629 5.700277,6.53035 5.228604,7.1762807 5.090143,8.1149944 c 0.02727,-0.067394 0.058,-0.1306199 0.09187,-0.1898309 0.0074,-0.01299 0.01499,-0.02582 0.02271,-0.038407 C 5.345435,7.5083159 5.695592,6.9215501 6.215544,6.7469927 6.561643,6.6308369 6.895962,6.6735547 7.141243,6.8283487 7.301412,6.9294293 7.41632,7.0831443 7.475891,7.2622479 7.520371,7.1561476 7.545721,7.0548757 7.541681,6.9636826 7.534781,6.8070711 7.467221,6.6692795 7.356669,6.5562536 7.190847,6.3867145 6.926882,6.2809492 6.656231,6.2835095 Z m 1.81016,1.049195 c 0.626216,0 1.133832,0.5075998 1.133832,1.1337951 0,0.6261954 -0.507616,1.1337951 -1.133832,1.1337951 -0.626216,0 -1.133832,-0.5075997 -1.133832,-1.1337951 0,-0.6261953 0.507616,-1.1337951 1.133832,-1.1337951 z m 0,0.1372803 c -0.550393,0 -0.996547,0.4461394 -0.996547,0.9965148 0,0.5503755 0.446154,0.9965151 0.996547,0.9965151 0.550393,0 0.996548,-0.4461396 0.996548,-0.9965151 0,-0.5503754 -0.446155,-0.9965148 -0.996548,-0.9965148 z m -0.0023,0.7349298 c 0.144385,0 0.261465,0.1172056 0.261465,0.261585 0,0.1443794 -0.11708,0.2615852 -0.261465,0.2615852 -0.144612,0 -0.261593,-0.1172058 -0.261593,-0.2615852 0,-0.1443794 0.116981,-0.261585 0.261593,-0.261585 z"
     style="fill:currentColor;fill-opacity:1;stroke-width:0.0664353" />
  <path
     id="gradient-path1"
     style="opacity:0.3;baseline-shift:baseline;display:inline;overflow:visible;vector-effect:none;enable-background:accumulate;stop-color:#000000;stop-opacity:1;fill:url(#linearGradient4)"
     d="M 8.4453131 1.2753492 C 4.4913166 1.2753492 1.2794833 4.4784283 1.2794833 8.4236094 C 1.2794833 12.36879 4.4913166 15.572386 8.4453131 15.572386 C 12.39931 15.572386 15.611143 12.36879 15.611143 8.4236094 C 15.611143 4.4784283 12.39931 1.2753492 8.4453131 1.2753492 z " />
</svg>
