<?xml version="1.0" encoding="UTF-8" standalone="no"?>
<svg
   width="64"
   height="64"
   version="1.1"
   viewBox="0 0 16.933 16.933"
   id="svg7"
   sodipodi:docname="io.github.thetumultuousunicornofdarkness.cpu-x.svg"
   inkscape:version="1.4.2 (ebf0e940d0, 2025-05-08)"
   xmlns:inkscape="http://www.inkscape.org/namespaces/inkscape"
   xmlns:sodipodi="http://sodipodi.sourceforge.net/DTD/sodipodi-0.dtd"
   xmlns:xlink="http://www.w3.org/1999/xlink"
   xmlns="http://www.w3.org/2000/svg"
   xmlns:svg="http://www.w3.org/2000/svg"
   xmlns:rdf="http://www.w3.org/1999/02/22-rdf-syntax-ns#"
   xmlns:cc="http://creativecommons.org/ns#"
   xmlns:dc="http://purl.org/dc/elements/1.1/">
  <sodipodi:namedview
     id="namedview7"
     pagecolor="#9c4444"
     bordercolor="#000000"
     borderopacity="0.25"
     inkscape:showpageshadow="2"
     inkscape:pageopacity="0.0"
     inkscape:pagecheckerboard="0"
     inkscape:deskcolor="#d1d1d1"
     inkscape:zoom="4.3531261"
     inkscape:cx="36.066035"
     inkscape:cy="26.417797"
     inkscape:window-width="2560"
     inkscape:window-height="1392"
     inkscape:window-x="0"
     inkscape:window-y="0"
     inkscape:window-maximized="1"
     inkscape:current-layer="svg7"
     showgrid="false" />
  <defs
     id="defs2">
    <filter
       style="color-interpolation-filters:sRGB;"
       inkscape:label="Blur"
       id="filter3"
       x="-0.10843471"
       y="-0.10870992"
       width="1.2168694"
       height="1.2174198">
      <feGaussianBlur
         stdDeviation="0.5 0.5"
         result="blur"
         id="feGaussianBlur3" />
    </filter>
    <style
       id="current-color-scheme"
       type="text/css">.ColorScheme-Text {color:#d8dee9} .ColorScheme-Highlight {color:#3b4252}</style>
    <linearGradient
       id="linearGradient3"
       inkscape:collect="always">
      <stop
         style="stop-color:#000000;stop-opacity:1;"
         offset="0"
         id="stop3" />
      <stop
         style="stop-color:#000000;stop-opacity:0;"
         offset="1"
         id="stop4" />
    </linearGradient>
    <linearGradient
       inkscape:collect="always"
       xlink:href="#linearGradient3"
       id="linearGradient4"
       x1="13.512321"
       y1="13.490874"
       x2="3.3783066"
       y2="3.3568602"
       gradientUnits="userSpaceOnUse" />
  </defs>
  <metadata
     id="metadata2">
    <rdf:RDF>
      <cc:Work
         rdf:about="">
        <dc:format>image/svg+xml</dc:format>
        <dc:type
           rdf:resource="http://purl.org/dc/dcmitype/StillImage" />
      </cc:Work>
    </rdf:RDF>
  </metadata>
  <ellipse
     style="opacity:1;fill:none;stroke:#000000;stroke-width:0.582072;stroke-dasharray:none;stroke-opacity:1;filter:url(#filter3)"
     id="path1-5"
     cx="8.4450111"
     cy="8.423522"
     rx="6.8752708"
     ry="6.8578653" />
  <ellipse
     style="opacity:1;fill:none;stroke-width:0.58207188;stroke-opacity:1;stroke:currentColor;stroke-dasharray:none;fill-opacity:1"
     id="path1"
     cx="8.4450111"
     cy="8.423522"
     rx="6.8752708"
     ry="6.8578653"
     class="ColorScheme-Text" />
  <ellipse
     style="fill:currentColor;stroke:none;stroke-width:0.285844;stroke-dasharray:none;stroke-opacity:1"
     id="path1-2"
     cx="8.4557552"
     cy="8.423522"
     rx="6.5738997"
     ry="6.5692253"
     class="ColorScheme-Highlight" />
  <path
     id="path1-6"
     d="m 7.151199,5.0269844 c -0.223291,0 -0.403611,0.1811536 -0.403611,0.4044441 V 6.0844571 H 7.555643 V 5.4314285 c 0,-0.2232905 -0.181154,-0.4044441 -0.404444,-0.4044441 z m 1.315301,0 c -0.22329,0 -0.404444,0.1811536 -0.404444,0.4044441 V 6.0844571 H 8.870944 V 5.4314285 C 8.870944,5.208138 8.68979,5.0269844 8.4665,5.0269844 Z m 1.314468,0 c -0.223291,0 -0.403611,0.1811536 -0.403611,0.4044441 v 0.6530286 h 0.808055 V 5.4314285 c 0,-0.2232905 -0.181154,-0.4044441 -0.404444,-0.4044441 z M 6.365042,6.4728948 c -0.232559,0 -0.421303,0.1887441 -0.421303,0.4213032 v 4.202916 c 0,0.23256 0.188744,0.421304 0.421303,0.421304 h 4.202916 c 0.232559,0 0.421303,-0.188744 0.421303,-0.421304 V 6.894198 c 0,-0.2325591 -0.188744,-0.4213032 -0.421303,-0.4213032 z M 8.53973,7.0065921 h 3.9e-5 c 0.287949,0.00821 0.603097,0.1910897 0.623341,0.5997576 0.01022,0.2086076 -0.02685,0.4240772 0.02699,0.6259186 0.125395,0.4707713 0.663705,0.810497 0.671477,1.2973951 0.0017,0.1111467 -0.0092,0.2270938 -0.03234,0.3424727 -0.01657,-0.00586 -0.03407,-0.00961 -0.0523,-0.012092 -0.04047,-0.00546 -0.08422,-0.00445 -0.127102,-0.00562 -0.0052,0.011106 -0.01185,0.021678 -0.01969,0.03178 -0.05489,0.070725 -0.168437,0.1142079 -0.249689,0.091659 -0.04907,-0.013659 -0.09815,-0.053542 -0.132431,-0.1026272 v -2.547e-4 c -0.02057,-0.0295 -0.03595,-0.06215 -0.04275,-0.094488 -6.23e-4,5.596e-4 -0.0014,0.00112 -0.0019,0.0017 -0.0081,-0.048983 3.31e-4,-0.1006954 0.03345,-0.1470618 0.03412,-0.047656 0.107208,-0.051704 0.170122,-0.041625 C 9.369067,9.4469526 9.293796,9.3154672 9.255935,9.2051891 9.190285,9.0128492 9.113889,8.9592228 9.044208,8.7884785 8.977448,8.6252314 9.042008,8.3291546 8.876063,8.1960263 c 0.01052,-0.019414 0.01536,-0.04034 0.01236,-0.063561 -0.0051,-0.039805 -0.03478,-0.064422 -0.07368,-0.082939 A 0.21335868,0.27584024 0 0 0 8.890393,7.8386324 0.21335868,0.27584024 0 0 0 8.67696,7.562802 0.21335868,0.27584024 0 0 0 8.463547,7.8386324 a 0.21335868,0.27584024 0 0 0 0.0059,0.064704 c -0.02762,-0.00832 -0.05577,-0.012796 -0.08462,-0.011258 -0.02319,0.00122 -0.0456,0.00637 -0.0675,0.01434 a 0.15073318,0.22458808 0 0 0 0.005,-0.057922 0.15073318,0.22458808 0 0 0 -0.150705,-0.2246718 0.15073318,0.22458808 0 0 0 -0.150724,0.2246718 0.15073318,0.22458808 0 0 0 0.07873,0.1971159 c -0.05351,0.038445 -0.104587,0.08214 -0.102627,0.1411514 0.0016,0.051036 0.04532,0.086377 0.09307,0.117258 -0.128909,0.1292482 -0.04767,0.2574305 -0.111076,0.439228 -0.06608,0.18946 -0.232492,0.4373118 -0.282303,0.6737052 -0.02016,0.095451 -0.04571,0.1909367 -0.06327,0.286818 L 8.107453,10.2833 c 0.07838,0.0957 -0.08126,0.08086 -0.268525,-0.01349 -0.01167,-0.01153 -0.0227,-0.02362 -0.03263,-0.03657 C 7.708688,10.10569 7.689846,9.9176098 7.565891,9.8156815 c -0.03528,-0.029013 -0.0801,-0.055524 -0.125978,-0.066351 -0.0057,-0.00135 -0.01141,-0.00224 -0.01715,-0.00308 -0.0013,-1.908e-4 -0.0026,-7.019e-4 -0.0039,-8.773e-4 a 0.15174094,0.15174094 0 0 0 -0.0036,-5.831e-4 c -0.0049,-5.215e-4 -0.01,-8.151e-4 -0.0149,-8.773e-4 -0.0115,-1.4e-4 -0.02284,0.00107 -0.03403,0.00366 -0.04377,0.010151 -0.07389,0.043718 -0.101795,0.081815 -0.0022,0.00302 -0.0043,0.00597 -0.0065,0.00901 -0.007,-0.10616 -0.0068,-0.210515 -5.08e-4,-0.3087542 0.03168,-0.4900625 0.560256,-0.8304162 0.680468,-1.306658 0.05183,-0.2052971 0.0018,-0.4235697 0.009,-0.6352006 0.01584,-0.462134 0.272355,-0.566683 0.535383,-0.5803601 0.01884,-0.00102 0.03813,-0.00136 0.05732,-8.547e-4 z M 4.902272,7.2767446 c -0.22329,0 -0.404444,0.1811537 -0.404444,0.4044442 0,0.2232904 0.181154,0.4044439 0.404444,0.4044439 H 5.555301 V 7.2767446 Z m 6.475428,0 v 0.808055 h 0.653028 c 0.223291,0 0.404444,-0.1811537 0.404444,-0.4044442 0,-0.2232904 -0.181153,-0.4036108 -0.404444,-0.4036108 z M 8.650555,7.7393622 a 0.0873878,0.14439863 0 0 1 0.08745,0.1442521 0.0873878,0.14439863 0 0 1 -0.0419,0.1234395 c -0.0155,-0.00539 -0.03005,-0.011325 -0.04331,-0.017712 -0.02661,-0.012748 -0.05359,-0.027247 -0.08069,-0.041334 a 0.0873878,0.14439863 0 0 1 -0.009,-0.064394 0.0873878,0.14439863 0 0 1 0.08746,-0.144252 z m -0.478024,0.036838 a 0.06651263,0.10754314 0 0 1 0.06637,0.1074138 0.06651263,0.10754314 0 0 1 -0.01884,0.075362 c -0.01525,0.010438 -0.03025,0.021451 -0.0447,0.032323 a 0.06651263,0.10754314 0 0 1 -0.0028,0 0.06651263,0.10754314 0 0 1 -0.06664,-0.1076851 0.06651263,0.10754314 0 0 1 0.06664,-0.1074138 z m 0.229284,0.1733774 c 0.03065,0.00102 0.063,0.010984 0.09831,0.02682 0.04035,0.018099 0.0832,0.043541 0.129079,0.065518 0.03893,0.018753 0.116181,0.040545 0.147604,0.053426 0.02045,0.00838 0.03629,0.017785 0.045,0.025598 0.0087,0.00781 0.01093,0.011616 0.01209,0.020522 0.0016,0.01237 -4.95e-4,0.021175 -0.0085,0.034028 -0.008,0.012853 -0.02299,0.028083 -0.04273,0.043582 -0.03948,0.030998 -0.09578,0.060925 -0.143399,0.094469 -0.03851,0.027156 -0.07723,0.054699 -0.114739,0.074509 -0.03751,0.01981 -0.07291,0.031285 -0.106561,0.030947 -0.03383,-3.561e-4 -0.06896,-0.012851 -0.106562,-0.034028 -0.0376,-0.021177 -0.07654,-0.050295 -0.116133,-0.078172 -0.03636,-0.025617 -0.07587,-0.046784 -0.10348,-0.068056 -0.02761,-0.021271 -0.03773,-0.036444 -0.03824,-0.051721 -6.23e-4,-0.018181 0.01021,-0.036552 0.03824,-0.061584 0.02803,-0.025032 0.06857,-0.050405 0.105165,-0.078172 0.03257,-0.024713 0.06564,-0.049034 0.09813,-0.066933 0.03249,-0.017899 0.06386,-0.029075 0.09363,-0.030637 0.0043,-2.29e-4 0.0087,-2.671e-4 0.01304,-1.163e-4 z M 4.902272,8.5912119 c -0.22329,0 -0.404444,0.1811536 -0.404444,0.4044441 0,0.2232904 0.181154,0.404444 0.404444,0.404444 H 5.555301 V 8.5912119 Z m 6.475428,0 V 9.4001 h 0.653028 c 0.223291,0 0.404444,-0.1811536 0.404444,-0.404444 0,-0.2232905 -0.181153,-0.4044441 -0.404444,-0.4044441 z M 7.399842,9.8035364 v 9.69e-5 c 0.0029,0 0.0058,-1.7e-6 0.0087,2.544e-4 l 0.0011,2.544e-4 h 2.54e-4 v 2.544e-4 h 8.49e-4 c 7.92e-4,1.908e-4 0.0022,6e-4 0.0042,8.547e-4 0.0052,7.132e-4 0.0089,0.00128 0.01209,0.00196 0.03395,0.00801 0.07322,0.030229 0.103479,0.055112 0.05003,0.041142 0.08251,0.104067 0.114158,0.1779888 0.03066,0.07161 0.06315,0.159879 0.117258,0.230583 0.02972,0.03873 0.06847,0.07102 0.101503,0.09784 0.0341,0.02768 0.06574,0.053 0.0897,0.0793 0.0067,0.0073 0.01265,0.01428 0.01744,0.02081 0.005,0.0068 0.0095,0.01386 0.01378,0.02164 0.0055,0.01003 0.01129,0.02081 0.01715,0.03178 0.02409,0.04511 0.047,0.09328 0.05819,0.136384 0.0112,0.04311 0.01078,0.07783 -0.0036,0.10629 -0.02025,0.03994 -0.05673,0.07103 -0.105999,0.09503 -0.0739,0.03601 -0.174079,0.05269 -0.259263,0.05596 -0.03082,0.0012 -0.06445,-0.01065 -0.104312,-0.02953 -0.03735,-0.01771 -0.08755,-0.04524 -0.137206,-0.05905 -0.06999,-0.0195 -0.14603,-0.02364 -0.208917,-0.03066 -0.06492,-0.0072 -0.12183,-0.01829 -0.167603,-0.04554 -0.04077,-0.02421 -0.08384,-0.05422 -0.116677,-0.08689 -0.03063,-0.03048 -0.05111,-0.06215 -0.05792,-0.09334 l 0.04498,-0.06271 c 0.0079,-0.01108 0.01521,-0.02435 0.01913,-0.03994 0.01602,-0.0634 -0.0024,-0.126618 -0.01659,-0.175451 -0.0073,-0.02521 -0.01424,-0.04846 -0.01827,-0.06889 -0.0041,-0.02043 -0.0048,-0.03747 -0.0025,-0.05174 4.83e-4,-0.0033 9.06e-4,-0.0062 0.0017,-0.009 9.06e-4,-0.0033 0.0024,-0.0067 0.0042,-0.0104 0.02002,-0.04015 0.07176,-0.06508 0.141442,-0.09393 0.01036,-0.0043 0.02253,-0.0101 0.0298,-0.01322 0.007,-0.003 0.01748,-0.007 0.02755,-0.01153 h 5.09e-4 l 0.0085,-0.0045 0.0028,-0.0011 2.54e-4,-2.54e-4 0.03093,-0.01519 v -0.0014 c 0.01301,-0.0077 0.02571,-0.016353 0.03796,-0.02614 0.0062,-0.00492 0.01184,-0.010064 0.0163,-0.014338 0.005,-0.00481 0.01017,-0.00997 0.0149,-0.015192 0.02614,-0.028675 0.04948,-0.065044 0.06777,-0.089973 0.02584,-0.035271 0.04662,-0.054873 0.06945,-0.06017 0.0068,-0.00158 0.01363,-0.00235 0.02081,-0.00227 z m 1.789526,0.087706 c 8.49e-4,0.00142 0.0017,0.00283 0.0025,0.00425 v 8.49e-4 l 0.01011,0.014338 v 2.547e-4 c 0.03922,0.056157 0.09855,0.1062499 0.163358,0.1242919 0.105877,0.02938 0.241662,-0.02462 0.308736,-0.1110568 0.0024,-0.00311 0.0048,-0.00634 0.007,-0.00957 0.03233,5.213e-4 0.06231,0.00102 0.088,0.00453 0.01726,0.00232 0.03216,0.0057 0.04499,0.010675 0.01283,0.00498 0.02366,0.011462 0.03318,0.019958 0.01103,0.00988 0.01836,0.022245 0.02419,0.041627 0.0058,0.01929 0.009,0.044734 0.0118,0.073095 0.0033,0.03319 0.0069,0.07814 0.01773,0.116696 0.0069,0.02466 0.0172,0.04957 0.03403,0.07282 0.0036,0.005 0.0073,0.0093 0.01039,0.01239 0.0012,0.0013 0.0054,0.0059 0.0107,0.01011 l 0.01546,0.01209 h 0.0025 l 0.007,0.0045 h 0.0019 l 0.0076,0.0043 h 0.0014 c 0.01362,0.0063 0.02857,0.01202 0.03374,0.01461 0.0022,0.0011 0.0035,0.0022 0.0045,0.0028 4.83e-4,0.0019 0.0012,0.0041 0.0017,0.0067 0.0069,0.03199 -1.65e-4,0.07135 -0.01857,0.113596 -0.0184,0.04224 -0.04723,0.08578 -0.07592,0.123168 -0.03238,0.04212 -0.08123,0.07331 -0.138904,0.104042 -0.05587,0.02977 -0.125084,0.06171 -0.182776,0.105728 -0.04109,0.03124 -0.07732,0.07542 -0.105437,0.105708 -0.02999,0.03231 -0.05686,0.05576 -0.08604,0.06608 -0.08025,0.02846 -0.179477,0.0502 -0.26151,0.04416 -0.05469,-0.004 -0.100283,-0.01939 -0.133846,-0.04893 -0.02679,-0.02366 -0.04039,-0.06185 -0.04442,-0.113595 -0.004,-0.05174 0.0027,-0.112987 0.0096,-0.168165 0.005,-0.04013 0.02514,-0.08158 0.05089,-0.127935 v -2.55e-4 c 0.0023,-0.0041 0.0046,-0.0081 0.007,-0.01236 0.01722,-0.03069 0.03694,-0.06546 0.05174,-0.101232 v -3.4e-4 l 0.0042,-0.01011 v -5.66e-4 c 0.0041,-0.01069 0.0077,-0.02165 0.01097,-0.03319 0.0061,-0.0218 0.01086,-0.04427 0.01405,-0.06635 v -2.57e-4 c 1.65e-4,-0.0013 3.56e-4,-0.0024 5.21e-4,-0.0036 v -2.54e-4 c 0.0086,-0.0628 0.0078,-0.129836 0.0093,-0.187 10e-4,-0.04019 0.0031,-0.07848 0.009,-0.1133245 0.0038,-0.022517 0.0091,-0.043307 0.01659,-0.062979 l 5.09e-4,-0.00113 c 0.0011,-0.00277 0.0022,-0.0057 0.0034,-0.00845 l 2.55e-4,-2.547e-4 c 0.0033,-0.00769 0.0066,-0.014717 0.0104,-0.021645 0.002,-0.00357 0.004,-0.0071 0.0062,-0.010675 z m -4.287096,0.015272 c -0.22329,0 -0.404444,0.1803206 -0.404444,0.4036106 0,0.223291 0.181154,0.404445 0.404444,0.404445 H 5.555301 V 9.9065127 Z m 6.475428,0 V 10.71457 h 0.653028 c 0.223291,0 0.404444,-0.181154 0.404444,-0.404445 0,-0.22329 -0.181153,-0.4036106 -0.404444,-0.4036106 z M 9.050968,10.389247 v 3.9e-5 c -0.01523,0.03611 -0.03557,0.07048 -0.05484,0.105165 v 2.55e-4 c -0.02635,0.04746 -0.05082,0.09529 -0.05736,0.148186 -0.0068,0.05496 -0.0142,0.118611 -0.0098,0.177699 -0.127445,-0.01979 -0.260097,-0.05612 -0.382973,-0.04781 -0.209466,0.01432 -0.43774,0.164306 -0.637158,0.160006 0.08489,-0.02727 0.159954,-0.07296 0.197097,-0.146228 0.04247,-0.08386 -9.1e-5,-0.188821 -0.04666,-0.278369 0.14148,0.08534 0.303832,0.139091 0.465078,0.128225 0.174639,-0.01172 0.365833,-0.112637 0.526663,-0.24717 z m -2.30338,1.51761 v 0.653029 c 0,0.22329 0.181154,0.404443 0.404444,0.404443 0.223291,0 0.404444,-0.181153 0.404444,-0.404443 v -0.653029 z m 1.314468,0 v 0.653029 c 0,0.22329 0.181154,0.404443 0.404444,0.404443 0.22329,0 0.404444,-0.181153 0.404444,-0.404443 v -0.653029 z m 1.316135,0 v 0.653029 h -8.5e-4 c 0,0.22329 0.181154,0.404443 0.404444,0.404443 0.223291,0 0.404463,-0.181153 0.404463,-0.404443 v -0.653029 z"
     style="opacity:0.3;fill:#000000;fill-opacity:1;stroke-width:0.00842604" />
  <path
     id="path1-6-5"
     class="ColorScheme-Text"
     d="m 7.151199,4.4978277 c -0.223291,0 -0.403611,0.1811536 -0.403611,0.4044441 V 5.5553004 H 7.555643 V 4.9022718 c 0,-0.2232905 -0.181154,-0.4044441 -0.404444,-0.4044441 z m 1.315301,0 c -0.22329,0 -0.404444,0.1811536 -0.404444,0.4044441 V 5.5553004 H 8.870944 V 4.9022718 C 8.870944,4.6789813 8.68979,4.4978277 8.4665,4.4978277 Z m 1.314468,0 c -0.223291,0 -0.403611,0.1811536 -0.403611,0.4044441 v 0.6530286 h 0.808055 V 4.9022718 c 0,-0.2232905 -0.181154,-0.4044441 -0.404444,-0.4044441 z M 6.365042,5.9437381 c -0.232559,0 -0.421303,0.1887441 -0.421303,0.4213032 v 4.2029157 c 0,0.23256 0.188744,0.421304 0.421303,0.421304 h 4.202916 c 0.232559,0 0.421303,-0.188744 0.421303,-0.421304 V 6.3650413 c 0,-0.2325591 -0.188744,-0.4213032 -0.421303,-0.4213032 z M 8.53973,6.4774354 h 3.9e-5 c 0.287949,0.00821 0.603097,0.1910897 0.623341,0.5997576 0.01022,0.2086076 -0.02685,0.4240772 0.02699,0.6259186 0.125395,0.4707713 0.663705,0.810497 0.671477,1.2973951 0.0017,0.1111467 -0.0092,0.2270938 -0.03234,0.3424727 -0.01657,-0.00586 -0.03407,-0.00961 -0.0523,-0.012092 -0.04047,-0.00546 -0.08422,-0.00445 -0.127102,-0.00562 -0.0052,0.011106 -0.01185,0.021678 -0.01969,0.03178 -0.05489,0.070725 -0.168437,0.1142083 -0.249689,0.091659 -0.04907,-0.013659 -0.09815,-0.053542 -0.132431,-0.1026272 v -2.547e-4 c -0.02057,-0.0295 -0.03595,-0.06215 -0.04275,-0.094488 -6.23e-4,5.596e-4 -0.0014,0.00112 -0.0019,0.0017 -0.0081,-0.048983 3.31e-4,-0.1006954 0.03345,-0.1470618 0.03412,-0.047656 0.107208,-0.051704 0.170122,-0.041625 C 9.369067,8.9177959 9.293796,8.7863105 9.255935,8.6760324 9.190285,8.4836925 9.113889,8.4300661 9.044208,8.2593218 8.977448,8.0960747 9.042008,7.7999979 8.876063,7.6668696 c 0.01052,-0.019414 0.01536,-0.04034 0.01236,-0.063561 -0.0051,-0.039805 -0.03478,-0.064422 -0.07368,-0.082939 A 0.21335868,0.27584024 0 0 0 8.890393,7.3094757 0.21335868,0.27584024 0 0 0 8.67696,7.0336453 0.21335868,0.27584024 0 0 0 8.463547,7.3094757 a 0.21335868,0.27584024 0 0 0 0.0059,0.064704 c -0.02762,-0.00832 -0.05577,-0.012796 -0.08462,-0.011258 -0.02319,0.00122 -0.0456,0.00637 -0.0675,0.01434 a 0.15073318,0.22458808 0 0 0 0.005,-0.057922 0.15073318,0.22458808 0 0 0 -0.150705,-0.2246718 0.15073318,0.22458808 0 0 0 -0.150724,0.2246718 0.15073318,0.22458808 0 0 0 0.07873,0.1971159 c -0.05351,0.038445 -0.104587,0.08214 -0.102627,0.1411514 0.0016,0.051036 0.04532,0.086377 0.09307,0.117258 -0.128909,0.1292482 -0.04767,0.2574305 -0.111076,0.439228 -0.06608,0.18946 -0.232492,0.4373118 -0.282303,0.6737052 -0.02016,0.095451 -0.04571,0.1909367 -0.06327,0.286818 l 0.474031,0.579527 c 0.07838,0.095702 -0.08126,0.080857 -0.268525,-0.013489 -0.01167,-0.011525 -0.0227,-0.023621 -0.03263,-0.036566 C 7.708688,9.5765333 7.689846,9.3884531 7.565891,9.2865248 c -0.03528,-0.029013 -0.0801,-0.055524 -0.125978,-0.066351 -0.0057,-0.00135 -0.01141,-0.00224 -0.01715,-0.00308 -0.0013,-1.908e-4 -0.0026,-7.019e-4 -0.0039,-8.773e-4 a 0.15174094,0.15174094 0 0 0 -0.0036,-5.831e-4 c -0.0049,-5.215e-4 -0.01,-8.151e-4 -0.0149,-8.773e-4 -0.0115,-1.4e-4 -0.02284,0.00107 -0.03403,0.00366 -0.04377,0.010151 -0.07389,0.043718 -0.101795,0.081815 -0.0022,0.00302 -0.0043,0.00597 -0.0065,0.00901 -0.007,-0.10616 -0.0068,-0.210515 -5.08e-4,-0.3087542 0.03168,-0.4900625 0.560256,-0.8304162 0.680468,-1.306658 0.05183,-0.2052971 0.0018,-0.4235697 0.009,-0.6352006 0.01584,-0.462134 0.272355,-0.566683 0.535383,-0.5803601 0.01884,-0.00102 0.03813,-0.00136 0.05732,-8.547e-4 z M 4.902272,6.7475879 c -0.22329,0 -0.404444,0.1811537 -0.404444,0.4044442 0,0.2232904 0.181154,0.4044439 0.404444,0.4044439 H 5.555301 V 6.7475879 Z m 6.475428,0 v 0.808055 h 0.653028 c 0.223291,0 0.404444,-0.1811537 0.404444,-0.4044442 0,-0.2232904 -0.181153,-0.4036108 -0.404444,-0.4036108 z M 8.650555,7.2102055 a 0.0873878,0.14439863 0 0 1 0.08745,0.1442521 0.0873878,0.14439863 0 0 1 -0.0419,0.1234395 c -0.0155,-0.00539 -0.03005,-0.011325 -0.04331,-0.017712 -0.02661,-0.012748 -0.05359,-0.027247 -0.08069,-0.041334 a 0.0873878,0.14439863 0 0 1 -0.009,-0.064394 0.0873878,0.14439863 0 0 1 0.08746,-0.144252 z m -0.478024,0.036838 a 0.06651263,0.10754314 0 0 1 0.06637,0.1074138 0.06651263,0.10754314 0 0 1 -0.01884,0.075362 c -0.01525,0.010438 -0.03025,0.021451 -0.0447,0.032323 a 0.06651263,0.10754314 0 0 1 -0.0028,0 0.06651263,0.10754314 0 0 1 -0.06664,-0.1076851 0.06651263,0.10754314 0 0 1 0.06664,-0.1074138 z m 0.229284,0.1733774 c 0.03065,0.00102 0.063,0.010984 0.09831,0.02682 0.04035,0.018099 0.0832,0.043541 0.129079,0.065518 0.03893,0.018753 0.116181,0.040545 0.147604,0.053426 0.02045,0.00838 0.03629,0.017785 0.045,0.025598 0.0087,0.00781 0.01093,0.011616 0.01209,0.020522 0.0016,0.01237 -4.95e-4,0.021175 -0.0085,0.034028 -0.008,0.012853 -0.02299,0.028083 -0.04273,0.043582 -0.03948,0.030998 -0.09578,0.060925 -0.143399,0.094469 -0.03851,0.027156 -0.07723,0.054699 -0.114739,0.074509 -0.03751,0.01981 -0.07291,0.031285 -0.106561,0.030947 -0.03383,-3.561e-4 -0.06896,-0.012851 -0.106562,-0.034028 -0.0376,-0.021177 -0.07654,-0.050295 -0.116133,-0.078172 -0.03636,-0.025617 -0.07587,-0.046784 -0.10348,-0.068056 -0.02761,-0.021271 -0.03773,-0.036444 -0.03824,-0.051721 -6.23e-4,-0.018181 0.01021,-0.036552 0.03824,-0.061584 0.02803,-0.025032 0.06857,-0.050405 0.105165,-0.078172 0.03257,-0.024713 0.06564,-0.049034 0.09813,-0.066933 0.03249,-0.017899 0.06386,-0.029075 0.09363,-0.030637 0.0043,-2.29e-4 0.0087,-2.671e-4 0.01304,-1.163e-4 z M 4.902272,8.0620552 c -0.22329,0 -0.404444,0.1811536 -0.404444,0.4044441 0,0.2232904 0.181154,0.404444 0.404444,0.404444 H 5.555301 V 8.0620552 Z m 6.475428,0 v 0.8088881 h 0.653028 c 0.223291,0 0.404444,-0.1811536 0.404444,-0.404444 0,-0.2232905 -0.181153,-0.4044441 -0.404444,-0.4044441 z M 7.399842,9.2743797 v 9.69e-5 c 0.0029,0 0.0058,-1.7e-6 0.0087,2.544e-4 l 0.0011,2.544e-4 h 2.54e-4 v 2.544e-4 h 8.49e-4 c 7.92e-4,1.908e-4 0.0022,6e-4 0.0042,8.547e-4 0.0052,7.132e-4 0.0089,0.00128 0.01209,0.00196 0.03395,0.00801 0.07322,0.030229 0.103479,0.055112 0.05003,0.041142 0.08251,0.104067 0.114158,0.1779893 0.03066,0.071611 0.06315,0.159879 0.117258,0.2305822 0.02972,0.038734 0.06847,0.071023 0.101503,0.097841 0.0341,0.027685 0.06574,0.052998 0.0897,0.079296 0.0067,0.0073 0.01265,0.014281 0.01744,0.020813 0.005,0.00678 0.0095,0.013857 0.01378,0.021645 0.0055,0.010025 0.01129,0.020808 0.01715,0.031777 0.02409,0.045113 0.047,0.093277 0.05819,0.136384 0.0112,0.04311 0.01078,0.07783 -0.0036,0.10629 -0.02025,0.03994 -0.05673,0.07103 -0.105999,0.09503 -0.0739,0.03601 -0.174079,0.05269 -0.259263,0.05596 -0.03082,0.0012 -0.06445,-0.01065 -0.104312,-0.02953 -0.03735,-0.01771 -0.08755,-0.04524 -0.137206,-0.05905 -0.06999,-0.0195 -0.14603,-0.02364 -0.208917,-0.03066 -0.06492,-0.0072 -0.12183,-0.01829 -0.167603,-0.04554 -0.04077,-0.02421 -0.08384,-0.05422 -0.116677,-0.08689 -0.03063,-0.03048 -0.05111,-0.06215 -0.05792,-0.09334 l 0.04498,-0.062709 c 0.0079,-0.011083 0.01521,-0.024345 0.01913,-0.03994 0.01602,-0.063398 -0.0024,-0.1266181 -0.01659,-0.1754507 -0.0073,-0.025206 -0.01424,-0.048459 -0.01827,-0.06889 -0.0041,-0.020428 -0.0048,-0.037472 -0.0025,-0.051741 4.83e-4,-0.00328 9.06e-4,-0.00622 0.0017,-0.00899 9.06e-4,-0.00328 0.0024,-0.00672 0.0042,-0.010404 0.02002,-0.040149 0.07176,-0.065081 0.141442,-0.093927 0.01036,-0.0043 0.02253,-0.010098 0.0298,-0.013217 0.007,-0.003 0.01748,-0.00703 0.02755,-0.01153 h 5.09e-4 l 0.0085,-0.00447 0.0028,-0.00113 2.54e-4,-2.542e-4 0.03093,-0.015192 v -0.00142 c 0.01301,-0.00771 0.02571,-0.016353 0.03796,-0.02614 0.0062,-0.00492 0.01184,-0.010064 0.0163,-0.014338 0.005,-0.00481 0.01017,-0.00997 0.0149,-0.015192 0.02614,-0.028675 0.04948,-0.065044 0.06777,-0.089973 0.02584,-0.035271 0.04662,-0.054873 0.06945,-0.06017 0.0068,-0.00158 0.01363,-0.00235 0.02081,-0.00227 z m 1.789526,0.087706 c 8.49e-4,0.00142 0.0017,0.00283 0.0025,0.00425 v 8.49e-4 l 0.01011,0.014338 v 2.547e-4 c 0.03922,0.056157 0.09855,0.1062504 0.163358,0.1242922 0.105877,0.029383 0.241662,-0.024623 0.308736,-0.1110571 0.0024,-0.00311 0.0048,-0.00634 0.007,-0.00957 0.03233,5.213e-4 0.06231,0.00102 0.088,0.00453 0.01726,0.00232 0.03216,0.0057 0.04499,0.010675 0.01283,0.00498 0.02366,0.011462 0.03318,0.019958 0.01103,0.00988 0.01836,0.022245 0.02419,0.041627 0.0058,0.01929 0.009,0.044734 0.0118,0.073095 0.0033,0.033192 0.0069,0.078141 0.01773,0.116696 0.0069,0.024662 0.0172,0.049574 0.03403,0.072824 0.0036,0.00504 0.0073,0.00927 0.01039,0.012385 0.0012,0.00125 0.0054,0.00589 0.0107,0.010115 l 0.01546,0.01209 h 0.0025 l 0.007,0.00447 h 0.0019 l 0.0076,0.00425 h 0.0014 c 0.01362,0.00628 0.02857,0.012017 0.03374,0.01461 0.0022,0.00108 0.0035,0.00215 0.0045,0.00283 4.83e-4,0.00192 0.0012,0.00408 0.0017,0.00674 0.0069,0.031987 -1.65e-4,0.071348 -0.01857,0.1135958 -0.0184,0.042243 -0.04723,0.085776 -0.07592,0.1231677 -0.03238,0.04212 -0.08123,0.07331 -0.138904,0.104043 -0.05587,0.02977 -0.125084,0.06171 -0.182776,0.105728 -0.04109,0.03124 -0.07732,0.07542 -0.105437,0.105708 -0.02999,0.03231 -0.05686,0.05575 -0.08604,0.06608 -0.08025,0.02846 -0.179477,0.0502 -0.26151,0.04416 -0.05469,-0.004 -0.100283,-0.01939 -0.133846,-0.04893 -0.02679,-0.02366 -0.04039,-0.06185 -0.04442,-0.113596 -0.004,-0.05174 0.0027,-0.112987 0.0096,-0.168165 0.005,-0.04013 0.02514,-0.08158 0.05089,-0.1279351 v -2.541e-4 c 0.0023,-0.00413 0.0046,-0.00809 0.007,-0.012362 0.01722,-0.030685 0.03694,-0.065458 0.05174,-0.1012325 v -3.441e-4 l 0.0042,-0.010115 v -5.66e-4 c 0.0041,-0.010692 0.0077,-0.021651 0.01097,-0.033192 0.0061,-0.021798 0.01086,-0.04427 0.01405,-0.066352 v -2.564e-4 c 1.65e-4,-0.00125 3.56e-4,-0.00238 5.21e-4,-0.00362 v -2.541e-4 c 0.0086,-0.062803 0.0078,-0.1298366 0.0093,-0.1870008 10e-4,-0.040189 0.0031,-0.078481 0.009,-0.1133241 0.0038,-0.022517 0.0091,-0.043307 0.01659,-0.062979 l 5.09e-4,-0.00113 c 0.0011,-0.00277 0.0022,-0.0057 0.0034,-0.00845 l 2.55e-4,-2.547e-4 c 0.0033,-0.00769 0.0066,-0.014717 0.0104,-0.021645 0.002,-0.00357 0.004,-0.0071 0.0062,-0.010675 z m -4.287096,0.015272 c -0.22329,0 -0.404444,0.1803204 -0.404444,0.4036109 0,0.2232904 0.181154,0.4044444 0.404444,0.4044444 H 5.555301 V 9.377356 Z m 6.475428,0 v 0.8080553 h 0.653028 c 0.223291,0 0.404444,-0.181154 0.404444,-0.4044444 0,-0.2232905 -0.181153,-0.4036109 -0.404444,-0.4036109 z M 9.050968,9.8600899 v 3.91e-5 c -0.01523,0.036107 -0.03557,0.070477 -0.05484,0.1051658 v 2.542e-4 c -0.02635,0.047457 -0.05082,0.095288 -0.05736,0.148186 -0.0068,0.05496 -0.0142,0.118611 -0.0098,0.177699 -0.127445,-0.01979 -0.260097,-0.05612 -0.382973,-0.04781 -0.209466,0.01432 -0.43774,0.164306 -0.637158,0.160006 0.08489,-0.02727 0.159954,-0.07296 0.197097,-0.146228 0.04247,-0.08386 -9.1e-5,-0.188821 -0.04666,-0.278369 0.14148,0.085337 0.303832,0.139091 0.465078,0.128226 0.174639,-0.01172 0.365833,-0.1126379 0.526663,-0.2471703 z M 6.747588,11.3777 v 0.653029 c 0,0.22329 0.181154,0.404443 0.404444,0.404443 0.223291,0 0.404444,-0.181153 0.404444,-0.404443 V 11.3777 Z m 1.314468,0 v 0.653029 c 0,0.22329 0.181154,0.404443 0.404444,0.404443 0.22329,0 0.404444,-0.181153 0.404444,-0.404443 V 11.3777 Z m 1.316135,0 v 0.653029 h -8.5e-4 c 0,0.22329 0.181154,0.404443 0.404444,0.404443 0.223291,0 0.404463,-0.181153 0.404463,-0.404443 V 11.3777 Z"
     style="fill:currentColor;fill-opacity:1;stroke-width:0.00842604" />
  <path
     id="gradient-path1"
     style="opacity:0.3;baseline-shift:baseline;display:inline;overflow:visible;vector-effect:none;enable-background:accumulate;stop-color:#000000;stop-opacity:1;fill:url(#linearGradient4)"
     d="M 8.4453131 1.2753492 C 4.4913166 1.2753492 1.2794833 4.4784283 1.2794833 8.4236094 C 1.2794833 12.36879 4.4913166 15.572386 8.4453131 15.572386 C 12.39931 15.572386 15.611143 12.36879 15.611143 8.4236094 C 15.611143 4.4784283 12.39931 1.2753492 8.4453131 1.2753492 z " />
</svg>
