<?xml version="1.0" encoding="UTF-8" standalone="no"?>
<svg
   width="64"
   height="64"
   version="1.1"
   viewBox="0 0 16.933 16.933"
   id="svg7"
   sodipodi:docname="jdownloader.svg"
   inkscape:version="1.4.2 (ebf0e940d0, 2025-05-08)"
   xmlns:inkscape="http://www.inkscape.org/namespaces/inkscape"
   xmlns:sodipodi="http://sodipodi.sourceforge.net/DTD/sodipodi-0.dtd"
   xmlns:xlink="http://www.w3.org/1999/xlink"
   xmlns="http://www.w3.org/2000/svg"
   xmlns:svg="http://www.w3.org/2000/svg"
   xmlns:rdf="http://www.w3.org/1999/02/22-rdf-syntax-ns#"
   xmlns:cc="http://creativecommons.org/ns#"
   xmlns:dc="http://purl.org/dc/elements/1.1/">
  <sodipodi:namedview
     id="namedview7"
     pagecolor="#9c4444"
     bordercolor="#000000"
     borderopacity="0.25"
     inkscape:showpageshadow="2"
     inkscape:pageopacity="0.0"
     inkscape:pagecheckerboard="0"
     inkscape:deskcolor="#d1d1d1"
     inkscape:zoom="4.3531261"
     inkscape:cx="36.755195"
     inkscape:cy="26.647517"
     inkscape:window-width="2560"
     inkscape:window-height="1376"
     inkscape:window-x="0"
     inkscape:window-y="0"
     inkscape:window-maximized="1"
     inkscape:current-layer="svg7"
     showgrid="false" />
  <defs
     id="defs2">
    <filter
       style="color-interpolation-filters:sRGB;"
       inkscape:label="Blur"
       id="filter3"
       x="-0.10843471"
       y="-0.10870992"
       width="1.2168694"
       height="1.2174198">
      <feGaussianBlur
         stdDeviation="0.5 0.5"
         result="blur"
         id="feGaussianBlur3" />
    </filter>
    <style
       id="current-color-scheme"
       type="text/css">.ColorScheme-Text {color:#d8dee9} .ColorScheme-Highlight {color:#3b4252}</style>
    <linearGradient
       id="linearGradient3"
       inkscape:collect="always">
      <stop
         style="stop-color:#000000;stop-opacity:1;"
         offset="0"
         id="stop3" />
      <stop
         style="stop-color:#000000;stop-opacity:0;"
         offset="1"
         id="stop4" />
    </linearGradient>
    <linearGradient
       inkscape:collect="always"
       xlink:href="#linearGradient3"
       id="linearGradient4"
       x1="13.512321"
       y1="13.490874"
       x2="3.3783066"
       y2="3.3568602"
       gradientUnits="userSpaceOnUse" />
  </defs>
  <metadata
     id="metadata2">
    <rdf:RDF>
      <cc:Work
         rdf:about="">
        <dc:format>image/svg+xml</dc:format>
        <dc:type
           rdf:resource="http://purl.org/dc/dcmitype/StillImage" />
      </cc:Work>
    </rdf:RDF>
  </metadata>
  <ellipse
     style="opacity:1;fill:none;stroke:#000000;stroke-width:0.582072;stroke-dasharray:none;stroke-opacity:1;filter:url(#filter3)"
     id="path1-5"
     cx="8.4450111"
     cy="8.423522"
     rx="6.8752708"
     ry="6.8578653" />
  <ellipse
     style="opacity:1;fill:none;stroke-width:0.58207188;stroke-opacity:1;stroke:currentColor;stroke-dasharray:none;fill-opacity:1"
     id="path1"
     cx="8.4450111"
     cy="8.423522"
     rx="6.8752708"
     ry="6.8578653"
     class="ColorScheme-Text" />
  <ellipse
     style="fill:currentColor;stroke:none;stroke-width:0.285844;stroke-dasharray:none;stroke-opacity:1"
     id="path1-2"
     cx="8.4557552"
     cy="8.423522"
     rx="6.5738997"
     ry="6.5692253"
     class="ColorScheme-Highlight" />
  <path
     id="path5-5"
     style="baseline-shift:baseline;display:inline;overflow:visible;opacity:0.3;vector-effect:none;fill:#000000;fill-opacity:1;stroke-width:0.18889;enable-background:accumulate;stop-color:#000000"
     d="m 8.0581189,5.1727669 c -1.9531964,0.090172 -3.5110791,1.7039644 -3.5110791,3.6793087 0,1.1318127 0.5114352,2.1449574 1.3155944,2.8208154 h 0.2899759 c 0.00466,0 0.009,1.7e-5 0.013652,0 C 5.298716,11.037263 4.7359312,10.01085 4.7359312,8.8520756 c 0,-0.8990705 0.3390102,-1.7185209 0.8961229,-2.3375213 L 5.8504599,6.642203 5.8124532,6.9063548 5.359411,7.4165809 5.0380753,7.8699919 4.9624446,8.3422185 4.981624,8.9653361 5.2837752,9.1542268 5.6235565,9.4943775 5.1893294,8.8520756 5.3025902,8.4742944 5.6803711,8.4554783 5.9825223,8.87089 6.0013394,8.5499237 6.45475,8.2854031 6.7569022,7.9644366 7.3427571,7.775546 7.1538667,7.6431011 7.7013545,7.3785806 7.6069067,7.1332442 7.342755,7.0007994 7.0782349,7.1708746 6.8893445,7.49221 6.700453,7.4542104 6.6436394,7.1332441 6.8137158,6.9631687 7.3615721,6.6798328 6.9269756,6.6422017 6.4547489,6.7366475 6.5871943,6.5853874 6.1714138,6.3964967 5.6394206,6.506437 C 6.2369114,5.846851 7.0830251,5.4164943 8.0304367,5.3631324 Z m 0.00217,0.090387 C 8.6576789,5.4379993 9.46851,6.0398872 10.111525,8.4126837 10.064145,8.5574833 10.010216,8.7042187 9.9491984,8.8520758 9.665863,9.532082 8.5703707,11.77988 6.1525709,11.77988 c 0.4344485,0.302224 0.9254167,0.509857 1.45431,0.604302 1.2156485,-0.378903 2.1805936,-1.206452 2.8506981,-2.4164707 0.06005,0.3287507 0.117381,0.6805157 0.17155,1.0566067 l -1.0197122,0.170075 0.6799312,0.604302 1.152159,1.020084 0.944453,-2.077797 -0.963268,0.132075 c 0,0 -0.01911,-0.11326 -0.038,-0.302151 C 11.332529,10.168497 11.221588,9.4073819 11.021671,8.5857105 11.171582,8.0058087 11.228807,7.4026751 11.214988,6.8499092 10.950542,6.472128 10.629133,6.1321985 10.251352,5.8866408 10.328732,6.1123437 10.375571,6.3907896 10.383796,6.7071343 10.113217,6.1465979 9.7775308,5.6844625 9.3637138,5.4520448 H 9.344907 C 9.0049393,5.3198212 8.6270839,5.263154 8.2304135,5.263154 Z m 1.3786793,0.1088335 c 0.1821865,0.1065262 0.3483971,0.2537842 0.4998962,0.4305378 0.07337,0.041174 0.1451106,0.085143 0.2150836,0.131338 -0.0013,-0.00415 -0.0027,-0.00844 -0.004,-0.012544 L 10.058448,5.654216 C 9.8626166,5.541989 9.6552299,5.4471548 9.4390019,5.3719878 Z M 8.3436277,5.9242713 8.0038464,5.981086 7.8525869,6.1887918 8.0982921,6.5477577 8.0414785,6.7174643 8.2303689,6.9063548 8.7214106,6.4721279 8.6081499,6.3396829 8.6269565,6.131977 Z m 2.9783483,0.9256379 c 0.003,0.1206564 0.0028,0.2438759 -0.0011,0.3685579 0.258043,0.4874398 0.403982,1.0432983 0.403982,1.6336087 0,0.4875756 -0.09955,0.9516951 -0.279646,1.3731462 0.01865,0.127324 0.03372,0.239225 0.04575,0.332034 v 0.0014 l 3.78e-4,0.0014 c 1.49e-4,0.0014 2.27e-4,0.0029 3.78e-4,0.0045 0.269433,-0.511722 0.422035,-1.0944265 0.422035,-1.7125546 0,-0.7380227 -0.217491,-1.4256724 -0.591759,-2.0021667 z M 6.1337558,9.5131929 5.77479,9.5508239 5.831604,9.7965293 5.6991597,10.382016 l 0.3213346,0.283336 0.1697059,0.18889 0.4722278,0.283337 0.094448,0.26452 0.1339202,0.194425 C 7.669264,11.430255 8.2742756,11.012575 8.7321099,10.541023 L 8.1547393,10.495274 7.5880678,10.249938 7.3803613,10.363199 7.3047306,10.023048 Z m 3.9873622,2.2788621 c -0.5448744,0.35093 -1.1939643,0.554497 -1.8907501,0.554497 -0.063655,0 -0.1268188,-0.0019 -0.1896284,-0.0052 -0.1308256,0.05379 -0.2649436,0.102231 -0.4021303,0.144988 l -0.00373,0.0011 c 0.193809,0.03154 0.3927725,0.04795 0.5954477,0.04795 0.7526398,0 1.4527067,-0.226272 2.0361071,-0.614264 l -0.04796,-0.04243 z" />
  <path
     id="path5-5-5"
     style="baseline-shift:baseline;display:inline;overflow:visible;vector-effect:none;fill:currentColor;stroke-width:0.18889;enable-background:accumulate;stop-color:#000000"
     d="m 8.0581208,4.6434937 c -1.9531963,0.090172 -3.5110791,1.7039645 -3.5110791,3.6793088 0,1.1318128 0.5114352,2.1449575 1.3155944,2.8208155 h 0.289976 c 0.00466,0 0.009,1.7e-5 0.013652,0 C 5.298718,10.50799 4.7359332,9.4815769 4.7359332,8.3228025 c 0,-0.8990705 0.3390102,-1.7185209 0.8961229,-2.3375213 L 5.8504619,6.1129299 5.8124551,6.3770817 5.359413,6.8873078 5.0380772,7.3407189 4.9624465,7.8129454 4.9816259,8.436063 5.2837771,8.6249537 5.6235584,8.9651044 5.1893313,8.3228025 5.3025921,7.9450213 5.680373,7.9262053 5.9825243,8.3416169 6.0013414,8.0206506 6.454752,7.75613 6.7569042,7.4351635 7.3427591,7.2462729 7.1538687,7.113828 7.7013565,6.8493075 7.6069087,6.6039711 7.342757,6.4715263 7.0782369,6.6416015 6.8893465,6.9629369 6.700455,6.9249373 6.6436414,6.603971 6.8137178,6.4338956 7.3615741,6.1505597 6.9269776,6.1129286 6.4547509,6.2073744 6.5871963,6.0561143 6.1714158,5.8672237 5.6394225,5.9771639 C 6.2369134,5.3175779 7.0830271,4.8872211 8.0304386,4.8338592 Z m 0.00217,0.090387 c 0.5973863,0.1748451 1.4082174,0.7767331 2.0512332,3.1495296 -0.04738,0.1447996 -0.10131,0.291535 -0.1623278,0.4393922 -0.283335,0.6800061 -1.3788272,2.9278045 -3.796627,2.9278045 0.4344485,0.302224 0.9254167,0.509857 1.45431,0.604302 1.2156485,-0.378903 2.1805935,-1.206452 2.8506978,-2.4164714 0.06005,0.3287515 0.117382,0.6805164 0.171551,1.0566074 l -1.0197129,0.170075 0.6799319,0.604302 1.152159,1.020084 0.944452,-2.077797 -0.963267,0.132075 c 0,0 -0.01911,-0.11326 -0.038,-0.302151 C 11.332531,9.6392247 11.221591,8.8781088 11.021674,8.0564375 11.171585,7.4765356 11.22881,6.873402 11.214991,6.3206361 10.950545,5.9428549 10.629136,5.6029254 10.251355,5.3573677 10.328735,5.5830706 10.375573,5.8615165 10.383799,6.1778612 10.11322,5.6173248 9.7775327,5.1551893 9.3637157,4.9227716 H 9.3449089 C 9.0049413,4.790548 8.6270858,4.7338808 8.2304154,4.7338808 Z m 1.3786793,0.1088335 c 0.1821865,0.1065262 0.3483971,0.2537842 0.4998961,0.4305378 0.07337,0.041174 0.1451108,0.085143 0.2150848,0.1313381 -0.0013,-0.00415 -0.0027,-0.00844 -0.004,-0.012544 l -0.0915,-0.2671033 C 9.8626185,5.0127158 9.6552318,4.9178816 9.4390038,4.8427146 Z M 8.3436296,5.3949982 8.0038483,5.4518129 7.8525889,5.6595187 8.098294,6.0184846 8.0414804,6.1881912 8.2303709,6.3770817 8.7214126,5.9428548 8.6081518,5.8104098 8.6269585,5.6027039 Z m 2.9783484,0.9256379 c 0.003,0.1206564 0.0028,0.2438759 -0.0011,0.3685579 0.258043,0.4874398 0.403982,1.0432983 0.403982,1.6336088 0,0.4875755 -0.09955,0.951695 -0.279646,1.373146 0.01865,0.1273239 0.03372,0.2392255 0.04575,0.3320342 v 0.0015 l 3.78e-4,0.0015 c 1.49e-4,0.0015 2.27e-4,0.003 3.78e-4,0.0044 0.269433,-0.511721 0.422036,-1.0944259 0.422036,-1.712554 0,-0.7380227 -0.217491,-1.4256724 -0.591759,-2.0021667 z m -5.1882203,2.6632838 -0.3589658,0.037631 0.056814,0.2457054 -0.1324443,0.585487 0.3213347,0.2833357 0.1697059,0.18889 0.4722277,0.283337 0.094448,0.26452 0.1339203,0.194425 c 0.7784684,-0.166269 1.3834799,-0.583949 1.8413142,-1.0555 L 8.1547412,9.9660043 7.5880698,9.7206676 7.3803633,9.833928 7.3047326,9.4937774 Z M 10.12112,11.262782 c -0.5448744,0.35093 -1.1939643,0.554497 -1.8907502,0.554497 -0.063655,0 -0.1268188,-0.0019 -0.1896284,-0.0052 -0.1308255,0.05379 -0.2649435,0.102231 -0.4021303,0.144988 l -0.00373,0.0011 c 0.193809,0.03154 0.3927726,0.04795 0.5954477,0.04795 0.7526399,0 1.4527068,-0.226272 2.0361082,-0.614264 l -0.04796,-0.04243 z"
     class="ColorScheme-Text" />
  <path
     id="gradient-path1"
     style="opacity:0.3;baseline-shift:baseline;display:inline;overflow:visible;vector-effect:none;enable-background:accumulate;stop-color:#000000;stop-opacity:1;fill:url(#linearGradient4)"
     d="M 8.4453131 1.2753492 C 4.4913166 1.2753492 1.2794833 4.4784283 1.2794833 8.4236094 C 1.2794833 12.36879 4.4913166 15.572386 8.4453131 15.572386 C 12.39931 15.572386 15.611143 12.36879 15.611143 8.4236094 C 15.611143 4.4784283 12.39931 1.2753492 8.4453131 1.2753492 z " />
</svg>
