<?xml version='1.0' encoding='UTF-8'?>
<svg xmlns:inkscape="http://www.inkscape.org/namespaces/inkscape" xmlns:sodipodi="http://sodipodi.sourceforge.net/DTD/sodipodi-0.dtd" xmlns="http://www.w3.org/2000/svg" xmlns:svg="http://www.w3.org/2000/svg" xmlns:rdf="http://www.w3.org/1999/02/22-rdf-syntax-ns#" xmlns:cc="http://creativecommons.org/ns#" xmlns:dc="http://purl.org/dc/elements/1.1/" width="64" height="64" version="1.1" viewBox="0 0 16.933 16.933" id="svg7" sodipodi:docname="kasts.svg" inkscape:version="1.4.2 (ebf0e940d0, 2025-05-08)">
  <sodipodi:namedview id="namedview7" pagecolor="#9c4444" bordercolor="#000000" borderopacity="0.25" inkscape:showpageshadow="2" inkscape:pageopacity="0.0" inkscape:pagecheckerboard="0" inkscape:deskcolor="#d1d1d1" inkscape:zoom="4.3531261" inkscape:cx="36.755195" inkscape:cy="26.188077" inkscape:window-width="2560" inkscape:window-height="1376" inkscape:window-x="0" inkscape:window-y="0" inkscape:window-maximized="1" inkscape:current-layer="svg7" showgrid="false"/>
  <defs id="defs2">
    <filter style="color-interpolation-filters:sRGB;" inkscape:label="Blur" id="filter3" x="-0.10843471" y="-0.10870992" width="1.2168694" height="1.2174198">
      <feGaussianBlur stdDeviation="0.5 0.5" result="blur" id="feGaussianBlur3"/>
    </filter>
    <style id="current-color-scheme" type="text/css">.ColorScheme-Text {color:#d8dee9} .ColorScheme-Highlight {color:#3b4252}</style>
  <linearGradient id="linearGradient3" inkscape:collect="always">
      <stop style="stop-color:#000000;stop-opacity:1;" offset="0" id="stop3"/>
      <stop style="stop-color:#000000;stop-opacity:0;" offset="1" id="stop4"/>
    </linearGradient>
    <linearGradient xmlns:xlink="http://www.w3.org/1999/xlink" inkscape:collect="always" xlink:href="#linearGradient3" id="linearGradient4" x1="13.512321" y1="13.490874" x2="3.3783066" y2="3.3568602" gradientUnits="userSpaceOnUse"/>
  </defs>
  <metadata id="metadata2">
    <rdf:RDF>
      <cc:Work rdf:about="">
        <dc:format>image/svg+xml</dc:format>
        <dc:type rdf:resource="http://purl.org/dc/dcmitype/StillImage"/>
      </cc:Work>
    </rdf:RDF>
  </metadata>
  <ellipse style="opacity:1;fill:none;stroke:#000000;stroke-width:0.582072;stroke-dasharray:none;stroke-opacity:1;filter:url(#filter3)" id="path1-5" cx="8.4450111" cy="8.423522" rx="6.8752708" ry="6.8578653"/>
  <ellipse style="opacity:1;fill:none;stroke-width:0.58207188;stroke-opacity:1;stroke:currentColor;stroke-dasharray:none;fill-opacity:1" id="path1" cx="8.4450111" cy="8.423522" rx="6.8752708" ry="6.8578653" class="ColorScheme-Text"/>
  <ellipse style="fill:currentColor;stroke:none;stroke-width:0.285844;stroke-dasharray:none;stroke-opacity:1" id="path1-2" cx="8.4557552" cy="8.423522" rx="6.5738997" ry="6.5692253" class="ColorScheme-Highlight"/>
<path fill="currentColor" class="ColorScheme-Text" d="m 6.7622365,12.915116 h 0.681821 v -0.681823 h -0.681821 z m 1.704265,-3.74915 c 0.565557,0 1.018936,-0.4563015 1.018936,-1.0224426 l 0.0035,-2.044885 c 0,-0.5655567 -0.456885,-1.0224425 -1.022443,-1.0224425 -0.565557,0 -1.022443,0.4568858 -1.022443,1.0224425 v 2.044885 c 0,0.5661411 0.456886,1.0224426 1.022443,1.0224426 z m -0.34062,3.74915 h 0.681239 v -0.681823 h -0.681239 z m 1.363063,0 H 10.170766 V 12.233293 H 9.4889445 Z M 10.852005,8.1435234 h -0.578992 c 0,1.0224426 -0.8658645,1.7381523 -1.8065115,1.7381523 -0.940648,0 -1.806511,-0.7157097 -1.806511,-1.7381523 h -0.578995 c 0,1.1626634 0.926625,2.1237596 2.044886,2.2902716 v 1.118259 h 0.681239 V 10.433795 C 9.9253815,10.267282 10.852005,9.3061868 10.852005,8.1435234 Z" id="path24" style="opacity:0.3;fill:#000000;fill-opacity:1;stroke-width:0.584253"/>
  <path fill="currentColor" class="ColorScheme-Text" d="m 6.7622365,12.38596 h 0.681821 v -0.681823 h -0.681821 z m 1.704265,-3.7491502 c 0.565557,0 1.018936,-0.4563015 1.018936,-1.0224425 l 0.0035,-2.044885 c 0,-0.5655567 -0.456885,-1.0224425 -1.022443,-1.0224425 -0.565557,0 -1.022443,0.4568858 -1.022443,1.0224425 v 2.044885 c 0,0.566141 0.456886,1.0224425 1.022443,1.0224425 z m -0.34062,3.7491502 h 0.681239 v -0.681823 h -0.681239 z m 1.363063,0 H 10.170765 V 11.704137 H 9.4889445 Z M 10.852004,7.6143673 h -0.578992 c 0,1.0224425 -0.8658635,1.7381523 -1.8065105,1.7381523 -0.940648,0 -1.806511,-0.7157098 -1.806511,-1.7381523 h -0.578995 c 0,1.1626633 0.926625,2.1237593 2.044886,2.2902712 v 1.1182595 h 0.681239 V 9.9046385 C 9.9253815,9.7381259 10.852005,8.7770306 10.852004,7.6143673 Z" id="path24-5" style="stroke-width:0.584253"/>
<path id="gradient-path1" style="opacity:0.3;baseline-shift:baseline;display:inline;overflow:visible;vector-effect:none;enable-background:accumulate;stop-color:#000000;stop-opacity:1;fill:url(#linearGradient4)" d="M 8.4453131 1.2753492 C 4.4913166 1.2753492 1.2794833 4.4784283 1.2794833 8.4236094 C 1.2794833 12.36879 4.4913166 15.572386 8.4453131 15.572386 C 12.39931 15.572386 15.611143 12.36879 15.611143 8.4236094 C 15.611143 4.4784283 12.39931 1.2753492 8.4453131 1.2753492 z "/>
</svg>
