<?xml version="1.0" encoding="UTF-8" standalone="no"?>
<svg
   width="64"
   height="64"
   version="1.1"
   viewBox="0 0 16.933 16.933"
   id="svg7"
   sodipodi:docname="org.kde.kate.svg"
   inkscape:version="1.4.2 (ebf0e940d0, 2025-05-08)"
   xmlns:inkscape="http://www.inkscape.org/namespaces/inkscape"
   xmlns:sodipodi="http://sodipodi.sourceforge.net/DTD/sodipodi-0.dtd"
   xmlns:xlink="http://www.w3.org/1999/xlink"
   xmlns="http://www.w3.org/2000/svg"
   xmlns:svg="http://www.w3.org/2000/svg"
   xmlns:rdf="http://www.w3.org/1999/02/22-rdf-syntax-ns#"
   xmlns:cc="http://creativecommons.org/ns#"
   xmlns:dc="http://purl.org/dc/elements/1.1/">
  <sodipodi:namedview
     id="namedview7"
     pagecolor="#9c4444"
     bordercolor="#000000"
     borderopacity="0.25"
     inkscape:showpageshadow="2"
     inkscape:pageopacity="0.0"
     inkscape:pagecheckerboard="0"
     inkscape:deskcolor="#d1d1d1"
     inkscape:zoom="4.3531261"
     inkscape:cx="36.295755"
     inkscape:cy="25.958357"
     inkscape:window-width="2560"
     inkscape:window-height="1376"
     inkscape:window-x="0"
     inkscape:window-y="0"
     inkscape:window-maximized="1"
     inkscape:current-layer="svg7"
     showgrid="false" />
  <defs
     id="defs2">
    <filter
       style="color-interpolation-filters:sRGB;"
       inkscape:label="Blur"
       id="filter3"
       x="-0.10843471"
       y="-0.10870992"
       width="1.2168694"
       height="1.2174198">
      <feGaussianBlur
         stdDeviation="0.5 0.5"
         result="blur"
         id="feGaussianBlur3" />
    </filter>
    <style
       id="current-color-scheme"
       type="text/css">.ColorScheme-Text {color:#d8dee9} .ColorScheme-Highlight {color:#3b4252}</style>
    <linearGradient
       id="linearGradient3"
       inkscape:collect="always">
      <stop
         style="stop-color:#000000;stop-opacity:1;"
         offset="0"
         id="stop3" />
      <stop
         style="stop-color:#000000;stop-opacity:0;"
         offset="1"
         id="stop4" />
    </linearGradient>
    <linearGradient
       inkscape:collect="always"
       xlink:href="#linearGradient3"
       id="linearGradient4"
       x1="13.512321"
       y1="13.490874"
       x2="3.3783066"
       y2="3.3568602"
       gradientUnits="userSpaceOnUse" />
  </defs>
  <metadata
     id="metadata2">
    <rdf:RDF>
      <cc:Work
         rdf:about="">
        <dc:format>image/svg+xml</dc:format>
        <dc:type
           rdf:resource="http://purl.org/dc/dcmitype/StillImage" />
      </cc:Work>
    </rdf:RDF>
  </metadata>
  <ellipse
     style="opacity:1;fill:none;stroke:#000000;stroke-width:0.582072;stroke-dasharray:none;stroke-opacity:1;filter:url(#filter3)"
     id="path1-5"
     cx="8.4450111"
     cy="8.423522"
     rx="6.8752708"
     ry="6.8578653" />
  <ellipse
     style="opacity:1;fill:none;stroke-width:0.58207188;stroke-opacity:1;stroke:currentColor;stroke-dasharray:none;fill-opacity:1"
     id="path1"
     cx="8.4450111"
     cy="8.423522"
     rx="6.8752708"
     ry="6.8578653"
     class="ColorScheme-Text" />
  <ellipse
     style="fill:currentColor;stroke:none;stroke-width:0.285844;stroke-dasharray:none;stroke-opacity:1"
     id="path1-2"
     cx="8.4557552"
     cy="8.423522"
     rx="6.5738997"
     ry="6.5692253"
     class="ColorScheme-Highlight" />
  <path
     id="path18"
     d="M 8.4664995,5.2090141 A 3.7867734,3.7867742 0 0 0 4.6797255,8.9957884 3.7867734,3.7867742 0 0 0 8.4664995,12.782563 3.7867734,3.7867742 0 0 0 12.253275,8.9957884 3.7867734,3.7867742 0 0 0 8.4664995,5.2090141 Z m -0.269216,0.637539 c 0.235252,-0.0078 0.455342,0.01717 0.650853,0.0625 h 3.39e-4 c 0.1558,0.03614 0.295956,0.08553 0.415657,0.141634 0.03051,0.01375 0.05958,0.02851 0.08764,0.044 -2.71e-4,1e-5 -4.75e-4,-9e-6 -7.14e-4,0 -0.203999,0.0078 -0.371607,0.03091 -0.514026,0.06398 -0.205698,0.04775 -0.355217,0.117704 -0.456334,0.203392 -0.01902,0.01612 -0.03622,0.03245 -0.05214,0.04956 l -3.4e-4,3.39e-4 c -0.03168,0.03408 -0.05756,0.07 -0.07803,0.107238 -0.02052,0.03739 -0.03586,0.07646 -0.0466,0.116119 -0.01077,0.03967 -0.01675,0.08028 -0.01923,0.121295 -0.0016,0.0276 -0.0016,0.05535 0,0.08321 3.4e-5,6.12e-4 -3.6e-5,0.0012 0,0.0018 0.0016,0.02724 0.0047,0.05451 0.0088,0.08173 0.0074,0.04839 0.01985,0.09598 0.03366,0.143114 0.0022,0.0073 0.0032,0.01489 0.0056,0.02219 0.01667,0.05357 0.0362,0.105774 0.05732,0.155316 0.01539,0.03608 0.03162,0.07096 0.0477,0.103912 1.094988,-0.317566 2.0723495,-0.559126 2.8459975,-0.8217 0.0056,-0.0019 0.01552,-0.0044 0.02108,-0.0062 h 3.38e-4 c -0.171204,0.22614 -0.378579,0.477476 -0.613131,0.719266 -0.117264,0.120891 -0.24146,0.23955 -0.371282,0.351312 -0.4278165,0.368223 -0.9179035,0.663314 -1.4311325,0.729619 -0.612883,0.07918 -1.207829,0.053964 -1.620843,0.2022827 -0.08258,0.029666 -0.158131,0.066288 -0.22484,0.1120498 -0.03328,0.022828 -0.06434,0.048146 -0.09319,0.07581 -0.01445,0.013867 -0.02852,0.028449 -0.04179,0.043636 -0.05308,0.060751 -0.09646,0.1324484 -0.129062,0.2170738 -0.0082,0.021156 -0.01579,0.043004 -0.02256,0.065825 -0.01247,0.042037 -0.02135,0.083856 -0.02699,0.1253632 -0.01128,0.083014 -0.0094,0.1645803 0.0041,0.2433301 0.0067,0.039373 0.01657,0.078348 0.02884,0.1161169 0.01224,0.037617 0.02706,0.074533 0.04437,0.1102019 0.03478,0.071617 0.07935,0.1391898 0.13202,0.2008022 0.05267,0.061625 0.113302,0.1172918 0.180463,0.1660411 h 3.74e-4 c 0.134272,0.097406 0.293943,0.1664952 0.465582,0.1952562 0.128799,0.02158 0.264466,0.02061 0.400865,-0.0078 0.04572,-0.0095 0.08789,-0.02196 0.127211,-0.03624 0.03115,-0.01133 0.05998,-0.02436 0.08728,-0.03846 0.0084,-0.0043 0.01711,-0.0084 0.02515,-0.01294 0.0011,-6.13e-4 0.0022,-0.0012 0.0032,-0.0018 0.0019,-0.0011 0.0036,-0.0026 0.0056,-0.0037 0.01231,-0.0073 0.02404,-0.0147 0.03551,-0.02256 0.0059,-0.004 0.01172,-0.008 0.01739,-0.0122 0.0084,-0.0062 0.01682,-0.01267 0.02477,-0.01923 0.0059,-0.0049 0.01141,-0.0098 0.01701,-0.01479 0.0072,-0.0064 0.01396,-0.01293 0.02072,-0.0196 0.0059,-0.0058 0.01183,-0.011392 0.01739,-0.017379 0.0061,-0.00665 0.01198,-0.013454 0.01774,-0.02034 0.0048,-0.00568 0.0096,-0.011545 0.01406,-0.017379 0.0067,-0.00858 0.01278,-0.017711 0.01885,-0.026628 0.0034,-0.00501 0.0071,-0.0097 0.01034,-0.014792 0.0068,-0.010681 0.01279,-0.021815 0.01886,-0.032911 0.0016,-0.00291 0.0037,-0.00557 0.0052,-0.00851 2.71e-4,-4.752e-4 4.76e-4,-9.698e-4 7.15e-4,-0.00147 0.0057,-0.010856 0.01055,-0.022059 0.01553,-0.033284 0.0018,-0.00423 0.0041,-0.00827 0.0059,-0.012571 1.35e-4,-3.394e-4 2.03e-4,-7.656e-4 3.39e-4,-0.00112 0.0094,-0.022631 0.01646,-0.046692 0.0233,-0.070632 0.0053,-0.01839 0.0095,-0.037127 0.01331,-0.05621 0.003,-0.015287 0.006,-0.030533 0.0082,-0.046222 0.0025,-0.018303 0.0042,-0.03704 0.0056,-0.055841 0.0012,-0.017399 0.0027,-0.034733 0.0029,-0.052511 2.72e-4,-0.019323 -6.12e-4,-0.039082 -0.0015,-0.058798 -7.66e-4,-0.018073 -0.0013,-0.036003 -0.0029,-0.05436 -0.0018,-0.019278 -0.0046,-0.038888 -0.0074,-0.058429 -0.0027,-0.018844 -0.0046,-0.037535 -0.0082,-0.056579 -0.0038,-0.020575 -0.0093,-0.041384 -0.01406,-0.062127 -0.0042,-0.018507 -0.0075,-0.036871 -0.01258,-0.05547 -0.0154,-0.05735 -0.03725,-0.1149014 -0.05916,-0.1723277 -0.01693,-0.044352 -0.0362,-0.088266 -0.05658,-0.1320197 -0.0158,-0.033883 -0.03154,-0.067728 -0.04918,-0.1009562 -0.0119,-0.022373 -0.0239,-0.044784 -0.03624,-0.066934 -0.03726,-0.056585 -0.07407,-0.1150527 -0.110202,-0.1752866 0.322858,-0.018516 0.263204,-0.013448 0.810607,-0.041048 0.815876,0.695443 1.086687,0.8945282 2.5116955,1.9089187 -0.206543,-0.01479 -0.405709,-0.0363 -0.59797,-0.06619 -6.13e-4,-6.8e-5 -0.0012,-2.72e-4 -0.0018,-3.4e-4 -0.01343,-0.0021 -0.02548,-0.0059 -0.03884,-0.0081 -0.177228,-0.02889 -0.349848,-0.06336 -0.515133,-0.108352 -0.0013,-3.39e-4 -0.0027,-7.65e-4 -0.0041,-0.0011 h -3.39e-4 c -0.10276,-0.02723 -0.200627,-0.05801 -0.2976895,-0.09356 -0.0057,-0.002 -0.01139,-0.0039 -0.01701,-0.0059 -0.08442,-0.03063 -0.165919,-0.06636 -0.247028,-0.102804 -0.01969,-0.0088 -0.04041,-0.01595 -0.05991,-0.025147 -0.106356,-0.050178 -0.209945,-0.105361 -0.31069,-0.1667776 l -3.39e-4,-3.395e-4 h -3.39e-4 c -0.06252,-0.035264 -0.127346,-0.073132 -0.194886,-0.1135295 0.153135,0.3843921 0.436879,1.1346301 0.609064,1.8663921 0.0574,0.24392 0.10248,0.485913 0.126103,0.7115 -6.6e-5,-6.8e-5 -2.72e-4,-6.12e-4 -3.39e-4,-7.14e-4 -0.03332,-0.0479 -0.05777,-0.08019 -0.08839,-0.123888 -0.177887,-0.253942 -0.323106,-0.454765 -0.483331,-0.62573 -0.187949,-0.200548 -0.406993,-0.378273 -0.759204,-0.613871 -0.225697,-0.15097 -0.440611,-0.265379 -0.642715,-0.366104 -0.202008,-0.100688 -0.390881,-0.187414 -0.565058,-0.283269 -0.174183,-0.09585 -0.333473,-0.200862 -0.475565,-0.3372599 -0.03583,-0.034401 -0.07065,-0.07068 -0.104289,-0.1094613 -0.03301,-0.038071 -0.06498,-0.078673 -0.09578,-0.1216644 -0.06072,-0.084746 -0.117182,-0.1795051 -0.169,-0.2873367 -0.0013,-0.00266 -0.0025,-0.00545 -0.0038,-0.00814 -0.385877,-0.7613308 -0.122034,-1.4327466 1.043194,-1.8179616 -0.276927,-0.768657 -1.620794,-0.578513 -1.84938,-0.595751 0.08229,-0.04085 0.162,-0.07939 0.249615,-0.125364 0.189087,-0.09922 0.414646,-0.232984 0.780653,-0.498123 0.516248,-0.373972 1.047636,-0.520258 1.518408,-0.535843 z"
     style="opacity:0.3;fill:#000000;fill-opacity:1;stroke-width:0.0678486"
     inkscape:label="path18" />
  <path
     id="path18-7"
     d="m 8.4664995,4.6797255 a 3.7867734,3.7867742 0 0 0 -3.786774,3.786774 3.7867734,3.7867742 0 0 0 3.786774,3.7867745 3.7867734,3.7867742 0 0 0 3.7867755,-3.7867745 3.7867734,3.7867742 0 0 0 -3.7867755,-3.786774 z m -0.269216,0.637539 c 0.235252,-0.0078 0.455342,0.01717 0.650853,0.0625 h 3.39e-4 c 0.1558,0.03614 0.295956,0.08553 0.415657,0.141634 0.03051,0.01375 0.05958,0.02851 0.08764,0.044 -2.71e-4,1e-5 -4.75e-4,-9e-6 -7.14e-4,0 -0.203999,0.0078 -0.371607,0.03091 -0.514026,0.06398 -0.205698,0.04775 -0.355217,0.117704 -0.456334,0.203392 -0.01902,0.01612 -0.03622,0.03245 -0.05214,0.04956 l -3.4e-4,3.39e-4 c -0.03168,0.03408 -0.05756,0.07 -0.07803,0.107238 -0.02052,0.03739 -0.03586,0.07646 -0.0466,0.116119 -0.01077,0.03967 -0.01675,0.08028 -0.01923,0.121295 -0.0016,0.0276 -0.0016,0.05535 0,0.08321 3.4e-5,6.12e-4 -3.6e-5,0.0012 0,0.0018 0.0016,0.02724 0.0047,0.05451 0.0088,0.08173 0.0074,0.04839 0.01985,0.09598 0.03366,0.143114 0.0022,0.0073 0.0032,0.01489 0.0056,0.02219 0.01667,0.05357 0.0362,0.105774 0.05732,0.155316 0.01539,0.03608 0.03162,0.07096 0.0477,0.103912 1.094988,-0.317566 2.0723495,-0.559126 2.8459975,-0.8217 0.0056,-0.0019 0.01552,-0.0044 0.02108,-0.0062 h 3.38e-4 c -0.171204,0.22614 -0.378579,0.477476 -0.613131,0.719266 -0.117264,0.120891 -0.24146,0.23955 -0.371282,0.351312 -0.4278165,0.368223 -0.9179035,0.663314 -1.4311325,0.729619 -0.612883,0.07918 -1.207829,0.053964 -1.620843,0.2022827 -0.08258,0.029666 -0.158131,0.066288 -0.22484,0.1120498 -0.03328,0.022828 -0.06434,0.048146 -0.09319,0.07581 -0.01445,0.013867 -0.02852,0.028449 -0.04179,0.043636 -0.05308,0.060751 -0.09646,0.1324485 -0.129062,0.2170735 -0.0082,0.02116 -0.01579,0.043 -0.02256,0.06583 -0.01247,0.04204 -0.02135,0.08386 -0.02699,0.125363 -0.01128,0.08301 -0.0094,0.164581 0.0041,0.243331 0.0067,0.03937 0.01657,0.07835 0.02884,0.116116 0.01224,0.03762 0.02706,0.07453 0.04437,0.110202 0.03478,0.07162 0.07935,0.13919 0.13202,0.200803 0.05267,0.06162 0.113302,0.117291 0.180463,0.166041 h 3.74e-4 c 0.134272,0.09741 0.293943,0.166495 0.465582,0.195255 0.128799,0.02158 0.264466,0.02061 0.400865,-0.0078 0.04572,-0.0095 0.08789,-0.02196 0.127211,-0.03624 0.03115,-0.01133 0.05998,-0.02436 0.08728,-0.03846 0.0084,-0.0043 0.01711,-0.0084 0.02515,-0.01294 0.0011,-6.12e-4 0.0022,-0.0012 0.0032,-0.0018 0.0019,-0.0011 0.0036,-0.0026 0.0056,-0.0037 0.01231,-0.0073 0.02404,-0.0147 0.03551,-0.02256 0.0059,-0.004 0.01172,-0.008 0.01739,-0.0122 0.0084,-0.0062 0.01682,-0.01267 0.02477,-0.01923 0.0059,-0.0049 0.01141,-0.0098 0.01701,-0.01479 0.0072,-0.0064 0.01396,-0.01293 0.02072,-0.0196 0.0059,-0.0058 0.01183,-0.01139 0.01739,-0.01738 0.0061,-0.0066 0.01198,-0.01345 0.01774,-0.02034 0.0048,-0.0057 0.0096,-0.01154 0.01406,-0.01738 0.0067,-0.0086 0.01278,-0.01771 0.01885,-0.02663 0.0034,-0.005 0.0071,-0.0097 0.01034,-0.01479 0.0068,-0.01068 0.01279,-0.02182 0.01886,-0.03291 0.0016,-0.0029 0.0037,-0.0056 0.0052,-0.0085 2.71e-4,-4.75e-4 4.76e-4,-9.69e-4 7.15e-4,-0.0015 0.0057,-0.01086 0.01055,-0.02206 0.01553,-0.03328 0.0018,-0.0042 0.0041,-0.0083 0.0059,-0.01257 1.35e-4,-3.39e-4 2.03e-4,-7.65e-4 3.39e-4,-0.0011 0.0094,-0.02263 0.01646,-0.04669 0.0233,-0.07063 0.0053,-0.01839 0.0095,-0.03713 0.01331,-0.05621 0.003,-0.01529 0.006,-0.03053 0.0082,-0.04622 0.0025,-0.0183 0.0042,-0.03704 0.0056,-0.05584 0.0012,-0.0174 0.0027,-0.03473 0.0029,-0.05251 2.72e-4,-0.01932 -6.12e-4,-0.03908 -0.0015,-0.0588 -7.66e-4,-0.01807 -0.0013,-0.036 -0.0029,-0.05436 -0.0018,-0.01928 -0.0046,-0.03889 -0.0074,-0.05843 -0.0027,-0.01884 -0.0046,-0.03754 -0.0082,-0.05658 -0.0038,-0.02058 -0.0093,-0.04138 -0.01406,-0.06213 -0.0042,-0.01851 -0.0075,-0.03687 -0.01258,-0.05547 -0.0154,-0.05735 -0.03725,-0.114901 -0.05916,-0.172327 -0.01693,-0.04435 -0.0362,-0.08827 -0.05658,-0.13202 -0.0158,-0.033883 -0.03154,-0.067728 -0.04918,-0.1009562 -0.0119,-0.022373 -0.0239,-0.044784 -0.03624,-0.066934 -0.03726,-0.056585 -0.07407,-0.1150527 -0.110202,-0.1752866 0.322858,-0.018516 0.263204,-0.013448 0.810607,-0.041048 0.815876,0.6954428 1.086687,0.8945278 2.5116955,1.9089178 -0.206543,-0.01479 -0.405709,-0.0363 -0.59797,-0.06619 -6.13e-4,-6.8e-5 -0.0012,-2.71e-4 -0.0018,-3.39e-4 -0.01343,-0.0021 -0.02548,-0.006 -0.03884,-0.0081 -0.177228,-0.02889 -0.349848,-0.06336 -0.515133,-0.108352 -0.0013,-3.39e-4 -0.0027,-7.65e-4 -0.0041,-0.0011 h -3.39e-4 c -0.10276,-0.02723 -0.200627,-0.05801 -0.2976895,-0.09356 -0.0057,-0.0021 -0.01139,-0.0039 -0.01701,-0.0059 -0.08442,-0.03063 -0.165919,-0.06636 -0.247028,-0.102805 -0.01969,-0.0088 -0.04041,-0.01595 -0.05991,-0.02515 -0.106356,-0.05018 -0.209945,-0.105361 -0.31069,-0.166777 l -3.39e-4,-3.4e-4 h -3.39e-4 c -0.06252,-0.03526 -0.127346,-0.07313 -0.194886,-0.113529 0.153135,0.384392 0.436879,1.1346295 0.609064,1.8663915 0.0574,0.243919 0.10248,0.485912 0.126103,0.7115 -6.6e-5,-6.8e-5 -2.72e-4,-6.13e-4 -3.39e-4,-7.15e-4 -0.03332,-0.0479 -0.05777,-0.08019 -0.08839,-0.123887 -0.177887,-0.253997 -0.323106,-0.45482 -0.483331,-0.625785 -0.187949,-0.200547 -0.406993,-0.378273 -0.759204,-0.613871 -0.225697,-0.15097 -0.440611,-0.265378 -0.642715,-0.366104 -0.202008,-0.1006865 -0.390881,-0.1874125 -0.565058,-0.2832675 -0.174183,-0.09585 -0.333473,-0.200863 -0.475565,-0.33726 -0.03583,-0.0344 -0.07065,-0.07068 -0.104289,-0.109461 -0.03301,-0.03807 -0.06498,-0.07867 -0.09578,-0.121665 -0.06072,-0.08475 -0.117182,-0.179505 -0.169,-0.287336 -0.0013,-0.0027 -0.0025,-0.0054 -0.0038,-0.0081 -0.385877,-0.7613712 -0.122034,-1.432787 1.043194,-1.818002 -0.276927,-0.768657 -1.620794,-0.578513 -1.84938,-0.595751 0.08229,-0.04085 0.162,-0.07939 0.249615,-0.125364 0.189087,-0.09922 0.414646,-0.232984 0.780653,-0.498123 0.516248,-0.373972 1.047636,-0.520258 1.518408,-0.535843 z"
     class="ColorScheme-Text"
     style="fill:currentColor;fill-opacity:1;stroke-width:0.0678486" />
  <path
     id="gradient-path1"
     style="opacity:0.3;baseline-shift:baseline;display:inline;overflow:visible;vector-effect:none;enable-background:accumulate;stop-color:#000000;stop-opacity:1;fill:url(#linearGradient4)"
     d="M 8.4453131 1.2753492 C 4.4913166 1.2753492 1.2794833 4.4784283 1.2794833 8.4236094 C 1.2794833 12.36879 4.4913166 15.572386 8.4453131 15.572386 C 12.39931 15.572386 15.611143 12.36879 15.611143 8.4236094 C 15.611143 4.4784283 12.39931 1.2753492 8.4453131 1.2753492 z " />
</svg>
