<?xml version="1.0" encoding="UTF-8" standalone="no"?>
<svg
   width="64"
   height="64"
   version="1.1"
   viewBox="0 0 16.933 16.933"
   id="svg7"
   sodipodi:docname="kcachegrind.svg"
   inkscape:version="1.4.2 (ebf0e940d0, 2025-05-08)"
   xmlns:inkscape="http://www.inkscape.org/namespaces/inkscape"
   xmlns:sodipodi="http://sodipodi.sourceforge.net/DTD/sodipodi-0.dtd"
   xmlns:xlink="http://www.w3.org/1999/xlink"
   xmlns="http://www.w3.org/2000/svg"
   xmlns:svg="http://www.w3.org/2000/svg"
   xmlns:rdf="http://www.w3.org/1999/02/22-rdf-syntax-ns#"
   xmlns:cc="http://creativecommons.org/ns#"
   xmlns:dc="http://purl.org/dc/elements/1.1/">
  <sodipodi:namedview
     id="namedview7"
     pagecolor="#9c4444"
     bordercolor="#000000"
     borderopacity="0.25"
     inkscape:showpageshadow="2"
     inkscape:pageopacity="0.0"
     inkscape:pagecheckerboard="0"
     inkscape:deskcolor="#d1d1d1"
     inkscape:zoom="8.7062522"
     inkscape:cx="72.419221"
     inkscape:cy="15.276378"
     inkscape:window-width="2560"
     inkscape:window-height="1388"
     inkscape:window-x="0"
     inkscape:window-y="0"
     inkscape:window-maximized="1"
     inkscape:current-layer="svg7"
     showgrid="false" />
  <defs
     id="defs2">
    <filter
       style="color-interpolation-filters:sRGB;"
       inkscape:label="Blur"
       id="filter3"
       x="-0.10843471"
       y="-0.10870992"
       width="1.2168694"
       height="1.2174198">
      <feGaussianBlur
         stdDeviation="0.5 0.5"
         result="blur"
         id="feGaussianBlur3" />
    </filter>
    <style
       id="current-color-scheme"
       type="text/css">.ColorScheme-Text {color:#d8dee9} .ColorScheme-Highlight {color:#3b4252}</style>
    <linearGradient
       id="linearGradient3"
       inkscape:collect="always">
      <stop
         style="stop-color:#000000;stop-opacity:1;"
         offset="0"
         id="stop3" />
      <stop
         style="stop-color:#000000;stop-opacity:0;"
         offset="1"
         id="stop4" />
    </linearGradient>
    <linearGradient
       inkscape:collect="always"
       xlink:href="#linearGradient3"
       id="linearGradient4"
       x1="13.512321"
       y1="13.490874"
       x2="3.3783066"
       y2="3.3568602"
       gradientUnits="userSpaceOnUse" />
  </defs>
  <metadata
     id="metadata2">
    <rdf:RDF>
      <cc:Work
         rdf:about="">
        <dc:format>image/svg+xml</dc:format>
        <dc:type
           rdf:resource="http://purl.org/dc/dcmitype/StillImage" />
      </cc:Work>
    </rdf:RDF>
  </metadata>
  <ellipse
     style="opacity:1;fill:none;stroke:#000000;stroke-width:0.582072;stroke-dasharray:none;stroke-opacity:1;filter:url(#filter3)"
     id="path1-5"
     cx="8.4450111"
     cy="8.423522"
     rx="6.8752708"
     ry="6.8578653" />
  <ellipse
     style="opacity:1;fill:none;stroke-width:0.58207188;stroke-opacity:1;stroke:currentColor;stroke-dasharray:none;fill-opacity:1"
     id="path1"
     cx="8.4450111"
     cy="8.423522"
     rx="6.8752708"
     ry="6.8578653"
     class="ColorScheme-Text" />
  <ellipse
     style="fill:currentColor;stroke:none;stroke-width:0.285844;stroke-dasharray:none;stroke-opacity:1"
     id="path1-2"
     cx="8.4557552"
     cy="8.423522"
     rx="6.5738997"
     ry="6.5692253"
     class="ColorScheme-Highlight" />
  <path
     id="path5"
     d="M 8.466855,5.0269905 A 3.9701619,3.9701619 0 0 0 8.060308,5.0471435 L 7.965358,5.6625838 A 3.3746376,3.3746376 0 0 0 7.233651,5.8583 L 6.845319,5.3738539 A 3.9701619,3.9701619 0 0 0 6.202362,5.7416453 c -0.02064,0.013103 -0.04122,0.026438 -0.06162,0.039919 l 0.22517,0.5778473 A 3.3746376,3.3746376 0 0 0 5.828371,6.8942399 L 5.254013,6.6706198 A 3.9701619,3.9701619 0 0 0 4.918775,7.23529 c -0.02482,0.046399 -0.04874,0.093335 -0.0717,0.1406832 L 5.327646,7.7612047 A 3.3746376,3.3746376 0 0 0 5.206728,8.12202 3.3746376,3.3746376 0 0 0 5.133478,8.4944621 l -0.614277,0.094564 a 3.9701619,3.9701619 0 0 0 -0.0027,0.7960418 c 5.1e-4,0.0057 0.0011,0.011357 0.0016,0.017053 l 0.615441,0.094564 c 4.64e-4,0.00292 0.0011,0.00593 0.0016,0.00891 a 3.3746376,3.3746376 0 0 0 0.19378,0.7224061 l 3.87e-4,3.97e-4 -0.41236,0.330585 -0.07209,0.05775 c 0.111373,0.248148 0.248076,0.484357 0.407709,0.704578 l 0.577847,-0.22517 c 0.0025,0.0031 0.0048,0.0062 0.0074,0.0093 a 3.3746376,3.3746376 0 0 0 0.52359,0.525527 c 0.0013,0.0011 0.0026,0.002 0.0039,0.0031 l -0.161998,0.415461 -0.06162,0.158511 c 0.22055,0.159463 0.456911,0.295826 0.705354,0.406934 l 0.385231,-0.48057 c 0.118028,0.04707 0.238622,0.08744 0.361203,0.120918 0.122649,0.03138 0.247046,0.05584 0.372442,0.07325 l 0.09418,0.614277 c 0.270406,0.02824 0.542997,0.0286 0.813482,0.0012 l 0.09416,-0.615444 c 0.250476,-0.03757 0.495923,-0.103227 0.731708,-0.195716 l 0.388258,0.484442 c 0.24817,-0.111393 0.484341,-0.248048 0.704578,-0.40771 l -0.06162,-0.158123 -0.163549,-0.419336 c 9.05e-4,-7.36e-4 0.0018,-0.0016 0.0027,-0.0023 A 3.3746376,3.3746376 0 0 0 11.09225,11.11286 c 0.0044,-0.0053 0.0085,-0.01066 0.01279,-0.01589 l 0.574359,0.22362 c 0.159445,-0.220546 0.295808,-0.456907 0.406918,-0.705352 l -0.07209,-0.05775 -0.408872,-0.327486 c 0.02506,-0.06753 0.100246,-0.2922985 0.120917,-0.3612022 0.03139,-0.1226752 0.05583,-0.2470196 0.07325,-0.3724424 L 12.4138,9.4021624 c 0.01768,-0.1693997 0.02437,-0.339759 0.02015,-0.5100247 A 3.9701619,3.9701619 0 0 0 12.41496,8.5886807 L 11.799522,8.4944757 A 3.3746376,3.3746376 0 0 0 11.603806,7.7627684 l 0.484833,-0.3883318 c -0.02309,-0.047369 -0.04713,-0.09427 -0.07209,-0.1406832 A 3.9701619,3.9701619 0 0 0 11.68093,6.6698579 L 11.103082,6.8950283 A 3.3746376,3.3746376 0 0 0 10.567867,6.3570829 l 0.224008,-0.5739717 a 3.9701619,3.9701619 0 0 0 -3.97e-4,0 c -0.02047,-0.013447 -0.04089,-0.026847 -0.06161,-0.039919 A 3.9701619,3.9701619 0 0 0 10.086135,5.376176 L 9.701292,5.8567464 A 3.3746376,3.3746376 0 0 0 9.340089,5.7358287 3.3746376,3.3746376 0 0 0 8.967647,5.6625807 L 8.873467,5.0483032 A 3.9701619,3.9701619 0 0 0 8.46692,5.0269872 Z m 0.08836,1.1909621 c 0.208776,0.00685 0.420102,0.03702 0.630555,0.093401 a 2.7791132,2.7791132 0 0 1 0.336011,0.1158797 c 0.01751,0.0072 0.03539,0.013781 0.05271,0.021315 a 2.7791132,2.7791132 0 0 1 0.297255,0.1523099 c 0.02081,0.012229 0.04156,0.024465 0.06201,0.037205 a 2.7791132,2.7791132 0 0 1 0.149209,0.1050279 c 0.07273,0.052292 0.143812,0.1063283 0.210831,0.1650992 a 2.7791132,2.7791132 0 0 1 0.110841,0.1042526 c 0.06471,0.063349 0.126334,0.1295822 0.184477,0.1988167 a 2.7791132,2.7791132 0 0 1 0.09108,0.1135542 c 0.05608,0.074369 0.107759,0.1520165 0.156184,0.231759 a 2.7791132,2.7791132 0 0 1 0.07054,0.1193675 c 0.04609,0.085217 0.08575,0.1738783 0.122856,0.2639263 a 2.7791132,2.7791132 0 0 1 0.05697,0.1375827 c 0.0096,0.027303 0.01841,0.054889 0.02712,0.082549 a 2.7791132,2.7791132 0 0 1 0.07984,0.3092704 c 0.005,0.026084 0.0077,0.052748 0.01202,0.079062 a 2.7791132,2.7791132 0 0 1 0.03062,0.2705145 c 0.0018,0.027835 0.0053,0.055304 0.0062,0.083325 2.59e-4,-0.00697 5.56e-4,-0.01396 7.36e-4,-0.020928 A 2.7791132,2.7791132 0 0 1 11.15105,9.7148769 2.7791132,2.7791132 0 0 1 7.747139,11.680178 2.7791132,2.7791132 0 0 1 5.698514,8.7479226 c -6.9e-5,0.025949 1.15e-4,0.051936 7.35e-4,0.077899 0.0092,-0.1854954 0.037,-0.3696022 0.08294,-0.5495555 0.02333,-0.087045 0.05053,-0.1718725 0.08139,-0.2546248 0.04147,-0.1111744 0.09012,-0.2180478 0.144171,-0.3208971 a 2.7791132,2.7791132 0 0 1 0.129444,-0.2131561 2.7791132,2.7791132 0 0 1 0.05155,-0.084488 2.7791132,2.7791132 0 0 1 0.15541,-0.1949409 c 0.02162,-0.025632 0.0403,-0.053906 0.06278,-0.078674 A 2.7791132,2.7791132 0 0 1 6.654969,6.8880372 2.7791132,2.7791132 0 0 1 6.904168,6.6996847 c 0.02719,-0.018488 0.05512,-0.035585 0.08294,-0.053096 A 2.7791132,2.7791132 0 0 1 7.180111,6.5357476 c 0.03032,-0.015867 0.06056,-0.032146 0.09146,-0.046894 a 2.7791132,2.7791132 0 0 1 0.286405,-0.1197551 2.7791132,2.7791132 0 0 1 0.325548,-0.090688 2.7791132,2.7791132 0 0 1 0.332911,-0.05077 h 3.97e-4 3.97e-4 3.96e-4 a 2.7791132,2.7791132 0 0 1 0.03798,-0.00117 2.7791132,2.7791132 0 0 1 0.299582,-0.00853 z m -0.08875,0.197654 V 8.6157669 A 0.29764365,0.29764365 0 0 0 8.268036,8.8963578 0.29764365,0.29764365 0 0 0 8.565679,9.1940015 0.29764365,0.29764365 0 0 0 8.863323,8.8963578 0.29764365,0.29764365 0 0 0 8.664894,8.6157669 V 6.4229701 c -0.03882,-0.00301 -0.07758,-0.00532 -0.116266,-0.00658 -0.02727,-6.962e-4 -0.05467,-9.283e-4 -0.08216,-7.698e-4 z m -0.200367,0.00891 -0.0059,3.969e-4 c -0.0107,2.58e-4 -0.02121,3.969e-4 -0.03178,7.698e-4 -0.0011,4.06e-5 -0.0024,3.372e-4 -0.0035,3.968e-4 -0.100707,0.00953 -0.200682,0.025225 -0.29958,0.046507 -0.1026,0.021959 -0.203716,0.049923 -0.302682,0.0841 -0.08922,0.031584 -0.177804,0.068847 -0.264314,0.1108413 -0.02627,0.012543 -0.05471,0.02759 -0.08643,0.044181 -0.06124,0.031976 -0.120708,0.066014 -0.17905,0.1027025 -0.02913,0.018333 -0.05512,0.034256 -0.07712,0.04922 -0.06914,0.046378 -0.135562,0.095511 -0.199203,0.1476422 H 7.474222 V 7.2097032 H 6.603383 c -0.01674,0.017464 -0.03335,0.035168 -0.04961,0.053095 -0.0044,0.00489 -0.04229,0.05447 -0.05813,0.073249 l -7.36e-4,0.00117 -0.0012,0.00155 c -0.0199,0.022783 -0.03942,0.045908 -0.05851,0.069367 h 0.0469 v 0.198429 H 6.296069 c -0.04024,0.060522 -0.0778,0.1227116 -0.112779,0.1864148 -2.59e-4,4.962e-4 -5.16e-4,0.00105 -7.36e-4,0.00155 l -7.36e-4,0.00155 c -0.0016,0.00297 -0.0031,0.00594 -0.0046,0.00891 H 7.077511 V 8.0034171 H 6.084203 c -0.01207,0.028924 -0.02351,0.058119 -0.03449,0.087588 -0.0136,0.036492 -0.02666,0.073442 -0.03875,0.1108467 h 0.07441 v 0.198429 H 5.956704 c -0.03205,0.143119 -0.05202,0.2885983 -0.05929,0.4352263 h -0.0066 c -0.0034,0.05359 -0.0049,0.1069616 -0.005,0.1600611 h 0.993308 v 0.198429 H 5.893178 c 0.0051,0.066744 0.01272,0.1329263 0.02287,0.1984291 H 6.482269 V 9.5908561 H 5.954804 c 0.01586,0.067068 0.03436,0.1332567 0.05543,0.1984291 H 6.28385 v 0.198429 H 6.083483 c 0.08894,0.2135228 0.20605,0.4137288 0.347638,0.5952878 h 0.844874 v 0.198429 H 6.602809 c 0.06697,0.06991 0.137959,0.136187 0.212769,0.198429 h 0.06356 v 0.05116 c 0.06366,0.04964 0.129853,0.09656 0.198429,0.140296 v -0.191444 h 0.992146 v 0.198429 H 7.088806 c 0.215105,0.135631 0.453303,0.24125 0.710005,0.310045 0.223245,0.05983 0.447352,0.08876 0.66776,0.08914 v -0.597612 h 0.595287 v 0.528627 c 0.135962,-0.03221 0.268662,-0.0757 0.396798,-0.129056 v -0.399571 h 0.198429 v 0.306945 C 9.796707,11.214259 9.9296,11.12905 10.053943,11.032194 v -0.05232 h 0.06511 c 0.01985,-0.01652 0.03954,-0.03325 0.05891,-0.05038 L 9.657096,10.408612 v 0.37283 H 9.061808 V 9.9877251 H 9.236209 L 8.66495,9.4164638 V 9.5908644 H 6.680659 V 9.3924353 h 1.885076 c -0.273745,0 -0.496072,-0.2223275 -0.496072,-0.4960728 0,-0.1621177 0.07798,-0.3063066 0.198429,-0.3968581 V 7.6065734 H 6.680659 V 7.4081443 H 8.268092 V 6.4245251 Z m 0.299581,2.9679106 h 0.07519 l -0.005,-0.00504 c -0.02295,0.00325 -0.0463,0.00504 -0.07015,0.00504 z M 7.672749,7.0112782 H 8.069607 V 7.2097073 H 7.672749 Z M 6.283745,8.2018528 H 7.27589 V 8.4002819 H 6.283745 Z m 2.281934,0.5952873 a 0.09921455,0.09921455 0 0 1 0.09922,0.099214 0.09921455,0.09921455 0 0 1 -0.09922,0.099215 0.09921455,0.09921455 0 0 1 -0.09921,-0.099215 0.09921455,0.09921455 0 0 1 0.09921,-0.099214 z M 7.077462,8.9955692 H 7.474319 V 9.1939983 H 7.077462 Z M 8.97959,9.1699697 C 8.94272,9.2256057 8.89493,9.2733929 8.839294,9.3102654 l 1.482018,1.4820176 c 0.04598,-0.04746 0.09015,-0.0969 0.132545,-0.148047 z M 6.482175,9.7892855 H 7.474319 V 9.9877147 H 6.482175 Z m 1.190574,0 H 8.069607 V 9.9877147 H 7.672749 Z M 8.466465,9.9877147 H 8.664894 V 10.781431 H 8.466465 Z m 0.793716,0.1984293 v 0.396858 H 9.45861 v -0.37283 l -0.02403,-0.02403 z m -1.785862,0.396858 h 0.396859 v 0.198429 H 7.474319 Z m 1.190575,0.595288 v 0.391819 c 0.06667,-0.005 0.132849,-0.0127 0.198429,-0.02287 v -0.368954 z"
     style="opacity:0.3;fill:#000000;fill-opacity:1;stroke-width:0.198429" />
  <path
     id="path5-7"
     d="M 8.466855,4.4978367 A 3.9701619,3.9701619 0 0 0 8.060308,4.5179897 L 7.965358,5.13343 A 3.3746376,3.3746376 0 0 0 7.233651,5.3291462 L 6.845319,4.8447001 A 3.9701619,3.9701619 0 0 0 6.202362,5.2124915 c -0.02064,0.013103 -0.04122,0.026438 -0.06162,0.039919 l 0.22517,0.5778473 A 3.3746376,3.3746376 0 0 0 5.828371,6.3650861 L 5.254013,6.141466 A 3.9701619,3.9701619 0 0 0 4.918775,6.7061362 c -0.02482,0.046399 -0.04874,0.093335 -0.0717,0.1406832 L 5.327646,7.2320509 A 3.3746376,3.3746376 0 0 0 5.206728,7.5928662 3.3746376,3.3746376 0 0 0 5.133478,7.9653083 l -0.614277,0.094564 a 3.9701619,3.9701619 0 0 0 -0.0027,0.7960418 c 5.1e-4,0.0057 0.0011,0.011357 0.0016,0.017053 l 0.615441,0.094564 c 4.64e-4,0.00292 0.0011,0.00593 0.0016,0.00891 a 3.3746376,3.3746376 0 0 0 0.19378,0.7224061 l 3.87e-4,3.968e-4 -0.41236,0.330585 -0.07209,0.05775 c 0.111373,0.248148 0.248076,0.484357 0.407709,0.704578 l 0.577847,-0.22517 c 0.0025,0.0031 0.0048,0.0062 0.0074,0.0093 a 3.3746376,3.3746376 0 0 0 0.52359,0.525527 c 0.0013,0.0011 0.0026,0.002 0.0039,0.0031 l -0.161998,0.415461 -0.06162,0.158511 c 0.22055,0.159463 0.456911,0.295826 0.705354,0.406934 l 0.385231,-0.48057 c 0.118028,0.04707 0.238622,0.08744 0.361203,0.120918 0.122649,0.03138 0.247046,0.05584 0.372442,0.07325 l 0.09418,0.614277 c 0.270406,0.02824 0.542997,0.0286 0.813482,0.0012 l 0.09416,-0.615444 c 0.250476,-0.03757 0.495923,-0.103227 0.731708,-0.195716 l 0.388258,0.484442 c 0.24817,-0.111393 0.484341,-0.248048 0.704578,-0.40771 l -0.06162,-0.158123 -0.163549,-0.419336 c 9.05e-4,-7.36e-4 0.0018,-0.0016 0.0027,-0.0023 a 3.3746376,3.3746376 0 0 0 0.522436,-0.517002 c 0.0044,-0.0053 0.0085,-0.01066 0.01279,-0.01589 l 0.574359,0.22362 c 0.159445,-0.220546 0.295808,-0.456907 0.406918,-0.705352 l -0.07209,-0.05775 -0.408872,-0.3274856 c 0.02506,-0.067534 0.100246,-0.2922987 0.120917,-0.3612024 0.03139,-0.1226752 0.05583,-0.2470196 0.07325,-0.3724424 L 12.4138,8.8730086 c 0.01768,-0.1693997 0.02437,-0.339759 0.02015,-0.5100247 A 3.9701619,3.9701619 0 0 0 12.41496,8.0595269 L 11.799522,7.9653219 A 3.3746376,3.3746376 0 0 0 11.603806,7.2336146 l 0.484833,-0.3883318 c -0.02309,-0.047369 -0.04713,-0.09427 -0.07209,-0.1406832 A 3.9701619,3.9701619 0 0 0 11.68093,6.1407041 L 11.103082,6.3658745 A 3.3746376,3.3746376 0 0 0 10.567867,5.8279291 l 0.224008,-0.5739717 a 3.9701619,3.9701619 0 0 0 -3.97e-4,0 c -0.02047,-0.013447 -0.04089,-0.026847 -0.06161,-0.039919 A 3.9701619,3.9701619 0 0 0 10.086135,4.8470222 L 9.701292,5.3275926 A 3.3746376,3.3746376 0 0 0 9.340089,5.2066749 3.3746376,3.3746376 0 0 0 8.967647,5.1334269 L 8.873467,4.5191494 A 3.9701619,3.9701619 0 0 0 8.46692,4.4978334 Z m 0.08836,1.1909621 c 0.208776,0.00685 0.420102,0.03702 0.630555,0.093401 a 2.7791132,2.7791132 0 0 1 0.336011,0.1158797 c 0.01751,0.0072 0.03539,0.013781 0.05271,0.021315 a 2.7791132,2.7791132 0 0 1 0.297255,0.1523099 c 0.02081,0.012229 0.04156,0.024465 0.06201,0.037205 a 2.7791132,2.7791132 0 0 1 0.149209,0.1050279 c 0.07273,0.052292 0.143812,0.1063283 0.210831,0.1650992 a 2.7791132,2.7791132 0 0 1 0.110841,0.1042526 c 0.06471,0.063349 0.126334,0.1295822 0.184477,0.1988167 a 2.7791132,2.7791132 0 0 1 0.09108,0.1135542 c 0.05608,0.074369 0.107759,0.1520165 0.156184,0.231759 a 2.7791132,2.7791132 0 0 1 0.07054,0.1193675 c 0.04609,0.085217 0.08575,0.1738783 0.122856,0.2639263 a 2.7791132,2.7791132 0 0 1 0.05697,0.1375827 c 0.0096,0.027303 0.01841,0.054889 0.02712,0.082549 a 2.7791132,2.7791132 0 0 1 0.07984,0.3092704 c 0.005,0.026084 0.0077,0.052748 0.01202,0.079062 a 2.7791132,2.7791132 0 0 1 0.03062,0.2705145 c 0.0018,0.027835 0.0053,0.055304 0.0062,0.083325 2.59e-4,-0.00697 5.56e-4,-0.01396 7.36e-4,-0.020928 A 2.7791132,2.7791132 0 0 1 11.15105,9.1857231 2.7791132,2.7791132 0 0 1 7.747139,11.151024 2.7791132,2.7791132 0 0 1 5.698514,8.2187688 c -6.9e-5,0.025949 1.15e-4,0.051936 7.35e-4,0.077899 0.0092,-0.1854954 0.037,-0.3696022 0.08294,-0.5495555 0.02333,-0.087045 0.05053,-0.1718725 0.08139,-0.2546248 0.04147,-0.1111744 0.09012,-0.2180478 0.144171,-0.3208971 a 2.7791132,2.7791132 0 0 1 0.129444,-0.2131561 2.7791132,2.7791132 0 0 1 0.05155,-0.084488 2.7791132,2.7791132 0 0 1 0.15541,-0.1949409 c 0.02162,-0.025632 0.0403,-0.053906 0.06278,-0.078674 A 2.7791132,2.7791132 0 0 1 6.654969,6.3588834 2.7791132,2.7791132 0 0 1 6.904168,6.1705309 c 0.02719,-0.018488 0.05512,-0.035585 0.08294,-0.053096 A 2.7791132,2.7791132 0 0 1 7.180111,6.0065938 c 0.03032,-0.015867 0.06056,-0.032146 0.09146,-0.046894 a 2.7791132,2.7791132 0 0 1 0.286405,-0.1197551 2.7791132,2.7791132 0 0 1 0.325548,-0.090688 2.7791132,2.7791132 0 0 1 0.332911,-0.05077 h 3.97e-4 3.97e-4 3.96e-4 a 2.7791132,2.7791132 0 0 1 0.03798,-0.00117 2.7791132,2.7791132 0 0 1 0.299582,-0.00853 z m -0.08875,0.197654 V 8.0866131 A 0.29764365,0.29764365 0 0 0 8.268036,8.367204 0.29764365,0.29764365 0 0 0 8.565679,8.6648477 0.29764365,0.29764365 0 0 0 8.863323,8.367204 0.29764365,0.29764365 0 0 0 8.664894,8.0866131 V 5.8938163 c -0.03882,-0.00301 -0.07758,-0.00532 -0.116266,-0.00658 -0.02727,-6.962e-4 -0.05467,-9.283e-4 -0.08216,-7.698e-4 z m -0.200367,0.00891 -0.0059,3.969e-4 c -0.0107,2.58e-4 -0.02121,3.969e-4 -0.03178,7.698e-4 -0.0011,4.06e-5 -0.0024,3.372e-4 -0.0035,3.968e-4 -0.100707,0.00953 -0.200682,0.025225 -0.29958,0.046507 -0.1026,0.021959 -0.203716,0.049923 -0.302682,0.0841 -0.08922,0.031584 -0.177804,0.068847 -0.264314,0.1108413 -0.02627,0.012543 -0.05471,0.02759 -0.08643,0.044181 -0.06124,0.031976 -0.120708,0.066014 -0.17905,0.1027025 -0.02913,0.018333 -0.05512,0.034256 -0.07712,0.04922 -0.06914,0.046378 -0.135562,0.095511 -0.199203,0.1476422 H 7.474222 V 6.6805494 H 6.603383 c -0.01674,0.017464 -0.03335,0.035168 -0.04961,0.053095 -0.0044,0.00489 -0.04229,0.05447 -0.05813,0.073249 l -7.36e-4,0.00117 -0.0012,0.00155 c -0.0199,0.022783 -0.03942,0.045908 -0.05851,0.069367 h 0.0469 v 0.198429 H 6.296069 c -0.04024,0.060522 -0.0778,0.1227116 -0.112779,0.1864148 -2.59e-4,4.962e-4 -5.16e-4,0.00105 -7.36e-4,0.00155 l -7.36e-4,0.00155 c -0.0016,0.00297 -0.0031,0.00594 -0.0046,0.00891 H 7.077511 V 7.4742633 H 6.084203 c -0.01207,0.028924 -0.02351,0.058119 -0.03449,0.087588 -0.0136,0.036492 -0.02666,0.073442 -0.03875,0.1108467 h 0.07441 V 7.871127 H 5.956704 c -0.03205,0.143119 -0.05202,0.2885983 -0.05929,0.4352263 h -0.0066 c -0.0034,0.05359 -0.0049,0.1069616 -0.005,0.1600611 h 0.993308 v 0.198429 H 5.893178 c 0.0051,0.066744 0.01272,0.1329263 0.02287,0.1984291 H 6.482269 V 9.0617023 H 5.954804 c 0.01586,0.067068 0.03436,0.1332567 0.05543,0.1984291 H 6.28385 v 0.198429 H 6.083483 c 0.08894,0.2135228 0.20605,0.4137284 0.347638,0.5952876 h 0.844874 v 0.198429 H 6.602809 c 0.06697,0.06991 0.137959,0.136187 0.212769,0.198429 h 0.06356 v 0.05116 c 0.06366,0.04964 0.129853,0.09656 0.198429,0.140296 v -0.191444 h 0.992146 v 0.198429 H 7.088806 c 0.215105,0.135631 0.453303,0.24125 0.710005,0.310045 0.223245,0.05983 0.447352,0.08876 0.66776,0.08914 v -0.597612 h 0.595287 v 0.528627 c 0.135962,-0.03221 0.268662,-0.0757 0.396798,-0.129056 v -0.399571 h 0.198429 v 0.306945 c 0.139622,-0.07256 0.272515,-0.157769 0.396858,-0.254625 v -0.05232 h 0.06511 c 0.01985,-0.01652 0.03954,-0.03325 0.05891,-0.05038 L 9.657096,9.8794578 V 10.252288 H 9.061808 V 9.4585713 H 9.236209 L 8.66495,8.88731 V 9.0617106 H 6.680659 V 8.8632815 h 1.885076 c -0.273745,0 -0.496072,-0.2223275 -0.496072,-0.4960728 0,-0.1621177 0.07798,-0.3063066 0.198429,-0.3968581 V 7.0774196 H 6.680659 V 6.8789905 H 8.268092 V 5.8953713 Z m 0.299581,2.9679106 h 0.07519 l -0.005,-0.00504 c -0.02295,0.00325 -0.0463,0.00504 -0.07015,0.00504 z M 7.672749,6.4821244 H 8.069607 V 6.6805535 H 7.672749 Z M 6.283745,7.672699 H 7.27589 V 7.8711281 H 6.283745 Z m 2.281934,0.5952873 a 0.09921455,0.09921455 0 0 1 0.09922,0.099214 0.09921455,0.09921455 0 0 1 -0.09922,0.099215 0.09921455,0.09921455 0 0 1 -0.09921,-0.099215 0.09921455,0.09921455 0 0 1 0.09921,-0.099214 z M 7.077462,8.4664154 H 7.474319 V 8.6648445 H 7.077462 Z M 8.97959,8.6408159 C 8.94272,8.6964519 8.89493,8.7442391 8.839294,8.7811116 l 1.482018,1.4820174 c 0.04598,-0.04746 0.09015,-0.0969 0.132545,-0.148047 z M 6.482175,9.2601317 H 7.474319 V 9.4585609 H 6.482175 Z m 1.190574,0 H 8.069607 V 9.4585609 H 7.672749 Z M 8.466465,9.4585609 H 8.664894 V 10.252277 H 8.466465 Z M 9.260181,9.6569898 V 10.053848 H 9.45861 V 9.6810186 L 9.43458,9.6569906 Z M 7.474319,10.053848 h 0.396859 v 0.198429 H 7.474319 Z m 1.190575,0.595288 v 0.391819 c 0.06667,-0.005 0.132849,-0.0127 0.198429,-0.02287 v -0.368954 z"
     style="fill:currentColor;stroke-width:0.198429"
     class="ColorScheme-Text" />
  <path
     id="gradient-path1"
     style="opacity:0.3;baseline-shift:baseline;display:inline;overflow:visible;vector-effect:none;enable-background:accumulate;stop-color:#000000;stop-opacity:1;fill:url(#linearGradient4)"
     d="M 8.4453131 1.2753492 C 4.4913166 1.2753492 1.2794833 4.4784283 1.2794833 8.4236094 C 1.2794833 12.36879 4.4913166 15.572386 8.4453131 15.572386 C 12.39931 15.572386 15.611143 12.36879 15.611143 8.4236094 C 15.611143 4.4784283 12.39931 1.2753492 8.4453131 1.2753492 z " />
</svg>
