<?xml version='1.0' encoding='UTF-8'?>
<svg xmlns:inkscape="http://www.inkscape.org/namespaces/inkscape" xmlns:sodipodi="http://sodipodi.sourceforge.net/DTD/sodipodi-0.dtd" xmlns="http://www.w3.org/2000/svg" xmlns:svg="http://www.w3.org/2000/svg" xmlns:rdf="http://www.w3.org/1999/02/22-rdf-syntax-ns#" xmlns:cc="http://creativecommons.org/ns#" xmlns:dc="http://purl.org/dc/elements/1.1/" width="64" height="64" version="1.1" viewBox="0 0 16.933 16.933" id="svg7" sodipodi:docname="kde.svg" inkscape:version="1.4.2 (ebf0e940d0, 2025-05-08)">
  <sodipodi:namedview id="namedview7" pagecolor="#9c4444" bordercolor="#000000" borderopacity="0.25" inkscape:showpageshadow="2" inkscape:pageopacity="0.0" inkscape:pagecheckerboard="0" inkscape:deskcolor="#d1d1d1" inkscape:zoom="4.3531261" inkscape:cx="112.56279" inkscape:cy="27.566396" inkscape:window-width="2560" inkscape:window-height="1376" inkscape:window-x="0" inkscape:window-y="0" inkscape:window-maximized="1" inkscape:current-layer="svg7" showgrid="false"/>
  <defs id="defs2">
    <filter style="color-interpolation-filters:sRGB;" inkscape:label="Blur" id="filter3" x="-0.10843471" y="-0.10870992" width="1.2168694" height="1.2174198">
      <feGaussianBlur stdDeviation="0.5 0.5" result="blur" id="feGaussianBlur3"/>
    </filter>
    <style id="current-color-scheme" type="text/css">.ColorScheme-Text {color:#d8dee9} .ColorScheme-Highlight {color:#3b4252}</style>
  <linearGradient id="linearGradient3" inkscape:collect="always">
      <stop style="stop-color:#000000;stop-opacity:1;" offset="0" id="stop3"/>
      <stop style="stop-color:#000000;stop-opacity:0;" offset="1" id="stop4"/>
    </linearGradient>
    <linearGradient xmlns:xlink="http://www.w3.org/1999/xlink" inkscape:collect="always" xlink:href="#linearGradient3" id="linearGradient4" x1="13.512321" y1="13.490874" x2="3.3783066" y2="3.3568602" gradientUnits="userSpaceOnUse"/>
  </defs>
  <metadata id="metadata2">
    <rdf:RDF>
      <cc:Work rdf:about="">
        <dc:format>image/svg+xml</dc:format>
        <dc:type rdf:resource="http://purl.org/dc/dcmitype/StillImage"/>
      </cc:Work>
    </rdf:RDF>
  </metadata>
  <ellipse style="opacity:1;fill:none;stroke:#000000;stroke-width:0.582072;stroke-dasharray:none;stroke-opacity:1;filter:url(#filter3)" id="path1-5" cx="8.4450111" cy="8.423522" rx="6.8752708" ry="6.8578653"/>
  <ellipse style="opacity:1;fill:none;stroke-width:0.58207188;stroke-opacity:1;stroke:currentColor;stroke-dasharray:none;fill-opacity:1" id="path1" cx="8.4450111" cy="8.423522" rx="6.8752708" ry="6.8578653" class="ColorScheme-Text"/>
  <ellipse style="fill:currentColor;stroke:none;stroke-width:0.285844;stroke-dasharray:none;stroke-opacity:1" id="path1-2" cx="8.4557552" cy="8.423522" rx="6.5738997" ry="6.5692253" class="ColorScheme-Highlight"/>
<path id="path24" style="opacity:0.3;fill:#000000;fill-opacity:1;stroke-width:0.264578" class="ColorScheme-Text" d="M 30.993341 -8.7311427 L 30.23764 -8.661098 L 30.23764 -5.7072211 L 30.993341 -5.858473 L 30.993341 -7.06793 L 31.900573 -5.7072211 L 32.656554 -6.0097249 L 31.673695 -7.2816919 L 32.657112 -8.5798908 L 31.865411 -8.7311427 L 30.993341 -7.4460597 L 30.993341 -8.7311427 z M 29.354965 -8.0332073 C 29.338862 -8.0326724 29.323553 -8.0264357 29.310594 -8.0133939 L 28.989672 -7.692472 C 28.960062 -7.662873 28.960062 -7.6152009 28.989672 -7.585591 L 29.321198 -7.0648603 C 29.294658 -7.0113193 29.271819 -6.9559469 29.252549 -6.8993763 L 28.650053 -6.7657053 C 28.608173 -6.7656999 28.574427 -6.7319694 28.574427 -6.6900794 L 28.574427 -6.2366027 C 28.574427 -6.1947177 28.609173 -6.1700618 28.650053 -6.1609768 L 29.252828 -6.0267477 C 29.271498 -5.9707487 29.293744 -5.9160568 29.319524 -5.862938 L 28.98716 -5.340812 C 28.96468 -5.305498 28.95755 -5.263541 28.98716 -5.2339311 L 29.307803 -4.9130092 C 29.337413 -4.8834102 29.385348 -4.8834102 29.414963 -4.9130092 L 29.93681 -5.2453726 C 29.99082 -5.2184586 30.046594 -5.1954001 30.10369 -5.1758861 L 30.23764 -4.5733901 C 30.23764 -4.5315051 30.271106 -4.4977641 30.312986 -4.4977641 L 30.766742 -4.4977641 C 30.808622 -4.4977641 30.833288 -4.5324821 30.842368 -4.5733901 L 30.976318 -5.1761651 C 31.033168 -5.1951351 31.08878 -5.2177153 31.142639 -5.2439773 L 31.662254 -4.9130092 C 31.691864 -4.8834102 31.73952 -4.8834102 31.769135 -4.9130092 L 32.090057 -5.2339311 C 32.119667 -5.2635301 32.112537 -5.3054811 32.090057 -5.340812 L 31.948293 -5.5635039 L 31.842807 -5.5213655 L 31.504025 -6.0292593 C 31.333337 -5.649718 30.956017 -5.4054189 30.539864 -5.4049964 C 29.955374 -5.4049964 29.481659 -5.8787094 29.481659 -6.4632015 C 29.482127 -6.8715305 29.717457 -7.2431511 30.086388 -7.4181535 L 30.086388 -7.7435404 C 30.035518 -7.7261124 29.985544 -7.7057217 29.937089 -7.6824257 L 29.417475 -8.0133939 C 29.399805 -8.0246499 29.380541 -8.0320712 29.361941 -8.0329282 C 29.359616 -8.0330707 29.357265 -8.0332837 29.354965 -8.0332073 z " transform="matrix(1.8517504,0,0,1.8517504,-48.226263,21.243973)"/>
  <path id="path24-3" style="fill:currentColor;stroke-width:0.264578" class="ColorScheme-Text" d="M 30.993341 -8.7311428 L 30.23764 -8.6610981 L 30.23764 -5.7072213 L 30.993341 -5.8584732 L 30.993341 -7.0679302 L 31.900573 -5.7072213 L 32.656554 -6.009725 L 31.673695 -7.2816921 L 32.657112 -8.5798909 L 31.865411 -8.7311428 L 30.993341 -7.4460599 L 30.993341 -8.7311428 z M 29.354965 -8.0332074 C 29.338862 -8.0326725 29.323553 -8.0264359 29.310594 -8.013394 L 28.989672 -7.6924721 C 28.960062 -7.6628731 28.960062 -7.615201 28.989672 -7.5855911 L 29.321198 -7.0648605 C 29.294658 -7.0113195 29.271819 -6.955947 29.252549 -6.8993764 L 28.650053 -6.7657054 C 28.608173 -6.7657 28.574427 -6.7319695 28.574427 -6.6900795 L 28.574427 -6.2366029 C 28.574427 -6.1947179 28.609173 -6.1700619 28.650053 -6.1609769 L 29.252828 -6.0267479 C 29.271498 -5.9707489 29.293744 -5.916057 29.319524 -5.8629382 L 28.98716 -5.3408122 C 28.96468 -5.3054982 28.95755 -5.2635411 28.98716 -5.2339312 L 29.307803 -4.9130093 C 29.337413 -4.8834103 29.385348 -4.8834103 29.414963 -4.9130093 L 29.93681 -5.2453728 C 29.99082 -5.2184588 30.046594 -5.1954002 30.10369 -5.1758862 L 30.23764 -4.5733902 C 30.23764 -4.5315052 30.271106 -4.4977643 30.312986 -4.4977643 L 30.766742 -4.4977643 C 30.808622 -4.4977643 30.833288 -4.5324822 30.842368 -4.5733902 L 30.976318 -5.1761653 C 31.033168 -5.1951353 31.08878 -5.2177155 31.142639 -5.2439775 L 31.662254 -4.9130093 C 31.691864 -4.8834103 31.73952 -4.8834103 31.769135 -4.9130093 L 32.090057 -5.2339312 C 32.119667 -5.2635302 32.112537 -5.3054813 32.090057 -5.3408122 L 31.948293 -5.5635041 L 31.842807 -5.5213656 L 31.504025 -6.0292594 C 31.333337 -5.6497181 30.956017 -5.405419 30.539864 -5.4049965 C 29.955374 -5.4049965 29.481659 -5.8787096 29.481659 -6.4632017 C 29.482127 -6.8715307 29.717457 -7.2431512 30.086388 -7.4181536 L 30.086388 -7.7435405 C 30.035518 -7.7261125 29.985544 -7.7057218 29.937089 -7.6824258 L 29.417475 -8.013394 C 29.399805 -8.02465 29.380541 -8.0320714 29.361941 -8.0329284 C 29.359616 -8.0330709 29.357265 -8.0332839 29.354965 -8.0332074 z " transform="matrix(1.8517504,0,0,1.8517504,-48.226263,20.714817)"/>
<path id="gradient-path1" style="opacity:0.3;baseline-shift:baseline;display:inline;overflow:visible;vector-effect:none;enable-background:accumulate;stop-color:#000000;stop-opacity:1;fill:url(#linearGradient4)" d="M 8.4453131 1.2753492 C 4.4913166 1.2753492 1.2794833 4.4784283 1.2794833 8.4236094 C 1.2794833 12.36879 4.4913166 15.572386 8.4453131 15.572386 C 12.39931 15.572386 15.611143 12.36879 15.611143 8.4236094 C 15.611143 4.4784283 12.39931 1.2753492 8.4453131 1.2753492 z "/>
</svg>
