<?xml version="1.0" encoding="UTF-8" standalone="no"?>
<svg
   width="64"
   height="64"
   version="1.1"
   viewBox="0 0 16.933 16.933"
   id="svg7"
   sodipodi:docname="kdeconnect.svg"
   inkscape:version="1.4.2 (ebf0e940d0, 2025-05-08)"
   xmlns:inkscape="http://www.inkscape.org/namespaces/inkscape"
   xmlns:sodipodi="http://sodipodi.sourceforge.net/DTD/sodipodi-0.dtd"
   xmlns:xlink="http://www.w3.org/1999/xlink"
   xmlns="http://www.w3.org/2000/svg"
   xmlns:svg="http://www.w3.org/2000/svg"
   xmlns:rdf="http://www.w3.org/1999/02/22-rdf-syntax-ns#"
   xmlns:cc="http://creativecommons.org/ns#"
   xmlns:dc="http://purl.org/dc/elements/1.1/">
  <sodipodi:namedview
     id="namedview7"
     pagecolor="#9c4444"
     bordercolor="#000000"
     borderopacity="0.25"
     inkscape:showpageshadow="2"
     inkscape:pageopacity="0.0"
     inkscape:pagecheckerboard="0"
     inkscape:deskcolor="#d1d1d1"
     inkscape:zoom="4.3531261"
     inkscape:cx="36.295755"
     inkscape:cy="26.073217"
     inkscape:window-width="1280"
     inkscape:window-height="669"
     inkscape:window-x="0"
     inkscape:window-y="0"
     inkscape:window-maximized="0"
     inkscape:current-layer="svg7"
     showgrid="false" />
  <defs
     id="defs2">
    <filter
       style="color-interpolation-filters:sRGB;"
       inkscape:label="Blur"
       id="filter3"
       x="-0.10843471"
       y="-0.10870992"
       width="1.2168694"
       height="1.2174198">
      <feGaussianBlur
         stdDeviation="0.5 0.5"
         result="blur"
         id="feGaussianBlur3" />
    </filter>
    <filter
       style="color-interpolation-filters:sRGB"
       inkscape:label="Blur"
       id="filter3-8"
       x="-0.10843471"
       y="-0.10870992"
       width="1.2168694"
       height="1.2174198">
      <feGaussianBlur
         stdDeviation="0.5 0.5"
         result="blur"
         id="feGaussianBlur3-7" />
    </filter>
    <style
       id="current-color-scheme"
       type="text/css">.ColorScheme-Text {color:#d8dee9} .ColorScheme-Highlight {color:#3b4252}</style>
    <linearGradient
       id="linearGradient4"
       inkscape:collect="always">
      <stop
         style="stop-color:#000000;stop-opacity:1;"
         offset="0"
         id="stop4" />
      <stop
         style="stop-color:#000000;stop-opacity:0;"
         offset="1"
         id="stop5" />
    </linearGradient>
    <linearGradient
       inkscape:collect="always"
       xlink:href="#linearGradient4"
       id="linearGradient5"
       x1="14.157616"
       y1="14.109557"
       x2="3.4890218"
       y2="3.440964"
       gradientUnits="userSpaceOnUse" />
  </defs>
  <metadata
     id="metadata2">
    <rdf:RDF>
      <cc:Work
         rdf:about="">
        <dc:format>image/svg+xml</dc:format>
        <dc:type
           rdf:resource="http://purl.org/dc/dcmitype/StillImage" />
      </cc:Work>
    </rdf:RDF>
  </metadata>
  <ellipse
     style="opacity:1;fill:none;stroke:#000000;stroke-width:0.582072;stroke-dasharray:none;stroke-opacity:1;filter:url(#filter3)"
     id="path1-5"
     cx="8.4450111"
     cy="8.423522"
     rx="6.8752708"
     ry="6.8578653" />
  <ellipse
     style="opacity:1;fill:none;stroke-width:0.58207188;stroke-opacity:1;stroke:currentColor;stroke-dasharray:none;fill-opacity:1"
     id="path1"
     cx="8.4450111"
     cy="8.423522"
     rx="6.8752708"
     ry="6.8578653"
     class="ColorScheme-Text" />
  <ellipse
     style="fill:currentColor;stroke:none;stroke-width:0.285728;stroke-dasharray:none;stroke-opacity:1"
     id="path1-2"
     cx="8.4450111"
     cy="8.423522"
     rx="6.5766377"
     ry="6.5612183"
     class="ColorScheme-Highlight" />
  <path
     id="rect4232"
     style="opacity:0.3;fill:#000000;fill-opacity:1;stroke-width:0.312144"
     d="m 6.297431,4.4978281 c -0.142395,0 -0.256917,0.1145249 -0.256917,0.2569186 v 8.4818203 c 0,0.142395 0.114525,0.256917 0.256917,0.256917 h 4.338137 c 0.142395,0 0.256918,-0.114525 0.256918,-0.256917 V 4.7547467 c 0,-0.1423948 -0.114525,-0.2569186 -0.256918,-0.2569186 z m 1.389477,0.3211475 h 1.559184 c 0.072,0 0.130227,0.057631 0.130227,0.1296371 v 0.061871 c 0,0.072003 -0.05821,0.1296382 -0.130227,0.1296382 H 7.686908 c -0.072,0 -0.130226,-0.057631 -0.130226,-0.1296382 v -0.061871 c 0,-0.072003 0.05821,-0.1296371 0.130226,-0.1296371 z M 6.343393,5.4612697 h 4.246213 V 12.530044 H 6.343393 Z M 8.73756,7.2667648 8.163031,7.3221558 v 2.3670604 l 0.568636,-0.08603 V 8.5943701 L 9.496529,9.7139659 10.095807,9.5236349 9.312678,8.4470547 10.101699,7.4317582 9.490635,7.2915141 8.731667,8.3068106 8.737467,7.2673544 Z M 7.435294,7.8436511 v 5.847e-4 c -0.0065,9.69e-4 -0.01341,0.00228 -0.01827,0.00707 L 7.190751,8.0775791 c -0.0095,0.00954 -0.01045,0.023873 -0.0036,0.035355 l 0.263985,0.4360532 c -0.04687,0.078783 -0.08516,0.1631954 -0.11196,0.2527928 l -0.48496,0.1007636 c -0.01349,0.00289 -0.02298,0.015648 -0.02298,0.029463 v 0.3187901 c 0,0.013493 0.0099,0.025071 0.02298,0.028284 l 0.470229,0.114316 c 0.02516,0.103738 0.06409,0.2030391 0.1155,0.2934521 L 7.167707,10.101689 c -0.0076,0.01159 -0.0064,0.02734 0.0036,0.03712 l 0.225688,0.225688 c 0.0095,0.0095 0.02447,0.01045 0.03594,0.0036 l 0.427213,-0.258686 c 0.0838,0.04838 0.174313,0.08674 0.269882,0.112549 l 0.09958,0.479069 c 0.0029,0.01353 0.01447,0.02357 0.02828,0.02357 h 0.319379 c 0.0134,0 0.02513,-0.0093 0.02829,-0.02239 l 0.117854,-0.481465 c 0.09856,-0.02661 0.190993,-0.06608 0.276953,-0.116674 l 0.421321,0.276363 c 0.01164,0.0075 0.02731,0.0063 0.03713,-0.0036 l 0.224507,-0.226239 c 0.0095,-0.0095 0.01164,-0.0239 0.0046,-0.03535 l -0.153209,-0.2527932 -0.05068,0.01591 c -0.0073,0.0019 -0.01511,-0.0016 -0.01944,-0.0077 0,0 -0.09683,-0.142433 -0.223329,-0.327629 -0.151289,0.29604 -0.460182,0.4985142 -0.815537,0.4985142 -0.504958,0 -0.914533,-0.4095711 -0.914533,-0.9145324 0,-0.3714304 0.222283,-0.6906643 0.540351,-0.8338044 V 8.0575399 c -0.05789,0.020241 -0.11361,0.044699 -0.16676,0.073657 V 8.1306126 8.1300279 L 7.453484,7.8477721 c -0.0058,-0.00375 -0.01176,-0.00474 -0.01827,-0.00412 z" />
  <path
     id="rect4232-6"
     style="fill:currentColor;fill-opacity:1;stroke-width:0.312144"
     class="ColorScheme-Text"
     d="m 6.297431,3.9686718 c -0.142395,0 -0.256917,0.1145251 -0.256917,0.2569189 V 12.70741 c 0,0.142394 0.114525,0.256918 0.256917,0.256918 h 4.338137 c 0.142395,0 0.256918,-0.114525 0.256918,-0.256918 V 4.2255907 c 0,-0.142395 -0.114525,-0.2569189 -0.256918,-0.2569189 z m 1.389477,0.3211477 h 1.559184 c 0.072,0 0.130227,0.057631 0.130227,0.1296371 v 0.061871 c 0,0.072003 -0.05821,0.1296383 -0.130227,0.1296383 H 7.686908 c -0.072,0 -0.130226,-0.057631 -0.130226,-0.1296383 v -0.061871 c 0,-0.072003 0.05821,-0.1296371 0.130226,-0.1296371 z M 6.343393,4.9321137 h 4.246213 V 12.000886 H 6.343393 Z M 8.73756,6.7376089 8.163031,6.7929999 V 9.1600606 L 8.731668,9.0740286 V 8.065214 L 9.496529,9.1848096 10.095807,8.9944785 9.312679,7.9178988 10.101699,6.9026023 9.490635,6.7623581 8.731668,7.7776547 8.737468,6.7381985 Z M 7.435294,7.3144951 v 5.848e-4 c -0.0065,9.69e-4 -0.01341,0.00228 -0.01827,0.00707 L 7.190749,7.5484232 c -0.0095,0.00954 -0.01045,0.023873 -0.0036,0.035355 l 0.263985,0.4360532 c -0.04687,0.078783 -0.08516,0.1631954 -0.11196,0.2527929 l -0.48496,0.1007634 c -0.01349,0.00289 -0.02298,0.015648 -0.02298,0.029463 v 0.3187902 c 0,0.013493 0.0099,0.025072 0.02298,0.028284 l 0.47023,0.1143159 c 0.02516,0.1037377 0.06409,0.2030385 0.115499,0.2934518 L 7.167747,9.5725333 c -0.0076,0.01159 -0.0064,0.02734 0.0036,0.03712 l 0.225688,0.225687 c 0.0095,0.0095 0.02447,0.01044 0.03594,0.0035 l 0.427216,-0.258644 c 0.0838,0.04838 0.174313,0.08674 0.269883,0.112549 l 0.09958,0.4790677 c 0.0029,0.01353 0.01447,0.02357 0.02828,0.02357 h 0.319379 c 0.0134,0 0.02513,-0.0093 0.02829,-0.02239 l 0.11785,-0.4814267 c 0.09856,-0.0266 0.190993,-0.06608 0.276953,-0.116674 l 0.421321,0.276363 c 0.01164,0.0075 0.02731,0.0063 0.03713,-0.0035 l 0.224508,-0.226277 c 0.0095,-0.0095 0.01164,-0.0239 0.0046,-0.03535 l -0.153208,-0.252793 -0.05068,0.01591 c -0.0072,0.0019 -0.01511,-0.0016 -0.01944,-0.0077 0,0 -0.09683,-0.1424326 -0.22333,-0.3276288 -0.151289,0.2960408 -0.460181,0.4985148 -0.815537,0.4985148 -0.504958,0 -0.914533,-0.409572 -0.914533,-0.9145327 0,-0.3714306 0.222284,-0.6906644 0.540352,-0.8338045 V 7.5283839 c -0.05789,0.020241 -0.113611,0.0447 -0.16676,0.073657 V 7.6014567 7.6008719 L 7.453484,7.3186162 c -0.0058,-0.00375 -0.01176,-0.00474 -0.01827,-0.00412 z" />
  <ellipse
     style="fill:none;stroke:#000000;stroke-width:0.582072;stroke-dasharray:none;stroke-opacity:1;filter:url(#filter3-8)"
     id="path1-5-7"
     cx="8.4450111"
     cy="8.423522"
     rx="6.8752708"
     ry="6.8578653"
     transform="matrix(0.4782969,0,0,0.4782969,8.9000071,8.8280171)" />
  <ellipse
     style="fill:currentColor;fill-opacity:1;stroke:currentColor;stroke-width:0.278402;stroke-dasharray:none;stroke-opacity:1"
     id="path1-59"
     cx="12.939234"
     cy="12.856965"
     rx="3.2884204"
     ry="3.2800953"
     class="ColorScheme-Text" />
  <ellipse
     style="fill:currentColor;stroke:none;stroke-width:0.246622;stroke-dasharray:none;stroke-opacity:1"
     id="path1-2-2"
     cx="12.939234"
     cy="12.856965"
     rx="2.9130225"
     ry="2.9056478"
     class="ColorScheme-Highlight" />
  <path
     id="path6-9"
     style="fill:#000000;fill-opacity:1;stroke:none;stroke-width:0.235739;stroke-dasharray:none;stroke-opacity:0.3;opacity:0.3"
     d="m 14.247143,11.773102 c -0.802859,0 -1.548823,0.320863 -2.116587,0.911186 -0.54703,0.568766 -0.807577,1.185408 -0.855475,2.024042 l -0.01795,0.314013 h 0.179566 c 0.15894,0 0.189947,-0.0087 0.265668,-0.07643 0.08181,-0.0731 0.08648,-0.08871 0.106819,-0.351307 0.0492,-0.6352 0.295317,-1.16937 0.73346,-1.5917 0.458759,-0.4422 0.955696,-0.666661 1.565916,-0.707217 0.243718,-0.0162 0.261945,-0.02144 0.345321,-0.104517 0.08008,-0.0798 0.08794,-0.10247 0.08794,-0.252775 v -0.165294 z m 0.09393,1.082926 c -0.870896,0 -1.614924,0.531864 -1.874402,1.339846 -0.05085,0.158325 -0.0737,0.299606 -0.08426,0.521666 l -0.01427,0.304803 h 0.18187 c 0.1649,0 0.189296,-0.0074 0.261063,-0.07919 0.05962,-0.05962 0.0793,-0.104744 0.07966,-0.18279 7.78e-4,-0.172838 0.07147,-0.453068 0.157927,-0.624341 0.219822,-0.435466 0.62574,-0.694392 1.179617,-0.753261 0.12659,-0.01346 0.176148,-0.03341 0.23666,-0.09393 0.06858,-0.06858 0.0769,-0.09523 0.0769,-0.254618 v -0.178188 z m -0.341177,1.057143 c -0.08418,4.48e-4 -0.173926,0.01457 -0.23712,0.04098 -0.459582,0.192026 -0.445826,0.851242 0.02165,1.037804 0.10164,0.04056 0.287246,0.03498 0.399652,-0.01197 0.293712,-0.122689 0.432702,-0.453308 0.307105,-0.729777 -0.05294,-0.116514 -0.211387,-0.271513 -0.319537,-0.312631 -0.04403,-0.01674 -0.106266,-0.02475 -0.171739,-0.02441 z" />
  <path
     id="path6"
     style="opacity:1;fill:currentColor;fill-opacity:1;stroke:none;stroke-width:0.235739;stroke-dasharray:none;stroke-opacity:0.3"
     d="m 14.247143,11.243946 c -0.802859,0 -1.548823,0.320863 -2.116587,0.911186 -0.54703,0.568766 -0.807577,1.185408 -0.855475,2.024042 l -0.01795,0.314013 h 0.179566 c 0.15894,0 0.189947,-0.0087 0.265668,-0.07643 0.08181,-0.0731 0.08648,-0.08871 0.106819,-0.351307 0.0492,-0.6352 0.295317,-1.16937 0.73346,-1.5917 0.458759,-0.4422 0.955696,-0.666661 1.565916,-0.707217 0.243718,-0.0162 0.261945,-0.02144 0.345321,-0.104517 0.08008,-0.0798 0.08794,-0.10247 0.08794,-0.252775 v -0.165294 z m 0.09393,1.082926 c -0.870896,0 -1.614924,0.531864 -1.874402,1.339846 -0.05085,0.158325 -0.0737,0.299606 -0.08426,0.521666 l -0.01427,0.304803 h 0.18187 c 0.1649,0 0.189296,-0.0074 0.261063,-0.07919 0.05962,-0.05962 0.0793,-0.104744 0.07966,-0.18279 7.78e-4,-0.172838 0.07147,-0.453068 0.157927,-0.624341 0.219822,-0.435466 0.62574,-0.694392 1.179617,-0.753261 0.12659,-0.01346 0.176148,-0.03341 0.23666,-0.09393 0.06858,-0.06858 0.0769,-0.09523 0.0769,-0.254618 v -0.178188 z m -0.341177,1.057143 c -0.08418,4.48e-4 -0.173926,0.01457 -0.23712,0.04098 -0.459582,0.192026 -0.445826,0.851242 0.02165,1.037804 0.10164,0.04056 0.287246,0.03498 0.399652,-0.01197 0.293712,-0.122689 0.432702,-0.453308 0.307105,-0.729777 -0.05294,-0.116514 -0.211387,-0.271513 -0.319537,-0.312631 -0.04403,-0.01674 -0.106266,-0.02475 -0.171739,-0.02441 z"
     class="ColorScheme-Text" />
  <path
     id="gradient-path1"
     style="opacity:0.3;baseline-shift:baseline;display:inline;overflow:visible;vector-effect:none;enable-background:accumulate;stop-color:#000000;stop-opacity:1;fill:url(#linearGradient5)"
     d="M 8.4453131 1.2753492 C 4.4913166 1.2753492 1.2794833 4.4784283 1.2794833 8.4236094 C 1.2794833 12.36879 4.4913166 15.572386 8.4453131 15.572386 C 9.1638027 15.572386 9.8576697 15.466358 10.51233 15.269568 C 11.133159 15.890536 11.991864 16.275172 12.939524 16.275172 C 14.830708 16.275172 16.367154 14.744327 16.367154 12.85736 C 16.367154 11.897867 15.969699 11.029882 15.330545 10.408462 C 15.513101 9.7781514 15.611143 9.1121932 15.611143 8.4236094 C 15.611143 4.4784283 12.39931 1.2753492 8.4453131 1.2753492 z " />
</svg>
