<?xml version="1.0" encoding="UTF-8" standalone="no"?>
<svg
   width="64"
   height="64"
   version="1.1"
   viewBox="0 0 16.933 16.933"
   id="svg7"
   sodipodi:docname="kdiff3.svg"
   inkscape:version="1.4.2 (ebf0e940d0, 2025-05-08)"
   xmlns:inkscape="http://www.inkscape.org/namespaces/inkscape"
   xmlns:sodipodi="http://sodipodi.sourceforge.net/DTD/sodipodi-0.dtd"
   xmlns:xlink="http://www.w3.org/1999/xlink"
   xmlns="http://www.w3.org/2000/svg"
   xmlns:svg="http://www.w3.org/2000/svg"
   xmlns:rdf="http://www.w3.org/1999/02/22-rdf-syntax-ns#"
   xmlns:cc="http://creativecommons.org/ns#"
   xmlns:dc="http://purl.org/dc/elements/1.1/">
  <sodipodi:namedview
     id="namedview7"
     pagecolor="#9c4444"
     bordercolor="#000000"
     borderopacity="0.25"
     inkscape:showpageshadow="2"
     inkscape:pageopacity="0.0"
     inkscape:pagecheckerboard="0"
     inkscape:deskcolor="#d1d1d1"
     inkscape:zoom="8.7062522"
     inkscape:cx="72.419221"
     inkscape:cy="15.276378"
     inkscape:window-width="2560"
     inkscape:window-height="1388"
     inkscape:window-x="0"
     inkscape:window-y="0"
     inkscape:window-maximized="1"
     inkscape:current-layer="svg7"
     showgrid="false" />
  <defs
     id="defs2">
    <filter
       style="color-interpolation-filters:sRGB;"
       inkscape:label="Blur"
       id="filter3"
       x="-0.10843471"
       y="-0.10870992"
       width="1.2168694"
       height="1.2174198">
      <feGaussianBlur
         stdDeviation="0.5 0.5"
         result="blur"
         id="feGaussianBlur3" />
    </filter>
    <style
       id="current-color-scheme"
       type="text/css">.ColorScheme-Text {color:#d8dee9} .ColorScheme-Highlight {color:#3b4252}</style>
    <linearGradient
       id="linearGradient3"
       inkscape:collect="always">
      <stop
         style="stop-color:#000000;stop-opacity:1;"
         offset="0"
         id="stop3" />
      <stop
         style="stop-color:#000000;stop-opacity:0;"
         offset="1"
         id="stop4" />
    </linearGradient>
    <linearGradient
       inkscape:collect="always"
       xlink:href="#linearGradient3"
       id="linearGradient4"
       x1="13.512321"
       y1="13.490874"
       x2="3.3783066"
       y2="3.3568602"
       gradientUnits="userSpaceOnUse" />
  </defs>
  <metadata
     id="metadata2">
    <rdf:RDF>
      <cc:Work
         rdf:about="">
        <dc:format>image/svg+xml</dc:format>
        <dc:type
           rdf:resource="http://purl.org/dc/dcmitype/StillImage" />
      </cc:Work>
    </rdf:RDF>
  </metadata>
  <ellipse
     style="opacity:1;fill:none;stroke:#000000;stroke-width:0.582072;stroke-dasharray:none;stroke-opacity:1;filter:url(#filter3)"
     id="path1-5"
     cx="8.4450111"
     cy="8.423522"
     rx="6.8752708"
     ry="6.8578653" />
  <ellipse
     style="opacity:1;fill:none;stroke-width:0.58207188;stroke-opacity:1;stroke:currentColor;stroke-dasharray:none;fill-opacity:1"
     id="path1"
     cx="8.4450111"
     cy="8.423522"
     rx="6.8752708"
     ry="6.8578653"
     class="ColorScheme-Text" />
  <ellipse
     style="fill:currentColor;stroke:none;stroke-width:0.285844;stroke-dasharray:none;stroke-opacity:1"
     id="path1-2"
     cx="8.4557552"
     cy="8.423522"
     rx="6.5738997"
     ry="6.5692253"
     class="ColorScheme-Highlight" />
  <path
     id="path5"
     d="m 5.12446,5.0269844 v 5.0130596 h 6.68408 V 5.0269844 Z M 5.542215,5.8624943 H 8.257622 V 6.2802492 H 5.542215 Z m 3.133162,0 h 2.715408 V 6.2802492 H 8.675377 Z M 5.542215,6.6980042 H 5.95997 V 6.9068816 H 5.542215 Z m 0.626633,0 H 6.79548 V 6.9068816 H 6.168848 Z m 0.83551,0 H 8.048745 V 6.9068816 H 7.004358 Z m 1.671019,0 H 9.093132 V 6.9068816 H 8.675377 Z m 0.626633,0 H 9.928642 V 6.9068816 H 9.30201 Z m 0.83551,0 h 1.044387 V 6.9068816 H 10.13752 Z M 5.542215,7.1157591 H 6.377726 V 7.3246366 H 5.542215 Z m 1.044388,0 H 7.004358 V 7.3246366 H 6.586603 Z m 2.088774,0 h 0.83551 v 0.2088775 h -0.83551 z m 1.044388,0 H 10.13752 V 7.3246366 H 9.719765 Z M 5.542215,7.951269 H 5.95997 V 8.1601465 H 5.542215 Z m 0.626633,0 H 6.79548 V 8.1601465 H 6.168848 Z m 2.506529,0 H 9.093132 V 8.1601465 H 8.675377 Z M 5.542215,8.3690239 H 5.95997 V 8.5779014 H 5.542215 Z m 0.626633,0 H 7.213235 V 8.5779014 H 6.168848 Z m 1.253264,0 H 8.048745 V 8.5779014 H 7.422112 Z m 1.253265,0 H 9.093132 V 8.5779014 H 8.675377 Z m 0.626633,0 h 1.044387 V 8.5779014 H 9.30201 Z m 1.253264,0 h 0.626632 v 0.2088775 h -0.626632 z m -5.013059,0.83551 H 6.79548 V 9.4134113 H 5.542215 Z m 1.462143,0 H 7.63099 V 9.4134113 H 7.004358 Z m 1.671019,0 H 9.928642 V 9.4134113 H 8.675377 Z M 5.542215,9.6222888 H 6.586603 V 9.8311662 H 5.542215 Z m 1.253265,0 H 7.839868 V 9.8311662 H 6.79548 Z m 1.879897,0 H 9.719765 V 9.8311662 H 8.675377 Z m 1.253265,0 h 1.044387 V 9.8311662 H 9.928642 Z M 4.28895,10.040044 v 2.924284 h 8.3551 v -2.924284 h -0.626633 v 0.208877 H 4.915583 v -0.208877 z m 5.639692,0.417755 v 0.417346 h 2.088775 v 0.83551 H 9.928642 v 0.426322 L 8.4665,11.293308 Z M 7.004358,10.875554 8.4665,11.711471 7.004358,12.55514 V 12.128818 H 4.915583 v -0.83551 h 2.088775 z"
     style="opacity:0.3;fill:#000000;fill-opacity:1;stroke-width:0.208878" />
  <path
     id="path5-7"
     d="m 5.12446,4.4978281 v 5.0130592 h 6.68408 V 4.4978281 Z M 5.542215,5.333338 H 8.257622 V 5.7510929 H 5.542215 Z m 3.133162,0 h 2.715408 V 5.7510929 H 8.675377 Z M 5.542215,6.1688479 H 5.95997 V 6.3777253 H 5.542215 Z m 0.626633,0 H 6.79548 V 6.3777253 H 6.168848 Z m 0.83551,0 H 8.048745 V 6.3777253 H 7.004358 Z m 1.671019,0 H 9.093132 V 6.3777253 H 8.675377 Z m 0.626633,0 H 9.928642 V 6.3777253 H 9.30201 Z m 0.83551,0 h 1.044387 V 6.3777253 H 10.13752 Z M 5.542215,6.5866028 H 6.377726 V 6.7954803 H 5.542215 Z m 1.044388,0 H 7.004358 V 6.7954803 H 6.586603 Z m 2.088774,0 h 0.83551 v 0.2088775 h -0.83551 z m 1.044388,0 H 10.13752 V 6.7954803 H 9.719765 Z M 5.542215,7.4221127 H 5.95997 V 7.6309902 H 5.542215 Z m 0.626633,0 H 6.79548 V 7.6309902 H 6.168848 Z m 2.506529,0 H 9.093132 V 7.6309902 H 8.675377 Z M 5.542215,7.8398676 H 5.95997 V 8.0487451 H 5.542215 Z m 0.626633,0 H 7.213235 V 8.0487451 H 6.168848 Z m 1.253264,0 H 8.048745 V 8.0487451 H 7.422112 Z m 1.253265,0 H 9.093132 V 8.0487451 H 8.675377 Z m 0.626633,0 h 1.044387 V 8.0487451 H 9.30201 Z m 1.253264,0 h 0.626632 v 0.2088775 h -0.626632 z m -5.013059,0.83551 H 6.79548 V 8.884255 H 5.542215 Z m 1.462143,0 H 7.63099 V 8.884255 H 7.004358 Z m 1.671019,0 H 9.928642 V 8.884255 H 8.675377 Z M 5.542215,9.0931325 H 6.586603 V 9.3020099 H 5.542215 Z m 1.253265,0 H 7.839868 V 9.3020099 H 6.79548 Z m 1.879897,0 H 9.719765 V 9.3020099 H 8.675377 Z m 1.253265,0 h 1.044387 V 9.3020099 H 9.928642 Z M 4.28895,9.5108873 v 2.9242847 h 8.3551 V 9.5108873 H 12.017417 V 9.7197648 H 4.915583 V 9.5108873 Z m 5.639692,0.4177551 v 0.4173466 h 2.088775 v 0.83551 H 9.928642 v 0.426322 L 8.4665,10.764152 Z M 7.004358,10.346398 8.4665,11.182315 7.004358,12.025984 V 11.599662 H 4.915583 v -0.83551 h 2.088775 z"
     style="fill:currentColor;stroke-width:0.208878"
     class="ColorScheme-Text" />
  <path
     id="gradient-path1"
     style="opacity:0.3;baseline-shift:baseline;display:inline;overflow:visible;vector-effect:none;enable-background:accumulate;stop-color:#000000;stop-opacity:1;fill:url(#linearGradient4)"
     d="M 8.4453131 1.2753492 C 4.4913166 1.2753492 1.2794833 4.4784283 1.2794833 8.4236094 C 1.2794833 12.36879 4.4913166 15.572386 8.4453131 15.572386 C 12.39931 15.572386 15.611143 12.36879 15.611143 8.4236094 C 15.611143 4.4784283 12.39931 1.2753492 8.4453131 1.2753492 z " />
</svg>
