<?xml version='1.0' encoding='UTF-8'?>
<svg xmlns:inkscape="http://www.inkscape.org/namespaces/inkscape" xmlns:sodipodi="http://sodipodi.sourceforge.net/DTD/sodipodi-0.dtd" xmlns="http://www.w3.org/2000/svg" xmlns:svg="http://www.w3.org/2000/svg" xmlns:rdf="http://www.w3.org/1999/02/22-rdf-syntax-ns#" xmlns:cc="http://creativecommons.org/ns#" xmlns:dc="http://purl.org/dc/elements/1.1/" width="64" height="64" version="1.1" viewBox="0 0 16.933 16.933" id="svg7" sodipodi:docname="kitty.svg" inkscape:version="1.4.2 (ebf0e940d0, 2025-05-08)">
  <sodipodi:namedview id="namedview7" pagecolor="#9c4444" bordercolor="#000000" borderopacity="0.25" inkscape:showpageshadow="2" inkscape:pageopacity="0.0" inkscape:pagecheckerboard="0" inkscape:deskcolor="#d1d1d1" inkscape:zoom="12.3125" inkscape:cx="76.345178" inkscape:cy="17.543147" inkscape:window-width="2560" inkscape:window-height="1376" inkscape:window-x="0" inkscape:window-y="0" inkscape:window-maximized="1" inkscape:current-layer="svg7" showgrid="false"/>
  <defs id="defs2">
    <filter style="color-interpolation-filters:sRGB;" inkscape:label="Blur" id="filter3" x="-0.10843471" y="-0.10870992" width="1.2168694" height="1.2174198">
      <feGaussianBlur stdDeviation="0.5 0.5" result="blur" id="feGaussianBlur3"/>
    </filter>
    <style id="current-color-scheme" type="text/css">.ColorScheme-Text {color:#d8dee9} .ColorScheme-Highlight {color:#3b4252}</style>
  <linearGradient id="linearGradient3" inkscape:collect="always">
      <stop style="stop-color:#000000;stop-opacity:1;" offset="0" id="stop3"/>
      <stop style="stop-color:#000000;stop-opacity:0;" offset="1" id="stop4"/>
    </linearGradient>
    <linearGradient xmlns:xlink="http://www.w3.org/1999/xlink" inkscape:collect="always" xlink:href="#linearGradient3" id="linearGradient4" x1="13.512321" y1="13.490874" x2="3.3783066" y2="3.3568602" gradientUnits="userSpaceOnUse"/>
  </defs>
  <metadata id="metadata2">
    <rdf:RDF>
      <cc:Work rdf:about="">
        <dc:format>image/svg+xml</dc:format>
        <dc:type rdf:resource="http://purl.org/dc/dcmitype/StillImage"/>
      </cc:Work>
    </rdf:RDF>
  </metadata>
  <ellipse style="opacity:1;fill:none;stroke:#000000;stroke-width:0.582072;stroke-dasharray:none;stroke-opacity:1;filter:url(#filter3)" id="path1-5" cx="8.4450111" cy="8.423522" rx="6.8752708" ry="6.8578653"/>
  <ellipse style="opacity:1;fill:none;stroke-width:0.58207188;stroke-opacity:1;stroke:currentColor;stroke-dasharray:none;fill-opacity:1" id="path1" cx="8.4450111" cy="8.423522" rx="6.8752708" ry="6.8578653" class="ColorScheme-Text"/>
  <ellipse style="fill:currentColor;stroke:none;stroke-width:0.285844;stroke-dasharray:none;stroke-opacity:1" id="path1-2" cx="8.4557552" cy="8.423522" rx="6.5738997" ry="6.5692253" class="ColorScheme-Highlight"/>
<path id="path4" style="opacity:0.3;fill:#000000;fill-opacity:1;stroke-width:0.029176" d="M 25.140943 2.38037 C 25.007504 2.39395 24.95754 2.4425162 24.86448 2.5353962 C 24.84474 2.5563362 24.825246 2.5770767 24.806086 2.5974067 C 24.731104 2.6708337 24.659031 2.7418926 24.599901 2.8289126 C 24.584861 2.9274986 24.584861 2.9271055 24.599901 3.0035755 C 24.644213 3.0735385 24.674007 3.0874601 24.753377 3.1095101 C 24.84406 3.0888961 24.843852 3.0888137 24.937342 2.9927237 C 25.005071 2.9167087 25.060509 2.8695826 25.154379 2.8289126 C 25.172159 2.8484426 25.189311 2.8673123 25.206571 2.8862723 C 25.241851 2.9235623 25.242269 2.9236081 25.276849 2.9601681 C 25.345568 3.0340201 25.3452 3.0339837 25.41689 3.0914237 C 25.502136 3.1025737 25.54271 3.1037414 25.61584 3.0583514 C 25.65049 3.0036444 25.650285 3.0036724 25.664415 2.9260624 C 25.646511 2.8026074 25.646525 2.8028983 25.515073 2.6697523 C 25.495953 2.6513323 25.477307 2.6333731 25.458747 2.6154931 C 25.358478 2.5114041 25.276904 2.4341667 25.140943 2.3808867 L 25.140943 2.38037 z M 28.349986 2.38037 C 28.216547 2.39395 28.166583 2.4425162 28.073523 2.5353962 C 28.053773 2.5563362 28.034806 2.5770767 28.015646 2.5974067 C 27.940664 2.6708337 27.868591 2.7418926 27.809461 2.8289126 C 27.794421 2.9274986 27.794421 2.9271055 27.809461 3.0035755 C 27.853773 3.0735385 27.883051 3.0874601 27.962421 3.1095101 C 28.053105 3.0888961 28.053412 3.0888137 28.146902 2.9927237 C 28.214631 2.9167087 28.270069 2.8695826 28.363939 2.8289126 C 28.381729 2.8484426 28.398871 2.8673123 28.416131 2.8862723 C 28.451411 2.9235623 28.451313 2.9236081 28.485893 2.9601681 C 28.554613 3.0340201 28.55476 3.0339837 28.62645 3.0914237 C 28.711696 3.1025737 28.75227 3.1037414 28.8254 3.0583514 C 28.86005 3.0036444 28.859845 3.0036724 28.873975 2.9260624 C 28.85607 2.8026074 28.856084 2.8028983 28.724633 2.6697523 C 28.705513 2.6513323 28.686867 2.6333731 28.668307 2.6154931 C 28.568039 2.5114041 28.485948 2.4341667 28.349986 2.3808867 L 28.349986 2.38037 z M 22.954039 2.7886058 C 22.87896 2.7997058 22.87855 2.7995008 22.8202 2.8578508 C 22.8129 2.9599668 22.8129 2.9598527 22.8202 3.0619687 C 22.878556 3.1203187 22.878981 3.1202845 22.942671 3.1549845 C 22.969301 3.1679445 22.994861 3.1806443 23.020701 3.1932243 C 23.079073 3.2219443 23.1374 3.2505055 23.19588 3.2790055 C 23.22614 3.2937555 23.255909 3.3081028 23.285279 3.3224128 C 23.314459 3.3367728 23.34274 3.3508566 23.37106 3.3647866 C 23.468142 3.4120596 23.552608 3.4618345 23.637188 3.5291145 C 23.571793 3.5612045 23.506629 3.5934375 23.441339 3.6257475 C 23.400359 3.6460275 23.400378 3.6456476 23.360208 3.6655376 C 23.1801 3.7538906 22.974218 3.8361212 22.8202 3.9668052 C 22.80306 4.0639612 22.805815 4.1121714 22.849655 4.1998614 C 22.967147 4.2302914 23.036961 4.2350206 23.152473 4.1952106 C 23.204104 4.1686206 23.20417 4.1685616 23.25479 4.1425016 C 23.312368 4.1133516 23.369729 4.0841367 23.426869 4.0541367 C 23.465818 4.0336867 23.504993 4.0131597 23.544173 3.9931597 C 23.656362 3.9362167 23.768273 3.8787035 23.879029 3.8190135 C 23.896119 3.8097635 23.912575 3.8006256 23.929155 3.7916256 C 23.960415 3.7747256 23.990797 3.7584172 24.021137 3.7420172 C 24.061677 3.7190572 24.061494 3.7190428 24.101234 3.6965428 C 24.170408 3.6574928 24.170224 3.6572859 24.220604 3.6164459 C 24.242484 3.5070339 24.242484 3.507148 24.220604 3.412328 C 24.162252 3.353978 24.162599 3.3540901 24.114669 3.3260301 C 24.095059 3.3160201 24.075833 3.3062751 24.056793 3.2965751 C 24.034503 3.2851451 24.012795 3.2740761 23.991165 3.2629861 C 23.967055 3.2508061 23.94377 3.2386333 23.92037 3.2268133 C 23.870844 3.2017133 23.821094 3.1769239 23.771544 3.1518839 C 23.693319 3.1125969 23.615385 3.0729105 23.537455 3.0330305 C 23.486632 3.0070205 23.436002 2.9812074 23.385012 2.9555174 C 23.360052 2.9429774 23.335337 2.9309978 23.311117 2.9188278 C 23.190663 2.8567288 23.08982 2.8036758 22.954039 2.7886058 z M 30.467645 2.8061754 C 30.395061 2.8048676 30.3289 2.8227101 30.246474 2.8635351 C 30.227274 2.8737351 30.208788 2.8836069 30.190148 2.8935069 C 30.128131 2.9248769 30.066223 2.9563696 30.004633 2.9885896 C 29.962457 3.0106596 29.920438 3.0325974 29.878028 3.0542174 C 29.661478 3.1640014 29.435769 3.269042 29.23932 3.412328 C 29.22291 3.52174 29.22291 3.5216259 29.23932 3.6164459 C 29.2685 3.6456259 29.268237 3.6457619 29.316317 3.6712219 C 29.337707 3.6817419 29.358591 3.6920171 29.379361 3.7022271 C 29.403481 3.7141671 29.426746 3.7257764 29.450156 3.7373664 C 29.611282 3.8167594 29.772658 3.8953541 29.931254 3.9797241 C 29.957564 3.9939741 29.983237 4.0077512 30.008767 4.0215812 C 30.057996 4.0481512 30.107399 4.0749881 30.156559 4.1016781 C 30.238601 4.1473731 30.319461 4.1930163 30.406151 4.2293163 C 30.494715 4.2397363 30.530161 4.2427541 30.605101 4.1962441 C 30.655171 4.1171931 30.649424 4.0583352 30.639724 3.9668052 C 30.581368 3.9084552 30.580943 3.9084895 30.517253 3.8737895 C 30.490633 3.8608295 30.465063 3.8481297 30.439223 3.8355497 C 30.38085 3.8068297 30.322524 3.7782685 30.264044 3.7497685 C 30.233784 3.7350285 30.204015 3.7206711 30.174645 3.7063611 C 30.145465 3.6920011 30.117184 3.6779173 30.088864 3.6639873 C 29.991782 3.6167153 29.907316 3.5669395 29.822736 3.4996595 C 29.888131 3.4675695 29.953295 3.4353365 30.018585 3.4030265 C 30.059565 3.3827465 30.059546 3.3831264 30.099716 3.3632364 C 30.279824 3.2748844 30.485705 3.1926527 30.639724 3.0619687 C 30.656864 2.9648117 30.654109 2.9166026 30.610269 2.8289126 C 30.557029 2.8147151 30.511195 2.8069601 30.467645 2.8061754 z M 26.283486 4.0169304 C 26.245496 4.0172174 26.245807 4.0171711 26.208557 4.0174471 C 26.113894 4.0176471 26.09936 4.0134749 26.02976 4.0830749 C 26.02066 4.1833679 26.02066 4.1837706 26.02976 4.2877096 C 26.074195 4.3475896 26.100225 4.3718996 26.173935 4.3864096 C 26.195895 4.3864756 26.217219 4.3863396 26.238529 4.3864096 C 26.263509 4.3866956 26.287658 4.3871671 26.311908 4.3874431 C 26.338768 4.3872551 26.364891 4.3871034 26.390971 4.3869264 C 26.446131 4.3871034 26.501173 4.3868684 26.556333 4.3869264 C 26.643361 4.3863704 26.730263 4.3859356 26.817293 4.3864096 C 26.874091 4.3867706 26.931022 4.3869844 26.987822 4.3869264 C 27.028942 4.3867944 27.028653 4.3870484 27.068953 4.3869264 C 27.095823 4.3871144 27.121936 4.3872661 27.148016 4.3874431 C 27.185116 4.3870241 27.185025 4.3868286 27.221395 4.3864096 C 27.298555 4.3861596 27.331274 4.383958 27.393474 4.337318 C 27.449784 4.261659 27.449594 4.2611999 27.430164 4.0830749 C 27.342635 4.0247149 27.342716 4.0248471 27.284956 4.0174471 C 27.262366 4.0173971 27.240215 4.0174931 27.218295 4.0174471 C 27.192615 4.0172481 27.167769 4.0171184 27.142849 4.0169304 C 27.115239 4.0170634 27.088528 4.0173261 27.061718 4.0174471 C 27.005095 4.0173261 26.948326 4.0169684 26.891706 4.0169304 C 26.802313 4.0173084 26.712901 4.0177551 26.623511 4.0174471 C 26.565164 4.0172061 26.507198 4.0168904 26.448848 4.0169304 C 26.420458 4.0169854 26.392694 4.0173911 26.365134 4.0174471 C 26.337454 4.0173151 26.310356 4.0170524 26.283486 4.0169304 z " transform="translate(-18.263462,5.6117497)"/>
  <path id="path4-3" style="fill:currentColor;fill-opacity:1;stroke-width:0.029176" class="ColorScheme-Text" d="M 46.250222 12.048236 C 46.116783 12.061816 46.066819 12.110383 45.973759 12.203263 C 45.954019 12.224203 45.934525 12.244426 45.915365 12.264756 C 45.840383 12.338183 45.76831 12.409759 45.70918 12.496779 C 45.69414 12.595365 45.69414 12.594972 45.70918 12.671442 C 45.753492 12.741405 45.783286 12.755327 45.862656 12.777377 C 45.953339 12.756763 45.953131 12.75668 46.046621 12.66059 C 46.11435 12.584575 46.169788 12.537449 46.263658 12.496779 C 46.281438 12.516309 46.29859 12.535179 46.31585 12.554139 C 46.35113 12.591429 46.351548 12.591475 46.386128 12.628035 C 46.454847 12.701887 46.454479 12.70185 46.526169 12.75929 C 46.611415 12.77044 46.651989 12.771608 46.725119 12.726218 C 46.759769 12.671511 46.759564 12.671539 46.773694 12.593929 C 46.75579 12.470474 46.755804 12.470765 46.624352 12.337619 C 46.605232 12.319199 46.586586 12.30124 46.568026 12.28336 C 46.467757 12.179271 46.386183 12.101516 46.250222 12.048236 z M 49.459265 12.048236 C 49.325826 12.061816 49.275862 12.110383 49.182802 12.203263 C 49.163052 12.224203 49.144085 12.244426 49.124925 12.264756 C 49.049943 12.338183 48.97787 12.409759 48.91874 12.496779 C 48.9037 12.595365 48.9037 12.594972 48.91874 12.671442 C 48.963052 12.741405 48.99233 12.755327 49.0717 12.777377 C 49.162384 12.756763 49.162691 12.75668 49.256181 12.66059 C 49.32391 12.584575 49.379348 12.537449 49.473218 12.496779 C 49.491008 12.516309 49.50815 12.535179 49.52541 12.554139 C 49.56069 12.591429 49.560592 12.591475 49.595172 12.628035 C 49.663892 12.701887 49.664039 12.70185 49.735729 12.75929 C 49.820975 12.77044 49.861549 12.771608 49.934679 12.726218 C 49.969329 12.671511 49.969124 12.671539 49.983254 12.593929 C 49.965349 12.470474 49.965363 12.470765 49.833912 12.337619 C 49.814792 12.319199 49.796146 12.30124 49.777586 12.28336 C 49.677318 12.179271 49.595227 12.101516 49.459265 12.048236 z M 44.063318 12.456472 C 43.988239 12.467572 43.987829 12.467367 43.929479 12.525717 C 43.922179 12.627833 43.922179 12.627719 43.929479 12.729835 C 43.987835 12.788185 43.98826 12.788151 44.05195 12.822851 C 44.07858 12.835811 44.10414 12.848511 44.12998 12.861091 C 44.188352 12.889811 44.246679 12.918372 44.305159 12.946872 C 44.335419 12.961622 44.365188 12.975969 44.394558 12.990279 C 44.423738 13.004639 44.452019 13.018723 44.480339 13.032653 C 44.577421 13.079926 44.661887 13.129701 44.746467 13.196981 C 44.681072 13.229071 44.615908 13.261304 44.550618 13.293614 C 44.509638 13.313894 44.509657 13.313514 44.469487 13.333404 C 44.289379 13.421757 44.083497 13.503988 43.929479 13.634672 C 43.912339 13.731828 43.915094 13.780038 43.958934 13.867728 C 44.076426 13.898158 44.14624 13.902887 44.261752 13.863077 C 44.313383 13.836487 44.313449 13.836428 44.364069 13.810368 C 44.421647 13.781218 44.479008 13.752003 44.536148 13.722003 C 44.575097 13.701553 44.614272 13.681026 44.653452 13.661026 C 44.765641 13.604083 44.877552 13.546053 44.988308 13.486363 C 45.005398 13.477113 45.021854 13.468492 45.038434 13.459492 C 45.069694 13.442592 45.100076 13.426284 45.130416 13.409884 C 45.170956 13.386924 45.170773 13.386909 45.210513 13.364409 C 45.279687 13.325359 45.279503 13.325152 45.329883 13.284312 C 45.351763 13.1749 45.351763 13.175014 45.329883 13.080194 C 45.271531 13.021844 45.271878 13.021957 45.223948 12.993897 C 45.204338 12.983887 45.185112 12.974142 45.166072 12.964442 C 45.143782 12.953012 45.122074 12.941943 45.100444 12.930853 C 45.076334 12.918673 45.053049 12.9065 45.029649 12.89468 C 44.980123 12.86958 44.930373 12.84479 44.880823 12.81975 C 44.802598 12.780463 44.724664 12.740777 44.646734 12.700897 C 44.595911 12.674887 44.545281 12.649074 44.494291 12.623384 C 44.469331 12.610844 44.444616 12.598864 44.420396 12.586694 C 44.299942 12.524595 44.199099 12.471542 44.063318 12.456472 z M 51.576924 12.474042 C 51.50434 12.472734 51.438179 12.490577 51.355753 12.531402 C 51.336553 12.541602 51.318067 12.551473 51.299427 12.561373 C 51.23741 12.592743 51.175502 12.624236 51.113912 12.656456 C 51.071736 12.678526 51.029717 12.700464 50.987307 12.722084 C 50.770757 12.831868 50.545048 12.936908 50.348599 13.080194 C 50.332189 13.189606 50.332189 13.189492 50.348599 13.284312 C 50.377779 13.313492 50.377516 13.313628 50.425596 13.339088 C 50.446986 13.349608 50.46787 13.359884 50.48864 13.370094 C 50.51276 13.382034 50.536025 13.393643 50.559435 13.405233 C 50.720561 13.484626 50.881937 13.563221 51.040533 13.647591 C 51.066843 13.661841 51.092516 13.675618 51.118046 13.689448 C 51.167275 13.716018 51.216678 13.742855 51.265838 13.769545 C 51.34788 13.81524 51.42874 13.860883 51.51543 13.897183 C 51.603994 13.907603 51.63944 13.910621 51.71438 13.864111 C 51.76445 13.78506 51.758703 13.726202 51.749003 13.634672 C 51.690647 13.576322 51.690222 13.576356 51.626532 13.541656 C 51.599912 13.528696 51.574342 13.515996 51.548502 13.503416 C 51.490129 13.474696 51.431803 13.446135 51.373323 13.417635 C 51.343063 13.402895 51.313294 13.388538 51.283924 13.374228 C 51.254744 13.359868 51.226463 13.345784 51.198143 13.331854 C 51.101061 13.284582 51.016595 13.234806 50.932015 13.167526 C 50.99741 13.135436 51.062574 13.103203 51.127864 13.070893 C 51.168844 13.050613 51.168825 13.050993 51.208995 13.031103 C 51.389103 12.942751 51.594984 12.860519 51.749003 12.729835 C 51.766143 12.632678 51.763388 12.584469 51.719548 12.496779 C 51.666308 12.482582 51.620474 12.474827 51.576924 12.474042 z M 47.392765 13.684797 C 47.354775 13.685084 47.355086 13.685038 47.317836 13.685314 C 47.223173 13.685514 47.208639 13.681341 47.139039 13.750941 C 47.129939 13.851234 47.129939 13.851637 47.139039 13.955576 C 47.183474 14.015456 47.209504 14.039766 47.283214 14.054276 C 47.305174 14.054342 47.326498 14.054206 47.347808 14.054276 C 47.372788 14.054562 47.396937 14.055034 47.421187 14.05531 C 47.448047 14.055122 47.47417 14.05497 47.50025 14.054793 C 47.55541 14.05497 47.610452 14.054735 47.665612 14.054793 C 47.75264 14.054237 47.839542 14.053802 47.926572 14.054276 C 47.98337 14.054637 48.040301 14.054851 48.097101 14.054793 C 48.138221 14.054661 48.137932 14.054915 48.178232 14.054793 C 48.205102 14.054981 48.231215 14.055133 48.257295 14.05531 C 48.294395 14.054891 48.294304 14.054695 48.330674 14.054276 C 48.407834 14.054026 48.440553 14.051824 48.502753 14.005184 C 48.559063 13.929525 48.558873 13.929066 48.539443 13.750941 C 48.451914 13.692581 48.451995 13.692714 48.394235 13.685314 C 48.371645 13.685264 48.349494 13.68536 48.327574 13.685314 C 48.301894 13.685115 48.277048 13.684985 48.252128 13.684797 C 48.224518 13.68493 48.197807 13.685193 48.170997 13.685314 C 48.114374 13.685193 48.057605 13.684835 48.000985 13.684797 C 47.911592 13.685175 47.82218 13.685622 47.73279 13.685314 C 47.674443 13.685073 47.616477 13.684757 47.558127 13.684797 C 47.529737 13.684852 47.501973 13.685258 47.474413 13.685314 C 47.446733 13.685182 47.419635 13.684919 47.392765 13.684797 z " transform="translate(-39.372741,-4.585273)"/>
<path id="gradient-path1" style="opacity:0.3;baseline-shift:baseline;display:inline;overflow:visible;vector-effect:none;enable-background:accumulate;stop-color:#000000;stop-opacity:1;fill:url(#linearGradient4)" d="M 8.4453131 1.2753492 C 4.4913166 1.2753492 1.2794833 4.4784283 1.2794833 8.4236094 C 1.2794833 12.36879 4.4913166 15.572386 8.4453131 15.572386 C 12.39931 15.572386 15.611143 12.36879 15.611143 8.4236094 C 15.611143 4.4784283 12.39931 1.2753492 8.4453131 1.2753492 z "/>
</svg>
