<?xml version="1.0" encoding="UTF-8" standalone="no"?>
<svg
   width="64"
   height="64"
   version="1.1"
   viewBox="0 0 16.933 16.933"
   id="svg7"
   sodipodi:docname="kitty.svg"
   inkscape:version="1.4.2 (ebf0e940d0, 2025-05-08)"
   xmlns:inkscape="http://www.inkscape.org/namespaces/inkscape"
   xmlns:sodipodi="http://sodipodi.sourceforge.net/DTD/sodipodi-0.dtd"
   xmlns:xlink="http://www.w3.org/1999/xlink"
   xmlns="http://www.w3.org/2000/svg"
   xmlns:svg="http://www.w3.org/2000/svg"
   xmlns:rdf="http://www.w3.org/1999/02/22-rdf-syntax-ns#"
   xmlns:cc="http://creativecommons.org/ns#"
   xmlns:dc="http://purl.org/dc/elements/1.1/">
  <sodipodi:namedview
     id="namedview7"
     pagecolor="#9c4444"
     bordercolor="#000000"
     borderopacity="0.25"
     inkscape:showpageshadow="2"
     inkscape:pageopacity="0.0"
     inkscape:pagecheckerboard="0"
     inkscape:deskcolor="#d1d1d1"
     inkscape:zoom="6.15625"
     inkscape:cx="59.939086"
     inkscape:cy="16.730964"
     inkscape:window-width="2560"
     inkscape:window-height="1376"
     inkscape:window-x="0"
     inkscape:window-y="0"
     inkscape:window-maximized="1"
     inkscape:current-layer="svg7"
     showgrid="false" />
  <defs
     id="defs2">
    <filter
       style="color-interpolation-filters:sRGB;"
       inkscape:label="Blur"
       id="filter3"
       x="-0.10843471"
       y="-0.10870992"
       width="1.2168694"
       height="1.2174198">
      <feGaussianBlur
         stdDeviation="0.5 0.5"
         result="blur"
         id="feGaussianBlur3" />
    </filter>
    <style
       id="current-color-scheme"
       type="text/css">.ColorScheme-Text {color:#d8dee9} .ColorScheme-Highlight {color:#3b4252}</style>
    <linearGradient
       id="linearGradient3"
       inkscape:collect="always">
      <stop
         style="stop-color:#000000;stop-opacity:1;"
         offset="0"
         id="stop3" />
      <stop
         style="stop-color:#000000;stop-opacity:0;"
         offset="1"
         id="stop4" />
    </linearGradient>
    <linearGradient
       inkscape:collect="always"
       xlink:href="#linearGradient3"
       id="linearGradient4"
       x1="13.512321"
       y1="13.490874"
       x2="3.3783066"
       y2="3.3568602"
       gradientUnits="userSpaceOnUse" />
  </defs>
  <metadata
     id="metadata2">
    <rdf:RDF>
      <cc:Work
         rdf:about="">
        <dc:format>image/svg+xml</dc:format>
        <dc:type
           rdf:resource="http://purl.org/dc/dcmitype/StillImage" />
      </cc:Work>
    </rdf:RDF>
  </metadata>
  <ellipse
     style="opacity:1;fill:none;stroke:#000000;stroke-width:0.582072;stroke-dasharray:none;stroke-opacity:1;filter:url(#filter3)"
     id="path1-5"
     cx="8.4450111"
     cy="8.423522"
     rx="6.8752708"
     ry="6.8578653" />
  <ellipse
     style="opacity:1;fill:none;stroke-width:0.58207188;stroke-opacity:1;stroke:currentColor;stroke-dasharray:none;fill-opacity:1"
     id="path1"
     cx="8.4450111"
     cy="8.423522"
     rx="6.8752708"
     ry="6.8578653"
     class="ColorScheme-Text" />
  <ellipse
     style="fill:currentColor;stroke:none;stroke-width:0.285844;stroke-dasharray:none;stroke-opacity:1"
     id="path1-2"
     cx="8.4557552"
     cy="8.423522"
     rx="6.5738997"
     ry="6.5692253"
     class="ColorScheme-Highlight" />
  <path
     id="path5"
     style="opacity:0.3;fill:#000000;fill-opacity:1;fill-rule:evenodd;stroke-width:0.101228"
     d="m 5.8047995,5.2066468 c -0.05074,3.514e-4 -0.09357,0.00596 -0.12502,0.015395 -0.03146,0.00941 -0.05027,0.022003 -0.06033,0.03383 l -5.73e-4,7.849e-4 -7.45e-4,6.587e-4 c -0.01443,0.016037 -0.02862,0.049414 -0.03332,0.1011343 -0.0071,0.077577 0.0071,0.190594 0.04066,0.3179243 0.08378,0.3183268 0.284977,0.728771 0.501316,0.9977694 l 0.022,0.027444 -0.0086,0.03398 c -0.0154,0.061628 -0.02792,0.122607 -0.03637,0.1844807 0.234638,0.1921975 0.427326,0.4357474 0.544806,0.712153 l -0.114127,0.07841 c -0.03289,-0.031831 -0.06604,-0.062933 -0.09932,-0.09322 0.04118,0.040603 0.08061,0.082778 0.117978,0.1262544 0.190877,0.050398 0.355912,0.1833408 0.398367,0.3618483 h 1.120975 c 0.0065,-0.056489 0.04743,-0.1040237 0.126255,-0.1304753 0.06571,-0.022055 0.160802,-0.031509 0.282131,-0.031509 h 0.0011 0.0011 c 0.120596,0.004 0.213292,0.014541 0.277049,0.035862 0.07788,0.026048 0.117156,0.07134 0.124876,0.1261096 h 1.106164 c 0.056261,-0.155368 0.2259715,-0.2725093 0.3643185,-0.3333157 0.04441,-0.053643 0.09189,-0.1052942 0.142009,-0.1547149 -0.03325,0.030263 -0.06637,0.06134 -0.09925,0.093148 l -0.114091,-0.078392 c 0.121792,-0.2865527 0.324418,-0.5377078 0.57087,-0.7330628 -0.0083,-0.054679 -0.01972,-0.1088804 -0.0334,-0.1635718 l -0.0083,-0.032886 0.02054,-0.027005 c 0.204578,-0.2688942 0.397575,-0.683284 0.476778,-1.0026342 0.03168,-0.1277395 0.04457,-0.2407608 0.03688,-0.3172706 -0.0051,-0.051007 -0.01949,-0.082994 -0.03289,-0.097141 -0.01422,-0.015014 -0.04506,-0.031208 -0.09438,-0.040006 -0.07398,-0.013198 -0.183963,-0.00903 -0.309937,0.012417 -0.314937,0.053597 -0.731624,0.2111417 -1.0256495,0.3934302 l -0.03398,0.021124 -0.0355,-0.01822 c -0.3845,-0.1971767 -0.849606,-0.3161826 -1.344439,-0.3161826 -0.505165,0 -0.970105,0.1190066 -1.354608,0.3161823 l -0.0355,0.01822 -0.03398,-0.021124 C 6.8629615,5.510495 6.6300125,5.4044167 6.4039185,5.3280427 6.1778245,5.2516677 5.9569945,5.2055698 5.8048075,5.2066516 Z m 1.714569,1.3095951 c 0.393302,0 0.718469,0.325157 0.718469,0.7184693 0,0.3933123 -0.325147,0.7185415 -0.718469,0.7185415 -0.393263,0 -0.718542,-0.3252483 -0.718542,-0.7185415 0,-0.3933123 0.32524,-0.7184693 0.718542,-0.7184693 z m 1.903044,0 c 0.393302,0 0.7184685,0.325157 0.7184685,0.7184693 0,0.3931457 -0.3149515,0.7185415 -0.7184685,0.7185415 -0.393323,0 -0.718542,-0.3252292 -0.718542,-0.7185415 0,-0.3933123 0.32524,-0.7184693 0.718542,-0.7184693 z m -4.54866,0.048936 c -0.103212,-1.98e-4 -0.205658,0.00997 -0.305945,0.031365 0.729086,0.121848 1.342462,0.4128235 1.897017,0.9047655 C 6.3217545,7.2530415 6.1122735,7.0387901 5.8678905,6.8782388 5.5685465,6.6815777 5.2171995,6.5658683 4.8737525,6.5651779 Z m 7.1854185,0 C 11.715723,6.5658997 11.364376,6.681577 11.065032,6.8782381 10.82065,7.0387894 10.611168,7.2530408 10.468098,7.5013078 11.022655,7.0093652 11.636027,6.7183895 12.365116,6.5965422 12.264827,6.5751432 12.162384,6.5649682 12.059171,6.5651779 Z M 7.5182065,6.9912063 c -0.07454,0 -0.134168,0.1417173 -0.134168,0.3239501 0,0.1821934 0.05959,0.3238772 0.134168,0.3238772 0.07458,0 0.134242,-0.1417165 0.134242,-0.3239499 0,-0.1821935 -0.05966,-0.3238774 -0.134242,-0.3238774 z m 1.881699,0 c -0.07454,0 -0.134241,0.1417173 -0.134241,0.3239501 0,0.1821934 0.05966,0.3238772 0.134241,0.3238772 0.07458,0 0.134241,-0.1417165 0.134241,-0.3239499 0,-0.1821935 -0.05966,-0.3238774 -0.134241,-0.3238774 z m 2.8088255,0.041599 c -0.33124,-0.00688 -0.673749,0.070978 -0.984919,0.2143215 -0.167253,0.077047 -0.325417,0.1729747 -0.467919,0.2845996 0.107267,-0.070307 0.241197,-0.1099196 0.383048,-0.1099196 0.0089,0 0.01766,1.986e-4 0.02636,5.075e-4 C 11.711647,7.2141259 12.282923,7.121655 12.889814,7.1851966 12.678677,7.0862426 12.446671,7.0377433 12.208735,7.0328051 Z m -7.4941945,1.992e-4 c -0.234541,0.00603 -0.463076,0.054568 -0.671351,0.1521737 0.6069,-0.063556 1.178155,0.028847 1.724515,0.2370454 0.0088,-3.18e-4 0.01755,-4.36e-4 0.02636,-4.36e-4 0.141416,0 0.274994,0.039357 0.382104,0.109266 C 6.0284535,7.4154662 5.8640045,7.3167341 5.6900185,7.2383951 5.3809485,7.0992347 5.0419995,7.0245679 4.7145385,7.0330045 Z m 6.1335605,0.2991196 c -0.01488,0.010739 -0.02972,0.021662 -0.0445,0.032669 0.01453,-0.010057 0.02923,-0.019944 0.044,-0.029693 1.96e-4,-9.796e-4 3.24e-4,-0.00203 5.07e-4,-0.00294 z m -4.7304555,0.023956 c 5.6e-5,2.78e-4 1.64e-4,5.901e-4 2.18e-4,8.536e-4 0.0044,0.00301 0.0089,0.00603 0.01328,0.00907 -0.0045,-0.00335 -0.009,-0.00664 -0.0135,-0.00995 z m -0.323586,0.1715585 c -0.227794,0 -0.415271,0.1177687 -0.504004,0.2951997 l -0.06287,0.038839 h -0.03035 c -0.238853,0 -0.435902,0.1750879 -0.435902,0.3852993 0,0.3016051 0.312297,0.4652457 0.604194,0.3590894 l 0.08182,0.026133 c 0.174296,0.2527397 0.543359,0.2713804 0.679482,0.0077 l 0.05953,-0.037974 c 0.233573,-0.00972 0.579898,-0.044824 0.631997,-0.3660585 0.03208,-0.2005758 -0.186621,-0.374191 -0.436773,-0.374191 h -0.03035 l -0.06527,-0.044143 C 6.2169295,7.6459003 6.0236425,7.5276294 5.7940555,7.5276294 Z m 5.3448855,0 c -0.228694,0 -0.423145,0.1189383 -0.491516,0.2898996 l -0.01771,0.044143 h -0.0779 c -0.01872,0 -0.06654,0.00976 -0.118487,0.030565 -0.05194,0.020803 -0.110087,0.05169 -0.161758,0.08901 -0.103338,0.07464 -0.170539,0.167021 -0.156528,0.2546154 0.01327,0.081811 0.04332,0.1410342 0.08422,0.1879662 0.04091,0.046936 0.09391,0.081781 0.154861,0.1077417 0.121909,0.051918 0.273785,0.065392 0.392922,0.070351 l 0.0408,0.00164 0.01873,0.036302 c 0.03448,0.066792 0.08174,0.1136134 0.136855,0.1446957 0.05511,0.031083 0.118577,0.046162 0.184265,0.045088 0.131374,-0.00217 0.270044,-0.069434 0.358362,-0.1974773 l 0.03078,-0.044647 0.05105,0.018515 c 0.148126,0.053873 0.301438,0.037279 0.415212,-0.028821 0.05689,-0.03305 0.103858,-0.078159 0.136781,-0.1332971 0.03293,-0.055137 0.0522,-0.1204424 0.0522,-0.1969692 0,-0.092828 -0.07308,-0.1918533 -0.172067,-0.266667 -0.0495,-0.037409 -0.103885,-0.068009 -0.152391,-0.088574 -0.0485,-0.020567 -0.09274,-0.03006 -0.111445,-0.03006 h -0.07376 l -0.01946,-0.038839 C 11.553857,7.6446893 11.367625,7.5276162 11.138939,7.5276162 Z m -6.0614675,0.00661 c -0.338103,0.00157 -0.639452,0.090286 -0.823307,0.2812577 0.341062,-0.096148 0.665717,-0.1309179 0.986588,-0.1163808 0.03849,-0.05538 0.08579,-0.1040433 0.139978,-0.1444781 -0.102499,-0.013925 -0.204345,-0.020868 -0.303259,-0.020403 z m 6.7781225,0 c -0.09891,-4.68e-4 -0.200835,0.00649 -0.303331,0.020403 0.05419,0.040433 0.101486,0.089094 0.139976,0.1444781 0.320849,-0.014529 0.645478,0.020239 0.986517,0.1163808 C 12.494916,7.6245418 12.193683,7.535844 11.855596,7.5342486 Z m -1.203306,0.083855 c -0.03061,0.027176 -0.06035,0.055098 -0.08908,0.083783 0.01262,-0.0069 0.02525,-0.013761 0.0379,-0.020547 0.01535,-0.022343 0.03249,-0.043416 0.05118,-0.063236 z m -4.3707125,9.166e-4 c 0.01839,0.019583 0.03533,0.040406 0.05046,0.062441 0.01255,0.00673 0.02502,0.013486 0.03753,0.02033 -0.0284,-0.028338 -0.05777,-0.0559 -0.08799,-0.082769 z m 0.678538,0.6150112 c -8.02e-4,0.008 -0.0018,0.016049 -0.003,0.024107 -0.06596,0.4066889 -0.470121,0.4685777 -0.725948,0.4827306 -0.01229,0.019806 -0.02572,0.038308 -0.04008,0.05561 v 3.779007 c 1.3e-5,0.116548 0.093,0.209474 0.209529,0.209457 h 0.07057 v 0 h 4.0612105 c 0.116523,-1.2e-5 0.209548,-0.093 0.209529,-0.209528 V 8.7964081 c -0.01436,-0.017341 -0.02774,-0.035817 -0.04,-0.05561 -0.255836,-0.014155 -0.660013,-0.076044 -0.7259495,-0.4825857 -0.0014,-0.00812 -0.0022,-0.016187 -0.0027,-0.02418 z m 0.0034,0.9359123 c 0.05593,0.00282 0.109016,0.025268 0.150068,0.063307 l 0.001,9.223e-4 1.050842,1.05026 c 0.09329,0.09339 0.09324,0.244181 0,0.337526 l -1.050768,1.050693 -8.6e-4,8.59e-4 c -0.171472,0.159917 -0.421973,0.006 -0.403303,-0.196025 0.0046,-0.05009 0.0262,-0.09877 0.06585,-0.141284 l 8.6e-4,-8.59e-4 0.882111,-0.882183 -0.882114,-0.8815323 -9.16e-4,-9.739e-4 c -0.145604,-0.1570673 -0.02656,-0.4116549 0.18731,-0.4007106 z m 1.650026,2.0944233 h 1.4846345 c 0.05988,0 0.111442,0.01821 0.151665,0.05039 0.162508,0.130018 0.09026,0.427116 -0.151665,0.427116 H 8.6135165 c -0.241927,0 -0.314246,-0.297098 -0.151739,-0.427116 0.04023,-0.03218 0.09186,-0.05039 0.151739,-0.05039 z" />
  <path
     id="path5-7"
     class="ColorScheme-Text"
     style="fill:currentColor;fill-opacity:1;fill-rule:evenodd;stroke-width:0.101228"
     d="m 5.8047995,4.6773627 c -0.05074,3.514e-4 -0.09357,0.00596 -0.12502,0.015395 -0.03146,0.00941 -0.05027,0.022003 -0.06033,0.03383 l -5.73e-4,7.849e-4 -7.45e-4,6.587e-4 c -0.01443,0.016037 -0.02862,0.049414 -0.03332,0.1011343 -0.0071,0.077577 0.0071,0.190594 0.04066,0.3179243 0.08378,0.3183268 0.284977,0.728771 0.501316,0.9977694 l 0.022,0.027444 -0.0086,0.03398 c -0.0154,0.061628 -0.02792,0.122607 -0.03637,0.1844807 0.234638,0.1921975 0.427326,0.4357475 0.544806,0.7121535 l -0.114127,0.07841 c -0.03289,-0.03183 -0.06604,-0.06293 -0.09932,-0.09322 0.04118,0.0406 0.08061,0.08278 0.117978,0.126254 0.190877,0.0504 0.355912,0.183341 0.398367,0.361848 h 1.120975 c 0.0065,-0.05649 0.04743,-0.104023 0.126255,-0.130475 0.06571,-0.02205 0.160802,-0.03151 0.282131,-0.03151 h 0.0011 0.0011 c 0.120596,0.004 0.213292,0.01454 0.277049,0.03586 0.07788,0.02605 0.117156,0.07134 0.124876,0.126109 h 1.106164 c 0.056261,-0.155367 0.2259715,-0.272509 0.3643185,-0.333315 0.04441,-0.05364 0.09189,-0.105294 0.142009,-0.154715 -0.03325,0.03026 -0.06637,0.06134 -0.09925,0.09315 l -0.114091,-0.07839 c 0.121792,-0.286553 0.324418,-0.537708 0.57087,-0.7330629 -0.0083,-0.054679 -0.01972,-0.1088804 -0.0334,-0.1635718 l -0.0083,-0.032886 0.02054,-0.027005 c 0.204578,-0.2688942 0.397575,-0.683284 0.476778,-1.0026342 0.03168,-0.1277395 0.04457,-0.2407608 0.03688,-0.3172706 -0.0051,-0.051007 -0.01949,-0.082994 -0.03289,-0.097141 -0.01422,-0.015014 -0.04506,-0.031208 -0.09438,-0.040006 -0.07398,-0.013198 -0.183963,-0.00903 -0.309937,0.012417 -0.314937,0.053597 -0.731624,0.2111417 -1.0256495,0.3934302 l -0.03398,0.021124 -0.0355,-0.01822 c -0.3845,-0.1971767 -0.849606,-0.3161826 -1.344439,-0.3161826 -0.505165,0 -0.970105,0.1190066 -1.354608,0.3161823 l -0.0355,0.01822 -0.03398,-0.021124 C 6.8629615,4.9812109 6.6300125,4.8751326 6.4039185,4.7987586 6.1778245,4.7223836 5.9569945,4.6762857 5.8048075,4.6773675 Z m 1.714569,1.3095951 c 0.393302,0 0.718469,0.325157 0.718469,0.7184697 0,0.393312 -0.325147,0.718541 -0.718469,0.718541 -0.393263,0 -0.718542,-0.325248 -0.718542,-0.718541 0,-0.3933127 0.32524,-0.7184697 0.718542,-0.7184697 z m 1.903044,0 c 0.393302,0 0.7184695,0.325157 0.7184695,0.7184697 0,0.393145 -0.3149525,0.718541 -0.7184695,0.718541 -0.393323,0 -0.718542,-0.325229 -0.718542,-0.718541 0,-0.3933127 0.32524,-0.7184697 0.718542,-0.7184697 z m -4.54866,0.048936 c -0.103212,-1.98e-4 -0.205658,0.00997 -0.305945,0.031365 0.729086,0.121848 1.342462,0.4128237 1.897017,0.9047657 C 6.3217545,6.7237575 6.1122735,6.5095065 5.8678905,6.3489547 5.5685465,6.1522936 5.2171995,6.0365842 4.8737525,6.0358938 Z m 7.1854195,0 c -0.343448,7.218e-4 -0.694795,0.1163991 -0.994139,0.3130602 -0.244382,0.1605515 -0.453864,0.3748025 -0.596934,0.6230695 0.554557,-0.491942 1.167929,-0.7829181 1.897018,-0.9047654 -0.100289,-0.021399 -0.202732,-0.031574 -0.305945,-0.031364 z M 7.5182065,6.4619222 c -0.07454,0 -0.134168,0.1417173 -0.134168,0.3239503 0,0.182193 0.05959,0.323877 0.134168,0.323877 0.07458,0 0.134242,-0.141716 0.134242,-0.32395 0,-0.182193 -0.05966,-0.3238773 -0.134242,-0.3238773 z m 1.881699,0 c -0.07454,0 -0.134241,0.1417173 -0.134241,0.3239503 0,0.182193 0.05966,0.323877 0.134241,0.323877 0.07458,0 0.134241,-0.141716 0.134241,-0.32395 0,-0.182193 -0.05966,-0.3238773 -0.134241,-0.3238773 z m 2.8088265,0.041599 c -0.33124,-0.0069 -0.67375,0.07098 -0.984919,0.214321 -0.167253,0.07705 -0.325417,0.172975 -0.467919,0.2846 0.107267,-0.07031 0.241197,-0.10992 0.383048,-0.10992 0.0089,0 0.01766,1.99e-4 0.02636,5.08e-4 0.546346,-0.208189 1.117621,-0.30066 1.724513,-0.237118 -0.211137,-0.09895 -0.443143,-0.147453 -0.681079,-0.152391 z m -7.4941955,1.99e-4 c -0.234541,0.006 -0.463076,0.05457 -0.671351,0.152174 0.6069,-0.06356 1.178155,0.02885 1.724515,0.237045 0.0088,-3.18e-4 0.01755,-4.36e-4 0.02636,-4.36e-4 0.141416,0 0.274994,0.03936 0.382104,0.109266 -0.147711,-0.115587 -0.31216,-0.214319 -0.486146,-0.292658 -0.30907,-0.139161 -0.648019,-0.213828 -0.97548,-0.205391 z m 6.1335605,0.29912 c -0.01488,0.01074 -0.02972,0.02166 -0.0445,0.03267 0.01453,-0.01006 0.02923,-0.01994 0.044,-0.02969 1.96e-4,-9.8e-4 3.23e-4,-0.002 5.06e-4,-0.0029 z m -4.7304555,0.02396 c 5.6e-5,2.78e-4 1.64e-4,5.9e-4 2.18e-4,8.53e-4 0.0044,0.003 0.0089,0.006 0.01328,0.0091 -0.0045,-0.0033 -0.009,-0.0066 -0.0135,-0.0099 z m -0.323586,0.171558 c -0.227794,0 -0.415271,0.117769 -0.504004,0.2952 l -0.06287,0.03884 h -0.03035 c -0.238853,0 -0.435902,0.175088 -0.435902,0.385299 0,0.301605 0.312297,0.465246 0.604194,0.359089 l 0.08182,0.02613 c 0.174296,0.25274 0.543359,0.271381 0.679482,0.0077 l 0.05953,-0.03797 c 0.233573,-0.0097 0.579898,-0.04482 0.631997,-0.366058 0.03208,-0.200576 -0.186621,-0.374191 -0.436773,-0.374191 h -0.03035 l -0.06527,-0.04414 c -0.06863,-0.171632 -0.261917,-0.289903 -0.491504,-0.289903 z m 5.3448855,0 c -0.228693,0 -0.423144,0.118938 -0.491515,0.2899 l -0.01771,0.04414 h -0.0779 c -0.01872,0 -0.06654,0.0098 -0.118488,0.03057 -0.05194,0.0208 -0.110087,0.05169 -0.161758,0.08901 -0.103338,0.07464 -0.17054,0.167021 -0.156528,0.254615 0.01327,0.08181 0.04332,0.141034 0.08422,0.187966 0.04091,0.04694 0.09391,0.08178 0.15486,0.107742 0.12191,0.05192 0.273785,0.06539 0.392922,0.07035 l 0.0408,0.0016 0.01873,0.0363 c 0.03448,0.06679 0.08174,0.113613 0.136855,0.144696 0.05511,0.03108 0.118577,0.04616 0.184265,0.04509 0.131374,-0.0022 0.270044,-0.06943 0.358362,-0.197478 l 0.03078,-0.04465 0.05105,0.01852 c 0.148126,0.05387 0.301438,0.03728 0.415212,-0.02882 0.05689,-0.03305 0.103858,-0.07816 0.136781,-0.133297 0.03293,-0.05514 0.0522,-0.120442 0.0522,-0.196969 0,-0.09283 -0.07308,-0.191853 -0.172067,-0.266667 -0.0495,-0.03741 -0.103885,-0.06801 -0.152391,-0.08857 -0.0485,-0.02057 -0.09274,-0.03006 -0.111445,-0.03006 h -0.07376 l -0.01946,-0.03884 c -0.0891,-0.17813 -0.275332,-0.295203 -0.504018,-0.295203 z m -6.0614675,0.0066 c -0.338103,0.0016 -0.639452,0.09029 -0.823307,0.281258 0.341062,-0.09615 0.665717,-0.130918 0.986588,-0.116381 0.03849,-0.05538 0.08579,-0.104043 0.139978,-0.144478 -0.102499,-0.01393 -0.204345,-0.02087 -0.303259,-0.0204 z m 6.7781215,0 c -0.09891,-4.68e-4 -0.200834,0.0065 -0.303331,0.0204 0.05419,0.04043 0.101486,0.08909 0.139977,0.144478 0.320848,-0.01453 0.645478,0.02024 0.986517,0.116381 -0.183842,-0.190969 -0.485076,-0.279667 -0.823163,-0.281262 z m -1.203305,0.08385 c -0.03061,0.02718 -0.06035,0.0551 -0.08908,0.08378 0.01262,-0.0069 0.02525,-0.01376 0.0379,-0.02055 0.01535,-0.02234 0.03249,-0.04342 0.05118,-0.06324 z m -4.3707125,9.17e-4 c 0.01839,0.01958 0.03533,0.04041 0.05046,0.06244 0.01255,0.0067 0.02502,0.01349 0.03753,0.02033 -0.0284,-0.02834 -0.05777,-0.0559 -0.08799,-0.08277 z m 0.678538,0.615011 c -8.02e-4,0.008 -0.0018,0.01605 -0.003,0.02411 -0.06596,0.406689 -0.470121,0.468578 -0.725948,0.48273 -0.01229,0.01981 -0.02572,0.03831 -0.04008,0.05561 v 3.7790078 c 1.3e-5,0.116548 0.093,0.209474 0.209529,0.209457 h 0.07057 v 0 h 4.0612105 c 0.116523,-1.2e-5 0.209547,-0.093 0.209529,-0.209528 V 8.2671165 c -0.01436,-0.01734 -0.02774,-0.03582 -0.04,-0.05561 -0.255836,-0.01416 -0.660013,-0.07604 -0.7259495,-0.482586 -0.0014,-0.0081 -0.0022,-0.01619 -0.0027,-0.02418 z m 0.0034,0.935912 c 0.05593,0.0028 0.109016,0.02527 0.150068,0.06331 l 0.001,9.22e-4 1.050842,1.050261 c 0.09329,0.09339 0.09324,0.24418 0,0.3375258 l -1.050768,1.050693 -8.6e-4,8.59e-4 c -0.171472,0.159917 -0.421973,0.006 -0.403303,-0.196026 0.0046,-0.05009 0.0262,-0.09877 0.06585,-0.141283 l 8.6e-4,-8.59e-4 0.882111,-0.8821828 -0.882114,-0.881533 -9.16e-4,-9.74e-4 c -0.145604,-0.157067 -0.02656,-0.411655 0.18731,-0.40071 z m 1.650026,2.0944228 h 1.4846335 c 0.05988,0 0.111442,0.01821 0.151666,0.05039 0.162507,0.130018 0.09026,0.427117 -0.151666,0.427117 H 8.6135165 c -0.241927,0 -0.314246,-0.297099 -0.151739,-0.427117 0.04023,-0.03218 0.09186,-0.05039 0.151739,-0.05039 z" />
  <path
     id="gradient-path1"
     style="opacity:0.3;baseline-shift:baseline;display:inline;overflow:visible;vector-effect:none;enable-background:accumulate;stop-color:#000000;stop-opacity:1;fill:url(#linearGradient4)"
     d="M 8.4453131 1.2753492 C 4.4913166 1.2753492 1.2794833 4.4784283 1.2794833 8.4236094 C 1.2794833 12.36879 4.4913166 15.572386 8.4453131 15.572386 C 12.39931 15.572386 15.611143 12.36879 15.611143 8.4236094 C 15.611143 4.4784283 12.39931 1.2753492 8.4453131 1.2753492 z " />
</svg>
