<?xml version="1.0" encoding="UTF-8" standalone="no"?>
<svg
   width="64"
   height="64"
   version="1.1"
   viewBox="0 0 16.933 16.933"
   id="svg7"
   sodipodi:docname="kmail.svg"
   inkscape:version="1.4.2 (ebf0e940d0, 2025-05-08)"
   xmlns:inkscape="http://www.inkscape.org/namespaces/inkscape"
   xmlns:sodipodi="http://sodipodi.sourceforge.net/DTD/sodipodi-0.dtd"
   xmlns:xlink="http://www.w3.org/1999/xlink"
   xmlns="http://www.w3.org/2000/svg"
   xmlns:svg="http://www.w3.org/2000/svg"
   xmlns:rdf="http://www.w3.org/1999/02/22-rdf-syntax-ns#"
   xmlns:cc="http://creativecommons.org/ns#"
   xmlns:dc="http://purl.org/dc/elements/1.1/">
  <sodipodi:namedview
     id="namedview7"
     pagecolor="#9c4444"
     bordercolor="#000000"
     borderopacity="0.25"
     inkscape:showpageshadow="2"
     inkscape:pageopacity="0.0"
     inkscape:pagecheckerboard="0"
     inkscape:deskcolor="#d1d1d1"
     inkscape:zoom="8.7062522"
     inkscape:cx="71.615201"
     inkscape:cy="15.276378"
     inkscape:window-width="2560"
     inkscape:window-height="1392"
     inkscape:window-x="0"
     inkscape:window-y="0"
     inkscape:window-maximized="1"
     inkscape:current-layer="svg7"
     showgrid="false" />
  <defs
     id="defs2">
    <filter
       style="color-interpolation-filters:sRGB;"
       inkscape:label="Blur"
       id="filter3"
       x="-0.10843471"
       y="-0.10870992"
       width="1.2168694"
       height="1.2174198">
      <feGaussianBlur
         stdDeviation="0.5 0.5"
         result="blur"
         id="feGaussianBlur3" />
    </filter>
    <style
       id="current-color-scheme"
       type="text/css">.ColorScheme-Text {color:#d8dee9} .ColorScheme-Highlight {color:#3b4252}</style>
    <linearGradient
       id="linearGradient3"
       inkscape:collect="always">
      <stop
         style="stop-color:#000000;stop-opacity:1;"
         offset="0"
         id="stop3" />
      <stop
         style="stop-color:#000000;stop-opacity:0;"
         offset="1"
         id="stop4" />
    </linearGradient>
    <linearGradient
       inkscape:collect="always"
       xlink:href="#linearGradient3"
       id="linearGradient4"
       x1="13.512321"
       y1="13.490874"
       x2="3.3783066"
       y2="3.3568602"
       gradientUnits="userSpaceOnUse" />
  </defs>
  <metadata
     id="metadata2">
    <rdf:RDF>
      <cc:Work
         rdf:about="">
        <dc:format>image/svg+xml</dc:format>
        <dc:type
           rdf:resource="http://purl.org/dc/dcmitype/StillImage" />
      </cc:Work>
    </rdf:RDF>
  </metadata>
  <ellipse
     style="opacity:1;fill:none;stroke:#000000;stroke-width:0.582072;stroke-dasharray:none;stroke-opacity:1;filter:url(#filter3)"
     id="path1-5"
     cx="8.4450111"
     cy="8.423522"
     rx="6.8752708"
     ry="6.8578653" />
  <ellipse
     style="opacity:1;fill:none;stroke-width:0.58207188;stroke-opacity:1;stroke:currentColor;stroke-dasharray:none;fill-opacity:1"
     id="path1"
     cx="8.4450111"
     cy="8.423522"
     rx="6.8752708"
     ry="6.8578653"
     class="ColorScheme-Text" />
  <ellipse
     style="fill:currentColor;stroke:none;stroke-width:0.285844;stroke-dasharray:none;stroke-opacity:1"
     id="path1-2"
     cx="8.4557552"
     cy="8.423522"
     rx="6.5738997"
     ry="6.5692253"
     class="ColorScheme-Highlight" />
  <path
     id="path5"
     style="opacity:0.3;fill:#000000;fill-opacity:1;stroke-width:0.198434"
     d="M 5.688312,5.0269844 V 9.0948146 L 7.672648,10.583066 H 9.260351 L 11.244687,9.0948146 V 6.6143944 l -1.587703,-1.58741 z m 3.976278,0.374695 1.198089,1.19809 H 9.66459 Z m -1.991942,1.212715 c 0.109933,0 0.198609,0.08868 0.198609,0.198609 0,0.109932 -0.08868,0.198317 -0.198609,0.198317 -0.109932,0 -0.198316,-0.08839 -0.198316,-0.198317 0,-0.109932 0.08838,-0.198609 0.198316,-0.198609 z m 1.389094,0 0.992168,0.992168 L 9.061742,8.5987306 8.664816,8.2018048 9.260351,7.6065624 8.664816,7.0113204 Z m -3.673245,1.053009 -0.890669,0.5344014 0.890669,0.668368 z m 6.156005,0 v 1.2027694 l 0.89067,-0.668368 z m -4.367938,0.137768 c 0.164899,0 0.297768,0.132577 0.297768,0.2974752 0,0.1648983 -0.132869,0.2977674 -0.297768,0.2977674 -0.164898,0 -0.297475,-0.1328691 -0.297475,-0.2977674 0,-0.1648982 0.132577,-0.2974752 0.297475,-0.2974752 z M 4.497828,8.5767929 V 12.964328 L 7.422851,10.77056 5.688312,9.4700951 5.388497,9.2448683 Z m 7.937344,0 -0.89067,0.6680754 -0.299815,0.2252268 -1.734539,1.3004649 2.925024,2.193768 z M 8.069574,8.9956563 c 0.219865,0 0.396926,0.1770613 0.396926,0.3969257 0,0.2198645 -0.177061,0.3969257 -0.396926,0.3969257 -0.219864,0 -0.396926,-0.1770612 -0.396926,-0.3969257 0,-0.2198644 0.177062,-0.3969257 0.396926,-0.3969257 z m -0.29689,1.8875177 -2.77497,2.081154 h 6.937571 L 9.160316,10.883174 Z" />
  <path
     id="path5-7"
     style="fill:currentColor;fill-opacity:1;stroke-width:0.198434"
     class="ColorScheme-Text"
     d="M 5.688312,4.4978281 V 8.5656583 L 7.672648,10.05391 H 9.260351 L 11.244687,8.5656583 V 6.0852381 l -1.587703,-1.58741 z m 3.976278,0.374695 1.198089,1.19809 H 9.66459 Z m -1.991942,1.212715 c 0.109933,0 0.198609,0.08868 0.198609,0.198609 0,0.109932 -0.08868,0.198317 -0.198609,0.198317 -0.109932,0 -0.198316,-0.08839 -0.198316,-0.198317 0,-0.109932 0.08838,-0.198609 0.198316,-0.198609 z m 1.389094,0 0.992168,0.992168 L 9.061742,8.0695743 8.664816,7.6726485 9.260351,7.0774061 8.664816,6.4821641 Z m -3.673245,1.053009 -0.890669,0.5344014 0.890669,0.668368 z m 6.156005,0 v 1.2027694 l 0.89067,-0.668368 z m -4.367938,0.137768 c 0.164899,0 0.297768,0.132577 0.297768,0.2974752 0,0.1648983 -0.132869,0.2977674 -0.297768,0.2977674 -0.164898,0 -0.297475,-0.1328691 -0.297475,-0.2977674 0,-0.1648982 0.132577,-0.2974752 0.297475,-0.2974752 z M 4.497828,8.0476366 V 12.435172 L 7.422851,10.241404 5.688312,8.9409388 5.388497,8.715712 Z m 7.937344,0 -0.89067,0.6680754 -0.299815,0.2252268 -1.734539,1.3004652 2.925024,2.193768 z M 8.069574,8.4665 c 0.219865,0 0.396926,0.1770613 0.396926,0.3969257 0,0.2198645 -0.177061,0.3969257 -0.396926,0.3969257 -0.219864,0 -0.396926,-0.1770612 -0.396926,-0.3969257 C 7.672648,8.6435613 7.84971,8.4665 8.069574,8.4665 Z m -0.29689,1.887518 -2.77497,2.081154 h 6.937571 L 9.160316,10.354018 Z" />
  <path
     id="gradient-path1"
     style="opacity:0.3;baseline-shift:baseline;display:inline;overflow:visible;vector-effect:none;enable-background:accumulate;stop-color:#000000;stop-opacity:1;fill:url(#linearGradient4)"
     d="M 8.4453131 1.2753492 C 4.4913166 1.2753492 1.2794833 4.4784283 1.2794833 8.4236094 C 1.2794833 12.36879 4.4913166 15.572386 8.4453131 15.572386 C 12.39931 15.572386 15.611143 12.36879 15.611143 8.4236094 C 15.611143 4.4784283 12.39931 1.2753492 8.4453131 1.2753492 z " />
</svg>
