<?xml version="1.0" encoding="UTF-8" standalone="no"?>
<svg
   width="64"
   height="64"
   version="1.1"
   viewBox="0 0 16.933 16.933"
   id="svg7"
   sodipodi:docname="kmymoney.svg"
   inkscape:version="1.4.2 (ebf0e940d0, 2025-05-08)"
   xmlns:inkscape="http://www.inkscape.org/namespaces/inkscape"
   xmlns:sodipodi="http://sodipodi.sourceforge.net/DTD/sodipodi-0.dtd"
   xmlns:xlink="http://www.w3.org/1999/xlink"
   xmlns="http://www.w3.org/2000/svg"
   xmlns:svg="http://www.w3.org/2000/svg"
   xmlns:rdf="http://www.w3.org/1999/02/22-rdf-syntax-ns#"
   xmlns:cc="http://creativecommons.org/ns#"
   xmlns:dc="http://purl.org/dc/elements/1.1/">
  <sodipodi:namedview
     id="namedview7"
     pagecolor="#9c4444"
     bordercolor="#000000"
     borderopacity="0.25"
     inkscape:showpageshadow="2"
     inkscape:pageopacity="0.0"
     inkscape:pagecheckerboard="0"
     inkscape:deskcolor="#d1d1d1"
     inkscape:zoom="8.7062522"
     inkscape:cx="72.304361"
     inkscape:cy="15.276378"
     inkscape:window-width="2560"
     inkscape:window-height="1388"
     inkscape:window-x="0"
     inkscape:window-y="0"
     inkscape:window-maximized="1"
     inkscape:current-layer="svg7"
     showgrid="false" />
  <defs
     id="defs2">
    <filter
       style="color-interpolation-filters:sRGB;"
       inkscape:label="Blur"
       id="filter3"
       x="-0.10843471"
       y="-0.10870992"
       width="1.2168694"
       height="1.2174198">
      <feGaussianBlur
         stdDeviation="0.5 0.5"
         result="blur"
         id="feGaussianBlur3" />
    </filter>
    <style
       id="current-color-scheme"
       type="text/css">.ColorScheme-Text {color:#d8dee9} .ColorScheme-Highlight {color:#3b4252}</style>
    <linearGradient
       id="linearGradient3"
       inkscape:collect="always">
      <stop
         style="stop-color:#000000;stop-opacity:1;"
         offset="0"
         id="stop3" />
      <stop
         style="stop-color:#000000;stop-opacity:0;"
         offset="1"
         id="stop4" />
    </linearGradient>
    <linearGradient
       inkscape:collect="always"
       xlink:href="#linearGradient3"
       id="linearGradient4"
       x1="13.512321"
       y1="13.490874"
       x2="3.3783066"
       y2="3.3568602"
       gradientUnits="userSpaceOnUse" />
  </defs>
  <metadata
     id="metadata2">
    <rdf:RDF>
      <cc:Work
         rdf:about="">
        <dc:format>image/svg+xml</dc:format>
        <dc:type
           rdf:resource="http://purl.org/dc/dcmitype/StillImage" />
      </cc:Work>
    </rdf:RDF>
  </metadata>
  <ellipse
     style="opacity:1;fill:none;stroke:#000000;stroke-width:0.582072;stroke-dasharray:none;stroke-opacity:1;filter:url(#filter3)"
     id="path1-5"
     cx="8.4450111"
     cy="8.423522"
     rx="6.8752708"
     ry="6.8578653" />
  <ellipse
     style="opacity:1;fill:none;stroke-width:0.58207188;stroke-opacity:1;stroke:currentColor;stroke-dasharray:none;fill-opacity:1"
     id="path1"
     cx="8.4450111"
     cy="8.423522"
     rx="6.8752708"
     ry="6.8578653"
     class="ColorScheme-Text" />
  <ellipse
     style="fill:currentColor;stroke:none;stroke-width:0.285844;stroke-dasharray:none;stroke-opacity:1"
     id="path1-2"
     cx="8.4557552"
     cy="8.423522"
     rx="6.5738997"
     ry="6.5692253"
     class="ColorScheme-Highlight" />
  <path
     id="path5-6"
     style="opacity:0.3;fill:#000000;fill-opacity:1;stroke-width:0.208878"
     d="m 8.4664995,5.0269844 c -1.052322,0 -2.062283,0.4181914 -2.806383,1.1622887 -0.744097,0.7441001 -1.162288,1.7540604 -1.162288,2.8063829 0,1.052323 0.418191,2.062283 1.162288,2.806383 0.7441,0.7441 1.754062,1.162289 2.806383,1.162289 1.052322,0 2.0622815,-0.418189 2.8063835,-1.162289 0.7441,-0.744101 1.162288,-1.754062 1.162288,-2.806383 0,-1.0523217 -0.418188,-2.0622824 -1.162288,-2.8063829 C 10.528782,5.4451758 9.5188225,5.0269844 8.4664995,5.0269844 Z m -2.080207,0.8795699 c 0.02966,0.045446 0.03854,0.103525 0.01918,0.1586979 l -0.147684,0.4210186 0.438561,-0.082409 c 0.05746,-0.010799 0.113771,0.00664 0.15421,0.042836 -0.02623,0.120961 -0.09919,0.2277536 -0.20235,0.2961818 -0.05145,0.03413 -0.110515,0.05885 -0.175017,0.070986 -0.06448,0.012136 -0.128542,0.010648 -0.188886,-0.00245 -0.06519,-0.014141 -0.125958,-0.042093 -0.179096,-0.080777 -0.0234,-0.017024 -0.04526,-0.03606 -0.06527,-0.057115 -0.0178,-0.022956 -0.03363,-0.047334 -0.04692,-0.073025 -0.03023,-0.058382 -0.04809,-0.123113 -0.05222,-0.1897031 -0.0038,-0.061619 0.004,-0.1249361 0.0257,-0.1868473 0.02172,-0.061911 0.05518,-0.1166674 0.09669,-0.1623698 0.08322,-0.091641 0.199556,-0.1473416 0.323108,-0.1550261 z m 4.1604145,0 c 0.12355,0.00768 0.23989,0.063385 0.323106,0.1550262 0.04149,0.045702 0.07496,0.1004584 0.09669,0.1623696 0.02172,0.061911 0.02954,0.1252286 0.0257,0.1868474 -0.0041,0.06659 -0.022,0.1313219 -0.05222,0.1897031 -0.0133,0.025692 -0.02912,0.05007 -0.04692,0.073026 -0.02002,0.021056 -0.04188,0.040092 -0.06527,0.057115 -0.05314,0.038684 -0.113885,0.066636 -0.179096,0.080777 -0.06032,0.013096 -0.124387,0.014584 -0.188887,0.00245 -0.06448,-0.012136 -0.12357,-0.036855 -0.175017,-0.070985 -0.103144,-0.068428 -0.176095,-0.1752207 -0.20235,-0.2961817 0.04046,-0.036198 0.09673,-0.053635 0.15421,-0.042836 l 0.438565,0.082409 -0.147683,-0.4210187 c -0.01936,-0.055173 -0.01051,-0.1132524 0.01918,-0.1586978 z M 8.4664995,6.2802491 c 0.72042,0 1.41087,0.2861155 1.9202855,0.7955295 0.509414,0.5094146 0.795122,1.1994561 0.795122,1.9198774 0,0.7204213 -0.286115,1.410463 -0.795529,1.919878 -0.5094155,0.509414 -1.1994565,0.795529 -1.9198785,0.795529 -0.720421,0 -1.410462,-0.286115 -1.919877,-0.795529 -0.509414,-0.509416 -0.79553,-1.1994575 -0.79553,-1.919878 0,-0.7204204 0.285708,-1.4104621 0.795122,-1.9198774 0.509416,-0.509414 1.199864,-0.7955295 1.920285,-0.7955295 z m 0,0.2088774 c -1.384314,0 -2.506529,1.122215 -2.506529,2.5065295 0,1.384314 1.122215,2.506529 2.506529,2.506529 1.384315,0 2.5065295,-1.122215 2.5065295,-2.506529 0,-1.3843145 -1.1222145,-2.5065295 -2.5065295,-2.5065295 z m -2.929995,0.2072458 c 0.04225,0.034068 0.06872,0.08677 0.06731,0.1452349 l -0.01061,0.4459046 0.391645,-0.2137732 c 0.05132,-0.02801 0.110271,-0.02848 0.159921,-0.00653 0.01236,0.1231542 -0.02418,0.2469943 -0.101175,0.3439134 -0.03842,0.048335 -0.08683,0.090116 -0.144419,0.1215734 -0.05761,0.031436 -0.118889,0.049729 -0.18032,0.055891 -0.06638,0.00666 -0.132929,-8.378e-4 -0.195414,-0.021214 -0.0275,-0.00898 -0.05402,-0.02042 -0.07955,-0.034269 -0.02402,-0.016354 -0.04674,-0.035159 -0.06731,-0.055484 -0.04676,-0.046204 -0.08403,-0.1019439 -0.108518,-0.1640014 -0.02266,-0.057421 -0.0342,-0.120036 -0.03264,-0.1856235 0.0016,-0.065608 0.01624,-0.1281073 0.04162,-0.1843997 0.05086,-0.1128356 0.144324,-0.2017955 0.259465,-0.2472259 z m 5.8599905,0 c 0.115134,0.04543 0.208604,0.1343903 0.259466,0.2472259 0.02538,0.056292 0.04004,0.1187912 0.04162,0.1843997 0.0016,0.065587 -0.01,0.1282031 -0.03264,0.1856236 -0.02448,0.062057 -0.06177,0.1177976 -0.108518,0.1640014 -0.0206,0.020324 -0.04291,0.039128 -0.06691,0.055484 -0.02555,0.013848 -0.05245,0.025287 -0.07996,0.034268 -0.06248,0.020386 -0.129033,0.027877 -0.195415,0.021214 -0.06143,-0.00617 -0.122732,-0.024455 -0.180319,-0.055891 -0.05759,-0.031457 -0.106029,-0.073239 -0.14442,-0.1215735 -0.07701,-0.096919 -0.113541,-0.2207593 -0.101176,-0.3439134 0.04965,-0.021953 0.1086,-0.021483 0.159922,0.00653 L 11.33979,7.2875141 11.32918,6.8416096 c -0.0014,-0.058464 0.02506,-0.1111671 0.06731,-0.145235 z M 8.0487455,7.0113202 V 8.577901 L 9.5129265,7.1157589 9.8992685,7.5021005 8.8238765,8.577901 H 10.346396 V 8.7867786 H 8.6149995 l -0.208062,0.2080615 0.210101,0.2096933 H 10.346396 V 9.4134109 H 8.8259155 l 0.129325,0.1293246 0.944028,0.9358685 -0.386342,0.396949 -1.464181,-1.4621421 v 1.3577031 l -0.626633,0.104439 V 9.4134109 h -0.83551 V 9.2045334 h 0.83551 V 8.7867786 h -0.83551 V 8.577901 h 0.83551 V 7.1157589 Z m -3.079311,0.7033297 c 0.05072,0.019342 0.09218,0.061064 0.108926,0.1170854 l 0.128101,0.427138 0.305973,-0.3239232 c 0.04014,-0.042507 0.09614,-0.061427 0.15013,-0.055891 0.04984,0.1132951 0.05346,0.2422235 0.0102,0.3581923 -0.02158,0.057838 -0.05492,0.1126221 -0.09995,0.1603297 -0.04506,0.047708 -0.0977,0.08407 -0.15421,0.1089262 -0.06107,0.026862 -0.126425,0.040451 -0.192151,0.040388 -0.02894,-4.16e-5 -0.05792,-0.00288 -0.08649,-0.00816 -0.0279,-0.00813 -0.05492,-0.01885 -0.08078,-0.031821 -0.05874,-0.029493 -0.111329,-0.070922 -0.153802,-0.1223891 -0.0393,-0.047603 -0.07014,-0.1035771 -0.08894,-0.1664492 -0.0188,-0.062872 -0.02386,-0.1267032 -0.01713,-0.1880714 0.01349,-0.1230497 0.07467,-0.2365464 0.170121,-0.3153558 z m 6.9941305,0 c 0.09546,0.078809 0.156627,0.1923061 0.170121,0.3153558 0.0067,0.061368 0.0016,0.1251992 -0.01713,0.1880714 -0.0188,0.062872 -0.04962,0.118846 -0.08894,0.1664492 -0.04246,0.051467 -0.09507,0.092895 -0.153802,0.1223891 -0.02586,0.012971 -0.0529,0.023696 -0.08078,0.031821 -0.02857,0.00528 -0.05756,0.00812 -0.08649,0.00816 -0.06573,6.26e-5 -0.131096,-0.013527 -0.192151,-0.040388 -0.05652,-0.024856 -0.109156,-0.061219 -0.15421,-0.1089263 -0.04506,-0.047708 -0.07837,-0.1024915 -0.09995,-0.1603297 -0.04328,-0.1159688 -0.03966,-0.2448971 0.0102,-0.3581923 0.05399,-0.00554 0.110005,0.013385 0.150131,0.055891 l 0.305974,0.3239231 0.128102,-0.427138 c 0.01673,-0.056021 0.05821,-0.097744 0.108926,-0.1170854 z M 5.4553195,8.7941218 c 0.08222,0.092533 0.125517,0.2141387 0.119941,0.3377941 -0.0028,0.061661 -0.01788,0.1239381 -0.0461,0.1831757 -0.02822,0.059237 -0.06686,0.1099439 -0.113006,0.1509466 -0.04987,0.044324 -0.108363,0.077388 -0.170937,0.097503 -0.02754,0.00886 -0.05604,0.015027 -0.08486,0.018766 -0.02904,8.547e-4 -0.0579,-9e-4 -0.08649,-0.0053 -0.06496,-0.010005 -0.12777,-0.033427 -0.183991,-0.069354 -0.05203,-0.033232 -0.09825,-0.076899 -0.135444,-0.1309564 -0.03719,-0.054058 -0.06181,-0.1133225 -0.07425,-0.1737925 -0.02494,-0.1212325 -0.0014,-0.2481673 0.06527,-0.3524807 0.0542,0.00284 0.106385,0.029733 0.139523,0.077921 l 0.252937,0.3675775 0.191742,-0.4026601 c 0.02515,-0.052784 0.07257,-0.087814 0.125654,-0.099135 z m 6.0223605,0 c 0.0531,0.011321 0.100504,0.046352 0.125653,0.099135 l 0.191743,0.4026601 0.252937,-0.3675755 c 0.03315,-0.048188 0.08532,-0.07508 0.139524,-0.077921 0.06666,0.1043134 0.09021,0.231248 0.06527,0.3524807 -0.01242,0.06047 -0.03666,0.1197351 -0.07384,0.1737925 -0.0372,0.054058 -0.08382,0.097724 -0.135853,0.1309564 -0.05621,0.035926 -0.119031,0.059349 -0.183991,0.069354 -0.02857,0.0044 -0.05746,0.00616 -0.08649,0.0053 -0.02882,-0.00374 -0.05731,-0.00991 -0.08485,-0.018766 -0.06256,-0.020115 -0.121058,-0.05318 -0.170938,-0.097503 -0.04614,-0.041003 -0.08479,-0.091709 -0.113006,-0.1509466 -0.02822,-0.059237 -0.04332,-0.1215151 -0.0461,-0.1831758 -0.0055,-0.1236554 0.03773,-0.2452613 0.119941,-0.337794 z M 5.5405835,9.7348863 c 0.106795,0.06258 0.185729,0.16504 0.218668,0.2843507 0.01642,0.05951 0.02119,0.123435 0.01265,0.188479 -0.0085,0.06507 -0.02958,0.125404 -0.06079,0.178689 -0.03374,0.05755 -0.07928,0.106759 -0.132588,0.145234 -0.02346,0.01692 -0.04841,0.03202 -0.07466,0.04447 -0.02736,0.0098 -0.05548,0.01699 -0.08404,0.02162 -0.06487,0.01055 -0.131661,0.0074 -0.196231,-0.0094 -0.05976,-0.01552 -0.117632,-0.0429 -0.169713,-0.08282 -0.05208,-0.03994 -0.0935,-0.08831 -0.124021,-0.141972 -0.0612,-0.107592 -0.07805,-0.235931 -0.04692,-0.355744 0.05242,-0.014055 0.11025,-0.0042 0.156658,0.03141 l 0.354112,0.271296 0.05793,-0.4422326 c 0.0076,-0.057963 0.04194,-0.1062291 0.08894,-0.1334043 z m 5.8518315,0 c 0.04698,0.027175 0.08133,0.07544 0.08894,0.1334042 l 0.05793,0.4422325 0.354113,-0.271295 c 0.04641,-0.03557 0.104229,-0.04547 0.156658,-0.03141 0.03112,0.119812 0.01429,0.248151 -0.04692,0.355744 -0.03051,0.05366 -0.07194,0.102034 -0.124022,0.141971 -0.0521,0.03992 -0.109953,0.0673 -0.169712,0.08282 -0.06456,0.0168 -0.131354,0.01993 -0.196231,0.0094 -0.02856,-0.0046 -0.0567,-0.01185 -0.08404,-0.02162 -0.02626,-0.01245 -0.0512,-0.02755 -0.07466,-0.04447 -0.05328,-0.03847 -0.09885,-0.08769 -0.132588,-0.145235 -0.03121,-0.05329 -0.05226,-0.113623 -0.06079,-0.178688 -0.0085,-0.06505 -0.0038,-0.12897 0.01265,-0.18848 0.03292,-0.11931 0.11187,-0.2217703 0.218668,-0.2843502 z M 5.9089745,10.597729 c 0.120857,0.02676 0.227376,0.100138 0.295366,0.203574 0.0339,0.05159 0.0583,0.110495 0.07017,0.175017 0.01186,0.06454 0.01008,0.128605 -0.0032,0.188888 -0.01443,0.06513 -0.04268,0.126124 -0.08159,0.179096 -0.01713,0.02333 -0.03638,0.04494 -0.05752,0.06487 -0.02304,0.01771 -0.04727,0.03331 -0.07303,0.04651 -0.05848,0.02995 -0.123091,0.04795 -0.189702,0.05181 -0.06164,0.0036 -0.125041,-0.0049 -0.186848,-0.02693 -0.06182,-0.022 -0.116426,-0.0554 -0.161962,-0.0971 -0.09129,-0.08359 -0.14664,-0.200351 -0.153802,-0.323923 0.04557,-0.02949 0.103608,-0.03836 0.158698,-0.01876 l 0.420611,0.149722 -0.08078,-0.438969 c -0.01059,-0.0575 0.0073,-0.11351 0.04365,-0.153802 z m 5.1150505,0 c 0.03636,0.04029 0.05422,0.0963 0.04365,0.153803 l -0.08077,0.438969 0.42061,-0.149723 c 0.05508,-0.01959 0.113121,-0.01073 0.158698,0.01877 -0.0072,0.123571 -0.06253,0.24033 -0.153802,0.323923 -0.04554,0.04169 -0.100134,0.0751 -0.161962,0.09709 -0.06182,0.022 -0.125207,0.0305 -0.186847,0.02693 -0.06659,-0.0038 -0.131218,-0.02186 -0.189703,-0.05181 -0.02576,-0.0132 -0.04999,-0.02879 -0.07303,-0.0465 -0.02114,-0.01993 -0.04041,-0.04154 -0.05752,-0.06487 -0.03892,-0.05297 -0.06718,-0.113969 -0.08159,-0.179096 -0.01335,-0.06028 -0.01472,-0.124345 -0.0028,-0.188888 0.01186,-0.06452 0.03586,-0.123424 0.06976,-0.175017 0.06799,-0.103436 0.174509,-0.176817 0.295366,-0.203574 z m -4.4488445,0.709858 c 0.107604,1.51e-4 0.213264,0.03674 0.297812,0.104439 0.04819,0.03858 0.08953,0.08711 0.120758,0.144827 0.03123,0.05771 0.04912,0.119276 0.05507,0.180727 0.0064,0.0664 -9.62e-4,0.133003 -0.02162,0.195415 -0.0091,0.02746 -0.02071,0.05407 -0.03468,0.07955 -0.01642,0.02396 -0.03508,0.04639 -0.05548,0.06691 -0.04637,0.04656 -0.102248,0.08345 -0.16441,0.107703 -0.0575,0.02243 -0.120444,0.03402 -0.186031,0.03223 -0.06559,-0.0018 -0.127804,-0.01686 -0.183991,-0.04243 -0.112648,-0.0513 -0.201398,-0.145367 -0.246411,-0.260688 0.03424,-0.04211 0.0872,-0.06813 0.145643,-0.0665 l 0.445496,0.01224 -0.21214,-0.392462 c -0.02782,-0.05142 -0.02826,-0.110355 -0.0062,-0.159922 0.0154,-0.0015 0.03073,-0.0021 0.0461,-0.002 z m 3.7826385,0 c 0.0154,2e-6 0.0307,5.43e-4 0.0461,0.002 0.02214,0.04957 0.0217,0.108495 -0.0062,0.159921 l -0.212141,0.392461 0.445904,-0.01224 c 0.05845,-0.0016 0.111021,0.02439 0.145235,0.0665 -0.04499,0.115321 -0.133741,0.209389 -0.24641,0.260689 -0.05618,0.02557 -0.118404,0.04061 -0.183992,0.04243 -0.06561,0.0018 -0.128506,-0.0098 -0.186031,-0.03223 -0.06214,-0.02425 -0.118038,-0.06114 -0.1644095,-0.107702 -0.02041,-0.02051 -0.03905,-0.04294 -0.05548,-0.06691 -0.01395,-0.02548 -0.0256,-0.05209 -0.03468,-0.07955 -0.02062,-0.06241 -0.02804,-0.129013 -0.02162,-0.195415 0.0059,-0.06145 0.02382,-0.123016 0.05507,-0.180728 0.03123,-0.05771 0.072547,-0.106248 0.1207575,-0.144827 0.07246,-0.05803 0.160384,-0.09343 0.251714,-0.102399 0.01522,-0.0015 0.0307,-0.002 0.0461,-0.002 z" />
  <path
     id="path5-6-5"
     style="fill:currentColor;fill-opacity:1;stroke-width:0.208878"
     d="m 8.4664995,4.4978282 c -1.052322,0 -2.062283,0.4181914 -2.806383,1.1622887 -0.744097,0.7441001 -1.162288,1.7540604 -1.162288,2.8063829 0,1.052323 0.418191,2.0622832 1.162288,2.8063832 0.7441,0.7441 1.754062,1.162289 2.806383,1.162289 1.052322,0 2.0622825,-0.418189 2.8063835,-1.162289 0.744101,-0.7441 1.162288,-1.7540622 1.162288,-2.8063832 0,-1.0523217 -0.418188,-2.0622824 -1.162288,-2.8063829 C 10.528782,4.9160196 9.5188225,4.4978282 8.4664995,4.4978282 Z m -2.080207,0.8795699 c 0.02966,0.045446 0.03854,0.103525 0.01918,0.1586979 l -0.147684,0.4210186 0.438561,-0.082409 c 0.05746,-0.010799 0.113771,0.00664 0.15421,0.042836 -0.02623,0.120961 -0.09919,0.2277536 -0.20235,0.2961818 -0.05145,0.03413 -0.110515,0.05885 -0.175017,0.070986 -0.06448,0.012136 -0.128542,0.010648 -0.188886,-0.00245 -0.06519,-0.014141 -0.125958,-0.042093 -0.179096,-0.080777 -0.0234,-0.017024 -0.04526,-0.03606 -0.06527,-0.057115 -0.0178,-0.022956 -0.03363,-0.047334 -0.04692,-0.073025 -0.03023,-0.058382 -0.04809,-0.123113 -0.05222,-0.1897031 -0.0038,-0.061619 0.004,-0.1249361 0.0257,-0.1868473 0.02172,-0.061911 0.05518,-0.1166674 0.09669,-0.1623698 0.08322,-0.091641 0.199556,-0.1473416 0.323108,-0.1550261 z m 4.1604145,0 c 0.12355,0.00768 0.23989,0.063385 0.323106,0.1550262 0.04149,0.045702 0.07496,0.1004584 0.09669,0.1623696 0.02172,0.061911 0.02954,0.1252286 0.0257,0.1868474 -0.0041,0.06659 -0.022,0.1313219 -0.05222,0.1897031 -0.0133,0.025692 -0.02912,0.05007 -0.04692,0.073026 -0.02002,0.021056 -0.04188,0.040092 -0.06527,0.057115 -0.05314,0.038684 -0.113885,0.066636 -0.179096,0.080777 -0.06032,0.013096 -0.124387,0.014584 -0.188887,0.00245 -0.06448,-0.012136 -0.12357,-0.036855 -0.175017,-0.070985 -0.103144,-0.068428 -0.176095,-0.1752207 -0.20235,-0.2961817 0.04046,-0.036198 0.09673,-0.053635 0.15421,-0.042836 L 10.675218,5.9571187 10.527534,5.5361 c -0.01936,-0.055173 -0.01051,-0.1132524 0.01918,-0.1586978 z M 8.4664995,5.7510929 c 0.72042,0 1.41087,0.2861155 1.9202855,0.7955295 0.509414,0.5094146 0.795121,1.1994561 0.795121,1.9198774 0,0.7204212 -0.286114,1.410463 -0.795529,1.9198782 -0.5094145,0.509414 -1.1994555,0.795529 -1.9198775,0.795529 -0.720421,0 -1.410462,-0.286115 -1.919877,-0.795529 -0.509414,-0.5094162 -0.79553,-1.1994578 -0.79553,-1.9198782 0,-0.7204204 0.285708,-1.4104621 0.795122,-1.9198774 0.509416,-0.509414 1.199864,-0.7955295 1.920285,-0.7955295 z m 0,0.2088774 c -1.384314,0 -2.506529,1.122215 -2.506529,2.5065295 0,1.384314 1.122215,2.5065292 2.506529,2.5065292 1.384315,0 2.5065295,-1.1222152 2.5065295,-2.5065292 0,-1.3843145 -1.1222145,-2.5065295 -2.5065295,-2.5065295 z m -2.929995,0.2072458 c 0.04225,0.034068 0.06872,0.08677 0.06731,0.1452349 l -0.01061,0.4459046 0.391645,-0.2137732 c 0.05132,-0.02801 0.110271,-0.02848 0.159921,-0.00653 0.01236,0.1231542 -0.02418,0.2469943 -0.101175,0.3439134 -0.03842,0.048335 -0.08683,0.090116 -0.144419,0.1215734 -0.05761,0.031436 -0.118889,0.049729 -0.18032,0.055891 -0.06638,0.00666 -0.132929,-8.378e-4 -0.195414,-0.021214 -0.0275,-0.00898 -0.05402,-0.02042 -0.07955,-0.034269 -0.02402,-0.016354 -0.04674,-0.035159 -0.06731,-0.055484 -0.04676,-0.046204 -0.08403,-0.1019439 -0.108518,-0.1640014 -0.02266,-0.057421 -0.0342,-0.120036 -0.03264,-0.1856235 0.0016,-0.065608 0.01624,-0.1281073 0.04162,-0.1843997 0.05086,-0.1128356 0.144324,-0.2017955 0.259465,-0.2472259 z m 5.8599915,0 c 0.115133,0.04543 0.208604,0.1343903 0.259466,0.2472259 0.02538,0.056292 0.04004,0.1187912 0.04162,0.1843997 0.0016,0.065587 -0.01,0.1282031 -0.03264,0.1856236 -0.02448,0.062057 -0.06177,0.1177976 -0.108518,0.1640014 -0.0206,0.020324 -0.04291,0.039128 -0.06691,0.055484 -0.02555,0.013848 -0.05245,0.025287 -0.07996,0.034268 -0.06248,0.020386 -0.129033,0.027877 -0.195415,0.021214 -0.06143,-0.00617 -0.122732,-0.024455 -0.180319,-0.055891 -0.05759,-0.031457 -0.106029,-0.073239 -0.14442,-0.1215735 -0.07701,-0.096919 -0.113541,-0.2207593 -0.101176,-0.3439134 0.04965,-0.021953 0.1086,-0.021483 0.159922,0.00653 l 0.391645,0.2137731 -0.01061,-0.4459045 c -0.0014,-0.058464 0.02506,-0.1111671 0.06731,-0.145235 z M 8.0487455,6.482164 v 1.5665808 l 1.464181,-1.4621421 0.386342,0.3863416 -1.075392,1.0758005 H 10.346396 V 8.2576224 H 8.6149995 l -0.208062,0.2080615 0.210101,0.2096933 H 10.346396 V 8.8842547 H 8.8259155 l 0.129325,0.1293246 0.944028,0.9358685 -0.386342,0.3969492 -1.464181,-1.4621423 v 1.3577033 l -0.626633,0.104439 V 8.8842547 h -0.83551 V 8.6753772 h 0.83551 V 8.2576224 h -0.83551 V 8.0487448 h 0.83551 V 6.5866027 Z m -3.079311,0.7033297 c 0.05072,0.019342 0.09218,0.061064 0.108926,0.1170854 l 0.128101,0.427138 0.305973,-0.3239232 c 0.04014,-0.042507 0.09614,-0.061427 0.15013,-0.055891 0.04984,0.1132951 0.05346,0.2422235 0.0102,0.3581923 -0.02158,0.057838 -0.05492,0.1126221 -0.09995,0.1603297 -0.04506,0.047708 -0.0977,0.08407 -0.15421,0.1089262 -0.06107,0.026862 -0.126425,0.040451 -0.192151,0.040388 -0.02894,-4.16e-5 -0.05792,-0.00288 -0.08649,-0.00816 -0.0279,-0.00813 -0.05492,-0.01885 -0.08078,-0.031821 -0.05874,-0.029493 -0.111329,-0.070922 -0.153802,-0.1223891 -0.0393,-0.047603 -0.07014,-0.1035771 -0.08894,-0.1664492 -0.0188,-0.062872 -0.02386,-0.1267032 -0.01713,-0.1880714 0.01349,-0.1230497 0.07467,-0.2365464 0.170121,-0.3153558 z m 6.9941315,0 c 0.09546,0.078809 0.156627,0.1923061 0.170121,0.3153558 0.0067,0.061368 0.0016,0.1251992 -0.01713,0.1880714 -0.0188,0.062872 -0.04962,0.118846 -0.08894,0.1664492 -0.04246,0.051467 -0.09507,0.092895 -0.153802,0.1223891 -0.02586,0.012971 -0.0529,0.023696 -0.08078,0.031821 -0.02857,0.00528 -0.05756,0.00812 -0.08649,0.00816 -0.06573,6.26e-5 -0.131096,-0.013527 -0.192151,-0.040388 -0.05652,-0.024856 -0.109156,-0.061219 -0.15421,-0.1089263 -0.04506,-0.047708 -0.07837,-0.1024915 -0.09995,-0.1603297 -0.04328,-0.1159688 -0.03966,-0.2448971 0.0102,-0.3581923 0.05399,-0.00554 0.110005,0.013385 0.150131,0.055891 L 11.726539,7.729718 11.854641,7.30258 c 0.01673,-0.056021 0.05821,-0.097744 0.108925,-0.1170863 z M 5.4553195,8.2649656 c 0.08222,0.092533 0.125517,0.2141387 0.119941,0.3377941 -0.0028,0.061661 -0.01788,0.1239381 -0.0461,0.1831757 -0.02822,0.059237 -0.06686,0.1099439 -0.113006,0.1509466 -0.04987,0.044324 -0.108363,0.077388 -0.170937,0.097503 -0.02754,0.00886 -0.05604,0.015027 -0.08486,0.018766 -0.02904,8.547e-4 -0.0579,-9e-4 -0.08649,-0.0053 -0.06496,-0.010005 -0.12777,-0.033427 -0.183991,-0.069354 -0.05203,-0.033232 -0.09825,-0.076899 -0.135444,-0.1309564 -0.03719,-0.054058 -0.06181,-0.1133225 -0.07425,-0.1737925 -0.02494,-0.1212325 -0.0014,-0.2481673 0.06527,-0.3524807 0.0542,0.00284 0.106385,0.029733 0.139523,0.077921 l 0.252937,0.3675775 0.191742,-0.4026601 c 0.02515,-0.052784 0.07257,-0.087814 0.125654,-0.099135 z m 6.0223615,0 c 0.0531,0.011321 0.100504,0.046352 0.125653,0.099135 l 0.191743,0.4026601 0.252937,-0.3675755 c 0.03315,-0.048188 0.08532,-0.07508 0.139524,-0.077921 0.06666,0.1043134 0.09021,0.231248 0.06527,0.3524807 -0.01242,0.06047 -0.03666,0.1197351 -0.07384,0.1737925 -0.0372,0.054058 -0.08382,0.097724 -0.135853,0.1309564 -0.05621,0.035926 -0.119031,0.059349 -0.183991,0.069354 -0.02857,0.0044 -0.05746,0.00616 -0.08649,0.0053 -0.02882,-0.00374 -0.05731,-0.00991 -0.08485,-0.018766 -0.06256,-0.020115 -0.121058,-0.05318 -0.170938,-0.097503 -0.04614,-0.041003 -0.08479,-0.091709 -0.113006,-0.1509466 -0.02822,-0.059237 -0.04332,-0.1215151 -0.0461,-0.1831758 -0.0055,-0.1236554 0.03773,-0.2452613 0.119941,-0.337794 z M 5.5405835,9.2057301 c 0.106795,0.06258 0.185729,0.1650397 0.218668,0.2843507 0.01642,0.05951 0.02119,0.123435 0.01265,0.188479 -0.0085,0.06507 -0.02958,0.125404 -0.06079,0.178689 -0.03374,0.05754 -0.07928,0.106759 -0.132588,0.1452352 -0.02346,0.01692 -0.04841,0.03202 -0.07466,0.04447 -0.02736,0.0098 -0.05548,0.01699 -0.08404,0.02162 -0.06487,0.01054 -0.131661,0.0074 -0.196231,-0.0094 -0.05976,-0.01552 -0.117632,-0.0429 -0.169713,-0.08282 -0.05208,-0.03994 -0.0935,-0.08831 -0.124021,-0.141972 -0.0612,-0.107592 -0.07805,-0.235932 -0.04692,-0.355744 0.05242,-0.01406 0.11025,-0.0042 0.156658,0.03141 l 0.354112,0.271296 0.05793,-0.442233 c 0.0076,-0.05796 0.04194,-0.106229 0.08894,-0.1334043 z m 5.8518325,0 c 0.04698,0.027176 0.08133,0.075441 0.08894,0.1334037 l 0.05793,0.442233 0.354113,-0.271295 c 0.04641,-0.03557 0.104229,-0.04547 0.156658,-0.03142 0.03112,0.119813 0.01429,0.248152 -0.04692,0.355744 -0.03051,0.05366 -0.07194,0.102035 -0.124022,0.141972 -0.0521,0.03992 -0.109953,0.0673 -0.169712,0.08282 -0.06456,0.01679 -0.131354,0.01993 -0.196231,0.0094 -0.02856,-0.0046 -0.0567,-0.01185 -0.08404,-0.02162 -0.02626,-0.01245 -0.0512,-0.02755 -0.07466,-0.04447 -0.05328,-0.03847 -0.09885,-0.08769 -0.132588,-0.1452352 -0.03121,-0.05329 -0.05226,-0.113623 -0.06079,-0.178689 -0.0085,-0.06504 -0.0038,-0.128969 0.01265,-0.188479 0.03292,-0.11931 0.11187,-0.221771 0.218668,-0.2843505 z M 5.9089745,10.068574 c 0.120857,0.02676 0.227376,0.100137 0.295366,0.203573 0.0339,0.0516 0.0583,0.110495 0.07017,0.175018 0.01186,0.06454 0.01008,0.128604 -0.0032,0.188887 -0.01443,0.06513 -0.04268,0.126124 -0.08159,0.179096 -0.01713,0.02333 -0.03638,0.04494 -0.05752,0.06487 -0.02304,0.01771 -0.04727,0.03331 -0.07303,0.04651 -0.05848,0.02995 -0.123091,0.04795 -0.189702,0.05181 -0.06164,0.0036 -0.125041,-0.0049 -0.186848,-0.02693 -0.06182,-0.022 -0.116426,-0.0554 -0.161962,-0.09709 -0.09129,-0.08359 -0.14664,-0.200352 -0.153802,-0.323924 0.04557,-0.02949 0.103608,-0.03836 0.158698,-0.01876 l 0.420611,0.149722 -0.08078,-0.438969 c -0.01059,-0.0575 0.0073,-0.113509 0.04365,-0.153802 z m 5.1150515,0 c 0.03636,0.04029 0.05422,0.0963 0.04365,0.153802 l -0.08077,0.438969 0.42061,-0.149722 c 0.05508,-0.01959 0.113121,-0.01073 0.158698,0.01876 -0.0072,0.123571 -0.06253,0.24033 -0.153802,0.323923 -0.04554,0.04169 -0.100134,0.0751 -0.161962,0.0971 -0.06182,0.022 -0.125207,0.0305 -0.186847,0.02693 -0.06659,-0.0038 -0.131218,-0.02186 -0.189703,-0.05181 -0.02576,-0.0132 -0.04999,-0.0288 -0.07303,-0.04651 -0.02114,-0.01993 -0.04041,-0.04154 -0.05752,-0.06487 -0.03892,-0.05297 -0.06718,-0.113968 -0.08159,-0.179096 -0.01335,-0.06028 -0.01472,-0.124345 -0.0028,-0.188888 0.01186,-0.06452 0.03586,-0.123423 0.06976,-0.175017 0.06799,-0.103436 0.174509,-0.176816 0.295366,-0.203573 z m -4.4488455,0.709857 c 0.107604,1.51e-4 0.213264,0.03674 0.297812,0.104439 0.04819,0.03858 0.08953,0.08711 0.120758,0.144827 0.03123,0.05771 0.04912,0.119276 0.05507,0.180728 0.0064,0.0664 -9.62e-4,0.133002 -0.02162,0.195415 -0.0091,0.02746 -0.02071,0.05407 -0.03468,0.07955 -0.01642,0.02396 -0.03508,0.04639 -0.05548,0.06691 -0.04637,0.04656 -0.102248,0.08345 -0.16441,0.107703 -0.0575,0.02243 -0.120444,0.03402 -0.186031,0.03223 -0.06559,-0.0018 -0.127804,-0.01686 -0.183991,-0.04243 -0.112648,-0.0513 -0.201398,-0.145367 -0.246411,-0.260688 0.03424,-0.04211 0.0872,-0.06813 0.145643,-0.0665 l 0.445496,0.01224 -0.21214,-0.392461 c -0.02782,-0.05143 -0.02826,-0.110356 -0.0062,-0.159922 0.0154,-0.0015 0.03073,-0.0021 0.0461,-0.002 z m 3.7826395,0 c 0.0154,2e-6 0.0307,5.43e-4 0.0461,0.002 0.02214,0.04957 0.0217,0.108496 -0.0062,0.159921 l -0.212141,0.392461 0.445904,-0.01224 c 0.05845,-0.0016 0.111021,0.02439 0.145235,0.0665 -0.04499,0.115321 -0.133741,0.209389 -0.24641,0.260689 -0.05618,0.02557 -0.118404,0.04061 -0.183992,0.04243 -0.06561,0.0018 -0.128506,-0.0098 -0.186031,-0.03223 -0.06214,-0.02425 -0.118038,-0.06114 -0.1644105,-0.107702 -0.02041,-0.02051 -0.03905,-0.04294 -0.05548,-0.06691 -0.01395,-0.02548 -0.0256,-0.05209 -0.03468,-0.07955 -0.02062,-0.06241 -0.02804,-0.129013 -0.02162,-0.195415 0.0059,-0.06145 0.02382,-0.123015 0.05507,-0.180728 0.03123,-0.05771 0.072551,-0.106248 0.1207585,-0.144827 0.07246,-0.05803 0.160384,-0.09343 0.251714,-0.102399 0.01522,-0.0015 0.0307,-0.002 0.0461,-0.002 z"
     class="ColorScheme-Text" />
  <path
     id="gradient-path1"
     style="opacity:0.3;baseline-shift:baseline;display:inline;overflow:visible;vector-effect:none;enable-background:accumulate;stop-color:#000000;stop-opacity:1;fill:url(#linearGradient4)"
     d="M 8.4453131 1.2753492 C 4.4913166 1.2753492 1.2794833 4.4784283 1.2794833 8.4236094 C 1.2794833 12.36879 4.4913166 15.572386 8.4453131 15.572386 C 12.39931 15.572386 15.611143 12.36879 15.611143 8.4236094 C 15.611143 4.4784283 12.39931 1.2753492 8.4453131 1.2753492 z " />
</svg>
