<?xml version="1.0" encoding="UTF-8" standalone="no"?>
<svg
   width="64"
   height="64"
   version="1.1"
   viewBox="0 0 16.933 16.933"
   id="svg7"
   sodipodi:docname="krecorder.svg"
   inkscape:version="1.4.2 (ebf0e940d0, 2025-05-08)"
   xmlns:inkscape="http://www.inkscape.org/namespaces/inkscape"
   xmlns:sodipodi="http://sodipodi.sourceforge.net/DTD/sodipodi-0.dtd"
   xmlns:xlink="http://www.w3.org/1999/xlink"
   xmlns="http://www.w3.org/2000/svg"
   xmlns:svg="http://www.w3.org/2000/svg"
   xmlns:rdf="http://www.w3.org/1999/02/22-rdf-syntax-ns#"
   xmlns:cc="http://creativecommons.org/ns#"
   xmlns:dc="http://purl.org/dc/elements/1.1/">
  <sodipodi:namedview
     id="namedview7"
     pagecolor="#9c4444"
     bordercolor="#000000"
     borderopacity="0.25"
     inkscape:showpageshadow="2"
     inkscape:pageopacity="0.0"
     inkscape:pagecheckerboard="0"
     inkscape:deskcolor="#d1d1d1"
     inkscape:zoom="8.7062522"
     inkscape:cx="72.648941"
     inkscape:cy="15.276378"
     inkscape:window-width="2560"
     inkscape:window-height="1388"
     inkscape:window-x="0"
     inkscape:window-y="0"
     inkscape:window-maximized="1"
     inkscape:current-layer="svg7"
     showgrid="false" />
  <defs
     id="defs2">
    <filter
       style="color-interpolation-filters:sRGB;"
       inkscape:label="Blur"
       id="filter3"
       x="-0.10843471"
       y="-0.10870992"
       width="1.2168694"
       height="1.2174198">
      <feGaussianBlur
         stdDeviation="0.5 0.5"
         result="blur"
         id="feGaussianBlur3" />
    </filter>
    <style
       id="current-color-scheme"
       type="text/css">.ColorScheme-Text {color:#d8dee9} .ColorScheme-Highlight {color:#3b4252}</style>
    <linearGradient
       id="linearGradient3"
       inkscape:collect="always">
      <stop
         style="stop-color:#000000;stop-opacity:1;"
         offset="0"
         id="stop3" />
      <stop
         style="stop-color:#000000;stop-opacity:0;"
         offset="1"
         id="stop4" />
    </linearGradient>
    <linearGradient
       inkscape:collect="always"
       xlink:href="#linearGradient3"
       id="linearGradient4"
       x1="13.512321"
       y1="13.490874"
       x2="3.3783066"
       y2="3.3568602"
       gradientUnits="userSpaceOnUse" />
  </defs>
  <metadata
     id="metadata2">
    <rdf:RDF>
      <cc:Work
         rdf:about="">
        <dc:format>image/svg+xml</dc:format>
        <dc:type
           rdf:resource="http://purl.org/dc/dcmitype/StillImage" />
      </cc:Work>
    </rdf:RDF>
  </metadata>
  <ellipse
     style="opacity:1;fill:none;stroke:#000000;stroke-width:0.582072;stroke-dasharray:none;stroke-opacity:1;filter:url(#filter3)"
     id="path1-5"
     cx="8.4450111"
     cy="8.423522"
     rx="6.8752708"
     ry="6.8578653" />
  <ellipse
     style="opacity:1;fill:none;stroke-width:0.58207188;stroke-opacity:1;stroke:currentColor;stroke-dasharray:none;fill-opacity:1"
     id="path1"
     cx="8.4450111"
     cy="8.423522"
     rx="6.8752708"
     ry="6.8578653"
     class="ColorScheme-Text" />
  <ellipse
     style="fill:currentColor;stroke:none;stroke-width:0.285844;stroke-dasharray:none;stroke-opacity:1"
     id="path1-2"
     cx="8.4557552"
     cy="8.423522"
     rx="6.5738997"
     ry="6.5692253"
     class="ColorScheme-Highlight" />
  <path
     id="path5"
     style="opacity:0.3;fill:#000000;fill-opacity:1;stroke-width:0.566036"
     class="ColorScheme-Text"
     d="m 8.4664835,5.0269844 a 3.9686547,3.9686547 0 0 0 -3.968658,3.9686577 3.9686547,3.9686547 0 0 0 0.0047,0.071663 3.9686547,3.9686547 0 0 0 -0.0032,0.032468 3.9686547,3.9686547 0 0 0 0.01638,0.1684807 3.9686547,3.9686547 0 0 0 0.03071,0.3188265 3.9686547,3.9686547 0 0 0 0.04534,0.228151 3.9686547,3.9686547 0 0 0 0.07196,0.2974737 3.9686547,3.9686547 0 0 0 0.07634,0.225226 3.9686547,3.9686547 0 0 0 0.110858,0.279632 3.9686547,3.9686547 0 0 0 0.107349,0.217328 3.9686547,3.9686547 0 0 0 0.14625,0.257109 3.9686547,3.9686547 0 0 0 0.134551,0.201533 3.9686547,3.9686547 0 0 0 0.18486,0.238974 3.9686547,3.9686547 0 0 0 0.155026,0.176963 3.9686547,3.9686547 0 0 0 0.217621,0.212063 3.9686547,3.9686547 0 0 0 0.179303,0.157074 3.9686547,3.9686547 0 0 0 0.242776,0.178133 3.9686547,3.9686547 0 0 0 0.198609,0.132503 3.9686547,3.9686547 0 0 0 0.244531,0.131918 l -0.396635,-1.315086 c -0.470339,0.06495 -0.922687,-0.22685 -1.04891,-0.697908 l -0.0079,-0.03101 h -5.66e-4 a 0.40657342,0.40657342 0 0 1 -0.0702,0.0059 0.40657342,0.40657342 0 0 1 -0.406284,-0.406577 0.40657342,0.40657342 0 0 1 0.267053,-0.3820067 l -0.03013,-0.112613 h 2.93e-4 L 4.7856965,8.9011647 h -5.66e-4 L 4.7231205,8.6680412 C 4.5863565,8.1577374 4.8866325,7.6377993 5.3973115,7.5009604 l 0.600797,-0.1605832 c 0.07845,-0.02102 0.157897,-0.032197 0.237511,-0.033053 0.151233,-0.00167 0.297528,0.032739 0.428515,0.096818 a 2.5440094,2.5440094 0 0 1 1.799468,-0.7490959 2.5440094,2.5440094 0 0 1 0.0029,0 2.5440094,2.5440094 0 0 1 1.327371,0.3741092 L 10.114455,6.476328 a 0.40657342,0.40657342 0 0 1 -0.02252,8.774e-4 0.40657342,0.40657342 0 0 1 -0.4062855,-0.406869 0.40657342,0.40657342 0 0 1 0.4062855,-0.406577 0.40657342,0.40657342 0 0 1 0.363579,0.224934 l 0.0012,-0.002 0.170528,0.08453 c 0.07338,0.03614 0.142432,0.12135 0.197731,0.293671 l 0.260538,-0.250965 A 3.9686547,3.9686547 0 0 0 8.4664535,5.0270304 Z m -0.111736,0.02135 a 0.21795038,0.21795038 0 0 1 0.217914,0.217913 0.21795038,0.21795038 0 0 1 -0.217914,0.217913 0.21795038,0.21795038 0 0 1 -0.217913,-0.217913 0.21795038,0.21795038 0 0 1 0.217913,-0.217913 z m -1.678372,1.036332 a 0.40657342,0.40657342 0 0 1 0.406869,0.4068692 0.40657342,0.40657342 0 0 1 -0.406869,0.4065769 0.40657342,0.40657342 0 0 1 -0.405992,-0.4065769 0.40657342,0.40657342 0 0 1 0.405992,-0.4068692 z m 3.8610175,0.06874 -0.6344355,1.0933696 c 0.001,-4.681e-4 0.007,-0.0035 0.0076,-0.0038 L 10.519254,6.6559259 v -2.926e-4 c 0.04007,-0.1158467 0.04741,-0.1869236 0.02164,-0.4138889 0.04398,0.2074039 0.06539,0.2762579 0.04709,0.3474911 l 0.08628,-0.083069 c -0.0025,-0.017364 -0.0055,-0.033769 -0.0085,-0.047385 -0.05882,-0.2703301 -0.127738,-0.3050411 -0.128408,-0.3053711 z m 0.571548,0.12051 -1.067922,1.0266799 c 0,0 -0.4188425,0.1982831 -0.5847115,0.3062489 -0.165868,0.1079677 -0.413012,0.3281867 -0.413012,0.3281865 -0.593527,-0.067072 -1.222536,0.049519 -1.480641,0.1058854 -0.192071,0.041948 -0.166313,0.4007151 -0.09185,0.5826626 0.10265,0.2466876 0.903235,0.3773433 1.138708,0.5446375 0.04809,0.2717814 -0.498546,0.3791098 -0.55195,0.5782751 -0.11791,0.4397677 0.463042,-0.07842 0.64906,0.032761 0.363488,0.2187434 0.2366,0.9801477 0.182521,1.2457627 0.173036,-0.111537 0.241975,-0.404441 0.325847,-0.671583 4.47e-4,6.79e-4 0.0012,0.0016 0.0018,0.0023 0.205373,0.541101 0.11887,0.908992 -0.04855,1.464847 0.15228,-0.191229 0.268263,-0.345045 0.374109,-0.829241 l 2.93e-4,5.66e-4 2.92e-4,2.93e-4 c 0.180875,0.451816 0.152798,0.74747 0.05616,1.228797 0.08869,-0.117722 0.190456,-0.164642 0.248919,-0.448697 0.107552,0.296123 0.145626,0.627265 0.109688,0.901489 1.3731555,-0.557525 2.3216565,-1.833871 2.4596435,-3.3076042 l 0.0076,-0.084825 c 0.0068,-0.09514 0.01021,-0.1903276 0.01023,-0.2857362 l -2.92e-4,-0.00702 c -0.293539,0.00179 -0.511424,-0.065248 -0.718384,-0.2252261 0.154839,0.012897 0.547855,-0.215281 0.547855,-0.215281 0,0 -0.641669,0.1513852 -0.862002,-0.1058854 0.21386,0.060493 0.518606,-0.1854459 0.518606,-0.1854459 0,0 -0.652345,0.1235329 -0.867852,-0.116123 0.252244,0.00982 0.573303,-0.2149886 0.573303,-0.2149885 0,0 -0.550956,0.096607 -0.804379,-0.017843 -0.0014,-0.00319 -0.0024,-0.00644 -0.0038,-0.00965 0,0 0.50031,-0.9383991 0.423542,-1.429454 -0.01202,-0.076977 -0.131029,-0.1930873 -0.132795,-0.1948063 z m 0.296304,0.0544 c 0.01798,0.03488 0.03196,0.07207 0.03773,0.1091033 0.05688,0.3638562 -0.137225,0.8790717 -0.26676,1.179658 -0.02038,0.047276 -0.04181,0.095134 -0.06318,0.1415706 0.06275,0.00285 0.130834,0.00137 0.194513,-0.00234 0.07824,-0.00455 0.150186,-0.012225 0.202118,-0.019013 0.05193,-0.00678 0.05187,-0.00678 0.08161,-0.011993 l 0.14508,0.3510016 c 0.01969,-0.00187 0.03783,-0.00413 0.05441,-0.00614 0.05881,-0.00715 0.05829,-0.00704 0.09214,-0.013455 l 0.149469,0.3229215 c 0.03567,-0.00382 0.06831,-0.00844 0.09594,-0.01287 0.05732,-0.00918 0.05637,-0.00898 0.08892,-0.016673 l 0.149176,0.3741092 c -0.02928,0.017016 -0.06113,0.034901 -0.09477,0.052943 0.04849,0.00555 0.100865,0.00812 0.15795,0.0079 A 3.9686547,3.9686547 0 0 0 11.40525,6.3283184 Z M 11.06799,6.4871449 c -0.31098,0.8054741 -0.711747,0.6481219 -0.6865,0.8848165 0.01502,0.1409035 0.214316,0.1913611 0.325554,0.2729037 -0.109169,-0.038425 -0.428963,-0.1132143 -0.420032,-0.2816785 0.01537,-0.2899154 0.282597,-0.057827 0.780978,-0.8760417 z m 0.01667,0.2740738 c 0.0137,0.3947081 -0.01786,0.4463876 -0.258279,0.7447083 0.15395,-0.2747532 0.237723,-0.4095911 0.258279,-0.7447083 z m -2.7053425,0.51217 a 0.21250179,0.21250179 0 0 0 -0.212355,0.2123559 0.21250179,0.21250179 0 0 0 0.212355,0.2126485 0.21250179,0.21250179 0 0 0 0.212648,-0.2126485 0.21250179,0.21250179 0 0 0 -0.212648,-0.2123559 z m -2.141109,0.237511 c -0.06192,6.736e-4 -0.125087,0.00953 -0.187786,0.026325 l -0.600213,0.1605832 c -0.401262,0.10752 -0.637824,0.5169001 -0.530305,0.9181616 l 0.0067,0.025448 c 0.129798,-0.041779 0.268878,-0.074685 0.402774,-0.1105654 0.107707,-0.028859 0.21772,0.034741 0.246579,0.1424481 0.02886,0.1077093 -0.03474,0.2174269 -0.142448,0.2462861 -0.132499,0.036984 -0.273141,0.072962 -0.403944,0.1058855 l 0.086,0.3197039 c 0.129818,-0.041716 0.268293,-0.074687 0.40219,-0.1105655 0.107707,-0.028862 0.21801,0.034446 0.246871,0.1421557 0.02886,0.107707 -0.03503,0.2177198 -0.142741,0.2465786 -0.1325,0.036985 -0.273142,0.072669 -0.403944,0.105593 l 0.086,0.3197035 c 0.129817,-0.04171 0.268877,-0.074686 0.402774,-0.1105653 0.107709,-0.028862 0.217427,0.034738 0.246286,0.1424483 0.02886,0.107709 -0.03444,0.217426 -0.142155,0.246286 -0.132502,0.03696 -0.273142,0.07294 -0.403945,0.105885 l 0.0058,0.02252 c 0.10752,0.401261 0.517193,0.637825 0.918454,0.530305 l 0.07371,-0.01989 0.507782,1.68159 c 0.180087,0.07713 0.391471,0.1508 0.591146,0.198609 l -0.602846,-2.013287 0.03042,-0.0079 c 0.401262,-0.107519 0.637825,-0.517193 0.530305,-0.9184541 l -0.0061,-0.022523 c -0.129828,0.041666 -0.268879,0.074688 -0.402775,0.1105655 -0.107709,0.028862 -0.217427,-0.034738 -0.246286,-0.1424481 -0.02886,-0.1077093 0.03444,-0.2174268 0.142156,-0.2462861 0.13248,-0.03699 0.273141,-0.072986 0.403944,-0.1058855 l -0.0857,-0.3194122 c -0.129828,0.041667 -0.268586,0.074396 -0.402482,0.110273 -0.107708,0.028859 -0.217428,-0.034448 -0.246286,-0.1421557 -0.02886,-0.1077093 0.03445,-0.2177193 0.142156,-0.2465786 0.132499,-0.036986 0.273121,-0.072669 0.403944,-0.105593 l -0.086,-0.3197039 c -0.129821,0.041716 -0.268587,0.074687 -0.402482,0.1105655 -0.10771,0.028862 -0.21772,-0.034739 -0.246579,-0.1424481 -0.02886,-0.1077093 0.03473,-0.2174269 0.142448,-0.2462862 0.13248,-0.036992 0.272849,-0.072988 0.403652,-0.1058854 l -0.0067,-0.025448 c -0.0907,-0.3385679 -0.39601,-0.5597398 -0.730374,-0.5560357 z m 0.0091,0.1325031 c 0.231911,0.011662 0.475972,0.1319436 0.576812,0.4056994 -0.281707,-0.3588845 -0.50584,-0.3870976 -0.947704,-0.3188265 0.09696,-0.061809 0.231745,-0.093872 0.370892,-0.086873 z m 3.31989,0.1284081 c 0.01315,-3.053e-4 0.02615,4.01e-4 0.03919,0.00205 0.107805,0.013414 0.197248,0.091249 0.228151,0.1989009 -0.04292,-0.025059 -0.08993,-0.045221 -0.139523,-0.059963 -0.0097,-0.050508 -0.05387,-0.08684 -0.1053,-0.086873 -0.0024,-7.95e-5 -0.0046,-7.95e-5 -0.007,0 -0.0381,0.0025 -0.07218,0.024909 -0.08921,0.059085 -0.05233,6.283e-4 -0.103517,0.00734 -0.152393,0.01989 0.04948,-0.08057 0.134291,-0.1304647 0.226103,-0.1330882 z m 0.9035365,0.1327956 c 0.297385,0.1037345 0.444796,0.1627453 0.778346,0.1246056 -0.386282,0.082245 -0.44272,0.060169 -0.778346,-0.1246056 z m -2.2452405,0.0936 c 0.09743,-0.00219 0.194271,0.015073 0.336377,0.052943 -0.273043,-0.010335 -0.357434,0.00275 -0.676556,0.010823 0.144779,-0.039933 0.242756,-0.061571 0.340179,-0.063766 z m -0.652278,0.098573 c 0.0011,-9.61e-5 0.0022,-1.02e-5 0.0032,0 0.0013,6.1e-5 0.0027,3.719e-4 0.0041,5.83e-4 0.03652,0.00493 0.05875,0.067842 0.04973,0.1409856 -0.0091,0.073239 -0.04612,0.1291192 -0.08278,0.1248981 -0.03682,-0.00448 -0.0592,-0.067963 -0.05002,-0.1415707 0.0085,-0.068212 0.0413,-0.1219173 0.07576,-0.124898 z m 3.2508605,0.062595 c 0.284888,0.1342769 0.424776,0.2080737 0.760503,0.2050434 -0.392753,0.041375 -0.446044,0.013844 -0.760503,-0.2050434 z m -5.3723725,0.238096 c 0.0868,-0.00163 0.137787,0.053908 0.204459,0.2220086 -0.126224,-0.2290687 -0.185889,-0.1997281 -0.460398,-0.1523932 0.10448,-0.035238 0.179331,-0.062685 0.238097,-0.068445 0.0062,-6.113e-4 0.01206,-0.00105 0.01784,-0.00117 z m 5.6800835,0.06552 c 0.284889,0.1342771 0.425068,0.2080739 0.760796,0.2050435 -0.392775,0.041376 -0.446336,0.013823 -0.760796,-0.2050435 z m -0.811398,0.073125 c 0.346283,0.176332 0.57994,0.5027258 0.706098,0.8877416 C 10.844608,9.069368 10.612174,8.7858744 10.32039,8.5361155 Z M 6.7489485,8.7993668 c -0.238352,0.090323 -0.240835,0.1975679 -0.257109,0.4720971 -0.04915,-0.2899012 -0.04406,-0.4046544 0.257109,-0.4720971 z m 4.8859425,0.093015 c 0.284888,0.1342766 0.424775,0.2080737 0.760503,0.2050434 -0.392755,0.041376 -0.446043,0.013824 -0.760503,-0.2050434 z M 9.5332675,9.2539134 c 0.253162,0.2947997 0.314987,0.4851346 0.28519,0.8892046 -0.03334,-0.3970082 -0.110351,-0.5472083 -0.28519,-0.8892046 z m -0.885109,0.083948 C 8.4639725,9.5751196 8.3853205,9.6417527 8.1122965,9.7511658 8.3372475,9.596042 8.3973205,9.5353092 8.6481585,9.3378614 Z m 0.339009,0.3287714 c 0.169187,0.3498322 0.179995,0.5495492 0.04768,0.9324942 0.06948,-0.392307 0.03371,-0.55712 -0.04768,-0.9324942 z m 1.7553015,0.1629233 c 0.253153,0.2948199 0.331952,0.7018779 0.302154,1.1059479 -0.03334,-0.397029 -0.127313,-0.763952 -0.302154,-1.1059479 z M 9.3513325,10.28264 c 0.169188,0.349832 0.180283,0.549843 0.04797,0.932787 0.06948,-0.392306 0.03343,-0.557413 -0.04797,-0.932787 z m -3.830597,0.205629 c 0.292703,0.362267 0.512162,0.39504 0.947411,0.319119 -0.258511,0.16481 -0.786066,0.118878 -0.947411,-0.319119 z m 1.540897,0.141571 c -0.297609,0.144642 -0.22077,0.183128 -0.199194,0.422957 -0.0606,-0.269863 -0.122654,-0.319324 0.199194,-0.422957 z m 0.0936,0.341641 0.57301,1.915591 a 3.9686547,3.9686547 0 0 0 0.02545,0.0044 3.9686547,3.9686547 0 0 0 0.175501,0.0351 3.9686547,3.9686547 0 0 0 0.531767,0.03744 3.9686547,3.9686547 0 0 0 0.0055,2.92e-4 3.9686547,3.9686547 0 0 0 0.540543,-0.03832 3.9686547,3.9686547 0 0 0 0.147128,-0.02925 3.9686547,3.9686547 0 0 0 0.379667,-0.08102 3.9686547,3.9686547 0 0 0 0.190418,-0.06493 3.9686547,3.9686547 0 0 0 0.01872,-0.0059 l 0.01258,-0.09799 c 0.01216,-0.09278 0.01426,-0.196486 0.0064,-0.304493 l -5.66e-4,5.66e-4 v 2.92e-4 L 9.3992435,12.18063 c 0.03251,-0.161916 0.05567,-0.296847 0.06611,-0.419154 -0.04396,0.06662 -0.08979,0.125418 -0.13806,0.186031 l -0.353946,-0.185753 c 0.05803,-0.192663 0.10365,-0.356855 0.13104,-0.507197 a 2.5440094,2.5440094 0 0 1 -0.284311,0.05675 h -2.93e-4 l -0.226689,0.14625 0.02603,-0.12636 a 2.5440094,2.5440094 0 0 1 -0.152685,0.0047 2.5440094,2.5440094 0 0 1 -1.311284,-0.364457 z m 2.534817,0.06581 c 0.169186,0.349831 0.179993,0.54955 0.04768,0.932494 0.06948,-0.392307 0.03371,-0.55712 -0.04768,-0.932494 z m -2.758581,0.377034 c 0.1292,0.288268 0.232809,0.580516 0.320582,0.893592 -0.149222,-0.306319 -0.243166,-0.540667 -0.320582,-0.893592 z m 1.373587,0.155611 a 0.40657342,0.40657342 0 0 1 0.406576,0.406577 0.40657342,0.40657342 0 0 1 -0.406576,0.406577 0.40657342,0.40657342 0 0 1 -0.406578,-0.406577 0.40657342,0.40657342 0 0 1 0.406578,-0.406577 z m 1.630694,0.03247 c 0.2137765,0.324514 0.2506855,0.521113 0.1699445,0.918161 0.01722,-0.398046 -0.03984,-0.556769 -0.1699445,-0.918161 z" />
  <path
     id="path5-7"
     style="fill:currentColor;stroke-width:0.566036"
     class="ColorScheme-Text"
     d="m 8.4664835,4.4978336 a 3.9686547,3.9686547 0 0 0 -3.968658,3.9686577 3.9686547,3.9686547 0 0 0 0.0047,0.071663 3.9686547,3.9686547 0 0 0 -0.0032,0.032468 3.9686547,3.9686547 0 0 0 0.01638,0.1684807 3.9686547,3.9686547 0 0 0 0.03071,0.3188265 3.9686547,3.9686547 0 0 0 0.04534,0.228151 3.9686547,3.9686547 0 0 0 0.07196,0.2974736 3.9686547,3.9686547 0 0 0 0.07634,0.2252262 3.9686547,3.9686547 0 0 0 0.110858,0.2796317 3.9686547,3.9686547 0 0 0 0.107349,0.217328 3.9686547,3.9686547 0 0 0 0.14625,0.257109 3.9686547,3.9686547 0 0 0 0.134551,0.201533 3.9686547,3.9686547 0 0 0 0.18486,0.238974 3.9686547,3.9686547 0 0 0 0.155026,0.176963 3.9686547,3.9686547 0 0 0 0.217621,0.212063 3.9686547,3.9686547 0 0 0 0.179303,0.157074 3.9686547,3.9686547 0 0 0 0.242776,0.178133 3.9686547,3.9686547 0 0 0 0.198609,0.132503 3.9686547,3.9686547 0 0 0 0.244531,0.131918 l -0.396635,-1.315086 c -0.470339,0.06495 -0.922687,-0.22685 -1.04891,-0.6979079 l -0.0079,-0.031005 h -5.66e-4 a 0.40657342,0.40657342 0 0 1 -0.0702,0.00585 0.40657342,0.40657342 0 0 1 -0.406284,-0.4065767 0.40657342,0.40657342 0 0 1 0.267053,-0.3820069 l -0.03013,-0.112613 h 2.93e-4 L 4.7856965,8.3720139 h -5.66e-4 L 4.7231205,8.1388904 C 4.5863565,7.6285866 4.8866325,7.1086485 5.3973115,6.9718096 l 0.600797,-0.1605832 c 0.07845,-0.02102 0.157897,-0.032197 0.237511,-0.033053 0.151233,-0.00167 0.297528,0.032739 0.428515,0.096818 a 2.5440094,2.5440094 0 0 1 1.799468,-0.7490959 2.5440094,2.5440094 0 0 1 0.0029,0 2.5440094,2.5440094 0 0 1 1.327371,0.3741092 L 10.114455,5.9471772 a 0.40657342,0.40657342 0 0 1 -0.02252,8.774e-4 0.40657342,0.40657342 0 0 1 -0.4062855,-0.406869 0.40657342,0.40657342 0 0 1 0.4062855,-0.406577 0.40657342,0.40657342 0 0 1 0.363579,0.224934 l 0.0012,-0.002 0.170528,0.08453 c 0.07338,0.03614 0.142432,0.12135 0.197731,0.293671 l 0.260538,-0.250965 A 3.9686547,3.9686547 0 0 0 8.4664535,4.4978796 Z m -0.111736,0.02135 a 0.21795038,0.21795038 0 0 1 0.217914,0.217913 0.21795038,0.21795038 0 0 1 -0.217914,0.217913 0.21795038,0.21795038 0 0 1 -0.217913,-0.217913 0.21795038,0.21795038 0 0 1 0.217913,-0.217913 z m -1.678372,1.036332 a 0.40657342,0.40657342 0 0 1 0.406869,0.4068692 0.40657342,0.40657342 0 0 1 -0.406869,0.4065769 0.40657342,0.40657342 0 0 1 -0.405992,-0.4065769 0.40657342,0.40657342 0 0 1 0.405992,-0.4068692 z m 3.8610175,0.06874 -0.6344355,1.0933696 c 0.001,-4.681e-4 0.007,-0.0035 0.0076,-0.0038 L 10.519254,6.1267751 v -2.926e-4 c 0.04007,-0.1158467 0.04741,-0.1869236 0.02164,-0.4138889 0.04398,0.2074039 0.06539,0.2762579 0.04709,0.3474911 l 0.08628,-0.083069 c -0.0025,-0.017364 -0.0055,-0.033769 -0.0085,-0.047385 -0.05882,-0.2703301 -0.127738,-0.3050411 -0.128408,-0.3053711 z m 0.571548,0.12051 -1.067922,1.0266799 c 0,0 -0.4188425,0.1982831 -0.5847115,0.3062489 -0.165868,0.1079677 -0.413012,0.3281867 -0.413012,0.3281865 -0.593527,-0.067072 -1.222536,0.049519 -1.480641,0.1058854 -0.192071,0.041948 -0.166313,0.4007151 -0.09185,0.5826626 0.10265,0.2466876 0.903235,0.3773433 1.138708,0.5446375 0.04809,0.2717814 -0.498546,0.3791098 -0.55195,0.5782751 -0.11791,0.4397674 0.463042,-0.07842 0.64906,0.032761 0.363488,0.2187434 0.2366,0.9801475 0.182521,1.2457625 0.173036,-0.111537 0.241975,-0.404441 0.325847,-0.6715826 4.47e-4,6.792e-4 0.0012,0.00164 0.0018,0.00232 0.205373,0.5411006 0.11887,0.9089916 -0.04855,1.4648466 0.15228,-0.191229 0.268263,-0.345045 0.374109,-0.829241 l 2.93e-4,5.66e-4 2.92e-4,2.93e-4 c 0.180875,0.451816 0.152798,0.74747 0.05616,1.228797 0.08869,-0.117722 0.190456,-0.164642 0.248919,-0.448697 0.107552,0.296123 0.145626,0.627265 0.109688,0.901489 1.3731555,-0.557525 2.3216565,-1.833871 2.4596435,-3.307604 l 0.0076,-0.084825 c 0.0068,-0.09514 0.01021,-0.1903276 0.01023,-0.2857362 l -2.92e-4,-0.00702 c -0.293539,0.00179 -0.511424,-0.065248 -0.718384,-0.2252261 0.154839,0.012897 0.547855,-0.215281 0.547855,-0.215281 0,0 -0.641669,0.1513852 -0.862002,-0.1058854 0.21386,0.060493 0.518606,-0.1854459 0.518606,-0.1854459 0,0 -0.652345,0.1235329 -0.867852,-0.116123 0.252244,0.00982 0.573303,-0.2149886 0.573303,-0.2149885 0,0 -0.550956,0.096607 -0.804379,-0.017843 -0.0014,-0.00319 -0.0024,-0.00644 -0.0038,-0.00965 0,0 0.50031,-0.9383991 0.423542,-1.429454 -0.01202,-0.076977 -0.131029,-0.1930873 -0.132795,-0.1948063 z m 0.296304,0.0544 c 0.01798,0.03488 0.03196,0.07207 0.03773,0.1091033 0.05688,0.3638562 -0.137225,0.8790717 -0.26676,1.179658 -0.02038,0.047276 -0.04181,0.095134 -0.06318,0.1415706 0.06275,0.00285 0.130834,0.00137 0.194513,-0.00234 0.07824,-0.00455 0.150186,-0.012225 0.202118,-0.019013 0.05193,-0.00678 0.05187,-0.00678 0.08161,-0.011993 l 0.14508,0.3510016 c 0.01969,-0.00187 0.03783,-0.00413 0.05441,-0.00614 0.05881,-0.00715 0.05829,-0.00704 0.09214,-0.013455 l 0.149469,0.3229215 c 0.03567,-0.00382 0.06831,-0.00844 0.09594,-0.01287 0.05732,-0.00918 0.05637,-0.00898 0.08892,-0.016673 l 0.149176,0.3741092 c -0.02928,0.017016 -0.06113,0.034901 -0.09477,0.052943 0.04849,0.00555 0.100865,0.00812 0.15795,0.0079 A 3.9686547,3.9686547 0 0 0 11.40525,5.7991676 Z M 11.06799,5.9579941 c -0.31098,0.8054741 -0.711747,0.6481219 -0.6865,0.8848165 0.01502,0.1409035 0.214316,0.1913611 0.325554,0.2729037 C 10.597875,7.0772893 10.278081,7.0025 10.287012,6.8340358 10.302382,6.5441204 10.569609,6.7762088 11.06799,5.9579941 Z m 0.01667,0.2740738 C 11.09836,6.626776 11.0668,6.6784555 10.826381,6.9767762 10.980331,6.702023 11.064104,6.5671851 11.08466,6.2320679 Z m -2.7053425,0.51217 a 0.21250179,0.21250179 0 0 0 -0.212355,0.2123559 0.21250179,0.21250179 0 0 0 0.212355,0.2126485 0.21250179,0.21250179 0 0 0 0.212648,-0.2126485 0.21250179,0.21250179 0 0 0 -0.212648,-0.2123559 z m -2.141109,0.237511 c -0.06192,6.736e-4 -0.125087,0.00953 -0.187786,0.026325 l -0.600213,0.1605832 c -0.401262,0.10752 -0.637824,0.5169001 -0.530305,0.9181616 l 0.0067,0.025448 c 0.129798,-0.041779 0.268878,-0.074685 0.402774,-0.1105654 0.107707,-0.028859 0.21772,0.034741 0.246579,0.1424481 0.02886,0.1077093 -0.03474,0.2174269 -0.142448,0.2462861 -0.132499,0.036984 -0.273141,0.072962 -0.403944,0.1058855 l 0.086,0.3197039 c 0.129818,-0.041716 0.268293,-0.074687 0.40219,-0.1105655 0.107707,-0.028862 0.21801,0.034446 0.246871,0.1421557 0.02886,0.107707 -0.03503,0.2177198 -0.142741,0.2465786 -0.1325,0.036985 -0.273142,0.072669 -0.403944,0.105593 l 0.086,0.3197037 c 0.129817,-0.041711 0.268877,-0.074686 0.402774,-0.1105655 0.107709,-0.028862 0.217427,0.034738 0.246286,0.142448 0.02886,0.1077093 -0.03444,0.2174268 -0.142155,0.2462862 -0.132502,0.036962 -0.273142,0.072941 -0.403945,0.1058854 l 0.0058,0.022523 c 0.10752,0.4012605 0.517193,0.6378245 0.918454,0.5303045 l 0.07371,-0.01989 0.507782,1.68159 c 0.180087,0.07713 0.391471,0.1508 0.591146,0.198609 l -0.602846,-2.013287 0.03042,-0.0079 c 0.401262,-0.107519 0.637825,-0.5171923 0.530305,-0.9184539 l -0.0061,-0.022523 c -0.129828,0.041666 -0.268879,0.074688 -0.402775,0.1105655 -0.107709,0.028862 -0.217427,-0.034738 -0.246286,-0.1424481 -0.02886,-0.1077093 0.03444,-0.2174268 0.142156,-0.2462861 0.13248,-0.03699 0.273141,-0.072986 0.403944,-0.1058855 l -0.0857,-0.3194122 c -0.129828,0.041667 -0.268586,0.074396 -0.402482,0.110273 -0.107708,0.028859 -0.217428,-0.034448 -0.246286,-0.1421557 -0.02886,-0.1077093 0.03445,-0.2177193 0.142156,-0.2465786 0.132499,-0.036986 0.273121,-0.072669 0.403944,-0.105593 l -0.086,-0.3197039 c -0.129821,0.041716 -0.268587,0.074687 -0.402482,0.1105655 -0.10771,0.028862 -0.21772,-0.034739 -0.246579,-0.1424481 -0.02886,-0.1077093 0.03473,-0.2174269 0.142448,-0.2462862 0.13248,-0.036992 0.272849,-0.072988 0.403652,-0.1058854 l -0.0067,-0.025448 c -0.0907,-0.3385679 -0.39601,-0.5597398 -0.730374,-0.5560357 z m 0.0091,0.1325031 c 0.231911,0.011662 0.475972,0.1319436 0.576812,0.4056994 -0.281707,-0.3588845 -0.50584,-0.3870976 -0.947704,-0.3188265 0.09696,-0.061809 0.231745,-0.093872 0.370892,-0.086873 z m 3.31989,0.1284081 c 0.01315,-3.053e-4 0.02615,4.01e-4 0.03919,0.00205 0.107805,0.013414 0.197248,0.091249 0.228151,0.1989009 -0.04292,-0.025059 -0.08993,-0.045221 -0.139523,-0.059963 -0.0097,-0.050508 -0.05387,-0.08684 -0.1053,-0.086873 -0.0024,-7.95e-5 -0.0046,-7.95e-5 -0.007,0 -0.0381,0.0025 -0.07218,0.024909 -0.08921,0.059085 -0.05233,6.283e-4 -0.103517,0.00734 -0.152393,0.01989 0.04948,-0.08057 0.134291,-0.1304647 0.226103,-0.1330882 z m 0.9035365,0.1327956 c 0.297385,0.1037345 0.444796,0.1627453 0.778346,0.1246056 -0.386282,0.082245 -0.44272,0.060169 -0.778346,-0.1246056 z m -2.2452405,0.0936 c 0.09743,-0.00219 0.194271,0.015073 0.336377,0.052943 -0.273043,-0.010335 -0.357434,0.00275 -0.676556,0.010823 0.144779,-0.039933 0.242756,-0.061571 0.340179,-0.063766 z m -0.652278,0.098573 c 0.0011,-9.61e-5 0.0022,-1.02e-5 0.0032,0 0.0013,6.1e-5 0.0027,3.719e-4 0.0041,5.83e-4 0.03652,0.00493 0.05875,0.067842 0.04973,0.1409856 -0.0091,0.073239 -0.04612,0.1291192 -0.08278,0.1248981 -0.03682,-0.00448 -0.0592,-0.067963 -0.05002,-0.1415707 0.0085,-0.068212 0.0413,-0.1219173 0.07576,-0.124898 z m 3.2508605,0.062595 c 0.284888,0.1342769 0.424776,0.2080737 0.760503,0.2050434 -0.392753,0.041375 -0.446044,0.013844 -0.760503,-0.2050434 z m -5.3723725,0.238096 c 0.0868,-0.00163 0.137787,0.053908 0.204459,0.2220086 -0.126224,-0.2290687 -0.185889,-0.1997281 -0.460398,-0.1523932 0.10448,-0.035238 0.179331,-0.062685 0.238097,-0.068445 0.0062,-6.113e-4 0.01206,-0.00105 0.01784,-0.00117 z m 5.6800835,0.06552 c 0.284889,0.1342771 0.425068,0.2080739 0.760796,0.2050435 -0.392775,0.041376 -0.446336,0.013823 -0.760796,-0.2050435 z m -0.811398,0.073125 c 0.346283,0.176332 0.57994,0.5027258 0.706098,0.8877416 C 10.844608,8.5402172 10.612174,8.2567236 10.32039,8.0069647 Z M 6.7489485,8.270216 C 6.5105965,8.360539 6.5081135,8.4677839 6.4918395,8.7423131 6.4426895,8.4524119 6.4477795,8.3376587 6.7489485,8.270216 Z m 4.8859425,0.093015 c 0.284888,0.1342766 0.424775,0.2080737 0.760503,0.2050434 -0.392755,0.041376 -0.446043,0.013824 -0.760503,-0.2050434 z M 9.5332675,8.7247626 c 0.253162,0.2947997 0.314987,0.4851346 0.28519,0.8892043 -0.03334,-0.3970079 -0.110351,-0.547208 -0.28519,-0.8892043 z m -0.885109,0.083948 C 8.4639725,9.0459688 8.3853205,9.1126019 8.1122965,9.222015 8.3372475,9.0668912 8.3973205,9.0061584 8.6481585,8.8087106 Z m 0.339009,0.3287714 c 0.169187,0.3498322 0.179995,0.5495494 0.04768,0.932494 0.06948,-0.3923068 0.03371,-0.55712 -0.04768,-0.932494 z m 1.7553015,0.1629233 c 0.253153,0.2948202 0.331952,0.7018777 0.302154,1.1059477 C 11.011283,10.009324 10.91731,9.6424012 10.742469,9.3004053 Z M 9.3513325,9.7534897 c 0.169188,0.3498313 0.180283,0.5498423 0.04797,0.9327863 0.06948,-0.392306 0.03343,-0.557413 -0.04797,-0.9327863 z M 5.5207355,9.959118 c 0.292703,0.362267 0.512162,0.39504 0.947411,0.319119 -0.258511,0.16481 -0.786066,0.118878 -0.947411,-0.319119 z m 1.540897,0.141571 c -0.297609,0.144642 -0.22077,0.183128 -0.199194,0.422957 -0.0606,-0.269863 -0.122654,-0.319324 0.199194,-0.422957 z m 0.0936,0.341641 0.57301,1.915591 a 3.9686547,3.9686547 0 0 0 0.02545,0.0044 3.9686547,3.9686547 0 0 0 0.175501,0.0351 3.9686547,3.9686547 0 0 0 0.531767,0.03744 3.9686547,3.9686547 0 0 0 0.0055,2.92e-4 3.9686547,3.9686547 0 0 0 0.540543,-0.03832 3.9686547,3.9686547 0 0 0 0.147128,-0.02925 3.9686547,3.9686547 0 0 0 0.379667,-0.08102 3.9686547,3.9686547 0 0 0 0.190418,-0.06493 3.9686547,3.9686547 0 0 0 0.01872,-0.0059 l 0.01258,-0.09799 c 0.01216,-0.09278 0.01426,-0.196486 0.0064,-0.304493 l -5.66e-4,5.66e-4 v 2.92e-4 l -0.362107,-0.162629 c 0.03251,-0.161916 0.05567,-0.296847 0.06611,-0.419154 -0.04396,0.06662 -0.08979,0.125418 -0.13806,0.186031 l -0.353946,-0.185753 c 0.05803,-0.192663 0.10365,-0.356855 0.13104,-0.507197 a 2.5440094,2.5440094 0 0 1 -0.284311,0.05675 h -2.93e-4 l -0.226689,0.14625 0.02603,-0.12636 a 2.5440094,2.5440094 0 0 1 -0.152685,0.0047 2.5440094,2.5440094 0 0 1 -1.311284,-0.364457 z m 2.534817,0.06581 c 0.169186,0.349831 0.179993,0.54955 0.04768,0.932494 0.06948,-0.392307 0.03371,-0.55712 -0.04768,-0.932494 z m -2.758581,0.377034 c 0.1292,0.288268 0.232809,0.580516 0.320582,0.893592 -0.149222,-0.306319 -0.243166,-0.540667 -0.320582,-0.893592 z m 1.373587,0.155611 a 0.40657342,0.40657342 0 0 1 0.406576,0.406577 0.40657342,0.40657342 0 0 1 -0.406576,0.406577 0.40657342,0.40657342 0 0 1 -0.406578,-0.406577 0.40657342,0.40657342 0 0 1 0.406578,-0.406577 z m 1.630694,0.03247 c 0.2137765,0.324514 0.2506855,0.521113 0.1699445,0.918161 0.01722,-0.398046 -0.03984,-0.556769 -0.1699445,-0.918161 z" />
  <path
     id="gradient-path1"
     style="opacity:0.3;baseline-shift:baseline;display:inline;overflow:visible;vector-effect:none;enable-background:accumulate;stop-color:#000000;stop-opacity:1;fill:url(#linearGradient4)"
     d="M 8.4453131 1.2753492 C 4.4913166 1.2753492 1.2794833 4.4784283 1.2794833 8.4236094 C 1.2794833 12.36879 4.4913166 15.572386 8.4453131 15.572386 C 12.39931 15.572386 15.611143 12.36879 15.611143 8.4236094 C 15.611143 4.4784283 12.39931 1.2753492 8.4453131 1.2753492 z " />
</svg>
