<?xml version="1.0" encoding="UTF-8" standalone="no"?>
<svg
   width="64"
   height="64"
   version="1.1"
   viewBox="0 0 16.933 16.933"
   id="svg7"
   sodipodi:docname="krita.svg"
   inkscape:version="1.4.3 (0d15f75042, 2025-12-25)"
   xmlns:inkscape="http://www.inkscape.org/namespaces/inkscape"
   xmlns:sodipodi="http://sodipodi.sourceforge.net/DTD/sodipodi-0.dtd"
   xmlns:xlink="http://www.w3.org/1999/xlink"
   xmlns="http://www.w3.org/2000/svg"
   xmlns:svg="http://www.w3.org/2000/svg"
   xmlns:rdf="http://www.w3.org/1999/02/22-rdf-syntax-ns#"
   xmlns:cc="http://creativecommons.org/ns#"
   xmlns:dc="http://purl.org/dc/elements/1.1/">
  <sodipodi:namedview
     id="namedview7"
     pagecolor="#9c4444"
     bordercolor="#000000"
     borderopacity="0.25"
     inkscape:showpageshadow="2"
     inkscape:pageopacity="0.0"
     inkscape:pagecheckerboard="0"
     inkscape:deskcolor="#d1d1d1"
     inkscape:zoom="4.3531261"
     inkscape:cx="36.180895"
     inkscape:cy="25.958357"
     inkscape:window-width="2560"
     inkscape:window-height="1388"
     inkscape:window-x="0"
     inkscape:window-y="0"
     inkscape:window-maximized="1"
     inkscape:current-layer="svg7"
     showgrid="false" />
  <defs
     id="defs2">
    <filter
       style="color-interpolation-filters:sRGB;"
       inkscape:label="Blur"
       id="filter3"
       x="-0.10843471"
       y="-0.10870992"
       width="1.2168694"
       height="1.2174198">
      <feGaussianBlur
         stdDeviation="0.5 0.5"
         result="blur"
         id="feGaussianBlur3" />
    </filter>
    <style
       id="current-color-scheme"
       type="text/css">.ColorScheme-Text {color:#d8dee9} .ColorScheme-Highlight {color:#3b4252}</style>
    <linearGradient
       id="linearGradient3"
       inkscape:collect="always">
      <stop
         style="stop-color:#000000;stop-opacity:1;"
         offset="0"
         id="stop3" />
      <stop
         style="stop-color:#000000;stop-opacity:0;"
         offset="1"
         id="stop4" />
    </linearGradient>
    <linearGradient
       inkscape:collect="always"
       xlink:href="#linearGradient3"
       id="linearGradient4"
       x1="13.512321"
       y1="13.490874"
       x2="3.3783066"
       y2="3.3568602"
       gradientUnits="userSpaceOnUse" />
  </defs>
  <metadata
     id="metadata2">
    <rdf:RDF>
      <cc:Work
         rdf:about="">
        <dc:format>image/svg+xml</dc:format>
        <dc:type
           rdf:resource="http://purl.org/dc/dcmitype/StillImage" />
      </cc:Work>
    </rdf:RDF>
  </metadata>
  <ellipse
     style="opacity:1;fill:none;stroke:#000000;stroke-width:0.582072;stroke-dasharray:none;stroke-opacity:1;filter:url(#filter3)"
     id="path1-5"
     cx="8.4450111"
     cy="8.423522"
     rx="6.8752708"
     ry="6.8578653" />
  <ellipse
     style="opacity:1;fill:none;stroke-width:0.58207188;stroke-opacity:1;stroke:currentColor;stroke-dasharray:none;fill-opacity:1"
     id="path1"
     cx="8.4450111"
     cy="8.423522"
     rx="6.8752708"
     ry="6.8578653"
     class="ColorScheme-Text" />
  <ellipse
     style="fill:currentColor;stroke:none;stroke-width:0.285844;stroke-dasharray:none;stroke-opacity:1"
     id="path1-2"
     cx="8.4557552"
     cy="8.423522"
     rx="6.5738997"
     ry="6.5692253"
     class="ColorScheme-Highlight" />
  <path
     id="path5"
     style="opacity:0.3;fill:#000000;fill-opacity:1;stroke-width:0.566038"
     d="m 4.3442432,5.0273356 c -0.06039,0.0034 -0.117581,0.02959 -0.167595,0.08924 -0.128115,0.163327 -0.01277,0.327455 0.132108,0.460382 0.07373,0.06765 0.623361,0.631692 1.215352,1.249464 a 3.9671061,3.9671061 0 0 1 0.619241,-0.734592 c 0.696856,0.433131 1.446558,0.891991 1.789827,1.084078 0.462286,0.2586874 1.147171,0.7997272 1.405011,1.3530189 -0.01896,-0.00187 -0.03784,-0.00249 -0.0566,-0.00192 -0.202664,0.00603 -0.384467,0.1445893 -0.502396,0.297475 -0.143375,0.1682326 -0.254074,0.4198443 -0.161068,0.6430471 a 0.18742235,0.18742235 0 0 0 0.0016,0.00379 C 8.0157042,9.3493086 7.3230502,8.7749925 6.9668852,8.3672891 6.7061692,8.0688441 6.0953852,7.4226378 5.5241022,6.8264706 A 3.9671064,3.9671064 0 0 0 4.8774912,8.9972223 3.9671064,3.9671064 0 0 0 8.8445972,12.964329 3.9671064,3.9671064 0 0 0 12.811704,8.9972223 3.9671064,3.9671064 0 0 0 8.8445972,5.0301156 3.9671064,3.9671064 0 0 0 6.1433432,6.0918396 c -0.732687,-0.455399 -1.406951,-0.882364 -1.488944,-0.940967 -0.09998,-0.07146 -0.209506,-0.12914 -0.310162,-0.123508 z m 4.942902,3.6869875 c 0.01798,-5.355e-4 0.03575,7.358e-4 0.05315,0.00408 0,0 0.590064,0.5116216 0.8921528,0.8079882 -0.05285,0.023932 -0.103456,0.05464 -0.151187,0.091797 C 9.8948532,9.7632921 9.7978742,9.9289456 9.7637372,10.100265 9.4110432,9.8653677 8.7911382,9.3954649 8.7911382,9.3954649 c -0.05449,-0.1307705 0.01087,-0.3105424 0.133657,-0.4528273 0.09965,-0.130817 0.236448,-0.2245359 0.362348,-0.2282831 z M 5.5370872,9.248507 c 0.288377,0.6739515 2.019495,2.514307 4.218615,1.105986 0.008,0.06574 0.02316,0.131246 0.04403,0.195702 0.05982,0.184771 0.174362,0.350635 0.2722348,0.484963 0.101035,0.13866 0.194235,0.262258 0.241222,0.366124 0.03132,0.06924 0.04312,0.125473 0.03806,0.181445 -0.005,0.05597 -0.02647,0.119106 -0.09269,0.20438 a 0.18742235,0.18742235 0 0 0 -0.0037,0.224989 c -0.7549878,0.387372 -1.7020308,0.319537 -2.3743938,0.09207 -1.298162,-0.43919 -2.157474,-1.580399 -2.343382,-2.8556579 z m 4.9639968,0.4037032 c 0.01548,-5.66e-4 0.03102,-4.42e-4 0.04661,4.07e-4 0.207843,0.011321 0.423041,0.1496055 0.576626,0.4300088 0.316218,0.577339 0.08314,1.366441 -0.717702,1.819426 0.416007,-0.53573 -0.26038,-0.890203 -0.4285558,-1.40964 -0.08246,-0.254683 -0.05809,-0.5111195 0.2183648,-0.7263218 0.09144,-0.071181 0.196328,-0.1098696 0.304661,-0.11388 z"
     class="ColorScheme-Text" />
  <path
     id="path5-7"
     style="fill:currentColor;stroke-width:0.566038"
     d="m 4.3442432,4.4981791 c -0.06039,0.0034 -0.117581,0.02959 -0.167595,0.08924 -0.128115,0.163327 -0.01277,0.327455 0.132108,0.460382 0.07373,0.06765 0.623361,0.631692 1.215352,1.249464 a 3.9671061,3.9671061 0 0 1 0.619241,-0.734592 c 0.696856,0.433131 1.446558,0.891991 1.789827,1.084078 0.462286,0.2586874 1.147171,0.7997272 1.405011,1.3530189 -0.01896,-0.00187 -0.03784,-0.00249 -0.0566,-0.00192 -0.202664,0.00603 -0.384467,0.1445893 -0.502396,0.297475 -0.143375,0.1682326 -0.254074,0.4198443 -0.161068,0.6430471 a 0.18742235,0.18742235 0 0 0 0.0016,0.00379 C 8.0157042,8.8201521 7.3230502,8.245836 6.9668852,7.8381326 6.7061692,7.5396876 6.0953852,6.8934813 5.5241022,6.2973141 A 3.9671064,3.9671064 0 0 0 4.8774912,8.4680658 3.9671064,3.9671064 0 0 0 8.8445972,12.435172 3.9671064,3.9671064 0 0 0 12.811704,8.4680658 3.9671064,3.9671064 0 0 0 8.8445972,4.5009591 3.9671064,3.9671064 0 0 0 6.1433432,5.5626831 c -0.732687,-0.455399 -1.406951,-0.882364 -1.488944,-0.940967 -0.09998,-0.07146 -0.209506,-0.12914 -0.310162,-0.123508 z m 4.942902,3.6869875 c 0.01798,-5.355e-4 0.03575,7.358e-4 0.05315,0.00408 0,0 0.590064,0.5116216 0.8921528,0.8079882 -0.05285,0.023932 -0.103456,0.05464 -0.151187,0.091797 -0.1864078,0.1451038 -0.2833868,0.3107573 -0.3175238,0.4820766 -0.352694,-0.2348972 -0.972599,-0.7048 -0.972599,-0.7048 -0.05449,-0.1307705 0.01087,-0.3105424 0.133657,-0.4528273 0.09965,-0.130817 0.236448,-0.2245359 0.362348,-0.2282831 z m -3.750058,0.5341839 c 0.288377,0.6739515 2.019495,2.5143065 4.218615,1.1059855 0.008,0.065742 0.02316,0.131246 0.04403,0.195702 0.05982,0.184771 0.174362,0.350635 0.2722348,0.484963 0.101035,0.13866 0.194235,0.262258 0.241222,0.366124 0.03132,0.06924 0.04312,0.125473 0.03806,0.181445 -0.005,0.05597 -0.02647,0.119106 -0.09269,0.20438 a 0.18742235,0.18742235 0 0 0 -0.0037,0.224989 c -0.7549878,0.387372 -1.7020308,0.319537 -2.3743938,0.09207 -1.298162,-0.43919 -2.157474,-1.5803984 -2.343382,-2.8556574 z m 4.9639968,0.4037032 c 0.01548,-5.66e-4 0.03102,-4.42e-4 0.04661,4.07e-4 0.207843,0.011321 0.423041,0.1496055 0.576626,0.4300085 0.316218,0.5773388 0.08314,1.3664408 -0.717702,1.8194258 0.416007,-0.53573 -0.26038,-0.890203 -0.4285558,-1.40964 -0.08246,-0.2546824 -0.05809,-0.511119 0.2183648,-0.7263213 0.09144,-0.071181 0.196328,-0.1098696 0.304661,-0.11388 z"
     class="ColorScheme-Text" />
  <path
     id="gradient-path1"
     style="opacity:0.3;baseline-shift:baseline;display:inline;overflow:visible;vector-effect:none;enable-background:accumulate;stop-color:#000000;stop-opacity:1;fill:url(#linearGradient4)"
     d="M 8.4453131 1.2753492 C 4.4913166 1.2753492 1.2794833 4.4784283 1.2794833 8.4236094 C 1.2794833 12.36879 4.4913166 15.572386 8.4453131 15.572386 C 12.39931 15.572386 15.611143 12.36879 15.611143 8.4236094 C 15.611143 4.4784283 12.39931 1.2753492 8.4453131 1.2753492 z " />
</svg>
