<?xml version="1.0" encoding="UTF-8" standalone="no"?>
<svg
   width="64"
   height="64"
   version="1.1"
   viewBox="0 0 16.933 16.933"
   id="svg7"
   sodipodi:docname="krita.svg"
   inkscape:version="1.4.2 (ebf0e940d0, 2025-05-08)"
   xmlns:inkscape="http://www.inkscape.org/namespaces/inkscape"
   xmlns:sodipodi="http://sodipodi.sourceforge.net/DTD/sodipodi-0.dtd"
   xmlns:xlink="http://www.w3.org/1999/xlink"
   xmlns="http://www.w3.org/2000/svg"
   xmlns:svg="http://www.w3.org/2000/svg"
   xmlns:rdf="http://www.w3.org/1999/02/22-rdf-syntax-ns#"
   xmlns:cc="http://creativecommons.org/ns#"
   xmlns:dc="http://purl.org/dc/elements/1.1/">
  <sodipodi:namedview
     id="namedview7"
     pagecolor="#9c4444"
     bordercolor="#000000"
     borderopacity="0.25"
     inkscape:showpageshadow="2"
     inkscape:pageopacity="0.0"
     inkscape:pagecheckerboard="0"
     inkscape:deskcolor="#d1d1d1"
     inkscape:zoom="4.3531261"
     inkscape:cx="36.066035"
     inkscape:cy="25.958357"
     inkscape:window-width="2560"
     inkscape:window-height="1376"
     inkscape:window-x="0"
     inkscape:window-y="0"
     inkscape:window-maximized="1"
     inkscape:current-layer="svg7"
     showgrid="false" />
  <defs
     id="defs2">
    <filter
       style="color-interpolation-filters:sRGB;"
       inkscape:label="Blur"
       id="filter3"
       x="-0.10843471"
       y="-0.10870992"
       width="1.2168694"
       height="1.2174198">
      <feGaussianBlur
         stdDeviation="0.5 0.5"
         result="blur"
         id="feGaussianBlur3" />
    </filter>
    <style
       id="current-color-scheme"
       type="text/css">.ColorScheme-Text {color:#d8dee9} .ColorScheme-Highlight {color:#3b4252}</style>
    <linearGradient
       id="linearGradient3"
       inkscape:collect="always">
      <stop
         style="stop-color:#000000;stop-opacity:1;"
         offset="0"
         id="stop3" />
      <stop
         style="stop-color:#000000;stop-opacity:0;"
         offset="1"
         id="stop4" />
    </linearGradient>
    <linearGradient
       inkscape:collect="always"
       xlink:href="#linearGradient3"
       id="linearGradient4"
       x1="13.512321"
       y1="13.490874"
       x2="3.3783066"
       y2="3.3568602"
       gradientUnits="userSpaceOnUse" />
  </defs>
  <metadata
     id="metadata2">
    <rdf:RDF>
      <cc:Work
         rdf:about="">
        <dc:format>image/svg+xml</dc:format>
        <dc:type
           rdf:resource="http://purl.org/dc/dcmitype/StillImage" />
      </cc:Work>
    </rdf:RDF>
  </metadata>
  <ellipse
     style="opacity:1;fill:none;stroke:#000000;stroke-width:0.582072;stroke-dasharray:none;stroke-opacity:1;filter:url(#filter3)"
     id="path1-5"
     cx="8.4450111"
     cy="8.423522"
     rx="6.8752708"
     ry="6.8578653" />
  <ellipse
     style="opacity:1;fill:none;stroke-width:0.58207188;stroke-opacity:1;stroke:currentColor;stroke-dasharray:none;fill-opacity:1"
     id="path1"
     cx="8.4450111"
     cy="8.423522"
     rx="6.8752708"
     ry="6.8578653"
     class="ColorScheme-Text" />
  <ellipse
     style="fill:currentColor;stroke:none;stroke-width:0.285844;stroke-dasharray:none;stroke-opacity:1"
     id="path1-2"
     cx="8.4557552"
     cy="8.423522"
     rx="6.5738997"
     ry="6.5692253"
     class="ColorScheme-Highlight" />
  <path
     id="path15"
     style="opacity:0.3;fill:#000000;fill-opacity:1;stroke-width:0.0063224"
     d="m 8.2722403,5.1365591 -2.92e-4,2.922e-4 h -2.93e-4 c -2.2e-4,5.17e-5 -6.78e-4,-3.3e-5 -9.04e-4,0 -0.0011,1.947e-4 -0.0024,7.296e-4 -0.0035,0.00117 -9.05e-4,3.634e-4 -0.0019,0.00109 -0.0023,0.00146 v 2.922e-4 h -2.93e-4 v 2.922e-4 2.922e-4 h 2.93e-4 c 1.1e-4,6.42e-5 7.35e-4,5.18e-4 8.48e-4,5.825e-4 0.0011,3.992e-4 0.0029,7.805e-4 0.0053,8.766e-4 0.0036,1.48e-4 0.0063,-4.421e-4 0.0076,-0.00117 l 2.92e-4,-2.923e-4 h 2.93e-4 2.92e-4 V 5.1400625 5.1397702 5.139478 5.1391858 5.1388935 h -2.92e-4 v -2.922e-4 l -2.93e-4,-2.922e-4 c -0.0015,-0.00108 -0.004,-0.00194 -0.0067,-0.00175 z m 0.388387,0 c -1.08e-4,9.2e-6 -7.92e-4,2.725e-4 -9.05e-4,2.922e-4 -2.1e-4,4.96e-5 -3.7e-4,-3.63e-5 -5.66e-4,0 -0.0011,1.947e-4 -0.0021,7.296e-4 -0.0032,0.00117 -0.0012,4.841e-4 -0.0022,0.00105 -0.0027,0.00146 h -2.92e-4 v 2.922e-4 2.922e-4 2.922e-4 h 2.92e-4 l 2.92e-4,2.923e-4 c 10e-4,3.984e-4 0.0032,0.00106 0.0058,0.00117 0.0036,1.479e-4 0.0063,-4.422e-4 0.0076,-0.00117 l 2.92e-4,-2.923e-4 h 2.93e-4 2.92e-4 v -2.922e-4 h 2.92e-4 V 5.1397735 5.1394813 5.139189 l -2.92e-4,-2.922e-4 -2.92e-4,-2.923e-4 -2.93e-4,-2.922e-4 c -1.08e-4,-8.74e-5 -7.35e-4,-5.04e-4 -8.48e-4,-5.825e-4 -0.0015,-7.974e-4 -0.0035,-0.00137 -0.0058,-0.00117 z m -0.159856,0.00468 c -0.246524,0 -0.33386,0.00547 -0.537136,0.033608 -0.79861,0.1105208 -1.571369,0.4879369 -2.139781,1.0447575 -0.04697,0.046011 -0.08728,0.083581 -0.08942,0.083581 -0.0021,0 -0.09087,-0.052642 -0.19697,-0.1171882 -0.377699,-0.2297741 -0.507855,-0.305823 -0.617795,-0.360624 -0.119336,-0.059486 -0.188817,-0.078157 -0.235253,-0.062832 -0.02797,0.00923 -0.06573,0.045981 -0.08913,0.086795 -0.05728,0.099886 -0.0023,0.1813601 0.393939,0.5844797 0.09845,0.1001467 0.216778,0.2203744 0.263016,0.2673996 l 0.08416,0.085626 -0.06342,0.096439 c -0.343812,0.5229018 -0.549474,1.1096458 -0.615457,1.7566539 -0.01357,0.1329925 -0.01558,0.559327 -0.0032,0.6797499 0.03488,0.33936 0.08637,0.591488 0.178559,0.8740895 0.298567,0.915236 0.931753,1.688034 1.771266,2.162282 0.496144,0.280276 1.035703,0.442871 1.626607,0.490087 -7.92e-4,3.44e-4 -0.0016,0.0011 -0.002,0.0015 h -2.93e-4 v 2.92e-4 2.92e-4 2.92e-4 2.93e-4 l 2.93e-4,2.92e-4 c 10e-4,4.02e-4 0.0032,7.92e-4 0.0058,8.48e-4 0.0036,1.43e-4 0.0063,-1.5e-4 0.0076,-8.48e-4 h 2.92e-4 l 2.92e-4,-2.92e-4 2.93e-4,-2.93e-4 v -2.92e-4 h 2.92e-4 v -2.92e-4 -2.92e-4 -2.93e-4 h -2.92e-4 l -2.93e-4,-2.92e-4 c 0.08197,0.0048 0.289706,0.0037 0.448881,-5.66e-4 -5.66e-4,3.27e-4 -0.0011,6.23e-4 -0.0015,8.49e-4 l -2.93e-4,2.92e-4 h -2.92e-4 v 2.92e-4 l -2.92e-4,2.92e-4 v 2.93e-4 h 2.92e-4 v 2.92e-4 l 2.92e-4,2.92e-4 h 2.93e-4 c 0.001,4.22e-4 0.0031,7.92e-4 0.0058,8.49e-4 0.0036,1.42e-4 0.0063,-1.5e-4 0.0076,-8.49e-4 h 2.92e-4 l 2.92e-4,-2.92e-4 2.93e-4,-2.92e-4 v -2.93e-4 l 2.92e-4,-2.92e-4 v -2.92e-4 l -2.92e-4,-2.92e-4 -2.93e-4,-2.93e-4 -2.92e-4,-2.91e-4 -2.92e-4,-2.93e-4 c -1.32e-4,-8.2e-5 -4.37e-4,-2.16e-4 -5.65e-4,-2.92e-4 0.076,-0.0022 0.139579,-0.005 0.17096,-0.0085 0.256528,-0.02853 0.456845,-0.06663 0.673905,-0.128001 0.9640157,-0.272573 1.7782527,-0.903471 2.2879457,-1.772435 0.06845,-0.116698 0.19051,-0.36638 0.242267,-0.495639 0.141719,-0.353938 0.225746,-0.6980425 0.265062,-1.0853785 0.01322,-0.1304254 0.0182,-0.4553825 0.0091,-0.5952926 C 12.312746,8.1571132 12.144513,7.5954476 11.847774,7.0770314 11.646309,6.7250629 11.377195,6.3927265 11.074215,6.1216992 10.5067,5.6140365 9.8021873,5.2849754 9.0530843,5.1774722 8.8421133,5.1471952 8.7532183,5.1412342 8.5007503,5.1412342 Z m 0.226194,0.6587087 c 0.336533,0.023683 0.669491,0.099993 0.982803,0.2273626 0.116018,0.047165 0.3221607,0.1494612 0.4237477,0.2104127 0.250302,0.1501787 0.425109,0.2865885 0.63153,0.4930087 0.166241,0.1662415 0.27742,0.3003675 0.397739,0.4798578 0.156913,0.2340787 0.295877,0.5198268 0.384003,0.7890477 0.212124,0.6476601 0.211881,1.3491697 -9.05e-4,1.9968751 -0.373739,1.1377716 -1.352466,1.9732466 -2.5345957,2.1637436 -0.106536,0.01717 -0.217057,0.02919 -0.334615,0.03624 -0.05099,0.003 -0.102493,-0.0016 -0.153718,-0.0012 -6.78e-4,6e-6 -0.0014,-5e-6 -0.002,0 -0.08463,6.79e-4 -0.169166,0.0042 -0.253956,-0.002 l 2.92e-4,-2.92e-4 v -2.92e-4 l 2.92e-4,-2.92e-4 v -2.93e-4 l -2.92e-4,-2.91e-4 -2.92e-4,-2.93e-4 -2.92e-4,-2.92e-4 c -0.0014,-10e-4 -0.0036,-0.0016 -0.0061,-0.0015 -0.0016,1.11e-4 -0.0036,2.15e-4 -0.0053,9.05e-4 v 2.91e-4 c -9.05e-4,3.64e-4 -0.0016,5.53e-4 -0.002,9.05e-4 l -2.91e-4,2.92e-4 c -9.7e-5,-7e-6 -1.97e-4,8e-6 -2.93e-4,0 -0.482835,-0.0382 -0.96287,-0.18858 -1.384627,-0.437523 -0.734749,-0.433685 -1.272803,-1.156957 -1.477272,-1.9857697 -0.184025,-0.7459431 -0.101263,-1.5057251 0.239052,-2.194137 0.0591,-0.1195561 0.154862,-0.2905053 0.173298,-0.3091898 0.0069,-0.00698 0.348877,0.3408347 0.993031,1.0102732 0.335746,0.3489238 0.461953,0.4695769 0.646143,0.6169184 0.175371,0.1402877 0.338551,0.2469575 0.500022,0.3267242 0.198964,0.09829 0.345914,0.1405491 0.495346,0.142613 l -2.91e-4,2.923e-4 v 2.922e-4 c -9.05e-4,3.634e-4 -0.0019,5.769e-4 -0.0023,8.766e-4 v 2.922e-4 h -2.92e-4 v 2.923e-4 2.922e-4 2.922e-4 2.922e-4 h 2.92e-4 c 10e-4,4.024e-4 0.0032,0.00108 0.0058,0.00117 0.0032,1.249e-4 0.0061,-5.995e-4 0.0076,-0.00117 h 2.93e-4 2.92e-4 2.92e-4 v -2.922e-4 -2.922e-4 h 2.92e-4 v -2.922e-4 -2.923e-4 -2.922e-4 h -2.92e-4 v -2.923e-4 l -2.92e-4,-2.922e-4 v -2.923e-4 h -2.92e-4 l -3.32e-4,-2.891e-4 h 9.05e-4 0.07072 l 0.151088,0.1133891 c 0.341091,0.2560216 0.545595,0.3962977 0.696115,0.4778122 l 0.05289,0.028639 v 0.037991 c 0,0.141279 0.06941,0.288313 0.232039,0.492132 0.113924,0.142782 0.150665,0.191407 0.187325,0.247235 0.124898,0.190211 0.138465,0.34725 0.04442,0.512297 l -0.02601,0.04559 0.02864,-0.01637 c 0.06828,-0.03924 0.2030907,-0.133076 0.2589247,-0.18002 0.178997,-0.150507 0.329531,-0.393923 0.38751,-0.626855 0.02706,-0.108728 0.03124,-0.146245 0.03098,-0.270029 -3.34e-4,-0.131503 -0.0099,-0.19292 -0.04588,-0.295455 -0.07639,-0.2174968 -0.241334,-0.3820671 -0.435785,-0.4342649 -0.06557,-0.017608 -0.1910237,-0.017446 -0.2571707,2.922e-4 l -0.04705,0.012859 -0.113681,-0.1142658 C 9.5366013,9.2651415 9.4363173,9.1762806 9.1586003,8.9450296 l -0.192002,-0.1595629 -0.0035,-0.030101 c -0.0055,-0.04659 -0.04384,-0.1543868 -0.0789,-0.2215177 C 8.7462413,8.2696825 8.4783183,7.9970067 8.0878453,7.7234669 7.9477853,7.6253499 7.8401683,7.5593522 7.4384883,7.3242672 6.8935603,7.0053446 6.3130393,6.6601605 6.3127803,6.6550379 c -8.5e-5,-0.00178 0.02618,-0.026436 0.05816,-0.054649 0.392829,-0.3466268 0.847957,-0.5867097 1.35161,-0.7130652 0.327848,-0.08225 0.667896,-0.1110623 1.004428,-0.08738 z m -2.91217,0.3860489 c -0.0024,0.00114 -0.0081,0.00643 -0.01344,0.012274 -0.0045,0.005 -0.0076,0.00926 -0.0082,0.011105 v 2.923e-4 2.922e-4 2.923e-4 2.922e-4 h 2.92e-4 2.93e-4 c 0.0024,-0.00114 0.0084,-0.00643 0.01374,-0.012274 0.0045,-0.005 0.0076,-0.00926 0.0082,-0.011105 V 6.1868735 6.1865812 6.186289 6.1859968 h -2.93e-4 -2.91e-4 z m -1.066676,0.03653 v 2.923e-4 c 5.59e-4,0.00105 0.0027,0.0037 0.0055,0.00731 0.004,0.00511 0.0081,0.00953 0.0099,0.010521 h 2.92e-4 2.92e-4 c 2.34e-4,0 6.79e-4,-1.07e-5 9.05e-4,0 h 2.93e-4 2.92e-4 v -2.923e-4 h 2.92e-4 l 2.92e-4,-2.922e-4 2.93e-4,-2.922e-4 V 6.239481 6.2391888 c -3.1e-5,-1.079e-4 -2.47e-4,-7.578e-4 -2.93e-4,-8.766e-4 -0.0011,-0.00223 -0.0048,-0.00606 -0.01052,-0.010521 -0.0036,-0.00283 -0.0057,-0.0047 -0.0067,-0.00526 h -2.92e-4 -2.92e-4 z m 0.158394,0.1616086 -0.0023,0.00263 c 0.004,0.00432 0.0086,0.00942 0.01403,0.014905 0.0064,0.00653 0.01277,0.012541 0.01782,0.017242 l 0.0023,-0.00234 c -0.0038,-0.00432 -0.0087,-0.0095 -0.01403,-0.014905 -0.0065,-0.00661 -0.01274,-0.012807 -0.01783,-0.017535 z m 5.7413447,0.2633071 v 2.922e-4 c 5.58e-4,0.00105 0.0024,0.0037 0.0053,0.00731 0.0047,0.006 0.0086,0.00965 0.01081,0.010521 l 2.93e-4,2.922e-4 h 2.92e-4 2.92e-4 l 2.92e-4,-2.922e-4 h 2.93e-4 l 2.92e-4,-2.923e-4 v -2.922e-4 h 2.92e-4 v -2.923e-4 -2.922e-4 -2.922e-4 l 2.92e-4,-2.923e-4 v -2.922e-4 -2.923e-4 -2.922e-4 h -2.92e-4 c -0.001,-0.00182 -0.0054,-0.00622 -0.01052,-0.010228 -0.0036,-0.00283 -0.0057,-0.0047 -0.0067,-0.00526 h -2.92e-4 -2.92e-4 z m 0.145827,0.1455355 v 2.922e-4 2.922e-4 c 5.59e-4,0.00105 0.0024,0.0034 0.0053,0.00701 0.004,0.00511 0.0081,0.00953 0.0099,0.010521 h 2.92e-4 c 1.56e-4,0 6.79e-4,-4.8e-6 9.05e-4,0 h 2.92e-4 2.92e-4 2.92e-4 2.93e-4 V 6.810801 h 2.92e-4 v -2.922e-4 -2.923e-4 h 2.92e-4 v -2.922e-4 c -1.5e-5,-9.96e-5 -2.53e-4,-7.578e-4 -2.92e-4,-8.765e-4 v -2.923e-4 c -0.0011,-0.00223 -0.0045,-0.00606 -0.01023,-0.010521 -0.0036,-0.00283 -0.006,-0.00441 -0.007,-0.00497 h -2.93e-4 v -2.923e-4 z m -4.5250417,0.9740355 0.0023,0.00263 2.92e-4,-2.922e-4 z m 0.190249,0.1963851 -2.93e-4,2.923e-4 5.66e-4,2.922e-4 2.91e-4,-2.922e-4 z m 0.161901,0.168038 0.0035,0.00409 5.65e-4,-5.825e-4 z m 0.13969,0.1455354 0.0038,0.00438 2.92e-4,-5.825e-4 z m 0.145536,0.1516725 0.0023,0.00321 5.66e-4,-5.825e-4 z m 0.182065,0.1823577 0.0032,0.00351 2.92e-4,-5.825e-4 z m 4.5753077,0.1870335 v 2.922e-4 h -2.93e-4 v 2.923e-4 l -2.92e-4,2.923e-4 c -4.21e-4,0.00103 -7.92e-4,0.00314 -8.48e-4,0.00584 h -2.93e-4 c -1.42e-4,0.0036 4.42e-4,0.00628 0.0012,0.0076 h 2.92e-4 v 2.922e-4 h 2.93e-4 v 2.923e-4 h 2.91e-4 v 2.922e-4 h 2.93e-4 v -2.922e-4 h 2.92e-4 2.92e-4 2.92e-4 v -2.923e-4 l 2.93e-4,-2.922e-4 2.92e-4,-2.922e-4 c 0.0015,-0.00245 0.0018,-0.00725 2.92e-4,-0.011105 -3.63e-4,-9.105e-4 -8.48e-4,-0.00157 -0.0012,-0.00205 l -2.93e-4,-2.922e-4 -2.92e-4,-2.923e-4 h -2.92e-4 V 8.7980285 Z M 4.6060913,8.9584753 v 2.923e-4 l -2.92e-4,2.922e-4 c -6.23e-4,0.00303 -0.0012,0.015415 -0.0012,0.034192 8e-6,0.018774 5.59e-4,0.030316 0.0012,0.032439 v 2.922e-4 h 2.92e-4 c 2.76e-4,-6.899e-4 5.52e-4,-0.00303 8.48e-4,-0.00701 0.0012,-0.015957 0.0013,-0.040563 0,-0.054649 -2.33e-4,-0.00264 -3.7e-4,-0.00446 -5.65e-4,-0.00526 v -2.922e-4 -2.922e-4 z m 7.0640217,0.024256 v 2.923e-4 h -2.92e-4 v 2.922e-4 c -5.46e-4,0.00135 -0.0011,0.00493 -0.0012,0.00994 -7.3e-5,0.0056 2.54e-4,0.0097 8.48e-4,0.011397 v 2.922e-4 l 2.93e-4,2.923e-4 v 2.922e-4 h 2.92e-4 2.92e-4 2.93e-4 l 2.92e-4,-2.922e-4 V 9.004945 9.0046528 h 2.92e-4 v -2.924e-4 -2.923e-4 c 0.0017,-0.00411 0.0018,-0.012213 2.92e-4,-0.018119 -2.2e-4,-8.313e-4 -3.9e-4,-0.00182 -5.65e-4,-0.00234 v -2.923e-4 h -2.92e-4 v -2.943e-4 l -2.92e-4,-2.923e-4 z m -0.0067,0.1917094 -2.92e-4,2.922e-4 -2.92e-4,2.923e-4 c -4.22e-4,0.00103 -7.92e-4,0.00314 -8.49e-4,0.00584 h -2.92e-4 c -1.43e-4,0.0036 4.42e-4,0.00657 0.0012,0.00789 h 2.92e-4 v 2.922e-4 h 2.92e-4 l 2.92e-4,2.922e-4 h 2.93e-4 2.92e-4 2.92e-4 l 2.92e-4,-2.922e-4 h 2.93e-4 c 2.56e-4,-2.515e-4 6.78e-4,-0.00111 9.04e-4,-0.00146 0.0011,-0.00251 0.0011,-0.00666 -2.91e-4,-0.010228 -3.64e-4,-9.105e-4 -8.49e-4,-0.00185 -0.0012,-0.00234 l -2.92e-4,-2.922e-4 h -2.93e-4 l -2.92e-4,-2.923e-4 z M 8.3818523,9.3611821 c -0.002,1.558e-4 -0.004,8.257e-4 -0.0055,0.00146 h -2.92e-4 -2.92e-4 l -2.92e-4,2.923e-4 h -2.93e-4 l -2.92e-4,2.922e-4 v 2.922e-4 h -2.92e-4 v 2.922e-4 2.923e-4 2.922e-4 h 2.92e-4 l 2.92e-4,2.923e-4 c 0.0014,5.58e-4 0.0046,8.766e-4 0.0088,8.766e-4 0.0042,0 0.0071,-3.187e-4 0.0085,-8.766e-4 h 2.92e-4 2.92e-4 l 2.93e-4,-2.923e-4 V 9.3641033 9.363811 9.3635188 9.3632266 h -2.93e-4 c -2.2e-4,-1.558e-4 -0.0011,-3.768e-4 -0.0015,-5.825e-4 -0.0026,-0.00105 -0.0063,-0.00172 -0.0096,-0.00146 z m 0.929322,0.7764819 c -0.388205,0.259667 -0.835681,0.423007 -1.314786,0.480442 -0.139944,0.01678 -0.410261,0.02274 -0.554087,0.01227 -0.494297,-0.03596 -0.966557,-0.18933 -1.374112,-0.445081 0.02282,0.04158 0.04637,0.08205 0.06926,0.118649 0.261732,0.418394 0.63263,0.751057 1.085672,0.973159 0.353914,0.173504 0.730999,0.269542 1.115479,0.284641 0.479777,0.01884 0.925398,-0.07155 1.347518,-0.273244 l 0.0678,-0.03244 0.0152,-0.02543 c 0.031,-0.05281 0.04699,-0.103224 0.05056,-0.154302 0.0036,-0.05108 -0.0052,-0.103374 -0.02864,-0.160148 -0.03007,-0.07292 -0.06975,-0.132201 -0.220353,-0.321464 -0.153196,-0.19252 -0.228212,-0.318819 -0.25951,-0.457063 z m 1.5304607,1.007058 v 2.92e-4 c -0.0011,5.58e-4 -0.0037,0.0021 -0.0073,0.005 -0.0051,0.004 -0.0092,0.0084 -0.01023,0.01023 v 2.93e-4 l -2.93e-4,2.92e-4 v 2.92e-4 2.92e-4 l 2.93e-4,2.93e-4 v 2.92e-4 2.92e-4 l 2.91e-4,2.92e-4 v 2.93e-4 2.92e-4 h 2.93e-4 2.92e-4 2.93e-4 2.92e-4 2.92e-4 2.92e-4 2.93e-4 c 0.0022,-0.0011 0.0058,-0.0051 0.01023,-0.01081 0.0028,-0.0036 0.0047,-0.0057 0.0053,-0.0067 v -2.96e-4 -2.92e-4 -2.92e-4 z m -0.20634,0.206318 v 2.92e-4 c -0.0011,5.58e-4 -0.0037,0.0024 -0.0073,0.0053 -0.0051,0.004 -0.0092,0.0081 -0.01023,0.0099 v 2.93e-4 l -2.92e-4,2.92e-4 v 2.92e-4 2.92e-4 l 2.92e-4,2.92e-4 v 2.93e-4 2.92e-4 2.92e-4 h 2.92e-4 v 2.92e-4 2.93e-4 h 2.92e-4 2.93e-4 2.91e-4 2.93e-4 2.92e-4 l 2.93e-4,-2.93e-4 c 0.0023,-0.0012 0.0061,-0.0046 0.01052,-0.01023 0.0028,-0.0036 0.0047,-0.006 0.0053,-0.007 v -2.91e-4 -2.92e-4 -2.92e-4 z m -1.9620987,0.838436 v 2.92e-4 c -0.0016,1.12e-4 -0.0033,2.15e-4 -0.005,9.05e-4 v 2.92e-4 c -9.05e-4,3.63e-4 -0.0019,5.65e-4 -0.0023,9.05e-4 l -2.91e-4,2.91e-4 h -2.93e-4 v 2.93e-4 2.92e-4 h -2.92e-4 v 2.93e-4 h 2.92e-4 v 2.91e-4 l 2.93e-4,2.93e-4 h 2.91e-4 c 10e-4,4.02e-4 0.0032,7.92e-4 0.0058,8.48e-4 0.0036,1.43e-4 0.0063,-1.5e-4 0.0076,-8.48e-4 h 2.92e-4 l 2.92e-4,-2.93e-4 v -2.91e-4 -2.93e-4 h 2.92e-4 v -2.92e-4 -2.93e-4 -2.91e-4 h -2.92e-4 v -2.93e-4 -2.92e-4 l -2.92e-4,-2.92e-4 -2.92e-4,-2.92e-4 -2.93e-4,-2.93e-4 c -0.0014,-7.91e-4 -0.0036,-10e-4 -0.0058,-8.48e-4 z m -0.289317,0.661631 c -0.0061,0 -0.01207,1.89e-4 -0.01666,8.48e-4 -0.0017,2.6e-4 -0.0029,6.23e-4 -0.0035,8.49e-4 l -2.92e-4,2.92e-4 v 2.93e-4 h 2.92e-4 2.92e-4 c 0.0024,5.65e-4 0.0095,0.0012 0.01987,0.0012 0.0109,0 0.01814,-5.59e-4 0.02017,-0.0012 h 2.92e-4 2.92e-4 v -2.93e-4 h -2.92e-4 c -5.66e-4,-2.33e-4 -0.0018,-9.05e-4 -0.0035,-0.0012 -0.0046,-6.78e-4 -0.0109,-8.48e-4 -0.01695,-8.48e-4 z m 0.163946,0 c -0.0061,0 -0.01236,1.89e-4 -0.01695,8.48e-4 -0.0017,2.6e-4 -0.0026,6.23e-4 -0.0032,8.49e-4 l -2.93e-4,2.92e-4 v 2.93e-4 c 0.002,6.22e-4 0.0096,0.0012 0.02046,0.0012 0.01033,0 0.01716,-3.06e-4 0.01958,-8.49e-4 l 2.93e-4,-2.92e-4 h 2.92e-4 2.92e-4 v -2.92e-4 c -5.66e-4,-2.34e-4 -0.0021,-9.05e-4 -0.0038,-0.0012 -0.0046,-6.79e-4 -0.0106,-8.49e-4 -0.01666,-8.49e-4 z" />
  <path
     id="path15-7"
     style="fill:currentColor;fill-opacity:1;stroke-width:0.0063224"
     class="ColorScheme-Text"
     d="m 8.2722403,4.6075047 -2.92e-4,2.922e-4 h -2.93e-4 c -2.2e-4,5.17e-5 -6.78e-4,-3.3e-5 -9.04e-4,0 -0.0011,1.947e-4 -0.0024,7.296e-4 -0.0035,0.00117 -9.05e-4,3.634e-4 -0.0019,0.00109 -0.0023,0.00146 v 2.922e-4 h -2.93e-4 v 2.922e-4 2.922e-4 h 2.93e-4 c 1.1e-4,6.42e-5 7.35e-4,5.18e-4 8.48e-4,5.825e-4 0.0011,3.992e-4 0.0029,7.805e-4 0.0053,8.766e-4 0.0036,1.48e-4 0.0063,-4.421e-4 0.0076,-0.00117 l 2.92e-4,-2.923e-4 h 2.93e-4 2.92e-4 v -2.922e-4 -2.923e-4 -2.922e-4 -2.922e-4 -2.923e-4 h -2.92e-4 v -2.922e-4 l -2.93e-4,-2.922e-4 c -0.0015,-0.00108 -0.004,-0.00194 -0.0067,-0.00175 z m 0.388387,0 c -1.08e-4,9.2e-6 -7.92e-4,2.725e-4 -9.05e-4,2.922e-4 -2.1e-4,4.96e-5 -3.7e-4,-3.63e-5 -5.66e-4,0 -0.0011,1.947e-4 -0.0021,7.296e-4 -0.0032,0.00117 -0.0012,4.841e-4 -0.0022,0.00105 -0.0027,0.00146 h -2.92e-4 v 2.922e-4 2.922e-4 2.922e-4 h 2.92e-4 l 2.92e-4,2.923e-4 c 10e-4,3.984e-4 0.0032,0.00106 0.0058,0.00117 0.0036,1.479e-4 0.0063,-4.422e-4 0.0076,-0.00117 l 2.92e-4,-2.923e-4 h 2.93e-4 2.92e-4 v -2.922e-4 h 2.92e-4 v -2.922e-4 -2.922e-4 -2.923e-4 l -2.92e-4,-2.922e-4 -2.92e-4,-2.923e-4 -2.93e-4,-2.922e-4 c -1.08e-4,-8.74e-5 -7.35e-4,-5.04e-4 -8.48e-4,-5.825e-4 -0.0015,-7.974e-4 -0.0035,-0.00137 -0.0058,-0.00117 z m -0.159856,0.00468 c -0.246524,0 -0.33386,0.00547 -0.537136,0.033608 -0.79861,0.1105208 -1.571369,0.4879369 -2.139781,1.0447575 -0.04697,0.046011 -0.08728,0.083581 -0.08942,0.083581 -0.0021,0 -0.09087,-0.052642 -0.19697,-0.1171882 C 5.1597653,5.4271689 5.0296093,5.35112 4.9196693,5.296319 4.8003333,5.236833 4.7308523,5.218162 4.6844163,5.233487 c -0.02797,0.00923 -0.06573,0.045981 -0.08913,0.086795 -0.05728,0.099886 -0.0023,0.1813601 0.393939,0.5844797 0.09845,0.1001467 0.216778,0.2203744 0.263016,0.2673996 l 0.08416,0.085626 -0.06342,0.096439 c -0.343812,0.5229018 -0.549474,1.1096458 -0.615457,1.7566539 -0.01357,0.1329925 -0.01558,0.559327 -0.0032,0.6797499 0.03488,0.3393597 0.08637,0.5914877 0.178559,0.8740897 0.298567,0.9152362 0.931753,1.6880342 1.771266,2.1622822 0.496144,0.280276 1.035703,0.442871 1.626607,0.490087 -7.92e-4,3.44e-4 -0.0016,0.0011 -0.002,0.0015 h -2.93e-4 v 2.92e-4 2.92e-4 2.92e-4 2.93e-4 l 2.93e-4,2.92e-4 c 10e-4,4.02e-4 0.0032,7.92e-4 0.0058,8.48e-4 0.0036,1.43e-4 0.0063,-1.5e-4 0.0076,-8.48e-4 h 2.92e-4 l 2.92e-4,-2.92e-4 2.93e-4,-2.93e-4 v -2.92e-4 h 2.92e-4 v -2.92e-4 -2.92e-4 -2.93e-4 h -2.92e-4 l -2.93e-4,-2.92e-4 c 0.08197,0.0048 0.289706,0.0037 0.448881,-5.66e-4 -5.66e-4,3.27e-4 -0.0011,6.23e-4 -0.0015,8.49e-4 l -2.93e-4,2.92e-4 h -2.92e-4 v 2.92e-4 l -2.92e-4,2.92e-4 v 2.93e-4 h 2.92e-4 v 2.92e-4 l 2.92e-4,2.92e-4 h 2.93e-4 c 0.001,4.22e-4 0.0031,7.92e-4 0.0058,8.49e-4 0.0036,1.42e-4 0.0063,-1.5e-4 0.0076,-8.49e-4 h 2.92e-4 l 2.92e-4,-2.92e-4 2.93e-4,-2.92e-4 v -2.93e-4 l 2.92e-4,-2.92e-4 v -2.92e-4 l -2.92e-4,-2.92e-4 -2.93e-4,-2.93e-4 -2.92e-4,-2.91e-4 -2.92e-4,-2.93e-4 c -1.32e-4,-8.2e-5 -4.37e-4,-2.16e-4 -5.65e-4,-2.92e-4 0.076,-0.0022 0.139579,-0.005 0.17096,-0.0085 0.256528,-0.02853 0.456845,-0.06663 0.673905,-0.128001 0.9640157,-0.272573 1.7782527,-0.903471 2.2879457,-1.772435 0.06845,-0.116698 0.19051,-0.36638 0.242267,-0.4956392 0.141719,-0.353938 0.225746,-0.698043 0.265062,-1.0853787 0.01322,-0.1304254 0.0182,-0.4553825 0.0091,-0.5952926 C 12.312746,7.6280588 12.144513,7.0663932 11.847774,6.547977 11.646309,6.1960085 11.377195,5.8636721 11.074215,5.5926448 10.5067,5.0849821 9.8021873,4.755921 9.0530843,4.6484178 8.8421133,4.6181408 8.7532183,4.6121798 8.5007503,4.6121798 Z m 0.226194,0.6587087 c 0.336533,0.023683 0.669491,0.099993 0.982803,0.2273626 0.116018,0.047165 0.3221607,0.1494612 0.4237477,0.2104127 0.250302,0.1501787 0.425109,0.2865885 0.63153,0.4930087 0.166241,0.1662415 0.27742,0.3003675 0.397739,0.4798578 0.156913,0.2340787 0.295877,0.5198268 0.384003,0.7890477 0.212124,0.6476601 0.211881,1.3491697 -9.05e-4,1.9968749 -0.373739,1.1377722 -1.352466,1.9732472 -2.5345957,2.1637442 -0.106536,0.01717 -0.217057,0.02919 -0.334615,0.03624 -0.05099,0.003 -0.102493,-0.0016 -0.153718,-0.0012 -6.78e-4,6e-6 -0.0014,-5e-6 -0.002,0 -0.08463,6.79e-4 -0.169166,0.0042 -0.253956,-0.002 l 2.92e-4,-2.92e-4 v -2.92e-4 l 2.92e-4,-2.92e-4 v -2.93e-4 l -2.92e-4,-2.91e-4 -2.92e-4,-2.93e-4 -2.92e-4,-2.92e-4 c -0.0014,-0.001 -0.0036,-0.0016 -0.0061,-0.0015 -0.0016,1.11e-4 -0.0036,2.15e-4 -0.0053,9.05e-4 v 2.91e-4 c -9.05e-4,3.64e-4 -0.0016,5.53e-4 -0.002,9.05e-4 l -2.91e-4,2.92e-4 c -9.7e-5,-7e-6 -1.97e-4,8e-6 -2.93e-4,0 -0.482835,-0.0382 -0.96287,-0.18858 -1.384627,-0.437523 -0.734749,-0.433685 -1.272803,-1.156957 -1.477272,-1.9857702 -0.184025,-0.745943 -0.101263,-1.505725 0.239052,-2.1941369 0.0591,-0.1195561 0.154862,-0.2905053 0.173298,-0.3091898 0.0069,-0.00698 0.348877,0.3408347 0.993031,1.0102732 0.335746,0.3489238 0.461953,0.4695769 0.646143,0.6169184 0.175371,0.1402877 0.338551,0.2469575 0.500022,0.3267242 0.198964,0.09829 0.345914,0.1405491 0.495346,0.142613 l -2.91e-4,2.923e-4 v 2.922e-4 c -9.05e-4,3.634e-4 -0.0019,5.769e-4 -0.0023,8.766e-4 v 2.922e-4 h -2.92e-4 v 2.923e-4 2.922e-4 2.922e-4 2.922e-4 h 2.92e-4 c 10e-4,4.024e-4 0.0032,0.00108 0.0058,0.00117 0.0032,1.249e-4 0.0061,-5.995e-4 0.0076,-0.00117 h 2.93e-4 2.92e-4 2.92e-4 v -2.922e-4 -2.922e-4 h 2.92e-4 V 8.8350445 8.8347522 8.83446 h -2.92e-4 v -2.923e-4 l -2.92e-4,-2.922e-4 v -2.923e-4 h -2.92e-4 l -3.32e-4,-2.891e-4 h 9.05e-4 0.07072 l 0.151088,0.1133891 c 0.341091,0.2560216 0.545595,0.3962976 0.696115,0.4778126 l 0.05289,0.02864 v 0.03799 c 0,0.14128 0.06941,0.288314 0.232039,0.492132 0.113924,0.1427822 0.150665,0.1914072 0.187325,0.2472352 0.124898,0.190211 0.138465,0.34725 0.04442,0.512297 l -0.02601,0.04559 0.02864,-0.01636 c 0.06828,-0.03924 0.2030907,-0.133076 0.2589247,-0.18002 0.178997,-0.150507 0.329531,-0.393923 0.38751,-0.6268542 0.02706,-0.108728 0.03124,-0.146246 0.03098,-0.27003 -3.34e-4,-0.131503 -0.0099,-0.19292 -0.04588,-0.295454 -0.07639,-0.217501 -0.241334,-0.3820713 -0.435785,-0.4342691 -0.06557,-0.017608 -0.1910237,-0.017446 -0.2571707,2.922e-4 l -0.04705,0.012859 -0.113681,-0.1142658 C 9.5366013,8.7360871 9.4363173,8.6472262 9.1586003,8.4159752 l -0.192002,-0.1595629 -0.0035,-0.030101 c -0.0055,-0.04659 -0.04384,-0.1543868 -0.0789,-0.2215177 C 8.7462413,7.7406281 8.4783183,7.4679523 8.0878453,7.1944125 7.9477853,7.0962955 7.8401683,7.0302978 7.4384883,6.7952128 6.8935603,6.4762902 6.3130393,6.1311061 6.3127803,6.1259835 c -8.5e-5,-0.00178 0.02618,-0.026436 0.05816,-0.054649 0.392829,-0.3466268 0.847957,-0.5867097 1.35161,-0.7130652 0.327848,-0.08225 0.667896,-0.1110623 1.004428,-0.08738 z m -2.91217,0.3860489 c -0.0024,0.00114 -0.0081,0.00643 -0.01344,0.012274 -0.0045,0.005 -0.0076,0.00926 -0.0082,0.011105 v 2.923e-4 2.922e-4 2.923e-4 2.922e-4 h 2.92e-4 2.93e-4 c 0.0024,-0.00114 0.0084,-0.00643 0.01374,-0.012274 0.0045,-0.005 0.0076,-0.00926 0.0082,-0.011105 v -2.922e-4 -2.923e-4 -2.922e-4 -2.922e-4 h -2.93e-4 -2.91e-4 z m -1.066676,0.03653 v 2.923e-4 c 5.59e-4,0.00105 0.0027,0.0037 0.0055,0.00731 0.004,0.00511 0.0081,0.00953 0.0099,0.010521 h 2.92e-4 2.92e-4 c 2.34e-4,0 6.79e-4,-1.07e-5 9.05e-4,0 h 2.93e-4 2.92e-4 v -2.923e-4 h 2.92e-4 l 2.92e-4,-2.922e-4 2.93e-4,-2.922e-4 v -2.923e-4 -2.922e-4 c -3.1e-5,-1.079e-4 -2.47e-4,-7.578e-4 -2.93e-4,-8.766e-4 -0.0011,-0.00223 -0.0048,-0.00606 -0.01052,-0.010521 -0.0036,-0.00283 -0.0057,-0.0047 -0.0067,-0.00526 h -2.92e-4 -2.92e-4 z m 0.158394,0.1616086 -0.0023,0.00263 c 0.004,0.00432 0.0086,0.00942 0.01403,0.014905 0.0064,0.00653 0.01277,0.012541 0.01782,0.017242 l 0.0023,-0.00234 c -0.0038,-0.00432 -0.0087,-0.0095 -0.01403,-0.014905 -0.0065,-0.00661 -0.01274,-0.012807 -0.01783,-0.017535 z M 10.647858,6.118388 v 2.922e-4 c 5.58e-4,0.00105 0.0024,0.0037 0.0053,0.00731 0.0047,0.006 0.0086,0.00965 0.01081,0.010521 l 2.93e-4,2.922e-4 h 2.92e-4 2.92e-4 l 2.92e-4,-2.922e-4 h 2.93e-4 l 2.92e-4,-2.923e-4 v -2.922e-4 h 2.92e-4 V 6.1356344 6.1353422 6.13505 l 2.92e-4,-2.923e-4 V 6.1344655 6.1341732 6.133881 h -2.92e-4 c -0.001,-0.00182 -0.0054,-0.00622 -0.01052,-0.010228 -0.0036,-0.00283 -0.0057,-0.0047 -0.0067,-0.00526 h -2.92e-4 -2.92e-4 z m 0.145827,0.1455355 v 2.922e-4 2.922e-4 c 5.59e-4,0.00105 0.0024,0.0034 0.0053,0.00701 0.004,0.00511 0.0081,0.00953 0.0099,0.010521 h 2.92e-4 c 1.56e-4,0 6.79e-4,-4.8e-6 9.05e-4,0 h 2.92e-4 2.92e-4 2.92e-4 2.93e-4 v -2.923e-4 h 2.92e-4 v -2.922e-4 -2.923e-4 h 2.92e-4 v -2.922e-4 c -1.5e-5,-9.96e-5 -2.53e-4,-7.578e-4 -2.92e-4,-8.765e-4 v -2.923e-4 c -0.0011,-0.00223 -0.0045,-0.00606 -0.01023,-0.010521 -0.0036,-0.00283 -0.006,-0.00441 -0.007,-0.00497 h -2.93e-4 v -2.923e-4 z m -4.5250417,0.9740355 0.0023,0.00263 2.92e-4,-2.922e-4 z m 0.190249,0.1963851 -2.93e-4,2.923e-4 5.66e-4,2.922e-4 2.91e-4,-2.922e-4 z m 0.161901,0.168038 0.0035,0.00409 5.65e-4,-5.825e-4 z m 0.13969,0.1455354 0.0038,0.00438 2.92e-4,-5.825e-4 z m 0.145536,0.1516725 0.0023,0.00321 5.66e-4,-5.825e-4 z m 0.182065,0.1823577 0.0032,0.00351 2.92e-4,-5.825e-4 z m 4.5753077,0.1870335 v 2.922e-4 h -2.93e-4 v 2.923e-4 l -2.92e-4,2.923e-4 c -4.21e-4,0.00103 -7.92e-4,0.00314 -8.48e-4,0.00584 h -2.93e-4 c -1.42e-4,0.0036 4.42e-4,0.00628 0.0012,0.0076 h 2.92e-4 v 2.922e-4 h 2.93e-4 v 2.923e-4 h 2.91e-4 v 2.922e-4 h 2.93e-4 v -2.922e-4 h 2.92e-4 2.92e-4 2.92e-4 v -2.923e-4 l 2.93e-4,-2.922e-4 2.92e-4,-2.922e-4 c 0.0015,-0.00245 0.0018,-0.00725 2.92e-4,-0.011105 -3.63e-4,-9.105e-4 -8.48e-4,-0.00157 -0.0012,-0.00205 l -2.93e-4,-2.922e-4 -2.92e-4,-2.923e-4 h -2.92e-4 V 8.2689741 Z M 4.6060913,8.4294209 v 2.923e-4 l -2.92e-4,2.922e-4 c -6.23e-4,0.00303 -0.0012,0.015415 -0.0012,0.034192 8e-6,0.018774 5.59e-4,0.030316 0.0012,0.032439 v 2.922e-4 h 2.92e-4 c 2.76e-4,-6.899e-4 5.52e-4,-0.00303 8.48e-4,-0.00701 0.0012,-0.015957 0.0013,-0.040563 0,-0.054649 -2.33e-4,-0.00264 -3.7e-4,-0.00446 -5.65e-4,-0.00526 v -2.922e-4 -2.922e-4 z m 7.0640217,0.024256 v 2.923e-4 h -2.92e-4 v 2.922e-4 c -5.46e-4,0.00135 -0.0011,0.00493 -0.0012,0.00994 -7.3e-5,0.0056 2.54e-4,0.0097 8.48e-4,0.011397 v 2.922e-4 l 2.93e-4,2.923e-4 v 2.922e-4 h 2.92e-4 2.92e-4 2.93e-4 l 2.92e-4,-2.922e-4 v -2.923e-4 -2.922e-4 h 2.92e-4 V 8.475306 8.4750137 c 0.0017,-0.00411 0.0018,-0.012213 2.92e-4,-0.018119 -2.2e-4,-8.313e-4 -3.9e-4,-0.00182 -5.65e-4,-0.00234 v -2.923e-4 h -2.92e-4 v -2.943e-4 l -2.92e-4,-2.923e-4 z m -0.0067,0.1917094 -2.92e-4,2.922e-4 -2.92e-4,2.923e-4 c -4.22e-4,0.00103 -7.92e-4,0.00314 -8.49e-4,0.00584 h -2.92e-4 c -1.43e-4,0.0036 4.42e-4,0.00657 0.0012,0.00789 h 2.92e-4 v 2.922e-4 h 2.92e-4 l 2.92e-4,2.922e-4 h 2.93e-4 2.92e-4 2.92e-4 l 2.92e-4,-2.922e-4 h 2.93e-4 c 2.56e-4,-2.515e-4 6.78e-4,-0.00111 9.04e-4,-0.00146 0.0011,-0.00251 0.0011,-0.00666 -2.91e-4,-0.010228 -3.64e-4,-9.105e-4 -8.49e-4,-0.00185 -0.0012,-0.00234 l -2.92e-4,-2.922e-4 h -2.93e-4 l -2.92e-4,-2.923e-4 z M 8.3818523,8.8321277 c -0.002,1.558e-4 -0.004,8.257e-4 -0.0055,0.00146 h -2.92e-4 -2.92e-4 l -2.92e-4,2.923e-4 h -2.93e-4 l -2.92e-4,2.922e-4 v 2.922e-4 h -2.92e-4 v 2.922e-4 2.923e-4 2.922e-4 h 2.92e-4 l 2.92e-4,2.923e-4 c 0.0014,5.58e-4 0.0046,8.766e-4 0.0088,8.766e-4 0.0042,0 0.0071,-3.187e-4 0.0085,-8.766e-4 h 2.92e-4 2.92e-4 l 2.93e-4,-2.923e-4 v -2.922e-4 -2.923e-4 -2.922e-4 -2.922e-4 h -2.93e-4 c -2.2e-4,-1.558e-4 -0.0011,-3.768e-4 -0.0015,-5.825e-4 -0.0026,-0.00105 -0.0063,-0.00172 -0.0096,-0.00146 z m 0.929322,0.7764811 c -0.388205,0.259668 -0.835681,0.4230082 -1.314786,0.4804432 -0.139944,0.01678 -0.410261,0.02274 -0.554087,0.01227 -0.494297,-0.03596 -0.966557,-0.1893302 -1.374112,-0.4450812 0.02282,0.04158 0.04637,0.08205 0.06926,0.118649 0.261732,0.4183942 0.63263,0.7510572 1.085672,0.9731592 0.353914,0.173504 0.730999,0.269542 1.115479,0.284641 0.479777,0.01884 0.925398,-0.07156 1.347518,-0.273244 l 0.0678,-0.03244 0.0152,-0.02543 c 0.031,-0.05281 0.04699,-0.103224 0.05056,-0.154302 0.0036,-0.05108 -0.0052,-0.103374 -0.02864,-0.160148 -0.03007,-0.07292 -0.06975,-0.132201 -0.220353,-0.321464 -0.153196,-0.1925212 -0.228212,-0.3188192 -0.25951,-0.4570632 z m 1.5304607,1.0070592 v 2.92e-4 c -0.0011,5.58e-4 -0.0037,0.0021 -0.0073,0.005 -0.0051,0.004 -0.0092,0.0084 -0.01023,0.01023 v 2.93e-4 l -2.93e-4,2.92e-4 v 2.92e-4 2.92e-4 l 2.93e-4,2.93e-4 v 2.92e-4 2.92e-4 l 2.91e-4,2.92e-4 v 2.93e-4 2.92e-4 h 2.93e-4 2.92e-4 2.93e-4 2.92e-4 2.92e-4 2.92e-4 2.93e-4 c 0.0022,-0.0011 0.0058,-0.0051 0.01023,-0.01081 0.0028,-0.0036 0.0047,-0.0057 0.0053,-0.0067 v -2.96e-4 -2.92e-4 -2.92e-4 z m -0.20634,0.206318 v 2.92e-4 c -0.0011,5.58e-4 -0.0037,0.0024 -0.0073,0.0053 -0.0051,0.004 -0.0092,0.0081 -0.01023,0.0099 v 2.93e-4 l -2.92e-4,2.92e-4 v 2.92e-4 2.92e-4 l 2.92e-4,2.92e-4 v 2.93e-4 2.92e-4 2.92e-4 h 2.92e-4 v 2.92e-4 2.93e-4 h 2.92e-4 2.93e-4 2.91e-4 2.93e-4 2.92e-4 l 2.93e-4,-2.93e-4 c 0.0023,-0.0012 0.0061,-0.0046 0.01052,-0.01023 0.0028,-0.0036 0.0047,-0.006 0.0053,-0.007 v -2.91e-4 -2.92e-4 -2.92e-4 z m -1.9620987,0.838436 v 2.92e-4 c -0.0016,1.12e-4 -0.0033,2.15e-4 -0.005,9.05e-4 v 2.92e-4 c -9.05e-4,3.63e-4 -0.0019,5.65e-4 -0.0023,9.05e-4 l -2.91e-4,2.91e-4 h -2.93e-4 v 2.93e-4 2.92e-4 h -2.92e-4 v 2.93e-4 h 2.92e-4 v 2.91e-4 l 2.93e-4,2.93e-4 h 2.91e-4 c 10e-4,4.02e-4 0.0032,7.92e-4 0.0058,8.48e-4 0.0036,1.43e-4 0.0063,-1.5e-4 0.0076,-8.48e-4 h 2.92e-4 l 2.92e-4,-2.93e-4 v -2.91e-4 -2.93e-4 h 2.92e-4 v -2.92e-4 -2.93e-4 -2.91e-4 h -2.92e-4 v -2.93e-4 -2.92e-4 l -2.92e-4,-2.92e-4 -2.92e-4,-2.92e-4 -2.93e-4,-2.93e-4 c -0.0014,-7.91e-4 -0.0036,-10e-4 -0.0058,-8.48e-4 z m -0.289317,0.661631 c -0.0061,0 -0.01207,1.89e-4 -0.01666,8.48e-4 -0.0017,2.6e-4 -0.0029,6.23e-4 -0.0035,8.49e-4 l -2.92e-4,2.92e-4 v 2.93e-4 h 2.92e-4 2.92e-4 c 0.0024,5.65e-4 0.0095,0.0012 0.01987,0.0012 0.0109,0 0.01814,-5.59e-4 0.02017,-0.0012 h 2.92e-4 2.92e-4 v -2.93e-4 h -2.92e-4 c -5.66e-4,-2.33e-4 -0.0018,-9.05e-4 -0.0035,-0.0012 -0.0046,-6.78e-4 -0.0109,-8.48e-4 -0.01695,-8.48e-4 z m 0.163946,0 c -0.0061,0 -0.01236,1.89e-4 -0.01695,8.48e-4 -0.0017,2.6e-4 -0.0026,6.23e-4 -0.0032,8.49e-4 l -2.93e-4,2.92e-4 v 2.93e-4 c 0.002,6.22e-4 0.0096,0.0012 0.02046,0.0012 0.01033,0 0.01716,-3.06e-4 0.01958,-8.49e-4 l 2.93e-4,-2.92e-4 h 2.92e-4 2.92e-4 v -2.93e-4 c -5.66e-4,-2.33e-4 -0.0021,-9.04e-4 -0.0038,-0.0012 -0.0046,-6.79e-4 -0.0106,-8.49e-4 -0.01666,-8.49e-4 z" />
  <path
     id="gradient-path1"
     style="opacity:0.3;baseline-shift:baseline;display:inline;overflow:visible;vector-effect:none;enable-background:accumulate;stop-color:#000000;stop-opacity:1;fill:url(#linearGradient4)"
     d="M 8.4453131 1.2753492 C 4.4913166 1.2753492 1.2794833 4.4784283 1.2794833 8.4236094 C 1.2794833 12.36879 4.4913166 15.572386 8.4453131 15.572386 C 12.39931 15.572386 15.611143 12.36879 15.611143 8.4236094 C 15.611143 4.4784283 12.39931 1.2753492 8.4453131 1.2753492 z " />
</svg>
