<?xml version="1.0" encoding="UTF-8" standalone="no"?>
<svg
   width="64"
   height="64"
   version="1.1"
   viewBox="0 0 16.933 16.933"
   id="svg7"
   sodipodi:docname="krusader_user.svg"
   inkscape:version="1.4.2 (ebf0e940d0, 2025-05-08)"
   xmlns:inkscape="http://www.inkscape.org/namespaces/inkscape"
   xmlns:sodipodi="http://sodipodi.sourceforge.net/DTD/sodipodi-0.dtd"
   xmlns:xlink="http://www.w3.org/1999/xlink"
   xmlns="http://www.w3.org/2000/svg"
   xmlns:svg="http://www.w3.org/2000/svg"
   xmlns:rdf="http://www.w3.org/1999/02/22-rdf-syntax-ns#"
   xmlns:cc="http://creativecommons.org/ns#"
   xmlns:dc="http://purl.org/dc/elements/1.1/">
  <sodipodi:namedview
     id="namedview7"
     pagecolor="#9c4444"
     bordercolor="#000000"
     borderopacity="0.25"
     inkscape:showpageshadow="2"
     inkscape:pageopacity="0.0"
     inkscape:pagecheckerboard="0"
     inkscape:deskcolor="#d1d1d1"
     inkscape:zoom="4.3531261"
     inkscape:cx="36.066035"
     inkscape:cy="25.958357"
     inkscape:window-width="2560"
     inkscape:window-height="1376"
     inkscape:window-x="0"
     inkscape:window-y="0"
     inkscape:window-maximized="1"
     inkscape:current-layer="svg7"
     showgrid="false" />
  <defs
     id="defs2">
    <filter
       style="color-interpolation-filters:sRGB;"
       inkscape:label="Blur"
       id="filter3"
       x="-0.10843471"
       y="-0.10870992"
       width="1.2168694"
       height="1.2174198">
      <feGaussianBlur
         stdDeviation="0.5 0.5"
         result="blur"
         id="feGaussianBlur3" />
    </filter>
    <style
       id="current-color-scheme"
       type="text/css">.ColorScheme-Text {color:#d8dee9} .ColorScheme-Highlight {color:#3b4252}</style>
    <linearGradient
       id="linearGradient3"
       inkscape:collect="always">
      <stop
         style="stop-color:#000000;stop-opacity:1;"
         offset="0"
         id="stop3" />
      <stop
         style="stop-color:#000000;stop-opacity:0;"
         offset="1"
         id="stop4" />
    </linearGradient>
    <linearGradient
       inkscape:collect="always"
       xlink:href="#linearGradient3"
       id="linearGradient4"
       x1="13.512321"
       y1="13.490874"
       x2="3.3783066"
       y2="3.3568602"
       gradientUnits="userSpaceOnUse" />
  </defs>
  <metadata
     id="metadata2">
    <rdf:RDF>
      <cc:Work
         rdf:about="">
        <dc:format>image/svg+xml</dc:format>
        <dc:type
           rdf:resource="http://purl.org/dc/dcmitype/StillImage" />
      </cc:Work>
    </rdf:RDF>
  </metadata>
  <ellipse
     style="opacity:1;fill:none;stroke:#000000;stroke-width:0.582072;stroke-dasharray:none;stroke-opacity:1;filter:url(#filter3)"
     id="path1-5"
     cx="8.4450111"
     cy="8.423522"
     rx="6.8752708"
     ry="6.8578653" />
  <ellipse
     style="opacity:1;fill:none;stroke-width:0.58207188;stroke-opacity:1;stroke:currentColor;stroke-dasharray:none;fill-opacity:1"
     id="path1"
     cx="8.4450111"
     cy="8.423522"
     rx="6.8752708"
     ry="6.8578653"
     class="ColorScheme-Text" />
  <ellipse
     style="fill:currentColor;stroke:none;stroke-width:0.285844;stroke-dasharray:none;stroke-opacity:1"
     id="path1-2"
     cx="8.4557552"
     cy="8.423522"
     rx="6.5738997"
     ry="6.5692253"
     class="ColorScheme-Highlight" />
  <path
     id="path5"
     style="opacity:0.3;fill:#000000;fill-opacity:1;stroke-width:0.0426068"
     d="m 5.664507,5.0269844 c -0.615955,0 -1.113031,0.4668033 -1.16195,1.0691644 l 7.927857,0.00367 C 12.383204,5.495715 11.885648,5.026994 11.268465,5.026994 Z M 5.555826,5.444481 h 5.154256 c 0.05266,-7.2e-4 0.101689,0.026917 0.128237,0.072398 0.02654,0.045484 0.02654,0.1017289 0,0.1472095 -0.02655,0.045483 -0.07558,0.073143 -0.128237,0.072398 H 5.555826 c -0.05266,7.2e-4 -0.101605,-0.026917 -0.128153,-0.072398 -0.02655,-0.045483 -0.02655,-0.1017283 0,-0.1472095 0.02655,-0.045483 0.0755,-0.073143 0.128153,-0.072398 z M 4.497813,6.3881549 v 5.2504541 l 3.820464,0.0017 5.78e-4,-0.7948 -0.496885,0.376054 c -0.0055,0.0041 -0.01022,0.0078 -0.01423,0.01082 -0.0042,0.0031 -0.0084,0.0061 -0.01282,0.009 0.0025,-0.0014 0.0046,-0.0028 0.0066,-0.004 -0.0019,0.0013 -0.0042,0.0029 -0.0067,0.0047 -0.01194,0.0084 -0.02452,0.01578 -0.0377,0.02205 0.02335,-0.01097 0.03652,-0.01578 0.03895,-0.01581 h 8.5e-5 l 8.5e-5,8.6e-5 h 8.6e-5 v 8.5e-5 8.5e-5 8.6e-5 c -0.0018,0.0022 -0.02506,0.01363 -0.07057,0.02979 -0.03979,0.01413 -0.08449,0.02054 -0.127987,0.01798 -0.0435,-0.0026 -0.08595,-0.01353 -0.12524,-0.03296 -0.04047,-0.02002 -0.07339,-0.04725 -0.09869,-0.07573 -0.02528,-0.02845 -0.0482,-0.06408 -0.06333,-0.106683 -0.02641,-0.07387 -0.02514,-0.07725 -0.0028,-0.0086 -0.0084,-0.02584 -0.01272,-0.05279 -0.01273,-0.07997 -2e-6,-0.01463 3.38e-4,-0.02723 3.38e-4,-0.03787 l 0.0024,-3.8608329 c 1.37e-4,-0.019706 2.58e-4,-0.040544 4.19e-4,-0.062412 1.58e-4,-0.021789 0.0031,-0.043517 0.0087,-0.064576 0.0059,-0.022306 0.01427,-0.045994 0.02688,-0.071483 0.01299,-0.026261 0.02705,-0.046989 0.03961,-0.063411 0.01444,-0.018861 0.03115,-0.037084 0.05009,-0.053922 0.019,-0.016889 0.03919,-0.031339 0.05958,-0.043439 0.02092,-0.012406 0.0434,-0.023156 0.06724,-0.031622 0.02141,-0.00761 0.04637,-0.014294 0.07423,-0.018305 0.02738,-0.00394 0.05306,-0.00461 0.07781,-0.00317 0.02474,0.00145 0.05076,0.00539 0.07664,0.012317 0.03115,0.00832 0.04706,0.015928 0.04835,0.016894 v 8.5e-5 c -1.33e-4,-2.89e-5 -4.51e-4,-9.33e-5 -8.4e-4,-2.572e-4 0.01852,0.00771 0.0361,0.017528 0.05234,0.029294 0.01654,0.011939 0.03288,0.023494 0.04877,0.03495 l 0.394115,0.2841851 5e-4,-0.6689761 z m 4.116548,0.00184 -6.6e-4,0.8795133 1.108442,0.7992932 h 1.34045 c 0.01909,-7.2e-4 0.03681,0.026917 0.04643,0.072398 0.0096,0.045484 0.0096,0.1017294 0,0.14721 -0.0096,0.045484 -0.02735,0.073143 -0.04643,0.072398 h -0.935518 l 0.966974,0.6972694 c 0.0127,0.00918 0.02569,0.018416 0.03911,0.028128 0.0192,0.0138 0.03643,0.0302 0.05118,0.048684 0.01478,0.018611 0.03812,0.050567 0.05534,0.099027 0.006,0.016878 0.01286,0.038666 0.01681,0.066074 0.0037,0.025833 0.0039,0.049055 0.0026,0.069736 -0.0012,0.020739 -0.0041,0.04375 -0.0109,0.068903 -0.0072,0.026778 -0.01652,0.047839 -0.02447,0.06391 -0.01987,0.04015 -0.04717,0.07588 -0.07997,0.1050194 -0.03629,0.032255 -0.05916,0.044461 -0.06216,0.044356 h -8.5e-5 -8.5e-5 -8.5e-5 v -8.81e-5 h -8.6e-5 v -8.56e-5 -8.49e-5 -8.56e-5 l 8.6e-5,-8.5e-5 c 5.47e-4,-9.42e-4 0.0035,-0.00334 0.0091,-0.00666 -0.02209,0.013078 -0.04603,0.022844 -0.07098,0.028878 -0.01856,0.00455 -0.03625,0.00892 -0.05284,0.012983 -0.285928,0.070074 -0.85769,0.2102044 -0.85769,0.2102044 l 0.730973,1.3554286 c 0.0029,0.0052 0.0056,0.01055 0.0081,0.01598 0.02651,0.05728 0.04962,0.128594 0.03545,0.222438 -0.0076,0.05024 -0.03268,0.104276 -0.0679,0.150705 l 1.61964,7.8e-4 V 6.3918594 Z M 7.674016,6.93922 c -0.0043,1.611e-4 -0.0086,5.555e-4 -0.01282,0.00116 -0.0084,0.00122 -0.01643,0.00334 -0.02422,0.00607 -0.0078,0.00278 -0.0152,0.00632 -0.02222,0.010483 -0.007,0.00416 -0.01364,0.00891 -0.01972,0.014311 -0.0061,0.00539 -0.01159,0.011405 -0.01656,0.017894 -0.005,0.00648 -0.0095,0.0134 -0.01315,0.020806 -0.0037,0.00741 -0.0066,0.015389 -0.0087,0.02355 C 7.556468,7.054233 7.556433,7.075 7.556287,7.09574 l -0.0026,3.858911 c 2e-6,0.01264 -1.6e-4,0.02522 -1.6e-4,0.03786 1.77e-4,5.31e-4 1.44e-4,0.0012 3.38e-4,0.0017 0.0029,0.0082 0.0075,0.01549 0.01315,0.02189 0.0057,0.0064 0.01243,0.01187 0.02022,0.01573 0.0078,0.0038 0.01658,0.0062 0.0258,0.0067 0.0092,5.48e-4 0.01802,-8.4e-4 0.02621,-0.0037 0.0021,-7.8e-4 0.0037,-0.0025 0.0056,-0.0034 0.0025,-0.0017 0.005,-0.0044 0.0075,-0.0056 0.0047,-0.0035 0.0095,-0.0071 0.01423,-0.01065 l 1.030047,-0.779597 0.880929,1.650015 c 0.03733,0.04914 0.08631,0.06941 0.145213,0.03936 l 0.862704,-0.415749 c 0.0515,-0.02705 0.05175,-0.081 0.02796,-0.132397 L 9.724306,9.7249892 10.905229,9.4356458 c 0.01757,-0.00428 0.03511,-0.00851 0.05268,-0.012817 0.0047,-0.00283 0.01004,-0.00478 0.01415,-0.00841 0.0083,-0.00739 0.0152,-0.016333 0.02022,-0.026461 0.0025,-0.00506 0.0047,-0.010394 0.0062,-0.015978 0.0015,-0.00559 0.0023,-0.011483 0.0026,-0.017472 3.37e-4,-0.00599 2.57e-4,-0.011922 -5.56e-4,-0.017644 -8.4e-4,-0.00572 -0.0023,-0.011233 -0.0042,-0.016561 -0.0032,-0.00911 -0.0086,-0.017089 -0.01448,-0.02455 -0.01305,-0.00944 -0.02614,-0.01885 -0.03919,-0.028294 L 7.776429,6.984506 c -0.01622,-0.0117 -0.03238,-0.023417 -0.0486,-0.035117 -0.005,-0.00211 -0.01002,-0.00455 -0.0154,-0.00599 -0.0082,-0.00217 -0.01654,-0.0035 -0.0253,-0.004 -0.0044,-2.572e-4 -0.0087,-3.216e-4 -0.01306,-1.605e-4 z M 4.982548,7.0866794 c 5.95e-4,-3.22e-5 0.0011,-2.33e-5 0.0017,0 H 6.85229 c 0.01909,-7.2e-4 0.03682,0.026917 0.04643,0.072398 0.0096,0.045484 0.0096,0.1017289 0,0.14721 -0.0096,0.045484 -0.02735,0.073143 -0.04643,0.072398 H 4.984244 c -0.01909,7.2e-4 -0.03682,-0.026917 -0.04643,-0.072398 -0.0096,-0.045483 -0.0096,-0.1017289 0,-0.14721 0.0093,-0.044061 0.02629,-0.071409 0.04469,-0.072398 z m 4.210166,0 c 5.95e-4,-3.22e-5 0.0013,-2.33e-5 0.0019,0 h 1.868041 c 0.01909,-7.2e-4 0.03681,0.026917 0.04643,0.072398 0.0096,0.045484 0.0096,0.1017289 0,0.14721 -0.0096,0.045484 -0.02735,0.073143 -0.04643,0.072398 H 9.194611 c -0.01909,7.2e-4 -0.0369,-0.026917 -0.04652,-0.072398 -0.0096,-0.045483 -0.0096,-0.1017289 0,-0.14721 0.0093,-0.044061 0.02629,-0.071409 0.04469,-0.072398 z M 4.982548,8.0687988 c 5.95e-4,-3.17e-5 0.0011,-2.33e-5 0.0017,0 H 6.85229 c 0.01909,-7.2e-4 0.03682,0.026917 0.04643,0.072398 0.0096,0.045484 0.0096,0.1017289 0,0.14721 -0.0096,0.045484 -0.02735,0.073143 -0.04643,0.072398 H 4.984244 c -0.01909,7.2e-4 -0.03682,-0.026917 -0.04643,-0.072398 -0.0096,-0.045483 -0.0096,-0.1017294 0,-0.14721 0.0093,-0.044061 0.02629,-0.071409 0.04469,-0.072398 z m 0,0.9820366 c 5.95e-4,-3.22e-5 0.0011,-2.33e-5 0.0017,0 H 6.85229 c 0.01909,-7.2e-4 0.03682,0.026917 0.04643,0.072398 0.0096,0.045484 0.0096,0.1017288 0,0.1472094 -0.0096,0.045484 -0.02735,0.073143 -0.04643,0.072398 H 4.984244 c -0.01909,7.2e-4 -0.03682,-0.026917 -0.04643,-0.072398 -0.0096,-0.045483 -0.0096,-0.1017289 0,-0.1472094 0.0093,-0.044061 0.02629,-0.07141 0.04469,-0.072398 z m 0,0.9821196 c 5.95e-4,-3.2e-5 0.0011,-2.3e-5 0.0017,0 H 6.85229 c 0.01909,-7.2e-4 0.03682,0.02692 0.04643,0.0724 0.0096,0.04549 0.0096,0.101729 0,0.14721 -0.0096,0.04549 -0.02735,0.07314 -0.04643,0.0724 H 4.984244 c -0.01909,7.2e-4 -0.03682,-0.02692 -0.04643,-0.0724 -0.0096,-0.04548 -0.0096,-0.101729 0,-0.14721 0.0093,-0.04406 0.02629,-0.07141 0.04469,-0.0724 z m 3.628734,0.591336 -2.58e-4,1.71e-4 -7.8e-4,1.015905 0.543736,2.58e-4 z m -4.105813,1.306331 c 0.0651,0.585191 0.555169,1.033713 1.159038,1.033713 h 5.603958 c 0.602586,0 1.091523,-0.446683 1.158288,-1.030052 l -2.126012,-0.001 c -0.15214,0.07318 -0.303815,0.146164 -0.460437,0.221771 -0.07623,0.03889 -0.183321,0.05468 -0.274114,0.0268 -0.09079,-0.02788 -0.153079,-0.08561 -0.194311,-0.139887 -0.0086,-0.01135 -0.01621,-0.02344 -0.0228,-0.03604 l -0.03903,-0.07306 z m 1.253572,0.03628 c 0.03441,-0.0016 0.06826,0.009 0.09562,0.02996 l 0.430062,0.320466 c 0.0359,0.02683 0.05743,0.0687 0.0585,0.113507 0.0011,0.0448 -0.01852,0.08757 -0.05309,0.116088 L 5.875466,12.88969 c -0.0622,0.05141 -0.154222,0.04264 -0.205627,-0.01955 -0.05142,-0.06219 -0.04273,-0.154304 0.01946,-0.205711 L 5.960918,12.440317 5.680229,12.230779 c -0.05008,-0.03645 -0.07174,-0.100518 -0.05401,-0.15986 0.01773,-0.05934 0.07095,-0.101013 0.132813,-0.10402 z" />
  <path
     id="path5-7"
     class="ColorScheme-Text"
     style="fill:currentColor;fill-opacity:1;stroke-width:0.0426068"
     d="m 5.664507,4.497845 c -0.615955,0 -1.113031,0.466803 -1.16195,1.069164 l 7.927857,0.0037 C 12.383204,4.966605 11.885648,4.497884 11.268465,4.497884 Z M 5.555826,4.915341 h 5.154256 c 0.05266,-7.2e-4 0.101689,0.02692 0.128237,0.0724 0.02654,0.04548 0.02654,0.101729 0,0.14721 -0.02655,0.04548 -0.07558,0.07314 -0.128237,0.0724 H 5.555826 c -0.05266,7.2e-4 -0.101605,-0.02692 -0.128153,-0.0724 -0.02655,-0.04548 -0.02655,-0.101729 0,-0.14721 0.02655,-0.04548 0.0755,-0.07314 0.128153,-0.0724 z M 4.497813,5.859015 v 5.250453 l 3.820464,0.0017 5.78e-4,-0.7948 -0.496885,0.376055 c -0.0055,0.0041 -0.01022,0.0078 -0.01423,0.01082 -0.0042,0.0031 -0.0084,0.0061 -0.01282,0.009 0.0025,-0.0014 0.0046,-0.0028 0.0066,-0.004 -0.0019,0.0013 -0.0042,0.0029 -0.0067,0.0047 -0.01194,0.0084 -0.02452,0.01578 -0.0377,0.02205 0.02335,-0.01097 0.03652,-0.01578 0.03895,-0.01581 h 8.5e-5 l 8.5e-5,8.6e-5 h 8.6e-5 v 8.5e-5 8.4e-5 8.6e-5 c -0.0018,0.0022 -0.02506,0.01363 -0.07057,0.02979 -0.03979,0.01413 -0.08449,0.02054 -0.127987,0.01798 -0.0435,-0.0026 -0.08595,-0.01353 -0.12524,-0.03296 -0.04047,-0.02002 -0.07339,-0.04725 -0.09869,-0.07573 -0.02528,-0.02845 -0.0482,-0.06408 -0.06333,-0.106683 -0.02641,-0.07387 -0.02514,-0.07725 -0.0028,-0.0086 -0.0084,-0.02584 -0.01272,-0.05279 -0.01273,-0.07997 -2e-6,-0.01463 3.38e-4,-0.02723 3.38e-4,-0.03787 l 0.0024,-3.860832 c 1.37e-4,-0.01971 2.58e-4,-0.04054 4.19e-4,-0.06241 1.58e-4,-0.02179 0.0031,-0.04352 0.0087,-0.06458 0.0059,-0.02231 0.01427,-0.04599 0.02688,-0.07148 0.01299,-0.02626 0.02705,-0.04699 0.03961,-0.06341 0.01444,-0.01886 0.03115,-0.03708 0.05009,-0.05392 0.019,-0.01689 0.03919,-0.03134 0.05958,-0.04344 0.02092,-0.01241 0.0434,-0.02316 0.06724,-0.03162 0.02141,-0.0076 0.04637,-0.01429 0.07423,-0.0183 0.02738,-0.0039 0.05306,-0.0046 0.07781,-0.0032 0.02474,0.0014 0.05076,0.0054 0.07664,0.01232 0.03115,0.0083 0.04706,0.01593 0.04835,0.01689 v 8.5e-5 c -1.33e-4,-2.9e-5 -4.51e-4,-9.3e-5 -8.4e-4,-2.57e-4 0.01852,0.0077 0.0361,0.01753 0.05234,0.02929 0.01654,0.01194 0.03288,0.02349 0.04877,0.03495 l 0.394115,0.284185 5e-4,-0.668976 z m 4.116548,0.0018 -6.6e-4,0.879513 1.108442,0.799293 h 1.34045 c 0.01909,-7.2e-4 0.03681,0.02692 0.04643,0.0724 0.0096,0.04548 0.0096,0.10173 0,0.14721 -0.0096,0.04548 -0.02735,0.07314 -0.04643,0.0724 h -0.935518 l 0.966974,0.69727 c 0.0127,0.0092 0.02569,0.01842 0.03911,0.02813 0.0192,0.0138 0.03643,0.0302 0.05118,0.04868 0.01478,0.01861 0.03812,0.05057 0.05534,0.09903 0.006,0.01688 0.01286,0.03867 0.01681,0.06607 0.0037,0.02583 0.0039,0.04906 0.0026,0.06974 -0.0012,0.02074 -0.0041,0.04375 -0.0109,0.0689 -0.0072,0.02678 -0.01652,0.04784 -0.02447,0.06391 -0.01987,0.04015 -0.04717,0.07588 -0.07997,0.105019 -0.03629,0.03226 -0.05916,0.04446 -0.06216,0.04436 h -8.5e-5 -8.5e-5 -8.5e-5 v -8.8e-5 h -8.6e-5 v -8.5e-5 -8.5e-5 -8.6e-5 l 8.6e-5,-8.5e-5 c 5.47e-4,-9.42e-4 0.0035,-0.0033 0.0091,-0.0067 -0.02209,0.01308 -0.04603,0.02284 -0.07098,0.02888 -0.01856,0.0046 -0.03625,0.0089 -0.05284,0.01298 -0.285928,0.07007 -0.85769,0.210204 -0.85769,0.210204 l 0.730973,1.355429 c 0.0029,0.0052 0.0056,0.01055 0.0081,0.01598 0.02651,0.05728 0.04962,0.128594 0.03545,0.222437 -0.0076,0.05024 -0.03268,0.104276 -0.0679,0.150705 l 1.61964,7.8e-4 V 5.862646 Z M 7.674016,6.41004 c -0.0043,1.61e-4 -0.0086,5.56e-4 -0.01282,0.0012 -0.0084,0.0012 -0.01643,0.0033 -0.02422,0.0061 -0.0078,0.0028 -0.0152,0.0063 -0.02222,0.01048 -0.007,0.0042 -0.01364,0.0089 -0.01972,0.01431 -0.0061,0.0054 -0.01159,0.0114 -0.01656,0.01789 -0.005,0.0065 -0.0095,0.0134 -0.01315,0.02081 -0.0037,0.0074 -0.0066,0.01539 -0.0087,0.02355 -1.58e-4,0.02074 -1.93e-4,0.04151 -3.39e-4,0.06225 l -0.0026,3.858911 c 2e-6,0.01264 -1.6e-4,0.02522 -1.6e-4,0.03786 1.77e-4,5.32e-4 1.44e-4,0.0012 3.38e-4,0.0017 0.0029,0.0082 0.0075,0.01549 0.01315,0.02189 0.0057,0.0064 0.01243,0.01187 0.02022,0.01573 0.0078,0.0038 0.01658,0.0062 0.0258,0.0067 0.0092,5.48e-4 0.01802,-8.4e-4 0.02621,-0.0037 0.0021,-7.8e-4 0.0037,-0.0025 0.0056,-0.0034 0.0025,-0.0017 0.005,-0.0044 0.0075,-0.0056 0.0047,-0.0035 0.0095,-0.0071 0.01423,-0.01065 l 1.030047,-0.779649 0.880929,1.650014 c 0.03733,0.04914 0.08631,0.06941 0.145213,0.03936 l 0.862704,-0.415749 c 0.0515,-0.02705 0.05175,-0.081 0.02796,-0.132397 L 9.724306,9.195826 10.905229,8.906483 c 0.01757,-0.0043 0.03511,-0.0085 0.05268,-0.01282 0.0047,-0.0028 0.01004,-0.0048 0.01415,-0.0084 0.0083,-0.0074 0.0152,-0.01633 0.02022,-0.02646 0.0025,-0.0051 0.0047,-0.01039 0.0062,-0.01598 0.0015,-0.0056 0.0023,-0.01148 0.0026,-0.01747 3.37e-4,-0.006 2.57e-4,-0.01192 -5.56e-4,-0.01764 -8.4e-4,-0.0057 -0.0023,-0.01123 -0.0042,-0.01656 -0.0032,-0.0091 -0.0086,-0.01709 -0.01448,-0.02455 -0.01305,-0.0094 -0.02614,-0.01885 -0.03919,-0.02829 L 7.776429,6.455366 c -0.01622,-0.0117 -0.03238,-0.02342 -0.0486,-0.03512 -0.005,-0.0021 -0.01002,-0.0046 -0.0154,-0.006 -0.0082,-0.0022 -0.01654,-0.0035 -0.0253,-0.004 -0.0044,-2.57e-4 -0.0087,-3.22e-4 -0.01306,-1.6e-4 z M 4.982548,6.557499 c 5.95e-4,-3.2e-5 0.0011,-2.3e-5 0.0017,0 H 6.85229 c 0.01909,-7.19e-4 0.03682,0.02692 0.04643,0.0724 0.0096,0.04548 0.0096,0.101729 0,0.147211 -0.0096,0.04548 -0.02735,0.07314 -0.04643,0.0724 H 4.984244 c -0.01909,7.2e-4 -0.03682,-0.02692 -0.04643,-0.0724 -0.0096,-0.04548 -0.0096,-0.101729 0,-0.147211 0.0093,-0.04406 0.02629,-0.07141 0.04469,-0.0724 z m 4.210166,0 c 5.95e-4,-3.2e-5 0.0013,-2.3e-5 0.0019,0 h 1.868041 c 0.01909,-7.19e-4 0.03681,0.02692 0.04643,0.0724 0.0096,0.04548 0.0096,0.101729 0,0.147211 -0.0096,0.04548 -0.02735,0.07314 -0.04643,0.0724 H 9.194611 c -0.01909,7.2e-4 -0.0369,-0.02692 -0.04652,-0.0724 -0.0096,-0.04548 -0.0096,-0.101729 0,-0.147211 0.0093,-0.04406 0.02629,-0.07141 0.04469,-0.0724 z m -4.210166,0.98212 c 5.95e-4,-3.2e-5 0.0011,-2.3e-5 0.0017,0 H 6.85229 c 0.01909,-7.2e-4 0.03682,0.02692 0.04643,0.0724 0.0096,0.04548 0.0096,0.101729 0,0.14721 -0.0096,0.04548 -0.02735,0.07314 -0.04643,0.0724 H 4.984244 c -0.01909,7.2e-4 -0.03682,-0.02692 -0.04643,-0.0724 -0.0096,-0.04548 -0.0096,-0.10173 0,-0.14721 0.0093,-0.04406 0.02629,-0.07141 0.04469,-0.0724 z m 0,0.982036 c 5.95e-4,-3.2e-5 0.0011,-2.3e-5 0.0017,0 H 6.85229 c 0.01909,-7.2e-4 0.03682,0.02692 0.04643,0.0724 0.0096,0.04548 0.0096,0.101729 0,0.14721 -0.0096,0.04548 -0.02735,0.07314 -0.04643,0.0724 H 4.984244 c -0.01909,7.2e-4 -0.03682,-0.02692 -0.04643,-0.0724 -0.0096,-0.04548 -0.0096,-0.101729 0,-0.14721 0.0093,-0.04406 0.02629,-0.07141 0.04469,-0.0724 z m 0,0.98212 c 5.95e-4,-3.2e-5 0.0011,-2.3e-5 0.0017,0 H 6.85229 c 0.01909,-7.2e-4 0.03682,0.02692 0.04643,0.0724 0.0096,0.04549 0.0096,0.101729 0,0.14721 -0.0096,0.04549 -0.02735,0.07314 -0.04643,0.0724 H 4.984244 c -0.01909,7.2e-4 -0.03682,-0.02692 -0.04643,-0.0724 -0.0096,-0.04548 -0.0096,-0.101729 0,-0.14721 0.0093,-0.04406 0.02629,-0.07141 0.04469,-0.0724 z m 3.628734,0.591335 -2.58e-4,1.71e-4 -7.8e-4,1.015906 0.543736,2.57e-4 z m -4.105813,1.306332 c 0.0651,0.585191 0.555169,1.033713 1.159038,1.033713 h 5.603958 c 0.602586,0 1.091523,-0.446684 1.158288,-1.030053 l -2.126012,-10e-4 c -0.15214,0.07318 -0.303815,0.146165 -0.460437,0.221771 -0.07623,0.03889 -0.183321,0.05468 -0.274114,0.0268 -0.09079,-0.02788 -0.153079,-0.08561 -0.194311,-0.139886 -0.0086,-0.01135 -0.01621,-0.02344 -0.0228,-0.03604 l -0.03903,-0.07306 z m 1.253572,0.03628 c 0.03441,-0.0016 0.06826,0.009 0.09562,0.02996 l 0.430062,0.320466 c 0.0359,0.02683 0.05743,0.06871 0.0585,0.113507 0.0011,0.0448 -0.01852,0.08757 -0.05309,0.116087 L 5.875466,12.36051 c -0.0622,0.05141 -0.154222,0.04264 -0.205627,-0.01955 -0.05142,-0.06219 -0.04273,-0.154305 0.01946,-0.205711 L 5.960918,11.911141 5.680229,11.701602 c -0.05008,-0.03645 -0.07174,-0.100518 -0.05401,-0.159859 0.01773,-0.05934 0.07095,-0.101013 0.132813,-0.10402 z" />
  <path
     id="gradient-path1"
     style="opacity:0.3;baseline-shift:baseline;display:inline;overflow:visible;vector-effect:none;enable-background:accumulate;stop-color:#000000;stop-opacity:1;fill:url(#linearGradient4)"
     d="M 8.4453131 1.2753492 C 4.4913166 1.2753492 1.2794833 4.4784283 1.2794833 8.4236094 C 1.2794833 12.36879 4.4913166 15.572386 8.4453131 15.572386 C 12.39931 15.572386 15.611143 12.36879 15.611143 8.4236094 C 15.611143 4.4784283 12.39931 1.2753492 8.4453131 1.2753492 z " />
</svg>
