<?xml version='1.0' encoding='UTF-8'?>
<svg xmlns:inkscape="http://www.inkscape.org/namespaces/inkscape" xmlns:sodipodi="http://sodipodi.sourceforge.net/DTD/sodipodi-0.dtd" xmlns="http://www.w3.org/2000/svg" xmlns:svg="http://www.w3.org/2000/svg" xmlns:rdf="http://www.w3.org/1999/02/22-rdf-syntax-ns#" xmlns:cc="http://creativecommons.org/ns#" xmlns:dc="http://purl.org/dc/elements/1.1/" width="64" height="64" version="1.1" viewBox="0 0 16.933 16.933" id="svg7" sodipodi:docname="ksnapshot.svg" inkscape:version="1.4.2 (ebf0e940d0, 2025-05-08)">
  <sodipodi:namedview id="namedview7" pagecolor="#9c4444" bordercolor="#000000" borderopacity="0.25" inkscape:showpageshadow="2" inkscape:pageopacity="0.0" inkscape:pagecheckerboard="0" inkscape:deskcolor="#d1d1d1" inkscape:zoom="4.3531261" inkscape:cx="36.066035" inkscape:cy="26.073217" inkscape:window-width="1280" inkscape:window-height="669" inkscape:window-x="0" inkscape:window-y="0" inkscape:window-maximized="0" inkscape:current-layer="svg7" showgrid="false"/>
  <defs id="defs2">
    <filter style="color-interpolation-filters:sRGB;" inkscape:label="Blur" id="filter3" x="-0.10843471" y="-0.10870992" width="1.2168694" height="1.2174198">
      <feGaussianBlur stdDeviation="0.5 0.5" result="blur" id="feGaussianBlur3"/>
    </filter>
    <style id="current-color-scheme" type="text/css">.ColorScheme-Text {color:#d8dee9} .ColorScheme-Highlight {color:#3b4252}</style>
  <linearGradient id="linearGradient3" inkscape:collect="always">
      <stop style="stop-color:#000000;stop-opacity:1;" offset="0" id="stop3"/>
      <stop style="stop-color:#000000;stop-opacity:0;" offset="1" id="stop4"/>
    </linearGradient>
    <linearGradient xmlns:xlink="http://www.w3.org/1999/xlink" inkscape:collect="always" xlink:href="#linearGradient3" id="linearGradient4" x1="13.512321" y1="13.490874" x2="3.3783066" y2="3.3568602" gradientUnits="userSpaceOnUse"/>
  </defs>
  <metadata id="metadata2">
    <rdf:RDF>
      <cc:Work rdf:about="">
        <dc:format>image/svg+xml</dc:format>
        <dc:type rdf:resource="http://purl.org/dc/dcmitype/StillImage"/>
      </cc:Work>
    </rdf:RDF>
  </metadata>
  <ellipse style="opacity:1;fill:none;stroke:#000000;stroke-width:0.582072;stroke-dasharray:none;stroke-opacity:1;filter:url(#filter3)" id="path1-5" cx="8.4450111" cy="8.423522" rx="6.8752708" ry="6.8578653"/>
  <ellipse style="opacity:1;fill:none;stroke-width:0.58207188;stroke-opacity:1;stroke:currentColor;stroke-dasharray:none;fill-opacity:1" id="path1" cx="8.4450111" cy="8.423522" rx="6.8752708" ry="6.8578653" class="ColorScheme-Text"/>
  <ellipse style="fill:currentColor;stroke:none;stroke-width:0.285844;stroke-dasharray:none;stroke-opacity:1" id="path1-2" cx="8.4557552" cy="8.423522" rx="6.5738997" ry="6.5692253" class="ColorScheme-Highlight"/>
<path id="path2-9-3" style="fill:#000000;fill-opacity:1;stroke:none;stroke-width:0.21379;stroke-dasharray:none;stroke-opacity:0.6;opacity:0.3" d="M 2.0002815 -0.00041273426 C 0.80028148 -0.00041273426 0.00012783797 0.79774091 0.00012783797 1.9997409 L 0.00012783797 11.874497 C 0.00012783797 13.076497 0.80028148 13.999517 2.0002815 13.999517 L 2.0002815 2.2494737 C 2.0002815 2.1254737 2.0561539 1.9997409 2.1881539 1.9997409 L 13.812185 1.9997409 C 13.943185 1.9997409 14.000058 2.1254737 14.000058 2.2494737 L 14.000058 6.0000482 L 16.000211 6.0000482 L 16.000211 1.9997409 C 16.000211 0.79774091 15.200058 -0.00041273426 14.000058 -0.00041273426 L 2.0002815 -0.00041273426 z M 7.2503984 6.0000482 C 6.7793984 6.0000482 6.5070544 6.542125 6.5000544 7.000125 L 6.5000544 8.0002018 L 4.0004351 8.0002018 C 3.5314351 8.0652018 3.0003583 8.5422787 3.0003583 9.0002787 L 3.0003583 14.999594 C 3.0003583 15.457594 3.5274351 15.999671 4.0004351 15.999671 L 14.000058 15.999671 C 14.473058 15.999671 15.000135 15.457594 15.000135 14.999594 L 15.000135 9.0002787 C 15.000135 8.5422787 14.473058 8.0002018 14.000058 8.0002018 L 11.500438 8.0002018 L 11.500438 7.000125 C 11.500438 6.542125 11.159089 6.0000482 10.687089 6.0000482 L 7.2503984 6.0000482 z M 8.9996737 9.0002787 A 3 3 0 0 1 8.9996737 14.999594 A 3 3 0 0 1 8.9996737 9.0002787 z M 8.9996737 10.000355 A 2 2 0 0 0 6.99952 12.000509 A 2 2 0 0 0 8.9996737 13.999517 A 2 2 0 0 0 10.999827 12.000509 A 2 2 0 0 0 8.9996737 10.000355 z " transform="matrix(0.45109171,0,0,0.45109171,4.8951544,5.3501419)"/>
  <path id="path2-9" style="opacity:1;fill:currentColor;fill-opacity:1;stroke:none;stroke-width:0.21379;stroke-dasharray:none;stroke-opacity:0.6" class="ColorScheme-Text" d="M 2.0002815 -0.0004128451 C 0.80028148 -0.0004128451 0.00012783797 0.7977408 0.00012783797 1.9997408 L 0.00012783797 11.874497 C 0.00012783797 13.076497 0.80028148 13.999517 2.0002815 13.999517 L 2.0002815 2.2494736 C 2.0002815 2.1254736 2.0561539 1.9997408 2.1881539 1.9997408 L 13.812185 1.9997408 C 13.943185 1.9997408 14.000058 2.1254736 14.000058 2.2494736 L 14.000058 6.0000481 L 16.000211 6.0000481 L 16.000211 1.9997408 C 16.000211 0.7977408 15.200058 -0.0004128451 14.000058 -0.0004128451 L 2.0002815 -0.0004128451 z M 7.2503984 6.0000481 C 6.7793984 6.0000481 6.5070544 6.5421249 6.5000544 7.0001249 L 6.5000544 8.0002017 L 4.0004351 8.0002017 C 3.5314351 8.0652017 3.0003583 8.5422785 3.0003583 9.0002785 L 3.0003583 14.999594 C 3.0003583 15.457594 3.5274351 15.999671 4.0004351 15.999671 L 14.000058 15.999671 C 14.473058 15.999671 15.000135 15.457594 15.000135 14.999594 L 15.000135 9.0002785 C 15.000135 8.5422785 14.473058 8.0002017 14.000058 8.0002017 L 11.500438 8.0002017 L 11.500438 7.0001249 C 11.500438 6.5421249 11.159089 6.0000481 10.687089 6.0000481 L 7.2503984 6.0000481 z M 8.9996737 9.0002785 A 3 3 0 0 1 8.9996737 14.999594 A 3 3 0 0 1 8.9996737 9.0002785 z M 8.9996737 10.000355 A 2 2 0 0 0 6.99952 12.000509 A 2 2 0 0 0 8.9996737 13.999517 A 2 2 0 0 0 10.999827 12.000509 A 2 2 0 0 0 8.9996737 10.000355 z " transform="matrix(0.45109171,0,0,0.45109171,4.8951544,4.8209857)"/>
<path id="gradient-path1" style="opacity:0.3;baseline-shift:baseline;display:inline;overflow:visible;vector-effect:none;enable-background:accumulate;stop-color:#000000;stop-opacity:1;fill:url(#linearGradient4)" d="M 8.4453131 1.2753492 C 4.4913166 1.2753492 1.2794833 4.4784283 1.2794833 8.4236094 C 1.2794833 12.36879 4.4913166 15.572386 8.4453131 15.572386 C 12.39931 15.572386 15.611143 12.36879 15.611143 8.4236094 C 15.611143 4.4784283 12.39931 1.2753492 8.4453131 1.2753492 z "/>
</svg>
