<?xml version="1.0" encoding="UTF-8" standalone="no"?>
<svg
   width="64"
   height="64"
   version="1.1"
   viewBox="0 0 16.933 16.933"
   id="svg7"
   sodipodi:docname="ktorrent.svg"
   inkscape:version="1.4.2 (ebf0e940d0, 2025-05-08)"
   xmlns:inkscape="http://www.inkscape.org/namespaces/inkscape"
   xmlns:sodipodi="http://sodipodi.sourceforge.net/DTD/sodipodi-0.dtd"
   xmlns:xlink="http://www.w3.org/1999/xlink"
   xmlns="http://www.w3.org/2000/svg"
   xmlns:svg="http://www.w3.org/2000/svg"
   xmlns:rdf="http://www.w3.org/1999/02/22-rdf-syntax-ns#"
   xmlns:cc="http://creativecommons.org/ns#"
   xmlns:dc="http://purl.org/dc/elements/1.1/">
  <sodipodi:namedview
     id="namedview7"
     pagecolor="#9c4444"
     bordercolor="#000000"
     borderopacity="0.25"
     inkscape:showpageshadow="2"
     inkscape:pageopacity="0.0"
     inkscape:pagecheckerboard="0"
     inkscape:deskcolor="#d1d1d1"
     inkscape:zoom="4.3531261"
     inkscape:cx="36.066035"
     inkscape:cy="25.958357"
     inkscape:window-width="2560"
     inkscape:window-height="1376"
     inkscape:window-x="0"
     inkscape:window-y="0"
     inkscape:window-maximized="1"
     inkscape:current-layer="svg7"
     showgrid="false" />
  <defs
     id="defs2">
    <filter
       style="color-interpolation-filters:sRGB;"
       inkscape:label="Blur"
       id="filter3"
       x="-0.10843471"
       y="-0.10870992"
       width="1.2168694"
       height="1.2174198">
      <feGaussianBlur
         stdDeviation="0.5 0.5"
         result="blur"
         id="feGaussianBlur3" />
    </filter>
    <style
       id="current-color-scheme"
       type="text/css">.ColorScheme-Text {color:#d8dee9} .ColorScheme-Highlight {color:#3b4252}</style>
    <linearGradient
       id="linearGradient3"
       inkscape:collect="always">
      <stop
         style="stop-color:#000000;stop-opacity:1;"
         offset="0"
         id="stop3" />
      <stop
         style="stop-color:#000000;stop-opacity:0;"
         offset="1"
         id="stop4" />
    </linearGradient>
    <linearGradient
       inkscape:collect="always"
       xlink:href="#linearGradient3"
       id="linearGradient4"
       x1="13.512321"
       y1="13.490874"
       x2="3.3783066"
       y2="3.3568602"
       gradientUnits="userSpaceOnUse" />
  </defs>
  <metadata
     id="metadata2">
    <rdf:RDF>
      <cc:Work
         rdf:about="">
        <dc:format>image/svg+xml</dc:format>
        <dc:type
           rdf:resource="http://purl.org/dc/dcmitype/StillImage" />
      </cc:Work>
    </rdf:RDF>
  </metadata>
  <ellipse
     style="opacity:1;fill:none;stroke:#000000;stroke-width:0.582072;stroke-dasharray:none;stroke-opacity:1;filter:url(#filter3)"
     id="path1-5"
     cx="8.4450111"
     cy="8.423522"
     rx="6.8752708"
     ry="6.8578653" />
  <ellipse
     style="opacity:1;fill:none;stroke-width:0.58207188;stroke-opacity:1;stroke:currentColor;stroke-dasharray:none;fill-opacity:1"
     id="path1"
     cx="8.4450111"
     cy="8.423522"
     rx="6.8752708"
     ry="6.8578653"
     class="ColorScheme-Text" />
  <ellipse
     style="fill:currentColor;stroke:none;stroke-width:0.285844;stroke-dasharray:none;stroke-opacity:1"
     id="path1-2"
     cx="8.4557552"
     cy="8.423522"
     rx="6.5738997"
     ry="6.5692253"
     class="ColorScheme-Highlight" />
  <path
     id="path6"
     d="m 6.9662345,5.0911963 v 2.9892936 h 8.34e-4 c 0.109948,0 0.198791,0.089234 0.198791,0.1991863 0,0.1099486 -0.08884,0.1987923 -0.198791,0.1987923 h -8.34e-4 v 0.8869856 c 0.07343,-0.025998 0.145629,-0.02189 0.214353,0.032288 0.203963,0.1605409 0.499177,0.045267 0.26454,-0.1680595 -0.234637,-0.213322 -0.334329,-0.48031 -0.244696,-0.5528123 0.08963,-0.072502 0.377599,0.2201151 0.458663,0.4890111 0.08107,0.268896 0.44288,0.172106 0.485506,0.082474 0.04283,-0.089632 -0.07998,-0.082998 -0.02021,-0.2349762 0.05975,-0.1519739 0.287787,-0.212106 0.383193,-0.017109 0.09521,0.1949972 -0.06309,0.1880657 0.02218,0.2392533 0.08525,0.051192 0.210157,0.047548 0.380858,-0.080528 0.170697,-0.127875 0.08233,-0.4685688 0.154833,-0.6434507 0.06334,-0.1531733 0.192259,-0.3748023 0.321728,-0.384363 0.01832,-0.00126 0.03653,0.0021 0.05485,0.010106 0.146598,0.064535 0.03246,0.4762593 -0.04009,0.6469565 -0.0725,0.1707012 -0.267332,0.3149677 -0.03267,0.3874701 0.234834,0.072502 0.419616,-0.095331 0.492119,-0.069634 0.07147,0.025327 0.126314,0.4424193 0.2913835,0.5197398 V 8.8176987 c -0.01707,0.010441 -0.03501,0.012035 -0.05486,0.00293 -0.08087,-0.037447 0.01204,-0.2298186 0.03694,-0.4166514 0.0051,-0.037614 0.01098,-0.075723 0.01791,-0.1124269 V 5.0910123 Z m 1.892625,1.9926067 c 0.164923,0 0.298773,0.1342363 0.298773,0.2991591 0,0.1649229 -0.13385,0.2987775 -0.298773,0.2987775 -0.164923,0 -0.297997,-0.1338546 -0.297997,-0.2987775 0,-0.1649228 0.133075,-0.2991591 0.297997,-0.2991591 z m 0.0062,0.117874 c -0.102749,0 -0.184012,0.081262 -0.184012,0.1840108 0,0.1027487 0.08126,0.1840108 0.184012,0.1840108 0.102745,0 0.184011,-0.081262 0.184011,-0.1840108 0,-0.1027486 -0.08127,-0.1840108 -0.184011,-0.1840108 z m -3.585284,0.5975466 c -0.102749,0 -0.184011,0.081266 -0.184011,0.1840108 0,0.1027486 0.08126,0.1840108 0.184011,0.1840108 0.102744,0 0.184011,-0.081262 0.184011,-0.1840108 0,-0.1027445 -0.08127,-0.1840108 -0.184011,-0.1840108 z m 2.357123,0.100371 h 8.33e-4 c 0.09022,0.00168 0.197026,0.095096 0.305389,0.3423419 0.132455,0.3021614 0.158361,0.5832851 0.05758,0.6275035 -0.100786,0.044218 -0.290218,-0.1654512 -0.422874,-0.4676127 -0.132459,-0.3021573 -0.09824,-0.4455643 0.0025,-0.4897827 0.01254,-0.00558 0.02591,-0.010064 0.03929,-0.011658 v 8.333e-4 c 0.0056,-8.333e-4 0.01136,-0.00168 0.01711,-0.00168 z m 3.8171435,0.099591 c -0.102745,0 -0.184011,0.081262 -0.184011,0.1840109 0,0.1027444 0.08127,0.1840108 0.184011,0.1840108 0.102748,0 0.184011,-0.081266 0.184011,-0.1840108 0,-0.1027487 -0.08126,-0.1840109 -0.184011,-0.1840109 z m -3.8132525,0.018661 -0.0054,8.334e-4 c -4.2e-4,2.013e-4 -0.0013,8.333e-4 -0.0025,0.00126 -0.0069,0.00293 -0.0078,0.00377 -0.0109,0.00855 -0.0029,0.00494 -0.0083,0.016522 -0.0097,0.04122 -0.0029,0.049423 0.01493,0.14742 0.07703,0.289049 0.06216,0.1415829 0.138362,0.2613356 0.203074,0.3330076 0.02184,0.024195 0.04264,0.042772 0.05874,0.054853 0.0021,-0.020002 0.0025,-0.047716 -3.9e-4,-0.080143 -0.0088,-0.096022 -0.04529,-0.2330137 -0.10737,-0.3746302 C 7.7822635,8.1524231 7.7232055,8.0732617 7.6846485,8.040923 7.6599885,8.02025 7.6476285,8.018154 7.6422385,8.017986 h -3.9e-4 -3.9e-4 -3.9e-4 z m 2.6660095,0.1668938 c -0.01971,0.050588 -0.03946,0.1451597 -0.05175,0.2373077 -0.0013,0.010064 -0.0034,0.02126 -0.0054,0.033043 0.02243,-0.033421 0.04694,-0.0642 0.07275,-0.087531 0.01488,-0.01346 0.02441,-0.040675 0.01866,-0.085975 -0.0042,-0.033714 -0.01908,-0.071697 -0.03422,-0.096865 z m -3.3343605,0.013209 c -0.04777,0 -0.08442,0.03665 -0.08442,0.08442 0,0.047774 0.03665,0.08442 0.08442,0.08442 0.04777,0 0.08441,-0.036649 0.08441,-0.08442 0,-0.04777 -0.03665,-0.08442 -0.08441,-0.08442 z m 2.424035,0.04824 c -0.0038,0.00126 -0.0097,0.00377 -0.01749,0.00893 -0.01367,0.00897 -0.03212,0.024993 -0.05096,0.046294 -0.05653,0.063839 -0.116234,0.1733682 -0.150557,0.2563706 -0.01,0.024027 -0.01832,0.067776 -0.02256,0.1213753 -0.0042,0.053603 -0.0053,0.1165908 -0.0097,0.1820652 -0.0087,0.1278833 -0.0312,0.2915608 -0.160281,0.3882501 -0.198795,0.1491561 -0.373992,0.1681223 -0.508849,0.087141 -0.150981,-0.090651 -0.04698,-0.2238473 -0.04629,-0.224078 6.4e-5,-4.193e-4 8e-5,-0.00252 -3.85e-4,-0.00663 -8.33e-4,-0.00834 -0.0047,-0.026628 -0.01946,-0.056798 -0.01484,-0.030318 -0.02986,-0.042977 -0.04318,-0.050185 -0.01333,-0.00721 -0.02726,-0.00956 -0.04396,-0.00738 -0.03342,0.00432 -0.0724,0.032372 -0.08598,0.066912 -0.0082,0.020799 -0.0086,0.030234 -0.0085,0.032666 v 3.901e-4 c 4.2e-4,8.333e-4 0.0013,0.00168 0.0025,0.00377 0.01418,0.022309 0.0755,0.096656 0.02374,0.2050151 -0.05321,0.1118943 -0.223206,0.1569136 -0.330672,0.1587252 -0.09417,0.00168 -0.19576,-0.025159 -0.271932,-0.09609 0.009,0.1106278 -0.07038,0.1997565 -0.19646,0.2221364 -0.106741,0.018954 -0.235639,-0.012371 -0.340011,-0.094534 -0.02369,-0.018661 -0.03824,-0.022518 -0.05719,-0.022937 -0.01896,-3.982e-4 -0.04454,0.00549 -0.07664,0.021386 -0.04814,0.02386 -0.107437,0.069869 -0.166504,0.1252667 -0.05907,0.055393 -0.118524,0.1193584 -0.175842,0.1777839 -0.223319,0.227152 -0.456517,0.253167 -0.640729,0.095314 -0.04857,-0.04164 -0.07383,-0.092391 -0.08909,-0.1447197 -0.02218,-0.076117 -0.02436,-0.1662438 -0.02839,-0.2439207 -0.0065,-0.1242896 -0.01745,-0.2525335 -0.07936,-0.3781357 -0.02977,-0.06051 -0.06054,-0.087758 -0.0852,-0.1003711 -0.02466,-0.012622 -0.04681,-0.013838 -0.07314,-0.007 -0.02633,0.00684 -0.05544,0.024069 -0.07858,0.04863 -0.02315,0.024572 -0.03963,0.055532 -0.04552,0.08442 -0.0025,0.013209 -8.33e-4,0.02428 0.02063,0.053687 0.02155,0.029395 0.06193,0.066355 0.105817,0.1030925 0.05136,0.042994 0.17754,0.1318586 0.185952,0.2419749 0.0029,0.040004 -0.0082,0.078587 -0.03112,0.1108711 -0.07908,0.1113618 -0.239954,0.1306048 -0.363744,0.107764 -0.0034,-4.195e-4 -0.0065,-0.00126 -0.0097,-0.0021 l 3.138663,3.1386777 3.2090955,-3.2090939 c -0.135801,0.06817 -0.339516,0.1129804 -0.44777,0.025286 -0.01643,-0.013335 -0.03015,-0.028598 -0.04084,-0.04746 -0.0052,0.00545 -0.01094,0.010483 -0.01673,0.015557 -0.06684,0.058459 -0.142019,0.096828 -0.221356,0.089477 -0.121673,-0.011279 -0.181025,-0.1166998 -0.202684,-0.2022978 -0.0074,0.043924 -0.02873,0.083317 -0.06069,0.1143767 -0.148054,0.1438766 -0.51561,0.106724 -0.661738,0.04824 C 10.073177,9.714343 10.033797,9.679657 10.004043,9.644047 9.912553,9.5345594 9.8454975,9.3144274 9.8130285,9.229731 c -0.02537,0.00981 -0.06552,0.025789 -0.09298,0.035391 -0.09595,0.033673 -0.22716,0.065533 -0.378912,0.018661 -0.06814,-0.021051 -0.132806,-0.055218 -0.16806,-0.1163182 -0.05416,-0.093871 -0.01007,-0.1893783 0.02449,-0.2493678 0.03871,-0.067181 0.08319,-0.1270069 0.104262,-0.176618 0.02542,-0.059859 0.06008,-0.163082 0.08131,-0.2622076 0.01912,-0.089213 0.02474,-0.1782828 0.01673,-0.2190208 -8.33e-4,-0.00545 -0.0021,-0.01019 -0.0029,-0.013628 v -3.9e-4 h -3.87e-4 z m -3.325417,0.077417 c -0.02457,-8.333e-4 -0.04898,0.00168 -0.06847,0.0078 -0.02599,0.00805 -0.04294,0.019583 -0.05524,0.036566 -0.07499,0.1034825 0.02147,0.1895963 0.05952,0.2011279 0.179688,0.054752 0.219424,0.2573979 0.276213,0.371133 0.0013,0.00168 0.0085,0.00927 0.03036,0.016732 0.02495,0.00851 0.06448,0.013796 0.105813,0.012077 0.04134,-0.00168 0.08429,-0.0099 0.116713,-0.021386 0.03242,-0.011489 0.05224,-0.028347 0.05135,-0.027215 0.02751,-0.034721 0.05239,-0.089485 0.05446,-0.1462752 0.0017,-0.046542 -0.0084,-0.0957 -0.04707,-0.1509423 -0.0029,0.014593 -0.0069,0.028766 -0.01207,0.042402 -0.01878,0.049515 -0.05262,0.092794 -0.108535,0.1182639 -0.05395,0.024447 -0.117002,0.025873 -0.170396,-0.012077 -0.0356,-0.025285 -0.05635,-0.062476 -0.06769,-0.090253 -0.03686,-0.090265 -0.03787,-0.2520179 -0.04202,-0.3166703 l -8.33e-4,-8.334e-4 -0.0021,-0.0021 c -0.0077,-0.007 -0.02587,-0.018534 -0.04941,-0.026459 -0.02118,-0.00713 -0.04622,-0.011196 -0.0708,-0.012077 z m 5.6689225,0.4450485 c -0.01648,-9.23e-5 -0.03946,0.00499 -0.06614,0.016732 -0.04001,0.017612 -0.08707,0.050601 -0.129158,0.089867 -0.04209,0.039249 -0.07967,0.084462 -0.104648,0.1221554 -0.0072,0.01086 -0.01757,0.037153 -0.02449,0.074305 -0.0069,0.037153 -0.01128,0.084084 -0.01438,0.134991 -0.0034,0.055033 -0.0053,0.1210357 -0.01245,0.1863465 0.0025,-0.0021 0.0052,-0.00419 0.0078,-0.00625 0.06758,-0.053557 0.164248,-0.1138566 0.229915,-0.1587208 0.04669,-0.031911 0.08561,-0.062753 0.09842,-0.076641 0.01355,-0.014676 0.03489,-0.046667 0.05213,-0.08481 0.01723,-0.038117 0.03136,-0.082843 0.03812,-0.1248768 0.01351,-0.084068 -4.2e-4,-0.136857 -0.03422,-0.1602809 -0.01409,-0.00985 -0.02436,-0.012748 -0.04084,-0.012831 z m -7.1577305,0.027215 c -0.04777,0 -0.08442,0.036649 -0.08442,0.08442 0,0.04777 0.03665,0.08442 0.08442,0.08442 0.04778,0 0.08442,-0.036649 0.08442,-0.08442 0,-0.047774 -0.03665,-0.08442 -0.08442,-0.08442 z m 2.717361,0.027215 c 0.02696,0.08335 0.107142,0.2138882 0.228748,0.324449 0.0038,0.00336 0.007,0.00675 0.01049,0.010106 -0.03963,-0.099147 -0.112808,-0.2083027 -0.183621,-0.282432 -0.01929,-0.02017 -0.03828,-0.037866 -0.05563,-0.052131 z M 12.350751,8.99426 c -0.04778,0 -0.08442,0.036649 -0.08442,0.084416 0,0.047774 0.03665,0.08442 0.08442,0.08442 0.04777,0 0.08442,-0.036649 0.08442,-0.08442 0,-0.04777 -0.03665,-0.084416 -0.08442,-0.084416 z m -1.455745,0.00973 c -0.0062,3.35e-5 -0.01287,4.193e-4 -0.01984,0.00168 -0.02785,0.00377 -0.0609,0.015264 -0.0922,0.033086 -0.03133,0.017779 -0.06044,0.041388 -0.08131,0.063021 -0.0017,0.00168 -0.0034,0.00377 -0.0038,0.00465 -5.9e-5,1.006e-4 -3.03e-4,8.333e-4 -3.86e-4,0.00126 v 3.858e-4 c -3.98e-4,8.333e-4 -8.33e-4,0.00252 -8.33e-4,0.00818 1.64e-4,0.00746 0.0021,0.021722 0.0086,0.040465 0.01761,0.052815 0.112842,0.2223546 0.137717,0.331452 4.19e-4,0.0021 0.0013,0.00441 0.0017,0.00663 0.0025,-0.012035 0.006,-0.022896 0.01011,-0.033043 0.0086,-0.021344 0.02126,-0.041967 0.03191,-0.057188 0.04544,-0.064938 0.09767,-0.1139574 0.125271,-0.1622266 0.01438,-0.025159 0.0218,-0.046953 0.02335,-0.068078 0.0017,-0.021134 -0.0013,-0.043737 -0.01946,-0.078197 -0.02512,-0.047535 -0.04947,-0.068364 -0.07041,-0.079358 -0.01568,-0.00826 -0.03149,-0.012161 -0.05018,-0.012077 z m -5.8634325,0.4349342 -3.9e-4,3.9e-4 c -4.19e-4,7.55e-5 -0.0013,-1.007e-4 -0.0017,0 h -3.86e-4 -3.9e-4 v 3.857e-4 h -3.9e-4 c -0.0077,0.00126 -0.02599,0.00902 -0.02839,0.04902 8.34e-4,1.05e-4 0.0017,1.887e-4 0.0029,3.9e-4 0.02118,0.00252 0.05184,0.00486 0.08753,0.013209 -0.01639,-0.03514 -0.03325,-0.051012 -0.04357,-0.057579 -0.0071,-0.00449 -0.01128,-0.00579 -0.01438,-0.00583 -2.52e-4,-4.2e-6 -4.2e-4,-2.1e-5 -8.34e-4,0 z"
     style="opacity:0.3;fill:#000000;fill-opacity:1;stroke-width:0.419331" />
  <path
     id="path6-7"
     d="m 6.9662355,4.562081 v 2.9892936 h 8.33e-4 c 0.109949,0 0.198791,0.089234 0.198791,0.1991863 0,0.1099486 -0.08884,0.1987923 -0.198791,0.1987923 h -8.33e-4 v 0.8869856 c 0.07343,-0.025998 0.145629,-0.02189 0.214352,0.032288 0.203963,0.1605409 0.499177,0.045267 0.264541,-0.1680595 -0.234638,-0.213322 -0.33433,-0.48031 -0.244697,-0.5528123 0.08963,-0.072502 0.377599,0.2201151 0.458663,0.4890111 0.08107,0.268896 0.44288,0.172106 0.485506,0.082474 0.04283,-0.089632 -0.07998,-0.082998 -0.02021,-0.2349762 0.05975,-0.1519739 0.287788,-0.212106 0.383193,-0.017109 0.09521,0.1949972 -0.06309,0.1880657 0.02218,0.2392533 0.08525,0.051192 0.210157,0.047548 0.380858,-0.080528 0.170697,-0.127875 0.08233,-0.4685688 0.154833,-0.6434507 0.06334,-0.1531733 0.192259,-0.3748023 0.321728,-0.384363 0.01832,-0.00126 0.03653,0.0021 0.05485,0.010106 0.146598,0.064535 0.03246,0.4762593 -0.04009,0.6469564 -0.0725,0.1707012 -0.267332,0.3149678 -0.03267,0.3874702 0.234834,0.072502 0.419617,-0.095331 0.492119,-0.069634 0.07147,0.025327 0.126314,0.4424193 0.2913845,0.5197398 V 8.2885833 c -0.01707,0.010441 -0.03501,0.012035 -0.05486,0.00293 -0.08087,-0.037447 0.01204,-0.2298186 0.03694,-0.4166514 0.0051,-0.037614 0.01098,-0.075723 0.01791,-0.1124269 V 4.561897 Z m 1.892624,1.9926067 c 0.164923,0 0.298773,0.1342363 0.298773,0.2991591 0,0.1649229 -0.13385,0.2987775 -0.298773,0.2987775 -0.164923,0 -0.297996,-0.1338546 -0.297996,-0.2987775 0,-0.1649228 0.133074,-0.2991591 0.297996,-0.2991591 z m 0.0062,0.117874 c -0.102748,0 -0.184012,0.081262 -0.184012,0.1840108 0,0.1027487 0.08126,0.1840108 0.184012,0.1840108 0.102745,0 0.184012,-0.081262 0.184012,-0.1840108 0,-0.1027486 -0.08127,-0.1840108 -0.184012,-0.1840108 z m -3.585284,0.5975466 c -0.102749,0 -0.184011,0.081266 -0.184011,0.1840108 0,0.1027486 0.08126,0.1840108 0.184011,0.1840108 0.102744,0 0.184011,-0.081262 0.184011,-0.1840108 0,-0.1027445 -0.08127,-0.1840108 -0.184011,-0.1840108 z m 2.357123,0.100371 h 8.33e-4 c 0.09022,0.00168 0.197026,0.095096 0.305389,0.3423419 0.132456,0.3021614 0.158361,0.5832851 0.05758,0.6275035 -0.100786,0.044218 -0.290217,-0.1654512 -0.422873,-0.4676127 -0.13246,-0.3021573 -0.09824,-0.4455643 0.0025,-0.4897827 0.01254,-0.00558 0.02591,-0.010064 0.03929,-0.011658 v 8.333e-4 c 0.0056,-8.333e-4 0.01136,-0.00168 0.01711,-0.00168 z m 3.8171445,0.099591 c -0.102745,0 -0.184011,0.081262 -0.184011,0.1840109 0,0.1027444 0.08127,0.1840108 0.184011,0.1840108 0.102748,0 0.184012,-0.081266 0.184012,-0.1840108 0,-0.1027487 -0.08126,-0.1840109 -0.184012,-0.1840109 z m -3.8132535,0.018661 -0.0054,8.334e-4 c -4.2e-4,2.013e-4 -0.0013,8.333e-4 -0.0025,0.00126 -0.0069,0.00293 -0.0078,0.00377 -0.0109,0.00855 -0.0029,0.00494 -0.0083,0.016522 -0.0097,0.04122 -0.0029,0.049423 0.01493,0.14742 0.07703,0.289049 0.06216,0.1415829 0.138362,0.2613355 0.203074,0.3330075 0.02184,0.024195 0.04264,0.042772 0.05874,0.054853 0.0021,-0.020002 0.0025,-0.047716 -3.91e-4,-0.080143 -0.0088,-0.096022 -0.04529,-0.2330137 -0.107369,-0.3746302 -0.06111,-0.1394233 -0.120169,-0.2185847 -0.158726,-0.2509234 -0.02466,-0.020673 -0.03702,-0.022769 -0.04241,-0.022937 h -3.9e-4 -3.89e-4 -3.91e-4 z M 10.3068,7.6556251 c -0.01971,0.050588 -0.03946,0.1451597 -0.05175,0.2373077 -0.0013,0.010064 -0.0034,0.02126 -0.0054,0.033043 0.02243,-0.033421 0.04694,-0.0642 0.07275,-0.087531 0.01488,-0.01346 0.02441,-0.040675 0.01866,-0.085975 -0.0042,-0.033714 -0.01908,-0.071697 -0.03422,-0.096865 z m -3.3343615,0.013209 c -0.04777,0 -0.08442,0.03665 -0.08442,0.08442 0,0.047774 0.03665,0.08442 0.08442,0.08442 0.04777,0 0.08441,-0.036649 0.08441,-0.08442 0,-0.04777 -0.03665,-0.08442 -0.08441,-0.08442 z m 2.424035,0.04824 c -0.0038,0.00126 -0.0097,0.00377 -0.01749,0.00893 -0.01367,0.00897 -0.03212,0.024993 -0.05096,0.046294 -0.05653,0.063839 -0.116234,0.1733682 -0.150557,0.2563706 -0.01,0.024027 -0.01832,0.067776 -0.02256,0.1213753 -0.0042,0.053603 -0.0053,0.1165908 -0.0097,0.1820652 -0.0087,0.1278833 -0.0312,0.2915607 -0.160282,0.38825 -0.198794,0.1491561 -0.373992,0.1681224 -0.508849,0.087141 -0.150981,-0.090651 -0.04698,-0.2238472 -0.04629,-0.2240779 6.4e-5,-4.193e-4 8e-5,-0.00252 -3.85e-4,-0.00663 -8.33e-4,-0.00834 -0.0047,-0.026628 -0.01946,-0.056798 -0.01484,-0.030318 -0.02986,-0.042977 -0.04318,-0.050185 -0.01333,-0.00721 -0.02726,-0.00956 -0.04396,-0.00738 -0.03342,0.00432 -0.0724,0.032372 -0.08598,0.066912 -0.0082,0.020799 -0.0086,0.030234 -0.0085,0.032666 v 3.9e-4 c 4.21e-4,8.333e-4 0.0013,0.00168 0.0025,0.00377 0.01418,0.022309 0.0755,0.096656 0.02374,0.2050151 -0.05321,0.1118943 -0.223206,0.1569136 -0.330671,0.1587252 -0.09417,0.00168 -0.195761,-0.025159 -0.271933,-0.09609 0.009,0.1106279 -0.07038,0.1997566 -0.196459,0.2221364 -0.106741,0.018954 -0.235639,-0.012371 -0.340011,-0.094534 -0.02369,-0.018661 -0.03824,-0.022518 -0.05719,-0.022937 -0.01896,-3.983e-4 -0.04454,0.00549 -0.07664,0.021386 -0.04814,0.02386 -0.107438,0.069869 -0.166505,0.1252667 -0.05907,0.055393 -0.118523,0.1193584 -0.175841,0.1777838 -0.223319,0.2271518 -0.456517,0.2531668 -0.640729,0.095314 -0.04857,-0.04164 -0.07383,-0.092391 -0.08909,-0.1447196 -0.02218,-0.076117 -0.02436,-0.1662438 -0.02839,-0.2439207 -0.0065,-0.1242896 -0.01745,-0.2525336 -0.07936,-0.3781358 -0.02977,-0.06051 -0.06054,-0.087758 -0.0852,-0.1003711 -0.02466,-0.012622 -0.04681,-0.013838 -0.07314,-0.007 -0.02633,0.00684 -0.05544,0.024069 -0.07858,0.04863 -0.02315,0.024572 -0.03963,0.055532 -0.04552,0.08442 -0.0025,0.013209 -8.33e-4,0.02428 0.02063,0.053687 0.02155,0.029395 0.06193,0.066355 0.105817,0.1030925 0.05136,0.042994 0.17754,0.1318586 0.185951,0.2419749 0.0029,0.040004 -0.0082,0.078587 -0.03112,0.1108711 -0.07908,0.1113618 -0.239954,0.1306048 -0.363744,0.1077639 -0.0034,-4.194e-4 -0.0065,-0.00126 -0.0097,-0.0021 l 3.138662,3.1386773 3.2090965,-3.2090935 c -0.135801,0.06817 -0.339516,0.1129804 -0.44777,0.025286 -0.01643,-0.013335 -0.03015,-0.028598 -0.04084,-0.04746 -0.0052,0.00545 -0.01094,0.010483 -0.01673,0.015557 -0.06684,0.058459 -0.142019,0.096828 -0.221356,0.089477 -0.121674,-0.011279 -0.181025,-0.1166998 -0.202684,-0.2022978 -0.0074,0.043924 -0.02873,0.083317 -0.06069,0.1143767 -0.148054,0.1438766 -0.515611,0.1067239 -0.661738,0.04824 -0.04991,-0.019961 -0.08929,-0.054647 -0.119044,-0.090257 C 9.9125515,9.0054441 9.8454965,8.7853121 9.8130275,8.7006156 c -0.02537,0.00981 -0.06552,0.025789 -0.09298,0.035391 -0.09595,0.033673 -0.22716,0.065533 -0.378912,0.018661 -0.06814,-0.021051 -0.132806,-0.055218 -0.16806,-0.1163182 -0.05416,-0.093871 -0.01007,-0.1893783 0.02449,-0.2493678 0.03871,-0.067181 0.08319,-0.1270069 0.104262,-0.176618 0.02542,-0.059859 0.06008,-0.163082 0.08131,-0.2622076 0.01912,-0.089213 0.02474,-0.1782828 0.01673,-0.2190208 -8.33e-4,-0.00545 -0.0021,-0.01019 -0.0029,-0.013628 v -3.9e-4 h -3.88e-4 z m -3.325417,0.077417 c -0.02457,-8.333e-4 -0.04898,0.00168 -0.06847,0.0078 -0.02599,0.00805 -0.04294,0.019583 -0.05524,0.036566 -0.07499,0.1034825 0.02147,0.1895963 0.05952,0.2011279 0.179688,0.054752 0.219424,0.2573979 0.276213,0.371133 0.0013,0.00168 0.0085,0.00927 0.03036,0.016732 0.02495,0.00851 0.06448,0.013796 0.105813,0.012077 0.04134,-0.00168 0.08429,-0.0099 0.116713,-0.021386 0.03242,-0.011489 0.05224,-0.028347 0.05135,-0.027215 0.02751,-0.034721 0.05239,-0.089485 0.05446,-0.1462752 0.0017,-0.046542 -0.0084,-0.0957 -0.04707,-0.1509423 -0.0029,0.014593 -0.0069,0.028766 -0.01207,0.042402 -0.01878,0.049515 -0.05262,0.092794 -0.108535,0.1182639 -0.05395,0.024447 -0.117002,0.025873 -0.170396,-0.012077 -0.0356,-0.025285 -0.05635,-0.062476 -0.06769,-0.090253 -0.03686,-0.090265 -0.03787,-0.2520179 -0.04202,-0.3166703 l -8.33e-4,-8.334e-4 -0.0021,-0.0021 c -0.0077,-0.007 -0.02587,-0.018534 -0.04941,-0.026459 -0.02118,-0.00713 -0.04622,-0.011196 -0.0708,-0.012077 z m 5.6689225,0.4450485 c -0.01648,-9.23e-5 -0.03946,0.00499 -0.06614,0.016732 -0.04001,0.017612 -0.08707,0.050601 -0.129158,0.089867 -0.04209,0.039249 -0.07967,0.084462 -0.104648,0.1221553 -0.0072,0.01086 -0.01757,0.037153 -0.02449,0.074305 -0.0069,0.037153 -0.01128,0.084084 -0.01438,0.134991 -0.0034,0.055033 -0.0053,0.1210357 -0.01245,0.1863465 0.0025,-0.0021 0.0052,-0.00419 0.0078,-0.00625 0.06758,-0.053557 0.164248,-0.1138567 0.229915,-0.1587209 0.04669,-0.031911 0.08561,-0.062753 0.09842,-0.076641 0.01355,-0.014676 0.03489,-0.046667 0.05213,-0.08481 0.01723,-0.038117 0.03136,-0.082843 0.03812,-0.1248768 0.01351,-0.084068 -4.2e-4,-0.136857 -0.03422,-0.1602809 -0.01409,-0.00985 -0.02436,-0.012748 -0.04084,-0.012831 z m -7.1577305,0.027215 c -0.04777,0 -0.08442,0.036649 -0.08442,0.08442 0,0.04777 0.03665,0.08442 0.08442,0.08442 0.04778,0 0.08442,-0.036649 0.08442,-0.08442 0,-0.047774 -0.03665,-0.08442 -0.08442,-0.08442 z m 2.717361,0.027215 c 0.02696,0.08335 0.107142,0.2138882 0.228748,0.324449 0.0038,0.00336 0.007,0.00675 0.01049,0.010106 -0.03963,-0.099147 -0.112808,-0.2083027 -0.183621,-0.282432 -0.01929,-0.02017 -0.03828,-0.037866 -0.05563,-0.052131 z m 5.0511415,0.1711751 c -0.04778,0 -0.08442,0.036649 -0.08442,0.084416 0,0.047774 0.03665,0.08442 0.08442,0.08442 0.04777,0 0.08442,-0.036649 0.08442,-0.08442 0,-0.04777 -0.03665,-0.084416 -0.08442,-0.084416 z m -1.455745,0.00973 c -0.0062,3.35e-5 -0.01287,4.193e-4 -0.01984,0.00168 -0.02785,0.00377 -0.0609,0.015264 -0.0922,0.033086 -0.03133,0.017779 -0.06044,0.041388 -0.08131,0.063021 -0.0017,0.00168 -0.0034,0.00377 -0.0038,0.00465 -6e-5,1.006e-4 -3.03e-4,8.334e-4 -3.87e-4,0.00126 v 3.858e-4 c -3.98e-4,8.333e-4 -8.33e-4,0.00252 -8.33e-4,0.00818 1.65e-4,0.00746 0.0021,0.021722 0.0086,0.040465 0.01761,0.052815 0.112842,0.2223545 0.137718,0.3314519 4.19e-4,0.0021 0.0013,0.00441 0.0017,0.00663 0.0025,-0.012035 0.006,-0.022896 0.01011,-0.033043 0.0086,-0.021344 0.02126,-0.041967 0.03191,-0.057188 0.04544,-0.064938 0.09767,-0.1139574 0.12527,-0.1622266 0.01438,-0.025159 0.0218,-0.046953 0.02335,-0.068078 0.0017,-0.021134 -0.0013,-0.043737 -0.01946,-0.078197 -0.02512,-0.047535 -0.04947,-0.068364 -0.07041,-0.079358 -0.01568,-0.00826 -0.03149,-0.012161 -0.05018,-0.012077 z m -5.8634325,0.4349342 -3.9e-4,3.9e-4 c -4.19e-4,7.55e-5 -0.0013,-1.007e-4 -0.0017,0 h -3.86e-4 -3.9e-4 v 3.857e-4 h -3.9e-4 c -0.0077,0.00126 -0.02599,0.00902 -0.02839,0.04902 8.34e-4,1.049e-4 0.0017,1.887e-4 0.0029,3.9e-4 0.02118,0.00252 0.05184,0.00486 0.08753,0.013209 -0.01639,-0.03514 -0.03325,-0.051012 -0.04357,-0.057579 -0.0071,-0.00449 -0.01128,-0.00579 -0.01438,-0.00583 -2.52e-4,-4.2e-6 -4.2e-4,-2.1e-5 -8.34e-4,0 z"
     class="ColorScheme-Text"
     style="fill:currentColor;fill-opacity:1;stroke-width:0.419331" />
  <path
     id="gradient-path1"
     style="opacity:0.3;baseline-shift:baseline;display:inline;overflow:visible;vector-effect:none;enable-background:accumulate;stop-color:#000000;stop-opacity:1;fill:url(#linearGradient4)"
     d="M 8.4453131 1.2753492 C 4.4913166 1.2753492 1.2794833 4.4784283 1.2794833 8.4236094 C 1.2794833 12.36879 4.4913166 15.572386 8.4453131 15.572386 C 12.39931 15.572386 15.611143 12.36879 15.611143 8.4236094 C 15.611143 4.4784283 12.39931 1.2753492 8.4453131 1.2753492 z " />
</svg>
