<?xml version="1.0" encoding="UTF-8" standalone="no"?>
<svg
   width="64"
   height="64"
   version="1.1"
   viewBox="0 0 16.933 16.933"
   id="svg7"
   sodipodi:docname="7z.svg"
   inkscape:version="1.4.2 (ebf0e940d0, 2025-05-08)"
   xmlns:inkscape="http://www.inkscape.org/namespaces/inkscape"
   xmlns:sodipodi="http://sodipodi.sourceforge.net/DTD/sodipodi-0.dtd"
   xmlns:xlink="http://www.w3.org/1999/xlink"
   xmlns="http://www.w3.org/2000/svg"
   xmlns:svg="http://www.w3.org/2000/svg"
   xmlns:rdf="http://www.w3.org/1999/02/22-rdf-syntax-ns#"
   xmlns:cc="http://creativecommons.org/ns#"
   xmlns:dc="http://purl.org/dc/elements/1.1/">
  <sodipodi:namedview
     id="namedview7"
     pagecolor="#9c4444"
     bordercolor="#000000"
     borderopacity="0.25"
     inkscape:showpageshadow="2"
     inkscape:pageopacity="0.0"
     inkscape:pagecheckerboard="0"
     inkscape:deskcolor="#d1d1d1"
     inkscape:zoom="8.7062522"
     inkscape:cx="72.189501"
     inkscape:cy="15.276378"
     inkscape:window-width="2560"
     inkscape:window-height="1388"
     inkscape:window-x="0"
     inkscape:window-y="0"
     inkscape:window-maximized="1"
     inkscape:current-layer="svg7"
     showgrid="false" />
  <defs
     id="defs2">
    <filter
       style="color-interpolation-filters:sRGB;"
       inkscape:label="Blur"
       id="filter3"
       x="-0.10843471"
       y="-0.10870992"
       width="1.2168694"
       height="1.2174198">
      <feGaussianBlur
         stdDeviation="0.5 0.5"
         result="blur"
         id="feGaussianBlur3" />
    </filter>
    <style
       id="current-color-scheme"
       type="text/css">.ColorScheme-Text {color:#d8dee9} .ColorScheme-Highlight {color:#3b4252}</style>
    <linearGradient
       id="linearGradient3"
       inkscape:collect="always">
      <stop
         style="stop-color:#000000;stop-opacity:1;"
         offset="0"
         id="stop3" />
      <stop
         style="stop-color:#000000;stop-opacity:0;"
         offset="1"
         id="stop4" />
    </linearGradient>
    <linearGradient
       inkscape:collect="always"
       xlink:href="#linearGradient3"
       id="linearGradient4"
       x1="13.512321"
       y1="13.490874"
       x2="3.3783066"
       y2="3.3568602"
       gradientUnits="userSpaceOnUse" />
  </defs>
  <metadata
     id="metadata2">
    <rdf:RDF>
      <cc:Work
         rdf:about="">
        <dc:format>image/svg+xml</dc:format>
        <dc:type
           rdf:resource="http://purl.org/dc/dcmitype/StillImage" />
      </cc:Work>
    </rdf:RDF>
  </metadata>
  <ellipse
     style="opacity:1;fill:none;stroke:#000000;stroke-width:0.582072;stroke-dasharray:none;stroke-opacity:1;filter:url(#filter3)"
     id="path1-5"
     cx="8.4450111"
     cy="8.423522"
     rx="6.8752708"
     ry="6.8578653" />
  <ellipse
     style="opacity:1;fill:none;stroke-width:0.58207188;stroke-opacity:1;stroke:currentColor;stroke-dasharray:none;fill-opacity:1"
     id="path1"
     cx="8.4450111"
     cy="8.423522"
     rx="6.8752708"
     ry="6.8578653"
     class="ColorScheme-Text" />
  <ellipse
     style="fill:currentColor;stroke:none;stroke-width:0.285844;stroke-dasharray:none;stroke-opacity:1"
     id="path1-2"
     cx="8.4557552"
     cy="8.423522"
     rx="6.5738997"
     ry="6.5692253"
     class="ColorScheme-Highlight" />
  <path
     id="path5"
     style="opacity:0.3;fill:#000000;fill-opacity:1;stroke-width:0.571091"
     d="m 8.4663535,5.0269844 a 0.42526973,0.42526973 0 0 0 -0.212651,0.05704 l -3.068372,1.771699 a 0.42526973,0.42526973 0 0 0 -0.21265,0.3682634 v 3.5436922 a 0.42526973,0.42526973 0 0 0 0.21265,0.36797 l 3.068372,1.7717 a 0.42526973,0.42526973 0 0 0 0.425302,0 l 3.0686635,-1.7717 a 0.42526973,0.42526973 0 0 0 0.212651,-0.368263 V 7.2239896 A 0.42526973,0.42526973 0 0 0 11.747668,6.8557264 L 8.6790045,5.0840274 a 0.42526973,0.42526973 0 0 0 -0.212651,-0.05704 z m -2.643363,2.8516253 2.466105,1.4242042 a 0.35439143,0.35439143 0 0 0 0.354515,0 L 11.110008,7.8786097 v 2.6433623 l -2.6436545,1.526289 -2.643363,-1.526289 z"
     class="ColorScheme-Text" />
  <path
     id="path5-7"
     style="fill:currentColor;stroke-width:0.571091"
     d="m 8.4663535,4.4978255 a 0.42526973,0.42526973 0 0 0 -0.212651,0.05704 l -3.068372,1.771699 a 0.42526973,0.42526973 0 0 0 -0.21265,0.3682634 V 10.23852 a 0.42526973,0.42526973 0 0 0 0.21265,0.36797 l 3.068372,1.7717 a 0.42526973,0.42526973 0 0 0 0.425302,0 l 3.0686635,-1.7717 a 0.42526973,0.42526973 0 0 0 0.212651,-0.368263 V 6.6948307 A 0.42526973,0.42526973 0 0 0 11.747668,6.3265675 L 8.6790045,4.5548685 a 0.42526973,0.42526973 0 0 0 -0.212651,-0.05704 z m -2.643363,2.8516253 2.466105,1.4242042 a 0.35439143,0.35439143 0 0 0 0.354515,0 L 11.110008,7.3494508 V 9.9928133 L 8.4663535,11.519102 5.8229905,9.9928133 Z"
     class="ColorScheme-Text" />
  <path
     id="gradient-path1"
     style="opacity:0.3;baseline-shift:baseline;display:inline;overflow:visible;vector-effect:none;enable-background:accumulate;stop-color:#000000;stop-opacity:1;fill:url(#linearGradient4)"
     d="M 8.4453131 1.2753492 C 4.4913166 1.2753492 1.2794833 4.4784283 1.2794833 8.4236094 C 1.2794833 12.36879 4.4913166 15.572386 8.4453131 15.572386 C 12.39931 15.572386 15.611143 12.36879 15.611143 8.4236094 C 15.611143 4.4784283 12.39931 1.2753492 8.4453131 1.2753492 z " />
</svg>
