<?xml version="1.0" encoding="UTF-8" standalone="no"?>
<svg
   width="64"
   height="64"
   version="1.1"
   viewBox="0 0 16.933 16.933"
   id="svg7"
   sodipodi:docname="libreoffice-base.svg"
   inkscape:version="1.4.2 (ebf0e940d0, 2025-05-08)"
   xmlns:inkscape="http://www.inkscape.org/namespaces/inkscape"
   xmlns:sodipodi="http://sodipodi.sourceforge.net/DTD/sodipodi-0.dtd"
   xmlns:xlink="http://www.w3.org/1999/xlink"
   xmlns="http://www.w3.org/2000/svg"
   xmlns:svg="http://www.w3.org/2000/svg"
   xmlns:rdf="http://www.w3.org/1999/02/22-rdf-syntax-ns#"
   xmlns:cc="http://creativecommons.org/ns#"
   xmlns:dc="http://purl.org/dc/elements/1.1/">
  <sodipodi:namedview
     id="namedview7"
     pagecolor="#9c4444"
     bordercolor="#000000"
     borderopacity="0.25"
     inkscape:showpageshadow="2"
     inkscape:pageopacity="0.0"
     inkscape:pagecheckerboard="0"
     inkscape:deskcolor="#d1d1d1"
     inkscape:zoom="4.3531261"
     inkscape:cx="36.870055"
     inkscape:cy="26.188077"
     inkscape:window-width="2560"
     inkscape:window-height="1392"
     inkscape:window-x="0"
     inkscape:window-y="0"
     inkscape:window-maximized="1"
     inkscape:current-layer="svg7"
     showgrid="false" />
  <defs
     id="defs2">
    <filter
       style="color-interpolation-filters:sRGB;"
       inkscape:label="Blur"
       id="filter3"
       x="-0.10843471"
       y="-0.10870992"
       width="1.2168694"
       height="1.2174198">
      <feGaussianBlur
         stdDeviation="0.5 0.5"
         result="blur"
         id="feGaussianBlur3" />
    </filter>
    <style
       id="current-color-scheme"
       type="text/css">.ColorScheme-Text {color:#d8dee9} .ColorScheme-Highlight {color:#3b4252}</style>
    <linearGradient
       id="linearGradient3"
       inkscape:collect="always">
      <stop
         style="stop-color:#000000;stop-opacity:1;"
         offset="0"
         id="stop3" />
      <stop
         style="stop-color:#000000;stop-opacity:0;"
         offset="1"
         id="stop4" />
    </linearGradient>
    <linearGradient
       inkscape:collect="always"
       xlink:href="#linearGradient3"
       id="linearGradient4"
       x1="13.512321"
       y1="13.490874"
       x2="3.3783066"
       y2="3.3568602"
       gradientUnits="userSpaceOnUse" />
  </defs>
  <metadata
     id="metadata2">
    <rdf:RDF>
      <cc:Work
         rdf:about="">
        <dc:format>image/svg+xml</dc:format>
        <dc:type
           rdf:resource="http://purl.org/dc/dcmitype/StillImage" />
      </cc:Work>
    </rdf:RDF>
  </metadata>
  <ellipse
     style="opacity:1;fill:none;stroke:#000000;stroke-width:0.582072;stroke-dasharray:none;stroke-opacity:1;filter:url(#filter3)"
     id="path1-5"
     cx="8.4450111"
     cy="8.423522"
     rx="6.8752708"
     ry="6.8578653" />
  <ellipse
     style="opacity:1;fill:none;stroke-width:0.58207188;stroke-opacity:1;stroke:currentColor;stroke-dasharray:none;fill-opacity:1"
     id="path1"
     cx="8.4450111"
     cy="8.423522"
     rx="6.8752708"
     ry="6.8578653"
     class="ColorScheme-Text" />
  <ellipse
     style="fill:currentColor;stroke:none;stroke-width:0.285844;stroke-dasharray:none;stroke-opacity:1"
     id="path1-2"
     cx="8.4557552"
     cy="8.423522"
     rx="6.5738997"
     ry="6.5692253"
     class="ColorScheme-Highlight" />
  <path
     id="path5-6"
     style="opacity:0.3;fill:#000000;fill-opacity:1;stroke-width:0.256043"
     d="m 6.1621105,5.0269844 c -0.5673924,0 -1.0241741,0.456781 -1.0241741,1.024173 v 5.8889966 c 0,0.567393 0.4567817,1.024174 1.0241741,1.024174 h 4.6087805 c 0.567392,0 1.024173,-0.456781 1.024173,-1.024174 V 8.0995044 l -3.0725205,-3.07252 z m 3.328563,0 2.3043905,2.30439 v -0.35856 -1.94583 H 9.8492345 Z m -2.048347,3.328564 a 1.0241734,0.25604336 0 0 1 1.024174,0.256043 v 0.256044 a 1.0241734,0.25604336 0 0 1 -1.024174,0.256043 1.0241734,0.25604336 0 0 1 -1.0241728,-0.256043 v -0.256044 a 1.0241734,0.25604336 0 0 1 1.0241728,-0.256043 z m 1.536261,0.512087 h 1.2802175 c 0.141848,0 0.256043,0.114195 0.256043,0.256043 v 2.0483466 c 0,0.141848 -0.114195,0.256043 -0.256043,0.256043 H 8.9785875 c -0.141848,0 -0.256044,-0.114195 -0.256044,-0.256043 V 9.1236784 c 0,-0.141848 0.114196,-0.256043 0.256044,-0.256043 z m -2.5604338,0.256043 a 1.0241734,0.25604336 0 0 0 1.0241728,0.256043 1.0241734,0.25604336 0 0 0 1.024174,-0.256043 v 0.512086 a 1.0241734,0.25604336 0 0 1 -1.024174,0.256043 1.0241734,0.25604336 0 0 1 -1.0241728,-0.256043 z m 2.5604338,0 v 0.512086 h 0.512086 v -0.512086 z m 0.76813,0 v 0.512086 h 0.5120875 v -0.512086 z m -3.3285638,0.768129 a 1.0241734,0.25604336 0 0 0 1.0241728,0.2560436 1.0241734,0.25604336 0 0 0 1.024174,-0.2560436 v 0.5120866 a 1.0241734,0.25604336 0 0 1 -1.024174,0.256044 1.0241734,0.25604336 0 0 1 -1.0241728,-0.256044 z m 2.5604338,0 v 0.5120866 h 0.512086 V 9.8918074 Z m 0.76813,0 V 10.403894 H 10.258805 V 9.8918074 Z M 6.4181537,10.659938 a 1.0241734,0.25604336 0 0 0 1.0241728,0.256043 1.0241734,0.25604336 0 0 0 1.024174,-0.256043 v 0.512087 a 1.0241734,0.25604336 0 0 1 -1.024174,0.256043 1.0241734,0.25604336 0 0 1 -1.0241728,-0.256043 z m 2.5604338,0 v 0.512087 h 0.512086 v -0.512087 z m 0.76813,0 v 0.512087 h 0.5120875 v -0.512087 z" />
  <path
     id="path5-6-5"
     style="fill:currentColor;fill-opacity:1;stroke-width:0.256043"
     d="m 6.1621105,4.497828 c -0.567392,0 -1.024174,0.456781 -1.024174,1.024173 v 5.888997 c 0,0.567393 0.456782,1.024174 1.024174,1.024174 H 10.77089 c 0.567392,0 1.024173,-0.456781 1.024173,-1.024174 V 7.570348 L 8.7225435,4.497828 Z m 3.328563,0 2.3043895,2.30439 V 6.443658 4.497828 H 9.8492345 Z m -2.048347,3.328564 a 1.0241734,0.25604336 0 0 1 1.024174,0.256043 V 8.338479 A 1.0241734,0.25604336 0 0 1 7.4423265,8.594522 1.0241734,0.25604336 0 0 1 6.4181535,8.338479 V 8.082435 a 1.0241734,0.25604336 0 0 1 1.024173,-0.256043 z m 1.536261,0.512087 h 1.2802165 c 0.141848,0 0.256043,0.114195 0.256043,0.256043 v 2.048347 c 0,0.141848 -0.114195,0.256043 -0.256043,0.256043 H 8.9785875 c -0.141848,0 -0.256044,-0.114195 -0.256044,-0.256043 V 8.594522 c 0,-0.141848 0.114196,-0.256043 0.256044,-0.256043 z m -2.560434,0.256043 a 1.0241734,0.25604336 0 0 0 1.024173,0.256043 1.0241734,0.25604336 0 0 0 1.024174,-0.256043 V 9.106608 A 1.0241734,0.25604336 0 0 1 7.4423265,9.362651 1.0241734,0.25604336 0 0 1 6.4181535,9.106608 Z m 2.560434,0 v 0.512086 h 0.512086 V 8.594522 Z m 0.76813,0 V 9.106608 H 10.258804 V 8.594522 Z m -3.328564,0.768129 a 1.0241734,0.25604336 0 0 0 1.024173,0.256044 1.0241734,0.25604336 0 0 0 1.024174,-0.256044 v 0.512087 a 1.0241734,0.25604336 0 0 1 -1.024174,0.256044 1.0241734,0.25604336 0 0 1 -1.024173,-0.256044 z m 2.560434,0 v 0.512087 h 0.512086 V 9.362651 Z m 0.76813,0 V 9.874738 H 10.258804 V 9.362651 Z m -3.328564,0.768131 a 1.0241734,0.25604336 0 0 0 1.024173,0.256043 1.0241734,0.25604336 0 0 0 1.024174,-0.256043 v 0.512087 a 1.0241734,0.25604336 0 0 1 -1.024174,0.256043 1.0241734,0.25604336 0 0 1 -1.024173,-0.256043 z m 2.560434,0 v 0.512087 h 0.512086 v -0.512087 z m 0.76813,0 v 0.512087 h 0.5120865 v -0.512087 z"
     class="ColorScheme-Text" />
  <path
     id="gradient-path1"
     style="opacity:0.3;baseline-shift:baseline;display:inline;overflow:visible;vector-effect:none;enable-background:accumulate;stop-color:#000000;stop-opacity:1;fill:url(#linearGradient4)"
     d="M 8.4453131 1.2753492 C 4.4913166 1.2753492 1.2794833 4.4784283 1.2794833 8.4236094 C 1.2794833 12.36879 4.4913166 15.572386 8.4453131 15.572386 C 12.39931 15.572386 15.611143 12.36879 15.611143 8.4236094 C 15.611143 4.4784283 12.39931 1.2753492 8.4453131 1.2753492 z " />
</svg>
