<?xml version='1.0' encoding='UTF-8'?>
<svg xmlns:inkscape="http://www.inkscape.org/namespaces/inkscape" xmlns:sodipodi="http://sodipodi.sourceforge.net/DTD/sodipodi-0.dtd" xmlns="http://www.w3.org/2000/svg" xmlns:svg="http://www.w3.org/2000/svg" xmlns:rdf="http://www.w3.org/1999/02/22-rdf-syntax-ns#" xmlns:cc="http://creativecommons.org/ns#" xmlns:dc="http://purl.org/dc/elements/1.1/" width="64" height="64" version="1.1" viewBox="0 0 16.933 16.933" id="svg7" sodipodi:docname="librewolf.svg" inkscape:version="1.4.2 (ebf0e940d0, 2025-05-08)">
  <sodipodi:namedview id="namedview7" pagecolor="#9c4444" bordercolor="#000000" borderopacity="0.25" inkscape:showpageshadow="2" inkscape:pageopacity="0.0" inkscape:pagecheckerboard="0" inkscape:deskcolor="#d1d1d1" inkscape:zoom="4.3531261" inkscape:cx="36.755195" inkscape:cy="26.188077" inkscape:window-width="2560" inkscape:window-height="1376" inkscape:window-x="0" inkscape:window-y="0" inkscape:window-maximized="1" inkscape:current-layer="svg7" showgrid="false"/>
  <defs id="defs2">
    <filter style="color-interpolation-filters:sRGB;" inkscape:label="Blur" id="filter3" x="-0.10843471" y="-0.10870992" width="1.2168694" height="1.2174198">
      <feGaussianBlur stdDeviation="0.5 0.5" result="blur" id="feGaussianBlur3"/>
    </filter>
    <style id="current-color-scheme" type="text/css">.ColorScheme-Text {color:#d8dee9} .ColorScheme-Highlight {color:#3b4252}</style>
  <linearGradient id="linearGradient3" inkscape:collect="always">
      <stop style="stop-color:#000000;stop-opacity:1;" offset="0" id="stop3"/>
      <stop style="stop-color:#000000;stop-opacity:0;" offset="1" id="stop4"/>
    </linearGradient>
    <linearGradient xmlns:xlink="http://www.w3.org/1999/xlink" inkscape:collect="always" xlink:href="#linearGradient3" id="linearGradient4" x1="13.512321" y1="13.490874" x2="3.3783066" y2="3.3568602" gradientUnits="userSpaceOnUse"/>
  </defs>
  <metadata id="metadata2">
    <rdf:RDF>
      <cc:Work rdf:about="">
        <dc:format>image/svg+xml</dc:format>
        <dc:type rdf:resource="http://purl.org/dc/dcmitype/StillImage"/>
      </cc:Work>
    </rdf:RDF>
  </metadata>
  <ellipse style="opacity:1;fill:none;stroke:#000000;stroke-width:0.582072;stroke-dasharray:none;stroke-opacity:1;filter:url(#filter3)" id="path1-5" cx="8.4450111" cy="8.423522" rx="6.8752708" ry="6.8578653"/>
  <ellipse style="opacity:1;fill:none;stroke-width:0.58207188;stroke-opacity:1;stroke:currentColor;stroke-dasharray:none;fill-opacity:1" id="path1" cx="8.4450111" cy="8.423522" rx="6.8752708" ry="6.8578653" class="ColorScheme-Text"/>
  <ellipse style="fill:currentColor;stroke:none;stroke-width:0.285844;stroke-dasharray:none;stroke-opacity:1" id="path1-2" cx="8.4557552" cy="8.423522" rx="6.5738997" ry="6.5692253" class="ColorScheme-Highlight"/>
<path d="m 8.4665,5.0767251 c -2.16444,0 -3.918931,1.7544916 -3.918931,3.9189314 0,2.1644395 1.754491,3.9189315 3.918931,3.9189315 2.16444,0 3.918931,-1.754492 3.918931,-3.9189315 0,-2.1644398 -1.754491,-3.9189314 -3.918931,-3.9189314 z m 0,0.4897857 c 1.893939,0 3.429145,1.5352071 3.429145,3.4291457 -0.0015,1.5743725 -1.074902,2.9453855 -2.603008,3.3247755 -0.02173,-0.05488 -0.03056,-0.113408 -0.02475,-0.13256 0.02927,-0.09684 0.05014,-0.227462 0.05724,-0.361529 0.0114,-0.212614 0.09662,-0.549826 0.231551,-0.70326 0.118572,-0.135143 0.141168,-0.242741 0.143535,-0.681311 0.002,-0.363035 0.0058,-0.405429 0.05251,-0.5683318 0.07941,-0.276957 0.210677,-0.47257 0.30687,-0.6126625 0.04885,-0.071445 0.126535,-0.1986258 0.173017,-0.2827673 0.04669,-0.084357 0.114269,-0.197765 0.150422,-0.2522095 0.09404,-0.1420292 0.392733,-0.3382879 0.492153,-0.3849853 0.110826,-0.052292 0.233057,-0.1926004 0.273514,-0.3144012 0.04153,-0.1252439 0.02905,-0.3225786 -0.02539,-0.3950995 -0.03185,-0.042824 -0.05229,-0.050356 -0.134281,-0.050356 -0.07511,0 -0.107598,-0.0099 -0.145043,-0.044976 -0.05143,-0.047989 -0.08888,-0.041533 -0.08888,0.015494 0,0.04476 -0.166131,0.1297631 -0.186144,0.1099651 -0.0082,-0.00839 2.15e-4,-0.055736 0.01915,-0.1052308 0.06972,-0.1818405 0.09253,-0.297831 0.08134,-0.4153279 C 10.651161,6.9472071 10.530435,6.6508824 10.4648,6.6381858 10.44887,6.6351758 10.363012,6.6937058 10.273922,6.7688097 9.808883,7.1600357 9.455531,7.330686 9.209348,7.4793863 9.092065,7.5501853 9.091635,7.5501853 8.893655,7.5458823 8.659307,7.5407223 8.699979,7.5777313 8.308968,7.814877 8.17361,7.896867 8.020821,8.0535293 7.96982,8.0728969 7.9186,8.0922649 7.755915,8.1204549 7.605708,8.1359489 c -0.30816,0.031634 -0.390795,0.050571 -0.50614,0.1172818 -0.114055,0.06585 -0.14289,0.1149145 -0.118574,0.2027145 0.02367,0.086078 0.149992,0.2556526 0.30192,0.4047833 l 0.114269,0.1125474 -0.08801,0.136219 C 7.260533,9.1845979 7.187373,9.3231843 7.146485,9.4176553 7.065575,9.6050909 7.043406,9.640383 6.882009,9.8390087 6.742132,10.011165 6.514025,10.258641 6.369198,10.542269 6.24546,10.784795 6.186066,10.847632 5.958819,10.97761 5.902009,11.010104 5.831854,11.064764 5.759763,11.098765 5.292143,10.497293 5.037996,9.7574495 5.037351,8.9956563 c 0,-1.8939386 1.535207,-3.4291457 3.429145,-3.4291457 z M 9.060656,7.7968005 8.88398,8.0229713 8.599491,8.0627823 8.776382,7.8363962 Z" fill="#ffffff" fill-rule="nonzero" id="path2" style="opacity:0.3;fill:#000000;fill-opacity:1;stroke-width:0.215196"/>
  <path d="m 8.4665,4.5475685 c -2.16444,0 -3.918931,1.754492 -3.918931,3.918932 0,2.1644395 1.754491,3.9189305 3.918931,3.9189305 2.16444,0 3.918931,-1.754491 3.918931,-3.9189305 0,-2.16444 -1.754491,-3.918932 -3.918931,-3.918932 z m 0,0.489786 c 1.893939,0 3.429145,1.535207 3.429145,3.429146 -0.0015,1.5743725 -1.074902,2.9453855 -2.603008,3.3247755 -0.02173,-0.05488 -0.03056,-0.113408 -0.02475,-0.13256 0.02927,-0.09684 0.05014,-0.227462 0.05724,-0.36153 0.0114,-0.212613 0.09662,-0.549826 0.231551,-0.70326 0.118572,-0.135143 0.141168,-0.24274 0.143535,-0.6813095 0.002,-0.363036 0.0058,-0.405429 0.05251,-0.568333 0.07941,-0.276957 0.210677,-0.47257 0.30687,-0.612662 0.04885,-0.07145 0.126535,-0.198626 0.173017,-0.282767 0.04669,-0.08436 0.114269,-0.197765 0.150422,-0.25221 0.09404,-0.142029 0.392733,-0.338288 0.492153,-0.384985 0.110826,-0.05229 0.233057,-0.192601 0.273514,-0.314401 0.04153,-0.125244 0.02905,-0.322579 -0.02539,-0.3951 -0.03185,-0.04282 -0.05229,-0.05036 -0.134281,-0.05036 -0.07511,0 -0.107598,-0.0099 -0.145043,-0.04498 -0.05143,-0.04799 -0.08888,-0.04153 -0.08888,0.01549 0,0.04476 -0.166131,0.129763 -0.186144,0.109965 -0.0082,-0.0084 2.15e-4,-0.05574 0.01915,-0.105231 0.06972,-0.18184 0.09253,-0.297831 0.08134,-0.415328 -0.01829,-0.193676 -0.139016,-0.49 -0.204651,-0.502697 -0.01593,-0.003 -0.101788,0.05552 -0.190878,0.130624 -0.465039,0.391226 -0.818391,0.561876 -1.064574,0.710576 -0.117283,0.0708 -0.117713,0.0708 -0.315693,0.0665 -0.234348,-0.0052 -0.193676,0.03185 -0.584687,0.268995 -0.135358,0.08199 -0.288147,0.238652 -0.339148,0.25802 -0.05122,0.01937 -0.213905,0.04756 -0.364112,0.06305 -0.30816,0.03163 -0.390795,0.05057 -0.50614,0.117282 -0.114055,0.06585 -0.14289,0.114914 -0.118574,0.202714 0.02367,0.08608 0.149992,0.255653 0.30192,0.404784 l 0.114269,0.112547 -0.08801,0.136219 c -0.04864,0.0751 -0.1218,0.213689 -0.162688,0.30816 -0.08091,0.187436 -0.103079,0.222728 -0.264476,0.421354 -0.139877,0.172157 -0.367984,0.419632 -0.512811,0.7032595 -0.123738,0.242527 -0.183132,0.305363 -0.410379,0.435342 -0.05681,0.03249 -0.126965,0.08715 -0.199056,0.121155 C 5.292143,9.9681265 5.037996,9.2282835 5.037351,8.4664895 c 0,-1.893938 1.535207,-3.429145 3.429145,-3.429145 z m 0.594156,2.23029 -0.176676,0.22617 -0.284489,0.03981 0.176891,-0.226386 z" fill="#ffffff" fill-rule="nonzero" id="path2-4" style="fill:currentColor;fill-opacity:1;stroke-width:0.215196" class="ColorScheme-Text"/>
<path id="gradient-path1" style="opacity:0.3;baseline-shift:baseline;display:inline;overflow:visible;vector-effect:none;enable-background:accumulate;stop-color:#000000;stop-opacity:1;fill:url(#linearGradient4)" d="M 8.4453131 1.2753492 C 4.4913166 1.2753492 1.2794833 4.4784283 1.2794833 8.4236094 C 1.2794833 12.36879 4.4913166 15.572386 8.4453131 15.572386 C 12.39931 15.572386 15.611143 12.36879 15.611143 8.4236094 C 15.611143 4.4784283 12.39931 1.2753492 8.4453131 1.2753492 z "/>
</svg>
