<?xml version="1.0" encoding="UTF-8" standalone="no"?>
<svg
   width="64"
   height="64"
   version="1.1"
   viewBox="0 0 16.933 16.933"
   id="svg7"
   sodipodi:docname="losslesscut.svg"
   inkscape:version="1.4.2 (ebf0e940d0, 2025-05-08)"
   xmlns:inkscape="http://www.inkscape.org/namespaces/inkscape"
   xmlns:sodipodi="http://sodipodi.sourceforge.net/DTD/sodipodi-0.dtd"
   xmlns:xlink="http://www.w3.org/1999/xlink"
   xmlns="http://www.w3.org/2000/svg"
   xmlns:svg="http://www.w3.org/2000/svg"
   xmlns:rdf="http://www.w3.org/1999/02/22-rdf-syntax-ns#"
   xmlns:cc="http://creativecommons.org/ns#"
   xmlns:dc="http://purl.org/dc/elements/1.1/">
  <sodipodi:namedview
     id="namedview7"
     pagecolor="#9c4444"
     bordercolor="#000000"
     borderopacity="0.25"
     inkscape:showpageshadow="2"
     inkscape:pageopacity="0.0"
     inkscape:pagecheckerboard="0"
     inkscape:deskcolor="#d1d1d1"
     inkscape:zoom="8.7062522"
     inkscape:cx="71.730061"
     inkscape:cy="15.276378"
     inkscape:window-width="2560"
     inkscape:window-height="1392"
     inkscape:window-x="0"
     inkscape:window-y="0"
     inkscape:window-maximized="1"
     inkscape:current-layer="svg7"
     showgrid="false" />
  <defs
     id="defs2">
    <filter
       style="color-interpolation-filters:sRGB;"
       inkscape:label="Blur"
       id="filter3"
       x="-0.10843471"
       y="-0.10870992"
       width="1.2168694"
       height="1.2174198">
      <feGaussianBlur
         stdDeviation="0.5 0.5"
         result="blur"
         id="feGaussianBlur3" />
    </filter>
    <style
       id="current-color-scheme"
       type="text/css">.ColorScheme-Text {color:#d8dee9} .ColorScheme-Highlight {color:#3b4252}</style>
    <linearGradient
       id="linearGradient3"
       inkscape:collect="always">
      <stop
         style="stop-color:#000000;stop-opacity:1;"
         offset="0"
         id="stop3" />
      <stop
         style="stop-color:#000000;stop-opacity:0;"
         offset="1"
         id="stop4" />
    </linearGradient>
    <linearGradient
       inkscape:collect="always"
       xlink:href="#linearGradient3"
       id="linearGradient4"
       x1="13.512321"
       y1="13.490874"
       x2="3.3783066"
       y2="3.3568602"
       gradientUnits="userSpaceOnUse" />
  </defs>
  <metadata
     id="metadata2">
    <rdf:RDF>
      <cc:Work
         rdf:about="">
        <dc:format>image/svg+xml</dc:format>
        <dc:type
           rdf:resource="http://purl.org/dc/dcmitype/StillImage" />
      </cc:Work>
    </rdf:RDF>
  </metadata>
  <ellipse
     style="opacity:1;fill:none;stroke:#000000;stroke-width:0.582072;stroke-dasharray:none;stroke-opacity:1;filter:url(#filter3)"
     id="path1-5"
     cx="8.4450111"
     cy="8.423522"
     rx="6.8752708"
     ry="6.8578653" />
  <ellipse
     style="opacity:1;fill:none;stroke-width:0.58207188;stroke-opacity:1;stroke:currentColor;stroke-dasharray:none;fill-opacity:1"
     id="path1"
     cx="8.4450111"
     cy="8.423522"
     rx="6.8752708"
     ry="6.8578653"
     class="ColorScheme-Text" />
  <ellipse
     style="fill:currentColor;stroke:none;stroke-width:0.285844;stroke-dasharray:none;stroke-opacity:1"
     id="path1-2"
     cx="8.4557552"
     cy="8.423522"
     rx="6.5738997"
     ry="6.5692253"
     class="ColorScheme-Highlight" />
  <path
     id="path5-6"
     style="opacity:0.3;fill:#000000;fill-opacity:1;stroke-width:0.0248263"
     d="m 12.097979,5.3600882 -7.6001509,1.3397483 0.2198,1.2469888 v 1.2646878 h 0.01227 v 2.9144259 c 0,0.277856 0.227399,0.505303 0.505255,0.505303 h 6.6819649 c 0.277856,0 0.505254,-0.227447 0.505254,-0.505303 V 9.2115131 h 0.0128 V 7.9330061 H 4.8669261 L 12.319913,6.6191993 Z m -0.02017,0.0288 0.02773,0.1574434 -0.895445,0.1577343 1.05541,0.7495414 0.02565,0.1454184 -7.5512739,1.331166 -0.02449,-0.1389209 0.900051,-0.1588007 -1.06084,-0.7533237 -0.02802,-0.1591409 z M 10.882024,5.7620106 9.9684931,5.9230902 11.031127,6.6777231 11.944658,6.5166916 Z m -1.2659009,0.223243 -0.913531,0.1610309 1.062635,0.7546334 0.9135309,-0.161032 z m -1.265754,0.2231943 -0.913531,0.1610801 1.062635,0.7546329 0.913531,-0.1610807 z m -1.265851,0.2230975 -0.913579,0.1610315 1.062634,0.7546329 0.913531,-0.1610321 z m -1.265803,0.2231937 -0.91353,0.1610321 1.062633,0.754681 0.913531,-0.1610796 z m -1.07626,1.3030911 h 7.6678929 v 0.1604015 l -0.914356,0.9265742 h 0.914356 V 9.1866844 H 4.7424551 V 9.0383571 l 0.909118,-0.9211924 h -0.909118 z m 2.52763,0.1592858 v 4.98e-5 l -0.915471,0.9276413 h 0.927644 l 0.91547,-0.9276894 z m -1.285344,4.98e-5 -0.915471,0.9276413 h 0.927644 l 0.915471,-0.927639 z m 2.570688,0 -0.91547,0.9276413 h 0.927641 l 0.91547,-0.9276413 z m 1.285344,0 -0.915471,0.9276413 h 0.927692 L 10.768416,8.1171658 Z m 1.2853429,0 -0.91547,0.9276413 h 0.92769 l 0.915419,-0.9276413 z m -5.8069329,1.603334 h 1.075968 v 2.3608282 h -1.075968 z m 1.188123,0 h 2.676393 v 0.8064192 h -2.676393 z m 2.788403,0 H 11.80637 V 10.526919 H 9.2957091 Z M 6.5073031,10.63888 h 2.676442 v 1.442448 h -2.67644 z m 2.788403,0 h 2.5105619 v 1.442448 H 9.2957091 Z" />
  <path
     id="path5-6-5"
     style="fill:currentColor;stroke-width:0.0248263"
     d="m 12.097979,4.8309236 -7.600151,1.3397483 0.2198,1.2469888 v 1.2646877 h 0.01227 v 2.9144246 c 0,0.277857 0.227399,0.505304 0.505255,0.505303 h 6.681965 c 0.277856,0 0.505254,-0.227446 0.505254,-0.505303 V 8.6823484 h 0.0128 V 7.4038415 H 4.866926 l 7.452987,-1.3138068 z m -0.02017,0.0288 0.02773,0.1574434 -0.895445,0.1577343 1.05541,0.7495414 0.02565,0.1454184 L 4.73988,7.4010271 4.71539,7.2621062 5.615441,7.1033055 4.554601,6.3499818 4.526581,6.1908409 Z M 10.882024,5.232846 9.968493,5.3939256 11.031127,6.1485585 11.944658,5.987527 Z M 9.616123,5.456089 8.702592,5.6171199 9.765227,6.3717533 10.678758,6.2107213 Z M 8.350369,5.6792833 7.436838,5.8403634 8.499473,6.5949963 9.413004,6.4339156 Z M 7.084518,5.9023808 6.170939,6.0634123 7.233573,6.8180452 8.147104,6.6570131 Z M 5.818715,6.1255745 4.905185,6.2866066 5.967818,7.0412876 6.881349,6.880208 Z m -1.07626,1.3030911 h 7.667893 v 0.1604015 l -0.914356,0.9265742 h 0.914356 V 8.6575197 H 4.742455 V 8.5091924 L 5.651573,7.5880001 H 4.742455 Z m 2.52763,0.1592858 v 4.98e-5 L 6.354614,8.5156424 H 7.282258 L 8.197728,7.5879531 Z M 5.984741,7.5880012 5.06927,8.5156424 H 5.996914 L 6.912385,7.5880035 Z m 2.570688,0 -0.91547,0.9276412 H 8.5676 L 9.48307,7.5880012 Z m 1.285344,0 -0.915471,0.9276412 h 0.927692 l 0.915422,-0.9276412 z m 1.285343,0 -0.91547,0.9276412 h 0.92769 L 12.053755,7.5880012 Z M 5.319183,9.1913351 H 6.395151 V 11.552163 H 5.319183 Z m 1.188123,0 H 9.183699 V 9.9977548 H 6.507306 Z m 2.788403,0 H 11.80637 V 9.9977548 H 9.295709 Z M 6.507303,10.109715 h 2.676442 v 1.442448 h -2.67644 z m 2.788403,0 h 2.510562 v 1.442448 H 9.295709 Z"
     class="ColorScheme-Text" />
  <path
     id="gradient-path1"
     style="opacity:0.3;baseline-shift:baseline;display:inline;overflow:visible;vector-effect:none;enable-background:accumulate;stop-color:#000000;stop-opacity:1;fill:url(#linearGradient4)"
     d="M 8.4453131 1.2753492 C 4.4913166 1.2753492 1.2794833 4.4784283 1.2794833 8.4236094 C 1.2794833 12.36879 4.4913166 15.572386 8.4453131 15.572386 C 12.39931 15.572386 15.611143 12.36879 15.611143 8.4236094 C 15.611143 4.4784283 12.39931 1.2753492 8.4453131 1.2753492 z " />
</svg>
