<?xml version="1.0" encoding="UTF-8" standalone="no"?>
<svg
   width="64"
   height="64"
   version="1.1"
   viewBox="0 0 16.933 16.933"
   id="svg7"
   sodipodi:docname="lutris.svg"
   inkscape:version="1.4.2 (ebf0e940d0, 2025-05-08)"
   xmlns:inkscape="http://www.inkscape.org/namespaces/inkscape"
   xmlns:sodipodi="http://sodipodi.sourceforge.net/DTD/sodipodi-0.dtd"
   xmlns:xlink="http://www.w3.org/1999/xlink"
   xmlns="http://www.w3.org/2000/svg"
   xmlns:svg="http://www.w3.org/2000/svg"
   xmlns:rdf="http://www.w3.org/1999/02/22-rdf-syntax-ns#"
   xmlns:cc="http://creativecommons.org/ns#"
   xmlns:dc="http://purl.org/dc/elements/1.1/">
  <sodipodi:namedview
     id="namedview7"
     pagecolor="#9c4444"
     bordercolor="#000000"
     borderopacity="0.25"
     inkscape:showpageshadow="2"
     inkscape:pageopacity="0.0"
     inkscape:pagecheckerboard="0"
     inkscape:deskcolor="#d1d1d1"
     inkscape:zoom="8.7062522"
     inkscape:cx="71.615201"
     inkscape:cy="15.276378"
     inkscape:window-width="2560"
     inkscape:window-height="1392"
     inkscape:window-x="0"
     inkscape:window-y="0"
     inkscape:window-maximized="1"
     inkscape:current-layer="svg7"
     showgrid="false" />
  <defs
     id="defs2">
    <filter
       style="color-interpolation-filters:sRGB;"
       inkscape:label="Blur"
       id="filter3"
       x="-0.10843471"
       y="-0.10870992"
       width="1.2168694"
       height="1.2174198">
      <feGaussianBlur
         stdDeviation="0.5 0.5"
         result="blur"
         id="feGaussianBlur3" />
    </filter>
    <style
       id="current-color-scheme"
       type="text/css">.ColorScheme-Text {color:#d8dee9} .ColorScheme-Highlight {color:#3b4252}</style>
    <linearGradient
       id="linearGradient3"
       inkscape:collect="always">
      <stop
         style="stop-color:#000000;stop-opacity:1;"
         offset="0"
         id="stop3" />
      <stop
         style="stop-color:#000000;stop-opacity:0;"
         offset="1"
         id="stop4" />
    </linearGradient>
    <linearGradient
       inkscape:collect="always"
       xlink:href="#linearGradient3"
       id="linearGradient4"
       x1="13.512321"
       y1="13.490874"
       x2="3.3783066"
       y2="3.3568602"
       gradientUnits="userSpaceOnUse" />
  </defs>
  <metadata
     id="metadata2">
    <rdf:RDF>
      <cc:Work
         rdf:about="">
        <dc:format>image/svg+xml</dc:format>
        <dc:type
           rdf:resource="http://purl.org/dc/dcmitype/StillImage" />
      </cc:Work>
    </rdf:RDF>
  </metadata>
  <ellipse
     style="opacity:1;fill:none;stroke:#000000;stroke-width:0.582072;stroke-dasharray:none;stroke-opacity:1;filter:url(#filter3)"
     id="path1-5"
     cx="8.4450111"
     cy="8.423522"
     rx="6.8752708"
     ry="6.8578653" />
  <ellipse
     style="opacity:1;fill:none;stroke-width:0.58207188;stroke-opacity:1;stroke:currentColor;stroke-dasharray:none;fill-opacity:1"
     id="path1"
     cx="8.4450111"
     cy="8.423522"
     rx="6.8752708"
     ry="6.8578653"
     class="ColorScheme-Text" />
  <ellipse
     style="fill:currentColor;stroke:none;stroke-width:0.285844;stroke-dasharray:none;stroke-opacity:1"
     id="path1-2"
     cx="8.4557552"
     cy="8.423522"
     rx="6.5738997"
     ry="6.5692253"
     class="ColorScheme-Highlight" />
  <path
     id="path5"
     style="opacity:0.3;fill:#000000;fill-opacity:1;stroke:none;stroke-width:0.0380448"
     d="m 8.3951347,5.0269844 c -2.152375,0 -3.897299,1.762988 -3.897299,3.9376494 0,2.1746622 1.752925,3.9975392 3.897299,3.9977792 1.398985,0.04201 2.6967593,-0.616121 3.1245273,-1.688392 -0.119223,0.05559 -0.247453,0.170336 -0.359479,0.273144 0.0069,-0.0057 0.01377,-0.01141 0.02057,-0.01716 -0.543773,0.578222 -1.4611153,0.892622 -2.3129553,0.892622 -1.648482,0 -2.991648,-1.349959 -2.985101,-3.0154969 0.0015,-0.3748993 0.07121,-0.7116113 0.191222,-1.0128216 0.07829,-0.1233012 0.288157,-0.1055638 0.433103,-0.082909 0.343703,0.053722 0.696132,0.1461818 0.916488,0.503824 0.01857,0.027051 0.03179,0.05827 0.05249,0.083855 0.101899,0.1259756 0.212005,0.1582679 0.32295,0.1634194 0.237078,0.00697 0.349044,-0.1717742 0.359606,-0.4122082 2.99e-4,-0.01886 5.1e-5,-0.00986 -0.0012,-0.026374 -0.0078,-0.1674194 -0.262171,-0.8060883 -0.681735,-0.8257408 -0.0047,-1.498e-4 -0.0094,-8.03e-5 -0.01407,-3.744e-4 -0.232735,-0.014367 -0.413639,-0.2146559 -0.406859,-0.4537257 0.02328,-0.1543104 0.0944,-0.2764754 0.233807,-0.3756754 0.191781,-0.127831 0.391489,-0.238045 0.591014,-0.331823 0.783173,-0.337837 1.222702,-0.426236 1.97745,-0.430128 0.04581,-4.64e-4 0.09094,7.93e-4 0.134568,0.0035 0.4322033,0.02663 0.6636823,0.09277 0.8194573,0.177806 0.08656,-0.0896 0.207362,-0.145248 0.340995,-0.145249 0.26308,0 0.476571,0.215684 0.476571,0.481489 0,0.09019 -0.02455,0.174591 -0.06732,0.246769 0.07757,0.06119 0.142989,0.104744 0.257528,0.145248 0.07137,0.02524 0.128138,0.04703 0.174187,0.06398 -0.04266,-0.06767 -0.06807,-0.153378 -0.06807,-0.246959 0,-0.220268 0.140689,-0.397127 0.315948,-0.397127 0.0074,0 0.01471,3.29e-4 0.02196,9.45e-4 -0.0035,-0.139954 -0.01919,-0.293369 -0.06536,-0.384067 -0.101116,-0.198651 -0.17413,-0.283764 -0.690947,-0.567551 -0.516817,-0.283787 -0.977432,-0.124867 -0.977432,-0.124867 0,0 -0.101107,-0.08515 -0.151665,-0.141904 -0.05056,-0.05676 -0.09555,-0.10783 -0.174192,-0.102154 -0.0595,0.0043 -0.122198,0.125593 -0.149205,0.184367 -0.5032753,-0.23963 -1.0655243,-0.373658 -1.6587883,-0.373658 z m 1.462773,1.363952 c -0.185284,9.56e-4 -0.349389,0.007 -0.502438,0.02057 -0.458564,0.04056 -0.824901,0.144912 -1.40164,0.393532 -0.16592,0.07817 -0.333537,0.174839 -0.499094,0.280715 -0.03692,0.02362 -0.07171,0.04548 -0.103907,0.06732 -0.06885,0.060792 -0.09873,0.1175833 -0.113875,0.2068291 0.0013,0.1372177 0.103712,0.2456099 0.235699,0.2537733 h 3.75e-4 c 3e-4,-7.65e-5 0.0041,4.66e-5 0.0084,1.947e-4 h 0.0012 l 0.0012,6.31e-5 c 0.0016,7.65e-5 0.0032,1.797e-4 0.0048,2.546e-4 0.05385,-0.037387 0.109391,-0.073296 0.166365,-0.1077054 0.293226,-0.1770972 0.86831,-0.3521834 1.639168,-0.2347811 0.387613,0.059033 0.700626,0.1426205 1.1801993,0.2971204 0.285782,0.092068 0.512234,0.2040861 0.704132,0.2913786 0.193408,0.08798 0.354618,0.1520721 0.535811,0.1731362 0.121844,0.014164 0.247018,-0.018009 0.345032,-0.084297 -0.09197,-0.032146 -0.178186,-0.092522 -0.240179,-0.1587501 -0.11374,-0.1215107 -0.187528,-0.3101927 -0.09179,-0.5116476 -0.053,-0.020302 -0.09847,-0.042054 -0.141445,-0.067071 -0.02531,-0.014727 -0.04859,-0.029944 -0.07085,-0.045618 -0.0268,-0.01887 -0.05159,-0.03781 -0.07646,-0.05748 -0.0798,0.06085 -0.179128,0.096979 -0.286737,0.096979 -0.263057,0 -0.476572,-0.2156828 -0.476572,-0.4814878 0,-0.06413 0.01246,-0.125365 0.03502,-0.181338 -0.05515,-0.02867 -0.123979,-0.05549 -0.219864,-0.0795 -0.121331,-0.03039 -0.285237,-0.05523 -0.5101353,-0.06909 -0.03933,-0.0024 -0.08017,-0.0035 -0.121571,-0.0031 h -4.5e-4 z m 1.2940113,0.03559 a 0.29436185,0.29740989 0 0 0 -0.294372,0.297436 0.29436185,0.29740989 0 0 0 0.294372,0.297372 0.29436185,0.29740989 0 0 0 0.29437,-0.297372 0.29436185,0.29740989 0 0 0 -0.29437,-0.297436 z m 1.088846,0.314661 a 0.152592,0.19178048 0 0 0 -0.152549,0.191812 0.152592,0.19178048 0 0 0 0.152549,0.19175 0.152592,0.19178048 0 0 0 0.152611,-0.19175 0.152592,0.19178048 0 0 0 -0.152611,-0.191812 z m -0.07741,0.4736633 c 0,0 -0.03821,0.066772 -0.120625,0.1067589 -0.03384,0.01642 -0.0933,-0.02476 -0.149079,0.032495 -0.118436,0.2401937 0.170905,0.4407244 0.305728,0.4350485 0.134821,-0.00568 0.241189,-0.1429737 0.235573,-0.2621648 -0.0056,-0.1844616 -0.271597,-0.3121374 -0.271597,-0.3121376 z M 8.7904477,7.4202925 c -0.02095,1.046e-4 -0.04243,-2.996e-4 -0.0629,2.546e-4 -0.10131,0.00276 -0.197201,0.010322 -0.286233,0.022525 -0.01758,0.00241 -0.03383,0.00561 -0.05091,0.00833 -0.07878,0.012542 -0.152955,0.027753 -0.220936,0.045619 -0.01136,0.00299 -0.02384,0.00548 -0.03489,0.00858 -0.07336,0.020604 -0.13897,0.043783 -0.198287,0.067955 -0.01311,0.00534 -0.02552,0.010714 -0.03792,0.016153 -0.05634,0.024721 -0.108372,0.050119 -0.149709,0.075085 -0.0069,0.00415 -0.01373,0.00836 -0.02057,0.012556 0.171881,0.083137 0.304078,0.2349738 0.395756,0.378388 0.113367,0.1773458 0.206778,0.4115158 0.215131,0.5550581 v 6.31e-5 6.32e-5 c 1.8e-5,7.64e-5 5.7e-5,2.097e-4 6.4e-5,2.545e-4 v 1.263e-4 c 0.001,0.011287 0.0022,0.013388 0.0017,0.041959 v 0.00259 l -1.95e-4,0.00259 c -0.01403,0.3193233 -0.189263,0.5985782 -0.546915,0.5880573 l -0.0015,-6.32e-5 -0.0015,-6.31e-5 c -0.149075,-0.00692 -0.314431,-0.056171 -0.455689,-0.2308062 -0.02658,-0.032852 -0.05845,-0.091496 -0.06113,-0.095402 l -0.0026,-0.00379 -0.0024,-0.00379 C 7.1779347,8.765094 7.0677417,8.6788168 6.9346977,8.616285 c -0.02723,-0.0128 -0.05549,-0.024462 -0.0846,-0.035082 -0.0059,0.011078 -0.01169,0.022241 -0.01741,0.033441 -0.0079,0.015404 -0.01376,0.032065 -0.02126,0.0477 -0.02488,0.051847 -0.04957,0.1038556 -0.07041,0.1582457 -0.02703,0.070609 -0.05064,0.1433478 -0.0706,0.2182498 -1.7e-5,6.54e-5 -4.6e-5,1.243e-4 -6.3e-5,1.947e-4 -0.05254,0.1972376 -0.08012,0.4093627 -0.08012,0.6364522 0,0.2694941 0.0409,0.5260486 0.116713,0.7650426 0.07581,0.238993 0.186519,0.460423 0.326231,0.659672 0.09314,0.132831 0.199194,0.255791 0.316327,0.367535 0.117133,0.111744 0.245351,0.212295 0.382948,0.300212 0.0688,0.04396 0.139923,0.08473 0.213176,0.122218 0.366275,0.187456 0.785467,0.291879 1.230039,0.291883 0.112541,-2.2e-5 0.256192,-0.0096 0.41752,-0.03155 0.04172,-0.0057 0.08465,-0.01214 0.128512,-0.01949 0.120879,-0.03054 0.23972,-0.06743 0.3549363,-0.110482 0.37777,-0.141156 0.71558,-0.348393 0.962796,-0.607553 l -0.0017,-0.002 c 0.106231,-0.09746 0.254883,-0.233801 0.405565,-0.304056 l 0.231871,-0.108086 c 0.240901,-0.474828 0.376828,-1.013036 0.376828,-1.5832746 0,-0.4209322 -0.07403,-0.8244053 -0.209707,-1.1977567 -0.04921,0.00491 -0.09913,0.00464 -0.148763,-0.00114 C 11.272001,8.1676287 10.966824,7.921051 10.418948,7.7445467 9.9468807,7.5924647 9.6407647,7.5110367 9.2670137,7.4541142 c -0.03949,-0.00601 -0.07841,-0.011217 -0.116714,-0.015648 -0.127482,-0.014738 -0.246153,-0.018735 -0.359857,-0.018171 z m -2.463547,1.0593863 c -0.05369,7.66e-5 -0.08343,0.010492 -0.0947,0.014449 -0.01212,0.032516 -0.02412,0.069831 -0.03748,0.1103555 -0.01201,0.03644 -0.02266,0.065611 -0.02965,0.089975 -0.01147,0.039978 -0.02175,0.086583 -0.03325,0.1373607 -0.0084,0.037168 -0.01607,0.065186 -0.02019,0.086947 -0.0091,0.048263 -0.01609,0.1032318 -0.02341,0.1620312 -0.0039,0.031165 -0.0092,0.061749 -0.01053,0.075779 -0.0078,0.08185 -0.01209,0.1654845 -0.01243,0.2513123 -3.9e-4,0.097802 0.0042,0.1942615 0.01344,0.2894225 -1.94e-4,-0.00192 0.0039,0.022174 0.0055,0.036407 0.01744,0.1577028 0.04855,0.311335 0.0911,0.460855 0.0046,0.01622 0.01304,0.05304 0.01356,0.05477 v 1.26e-4 c 0.0011,0.0035 0.0022,0.0069 0.0033,0.01041 0.02636,0.08483 0.05661,0.167967 0.0906,0.249294 0.106076,0.25386 0.248084,0.488902 0.419665,0.698665 0.05719,0.06992 0.117667,0.137018 0.181191,0.201088 0.187265,0.188868 0.400972,0.351222 0.634797,0.480857 l 0.005,0.0028 c 0.0024,0.0013 0.0048,0.0027 0.0073,0.004 h 6.3e-5 c 0.09836,0.05388 0.200221,0.102008 0.30516,0.143922 -0.849132,-0.446473 -1.4282,-1.31381 -1.4282,-2.3650375 0,-0.4284733 0.09192,-0.8111804 0.262827,-1.1458285 -0.06185,-0.014124 -0.12603,-0.025735 -0.191474,-0.035965 -0.04977,-0.00778 -0.104848,-0.014056 -0.151917,-0.014007 z" />
  <path
     id="path5-5"
     style="fill:currentColor;fill-opacity:1;stroke:none;stroke-width:0.0380448"
     d="m 8.3951347,4.4978362 c -2.152375,0 -3.897299,1.762988 -3.897299,3.9376494 0,2.1746624 1.752925,3.9975394 3.897299,3.9977794 1.398985,0.04201 2.6967593,-0.616121 3.1245273,-1.688392 -0.119223,0.05559 -0.247453,0.170336 -0.359479,0.273144 0.0069,-0.0057 0.01377,-0.01141 0.02057,-0.01716 -0.543773,0.578222 -1.4611153,0.892622 -2.3129553,0.892622 -1.648482,0 -2.991648,-1.349959 -2.985101,-3.0154971 0.0015,-0.3748993 0.07121,-0.7116113 0.191222,-1.0128216 0.07829,-0.1233012 0.288157,-0.1055638 0.433103,-0.082909 0.343703,0.053722 0.696132,0.1461818 0.916488,0.503824 0.01857,0.027051 0.03179,0.05827 0.05249,0.083855 0.101899,0.1259756 0.212005,0.1582679 0.32295,0.1634194 0.237078,0.00697 0.349044,-0.1717742 0.359606,-0.4122082 2.99e-4,-0.01886 5.1e-5,-0.00986 -0.0012,-0.026374 -0.0078,-0.1674194 -0.262171,-0.8060883 -0.681735,-0.8257408 -0.0047,-1.498e-4 -0.0094,-8.03e-5 -0.01407,-3.744e-4 -0.232735,-0.014367 -0.413639,-0.2146559 -0.406859,-0.4537257 0.02328,-0.1543104 0.0944,-0.2764754 0.233807,-0.3756754 0.191781,-0.127831 0.391489,-0.238045 0.591014,-0.331823 0.783173,-0.337837 1.222702,-0.426236 1.97745,-0.430128 0.04581,-4.64e-4 0.09094,7.93e-4 0.134568,0.0035 0.4322033,0.02663 0.6636823,0.09277 0.8194573,0.177806 0.08656,-0.0896 0.207362,-0.145248 0.340995,-0.145249 0.26308,0 0.476571,0.215684 0.476571,0.481489 0,0.09019 -0.02455,0.174591 -0.06732,0.246769 0.07757,0.06119 0.142989,0.104744 0.257528,0.145248 0.07137,0.02524 0.128138,0.04703 0.174187,0.06398 -0.04266,-0.06767 -0.06807,-0.153378 -0.06807,-0.246959 0,-0.220268 0.140689,-0.397127 0.315948,-0.397127 0.0074,0 0.01471,3.29e-4 0.02196,9.45e-4 -0.0035,-0.139954 -0.01919,-0.293369 -0.06536,-0.384067 -0.101116,-0.198651 -0.17413,-0.283764 -0.690947,-0.567551 -0.516817,-0.283787 -0.977432,-0.124867 -0.977432,-0.124867 0,0 -0.101107,-0.08515 -0.151665,-0.141904 -0.05056,-0.05676 -0.09555,-0.10783 -0.174192,-0.102154 -0.0595,0.0043 -0.122198,0.125593 -0.149205,0.184367 C 9.5507107,4.6318962 8.9884617,4.4978682 8.3951977,4.4978682 Z m 1.462773,1.363952 c -0.185284,9.56e-4 -0.349389,0.007 -0.502438,0.02057 -0.458564,0.04056 -0.824901,0.144912 -1.40164,0.393532 -0.16592,0.07817 -0.333537,0.174839 -0.499094,0.280715 -0.03692,0.02362 -0.07171,0.04548 -0.103907,0.06732 -0.06885,0.060792 -0.09873,0.1175833 -0.113875,0.2068291 0.0013,0.1372177 0.103712,0.2456099 0.235699,0.2537733 h 3.75e-4 c 3e-4,-7.65e-5 0.0041,4.66e-5 0.0084,1.947e-4 h 0.0012 l 0.0012,6.31e-5 c 0.0016,7.65e-5 0.0032,1.797e-4 0.0048,2.546e-4 0.05385,-0.037387 0.109391,-0.073296 0.166365,-0.1077054 0.293226,-0.1770972 0.86831,-0.3521834 1.639168,-0.2347811 0.387613,0.059033 0.700626,0.1426205 1.1801993,0.2971204 0.285782,0.092068 0.512234,0.2040861 0.704132,0.2913786 0.193408,0.08798 0.354618,0.1520721 0.535811,0.1731362 0.121844,0.014164 0.247018,-0.018009 0.345032,-0.084297 -0.09197,-0.032146 -0.178186,-0.092522 -0.240179,-0.1587501 -0.11374,-0.1215107 -0.187528,-0.3101927 -0.09179,-0.5116476 -0.053,-0.020302 -0.09847,-0.042054 -0.141445,-0.067071 -0.02531,-0.014727 -0.04859,-0.029944 -0.07085,-0.045618 -0.0268,-0.01887 -0.05159,-0.03781 -0.07646,-0.05748 -0.0798,0.06085 -0.179128,0.096979 -0.286737,0.096979 -0.263057,0 -0.476572,-0.2156828 -0.476572,-0.4814878 0,-0.06413 0.01246,-0.125365 0.03502,-0.181338 -0.05515,-0.02867 -0.123979,-0.05549 -0.219864,-0.0795 -0.121331,-0.03039 -0.285237,-0.05523 -0.5101353,-0.06909 -0.03933,-0.0024 -0.08017,-0.0035 -0.121571,-0.0031 h -4.5e-4 z m 1.2940113,0.03559 a 0.29436185,0.29740989 0 0 0 -0.294372,0.297436 0.29436185,0.29740989 0 0 0 0.294372,0.297372 0.29436185,0.29740989 0 0 0 0.29437,-0.297372 0.29436185,0.29740989 0 0 0 -0.29437,-0.297436 z m 1.088846,0.314661 a 0.152592,0.19178048 0 0 0 -0.152549,0.191812 0.152592,0.19178048 0 0 0 0.152549,0.19175 0.152592,0.19178048 0 0 0 0.152611,-0.19175 0.152592,0.19178048 0 0 0 -0.152611,-0.191812 z m -0.07741,0.4736633 c 0,0 -0.03821,0.066772 -0.120625,0.1067589 -0.03384,0.01642 -0.0933,-0.02476 -0.149079,0.032495 -0.118436,0.2401937 0.170905,0.4407244 0.305728,0.4350485 0.134821,-0.00568 0.241189,-0.1429737 0.235573,-0.2621648 -0.0056,-0.1844616 -0.271597,-0.3121374 -0.271597,-0.3121376 z M 8.7904477,6.8911443 c -0.02095,1.046e-4 -0.04243,-2.996e-4 -0.0629,2.546e-4 -0.10131,0.00276 -0.197201,0.010322 -0.286233,0.022525 -0.01758,0.00241 -0.03383,0.00561 -0.05091,0.00833 -0.07878,0.012542 -0.152955,0.027753 -0.220936,0.045619 -0.01136,0.00299 -0.02384,0.00548 -0.03489,0.00858 -0.07336,0.020604 -0.13897,0.043783 -0.198287,0.067955 -0.01311,0.00534 -0.02552,0.010714 -0.03792,0.016153 -0.05634,0.024721 -0.108372,0.050119 -0.149709,0.075085 -0.0069,0.00415 -0.01373,0.00836 -0.02057,0.012556 0.171881,0.083137 0.304078,0.2349738 0.395756,0.378388 0.113367,0.1773458 0.206778,0.4115158 0.215131,0.5550581 v 6.31e-5 6.32e-5 c 1.8e-5,7.64e-5 5.7e-5,2.097e-4 6.4e-5,2.545e-4 v 1.263e-4 c 0.001,0.011287 0.0022,0.013388 0.0017,0.041959 v 0.00259 l -1.95e-4,0.00259 c -0.01403,0.3193233 -0.189263,0.5985782 -0.546915,0.5880573 l -0.0015,-6.32e-5 -0.0015,-6.31e-5 c -0.149075,-0.00692 -0.314431,-0.056171 -0.455689,-0.2308062 -0.02658,-0.032852 -0.05845,-0.091496 -0.06113,-0.095402 l -0.0026,-0.00379 -0.0024,-0.00379 c -0.09088,-0.1474911 -0.201073,-0.2337683 -0.334117,-0.2963001 -0.02723,-0.0128 -0.05549,-0.024462 -0.0846,-0.035082 -0.0059,0.011078 -0.01169,0.022241 -0.01741,0.033441 -0.0079,0.015404 -0.01376,0.032065 -0.02126,0.0477 -0.02488,0.051847 -0.04957,0.1038556 -0.07041,0.1582457 -0.02703,0.070609 -0.05064,0.1433478 -0.0706,0.2182498 -1.7e-5,6.54e-5 -4.6e-5,1.243e-4 -6.3e-5,1.947e-4 -0.05254,0.1972376 -0.08012,0.4093627 -0.08012,0.6364522 0,0.2694941 0.0409,0.5260491 0.116713,0.7650422 0.07581,0.2389936 0.186519,0.4604236 0.326231,0.6596726 0.09314,0.132831 0.199194,0.255791 0.316327,0.367535 0.117133,0.111744 0.245351,0.212295 0.382948,0.300212 0.0688,0.04396 0.139923,0.08473 0.213176,0.122218 0.366275,0.187456 0.785467,0.291879 1.230039,0.291883 0.112541,-2.2e-5 0.256192,-0.0096 0.41752,-0.03155 0.04172,-0.0057 0.08465,-0.01214 0.128512,-0.01949 0.120879,-0.03054 0.23972,-0.06743 0.3549363,-0.110482 0.37777,-0.141156 0.71558,-0.348393 0.962796,-0.607553 l -0.0017,-0.002 c 0.106231,-0.09746 0.254883,-0.233801 0.405565,-0.304056 l 0.231871,-0.108086 c 0.240901,-0.4748282 0.376828,-1.0130362 0.376828,-1.5832748 0,-0.4209322 -0.07403,-0.8244053 -0.209707,-1.1977567 -0.04921,0.00491 -0.09913,0.00464 -0.148763,-0.00114 C 11.272001,7.6384805 10.966824,7.3919028 10.418948,7.2153985 9.9468807,7.0633165 9.6407647,6.9818885 9.2670137,6.924966 9.2275237,6.918956 9.1886037,6.913749 9.1502997,6.909318 9.0228177,6.89458 8.9041467,6.890583 8.7904427,6.891147 Z m -2.463547,1.0593863 c -0.05369,7.66e-5 -0.08343,0.010492 -0.0947,0.014449 -0.01212,0.032516 -0.02412,0.069831 -0.03748,0.1103555 -0.01201,0.03644 -0.02266,0.065611 -0.02965,0.089975 -0.01147,0.039978 -0.02175,0.086583 -0.03325,0.1373607 -0.0084,0.037168 -0.01607,0.065186 -0.02019,0.086947 -0.0091,0.048263 -0.01609,0.1032318 -0.02341,0.1620312 -0.0039,0.031165 -0.0092,0.061749 -0.01053,0.075779 -0.0078,0.08185 -0.01209,0.1654845 -0.01243,0.2513123 -3.9e-4,0.097802 0.0042,0.1942615 0.01344,0.2894225 -1.94e-4,-0.00192 0.0039,0.022174 0.0055,0.036407 0.01744,0.1577028 0.04855,0.3113348 0.0911,0.4608551 0.0046,0.016223 0.01304,0.053043 0.01356,0.05477 v 1.262e-4 c 0.0011,0.00351 0.0022,0.00693 0.0033,0.010409 0.02636,0.084831 0.05661,0.1679663 0.0906,0.2492939 0.106076,0.25386 0.248084,0.488902 0.419665,0.698665 0.05719,0.06992 0.117667,0.137018 0.181191,0.201088 0.187265,0.188868 0.400972,0.351222 0.634797,0.480857 l 0.005,0.0028 c 0.0024,0.0013 0.0048,0.0027 0.0073,0.004 h 6.3e-5 c 0.09836,0.05388 0.200221,0.102008 0.30516,0.143922 -0.849132,-0.446473 -1.4282,-1.31381 -1.4282,-2.3650377 0,-0.4284733 0.09192,-0.8111804 0.262827,-1.1458285 -0.06185,-0.014124 -0.12603,-0.025735 -0.191474,-0.035965 -0.04977,-0.00778 -0.104848,-0.014056 -0.151917,-0.014007 z"
     class="ColorScheme-Text" />
  <path
     id="gradient-path1"
     style="opacity:0.3;baseline-shift:baseline;display:inline;overflow:visible;vector-effect:none;enable-background:accumulate;stop-color:#000000;stop-opacity:1;fill:url(#linearGradient4)"
     d="M 8.4453131 1.2753492 C 4.4913166 1.2753492 1.2794833 4.4784283 1.2794833 8.4236094 C 1.2794833 12.36879 4.4913166 15.572386 8.4453131 15.572386 C 12.39931 15.572386 15.611143 12.36879 15.611143 8.4236094 C 15.611143 4.4784283 12.39931 1.2753492 8.4453131 1.2753492 z " />
</svg>
