<?xml version="1.0" encoding="UTF-8" standalone="no"?>
<svg
   width="64"
   height="64"
   version="1.1"
   viewBox="0 0 16.933 16.933"
   id="svg7"
   sodipodi:docname="lutris.svg"
   inkscape:version="1.4.3 (0d15f75042, 2025-12-25)"
   xmlns:inkscape="http://www.inkscape.org/namespaces/inkscape"
   xmlns:sodipodi="http://sodipodi.sourceforge.net/DTD/sodipodi-0.dtd"
   xmlns:xlink="http://www.w3.org/1999/xlink"
   xmlns="http://www.w3.org/2000/svg"
   xmlns:svg="http://www.w3.org/2000/svg"
   xmlns:rdf="http://www.w3.org/1999/02/22-rdf-syntax-ns#"
   xmlns:cc="http://creativecommons.org/ns#"
   xmlns:dc="http://purl.org/dc/elements/1.1/">
  <sodipodi:namedview
     id="namedview7"
     pagecolor="#9c4444"
     bordercolor="#000000"
     borderopacity="0.25"
     inkscape:showpageshadow="2"
     inkscape:pageopacity="0.0"
     inkscape:pagecheckerboard="0"
     inkscape:deskcolor="#d1d1d1"
     inkscape:zoom="8.7062522"
     inkscape:cx="71.730061"
     inkscape:cy="15.276378"
     inkscape:window-width="2560"
     inkscape:window-height="1388"
     inkscape:window-x="0"
     inkscape:window-y="0"
     inkscape:window-maximized="1"
     inkscape:current-layer="svg7"
     showgrid="false" />
  <defs
     id="defs2">
    <filter
       style="color-interpolation-filters:sRGB;"
       inkscape:label="Blur"
       id="filter3"
       x="-0.10843471"
       y="-0.10870992"
       width="1.2168694"
       height="1.2174198">
      <feGaussianBlur
         stdDeviation="0.5 0.5"
         result="blur"
         id="feGaussianBlur3" />
    </filter>
    <style
       id="current-color-scheme"
       type="text/css">.ColorScheme-Text {color:#d8dee9} .ColorScheme-Highlight {color:#3b4252}</style>
    <linearGradient
       id="linearGradient3"
       inkscape:collect="always">
      <stop
         style="stop-color:#000000;stop-opacity:1;"
         offset="0"
         id="stop3" />
      <stop
         style="stop-color:#000000;stop-opacity:0;"
         offset="1"
         id="stop4" />
    </linearGradient>
    <linearGradient
       inkscape:collect="always"
       xlink:href="#linearGradient3"
       id="linearGradient4"
       x1="13.512321"
       y1="13.490874"
       x2="3.3783066"
       y2="3.3568602"
       gradientUnits="userSpaceOnUse" />
  </defs>
  <metadata
     id="metadata2">
    <rdf:RDF>
      <cc:Work
         rdf:about="">
        <dc:format>image/svg+xml</dc:format>
        <dc:type
           rdf:resource="http://purl.org/dc/dcmitype/StillImage" />
      </cc:Work>
    </rdf:RDF>
  </metadata>
  <ellipse
     style="opacity:1;fill:none;stroke:#000000;stroke-width:0.582072;stroke-dasharray:none;stroke-opacity:1;filter:url(#filter3)"
     id="path1-5"
     cx="8.4450111"
     cy="8.423522"
     rx="6.8752708"
     ry="6.8578653" />
  <ellipse
     style="opacity:1;fill:none;stroke-width:0.58207188;stroke-opacity:1;stroke:currentColor;stroke-dasharray:none;fill-opacity:1"
     id="path1"
     cx="8.4450111"
     cy="8.423522"
     rx="6.8752708"
     ry="6.8578653"
     class="ColorScheme-Text" />
  <ellipse
     style="fill:currentColor;stroke:none;stroke-width:0.285844;stroke-dasharray:none;stroke-opacity:1"
     id="path1-2"
     cx="8.4557552"
     cy="8.423522"
     rx="6.5738997"
     ry="6.5692253"
     class="ColorScheme-Highlight" />
  <path
     id="path5-6"
     style="opacity:0.3;fill:#000000;fill-opacity:1;stroke:none;stroke-width:0.0380442"
     d="m 8.3951706,5.0269934 c -2.152341,0 -3.897231,1.7629687 -3.897231,3.9375957 0,2.1746279 1.752892,3.9976099 3.897231,3.9978509 1.398963,0.04201 2.6966934,-0.616333 3.1244544,-1.688586 -0.119221,0.05558 -0.247454,0.170386 -0.359479,0.273192 0.0069,-0.0057 0.01367,-0.01151 0.02047,-0.01726 -0.543764,0.578213 -1.4609484,0.892701 -2.3127744,0.892701 -1.648456,0 -2.99148,-1.349841 -2.984933,-3.0153528 0.0015,-0.3748922 0.07099,-0.7117107 0.191002,-1.0129163 0.07829,-0.1232992 0.288245,-0.1054316 0.433188,-0.082777 0.343697,0.053721 0.696042,0.1460435 0.916394,0.50368 0.01857,0.027051 0.03196,0.058362 0.05265,0.083947 0.101897,0.1259735 0.211973,0.1583544 0.322916,0.1635059 0.237074,0.00697 0.348918,-0.1719909 0.359479,-0.412421 3e-4,-0.01886 1.27e-4,-0.00981 -0.0012,-0.026325 -0.0078,-0.1674167 -0.262254,-0.8060671 -0.681811,-0.8257193 -0.0047,-1.497e-4 -0.0094,1.7e-6 -0.01404,-2.924e-4 -0.232729,-0.014366 -0.413641,-0.214597 -0.406861,-0.4536629 0.02328,-0.1543075 0.0946,-0.2766603 0.233997,-0.3758588 0.191778,-0.1278285 0.391323,-0.2379153 0.590844,-0.331692 0.783161,-0.337831 1.222837,-0.426371 1.977573,-0.430263 0.04581,-4.64e-4 0.09092,8.21e-4 0.134549,0.0035 0.4321964,0.02663 0.6635124,0.09281 0.8192844,0.177839 0.08656,-0.0896 0.207421,-0.145371 0.341052,-0.145371 0.263076,0 0.476477,0.215942 0.476477,0.4817423 0,0.09019 -0.02451,0.1743978 -0.06727,0.246575 0.07757,0.061188 0.143152,0.1048682 0.25769,0.1453711 0.07137,0.02524 0.127987,0.047105 0.174036,0.064057 -0.04266,-0.067665 -0.06815,-0.1535807 -0.06815,-0.2471601 0,-0.220265 0.140641,-0.3969183 0.315897,-0.3969183 0.0074,0 0.01498,2.61e-4 0.02223,8.77e-4 -0.0035,-0.139951 -0.01935,-0.293352 -0.06552,-0.384048 -0.101114,-0.198648 -0.174069,-0.283954 -0.690878,-0.567737 -0.516808,-0.283783 -0.977525,-0.124604 -0.977525,-0.124604 0,0 -0.100956,-0.0854 -0.151514,-0.142153 -0.05056,-0.05676 -0.09568,-0.107757 -0.174328,-0.102081 -0.0595,0.0043 -0.122167,0.125499 -0.149173,0.184273 C 9.5506286,5.1608784 8.9883996,5.0269844 8.3951456,5.0269844 Z m 2.7567854,1.399598 a 0.29435713,0.29740512 0 0 0 -0.294545,0.2974699 0.29435713,0.29740512 0 0 0 0.294545,0.2971771 0.29435713,0.29740512 0 0 0 0.294252,-0.2971771 0.29435713,0.29740512 0 0 0 -0.294252,-0.2974699 z m 1.088674,0.3144348 a 0.15258956,0.1917774 0 0 0 -0.152391,0.191878 0.15258956,0.1917774 0 0 0 0.152391,0.1918782 0.15258956,0.1917774 0 0 0 0.152683,-0.1918782 0.15258956,0.1917774 0 0 0 -0.152683,-0.191878 z m -0.07722,0.4738452 c 0,0 -0.03839,0.066775 -0.120801,0.1067615 -0.03384,0.016419 -0.09311,-0.024786 -0.148882,0.032467 -0.118434,0.2401899 0.170839,0.4406189 0.30566,0.4349432 0.134819,-0.00568 0.241077,-0.1428882 0.235461,-0.2620774 C 12.429248,7.3425069 12.16341,7.2148713 12.16341,7.2148714 Z m -3.3730764,0.205333 c -0.02086,9.95e-5 -0.04252,-2.591e-4 -0.06289,2.925e-4 -0.101308,0.00276 -0.197031,0.010319 -0.286063,0.022522 -0.01758,0.00241 -0.03381,0.00576 -0.0509,0.00848 -0.07878,0.012542 -0.152855,0.027764 -0.220835,0.04563 -0.01135,0.00299 -0.02405,0.00538 -0.0351,0.00848 -0.07335,0.020603 -0.138997,0.043688 -0.198314,0.067859 -0.01311,0.00534 -0.02533,0.010649 -0.03773,0.016088 -0.05634,0.02472 -0.108422,0.050207 -0.149758,0.075172 -0.0069,0.00415 -0.01364,0.00838 -0.02047,0.012577 0.171878,0.083136 0.304073,0.2350793 0.395749,0.3784912 0.113366,0.1773429 0.206633,0.4113269 0.214985,0.554867 v 2.925e-4 2.925e-4 c 10e-4,0.011287 0.0022,0.013257 0.0018,0.041827 v 0.00263 l -2.92e-4,0.00263 c -0.01403,0.3193187 -0.189031,0.5987328 -0.546678,0.5882121 l -0.0018,-2.925e-4 h -0.0015 c -0.149075,-0.00692 -0.314457,-0.056148 -0.455713,-0.2307802 -0.02658,-0.032852 -0.05845,-0.091448 -0.06113,-0.095354 l -0.0027,-0.0038 -0.0023,-0.0038 c -0.09088,-0.1474862 -0.200993,-0.2337662 -0.334035,-0.296297 -0.02723,-0.0128 -0.05543,-0.02448 -0.08453,-0.0351 -0.0059,0.011078 -0.01183,0.022145 -0.01755,0.033345 -0.0079,0.015404 -0.01385,0.032042 -0.02135,0.047677 -0.02488,0.051846 -0.04937,0.1041442 -0.0702,0.1585334 -0.02703,0.070608 -0.05082,0.143302 -0.07079,0.2182029 -0.05254,0.1972345 -0.08014,0.4093878 -0.08014,0.6364736 0,0.2694901 0.0409,0.5261836 0.116706,0.7651726 0.07581,0.23899 0.186718,0.460335 0.326427,0.659581 0.09314,0.13283 0.199059,0.255927 0.31619,0.367669 0.117131,0.111742 0.245284,0.212186 0.382878,0.300102 0.0688,0.04396 0.139978,0.08478 0.213231,0.122264 0.366269,0.187453 0.785385,0.291908 1.22995,0.291912 0.11254,-2.1e-5 0.256361,-0.0097 0.417686,-0.03159 0.04172,-0.0057 0.08455,-0.01224 0.128406,-0.0196 0.120877,-0.03054 0.239877,-0.06751 0.3550924,-0.110564 0.377764,-0.141154 0.715396,-0.34836 0.962608,-0.607517 l -0.0018,-0.002 c 0.10623,-0.09745 0.255013,-0.23365 0.405693,-0.303904 l 0.231951,-0.108224 c 0.240898,-0.474821 0.376736,-1.0130573 0.376736,-1.5832871 0,-0.4209255 -0.07405,-0.8241377 -0.20972,-1.1974831 -0.04921,0.00491 -0.09896,0.0046 -0.148589,-0.00117 C 11.272024,8.1676858 10.966709,7.9210832 10.418842,7.7445817 9.9467826,7.5925021 9.6407336,7.5110536 9.2669876,7.454132 9.2274976,7.448122 9.1885776,7.442768 9.1502816,7.438337 9.0229056,7.423611 8.9041286,7.419647 8.7905106,7.420202 Z"
     class="ColorScheme-Text" />
  <path
     id="path5-6-6"
     style="fill:currentColor;fill-opacity:1;stroke:none;stroke-width:0.0380442"
     d="m 8.3951706,4.4978326 c -2.152341,0 -3.897231,1.7629687 -3.897231,3.9375957 0,2.1746277 1.752892,3.9976097 3.897231,3.9978507 1.398963,0.04201 2.6966934,-0.616333 3.1244544,-1.688586 -0.119221,0.05558 -0.247454,0.170386 -0.359479,0.273192 0.0069,-0.0057 0.01367,-0.01151 0.02047,-0.01726 -0.543764,0.578213 -1.4609484,0.892701 -2.3127744,0.892701 -1.648456,0 -2.99148,-1.349841 -2.984933,-3.0153526 0.0015,-0.3748922 0.07099,-0.7117107 0.191002,-1.0129163 0.07829,-0.1232992 0.288245,-0.1054316 0.433188,-0.082777 0.343697,0.053721 0.696042,0.1460435 0.916394,0.50368 0.01857,0.027051 0.03196,0.058362 0.05265,0.083947 0.101897,0.1259735 0.211973,0.1583544 0.322916,0.1635059 0.237074,0.00697 0.348918,-0.1719909 0.359479,-0.412421 3e-4,-0.01886 1.27e-4,-0.00981 -0.0012,-0.026325 -0.0078,-0.1674167 -0.262254,-0.8060671 -0.681811,-0.8257193 -0.0047,-1.497e-4 -0.0094,1.7e-6 -0.01404,-2.924e-4 -0.232729,-0.014366 -0.413641,-0.214597 -0.406861,-0.4536629 0.02328,-0.1543075 0.0946,-0.2766603 0.233997,-0.3758588 0.191778,-0.1278285 0.391323,-0.2379153 0.590844,-0.331692 0.783161,-0.337831 1.222837,-0.426371 1.977573,-0.430263 0.04581,-4.64e-4 0.09092,8.21e-4 0.134549,0.0035 0.4321964,0.02663 0.6635124,0.09281 0.8192844,0.177839 0.08656,-0.0896 0.207421,-0.145371 0.341052,-0.145371 0.263076,0 0.476477,0.215942 0.476477,0.4817423 0,0.09019 -0.02451,0.1743978 -0.06727,0.246575 0.07757,0.061188 0.143152,0.1048682 0.25769,0.1453711 0.07137,0.02524 0.127987,0.047105 0.174036,0.064057 -0.04266,-0.067665 -0.06815,-0.1535807 -0.06815,-0.2471601 0,-0.220265 0.140641,-0.3969183 0.315897,-0.3969183 0.0074,0 0.01498,2.61e-4 0.02223,8.77e-4 -0.0035,-0.139951 -0.01935,-0.293352 -0.06552,-0.384048 -0.101114,-0.198648 -0.174069,-0.283954 -0.690878,-0.567737 -0.516808,-0.283783 -0.977525,-0.124604 -0.977525,-0.124604 0,0 -0.100956,-0.0854 -0.151514,-0.142153 -0.05056,-0.05676 -0.09568,-0.107757 -0.174328,-0.102081 -0.0595,0.0043 -0.122167,0.125499 -0.149173,0.184273 C 9.5506286,4.6317176 8.9883996,4.4978236 8.3951456,4.4978236 Z m 2.7567854,1.399598 a 0.29435713,0.29740512 0 0 0 -0.294545,0.2974699 0.29435713,0.29740512 0 0 0 0.294545,0.2971771 0.29435713,0.29740512 0 0 0 0.294252,-0.2971771 0.29435713,0.29740512 0 0 0 -0.294252,-0.2974699 z m 1.088674,0.3144348 a 0.15258956,0.1917774 0 0 0 -0.152391,0.191878 0.15258956,0.1917774 0 0 0 0.152391,0.1918782 0.15258956,0.1917774 0 0 0 0.152683,-0.1918782 0.15258956,0.1917774 0 0 0 -0.152683,-0.191878 z m -0.07722,0.4738452 c 0,0 -0.03839,0.066775 -0.120801,0.1067615 -0.03384,0.016419 -0.09311,-0.024786 -0.148882,0.032467 -0.118434,0.2401899 0.170839,0.4406189 0.30566,0.4349432 0.134819,-0.00568 0.241077,-0.1428882 0.235461,-0.2620774 C 12.429248,6.8133461 12.16341,6.6857105 12.16341,6.6857106 Z m -3.3730764,0.205333 c -0.02086,9.95e-5 -0.04252,-2.591e-4 -0.06289,2.925e-4 -0.101308,0.00276 -0.197031,0.010319 -0.286063,0.022522 -0.01758,0.00241 -0.03381,0.00576 -0.0509,0.00848 -0.07878,0.012542 -0.152855,0.027764 -0.220835,0.04563 -0.01135,0.00299 -0.02405,0.00538 -0.0351,0.00848 -0.07335,0.020603 -0.138997,0.043688 -0.198314,0.067859 -0.01311,0.00534 -0.02533,0.010649 -0.03773,0.016088 -0.05634,0.02472 -0.108422,0.050207 -0.149758,0.075172 -0.0069,0.00415 -0.01364,0.00838 -0.02047,0.012577 0.171878,0.083136 0.304073,0.2350793 0.395749,0.3784912 0.113366,0.1773429 0.206633,0.4113269 0.214985,0.554867 v 2.925e-4 2.925e-4 c 10e-4,0.011287 0.0022,0.013257 0.0018,0.041827 v 0.00263 l -2.92e-4,0.00263 c -0.01403,0.3193187 -0.189031,0.5987328 -0.546678,0.5882121 l -0.0018,-2.925e-4 h -0.0015 c -0.149075,-0.00692 -0.314457,-0.056148 -0.455713,-0.2307802 -0.02658,-0.032852 -0.05845,-0.091448 -0.06113,-0.095354 l -0.0027,-0.0038 -0.0023,-0.0038 c -0.09088,-0.1474862 -0.200993,-0.2337662 -0.334035,-0.296297 -0.02723,-0.0128 -0.05543,-0.02448 -0.08453,-0.0351 -0.0059,0.011078 -0.01183,0.022145 -0.01755,0.033345 -0.0079,0.015404 -0.01385,0.032042 -0.02135,0.047677 -0.02488,0.051846 -0.04937,0.1041442 -0.0702,0.1585334 -0.02703,0.070608 -0.05082,0.143302 -0.07079,0.2182029 -0.05254,0.1972345 -0.08014,0.4093878 -0.08014,0.6364736 0,0.2694901 0.0409,0.5261836 0.116706,0.7651729 0.07581,0.2389895 0.186718,0.4603345 0.326427,0.6595805 0.09314,0.13283 0.199059,0.255927 0.31619,0.367669 0.117131,0.111742 0.245284,0.212186 0.382878,0.300102 0.0688,0.04396 0.139978,0.08478 0.213231,0.122264 0.366269,0.187453 0.785385,0.291908 1.22995,0.291912 0.11254,-2.1e-5 0.256361,-0.0097 0.417686,-0.03159 0.04172,-0.0057 0.08455,-0.01224 0.128406,-0.0196 0.120877,-0.03054 0.239877,-0.06751 0.3550924,-0.110564 0.377764,-0.141154 0.715396,-0.34836 0.962608,-0.607517 l -0.0018,-0.002 c 0.10623,-0.09745 0.255013,-0.23365 0.405693,-0.303904 l 0.231951,-0.108224 c 0.240898,-0.4748209 0.376736,-1.0130571 0.376736,-1.5832869 0,-0.4209255 -0.07405,-0.8241377 -0.20972,-1.1974831 -0.04921,0.00491 -0.09896,0.0046 -0.148589,-0.00117 C 11.272024,7.638525 10.966709,7.3919224 10.418842,7.2154209 9.9467826,7.0633413 9.6407336,6.9818928 9.2669876,6.9249712 c -0.03949,-0.00601 -0.07841,-0.011364 -0.116706,-0.015795 -0.127376,-0.014726 -0.246153,-0.01869 -0.359771,-0.018135 z"
     class="ColorScheme-Text" />
  <path
     id="gradient-path1"
     style="opacity:0.3;baseline-shift:baseline;display:inline;overflow:visible;vector-effect:none;enable-background:accumulate;stop-color:#000000;stop-opacity:1;fill:url(#linearGradient4)"
     d="M 8.4453131 1.2753492 C 4.4913166 1.2753492 1.2794833 4.4784283 1.2794833 8.4236094 C 1.2794833 12.36879 4.4913166 15.572386 8.4453131 15.572386 C 12.39931 15.572386 15.611143 12.36879 15.611143 8.4236094 C 15.611143 4.4784283 12.39931 1.2753492 8.4453131 1.2753492 z " />
</svg>
