<?xml version="1.0" encoding="UTF-8" standalone="no"?>
<svg
   width="64"
   height="64"
   version="1.1"
   viewBox="0 0 16.933 16.933"
   id="svg7"
   sodipodi:docname="mailspring.svg"
   inkscape:version="1.4.2 (ebf0e940d0, 2025-05-08)"
   xmlns:inkscape="http://www.inkscape.org/namespaces/inkscape"
   xmlns:sodipodi="http://sodipodi.sourceforge.net/DTD/sodipodi-0.dtd"
   xmlns:xlink="http://www.w3.org/1999/xlink"
   xmlns="http://www.w3.org/2000/svg"
   xmlns:svg="http://www.w3.org/2000/svg"
   xmlns:rdf="http://www.w3.org/1999/02/22-rdf-syntax-ns#"
   xmlns:cc="http://creativecommons.org/ns#"
   xmlns:dc="http://purl.org/dc/elements/1.1/">
  <sodipodi:namedview
     id="namedview7"
     pagecolor="#9c4444"
     bordercolor="#000000"
     borderopacity="0.25"
     inkscape:showpageshadow="2"
     inkscape:pageopacity="0.0"
     inkscape:pagecheckerboard="0"
     inkscape:deskcolor="#d1d1d1"
     inkscape:zoom="8.7062522"
     inkscape:cx="72.534081"
     inkscape:cy="15.276378"
     inkscape:window-width="2560"
     inkscape:window-height="1388"
     inkscape:window-x="0"
     inkscape:window-y="0"
     inkscape:window-maximized="1"
     inkscape:current-layer="svg7"
     showgrid="false" />
  <defs
     id="defs2">
    <filter
       style="color-interpolation-filters:sRGB;"
       inkscape:label="Blur"
       id="filter3"
       x="-0.10843471"
       y="-0.10870992"
       width="1.2168694"
       height="1.2174198">
      <feGaussianBlur
         stdDeviation="0.5 0.5"
         result="blur"
         id="feGaussianBlur3" />
    </filter>
    <style
       id="current-color-scheme"
       type="text/css">.ColorScheme-Text {color:#d8dee9} .ColorScheme-Highlight {color:#3b4252}</style>
    <linearGradient
       id="linearGradient3"
       inkscape:collect="always">
      <stop
         style="stop-color:#000000;stop-opacity:1;"
         offset="0"
         id="stop3" />
      <stop
         style="stop-color:#000000;stop-opacity:0;"
         offset="1"
         id="stop4" />
    </linearGradient>
    <linearGradient
       inkscape:collect="always"
       xlink:href="#linearGradient3"
       id="linearGradient4"
       x1="13.512321"
       y1="13.490874"
       x2="3.3783066"
       y2="3.3568602"
       gradientUnits="userSpaceOnUse" />
  </defs>
  <metadata
     id="metadata2">
    <rdf:RDF>
      <cc:Work
         rdf:about="">
        <dc:format>image/svg+xml</dc:format>
        <dc:type
           rdf:resource="http://purl.org/dc/dcmitype/StillImage" />
      </cc:Work>
    </rdf:RDF>
  </metadata>
  <ellipse
     style="opacity:1;fill:none;stroke:#000000;stroke-width:0.582072;stroke-dasharray:none;stroke-opacity:1;filter:url(#filter3)"
     id="path1-5"
     cx="8.4450111"
     cy="8.423522"
     rx="6.8752708"
     ry="6.8578653" />
  <ellipse
     style="opacity:1;fill:none;stroke-width:0.58207188;stroke-opacity:1;stroke:currentColor;stroke-dasharray:none;fill-opacity:1"
     id="path1"
     cx="8.4450111"
     cy="8.423522"
     rx="6.8752708"
     ry="6.8578653"
     class="ColorScheme-Text" />
  <ellipse
     style="fill:currentColor;stroke:none;stroke-width:0.285844;stroke-dasharray:none;stroke-opacity:1"
     id="path1-2"
     cx="8.4557552"
     cy="8.423522"
     rx="6.5738997"
     ry="6.5692253"
     class="ColorScheme-Highlight" />
  <path
     style="opacity:0.3;fill:#000000;fill-opacity:1;stroke-width:0.566038"
     d="m 8.2837058,5.0424378 c -0.242252,0.03181 -0.482175,0.04223 -0.722117,0.0989 -0.673174,0.159034 -1.298907,0.492011 -1.805293,0.963718 -0.361083,0.336357 -0.645274,0.739364 -0.865193,1.179255 -0.88244,1.7651089 -0.210284,3.9841802 1.41999,5.0503802 0.802293,0.5247 1.78569,0.719179 2.729956,0.591979 C 10.98317,12.665047 12.479157,10.882816 12.431349,8.9310895 12.388089,7.1651088 11.1613,5.5888128 9.4373328,5.1578208 c -0.359618,-0.0899 -0.782394,-0.164117 -1.153627,-0.115381 m 2.2808342,2.197839 c -0.158514,0.176128 -0.105223,0.122841 -0.158514,0.176128 l -0.334639,0.334641 C 9.6999288,8.1225048 9.3332088,8.4980311 8.9617918,8.869448 l -0.361059,0.3610584 c -0.03009,0.030113 -0.09324,0.1207981 -0.140901,0.1151774 -0.05379,-0.00634 -0.106387,-0.094755 -0.142361,-0.1302736 C 8.1936398,9.0931461 8.0747188,8.9658103 7.9498548,8.8445254 7.5893268,8.4943236 7.2389258,8.1328859 6.8835028,7.7774648 c -0.120961,-0.120962 -0.240539,-0.243113 -0.360032,-0.365337 -0.05287,-0.05406 -0.121102,-0.106257 -0.15954,-0.171849 H 10.56454 m -4.5088292,0.325834 1.364977,1.3649767 v 0.00883 c -0.332596,0.3613471 -0.631752,0.7602338 -0.946454,1.1375095 -0.131532,0.157686 -0.27829,0.313624 -0.42733,0.500468 V 8.4467649 7.8391348 l 0.0088,-0.273 m 4.8346632,0 v 3.0117622 c -0.04833,-0.02355 -0.07841,-0.07378 -0.112308,-0.114487 L 10.572641,10.216836 C 10.326024,9.9208268 10.07569,9.62711 9.8336178,9.3273987 9.7568978,9.2324117 9.6777688,9.1394233 9.5996798,9.0455969 c -0.02269,-0.027283 -0.07607,-0.074247 -0.07309,-0.1128622 0.0026,-0.033679 0.05592,-0.069843 0.07806,-0.09227 0.07982,-0.08083 0.15742,-0.1636415 0.23777,-0.2439905 L 10.555731,7.8831598 c 0.09736,-0.09736 0.220268,-0.211687 0.33464,-0.317027 M 10.634988,10.982985 H 6.3022838 c 0.09988,-0.141057 0.227426,-0.286817 0.332438,-0.413898 0.2478,-0.299881 0.499956,-0.5964057 0.745356,-0.8982451 0.08418,-0.103534 0.17209,-0.2040396 0.255479,-0.3082188 0.02257,-0.028189 0.06089,-0.095049 0.102155,-0.095049 0.05508,0 0.139285,0.1198528 0.176127,0.1566906 0.112384,0.1123867 0.222252,0.2271169 0.33362,0.3404999 0.06014,0.061223 0.120843,0.1247998 0.212371,0.1260734 0.105156,0.0017 0.16874,-0.071711 0.23777,-0.1407395 l 0.325833,-0.3258338 c 0.0362,-0.036226 0.120239,-0.1567811 0.175998,-0.1566906 0.03872,6.23e-5 0.07594,0.068813 0.09771,0.095049 0.08521,0.1026735 0.169888,0.2057603 0.255376,0.3082188 0.249127,0.2985847 0.4979032,0.5975091 0.7444312,0.8982451 0.109693,0.133811 0.251456,0.264085 0.338038,0.413898 z"
     id="path5"
     class="ColorScheme-Text" />
  <path
     style="fill:currentColor;stroke-width:0.566038"
     d="m 8.2837058,4.5132819 c -0.242252,0.03181 -0.482175,0.04223 -0.722117,0.0989 -0.673174,0.159034 -1.298907,0.492011 -1.805293,0.963718 -0.361083,0.336357 -0.645274,0.739364 -0.865193,1.179255 -0.88244,1.7651089 -0.210284,3.9841801 1.41999,5.0503801 0.802293,0.5247 1.78569,0.719179 2.729956,0.591979 C 10.98317,12.135891 12.479157,10.35366 12.431349,8.4019336 12.388089,6.6359529 11.1613,5.0596569 9.4373328,4.6286649 c -0.359618,-0.0899 -0.782394,-0.164117 -1.153627,-0.115381 m 2.2808342,2.197839 c -0.158514,0.176128 -0.105223,0.122841 -0.158514,0.176128 l -0.334639,0.334641 C 9.6999288,7.5933489 9.3332088,7.9688752 8.9617918,8.3402921 l -0.361059,0.3610584 c -0.03009,0.030113 -0.09324,0.1207981 -0.140901,0.1151774 -0.05379,-0.00634 -0.106387,-0.094755 -0.142361,-0.1302736 C 8.1936398,8.5639902 8.0747188,8.4366544 7.9498548,8.3153695 7.5893268,7.9651677 7.2389258,7.60373 6.8835028,7.2483089 c -0.120961,-0.120962 -0.240539,-0.243113 -0.360032,-0.365337 -0.05287,-0.05406 -0.121102,-0.106257 -0.15954,-0.171849 H 10.56454 m -4.5088292,0.325834 1.364977,1.3649767 v 0.00883 c -0.332596,0.3613471 -0.631752,0.7602338 -0.946454,1.1375091 -0.131532,0.1576867 -0.27829,0.3136244 -0.42733,0.5004683 V 7.917609 7.3099789 l 0.0088,-0.273 m 4.8346632,0 v 3.0117621 c -0.04833,-0.02355 -0.07841,-0.073783 -0.112308,-0.1144873 L 10.572641,9.6876803 C 10.326024,9.3916709 10.07569,9.0979541 9.8336178,8.7982428 9.7568978,8.7032558 9.6777688,8.6102674 9.5996798,8.516441 c -0.02269,-0.027283 -0.07607,-0.074247 -0.07309,-0.1128622 0.0026,-0.033679 0.05592,-0.069843 0.07806,-0.09227 0.07982,-0.08083 0.15742,-0.1636415 0.23777,-0.2439905 L 10.555731,7.3540039 c 0.09736,-0.09736 0.220268,-0.211687 0.33464,-0.317027 M 10.634988,10.453829 H 6.3022838 c 0.09988,-0.141057 0.227426,-0.286817 0.332438,-0.413898 0.2478,-0.2998811 0.499956,-0.5964056 0.745356,-0.898245 0.08418,-0.103534 0.17209,-0.2040396 0.255479,-0.3082188 0.02257,-0.028189 0.06089,-0.095049 0.102155,-0.095049 0.05508,0 0.139285,0.1198528 0.176127,0.1566906 0.112384,0.1123867 0.222252,0.2271169 0.33362,0.3404999 0.06014,0.061223 0.120843,0.1247998 0.212371,0.1260734 0.105156,0.0017 0.16874,-0.071711 0.23777,-0.1407395 l 0.325833,-0.3258338 c 0.0362,-0.036226 0.120239,-0.1567811 0.175998,-0.1566906 0.03872,6.23e-5 0.07594,0.068813 0.09771,0.095049 0.08521,0.1026735 0.169888,0.2057603 0.255376,0.3082188 0.249127,0.2985847 0.4979032,0.5975091 0.7444312,0.898245 0.109693,0.133811 0.251456,0.264085 0.338038,0.413898 z"
     id="path5-7"
     class="ColorScheme-Text" />
  <path
     id="gradient-path1"
     style="opacity:0.3;baseline-shift:baseline;display:inline;overflow:visible;vector-effect:none;enable-background:accumulate;stop-color:#000000;stop-opacity:1;fill:url(#linearGradient4)"
     d="M 8.4453131 1.2753492 C 4.4913166 1.2753492 1.2794833 4.4784283 1.2794833 8.4236094 C 1.2794833 12.36879 4.4913166 15.572386 8.4453131 15.572386 C 12.39931 15.572386 15.611143 12.36879 15.611143 8.4236094 C 15.611143 4.4784283 12.39931 1.2753492 8.4453131 1.2753492 z " />
</svg>
