<?xml version="1.0" encoding="UTF-8" standalone="no"?>
<svg
   width="64"
   height="64"
   version="1.1"
   viewBox="0 0 16.933 16.933"
   id="svg7"
   sodipodi:docname="masterpdfeditor.svg"
   inkscape:version="1.4.2 (ebf0e940d0, 2025-05-08)"
   xmlns:inkscape="http://www.inkscape.org/namespaces/inkscape"
   xmlns:sodipodi="http://sodipodi.sourceforge.net/DTD/sodipodi-0.dtd"
   xmlns:xlink="http://www.w3.org/1999/xlink"
   xmlns="http://www.w3.org/2000/svg"
   xmlns:svg="http://www.w3.org/2000/svg"
   xmlns:rdf="http://www.w3.org/1999/02/22-rdf-syntax-ns#"
   xmlns:cc="http://creativecommons.org/ns#"
   xmlns:dc="http://purl.org/dc/elements/1.1/">
  <sodipodi:namedview
     id="namedview7"
     pagecolor="#9c4444"
     bordercolor="#000000"
     borderopacity="0.25"
     inkscape:showpageshadow="2"
     inkscape:pageopacity="0.0"
     inkscape:pagecheckerboard="0"
     inkscape:deskcolor="#d1d1d1"
     inkscape:zoom="8.7062522"
     inkscape:cx="72.419221"
     inkscape:cy="15.276378"
     inkscape:window-width="1763"
     inkscape:window-height="1372"
     inkscape:window-x="0"
     inkscape:window-y="0"
     inkscape:window-maximized="0"
     inkscape:current-layer="svg7"
     showgrid="false" />
  <defs
     id="defs2">
    <filter
       style="color-interpolation-filters:sRGB;"
       inkscape:label="Blur"
       id="filter3"
       x="-0.10843471"
       y="-0.10870992"
       width="1.2168694"
       height="1.2174198">
      <feGaussianBlur
         stdDeviation="0.5 0.5"
         result="blur"
         id="feGaussianBlur3" />
    </filter>
    <style
       id="current-color-scheme"
       type="text/css">.ColorScheme-Text {color:#d8dee9} .ColorScheme-Highlight {color:#3b4252}</style>
    <linearGradient
       id="linearGradient3"
       inkscape:collect="always">
      <stop
         style="stop-color:#000000;stop-opacity:1;"
         offset="0"
         id="stop3" />
      <stop
         style="stop-color:#000000;stop-opacity:0;"
         offset="1"
         id="stop4" />
    </linearGradient>
    <linearGradient
       inkscape:collect="always"
       xlink:href="#linearGradient3"
       id="linearGradient4"
       x1="13.512321"
       y1="13.490874"
       x2="3.3783066"
       y2="3.3568602"
       gradientUnits="userSpaceOnUse" />
  </defs>
  <metadata
     id="metadata2">
    <rdf:RDF>
      <cc:Work
         rdf:about="">
        <dc:format>image/svg+xml</dc:format>
        <dc:type
           rdf:resource="http://purl.org/dc/dcmitype/StillImage" />
      </cc:Work>
    </rdf:RDF>
  </metadata>
  <ellipse
     style="opacity:1;fill:none;stroke:#000000;stroke-width:0.582072;stroke-dasharray:none;stroke-opacity:1;filter:url(#filter3)"
     id="path1-5"
     cx="8.4450111"
     cy="8.423522"
     rx="6.8752708"
     ry="6.8578653" />
  <ellipse
     style="opacity:1;fill:none;stroke-width:0.58207188;stroke-opacity:1;stroke:currentColor;stroke-dasharray:none;fill-opacity:1"
     id="path1"
     cx="8.4450111"
     cy="8.423522"
     rx="6.8752708"
     ry="6.8578653"
     class="ColorScheme-Text" />
  <ellipse
     style="fill:currentColor;stroke:none;stroke-width:0.285844;stroke-dasharray:none;stroke-opacity:1"
     id="path1-2"
     cx="8.4557552"
     cy="8.423522"
     rx="6.5738997"
     ry="6.5692253"
     class="ColorScheme-Highlight" />
  <path
     id="path5"
     style="opacity:0.3;fill:#000000;fill-opacity:1;stroke-width:0.124021"
     d="m 5.484183,5.0269844 c -0.545534,0 -0.986355,0.4410631 -0.986355,0.9865967 v 6.9507469 h 6.947114 c 0.263321,0 0.513817,-0.104505 0.700282,-0.289705 0.185201,-0.186466 0.289948,-0.437204 0.289948,-0.700525 V 5.0269844 Z m 4.807751,1.2 c 0.335735,0.00113 0.417614,0.01883 0.531934,0.1150585 0.126636,0.1065962 0.181292,0.2466232 0.179975,0.4614453 -6.22e-4,0.1028447 -0.02291,0.2135446 -0.05595,0.2783207 -0.07212,0.1413587 -0.190514,0.23836 -0.337424,0.2766249 -0.03931,0.01024 -0.108074,0.013081 -0.30981,0.013081 h -0.25943 l -0.0012,-0.5040775 c -7.36e-4,-0.2772898 -0.0025,-0.5290539 -0.0039,-0.5593056 -0.0038,-0.085578 -0.01484,-0.082064 0.255794,-0.081147 z m 0.935002,0.00485 c 0.02104,-0.00807 0.71028,-0.00553 0.723536,0.00266 0.0083,0.00512 0.01057,0.032174 0.0087,0.1029471 l -0.0024,0.096165 -0.242228,0.00557 c -0.133196,0.00299 -0.243306,0.00589 -0.244651,0.00654 -0.0014,6.453e-4 -0.0014,0.057666 0,0.1266855 l 0.0024,0.1254744 0.212676,-0.0029 c 0.249005,-0.00356 0.231706,-0.011771 0.22721,0.1041583 -0.0016,0.04117 -0.0031,0.081718 -0.0034,0.090109 -4.47e-4,0.013984 -0.01874,0.015525 -0.21849,0.017682 l -0.218005,0.00242 -0.0044,0.2289059 -0.0044,0.2289059 -0.125475,0.00242 -0.125474,0.00242 V 6.8046983 c 0,-0.5163767 0.0012,-0.5678537 0.01429,-0.5728704 z m -2.237949,0.00388 c 0.009,-0.014508 0.507017,-0.011403 0.577957,0.00363 0.117831,0.024976 0.205145,0.089017 0.254582,0.1865161 0.02948,0.058112 0.03047,0.062743 0.03004,0.1615664 -3.84e-4,0.088656 -0.0034,0.1087167 -0.02325,0.1567218 -0.04397,0.1063581 -0.110581,0.1689894 -0.218248,0.2049254 -0.04862,0.016227 -0.07972,0.019137 -0.211465,0.02059 -0.08491,9.396e-4 -0.159146,0.00469 -0.165201,0.00848 -0.0083,0.00516 -0.01114,0.055287 -0.01114,0.2003229 V 7.3715232 H 9.104054 8.985604 l -0.0034,-0.1605975 c -0.0049,-0.2280998 2.36e-4,-0.964622 0.0068,-0.9752121 z m 0.284134,0.200323 c -0.05747,0.00348 -0.05106,0.029437 -0.04893,0.1635041 l 0.0024,0.1511506 0.03537,0.00581 c 0.03914,0.00631 0.152836,0.00272 0.219217,-0.00678 0.03397,-0.00486 0.0511,-0.013731 0.08066,-0.042148 0.03269,-0.031433 0.03822,-0.042482 0.0436,-0.085991 0.0074,-0.060204 -0.0045,-0.1017265 -0.03779,-0.1317723 -0.04727,-0.042688 -0.07846,-0.050605 -0.213161,-0.053048 -0.03594,-6.566e-4 -0.06223,-0.00188 -0.08139,-7.302e-4 z m 1.010335,0.00654 -0.0022,0.3478402 c -0.0012,0.1913081 -1.87e-4,0.3533874 0.0024,0.3601937 0.0039,0.010145 0.02572,0.011369 0.121842,0.00702 0.06448,-0.00292 0.128822,-0.01004 0.142915,-0.015745 0.05895,-0.02386 0.100553,-0.046663 0.116753,-0.064191 0.09725,-0.1052083 0.10663,-0.4071456 0.01647,-0.5321761 -0.02562,-0.035533 -0.0515,-0.053384 -0.129592,-0.088898 -0.01224,-0.00557 -0.07676,-0.010971 -0.145337,-0.012112 z m -3.72935,1.4691164 c 0.06256,-0.016291 1.568293,-0.01584 1.630924,4.828e-4 0.144484,0.037659 0.253347,0.1238504 0.3195,0.2528865 0.02179,0.042497 0.03972,0.081855 0.03972,0.087444 0,0.00559 0.0072,0.020814 0.01599,0.03367 0.0088,0.012857 0.0352,0.066867 0.05862,0.1201454 0.04786,0.1088664 0.08198,0.1834159 0.150908,0.3287041 0.02603,0.054876 0.04748,0.102006 0.04748,0.1046426 0,0.00512 0.03645,0.088123 0.107307,0.2444086 0.05273,0.1163071 0.05317,0.1086209 -0.01647,0.2587001 -0.01202,0.025908 -0.02745,0.063397 -0.0344,0.083084 -0.0069,0.019688 -0.01597,0.040035 -0.02011,0.045297 -0.0041,0.00526 -0.01561,0.031253 -0.02543,0.057893 -0.0098,0.026639 -0.02767,0.070252 -0.03973,0.096891 -0.01205,0.026639 -0.0346,0.078248 -0.0499,0.1145741 -0.01529,0.036326 -0.03728,0.087935 -0.04893,0.114574 -0.01164,0.026639 -0.03571,0.082124 -0.05353,0.1232946 -0.01782,0.041168 -0.0418,0.095542 -0.05329,0.1211144 -0.0115,0.02557 -0.02083,0.0488 -0.02083,0.05159 0,0.0028 -0.01226,0.03153 -0.02713,0.06371 -0.01487,0.03217 -0.03037,0.06637 -0.0344,0.07606 -0.004,0.0097 -0.01895,0.04336 -0.03319,0.07485 -0.01423,0.03148 -0.03095,0.07122 -0.03706,0.08817 -0.01039,0.0288 -0.01808,0.04668 -0.06128,0.142914 -0.02274,0.05067 -0.05354,0.121661 -0.06225,0.143157 -0.004,0.0097 -0.0155,0.03639 -0.02567,0.05935 -0.01017,0.02295 -0.01865,0.0438 -0.01865,0.04627 0,0.0025 -0.01221,0.03124 -0.02713,0.06395 -0.01492,0.03271 -0.03108,0.06928 -0.0361,0.08139 -0.005,0.01211 -0.01345,0.03004 -0.01865,0.03973 -0.0052,0.0097 -0.0167,0.03275 -0.02568,0.05111 -0.009,0.01842 -0.02626,0.037 -0.03851,0.04166 -0.01221,0.0046 -0.02308,0.0081 -0.02398,0.0077 -9.06e-4,-3.72e-4 -0.01449,-0.0051 -0.03028,-0.0109 -0.07484,-0.02714 -0.137206,-0.111162 -0.217033,-0.292125 -0.0235,-0.05328 -0.05184,-0.116759 -0.06298,-0.140977 -0.01114,-0.02422 -0.03893,-0.0877 -0.06153,-0.140977 -0.0226,-0.05328 -0.05091,-0.118563 -0.06298,-0.145094 -0.01207,-0.02653 -0.02904,-0.06602 -0.03779,-0.08793 -0.0087,-0.0219 -0.03054,-0.07365 -0.04845,-0.114817 -0.0179,-0.04117 -0.04553,-0.106347 -0.06153,-0.145094 -0.016,-0.03875 -0.0438,-0.1041677 -0.06177,-0.1453379 -0.01797,-0.041169 -0.04053,-0.094716 -0.05014,-0.1189339 -0.0096,-0.024217 -0.02069,-0.047963 -0.02446,-0.052806 -0.0037,-0.00484 -0.01538,-0.032707 -0.02592,-0.061768 -0.01055,-0.029061 -0.02459,-0.064678 -0.03125,-0.079209 -0.0067,-0.014531 -0.03258,-0.078012 -0.05765,-0.1409771 -0.02506,-0.062965 -0.051,-0.1242652 -0.05741,-0.1363746 -0.0064,-0.012108 -0.02042,-0.045787 -0.03125,-0.074849 -0.01083,-0.029061 -0.02661,-0.066859 -0.03512,-0.083811 -0.0085,-0.016952 -0.03246,-0.074376 -0.05305,-0.1276545 -0.02059,-0.053278 -0.04008,-0.1007673 -0.04336,-0.1056116 -0.0033,-0.00485 -0.01488,-0.032465 -0.02592,-0.061526 -0.01103,-0.029061 -0.02758,-0.069829 -0.03682,-0.090593 -0.0092,-0.020764 -0.0262,-0.062439 -0.03755,-0.092531 -0.02386,-0.063263 -0.111063,-0.2710189 -0.142429,-0.3390831 -0.01178,-0.025561 -0.02156,-0.048555 -0.02156,-0.05111 0,-0.011552 -0.07457,-0.1674529 -0.09956,-0.2080742 -0.03552,-0.057752 -0.0923,-0.1113228 -0.129834,-0.1225676 -0.04706,-0.014097 -0.043,-0.035032 0.0094,-0.048688 z m -0.163747,0.185547 c 0.01192,-6.566e-4 0.02726,0.00409 0.05281,0.013807 0.04965,0.018879 0.124639,0.1277808 0.172709,0.251191 0.0037,0.00969 0.01275,0.031493 0.02011,0.048445 0.0074,0.016952 0.02427,0.058627 0.03755,0.092531 0.01327,0.033904 0.02757,0.066024 0.03173,0.071457 0.0042,0.00543 0.01699,0.037872 0.02858,0.071942 0.02045,0.060104 0.02564,0.072928 0.06613,0.1635043 0.01049,0.023457 0.02718,0.064889 0.03706,0.092289 0.0099,0.0274 0.02597,0.067829 0.03585,0.089625 0.0099,0.021795 0.02312,0.053536 0.02931,0.070488 0.0062,0.016952 0.02971,0.072438 0.05232,0.1232944 0.02261,0.050857 0.04893,0.1140956 0.05838,0.1407347 0.01887,0.053196 0.0683,0.1724615 0.101252,0.2439241 0.01158,0.025128 0.02107,0.050331 0.02107,0.055954 0,0.00967 0.0041,0.020272 0.03851,0.09786 0.0078,0.017684 0.01429,0.034906 0.01429,0.038272 0,0.00337 0.01381,0.035249 0.03076,0.070973 0.01695,0.035723 0.031,0.069074 0.031,0.074122 0,0.00504 0.0036,0.016053 0.008,0.024464 0.01058,0.020066 0.0304,0.066429 0.05208,0.1215987 l 0.01744,0.04433 -0.02398,0.07 c -0.0269,0.0782 -0.03119,0.08811 -0.100525,0.238111 -0.02707,0.05856 -0.05752,0.127861 -0.06782,0.154057 -0.01031,0.0262 -0.02615,0.06153 -0.03512,0.07848 -0.0197,0.03722 -0.07921,0.171871 -0.07921,0.179249 0,0.0044 -0.09388,0.218836 -0.159387,0.364069 -0.0092,0.02032 -0.01672,0.03883 -0.01672,0.04118 0,0.0023 -0.01188,0.03013 -0.02641,0.06153 -0.01453,0.03139 -0.02641,0.05902 -0.02641,0.06153 0,0.0025 -0.01188,0.03037 -0.02641,0.06177 -0.01453,0.03139 -0.02641,0.0589 -0.02641,0.06128 0,0.0024 -0.02733,0.06132 -0.06056,0.130804 -0.03323,0.06948 -0.06319,0.135166 -0.06661,0.146063 l -0.0061,0.01986 H 5.681285 c -1.011792,0 -0.948633,0.0036 -0.920227,-0.05135 0.0076,-0.01462 0.03134,-0.06794 0.05281,-0.118207 0.02147,-0.05027 0.04895,-0.11291 0.06104,-0.139282 0.01209,-0.02637 0.03811,-0.08315 0.05789,-0.126201 0.01978,-0.04305 0.03585,-0.08146 0.03585,-0.08551 0,-0.0041 0.01211,-0.03344 0.02664,-0.06516 0.01453,-0.03173 0.0264,-0.05989 0.0264,-0.0625 0,-0.0026 0.01135,-0.02913 0.02543,-0.0591 0.0391,-0.08318 0.09786,-0.216862 0.09786,-0.22285 0,-0.0029 0.01156,-0.02959 0.02568,-0.05935 0.05017,-0.105746 0.07994,-0.173468 0.07994,-0.181671 0,-0.0046 0.0072,-0.02141 0.01599,-0.0373 0.0088,-0.01589 0.02215,-0.04481 0.02979,-0.06419 0.01378,-0.03494 0.03872,-0.09035 0.08745,-0.195236 0.01393,-0.02997 0.02519,-0.05676 0.02519,-0.05959 0,-0.0028 0.01599,-0.03936 0.03537,-0.0809 0.01938,-0.04155 0.03512,-0.0769 0.03512,-0.07872 0,-0.0018 0.01187,-0.02932 0.02641,-0.06104 0.01453,-0.031727 0.02641,-0.059348 0.02641,-0.061526 0,-0.00221 0.01232,-0.030889 0.02737,-0.063706 0.02663,-0.058046 0.07325,-0.1636977 0.119661,-0.2710539 0.01256,-0.029061 0.03395,-0.07655 0.04747,-0.1056116 C 5.754379,9.456788 5.840593,9.2599874 5.87144,9.1858125 5.88252,9.1591735 5.90787,9.0995685 5.92788,9.0535558 5.9479,9.0075428 5.96763,8.9619898 5.97173,8.9523042 c 0.0041,-0.00969 0.01553,-0.03537 0.02543,-0.057166 0.05182,-0.1141036 0.08221,-0.183024 0.09883,-0.2245458 0.0039,-0.00969 0.01939,-0.044156 0.0344,-0.076544 0.01501,-0.032388 0.02713,-0.062649 0.02713,-0.067339 0,-0.00469 0.0079,-0.023769 0.01744,-0.04239 0.02102,-0.041221 0.08841,-0.1883769 0.08841,-0.1930562 0,-0.015353 0.07663,-0.1575353 0.09471,-0.1756156 0.01177,-0.011766 0.0203,-0.017752 0.03222,-0.018409 z m 3.796932,0.7954785 c 0.06152,-5.086e-4 0.122821,0.00379 0.145337,0.010173 0.07616,0.021601 0.179495,0.1026021 0.310538,0.2431974 0.291464,0.3127131 0.330869,0.3551193 0.38054,0.4098507 0.02878,0.031719 0.08199,0.091323 0.118208,0.1322567 0.03622,0.040933 0.09383,0.1039244 0.128138,0.1402504 0.118606,0.1255975 0.149543,0.1601864 0.162536,0.1814295 0.0063,0.01026 0.01357,0.01883 0.01744,0.02083 1.23e-4,5.3e-5 6.22e-4,2.1e-4 7.35e-4,2.48e-4 l 2.48e-4,2.48e-4 h 2.48e-4 2.48e-4 2.48e-4 2.48e-4 c 0.01476,0.0065 0.125462,0.141088 0.127412,0.154784 v 2.48e-4 2.48e-4 2.47e-4 l -2.48e-4,2.49e-4 c -1.12e-4,8.6e-5 -6.22e-4,4.09e-4 -7.35e-4,4.83e-4 -0.0041,0.0019 -0.01484,-3.8e-5 -0.02471,-0.0051 -0.03608,-0.01846 -0.09786,-0.02753 -0.187001,-0.02762 -0.08119,-7.9e-5 -0.188358,0.01709 -0.210738,0.03367 -0.0052,0.0038 -0.02737,0.01221 -0.04917,0.01889 -0.0218,0.0067 -0.08503,0.02977 -0.140735,0.05111 -0.0557,0.02135 -0.13394,0.05002 -0.173678,0.06371 -0.03974,0.01369 -0.08529,0.03076 -0.101252,0.03803 -0.01596,0.0073 -0.04869,0.01967 -0.07291,0.02762 -0.02422,0.0079 -0.0579,0.02054 -0.07485,0.02786 -0.01695,0.0073 -0.04455,0.01915 -0.06128,0.0264 -0.01673,0.0072 -0.04847,0.01921 -0.07049,0.0264 -0.02202,0.0072 -0.05256,0.01874 -0.06782,0.02568 -0.01526,0.0069 -0.03053,0.01259 -0.03391,0.01259 -0.0034,0 -0.02059,0.0063 -0.03828,0.01405 -0.05753,0.02524 -0.06672,0.02884 -0.110698,0.04311 -0.02387,0.0077 -0.05367,0.01946 -0.06613,0.02592 -0.01246,0.0065 -0.06226,0.02636 -0.110698,0.04433 -0.04844,0.01797 -0.113855,0.0425 -0.145337,0.0545 -0.03148,0.012 -0.07897,0.02941 -0.105612,0.03876 -0.02664,0.0094 -0.05644,0.02051 -0.06613,0.02471 -0.05102,0.02208 -0.06458,0.02712 -0.09689,0.03682 -0.01938,0.0058 -0.03924,0.0136 -0.04409,0.0172 -0.0049,0.0036 -0.0344,0.01522 -0.06589,0.02592 -0.03148,0.0107 -0.07752,0.02923 -0.10222,0.04094 -0.0247,0.01171 -0.0499,0.02107 -0.05595,0.02107 -0.0061,0 -0.0235,0.0056 -0.03876,0.01235 -0.01526,0.0068 -0.04942,0.02064 -0.07606,0.03076 -0.02664,0.01013 -0.08514,0.03239 -0.129834,0.04941 -0.0447,0.01702 -0.08344,0.03076 -0.08623,0.03076 -0.0028,0 -0.02377,0.0085 -0.04651,0.01889 -0.02274,0.01037 -0.06517,0.028 -0.09423,0.039 -0.02906,0.011 -0.08455,0.0326 -0.123294,0.04796 -0.142293,0.05641 -0.159906,0.06236 -0.241986,0.08284 -0.13368,0.03336 -0.14746,0.03476 -0.153573,0.0155 -0.0029,-0.0091 0.0042,-0.04384 0.01575,-0.07727 0.01158,-0.03343 0.02792,-0.08067 0.03633,-0.104884 0.0084,-0.02421 0.0188,-0.04832 0.02301,-0.05353 0.0071,-0.0088 0.09299,-0.211528 0.148969,-0.351474 0.02273,-0.05682 0.04511,-0.108383 0.08866,-0.204199 0.0092,-0.02032 0.01695,-0.03911 0.01695,-0.04167 0,-0.0025 0.0095,-0.02555 0.02132,-0.05111 0.01179,-0.02556 0.03787,-0.086 0.05789,-0.134436 0.02002,-0.04844 0.04166,-0.100044 0.0482,-0.114574 0.0065,-0.01453 0.01869,-0.04433 0.02689,-0.06613 0.0082,-0.0218 0.03091,-0.075343 0.05038,-0.1189346 0.07444,-0.1666466 0.0857,-0.1929038 0.125237,-0.2904207 0.03987,-0.098345 0.0521,-0.1253551 0.111668,-0.2465886 l 0.04772,-0.096891 0.06225,-0.030763 c 0.06641,-0.03289 0.162093,-0.07303 0.311506,-0.130319 0.05086,-0.0195 0.130087,-0.050052 0.1761,-0.068066 0.35256,-0.1380139 0.380922,-0.1464628 0.506984,-0.1475046 z m 1.191522,1.4490107 c 0.141116,0.0034 0.23722,0.0858 0.313202,0.261849 0.01359,0.03148 0.0338,0.07703 0.04481,0.101251 0.01102,0.02421 0.03269,0.07365 0.0482,0.109972 0.01551,0.03633 0.04558,0.102962 0.06686,0.148002 0.02128,0.04504 0.03876,0.08347 0.03876,0.08551 0,0.002 0.0095,0.02481 0.02107,0.05038 0.01159,0.02557 0.04559,0.103931 0.07558,0.174162 0.05028,0.117762 0.08512,0.196303 0.151151,0.341784 0.01387,0.03057 0.02755,0.06518 0.03052,0.07703 0.0029,0.01185 0.009,0.02374 0.01332,0.0264 0.0041,0.0031 0.0078,0.01495 0.0078,0.0264 v 0.02156 H 11.33284 c -0.814647,0 -0.857893,-9.05e-4 -0.871539,-0.01598 -0.0079,-0.0087 -0.03286,-0.05525 -0.05523,-0.103432 -0.02237,-0.04818 -0.05445,-0.117247 -0.07146,-0.153573 -0.01701,-0.03633 -0.03594,-0.07994 -0.04215,-0.09689 -0.0062,-0.01695 -0.02713,-0.06468 -0.0465,-0.105853 -0.04261,-0.09052 -0.08114,-0.174022 -0.10755,-0.233267 -0.03273,-0.07343 -0.07095,-0.156508 -0.08987,-0.195236 -0.0098,-0.02016 -0.01559,-0.04044 -0.01259,-0.04529 0.003,-0.0049 0.03419,-0.01965 0.06928,-0.0327 0.03509,-0.01305 0.0797,-0.03094 0.09907,-0.03973 0.01938,-0.0088 0.05305,-0.02083 0.07485,-0.02689 0.0218,-0.0061 0.04396,-0.01428 0.04917,-0.01816 0.0052,-0.0039 0.04664,-0.02079 0.09229,-0.03755 0.04565,-0.01676 0.118702,-0.04396 0.162294,-0.06056 0.0436,-0.01659 0.102953,-0.03891 0.132014,-0.04966 0.02906,-0.01074 0.06492,-0.02457 0.07945,-0.03076 0.01453,-0.0062 0.03634,-0.01565 0.04845,-0.02083 0.01211,-0.0052 0.03779,-0.01405 0.05717,-0.01986 0.01938,-0.0058 0.03924,-0.01345 0.04408,-0.01696 0.0072,-0.0052 0.09495,-0.03873 0.233266,-0.08866 0.01211,-0.0044 0.05556,-0.01448 0.09641,-0.02253 0.03765,-0.0074 0.07256,-0.01074 0.105127,-0.0099 z" />
  <path
     id="path5-7"
     style="fill:currentColor;fill-opacity:1;stroke-width:0.124021"
     d="m 5.484183,4.4978281 c -0.545534,0 -0.986355,0.4410631 -0.986355,0.9865967 v 6.9507472 h 6.947114 c 0.263321,0 0.513817,-0.104505 0.700282,-0.289705 0.185201,-0.186466 0.289948,-0.437204 0.289948,-0.700525 V 4.4978281 Z m 4.807751,1.2 c 0.335735,0.00113 0.417614,0.01883 0.531934,0.1150585 0.126636,0.1065962 0.181292,0.2466232 0.179975,0.4614453 -6.22e-4,0.1028447 -0.02291,0.2135446 -0.05595,0.2783207 -0.07212,0.1413587 -0.190514,0.23836 -0.337424,0.2766249 -0.03931,0.01024 -0.108074,0.013081 -0.30981,0.013081 h -0.25943 l -0.0012,-0.5040775 c -7.36e-4,-0.2772898 -0.0025,-0.5290539 -0.0039,-0.5593056 -0.0038,-0.085578 -0.01484,-0.082064 0.255794,-0.081147 z m 0.935002,0.00485 c 0.02104,-0.00807 0.71028,-0.00553 0.723536,0.00266 0.0083,0.00512 0.01057,0.032174 0.0087,0.1029471 l -0.0024,0.096165 -0.242228,0.00557 c -0.133196,0.00299 -0.243306,0.00589 -0.244651,0.00654 -0.0014,6.453e-4 -0.0014,0.057666 0,0.1266855 l 0.0024,0.1254744 0.212676,-0.0029 c 0.249005,-0.00356 0.231706,-0.011771 0.22721,0.1041583 -0.0016,0.04117 -0.0031,0.081718 -0.0034,0.090109 -4.47e-4,0.013984 -0.01874,0.015525 -0.21849,0.017682 l -0.218005,0.00242 -0.0044,0.2289059 -0.0044,0.2289059 -0.125475,0.00242 -0.125474,0.00242 V 6.275542 c 0,-0.5163767 0.0012,-0.5678537 0.01429,-0.5728704 z m -2.237949,0.00388 c 0.009,-0.014508 0.507017,-0.011403 0.577957,0.00363 0.117831,0.024976 0.205145,0.089017 0.254582,0.1865161 0.02948,0.058112 0.03047,0.062743 0.03004,0.1615664 -3.84e-4,0.088656 -0.0034,0.1087167 -0.02325,0.1567218 -0.04397,0.1063581 -0.110581,0.1689894 -0.218248,0.2049254 -0.04862,0.016227 -0.07972,0.019137 -0.211465,0.02059 -0.08491,9.396e-4 -0.159146,0.00469 -0.165201,0.00848 -0.0083,0.00516 -0.01114,0.055287 -0.01114,0.2003229 V 6.8423669 H 9.104054 8.985604 l -0.0034,-0.1605975 c -0.0049,-0.2280998 2.36e-4,-0.964622 0.0068,-0.9752121 z m 0.284134,0.200323 c -0.05747,0.00348 -0.05106,0.029437 -0.04893,0.1635041 l 0.0024,0.1511506 0.03537,0.00581 c 0.03914,0.00631 0.152836,0.00272 0.219217,-0.00678 0.03397,-0.00486 0.0511,-0.013731 0.08066,-0.042148 0.03269,-0.031433 0.03822,-0.042482 0.0436,-0.085991 0.0074,-0.060204 -0.0045,-0.1017265 -0.03779,-0.1317723 -0.04727,-0.042688 -0.07846,-0.050605 -0.213161,-0.053048 -0.03594,-6.566e-4 -0.06223,-0.00188 -0.08139,-7.302e-4 z m 1.010335,0.00654 -0.0022,0.3478402 c -0.0012,0.1913081 -1.87e-4,0.3533874 0.0024,0.3601937 0.0039,0.010145 0.02572,0.011369 0.121842,0.00702 0.06448,-0.00292 0.128822,-0.01004 0.142915,-0.015745 0.05895,-0.02386 0.100553,-0.046663 0.116753,-0.064191 0.09725,-0.1052083 0.10663,-0.4071456 0.01647,-0.5321761 -0.02562,-0.035533 -0.0515,-0.053384 -0.129592,-0.088898 -0.01224,-0.00557 -0.07676,-0.010971 -0.145337,-0.012112 z m -3.72935,1.4691164 c 0.06256,-0.016291 1.568293,-0.01584 1.630924,4.828e-4 0.144484,0.037659 0.253347,0.1238504 0.3195,0.2528865 0.02179,0.042497 0.03972,0.081855 0.03972,0.087444 0,0.00559 0.0072,0.020814 0.01599,0.03367 0.0088,0.012857 0.0352,0.066867 0.05862,0.1201454 0.04786,0.1088664 0.08198,0.1834159 0.150908,0.3287041 0.02603,0.054876 0.04748,0.102006 0.04748,0.1046426 0,0.00512 0.03645,0.088123 0.107307,0.2444086 0.05273,0.1163071 0.05317,0.1086209 -0.01647,0.2587001 -0.01202,0.025908 -0.02745,0.063397 -0.0344,0.083084 -0.0069,0.019688 -0.01597,0.040035 -0.02011,0.045297 -0.0041,0.00526 -0.01561,0.031253 -0.02543,0.057893 -0.0098,0.026639 -0.02767,0.070252 -0.03973,0.096891 -0.01205,0.026639 -0.0346,0.078248 -0.0499,0.1145741 -0.01529,0.036326 -0.03728,0.087935 -0.04893,0.114574 -0.01164,0.026639 -0.03571,0.082124 -0.05353,0.1232946 -0.01782,0.041168 -0.0418,0.095542 -0.05329,0.121114 -0.0115,0.025574 -0.02083,0.048798 -0.02083,0.051594 0,0.00277 -0.01226,0.031528 -0.02713,0.063706 -0.01487,0.032173 -0.03037,0.066374 -0.0344,0.07606 -0.004,0.00968 -0.01895,0.043364 -0.03319,0.074849 -0.01423,0.031483 -0.03095,0.071219 -0.03706,0.088171 -0.01039,0.0288 -0.01808,0.046681 -0.06128,0.1429147 -0.02274,0.05067 -0.05354,0.121661 -0.06225,0.143157 -0.004,0.0097 -0.0155,0.03639 -0.02567,0.05935 -0.01017,0.02295 -0.01865,0.0438 -0.01865,0.04627 0,0.0025 -0.01221,0.03124 -0.02713,0.06395 -0.01492,0.03271 -0.03108,0.06928 -0.0361,0.08139 -0.005,0.01211 -0.01345,0.03004 -0.01865,0.03973 -0.0052,0.0097 -0.0167,0.03275 -0.02568,0.05111 -0.009,0.01842 -0.02626,0.037 -0.03851,0.04166 -0.01221,0.0046 -0.02308,0.0081 -0.02398,0.0077 -9.06e-4,-3.72e-4 -0.01449,-0.0051 -0.03028,-0.0109 -0.07484,-0.02714 -0.137206,-0.111162 -0.217033,-0.292125 -0.0235,-0.05328 -0.05184,-0.116759 -0.06298,-0.140977 -0.01114,-0.02422 -0.03893,-0.0877 -0.06153,-0.140977 -0.0226,-0.053279 -0.05091,-0.1185634 -0.06298,-0.1450947 -0.01207,-0.026531 -0.02904,-0.066025 -0.03779,-0.087929 -0.0087,-0.021903 -0.03054,-0.073647 -0.04845,-0.1148162 -0.0179,-0.04117 -0.04553,-0.1063472 -0.06153,-0.1450948 -0.016,-0.038748 -0.0438,-0.1041673 -0.06177,-0.1453375 -0.01797,-0.041169 -0.04053,-0.094716 -0.05014,-0.1189339 -0.0096,-0.024217 -0.02069,-0.047963 -0.02446,-0.052806 -0.0037,-0.00484 -0.01538,-0.032707 -0.02592,-0.061768 -0.01055,-0.029061 -0.02459,-0.064678 -0.03125,-0.079209 -0.0067,-0.014531 -0.03258,-0.078012 -0.05765,-0.1409771 -0.02506,-0.062965 -0.051,-0.1242652 -0.05741,-0.1363746 -0.0064,-0.012108 -0.02042,-0.045787 -0.03125,-0.074849 -0.01083,-0.029061 -0.02661,-0.066859 -0.03512,-0.083811 -0.0085,-0.016952 -0.03246,-0.074376 -0.05305,-0.1276545 -0.02059,-0.053278 -0.04008,-0.1007673 -0.04336,-0.1056116 -0.0033,-0.00485 -0.01488,-0.032465 -0.02592,-0.061526 -0.01103,-0.029061 -0.02758,-0.069829 -0.03682,-0.090593 -0.0092,-0.020764 -0.0262,-0.062439 -0.03755,-0.092531 C 6.914152,8.0887961 6.826949,7.8810402 6.795583,7.812976 6.783803,7.787415 6.774023,7.764421 6.774023,7.761866 c 0,-0.011552 -0.07457,-0.1674529 -0.09956,-0.2080742 -0.03552,-0.057752 -0.0923,-0.1113228 -0.129834,-0.1225676 -0.04706,-0.014097 -0.043,-0.035032 0.0094,-0.048688 z m -0.163747,0.185547 c 0.01192,-6.566e-4 0.02726,0.00409 0.05281,0.013807 0.04965,0.018879 0.124639,0.1277808 0.172709,0.251191 0.0037,0.00969 0.01275,0.031493 0.02011,0.048445 0.0074,0.016952 0.02427,0.058627 0.03755,0.092531 0.01327,0.033904 0.02757,0.066024 0.03173,0.071457 0.0042,0.00543 0.01699,0.037872 0.02858,0.071942 0.02045,0.060104 0.02564,0.072928 0.06613,0.1635043 0.01049,0.023457 0.02718,0.064889 0.03706,0.092289 0.0099,0.0274 0.02597,0.067829 0.03585,0.089625 0.0099,0.021795 0.02312,0.053536 0.02931,0.070488 0.0062,0.016952 0.02971,0.072438 0.05232,0.1232944 0.02261,0.050857 0.04893,0.1140956 0.05838,0.1407347 0.01887,0.053196 0.0683,0.1724615 0.101252,0.2439241 0.01158,0.025128 0.02107,0.050331 0.02107,0.055954 0,0.00967 0.0041,0.020272 0.03851,0.09786 0.0078,0.017684 0.01429,0.034906 0.01429,0.038272 0,0.00337 0.01381,0.035249 0.03076,0.070973 0.01695,0.035723 0.031,0.069074 0.031,0.074122 0,0.00504 0.0036,0.016053 0.008,0.024464 0.01058,0.020066 0.0304,0.066429 0.05208,0.1215991 l 0.01744,0.044326 -0.02398,0.070004 c -0.0269,0.078203 -0.03119,0.088112 -0.100525,0.2381106 -0.02707,0.058565 -0.05752,0.1278613 -0.06782,0.1540573 -0.01031,0.0262 -0.02615,0.06153 -0.03512,0.07848 -0.0197,0.03722 -0.07921,0.171871 -0.07921,0.179249 0,0.0044 -0.09388,0.218836 -0.159387,0.364069 -0.0092,0.02032 -0.01672,0.03883 -0.01672,0.04118 0,0.0023 -0.01188,0.03013 -0.02641,0.06153 -0.01453,0.03139 -0.02641,0.05902 -0.02641,0.06153 0,0.0025 -0.01188,0.03037 -0.02641,0.06177 -0.01453,0.03139 -0.02641,0.0589 -0.02641,0.06128 0,0.0024 -0.02733,0.06132 -0.06056,0.130804 -0.03323,0.06948 -0.06319,0.135166 -0.06661,0.146063 l -0.0061,0.01986 H 5.681285 c -1.011792,0 -0.948633,0.0036 -0.920227,-0.05135 0.0076,-0.01462 0.03134,-0.06794 0.05281,-0.118207 0.02147,-0.05027 0.04895,-0.11291 0.06104,-0.139282 0.01209,-0.02637 0.03811,-0.08315 0.05789,-0.126201 0.01978,-0.04305 0.03585,-0.08146 0.03585,-0.08551 0,-0.0041 0.01211,-0.03344 0.02664,-0.06516 0.01453,-0.03173 0.0264,-0.05989 0.0264,-0.0625 0,-0.0026 0.01135,-0.02913 0.02543,-0.0591 0.0391,-0.08318 0.09786,-0.216862 0.09786,-0.22285 0,-0.0029 0.01156,-0.02959 0.02568,-0.05935 0.05017,-0.105746 0.07994,-0.173468 0.07994,-0.181671 0,-0.0046 0.0072,-0.02141 0.01599,-0.0373 0.0088,-0.01589 0.02215,-0.044813 0.02979,-0.06419 0.01378,-0.034936 0.03872,-0.090352 0.08745,-0.1952361 0.01393,-0.029966 0.02519,-0.056755 0.02519,-0.059589 0,-0.00283 0.01599,-0.039357 0.03537,-0.080904 0.01938,-0.041547 0.03512,-0.076904 0.03512,-0.078724 0,-0.00181 0.01187,-0.029315 0.02641,-0.061042 0.01453,-0.031727 0.02641,-0.059348 0.02641,-0.061526 0,-0.00221 0.01232,-0.030889 0.02737,-0.063706 0.02663,-0.058046 0.07325,-0.1636977 0.119661,-0.2710539 0.01256,-0.029061 0.03395,-0.07655 0.04747,-0.1056116 C 5.754379,8.9276317 5.840593,8.7308311 5.87144,8.6566562 5.88252,8.6300172 5.90787,8.5704122 5.92788,8.5243995 5.9479,8.4783865 5.96763,8.4328335 5.97173,8.4231479 c 0.0041,-0.00969 0.01553,-0.03537 0.02543,-0.057166 0.05182,-0.1141036 0.08221,-0.183024 0.09883,-0.2245458 0.0039,-0.00969 0.01939,-0.044156 0.0344,-0.076544 0.01501,-0.032388 0.02713,-0.062649 0.02713,-0.067339 0,-0.00469 0.0079,-0.023769 0.01744,-0.04239 0.02102,-0.041221 0.08841,-0.1883769 0.08841,-0.1930562 0,-0.015353 0.07663,-0.1575353 0.09471,-0.1756156 0.01177,-0.011766 0.0203,-0.017752 0.03222,-0.018409 z m 3.796932,0.7954785 c 0.06152,-5.086e-4 0.122821,0.00379 0.145337,0.010173 0.07616,0.021601 0.179495,0.1026021 0.310538,0.2431974 0.291464,0.3127131 0.330869,0.3551193 0.38054,0.4098507 0.02878,0.031719 0.08199,0.091323 0.118208,0.1322567 0.03622,0.040933 0.09383,0.1039244 0.128138,0.1402504 0.118606,0.1255975 0.149543,0.1601864 0.162536,0.1814292 0.0063,0.010262 0.01357,0.018832 0.01744,0.02083 1.23e-4,5.38e-5 6.22e-4,2.106e-4 7.35e-4,2.479e-4 l 2.48e-4,2.48e-4 h 2.48e-4 2.48e-4 2.48e-4 2.48e-4 c 0.01476,0.0065 0.125462,0.1410888 0.127412,0.1547841 v 2.479e-4 2.48e-4 2.479e-4 l -2.48e-4,2.485e-4 c -1.12e-4,8.6e-5 -6.22e-4,4.092e-4 -7.35e-4,4.828e-4 -0.0041,0.00192 -0.01484,-3.74e-5 -0.02471,-0.00509 -0.03608,-0.018458 -0.09786,-0.027527 -0.187001,-0.027617 -0.08119,-7.87e-5 -0.188358,0.017094 -0.210738,0.033668 -0.0052,0.00379 -0.02737,0.012215 -0.04917,0.018894 -0.0218,0.00668 -0.08503,0.029768 -0.140735,0.051113 -0.0557,0.021345 -0.13394,0.050021 -0.173678,0.063706 -0.03974,0.013687 -0.08529,0.030759 -0.101252,0.038032 -0.01596,0.00727 -0.04869,0.01967 -0.07291,0.027617 -0.02422,0.00794 -0.0579,0.020536 -0.07485,0.027855 -0.01695,0.00732 -0.04455,0.019149 -0.06128,0.0264 -0.01673,0.00725 -0.04847,0.019206 -0.07049,0.0264 -0.02202,0.0072 -0.05256,0.018736 -0.06782,0.025675 -0.01526,0.00694 -0.03053,0.012594 -0.03391,0.012594 -0.0034,0 -0.02059,0.00629 -0.03828,0.014049 -0.05753,0.025239 -0.06672,0.028844 -0.110698,0.043114 -0.02387,0.0077 -0.05367,0.01946 -0.06613,0.02592 -0.01246,0.0065 -0.06226,0.02636 -0.110698,0.04433 -0.04844,0.01797 -0.113855,0.0425 -0.145337,0.0545 -0.03148,0.012 -0.07897,0.02941 -0.105612,0.03876 -0.02664,0.0094 -0.05644,0.02051 -0.06613,0.02471 -0.05102,0.02208 -0.06458,0.02712 -0.09689,0.03682 -0.01938,0.0058 -0.03924,0.0136 -0.04409,0.0172 -0.0049,0.0036 -0.0344,0.01522 -0.06589,0.02592 -0.03148,0.0107 -0.07752,0.02923 -0.10222,0.04094 -0.0247,0.01171 -0.0499,0.02107 -0.05595,0.02107 -0.0061,0 -0.0235,0.0056 -0.03876,0.01235 -0.01526,0.0068 -0.04942,0.02064 -0.07606,0.03076 -0.02664,0.01013 -0.08514,0.03239 -0.129834,0.04941 -0.0447,0.01702 -0.08344,0.03076 -0.08623,0.03076 -0.0028,0 -0.02377,0.0085 -0.04651,0.01889 -0.02274,0.01037 -0.06517,0.028 -0.09423,0.039 -0.02906,0.011 -0.08455,0.0326 -0.123294,0.04796 -0.142293,0.05641 -0.159906,0.06236 -0.241986,0.08284 -0.13368,0.03336 -0.14746,0.03476 -0.153573,0.0155 -0.0029,-0.0091 0.0042,-0.04384 0.01575,-0.07727 0.01158,-0.03343 0.02792,-0.08067 0.03633,-0.104884 0.0084,-0.02421 0.0188,-0.04832 0.02301,-0.05353 0.0071,-0.0088 0.09299,-0.211528 0.148969,-0.351474 0.02273,-0.05682 0.04511,-0.1083824 0.08866,-0.2041985 0.0092,-0.020321 0.01695,-0.039108 0.01695,-0.041666 0,-0.00255 0.0095,-0.025551 0.02132,-0.051108 0.01179,-0.025562 0.03787,-0.086002 0.05789,-0.1344367 0.02002,-0.048436 0.04166,-0.1000438 0.0482,-0.114574 0.0065,-0.01453 0.01869,-0.044332 0.02689,-0.066129 0.0082,-0.021798 0.03091,-0.075343 0.05038,-0.1189342 0.07444,-0.1666466 0.0857,-0.1929038 0.125237,-0.2904207 0.03987,-0.098345 0.0521,-0.1253551 0.111668,-0.2465886 l 0.04772,-0.096891 0.06225,-0.030763 c 0.06641,-0.03289 0.162093,-0.07303 0.311506,-0.130319 0.05086,-0.0195 0.130087,-0.050052 0.1761,-0.068066 C 10.032876,8.3730889 10.061238,8.36464 10.1873,8.3635982 Z m 1.191522,1.449011 c 0.141116,0.00345 0.23722,0.085798 0.313202,0.261849 0.01359,0.03148 0.0338,0.07703 0.04481,0.101251 0.01102,0.02421 0.03269,0.07365 0.0482,0.109972 0.01551,0.03633 0.04558,0.102962 0.06686,0.148002 0.02128,0.04504 0.03876,0.08347 0.03876,0.08551 0,0.002 0.0095,0.02481 0.02107,0.05038 0.01159,0.02557 0.04559,0.103931 0.07558,0.174162 0.05028,0.117762 0.08512,0.196303 0.151151,0.341784 0.01387,0.03057 0.02755,0.06518 0.03052,0.07703 0.0029,0.01185 0.009,0.02374 0.01332,0.0264 0.0041,0.0031 0.0078,0.01495 0.0078,0.0264 v 0.02156 H 11.33284 c -0.814647,0 -0.857893,-9.05e-4 -0.871539,-0.01598 -0.0079,-0.0087 -0.03286,-0.05525 -0.05523,-0.103432 -0.02237,-0.04818 -0.05445,-0.117247 -0.07146,-0.153573 -0.01701,-0.03633 -0.03594,-0.07994 -0.04215,-0.09689 -0.0062,-0.01695 -0.02713,-0.06468 -0.0465,-0.105853 -0.04261,-0.09052 -0.08114,-0.174022 -0.10755,-0.233267 -0.03273,-0.07343 -0.07095,-0.156508 -0.08987,-0.195236 -0.0098,-0.02016 -0.01559,-0.04044 -0.01259,-0.04529 0.003,-0.0049 0.03419,-0.01965 0.06928,-0.0327 0.03509,-0.01305 0.0797,-0.03094 0.09907,-0.03973 0.01938,-0.0088 0.05305,-0.02083 0.07485,-0.02689 0.0218,-0.0061 0.04396,-0.01428 0.04917,-0.01816 0.0052,-0.0039 0.04664,-0.02079 0.09229,-0.03755 0.04565,-0.01676 0.118702,-0.04396 0.162294,-0.06056 0.0436,-0.01659 0.102953,-0.03891 0.132014,-0.04966 0.02906,-0.01074 0.06492,-0.024566 0.07945,-0.030764 0.01453,-0.0062 0.03634,-0.015645 0.04845,-0.02083 0.01211,-0.00521 0.03779,-0.014049 0.05717,-0.019862 0.01938,-0.00581 0.03924,-0.013449 0.04408,-0.016958 0.0072,-0.00521 0.09495,-0.038728 0.233266,-0.088656 0.01211,-0.00436 0.05556,-0.014479 0.09641,-0.022528 0.03765,-0.00742 0.07256,-0.010738 0.105127,-0.00993 z"
     class="ColorScheme-Text" />
  <path
     id="gradient-path1"
     style="opacity:0.3;baseline-shift:baseline;display:inline;overflow:visible;vector-effect:none;enable-background:accumulate;stop-color:#000000;stop-opacity:1;fill:url(#linearGradient4)"
     d="M 8.4453131 1.2753492 C 4.4913166 1.2753492 1.2794833 4.4784283 1.2794833 8.4236094 C 1.2794833 12.36879 4.4913166 15.572386 8.4453131 15.572386 C 12.39931 15.572386 15.611143 12.36879 15.611143 8.4236094 C 15.611143 4.4784283 12.39931 1.2753492 8.4453131 1.2753492 z " />
</svg>
