<?xml version='1.0' encoding='UTF-8'?>
<svg xmlns:inkscape="http://www.inkscape.org/namespaces/inkscape" xmlns:sodipodi="http://sodipodi.sourceforge.net/DTD/sodipodi-0.dtd" xmlns="http://www.w3.org/2000/svg" xmlns:svg="http://www.w3.org/2000/svg" xmlns:rdf="http://www.w3.org/1999/02/22-rdf-syntax-ns#" xmlns:cc="http://creativecommons.org/ns#" xmlns:dc="http://purl.org/dc/elements/1.1/" width="64" height="64" version="1.1" viewBox="0 0 16.933 16.933" id="svg7" sodipodi:docname="me.timschneeberger.jdsp4linux.svg" inkscape:version="1.4.2 (ebf0e940d0, 2025-05-08)">
  <sodipodi:namedview id="namedview7" pagecolor="#9c4444" bordercolor="#000000" borderopacity="0.25" inkscape:showpageshadow="2" inkscape:pageopacity="0.0" inkscape:pagecheckerboard="0" inkscape:deskcolor="#d1d1d1" inkscape:zoom="4.3531261" inkscape:cx="36.755195" inkscape:cy="53.754473" inkscape:window-width="1920" inkscape:window-height="1044" inkscape:window-x="0" inkscape:window-y="0" inkscape:window-maximized="1" inkscape:current-layer="svg7" showgrid="false"/>
  <defs id="defs2">
    <filter style="color-interpolation-filters:sRGB;" inkscape:label="Blur" id="filter3" x="-0.10843471" y="-0.10870992" width="1.2168694" height="1.2174198">
      <feGaussianBlur stdDeviation="0.5 0.5" result="blur" id="feGaussianBlur3"/>
    </filter>
    <style id="current-color-scheme" type="text/css">.ColorScheme-Text {color:#d8dee9} .ColorScheme-Highlight {color:#3b4252}</style>
  <linearGradient id="linearGradient3" inkscape:collect="always">
      <stop style="stop-color:#000000;stop-opacity:1;" offset="0" id="stop3"/>
      <stop style="stop-color:#000000;stop-opacity:0;" offset="1" id="stop4"/>
    </linearGradient>
    <linearGradient xmlns:xlink="http://www.w3.org/1999/xlink" inkscape:collect="always" xlink:href="#linearGradient3" id="linearGradient4" x1="13.512321" y1="13.490874" x2="3.3783066" y2="3.3568602" gradientUnits="userSpaceOnUse"/>
  </defs>
  <metadata id="metadata2">
    <rdf:RDF>
      <cc:Work rdf:about="">
        <dc:format>image/svg+xml</dc:format>
        <dc:type rdf:resource="http://purl.org/dc/dcmitype/StillImage"/>
      </cc:Work>
    </rdf:RDF>
  </metadata>
  <ellipse style="opacity:1;fill:none;stroke:#000000;stroke-width:0.582072;stroke-dasharray:none;stroke-opacity:1;filter:url(#filter3)" id="path1-5" cx="8.4450111" cy="8.423522" rx="6.8752708" ry="6.8578653"/>
  <ellipse style="opacity:1;fill:none;stroke-width:0.58207188;stroke-opacity:1;stroke:currentColor;stroke-dasharray:none;fill-opacity:1" id="path1" cx="8.4450111" cy="8.423522" rx="6.8752708" ry="6.8578653" class="ColorScheme-Text"/>
  <ellipse style="fill:currentColor;stroke:none;stroke-width:0.285844;stroke-dasharray:none;stroke-opacity:1" id="path1-2" cx="8.4557552" cy="8.423522" rx="6.5738997" ry="6.5692253" class="ColorScheme-Highlight"/>
<path id="path23-7-4" style="opacity:0.3;isolation:isolate;fill:#000000;fill-opacity:1;stroke-width:0.170393" class="ColorScheme-Text" inkscape:label="jdsp-1" d="m 5.399724,5.0767251 c -0.470286,0 -0.852155,0.3818689 -0.852155,0.852155 v 3.2370521 c 0,0.1881152 0.152438,0.3410689 0.340552,0.3410689 0.188115,0 0.341069,-0.1529537 0.341069,-0.3410689 V 6.2694321 c 0,-0.2821721 0.228914,-0.5110864 0.511086,-0.5110864 h 5.452449 c 0.282172,0 0.511603,0.2289143 0.511603,0.5110864 v 0.7751561 c 0,0.1881151 0.152436,0.3410687 0.340551,0.3410687 0.188114,0 0.340552,-0.1529536 0.340552,-0.3410687 V 5.9288801 c 0,-0.4702861 -0.38135,-0.852155 -0.851637,-0.852155 z m 1.25472,1.267122 c -0.324915,0 -0.315747,0.3024954 -0.315747,0.5116031 v 0.193789 A 0.63897672,0.63897672 0 0 0 6.040003,7.5897814 0.63897672,0.63897672 0 0 0 6.338697,8.1308405 v 0.8650744 2.1451141 c 0,0.209108 -0.0092,0.506435 0.315747,0.506435 h 0.02326 c 0.340231,0 0.341884,-0.297322 0.341585,-0.506435 L 7.016189,8.9959149 V 8.1329074 A 0.63897672,0.63897672 0 0 0 7.317977,7.5897814 0.63897672,0.63897672 0 0 0 7.016183,7.0471721 V 6.8507992 c 0,-0.2091076 0.0017,-0.5069521 -0.338484,-0.5069521 z m 1.853139,0 c -0.324914,0 -0.315746,0.3024954 -0.315746,0.5116031 v 2.1404647 0.8650736 a 0.63897672,0.63897672 0 0 0 -0.298693,0.5405425 0.63897672,0.63897672 0 0 0 0.298693,0.540542 v 0.198956 c 0,0.209108 -0.0092,0.506435 0.315746,0.506435 h 0.02274 c 0.340231,0 0.342402,-0.297322 0.342103,-0.506435 L 8.871909,10.94259 a 0.63897672,0.63897672 0 0 1 5.17e-4,0 A 0.63897672,0.63897672 0 0 0 9.17112,10.401531 0.63897672,0.63897672 0 0 0 8.870359,9.8594382 L 8.869259,8.9959149 V 6.8507992 c 0,-0.2091076 0.0012,-0.5069521 -0.339003,-0.5069521 z m 1.853141,0 c -0.324916,0 -0.316264,0.3024954 -0.316264,0.5116031 V 8.0714118 A 0.63897672,0.63897672 0 0 0 9.746283,8.612471 0.63897672,0.63897672 0 0 0 10.04446,9.153013 v 1.988016 c 0,0.209108 -0.0087,0.506435 0.316264,0.506435 h 0.02274 c 0.340231,0 0.342401,-0.297322 0.342102,-0.506435 l -0.0031,-1.9859491 A 0.63897672,0.63897672 0 0 0 11.024258,8.612471 0.63897672,0.63897672 0 0 0 10.722464,8.0698615 V 6.8507992 c 0,-0.2091076 0.0012,-0.5069521 -0.339002,-0.5069521 z m 1.684155,2.0009366 c -0.188115,0 -0.340551,0.1529538 -0.340551,0.3410688 V 11.72188 c 0,0.282172 -0.229431,0.511603 -0.511603,0.511603 H 5.740276 c -0.282172,0 -0.511086,-0.229431 -0.511086,-0.511603 v -0.775156 c 0,-0.188114 -0.152954,-0.340552 -0.341069,-0.340552 -0.188114,0 -0.340552,0.152438 -0.340552,0.340552 v 1.116225 c 0,0.470286 0.381869,0.851638 0.852155,0.851638 h 6.13407 c 0.470287,0 0.851637,-0.381352 0.851637,-0.851638 V 8.6858525 c 0,-0.188115 -0.152438,-0.3410688 -0.340552,-0.3410688 z"/>
  <path id="path23-7-4-0" style="isolation:isolate;fill:currentColor;fill-opacity:1;stroke-width:0.170393" class="ColorScheme-Text" inkscape:label="jdsp-2" d="m 5.399724,4.547569 c -0.470286,0 -0.852155,0.381869 -0.852155,0.852155 v 3.237052 c 0,0.188115 0.152438,0.341069 0.340552,0.341069 0.188115,0 0.341069,-0.152954 0.341069,-0.341069 v -2.8965 c 0,-0.282172 0.228914,-0.511087 0.511086,-0.511087 h 5.452449 c 0.282172,0 0.511603,0.228915 0.511603,0.511087 v 0.775156 c 0,0.188115 0.152436,0.341069 0.340551,0.341069 0.188114,0 0.340552,-0.152954 0.340552,-0.341069 V 5.399724 c 0,-0.470286 -0.38135,-0.852155 -0.851637,-0.852155 z m 1.25472,1.267122 c -0.324915,0 -0.315747,0.302495 -0.315747,0.511603 V 6.520083 A 0.63897672,0.63897672 0 0 0 6.040003,7.060625 0.63897672,0.63897672 0 0 0 6.338697,7.601684 v 0.865075 2.145115 c 0,0.209107 -0.0092,0.506435 0.315747,0.506435 h 0.02326 c 0.340231,0 0.341884,-0.297323 0.341585,-0.506435 L 7.016189,8.466759 V 7.603751 A 0.63897672,0.63897672 0 0 0 7.317977,7.060625 0.63897672,0.63897672 0 0 0 7.016183,6.518016 V 6.321643 c 0,-0.209108 0.0017,-0.506952 -0.338484,-0.506952 z m 1.853139,0 c -0.324914,0 -0.315746,0.302495 -0.315746,0.511603 v 2.140465 0.865073 a 0.63897672,0.63897672 0 0 0 -0.298693,0.540543 0.63897672,0.63897672 0 0 0 0.298693,0.540542 v 0.198957 c 0,0.209107 -0.0092,0.506435 0.315746,0.506435 h 0.02274 c 0.340231,0 0.342402,-0.297323 0.342103,-0.506435 l -5.17e-4,-0.19844 a 0.63897672,0.63897672 0 0 1 5.17e-4,0 A 0.63897672,0.63897672 0 0 0 9.17112,9.872375 0.63897672,0.63897672 0 0 0 8.870359,9.330282 L 8.869259,8.466759 V 6.321643 c 0,-0.209108 0.0012,-0.506952 -0.339003,-0.506952 z m 1.853141,0 c -0.324916,0 -0.316264,0.302495 -0.316264,0.511603 V 7.542256 A 0.63897672,0.63897672 0 0 0 9.746283,8.083315 0.63897672,0.63897672 0 0 0 10.04446,8.623857 v 1.988017 c 0,0.209107 -0.0087,0.506435 0.316264,0.506435 h 0.02274 c 0.340231,0 0.342401,-0.297323 0.342102,-0.506435 l -0.0031,-1.98595 A 0.63897672,0.63897672 0 0 0 11.024258,8.083315 0.63897672,0.63897672 0 0 0 10.722464,7.540705 V 6.321643 c 0,-0.209108 0.0012,-0.506952 -0.339002,-0.506952 z m 1.684155,2.000936 c -0.188115,0 -0.340551,0.152954 -0.340551,0.341069 v 3.036028 c 0,0.282172 -0.229431,0.511603 -0.511603,0.511603 H 5.740276 c -0.282172,0 -0.511086,-0.229431 -0.511086,-0.511603 v -0.775156 c 0,-0.188114 -0.152954,-0.340552 -0.341069,-0.340552 -0.188114,0 -0.340552,0.152438 -0.340552,0.340552 v 1.116225 c 0,0.470286 0.381869,0.851638 0.852155,0.851638 h 6.13407 c 0.470287,0 0.851637,-0.381352 0.851637,-0.851638 V 8.156696 c 0,-0.188115 -0.152438,-0.341069 -0.340552,-0.341069 z"/>
<path id="gradient-path1" style="opacity:0.3;baseline-shift:baseline;display:inline;overflow:visible;vector-effect:none;enable-background:accumulate;stop-color:#000000;stop-opacity:1;fill:url(#linearGradient4)" d="M 8.4453131 1.2753492 C 4.4913166 1.2753492 1.2794833 4.4784283 1.2794833 8.4236094 C 1.2794833 12.36879 4.4913166 15.572386 8.4453131 15.572386 C 12.39931 15.572386 15.611143 12.36879 15.611143 8.4236094 C 15.611143 4.4784283 12.39931 1.2753492 8.4453131 1.2753492 z "/>
</svg>
