<?xml version="1.0" encoding="UTF-8" standalone="no"?>
<svg
   width="64"
   height="64"
   version="1.1"
   viewBox="0 0 16.933 16.933"
   id="svg7"
   sodipodi:docname="mediainfo.svg"
   inkscape:version="1.4.2 (ebf0e940d0, 2025-05-08)"
   xmlns:inkscape="http://www.inkscape.org/namespaces/inkscape"
   xmlns:sodipodi="http://sodipodi.sourceforge.net/DTD/sodipodi-0.dtd"
   xmlns:xlink="http://www.w3.org/1999/xlink"
   xmlns="http://www.w3.org/2000/svg"
   xmlns:svg="http://www.w3.org/2000/svg"
   xmlns:rdf="http://www.w3.org/1999/02/22-rdf-syntax-ns#"
   xmlns:cc="http://creativecommons.org/ns#"
   xmlns:dc="http://purl.org/dc/elements/1.1/">
  <sodipodi:namedview
     id="namedview7"
     pagecolor="#9c4444"
     bordercolor="#000000"
     borderopacity="0.25"
     inkscape:showpageshadow="2"
     inkscape:pageopacity="0.0"
     inkscape:pagecheckerboard="0"
     inkscape:deskcolor="#d1d1d1"
     inkscape:zoom="4.3531261"
     inkscape:cx="35.951175"
     inkscape:cy="26.647517"
     inkscape:window-width="2560"
     inkscape:window-height="1392"
     inkscape:window-x="0"
     inkscape:window-y="0"
     inkscape:window-maximized="1"
     inkscape:current-layer="svg7"
     showgrid="false" />
  <defs
     id="defs2">
    <filter
       style="color-interpolation-filters:sRGB;"
       inkscape:label="Blur"
       id="filter3"
       x="-0.10843471"
       y="-0.10870992"
       width="1.2168694"
       height="1.2174198">
      <feGaussianBlur
         stdDeviation="0.5 0.5"
         result="blur"
         id="feGaussianBlur3" />
    </filter>
    <style
       id="current-color-scheme"
       type="text/css">.ColorScheme-Text {color:#d8dee9} .ColorScheme-Highlight {color:#3b4252}</style>
    <linearGradient
       id="linearGradient3"
       inkscape:collect="always">
      <stop
         style="stop-color:#000000;stop-opacity:1;"
         offset="0"
         id="stop3" />
      <stop
         style="stop-color:#000000;stop-opacity:0;"
         offset="1"
         id="stop4" />
    </linearGradient>
    <linearGradient
       inkscape:collect="always"
       xlink:href="#linearGradient3"
       id="linearGradient4"
       x1="13.512321"
       y1="13.490874"
       x2="3.3783066"
       y2="3.3568602"
       gradientUnits="userSpaceOnUse" />
  </defs>
  <metadata
     id="metadata2">
    <rdf:RDF>
      <cc:Work
         rdf:about="">
        <dc:format>image/svg+xml</dc:format>
        <dc:type
           rdf:resource="http://purl.org/dc/dcmitype/StillImage" />
      </cc:Work>
    </rdf:RDF>
  </metadata>
  <ellipse
     style="opacity:1;fill:none;stroke:#000000;stroke-width:0.582072;stroke-dasharray:none;stroke-opacity:1;filter:url(#filter3)"
     id="path1-5"
     cx="8.4450111"
     cy="8.423522"
     rx="6.8752708"
     ry="6.8578653" />
  <ellipse
     style="opacity:1;fill:none;stroke-width:0.58207188;stroke-opacity:1;stroke:currentColor;stroke-dasharray:none;fill-opacity:1"
     id="path1"
     cx="8.4450111"
     cy="8.423522"
     rx="6.8752708"
     ry="6.8578653"
     class="ColorScheme-Text" />
  <ellipse
     style="fill:currentColor;stroke:none;stroke-width:0.285844;stroke-dasharray:none;stroke-opacity:1"
     id="path1-2"
     cx="8.4557552"
     cy="8.423522"
     rx="6.5738997"
     ry="6.5692253"
     class="ColorScheme-Highlight" />
  <path
     id="path4"
     d="m 4.691195,5.0269844 c -0.106721,0.0067 -0.193367,0.106619 -0.193367,0.23335 v 7.4706436 c 0,0.12673 0.09354,0.233349 0.20026,0.233349 H 4.944881 V 5.0269844 H 4.698088 Z m 0.693845,0 v 7.9373426 h 0.259891 c 0.11339,0 0.206809,-0.106619 0.206809,-0.233349 V 5.2603344 c 0,-0.126731 -0.09342,-0.23335 -0.206809,-0.23335 z m 2.421048,0 c 2.074374,0.02668 3.748765,1.7942485 3.748765,3.9686714 0,2.1744232 -1.674392,3.9419922 -3.748765,3.9686712 2.561284,-0.02001 4.629084,-1.787578 4.629084,-3.9686712 0,-2.1810928 -2.0678,-3.9486614 -4.629084,-3.9686714 z M 8.14629,6.6545738 c 1.040521,0.08004 1.867489,1.1004604 1.867489,2.341082 0,1.2406212 -0.826968,2.2610422 -1.867489,2.3410822 h 0.160277 c 1.340673,0 2.421049,-1.0471 2.421049,-2.3410822 0,-1.2939817 -1.080376,-2.341082 -2.421049,-2.341082 z M 7.759556,7.8551022 c -0.2001,0 -0.393582,0.053334 -0.567002,0.1533836 -0.17342,0.1067201 -0.313568,0.25352 -0.413618,0.4336103 -0.10005,0.1800902 -0.153384,0.3867726 -0.153384,0.5935429 0,0.2067702 0.05333,0.4134526 0.153384,0.5935428 0.10005,0.1800902 0.240198,0.327011 0.413618,0.4270612 0.17342,0.10672 0.366902,0.159933 0.567002,0.159933 0.2001,0 0.393583,-0.05321 0.567002,-0.159933 C 8.493309,9.9561928 8.639783,9.809272 8.739833,9.6291818 8.839884,9.4490916 8.893216,9.2424092 8.893216,9.035639 8.893216,8.8288687 8.839886,8.6221863 8.739833,8.4420961 8.639783,8.2620058 8.493309,8.1152059 8.326558,8.0084858 8.153139,7.9084357 7.959656,7.8551022 7.759556,7.8551022 Z m 0,0.4136187 c 0.134379,0 0.242863,0.033444 0.317797,0.1082303 0.08157,0.0681 0.122363,0.1705133 0.122363,0.2919458 0,0.060955 -0.01365,0.1219562 -0.04102,0.1699284 -0.02708,0.0541 -0.06746,0.108154 -0.134771,0.1620006 L 7.957055,9.054252 C 7.917665,9.087103 7.891575,9.11973 7.871915,9.152487 l -3.44e-4,3.448e-4 v 3.449e-4 c -0.01884,0.025115 -0.02551,0.056661 -0.02551,0.1027153 v 0.00655 H 7.598579 l 6.79e-4,-0.00724 c 0.0067,-0.067093 0.02044,-0.1281474 0.05446,-0.1826816 0.0274,-0.054609 0.07442,-0.1017825 0.127877,-0.1485581 h 3.45e-4 v -3.448e-4 c 0.05965,-0.046396 0.106052,-0.092995 0.125119,-0.124775 v -3.449e-4 h 3.45e-4 c 0.02611,-0.039166 0.03895,-0.077632 0.03895,-0.1230515 0,-0.052249 -0.01304,-0.096789 -0.04481,-0.1285665 -0.03209,-0.032093 -0.07691,-0.051357 -0.13546,-0.051357 -0.05855,0 -0.103037,0.018934 -0.142009,0.057907 l -3.45e-4,3.448e-4 c -0.03817,0.03181 -0.0579,0.083348 -0.06445,0.1423538 l -6.79e-4,0.0062 H 7.305259 l 6.8e-4,-0.00758 C 7.319399,8.5601433 7.366629,8.4583828 7.447948,8.3838448 7.529138,8.3094198 7.631406,8.2687209 7.75954,8.2687209 Z M 7.59928,9.4023809 H 7.852965 V 9.669165 H 7.59928 Z"
     style="opacity:0.3;fill:#000000;fill-opacity:1;stroke-width:0.00667002" />
  <path
     id="path4-7"
     d="m 4.691195,4.4978287 c -0.106721,0.0067 -0.193367,0.106619 -0.193367,0.23335 v 7.4706433 c 0,0.12673 0.09354,0.233349 0.20026,0.233349 H 4.944881 V 4.4978287 H 4.698088 Z m 0.693845,0 v 7.9373423 h 0.259891 c 0.11339,0 0.206809,-0.106619 0.206809,-0.233349 V 4.7311787 c 0,-0.126731 -0.09342,-0.23335 -0.206809,-0.23335 z m 2.421048,0 c 2.074374,0.02668 3.748765,1.7942485 3.748765,3.9686714 0,2.1744229 -1.674392,3.9419919 -3.748765,3.9686709 2.561284,-0.02001 4.629084,-1.787578 4.629084,-3.9686709 0,-2.1810928 -2.0678,-3.9486614 -4.629084,-3.9686714 z M 8.14629,6.1254181 c 1.040521,0.08004 1.867489,1.1004604 1.867489,2.341082 0,1.2406215 -0.826968,2.2610419 -1.867489,2.3410819 h 0.160277 c 1.340673,0 2.421049,-1.0471 2.421049,-2.3410819 0,-1.2939817 -1.080376,-2.341082 -2.421049,-2.341082 z M 7.759556,7.3259465 c -0.2001,0 -0.393582,0.053334 -0.567002,0.1533836 -0.17342,0.1067201 -0.313568,0.25352 -0.413618,0.4336103 -0.10005,0.1800902 -0.153384,0.3867726 -0.153384,0.5935429 0,0.2067702 0.05333,0.4134526 0.153384,0.5935428 0.10005,0.1800902 0.240198,0.327011 0.413618,0.4270615 0.17342,0.1067202 0.366902,0.1599323 0.567002,0.1599323 0.2001,0 0.393583,-0.053213 0.567002,-0.1599323 C 8.493309,9.4270371 8.639783,9.2801163 8.739833,9.1000261 8.839884,8.9199359 8.893216,8.7132535 8.893216,8.5064833 8.893216,8.299713 8.839886,8.0930306 8.739833,7.9129404 8.639783,7.7328501 8.493309,7.5860502 8.326558,7.4793301 8.153139,7.37928 7.959656,7.3259465 7.759556,7.3259465 Z m 0,0.4136187 c 0.134379,0 0.242863,0.033444 0.317797,0.1082303 0.08157,0.0681 0.122363,0.1705133 0.122363,0.2919458 0,0.060955 -0.01365,0.1219562 -0.04102,0.1699284 -0.02708,0.0541 -0.06746,0.108154 -0.134771,0.1620006 l -0.06687,0.053426 c -0.03939,0.032851 -0.06548,0.065478 -0.08514,0.098235 l -3.44e-4,3.448e-4 v 3.449e-4 c -0.01884,0.025115 -0.02551,0.056661 -0.02551,0.1027153 v 0.00655 H 7.598579 l 6.79e-4,-0.00724 c 0.0067,-0.067093 0.02044,-0.1281474 0.05446,-0.1826816 0.0274,-0.054609 0.07442,-0.1017825 0.127877,-0.1485581 h 3.45e-4 v -3.448e-4 c 0.05965,-0.046396 0.106052,-0.092995 0.125119,-0.124775 v -3.449e-4 h 3.45e-4 c 0.02611,-0.039166 0.03895,-0.077632 0.03895,-0.1230515 0,-0.052249 -0.01304,-0.096789 -0.04481,-0.1285665 -0.03209,-0.032093 -0.07691,-0.051357 -0.13546,-0.051357 -0.05855,0 -0.103037,0.018934 -0.142009,0.057907 l -3.45e-4,3.448e-4 c -0.03817,0.03181 -0.0579,0.083348 -0.06445,0.1423538 l -6.79e-4,0.0062 H 7.305259 l 6.8e-4,-0.00758 C 7.319399,8.0309876 7.366629,7.9292271 7.447948,7.8546891 7.529138,7.7802641 7.631406,7.7395652 7.75954,7.7395652 Z M 7.59928,8.8732252 H 7.852965 V 9.1400093 H 7.59928 Z"
     style="fill:currentColor;fill-opacity:1;stroke-width:0.00667002"
     class="ColorScheme-Text" />
  <path
     id="gradient-path1"
     style="opacity:0.3;baseline-shift:baseline;display:inline;overflow:visible;vector-effect:none;enable-background:accumulate;stop-color:#000000;stop-opacity:1;fill:url(#linearGradient4)"
     d="M 8.4453131 1.2753492 C 4.4913166 1.2753492 1.2794833 4.4784283 1.2794833 8.4236094 C 1.2794833 12.36879 4.4913166 15.572386 8.4453131 15.572386 C 12.39931 15.572386 15.611143 12.36879 15.611143 8.4236094 C 15.611143 4.4784283 12.39931 1.2753492 8.4453131 1.2753492 z " />
</svg>
