<?xml version="1.0" encoding="UTF-8" standalone="no"?>
<svg
   width="64"
   height="64"
   version="1.1"
   viewBox="0 0 16.933 16.933"
   id="svg7"
   sodipodi:docname="meld.svg"
   inkscape:version="1.4.2 (ebf0e940d0, 2025-05-08)"
   xmlns:inkscape="http://www.inkscape.org/namespaces/inkscape"
   xmlns:sodipodi="http://sodipodi.sourceforge.net/DTD/sodipodi-0.dtd"
   xmlns:xlink="http://www.w3.org/1999/xlink"
   xmlns="http://www.w3.org/2000/svg"
   xmlns:svg="http://www.w3.org/2000/svg"
   xmlns:rdf="http://www.w3.org/1999/02/22-rdf-syntax-ns#"
   xmlns:cc="http://creativecommons.org/ns#"
   xmlns:dc="http://purl.org/dc/elements/1.1/">
  <sodipodi:namedview
     id="namedview7"
     pagecolor="#9c4444"
     bordercolor="#000000"
     borderopacity="0.25"
     inkscape:showpageshadow="2"
     inkscape:pageopacity="0.0"
     inkscape:pagecheckerboard="0"
     inkscape:deskcolor="#d1d1d1"
     inkscape:zoom="4.3531261"
     inkscape:cx="36.870055"
     inkscape:cy="26.188077"
     inkscape:window-width="2560"
     inkscape:window-height="1392"
     inkscape:window-x="0"
     inkscape:window-y="0"
     inkscape:window-maximized="1"
     inkscape:current-layer="svg7"
     showgrid="false" />
  <defs
     id="defs2">
    <filter
       style="color-interpolation-filters:sRGB;"
       inkscape:label="Blur"
       id="filter3"
       x="-0.10843471"
       y="-0.10870992"
       width="1.2168694"
       height="1.2174198">
      <feGaussianBlur
         stdDeviation="0.5 0.5"
         result="blur"
         id="feGaussianBlur3" />
    </filter>
    <style
       id="current-color-scheme"
       type="text/css">.ColorScheme-Text {color:#d8dee9} .ColorScheme-Highlight {color:#3b4252}</style>
    <linearGradient
       id="linearGradient3"
       inkscape:collect="always">
      <stop
         style="stop-color:#000000;stop-opacity:1;"
         offset="0"
         id="stop3" />
      <stop
         style="stop-color:#000000;stop-opacity:0;"
         offset="1"
         id="stop4" />
    </linearGradient>
    <linearGradient
       inkscape:collect="always"
       xlink:href="#linearGradient3"
       id="linearGradient4"
       x1="13.512321"
       y1="13.490874"
       x2="3.3783066"
       y2="3.3568602"
       gradientUnits="userSpaceOnUse" />
  </defs>
  <metadata
     id="metadata2">
    <rdf:RDF>
      <cc:Work
         rdf:about="">
        <dc:format>image/svg+xml</dc:format>
        <dc:type
           rdf:resource="http://purl.org/dc/dcmitype/StillImage" />
      </cc:Work>
    </rdf:RDF>
  </metadata>
  <ellipse
     style="opacity:1;fill:none;stroke:#000000;stroke-width:0.582072;stroke-dasharray:none;stroke-opacity:1;filter:url(#filter3)"
     id="path1-5"
     cx="8.4450111"
     cy="8.423522"
     rx="6.8752708"
     ry="6.8578653" />
  <ellipse
     style="opacity:1;fill:none;stroke-width:0.58207188;stroke-opacity:1;stroke:currentColor;stroke-dasharray:none;fill-opacity:1"
     id="path1"
     cx="8.4450111"
     cy="8.423522"
     rx="6.8752708"
     ry="6.8578653"
     class="ColorScheme-Text" />
  <ellipse
     style="fill:currentColor;stroke:none;stroke-width:0.285844;stroke-dasharray:none;stroke-opacity:1"
     id="path1-2"
     cx="8.4557552"
     cy="8.423522"
     rx="6.5738997"
     ry="6.5692253"
     class="ColorScheme-Highlight" />
  <path
     d="m 5.489633,5.0269844 c -0.549454,0 -0.991805,0.442507 -0.991805,0.992168 v 2.976504 0.992168 c 0,1.6489826 1.327004,2.9765036 2.975367,2.9765036 h 0.991806 2.975366 c 0.549455,0 0.991805,-0.442507 0.991805,-0.992168 v -0.04941 l 0.003,-0.0029 V 10.140961 9.3522874 c -9.05e-4,-0.0023 -0.002,-0.0045 -0.003,-0.0068 v -0.349779 -0.992168 c 0,-1.648984 -1.327003,-2.976505 -2.975366,-2.976505 H 8.46505 Z m 2.419414,0.496084 h 0.555954 0.867836 c 1.442293,0 2.603459,1.161581 2.603459,2.604441 v 0.310052 c -0.0957,-0.133209 -0.196803,-0.263718 -0.310901,-0.386598 -0.419855,-0.452151 -1.043547,-0.829601 -1.689141,-0.969894 -0.161397,-0.03506 -0.323963,-0.05532 -0.485242,-0.05814 -0.483839,-0.0084 -0.954054,0.139534 -1.334645,0.513546 -0.17381,0.170792 -0.320235,0.423825 -0.371923,0.683108 -0.05167,0.259258 -0.0094,0.524559 0.195648,0.72086 0.06504,0.06231 0.161978,0.115136 0.259573,0.132742 0.09703,0.0175 0.194794,3.71e-4 0.265379,-0.07751 -0.07875,-0.07158 -0.09609,-0.171512 -0.07845,-0.269359 0.01781,-0.09851 0.07082,-0.194991 0.133667,-0.260638 0.19725,-0.206083 0.464431,-0.249535 0.724471,-0.197659 0.260037,0.05188 0.513487,0.198572 0.684783,0.37303 0.374592,0.381523 0.522666,0.853215 0.514282,1.338088 -0.0028,0.1616186 -0.023,0.3247106 -0.05811,0.4863946 -0.140398,0.646745 -0.518896,1.271165 -0.971467,1.691746 -0.123298,0.114585 -0.254631,0.215101 -0.388388,0.311019 H 8.465051 7.597214 c -1.442293,0 -2.603458,-1.161581 -2.603458,-2.6044396 v -0.316835 c 0.0969,0.135685 0.199665,0.268372 0.315748,0.39338 0.419854,0.4521506 1.043545,0.8296006 1.689139,0.9698936 0.645594,0.140258 1.313364,0.04327 1.820848,-0.45539 0.173829,-0.170792 0.320238,-0.423825 0.371924,-0.6831076 0.05167,-0.259258 0.0084,-0.524559 -0.196616,-0.72086 -0.06504,-0.06231 -0.161004,-0.115136 -0.258598,-0.132742 -0.09699,-0.0175 -0.1948,-2.98e-4 -0.265382,0.07751 0.07875,0.07159 0.09609,0.171501 0.07845,0.269359 -0.01781,0.09852 -0.07082,0.194991 -0.133647,0.260638 -0.197261,0.206093 -0.464424,0.249535 -0.72447,0.197659 -0.26005,-0.05188 -0.51344,-0.198562 -0.684785,-0.37303 -0.374597,-0.381528 -0.522665,-0.853215 -0.514282,-1.338088 0.0028,-0.161619 0.023,-0.324711 0.05811,-0.486395 0.140398,-0.646745 0.517903,-1.271165 0.970474,-1.691746 0.123299,-0.114584 0.254625,-0.215102 0.388387,-0.311019 z"
     overflow="visible"
     stroke-width="0.49599"
     id="path5"
     style="opacity:0.3;fill:#000000;fill-opacity:1" />
  <path
     d="m 5.4896335,4.497828 c -0.549455,0 -0.991805,0.442507 -0.991805,0.992168 V 8.4665 9.458668 c 0,1.648983 1.327003,2.976504 2.975367,2.976504 h 0.991805 2.9753655 c 0.549455,0 0.991805,-0.442507 0.991805,-0.992168 v -0.04941 l 0.003,-0.0029 V 9.611805 8.823131 c -9.04e-4,-0.0023 -0.002,-0.0045 -0.003,-0.0068 V 8.466552 7.474384 c 0,-1.648984 -1.327003,-2.976505 -2.9753655,-2.976505 h -0.991755 z m 2.419413,0.496084 h 0.555954 0.867837 c 1.4422925,0 2.6034585,1.161581 2.6034585,2.604441 V 7.908405 C 11.840596,7.775196 11.739492,7.644687 11.625395,7.521807 11.20554,7.069656 10.581847,6.692206 9.9362545,6.551913 c -0.161397,-0.03506 -0.323963,-0.05532 -0.485242,-0.05814 -0.48384,-0.0084 -0.954054,0.139534 -1.334646,0.513546 -0.17381,0.170792 -0.320235,0.423825 -0.371923,0.683108 -0.05167,0.259258 -0.0094,0.524559 0.195648,0.72086 0.06504,0.06231 0.161979,0.115136 0.259573,0.132742 0.09703,0.0175 0.194795,3.71e-4 0.265379,-0.07751 -0.07875,-0.07158 -0.09609,-0.171512 -0.07845,-0.269359 0.01781,-0.09851 0.07082,-0.194991 0.133667,-0.260638 0.19725,-0.206083 0.464431,-0.249535 0.724471,-0.197659 0.260037,0.05188 0.513488,0.198572 0.684783,0.37303 0.3745915,0.381523 0.5226655,0.853215 0.5142815,1.338088 -0.0028,0.161619 -0.023,0.324711 -0.05811,0.486395 -0.140399,0.646745 -0.5188965,1.271165 -0.9714675,1.691746 -0.123298,0.114585 -0.25463,0.215101 -0.388388,0.311019 h -0.560781 -0.867837 c -1.442293,0 -2.603457,-1.161581 -2.603457,-2.60444 V 9.017866 c 0.0969,0.135685 0.199664,0.268372 0.315748,0.39338 0.419854,0.452151 1.043545,0.829601 1.689138,0.969894 0.645595,0.140258 1.313364,0.04327 1.820849,-0.45539 0.173829,-0.170792 0.320237,-0.423825 0.371924,-0.683108 0.05167,-0.259258 0.0084,-0.524559 -0.196616,-0.72086 -0.06504,-0.06231 -0.161004,-0.115136 -0.258598,-0.132742 -0.09699,-0.0175 -0.1948,-2.98e-4 -0.265382,0.07751 0.07875,0.07159 0.09609,0.171501 0.07845,0.269359 -0.01781,0.09852 -0.07082,0.194991 -0.133647,0.260638 -0.197261,0.206093 -0.464424,0.249535 -0.72447,0.197659 -0.26005,-0.05188 -0.51344,-0.198562 -0.684785,-0.37303 -0.374598,-0.381528 -0.522665,-0.853215 -0.514283,-1.338088 0.0028,-0.161619 0.023,-0.324711 0.05811,-0.486395 0.140399,-0.646745 0.517904,-1.271165 0.970475,-1.691746 0.123298,-0.114584 0.254624,-0.215102 0.388387,-0.311019 z"
     overflow="visible"
     stroke-width="0.49599"
     id="path5-7"
     style="fill:currentColor;fill-opacity:1"
     class="ColorScheme-Text" />
  <path
     id="gradient-path1"
     style="opacity:0.3;baseline-shift:baseline;display:inline;overflow:visible;vector-effect:none;enable-background:accumulate;stop-color:#000000;stop-opacity:1;fill:url(#linearGradient4)"
     d="M 8.4453131 1.2753492 C 4.4913166 1.2753492 1.2794833 4.4784283 1.2794833 8.4236094 C 1.2794833 12.36879 4.4913166 15.572386 8.4453131 15.572386 C 12.39931 15.572386 15.611143 12.36879 15.611143 8.4236094 C 15.611143 4.4784283 12.39931 1.2753492 8.4453131 1.2753492 z " />
</svg>
