<?xml version="1.0" encoding="UTF-8" standalone="no"?>
<svg
   width="64"
   height="64"
   version="1.1"
   viewBox="0 0 16.933 16.933"
   id="svg7"
   sodipodi:docname="mendeley-reference-manager.svg"
   inkscape:version="1.4.2 (ebf0e940d0, 2025-05-08)"
   xmlns:inkscape="http://www.inkscape.org/namespaces/inkscape"
   xmlns:sodipodi="http://sodipodi.sourceforge.net/DTD/sodipodi-0.dtd"
   xmlns:xlink="http://www.w3.org/1999/xlink"
   xmlns="http://www.w3.org/2000/svg"
   xmlns:svg="http://www.w3.org/2000/svg"
   xmlns:rdf="http://www.w3.org/1999/02/22-rdf-syntax-ns#"
   xmlns:cc="http://creativecommons.org/ns#"
   xmlns:dc="http://purl.org/dc/elements/1.1/">
  <sodipodi:namedview
     id="namedview7"
     pagecolor="#9c4444"
     bordercolor="#000000"
     borderopacity="0.25"
     inkscape:showpageshadow="2"
     inkscape:pageopacity="0.0"
     inkscape:pagecheckerboard="0"
     inkscape:deskcolor="#d1d1d1"
     inkscape:zoom="8.7062522"
     inkscape:cx="72.419221"
     inkscape:cy="15.276378"
     inkscape:window-width="2560"
     inkscape:window-height="1392"
     inkscape:window-x="0"
     inkscape:window-y="0"
     inkscape:window-maximized="1"
     inkscape:current-layer="svg7"
     showgrid="false" />
  <defs
     id="defs2">
    <filter
       style="color-interpolation-filters:sRGB;"
       inkscape:label="Blur"
       id="filter3"
       x="-0.10843471"
       y="-0.10870992"
       width="1.2168694"
       height="1.2174198">
      <feGaussianBlur
         stdDeviation="0.5 0.5"
         result="blur"
         id="feGaussianBlur3" />
    </filter>
    <style
       id="current-color-scheme"
       type="text/css">.ColorScheme-Text {color:#d8dee9} .ColorScheme-Highlight {color:#3b4252}</style>
    <linearGradient
       id="linearGradient3"
       inkscape:collect="always">
      <stop
         style="stop-color:#000000;stop-opacity:1;"
         offset="0"
         id="stop3" />
      <stop
         style="stop-color:#000000;stop-opacity:0;"
         offset="1"
         id="stop4" />
    </linearGradient>
    <linearGradient
       inkscape:collect="always"
       xlink:href="#linearGradient3"
       id="linearGradient4"
       x1="13.512321"
       y1="13.490874"
       x2="3.3783066"
       y2="3.3568602"
       gradientUnits="userSpaceOnUse" />
  </defs>
  <metadata
     id="metadata2">
    <rdf:RDF>
      <cc:Work
         rdf:about="">
        <dc:format>image/svg+xml</dc:format>
        <dc:type
           rdf:resource="http://purl.org/dc/dcmitype/StillImage" />
      </cc:Work>
    </rdf:RDF>
  </metadata>
  <ellipse
     style="opacity:1;fill:none;stroke:#000000;stroke-width:0.582072;stroke-dasharray:none;stroke-opacity:1;filter:url(#filter3)"
     id="path1-5"
     cx="8.4450111"
     cy="8.423522"
     rx="6.8752708"
     ry="6.8578653" />
  <ellipse
     style="opacity:1;fill:none;stroke-width:0.58207188;stroke-opacity:1;stroke:currentColor;stroke-dasharray:none;fill-opacity:1"
     id="path1"
     cx="8.4450111"
     cy="8.423522"
     rx="6.8752708"
     ry="6.8578653"
     class="ColorScheme-Text" />
  <ellipse
     style="fill:currentColor;stroke:none;stroke-width:0.285844;stroke-dasharray:none;stroke-opacity:1"
     id="path1-2"
     cx="8.4557552"
     cy="8.423522"
     rx="6.5738997"
     ry="6.5692253"
     class="ColorScheme-Highlight" />
  <path
     id="path5"
     style="opacity:0.3;fill:#000000;fill-opacity:1;stroke-width:0.0248043"
     d="M 6.842354,6.7915227 C 6.6235369,6.7891427 6.4012338,6.8503448 6.2014768,6.9815334 5.7768107,7.2602083 5.6233846,7.7105118 5.7047466,8.2108697 c 0.022959,0.1408949 0.066969,0.2774884 0.0905,0.4181052 0.03345,0.1950402 0.0497,0.3927529 0.015969,0.5909174 -0.037989,0.2256593 -0.1592171,0.3600285 -0.3718321,0.4025439 -0.05613,0.011632 -0.1152621,0.01107 -0.172811,0.01392 -0.0499,0.00346 -0.100966,-2.108e-4 -0.1502891,0.0057 -0.1760491,0.024946 -0.3126481,0.1229145 -0.4402181,0.2391508 -0.0825,0.075125 -0.1329611,0.166964 -0.1547931,0.27355 -0.013041,0.06492 -0.022779,0.131111 -0.02334,0.195743 -0.00231,0.214032 0.032709,0.417765 0.1855061,0.581908 0.1922041,0.206666 0.4265332,0.305929 0.7080362,0.253484 0.4218336,-0.07796 0.6879307,-0.486677 0.5929646,-0.906238 -0.023809,-0.10205 -0.06956,-0.197627 -0.1007386,-0.2977012 -0.06776,-0.2168697 -0.03821,-0.413141 0.123671,-0.5806782 0.0808,-0.083913 0.1799041,-0.1421641 0.2870641,-0.1846875 0.2508911,-0.1000733 0.5125892,-0.1190732 0.7776512,-0.084767 0.171228,0.02211 0.3336912,0.073372 0.479122,0.1711725 0.2650622,0.177468 0.3137402,0.467574 0.1719921,0.7281014 -0.183135,0.337069 -0.102456,0.750096 0.2022961,0.98568 0.1967452,0.151951 0.4217403,0.191556 0.6629894,0.168305 0.5709535,-0.05471 0.9095641,-0.660389 0.620401,-1.169546 -0.1210515,-0.2129013 -0.09572,-0.4684186 0.09705,-0.6470192 0.0808,-0.075122 0.1750281,-0.1267627 0.2776455,-0.1650315 0.2392632,-0.089864 0.4863511,-0.1048275 0.7375201,-0.071663 0.186537,0.024944 0.36472,0.079668 0.520071,0.1916484 0.184555,0.1338112 0.27698,0.3117712 0.239561,0.5405472 -0.01389,0.086184 -0.04412,0.1706081 -0.07617,0.2522561 -0.06008,0.14912 -0.08068,0.302349 -0.05487,0.461105 0.0567,0.348408 0.350515,0.60887 0.708855,0.621628 0.320626,0.01107 0.670805,-0.207067 0.747347,-0.557745 0.02604,-0.117083 0.03739,-0.234877 0.02293,-0.354223 -0.03799,-0.3200628 -0.214248,-0.5552007 -0.544231,-0.6314585 -0.07399,-0.017294 -0.152903,-0.01821 -0.229733,-0.016792 -0.29965,0.00563 -0.48174,-0.1356585 -0.525396,-0.4316191 -0.01927,-0.1298415 -0.01632,-0.2636265 -0.0069,-0.3951724 0.0099,-0.1369267 0.02887,-0.2754768 0.06428,-0.4078679 0.03771,-0.1425933 0.07186,-0.2833528 0.07043,-0.4316192 -0.0059,-0.073137 -0.0059,-0.1473324 -0.01719,-0.2199056 C 11.168848,7.2894009 10.817492,6.9228341 10.349731,6.8193645 9.8972777,6.718445 9.4367084,6.9071104 9.1662589,7.2841536 9.0613707,7.4307154 8.9316364,7.5636881 8.7981131,7.6858787 8.6158325,7.8494513 8.3703591,7.8534588 8.1773025,7.7108587 8.0245,7.5983115 7.8919743,7.4605475 7.7862242,7.304629 7.5622673,6.9761355 7.2070081,6.7954806 6.842313,6.7915182 Z M 8.4742344,8.0630381 C 8.9037267,8.0636268 9.2517665,8.411708 9.2506572,8.838642 9.2490072,9.2267399 8.9482586,9.6171126 8.4697295,9.6171126 7.9897822,9.6171126 7.6873752,9.22448 7.6888022,8.8349564 7.6899122,8.4057521 8.0404954,8.0619286 8.4742344,8.0630381 Z" />
  <path
     id="path5-7"
     style="fill:currentColor;stroke-width:0.0248043"
     d="M 6.8423536,6.2624258 C 6.6235365,6.2600416 6.4012334,6.3212479 6.2014764,6.4524364 5.7768103,6.7311113 5.6233843,7.1814149 5.7047462,7.6817726 c 0.022959,0.140895 0.066969,0.2774885 0.0905,0.4181055 0.03345,0.1950404 0.0497,0.3927525 0.015969,0.590917 -0.037989,0.22566 -0.1592166,0.3600287 -0.3718315,0.4025439 -0.05613,0.011632 -0.1152622,0.01107 -0.172811,0.01392 -0.0499,0.00346 -0.1009661,-2.107e-4 -0.1502891,0.0057 -0.1760492,0.024945 -0.3126482,0.1229145 -0.4402183,0.2391511 -0.0825,0.075122 -0.1329609,0.1669642 -0.154793,0.2735495 -0.013041,0.064918 -0.022779,0.1311112 -0.02334,0.1957429 -0.00231,0.2140335 0.032709,0.4177665 0.1855061,0.5819085 0.1922041,0.206676 0.4265332,0.30594 0.7080363,0.253494 0.4218334,-0.07794 0.6879305,-0.486653 0.5929644,-0.9062142 -0.02381,-0.1020593 -0.06956,-0.1976362 -0.100739,-0.2977099 -0.06776,-0.2168708 -0.03821,-0.4131426 0.123671,-0.5806789 0.0808,-0.083913 0.1799041,-0.1421643 0.2870642,-0.1846876 0.250891,-0.1000733 0.5125891,-0.1190734 0.7776511,-0.084768 0.1712282,0.022114 0.3336912,0.073371 0.4791221,0.1711735 0.2650622,0.1774679 0.3137402,0.4675738 0.1719921,0.7281014 -0.183135,0.337069 -0.1024561,0.7500977 0.202296,0.9856787 0.1967453,0.151952 0.4217403,0.191557 0.6629895,0.168307 0.5709533,-0.05471 0.9095639,-0.6603901 0.6204008,-1.1695467 -0.1210516,-0.212901 -0.09572,-0.4684186 0.09705,-0.6470194 0.0808,-0.075122 0.1750282,-0.126763 0.2776455,-0.1650308 0.2392636,-0.089865 0.4863496,-0.1048278 0.7375196,-0.071663 0.186537,0.024944 0.36472,0.079667 0.520071,0.1916489 0.184555,0.1338107 0.276981,0.311771 0.239562,0.5405473 -0.01389,0.086184 -0.04412,0.1706076 -0.07617,0.2522558 -0.06008,0.14912 -0.08068,0.3023486 -0.05487,0.4611029 0.0567,0.348408 0.350516,0.608871 0.708855,0.62163 0.320626,0.01107 0.670805,-0.207069 0.747347,-0.557747 0.02604,-0.1170815 0.03739,-0.2348764 0.02293,-0.3542222 -0.03799,-0.3200611 -0.214248,-0.5551996 -0.544231,-0.6314573 -0.07399,-0.017295 -0.152903,-0.018218 -0.229733,-0.016793 -0.29965,0.00563 -0.48174,-0.1356587 -0.525396,-0.431619 -0.01927,-0.1298417 -0.01632,-0.2636266 -0.0069,-0.3951729 0.0099,-0.1369264 0.02887,-0.2754766 0.06428,-0.4078678 0.03771,-0.1425932 0.07186,-0.2833526 0.07043,-0.431619 -0.0059,-0.073137 -0.0059,-0.1473324 -0.01719,-0.2199056 C 11.168847,6.760304 10.817491,6.3937371 10.34973,6.2902675 9.8972777,6.189348 9.436708,6.3780135 9.1662586,6.7550565 9.0613703,6.9016184 8.931636,7.0345912 8.7981127,7.1567818 8.6158321,7.3203544 8.3703588,7.3243618 8.1773022,7.1817617 8.0244996,7.0692145 7.8919739,6.9314504 7.7862239,6.775532 7.5622668,6.4470385 7.2070077,6.2663835 6.8423126,6.2624211 Z m 1.6318803,1.2715153 c 0.4294923,5.888e-4 0.7775321,0.3486698 0.7764229,0.7756039 -0.00164,0.3880976 -0.3023985,0.7784706 -0.7809277,0.7784706 -0.4799473,0 -0.7823543,-0.3926323 -0.7809272,-0.7821561 0.0011,-0.4292045 0.3516931,-0.7730277 0.785432,-0.7719184 z"
     class="ColorScheme-Text" />
  <path
     id="gradient-path1"
     style="opacity:0.3;baseline-shift:baseline;display:inline;overflow:visible;vector-effect:none;enable-background:accumulate;stop-color:#000000;stop-opacity:1;fill:url(#linearGradient4)"
     d="M 8.4453131 1.2753492 C 4.4913166 1.2753492 1.2794833 4.4784283 1.2794833 8.4236094 C 1.2794833 12.36879 4.4913166 15.572386 8.4453131 15.572386 C 12.39931 15.572386 15.611143 12.36879 15.611143 8.4236094 C 15.611143 4.4784283 12.39931 1.2753492 8.4453131 1.2753492 z " />
</svg>
