<?xml version="1.0" encoding="UTF-8" standalone="no"?>
<svg
   width="64"
   height="64"
   version="1.1"
   viewBox="0 0 16.933 16.933"
   id="svg7"
   sodipodi:docname="minigalaxy.svg"
   inkscape:version="1.4.3 (0d15f75042, 2025-12-25)"
   xmlns:inkscape="http://www.inkscape.org/namespaces/inkscape"
   xmlns:sodipodi="http://sodipodi.sourceforge.net/DTD/sodipodi-0.dtd"
   xmlns:xlink="http://www.w3.org/1999/xlink"
   xmlns="http://www.w3.org/2000/svg"
   xmlns:svg="http://www.w3.org/2000/svg"
   xmlns:rdf="http://www.w3.org/1999/02/22-rdf-syntax-ns#"
   xmlns:cc="http://creativecommons.org/ns#"
   xmlns:dc="http://purl.org/dc/elements/1.1/">
  <sodipodi:namedview
     id="namedview7"
     pagecolor="#9c4444"
     bordercolor="#000000"
     borderopacity="0.25"
     inkscape:showpageshadow="2"
     inkscape:pageopacity="0.0"
     inkscape:pagecheckerboard="0"
     inkscape:deskcolor="#d1d1d1"
     inkscape:zoom="4.3531261"
     inkscape:cx="36.410615"
     inkscape:cy="25.958357"
     inkscape:window-width="2560"
     inkscape:window-height="1388"
     inkscape:window-x="0"
     inkscape:window-y="0"
     inkscape:window-maximized="1"
     inkscape:current-layer="svg7"
     showgrid="false" />
  <defs
     id="defs2">
    <filter
       style="color-interpolation-filters:sRGB;"
       inkscape:label="Blur"
       id="filter3"
       x="-0.10843471"
       y="-0.10870992"
       width="1.2168694"
       height="1.2174198">
      <feGaussianBlur
         stdDeviation="0.5 0.5"
         result="blur"
         id="feGaussianBlur3" />
    </filter>
    <style
       id="current-color-scheme"
       type="text/css">.ColorScheme-Text {color:#d8dee9} .ColorScheme-Highlight {color:#3b4252}</style>
    <linearGradient
       id="linearGradient3"
       inkscape:collect="always">
      <stop
         style="stop-color:#000000;stop-opacity:1;"
         offset="0"
         id="stop3" />
      <stop
         style="stop-color:#000000;stop-opacity:0;"
         offset="1"
         id="stop4" />
    </linearGradient>
    <linearGradient
       inkscape:collect="always"
       xlink:href="#linearGradient3"
       id="linearGradient4"
       x1="13.512321"
       y1="13.490874"
       x2="3.3783066"
       y2="3.3568602"
       gradientUnits="userSpaceOnUse" />
  </defs>
  <metadata
     id="metadata2">
    <rdf:RDF>
      <cc:Work
         rdf:about="">
        <dc:format>image/svg+xml</dc:format>
        <dc:type
           rdf:resource="http://purl.org/dc/dcmitype/StillImage" />
      </cc:Work>
    </rdf:RDF>
  </metadata>
  <ellipse
     style="opacity:1;fill:none;stroke:#000000;stroke-width:0.582072;stroke-dasharray:none;stroke-opacity:1;filter:url(#filter3)"
     id="path1-5"
     cx="8.4450111"
     cy="8.423522"
     rx="6.8752708"
     ry="6.8578653" />
  <ellipse
     style="opacity:1;fill:none;stroke-width:0.58207188;stroke-opacity:1;stroke:currentColor;stroke-dasharray:none;fill-opacity:1"
     id="path1"
     cx="8.4450111"
     cy="8.423522"
     rx="6.8752708"
     ry="6.8578653"
     class="ColorScheme-Text" />
  <ellipse
     style="fill:currentColor;stroke:none;stroke-width:0.285844;stroke-dasharray:none;stroke-opacity:1"
     id="path1-2"
     cx="8.4557552"
     cy="8.423522"
     rx="6.5738997"
     ry="6.5692253"
     class="ColorScheme-Highlight" />
  <path
     id="path5"
     style="opacity:0.3;fill:#000000;fill-opacity:1;stroke-width:0.566039"
     d="m 8.4300171,5.0279151 c -0.04784,0.0019 -0.09023,0.0066 -0.125602,0.01455 -0.644517,0.14444 -0.861093,0.217266 -1.128513,0.379716 -0.509555,0.309538 -0.857815,0.786494 -1.045348,1.431583 -0.07487,0.257541 -0.08355,0.445912 -0.05788,1.256223 0.01683,0.531426 0.06434,1.11236 0.107344,1.312803 0.104067,0.48504 0.100569,0.534416 -0.04244,0.5887859 -0.06788,0.02581 -0.133848,0.06565 -0.146569,0.08858 -0.05498,0.0991 0.08436,0.395454 0.276184,0.58728 0.212466,0.212466 0.236491,0.301646 0.05507,0.204555 -0.157218,-0.08414 -0.371728,-0.363257 -0.404294,-0.526084 -0.03487,-0.174336 -0.06398,-0.180409 -0.210574,-0.04384 -0.06996,0.06518 -0.09876,0.136022 -0.07835,0.192617 0.118846,0.329514 0.617604,0.718946 0.797453,0.622694 0.05507,-0.02947 0.10594,-0.04587 0.113062,-0.03652 0.0071,0.0094 0.06562,0.183935 0.130016,0.388043 0.0644,0.204108 0.145239,0.394474 0.179676,0.423055 0.135264,0.112259 0.536495,0.220415 0.95265,0.256822 0.607266,0.05313 0.675389,0.0535 1.284112,0.0064 0.363945,-0.02815 0.624011,-0.07818 0.79966,-0.153792 0.2553689,-0.109936 0.2624469,-0.119045 0.3757029,-0.482144 0.06349,-0.203555 0.12572,-0.401615 0.138344,-0.44011 0.01836,-0.05599 0.0383,-0.05724 0.09942,-0.0065 0.115431,0.0958 0.349384,-0.02164 0.591895,-0.297151 0.228827,-0.259961 0.257256,-0.430404 0.09129,-0.54665 -0.107874,-0.07556 -0.114963,-0.07106 -0.177668,0.112661 -0.06561,0.192246 -0.460003,0.614137 -0.518962,0.555177 -0.01735,-0.01735 0.03859,-0.106342 0.124197,-0.197733 0.224237,-0.239367 0.325242,-0.404351 0.325242,-0.531201 0,-0.129659 -0.236241,-0.3138729 -0.27147,-0.2116769 -0.0283,0.08211 0.0023,-0.08377 0.125803,-0.681684 0.121709,-0.58929 0.188397,-1.553315 0.13724,-1.983751 -0.104977,-0.88327 -0.591781,-1.666499 -1.2462899,-2.005321 -0.314699,-0.16291 -0.915528,-0.290518 -1.250404,-0.277388 z m -0.04374,0.16854 c 0.115022,-0.0058 0.233733,-0.0052 0.356141,0.0018 0.387514,0.02206 0.507035,0.05269 0.831361,0.212982 1.0083439,0.498351 1.4412169,1.702675 1.1832889,3.29174 -0.04262,0.262558 -0.106353,0.484589 -0.147873,0.514949 -0.04014,0.02936 -0.08168,0.099 -0.0923,0.154795 -0.01602,0.0842 -0.08912,0.112147 -0.429777,0.164427 -0.4756329,0.073 -2.7420049,0.126132 -3.1584129,0.07404 -0.331394,-0.04146 -0.410915,-0.08286 -0.410915,-0.213583 0,-0.05997 -0.04267,-0.102222 -0.113464,-0.112461 -0.166791,-0.02413 -0.208915,-0.283789 -0.215089,-1.326246 -0.0059,-1.001542 0.04146,-1.231833 0.353834,-1.72071 0.415578,-0.650404 1.038049,-1.001478 1.843201,-1.041735 z m 0.111558,0.297251 c -0.06794,-6.22e-4 -0.136342,0.0092 -0.185194,0.02799 -0.01888,0.0072 -0.02915,0.01696 -0.03602,0.0288 -0.0069,0.01182 -0.0102,0.02686 -0.0085,0.04515 0.0033,0.03656 0.0289,0.08425 0.08076,0.11868 0.106924,0.07099 0.127551,0.134798 0.09561,0.305077 -0.03375,0.179893 -0.07576,0.222708 -0.286316,0.27809 -0.381274,0.100287 -0.688751,0.240443 -0.927069,0.42145 -0.238318,0.181007 -0.408117,0.402475 -0.515952,0.670245 -0.05629,0.139771 -0.08472,0.225769 -0.100923,0.381623 -0.0162,0.155853 -0.01886,0.381691 -0.01886,0.787421 0,0.241883 0.0042,0.466104 0.01103,0.631723 0.0034,0.08281 0.0075,0.1511 0.01184,0.198837 0.0021,0.02291 0.0044,0.04116 0.0063,0.05307 0.0062,0.0023 0.01449,0.0049 0.02428,0.0077 0.02593,0.0074 0.06242,0.01591 0.104836,0.02418 0.05655,0.01102 0.123941,0.02183 0.19362,0.0306 0.208755,0.02628 0.8767,0.0289 1.541837,0.01384 0.665136,-0.01505 1.339366,-0.04772 1.5645089,-0.08417 l 0.345205,-0.05588 0.04063,-0.498898 c 0.07495,-0.919944 -0.08442,-1.597207 -0.4638849,-2.029397 -0.111103,-0.12654 -0.224344,-0.222221 -0.365872,-0.303372 -0.141527,-0.08115 -0.311944,-0.147651 -0.536016,-0.212279 -0.177393,-0.05117 -0.288455,-0.0838 -0.354033,-0.129114 -0.07149,-0.0494 -0.09049,-0.112187 -0.112761,-0.206361 -0.04322,-0.182759 -0.02646,-0.237944 0.093,-0.334671 0.02474,-0.02003 0.04281,-0.03608 0.05388,-0.04796 0.01106,-0.01187 0.01409,-0.01884 0.01435,-0.01976 v -1.02e-4 c -1.03e-4,-2.14e-4 -2.14e-4,-6.23e-4 -4.08e-4,-0.0012 -0.0012,-0.004 -0.0088,-0.01748 -0.02488,-0.03692 -0.0076,-0.0091 -0.02947,-0.02413 -0.0613,-0.03561 -0.04774,-0.01723 -0.115758,-0.02818 -0.183688,-0.02879 z m 0.07033,1.073337 c 0.106894,0.0038 0.212985,0.02402 0.314507,0.0621 1.079098,0.404748 1.09292,1.974327 0.01675,2.296754 -0.495269,0.148386 -0.959388,0.02167 -1.299561,-0.355639 -0.332083,-0.36833 -0.397513,-0.822496 -0.184992,-1.278895 0.211884,-0.455031 0.691652,-0.740921 1.153292,-0.724319 z m -0.04715,0.107745 c -0.643292,0 -1.127811,0.474407 -1.127811,1.104336 0,0.482879 0.323148,0.937624 0.767056,1.079556 0.728482,0.232921 1.447442,-0.286788 1.452049,-1.049661 0.0021,-0.346984 -0.09464,-0.592032 -0.324739,-0.822131 -0.222528,-0.222529 -0.442622,-0.3121 -0.766555,-0.3121 z m -0.02056,0.256822 c 0.936907,0 1.216065,1.217166 0.377308,1.645067 -0.25547,0.130332 -0.481993,0.128273 -0.755319,-0.007 -0.31475,-0.155798 -0.441118,-0.35916 -0.465992,-0.749801 -0.02172,-0.341124 0.0041,-0.374923 0.204956,-0.267456 0.24709,0.132237 0.537623,-0.163342 0.404696,-0.411719 -0.08408,-0.157101 -0.02579,-0.209069 0.234351,-0.209069 z m 0.944624,2.020269 c 0.01963,3.96e-4 0.03944,0.0029 0.05688,0.0097 0.03114,0.01217 0.07837,0.0314 0.08487,0.07885 0.005,0.03621 -0.01856,0.06576 -0.03782,0.08577 -0.01992,0.02071 -0.05245,0.04797 -0.08939,0.07765 -0.08682,0.06977 -0.245362,0.151512 -0.357445,0.185093 -0.240654,0.0721 -0.949607,0.06959 -1.211078,-9.06e-4 -0.193724,-0.05223 -0.402563,-0.167352 -0.428472,-0.289326 -0.0079,-0.03716 0.0015,-0.07386 0.0301,-0.102529 0.07104,-0.07127 0.16573,-0.05246 0.3749,0.03752 0.166889,0.07179 0.397021,0.109869 0.626606,0.110152 0.229586,2.84e-4 0.459252,-0.03725 0.625001,-0.108547 0.110001,-0.04732 0.227055,-0.07986 0.306382,-0.08327 0.0064,-2.77e-4 0.01292,-3.33e-4 0.01946,-2e-4 z m -2.831968,0.485054 v 1.02e-4 h 1.03e-4 v -1.02e-4 z m 0.01294,0.01304 c 9.3e-5,4.63e-4 1.13e-4,7.93e-4 1.94e-4,0.0012 1.19e-4,5.4e-4 2.92e-4,0.0011 4.08e-4,0.0015 9.3e-5,4.12e-4 1.23e-4,7.36e-4 1.94e-4,10e-4 v 1.03e-4 l 1.03e-4,1.02e-4 v 1.04e-4 c 1.8e-5,5e-5 8.2e-5,1.53e-4 1.02e-4,2.05e-4 v 1.03e-4 l 1.03e-4,1.02e-4 h 1.04e-4 v 1.03e-4 l 1.02e-4,1.03e-4 h 1.02e-4 l 1.03e-4,1.03e-4 1.03e-4,1.02e-4 1.03e-4,1.03e-4 c 2e-5,10e-6 2.33e-4,5.1e-5 3.1e-4,1.03e-4 l 1.03e-4,1.03e-4 h 1.03e-4 1.03e-4 l 1.03e-4,-1.03e-4 1.02e-4,-1.03e-4 v -1.03e-4 -1.02e-4 -1.03e-4 c -7.2e-5,-7.36e-4 -6.79e-4,-0.0022 -0.0025,-0.0046 z m -0.313704,0.5635049 c 0.02825,0 0.05136,0.05778 0.05136,0.128411 0,0.134475 -0.0119,0.150822 -0.06852,0.0942 -0.05328,-0.05328 -0.04023,-0.222612 0.01716,-0.222611 z m 3.026691,0.305879 0.08076,0.1562 c 0.06997,0.135312 0.07262,0.216098 0.01966,0.604636 -0.09103,0.667886 -0.0812,0.653617 -0.500201,0.722814 -0.489677,0.08087 -0.797497,0.06944 -1.244586,-0.04625 l -0.184294,-0.04775 -0.093,-0.542738 c -0.09204,-0.536972 -0.09197,-0.544302 0.0099,-0.68088 l 0.10303,-0.138042 0.904295,-0.01404 z m -0.920748,0.105036 c -0.7164,0 -0.867156,0.01296 -0.891555,0.07654 -0.03525,0.09185 0.07438,0.122626 0.506321,0.142055 0.350998,0.01579 1.022901,-0.0082 1.192418,-0.04254 0.0753,-0.01525 0.103808,-0.04887 0.08437,-0.09952 -0.0244,-0.06358 -0.175156,-0.07654 -0.891555,-0.07654 z m 3.0187659,0.05849 c -0.02497,9.62e-4 -0.03967,0.03697 -0.05779,0.108447 -0.03604,0.142211 -0.35967,0.481084 -0.556882,0.583066 -0.121487,0.06282 -0.137004,0.09171 -0.0932,0.173556 0.04944,0.09238 0.0639,0.09353 0.244784,0.01926 0.220512,-0.09054 0.5023,-0.341059 0.60594,-0.538825 0.06286,-0.119944 0.06018,-0.147757 -0.02327,-0.243982 -0.05935,-0.06843 -0.09461,-0.102505 -0.119583,-0.101524 z m -5.9397179,0.04725 c -0.03513,0.0012 -0.08693,0.04443 -0.140049,0.125502 -0.08062,0.12304 -0.07821,0.136484 0.05688,0.313604 0.07763,0.101774 0.246649,0.251989 0.375603,0.333769 0.259903,0.164826 0.319243,0.177447 0.409611,0.08708 0.09219,-0.09219 0.07676,-0.125156 -0.09119,-0.194724 -0.17966,-0.07442 -0.566314,-0.477303 -0.566314,-0.590089 0,-0.05179 -0.01722,-0.07612 -0.04454,-0.07514 z m 2.917542,0.223717 c -0.534881,0 -0.972453,10e-4 -0.972414,0.0022 0.0019,0.05876 0.157251,0.870033 0.168841,0.881623 0.0093,0.0093 0.107977,0.03832 0.219302,0.06441 0.288668,0.06765 0.987964,0.06081 1.229737,-0.01204 0.203205,-0.06123 0.205865,-0.06518 0.241975,-0.36838 0.02008,-0.168599 0.04743,-0.365368 0.06079,-0.4372 l 0.02428,-0.130618 z m 3.3271529,0.05839 -0.08236,0.125602 c -0.136158,0.207493 -0.428821,0.460381 -0.607746,0.525081 -0.197595,0.07145 -0.20004,0.08446 -0.06441,0.350322 0.103116,0.202122 0.105693,0.203451 0.4056,0.203451 0.281196,0 0.312755,-0.01242 0.461276,-0.181581 0.135462,-0.154282 0.159182,-0.221813 0.157806,-0.44944 -0.0013,-0.214219 -0.02848,-0.29847 -0.135835,-0.420647 z m -6.5665259,0.05568 -0.123195,0.150682 c -0.206838,0.253035 -0.165808,0.652785 0.095,0.926467 0.07899,0.08289 0.172595,0.110219 0.401084,0.117075 l 0.298054,0.0089 0.104535,-0.204956 c 0.0575,-0.112703 0.104535,-0.225416 0.104535,-0.250502 0,-0.02509 -0.09418,-0.08805 -0.209271,-0.139948 -0.115086,-0.05189 -0.313076,-0.209845 -0.440008,-0.351024 z m 4.9891749,1.154597 -0.2185999,0.09661 c -0.268212,0.118643 -0.817145,0.211752 -1.015151,0.172151 -0.131533,-0.0263 -0.143417,-0.01768 -0.116572,0.08497 0.02871,0.109817 0.04817,0.113422 0.497492,0.09129 0.550363,-0.02711 0.8528309,-0.143809 0.8528309,-0.329054 z m -3.3900549,0.01204 v 0.119482 c 0,0.06572 0.0067,0.119483 0.01485,0.119483 0.0082,0 0.141053,0.04544 0.295345,0.100923 0.246393,0.0886 1.025283,0.151695 1.025283,0.08307 0,-0.01181 0.01405,-0.05804 0.0312,-0.102729 0.02654,-0.06915 -0.02128,-0.08144 -0.321027,-0.08257 -0.229775,-8.49e-4 -0.472749,-0.0424 -0.698938,-0.119482 z m 0.08828,0.404796 c -0.009,-3.11e-4 -0.01508,6.23e-4 -0.01735,0.0029 -0.05664,0.05664 0.05393,0.182825 0.201746,0.230337 0.299232,0.09618 1.011438,0.06383 1.011438,-0.04594 0,-0.02472 -0.160979,-0.04494 -0.357745,-0.04494 -0.196766,0 -0.464814,-0.03635 -0.595607,-0.08076 -0.10627,-0.03608 -0.203299,-0.06028 -0.242477,-0.0616 z m 3.2106799,0.01374 c -0.03592,-5.1e-5 -0.09791,0.01765 -0.1934189,0.05166 -0.11192,0.03986 -0.382585,0.0735 -0.601526,0.07474 -0.385569,0.0022 -0.544189,0.07595 -0.256822,0.119483 0.472994,0.07165 1.0208259,-0.0071 1.0775499,-0.154896 0.02362,-0.06156 0.0204,-0.09092 -0.02578,-0.09099 z m -3.1113619,0.316514 c -0.02151,7.36e-4 -0.03351,0.0074 -0.03351,0.02027 0,0.02678 -7.93e-4,0.06599 -0.0017,0.08718 -9.05e-4,0.02119 0.08574,0.05312 0.192617,0.07103 0.190262,0.03187 0.824428,0.0024 0.900584,-0.04184 0.122255,-0.07106 -0.01005,-0.0993 -0.36848,-0.07855 -0.224616,0.013 -0.477839,-0.0011 -0.56501,-0.0315 -0.05346,-0.01864 -0.09685,-0.02753 -0.124498,-0.02659 z m 2.997297,0.0056 c -0.03153,8.49e-4 -0.06839,0.0075 -0.108046,0.02137 -0.08626,0.03007 -0.339669,0.04413 -0.563103,0.0312 -0.326148,-0.01888 -0.395434,-0.01055 -0.351626,0.04223 0.03001,0.03617 0.150998,0.07494 0.268861,0.08618 0.27396,0.02612 0.765997,-0.01435 0.8236379,-0.06772 0.07136,-0.06607 0.02487,-0.115837 -0.06972,-0.113263 z"
     class="ColorScheme-Text" />
  <path
     id="path5-7"
     style="fill:currentColor;stroke-width:0.566039"
     d="m 8.4300171,4.498756 c -0.04784,0.0019 -0.09023,0.0066 -0.125602,0.01455 -0.644517,0.14444 -0.861093,0.217266 -1.128513,0.379716 -0.509555,0.309538 -0.857815,0.786494 -1.045348,1.431583 -0.07487,0.257541 -0.08355,0.445912 -0.05788,1.256223 0.01683,0.531426 0.06434,1.11236 0.107344,1.312803 0.104067,0.48504 0.100569,0.534416 -0.04244,0.588786 -0.06788,0.02581 -0.133848,0.06565 -0.146569,0.08858 -0.05498,0.0991 0.08436,0.395454 0.276184,0.58728 0.212466,0.212466 0.236491,0.301646 0.05507,0.204555 -0.157218,-0.08414 -0.371728,-0.363257 -0.404294,-0.526084 -0.03487,-0.174336 -0.06398,-0.180409 -0.210574,-0.04384 -0.06996,0.06518 -0.09876,0.136022 -0.07835,0.192617 0.118846,0.329514 0.617604,0.718946 0.797453,0.622694 0.05507,-0.02947 0.10594,-0.04587 0.113062,-0.03652 0.0071,0.0094 0.06562,0.183935 0.130016,0.388043 0.0644,0.204108 0.145239,0.394474 0.179676,0.423055 0.135264,0.112259 0.536495,0.220415 0.95265,0.256822 0.607266,0.05313 0.675389,0.0535 1.284112,0.0064 0.363945,-0.02815 0.624011,-0.07818 0.79966,-0.153792 0.2553689,-0.109936 0.2624469,-0.119045 0.3757029,-0.482144 0.06349,-0.203555 0.12572,-0.401615 0.138344,-0.44011 0.01836,-0.05599 0.0383,-0.05724 0.09942,-0.0065 0.115431,0.0958 0.349384,-0.02164 0.591895,-0.297151 0.228827,-0.259961 0.257256,-0.430404 0.09129,-0.54665 -0.107874,-0.07556 -0.114963,-0.07106 -0.177668,0.112661 -0.06561,0.192246 -0.460003,0.614137 -0.518962,0.555177 -0.01735,-0.01735 0.03859,-0.106342 0.124197,-0.197733 0.224237,-0.239367 0.325242,-0.404351 0.325242,-0.531201 0,-0.129659 -0.236241,-0.313873 -0.27147,-0.211677 -0.0283,0.08211 0.0023,-0.08377 0.125803,-0.681684 C 10.911177,8.175925 10.977865,7.2119 10.926708,6.781464 10.821731,5.898194 10.334927,5.114965 9.6804181,4.776143 9.3657191,4.613233 8.7648901,4.485625 8.4300141,4.498755 Z m -0.04374,0.16854 c 0.115022,-0.0058 0.233733,-0.0052 0.356141,0.0018 0.387514,0.02206 0.507035,0.05269 0.831361,0.212982 1.0083439,0.498351 1.4412169,1.702675 1.1832889,3.29174 -0.04262,0.262558 -0.106353,0.484589 -0.147873,0.514949 -0.04014,0.02936 -0.08168,0.099 -0.0923,0.154795 -0.01602,0.0842 -0.08912,0.112147 -0.429777,0.164427 -0.4756329,0.073 -2.7420049,0.126132 -3.1584129,0.07404 -0.331394,-0.04146 -0.410915,-0.08286 -0.410915,-0.213583 0,-0.05997 -0.04267,-0.102222 -0.113464,-0.112461 -0.166791,-0.02413 -0.208915,-0.283789 -0.215089,-1.326246 -0.0059,-1.001542 0.04146,-1.231833 0.353834,-1.72071 0.415578,-0.650404 1.038049,-1.001478 1.843201,-1.041735 z m 0.111558,0.297251 c -0.06794,-6.22e-4 -0.136342,0.0092 -0.185194,0.02799 -0.01888,0.0072 -0.02915,0.01696 -0.03602,0.0288 -0.0069,0.01182 -0.0102,0.02686 -0.0085,0.04515 0.0033,0.03656 0.0289,0.08425 0.08076,0.11868 0.106924,0.07099 0.127551,0.134798 0.09561,0.305077 -0.03375,0.179893 -0.07576,0.222708 -0.286316,0.27809 -0.381274,0.100287 -0.688751,0.240443 -0.927069,0.42145 -0.238318,0.181007 -0.408117,0.402475 -0.515952,0.670245 -0.05629,0.139771 -0.08472,0.225769 -0.100923,0.381623 -0.0162,0.155853 -0.01886,0.381691 -0.01886,0.787421 0,0.241883 0.0042,0.466104 0.01103,0.631723 0.0034,0.08281 0.0075,0.1511 0.01184,0.198837 0.0021,0.02291 0.0044,0.04116 0.0063,0.05307 0.0062,0.0023 0.01449,0.0049 0.02428,0.0077 0.02593,0.0074 0.06242,0.01591 0.104836,0.02418 0.05655,0.01102 0.123941,0.02183 0.19362,0.0306 0.208755,0.02628 0.8767,0.0289 1.541837,0.01384 0.665136,-0.01505 1.339366,-0.04772 1.5645089,-0.08417 l 0.345205,-0.05588 0.04063,-0.498898 C 10.514408,7.430131 10.355038,6.752868 9.9755731,6.320678 9.8644701,6.194138 9.7512291,6.098457 9.6097011,6.017306 9.4681741,5.936156 9.2977571,5.869655 9.0736851,5.805027 c -0.177393,-0.05117 -0.288455,-0.0838 -0.354033,-0.129114 -0.07149,-0.0494 -0.09049,-0.112187 -0.112761,-0.206361 -0.04322,-0.182759 -0.02646,-0.237944 0.093,-0.334671 0.02474,-0.02003 0.04281,-0.03608 0.05388,-0.04796 0.01106,-0.01187 0.01409,-0.01884 0.01435,-0.01976 v -1.02e-4 c -1.03e-4,-2.14e-4 -2.14e-4,-6.23e-4 -4.08e-4,-0.0012 -0.0012,-0.004 -0.0088,-0.01748 -0.02488,-0.03692 -0.0076,-0.0091 -0.02947,-0.02413 -0.0613,-0.03561 -0.04774,-0.01723 -0.115758,-0.02818 -0.183688,-0.02879 z m 0.07033,1.073337 c 0.106894,0.0038 0.212985,0.02402 0.314507,0.0621 1.079098,0.404748 1.09292,1.974327 0.01675,2.296754 -0.495269,0.148386 -0.959388,0.02167 -1.299561,-0.355639 -0.332083,-0.36833 -0.397513,-0.822496 -0.184992,-1.278895 0.211884,-0.455031 0.691652,-0.740921 1.153292,-0.724319 z m -0.04715,0.107745 c -0.643292,0 -1.127811,0.474407 -1.127811,1.104336 0,0.482879 0.323148,0.937624 0.767056,1.079556 0.728482,0.232921 1.447442,-0.286788 1.452049,-1.049661 0.0021,-0.346984 -0.09464,-0.592032 -0.324739,-0.822131 -0.222528,-0.222529 -0.442622,-0.3121 -0.766555,-0.3121 z m -0.02056,0.256822 c 0.936907,0 1.216065,1.217166 0.377308,1.645067 -0.25547,0.130332 -0.481993,0.128273 -0.755319,-0.007 -0.31475,-0.155798 -0.441118,-0.35916 -0.465992,-0.749801 -0.02172,-0.341124 0.0041,-0.374923 0.204956,-0.267456 0.24709,0.132237 0.537623,-0.163342 0.404696,-0.411719 -0.08408,-0.157101 -0.02579,-0.209069 0.234351,-0.209069 z m 0.944624,2.020269 c 0.01963,3.96e-4 0.03944,0.0029 0.05688,0.0097 0.03114,0.01217 0.07837,0.0314 0.08487,0.07885 0.005,0.03621 -0.01856,0.06576 -0.03782,0.08577 -0.01992,0.02071 -0.05245,0.04797 -0.08939,0.07765 -0.08682,0.06977 -0.245362,0.151512 -0.357445,0.185093 -0.240654,0.0721 -0.949607,0.06959 -1.211078,-9.06e-4 -0.193724,-0.05223 -0.402563,-0.167352 -0.428472,-0.289326 -0.0079,-0.03716 0.0015,-0.07386 0.0301,-0.102529 0.07104,-0.07127 0.16573,-0.05246 0.3749,0.03752 0.166889,0.07179 0.397021,0.109869 0.626606,0.110152 0.229586,2.84e-4 0.459252,-0.03725 0.625001,-0.108547 0.110001,-0.04732 0.227055,-0.07986 0.306382,-0.08327 0.0064,-2.77e-4 0.01292,-3.33e-4 0.01946,-2e-4 z m -2.831968,0.485054 v 1.02e-4 h 1.03e-4 v -1.02e-4 z m 0.01294,0.01304 c 9.3e-5,4.63e-4 1.13e-4,7.93e-4 1.94e-4,0.0012 1.19e-4,5.4e-4 2.92e-4,0.0011 4.08e-4,0.0015 9.3e-5,4.12e-4 1.23e-4,7.36e-4 1.94e-4,10e-4 v 1.03e-4 l 1.03e-4,1.02e-4 v 1.04e-4 c 1.8e-5,5e-5 8.2e-5,1.53e-4 1.02e-4,2.05e-4 v 1.03e-4 l 1.03e-4,1.02e-4 h 1.04e-4 v 1.03e-4 l 1.02e-4,1.03e-4 h 1.02e-4 l 1.03e-4,1.03e-4 1.03e-4,1.02e-4 1.03e-4,1.03e-4 c 2e-5,1e-5 2.33e-4,5.1e-5 3.1e-4,1.03e-4 l 1.03e-4,1.03e-4 h 1.03e-4 1.03e-4 l 1.03e-4,-1.03e-4 1.02e-4,-1.03e-4 v -1.03e-4 -1.02e-4 -1.03e-4 c -7.2e-5,-7.36e-4 -6.79e-4,-0.0022 -0.0025,-0.0046 z m -0.313704,0.563505 c 0.02825,0 0.05136,0.05778 0.05136,0.128411 0,0.134475 -0.0119,0.150822 -0.06852,0.0942 -0.05328,-0.05328 -0.04023,-0.222612 0.01716,-0.222611 z m 3.026691,0.305879 0.08076,0.1562 c 0.06997,0.135312 0.07262,0.216098 0.01966,0.604636 -0.09103,0.667886 -0.0812,0.653617 -0.500201,0.722814 -0.489677,0.08087 -0.797497,0.06944 -1.244586,-0.04625 l -0.184294,-0.04775 -0.093,-0.542738 c -0.09204,-0.536972 -0.09197,-0.544302 0.0099,-0.68088 l 0.10303,-0.138042 0.904295,-0.01404 z m -0.920748,0.105036 c -0.7164,0 -0.867156,0.01296 -0.891555,0.07654 -0.03525,0.09185 0.07438,0.122626 0.506321,0.142055 0.350998,0.01579 1.022901,-0.0082 1.192418,-0.04254 0.0753,-0.01525 0.103808,-0.04887 0.08437,-0.09952 -0.0244,-0.06358 -0.175156,-0.07654 -0.891555,-0.07654 z m 3.0187659,0.05849 c -0.02497,9.62e-4 -0.03967,0.03697 -0.05779,0.108447 -0.03604,0.142211 -0.35967,0.481084 -0.556882,0.583066 -0.121487,0.06282 -0.137004,0.09171 -0.0932,0.173556 0.04944,0.09238 0.0639,0.09353 0.244784,0.01926 0.220512,-0.09054 0.5023,-0.341059 0.60594,-0.538825 0.06286,-0.119944 0.06018,-0.147757 -0.02327,-0.243982 -0.05935,-0.06843 -0.09461,-0.102505 -0.119583,-0.101524 z m -5.9397179,0.04725 c -0.03513,0.0012 -0.08693,0.04443 -0.140049,0.125502 -0.08062,0.12304 -0.07821,0.136484 0.05688,0.313604 0.07763,0.101774 0.246649,0.251989 0.375603,0.333769 0.259903,0.164826 0.319243,0.177447 0.409611,0.08708 0.09219,-0.09219 0.07676,-0.125156 -0.09119,-0.194724 -0.17966,-0.07442 -0.566314,-0.477303 -0.566314,-0.590089 0,-0.05179 -0.01722,-0.07612 -0.04454,-0.07514 z m 2.917542,0.223717 c -0.534881,0 -0.972453,10e-4 -0.972414,0.0022 0.0019,0.05876 0.157251,0.870033 0.168841,0.881623 0.0093,0.0093 0.107977,0.03832 0.219302,0.06441 0.288668,0.06765 0.987964,0.06081 1.229737,-0.01204 0.203205,-0.06123 0.205865,-0.06518 0.241975,-0.36838 0.02008,-0.168599 0.04743,-0.365368 0.06079,-0.4372 l 0.02428,-0.130618 z m 3.3271529,0.05839 -0.08236,0.125602 c -0.136158,0.207493 -0.428821,0.460381 -0.607746,0.525081 -0.197595,0.07145 -0.20004,0.08446 -0.06441,0.350322 0.103116,0.202122 0.105693,0.203451 0.4056,0.203451 0.281196,0 0.312755,-0.01242 0.461276,-0.181581 0.135462,-0.154282 0.159182,-0.221813 0.157806,-0.44944 -0.0013,-0.214219 -0.02848,-0.29847 -0.135835,-0.420647 z m -6.5665259,0.05568 -0.123195,0.150682 c -0.206838,0.253035 -0.165808,0.652785 0.095,0.926467 0.07899,0.08289 0.172595,0.110219 0.401084,0.117075 l 0.298054,0.0089 0.104535,-0.204956 c 0.0575,-0.112703 0.104535,-0.225416 0.104535,-0.250502 0,-0.02509 -0.09418,-0.08805 -0.209271,-0.139948 -0.115086,-0.05189 -0.313076,-0.209845 -0.440008,-0.351024 z m 4.9891749,1.154597 -0.2185999,0.09661 c -0.268212,0.118643 -0.817145,0.211752 -1.015151,0.172151 -0.131533,-0.0263 -0.143417,-0.01768 -0.116572,0.08497 0.02871,0.109817 0.04817,0.113422 0.497492,0.09129 0.550363,-0.02711 0.8528309,-0.143809 0.8528309,-0.329054 z m -3.3900549,0.01204 v 0.119482 c 0,0.06572 0.0067,0.119483 0.01485,0.119483 0.0082,0 0.141053,0.04544 0.295345,0.100923 0.246393,0.0886 1.025283,0.151695 1.025283,0.08307 0,-0.01181 0.01405,-0.05804 0.0312,-0.102729 0.02654,-0.06915 -0.02128,-0.08144 -0.321027,-0.08257 -0.229775,-8.49e-4 -0.472749,-0.0424 -0.698938,-0.119482 z m 0.08828,0.404796 c -0.009,-3.11e-4 -0.01508,6.23e-4 -0.01735,0.0029 -0.05664,0.05664 0.05393,0.182825 0.201746,0.230337 0.299232,0.09618 1.011438,0.06383 1.011438,-0.04594 0,-0.02472 -0.160979,-0.04494 -0.357745,-0.04494 -0.196766,0 -0.464814,-0.03635 -0.595607,-0.08076 -0.10627,-0.03608 -0.203299,-0.06028 -0.242477,-0.0616 z m 3.2106799,0.01374 c -0.03592,-5.1e-5 -0.09791,0.01765 -0.1934189,0.05166 -0.11192,0.03986 -0.382585,0.0735 -0.601526,0.07474 -0.385569,0.0022 -0.544189,0.07595 -0.256822,0.119483 0.472994,0.07165 1.0208259,-0.0071 1.0775499,-0.154896 0.02362,-0.06156 0.0204,-0.09092 -0.02578,-0.09099 z m -3.1113619,0.316514 c -0.02151,7.36e-4 -0.03351,0.0074 -0.03351,0.02027 0,0.02678 -7.93e-4,0.06599 -0.0017,0.08718 -9.05e-4,0.02119 0.08574,0.05312 0.192617,0.07103 0.190262,0.03187 0.824428,0.0024 0.900584,-0.04184 0.122255,-0.07106 -0.01005,-0.0993 -0.36848,-0.07855 -0.224616,0.013 -0.477839,-0.0011 -0.56501,-0.0315 -0.05346,-0.01864 -0.09685,-0.02753 -0.124498,-0.02659 z m 2.997297,0.0056 c -0.03153,8.49e-4 -0.06839,0.0075 -0.108046,0.02137 -0.08626,0.03007 -0.339669,0.04413 -0.563103,0.0312 -0.326148,-0.01888 -0.395434,-0.01055 -0.351626,0.04223 0.03001,0.03617 0.150998,0.07494 0.268861,0.08618 0.27396,0.02612 0.765997,-0.01435 0.8236379,-0.06772 0.07136,-0.06607 0.02487,-0.115837 -0.06972,-0.113263 z"
     class="ColorScheme-Text" />
  <path
     id="gradient-path1"
     style="opacity:0.3;baseline-shift:baseline;display:inline;overflow:visible;vector-effect:none;enable-background:accumulate;stop-color:#000000;stop-opacity:1;fill:url(#linearGradient4)"
     d="M 8.4453131 1.2753492 C 4.4913166 1.2753492 1.2794833 4.4784283 1.2794833 8.4236094 C 1.2794833 12.36879 4.4913166 15.572386 8.4453131 15.572386 C 12.39931 15.572386 15.611143 12.36879 15.611143 8.4236094 C 15.611143 4.4784283 12.39931 1.2753492 8.4453131 1.2753492 z " />
</svg>
