<?xml version="1.0" encoding="UTF-8" standalone="no"?>
<svg
   width="64"
   height="64"
   version="1.1"
   viewBox="0 0 16.933 16.933"
   id="svg7"
   sodipodi:docname="mkvtoolnix-gui.svg"
   inkscape:version="1.4.2 (ebf0e940d0, 2025-05-08)"
   xmlns:inkscape="http://www.inkscape.org/namespaces/inkscape"
   xmlns:sodipodi="http://sodipodi.sourceforge.net/DTD/sodipodi-0.dtd"
   xmlns:xlink="http://www.w3.org/1999/xlink"
   xmlns="http://www.w3.org/2000/svg"
   xmlns:svg="http://www.w3.org/2000/svg"
   xmlns:rdf="http://www.w3.org/1999/02/22-rdf-syntax-ns#"
   xmlns:cc="http://creativecommons.org/ns#"
   xmlns:dc="http://purl.org/dc/elements/1.1/">
  <sodipodi:namedview
     id="namedview7"
     pagecolor="#9c4444"
     bordercolor="#000000"
     borderopacity="0.25"
     inkscape:showpageshadow="2"
     inkscape:pageopacity="0.0"
     inkscape:pagecheckerboard="0"
     inkscape:deskcolor="#d1d1d1"
     inkscape:zoom="4.3531261"
     inkscape:cx="35.951175"
     inkscape:cy="26.877237"
     inkscape:window-width="2560"
     inkscape:window-height="1392"
     inkscape:window-x="0"
     inkscape:window-y="0"
     inkscape:window-maximized="1"
     inkscape:current-layer="svg7"
     showgrid="false" />
  <defs
     id="defs2">
    <filter
       style="color-interpolation-filters:sRGB;"
       inkscape:label="Blur"
       id="filter3"
       x="-0.10843471"
       y="-0.10870992"
       width="1.2168694"
       height="1.2174198">
      <feGaussianBlur
         stdDeviation="0.5 0.5"
         result="blur"
         id="feGaussianBlur3" />
    </filter>
    <style
       id="current-color-scheme"
       type="text/css">.ColorScheme-Text {color:#d8dee9} .ColorScheme-Highlight {color:#3b4252}</style>
    <linearGradient
       id="linearGradient3"
       inkscape:collect="always">
      <stop
         style="stop-color:#000000;stop-opacity:1;"
         offset="0"
         id="stop3" />
      <stop
         style="stop-color:#000000;stop-opacity:0;"
         offset="1"
         id="stop4" />
    </linearGradient>
    <linearGradient
       inkscape:collect="always"
       xlink:href="#linearGradient3"
       id="linearGradient4"
       x1="13.512321"
       y1="13.490874"
       x2="3.3783066"
       y2="3.3568602"
       gradientUnits="userSpaceOnUse" />
  </defs>
  <metadata
     id="metadata2">
    <rdf:RDF>
      <cc:Work
         rdf:about="">
        <dc:format>image/svg+xml</dc:format>
        <dc:type
           rdf:resource="http://purl.org/dc/dcmitype/StillImage" />
      </cc:Work>
    </rdf:RDF>
  </metadata>
  <ellipse
     style="opacity:1;fill:none;stroke:#000000;stroke-width:0.582072;stroke-dasharray:none;stroke-opacity:1;filter:url(#filter3)"
     id="path1-5"
     cx="8.4450111"
     cy="8.423522"
     rx="6.8752708"
     ry="6.8578653" />
  <ellipse
     style="opacity:1;fill:none;stroke-width:0.58207188;stroke-opacity:1;stroke:currentColor;stroke-dasharray:none;fill-opacity:1"
     id="path1"
     cx="8.4450111"
     cy="8.423522"
     rx="6.8752708"
     ry="6.8578653"
     class="ColorScheme-Text" />
  <ellipse
     style="fill:currentColor;stroke:none;stroke-width:0.285844;stroke-dasharray:none;stroke-opacity:1"
     id="path1-2"
     cx="8.4557552"
     cy="8.423522"
     rx="6.5738997"
     ry="6.5692253"
     class="ColorScheme-Highlight" />
  <path
     id="path5"
     style="baseline-shift:baseline;display:inline;overflow:visible;opacity:0.3;vector-effect:none;fill:#000000;fill-opacity:1;stroke-width:0.180394;enable-background:accumulate;stop-color:#000000"
     d="m 7.371421,5.2140845 c -0.03777,-3.05e-4 -0.0753,10e-4 -0.112394,0.0039 -0.148379,0.01153 -0.290802,0.04887 -0.423151,0.11345 C 6.571175,5.4606015 6.354498,5.6958155 6.2052,6.0195395 5.906607,6.6669881 5.90449,7.5578774 6.11289,8.4957306 6.273379,9.2179762 6.56251,9.9688959 6.960601,10.653061 6.559016,10.74162 6.191657,10.793671 5.885987,10.801393 5.488795,10.811497 4.935964,10.725726 4.777903,10.36133 4.639312,10.041694 5.146846,9.3955318 5.168287,9.3684577 5.140157,9.3955187 4.445543,10.068252 4.50097,10.491693 c 0.0781,0.596094 0.826677,0.691472 1.417432,0.684581 0.288628,-0.0033 0.726182,-0.07407 1.240914,-0.201182 0.06007,0.09176 0.122279,0.181897 0.186384,0.27024 l 3.61e-4,3.6e-4 c 0.600819,0.822412 1.26114,1.336026 1.883569,1.487194 0.311214,0.07559 0.616835,0.05624 0.881535,-0.07293 0.2647,-0.129166 0.481025,-0.36438 0.630323,-0.688105 0.245911,-0.533236 0.291033,-1.231674 0.18286,-1.9853918 -0.06875,0.1985698 -0.166044,0.3839428 -0.28715,0.5506958 0.02042,0.507824 -0.04565,0.958048 -0.200478,1.293763 -0.124094,0.269056 -0.286545,0.436168 -0.47283,0.52707 -0.186285,0.0909 -0.404006,0.109225 -0.654986,0.04827 C 8.843983,12.293342 8.277829,11.893472 7.743844,11.215021 7.578393,11.170355 7.425683,11.078065 7.311885,10.936327 l -3.61e-4,-3.61e-4 h -3.6e-4 v -3.61e-4 l -3.62e-4,-3.61e-4 c -0.07316,-0.09146 -0.12717,-0.20118 -0.156083,-0.327316 -0.01099,-0.04792 -0.01841,-0.09821 -0.02184,-0.150799 L 7.028589,10.251718 C 6.930259,10.058327 6.860827,9.8479821 6.825645,9.6263286 6.658591,9.2267517 6.528607,8.8190574 6.440546,8.4227617 6.242395,7.5310339 6.262121,6.6982329 6.510306,6.1600845 6.634399,5.8910085 6.79685,5.7242495 6.983135,5.6333475 c 0.09314,-0.04545 0.193941,-0.07304 0.303007,-0.08139 0.109064,-0.0083 0.22649,0.0023 0.35198,0.03277 0.36447,0.08852 0.790946,0.353371 1.215546,0.7906333 0.0725,-0.088956 0.15727,-0.1643673 0.250508,-0.2261973 C 8.646971,5.6727315 8.172133,5.3689085 7.717397,5.2584685 7.600708,5.2301385 7.484739,5.2150085 7.371423,5.2140885 Z m 2.440605,0.863919 c -0.541182,0 -1.082365,0.3607884 -1.082365,1.0823645 0,0.597774 0.484591,1.0823646 1.082365,1.0823646 0.597774,0 1.082366,-0.4845906 1.082366,-1.0823646 0,-0.7215761 -0.541183,-1.0823645 -1.082366,-1.0823645 z m 1.500584,0.7229856 c -0.02694,7.246e-4 -0.04461,0.00376 -0.04933,0.0074 l -3.61e-4,3.608e-4 -3.61e-4,3.608e-4 c -7.1e-5,1.442e-4 -3.24e-4,9e-4 -3.61e-4,0.00106 0,0 0.866229,0.217159 0.847359,0.6352552 -0.04289,0.949589 -1.641601,1.9703443 -3.312275,2.6336831 0.03177,0.09201 0.04932,0.195137 0.04932,0.309348 0,0.01816 -5.22e-4,0.03595 -0.0014,0.05355 C 10.619182,9.7634379 12.445077,8.6809057 12.435137,7.4781684 12.430437,6.910211 11.53615,6.7950508 11.312607,6.8009858 Z M 8.605288,7.3316014 c -0.946514,0.150728 -1.669702,0.9703952 -1.669702,1.959672 0,0.3235231 0.07741,0.62904 0.21457,0.8987996 0.0183,-0.09018 0.04889,-0.171714 0.08949,-0.2438137 -0.01437,-0.079191 -0.02184,-0.1605791 -0.02184,-0.2438142 0,-0.7454354 0.601883,-1.3469662 1.347319,-1.3469662 0.652147,0 1.200236,0.4602467 1.327235,1.0746135 0.349756,-0.182324 0.677073,-0.3768506 0.963277,-0.5781774 -0.05873,-0.2603278 -0.168636,-0.50142 -0.318509,-0.711711 -0.202647,0.1502162 -0.453696,0.2392336 -0.7251,0.2392336 -0.614723,0 -1.123468,-0.4559356 -1.206737,-1.0478362 z m 2.273248,2.280999 C 10.552159,9.8140231 10.198561,10.000515 9.83669,10.16999 c -0.19145,0.51675 -0.690299,0.887525 -1.271568,0.887525 -0.0074,0 -0.01487,-2.35e-4 -0.0222,-3.61e-4 -0.06698,0.0534 -0.141809,0.0959 -0.221264,0.126839 0.188731,0.05954 0.38978,0.09161 0.59826,0.09161 0.987003,0 1.805167,-0.719563 1.958615,-1.6630074 z M 7.93938,9.6686214 a 0.72157645,0.72157645 0 0 0 -0.67225,0.7198146 0.721577,0.721577 0 0 0 1.443154,0 A 0.72157645,0.72157645 0 0 0 7.93938,9.6686214 Z" />
  <path
     id="path5-7"
     style="baseline-shift:baseline;display:inline;overflow:visible;vector-effect:none;fill:currentColor;fill-opacity:1;stroke-width:0.180394;enable-background:accumulate;stop-color:#000000"
     d="m 7.371421,4.6850022 c -0.03777,-3.05e-4 -0.0753,0.001 -0.112394,0.0039 -0.148379,0.01153 -0.290802,0.04887 -0.423151,0.11345 C 6.571175,4.9315192 6.354498,5.1667332 6.2052,5.4904572 5.906607,6.1379058 5.90449,7.0287951 6.11289,7.9666483 6.273379,8.6888939 6.56251,9.4398136 6.960601,10.123979 6.559016,10.212538 6.191657,10.264589 5.885987,10.272311 5.488795,10.282415 4.935964,10.196644 4.777903,9.8322478 4.639312,9.5126121 5.146846,8.8664495 5.168287,8.8393754 5.140157,8.8664364 4.445543,9.53917 4.50097,9.9626106 c 0.0781,0.5960944 0.826677,0.6914724 1.417432,0.6845814 0.288628,-0.0033 0.726182,-0.07407 1.240914,-0.201182 0.06007,0.09176 0.122279,0.181897 0.186384,0.27024 l 3.61e-4,3.6e-4 c 0.600819,0.822412 1.26114,1.336026 1.883569,1.487194 0.311214,0.07559 0.616835,0.05624 0.881535,-0.07293 0.2647,-0.129166 0.481025,-0.36438 0.630323,-0.688105 0.245911,-0.533236 0.291033,-1.231674 0.18286,-1.9853921 -0.06875,0.1985702 -0.166044,0.3839426 -0.28715,0.5506961 0.02042,0.507824 -0.04565,0.958048 -0.200478,1.293763 -0.124094,0.269056 -0.286545,0.436168 -0.47283,0.52707 -0.186285,0.0909 -0.404006,0.109225 -0.654986,0.04827 C 8.843983,11.76426 8.277829,11.36439 7.743844,10.685939 7.578393,10.641273 7.425683,10.548983 7.311885,10.407245 l -3.61e-4,-3.61e-4 h -3.6e-4 v -3.61e-4 l -3.62e-4,-3.61e-4 c -0.07316,-0.09146 -0.12717,-0.20118 -0.156083,-0.327316 -0.01099,-0.04792 -0.01841,-0.098212 -0.02184,-0.1507988 L 7.028589,9.722636 C 6.930259,9.5292451 6.860827,9.3188998 6.825645,9.0972463 6.658591,8.6976694 6.528607,8.2899751 6.440546,7.8936794 6.242395,7.0019516 6.262121,6.1691506 6.510306,5.6310022 6.634399,5.3619262 6.79685,5.1951672 6.983135,5.1042652 c 0.09314,-0.04545 0.193941,-0.07304 0.303007,-0.08139 0.109064,-0.0083 0.22649,0.0023 0.35198,0.03277 0.36447,0.08852 0.790946,0.353371 1.215546,0.7906333 0.0725,-0.088956 0.15727,-0.1643673 0.250508,-0.2261973 C 8.646971,5.1436492 8.172133,4.8398262 7.717397,4.7293862 7.600708,4.7010562 7.484739,4.6859262 7.371423,4.6850062 Z m 2.440605,0.863919 c -0.541182,0 -1.082365,0.3607884 -1.082365,1.0823645 0,0.597774 0.484591,1.0823646 1.082365,1.0823646 0.597774,0 1.082366,-0.4845906 1.082366,-1.0823646 0,-0.7215761 -0.541183,-1.0823645 -1.082366,-1.0823645 z m 1.500584,0.7229856 c -0.02694,7.246e-4 -0.04461,0.00376 -0.04933,0.0074 l -3.61e-4,3.608e-4 -3.61e-4,3.608e-4 c -7.1e-5,1.442e-4 -3.24e-4,9e-4 -3.61e-4,0.00106 0,0 0.866229,0.217159 0.847359,0.6352552 -0.04289,0.949589 -1.641601,1.9703443 -3.312275,2.6336833 0.03177,0.09201 0.04932,0.1951365 0.04932,0.309348 0,0.018158 -5.22e-4,0.035949 -0.0014,0.053553 1.773981,-0.6785723 3.599876,-1.7611045 3.589936,-2.9638418 -0.0047,-0.5679574 -0.898987,-0.6831176 -1.12253,-0.6771826 z M 8.605288,6.8025191 c -0.946514,0.150728 -1.669702,0.9703952 -1.669702,1.959672 0,0.3235231 0.07741,0.62904 0.21457,0.8987993 0.0183,-0.090178 0.04889,-0.1717139 0.08949,-0.2438134 -0.01437,-0.079191 -0.02184,-0.1605791 -0.02184,-0.2438142 0,-0.7454354 0.601883,-1.3469662 1.347319,-1.3469662 0.652147,0 1.200236,0.4602467 1.327235,1.0746135 0.349756,-0.182324 0.677073,-0.3768506 0.963277,-0.5781774 -0.05873,-0.2603278 -0.168636,-0.50142 -0.318509,-0.711711 -0.202647,0.1502162 -0.453696,0.2392336 -0.7251,0.2392336 -0.614723,0 -1.123468,-0.4559356 -1.206737,-1.0478362 z m 2.273248,2.280999 C 10.552159,9.2849408 10.198561,9.4714328 9.83669,9.6409075 9.64524,10.157658 9.146391,10.528433 8.565122,10.528433 c -0.0074,0 -0.01487,-2.35e-4 -0.0222,-3.61e-4 -0.06698,0.0534 -0.141809,0.0959 -0.221264,0.126839 0.188731,0.05954 0.38978,0.09161 0.59826,0.09161 0.987003,0 1.805167,-0.719563 1.958615,-1.6630077 z M 7.93938,9.1395391 a 0.72157645,0.72157645 0 0 0 -0.67225,0.7198147 0.721577,0.721577 0 0 0 1.443154,0 A 0.72157645,0.72157645 0 0 0 7.93938,9.1395391 Z"
     class="ColorScheme-Text" />
  <path
     id="gradient-path1"
     style="opacity:0.3;baseline-shift:baseline;display:inline;overflow:visible;vector-effect:none;enable-background:accumulate;stop-color:#000000;stop-opacity:1;fill:url(#linearGradient4)"
     d="M 8.4453131 1.2753492 C 4.4913166 1.2753492 1.2794833 4.4784283 1.2794833 8.4236094 C 1.2794833 12.36879 4.4913166 15.572386 8.4453131 15.572386 C 12.39931 15.572386 15.611143 12.36879 15.611143 8.4236094 C 15.611143 4.4784283 12.39931 1.2753492 8.4453131 1.2753492 z " />
</svg>
