<?xml version="1.0" encoding="UTF-8" standalone="no"?>
<svg
   width="64"
   height="64"
   version="1.1"
   viewBox="0 0 16.933 16.933"
   id="svg7"
   sodipodi:docname="mpv.svg"
   inkscape:version="1.4.2 (ebf0e940d0, 2025-05-08)"
   xmlns:inkscape="http://www.inkscape.org/namespaces/inkscape"
   xmlns:sodipodi="http://sodipodi.sourceforge.net/DTD/sodipodi-0.dtd"
   xmlns:xlink="http://www.w3.org/1999/xlink"
   xmlns="http://www.w3.org/2000/svg"
   xmlns:svg="http://www.w3.org/2000/svg"
   xmlns:rdf="http://www.w3.org/1999/02/22-rdf-syntax-ns#"
   xmlns:cc="http://creativecommons.org/ns#"
   xmlns:dc="http://purl.org/dc/elements/1.1/">
  <sodipodi:namedview
     id="namedview7"
     pagecolor="#a9abb3"
     bordercolor="#000000"
     borderopacity="0.25"
     inkscape:showpageshadow="2"
     inkscape:pageopacity="0.0"
     inkscape:pagecheckerboard="0"
     inkscape:deskcolor="#d1d1d1"
     inkscape:zoom="4.3531261"
     inkscape:cx="36.066035"
     inkscape:cy="26.877237"
     inkscape:window-width="2560"
     inkscape:window-height="1376"
     inkscape:window-x="0"
     inkscape:window-y="0"
     inkscape:window-maximized="1"
     inkscape:current-layer="svg7"
     showgrid="false" />
  <defs
     id="defs2">
    <filter
       style="color-interpolation-filters:sRGB;"
       inkscape:label="Blur"
       id="filter3"
       x="-0.10843471"
       y="-0.10870992"
       width="1.2168694"
       height="1.2174198">
      <feGaussianBlur
         stdDeviation="0.5 0.5"
         result="blur"
         id="feGaussianBlur3" />
    </filter>
    <style
       id="current-color-scheme"
       type="text/css">.ColorScheme-Text {color:#d8dee9} .ColorScheme-Highlight {color:#3b4252}</style>
    <linearGradient
       id="linearGradient3"
       inkscape:collect="always">
      <stop
         style="stop-color:#000000;stop-opacity:1;"
         offset="0"
         id="stop3" />
      <stop
         style="stop-color:#000000;stop-opacity:0;"
         offset="1"
         id="stop4" />
    </linearGradient>
    <linearGradient
       inkscape:collect="always"
       xlink:href="#linearGradient3"
       id="linearGradient4"
       x1="13.512321"
       y1="13.490874"
       x2="3.3783066"
       y2="3.3568602"
       gradientUnits="userSpaceOnUse" />
  </defs>
  <metadata
     id="metadata2">
    <rdf:RDF>
      <cc:Work
         rdf:about="">
        <dc:format>image/svg+xml</dc:format>
        <dc:type
           rdf:resource="http://purl.org/dc/dcmitype/StillImage" />
      </cc:Work>
    </rdf:RDF>
  </metadata>
  <ellipse
     style="opacity:1;fill:none;stroke:#000000;stroke-width:0.582072;stroke-dasharray:none;stroke-opacity:1;filter:url(#filter3)"
     id="path1-5"
     cx="8.4450111"
     cy="8.423522"
     rx="6.8752708"
     ry="6.8578653" />
  <ellipse
     style="opacity:1;fill:none;stroke-width:0.58207188;stroke-opacity:1;stroke:currentColor;stroke-dasharray:none;fill-opacity:1"
     id="path1"
     cx="8.4450111"
     cy="8.423522"
     rx="6.8752708"
     ry="6.8578653"
     class="ColorScheme-Text" />
  <ellipse
     style="fill:currentColor;stroke:none;stroke-width:0.285844;stroke-dasharray:none;stroke-opacity:1"
     id="path1-2"
     cx="8.4557552"
     cy="8.423522"
     rx="6.5738997"
     ry="6.5692253"
     class="ColorScheme-Highlight" />
  <path
     id="path5"
     style="opacity:0.3;fill:#000000;fill-opacity:1;fill-rule:nonzero;stroke:none;stroke-width:0.0137669;stroke-linecap:round;stroke-linejoin:bevel;stroke-miterlimit:1;stroke-dasharray:none;stroke-dashoffset:0;stroke-opacity:0.992157"
     d="M 8.4665005,5.2087495 A 3.7867711,3.7867711 0 0 0 4.6797255,8.9955239 3.7867711,3.7867711 0 0 0 8.4665005,12.782299 3.7867711,3.7867711 0 0 0 12.253274,8.9955239 3.7867711,3.7867711 0 0 0 8.4665005,5.2087495 Z m 0.09844,0.1550699 a 3.5159846,3.5159846 0 0 1 3.5160625,3.5160637 3.5159846,3.5159846 0 0 1 -3.5160625,3.5157989 3.5159846,3.5159846 0 0 1 -3.5158,-3.5157989 3.5159846,3.5159846 0 0 1 3.5158,-3.5160637 z m 0.202967,0.5742348 A 2.7097534,2.7097534 0 0 0 6.0581545,8.6478075 2.7097534,2.7097534 0 0 0 8.7679075,11.357561 2.7097534,2.7097534 0 0 0 11.477661,8.6478075 2.7097534,2.7097534 0 0 0 8.7679075,5.9380542 Z M 8.4167505,7.2707024 A 1.7408667,1.7408667 0 0 1 10.157714,9.011666 1.7408667,1.7408667 0 0 1 8.4167505,10.752365 1.7408667,1.7408667 0 0 1 6.6757875,9.011666 1.7408667,1.7408667 0 0 1 8.4167505,7.2707024 Z M 7.9753575,8.229701 v 1.5512279 l 1.248498,-0.7946668 z" />
  <path
     id="path5-7"
     class="ColorScheme-Text"
     style="fill:currentColor;fill-opacity:1;fill-rule:nonzero;stroke:none;stroke-width:0.0137669;stroke-linecap:round;stroke-linejoin:bevel;stroke-miterlimit:1;stroke-dasharray:none;stroke-dashoffset:0;stroke-opacity:0.992157"
     d="M 8.4665005,4.6797252 A 3.7867711,3.7867711 0 0 0 4.6797255,8.4664999 3.7867711,3.7867711 0 0 0 8.4665005,12.253275 3.7867711,3.7867711 0 0 0 12.253274,8.4664999 3.7867711,3.7867711 0 0 0 8.4665005,4.6797252 Z m 0.09844,0.1550699 a 3.5159846,3.5159846 0 0 1 3.5160625,3.5160638 3.5159846,3.5159846 0 0 1 -3.5160625,3.5157991 3.5159846,3.5159846 0 0 1 -3.5158,-3.5157991 3.5159846,3.5159846 0 0 1 3.5158,-3.5160638 z m 0.202967,0.5742348 A 2.7097534,2.7097534 0 0 0 6.0581545,8.1187829 2.7097534,2.7097534 0 0 0 8.7679075,10.828537 2.7097534,2.7097534 0 0 0 11.477661,8.1187828 2.7097534,2.7097534 0 0 0 8.7679075,5.4090299 Z M 8.4167505,6.741678 A 1.7408667,1.7408667 0 0 1 10.157714,8.4826419 1.7408667,1.7408667 0 0 1 8.4167505,10.223341 1.7408667,1.7408667 0 0 1 6.6757875,8.4826419 1.7408667,1.7408667 0 0 1 8.4167505,6.741678 Z m -0.441393,0.9589988 v 1.551228 l 1.248498,-0.794667 z" />
  <path
     id="gradient-path1"
     style="opacity:0.3;baseline-shift:baseline;display:inline;overflow:visible;vector-effect:none;enable-background:accumulate;stop-color:#000000;stop-opacity:1;fill:url(#linearGradient4)"
     d="M 8.4453131 1.2753492 C 4.4913166 1.2753492 1.2794833 4.4784283 1.2794833 8.4236094 C 1.2794833 12.36879 4.4913166 15.572386 8.4453131 15.572386 C 12.39931 15.572386 15.611143 12.36879 15.611143 8.4236094 C 15.611143 4.4784283 12.39931 1.2753492 8.4453131 1.2753492 z " />
</svg>
