<?xml version="1.0" encoding="UTF-8" standalone="no"?>
<svg
   width="64"
   height="64"
   version="1.1"
   viewBox="0 0 16.933 16.933"
   id="svg7"
   sodipodi:docname="mullvad-vpn.svg"
   inkscape:version="1.4.2 (ebf0e940d0, 2025-05-08)"
   xmlns:inkscape="http://www.inkscape.org/namespaces/inkscape"
   xmlns:sodipodi="http://sodipodi.sourceforge.net/DTD/sodipodi-0.dtd"
   xmlns:xlink="http://www.w3.org/1999/xlink"
   xmlns="http://www.w3.org/2000/svg"
   xmlns:svg="http://www.w3.org/2000/svg"
   xmlns:rdf="http://www.w3.org/1999/02/22-rdf-syntax-ns#"
   xmlns:cc="http://creativecommons.org/ns#"
   xmlns:dc="http://purl.org/dc/elements/1.1/">
  <sodipodi:namedview
     id="namedview7"
     pagecolor="#9c4444"
     bordercolor="#000000"
     borderopacity="0.25"
     inkscape:showpageshadow="2"
     inkscape:pageopacity="0.0"
     inkscape:pagecheckerboard="0"
     inkscape:deskcolor="#d1d1d1"
     inkscape:zoom="4.3531261"
     inkscape:cx="36.066035"
     inkscape:cy="26.417797"
     inkscape:window-width="2560"
     inkscape:window-height="1392"
     inkscape:window-x="0"
     inkscape:window-y="0"
     inkscape:window-maximized="1"
     inkscape:current-layer="svg7"
     showgrid="false" />
  <defs
     id="defs2">
    <filter
       style="color-interpolation-filters:sRGB;"
       inkscape:label="Blur"
       id="filter3"
       x="-0.10843471"
       y="-0.10870992"
       width="1.2168694"
       height="1.2174198">
      <feGaussianBlur
         stdDeviation="0.5 0.5"
         result="blur"
         id="feGaussianBlur3" />
    </filter>
    <style
       id="current-color-scheme"
       type="text/css">.ColorScheme-Text {color:#d8dee9} .ColorScheme-Highlight {color:#3b4252}</style>
    <linearGradient
       id="linearGradient3"
       inkscape:collect="always">
      <stop
         style="stop-color:#000000;stop-opacity:1;"
         offset="0"
         id="stop3" />
      <stop
         style="stop-color:#000000;stop-opacity:0;"
         offset="1"
         id="stop4" />
    </linearGradient>
    <linearGradient
       inkscape:collect="always"
       xlink:href="#linearGradient3"
       id="linearGradient4"
       x1="13.512321"
       y1="13.490874"
       x2="3.3783066"
       y2="3.3568602"
       gradientUnits="userSpaceOnUse" />
  </defs>
  <metadata
     id="metadata2">
    <rdf:RDF>
      <cc:Work
         rdf:about="">
        <dc:format>image/svg+xml</dc:format>
        <dc:type
           rdf:resource="http://purl.org/dc/dcmitype/StillImage" />
      </cc:Work>
    </rdf:RDF>
  </metadata>
  <ellipse
     style="opacity:1;fill:none;stroke:#000000;stroke-width:0.582072;stroke-dasharray:none;stroke-opacity:1;filter:url(#filter3)"
     id="path1-5"
     cx="8.4450111"
     cy="8.423522"
     rx="6.8752708"
     ry="6.8578653" />
  <ellipse
     style="opacity:1;fill:none;stroke-width:0.58207188;stroke-opacity:1;stroke:currentColor;stroke-dasharray:none;fill-opacity:1"
     id="path1"
     cx="8.4450111"
     cy="8.423522"
     rx="6.8752708"
     ry="6.8578653"
     class="ColorScheme-Text" />
  <ellipse
     style="fill:currentColor;stroke:none;stroke-width:0.285844;stroke-dasharray:none;stroke-opacity:1"
     id="path1-2"
     cx="8.4557552"
     cy="8.423522"
     rx="6.5738997"
     ry="6.5692253"
     class="ColorScheme-Highlight" />
  <path
     id="path5-6"
     style="clip-rule:evenodd;opacity:0.3;fill:#000000;fill-opacity:1;fill-rule:evenodd;stroke-width:0.041462"
     d="m 10.024136,5.0270905 c -0.1916841,0.00207 -0.3777741,0.034757 -0.5488051,0.1031691 -0.165848,0.066339 -0.315079,0.1616696 -0.443611,0.2777634 -0.04146,-0.016585 -0.08291,-0.024861 -0.128517,-0.024861 -0.223894,0 -0.460293,0.1907254 -0.584679,0.4768135 -0.08707,0.20731 -0.103656,0.427075 -0.04146,0.5970694 -0.323404,0.070485 -1.048957,-0.016568 -1.23139,-0.024861 0.01244,0.00829 0.02901,0.016568 0.04559,0.024861 l 1.326785,0.6301905 0.01247,0.01247 c 0.393889,0.3441349 0.916279,0.791941 1.500893,1.1568069 C 10.30457,8.45553 11.602365,8.8949791 11.664558,8.9115639 11.507002,8.525967 11.929882,8.0118862 12.045976,7.6553129 12.186947,7.2199614 12.236685,6.7472781 12.070836,6.3119268 11.791226,5.5842681 10.854765,5.0181149 10.024134,5.0270896 Z M 8.9307369,5.4454358 c 0.04497,-0.00102 0.08877,0.0069 0.129974,0.02478 0.219748,0.099509 0.286104,0.4394977 0.140987,0.7670478 -0.145117,0.32755 -0.439514,0.514113 -0.659263,0.4187503 -0.219749,-0.099509 -0.286104,-0.4394975 -0.140987,-0.7670475 0.117908,-0.2661346 0.334399,-0.4391352 0.529289,-0.4435306 z m 0.0071,0.08422 a 0.33583963,0.56387887 23.62216 0 0 -0.446284,0.399234 0.33583963,0.56387887 23.62216 0 0 0.08171,0.6512455 0.33583963,0.56387887 23.62216 0 0 0.533661,-0.3820662 0.33583963,0.56387887 23.62216 0 0 -0.08179,-0.6512454 0.33583963,0.56387887 23.62216 0 0 -0.0873,-0.017168 z m -3.542413,0.798873 -0.136775,0.5804684 c 0.198982,0.1948705 0.02072,0.5265182 -0.186579,0.6550517 l -0.294364,0.5970694 0.398019,-0.5556075 c 0,0.00415 -0.02486,0.8002496 -0.02486,0.8002496 L 5.2627799,7.804561 c 0.298527,0.5680299 0.957789,1.4428788 1.882393,2.0938327 0.07049,0.049755 0.161685,0.1368083 0.190709,0.1699783 0,0 0.883125,0.447822 2.24308,-0.5887287 0.01244,-0.00829 0.02903,-0.016649 0.04146,-0.024942 l 0.02073,0.01247 0.298575,0.1990501 c -0.103659,-0.029023 -0.302709,-0.078794 -0.302709,-0.078794 -0.655101,0.7546086 -1.720707,0.8789946 -2.292883,0.4975446 -0.02488,-0.01659 -0.165832,0.04146 -0.190709,0.124386 -0.01659,0.04561 0,0.09533 0.02073,0.132646 0.116093,0.215602 0.290234,0.194904 0.20731,0.447822 -0.05805,0.136825 -0.140955,0.269503 -0.232171,0.393889 -0.190726,0.257065 -0.489236,0.485106 -0.460212,0.621931 1.351662,1.666774 4.3991051,1.434554 5.5600421,-0.05393 -0.01658,-0.215602 -0.356606,-0.319274 -0.592939,-0.845842 0.06634,0.02073 0.165848,0.04982 0.165848,0.04567 0,-0.0041 -0.281926,-0.460277 -0.294364,-0.505885 l 0.182449,0.01247 c 0,0 -0.24048,-0.298543 -0.248773,-0.327566 l 0.244642,-0.0332 c 0,0 -0.306819,-0.3523955 -0.310965,-0.3814191 l 0.310965,0.049723 -0.340007,-0.4104092 H 11.5277 L 11.336992,9.0774129 9.7904259,8.4679534 C 9.1975189,8.0989412 8.6709679,7.6469565 8.2729319,7.2986755 L 7.4727639,6.9089971 c -0.767048,-0.058047 -1.484357,-0.037348 -1.923855,0.049722 l 0.281893,-0.4809434 -0.410409,0.4892035 c -0.02488,-0.00829 -0.05393,-0.01652 -0.05393,-0.01652 z m -0.374777,0.5231343 c -0.154122,0.007 -0.29477,0.1189603 -0.325866,0.2588947 -0.04976,0.1782867 0.07462,0.397987 0.294365,0.4270104 0.207309,-0.1285324 0.385596,-0.4601801 0.186579,-0.6550516 -0.05079,-0.02384 -0.103704,-0.033186 -0.155078,-0.030854 z" />
  <path
     id="path5-6-5"
     style="clip-rule:evenodd;fill:currentColor;fill-opacity:1;fill-rule:evenodd;stroke-width:0.041462"
     class="ColorScheme-Text"
     d="m 10.024136,4.4979339 c -0.1916841,0.00207 -0.3777741,0.034757 -0.5488051,0.1031691 -0.165848,0.066339 -0.315079,0.1616696 -0.443611,0.2777634 -0.04146,-0.016585 -0.08291,-0.024861 -0.128517,-0.024861 -0.223894,0 -0.460293,0.1907254 -0.584679,0.4768135 -0.08707,0.20731 -0.103656,0.427075 -0.04146,0.5970694 -0.323404,0.070485 -1.048957,-0.016568 -1.23139,-0.024861 0.01244,0.00829 0.02901,0.016568 0.04559,0.024861 l 1.326785,0.6301905 0.01247,0.01247 c 0.393889,0.3441349 0.916279,0.791941 1.500893,1.1568069 C 10.30457,7.9263734 11.602365,8.3658225 11.664558,8.3824073 11.507002,7.9968104 11.929882,7.4827296 12.045976,7.1261563 12.186947,6.6908048 12.236685,6.2181215 12.070836,5.7827702 11.791226,5.0551115 10.854765,4.4889583 10.024134,4.497933 Z M 8.9307369,4.9162792 c 0.04497,-0.00102 0.08877,0.0069 0.129974,0.02478 0.219748,0.099509 0.286104,0.4394977 0.140987,0.7670478 -0.145117,0.32755 -0.439514,0.514113 -0.659263,0.4187503 -0.219749,-0.099509 -0.286104,-0.4394975 -0.140987,-0.7670475 0.117908,-0.2661346 0.334399,-0.4391352 0.529289,-0.4435306 z m 0.0071,0.08422 a 0.33583963,0.56387887 23.62216 0 0 -0.446284,0.399234 0.33583963,0.56387887 23.62216 0 0 0.08171,0.6512455 0.33583963,0.56387887 23.62216 0 0 0.533661,-0.3820662 0.33583963,0.56387887 23.62216 0 0 -0.08179,-0.6512454 0.33583963,0.56387887 23.62216 0 0 -0.0873,-0.017168 z m -3.542413,0.798873 -0.136775,0.5804684 c 0.198982,0.1948705 0.02072,0.5265182 -0.186579,0.6550517 l -0.294364,0.5970694 0.398019,-0.5556075 c 0,0.00415 -0.02486,0.8002496 -0.02486,0.8002496 l 0.111915,-0.6011994 c 0.298527,0.5680299 0.957789,1.4428788 1.882393,2.0938327 0.07049,0.049755 0.161685,0.1368085 0.190709,0.1699783 0,0 0.883125,0.4478219 2.24308,-0.5887287 0.01244,-0.00829 0.02903,-0.016649 0.04146,-0.024942 l 0.02073,0.01247 0.298575,0.19905 c -0.103659,-0.029023 -0.302709,-0.078794 -0.302709,-0.078794 -0.655101,0.7546091 -1.720707,0.8789948 -2.292883,0.4975442 -0.02488,-0.016585 -0.165832,0.041462 -0.190709,0.1243862 -0.01659,0.045606 0,0.09533 0.02073,0.1326459 0.116093,0.215603 0.290234,0.194904 0.20731,0.447823 -0.05805,0.136824 -0.140955,0.269503 -0.232171,0.393889 -0.190726,0.257065 -0.489236,0.485106 -0.460212,0.621931 1.351662,1.666774 4.3991051,1.434554 5.5600421,-0.05393 -0.01658,-0.215603 -0.356606,-0.319274 -0.592939,-0.845842 0.06634,0.02073 0.165848,0.04982 0.165848,0.04567 0,-0.0041 -0.281926,-0.4602772 -0.294364,-0.5058857 l 0.182449,0.01247 c 0,0 -0.24048,-0.298543 -0.248773,-0.3275661 l 0.244642,-0.033204 c 0,0 -0.306819,-0.352395 -0.310965,-0.3814186 l 0.310965,0.04972 -0.340007,-0.4104091 H 11.5277 L 11.336992,8.5482563 9.7904259,7.9387968 C 9.1975189,7.5697846 8.6709679,7.1177999 8.2729319,6.7695189 L 7.4727639,6.3798405 c -0.767048,-0.058047 -1.484357,-0.037348 -1.923855,0.049722 l 0.281893,-0.4809434 -0.410409,0.4892035 c -0.02488,-0.00829 -0.05393,-0.01652 -0.05393,-0.01652 z m -0.374777,0.5231343 c -0.154122,0.007 -0.29477,0.1189603 -0.325866,0.2588947 -0.04976,0.1782867 0.07462,0.397987 0.294365,0.4270104 C 5.1964549,6.8798792 5.3747419,6.5482315 5.1757249,6.35336 5.1249349,6.32952 5.0720209,6.320174 5.0206469,6.3225065 Z" />
  <path
     id="gradient-path1"
     style="opacity:0.3;baseline-shift:baseline;display:inline;overflow:visible;vector-effect:none;enable-background:accumulate;stop-color:#000000;stop-opacity:1;fill:url(#linearGradient4)"
     d="M 8.4453131 1.2753492 C 4.4913166 1.2753492 1.2794833 4.4784283 1.2794833 8.4236094 C 1.2794833 12.36879 4.4913166 15.572386 8.4453131 15.572386 C 12.39931 15.572386 15.611143 12.36879 15.611143 8.4236094 C 15.611143 4.4784283 12.39931 1.2753492 8.4453131 1.2753492 z " />
</svg>
