<?xml version="1.0" encoding="UTF-8" standalone="no"?>
<svg
   width="64"
   height="64"
   version="1.1"
   viewBox="0 0 16.933 16.933"
   id="svg7"
   sodipodi:docname="multimedia-photo-viewer.svg"
   inkscape:version="1.4.3 (0d15f75042, 2025-12-25)"
   xmlns:inkscape="http://www.inkscape.org/namespaces/inkscape"
   xmlns:sodipodi="http://sodipodi.sourceforge.net/DTD/sodipodi-0.dtd"
   xmlns:xlink="http://www.w3.org/1999/xlink"
   xmlns="http://www.w3.org/2000/svg"
   xmlns:svg="http://www.w3.org/2000/svg"
   xmlns:rdf="http://www.w3.org/1999/02/22-rdf-syntax-ns#"
   xmlns:cc="http://creativecommons.org/ns#"
   xmlns:dc="http://purl.org/dc/elements/1.1/">
  <sodipodi:namedview
     id="namedview7"
     pagecolor="#9c4444"
     bordercolor="#000000"
     borderopacity="0.25"
     inkscape:showpageshadow="2"
     inkscape:pageopacity="0.0"
     inkscape:pagecheckerboard="0"
     inkscape:deskcolor="#d1d1d1"
     inkscape:zoom="8.7062522"
     inkscape:cx="85.111249"
     inkscape:cy="11.715719"
     inkscape:window-width="2560"
     inkscape:window-height="1388"
     inkscape:window-x="0"
     inkscape:window-y="0"
     inkscape:window-maximized="1"
     inkscape:current-layer="svg7"
     showgrid="false" />
  <defs
     id="defs2">
    <filter
       style="color-interpolation-filters:sRGB;"
       inkscape:label="Blur"
       id="filter3"
       x="-0.10843471"
       y="-0.10870992"
       width="1.2168694"
       height="1.2174198">
      <feGaussianBlur
         stdDeviation="0.5 0.5"
         result="blur"
         id="feGaussianBlur3" />
    </filter>
    <style
       id="current-color-scheme"
       type="text/css">.ColorScheme-Text {color:#d8dee9} .ColorScheme-Highlight {color:#3b4252}</style>
    <linearGradient
       id="linearGradient3"
       inkscape:collect="always">
      <stop
         style="stop-color:#000000;stop-opacity:1;"
         offset="0"
         id="stop3" />
      <stop
         style="stop-color:#000000;stop-opacity:0;"
         offset="1"
         id="stop4" />
    </linearGradient>
    <linearGradient
       inkscape:collect="always"
       xlink:href="#linearGradient3"
       id="linearGradient4"
       x1="13.512321"
       y1="13.490874"
       x2="3.3783066"
       y2="3.3568602"
       gradientUnits="userSpaceOnUse" />
  </defs>
  <metadata
     id="metadata2">
    <rdf:RDF>
      <cc:Work
         rdf:about="">
        <dc:format>image/svg+xml</dc:format>
        <dc:type
           rdf:resource="http://purl.org/dc/dcmitype/StillImage" />
      </cc:Work>
    </rdf:RDF>
  </metadata>
  <ellipse
     style="opacity:1;fill:none;stroke:#000000;stroke-width:0.582072;stroke-dasharray:none;stroke-opacity:1;filter:url(#filter3)"
     id="path1-5"
     cx="8.4450111"
     cy="8.423522"
     rx="6.8752708"
     ry="6.8578653" />
  <ellipse
     style="opacity:1;fill:none;stroke-width:0.58207188;stroke-opacity:1;stroke:currentColor;stroke-dasharray:none;fill-opacity:1"
     id="path1"
     cx="8.4450111"
     cy="8.423522"
     rx="6.8752708"
     ry="6.8578653"
     class="ColorScheme-Text" />
  <ellipse
     style="fill:currentColor;stroke:none;stroke-width:0.285844;stroke-dasharray:none;stroke-opacity:1"
     id="path1-2"
     cx="8.4557552"
     cy="8.423522"
     rx="6.5738997"
     ry="6.5692253"
     class="ColorScheme-Highlight" />
  <path
     id="path5-6"
     style="opacity:0.3;fill:#000000;fill-opacity:1;stroke-width:0.566038"
     d="m 6.765641,5.0269854 c -0.313101,0 -0.566954,0.253853 -0.566954,0.566953 v 1.842598 h 0.566954 v -1.70086 c 0,-0.07824 0.0635,-0.141738 0.141738,-0.141738 h 4.252148 c 0.07824,0 0.141739,0.0635 0.141739,0.141738 v 1.70086 h 0.283476 c 0.09853,0 0.193674,0.01429 0.283477,0.04097 v -1.883569 c 0,-0.3131 -0.253854,-0.566953 -0.566953,-0.566953 z m -1.417384,2.267812 c -0.11889,0 -0.220594,0.07317 -0.262714,0.176897 0.08367,-0.02287 0.171734,-0.03516 0.262714,-0.03516 h 0.529027 c -0.049,-0.08475 -0.140571,-0.141739 -0.24555,-0.141739 z m 0,0.283477 c -0.46972,0 -0.850429,0.3807091 -0.850429,0.8504297 V 12.1139 c 0,0.46972 0.380709,0.850429 0.850429,0.850429 h 6.236485 c 0.469721,0 0.85043,-0.380709 0.85043,-0.850429 V 8.4287041 c 0,-0.4697206 -0.380709,-0.8504297 -0.85043,-0.8504297 z M 8.608238,7.861751 c 1.330781,0 2.409551,1.0787701 2.409551,2.409551 0,1.330781 -1.07877,2.409551 -2.409551,2.409551 -1.330781,0 -2.409551,-1.07877 -2.409551,-2.409551 0,-1.3307809 1.07877,-2.409551 2.409551,-2.409551 z M 5.348257,8.1452276 c 0.156621,0 0.283477,0.1268557 0.283477,0.2834765 0,0.1566209 -0.126856,0.2834766 -0.283477,0.2834766 -0.156621,0 -0.283476,-0.1268557 -0.283476,-0.2834766 0,-0.1566208 0.126855,-0.2834765 0.283476,-0.2834765 z m 5.953009,0 h 0.283476 c 0.156621,0 0.283477,0.1268557 0.283477,0.2834765 0,0.1566209 -0.126856,0.2834766 -0.283477,0.2834766 h -0.283476 c -0.156621,0 -0.283477,-0.1268557 -0.283477,-0.2834766 0,-0.1566208 0.126856,-0.2834765 0.283477,-0.2834765 z M 8.608238,8.4287041 c -1.017681,0 -1.842597,0.8249169 -1.842597,1.8425979 0,1.017681 0.824916,1.842598 1.842597,1.842598 1.017681,0 1.842598,-0.824917 1.842598,-1.842598 0,-1.017681 -0.824917,-1.8425979 -1.842598,-1.8425979 z m 0,0.5669532 c 0.704581,0 1.275645,0.5710635 1.275645,1.2756447 0,0.704581 -0.571064,1.275644 -1.275645,1.275644 -0.704581,0 -1.275644,-0.571063 -1.275644,-1.275644 0,-0.7045812 0.571063,-1.2756447 1.275644,-1.2756447 z"
     class="ColorScheme-Text" />
  <path
     id="path5-6-5"
     style="fill:currentColor;stroke-width:0.566038"
     d="m 6.7656405,4.4978286 c -0.313101,0 -0.566954,0.253853 -0.566954,0.566953 v 1.842598 h 0.566954 v -1.70086 c 0,-0.07824 0.0635,-0.141738 0.141738,-0.141738 h 4.2521475 c 0.07824,0 0.141739,0.0635 0.141739,0.141738 v 1.70086 h 0.283476 c 0.09853,0 0.193674,0.01429 0.283478,0.04097 v -1.883569 c 0,-0.3131 -0.253855,-0.566953 -0.566954,-0.566953 z m -1.417383,2.267812 c -0.11889,0 -0.220594,0.07317 -0.262715,0.176897 0.08367,-0.02287 0.171734,-0.03516 0.262715,-0.03516 h 0.529027 c -0.049,-0.08475 -0.140572,-0.141739 -0.245551,-0.141739 z m 0,0.283477 c -0.469721,0 -0.850429,0.3807091 -0.850429,0.8504297 v 3.6851957 c 0,0.46972 0.380708,0.850429 0.850429,0.850429 h 6.2364835 c 0.469721,0 0.85043,-0.380709 0.85043,-0.850429 V 7.8995473 c 0,-0.4697206 -0.380709,-0.8504297 -0.85043,-0.8504297 z m 3.25998,0.2834766 c 1.330781,0 2.4095505,1.0787701 2.4095505,2.409551 0,1.3307808 -1.0787695,2.4095508 -2.4095505,2.4095508 -1.330781,0 -2.409551,-1.07877 -2.409551,-2.4095508 0,-1.3307809 1.07877,-2.409551 2.409551,-2.409551 z m -3.25998,0.2834766 c 0.156621,0 0.283476,0.1268557 0.283476,0.2834765 0,0.1566209 -0.126855,0.2834766 -0.283476,0.2834766 -0.156622,0 -0.283476,-0.1268557 -0.283476,-0.2834766 0,-0.1566208 0.126854,-0.2834765 0.283476,-0.2834765 z m 5.9530075,0 h 0.283476 c 0.156621,0 0.283478,0.1268557 0.283478,0.2834765 0,0.1566209 -0.126857,0.2834766 -0.283478,0.2834766 h -0.283476 c -0.156621,0 -0.283477,-0.1268557 -0.283477,-0.2834766 0,-0.1566208 0.126856,-0.2834765 0.283477,-0.2834765 z M 8.6082375,7.8995473 c -1.01768,0 -1.842597,0.8249169 -1.842597,1.8425979 0,1.0176808 0.824916,1.8425978 1.842597,1.8425978 1.017682,0 1.8425975,-0.824917 1.8425975,-1.8425978 0,-1.017681 -0.8249155,-1.8425979 -1.8425975,-1.8425979 z m 0,0.5669532 c 0.704582,0 1.275646,0.5710635 1.275646,1.2756447 0,0.7045808 -0.571064,1.2756438 -1.275646,1.2756438 -0.704581,0 -1.275644,-0.571063 -1.275644,-1.2756438 0,-0.7045812 0.571063,-1.2756447 1.275644,-1.2756447 z"
     class="ColorScheme-Text" />
  <path
     id="gradient-path1"
     style="opacity:0.3;baseline-shift:baseline;display:inline;overflow:visible;vector-effect:none;enable-background:accumulate;stop-color:#000000;stop-opacity:1;fill:url(#linearGradient4)"
     d="M 8.4453131 1.2753492 C 4.4913166 1.2753492 1.2794833 4.4784283 1.2794833 8.4236094 C 1.2794833 12.36879 4.4913166 15.572386 8.4453131 15.572386 C 12.39931 15.572386 15.611143 12.36879 15.611143 8.4236094 C 15.611143 4.4784283 12.39931 1.2753492 8.4453131 1.2753492 z " />
</svg>
