<?xml version="1.0" encoding="UTF-8" standalone="no"?>
<svg
   width="64"
   height="64"
   version="1.1"
   viewBox="0 0 16.933 16.933"
   id="svg7"
   sodipodi:docname="multimedia-volume-control.svg"
   inkscape:version="1.4.2 (ebf0e940d0, 2025-05-08)"
   xmlns:inkscape="http://www.inkscape.org/namespaces/inkscape"
   xmlns:sodipodi="http://sodipodi.sourceforge.net/DTD/sodipodi-0.dtd"
   xmlns:xlink="http://www.w3.org/1999/xlink"
   xmlns="http://www.w3.org/2000/svg"
   xmlns:svg="http://www.w3.org/2000/svg"
   xmlns:rdf="http://www.w3.org/1999/02/22-rdf-syntax-ns#"
   xmlns:cc="http://creativecommons.org/ns#"
   xmlns:dc="http://purl.org/dc/elements/1.1/">
  <sodipodi:namedview
     id="namedview7"
     pagecolor="#a9abb3"
     bordercolor="#000000"
     borderopacity="0.25"
     inkscape:showpageshadow="2"
     inkscape:pageopacity="0.0"
     inkscape:pagecheckerboard="0"
     inkscape:deskcolor="#d1d1d1"
     inkscape:zoom="4.3531261"
     inkscape:cx="36.066035"
     inkscape:cy="26.647517"
     inkscape:window-width="2560"
     inkscape:window-height="1376"
     inkscape:window-x="0"
     inkscape:window-y="0"
     inkscape:window-maximized="1"
     inkscape:current-layer="svg7"
     showgrid="false" />
  <defs
     id="defs2">
    <filter
       style="color-interpolation-filters:sRGB;"
       inkscape:label="Blur"
       id="filter3"
       x="-0.10843471"
       y="-0.10870992"
       width="1.2168694"
       height="1.2174198">
      <feGaussianBlur
         stdDeviation="0.5 0.5"
         result="blur"
         id="feGaussianBlur3" />
    </filter>
    <style
       id="current-color-scheme"
       type="text/css">.ColorScheme-Text {color:#d8dee9} .ColorScheme-Highlight {color:#3b4252}</style>
    <linearGradient
       id="linearGradient3"
       inkscape:collect="always">
      <stop
         style="stop-color:#000000;stop-opacity:1;"
         offset="0"
         id="stop3" />
      <stop
         style="stop-color:#000000;stop-opacity:0;"
         offset="1"
         id="stop4" />
    </linearGradient>
    <linearGradient
       inkscape:collect="always"
       xlink:href="#linearGradient3"
       id="linearGradient4"
       x1="13.512321"
       y1="13.490874"
       x2="3.3783066"
       y2="3.3568602"
       gradientUnits="userSpaceOnUse" />
  </defs>
  <metadata
     id="metadata2">
    <rdf:RDF>
      <cc:Work
         rdf:about="">
        <dc:format>image/svg+xml</dc:format>
        <dc:type
           rdf:resource="http://purl.org/dc/dcmitype/StillImage" />
      </cc:Work>
    </rdf:RDF>
  </metadata>
  <ellipse
     style="opacity:1;fill:none;stroke:#000000;stroke-width:0.582072;stroke-dasharray:none;stroke-opacity:1;filter:url(#filter3)"
     id="path1-5"
     cx="8.4450111"
     cy="8.423522"
     rx="6.8752708"
     ry="6.8578653" />
  <ellipse
     style="opacity:1;fill:none;stroke-width:0.58207188;stroke-opacity:1;stroke:currentColor;stroke-dasharray:none;fill-opacity:1"
     id="path1"
     cx="8.4450111"
     cy="8.423522"
     rx="6.8752708"
     ry="6.8578653"
     class="ColorScheme-Text" />
  <ellipse
     style="fill:currentColor;stroke:none;stroke-width:0.285844;stroke-dasharray:none;stroke-opacity:1"
     id="path1-2"
     cx="8.4557552"
     cy="8.423522"
     rx="6.5738997"
     ry="6.5692253"
     class="ColorScheme-Highlight" />
  <path
     id="rect10"
     d="m 8.4665005,5.2087495 c -2.097946,0 -3.786907,1.6889605 -3.786907,3.7869069 0,2.0979466 1.688961,3.7869066 3.786907,3.7869066 2.0979455,0 3.7869055,-1.68896 3.7869055,-3.7869066 0,-2.0979464 -1.68896,-3.7869069 -3.7869055,-3.7869069 z m 0,0.568036 a 0.18934535,0.18934535 0 0 1 0.189345,0.1893453 0.18934535,0.18934535 0 0 1 0,0.0059 c 0.745908,0.045551 1.4172465,0.3583057 1.9197095,0.8446583 a 0.18934535,0.18934535 0 0 1 0.163089,-0.093185 0.18934535,0.18934535 0 0 1 0.189345,0.1893453 0.18934535,0.18934535 0 0 1 -0.107985,0.170854 c 0.385937,0.4751525 0.630272,1.0703464 0.670103,1.7225995 a 0.18934535,0.18934535 0 0 1 0.0059,0 0.18934535,0.18934535 0 0 1 0.189345,0.1893454 0.18934535,0.18934535 0 0 1 -0.189345,0.1893453 0.18934535,0.18934535 0 0 1 -0.0059,0 c -0.03983,0.6522527 -0.284166,1.2474464 -0.670103,1.7225984 a 0.18934535,0.18934535 0 0 1 0.107985,0.170858 0.18934535,0.18934535 0 0 1 -0.189345,0.189345 0.18934535,0.18934535 0 0 1 -0.163089,-0.09319 c -0.544618,0.527157 -1.2877185,0.850576 -2.1090545,0.850576 -0.821337,0 -1.564438,-0.323419 -2.109055,-0.850576 a 0.18934535,0.18934535 0 0 1 -0.163089,0.09319 0.18934535,0.18934535 0 0 1 -0.189345,-0.189345 0.18934535,0.18934535 0 0 1 0.107985,-0.170853 C 5.7270595,10.432444 5.4827245,9.8372504 5.4428915,9.1849972 a 0.18934535,0.18934535 0 0 1 -0.0059,0 0.18934535,0.18934535 0 0 1 -0.189345,-0.1893454 0.18934535,0.18934535 0 0 1 0.189345,-0.1893454 0.18934535,0.18934535 0 0 1 0.0059,0 c 0.03983,-0.652253 0.284168,-1.2474468 0.670105,-1.7225995 a 0.18934535,0.18934535 0 0 1 -0.107985,-0.1708539 0.18934535,0.18934535 0 0 1 0.189345,-0.1893454 0.18934535,0.18934535 0 0 1 0.163089,0.093194 c 0.502463,-0.4863524 1.173802,-0.7991074 1.91971,-0.8446582 a 0.18934535,0.18934535 0 0 1 0,-0.0059 0.18934535,0.18934535 0 0 1 0.189345,-0.1893454 z m -0.02034,0.7584909 c -1.354168,0.010925 -2.44115,1.1035426 -2.44115,2.46038 0,1.3636646 1.097824,2.4614896 2.461489,2.4614896 1.363665,0 2.4614895,-1.097825 2.4614895,-2.4614896 0,-1.3568355 -1.0869845,-2.4494605 -2.4411495,-2.46038 0.09528,0.010073 0.169006,0.090204 0.169006,0.1882358 v 0.5680361 c 0,0.1048973 -0.08445,0.1893453 -0.189346,0.1893453 -0.104897,0 -0.189345,-0.084448 -0.189345,-0.1893453 V 6.7235122 c 0,-0.098032 0.07373,-0.1781607 0.169006,-0.1882358 z"
     style="opacity:0.3;fill:#000000;fill-opacity:1;stroke-width:0.189345" />
  <path
     id="rect10-7"
     d="m 8.4665005,4.679593 c -2.097946,0 -3.786907,1.6889605 -3.786907,3.7869069 0,2.0979461 1.688961,3.7869071 3.786907,3.7869071 2.0979465,0 3.7869065,-1.688961 3.7869065,-3.7869071 0,-2.0979464 -1.68896,-3.7869069 -3.7869065,-3.7869069 z m 0,0.568036 a 0.18934535,0.18934535 0 0 1 0.189345,0.1893453 0.18934535,0.18934535 0 0 1 0,0.0059 c 0.745908,0.045551 1.4172475,0.3583057 1.9197105,0.8446583 a 0.18934535,0.18934535 0 0 1 0.163089,-0.093185 0.18934535,0.18934535 0 0 1 0.189345,0.1893453 0.18934535,0.18934535 0 0 1 -0.107985,0.170854 c 0.385937,0.4751525 0.630272,1.0703464 0.670103,1.7226 a 0.18934535,0.18934535 0 0 1 0.0059,0 0.18934535,0.18934535 0 0 1 0.189345,0.189345 0.18934535,0.18934535 0 0 1 -0.189345,0.189345 0.18934535,0.18934535 0 0 1 -0.0059,0 c -0.03983,0.652253 -0.284166,1.247447 -0.670103,1.7225991 a 0.18934535,0.18934535 0 0 1 0.107985,0.170858 0.18934535,0.18934535 0 0 1 -0.189345,0.189345 0.18934535,0.18934535 0 0 1 -0.163089,-0.09319 c -0.544618,0.527157 -1.2877195,0.850576 -2.1090555,0.850576 -0.821337,0 -1.564438,-0.323419 -2.109055,-0.850576 a 0.18934535,0.18934535 0 0 1 -0.163089,0.09319 0.18934535,0.18934535 0 0 1 -0.189345,-0.189345 0.18934535,0.18934535 0 0 1 0.107985,-0.170854 C 5.7270595,9.9032869 5.4827245,9.3080939 5.4428915,8.6558409 a 0.18934535,0.18934535 0 0 1 -0.0059,0 0.18934535,0.18934535 0 0 1 -0.189345,-0.189346 0.18934535,0.18934535 0 0 1 0.189345,-0.189345 0.18934535,0.18934535 0 0 1 0.0059,0 c 0.03983,-0.652253 0.284168,-1.2474468 0.670105,-1.7225995 a 0.18934535,0.18934535 0 0 1 -0.107985,-0.1708539 0.18934535,0.18934535 0 0 1 0.189345,-0.1893454 0.18934535,0.18934535 0 0 1 0.163089,0.093194 c 0.502463,-0.4863524 1.173802,-0.7991074 1.91971,-0.8446582 a 0.18934535,0.18934535 0 0 1 0,-0.0059 0.18934535,0.18934535 0 0 1 0.189345,-0.1893453 z m -0.02034,0.7584909 c -1.354168,0.010925 -2.44115,1.1035426 -2.44115,2.46038 0,1.363665 1.097824,2.4614891 2.461489,2.4614891 1.363665,0 2.4614905,-1.0978241 2.4614905,-2.4614891 0,-1.3568355 -1.0869855,-2.4494605 -2.4411505,-2.46038 0.09528,0.010073 0.169006,0.090204 0.169006,0.1882358 v 0.5680361 c 0,0.1048973 -0.08445,0.1893453 -0.189346,0.1893453 -0.104897,0 -0.189345,-0.084448 -0.189345,-0.1893453 V 6.1943557 c 0,-0.098032 0.07373,-0.1781607 0.169006,-0.1882358 z"
     class="ColorScheme-Text"
     style="fill:currentColor;fill-opacity:1;stroke-width:0.189345" />
  <path
     id="gradient-path1"
     style="opacity:0.3;baseline-shift:baseline;display:inline;overflow:visible;vector-effect:none;enable-background:accumulate;stop-color:#000000;stop-opacity:1;fill:url(#linearGradient4)"
     d="M 8.4453131 1.2753492 C 4.4913166 1.2753492 1.2794833 4.4784283 1.2794833 8.4236094 C 1.2794833 12.36879 4.4913166 15.572386 8.4453131 15.572386 C 12.39931 15.572386 15.611143 12.36879 15.611143 8.4236094 C 15.611143 4.4784283 12.39931 1.2753492 8.4453131 1.2753492 z " />
</svg>
