<?xml version='1.0' encoding='UTF-8'?>
<svg xmlns:inkscape="http://www.inkscape.org/namespaces/inkscape" xmlns:sodipodi="http://sodipodi.sourceforge.net/DTD/sodipodi-0.dtd" xmlns="http://www.w3.org/2000/svg" xmlns:svg="http://www.w3.org/2000/svg" xmlns:rdf="http://www.w3.org/1999/02/22-rdf-syntax-ns#" xmlns:cc="http://creativecommons.org/ns#" xmlns:dc="http://purl.org/dc/elements/1.1/" width="64" height="64" version="1.1" viewBox="0 0 16.933 16.933" id="svg7" sodipodi:docname="org.kde.kweather.svg" inkscape:version="1.4.2 (ebf0e940d0, 2025-05-08)">
  <sodipodi:namedview id="namedview7" pagecolor="#9c4444" bordercolor="#000000" borderopacity="0.25" inkscape:showpageshadow="2" inkscape:pageopacity="0.0" inkscape:pagecheckerboard="0" inkscape:deskcolor="#d1d1d1" inkscape:zoom="4.3531261" inkscape:cx="36.755195" inkscape:cy="26.188077" inkscape:window-width="2560" inkscape:window-height="1376" inkscape:window-x="0" inkscape:window-y="0" inkscape:window-maximized="1" inkscape:current-layer="svg7" showgrid="false"/>
  <defs id="defs2">
    <filter style="color-interpolation-filters:sRGB;" inkscape:label="Blur" id="filter3" x="-0.10843471" y="-0.10870992" width="1.2168694" height="1.2174198">
      <feGaussianBlur stdDeviation="0.5 0.5" result="blur" id="feGaussianBlur3"/>
    </filter>
    <style id="current-color-scheme" type="text/css">.ColorScheme-Text {color:#d8dee9} .ColorScheme-Highlight {color:#3b4252}</style>
  <linearGradient id="linearGradient3" inkscape:collect="always">
      <stop style="stop-color:#000000;stop-opacity:1;" offset="0" id="stop3"/>
      <stop style="stop-color:#000000;stop-opacity:0;" offset="1" id="stop4"/>
    </linearGradient>
    <linearGradient xmlns:xlink="http://www.w3.org/1999/xlink" inkscape:collect="always" xlink:href="#linearGradient3" id="linearGradient4" x1="13.512321" y1="13.490874" x2="3.3783066" y2="3.3568602" gradientUnits="userSpaceOnUse"/>
  </defs>
  <metadata id="metadata2">
    <rdf:RDF>
      <cc:Work rdf:about="">
        <dc:format>image/svg+xml</dc:format>
        <dc:type rdf:resource="http://purl.org/dc/dcmitype/StillImage"/>
      </cc:Work>
    </rdf:RDF>
  </metadata>
  <ellipse style="opacity:1;fill:none;stroke:#000000;stroke-width:0.582072;stroke-dasharray:none;stroke-opacity:1;filter:url(#filter3)" id="path1-5" cx="8.4450111" cy="8.423522" rx="6.8752708" ry="6.8578653"/>
  <ellipse style="opacity:1;fill:none;stroke-width:0.58207188;stroke-opacity:1;stroke:currentColor;stroke-dasharray:none;fill-opacity:1" id="path1" cx="8.4450111" cy="8.423522" rx="6.8752708" ry="6.8578653" class="ColorScheme-Text"/>
  <ellipse style="fill:currentColor;stroke:none;stroke-width:0.285844;stroke-dasharray:none;stroke-opacity:1" id="path1-2" cx="8.4557552" cy="8.423522" rx="6.5738997" ry="6.5692253" class="ColorScheme-Highlight"/>
<path style="opacity:0.3;fill:#000000;fill-opacity:1;stroke:none;stroke-width:0.20778;stroke-dasharray:none;stroke-opacity:0.3" d="m 5.3963767,12.686867 c -0.41243,-0.143758 -0.715189,-0.449043 -0.816486,-0.823293 -0.07055,-0.260646 -0.02254,-0.626708 0.114129,-0.870317 0.26316,-0.469057 0.895134,-0.738834 1.39497,-0.595483 l 0.124413,0.03568 0.02553,-0.244244 c 0.06521,-0.6238824 0.524332,-1.1732474 1.144279,-1.3691875 0.120928,-0.03822 0.227955,-0.076263 0.237837,-0.084538 0.0099,-0.00827 -0.167158,-0.2008043 -0.393423,-0.4278418 L 6.8162327,7.8948465 7.2196507,7.5033864 7.6230687,7.1119271 v -0.553631 -0.553632 h 0.573101 0.573102 l 0.40643,-0.383405 0.406432,-0.383406 0.189777,0.16038 c 0.104378,0.08821 0.2881053,0.260741 0.4082823,0.383406 l 0.218505,0.223025 h 0.57103 0.571029 v 0.55204 0.55204 l 0.422335,0.3927348 0.422339,0.3927343 -0.422339,0.3977621 -0.422335,0.3977616 v 0.5363547 0.536355 h -0.542673 -0.54267 l -0.319712,0.2898294 -0.3197103,0.289829 0.2745883,0.02519 c 0.353191,0.03239 0.624419,0.169262 0.864431,0.436213 0.411896,0.458127 0.406306,1.070036 -0.01398,1.529888 -0.122256,0.133768 -0.278925,0.253347 -0.408881,0.312078 l -0.210679,0.09522 -2.3586073,0.0093 c -2.188493,0.0086 -2.373603,0.0041 -2.566493,-0.06315 z M 9.9419747,9.5031666 C 10.492499,9.4342976 11.044179,8.9461536 11.221948,8.3706024 11.519831,7.4061651 10.890866,6.4496041 9.8448697,6.2762771 c -0.518683,-0.08595 -1.051432,0.08188 -1.446824,0.455794 -0.507944,0.480347 -0.660923,1.2423608 -0.366221,1.8242098 0.08085,0.1596341 0.115355,0.186971 0.310819,0.2462746 0.398694,0.1209631 0.76679,0.3647291 0.905604,0.5997241 0.04732,0.08012 0.106874,0.120704 0.191205,0.130322 0.124211,0.01417 0.180179,0.01089 0.502522,-0.02943 z" id="path53290" class="ColorScheme-Text"/>
  <path style="fill:currentColor;fill-opacity:1;stroke:none;stroke-width:0.20778;stroke-dasharray:none;stroke-opacity:0.3" d="m 5.3963767,12.157818 c -0.41243,-0.143759 -0.715189,-0.449043 -0.816486,-0.823293 -0.07055,-0.260646 -0.02254,-0.626708 0.114129,-0.870317 0.26316,-0.469058 0.895134,-0.738835 1.39497,-0.595484 l 0.124413,0.03568 0.02553,-0.244244 c 0.06521,-0.623882 0.524332,-1.173247 1.144279,-1.3691871 0.120928,-0.03822 0.227955,-0.076263 0.237837,-0.084538 0.0099,-0.00827 -0.167158,-0.2008043 -0.393423,-0.4278418 L 6.8162327,7.3657969 7.2196507,6.9743368 7.6230687,6.5828775 v -0.553631 -0.553632 h 0.573101 0.573102 l 0.40643,-0.383405 0.406432,-0.383406 0.189777,0.16038 c 0.104378,0.08821 0.2881053,0.260741 0.4082823,0.383406 l 0.218505,0.223025 h 0.57103 0.571029 v 0.55204 0.55204 l 0.422335,0.3927348 0.422339,0.3927343 -0.422339,0.3977621 -0.422335,0.3977616 V 8.697042 9.233397 h -0.542673 -0.54267 L 10.135702,9.523226 9.8159917,9.813055 10.09058,9.838245 c 0.353191,0.03239 0.624419,0.169263 0.864431,0.436214 0.411896,0.458127 0.406306,1.070036 -0.01398,1.529888 -0.122256,0.133768 -0.278925,0.253347 -0.408881,0.312078 l -0.210679,0.09522 -2.3586073,0.0093 c -2.188493,0.0086 -2.373603,0.0041 -2.566493,-0.06315 z M 9.9419747,8.974117 C 10.492499,8.905248 11.044179,8.417104 11.221948,7.8415528 11.519831,6.8771155 10.890866,5.9205545 9.8448697,5.7472275 c -0.518683,-0.08595 -1.051432,0.08188 -1.446824,0.455794 -0.507944,0.480347 -0.660923,1.2423608 -0.366221,1.8242098 0.08085,0.1596341 0.115355,0.186971 0.310819,0.2462746 0.398694,0.1209631 0.76679,0.3647291 0.905604,0.5997241 0.04732,0.08012 0.106874,0.120704 0.191205,0.130322 0.124211,0.01417 0.180179,0.01089 0.502522,-0.02943 z" id="path53290-6" class="ColorScheme-Text"/>
<path id="gradient-path1" style="opacity:0.3;baseline-shift:baseline;display:inline;overflow:visible;vector-effect:none;enable-background:accumulate;stop-color:#000000;stop-opacity:1;fill:url(#linearGradient4)" d="M 8.4453131 1.2753492 C 4.4913166 1.2753492 1.2794833 4.4784283 1.2794833 8.4236094 C 1.2794833 12.36879 4.4913166 15.572386 8.4453131 15.572386 C 12.39931 15.572386 15.611143 12.36879 15.611143 8.4236094 C 15.611143 4.4784283 12.39931 1.2753492 8.4453131 1.2753492 z "/>
</svg>
