<?xml version='1.0' encoding='UTF-8'?>
<svg xmlns:inkscape="http://www.inkscape.org/namespaces/inkscape" xmlns:sodipodi="http://sodipodi.sourceforge.net/DTD/sodipodi-0.dtd" xmlns="http://www.w3.org/2000/svg" xmlns:svg="http://www.w3.org/2000/svg" xmlns:rdf="http://www.w3.org/1999/02/22-rdf-syntax-ns#" xmlns:cc="http://creativecommons.org/ns#" xmlns:dc="http://purl.org/dc/elements/1.1/" width="64" height="64" version="1.1" viewBox="0 0 16.933 16.933" id="svg7" sodipodi:docname="net.davidotek.pupgui2.svg" inkscape:version="1.4.2 (ebf0e940d0, 2025-05-08)">
  <sodipodi:namedview id="namedview7" pagecolor="#9c4444" bordercolor="#000000" borderopacity="0.25" inkscape:showpageshadow="2" inkscape:pageopacity="0.0" inkscape:pagecheckerboard="0" inkscape:deskcolor="#d1d1d1" inkscape:zoom="4.3531261" inkscape:cx="36.755195" inkscape:cy="53.754473" inkscape:window-width="1920" inkscape:window-height="1044" inkscape:window-x="0" inkscape:window-y="0" inkscape:window-maximized="1" inkscape:current-layer="svg7" showgrid="false"/>
  <defs id="defs2">
    <filter style="color-interpolation-filters:sRGB;" inkscape:label="Blur" id="filter3" x="-0.10843471" y="-0.10870992" width="1.2168694" height="1.2174198">
      <feGaussianBlur stdDeviation="0.5 0.5" result="blur" id="feGaussianBlur3"/>
    </filter>
    <style id="current-color-scheme" type="text/css">.ColorScheme-Text {color:#d8dee9} .ColorScheme-Highlight {color:#3b4252}</style>
  <linearGradient id="linearGradient3" inkscape:collect="always">
      <stop style="stop-color:#000000;stop-opacity:1;" offset="0" id="stop3"/>
      <stop style="stop-color:#000000;stop-opacity:0;" offset="1" id="stop4"/>
    </linearGradient>
    <linearGradient xmlns:xlink="http://www.w3.org/1999/xlink" inkscape:collect="always" xlink:href="#linearGradient3" id="linearGradient4" x1="13.512321" y1="13.490874" x2="3.3783066" y2="3.3568602" gradientUnits="userSpaceOnUse"/>
  </defs>
  <metadata id="metadata2">
    <rdf:RDF>
      <cc:Work rdf:about="">
        <dc:format>image/svg+xml</dc:format>
        <dc:type rdf:resource="http://purl.org/dc/dcmitype/StillImage"/>
      </cc:Work>
    </rdf:RDF>
  </metadata>
  <ellipse style="opacity:1;fill:none;stroke:#000000;stroke-width:0.582072;stroke-dasharray:none;stroke-opacity:1;filter:url(#filter3)" id="path1-5" cx="8.4450111" cy="8.423522" rx="6.8752708" ry="6.8578653"/>
  <ellipse style="opacity:1;fill:none;stroke-width:0.58207188;stroke-opacity:1;stroke:currentColor;stroke-dasharray:none;fill-opacity:1" id="path1" cx="8.4450111" cy="8.423522" rx="6.8752708" ry="6.8578653" class="ColorScheme-Text"/>
  <ellipse style="fill:currentColor;stroke:none;stroke-width:0.285844;stroke-dasharray:none;stroke-opacity:1" id="path1-2" cx="8.4557552" cy="8.423522" rx="6.5738997" ry="6.5692253" class="ColorScheme-Highlight"/>
<path id="path2-7-0" style="opacity:0.3;fill:#000000;fill-opacity:1;stroke-width:0.244929" class="ColorScheme-Text" d="m 8.4664998,5.0767251 c -0.130303,0 -0.254116,0.051597 -0.346212,0.1436523 l -3.429067,3.4290672 c -0.1912891,0.1910498 -0.1912891,0.5013736 0,0.6924229 0.19104,0.1912896 0.501904,0.1912896 0.692943,0 L 7.9766358,6.749406 V 9.7743754 L 8.9563738,8.7946472 V 6.749406 l 2.5929822,2.5924615 c 0.191039,0.1912896 0.501383,0.1912896 0.692422,0 0.191291,-0.1910492 0.191291,-0.5013731 0,-0.6924229 L 8.8132318,5.2203774 c -0.0921,-0.092095 -0.216429,-0.1436523 -0.346732,-0.1436523 z m -0.971458,4.5049096 -0.913081,0.9130723 0.476954,0.476953 0.436127,-0.436126 0.674333,0.674333 0.674865,-0.674333 0.6743339,0.674333 L 10.431655,10.296796 9.9546997,9.8198525 9.5185737,10.255979 8.8442398,9.5816347 8.1693748,10.255979 Z m 1.421024,1.5016403 -0.9394301,0.939429 v 0.40202 c 0,0.270395 0.219458,0.489863 0.489864,0.489863 0.270405,0 0.489874,-0.219468 0.489874,-0.489863 v -1.301142 z"/>
  <path id="path2-7-0-4" style="fill:currentColor;fill-opacity:1;stroke-width:0.244929" class="ColorScheme-Text" d="m 8.4664997,4.5475687 c -0.130303,0 -0.254116,0.051597 -0.346212,0.1436523 l -3.429067,3.4290673 c -0.191289,0.19105 -0.191289,0.501373 0,0.692423 0.19104,0.191289 0.501904,0.191289 0.692943,0 l 2.592472,-2.5924617 v 3.0249697 l 0.979738,-0.979729 V 6.2202496 l 2.5929823,2.5924617 c 0.191039,0.191289 0.501383,0.191289 0.692422,0 0.191291,-0.191049 0.191291,-0.501373 0,-0.692423 L 8.8132317,4.691221 C 8.7211317,4.599126 8.5968027,4.5475687 8.4664997,4.5475687 Z m -0.971458,4.5049096 -0.913081,0.913072 0.476954,0.4769537 0.436127,-0.436126 0.674333,0.674333 0.674865,-0.674333 0.674334,0.674333 0.9130813,-0.9130717 -0.4769552,-0.476943 -0.4361261,0.436126 -0.674334,-0.674344 -0.674865,0.674344 z m 1.421024,1.5016397 -0.93943,0.93943 v 0.402019 c 0,0.270395 0.219458,0.489864 0.489864,0.489864 0.270405,0 0.489874,-0.219469 0.489874,-0.489864 v -1.301141 z"/>
<path id="gradient-path1" style="opacity:0.3;baseline-shift:baseline;display:inline;overflow:visible;vector-effect:none;enable-background:accumulate;stop-color:#000000;stop-opacity:1;fill:url(#linearGradient4)" d="M 8.4453131 1.2753492 C 4.4913166 1.2753492 1.2794833 4.4784283 1.2794833 8.4236094 C 1.2794833 12.36879 4.4913166 15.572386 8.4453131 15.572386 C 12.39931 15.572386 15.611143 12.36879 15.611143 8.4236094 C 15.611143 4.4784283 12.39931 1.2753492 8.4453131 1.2753492 z "/>
</svg>
