<?xml version="1.0" encoding="UTF-8" standalone="no"?>
<svg
   width="64"
   height="64"
   version="1.1"
   viewBox="0 0 16.933 16.933"
   id="svg7"
   sodipodi:docname="net.nokyan.Resources.svg"
   inkscape:version="1.4.2 (ebf0e940d0, 2025-05-08)"
   xmlns:inkscape="http://www.inkscape.org/namespaces/inkscape"
   xmlns:sodipodi="http://sodipodi.sourceforge.net/DTD/sodipodi-0.dtd"
   xmlns:xlink="http://www.w3.org/1999/xlink"
   xmlns="http://www.w3.org/2000/svg"
   xmlns:svg="http://www.w3.org/2000/svg"
   xmlns:rdf="http://www.w3.org/1999/02/22-rdf-syntax-ns#"
   xmlns:cc="http://creativecommons.org/ns#"
   xmlns:dc="http://purl.org/dc/elements/1.1/">
  <sodipodi:namedview
     id="namedview7"
     pagecolor="#9c4444"
     bordercolor="#000000"
     borderopacity="0.25"
     inkscape:showpageshadow="2"
     inkscape:pageopacity="0.0"
     inkscape:pagecheckerboard="0"
     inkscape:deskcolor="#d1d1d1"
     inkscape:zoom="8.7062522"
     inkscape:cx="72.763801"
     inkscape:cy="15.276378"
     inkscape:window-width="2560"
     inkscape:window-height="1388"
     inkscape:window-x="0"
     inkscape:window-y="0"
     inkscape:window-maximized="1"
     inkscape:current-layer="svg7"
     showgrid="false" />
  <defs
     id="defs2">
    <filter
       style="color-interpolation-filters:sRGB;"
       inkscape:label="Blur"
       id="filter3"
       x="-0.10843471"
       y="-0.10870992"
       width="1.2168694"
       height="1.2174198">
      <feGaussianBlur
         stdDeviation="0.5 0.5"
         result="blur"
         id="feGaussianBlur3" />
    </filter>
    <style
       id="current-color-scheme"
       type="text/css">.ColorScheme-Text {color:#d8dee9} .ColorScheme-Highlight {color:#3b4252}</style>
    <linearGradient
       id="linearGradient3"
       inkscape:collect="always">
      <stop
         style="stop-color:#000000;stop-opacity:1;"
         offset="0"
         id="stop3" />
      <stop
         style="stop-color:#000000;stop-opacity:0;"
         offset="1"
         id="stop4" />
    </linearGradient>
    <linearGradient
       inkscape:collect="always"
       xlink:href="#linearGradient3"
       id="linearGradient4"
       x1="13.512321"
       y1="13.490874"
       x2="3.3783066"
       y2="3.3568602"
       gradientUnits="userSpaceOnUse" />
  </defs>
  <metadata
     id="metadata2">
    <rdf:RDF>
      <cc:Work
         rdf:about="">
        <dc:format>image/svg+xml</dc:format>
        <dc:type
           rdf:resource="http://purl.org/dc/dcmitype/StillImage" />
      </cc:Work>
    </rdf:RDF>
  </metadata>
  <ellipse
     style="opacity:1;fill:none;stroke:#000000;stroke-width:0.582072;stroke-dasharray:none;stroke-opacity:1;filter:url(#filter3)"
     id="path1-5"
     cx="8.4450111"
     cy="8.423522"
     rx="6.8752708"
     ry="6.8578653" />
  <ellipse
     style="opacity:1;fill:none;stroke-width:0.58207188;stroke-opacity:1;stroke:currentColor;stroke-dasharray:none;fill-opacity:1"
     id="path1"
     cx="8.4450111"
     cy="8.423522"
     rx="6.8752708"
     ry="6.8578653"
     class="ColorScheme-Text" />
  <ellipse
     style="fill:currentColor;stroke:none;stroke-width:0.285844;stroke-dasharray:none;stroke-opacity:1"
     id="path1-2"
     cx="8.4557552"
     cy="8.423522"
     rx="6.5738997"
     ry="6.5692253"
     class="ColorScheme-Highlight" />
  <path
     id="path5-3"
     style="opacity:0.3;fill:#000000;fill-opacity:1;stroke-width:0.0732462"
     d="m 8.4665,5.0555588 c -2.4271459,0 -4.3947845,1.967639 -4.3947845,4.3947846 0,0.9267386 0.2869769,1.7865246 0.7768116,2.4955266 0.02661,0.03891 0.071248,0.06151 0.1184542,0.06151 h 6.9990367 c 0.04721,0 0.09156,-0.0226 0.118453,-0.06151 0.489835,-0.709002 0.776813,-1.568788 0.776813,-2.4955266 0,-2.4271456 -1.96764,-4.3947846 -4.394784,-4.3947846 z m 0,0.3994219 c 2.206547,0 3.995076,1.7888147 3.995076,3.9953627 0,0.4715235 -0.08155,0.9241636 -0.231757,1.3441856 -0.02032,0.05694 -0.07496,0.09414 -0.135334,0.09414 H 4.8382275 c -0.060374,0 -0.1150202,-0.0372 -0.1353338,-0.09414 C 4.552967,10.374507 4.471138,9.9218669 4.471138,9.4503434 c 0,-2.206548 1.788814,-3.9953627 3.995362,-3.9953627 z M 8.4250069,6.2543965 C 7.9549143,6.2604095 7.4919732,6.3702747 7.06909,6.5757078 6.6462068,6.7811413 6.2739658,7.0775602 5.9786914,7.4435061 5.6834169,7.809452 5.4725473,8.2360553 5.3612467,8.6929869 c -0.099851,0.4091498 -0.1178805,0.8337495 -0.052932,1.249195 0.012303,0.07983 0.089841,0.1310421 0.1693821,0.1150191 L 6.44335,9.8609249 C 6.5226045,9.8449029 6.5732478,9.7676489 6.5632338,9.6872494 6.5346194,9.4566374 6.5480739,9.2223065 6.6032874,8.9959867 6.669951,8.7218849 6.7967038,8.4658086 6.9738119,8.2463554 7.150919,8.0266162 7.3743772,7.8489366 7.6278783,7.7256192 7.8816674,7.6023022 8.1594875,7.5364948 8.4416019,7.5327751 8.7237141,7.5290551 9.0032528,7.5877111 9.2599,7.7044465 9.343573,7.7424635 9.4241583,7.7863175 9.5010994,7.835632 L 10.495218,6.9807091 C 10.280606,6.8044655 10.043258,6.6564006 9.7889415,6.5408014 9.3609076,6.3459547 8.8953918,6.2483881 8.4250124,6.2543965 Z m 0.041493,0.079541 c 0.04435,0 0.080107,0.035765 0.080107,0.080113 v 0.3195947 c 0,0.044062 -0.035768,0.079827 -0.080107,0.079827 -0.044062,0 -0.07983,-0.035765 -0.07983,-0.079827 V 6.4140503 c 0,-0.044348 0.035768,-0.080113 0.07983,-0.080113 z m -1.1612138,0.231184 c 0.031051,2.653e-4 0.06044,0.018812 0.073109,0.049498 l 0.1224585,0.2952746 c 0.016876,0.040628 -0.00255,0.087266 -0.04321,0.104147 -0.040917,0.016882 -0.087549,-0.00229 -0.104436,-0.043204 L 7.2307492,6.6755632 c -0.016876,-0.040629 0.00255,-0.087553 0.043486,-0.1044338 0.010188,-0.00422 0.020697,-0.0061 0.031051,-0.00601 z m 2.3228554,0 c 0.01041,-8.79e-5 0.02096,0.00178 0.03119,0.00601 0.04063,0.016881 0.06009,0.063804 0.04321,0.1044338 l -0.122457,0.2952778 c -0.016876,0.040915 -0.063519,0.060085 -0.1044358,0.043204 -0.040629,-0.016881 -0.060086,-0.063519 -0.04321,-0.1041469 L 9.5548976,6.6146254 c 0.012657,-0.030686 0.04208,-0.04923 0.073241,-0.049498 z m 1.2496235,0.3217404 c -0.02915,-0.00108 -0.05866,0.00844 -0.08226,0.028755 L 8.2665058,9.0906921 c -0.014883,0.013161 -0.028891,0.026895 -0.041205,0.041201 -0.096142,0.07296 -0.1582242,0.1885522 -0.1582242,0.3184503 0,0.220597 0.1788235,0.3994225 0.3994214,0.3994225 0.1401984,0 0.2638019,-0.0721 0.3350456,-0.1814005 0.00831,-0.0083 0.016312,-0.01717 0.02403,-0.02632 L 10.964882,7.0827098 c 0.03977,-0.047495 0.03662,-0.1173088 -0.0072,-0.1610849 -0.02204,-0.022031 -0.05082,-0.033691 -0.07997,-0.034764 z M 6.3194642,7.2231948 c 0.02042,0 0.040773,0.00786 0.056365,0.023462 l 0.226034,0.2260339 c 0.031195,0.031187 0.031195,0.08183 0,0.113017 -0.031184,0.031187 -0.081835,0.031187 -0.113017,0 L 6.2628146,7.3596737 c -0.031184,-0.031187 -0.031184,-0.08183 0,-0.113017 0.015736,-0.015594 0.036233,-0.023462 0.056653,-0.023462 z m 4.5849098,0.1603695 -0.840616,1.0055645 v 1.466e-4 c 0.03649,0.054933 0.07021,0.1116427 0.100859,0.1700976 0.02929,0.055806 0.05487,0.1134748 0.07855,0.1719573 0.0074,0.018465 0.01384,0.037362 0.02074,0.056079 0.01471,0.03989 0.02815,0.080282 0.0402,0.1211713 0.0069,0.023123 0.0131,0.046353 0.01902,0.06967 0.01898,0.074912 0.03523,0.1504511 0.04506,0.2267491 0.01856,0.1435127 0.02091,0.2888267 0.0068,0.4333277 -0.008,0.0804 0.04464,0.1565075 0.124175,0.1705265 l 0.970514,0.171096 c 0.07983,0.01402 0.156221,-0.0392 0.166523,-0.119311 0.01444,-0.111389 0.02198,-0.2232485 0.0246,-0.3351885 8.15e-4,-0.03516 -0.0017,-0.07015 -0.002,-0.105292 -6.9e-4,-0.07661 -0.0023,-0.1531054 -0.0086,-0.2294683 -0.0034,-0.042207 -0.0097,-0.083985 -0.01487,-0.1260352 -0.0084,-0.068806 -0.0176,-0.137345 -0.03048,-0.2055764 -0.0085,-0.0454 -0.01909,-0.090279 -0.02961,-0.1353343 -0.0086,-0.036779 -0.01441,-0.07407 -0.02432,-0.1105852 -0.0083,-0.030639 -0.01954,-0.060227 -0.02876,-0.090556 -0.0059,-0.01916 -0.0092,-0.03887 -0.0153,-0.057939 -0.0045,-0.014147 -0.01153,-0.027274 -0.0163,-0.041344 -0.03743,-0.1102696 -0.07851,-0.2190793 -0.127605,-0.3243158 -0.06005,-0.1287264 -0.128724,-0.253255 -0.205433,-0.3729558 -0.0043,-0.00674 -0.01,-0.012601 -0.01431,-0.019312 -0.073,-0.1120432 -0.15184,-0.2206037 -0.238765,-0.3231712 z M 5.6609617,8.2084448 c 0.010409,-6.25e-5 0.020885,0.00193 0.031051,0.00615 l 0.2952745,0.1221729 c 0.040917,0.016881 0.060086,0.063804 0.043209,0.1044337 -0.016876,0.040915 -0.063519,0.060085 -0.1041481,0.043204 L 5.6310627,8.3622332 c -0.040917,-0.016882 -0.060374,-0.063804 -0.043486,-0.1044338 0.012657,-0.030686 0.042257,-0.049168 0.073385,-0.049355 z m 5.6115043,0 c 0.03117,1.824e-4 0.06058,0.018669 0.07324,0.049356 0.01688,0.040628 -0.0023,0.087552 -0.04321,0.1044337 l -0.295274,0.1221726 c -0.04063,0.016881 -0.08755,-0.00229 -0.104436,-0.043204 -0.01688,-0.040628 0.0025,-0.087552 0.04321,-0.1044337 L 11.24127,8.2145967 c 0.01019,-0.00422 0.0208,-0.00621 0.03119,-0.00615 z M 8.4665,9.290403 c 0.088124,0 0.1596538,0.071816 0.1596538,0.1599404 0,0.08812 -0.071525,0.15994 -0.1596538,0.15994 -0.088412,0 -0.1599406,-0.07182 -0.1599406,-0.15994 0,-0.08812 0.071525,-0.1599404 0.1599406,-0.1599404 z M 5.4299213,9.370516 h 0.3195945 c 0.04435,0 0.080118,0.03576 0.080118,0.07983 0,0.04406 -0.035768,0.07983 -0.080118,0.07983 H 5.4299213 c -0.044062,0 -0.07983,-0.03576 -0.07983,-0.07983 0,-0.04406 0.035768,-0.07983 0.07983,-0.07983 z m 5.7532767,0 h 0.319593 c 0.04406,0 0.07983,0.03576 0.07983,0.07983 0,0.04406 -0.03577,0.07983 -0.07983,0.07983 h -0.319593 c -0.04406,0 -0.08012,-0.03576 -0.08012,-0.07983 0,-0.04406 0.03606,-0.07983 0.08012,-0.07983 z m -5.593336,1.677801 c 0.1765345,0 0.3195944,0.143345 0.3195944,0.319881 0,0.176534 -0.1430599,0.319594 -0.3195944,0.319594 -0.1765357,0 -0.3195956,-0.14306 -0.3195956,-0.319594 0,-0.176536 0.1430599,-0.319881 0.3195956,-0.319881 z m 0.7991295,0 c 0.1765357,0 0.3195945,0.143345 0.3195945,0.319881 0,0.176534 -0.1430588,0.319594 -0.3195945,0.319594 -0.1765356,0 -0.3195955,-0.14306 -0.3195955,-0.319594 0,-0.176536 0.1430599,-0.319881 0.3195955,-0.319881 z M 5.589862,11.194809 c -0.097238,0 -0.1731028,0.076 -0.1731028,0.173389 0,0.09739 0.075711,0.173102 0.1731028,0.173102 0.097393,-2e-6 0.1731017,-0.07571 0.1731017,-0.173102 0,-0.09739 -0.075866,-0.173389 -0.1731017,-0.173389 z m 0.7991295,0 c -0.097238,0 -0.1731017,0.076 -0.1731017,0.173389 0,0.09739 0.075711,0.1731 0.1731017,0.173102 0.097393,0 0.1731017,-0.07571 0.1731017,-0.173102 0,-0.09739 -0.075866,-0.173389 -0.1731017,-0.173389 z m 6.2319525,0.09199 c -0.115676,0.261253 -0.255266,0.509662 -0.416018,0.742336 -0.05487,0.07938 -0.144573,0.124748 -0.238908,0.124748 H 4.9669813 c -0.093993,0 -0.1845508,-0.0452 -0.239339,-0.12532 -0.1604356,-0.232219 -0.299767,-0.480071 -0.415301,-0.740905 0.131077,0.378759 0.3124497,0.733926 0.5361858,1.057639 0.02661,0.03891 0.071248,0.06151 0.1184542,0.06151 h 6.9990367 c 0.04721,0 0.09156,-0.0226 0.118453,-0.06151 0.22388,-0.323922 0.405377,-0.679464 0.536473,-1.058498 z" />
  <path
     id="path5-3-7"
     style="fill:currentColor;fill-opacity:1;stroke-width:0.0732462"
     d="m 8.4665,4.5264026 c -2.4271459,0 -4.3947845,1.967639 -4.3947845,4.3947845 0,0.9267392 0.2869769,1.7865259 0.7768116,2.4955279 0.02661,0.03891 0.071248,0.06151 0.1184542,0.06151 h 6.9990367 c 0.04721,0 0.09156,-0.0226 0.118453,-0.06151 0.489835,-0.709002 0.776813,-1.5687887 0.776813,-2.4955279 0,-2.4271455 -1.96764,-4.3947845 -4.394784,-4.3947845 z m 0,0.3994219 c 2.206547,0 3.995076,1.7888147 3.995076,3.9953626 0,0.4715239 -0.08155,0.9241642 -0.231757,1.3441859 -0.02032,0.05694 -0.07496,0.09414 -0.135334,0.09414 H 4.8382275 c -0.060374,0 -0.1150202,-0.0372 -0.1353338,-0.09414 C 4.552967,9.8453513 4.471138,9.392711 4.471138,8.9211871 4.471138,6.7146392 6.259952,4.9258245 8.4665,4.9258245 Z M 8.4250069,5.7252403 C 7.9549143,5.7312533 7.4919732,5.8411185 7.06909,6.0465516 6.6462068,6.2519851 6.2739658,6.548404 5.9786914,6.9143499 5.6834169,7.2802958 5.4725473,7.7068991 5.3612467,8.1638307 c -0.099851,0.4091498 -0.1178805,0.83375 -0.052932,1.2491943 0.012303,0.07983 0.089841,0.131043 0.1693821,0.11502 L 6.44335,9.3317674 C 6.5226045,9.3157461 6.5732478,9.2384926 6.5632338,9.1580934 6.5346194,8.9274816 6.5480739,8.6931503 6.6032874,8.4668305 6.669951,8.1927287 6.7967038,7.9366524 6.9738119,7.7171993 7.150919,7.49746 7.3743772,7.3197804 7.6278783,7.196463 7.8816674,7.073146 8.1594875,7.0073386 8.4416019,7.0036189 8.7237141,6.9998989 9.0032528,7.0585549 9.2599,7.1752904 9.343573,7.2133074 9.4241583,7.2571614 9.5010994,7.3064758 L 10.495218,6.4515529 C 10.280606,6.2753093 10.043258,6.1272444 9.7889415,6.0116453 9.3609076,5.8167985 8.8953918,5.719232 8.4250124,5.7252403 Z m 0.041493,0.079541 c 0.04435,0 0.080107,0.035765 0.080107,0.080113 V 6.204489 c 0,0.044062 -0.035768,0.079827 -0.080107,0.079827 -0.044062,0 -0.07983,-0.035765 -0.07983,-0.079827 V 5.8848941 c 0,-0.044348 0.035768,-0.080113 0.07983,-0.080113 z m -1.1612138,0.231184 c 0.031051,2.653e-4 0.06044,0.018812 0.073109,0.049498 L 7.5008536,6.380738 c 0.016876,0.040628 -0.00255,0.087266 -0.04321,0.1041469 -0.040917,0.016882 -0.087549,-0.00229 -0.104436,-0.043204 L 7.2307492,6.146407 c -0.016876,-0.040629 0.00255,-0.087553 0.043486,-0.1044338 0.010188,-0.00422 0.020697,-0.0061 0.031051,-0.00601 z m 2.3228554,0 c 0.01041,-8.79e-5 0.02096,0.00178 0.03119,0.00601 0.04063,0.016881 0.06009,0.063804 0.04321,0.1044338 L 9.5800845,6.4416869 C 9.5632084,6.482602 9.516566,6.5017717 9.4756487,6.4848909 9.4350193,6.4680102 9.4155629,6.4213723 9.4324392,6.380744 L 9.5548976,6.0854692 c 0.012657,-0.030686 0.04208,-0.04923 0.073241,-0.049498 z m 1.2496235,0.3217405 c -0.02915,-0.00108 -0.05866,0.00844 -0.08226,0.028755 L 8.2665058,8.561536 c -0.014883,0.013161 -0.028891,0.026895 -0.041205,0.041201 -0.096142,0.07296 -0.1582242,0.1885521 -0.1582242,0.3184503 0,0.2205973 0.1788235,0.3994216 0.3994214,0.3994216 0.1401984,0 0.2638019,-0.072102 0.3350456,-0.1813991 0.00831,-0.00829 0.016312,-0.017168 0.02403,-0.026323 L 10.964882,6.5535537 c 0.03977,-0.047495 0.03662,-0.1173088 -0.0072,-0.1610849 -0.02204,-0.022031 -0.05082,-0.033691 -0.07997,-0.034764 z M 6.3194642,6.6940386 c 0.02042,0 0.040773,0.00786 0.056365,0.023462 l 0.226034,0.2260339 c 0.031195,0.031187 0.031195,0.08183 0,0.113017 -0.031184,0.031187 -0.081835,0.031187 -0.113017,0 L 6.2628146,6.8305175 c -0.031184,-0.031187 -0.031184,-0.08183 0,-0.1130169 0.015736,-0.015594 0.036233,-0.023462 0.056653,-0.023462 z m 4.5849098,0.1603695 -0.840616,1.0055645 v 1.467e-4 c 0.03649,0.054933 0.07021,0.1116426 0.100859,0.1700975 0.02929,0.055806 0.05487,0.1134749 0.07855,0.1719573 0.0074,0.018465 0.01384,0.037362 0.02074,0.056079 0.01471,0.03989 0.02815,0.080282 0.0402,0.1211713 0.0069,0.023123 0.0131,0.046353 0.01902,0.06967 0.01898,0.074912 0.03523,0.150451 0.04506,0.2267491 0.01856,0.1435122 0.02091,0.2888257 0.0068,0.4333267 -0.008,0.0804 0.04464,0.1565072 0.124175,0.1705269 l 0.970514,0.1710949 c 0.07983,0.01402 0.156221,-0.0392 0.166523,-0.1193109 0.01444,-0.1113884 0.02198,-0.2232478 0.0246,-0.335188 8.15e-4,-0.035162 -0.0017,-0.070144 -0.002,-0.1052919 -6.9e-4,-0.076613 -0.0023,-0.1531045 -0.0086,-0.2294674 -0.0034,-0.042207 -0.0097,-0.083985 -0.01487,-0.1260353 -0.0084,-0.068806 -0.0176,-0.1373449 -0.03048,-0.2055764 -0.0085,-0.0454 -0.01909,-0.090279 -0.02961,-0.1353343 -0.0086,-0.036779 -0.01441,-0.07407 -0.02432,-0.1105851 -0.0083,-0.030639 -0.01954,-0.060228 -0.02876,-0.090556 -0.0059,-0.01916 -0.0092,-0.03887 -0.0153,-0.057939 -0.0045,-0.014147 -0.01153,-0.027274 -0.0163,-0.041344 -0.03743,-0.1102696 -0.07851,-0.2190794 -0.127605,-0.3243159 -0.06005,-0.1287264 -0.128724,-0.253255 -0.205433,-0.3729558 -0.0043,-0.00674 -0.01,-0.012601 -0.01431,-0.019313 -0.073,-0.1120433 -0.15184,-0.2206037 -0.238765,-0.3231712 z M 5.6609617,7.6792887 c 0.010409,-6.26e-5 0.020885,0.00193 0.031051,0.00615 l 0.2952745,0.1221728 c 0.040917,0.016881 0.060086,0.063804 0.043209,0.1044337 -0.016876,0.040915 -0.063519,0.060085 -0.1041481,0.043204 L 5.6310627,7.833077 C 5.5901457,7.816195 5.5706887,7.769273 5.5875767,7.7286432 c 0.012657,-0.030686 0.042257,-0.049168 0.073385,-0.049354 z m 5.6115043,0 c 0.03117,1.823e-4 0.06058,0.018669 0.07324,0.049355 0.01688,0.040628 -0.0023,0.087552 -0.04321,0.1044338 l -0.295274,0.1221726 c -0.04063,0.016881 -0.08755,-0.00229 -0.104436,-0.043204 -0.01688,-0.040628 0.0025,-0.087552 0.04321,-0.1044337 L 11.241271,7.68544 c 0.01019,-0.00422 0.0208,-0.00621 0.03119,-0.00615 z M 8.4665,8.7612469 c 0.088124,0 0.1596538,0.071816 0.1596538,0.1599403 0,0.088124 -0.071525,0.1599404 -0.1596538,0.1599404 -0.088412,0 -0.1599406,-0.071816 -0.1599406,-0.1599404 0,-0.088124 0.071525,-0.1599403 0.1599406,-0.1599403 z m -3.0365787,0.080114 h 0.3195945 c 0.04435,0 0.080118,0.035765 0.080118,0.079827 0,0.044062 -0.035768,0.079827 -0.080118,0.079827 H 5.4299213 c -0.044062,0 -0.07983,-0.035765 -0.07983,-0.079827 0,-0.044062 0.035768,-0.079827 0.07983,-0.079827 z m 5.7532767,0 h 0.319593 c 0.04406,0 0.07983,0.035765 0.07983,0.079827 0,0.044062 -0.03577,0.079827 -0.07983,0.079827 h -0.319593 c -0.04406,0 -0.08012,-0.035765 -0.08012,-0.079827 0,-0.044062 0.03606,-0.079827 0.08012,-0.079827 z M 5.589862,10.519161 c 0.1765345,0 0.3195944,0.143346 0.3195944,0.319881 0,0.176535 -0.1430599,0.319595 -0.3195944,0.319595 -0.1765357,0 -0.3195956,-0.14306 -0.3195956,-0.319595 0,-0.176535 0.1430599,-0.319881 0.3195956,-0.319881 z m 0.7991295,0 c 0.1765357,0 0.3195945,0.143346 0.3195945,0.319881 0,0.176535 -0.1430588,0.319595 -0.3195945,0.319595 -0.1765356,0 -0.3195955,-0.14306 -0.3195955,-0.319595 0,-0.176535 0.1430599,-0.319881 0.3195955,-0.319881 z M 5.589862,10.665654 c -0.097238,0 -0.1731028,0.076 -0.1731028,0.173388 0,0.09739 0.075711,0.173102 0.1731028,0.173102 0.097393,-10e-7 0.1731017,-0.07571 0.1731017,-0.173102 0,-0.09739 -0.075866,-0.173388 -0.1731017,-0.173388 z m 0.7991295,0 c -0.097238,0 -0.1731017,0.076 -0.1731017,0.173388 0,0.09739 0.075711,0.173101 0.1731017,0.173102 0.097393,0 0.1731017,-0.07571 0.1731017,-0.173102 0,-0.09739 -0.075866,-0.173388 -0.1731017,-0.173388 z m 6.2319525,0.09199 c -0.115676,0.261253 -0.255266,0.509661 -0.416018,0.742335 -0.05487,0.07938 -0.144573,0.124748 -0.238908,0.124748 H 4.9669813 c -0.093993,0 -0.1845508,-0.0452 -0.239339,-0.12532 -0.1604356,-0.23222 -0.299767,-0.480071 -0.415301,-0.740905 0.131077,0.378759 0.3124497,0.733925 0.5361858,1.057638 0.02661,0.03891 0.071248,0.06151 0.1184542,0.06151 h 6.9990367 c 0.04721,0 0.09156,-0.0226 0.118453,-0.06151 0.22388,-0.323921 0.405377,-0.679463 0.536473,-1.058496 z"
     class="ColorScheme-Text" />
  <path
     id="gradient-path1"
     style="opacity:0.3;baseline-shift:baseline;display:inline;overflow:visible;vector-effect:none;enable-background:accumulate;stop-color:#000000;stop-opacity:1;fill:url(#linearGradient4)"
     d="M 8.4453131 1.2753492 C 4.4913166 1.2753492 1.2794833 4.4784283 1.2794833 8.4236094 C 1.2794833 12.36879 4.4913166 15.572386 8.4453131 15.572386 C 12.39931 15.572386 15.611143 12.36879 15.611143 8.4236094 C 15.611143 4.4784283 12.39931 1.2753492 8.4453131 1.2753492 z " />
</svg>
