<?xml version='1.0' encoding='UTF-8'?>
<svg xmlns:inkscape="http://www.inkscape.org/namespaces/inkscape" xmlns:sodipodi="http://sodipodi.sourceforge.net/DTD/sodipodi-0.dtd" xmlns="http://www.w3.org/2000/svg" xmlns:svg="http://www.w3.org/2000/svg" xmlns:rdf="http://www.w3.org/1999/02/22-rdf-syntax-ns#" xmlns:cc="http://creativecommons.org/ns#" xmlns:dc="http://purl.org/dc/elements/1.1/" width="64" height="64" version="1.1" viewBox="0 0 16.933 16.933" id="svg7" sodipodi:docname="nextcloud.svg" inkscape:version="1.4.2 (ebf0e940d0, 2025-05-08)">
  <sodipodi:namedview id="namedview7" pagecolor="#9c4444" bordercolor="#000000" borderopacity="0.25" inkscape:showpageshadow="2" inkscape:pageopacity="0.0" inkscape:pagecheckerboard="0" inkscape:deskcolor="#d1d1d1" inkscape:zoom="4.3531261" inkscape:cx="36.755195" inkscape:cy="26.188077" inkscape:window-width="2560" inkscape:window-height="1376" inkscape:window-x="0" inkscape:window-y="0" inkscape:window-maximized="1" inkscape:current-layer="svg7" showgrid="false"/>
  <defs id="defs2">
    <filter style="color-interpolation-filters:sRGB;" inkscape:label="Blur" id="filter3" x="-0.10843471" y="-0.10870992" width="1.2168694" height="1.2174198">
      <feGaussianBlur stdDeviation="0.5 0.5" result="blur" id="feGaussianBlur3"/>
    </filter>
    <style id="current-color-scheme" type="text/css">.ColorScheme-Text {color:#d8dee9} .ColorScheme-Highlight {color:#3b4252}</style>
    <linearGradient id="linearGradient3" inkscape:collect="always">
      <stop style="stop-color:#000000;stop-opacity:1;" offset="0" id="stop3"/>
      <stop style="stop-color:#000000;stop-opacity:0;" offset="1" id="stop4"/>
    </linearGradient>
    <linearGradient xmlns:xlink="http://www.w3.org/1999/xlink" inkscape:collect="always" xlink:href="#linearGradient3" id="linearGradient4" x1="13.512321" y1="13.490874" x2="3.3783066" y2="3.3568602" gradientUnits="userSpaceOnUse"/>
  </defs>
  <metadata id="metadata2">
    <rdf:RDF>
      <cc:Work rdf:about="">
        <dc:format>image/svg+xml</dc:format>
        <dc:type rdf:resource="http://purl.org/dc/dcmitype/StillImage"/>
      </cc:Work>
    </rdf:RDF>
  </metadata>
  <ellipse style="opacity:1;fill:none;stroke:#000000;stroke-width:0.582072;stroke-dasharray:none;stroke-opacity:1;filter:url(#filter3)" id="path1-5" cx="8.4450111" cy="8.423522" rx="6.8752708" ry="6.8578653"/>
  <ellipse style="opacity:1;fill:none;stroke-width:0.58207188;stroke-opacity:1;stroke:currentColor;stroke-dasharray:none;fill-opacity:1" id="path1" cx="8.4450111" cy="8.423522" rx="6.8752708" ry="6.8578653" class="ColorScheme-Text"/>
  <ellipse style="fill:currentColor;stroke:none;stroke-width:0.285844;stroke-dasharray:none;stroke-opacity:1" id="path1-2" cx="8.4557552" cy="8.423522" rx="6.5738997" ry="6.5692253" class="ColorScheme-Highlight"/>
<path d="m 8.472412,7.211606 c -0.813546,0 -1.502821,0.5521747 -1.715389,1.3000632 C 6.572126,8.1147072 6.17139,7.8354753 5.707764,7.8354753 c -0.636698,0 -1.160195,0.5234969 -1.160195,1.1599443 0,0.6366989 0.523497,1.1606984 1.160195,1.1606984 0.463626,0 0.864362,-0.279483 1.049259,-0.6766965 0.212568,0.7478885 0.901843,1.3000625 1.715389,1.3000625 0.808262,0 1.494016,-0.544879 1.711364,-1.2852205 0.188167,0.388912 0.58362,0.6618545 1.041459,0.6618545 0.636699,0 1.160196,-0.5239995 1.160196,-1.1606984 0,-0.6364474 -0.523497,-1.1599443 -1.160196,-1.1599443 -0.457839,0 -0.853292,0.2726913 -1.041459,0.6613519 C 9.966428,7.7564854 9.280674,7.211606 8.472412,7.211606 Z m 0,0.6809736 c 0.613303,0 1.103594,0.4897877 1.103594,1.10284 0,0.6133038 -0.490291,1.1035944 -1.103594,1.1035944 -0.613305,0 -1.103092,-0.4902906 -1.103092,-1.1035944 0,-0.6130523 0.489787,-1.10284 1.103092,-1.10284 z M 5.707764,8.5164489 c 0.268667,0 0.478971,0.2103043 0.478971,0.4789707 0,0.2689179 -0.210304,0.4797253 -0.478971,0.4797253 -0.268665,0 -0.479221,-0.2108074 -0.479221,-0.4794738 0,-0.2689179 0.210556,-0.4792222 0.479221,-0.4792222 z m 5.517471,0 c 0.268667,0 0.478971,0.2103043 0.478971,0.4789707 0,0.2689179 -0.210304,0.4797253 -0.478971,0.4797253 -0.268666,0 -0.479474,-0.2108074 -0.479474,-0.4797253 0,-0.2686664 0.210808,-0.4789707 0.479474,-0.4789707 z" fill="url(#b)" fill-rule="nonzero" id="path5" style="opacity:0.3;fill:#000000;fill-opacity:1;stroke-width:0.25156"/>
  <path d="m 8.472412,6.6825606 c -0.813546,0 -1.502821,0.5521747 -1.715389,1.3000632 C 6.572126,7.5856618 6.17139,7.3064299 5.707764,7.3064299 c -0.636698,0 -1.160195,0.5234969 -1.160195,1.1599443 0,0.6366989 0.523497,1.1606988 1.160195,1.1606988 0.463626,0 0.864362,-0.2794834 1.049259,-0.6766969 0.212568,0.7478885 0.901843,1.3000629 1.715389,1.3000629 0.808262,0 1.494016,-0.5448792 1.711364,-1.2852209 0.188167,0.388912 0.58362,0.6618549 1.041459,0.6618549 0.636699,0 1.160196,-0.5239999 1.160196,-1.1606988 0,-0.6364474 -0.523497,-1.1599443 -1.160196,-1.1599443 -0.457839,0 -0.853292,0.2726913 -1.041459,0.6613519 C 9.966428,7.22744 9.280674,6.6825606 8.472412,6.6825606 Z m 0,0.6809736 c 0.613303,0 1.103594,0.4897877 1.103594,1.10284 0,0.6133038 -0.490291,1.1035947 -1.103594,1.1035947 -0.613305,0 -1.103092,-0.4902909 -1.103092,-1.1035947 0,-0.6130523 0.489787,-1.10284 1.103092,-1.10284 z M 5.707764,7.9874035 c 0.268667,0 0.478971,0.2103043 0.478971,0.4789707 0,0.2689179 -0.210304,0.4797253 -0.478971,0.4797253 -0.268665,0 -0.479221,-0.2108074 -0.479221,-0.4794738 0,-0.2689179 0.210556,-0.4792222 0.479221,-0.4792222 z m 5.517471,0 c 0.268667,0 0.478971,0.2103043 0.478971,0.4789707 0,0.2689179 -0.210304,0.4797253 -0.478971,0.4797253 -0.268666,0 -0.479474,-0.2108074 -0.479474,-0.4797253 0,-0.2686664 0.210808,-0.4789707 0.479474,-0.4789707 z" fill="url(#b)" fill-rule="nonzero" id="path5-9" style="fill:currentColor;fill-opacity:1;stroke-width:0.25156" class="ColorScheme-Text"/>
<path id="gradient-path1" style="opacity:0.3;baseline-shift:baseline;display:inline;overflow:visible;vector-effect:none;enable-background:accumulate;stop-color:#000000;stop-opacity:1;fill:url(#linearGradient4)" d="M 8.4453131 1.2753492 C 4.4913166 1.2753492 1.2794833 4.4784283 1.2794833 8.4236094 C 1.2794833 12.36879 4.4913166 15.572386 8.4453131 15.572386 C 12.39931 15.572386 15.611143 12.36879 15.611143 8.4236094 C 15.611143 4.4784283 12.39931 1.2753492 8.4453131 1.2753492 z "/>
</svg>
