<?xml version="1.0" encoding="UTF-8" standalone="no"?>
<svg
   width="64"
   height="64"
   version="1.1"
   viewBox="0 0 16.933 16.933"
   id="svg7"
   sodipodi:docname="nicotine-plus.svg"
   inkscape:version="1.4.2 (ebf0e940d0, 2025-05-08)"
   xmlns:inkscape="http://www.inkscape.org/namespaces/inkscape"
   xmlns:sodipodi="http://sodipodi.sourceforge.net/DTD/sodipodi-0.dtd"
   xmlns:xlink="http://www.w3.org/1999/xlink"
   xmlns="http://www.w3.org/2000/svg"
   xmlns:svg="http://www.w3.org/2000/svg"
   xmlns:rdf="http://www.w3.org/1999/02/22-rdf-syntax-ns#"
   xmlns:cc="http://creativecommons.org/ns#"
   xmlns:dc="http://purl.org/dc/elements/1.1/">
  <sodipodi:namedview
     id="namedview7"
     pagecolor="#9c4444"
     bordercolor="#000000"
     borderopacity="0.25"
     inkscape:showpageshadow="2"
     inkscape:pageopacity="0.0"
     inkscape:pagecheckerboard="0"
     inkscape:deskcolor="#d1d1d1"
     inkscape:zoom="8.7062522"
     inkscape:cx="72.534081"
     inkscape:cy="15.276378"
     inkscape:window-width="2560"
     inkscape:window-height="1388"
     inkscape:window-x="0"
     inkscape:window-y="0"
     inkscape:window-maximized="1"
     inkscape:current-layer="svg7"
     showgrid="false" />
  <defs
     id="defs2">
    <filter
       style="color-interpolation-filters:sRGB;"
       inkscape:label="Blur"
       id="filter3"
       x="-0.10843471"
       y="-0.10870992"
       width="1.2168694"
       height="1.2174198">
      <feGaussianBlur
         stdDeviation="0.5 0.5"
         result="blur"
         id="feGaussianBlur3" />
    </filter>
    <style
       id="current-color-scheme"
       type="text/css">.ColorScheme-Text {color:#d8dee9} .ColorScheme-Highlight {color:#3b4252}</style>
    <linearGradient
       id="linearGradient3"
       inkscape:collect="always">
      <stop
         style="stop-color:#000000;stop-opacity:1;"
         offset="0"
         id="stop3" />
      <stop
         style="stop-color:#000000;stop-opacity:0;"
         offset="1"
         id="stop4" />
    </linearGradient>
    <linearGradient
       inkscape:collect="always"
       xlink:href="#linearGradient3"
       id="linearGradient4"
       x1="13.512321"
       y1="13.490874"
       x2="3.3783066"
       y2="3.3568602"
       gradientUnits="userSpaceOnUse" />
  </defs>
  <metadata
     id="metadata2">
    <rdf:RDF>
      <cc:Work
         rdf:about="">
        <dc:format>image/svg+xml</dc:format>
        <dc:type
           rdf:resource="http://purl.org/dc/dcmitype/StillImage" />
      </cc:Work>
    </rdf:RDF>
  </metadata>
  <ellipse
     style="opacity:1;fill:none;stroke:#000000;stroke-width:0.582072;stroke-dasharray:none;stroke-opacity:1;filter:url(#filter3)"
     id="path1-5"
     cx="8.4450111"
     cy="8.423522"
     rx="6.8752708"
     ry="6.8578653" />
  <ellipse
     style="opacity:1;fill:none;stroke-width:0.58207188;stroke-opacity:1;stroke:currentColor;stroke-dasharray:none;fill-opacity:1"
     id="path1"
     cx="8.4450111"
     cy="8.423522"
     rx="6.8752708"
     ry="6.8578653"
     class="ColorScheme-Text" />
  <ellipse
     style="fill:currentColor;stroke:none;stroke-width:0.285844;stroke-dasharray:none;stroke-opacity:1"
     id="path1-2"
     cx="8.4557552"
     cy="8.423522"
     rx="6.5738997"
     ry="6.5692253"
     class="ColorScheme-Highlight" />
  <path
     id="path5"
     style="opacity:0.3;fill:#000000;fill-opacity:1;stroke-width:0.141715"
     d="m 5.689317,5.0269844 c -0.659382,0 -1.190221,0.5309101 -1.190221,1.1905028 v 5.5563378 c 0,0.659592 0.530839,1.190503 1.190221,1.190503 h 5.554366 c 0.659382,0 1.190221,-0.530911 1.190221,-1.190503 V 6.2174872 c 0,-0.6595927 -0.530839,-1.1905028 -1.190221,-1.1905028 z m -0.07467,1.2189623 h 1.316174 c 0.121204,0 0.318597,-0.00175 0.43788,0.018597 0.69634,0.1188977 1.215096,0.7950127 1.303777,1.5218714 0.01469,0.1204922 0.01324,0.3177513 0.01324,0.4392885 V 9.9856755 H 9.56345 V 9.1056895 A 0.21937127,0.21997689 0 0 1 9.782671,8.8856226 h 0.658228 a 0.21937127,0.21997689 0 0 1 0.219222,0.2200669 v 0.879986 h 0.658229 a 0.21937127,0.21997689 0 0 1 0.21922,0.2197855 v 0.440133 a 0.21937127,0.21997689 0 0 1 -0.21922,0.219786 h -0.658229 v 0.659919 a 0.21937127,0.21997689 0 0 1 -0.219222,0.220067 H 9.782671 A 0.21937127,0.21997689 0 0 1 9.563449,11.525299 V 10.86538 H 8.685717 v 0.659919 A 0.21937127,0.21997689 0 0 1 8.466495,11.745366 H 7.808267 A 0.21937127,0.21997689 0 0 1 7.589046,11.525299 V 8.2257037 c 0,-0.1215371 0.0044,-0.3200957 -0.02198,-0.4384432 C 7.516286,7.5584845 7.376776,7.418621 7.148629,7.3676962 7.030609,7.3413542 6.832798,7.3459992 6.711596,7.3459992 H 6.492091 v 4.1792988 a 0.21937127,0.21997689 0 0 1 -0.21922,0.220067 H 5.614642 A 0.21937127,0.21997689 0 0 1 5.39514,11.525299 V 6.4660136 A 0.21937127,0.21997689 0 0 1 5.614642,6.2459467 Z" />
  <path
     id="path5-6"
     style="fill:currentColor;fill-opacity:1;stroke-width:0.141715"
     d="m 5.689317,4.497828 c -0.659382,0 -1.190221,0.5309101 -1.190221,1.1905028 v 5.5563382 c 0,0.659592 0.530839,1.190503 1.190221,1.190503 h 5.554366 c 0.659382,0 1.190221,-0.530911 1.190221,-1.190503 V 5.6883308 c 0,-0.6595927 -0.530839,-1.1905028 -1.190221,-1.1905028 z m -0.07467,1.2189623 h 1.316174 c 0.121204,0 0.318597,-0.00175 0.43788,0.018597 0.69634,0.1188977 1.215096,0.7950127 1.303777,1.5218714 0.01469,0.1204922 0.01324,0.3177513 0.01324,0.4392885 v 1.759972 H 9.56345 v -0.879986 a 0.21937127,0.21997689 0 0 1 0.219221,-0.220067 h 0.658228 a 0.21937127,0.21997689 0 0 1 0.219222,0.220067 v 0.879986 h 0.658229 a 0.21937127,0.21997689 0 0 1 0.21922,0.219785 v 0.4401338 a 0.21937127,0.21997689 0 0 1 -0.21922,0.219786 h -0.658229 v 0.659919 A 0.21937127,0.21997689 0 0 1 10.440899,11.21621 H 9.782671 A 0.21937127,0.21997689 0 0 1 9.563449,10.996143 V 10.336224 H 8.685717 v 0.659919 A 0.21937127,0.21997689 0 0 1 8.466495,11.21621 H 7.808267 A 0.21937127,0.21997689 0 0 1 7.589046,10.996143 V 7.6965473 c 0,-0.1215371 0.0044,-0.3200957 -0.02198,-0.4384432 C 7.516286,7.0293281 7.376776,6.8894646 7.148629,6.8385398 7.030609,6.8121978 6.832798,6.8168428 6.711596,6.8168428 H 6.492091 v 4.1792992 a 0.21937127,0.21997689 0 0 1 -0.21922,0.220067 H 5.614642 A 0.21937127,0.21997689 0 0 1 5.39514,10.996143 V 5.9368572 A 0.21937127,0.21997689 0 0 1 5.614642,5.7167903 Z"
     class="ColorScheme-Text" />
  <path
     id="gradient-path1"
     style="opacity:0.3;baseline-shift:baseline;display:inline;overflow:visible;vector-effect:none;enable-background:accumulate;stop-color:#000000;stop-opacity:1;fill:url(#linearGradient4)"
     d="M 8.4453131 1.2753492 C 4.4913166 1.2753492 1.2794833 4.4784283 1.2794833 8.4236094 C 1.2794833 12.36879 4.4913166 15.572386 8.4453131 15.572386 C 12.39931 15.572386 15.611143 12.36879 15.611143 8.4236094 C 15.611143 4.4784283 12.39931 1.2753492 8.4453131 1.2753492 z " />
</svg>
