<?xml version='1.0' encoding='UTF-8'?>
<svg xmlns:inkscape="http://www.inkscape.org/namespaces/inkscape" xmlns:sodipodi="http://sodipodi.sourceforge.net/DTD/sodipodi-0.dtd" xmlns="http://www.w3.org/2000/svg" xmlns:svg="http://www.w3.org/2000/svg" xmlns:rdf="http://www.w3.org/1999/02/22-rdf-syntax-ns#" xmlns:cc="http://creativecommons.org/ns#" xmlns:dc="http://purl.org/dc/elements/1.1/" width="64" height="64" version="1.1" viewBox="0 0 16.933 16.933" id="svg7" sodipodi:docname="nitrogen.svg" inkscape:version="1.4.2 (ebf0e940d0, 2025-05-08)">
  <sodipodi:namedview id="namedview7" pagecolor="#9c4444" bordercolor="#000000" borderopacity="0.25" inkscape:showpageshadow="2" inkscape:pageopacity="0.0" inkscape:pagecheckerboard="0" inkscape:deskcolor="#d1d1d1" inkscape:zoom="4.3531261" inkscape:cx="36.755195" inkscape:cy="26.188077" inkscape:window-width="2560" inkscape:window-height="1376" inkscape:window-x="0" inkscape:window-y="0" inkscape:window-maximized="1" inkscape:current-layer="svg7" showgrid="false"/>
  <defs id="defs2">
    <filter style="color-interpolation-filters:sRGB;" inkscape:label="Blur" id="filter3" x="-0.10843471" y="-0.10870992" width="1.2168694" height="1.2174198">
      <feGaussianBlur stdDeviation="0.5 0.5" result="blur" id="feGaussianBlur3"/>
    </filter>
    <style id="current-color-scheme" type="text/css">.ColorScheme-Text {color:#d8dee9} .ColorScheme-Highlight {color:#3b4252}</style>
  <linearGradient id="linearGradient3" inkscape:collect="always">
      <stop style="stop-color:#000000;stop-opacity:1;" offset="0" id="stop3"/>
      <stop style="stop-color:#000000;stop-opacity:0;" offset="1" id="stop4"/>
    </linearGradient>
    <linearGradient xmlns:xlink="http://www.w3.org/1999/xlink" inkscape:collect="always" xlink:href="#linearGradient3" id="linearGradient4" x1="13.512321" y1="13.490874" x2="3.3783066" y2="3.3568602" gradientUnits="userSpaceOnUse"/>
  </defs>
  <metadata id="metadata2">
    <rdf:RDF>
      <cc:Work rdf:about="">
        <dc:format>image/svg+xml</dc:format>
        <dc:type rdf:resource="http://purl.org/dc/dcmitype/StillImage"/>
      </cc:Work>
    </rdf:RDF>
  </metadata>
  <ellipse style="opacity:1;fill:none;stroke:#000000;stroke-width:0.582072;stroke-dasharray:none;stroke-opacity:1;filter:url(#filter3)" id="path1-5" cx="8.4450111" cy="8.423522" rx="6.8752708" ry="6.8578653"/>
  <ellipse style="opacity:1;fill:none;stroke-width:0.58207188;stroke-opacity:1;stroke:currentColor;stroke-dasharray:none;fill-opacity:1" id="path1" cx="8.4450111" cy="8.423522" rx="6.8752708" ry="6.8578653" class="ColorScheme-Text"/>
  <ellipse style="fill:currentColor;stroke:none;stroke-width:0.285844;stroke-dasharray:none;stroke-opacity:1" id="path1-2" cx="8.4557552" cy="8.423522" rx="6.5738997" ry="6.5692253" class="ColorScheme-Highlight"/>
<path fill-rule="evenodd" d="m 9.333074,11.103551 c 0.238076,0.08915 0.496725,0.136183 0.766151,0.136183 0.01815,0 0.03625,-4.9e-4 0.05388,-0.002 v 0 c -0.08572,0.247876 -0.228762,0.473704 -0.41785,0.662792 -0.333109,0.33311 -0.793583,0.524158 -1.268754,0.524158 -0.475171,0 -0.935644,-0.191048 -1.268753,-0.524158 -0.177818,-0.177821 -0.314985,-0.388463 -0.400222,-0.620171 0.01185,9.8e-4 0.02401,0.0015 0.03625,0.0015 0.288532,0 0.564817,-0.05389 0.816608,-0.156757 0.2513,0.102871 0.527585,0.156757 0.816117,0.156757 0.308127,0 0.601556,-0.06123 0.866574,-0.17831 z M 7.040008,10.782199 c -0.0676,0.0074 -0.136178,0.01128 -0.204763,0.01128 -0.05388,0 -0.107775,-0.0024 -0.161173,-0.0054 -0.003,-0.0534 -0.0054,-0.107282 -0.0054,-0.161166 v 0 c 0,-0.06858 0.0039,-0.137163 0.01129,-0.204764 0.106795,0.132754 0.227298,0.253261 0.36005,0.360052 z M 6.337051,8.1790488 C 6.234178,7.9277475 6.180294,7.6514627 6.180294,7.3629315 v 0 c 0,-0.012239 4.89e-4,-0.024494 0.0015,-0.036251 C 5.950086,7.4119185 5.739445,7.5490799 5.561623,7.7269013 5.228514,8.0600106 5.037465,8.520485 5.037465,8.9956554 v 0 c 0,0.4751703 0.191049,0.9356448 0.524158,1.2687536 0.177818,0.177822 0.388463,0.314984 0.620171,0.400221 -9.81e-4,-0.01176 -0.0015,-0.024 -0.0015,-0.03625 v 0 c 0,-0.288531 0.05388,-0.564816 0.157248,-0.8156273 C 6.234173,9.5609613 6.180294,9.2846767 6.180294,8.9956555 v 0 c 0,-0.2885314 0.05388,-0.564816 0.156766,-0.8166074 z m 3.915991,-0.6098836 c 0.0074,-0.067602 0.01129,-0.1361833 0.01129,-0.2047642 0,-0.067602 -0.0039,-0.1342226 -0.01037,-0.2008452 v 0 c -0.05194,-0.00244 -0.103851,-0.00491 -0.156267,-0.00491 -0.08426,0 -0.168023,0.00587 -0.249832,0.020085 0.15186,0.1111993 0.287062,0.2434636 0.405119,0.3904236 z M 9.940509,10.743989 c 0.05242,0.0029 0.104832,0.0054 0.157248,0.0054 0.05438,0 0.108757,-0.0024 0.162636,-0.0054 v 0 c 0.0024,-0.0387 0.0039,-0.07789 0.0039,-0.117078 0,-0.06858 -0.0039,-0.137162 -0.01129,-0.204764 -0.09406,0.116589 -0.198885,0.224359 -0.312534,0.321843 z M 7.040008,7.2091135 c -0.0676,-0.00735 -0.136178,-0.011276 -0.204763,-0.011276 -0.05388,0 -0.107775,0.00244 -0.161173,0.00539 -0.003,0.053395 -0.0054,0.1072815 -0.0054,0.1611657 v 0 c 0,0.068581 0.0039,0.1371628 0.01129,0.2047642 C 6.786757,7.436403 6.90726,7.3158965 7.040012,7.2091056 Z m 3.555941,0.9699353 c 0.10287,-0.2513013 0.156767,-0.5275861 0.156767,-0.8161173 0,-0.026452 -4.91e-4,-0.052416 -0.003,-0.078378 v 0 c 0.232197,0.083767 0.443329,0.21995 0.62164,0.3982613 0.333109,0.3380078 0.524157,0.7935837 0.524157,1.2687539 0,0.4800691 -0.191048,0.9356448 -0.524157,1.2736523 -0.177818,0.174882 -0.387975,0.311065 -0.619192,0.395812 v 0 c -9.79e-4,-0.286082 -0.05438,-0.559917 -0.156748,-0.808769 0.103369,-0.2517914 0.157248,-0.5280759 0.157248,-0.8166072 0,-0.2885315 -0.05388,-0.564816 -0.156767,-0.8166074 z M 9.234121,6.8456325 c 0.264037,-0.1170777 0.557468,-0.1778217 0.865104,-0.1778217 0.0063,0 0.01278,0 0.01861,4.899e-4 v 0 C 10.033093,6.4532495 9.902298,6.2577928 9.735254,6.0907484 9.402145,5.7576393 8.941671,5.5665914 8.4665,5.5665914 c -0.475171,0 -0.935644,0.1910479 -1.268753,0.524157 -0.177818,0.1778218 -0.314985,0.3884642 -0.400222,0.6201709 0.01185,-9.797e-4 0.02401,-0.00147 0.03625,-0.00147 0.288532,0 0.564326,0.053886 0.815628,0.1572479 C 7.901195,6.7633354 8.177479,6.7094493 8.4665,6.7094493 c 0.269917,0 0.529055,0.047028 0.767621,0.1361832 z m 1.449515,4.3142535 c 0.979733,-0.255221 1.701795,-1.146777 1.701795,-2.2063585 0,-1.0654593 -0.730881,-1.9619147 -1.71943,-2.2097873 v 0 C 10.397063,5.7821326 9.513344,5.0767251 8.4665,5.0767251 c -1.06252,0 -1.956526,0.7264718 -2.208317,1.7106133 C 5.27404,7.0391297 4.547569,7.9331359 4.547569,8.9956562 v 0 c 0,1.0625198 0.726471,1.9565258 1.710614,2.2083178 0.251791,0.984141 1.145797,1.710613 2.208317,1.710613 1.078195,0 1.98249,-0.747536 2.217136,-1.754701 z M 6.644687,9.010842 c 0,-1.0135335 0.823466,-1.836999 1.836999,-1.836999 1.014024,0 1.836999,0.8234655 1.836999,1.836999 0,1.014023 -0.822975,1.836999 -1.836999,1.836999 -1.013533,0 -1.836999,-0.822976 -1.836999,-1.836999 z" id="path24" style="opacity:0.3;fill:#000000;fill-opacity:1;stroke-width:0.489866"/>
  <path fill="currentColor" class="ColorScheme-Text" fill-rule="evenodd" d="m 9.333074,10.574395 c 0.238076,0.08916 0.496725,0.136183 0.766151,0.136183 0.01815,0 0.03625,-4.9e-4 0.05388,-0.002 v 0 c -0.08572,0.247876 -0.228762,0.473704 -0.41785,0.662792 -0.333109,0.333111 -0.793583,0.524159 -1.268754,0.524159 -0.475171,0 -0.935644,-0.191048 -1.268753,-0.524159 -0.177818,-0.177821 -0.314985,-0.388463 -0.400222,-0.620171 0.01185,9.8e-4 0.02401,0.0015 0.03625,0.0015 0.288532,0 0.564817,-0.05389 0.816608,-0.156757 0.2513,0.102871 0.527585,0.156757 0.816117,0.156757 0.308127,0 0.601556,-0.06123 0.866574,-0.17831 z M 7.040008,10.253043 c -0.0676,0.0074 -0.136178,0.01128 -0.204763,0.01128 -0.05388,0 -0.107775,-0.0024 -0.161173,-0.0054 -0.003,-0.05339 -0.0054,-0.107282 -0.0054,-0.161166 v 0 c 0,-0.06858 0.0039,-0.1371625 0.01129,-0.2047635 0.106795,0.1327535 0.227298,0.2532605 0.36005,0.3600515 z M 6.337051,7.6498925 C 6.234178,7.3985905 6.180294,7.1223065 6.180294,6.8337745 v 0 c 0,-0.01224 4.89e-4,-0.02449 0.0015,-0.03625 -0.231708,0.08524 -0.442349,0.2224 -0.620171,0.400221 -0.333109,0.33311 -0.524158,0.793584 -0.524158,1.268754 v 0 c 0,0.475171 0.191049,0.935645 0.524158,1.268754 0.177818,0.177822 0.388463,0.3149845 0.620171,0.4002215 -9.81e-4,-0.01176 -0.0015,-0.024 -0.0015,-0.03625 v 0 c 0,-0.2885315 0.05388,-0.5648165 0.157248,-0.8156275 C 6.234173,9.0318055 6.180294,8.7555215 6.180294,8.4664995 v 0 c 0,-0.288531 0.05388,-0.564816 0.156766,-0.816607 z m 3.915991,-0.609884 c 0.0074,-0.0676 0.01129,-0.136183 0.01129,-0.204764 0,-0.0676 -0.0039,-0.134223 -0.01037,-0.200845 v 0 c -0.05194,-0.0024 -0.103851,-0.0049 -0.156267,-0.0049 -0.08426,0 -0.168023,0.0059 -0.249832,0.02008 0.15186,0.111199 0.287062,0.243463 0.405119,0.390423 z M 9.940509,10.214833 c 0.05242,0.0029 0.104832,0.0054 0.157248,0.0054 0.05438,0 0.108757,-0.0024 0.162636,-0.0054 v 0 c 0.0024,-0.0387 0.0039,-0.07789 0.0039,-0.117077 0,-0.06858 -0.0039,-0.1371635 -0.01129,-0.2047655 C 10.158943,10.00958 10.054118,10.11735 9.940469,10.214834 Z M 7.040008,6.6799565 c -0.0676,-0.0073 -0.136178,-0.01128 -0.204763,-0.01128 -0.05388,0 -0.107775,0.0024 -0.161173,0.0054 -0.003,0.05339 -0.0054,0.107282 -0.0054,0.161166 v 0 c 0,0.06858 0.0039,0.137163 0.01129,0.204764 0.106795,-0.132754 0.227298,-0.253261 0.36005,-0.360051 z m 3.555941,0.969936 c 0.10287,-0.251302 0.156767,-0.527586 0.156767,-0.816118 0,-0.02645 -4.91e-4,-0.05242 -0.003,-0.07838 v 0 c 0.232197,0.08377 0.443329,0.21995 0.62164,0.398262 0.333109,0.338008 0.524157,0.793583 0.524157,1.268754 0,0.480069 -0.191048,0.935644 -0.524157,1.273652 -0.177818,0.174882 -0.387975,0.3110655 -0.619192,0.3958125 v 0 c -9.79e-4,-0.2860825 -0.05438,-0.5599175 -0.156748,-0.8087695 0.103369,-0.251791 0.157248,-0.528076 0.157248,-0.816607 0,-0.288532 -0.05388,-0.564816 -0.156767,-0.816608 z M 9.234121,6.3164755 c 0.264037,-0.117077 0.557468,-0.177821 0.865104,-0.177821 0.0063,0 0.01278,0 0.01861,4.9e-4 v 0 C 10.033095,5.9240925 9.902298,5.7286365 9.735254,5.5615915 9.402145,5.2284825 8.941671,5.0374345 8.4665,5.0374345 c -0.475171,0 -0.935644,0.191048 -1.268753,0.524157 -0.177818,0.177822 -0.314985,0.388465 -0.400222,0.620171 0.01185,-9.79e-4 0.02401,-0.0015 0.03625,-0.0015 0.288532,0 0.564326,0.05389 0.815628,0.157248 0.251792,-0.103362 0.528076,-0.157248 0.817097,-0.157248 0.269917,0 0.529055,0.04703 0.767621,0.136183 z m 1.449515,4.3142545 c 0.979733,-0.255221 1.701795,-1.1467775 1.701795,-2.2063595 0,-1.065459 -0.730881,-1.961914 -1.71943,-2.209787 v 0 C 10.397063,5.2529765 9.513344,4.5475685 8.4665,4.5475685 c -1.06252,0 -1.956526,0.726472 -2.208317,1.710613 -0.984143,0.251792 -1.710614,1.145798 -1.710614,2.208318 v 0 c 0,1.06252 0.726471,1.9565265 1.710614,2.2083175 0.251791,0.984142 1.145797,1.710614 2.208317,1.710614 1.078195,0 1.98249,-0.747536 2.217136,-1.754701 z M 6.644687,8.4816855 c 0,-1.013534 0.823466,-1.836999 1.836999,-1.836999 1.014024,0 1.836999,0.823465 1.836999,1.836999 0,1.014023 -0.822975,1.8369995 -1.836999,1.8369995 -1.013533,0 -1.836999,-0.8229765 -1.836999,-1.8369995 z" id="path24-2" style="stroke-width:0.489866"/>
<path id="gradient-path1" style="opacity:0.3;baseline-shift:baseline;display:inline;overflow:visible;vector-effect:none;enable-background:accumulate;stop-color:#000000;stop-opacity:1;fill:url(#linearGradient4)" d="M 8.4453131 1.2753492 C 4.4913166 1.2753492 1.2794833 4.4784283 1.2794833 8.4236094 C 1.2794833 12.36879 4.4913166 15.572386 8.4453131 15.572386 C 12.39931 15.572386 15.611143 12.36879 15.611143 8.4236094 C 15.611143 4.4784283 12.39931 1.2753492 8.4453131 1.2753492 z "/>
</svg>
