<?xml version="1.0" encoding="UTF-8" standalone="no"?>
<svg
   width="64"
   height="64"
   version="1.1"
   viewBox="0 0 16.933 16.933"
   id="svg7"
   sodipodi:docname="NoMachine.svg"
   inkscape:version="1.4.3 (0d15f75042, 2025-12-25)"
   xmlns:inkscape="http://www.inkscape.org/namespaces/inkscape"
   xmlns:sodipodi="http://sodipodi.sourceforge.net/DTD/sodipodi-0.dtd"
   xmlns:xlink="http://www.w3.org/1999/xlink"
   xmlns="http://www.w3.org/2000/svg"
   xmlns:svg="http://www.w3.org/2000/svg"
   xmlns:rdf="http://www.w3.org/1999/02/22-rdf-syntax-ns#"
   xmlns:cc="http://creativecommons.org/ns#"
   xmlns:dc="http://purl.org/dc/elements/1.1/">
  <sodipodi:namedview
     id="namedview7"
     pagecolor="#9c4444"
     bordercolor="#000000"
     borderopacity="0.25"
     inkscape:showpageshadow="2"
     inkscape:pageopacity="0.0"
     inkscape:pagecheckerboard="0"
     inkscape:deskcolor="#d1d1d1"
     inkscape:zoom="8.7062522"
     inkscape:cx="85.168679"
     inkscape:cy="11.715719"
     inkscape:window-width="2560"
     inkscape:window-height="1388"
     inkscape:window-x="0"
     inkscape:window-y="0"
     inkscape:window-maximized="1"
     inkscape:current-layer="svg7"
     showgrid="false" />
  <defs
     id="defs2">
    <filter
       style="color-interpolation-filters:sRGB;"
       inkscape:label="Blur"
       id="filter3"
       x="-0.10843471"
       y="-0.10870992"
       width="1.2168694"
       height="1.2174198">
      <feGaussianBlur
         stdDeviation="0.5 0.5"
         result="blur"
         id="feGaussianBlur3" />
    </filter>
    <style
       id="current-color-scheme"
       type="text/css">.ColorScheme-Text {color:#d8dee9} .ColorScheme-Highlight {color:#3b4252}</style>
    <linearGradient
       id="linearGradient3"
       inkscape:collect="always">
      <stop
         style="stop-color:#000000;stop-opacity:1;"
         offset="0"
         id="stop3" />
      <stop
         style="stop-color:#000000;stop-opacity:0;"
         offset="1"
         id="stop4" />
    </linearGradient>
    <linearGradient
       inkscape:collect="always"
       xlink:href="#linearGradient3"
       id="linearGradient4"
       x1="13.512321"
       y1="13.490874"
       x2="3.3783066"
       y2="3.3568602"
       gradientUnits="userSpaceOnUse" />
  </defs>
  <metadata
     id="metadata2">
    <rdf:RDF>
      <cc:Work
         rdf:about="">
        <dc:format>image/svg+xml</dc:format>
        <dc:type
           rdf:resource="http://purl.org/dc/dcmitype/StillImage" />
      </cc:Work>
    </rdf:RDF>
  </metadata>
  <ellipse
     style="opacity:1;fill:none;stroke:#000000;stroke-width:0.582072;stroke-dasharray:none;stroke-opacity:1;filter:url(#filter3)"
     id="path1-5"
     cx="8.4450111"
     cy="8.423522"
     rx="6.8752708"
     ry="6.8578653" />
  <ellipse
     style="opacity:1;fill:none;stroke-width:0.58207188;stroke-opacity:1;stroke:currentColor;stroke-dasharray:none;fill-opacity:1"
     id="path1"
     cx="8.4450111"
     cy="8.423522"
     rx="6.8752708"
     ry="6.8578653"
     class="ColorScheme-Text" />
  <ellipse
     style="fill:currentColor;stroke:none;stroke-width:0.285844;stroke-dasharray:none;stroke-opacity:1"
     id="path1-2"
     cx="8.4557552"
     cy="8.423522"
     rx="6.5738997"
     ry="6.5692253"
     class="ColorScheme-Highlight" />
  <path
     id="path5-6"
     style="opacity:0.3;fill:#000000;fill-opacity:1;stroke-width:0.566038"
     d="m 5.689032,5.0269844 c -0.164845,0 -0.321613,0.0332 -0.464085,0.09327 -0.142536,0.0601 -0.270574,0.147084 -0.378143,0.254725 -0.02683,0.02685 -0.05248,0.05493 -0.07664,0.08425 v 2.81e-4 c -0.02416,0.02932 -0.04717,0.05971 -0.06847,0.0913 v 2.8e-4 c -0.02129,0.03159 -0.04122,0.06411 -0.05945,0.09778 v 2.81e-4 c -0.01823,0.03367 -0.0349,0.06842 -0.04988,0.103976 v 2.82e-4 c -0.01497,0.03555 -0.02848,0.07181 -0.04001,0.109048 v 2.809e-4 c -0.02307,0.07457 -0.03897,0.152318 -0.04706,0.232465 v 2.89e-4 c -0.004,0.04002 -0.0062,0.08087 -0.0062,0.122002 v 0.141733 5.4146057 c 0,0.659592 0.530839,1.190502 1.190222,1.190502 h 5.55437 c 0.659382,0 1.19022,-0.53091 1.19022,-1.190502 V 6.3592273 6.2174943 c 0,-0.04113 -0.0022,-0.08198 -0.0062,-0.122009 v -2.88e-4 c -0.0081,-0.08014 -0.02399,-0.1578929 -0.04706,-0.232459 v -2.809e-4 c -0.01153,-0.03724 -0.02504,-0.0735 -0.04001,-0.109048 v -2.81e-4 c -0.01498,-0.03555 -0.03165,-0.07031 -0.04987,-0.103976 v -2.82e-4 c -0.01824,-0.03367 -0.03816,-0.06618 -0.05945,-0.09778 v -2.81e-4 c -0.0213,-0.03159 -0.04432,-0.06198 -0.06847,-0.0913 v -2.81e-4 c -0.02416,-0.02932 -0.04981,-0.0574 -0.07664,-0.08425 -0.107568,-0.107641 -0.235607,-0.19463 -0.378143,-0.254725 h -2.89e-4 c -0.07116,-0.03001 -0.145917,-0.05323 -0.223441,-0.06903 h -2.88e-4 c -0.03872,-0.0079 -0.07805,-0.01398 -0.118064,-0.01803 h -2.89e-4 c -0.04002,-0.004 -0.08061,-0.0062 -0.121727,-0.0062 z M 5.292574,6.6860803 h 1.154153 v 2.885385 H 5.292574 Z m 1.731231,0 H 11.64042 V 11.302696 H 10.486266 V 8.4173115 H 9.909189 V 11.302696 H 8.755036 V 8.4173115 H 8.177958 V 11.302696 H 7.023805 Z M 5.292574,10.148542 h 1.154153 v 1.154154 H 5.292574 Z"
     class="ColorScheme-Text" />
  <path
     id="path5-6-5"
     style="fill:currentColor;stroke-width:0.566038"
     d="m 5.689032,4.4978246 c -0.164845,0 -0.321613,0.0332 -0.464085,0.09327 -0.142536,0.0601 -0.270574,0.147084 -0.378143,0.254725 -0.02683,0.02685 -0.05248,0.05493 -0.07664,0.08425 v 2.81e-4 c -0.02416,0.02932 -0.04717,0.05971 -0.06847,0.0913 v 2.8e-4 c -0.02129,0.03159 -0.04122,0.06411 -0.05945,0.09778 v 2.81e-4 c -0.01823,0.03367 -0.0349,0.06842 -0.04988,0.1039761 v 2.82e-4 c -0.01497,0.03555 -0.02848,0.07181 -0.04001,0.109048 v 2.81e-4 c -0.02307,0.07457 -0.03897,0.152318 -0.04706,0.232465 v 2.89e-4 c -0.004,0.04002 -0.0062,0.08087 -0.0062,0.122002 v 0.1417329 5.4146054 c 0,0.659592 0.530839,1.190502 1.190222,1.190502 h 5.55437 c 0.659382,0 1.19022,-0.53091 1.19022,-1.190502 V 5.8300676 5.6883347 c 0,-0.04113 -0.0022,-0.08198 -0.0062,-0.122009 v -2.88e-4 c -0.0081,-0.08014 -0.02399,-0.157893 -0.04706,-0.232459 v -2.81e-4 c -0.01153,-0.03724 -0.02504,-0.0735 -0.04001,-0.109048 v -2.81e-4 c -0.01498,-0.03555 -0.03165,-0.07031 -0.04987,-0.103976 v -2.821e-4 c -0.01824,-0.03367 -0.03816,-0.06618 -0.05945,-0.09778 v -2.81e-4 c -0.0213,-0.03159 -0.04432,-0.06198 -0.06847,-0.0913 v -2.81e-4 c -0.02416,-0.02932 -0.04981,-0.0574 -0.07664,-0.08425 -0.107568,-0.107641 -0.235607,-0.19463 -0.378143,-0.254725 h -2.89e-4 c -0.07116,-0.03001 -0.145917,-0.05323 -0.223441,-0.06903 h -2.88e-4 c -0.03872,-0.0079 -0.07805,-0.01398 -0.118064,-0.01803 h -2.89e-4 c -0.04002,-0.004 -0.08061,-0.0062 -0.121727,-0.0062 z M 5.292574,6.1569206 H 6.446727 V 9.0423055 H 5.292574 Z m 1.731231,0 H 11.64042 V 10.773536 H 10.486266 V 7.8881517 H 9.909189 V 10.773536 H 8.755036 V 7.8881517 H 8.177958 V 10.773536 H 7.023805 Z M 5.292574,9.6193824 H 6.446727 V 10.773536 H 5.292574 Z"
     class="ColorScheme-Text" />
  <path
     id="gradient-path1"
     style="opacity:0.3;baseline-shift:baseline;display:inline;overflow:visible;vector-effect:none;enable-background:accumulate;stop-color:#000000;stop-opacity:1;fill:url(#linearGradient4)"
     d="M 8.4453131 1.2753492 C 4.4913166 1.2753492 1.2794833 4.4784283 1.2794833 8.4236094 C 1.2794833 12.36879 4.4913166 15.572386 8.4453131 15.572386 C 12.39931 15.572386 15.611143 12.36879 15.611143 8.4236094 C 15.611143 4.4784283 12.39931 1.2753492 8.4453131 1.2753492 z " />
</svg>
