<?xml version='1.0' encoding='UTF-8'?>
<svg xmlns:inkscape="http://www.inkscape.org/namespaces/inkscape" xmlns:sodipodi="http://sodipodi.sourceforge.net/DTD/sodipodi-0.dtd" xmlns="http://www.w3.org/2000/svg" xmlns:svg="http://www.w3.org/2000/svg" xmlns:rdf="http://www.w3.org/1999/02/22-rdf-syntax-ns#" xmlns:cc="http://creativecommons.org/ns#" xmlns:dc="http://purl.org/dc/elements/1.1/" width="64" height="64" version="1.1" viewBox="0 0 16.933 16.933" id="svg7" sodipodi:docname="NotepadNext.svg" inkscape:version="1.4.2 (ebf0e940d0, 2025-05-08)">
  <sodipodi:namedview id="namedview7" pagecolor="#9c4444" bordercolor="#000000" borderopacity="0.25" inkscape:showpageshadow="2" inkscape:pageopacity="0.0" inkscape:pagecheckerboard="0" inkscape:deskcolor="#d1d1d1" inkscape:zoom="4.3531261" inkscape:cx="36.755195" inkscape:cy="26.073217" inkscape:window-width="1280" inkscape:window-height="669" inkscape:window-x="0" inkscape:window-y="0" inkscape:window-maximized="0" inkscape:current-layer="svg7" showgrid="false"/>
  <defs id="defs2">
    <filter style="color-interpolation-filters:sRGB;" inkscape:label="Blur" id="filter3" x="-0.10843471" y="-0.10870992" width="1.2168694" height="1.2174198">
      <feGaussianBlur stdDeviation="0.5 0.5" result="blur" id="feGaussianBlur3"/>
    </filter>
    <filter style="color-interpolation-filters:sRGB" inkscape:label="Blur" id="filter3-8" x="-0.10843471" y="-0.10870992" width="1.2168694" height="1.2174198">
      <feGaussianBlur stdDeviation="0.5 0.5" result="blur" id="feGaussianBlur3-7"/>
    </filter>
    <style id="current-color-scheme" type="text/css">.ColorScheme-Text {color:#d8dee9} .ColorScheme-Highlight {color:#3b4252}</style>
  <linearGradient id="linearGradient4" inkscape:collect="always">
      <stop style="stop-color:#000000;stop-opacity:1;" offset="0" id="stop4"/>
      <stop style="stop-color:#000000;stop-opacity:0;" offset="1" id="stop5"/>
    </linearGradient>
    <linearGradient xmlns:xlink="http://www.w3.org/1999/xlink" inkscape:collect="always" xlink:href="#linearGradient4" id="linearGradient5" x1="14.157616" y1="14.109557" x2="3.4890218" y2="3.440964" gradientUnits="userSpaceOnUse"/>
  </defs>
  <metadata id="metadata2">
    <rdf:RDF>
      <cc:Work rdf:about="">
        <dc:format>image/svg+xml</dc:format>
        <dc:type rdf:resource="http://purl.org/dc/dcmitype/StillImage"/>
      </cc:Work>
    </rdf:RDF>
  </metadata>
  <ellipse style="opacity:1;fill:none;stroke:#000000;stroke-width:0.582072;stroke-dasharray:none;stroke-opacity:1;filter:url(#filter3)" id="path1-5" cx="8.4450111" cy="8.423522" rx="6.8752708" ry="6.8578653"/>
  <ellipse style="opacity:1;fill:none;stroke-width:0.58207188;stroke-opacity:1;stroke:currentColor;stroke-dasharray:none;fill-opacity:1" id="path1" cx="8.4450111" cy="8.423522" rx="6.8752708" ry="6.8578653" class="ColorScheme-Text"/>
  <ellipse style="fill:currentColor;stroke:none;stroke-width:0.285728;stroke-dasharray:none;stroke-opacity:1" id="path1-2" cx="8.4450111" cy="8.423522" rx="6.5766377" ry="6.5612183" class="ColorScheme-Highlight"/>
  <path d="M 9.4338422,5.1811779 V 5.6894832 H 10.704606 V 5.1811779 Z m 1.7790688,0 v 0.5083053 h 2.033222 V 5.1811779 Z M 9.4338422,6.1977886 V 6.706094 H 10.958759 V 6.1977886 Z m 2.0332218,0 V 6.706094 h 1.270763 V 6.1977886 Z m 1.779069,0 V 6.706094 h 0.508305 V 6.1977886 Z M 9.4338422,7.2143994 V 7.722705 H 10.1963 V 7.2143994 Z m 1.2707638,0 V 7.722705 h 1.016611 V 7.2143994 Z m 1.524916,0 V 7.722705 h 1.016611 V 7.2143994 Z M 9.4338422,8.2310102 V 8.7393155 H 10.704606 V 8.2310102 Z m 1.7790688,0 v 0.5083053 h 2.033222 V 8.2310102 Z m 2.541527,0 v 0.5083053 h 1.270763 V 8.2310102 Z M 9.4338422,9.2476209 V 9.7559263 H 10.704606 V 9.2476209 Z m 1.7790688,0 v 0.5083054 h 0.762458 V 9.2476209 Z m 1.270764,0 v 0.5083054 h 1.270763 V 9.2476209 Z M 9.4338422,10.264232 v 0.508306 h 1.0166108 v -0.508306 z m 1.5249168,0 v 0.508306 h 2.287374 v -0.508306 z m -1.5249168,1.01661 v 0.508306 h 2.0332218 v -0.508306 z m 2.5415268,0 v 0.508306 h 1.016611 v -0.508306 z m -2.5415268,1.016612 v 0.508305 h 1.2707638 v -0.508305 z m 1.7790688,0 v 0.508305 h 1.524916 v -0.508305 z" fill="#707070" id="path3-5-2" style="fill:#000000;fill-opacity:1;opacity:0.3;stroke-width:0.254153" transform="translate(-3.8469231,0.25033341)"/>
  <path d="M 9.4338422,5.1811779 V 5.6894832 H 10.704606 V 5.1811779 Z m 1.7790688,0 v 0.5083053 h 2.033222 V 5.1811779 Z M 9.4338422,6.1977886 V 6.706094 H 10.958759 V 6.1977886 Z m 2.0332218,0 V 6.706094 h 1.270763 V 6.1977886 Z m 1.779069,0 V 6.706094 h 0.508305 V 6.1977886 Z M 9.4338422,7.2143994 V 7.722705 H 10.1963 V 7.2143994 Z m 1.2707638,0 V 7.722705 h 1.016611 V 7.2143994 Z m 1.524916,0 V 7.722705 h 1.016611 V 7.2143994 Z M 9.4338422,8.2310102 V 8.7393155 H 10.704606 V 8.2310102 Z m 1.7790688,0 v 0.5083053 h 2.033222 V 8.2310102 Z m 2.541527,0 v 0.5083053 h 1.270763 V 8.2310102 Z M 9.4338422,9.2476209 V 9.7559263 H 10.704606 V 9.2476209 Z m 1.7790688,0 v 0.5083054 h 0.762458 V 9.2476209 Z m 1.270764,0 v 0.5083054 h 1.270763 V 9.2476209 Z M 9.4338422,10.264232 v 0.508306 h 1.0166108 v -0.508306 z m 1.5249168,0 v 0.508306 h 2.287374 v -0.508306 z m -1.5249168,1.01661 v 0.508306 h 2.0332218 v -0.508306 z m 2.5415268,0 v 0.508306 h 1.016611 v -0.508306 z m -2.5415268,1.016612 v 0.508305 h 1.2707638 v -0.508305 z m 1.7790688,0 v 0.508305 h 1.524916 v -0.508305 z" fill="#707070" id="path3-5" style="fill:currentColor;fill-opacity:1;stroke-width:0.254153" class="ColorScheme-Text" transform="translate(-3.8469231,-0.27882285)"/>
  <ellipse style="fill:none;stroke:#000000;stroke-width:0.582072;stroke-dasharray:none;stroke-opacity:1;filter:url(#filter3-8)" id="path1-5-7" cx="8.4450111" cy="8.423522" rx="6.8752708" ry="6.8578653" transform="matrix(0.4782969,0,0,0.4782969,8.9000071,8.8280171)"/>
  <ellipse style="fill:currentColor;fill-opacity:1;stroke:currentColor;stroke-width:0.278402;stroke-dasharray:none;stroke-opacity:1" id="path1-59" cx="12.939234" cy="12.856965" rx="3.2884204" ry="3.2800953" class="ColorScheme-Text"/>
  <ellipse style="fill:currentColor;stroke:none;stroke-width:0.246622;stroke-dasharray:none;stroke-opacity:1" id="path1-2-2" cx="12.939234" cy="12.856965" rx="2.9130225" ry="2.9056478" class="ColorScheme-Highlight"/>
  <path d="m 12.716446,13.068806 v -1.168802 c 0,-0.175269 0.142365,-0.317299 0.317636,-0.317299 0.17527,0 0.317299,0.14203 0.317299,0.317299 v 1.168802 h 1.169139 c 0.175268,0 0.317297,0.142365 0.317297,0.317636 0,0.17527 -0.142029,0.317299 -0.317297,0.317299 h -1.169139 v 1.169139 c 0,0.175268 -0.142029,0.317297 -0.317299,0.317297 -0.175271,0 -0.317636,-0.142029 -0.317636,-0.317297 v -1.169139 h -1.168802 c -0.175269,0 -0.317298,-0.142029 -0.317298,-0.317299 0,-0.175271 0.142029,-0.317636 0.317298,-0.317636 z" fill="#d8dee9" id="path5-9" style="fill:#000000;stroke-width:0.335765;opacity:0.3"/>
  <path d="m 12.716446,12.53965 v -1.168802 c 0,-0.175269 0.142365,-0.317299 0.317636,-0.317299 0.17527,0 0.317299,0.14203 0.317299,0.317299 v 1.168802 h 1.169139 c 0.175268,0 0.317297,0.142365 0.317297,0.317636 0,0.17527 -0.142029,0.317299 -0.317297,0.317299 h -1.169139 v 1.169139 c 0,0.175268 -0.142029,0.317297 -0.317299,0.317297 -0.175271,0 -0.317636,-0.142029 -0.317636,-0.317297 v -1.169139 h -1.168802 c -0.175269,0 -0.317298,-0.142029 -0.317298,-0.317299 0,-0.175271 0.142029,-0.317636 0.317298,-0.317636 z" fill="#d8dee9" id="path5" style="fill:currentColor;stroke-width:0.335765" class="ColorScheme-Text"/>
<path id="gradient-path1" style="opacity:0.3;baseline-shift:baseline;display:inline;overflow:visible;vector-effect:none;enable-background:accumulate;stop-color:#000000;stop-opacity:1;fill:url(#linearGradient5)" d="M 8.4453131 1.2753492 C 4.4913166 1.2753492 1.2794833 4.4784283 1.2794833 8.4236094 C 1.2794833 12.36879 4.4913166 15.572386 8.4453131 15.572386 C 9.1638027 15.572386 9.8576697 15.466358 10.51233 15.269568 C 11.133159 15.890536 11.991864 16.275172 12.939524 16.275172 C 14.830708 16.275172 16.367154 14.744327 16.367154 12.85736 C 16.367154 11.897867 15.969699 11.029882 15.330545 10.408462 C 15.513101 9.7781514 15.611143 9.1121932 15.611143 8.4236094 C 15.611143 4.4784283 12.39931 1.2753492 8.4453131 1.2753492 z "/>
</svg>
