<?xml version='1.0' encoding='UTF-8'?>
<svg xmlns:inkscape="http://www.inkscape.org/namespaces/inkscape" xmlns:sodipodi="http://sodipodi.sourceforge.net/DTD/sodipodi-0.dtd" xmlns:xlink="http://www.w3.org/1999/xlink" xmlns="http://www.w3.org/2000/svg" xmlns:svg="http://www.w3.org/2000/svg" xmlns:rdf="http://www.w3.org/1999/02/22-rdf-syntax-ns#" xmlns:cc="http://creativecommons.org/ns#" xmlns:dc="http://purl.org/dc/elements/1.1/" width="64" height="64" version="1.1" viewBox="0 0 16.933 16.933" id="svg7" sodipodi:docname="org.kde.akregator.svg" inkscape:version="1.4 (e7c3feb100, 2024-10-09)">
  <sodipodi:namedview id="namedview7" pagecolor="#9c4444" bordercolor="#000000" borderopacity="0.25" inkscape:showpageshadow="2" inkscape:pageopacity="0.0" inkscape:pagecheckerboard="0" inkscape:deskcolor="#d1d1d1" inkscape:zoom="4.3531261" inkscape:cx="36.066035" inkscape:cy="25.958357" inkscape:window-width="1280" inkscape:window-height="669" inkscape:window-x="28" inkscape:window-y="126" inkscape:window-maximized="0" inkscape:current-layer="svg7" showgrid="false"/>
  <defs id="defs2">
    <filter style="color-interpolation-filters:sRGB;" inkscape:label="Blur" id="filter3" x="-0.10843471" y="-0.10870992" width="1.2168694" height="1.2174198">
      <feGaussianBlur stdDeviation="0.5 0.5" result="blur" id="feGaussianBlur3"/>
    </filter>
    <style id="current-color-scheme" type="text/css">.ColorScheme-Text {color:#d8dee9} .ColorScheme-Highlight {color:#3b4252}</style><linearGradient id="linearGradient3" inkscape:collect="always">
      <stop style="stop-color:#000000;stop-opacity:1;" offset="0" id="stop3"/>
      <stop style="stop-color:#000000;stop-opacity:0;" offset="1" id="stop4"/>
    </linearGradient>
    <linearGradient inkscape:collect="always" xlink:href="#linearGradient3" id="linearGradient4" x1="13.512321" y1="13.490874" x2="3.3783066" y2="3.3568602" gradientUnits="userSpaceOnUse"/>
  </defs>
  <metadata id="metadata2">
    <rdf:RDF>
      <cc:Work rdf:about="">
        <dc:format>image/svg+xml</dc:format>
        <dc:type rdf:resource="http://purl.org/dc/dcmitype/StillImage"/>
      </cc:Work>
    </rdf:RDF>
  </metadata>
  <ellipse style="opacity:1;fill:none;stroke:#000000;stroke-width:0.582072;stroke-dasharray:none;stroke-opacity:1;filter:url(#filter3)" id="path1-5" cx="8.4450111" cy="8.423522" rx="6.8752708" ry="6.8578653"/>
  <ellipse style="opacity:1;fill:none;stroke-width:0.58207188;stroke-opacity:1;stroke:currentColor;stroke-dasharray:none;fill-opacity:1" id="path1" cx="8.4450111" cy="8.423522" rx="6.8752708" ry="6.8578653" class="ColorScheme-Text"/>
  <ellipse style="fill:currentColor;stroke:none;stroke-width:0.285844;stroke-dasharray:none;stroke-opacity:1" id="path1-2" cx="8.4557552" cy="8.423522" rx="6.5738997" ry="6.5692253" class="ColorScheme-Highlight"/>
<path style="fill:#000000;fill-opacity:1;stroke-width:0.0144476;opacity:0.3" d="M 8.2281139,12.939015 C 7.3143726,12.877723 6.4404041,12.481393 5.7918776,11.834223 5.2004611,11.244043 4.8374044,10.51143 4.7079223,9.646902 c -0.026201,-0.1749447 -0.026201,-0.8074932 0,-0.9824375 C 4.799435,8.0534505 4.9902199,7.5473878 5.3097845,7.0680024 5.6949354,6.4902307 6.1824915,6.0617703 6.7977999,5.7603458 7.180471,5.5728845 7.5118494,5.4694952 7.9391615,5.4042447 c 0.2873296,-0.043875 0.7673461,-0.043875 1.0546763,0 0.428292,0.065401 0.7666095,0.1708907 1.1413612,0.3558867 0.395504,0.1952406 0.703548,0.4154018 1.011241,0.7227424 0.588212,0.5875359 0.949261,1.3177762 1.078636,2.1815908 0.0262,0.1749443 0.0262,0.8074928 0,0.9824375 -0.08956,0.5979549 -0.283497,1.1167879 -0.592335,1.5846279 -0.527544,0.799146 -1.342265,1.375869 -2.2632651,1.602116 -0.3340441,0.08206 -0.8200265,0.126922 -1.141362,0.105369 z m -1.100681,-2.290364 c 0.068179,-0.03631 0.066732,-0.01741 0.067217,-0.8785279 L 7.1951269,8.9542498 7.762196,9.519542 c 0.4787714,0.4772709 0.5760673,0.56774 0.6248597,0.581019 0.071974,0.01959 0.087097,0.01958 0.1589237,-1.2e-4 0.048694,-0.01335 0.1470391,-0.1047716 0.6248592,-0.5808558 L 9.7379079,8.9545764 9.738385,9.7702869 c 3.443e-4,0.6184381 0.00478,0.8212541 0.018063,0.8386321 0.038888,0.05067 0.077557,0.05654 0.37173,0.05654 h 0.291013 l 0.04224,-0.04223 0.04225,-0.04223 V 9.155683 7.7303697 l -0.04225,-0.04223 -0.04224,-0.04223 -0.221438,2.864e-4 C 10.011807,7.646444 9.9670519,7.6508461 9.9185239,7.6736191 9.8798769,7.6917431 9.6334845,7.9284797 9.1745299,8.388458 8.7971184,8.7667117 8.4785225,9.0761925 8.4665406,9.0761925 c -0.011984,0 -0.3305775,-0.309255 -0.7079903,-0.6872338 C 7.3811349,8.0109781 7.0482218,7.6891573 7.0187403,7.6737996 6.9724403,7.6496806 6.9343966,7.6458766 6.739512,7.6458766 H 6.5138871 l -0.04223,0.04223 -0.04223,0.04223 v 1.4253146 1.4253118 l 0.04223,0.04223 0.04223,0.04223 h 0.2910136 c 0.1935329,0 0.3015838,-0.0055 0.3225707,-0.0168 z" id="path5-0"/>
  <path style="fill:currentColor;fill-opacity:1;stroke-width:0.0144476" d="M 8.2281139,12.409859 C 7.3143726,12.348567 6.4404041,11.952237 5.7918776,11.305067 5.2004611,10.714887 4.8374044,9.9822733 4.7079223,9.1177458 c -0.026201,-0.1749447 -0.026201,-0.8074932 0,-0.9824375 C 4.799435,7.5242943 4.9902199,7.0182316 5.3097845,6.5388462 5.6949354,5.9610745 6.1824915,5.5326141 6.7977999,5.2311896 7.180471,5.0437283 7.5118494,4.940339 7.9391615,4.8750885 c 0.2873296,-0.043875 0.7673461,-0.043875 1.0546763,0 0.428292,0.065401 0.7666095,0.1708907 1.1413612,0.3558867 0.395504,0.1952406 0.703548,0.4154018 1.011241,0.7227424 0.588212,0.5875359 0.949261,1.3177762 1.078636,2.1815907 0.0262,0.1749443 0.0262,0.8074928 0,0.9824375 -0.08956,0.5979549 -0.283497,1.1167882 -0.592335,1.5846282 -0.527544,0.799146 -1.342265,1.375869 -2.2632651,1.602116 -0.3340441,0.08206 -0.8200265,0.126922 -1.141362,0.105369 z m -1.100681,-2.290364 c 0.068179,-0.03631 0.066732,-0.01741 0.067217,-0.8785281 l 4.77e-4,-0.8158733 0.5670691,0.5652922 c 0.4787714,0.4772709 0.5760673,0.5677403 0.6248597,0.5810189 0.071974,0.019591 0.087097,0.019578 0.1589237,-1.198e-4 C 8.5946734,9.5579328 8.6930185,9.4665132 9.1708386,8.990429 L 9.7379079,8.4254202 9.738385,9.2411307 c 3.443e-4,0.6184381 0.00478,0.8212543 0.018063,0.8386323 0.038888,0.05067 0.077557,0.05654 0.37173,0.05654 h 0.291013 l 0.04224,-0.04223 0.04225,-0.04223 V 8.6265268 7.2012135 l -0.04225,-0.04223 -0.04224,-0.04223 -0.221438,2.864e-4 c -0.185946,2.479e-4 -0.2307011,0.00465 -0.2792291,0.027423 -0.038647,0.018124 -0.2850394,0.2548606 -0.743994,0.7148389 -0.3774115,0.3782537 -0.6960074,0.6877345 -0.7079893,0.6877345 -0.011984,0 -0.3305775,-0.309255 -0.7079903,-0.6872338 C 7.3811349,7.4818219 7.0482218,7.1600011 7.0187403,7.1446434 6.9724403,7.1205244 6.9343966,7.1167204 6.739512,7.1167204 H 6.5138871 l -0.04223,0.04223 -0.04223,0.04223 v 1.4253146 1.425312 l 0.04223,0.04223 0.04223,0.04223 h 0.2910136 c 0.1935329,0 0.3015838,-0.0055 0.3225707,-0.0168 z" id="path5" class="ColorScheme-Text"/>
<path id="gradient-path1" style="opacity:0.3;baseline-shift:baseline;display:inline;overflow:visible;vector-effect:none;enable-background:accumulate;stop-color:#000000;stop-opacity:1;fill:url(#linearGradient4)" d="M 8.4453131 1.2753492 C 4.4913166 1.2753492 1.2794833 4.4784283 1.2794833 8.4236094 C 1.2794833 12.36879 4.4913166 15.572386 8.4453131 15.572386 C 12.39931 15.572386 15.611143 12.36879 15.611143 8.4236094 C 15.611143 4.4784283 12.39931 1.2753492 8.4453131 1.2753492 z "/>
</svg>
