<?xml version='1.0' encoding='UTF-8'?>
<svg xmlns:inkscape="http://www.inkscape.org/namespaces/inkscape" xmlns:sodipodi="http://sodipodi.sourceforge.net/DTD/sodipodi-0.dtd" xmlns="http://www.w3.org/2000/svg" xmlns:svg="http://www.w3.org/2000/svg" xmlns:rdf="http://www.w3.org/1999/02/22-rdf-syntax-ns#" xmlns:cc="http://creativecommons.org/ns#" xmlns:dc="http://purl.org/dc/elements/1.1/" width="64" height="64" version="1.1" viewBox="0 0 16.933 16.933" id="svg7" sodipodi:docname="obsidian.svg" inkscape:version="1.4.2 (ebf0e940d0, 2025-05-08)">
  <sodipodi:namedview id="namedview7" pagecolor="#9c4444" bordercolor="#000000" borderopacity="0.25" inkscape:showpageshadow="2" inkscape:pageopacity="0.0" inkscape:pagecheckerboard="0" inkscape:deskcolor="#d1d1d1" inkscape:zoom="4.3531261" inkscape:cx="112.56279" inkscape:cy="27.566396" inkscape:window-width="2560" inkscape:window-height="1376" inkscape:window-x="0" inkscape:window-y="0" inkscape:window-maximized="1" inkscape:current-layer="svg7" showgrid="false"/>
  <defs id="defs2">
    <inkscape:path-effect effect="offset" id="path-effect8" is_visible="true" lpeversion="1.3" linejoin_type="miter" unit="px" offset="0" miter_limit="4" attempt_force_join="false" update_on_knot_move="true"/>
    <filter style="color-interpolation-filters:sRGB;" inkscape:label="Blur" id="filter3" x="-0.10843471" y="-0.10870992" width="1.2168694" height="1.2174198">
      <feGaussianBlur stdDeviation="0.5 0.5" result="blur" id="feGaussianBlur3"/>
    </filter>
    <style id="current-color-scheme" type="text/css">.ColorScheme-Text {color:#d8dee9} .ColorScheme-Highlight {color:#3b4252}</style>
    <inkscape:path-effect effect="offset" id="path-effect8-1" is_visible="true" lpeversion="1.3" linejoin_type="miter" unit="px" offset="0" miter_limit="4" attempt_force_join="false" update_on_knot_move="true"/>
  <linearGradient id="linearGradient3" inkscape:collect="always">
      <stop style="stop-color:#000000;stop-opacity:1;" offset="0" id="stop3"/>
      <stop style="stop-color:#000000;stop-opacity:0;" offset="1" id="stop4"/>
    </linearGradient>
    <linearGradient xmlns:xlink="http://www.w3.org/1999/xlink" inkscape:collect="always" xlink:href="#linearGradient3" id="linearGradient4" x1="13.512321" y1="13.490874" x2="3.3783066" y2="3.3568602" gradientUnits="userSpaceOnUse"/>
  </defs>
  <metadata id="metadata2">
    <rdf:RDF>
      <cc:Work rdf:about="">
        <dc:format>image/svg+xml</dc:format>
        <dc:type rdf:resource="http://purl.org/dc/dcmitype/StillImage"/>
      </cc:Work>
    </rdf:RDF>
  </metadata>
  <ellipse style="opacity:1;fill:none;stroke:#000000;stroke-width:0.582072;stroke-dasharray:none;stroke-opacity:1;filter:url(#filter3)" id="path1-5" cx="8.4450111" cy="8.423522" rx="6.8752708" ry="6.8578653"/>
  <ellipse style="opacity:1;fill:none;stroke-width:0.58207188;stroke-opacity:1;stroke:currentColor;stroke-dasharray:none;fill-opacity:1" id="path1" cx="8.4450111" cy="8.423522" rx="6.8752708" ry="6.8578653" class="ColorScheme-Text"/>
  <ellipse style="fill:currentColor;stroke:none;stroke-width:0.285844;stroke-dasharray:none;stroke-opacity:1" id="path1-2" cx="8.4557552" cy="8.423522" rx="6.5738997" ry="6.5692253" class="ColorScheme-Highlight"/>
<path d="m 10.868746,11.131117 a 22.526479,22.523867 0 0 0 0.606872,-0.964856 0.26456781,0.26456781 0 0 0 -0.02025,-0.2939644 C 11.286828,9.6485572 10.96412,9.1945458 10.788395,8.7741769 10.607771,8.3427027 10.580661,7.671811 10.579353,7.3445308 A 0.55755216,0.55755216 0 0 0 10.46242,7.0015726 L 9.4178676,5.6741607 a 1.2228912,1.2228912 0 0 1 -0.02483,0.1773586 c -0.03463,0.1642933 -0.10028,0.3279333 -0.175073,0.4899402 -0.04376,0.094722 -0.09472,0.1959762 -0.145675,0.298537 L 8.9710336,6.844465 c -0.16854,0.3488376 -0.325648,0.7273982 -0.369742,1.1725907 -0.0405,0.4115499 0.01502,0.8916915 0.266201,1.4636152 0.04181,0.00359 0.08395,0.00817 0.126079,0.014372 a 2.0783271,2.0783271 0 0 1 1.0863604,0.4915735 c 0.299196,0.2580356 0.569643,0.6277776 0.78881,1.1431946 z M 7.2248946,12.44775 c 0.02384,0.0039 0.04769,0.0065 0.07186,0.0065 0.254769,0.0078 0.684283,0.03005 1.032141,0.09472 0.284165,0.05226 0.846943,0.209041 1.309774,0.344591 0.353736,0.103215 0.7179264,-0.178991 0.7692074,-0.543507 0.03723,-0.265874 0.107786,-0.566697 0.236804,-0.842697 l -0.0032,0.0016 c -0.218908,-0.610725 -0.497195,-1.005291 -0.7891994,-1.25712 a 1.7294895,1.7294895 0 0 0 -0.90737,-0.4105699 c -0.503005,-0.070551 -0.964202,0.062059 -1.254247,0.1469821 0.173766,0.7244588 0.120193,1.5772818 -0.465443,2.4598278 z M 6.3541076,8.3221252 c -0.0075,0.032663 -0.0183,0.064346 -0.03201,0.094722 l -0.854129,1.9045618 a 0.52325633,0.52325633 0 0 0 0.10223,0.578783 l 1.344401,1.384898 c 0.686897,-1.01287 0.586622,-1.966294 0.27306,-2.7110037 C 6.9498746,9.0090217 6.5892786,8.5677487 6.3547606,8.3227785 Z m 1.236936,1.3300249 c 0.200876,-0.059773 0.524563,-0.1518815 0.896591,-0.1744188 -0.223086,-0.5634314 -0.276979,-1.0559848 -0.233865,-1.4949714 0.05029,-0.5069251 0.228639,-0.9299069 0.403384,-1.2901764 0.03691,-0.076757 0.07284,-0.1482887 0.107132,-0.2168803 0.04866,-0.097009 0.09407,-0.1884636 0.136856,-0.2808991 0.07087,-0.1535147 0.123792,-0.2890649 0.150249,-0.4148163 0.02613,-0.1241181 0.02613,-0.2351713 -0.0046,-0.3406717 -0.03102,-0.1061539 -0.09701,-0.2204733 -0.222106,-0.3462246 a 0.52260307,0.52260307 0 0 0 -0.481775,0.1175856 l -1.616804,1.454143 a 0.52325633,0.52325633 0 0 0 -0.167559,0.3109488 l -0.13947,0.9243542 c 0.219493,0.1927099 0.760388,0.756468 1.089301,1.5387395 0.02939,0.068592 0.05716,0.1404496 0.08264,0.2132874 z" fill="#000000" stroke-width="0.326627" id="path1-7" style="opacity:0.3"/>
  <path d="m 10.868746,10.601977 a 22.526479,22.523867 0 0 0 0.606872,-0.9648563 0.26456781,0.26456781 0 0 0 -0.02025,-0.293964 C 11.286828,9.1194173 10.96412,8.6654059 10.788395,8.245037 10.607771,7.8135629 10.580661,7.1426711 10.579353,6.8153909 A 0.55755216,0.55755216 0 0 0 10.46242,6.4724327 L 9.4178677,5.1450208 a 1.2228912,1.2228912 0 0 1 -0.02483,0.1773586 c -0.03463,0.1642933 -0.10028,0.3279333 -0.175073,0.4899402 -0.04376,0.094722 -0.09472,0.1959762 -0.145675,0.298537 l -0.101256,0.2044685 c -0.16854,0.3488376 -0.325648,0.7273982 -0.369742,1.1725907 -0.0405,0.4115499 0.01502,0.8916915 0.266201,1.4636152 0.04181,0.00359 0.08395,0.00817 0.126079,0.014372 a 2.0783271,2.0783271 0 0 1 1.0863603,0.4915735 c 0.299196,0.2580352 0.569643,0.6277775 0.78881,1.1431945 z M 7.2248947,11.91861 c 0.02384,0.0039 0.04769,0.0065 0.07186,0.0065 0.254769,0.0078 0.684283,0.03005 1.032141,0.09472 0.284165,0.05226 0.846943,0.209041 1.309774,0.344592 0.353736,0.103214 0.7179263,-0.178992 0.7692073,-0.543508 0.03723,-0.265874 0.107786,-0.566697 0.236804,-0.842697 l -0.0032,0.0016 C 10.422573,10.369092 10.144286,9.9745267 9.8522817,9.7226977 a 1.7294895,1.7294895 0 0 0 -0.90737,-0.4105705 c -0.503005,-0.070551 -0.964202,0.062059 -1.254247,0.1469821 0.173766,0.7244587 0.120193,1.5772817 -0.465443,2.4598277 z M 6.3541077,7.7929854 c -0.0075,0.032663 -0.0183,0.064345 -0.03201,0.094722 l -0.854129,1.9045613 a 0.52325633,0.52325633 0 0 0 0.10223,0.5787833 l 1.344401,1.384898 C 7.6014967,10.74308 7.5012217,9.7896557 7.1876597,9.0449465 6.9498747,8.4798818 6.5892787,8.0386088 6.3547607,7.7936386 Z m 1.236936,1.3300248 C 7.7919197,9.0632372 8.1156067,8.9711287 8.4876347,8.9485914 8.2645487,8.38516 8.2106557,7.8926066 8.2537697,7.45362 c 0.05029,-0.5069251 0.228639,-0.9299069 0.403384,-1.2901764 0.03691,-0.076757 0.07284,-0.1482887 0.107132,-0.2168803 0.04866,-0.097009 0.09407,-0.1884636 0.136856,-0.2808991 0.07087,-0.1535147 0.123792,-0.2890649 0.150249,-0.4148163 0.02613,-0.1241181 0.02613,-0.2351713 -0.0046,-0.3406717 -0.03102,-0.1061539 -0.09701,-0.2204733 -0.222106,-0.3462246 a 0.52260307,0.52260307 0 0 0 -0.481775,0.1175856 l -1.616804,1.454143 A 0.52325633,0.52325633 0 0 0 6.5585467,6.446629 l -0.13947,0.9243542 c 0.219493,0.1927099 0.760388,0.756468 1.089301,1.5387395 0.02939,0.068592 0.05716,0.1404496 0.08264,0.2132874 z" fill="#000000" stroke-width="0.326627" id="path1-7-4" style="fill:currentColor;fill-opacity:1;stroke:none;stroke-opacity:0" class="ColorScheme-Text"/>
<path id="gradient-path1" style="opacity:0.3;baseline-shift:baseline;display:inline;overflow:visible;vector-effect:none;enable-background:accumulate;stop-color:#000000;stop-opacity:1;fill:url(#linearGradient4)" d="M 8.4453131 1.2753492 C 4.4913166 1.2753492 1.2794833 4.4784283 1.2794833 8.4236094 C 1.2794833 12.36879 4.4913166 15.572386 8.4453131 15.572386 C 12.39931 15.572386 15.611143 12.36879 15.611143 8.4236094 C 15.611143 4.4784283 12.39931 1.2753492 8.4453131 1.2753492 z "/>
</svg>
