<?xml version="1.0" encoding="UTF-8" standalone="no"?>
<svg
   width="64"
   height="64"
   version="1.1"
   viewBox="0 0 16.933 16.933"
   id="svg7"
   sodipodi:docname="octopi.svg"
   inkscape:version="1.4.2 (ebf0e940d0, 2025-05-08)"
   xmlns:inkscape="http://www.inkscape.org/namespaces/inkscape"
   xmlns:sodipodi="http://sodipodi.sourceforge.net/DTD/sodipodi-0.dtd"
   xmlns:xlink="http://www.w3.org/1999/xlink"
   xmlns="http://www.w3.org/2000/svg"
   xmlns:svg="http://www.w3.org/2000/svg"
   xmlns:rdf="http://www.w3.org/1999/02/22-rdf-syntax-ns#"
   xmlns:cc="http://creativecommons.org/ns#"
   xmlns:dc="http://purl.org/dc/elements/1.1/">
  <sodipodi:namedview
     id="namedview7"
     pagecolor="#9c4444"
     bordercolor="#000000"
     borderopacity="0.25"
     inkscape:showpageshadow="2"
     inkscape:pageopacity="0.0"
     inkscape:pagecheckerboard="0"
     inkscape:deskcolor="#d1d1d1"
     inkscape:zoom="8.7062522"
     inkscape:cx="72.304361"
     inkscape:cy="15.276378"
     inkscape:window-width="2560"
     inkscape:window-height="1392"
     inkscape:window-x="0"
     inkscape:window-y="0"
     inkscape:window-maximized="1"
     inkscape:current-layer="svg7"
     showgrid="false" />
  <defs
     id="defs2">
    <filter
       style="color-interpolation-filters:sRGB;"
       inkscape:label="Blur"
       id="filter3"
       x="-0.10843471"
       y="-0.10870992"
       width="1.2168694"
       height="1.2174198">
      <feGaussianBlur
         stdDeviation="0.5 0.5"
         result="blur"
         id="feGaussianBlur3" />
    </filter>
    <style
       id="current-color-scheme"
       type="text/css">.ColorScheme-Text {color:#d8dee9} .ColorScheme-Highlight {color:#3b4252}</style>
    <linearGradient
       id="linearGradient3"
       inkscape:collect="always">
      <stop
         style="stop-color:#000000;stop-opacity:1;"
         offset="0"
         id="stop3" />
      <stop
         style="stop-color:#000000;stop-opacity:0;"
         offset="1"
         id="stop4" />
    </linearGradient>
    <linearGradient
       inkscape:collect="always"
       xlink:href="#linearGradient3"
       id="linearGradient4"
       x1="13.512321"
       y1="13.490874"
       x2="3.3783066"
       y2="3.3568602"
       gradientUnits="userSpaceOnUse" />
  </defs>
  <metadata
     id="metadata2">
    <rdf:RDF>
      <cc:Work
         rdf:about="">
        <dc:format>image/svg+xml</dc:format>
        <dc:type
           rdf:resource="http://purl.org/dc/dcmitype/StillImage" />
      </cc:Work>
    </rdf:RDF>
  </metadata>
  <ellipse
     style="opacity:1;fill:none;stroke:#000000;stroke-width:0.582072;stroke-dasharray:none;stroke-opacity:1;filter:url(#filter3)"
     id="path1-5"
     cx="8.4450111"
     cy="8.423522"
     rx="6.8752708"
     ry="6.8578653" />
  <ellipse
     style="opacity:1;fill:none;stroke-width:0.58207188;stroke-opacity:1;stroke:currentColor;stroke-dasharray:none;fill-opacity:1"
     id="path1"
     cx="8.4450111"
     cy="8.423522"
     rx="6.8752708"
     ry="6.8578653"
     class="ColorScheme-Text" />
  <ellipse
     style="fill:currentColor;stroke:none;stroke-width:0.285844;stroke-dasharray:none;stroke-opacity:1"
     id="path1-2"
     cx="8.4557552"
     cy="8.423522"
     rx="6.5738997"
     ry="6.5692253"
     class="ColorScheme-Highlight" />
  <path
     id="path5-6"
     style="opacity:0.3;fill:#000000;fill-opacity:1;stroke-width:0.132286"
     d="m 7.999688,5.0269844 c -1.493964,0 -2.696916,1.2726813 -2.70697,2.8573419 h -0.0011 v 4.5507157 c 0,0.439728 0.449347,0.524464 0.79372,0.529147 0.317917,0.0043 0.793721,-0.08943 0.793721,-0.529147 0,0.439728 0.475752,0.529147 0.793721,0.529147 0.317969,0 0.78311,-0.160691 0.79372,-0.529147 0,0.439728 0.475751,0.529147 0.793721,0.529147 0.317969,0 0.78311,-0.160691 0.79372,-0.529147 0,0.439728 0.475751,0.529147 0.793721,0.529147 0.317969,0 0.79372,-0.08943 0.79372,-0.529147 V 7.8843263 h -0.0011 C 11.630232,6.2996657 10.427116,5.0269844 8.933312,5.0269844 Z M 7.408273,7.1435722 c 0.429627,0 0.77642,0.3381085 0.79217,0.7637494 C 8.185663,7.7749487 8.073866,7.6727192 7.93742,7.6727192 c -0.146576,0 -0.264573,0.1179976 -0.264573,0.2645735 0,0.146576 0.117997,0.2645735 0.264573,0.2645735 0.136433,0 0.248221,-0.1022491 0.263023,-0.2346024 -0.01581,0.4255806 -0.362586,0.7637494 -0.79217,0.7637494 -0.439728,0 -0.793721,-0.3539927 -0.793721,-0.7937205 0,-0.4397277 0.353993,-0.7937205 0.793721,-0.7937205 z m 2.910309,0 c 0.437492,0 0.790147,0.3503845 0.79372,0.7870028 -0.0036,-0.143435 -0.120252,-0.2578558 -0.264573,-0.2578558 -0.146577,0 -0.264574,0.1179976 -0.264574,0.2645735 0,0.146576 0.117997,0.2645735 0.264574,0.2645735 0.144306,0 0.260997,-0.1144412 0.264573,-0.2578558 -0.0036,0.436557 -0.356272,0.7870028 -0.79372,0.7870028 -0.439728,0 -0.793721,-0.3539927 -0.793721,-0.7937205 0,-0.4397277 0.353993,-0.7937205 0.793721,-0.7937205 z" />
  <path
     id="path5-6-5"
     style="fill:currentColor;stroke-width:0.132286"
     d="m 7.999688,4.497828 c -1.493964,0 -2.696916,1.2726813 -2.70697,2.8573419 h -0.0011 v 4.5507161 c 0,0.439727 0.449347,0.524464 0.79372,0.529147 0.317917,0.0043 0.793721,-0.08943 0.793721,-0.529147 0,0.439727 0.475752,0.529147 0.793721,0.529147 0.317969,0 0.78311,-0.160691 0.79372,-0.529147 0,0.439727 0.475751,0.529147 0.793721,0.529147 0.317969,0 0.78311,-0.160691 0.79372,-0.529147 0,0.439727 0.475751,0.529147 0.793721,0.529147 0.317969,0 0.79372,-0.08943 0.79372,-0.529147 V 7.3551699 h -0.0011 C 11.630232,5.7705093 10.427116,4.497828 8.933312,4.497828 Z M 7.408273,6.6144158 c 0.429627,0 0.77642,0.3381085 0.79217,0.7637494 C 8.185663,7.2457923 8.073866,7.1435628 7.93742,7.1435628 c -0.146576,0 -0.264573,0.1179976 -0.264573,0.2645735 0,0.146576 0.117997,0.2645735 0.264573,0.2645735 0.136433,0 0.248221,-0.1022491 0.263023,-0.2346024 -0.01581,0.4255806 -0.362586,0.7637494 -0.79217,0.7637494 -0.439728,0 -0.793721,-0.3539927 -0.793721,-0.7937205 0,-0.4397277 0.353993,-0.7937205 0.793721,-0.7937205 z m 2.910309,0 c 0.437492,0 0.790147,0.3503845 0.79372,0.7870028 -0.0036,-0.143435 -0.120252,-0.2578558 -0.264573,-0.2578558 -0.146577,0 -0.264574,0.1179976 -0.264574,0.2645735 0,0.146576 0.117997,0.2645735 0.264574,0.2645735 0.144306,0 0.260997,-0.1144412 0.264573,-0.2578558 -0.0036,0.436557 -0.356272,0.7870028 -0.79372,0.7870028 -0.439728,0 -0.793721,-0.3539927 -0.793721,-0.7937205 0,-0.4397277 0.353993,-0.7937205 0.793721,-0.7937205 z"
     class="ColorScheme-Text" />
  <path
     id="gradient-path1"
     style="opacity:0.3;baseline-shift:baseline;display:inline;overflow:visible;vector-effect:none;enable-background:accumulate;stop-color:#000000;stop-opacity:1;fill:url(#linearGradient4)"
     d="M 8.4453131 1.2753492 C 4.4913166 1.2753492 1.2794833 4.4784283 1.2794833 8.4236094 C 1.2794833 12.36879 4.4913166 15.572386 8.4453131 15.572386 C 12.39931 15.572386 15.611143 12.36879 15.611143 8.4236094 C 15.611143 4.4784283 12.39931 1.2753492 8.4453131 1.2753492 z " />
</svg>
