<?xml version='1.0' encoding='UTF-8'?>
<svg xmlns:inkscape="http://www.inkscape.org/namespaces/inkscape" xmlns:sodipodi="http://sodipodi.sourceforge.net/DTD/sodipodi-0.dtd" xmlns="http://www.w3.org/2000/svg" xmlns:svg="http://www.w3.org/2000/svg" xmlns:rdf="http://www.w3.org/1999/02/22-rdf-syntax-ns#" xmlns:cc="http://creativecommons.org/ns#" xmlns:dc="http://purl.org/dc/elements/1.1/" width="64" height="64" version="1.1" viewBox="0 0 16.933 16.933" id="svg7" sodipodi:docname="officenx-planmaker.svg" inkscape:version="1.4.2 (ebf0e940d0, 2025-05-08)">
  <sodipodi:namedview id="namedview7" pagecolor="#9c4444" bordercolor="#000000" borderopacity="0.25" inkscape:showpageshadow="2" inkscape:pageopacity="0.0" inkscape:pagecheckerboard="0" inkscape:deskcolor="#d1d1d1" inkscape:zoom="4.3531261" inkscape:cx="36.984915" inkscape:cy="26.073217" inkscape:window-width="1280" inkscape:window-height="669" inkscape:window-x="0" inkscape:window-y="0" inkscape:window-maximized="0" inkscape:current-layer="svg7" showgrid="false"/>
  <defs id="defs2">
    <filter style="color-interpolation-filters:sRGB;" inkscape:label="Blur" id="filter3" x="-0.10843471" y="-0.10870992" width="1.2168694" height="1.2174198">
      <feGaussianBlur stdDeviation="0.5 0.5" result="blur" id="feGaussianBlur3"/>
    </filter>
    <style id="current-color-scheme" type="text/css">.ColorScheme-Text {color:#d8dee9} .ColorScheme-Highlight {color:#3b4252}</style>
  <linearGradient id="linearGradient3" inkscape:collect="always">
      <stop style="stop-color:#000000;stop-opacity:1;" offset="0" id="stop3"/>
      <stop style="stop-color:#000000;stop-opacity:0;" offset="1" id="stop4"/>
    </linearGradient>
    <linearGradient xmlns:xlink="http://www.w3.org/1999/xlink" inkscape:collect="always" xlink:href="#linearGradient3" id="linearGradient4" x1="13.512321" y1="13.490874" x2="3.3783066" y2="3.3568602" gradientUnits="userSpaceOnUse"/>
  </defs>
  <metadata id="metadata2">
    <rdf:RDF>
      <cc:Work rdf:about="">
        <dc:format>image/svg+xml</dc:format>
        <dc:type rdf:resource="http://purl.org/dc/dcmitype/StillImage"/>
      </cc:Work>
    </rdf:RDF>
  </metadata>
  <ellipse style="opacity:1;fill:none;stroke:#000000;stroke-width:0.582072;stroke-dasharray:none;stroke-opacity:1;filter:url(#filter3)" id="path1-5" cx="8.4450111" cy="8.423522" rx="6.8752708" ry="6.8578653"/>
  <ellipse style="opacity:1;fill:none;stroke-width:0.58207188;stroke-opacity:1;stroke:currentColor;stroke-dasharray:none;fill-opacity:1" id="path1" cx="8.4450111" cy="8.423522" rx="6.8752708" ry="6.8578653" class="ColorScheme-Text"/>
  <ellipse style="fill:currentColor;stroke:none;stroke-width:0.285844;stroke-dasharray:none;stroke-opacity:1" id="path1-2" cx="8.4557552" cy="8.423522" rx="6.5738997" ry="6.5692253" class="ColorScheme-Highlight"/>
<path id="path2-3-1" style="fill:#000000;fill-opacity:1;opacity:1" d="M 6.0017231 5.9981899 L 6.0017231 48.000488 L 9.9986028 48.000488 L 9.9986028 9.9991944 L 54.001403 9.9991944 L 54.001403 54.001994 L 16.00011 54.001994 L 16.00011 57.998874 L 57.998283 57.998874 L 57.998283 5.9981899 L 6.0017231 5.9981899 z M 29.030185 14.998388 C 27.494752 14.998388 25.807516 15.062726 23.964996 15.192251 C 22.156598 15.289393 20.500114 15.499528 18.998801 15.823337 L 18.998801 19.251002 L 18.998801 48.998676 L 25.449905 48.998676 L 27.00081 48.998676 L 27.00081 37.115281 L 28.675457 37.115281 C 31.268632 37.115281 33.571284 36.905147 35.584408 36.484194 C 37.59753 36.063242 39.300142 35.4116 40.699094 34.537314 C 42.098043 33.630647 43.158614 32.481408 43.875149 31.089025 C 44.625805 29.664265 45.001205 27.966075 45.001205 25.990838 C 45.001205 22.202266 43.619614 19.452175 40.855834 17.671224 C 38.126177 15.890271 34.182417 14.998388 29.030185 14.998388 z M 29.492157 20.294563 C 30.720504 20.294563 31.866203 20.393137 32.923946 20.58742 C 34.01581 20.749325 34.952247 21.040913 35.737024 21.461866 C 36.5218 21.882819 37.133092 22.465997 37.576661 23.210759 C 38.020231 23.955522 38.24487 24.840389 38.24487 25.941341 C 38.24487 28.240389 37.408939 29.809897 35.737024 30.651802 C 34.065107 31.461325 31.677325 31.868603 28.572338 31.868603 L 27.00081 31.868603 L 27.00081 20.393557 C 27.929465 20.333603 28.205522 20.294563 29.492157 20.294563 z M 6.0017231 52.001492 L 6.0017231 57.998874 L 11.999105 57.998874 L 11.999105 52.001492 L 6.0017231 52.001492 z " transform="matrix(0.12528142,0,0,0.12528142,4.4574942,5.1188655)"/>
  <path id="path2-3" style="fill:currentColor;fill-opacity:1;opacity:1" class="ColorScheme-Text" d="M 6.0017231 5.9981895 L 6.0017231 48.000487 L 9.9986028 48.000487 L 9.9986028 9.999194 L 54.001403 9.999194 L 54.001403 54.001994 L 16.00011 54.001994 L 16.00011 57.998874 L 57.998283 57.998874 L 57.998283 5.9981895 L 6.0017231 5.9981895 z M 29.030185 14.998387 C 27.494752 14.998387 25.807516 15.062726 23.964996 15.19225 C 22.156598 15.289393 20.500114 15.499528 18.998801 15.823337 L 18.998801 19.251001 L 18.998801 48.998676 L 25.449905 48.998676 L 27.00081 48.998676 L 27.00081 37.11528 L 28.675457 37.11528 C 31.268632 37.11528 33.571284 36.905147 35.584408 36.484194 C 37.59753 36.063241 39.300142 35.411599 40.699094 34.537313 C 42.098043 33.630647 43.158614 32.481407 43.875149 31.089025 C 44.625805 29.664265 45.001205 27.966075 45.001205 25.990838 C 45.001205 22.202266 43.619614 19.452174 40.855834 17.671223 C 38.126177 15.890271 34.182417 14.998387 29.030185 14.998387 z M 29.492157 20.294562 C 30.720504 20.294562 31.866203 20.393136 32.923946 20.587419 C 34.01581 20.749325 34.952247 21.040913 35.737024 21.461866 C 36.5218 21.882818 37.133092 22.465997 37.576661 23.210758 C 38.020231 23.955521 38.24487 24.840388 38.24487 25.941341 C 38.24487 28.240388 37.408939 29.809897 35.737024 30.651802 C 34.065107 31.461325 31.677325 31.868602 28.572338 31.868602 L 27.00081 31.868602 L 27.00081 20.393556 C 27.929465 20.333603 28.205522 20.294562 29.492157 20.294562 z M 6.0017231 52.001492 L 6.0017231 57.998874 L 11.999105 57.998874 L 11.999105 52.001492 L 6.0017231 52.001492 z " transform="matrix(0.12528142,0,0,0.12528142,4.4574942,4.5897092)"/>
<path id="gradient-path1" style="opacity:0.3;baseline-shift:baseline;display:inline;overflow:visible;vector-effect:none;enable-background:accumulate;stop-color:#000000;stop-opacity:1;fill:url(#linearGradient4)" d="M 8.4453131 1.2753492 C 4.4913166 1.2753492 1.2794833 4.4784283 1.2794833 8.4236094 C 1.2794833 12.36879 4.4913166 15.572386 8.4453131 15.572386 C 12.39931 15.572386 15.611143 12.36879 15.611143 8.4236094 C 15.611143 4.4784283 12.39931 1.2753492 8.4453131 1.2753492 z "/>
</svg>
