<?xml version="1.0" encoding="UTF-8" standalone="no"?>
<svg
   width="64"
   height="64"
   version="1.1"
   viewBox="0 0 16.933 16.933"
   id="svg7"
   sodipodi:docname="okteta.svg"
   inkscape:version="1.4.2 (ebf0e940d0, 2025-05-08)"
   xmlns:inkscape="http://www.inkscape.org/namespaces/inkscape"
   xmlns:sodipodi="http://sodipodi.sourceforge.net/DTD/sodipodi-0.dtd"
   xmlns:xlink="http://www.w3.org/1999/xlink"
   xmlns="http://www.w3.org/2000/svg"
   xmlns:svg="http://www.w3.org/2000/svg"
   xmlns:rdf="http://www.w3.org/1999/02/22-rdf-syntax-ns#"
   xmlns:cc="http://creativecommons.org/ns#"
   xmlns:dc="http://purl.org/dc/elements/1.1/">
  <sodipodi:namedview
     id="namedview7"
     pagecolor="#9c4444"
     bordercolor="#000000"
     borderopacity="0.25"
     inkscape:showpageshadow="2"
     inkscape:pageopacity="0.0"
     inkscape:pagecheckerboard="0"
     inkscape:deskcolor="#d1d1d1"
     inkscape:zoom="8.7062522"
     inkscape:cx="72.419221"
     inkscape:cy="15.276378"
     inkscape:window-width="2560"
     inkscape:window-height="1388"
     inkscape:window-x="0"
     inkscape:window-y="0"
     inkscape:window-maximized="1"
     inkscape:current-layer="svg7"
     showgrid="false" />
  <defs
     id="defs2">
    <filter
       style="color-interpolation-filters:sRGB;"
       inkscape:label="Blur"
       id="filter3"
       x="-0.10843471"
       y="-0.10870992"
       width="1.2168694"
       height="1.2174198">
      <feGaussianBlur
         stdDeviation="0.5 0.5"
         result="blur"
         id="feGaussianBlur3" />
    </filter>
    <style
       id="current-color-scheme"
       type="text/css">.ColorScheme-Text {color:#d8dee9} .ColorScheme-Highlight {color:#3b4252}</style>
    <linearGradient
       id="linearGradient3"
       inkscape:collect="always">
      <stop
         style="stop-color:#000000;stop-opacity:1;"
         offset="0"
         id="stop3" />
      <stop
         style="stop-color:#000000;stop-opacity:0;"
         offset="1"
         id="stop4" />
    </linearGradient>
    <linearGradient
       inkscape:collect="always"
       xlink:href="#linearGradient3"
       id="linearGradient4"
       x1="13.512321"
       y1="13.490874"
       x2="3.3783066"
       y2="3.3568602"
       gradientUnits="userSpaceOnUse" />
  </defs>
  <metadata
     id="metadata2">
    <rdf:RDF>
      <cc:Work
         rdf:about="">
        <dc:format>image/svg+xml</dc:format>
        <dc:type
           rdf:resource="http://purl.org/dc/dcmitype/StillImage" />
      </cc:Work>
    </rdf:RDF>
  </metadata>
  <ellipse
     style="opacity:1;fill:none;stroke:#000000;stroke-width:0.582072;stroke-dasharray:none;stroke-opacity:1;filter:url(#filter3)"
     id="path1-5"
     cx="8.4450111"
     cy="8.423522"
     rx="6.8752708"
     ry="6.8578653" />
  <ellipse
     style="opacity:1;fill:none;stroke-width:0.58207188;stroke-opacity:1;stroke:currentColor;stroke-dasharray:none;fill-opacity:1"
     id="path1"
     cx="8.4450111"
     cy="8.423522"
     rx="6.8752708"
     ry="6.8578653"
     class="ColorScheme-Text" />
  <ellipse
     style="fill:currentColor;stroke:none;stroke-width:0.285844;stroke-dasharray:none;stroke-opacity:1"
     id="path1-2"
     cx="8.4557552"
     cy="8.423522"
     rx="6.5738997"
     ry="6.5692253"
     class="ColorScheme-Highlight" />
  <path
     id="path5"
     d="M 4.497828,5.0269844 V 6.6144531 6.8128868 L 4.944304,7.1105371 4.497828,7.4081875 v 0.1984336 5.1592729 0.198434 h 7.937344 V 12.765894 5.0269844 Z m 0.793735,0.7937344 h 6.349875 V 11.773726 11.97216 H 5.291563 v -0.198434 z m 6.746742,0.1984336 h 0.198434 V 6.217586 h -0.198434 v 0.1984336 h 0.198434 v 0.1984335 h -0.198434 v 0.1984337 h 0.198434 v 0.1984336 h -0.198434 v 0.1984335 h 0.198434 v 0.1984336 h -0.198434 v 0.1984336 h 0.198434 v 0.1984337 h -0.198434 v 0.1984336 h 0.198434 v 0.1984335 h -0.198434 v 0.1984336 h 0.198434 v 0.1984337 h -0.198434 v 0.1984336 h 0.198434 V 8.9956564 H 12.038305 V 9.19409 H 11.839871 V 8.9956564 h 0.198434 V 8.7972228 H 11.839871 V 8.5987892 h 0.198434 V 8.4003555 H 11.839871 V 8.2019219 h 0.198434 V 8.0034884 H 11.839871 V 7.8050548 h 0.198434 V 7.6066211 H 11.839871 V 7.4081875 h 0.198434 V 7.2097539 H 11.839871 V 7.0113204 h 0.198434 V 6.8128868 H 11.839871 V 6.6144531 h 0.198434 V 6.4160196 H 11.839871 V 6.217586 h 0.198434 z M 5.68843,6.217586 v 5.159273 0.198434 h 5.556141 V 11.376859 6.217586 Z M 6.283731,6.6144531 H 8.268067 V 6.8128868 H 6.283731 Z m 2.182769,0 H 9.458668 V 6.8128868 H 8.4665 Z M 6.283731,7.0113204 H 7.672765 V 7.2097539 H 6.283731 Z m 1.785903,0 H 8.863368 V 7.2097539 H 8.069633 Z M 6.283731,9.7893908 H 7.8712 V 9.9878244 H 6.283731 Z m 1.785902,0 H 9.260235 V 9.9878244 H 8.069634 Z M 6.283731,10.186258 h 1.389034 v 0.198433 H 6.283731 Z m 1.587469,0 h 0.5953 v 0.198433 H 7.8712 Z m -1.587469,0.396867 h 0.799547 v 0.198433 H 6.283731 Z m 0.992168,0 h 1.587469 v 0.198433 H 7.275899 Z M 5.489997,12.170594 H 5.68843 v 0.198433 h 0.198433 v -0.198433 h 0.198434 v 0.198433 h 0.198434 v -0.198433 h 0.198433 v 0.198433 h 0.198434 v -0.198433 h 0.198434 v 0.198433 h 0.198433 v -0.198433 h 0.198434 v 0.198433 h 0.198433 v -0.198433 h 0.198433 v 0.198433 H 7.8712 v -0.198433 h 0.198433 v 0.198433 H 8.268067 V 12.170594 H 8.4665 v 0.198433 h 0.198434 v 0.198434 H 8.4665 V 12.369027 H 8.268067 v 0.198434 H 8.069633 V 12.369027 H 7.8712 v 0.198434 H 7.672765 V 12.369027 H 7.474332 v 0.198434 H 7.275899 V 12.369027 H 7.077465 v 0.198434 H 6.879032 V 12.369027 H 6.680598 v 0.198434 H 6.482164 V 12.369027 H 6.283731 v 0.198434 H 6.085297 V 12.369027 H 5.886863 v 0.198434 H 5.68843 V 12.369027 H 5.489997 Z m 5.159273,0 h 0.198434 v 0.198433 h 0.198434 v -0.198433 h 0.198434 v 0.198433 h 0.198433 v -0.198433 h 0.198433 v 0.198433 h -0.198433 v 0.198434 h -0.198433 v -0.198434 h -0.198434 v 0.198434 H 10.847704 V 12.369027 H 10.64927 v 0.198434 h -0.198433 v -0.198434 h 0.198433 z m 1.587469,0 v 0.396867 h -0.396868 z"
     style="opacity:0.3;fill:#000000;fill-opacity:1;stroke-width:0.198434" />
  <path
     id="path5-7"
     d="M 4.497828,4.4978279 V 6.0852966 6.2837303 L 4.944304,6.5813806 4.497828,6.879031 v 0.1984336 5.1592734 0.198434 h 7.937344 V 12.236738 4.4978279 Z m 0.793735,0.7937344 h 6.349875 V 11.24457 11.443004 H 5.291563 V 11.24457 Z m 6.746742,0.1984336 h 0.198434 v 0.1984336 h -0.198434 v 0.1984336 h 0.198434 v 0.1984335 h -0.198434 v 0.1984337 h 0.198434 v 0.1984336 h -0.198434 v 0.1984335 h 0.198434 V 6.879031 h -0.198434 v 0.1984336 h 0.198434 v 0.1984337 h -0.198434 v 0.1984336 h 0.198434 V 7.6727654 H 12.038305 V 7.871199 h 0.198434 v 0.1984336 h -0.198434 v 0.1984337 h 0.198434 V 8.4664999 H 12.038305 V 8.6649335 H 11.839871 V 8.4664999 h 0.198434 V 8.2680663 H 11.839871 V 8.0696326 h 0.198434 V 7.871199 H 11.839871 V 7.6727654 h 0.198434 V 7.4743319 H 11.839871 V 7.2758983 h 0.198434 V 7.0774646 H 11.839871 V 6.879031 h 0.198434 V 6.6805974 H 11.839871 V 6.4821639 h 0.198434 V 6.2837303 H 11.839871 V 6.0852966 h 0.198434 V 5.8868631 H 11.839871 V 5.6884295 h 0.198434 z M 5.68843,5.6884295 v 5.1592735 0.198433 h 5.556141 V 10.847703 5.6884295 Z M 6.283731,6.0852966 H 8.268067 V 6.2837303 H 6.283731 Z m 2.182769,0 H 9.458668 V 6.2837303 H 8.4665 Z M 6.283731,6.4821639 H 7.672765 V 6.6805974 H 6.283731 Z m 1.785903,0 H 8.863368 V 6.6805974 H 8.069633 Z M 6.283731,9.260234 H 7.8712 V 9.458668 H 6.283731 Z m 1.785902,0 H 9.260235 V 9.458668 H 8.069634 Z M 6.283731,9.657101 H 7.672765 V 9.855535 H 6.283731 Z m 1.587469,0 H 8.4665 V 9.855535 H 7.8712 Z m -1.587469,0.396868 h 0.799547 v 0.198433 H 6.283731 Z m 0.992168,0 h 1.587469 v 0.198433 H 7.275899 Z M 5.489997,11.641437 H 5.68843 v 0.198434 h 0.198433 v -0.198434 h 0.198434 v 0.198434 h 0.198434 v -0.198434 h 0.198433 v 0.198434 h 0.198434 v -0.198434 h 0.198434 v 0.198434 h 0.198433 v -0.198434 h 0.198434 v 0.198434 h 0.198433 v -0.198434 h 0.198433 v 0.198434 H 7.8712 v -0.198434 h 0.198433 v 0.198434 H 8.268067 V 11.641437 H 8.4665 v 0.198434 h 0.198434 v 0.198434 H 8.4665 V 11.839871 H 8.268067 v 0.198434 H 8.069633 V 11.839871 H 7.8712 v 0.198434 H 7.672765 V 11.839871 H 7.474332 v 0.198434 H 7.275899 V 11.839871 H 7.077465 v 0.198434 H 6.879032 V 11.839871 H 6.680598 v 0.198434 H 6.482164 V 11.839871 H 6.283731 v 0.198434 H 6.085297 V 11.839871 H 5.886863 v 0.198434 H 5.68843 V 11.839871 H 5.489997 Z m 5.159273,0 h 0.198434 v 0.198434 h 0.198434 v -0.198434 h 0.198434 v 0.198434 h 0.198433 v -0.198434 h 0.198433 v 0.198434 h -0.198433 v 0.198434 h -0.198433 v -0.198434 h -0.198434 v 0.198434 H 10.847704 V 11.839871 H 10.64927 v 0.198434 h -0.198433 v -0.198434 h 0.198433 z m 1.587469,0 v 0.396868 h -0.396868 z"
     style="fill:currentColor;stroke-width:0.198434"
     class="ColorScheme-Text" />
  <path
     id="gradient-path1"
     style="opacity:0.3;baseline-shift:baseline;display:inline;overflow:visible;vector-effect:none;enable-background:accumulate;stop-color:#000000;stop-opacity:1;fill:url(#linearGradient4)"
     d="M 8.4453131 1.2753492 C 4.4913166 1.2753492 1.2794833 4.4784283 1.2794833 8.4236094 C 1.2794833 12.36879 4.4913166 15.572386 8.4453131 15.572386 C 12.39931 15.572386 15.611143 12.36879 15.611143 8.4236094 C 15.611143 4.4784283 12.39931 1.2753492 8.4453131 1.2753492 z " />
</svg>
