<?xml version="1.0" encoding="UTF-8" standalone="no"?>
<svg
   width="64"
   height="64"
   version="1.1"
   viewBox="0 0 16.933 16.933"
   id="svg7"
   sodipodi:docname="okular.svg"
   inkscape:version="1.4.2 (ebf0e940d0, 2025-05-08)"
   xmlns:inkscape="http://www.inkscape.org/namespaces/inkscape"
   xmlns:sodipodi="http://sodipodi.sourceforge.net/DTD/sodipodi-0.dtd"
   xmlns:xlink="http://www.w3.org/1999/xlink"
   xmlns="http://www.w3.org/2000/svg"
   xmlns:svg="http://www.w3.org/2000/svg"
   xmlns:rdf="http://www.w3.org/1999/02/22-rdf-syntax-ns#"
   xmlns:cc="http://creativecommons.org/ns#"
   xmlns:dc="http://purl.org/dc/elements/1.1/">
  <sodipodi:namedview
     id="namedview7"
     pagecolor="#9c4444"
     bordercolor="#000000"
     borderopacity="0.25"
     inkscape:showpageshadow="2"
     inkscape:pageopacity="0.0"
     inkscape:pagecheckerboard="0"
     inkscape:deskcolor="#d1d1d1"
     inkscape:zoom="8.7062522"
     inkscape:cx="72.534081"
     inkscape:cy="15.276378"
     inkscape:window-width="2560"
     inkscape:window-height="1388"
     inkscape:window-x="0"
     inkscape:window-y="0"
     inkscape:window-maximized="1"
     inkscape:current-layer="svg7"
     showgrid="false" />
  <defs
     id="defs2">
    <filter
       style="color-interpolation-filters:sRGB;"
       inkscape:label="Blur"
       id="filter3"
       x="-0.10843471"
       y="-0.10870992"
       width="1.2168694"
       height="1.2174198">
      <feGaussianBlur
         stdDeviation="0.5 0.5"
         result="blur"
         id="feGaussianBlur3" />
    </filter>
    <style
       id="current-color-scheme"
       type="text/css">.ColorScheme-Text {color:#d8dee9} .ColorScheme-Highlight {color:#3b4252}</style>
    <linearGradient
       id="linearGradient3"
       inkscape:collect="always">
      <stop
         style="stop-color:#000000;stop-opacity:1;"
         offset="0"
         id="stop3" />
      <stop
         style="stop-color:#000000;stop-opacity:0;"
         offset="1"
         id="stop4" />
    </linearGradient>
    <linearGradient
       inkscape:collect="always"
       xlink:href="#linearGradient3"
       id="linearGradient4"
       x1="13.512321"
       y1="13.490874"
       x2="3.3783066"
       y2="3.3568602"
       gradientUnits="userSpaceOnUse" />
  </defs>
  <metadata
     id="metadata2">
    <rdf:RDF>
      <cc:Work
         rdf:about="">
        <dc:format>image/svg+xml</dc:format>
        <dc:type
           rdf:resource="http://purl.org/dc/dcmitype/StillImage" />
      </cc:Work>
    </rdf:RDF>
  </metadata>
  <ellipse
     style="opacity:1;fill:none;stroke:#000000;stroke-width:0.582072;stroke-dasharray:none;stroke-opacity:1;filter:url(#filter3)"
     id="path1-5"
     cx="8.4450111"
     cy="8.423522"
     rx="6.8752708"
     ry="6.8578653" />
  <ellipse
     style="opacity:1;fill:none;stroke-width:0.58207188;stroke-opacity:1;stroke:currentColor;stroke-dasharray:none;fill-opacity:1"
     id="path1"
     cx="8.4450111"
     cy="8.423522"
     rx="6.8752708"
     ry="6.8578653"
     class="ColorScheme-Text" />
  <ellipse
     style="fill:currentColor;stroke:none;stroke-width:0.285844;stroke-dasharray:none;stroke-opacity:1"
     id="path1-2"
     cx="8.4557552"
     cy="8.423522"
     rx="6.5738997"
     ry="6.5692253"
     class="ColorScheme-Highlight" />
  <path
     id="path5-6"
     style="opacity:0.3;fill:#000000;fill-opacity:1;stroke-width:0.566038"
     d="m 6.0043003,5.0269844 c -0.36644,-1e-7 -0.661444,0.2950045 -0.661444,0.6614453 v 4.1387702 c 0.18505,-0.1495254 0.402696,-0.2938321 0.608477,-0.3897187 0.261326,-0.1217683 0.547674,-0.2099018 0.838434,-0.2415826 0.09692,-0.01056 0.194417,-0.014891 0.291536,-0.012057 0.161827,0.00472 0.362627,0.016068 0.503834,0.1360786 0.07008,-0.102742 0.21123,-0.2613044 0.458619,-0.353546 0.09856,-0.03675 0.189798,-0.052261 0.270865,-0.05469 0.123786,-0.00371 0.224306,0.02257 0.293259,0.049523 0.0449,-0.1577222 0.172983,-0.280725 0.28077,-0.3793836 0.286678,-0.2624011 0.651165,-0.4417142 1.02102,-0.5464676 0.1969767,-0.055789 0.4274047,-0.08801 0.6450807,-0.099475 0.217678,-0.011465 0.423023,-0.00187 0.570153,0.025837 0.0806,0.015179 0.146052,0.069082 0.198088,0.1382317 0.0245,0.03256 0.04646,0.068865 0.06588,0.1080878 l 0.127466,-0.044785 v -2.474822 c 0,-0.3664409 -0.295005,-0.6614453 -0.661446,-0.6614454 l -1.3267647,-1e-7 c 0,0 -0.0084,0.013226 -0.01249,0.019809 -0.132358,0.2142608 -0.258159,0.4463448 -0.378091,0.6963263 -0.209594,0.4259434 -0.371856,0.8735018 -0.48618,1.3431301 -0.114325,0.4696303 -0.17139,0.9067332 -0.17139,1.310833 0,0.104037 0.0032,0.2042076 0.0099,0.3005787 -9.05e-4,0.00143 -0.0016,0.00286 -0.0026,0.00431 -0.0473,-0.0073 -0.09865,-0.011484 -0.153735,-0.011197 -0.0084,3.71e-5 -0.01682,1.735e-4 -0.02541,4.306e-4 -0.02614,7.811e-4 -0.05315,0.00258 -0.08053,0.0056 -0.02741,0.00302 -0.05543,0.00739 -0.08397,0.012919 -0.05689,0.011049 -0.116286,0.027319 -0.176989,0.049952 -0.174991,0.065247 -0.306641,0.1577651 -0.403929,0.2493339 0.02415,-0.3271318 0.07728,-0.6731197 0.159763,-1.0378145 0.123851,-0.5897679 0.309532,-1.1579151 0.557233,-1.7039972 0.20076,-0.4347261 0.418961,-0.8329674 0.654556,-1.1945631 0.0098,-0.015063 0.02971,-0.044786 0.02971,-0.044786 l 0.564124,-8.604e-4 z m 5.5120447,3.136267 v 0.3178039 l 0.149427,-0.052537 a 0.14992646,0.14992643 87.809526 0 0 0.09172,-0.191199 0.14992646,0.14992643 87.809526 0 0 -0.152441,-0.099906 0.14992646,0.14992643 87.809526 0 0 -0.03833,0.00818 z m 0,0.3178039 -0.03488,0.012058 c 0.02806,0.1482088 0.02884,0.301996 -0.0077,0.4280448 -0.02954,0.1017274 -0.08999,0.1927831 -0.166653,0.2743102 0.07268,0.00859 0.142889,0.017197 0.209285,0.025837 z m 0,0.7402503 v 0.3027319 c 0.330149,0.043653 0.559816,0.083111 0.559816,0.083111 A 0.14992646,0.14992643 87.809526 0 0 12.249274,9.48485 0.14992646,0.14992643 87.809526 0 0 12.126976,9.3113067 c 0,0 -0.252869,-0.043446 -0.610631,-0.090001 z m 0,0.3027319 c -0.111995,-0.014808 -0.235475,-0.030392 -0.365604,-0.044786 -0.05933,-0.00656 -0.120099,-0.012949 -0.181726,-0.018947 -0.190563,0.1188787 -0.379845,0.2035242 -0.450867,0.2402906 -0.05129,0.026554 -0.14041,0.055989 -0.261392,0.086987 -0.120981,0.030998 -0.2706157,0.061538 -0.4297657,0.080527 -0.318301,0.037981 -0.67467,0.035576 -0.917239,-0.1162696 -0.05888,-0.036857 -0.109557,-0.084211 -0.152443,-0.139093 -0.307326,0.082547 -0.60999,0.1859001 -0.902166,0.3100526 -0.0011,0.054515 -0.0089,0.1084579 -0.02497,0.1606249 -0.08441,0.273443 -0.352604,0.50806 -0.618382,0.687282 -0.132888,0.08961 -0.266253,0.164471 -0.378092,0.220051 -0.11184,0.05558 -0.19832,0.09123 -0.254501,0.104643 -0.08195,0.01957 -0.29781,0.08465 -0.533979,0.117992 -0.04774,0.05052 -0.09451,0.101024 -0.139524,0.15029 -0.276886,0.303007 -0.496414,0.569512 -0.562831,0.65111 v 0.288091 c 0,0.36644 0.295005,0.661445 0.661445,0.661445 h 4.8505987 c 0.366441,0 0.661445,-0.295005 0.661445,-0.661445 V 9.8849044 c -0.04983,0.04903 -0.146625,0.2015776 -0.350964,0.4271826 -0.257723,0.284547 -0.632636,0.652111 -0.69891,0.706231 -0.361712,0.295388 -0.7193357,0.485793 -1.0718327,0.573166 -0.362027,0.08737 -0.676751,0.06016 -0.943508,-0.08182 -0.266754,-0.141981 -0.475854,-0.376861 -0.628286,-0.704508 -0.02788,-0.05992 -0.05379,-0.122283 -0.07752,-0.187323 5.64e-4,-5.66e-4 0.0012,-0.0011 0.0018,-0.0017 0.02771,-0.02879 0.05372,-0.05886 0.07923,-0.08957 0.004,-0.0049 0.0085,-0.0093 0.01249,-0.01421 h 4.3e-4 v -4.3e-4 c 0.02938,-0.03632 0.05703,-0.07433 0.08225,-0.113255 0.01625,-0.02508 0.02977,-0.05136 0.04392,-0.07751 0.0079,-0.01466 0.01733,-0.0285 0.02454,-0.04349 v -4.29e-4 h 4.3e-4 v -4.3e-4 -4.29e-4 c 0.01982,-0.04136 0.03683,-0.08402 0.05038,-0.127897 0.0073,-0.02372 0.01357,-0.04759 0.01851,-0.07148 0.205446,-0.082502 0.415707,-0.1548743 0.629149,-0.2166062 0.03211,0.028523 0.06715,0.054902 0.104642,0.078374 0.03864,0.024187 0.07888,0.045464 0.120576,0.063733 0.04581,0.02007 0.09364,0.03534 0.142108,0.04909 0.0066,0.0019 0.01272,0.0051 0.01938,0.0069 0.188873,0.137076 0.419192,0.189433 0.691158,0.157179 0.212774,-0.02613 0.4317437,-0.107737 0.6567097,-0.2450277 0.01387,-0.00419 0.02613,-0.00901 0.03962,-0.013347 0.0096,-0.00311 0.01823,-0.00587 0.02756,-0.00905 0.04911,-0.016692 0.09526,-0.033889 0.129619,-0.051674 0.04468,-0.023134 0.221145,-0.1037518 0.400485,-0.2092852 0.03584,0.00369 0.07138,0.00733 0.106365,0.011196 0.08057,0.00891 0.158631,0.018273 0.232971,0.02756 0.05989,0.00748 0.101084,0.014206 0.155456,0.021532 l 0.0014,0.1373707 z M 5.3428563,12.014792 V 11.54756 c -0.156078,0.182251 -0.254502,0.305316 -0.254502,0.305316 a 0.14992646,0.14992643 87.809526 0 0 0.02282,0.210578 0.14992646,0.14992643 87.809526 0 0 0.211009,-0.02325 c 0,0 0.0072,-0.0088 0.02067,-0.02541 z m 0,-0.467232 c 0.08084,-0.0944 0.177289,-0.204665 0.283352,-0.32211 -0.101844,-0.01335 -0.197906,-0.04275 -0.279907,-0.09603 -0.0012,-7.35e-4 -0.0023,-0.0014 -0.0034,-0.0021 z m 0,-0.420293 V 10.97181 c -0.07155,-0.06596 -0.141565,-0.158758 -0.195075,-0.257515 l 0.195075,-0.06847 v -0.317804 l -0.29369,0.10292 c -0.0014,-0.01024 -0.0023,-0.01999 -0.003,-0.02971 -0.0045,-0.06729 0.0082,-0.118497 0.03316,-0.149859 0.06043,-0.07586 0.153171,-0.168127 0.263545,-0.262683 l -10e-7,-0.1614856 c -0.148698,0.1201524 -0.276026,0.2435946 -0.359143,0.3479476 -0.0511,0.06415 -0.06565,0.147914 -0.05986,0.234262 0.0014,0.02072 0.0042,0.0416 0.0077,0.06287 l -0.149859,0.05253 a 0.14992646,0.14992643 87.809526 0 0 -0.09172,0.191199 0.14992646,0.14992643 87.809526 0 0 0.190768,0.09172 l 0.149858,-0.05253 c 0.07757,0.151025 0.188105,0.290226 0.312206,0.372063 z m 0,-1.1385812 v 0.3393352 l 2.265104,-0.7940791 c -0.02582,-0.03925 -0.05487,-0.075146 -0.08612,-0.1059346 -0.098,-0.096536 -0.278315,-0.1170354 -0.443978,-0.1218679 -0.09111,-0.00266 -0.183025,0.00159 -0.274741,0.011627 -0.275148,0.030115 -0.549374,0.1139838 -0.800107,0.2308168 -0.220944,0.102952 -0.467275,0.2748671 -0.660153,0.4401026 z m 0,0.6571382 v 0.325986 c 0.02336,0.02153 0.047,0.04005 0.07019,0.05512 0.0812,0.05276 0.194544,0.07697 0.319095,0.08225 0.331386,-0.359483 0.729082,-0.756659 1.075711,-0.976235 9.06e-4,-5.66e-4 0.0021,-0.0011 0.003,-0.0017 z M 10.86222,8.0573168 c -0.0921,-0.00378 -0.193847,-0.0029 -0.299287,0.00258 -0.210879,0.010966 -0.435307,0.041228 -0.6196747,0.093446 -0.354865,0.1005075 -0.702987,0.2723108 -0.971928,0.5184767 -0.122254,0.1119006 -0.24554,0.2452852 -0.256654,0.3823981 -0.0024,0.029608 -0.0025,0.060532 -4.31e-4,0.091724 L 11.272179,8.2489448 c -0.01469,-0.028159 -0.03044,-0.053863 -0.04694,-0.075791 -0.04055,-0.053889 -0.08376,-0.083873 -0.12316,-0.091293 -0.06547,-0.012328 -0.147759,-0.020763 -0.239859,-0.024546 z m 0.501251,0.4771365 -1.6945217,0.5942672 c 0.4249807,-0.045544 0.9914147,-0.00421 1.4783467,0.048661 0.10116,-0.09071 0.17978,-0.1900997 0.208855,-0.2902436 0.02723,-0.093765 0.02842,-0.2246064 0.0073,-0.3526847 z M 8.3340003,9.0309678 c -0.07148,0.0016 -0.154229,0.015295 -0.247181,0.049952 -0.244879,0.091306 -0.366574,0.2468406 -0.416417,0.3290002 0.02063,0.025731 0.03986,0.053315 0.05771,0.081819 l 0.865994,-0.303593 c -0.0033,-0.03499 -0.0045,-0.069996 -0.0034,-0.1042119 -0.04994,-0.024516 -0.137522,-0.055636 -0.256655,-0.052968 z m 1.8168217,0.380245 c -0.1931687,-0.00248 -0.3708697,0.00392 -0.5146007,0.023685 -0.249308,0.034276 -0.498815,0.081856 -0.745419,0.1429687 0.02568,0.027522 0.0538,0.051304 0.08397,0.070192 0.194989,0.1220625 0.531764,0.1351028 0.837573,0.098614 0.152904,-0.018245 0.2982777,-0.047795 0.4142637,-0.077513 0.115987,-0.029719 0.206117,-0.061844 0.235554,-0.077082 0.05878,-0.030431 0.169825,-0.08135 0.295842,-0.1502893 -0.205595,-0.016606 -0.414017,-0.028092 -0.607186,-0.030575 z M 7.7276753,9.9787812 c -0.263531,0.1187028 -0.517826,0.2544748 -0.759197,0.4073748 -0.225287,0.142711 -0.511751,0.404782 -0.779869,0.678239 0.157862,-0.03193 0.291786,-0.07105 0.362158,-0.08785 0.03224,-0.0077 0.121442,-0.04231 0.228665,-0.0956 0.107222,-0.05329 0.236208,-0.125775 0.363881,-0.211869 0.255344,-0.172187 0.501863,-0.40202 0.569721,-0.621827 0.0068,-0.02203 0.01172,-0.04478 0.01464,-0.06847 z"
     class="ColorScheme-Text" />
  <path
     id="path5-6-5"
     style="fill:currentColor;stroke-width:0.566038"
     d="m 6.0043003,4.4978283 c -0.36644,-1e-7 -0.661444,0.2950045 -0.661444,0.6614453 v 4.1387702 c 0.18505,-0.1495254 0.402696,-0.2938321 0.608477,-0.3897187 0.261326,-0.1217683 0.547674,-0.2099018 0.838434,-0.2415826 0.09692,-0.01056 0.194417,-0.014891 0.291536,-0.012057 0.161827,0.00472 0.362627,0.016068 0.503834,0.1360786 0.07008,-0.102742 0.21123,-0.2613044 0.458619,-0.353546 0.09856,-0.03675 0.189798,-0.052261 0.270865,-0.05469 0.123786,-0.00371 0.224306,0.02257 0.293259,0.049523 0.0449,-0.1577222 0.172983,-0.280725 0.28077,-0.3793836 0.286678,-0.2624011 0.651165,-0.4417142 1.02102,-0.5464676 0.1969767,-0.055789 0.4274047,-0.08801 0.6450807,-0.099475 0.217678,-0.011465 0.423023,-0.00187 0.570153,0.025837 0.0806,0.015179 0.146052,0.069082 0.198088,0.1382317 0.0245,0.03256 0.04646,0.068865 0.06588,0.1080878 l 0.127466,-0.044785 v -2.474822 c 0,-0.3664409 -0.295005,-0.6614453 -0.661446,-0.6614454 l -1.3267647,-1e-7 c 0,0 -0.0084,0.013226 -0.01249,0.019809 -0.132358,0.2142608 -0.258159,0.4463448 -0.378091,0.6963263 -0.209594,0.4259434 -0.371856,0.8735018 -0.48618,1.3431301 -0.114325,0.4696303 -0.17139,0.9067332 -0.17139,1.310833 0,0.104037 0.0032,0.2042076 0.0099,0.3005787 -9.05e-4,0.00143 -0.0016,0.00286 -0.0026,0.00431 -0.0473,-0.0073 -0.09865,-0.011484 -0.153735,-0.011197 -0.0084,3.71e-5 -0.01682,1.735e-4 -0.02541,4.306e-4 -0.02614,7.811e-4 -0.05315,0.00258 -0.08053,0.0056 -0.02741,0.00302 -0.05543,0.00739 -0.08397,0.012919 -0.05689,0.011049 -0.116286,0.027319 -0.176989,0.049952 -0.174991,0.065247 -0.306641,0.1577651 -0.403929,0.2493339 0.02415,-0.3271318 0.07728,-0.6731197 0.159763,-1.0378145 0.123851,-0.5897679 0.309532,-1.1579151 0.557233,-1.7039972 0.20076,-0.4347261 0.418961,-0.8329674 0.654556,-1.1945631 0.0098,-0.015063 0.02971,-0.044786 0.02971,-0.044786 l 0.564124,-8.604e-4 z m 5.5120447,3.136267 v 0.3178039 l 0.149427,-0.052537 a 0.14992646,0.14992643 87.809526 0 0 0.09172,-0.191199 0.14992646,0.14992643 87.809526 0 0 -0.152441,-0.099906 0.14992646,0.14992643 87.809526 0 0 -0.03833,0.00818 z m 0,0.3178039 -0.03488,0.012058 c 0.02806,0.1482088 0.02884,0.301996 -0.0077,0.4280448 -0.02954,0.1017274 -0.08999,0.1927831 -0.166653,0.2743102 0.07268,0.00859 0.142889,0.017197 0.209285,0.025837 z m 0,0.7402503 v 0.3027319 c 0.330149,0.043653 0.559816,0.083111 0.559816,0.083111 A 0.14992646,0.14992643 87.809526 0 0 12.249274,8.9556939 0.14992646,0.14992643 87.809526 0 0 12.126976,8.7821506 c 0,0 -0.252869,-0.043446 -0.610631,-0.090001 z m 0,0.3027319 c -0.111995,-0.014808 -0.235475,-0.030392 -0.365604,-0.044786 -0.05933,-0.00656 -0.120099,-0.012949 -0.181726,-0.018947 -0.190563,0.1188787 -0.379845,0.2035242 -0.450867,0.2402906 -0.05129,0.026554 -0.14041,0.055989 -0.261392,0.086987 -0.120981,0.030998 -0.2706157,0.061538 -0.4297657,0.080527 -0.318301,0.037981 -0.67467,0.035576 -0.917239,-0.1162696 -0.05888,-0.036857 -0.109557,-0.084211 -0.152443,-0.139093 -0.307326,0.082547 -0.60999,0.1859001 -0.902166,0.3100526 -0.0011,0.054515 -0.0089,0.108458 -0.02497,0.1606246 -0.08441,0.2734432 -0.352604,0.5080604 -0.618382,0.6872824 -0.132888,0.08961 -0.266253,0.164471 -0.378092,0.220051 -0.11184,0.05558 -0.19832,0.09123 -0.254501,0.104643 -0.08195,0.01957 -0.29781,0.08465 -0.533979,0.117992 -0.04774,0.05052 -0.09451,0.101024 -0.139524,0.15029 -0.276886,0.303007 -0.496414,0.569512 -0.562831,0.65111 v 0.288091 c 0,0.36644 0.295005,0.661445 0.661445,0.661445 h 4.8505987 c 0.366441,0 0.661445,-0.295005 0.661445,-0.661445 V 9.3557483 c -0.04983,0.04903 -0.146625,0.201578 -0.350964,0.4271831 -0.257723,0.2845466 -0.632636,0.6521106 -0.69891,0.7062306 -0.361712,0.295388 -0.7193357,0.485793 -1.0718327,0.573166 -0.362027,0.08737 -0.676751,0.06016 -0.943508,-0.08182 -0.266754,-0.141981 -0.475854,-0.376861 -0.628286,-0.704508 -0.02788,-0.05992 -0.05379,-0.122283 -0.07752,-0.187323 5.64e-4,-5.66e-4 0.0012,-0.0011 0.0018,-0.0017 0.02771,-0.02879 0.05372,-0.05886 0.07923,-0.08957 0.004,-0.00487 0.0085,-0.00931 0.01249,-0.014213 h 4.3e-4 v -4.296e-4 c 0.02938,-0.036317 0.05703,-0.074332 0.08225,-0.1132551 0.01625,-0.025081 0.02977,-0.051357 0.04392,-0.077513 0.0079,-0.01466 0.01733,-0.0285 0.02454,-0.043494 v -4.296e-4 h 4.3e-4 v -4.296e-4 -4.296e-4 c 0.01982,-0.04136 0.03683,-0.084015 0.05038,-0.1278968 0.0073,-0.023723 0.01357,-0.047592 0.01851,-0.071484 0.205446,-0.082502 0.415707,-0.1548741 0.629149,-0.216606 0.03211,0.028523 0.06715,0.054902 0.104642,0.078374 0.03864,0.024187 0.07888,0.045464 0.120576,0.063733 0.04581,0.020072 0.09364,0.035338 0.142108,0.049092 0.0066,0.00187 0.01272,0.00509 0.01938,0.00689 0.188873,0.1370762 0.419192,0.1894336 0.691158,0.157179 0.212774,-0.026134 0.4317437,-0.1077368 0.6567097,-0.2450275 0.01387,-0.00419 0.02613,-0.00901 0.03962,-0.013347 0.0096,-0.00311 0.01823,-0.00587 0.02756,-0.00905 0.04911,-0.016692 0.09526,-0.033889 0.129619,-0.051674 0.04468,-0.023134 0.221145,-0.1037518 0.400485,-0.2092852 0.03584,0.00369 0.07138,0.00733 0.106365,0.011196 0.08057,0.00891 0.158631,0.018273 0.232971,0.02756 0.05989,0.00748 0.101084,0.014206 0.155456,0.021532 l 0.0014,0.1373707 z M 5.3428563,11.485636 v -0.467232 c -0.156078,0.182251 -0.254502,0.305316 -0.254502,0.305316 a 0.14992646,0.14992643 87.809526 0 0 0.02282,0.210578 0.14992646,0.14992643 87.809526 0 0 0.211009,-0.02325 c 0,0 0.0072,-0.0088 0.02067,-0.02541 z m 0,-0.467232 c 0.08084,-0.0944 0.177289,-0.204665 0.283352,-0.32211 -0.101844,-0.01335 -0.197906,-0.04275 -0.279907,-0.09603 -0.0012,-7.35e-4 -0.0023,-0.0014 -0.0034,-0.0021 z m 0,-0.420293 v -0.155457 c -0.07155,-0.06596 -0.141565,-0.158758 -0.195075,-0.257515 l 0.195075,-0.06847 V 9.798865 l -0.29369,0.1029198 c -0.0014,-0.01024 -0.0023,-0.019992 -0.003,-0.029711 -0.0045,-0.067292 0.0082,-0.1184966 0.03316,-0.1498585 0.06043,-0.075859 0.153171,-0.1681274 0.263545,-0.2626834 l -10e-7,-0.1614856 c -0.148698,0.1201524 -0.276026,0.2435944 -0.359143,0.347948 -0.0511,0.064153 -0.06565,0.1479136 -0.05986,0.2342616 0.0014,0.020717 0.0042,0.041598 0.0077,0.062872 l -0.149859,0.052534 a 0.14992646,0.14992643 87.809526 0 0 -0.09172,0.1911991 0.14992646,0.14992643 87.809526 0 0 0.190768,0.09172 l 0.149858,-0.05253 c 0.07757,0.151025 0.188105,0.290226 0.312206,0.372063 z m 0,-1.1385813 v 0.3393351 l 2.265104,-0.794079 c -0.02582,-0.03925 -0.05487,-0.075146 -0.08612,-0.1059346 -0.098,-0.096536 -0.278315,-0.1170354 -0.443978,-0.1218679 -0.09111,-0.00266 -0.183025,0.00159 -0.274741,0.011627 -0.275148,0.030115 -0.549374,0.1139838 -0.800107,0.2308168 -0.220944,0.102952 -0.467275,0.2748671 -0.660153,0.4401026 z m 0,0.6571383 v 0.325986 c 0.02336,0.02153 0.047,0.04005 0.07019,0.05512 0.0812,0.05276 0.194544,0.07697 0.319095,0.08225 0.331386,-0.359483 0.729082,-0.7566588 1.075711,-0.976235 9.06e-4,-5.661e-4 0.0021,-0.00113 0.003,-0.0017 z M 10.86222,7.5281607 c -0.0921,-0.00378 -0.193847,-0.0029 -0.299287,0.00258 -0.210879,0.010966 -0.435307,0.041228 -0.6196747,0.093446 -0.354865,0.1005075 -0.702987,0.2723108 -0.971928,0.5184767 -0.122254,0.1119006 -0.24554,0.2452852 -0.256654,0.3823981 -0.0024,0.029608 -0.0025,0.060532 -4.31e-4,0.091724 L 11.272179,7.7197887 c -0.01469,-0.028159 -0.03044,-0.053863 -0.04694,-0.075791 -0.04055,-0.053889 -0.08376,-0.083873 -0.12316,-0.091293 -0.06547,-0.012328 -0.147759,-0.020763 -0.239859,-0.024546 z m 0.501251,0.4771365 -1.6945217,0.5942672 c 0.4249807,-0.045544 0.9914147,-0.00421 1.4783467,0.048661 0.10116,-0.09071 0.17978,-0.1900997 0.208855,-0.2902436 0.02723,-0.093765 0.02842,-0.2246064 0.0073,-0.3526847 z M 8.3340003,8.5018117 c -0.07148,0.0016 -0.154229,0.015295 -0.247181,0.049952 -0.244879,0.091306 -0.366574,0.2468406 -0.416417,0.3290002 0.02063,0.025731 0.03986,0.053315 0.05771,0.081819 l 0.865994,-0.303593 c -0.0033,-0.03499 -0.0045,-0.069996 -0.0034,-0.1042119 C 8.5407663,8.530262 8.4531843,8.499142 8.3340513,8.50181 Z m 1.8168217,0.380245 c -0.1931687,-0.00248 -0.3708697,0.00392 -0.5146007,0.023685 -0.249308,0.034276 -0.498815,0.081856 -0.745419,0.1429687 0.02568,0.027522 0.0538,0.051304 0.08397,0.070192 0.194989,0.1220625 0.531764,0.1351028 0.837573,0.098614 0.152904,-0.018245 0.2982777,-0.047795 0.4142637,-0.077513 0.115987,-0.029719 0.206117,-0.061844 0.235554,-0.077082 0.05878,-0.030431 0.169825,-0.08135 0.295842,-0.1502893 -0.205595,-0.016606 -0.414017,-0.028092 -0.607186,-0.030575 z M 7.7276753,9.4496251 c -0.263531,0.1187033 -0.517826,0.2544748 -0.759197,0.4073746 -0.225287,0.1427111 -0.511751,0.4047823 -0.779869,0.6782393 0.157862,-0.03193 0.291786,-0.07105 0.362158,-0.08785 0.03224,-0.0077 0.121442,-0.04231 0.228665,-0.0956 0.107222,-0.05329 0.236208,-0.125775 0.363881,-0.211869 0.255344,-0.1721875 0.501863,-0.4020198 0.569721,-0.6218275 0.0068,-0.02203 0.01172,-0.044779 0.01464,-0.06847 z"
     class="ColorScheme-Text" />
  <path
     id="gradient-path1"
     style="opacity:0.3;baseline-shift:baseline;display:inline;overflow:visible;vector-effect:none;enable-background:accumulate;stop-color:#000000;stop-opacity:1;fill:url(#linearGradient4)"
     d="M 8.4453131 1.2753492 C 4.4913166 1.2753492 1.2794833 4.4784283 1.2794833 8.4236094 C 1.2794833 12.36879 4.4913166 15.572386 8.4453131 15.572386 C 12.39931 15.572386 15.611143 12.36879 15.611143 8.4236094 C 15.611143 4.4784283 12.39931 1.2753492 8.4453131 1.2753492 z " />
</svg>
