<?xml version="1.0" encoding="UTF-8" standalone="no"?>
<svg
   width="64"
   height="64"
   version="1.1"
   viewBox="0 0 16.933 16.933"
   id="svg7"
   sodipodi:docname="openmw.svg"
   inkscape:version="1.4.2 (ebf0e940d0, 2025-05-08)"
   xmlns:inkscape="http://www.inkscape.org/namespaces/inkscape"
   xmlns:sodipodi="http://sodipodi.sourceforge.net/DTD/sodipodi-0.dtd"
   xmlns:xlink="http://www.w3.org/1999/xlink"
   xmlns="http://www.w3.org/2000/svg"
   xmlns:svg="http://www.w3.org/2000/svg"
   xmlns:rdf="http://www.w3.org/1999/02/22-rdf-syntax-ns#"
   xmlns:cc="http://creativecommons.org/ns#"
   xmlns:dc="http://purl.org/dc/elements/1.1/">
  <sodipodi:namedview
     id="namedview7"
     pagecolor="#9c4444"
     bordercolor="#000000"
     borderopacity="0.25"
     inkscape:showpageshadow="2"
     inkscape:pageopacity="0.0"
     inkscape:pagecheckerboard="0"
     inkscape:deskcolor="#d1d1d1"
     inkscape:zoom="8.7062522"
     inkscape:cx="72.189501"
     inkscape:cy="15.276378"
     inkscape:window-width="2560"
     inkscape:window-height="1388"
     inkscape:window-x="0"
     inkscape:window-y="0"
     inkscape:window-maximized="1"
     inkscape:current-layer="svg7"
     showgrid="false" />
  <defs
     id="defs2">
    <filter
       style="color-interpolation-filters:sRGB;"
       inkscape:label="Blur"
       id="filter3"
       x="-0.10843471"
       y="-0.10870992"
       width="1.2168694"
       height="1.2174198">
      <feGaussianBlur
         stdDeviation="0.5 0.5"
         result="blur"
         id="feGaussianBlur3" />
    </filter>
    <style
       id="current-color-scheme"
       type="text/css">.ColorScheme-Text {color:#d8dee9} .ColorScheme-Highlight {color:#3b4252}</style>
    <linearGradient
       id="linearGradient3"
       inkscape:collect="always">
      <stop
         style="stop-color:#000000;stop-opacity:1;"
         offset="0"
         id="stop3" />
      <stop
         style="stop-color:#000000;stop-opacity:0;"
         offset="1"
         id="stop4" />
    </linearGradient>
    <linearGradient
       inkscape:collect="always"
       xlink:href="#linearGradient3"
       id="linearGradient4"
       x1="13.512321"
       y1="13.490874"
       x2="3.3783066"
       y2="3.3568602"
       gradientUnits="userSpaceOnUse" />
  </defs>
  <metadata
     id="metadata2">
    <rdf:RDF>
      <cc:Work
         rdf:about="">
        <dc:format>image/svg+xml</dc:format>
        <dc:type
           rdf:resource="http://purl.org/dc/dcmitype/StillImage" />
      </cc:Work>
    </rdf:RDF>
  </metadata>
  <ellipse
     style="opacity:1;fill:none;stroke:#000000;stroke-width:0.582072;stroke-dasharray:none;stroke-opacity:1;filter:url(#filter3)"
     id="path1-5"
     cx="8.4450111"
     cy="8.423522"
     rx="6.8752708"
     ry="6.8578653" />
  <ellipse
     style="opacity:1;fill:none;stroke-width:0.58207188;stroke-opacity:1;stroke:currentColor;stroke-dasharray:none;fill-opacity:1"
     id="path1"
     cx="8.4450111"
     cy="8.423522"
     rx="6.8752708"
     ry="6.8578653"
     class="ColorScheme-Text" />
  <ellipse
     style="fill:currentColor;stroke:none;stroke-width:0.285844;stroke-dasharray:none;stroke-opacity:1"
     id="path1-2"
     cx="8.4557552"
     cy="8.423522"
     rx="6.5738997"
     ry="6.5692253"
     class="ColorScheme-Highlight" />
  <path
     id="path5"
     style="opacity:0.3;fill:#000000;fill-opacity:1;stroke-width:0.198983"
     d="m 8.4774355,5.0269844 c -2.189274,0 -3.990542,1.7914586 -3.990542,3.968672 0,2.1772126 1.801268,3.9686716 3.990542,3.9686716 0.301693,-0.0016 0.602595,-0.03717 0.896107,-0.106027 -0.132889,0.02997 -0.267231,0.05294 -0.402514,0.06921 -1.98176,-0.251018 -3.483836,-1.945136 -3.48643,-3.9318529 0.0018,-1.9886465 1.506251,-3.6838176 3.489198,-3.9335143 -0.164513,-0.021218 -0.330174,-0.034396 -0.496361,-0.035157 z m -0.03654,0.2879059 c -1.632211,0.4549158 -2.810507,1.9529543 -2.812065,3.6807661 0.0023,1.7228276 1.174725,3.2175626 2.801269,3.6760596 -1.375019,-0.68341 -2.290079,-2.097384 -2.29162,-3.6760596 0.0019,-1.5825498 0.921763,-2.9995489 2.302416,-3.6807661 z m 0.153919,0.7737471 c 0.272224,0.2005448 0.61677,0.7008394 0.810289,1.3121865 0.182972,0.5774418 0.129162,1.080691 0.08526,1.5948325 l 2.79e-4,5.555e-4 0.7169965,-1.1222793 c 9.63e-4,-4.762e-4 0.0018,-8.943e-4 0.0028,-0.00139 C 10.189089,7.7197733 10.154779,7.5631171 10.103302,7.4008228 9.6885715,6.0908735 9.1094275,6.3474268 8.5948415,6.0886363 Z m 0.895554,2.907019 -0.625642,-1.1917642 c 4.1e-5,-0.00101 -3.9e-5,-0.00203 0,-0.00305 -0.143663,-0.058141 -0.297239,-0.1067676 -0.464248,-0.1436762 -1.357192,-0.2996275 -1.414888,0.3378711 -1.906546,0.6494494 1.115049,-0.6087418 2.363409,0.2793544 2.973735,0.7020473 l 0.01385,5.556e-4 0.0014,-5.556e-4 0.0075,-0.011626 z m -0.0075,0.013012 -5.35e-4,5.555e-4 0.0069,5.555e-4 2.79e-4,-0.00415 z m -0.01523,0 -1.33904,-0.085265 c 2.8e-4,1.762e-4 5.36e-4,3.771e-4 8.5e-4,5.555e-4 -0.122115,0.094653 -0.241662,0.2026367 -0.357391,0.3280467 -0.938306,1.0177914 -0.414477,1.3866724 -0.387588,1.9646804 0.02908,-1.2576882 1.412731,-1.8882792 2.089255,-2.2038636 z m -0.567785,-2.353631 c 0.101182,0.3745219 0.122141,0.747816 0.109903,1.1159121 v 2.778e-4 l 0.374277,0.7120135 c 0.01556,-0.3368464 -2.38e-4,-0.6724426 -0.116546,-1.0395065 -0.09319,-0.2944058 -0.223406,-0.562759 -0.361543,-0.7790068 -0.002,-0.00319 -0.0041,-0.00652 -0.0061,-0.00969 z M 11.566305,6.7845951 C 11.527345,7.1192162 11.264314,7.665643 10.8291,8.1377527 10.421055,8.5802596 9.9597235,8.7861235 9.4942135,9.0034083 l 0.0033,0.00664 1.3207685,0.055643 c 9.06e-4,5.773e-4 0.0019,0.00109 0.0028,0.00166 0.122114,-0.094653 0.241385,-0.2026366 0.357113,-0.3280466 C 12.111027,7.7274254 11.59872,7.3568532 11.566313,6.78459 Z m -0.341058,0.545637 C 10.949804,7.6045209 10.635859,7.8095292 10.309209,7.9830032 L 10.308672,7.983281 9.8762605,8.6606904 C 10.177304,8.5056898 10.461125,8.3246295 10.722537,8.0411391 c 0.209674,-0.2274498 0.378551,-0.4740327 0.497745,-0.7012169 0.0016,-0.00314 0.0034,-0.00656 0.005,-0.00969 z M 7.3905625,8.2440565 c -0.14048,-0.00618 -0.280969,0.00403 -0.420785,0.034881 0.450425,0.089857 0.841413,0.2794352 1.204498,0.5038352 l 0.772086,0.049276 c -0.327021,-0.2068115 -0.72277,-0.421151 -1.135567,-0.5243211 -0.139403,-0.034841 -0.279751,-0.05749 -0.420232,-0.063671 z m 2.087318,0.7718093 -0.73859,1.1031782 c 2.01e-4,-1.08e-4 3.4e-4,-1.7e-4 5.36e-4,-2.78e-4 0.02135,0.152794 0.05565,0.309403 0.107134,0.471722 0.417352,1.318227 1.001421,1.049827 1.5184265,1.316893 C 9.2915755,11.259079 9.4238165,9.7694453 9.4878285,9.0227855 Z m 0.03433,0.023808 0.5733205,1.1516232 c -0.0071,0.184987 -0.006,0.370182 0.0094,0.555049 -0.01546,-0.185213 -0.0164,-0.370579 -0.0091,-0.555879 0.143663,0.05814 0.296963,0.106768 0.463972,0.143676 1.347535,0.297495 1.414187,-0.328901 1.896303,-0.6428053 -0.311145,0.1337416 -0.918259,0.1800321 -1.546941,0.041248 C 10.325908,9.6059851 9.9222745,9.3242274 9.5122345,9.0396736 Z m 0.454282,0.1334333 c 0.2858375,0.1819842 0.5860465,0.3362247 0.9639305,0.4196783 0.302962,0.06688 0.601989,0.08899 0.859289,0.078067 0.0036,-1.531e-4 0.0072,-3.769e-4 0.01079,-5.555e-4 C 11.42383,9.5701766 11.088441,9.4017166 10.774006,9.2071558 Z m -0.898601,0.1965512 c -0.345125,0.1790611 -0.731193,0.4141305 -1.02788,0.7200417 -0.198046,0.204203 -0.355727,0.43569 -0.44127,0.705369 0.303327,-0.343 0.663502,-0.585255 1.040613,-0.785651 z m 0.529304,0.1636079 c -0.01673,0.389698 -0.0048,0.8440178 0.115716,1.2548818 0.07895,0.269129 0.201018,0.517541 0.3908875,0.723641 C 9.9568615,11.079056 9.9263175,10.647278 9.9401915,10.222302 v -2.77e-4 z m 2.2833145,0.00803 c 0.06355,0.015857 0.127513,0.030837 0.193506,0.042355 -0.06598,-0.011517 -0.129975,-0.026502 -0.193506,-0.042355 z" />
  <path
     id="path5-7"
     style="fill:currentColor;stroke-width:0.198983"
     d="m 8.4774355,4.4978281 c -2.189274,0 -3.990542,1.7914586 -3.990542,3.968672 0,2.1772129 1.801268,3.9686719 3.990542,3.9686719 0.301693,-0.0016 0.602595,-0.03717 0.896107,-0.106027 -0.132889,0.02997 -0.267231,0.05294 -0.402514,0.06921 -1.98176,-0.251018 -3.483836,-1.945136 -3.48643,-3.9318532 0.0018,-1.9886465 1.506251,-3.6838176 3.489198,-3.9335143 -0.164513,-0.021218 -0.330174,-0.034396 -0.496361,-0.035157 z m -0.03654,0.2879059 c -1.632211,0.4549158 -2.810507,1.9529543 -2.812065,3.6807661 0.0023,1.7228279 1.174725,3.2175629 2.801269,3.6760599 -1.375019,-0.68341 -2.290079,-2.097384 -2.29162,-3.6760599 0.0019,-1.5825498 0.921763,-2.9995489 2.302416,-3.6807661 z m 0.153919,0.7737471 c 0.272224,0.2005448 0.61677,0.7008394 0.810289,1.3121865 0.182972,0.5774418 0.129162,1.080691 0.08526,1.5948325 l 2.79e-4,5.555e-4 0.7169965,-1.1222793 c 9.63e-4,-4.762e-4 0.0018,-8.943e-4 0.0028,-0.00139 C 10.189089,7.190617 10.154779,7.0339608 10.103303,6.8716665 9.6885725,5.5617172 9.1094285,5.8182705 8.5948425,5.55948 Z m 0.895554,2.907019 -0.625642,-1.1917642 c 4.1e-5,-0.00101 -3.9e-5,-0.00203 0,-0.00305 -0.143663,-0.058141 -0.297239,-0.1067676 -0.464248,-0.1436762 -1.357192,-0.2996275 -1.414888,0.3378711 -1.906546,0.6494494 1.115049,-0.6087418 2.363409,0.2793544 2.973735,0.7020473 l 0.01385,5.556e-4 0.0014,-5.556e-4 0.0075,-0.011626 z m -0.0075,0.013012 -5.35e-4,5.555e-4 0.0069,5.555e-4 2.79e-4,-0.00415 z m -0.01523,0 -1.33904,-0.085265 c 2.8e-4,1.762e-4 5.36e-4,3.771e-4 8.5e-4,5.555e-4 -0.122115,0.094653 -0.241662,0.2026367 -0.357391,0.3280467 -0.938306,1.0177911 -0.414477,1.3866727 -0.387588,1.9646807 0.02908,-1.2576885 1.412731,-1.8882795 2.089255,-2.2038639 z m -0.567785,-2.353631 c 0.101182,0.3745219 0.122141,0.747816 0.109903,1.1159121 v 2.778e-4 l 0.374277,0.7120135 C 9.3995935,7.6172381 9.3837955,7.2816419 9.2674875,6.914578 9.1742975,6.6201722 9.0440815,6.351819 8.9059445,6.1355712 c -0.002,-0.00319 -0.0041,-0.00652 -0.0061,-0.00969 z M 11.566305,6.2554388 C 11.527345,6.5900599 11.264314,7.1364867 10.8291,7.6085964 10.421055,8.0511033 9.9597235,8.2569672 9.4942135,8.474252 l 0.0033,0.00664 1.3207685,0.055643 c 9.06e-4,5.773e-4 0.0019,0.00109 0.0028,0.00166 0.122114,-0.094653 0.241385,-0.2026366 0.357113,-0.3280466 0.932833,-1.0118793 0.420526,-1.3824515 0.388119,-1.9547147 z m -0.341058,0.545637 c -0.275443,0.2742888 -0.589388,0.4792971 -0.916038,0.6527711 l -5.37e-4,2.778e-4 -0.4324115,0.6774094 C 10.177304,7.9765335 10.461125,7.7954732 10.722537,7.5119828 10.932211,7.284533 11.101088,7.0379501 11.220282,6.8107659 c 0.0016,-0.00314 0.0034,-0.00656 0.005,-0.00969 z M 7.3905625,7.7149002 c -0.14048,-0.00618 -0.280969,0.00403 -0.420785,0.034881 0.450425,0.089857 0.841413,0.2794352 1.204498,0.5038352 l 0.772086,0.049276 c -0.327021,-0.2068115 -0.72277,-0.421151 -1.135567,-0.5243211 -0.139403,-0.034841 -0.279751,-0.05749 -0.420232,-0.063671 z m 2.087318,0.7718093 -0.73859,1.1031779 c 2.01e-4,-1.076e-4 3.4e-4,-1.698e-4 5.36e-4,-2.779e-4 0.02135,0.1527939 0.05565,0.3094035 0.107134,0.4717225 0.417352,1.318227 1.001421,1.049827 1.5184265,1.316893 C 9.2915755,10.729923 9.4238165,9.240289 9.4878285,8.4936292 Z m 0.03433,0.023808 0.5733205,1.1516234 c -0.0071,0.1849868 -0.006,0.3701821 0.0094,0.5550491 -0.01546,-0.185213 -0.0164,-0.3705791 -0.0091,-0.5558795 0.143663,0.058141 0.296963,0.1067678 0.463972,0.1436763 C 11.897338,10.102482 11.96399,9.4760854 12.446106,9.1621814 12.134961,9.295923 11.527848,9.3422135 10.899165,9.2034294 10.325908,9.0768288 9.9222745,8.7950711 9.5122345,8.5105173 Z m 0.454282,0.1334333 c 0.2858375,0.1819842 0.5860465,0.3362247 0.9639305,0.4196783 0.302962,0.06688 0.60199,0.08899 0.859289,0.078067 0.0036,-1.531e-4 0.0072,-3.769e-4 0.01079,-5.555e-4 C 11.423831,9.0410203 11.088441,8.8725603 10.774006,8.6779995 Z M 9.0678915,8.840502 c -0.345125,0.1790611 -0.731193,0.4141305 -1.02788,0.7200413 -0.198046,0.2042038 -0.355727,0.4356901 -0.44127,0.7053697 0.303327,-0.3430002 0.663502,-0.5852553 1.040613,-0.7856508 z m 0.529304,0.1636079 c -0.01673,0.389698 -0.0048,0.844018 0.115716,1.2548821 0.07895,0.269129 0.201018,0.517541 0.3908875,0.723641 C 9.9568615,10.5499 9.9263175,10.118122 9.9401915,9.6931462 v -2.779e-4 z m 2.2833155,0.00803 c 0.06355,0.015857 0.127513,0.030837 0.193505,0.042355 -0.06598,-0.011517 -0.129975,-0.026502 -0.193505,-0.042355 z"
     class="ColorScheme-Text" />
  <path
     id="gradient-path1"
     style="opacity:0.3;baseline-shift:baseline;display:inline;overflow:visible;vector-effect:none;enable-background:accumulate;stop-color:#000000;stop-opacity:1;fill:url(#linearGradient4)"
     d="M 8.4453131 1.2753492 C 4.4913166 1.2753492 1.2794833 4.4784283 1.2794833 8.4236094 C 1.2794833 12.36879 4.4913166 15.572386 8.4453131 15.572386 C 12.39931 15.572386 15.611143 12.36879 15.611143 8.4236094 C 15.611143 4.4784283 12.39931 1.2753492 8.4453131 1.2753492 z " />
</svg>
