<?xml version="1.0" encoding="UTF-8" standalone="no"?>
<svg
   width="64"
   height="64"
   version="1.1"
   viewBox="0 0 16.933 16.933"
   id="svg7"
   sodipodi:docname="openmw-cs.svg"
   inkscape:version="1.4.2 (ebf0e940d0, 2025-05-08)"
   xmlns:inkscape="http://www.inkscape.org/namespaces/inkscape"
   xmlns:sodipodi="http://sodipodi.sourceforge.net/DTD/sodipodi-0.dtd"
   xmlns:xlink="http://www.w3.org/1999/xlink"
   xmlns="http://www.w3.org/2000/svg"
   xmlns:svg="http://www.w3.org/2000/svg"
   xmlns:rdf="http://www.w3.org/1999/02/22-rdf-syntax-ns#"
   xmlns:cc="http://creativecommons.org/ns#"
   xmlns:dc="http://purl.org/dc/elements/1.1/">
  <sodipodi:namedview
     id="namedview7"
     pagecolor="#9c4444"
     bordercolor="#000000"
     borderopacity="0.25"
     inkscape:showpageshadow="2"
     inkscape:pageopacity="0.0"
     inkscape:pagecheckerboard="0"
     inkscape:deskcolor="#d1d1d1"
     inkscape:zoom="8.7062522"
     inkscape:cx="72.304361"
     inkscape:cy="15.276378"
     inkscape:window-width="2560"
     inkscape:window-height="1388"
     inkscape:window-x="0"
     inkscape:window-y="0"
     inkscape:window-maximized="1"
     inkscape:current-layer="svg7"
     showgrid="false" />
  <defs
     id="defs2">
    <filter
       style="color-interpolation-filters:sRGB;"
       inkscape:label="Blur"
       id="filter3"
       x="-0.10843471"
       y="-0.10870992"
       width="1.2168694"
       height="1.2174198">
      <feGaussianBlur
         stdDeviation="0.5 0.5"
         result="blur"
         id="feGaussianBlur3" />
    </filter>
    <style
       id="current-color-scheme"
       type="text/css">.ColorScheme-Text {color:#d8dee9} .ColorScheme-Highlight {color:#3b4252}</style>
    <linearGradient
       id="linearGradient3"
       inkscape:collect="always">
      <stop
         style="stop-color:#000000;stop-opacity:1;"
         offset="0"
         id="stop3" />
      <stop
         style="stop-color:#000000;stop-opacity:0;"
         offset="1"
         id="stop4" />
    </linearGradient>
    <linearGradient
       inkscape:collect="always"
       xlink:href="#linearGradient3"
       id="linearGradient4"
       x1="13.512321"
       y1="13.490874"
       x2="3.3783066"
       y2="3.3568602"
       gradientUnits="userSpaceOnUse" />
  </defs>
  <metadata
     id="metadata2">
    <rdf:RDF>
      <cc:Work
         rdf:about="">
        <dc:format>image/svg+xml</dc:format>
        <dc:type
           rdf:resource="http://purl.org/dc/dcmitype/StillImage" />
      </cc:Work>
    </rdf:RDF>
  </metadata>
  <ellipse
     style="opacity:1;fill:none;stroke:#000000;stroke-width:0.582072;stroke-dasharray:none;stroke-opacity:1;filter:url(#filter3)"
     id="path1-5"
     cx="8.4450111"
     cy="8.423522"
     rx="6.8752708"
     ry="6.8578653" />
  <ellipse
     style="opacity:1;fill:none;stroke-width:0.58207188;stroke-opacity:1;stroke:currentColor;stroke-dasharray:none;fill-opacity:1"
     id="path1"
     cx="8.4450111"
     cy="8.423522"
     rx="6.8752708"
     ry="6.8578653"
     class="ColorScheme-Text" />
  <ellipse
     style="fill:currentColor;stroke:none;stroke-width:0.285844;stroke-dasharray:none;stroke-opacity:1"
     id="path1-2"
     cx="8.4557552"
     cy="8.423522"
     rx="6.5738997"
     ry="6.5692253"
     class="ColorScheme-Highlight" />
  <path
     id="path5-6"
     d="m 8.3889352,5.0269844 c -2.134548,0 -3.891158,1.791671 -3.891158,3.9686711 0,2.1771975 1.75661,3.9686705 3.891158,3.9686705 0.280584,-0.0016 0.560179,-0.03403 0.833819,-0.09689 -0.115091,0.02522 -0.231378,0.04494 -0.348255,0.05952 -1.933733,-0.248873 -3.400758,-1.943268 -3.403933,-3.9312984 0.0024,-1.9865852 1.466938,-3.6805342 3.398673,-3.9318522 -0.159312,-0.02147 -0.319368,-0.03568 -0.480304,-0.036821 z m -0.26659,0.363758 c -1.467198,0.528078 -2.505858,1.961692 -2.507826,3.6049131 0.0026,1.6430085 1.04201,3.0762925 2.509487,3.6038055 -1.266758,-0.707187 -2.101026,-2.078948 -2.10282,-3.6038055 0.0011,-1.5249328 0.834586,-2.8971851 2.101159,-3.6049131 z m 1.522578,0.508818 c -0.05278,-3.94e-4 -0.07334,0.04221 -0.180494,0.374831 l -0.106581,0.330815 -0.1625,0.01467 c -0.08949,0.0083 -0.192983,0.02146 -0.229494,0.02934 -0.04842,0.01025 -0.07107,0.01033 -0.08277,2.76e-4 -0.0089,-0.0075 -0.08414,-0.132278 -0.167484,-0.277109 -0.166287,-0.289465 -0.200104,-0.335798 -0.246934,-0.335798 -0.04921,0 -0.378781,0.133853 -0.402792,0.163608 -0.01191,0.01458 -0.02096,0.04468 -0.02076,0.06616 1.99e-4,0.02168 0.02969,0.179197 0.06561,0.351023 0.03591,0.17163 0.06321,0.318105 0.06063,0.3250017 v 2.759e-4 l -2.78e-4,2.759e-4 c -0.0049,0.00798 -0.0431,0.035801 -0.08693,0.063671 -0.04524,0.028769 -0.127467,0.089416 -0.182433,0.1345405 -0.05306,0.043715 -0.10224,0.080004 -0.11101,0.082219 h -2.77e-4 c -0.0063,0 -0.134804,-0.071093 -0.285415,-0.1577944 -0.309556,-0.1785266 -0.324532,-0.1855376 -0.368187,-0.1685916 -0.04723,0.01833 -0.27877,0.3183104 -0.27877,0.3612671 0,0.046306 0.01108,0.060693 0.247211,0.328877 0.03095,0.035075 0.06053,0.068803 0.08693,0.099937 0.06985,0.082761 0.118485,0.1450094 0.118485,0.1530884 0,0.011035 -0.02371,0.069378 -0.05287,0.1292806 -0.02937,0.059903 -0.06839,0.1495035 -0.08665,0.1987658 -0.01825,0.049262 -0.03984,0.095058 -0.04817,0.1021514 -0.0091,0.00788 -0.145557,0.014245 -0.353515,0.016609 -0.417504,0.00453 -0.380744,-0.015882 -0.420232,0.2375224 -0.01508,0.09813 -0.02811,0.1930945 -0.02852,0.211223 -0.0014,0.067588 0.02654,0.082736 0.36625,0.196828 l 0.323893,0.1087952 0.01385,0.1616701 c 0.0079,0.089263 0.02062,0.1953067 0.02796,0.2353078 0.0071,0.040198 0.01014,0.078049 0.0064,0.084157 -0.0037,0.00611 -0.128995,0.084433 -0.278216,0.1746815 -0.149421,0.090249 -0.283345,0.1780611 -0.298426,0.1946132 -0.01508,0.016551 -0.02796,0.044989 -0.02796,0.063118 0,0.053004 0.133687,0.3877971 0.163055,0.4088821 0.03869,0.02759 0.07199,0.02343 0.405559,-0.04927 0.168272,-0.03665 0.311611,-0.06386 0.318358,-0.0609 l 2.77e-4,2.76e-4 c 0.0073,0.004 0.03538,0.04339 0.06312,0.08859 0.02818,0.04591 0.08803,0.130111 0.132879,0.186862 0.05556,0.07074 0.07844,0.11019 0.07308,0.124575 -0.0042,0.01143 -0.0732,0.139795 -0.153365,0.285414 -0.1647,0.298332 -0.174324,0.318906 -0.163608,0.362651 0.01111,0.04473 0.313735,0.291702 0.357391,0.291505 0.04504,0 0.06678,-0.01679 0.319188,-0.249703 0.12283,-0.113304 0.232855,-0.207592 0.244166,-0.209563 0.01131,-0.002 0.06951,0.02123 0.129834,0.05177 0.06032,0.03034 0.152668,0.07078 0.204856,0.08969 0.05219,0.01872 0.09578,0.03473 0.09717,0.03571 0.0014,5.66e-4 0.0051,0.162636 0.0089,0.359882 0.0083,0.440603 -0.01125,0.402298 0.230048,0.442102 0.18117,0.02995 0.252844,0.03011 0.281816,5.52e-4 0.01032,-0.01044 0.06616,-0.167007 0.124297,-0.347702 l 0.105751,-0.328323 0.122083,-0.0097 c 0.06687,-0.0052 0.17091,-0.01799 0.231432,-0.02823 0.109535,-0.01833 0.110258,-0.01829 0.13288,0.0097 0.0127,0.01537 0.09071,0.145881 0.1738498,0.290121 0.08314,0.14424 0.162886,0.272563 0.177173,0.284583 0.03949,0.03291 0.06779,0.02758 0.258284,-0.04651 0.181567,-0.07074 0.218066,-0.0969 0.217868,-0.155026 0,-0.01813 -0.02985,-0.175847 -0.06616,-0.351023 -0.03632,-0.17498 -0.06325,-0.32328 -0.06007,-0.328601 0.0032,-0.0053 0.04515,-0.03674 0.09357,-0.07004 0.04822,-0.0333 0.128787,-0.09478 0.179387,-0.136755 0.04883,-0.04085 0.09444,-0.07462 0.102982,-0.07668 h 2.78e-4 c 0.0062,0 0.138267,0.07229 0.293442,0.160563 0.317493,0.1803 0.315323,0.179429 0.35739,0.168591 0.04465,-0.01143 0.285692,-0.320613 0.285692,-0.366526 0,-0.04296 -0.01015,-0.05632 -0.250257,-0.329431 -0.107749,-0.122565 -0.198165,-0.23286 -0.20015,-0.245274 -0.0022,-0.01241 0.01885,-0.0679 0.04623,-0.123467 0.02739,-0.05557 0.06629,-0.1448114 0.08693,-0.198212 0.02064,-0.053203 0.04301,-0.1021753 0.04955,-0.1090721 0.0071,-0.00749 0.15032,-0.01508 0.353516,-0.018824 0.325827,-0.00591 0.342871,-0.00756 0.36708,-0.032389 0.02004,-0.020493 0.03187,-0.066514 0.05509,-0.2123305 0.01627,-0.1022685 0.0299,-0.1980256 0.0299,-0.2126073 5.66e-4,-0.059312 -0.03462,-0.077669 -0.366803,-0.1901841 L 11.744236,9.0008992 11.730666,8.8395057 c -0.0075,-0.088869 -0.02006,-0.1946356 -0.02741,-0.2350307 -0.0075,-0.040198 -0.01049,-0.078128 -0.0069,-0.084434 0.0037,-0.00611 0.128994,-0.084827 0.278216,-0.1746812 0.149223,-0.090051 0.283345,-0.1773104 0.298426,-0.1940597 0.01528,-0.016749 0.02796,-0.04459 0.02796,-0.061734 0,-0.049262 -0.131315,-0.3833402 -0.160286,-0.4077744 -0.03671,-0.031134 -0.06213,-0.028489 -0.354622,0.035158 -0.343489,0.074682 -0.361777,0.078075 -0.374278,0.069208 -0.006,-0.00414 -0.03742,-0.048422 -0.06976,-0.098275 -0.03215,-0.050051 -0.09106,-0.131392 -0.130942,-0.1810484 -0.03844,-0.047914 -0.07004,-0.093016 -0.07198,-0.1013209 v -2.758e-4 c 0,-0.00631 0.07108,-0.1409082 0.157795,-0.2995328 0.08691,-0.1586247 0.160825,-0.3003734 0.164992,-0.3147584 0.01468,-0.05044 -0.01591,-0.08946 -0.169698,-0.215376 -0.163906,-0.134387 -0.192549,-0.146736 -0.251087,-0.10575 -0.01666,0.01163 -0.133507,0.115685 -0.259115,0.231156 -0.125609,0.115273 -0.236851,0.210116 -0.247766,0.210116 -0.01072,0 -0.0675,-0.02486 -0.126235,-0.05481 -0.05873,-0.03015 -0.14265,-0.06721 -0.186305,-0.08277 -0.128188,-0.04571 -0.12236,-0.02663 -0.12236,-0.404176 0,-0.299909 -0.0021,-0.329438 -0.02354,-0.365696 -0.01429,-0.02384 -0.0373,-0.04218 -0.05814,-0.0465 -0.05278,-0.01163 -0.3499938,-0.05738 -0.3726158,-0.05758 z M 9.3689222,7.4592351 A 1.5285322,1.5590539 0 0 1 10.897314,9.0183557 1.5285322,1.5590539 0 0 1 9.3689222,10.577477 1.5285322,1.5590539 0 0 1 7.8402532,9.0183557 1.5285322,1.5590539 0 0 1 9.3689222,7.4592351 Z"
     style="opacity:0.3;fill:#000000;fill-opacity:1;stroke-width:0.19774" />
  <path
     id="path5-6-5"
     d="m 8.3889352,4.4978296 c -2.134548,0 -3.891158,1.791671 -3.891158,3.9686711 0,2.1771973 1.75661,3.9686703 3.891158,3.9686703 0.280584,-0.0016 0.560179,-0.03403 0.833819,-0.09689 -0.115091,0.02522 -0.231378,0.04494 -0.348255,0.05952 -1.933733,-0.248873 -3.400758,-1.943268 -3.403933,-3.9312982 0.0024,-1.9865852 1.466938,-3.6805342 3.398673,-3.9318522 -0.159312,-0.02147 -0.319368,-0.03568 -0.480304,-0.03682 z m -0.26659,0.363758 c -1.467198,0.528078 -2.505858,1.961692 -2.507826,3.6049131 0.0026,1.6430083 1.04201,3.0762923 2.509487,3.6038053 -1.266758,-0.707187 -2.101026,-2.0789476 -2.10282,-3.6038053 0.0011,-1.5249328 0.834586,-2.8971851 2.101159,-3.6049131 z m 1.522578,0.508818 c -0.05278,-3.94e-4 -0.07334,0.04221 -0.180494,0.374831 l -0.106581,0.330815 -0.1625,0.01467 c -0.08949,0.0083 -0.192983,0.02146 -0.229494,0.02934 -0.04842,0.01025 -0.07107,0.01033 -0.08277,2.76e-4 -0.0089,-0.0075 -0.08414,-0.132278 -0.167484,-0.277109 -0.166287,-0.289465 -0.200104,-0.335798 -0.246934,-0.335798 -0.04921,0 -0.378781,0.133853 -0.402792,0.163608 -0.01191,0.01458 -0.02096,0.04468 -0.02076,0.06616 1.99e-4,0.02168 0.02969,0.179197 0.06561,0.351023 0.03591,0.17163 0.06321,0.318105 0.06063,0.3250017 v 2.759e-4 l -2.78e-4,2.759e-4 c -0.0049,0.00798 -0.0431,0.035801 -0.08693,0.063671 -0.04524,0.028769 -0.127467,0.089416 -0.182433,0.1345405 -0.05306,0.043715 -0.10224,0.080004 -0.11101,0.082219 h -2.77e-4 c -0.0063,0 -0.134804,-0.071093 -0.285415,-0.1577944 -0.309556,-0.1785266 -0.324532,-0.1855376 -0.368187,-0.1685916 -0.04723,0.01833 -0.27877,0.3183104 -0.27877,0.3612671 0,0.046306 0.01108,0.060693 0.247211,0.328877 0.03095,0.035075 0.06053,0.068803 0.08693,0.099937 0.06985,0.082761 0.118485,0.1450094 0.118485,0.1530884 0,0.011035 -0.02371,0.069378 -0.05287,0.1292806 -0.02937,0.059903 -0.06839,0.1495035 -0.08665,0.1987658 -0.01825,0.049262 -0.03984,0.095058 -0.04817,0.1021514 -0.0091,0.00788 -0.145557,0.014245 -0.353515,0.016609 -0.417504,0.00453 -0.380744,-0.015882 -0.420232,0.2375224 -0.01508,0.09813 -0.02811,0.1930945 -0.02852,0.211223 -0.0014,0.067588 0.02654,0.082736 0.36625,0.196828 l 0.323893,0.1087952 0.01385,0.1616701 c 0.0079,0.089263 0.02062,0.1953067 0.02796,0.2353078 0.0071,0.040198 0.01014,0.078049 0.0064,0.084157 -0.0037,0.00611 -0.128995,0.084433 -0.278216,0.1746815 -0.149421,0.090249 -0.283345,0.1780611 -0.298426,0.1946132 -0.01508,0.016551 -0.02796,0.044989 -0.02796,0.063118 0,0.053004 0.133687,0.3877974 0.163055,0.4088818 0.03869,0.027589 0.07199,0.023434 0.405559,-0.049274 0.168272,-0.036651 0.311611,-0.063859 0.318358,-0.060903 l 2.77e-4,2.762e-4 c 0.0073,0.00402 0.03538,0.043393 0.06312,0.088586 0.02818,0.045911 0.08803,0.1301116 0.132879,0.1868619 0.05556,0.07074 0.07844,0.11019 0.07308,0.124575 -0.0042,0.01143 -0.0732,0.139795 -0.153365,0.285414 -0.1647,0.298332 -0.174324,0.318906 -0.163608,0.362651 0.01111,0.04473 0.313735,0.291701 0.357391,0.291504 0.04504,0 0.06678,-0.01679 0.319188,-0.249702 0.12283,-0.113304 0.232855,-0.207592 0.244166,-0.209563 0.01131,-0.002 0.06951,0.02123 0.129834,0.05177 0.06032,0.03034 0.152668,0.07078 0.204856,0.08969 0.05219,0.01872 0.09578,0.03473 0.09717,0.03571 0.0014,5.66e-4 0.0051,0.162636 0.0089,0.359882 0.0083,0.440603 -0.01125,0.402298 0.230048,0.442102 0.18117,0.02995 0.252844,0.03011 0.281816,5.52e-4 0.01032,-0.01044 0.06616,-0.167007 0.124297,-0.347702 l 0.105751,-0.328323 0.122083,-0.0097 c 0.06687,-0.0052 0.17091,-0.01799 0.231432,-0.02823 0.109535,-0.01833 0.110258,-0.01829 0.13288,0.0097 0.0127,0.01537 0.09071,0.145881 0.1738498,0.290121 0.08314,0.14424 0.162886,0.272563 0.177173,0.284583 0.03949,0.03291 0.06779,0.02758 0.258284,-0.04651 0.181567,-0.07074 0.218066,-0.0969 0.217868,-0.155026 0,-0.01813 -0.02985,-0.175847 -0.06616,-0.351024 -0.03632,-0.174979 -0.06325,-0.323279 -0.06007,-0.3286 0.0032,-0.0053 0.04515,-0.03674 0.09357,-0.07004 0.04822,-0.0333 0.128787,-0.09478 0.179387,-0.136755 0.04883,-0.04085 0.09444,-0.07462 0.102982,-0.07668 h 2.78e-4 c 0.0062,0 0.138267,0.07229 0.293442,0.160563 0.317493,0.1803 0.315323,0.179429 0.35739,0.168591 0.04465,-0.01143 0.285692,-0.320613 0.285692,-0.366526 0,-0.04296 -0.01015,-0.05632 -0.250257,-0.3294309 -0.107749,-0.1225647 -0.198165,-0.2328594 -0.20015,-0.2452737 -0.0022,-0.012413 0.01885,-0.067899 0.04623,-0.1234669 0.02739,-0.055568 0.06629,-0.1448117 0.08693,-0.1982123 0.02064,-0.053203 0.04301,-0.1021753 0.04955,-0.1090721 0.0071,-0.00749 0.15032,-0.01508 0.353516,-0.018824 0.325827,-0.00591 0.342871,-0.00756 0.36708,-0.032389 0.02004,-0.020493 0.03187,-0.066514 0.05509,-0.2123305 0.01627,-0.1022685 0.0299,-0.1980256 0.0299,-0.2126073 5.66e-4,-0.059312 -0.03462,-0.077669 -0.366803,-0.1901841 L 11.744236,8.4717444 11.730666,8.3103509 c -0.0075,-0.088869 -0.02006,-0.1946356 -0.02741,-0.2350307 -0.0075,-0.040198 -0.01049,-0.078128 -0.0069,-0.084434 0.0037,-0.00611 0.128994,-0.084827 0.278216,-0.1746812 0.149223,-0.090051 0.283345,-0.1773104 0.298426,-0.1940597 0.01528,-0.016749 0.02796,-0.04459 0.02796,-0.061734 0,-0.049262 -0.131315,-0.3833402 -0.160286,-0.4077744 -0.03671,-0.031134 -0.06213,-0.028489 -0.354622,0.035158 -0.343489,0.074682 -0.361777,0.078075 -0.374278,0.069208 -0.006,-0.00414 -0.03742,-0.048422 -0.06976,-0.098275 -0.03215,-0.050051 -0.09106,-0.131392 -0.130942,-0.1810484 -0.03844,-0.047914 -0.07004,-0.093016 -0.07198,-0.1013209 v -2.758e-4 c 0,-0.00631 0.07108,-0.1409082 0.157795,-0.2995328 0.08691,-0.1586247 0.160825,-0.3003734 0.164992,-0.3147584 0.01468,-0.05044 -0.01591,-0.08946 -0.169698,-0.215376 -0.163906,-0.134387 -0.192549,-0.146736 -0.251087,-0.10575 -0.01666,0.01163 -0.133507,0.115685 -0.259115,0.231156 -0.125609,0.115273 -0.236851,0.210116 -0.247766,0.210116 -0.01072,0 -0.0675,-0.02486 -0.126235,-0.05481 -0.05873,-0.03015 -0.14265,-0.06721 -0.186305,-0.08277 -0.128188,-0.04571 -0.12236,-0.02663 -0.12236,-0.404176 0,-0.299909 -0.0021,-0.329438 -0.02354,-0.365696 -0.01429,-0.02384 -0.0373,-0.04218 -0.05814,-0.0465 -0.05278,-0.01163 -0.3499938,-0.05738 -0.3726158,-0.05758 z M 9.3689222,6.9300803 A 1.5285322,1.5590539 0 0 1 10.897314,8.4892009 1.5285322,1.5590539 0 0 1 9.3689222,10.048321 1.5285322,1.5590539 0 0 1 7.8402532,8.4892009 1.5285322,1.5590539 0 0 1 9.3689222,6.9300803 Z"
     style="fill:currentColor;stroke-width:0.19774"
     class="ColorScheme-Text" />
  <path
     id="gradient-path1"
     style="opacity:0.3;baseline-shift:baseline;display:inline;overflow:visible;vector-effect:none;enable-background:accumulate;stop-color:#000000;stop-opacity:1;fill:url(#linearGradient4)"
     d="M 8.4453131 1.2753492 C 4.4913166 1.2753492 1.2794833 4.4784283 1.2794833 8.4236094 C 1.2794833 12.36879 4.4913166 15.572386 8.4453131 15.572386 C 12.39931 15.572386 15.611143 12.36879 15.611143 8.4236094 C 15.611143 4.4784283 12.39931 1.2753492 8.4453131 1.2753492 z " />
</svg>
