<?xml version="1.0" encoding="UTF-8" standalone="no"?>
<svg
   width="64"
   height="64"
   version="1.1"
   viewBox="0 0 16.933 16.933"
   id="svg7"
   sodipodi:docname="org.kde.telly-skout.svg"
   inkscape:version="1.4.2 (ebf0e940d0, 2025-05-08)"
   xmlns:inkscape="http://www.inkscape.org/namespaces/inkscape"
   xmlns:sodipodi="http://sodipodi.sourceforge.net/DTD/sodipodi-0.dtd"
   xmlns:xlink="http://www.w3.org/1999/xlink"
   xmlns="http://www.w3.org/2000/svg"
   xmlns:svg="http://www.w3.org/2000/svg"
   xmlns:rdf="http://www.w3.org/1999/02/22-rdf-syntax-ns#"
   xmlns:cc="http://creativecommons.org/ns#"
   xmlns:dc="http://purl.org/dc/elements/1.1/">
  <sodipodi:namedview
     id="namedview7"
     pagecolor="#9c4444"
     bordercolor="#000000"
     borderopacity="0.25"
     inkscape:showpageshadow="2"
     inkscape:pageopacity="0.0"
     inkscape:pagecheckerboard="0"
     inkscape:deskcolor="#d1d1d1"
     inkscape:zoom="4.3531261"
     inkscape:cx="36.066035"
     inkscape:cy="25.958357"
     inkscape:window-width="2560"
     inkscape:window-height="1376"
     inkscape:window-x="0"
     inkscape:window-y="0"
     inkscape:window-maximized="1"
     inkscape:current-layer="svg7"
     showgrid="false" />
  <defs
     id="defs2">
    <filter
       style="color-interpolation-filters:sRGB;"
       inkscape:label="Blur"
       id="filter3"
       x="-0.10843471"
       y="-0.10870992"
       width="1.2168694"
       height="1.2174198">
      <feGaussianBlur
         stdDeviation="0.5 0.5"
         result="blur"
         id="feGaussianBlur3" />
    </filter>
    <style
       id="current-color-scheme"
       type="text/css">.ColorScheme-Text {color:#d8dee9} .ColorScheme-Highlight {color:#3b4252}</style>
    <linearGradient
       id="linearGradient3"
       inkscape:collect="always">
      <stop
         style="stop-color:#000000;stop-opacity:1;"
         offset="0"
         id="stop3" />
      <stop
         style="stop-color:#000000;stop-opacity:0;"
         offset="1"
         id="stop4" />
    </linearGradient>
    <linearGradient
       inkscape:collect="always"
       xlink:href="#linearGradient3"
       id="linearGradient4"
       x1="13.512321"
       y1="13.490874"
       x2="3.3783066"
       y2="3.3568602"
       gradientUnits="userSpaceOnUse" />
  </defs>
  <metadata
     id="metadata2">
    <rdf:RDF>
      <cc:Work
         rdf:about="">
        <dc:format>image/svg+xml</dc:format>
        <dc:type
           rdf:resource="http://purl.org/dc/dcmitype/StillImage" />
      </cc:Work>
    </rdf:RDF>
  </metadata>
  <ellipse
     style="opacity:1;fill:none;stroke:#000000;stroke-width:0.582072;stroke-dasharray:none;stroke-opacity:1;filter:url(#filter3)"
     id="path1-5"
     cx="8.4450111"
     cy="8.423522"
     rx="6.8752708"
     ry="6.8578653" />
  <ellipse
     style="opacity:1;fill:none;stroke-width:0.58207188;stroke-opacity:1;stroke:currentColor;stroke-dasharray:none;fill-opacity:1"
     id="path1"
     cx="8.4450111"
     cy="8.423522"
     rx="6.8752708"
     ry="6.8578653"
     class="ColorScheme-Text" />
  <ellipse
     style="fill:currentColor;stroke:none;stroke-width:0.285844;stroke-dasharray:none;stroke-opacity:1"
     id="path1-2"
     cx="8.4557552"
     cy="8.423522"
     rx="6.5738997"
     ry="6.5692253"
     class="ColorScheme-Highlight" />
  <path
     id="path5"
     style="opacity:0.3;fill:#000000;fill-opacity:1;fill-rule:evenodd;stroke-width:0.0413244"
     d="m 8.1131065,6.2578161 c -0.133688,7.598e-4 -0.274074,0.027658 -0.380854,0.063655 -0.0098,0.00492 -0.01952,0.00985 -0.02913,0.014865 0.03945,-0.01243 0.07377,-0.015601 0.101657,-0.00827 -0.355375,0.1469701 -1.127203,0.9068538 -1.470069,1.650008 -0.09449,0.2617856 -0.08466,0.872367 -0.09387,1.0291573 -0.01064,0.1838813 0.02157,0.2903209 0.01355,0.3561592 0.0044,0.015552 0.0092,0.030957 0.01414,0.046153 0.356767,0.6671154 1.770891,0.6296324 2.853948,0.1784992 0.06457,-0.028141 0.12988,-0.054333 0.192885,-0.085833 0.05505,-0.026558 0.109228,-0.053835 0.161716,-0.082596 0.118808,-0.06634 0.232529,-0.1411842 0.343932,-0.2194975 0.2282235,-0.1710035 0.4100795,-0.3663312 0.5139185,-0.5824902 9.74e-4,-0.00444 0.0019,-0.00893 0.0029,-0.013426 0.0062,-0.011461 0.01162,-0.020893 0.01642,-0.028891 0.03817,-0.088915 0.06344,-0.1810096 0.07409,-0.2759606 0.0011,0.00995 0.0019,0.019823 0.0026,0.02973 8.77e-4,-0.00468 0.0018,-0.00946 0.0026,-0.014385 0.143153,0.1500562 0.209055,0.5182708 0.194684,0.6858253 -0.102234,0.1924995 -0.114933,0.2168395 -0.307849,0.4298842 -0.202804,0.224112 -0.7381055,0.5284994 -1.0359915,0.628161 -0.297856,0.09978 -1.724896,0.428191 -2.217153,0.323792 -0.473293,-0.100327 -0.801069,-0.262642 -0.842108,-0.5188341 0.0058,-0.1015541 -0.02839,-0.2167551 -0.05287,-0.3307446 -0.02187,-0.07098 -0.05393,-0.2073827 -0.01151,-0.2871093 0.003,-0.00565 0.0058,-0.010866 0.0085,-0.015704 0.0084,-0.022715 0.01991,-0.04463 0.03488,-0.065574 0.0011,0.00425 0.0021,0.00856 0.0033,0.012828 0.0096,-0.0061 0.01227,0.00354 0.01295,0.011269 -7.79e-4,-0.043077 -0.0042,-0.2524174 -0.0051,-0.4705235 -0.0106,0.00563 -0.0211,0.011351 -0.03165,0.017023 -0.757487,0.457186 -1.834624,1.0826829 -1.453887,2.2205095 0.15415,0.324273 0.339591,0.423875 1.011655,0.602389 0.660796,0.170451 1.357278,0.216793 2.036256,0.139539 1.338766,-0.152323 2.7004655,-0.563056 3.7795315,-1.398383 0.358894,-0.3031551 0.70095,-0.6962984 0.775014,-1.1740895 0.0082,-0.6634086 -0.732594,-1.1585146 -1.287269,-1.2460187 -0.274535,-0.043308 -0.661126,-0.108679 -0.790119,-0.063295 -0.0076,0.011023 -0.166241,-0.3544851 -0.5864455,-0.7003303 -0.397129,-0.3360288 -0.934829,-0.5910408 -1.425236,-0.8488597 -0.04158,-0.00621 -0.08539,-0.00888 -0.129948,-0.00863 z m 0.163395,0.326429 c 0.516827,0.017939 1.651285,0.7482366 1.438303,1.0603258 -0.118768,0.1740292 -0.822464,0.020883 -0.965982,0.1677098 -0.340711,0.3485592 -0.853662,1.0151113 -0.882666,0.071687 -0.01847,-0.6030207 0.207471,-1.2600622 0.271885,-1.2811419 0.03807,-0.014643 0.08499,-0.020433 0.13846,-0.018583 z m -0.619412,0.097821 c 0.04891,-0.00954 -0.188698,1.2598277 -0.305571,1.7226544 -0.01391,0.1436305 -0.185443,0.2500725 -0.281115,0.1354627 -0.10043,-0.1201194 0.15306,-0.1227696 0.205113,-0.2812352 0.121507,-0.3697215 0.262212,-1.4089357 0.353401,-1.521498 0.01344,-0.036776 0.02264,-0.054306 0.02817,-0.055384 z M 7.4731955,6.813333 c 0.0037,8.6e-6 0.0072,2.554e-4 0.01067,7.013e-4 -0.191321,0.1562456 -0.894981,1.0595493 -1.086699,1.3398847 0.148373,-0.4240703 0.845016,-1.341138 1.07603,-1.3406017 z m -0.940327,0.7231076 c -0.0029,0.0039 -0.0054,0.00738 -0.0083,0.011267 -0.01715,0.023507 -0.03332,0.046874 -0.04855,0.070009 0.01858,-0.026992 0.03952,-0.054028 0.05682,-0.081278 z m -1.324658,1.8588361 c -0.0019,0.0016 -0.0042,0.00296 -0.006,0.00456 -0.02589,0.02184 -0.05163,0.044524 -0.07696,0.067969 0.02629,-0.02393 0.05581,-0.048433 0.08296,-0.072527 z m -0.606705,1.0407853 c -0.0035,0.08544 0.0049,0.171913 0.02733,0.258578 -0.01855,-0.07797 -0.03009,-0.16434 -0.02733,-0.258578 z" />
  <path
     id="path5-7"
     class="ColorScheme-Text"
     style="fill:currentColor;fill-opacity:1;fill-rule:evenodd;stroke-width:0.0413244"
     d="m 8.1131065,5.7286032 c -0.133688,7.598e-4 -0.274074,0.027658 -0.380854,0.063655 -0.0098,0.00492 -0.01952,0.00985 -0.02913,0.014865 0.03945,-0.01243 0.07377,-0.015601 0.101657,-0.00827 -0.355375,0.1469701 -1.127203,0.9068538 -1.470069,1.650008 -0.09449,0.2617856 -0.08466,0.872367 -0.09387,1.0291573 -0.01064,0.1838813 0.02157,0.2903209 0.01355,0.3561592 0.0044,0.015552 0.0092,0.030957 0.01414,0.046153 0.356767,0.6671155 1.770891,0.6296325 2.853948,0.1784992 0.06457,-0.028141 0.12988,-0.054333 0.192885,-0.085833 0.05505,-0.026558 0.109228,-0.053835 0.161716,-0.082596 0.118808,-0.06634 0.232529,-0.1411842 0.343932,-0.2194975 C 10.049235,8.4999 10.231091,8.3045723 10.33493,8.0884133 c 9.74e-4,-0.00444 0.0019,-0.00893 0.0029,-0.013426 0.0062,-0.011461 0.01162,-0.020893 0.01642,-0.028891 0.03817,-0.088915 0.06344,-0.1810096 0.07409,-0.2759606 0.0011,0.00995 0.0019,0.019823 0.0026,0.02973 8.77e-4,-0.00468 0.0018,-0.00946 0.0026,-0.014385 0.143153,0.1500562 0.209055,0.5182708 0.194684,0.6858253 -0.102234,0.1924991 -0.114933,0.2168391 -0.307849,0.4298838 -0.202804,0.224112 -0.7381055,0.5284994 -1.0359915,0.6281609 -0.297856,0.099785 -1.724896,0.4281911 -2.217153,0.3237921 -0.473293,-0.100327 -0.801069,-0.2626417 -0.842108,-0.5188341 0.0058,-0.1015541 -0.02839,-0.2167551 -0.05287,-0.3307446 -0.02187,-0.07098 -0.05393,-0.2073827 -0.01151,-0.2871094 0.003,-0.00565 0.0058,-0.010866 0.0085,-0.015704 0.0084,-0.022715 0.01991,-0.04463 0.03488,-0.065574 0.0011,0.00425 0.0021,0.00856 0.0033,0.012828 0.0096,-0.0061 0.01227,0.00354 0.01295,0.011269 -7.79e-4,-0.043077 -0.0042,-0.2524174 -0.0051,-0.4705235 -0.0106,0.00563 -0.0211,0.011351 -0.03165,0.017023 -0.757487,0.457186 -1.834624,1.0826829 -1.453887,2.2205098 0.15415,0.324273 0.339591,0.423875 1.011655,0.602389 0.660796,0.170451 1.357278,0.216793 2.036256,0.139539 1.338766,-0.152323 2.7004655,-0.563056 3.7795315,-1.3983832 0.358894,-0.3031552 0.70095,-0.6962985 0.775014,-1.1740896 C 12.340392,7.93233 11.599598,7.437224 11.044923,7.3497199 10.770388,7.3064119 10.383797,7.2410409 10.254804,7.2864249 10.247204,7.2974479 10.088563,6.9319398 9.6683585,6.5860946 9.2712295,6.2500658 8.7335295,5.9950538 8.2431225,5.7372349 c -0.04158,-0.00621 -0.08539,-0.00888 -0.129948,-0.00863 z m 0.163395,0.326429 c 0.516827,0.017939 1.651285,0.7482366 1.438303,1.0603258 -0.118768,0.1740292 -0.822464,0.020883 -0.965982,0.1677098 -0.340711,0.3485592 -0.853662,1.0151113 -0.882666,0.071687 -0.01847,-0.6030207 0.207471,-1.2600622 0.271885,-1.2811419 0.03807,-0.014643 0.08499,-0.020433 0.13846,-0.018583 z m -0.619412,0.097821 c 0.04891,-0.00954 -0.188698,1.2598277 -0.305571,1.7226544 -0.01391,0.1436305 -0.185443,0.2500725 -0.281115,0.1354627 -0.10043,-0.1201194 0.15306,-0.1227696 0.205113,-0.2812352 0.121507,-0.3697215 0.262212,-1.4089357 0.353401,-1.521498 0.01344,-0.036776 0.02264,-0.054306 0.02817,-0.055384 z m -0.183894,0.1312669 c 0.0037,8.6e-6 0.0072,2.554e-4 0.01067,7.013e-4 -0.191321,0.1562456 -0.894981,1.0595493 -1.086699,1.3398847 0.148373,-0.4240703 0.845016,-1.341138 1.07603,-1.3406017 z m -0.940327,0.7231076 c -0.0029,0.0039 -0.0054,0.00738 -0.0083,0.011267 -0.01715,0.023507 -0.03332,0.046874 -0.04855,0.070009 0.01858,-0.026992 0.03952,-0.054028 0.05682,-0.081278 z m -1.324658,1.8588361 c -0.0019,0.0016 -0.0042,0.00296 -0.006,0.00456 -0.02589,0.02184 -0.05163,0.044524 -0.07696,0.067969 0.02629,-0.02393 0.05581,-0.048433 0.08296,-0.072527 z m -0.606705,1.040785 c -0.0035,0.08544 0.0049,0.1719132 0.02733,0.2585782 -0.01855,-0.07797 -0.03009,-0.164339 -0.02733,-0.2585782 z" />
  <path
     id="gradient-path1"
     style="opacity:0.3;baseline-shift:baseline;display:inline;overflow:visible;vector-effect:none;enable-background:accumulate;stop-color:#000000;stop-opacity:1;fill:url(#linearGradient4)"
     d="M 8.4453131 1.2753492 C 4.4913166 1.2753492 1.2794833 4.4784283 1.2794833 8.4236094 C 1.2794833 12.36879 4.4913166 15.572386 8.4453131 15.572386 C 12.39931 15.572386 15.611143 12.36879 15.611143 8.4236094 C 15.611143 4.4784283 12.39931 1.2753492 8.4453131 1.2753492 z " />
</svg>
