<?xml version='1.0' encoding='UTF-8'?>
<svg xmlns:inkscape="http://www.inkscape.org/namespaces/inkscape" xmlns:sodipodi="http://sodipodi.sourceforge.net/DTD/sodipodi-0.dtd" xmlns="http://www.w3.org/2000/svg" xmlns:svg="http://www.w3.org/2000/svg" xmlns:rdf="http://www.w3.org/1999/02/22-rdf-syntax-ns#" xmlns:cc="http://creativecommons.org/ns#" xmlns:dc="http://purl.org/dc/elements/1.1/" width="64" height="64" version="1.1" viewBox="0 0 16.933 16.933" id="svg7" sodipodi:docname="accessories-calculator.svg" inkscape:version="1.4.2 (ebf0e940d0, 2025-05-08)">
  <sodipodi:namedview id="namedview7" pagecolor="#9c4444" bordercolor="#000000" borderopacity="0.25" inkscape:showpageshadow="2" inkscape:pageopacity="0.0" inkscape:pagecheckerboard="0" inkscape:deskcolor="#d1d1d1" inkscape:zoom="4.3531261" inkscape:cx="36.295755" inkscape:cy="26.073217" inkscape:window-width="1280" inkscape:window-height="669" inkscape:window-x="0" inkscape:window-y="0" inkscape:window-maximized="0" inkscape:current-layer="svg7" showgrid="false"/>
  <defs id="defs2">
    <filter style="color-interpolation-filters:sRGB;" inkscape:label="Blur" id="filter3" x="-0.10843471" y="-0.10870992" width="1.2168694" height="1.2174198">
      <feGaussianBlur stdDeviation="0.5 0.5" result="blur" id="feGaussianBlur3"/>
    </filter>
    <filter style="color-interpolation-filters:sRGB" inkscape:label="Blur" id="filter3-8" x="-0.10843471" y="-0.10870992" width="1.2168694" height="1.2174198">
      <feGaussianBlur stdDeviation="0.5 0.5" result="blur" id="feGaussianBlur3-7"/>
    </filter>
    <style id="current-color-scheme" type="text/css">.ColorScheme-Text {color:#d8dee9} .ColorScheme-Highlight {color:#3b4252}</style>
  <linearGradient id="linearGradient4" inkscape:collect="always">
      <stop style="stop-color:#000000;stop-opacity:1;" offset="0" id="stop4"/>
      <stop style="stop-color:#000000;stop-opacity:0;" offset="1" id="stop5"/>
    </linearGradient>
    <linearGradient xmlns:xlink="http://www.w3.org/1999/xlink" inkscape:collect="always" xlink:href="#linearGradient4" id="linearGradient5" x1="14.157616" y1="14.109557" x2="3.4890218" y2="3.440964" gradientUnits="userSpaceOnUse"/>
  </defs>
  <metadata id="metadata2">
    <rdf:RDF>
      <cc:Work rdf:about="">
        <dc:format>image/svg+xml</dc:format>
        <dc:type rdf:resource="http://purl.org/dc/dcmitype/StillImage"/>
      </cc:Work>
    </rdf:RDF>
  </metadata>
  <ellipse style="opacity:1;fill:none;stroke:#000000;stroke-width:0.582072;stroke-dasharray:none;stroke-opacity:1;filter:url(#filter3)" id="path1-5" cx="8.4450111" cy="8.423522" rx="6.8752708" ry="6.8578653"/>
  <ellipse style="opacity:1;fill:none;stroke-width:0.58207188;stroke-opacity:1;stroke:currentColor;stroke-dasharray:none;fill-opacity:1" id="path1" cx="8.4450111" cy="8.423522" rx="6.8752708" ry="6.8578653" class="ColorScheme-Text"/>
  <ellipse style="fill:currentColor;stroke:none;stroke-width:0.285728;stroke-dasharray:none;stroke-opacity:1" id="path1-2" cx="8.4450111" cy="8.423522" rx="6.5766377" ry="6.5612183" class="ColorScheme-Highlight"/>
  <path id="path2-9" style="fill:#000000;fill-opacity:1;opacity:0.3" d="M 5.7829957 5.3065484 C 5.7129077 5.3065484 5.6402079 5.3366816 5.5917967 5.3964636 C 5.5622867 5.4329086 5.5420887 5.4896512 5.5349537 5.5566574 C 5.5278137 5.6236634 5.5251354 5.71428 5.5251354 5.8672266 L 5.5251354 6.1152686 L 5.2579735 6.1152686 C 5.05207 6.1152686 4.9391781 6.1151597 4.8456037 6.1447236 C 4.7988167 6.1595056 4.7498629 6.1908881 4.7246832 6.2361891 C 4.6995032 6.2814901 4.6993622 6.3246655 4.6993622 6.3633106 C 4.6993622 6.4024096 4.7019675 6.4482731 4.7303675 6.4919824 C 4.7587715 6.5356924 4.8065121 6.5622043 4.853355 6.5762133 C 4.947042 6.6042313 5.0643125 6.6056683 5.2677918 6.6056683 L 5.5251354 6.6056683 L 5.5251354 6.8475092 C 5.5251354 7.0287197 5.5280351 7.1357479 5.5468391 7.2206057 C 5.5562391 7.2630347 5.572087 7.3028235 5.599548 7.3358419 C 5.627009 7.3688599 5.6636125 7.3887702 5.6951475 7.4004362 C 5.7981173 7.4385252 5.9232813 7.4001855 5.9860801 7.310521 C 6.0187881 7.263826 6.0250627 7.2145274 6.0310377 7.1467099 C 6.0370077 7.0788929 6.0393058 6.9872387 6.0393058 6.8516433 L 6.0393058 6.6056683 L 6.2966493 6.6056683 C 6.5871353 6.6056683 6.6841235 6.6121194 6.7715464 6.5508924 C 6.8902106 6.4677774 6.8958814 6.2981418 6.8010014 6.1932985 C 6.7854064 6.1760665 6.7590918 6.1562566 6.7307228 6.1447236 C 6.7023538 6.1331906 6.6747066 6.1265839 6.6408076 6.1230199 C 6.5730106 6.1158899 6.4775855 6.1152686 6.3106017 6.1152686 L 6.0393058 6.1152686 L 6.0393058 5.8672266 C 6.0393058 5.7142802 6.0381699 5.6236641 6.0310377 5.5566574 C 6.0239005 5.4896508 6.0042253 5.4329095 5.9747115 5.3964636 C 5.9260008 5.3363085 5.8530831 5.3065477 5.7829957 5.3065484 z M 11.058539 6.1152686 C 10.658664 6.1152733 10.433214 6.1174799 10.29891 6.1230199 C 10.23159 6.1257999 10.185865 6.1276863 10.148535 6.1349053 C 10.111205 6.1421253 10.074131 6.1584841 10.048801 6.1814131 C 9.936511 6.283049 9.9429204 6.4629021 10.068438 6.5508924 C 10.108898 6.5792314 10.120804 6.5723373 10.142334 6.5762133 C 10.163864 6.5800933 10.187976 6.5832716 10.216746 6.5860316 C 10.274286 6.5915416 10.348396 6.5959653 10.435333 6.5994673 C 10.609206 6.6064673 10.833077 6.6092856 11.056472 6.6092856 C 11.279866 6.6092856 11.501669 6.6064773 11.675543 6.5994673 C 11.762483 6.5959673 11.837109 6.5915436 11.894647 6.5860316 C 11.923417 6.5832816 11.94908 6.5800933 11.97061 6.5762133 C 11.99214 6.5723333 12.002495 6.5792334 12.042955 6.5508924 C 12.161773 6.4676584 12.169209 6.2979641 12.074477 6.1932985 C 12.056267 6.1731755 12.015711 6.1478226 11.978361 6.1385226 C 11.941001 6.1292226 11.900815 6.1260439 11.835737 6.1230199 C 11.705575 6.1169699 11.481141 6.1152686 11.060606 6.1152686 L 11.058539 6.1152686 z M 5.1856279 10.347485 C 5.0478986 10.347485 4.9355189 10.451718 4.9355189 10.59191 C 4.9355189 10.592524 4.9377429 10.613888 4.9396529 10.620848 C 4.9415629 10.627848 4.9434772 10.634614 4.9453372 10.638934 C 4.9490572 10.647534 4.9518055 10.652504 4.9551555 10.658054 C 4.9618455 10.669154 4.9683145 10.678966 4.9763425 10.689576 C 4.9923995 10.710786 5.0138517 10.734992 5.0388697 10.763472 C 5.0889067 10.820432 5.1563267 10.892086 5.2305855 10.966557 L 5.4238516 11.160339 L 5.2305855 11.355672 C 5.1560595 11.431212 5.0876424 11.50516 5.0373195 11.564441 C 5.0121575 11.594081 4.9910592 11.619701 4.9747922 11.642471 C 4.9666622 11.653851 4.9597685 11.663473 4.9530885 11.675543 C 4.9497485 11.681543 4.9467002 11.688307 4.9432702 11.697247 C 4.9415602 11.701747 4.9391759 11.708147 4.9375859 11.714817 C 4.9359959 11.721517 4.9355189 11.739398 4.9355189 11.740138 C 4.9355189 11.814418 4.9596482 11.852025 5.0001132 11.896714 C 5.0562792 11.958774 5.1167804 11.972677 5.1892452 11.972677 C 5.2418102 11.972677 5.3040621 11.948686 5.3592573 11.906016 C 5.4144523 11.863346 5.4791706 11.800415 5.5840453 11.69518 C 5.6511373 11.62786 5.7142596 11.565042 5.7618088 11.521551 C 5.7701588 11.513951 5.7741874 11.510441 5.7814454 11.503981 C 5.7890554 11.510681 5.7937954 11.513471 5.8026324 11.521551 C 5.8502654 11.565031 5.9154061 11.627895 5.9824628 11.69518 C 6.0843026 11.797368 6.1503773 11.859499 6.2051838 11.902398 C 6.2599908 11.945298 6.3153292 11.972677 6.3710619 11.972677 C 6.503342 11.972677 6.6309893 11.883723 6.6309893 11.742205 C 6.6309893 11.680365 6.611362 11.670075 6.59585 11.646605 C 6.580338 11.623135 6.561233 11.598915 6.53694 11.570125 C 6.488589 11.512815 6.4184682 11.440567 6.3338556 11.355672 L 6.3338556 11.353605 L 6.1426566 11.160339 L 6.3338556 10.966557 C 6.4082396 10.891957 6.4769235 10.820586 6.5271217 10.763472 C 6.5522207 10.734912 6.5719927 10.710836 6.5880987 10.689576 C 6.5961487 10.678946 6.6046466 10.669164 6.6113526 10.658054 C 6.6147026 10.652454 6.6174409 10.647048 6.6211709 10.638418 C 6.6230309 10.634118 6.6249352 10.627818 6.6268552 10.620848 C 6.6287752 10.613848 6.6309893 10.59253 6.6309893 10.59191 C 6.6309893 10.451719 6.5186069 10.347485 6.3808802 10.347485 C 6.3275142 10.347485 6.268836 10.373623 6.2129352 10.416213 C 6.1570342 10.458803 6.0905082 10.522612 5.9845298 10.627049 C 5.9160608 10.694519 5.850649 10.754895 5.8026324 10.798611 C 5.7943424 10.806211 5.7902117 10.809761 5.7829957 10.816181 C 5.7757757 10.809781 5.7721688 10.806161 5.7638758 10.798611 C 5.715844 10.754936 5.6504473 10.694519 5.5819783 10.627049 C 5.476024 10.522639 5.4093479 10.458798 5.353573 10.416213 C 5.2977981 10.373627 5.2389984 10.347485 5.1856279 10.347485 z " transform="translate(0,0.52915625)"/>
  <path id="path2" style="opacity:1;fill:currentColor;fill-opacity:1" class="ColorScheme-Text" d="M 5.7829957 5.3065484 C 5.7129077 5.3065484 5.6402079 5.3366816 5.5917967 5.3964636 C 5.5622867 5.4329086 5.5420887 5.4896512 5.5349537 5.5566574 C 5.5278137 5.6236634 5.5251354 5.71428 5.5251354 5.8672266 L 5.5251354 6.1152686 L 5.2579735 6.1152686 C 5.05207 6.1152686 4.9391781 6.1151597 4.8456037 6.1447236 C 4.7988167 6.1595056 4.7498629 6.1908881 4.7246832 6.2361891 C 4.6995032 6.2814901 4.6993622 6.3246655 4.6993622 6.3633106 C 4.6993622 6.4024096 4.7019675 6.4482731 4.7303675 6.4919824 C 4.7587715 6.5356924 4.8065121 6.5622043 4.853355 6.5762133 C 4.947042 6.6042313 5.0643125 6.6056683 5.2677918 6.6056683 L 5.5251354 6.6056683 L 5.5251354 6.8475092 C 5.5251354 7.0287197 5.5280351 7.1357479 5.5468391 7.2206057 C 5.5562391 7.2630347 5.572087 7.3028235 5.599548 7.3358419 C 5.627009 7.3688599 5.6636125 7.3887702 5.6951475 7.4004362 C 5.7981173 7.4385252 5.9232813 7.4001855 5.9860801 7.310521 C 6.0187881 7.263826 6.0250627 7.2145274 6.0310377 7.1467099 C 6.0370077 7.0788929 6.0393058 6.9872387 6.0393058 6.8516433 L 6.0393058 6.6056683 L 6.2966493 6.6056683 C 6.5871353 6.6056683 6.6841235 6.6121194 6.7715464 6.5508924 C 6.8902106 6.4677774 6.8958814 6.2981418 6.8010014 6.1932985 C 6.7854064 6.1760665 6.7590918 6.1562566 6.7307228 6.1447236 C 6.7023538 6.1331906 6.6747066 6.1265839 6.6408076 6.1230199 C 6.5730106 6.1158899 6.4775855 6.1152686 6.3106017 6.1152686 L 6.0393058 6.1152686 L 6.0393058 5.8672266 C 6.0393058 5.7142802 6.0381699 5.6236641 6.0310377 5.5566574 C 6.0239005 5.4896508 6.0042253 5.4329095 5.9747115 5.3964636 C 5.9260008 5.3363085 5.8530831 5.3065477 5.7829957 5.3065484 z M 11.058539 6.1152686 C 10.658664 6.1152733 10.433214 6.1174799 10.29891 6.1230199 C 10.23159 6.1257999 10.185865 6.1276863 10.148535 6.1349053 C 10.111205 6.1421253 10.074131 6.1584841 10.048801 6.1814131 C 9.936511 6.283049 9.9429204 6.4629021 10.068438 6.5508924 C 10.108898 6.5792314 10.120804 6.5723373 10.142334 6.5762133 C 10.163864 6.5800933 10.187976 6.5832716 10.216746 6.5860316 C 10.274286 6.5915416 10.348396 6.5959653 10.435333 6.5994673 C 10.609206 6.6064673 10.833077 6.6092856 11.056472 6.6092856 C 11.279866 6.6092856 11.501669 6.6064773 11.675543 6.5994673 C 11.762483 6.5959673 11.837109 6.5915436 11.894647 6.5860316 C 11.923417 6.5832816 11.94908 6.5800933 11.97061 6.5762133 C 11.99214 6.5723333 12.002495 6.5792334 12.042955 6.5508924 C 12.161773 6.4676584 12.169209 6.2979641 12.074477 6.1932985 C 12.056267 6.1731755 12.015711 6.1478226 11.978361 6.1385226 C 11.941001 6.1292226 11.900815 6.1260439 11.835737 6.1230199 C 11.705575 6.1169699 11.481141 6.1152686 11.060606 6.1152686 L 11.058539 6.1152686 z M 5.1856279 10.347485 C 5.0478986 10.347485 4.9355189 10.451718 4.9355189 10.59191 C 4.9355189 10.592524 4.9377429 10.613888 4.9396529 10.620848 C 4.9415629 10.627848 4.9434772 10.634614 4.9453372 10.638934 C 4.9490572 10.647534 4.9518055 10.652504 4.9551555 10.658054 C 4.9618455 10.669154 4.9683145 10.678966 4.9763425 10.689576 C 4.9923995 10.710786 5.0138517 10.734992 5.0388697 10.763472 C 5.0889067 10.820432 5.1563267 10.892086 5.2305855 10.966557 L 5.4238516 11.160339 L 5.2305855 11.355672 C 5.1560595 11.431212 5.0876424 11.50516 5.0373195 11.564441 C 5.0121575 11.594081 4.9910592 11.619701 4.9747922 11.642471 C 4.9666622 11.653851 4.9597685 11.663473 4.9530885 11.675543 C 4.9497485 11.681543 4.9467002 11.688307 4.9432702 11.697247 C 4.9415602 11.701747 4.9391759 11.708147 4.9375859 11.714817 C 4.9359959 11.721517 4.9355189 11.739398 4.9355189 11.740138 C 4.9355189 11.814418 4.9596482 11.852025 5.0001132 11.896714 C 5.0562792 11.958774 5.1167804 11.972677 5.1892452 11.972677 C 5.2418102 11.972677 5.3040621 11.948686 5.3592573 11.906016 C 5.4144523 11.863346 5.4791706 11.800415 5.5840453 11.69518 C 5.6511373 11.62786 5.7142596 11.565042 5.7618088 11.521551 C 5.7701588 11.513951 5.7741874 11.510441 5.7814454 11.503981 C 5.7890554 11.510681 5.7937954 11.513471 5.8026324 11.521551 C 5.8502654 11.565031 5.9154061 11.627895 5.9824628 11.69518 C 6.0843026 11.797368 6.1503773 11.859499 6.2051838 11.902398 C 6.2599908 11.945298 6.3153292 11.972677 6.3710619 11.972677 C 6.503342 11.972677 6.6309893 11.883723 6.6309893 11.742205 C 6.6309893 11.680365 6.611362 11.670075 6.59585 11.646605 C 6.580338 11.623135 6.561233 11.598915 6.53694 11.570125 C 6.488589 11.512815 6.4184682 11.440567 6.3338556 11.355672 L 6.3338556 11.353605 L 6.1426566 11.160339 L 6.3338556 10.966557 C 6.4082396 10.891957 6.4769235 10.820586 6.5271217 10.763472 C 6.5522207 10.734912 6.5719927 10.710836 6.5880987 10.689576 C 6.5961487 10.678946 6.6046466 10.669164 6.6113526 10.658054 C 6.6147026 10.652454 6.6174409 10.647048 6.6211709 10.638418 C 6.6230309 10.634118 6.6249352 10.627818 6.6268552 10.620848 C 6.6287752 10.613848 6.6309893 10.59253 6.6309893 10.59191 C 6.6309893 10.451719 6.5186069 10.347485 6.3808802 10.347485 C 6.3275142 10.347485 6.268836 10.373623 6.2129352 10.416213 C 6.1570342 10.458803 6.0905082 10.522612 5.9845298 10.627049 C 5.9160608 10.694519 5.850649 10.754895 5.8026324 10.798611 C 5.7943424 10.806211 5.7902117 10.809761 5.7829957 10.816181 C 5.7757757 10.809781 5.7721688 10.806161 5.7638758 10.798611 C 5.715844 10.754936 5.6504473 10.694519 5.5819783 10.627049 C 5.476024 10.522639 5.4093479 10.458798 5.353573 10.416213 C 5.2977981 10.373627 5.2389984 10.347485 5.1856279 10.347485 z "/>
  <ellipse style="fill:none;stroke:#000000;stroke-width:0.582072;stroke-dasharray:none;stroke-opacity:1;filter:url(#filter3-8)" id="path1-5-7" cx="8.4450111" cy="8.423522" rx="6.8752708" ry="6.8578653" transform="matrix(0.4782969,0,0,0.4782969,8.9000071,8.8280171)"/>
  <ellipse style="fill:currentColor;fill-opacity:1;stroke:currentColor;stroke-width:0.278402;stroke-dasharray:none;stroke-opacity:1" id="path1-59" cx="12.939234" cy="12.856965" rx="3.2884204" ry="3.2800953" class="ColorScheme-Text"/>
  <ellipse style="fill:currentColor;stroke:none;stroke-width:0.246622;stroke-dasharray:none;stroke-opacity:1" id="path1-2-2" cx="12.939234" cy="12.856965" rx="2.9130225" ry="2.9056478" class="ColorScheme-Highlight"/>
  <path id="path2-0-7" style="fill:#000000;fill-opacity:1;stroke:none;stroke-width:0.023616;stroke-opacity:1;opacity:0.3" d="m 11.316536,12.493408 v 0.248196 0.247785 h 1.665171 1.664759 v -0.247785 -0.248196 h -1.664759 z m 0,1.464151 v 0.248195 0.247786 h 1.665171 1.664759 v -0.247786 -0.248195 h -1.664759 z"/>
  <path id="path2-0" style="opacity:1;fill:currentColor;fill-opacity:1;stroke:none;stroke-width:0.023616;stroke-opacity:1" d="m 11.316536,11.964252 v 0.248196 0.247785 h 1.665171 1.664759 v -0.247785 -0.248196 h -1.664759 z m 0,1.464151 v 0.248195 0.247786 h 1.665171 1.664759 v -0.247786 -0.248195 h -1.664759 z" class="ColorScheme-Text"/>
<path id="gradient-path1" style="opacity:0.3;baseline-shift:baseline;display:inline;overflow:visible;vector-effect:none;enable-background:accumulate;stop-color:#000000;stop-opacity:1;fill:url(#linearGradient5)" d="M 8.4453131 1.2753492 C 4.4913166 1.2753492 1.2794833 4.4784283 1.2794833 8.4236094 C 1.2794833 12.36879 4.4913166 15.572386 8.4453131 15.572386 C 9.1638027 15.572386 9.8576697 15.466358 10.51233 15.269568 C 11.133159 15.890536 11.991864 16.275172 12.939524 16.275172 C 14.830708 16.275172 16.367154 14.744327 16.367154 12.85736 C 16.367154 11.897867 15.969699 11.029882 15.330545 10.408462 C 15.513101 9.7781514 15.611143 9.1121932 15.611143 8.4236094 C 15.611143 4.4784283 12.39931 1.2753492 8.4453131 1.2753492 z "/>
</svg>
