<?xml version="1.0" encoding="UTF-8" standalone="no"?>
<svg
   width="64"
   height="64"
   version="1.1"
   viewBox="0 0 16.933 16.933"
   id="svg7"
   sodipodi:docname="org.gnome.DiskUtility.svg"
   inkscape:version="1.4.2 (ebf0e940d0, 2025-05-08)"
   xmlns:inkscape="http://www.inkscape.org/namespaces/inkscape"
   xmlns:sodipodi="http://sodipodi.sourceforge.net/DTD/sodipodi-0.dtd"
   xmlns:xlink="http://www.w3.org/1999/xlink"
   xmlns="http://www.w3.org/2000/svg"
   xmlns:svg="http://www.w3.org/2000/svg"
   xmlns:rdf="http://www.w3.org/1999/02/22-rdf-syntax-ns#"
   xmlns:cc="http://creativecommons.org/ns#"
   xmlns:dc="http://purl.org/dc/elements/1.1/">
  <sodipodi:namedview
     id="namedview7"
     pagecolor="#9c4444"
     bordercolor="#000000"
     borderopacity="0.25"
     inkscape:showpageshadow="2"
     inkscape:pageopacity="0.0"
     inkscape:pagecheckerboard="0"
     inkscape:deskcolor="#d1d1d1"
     inkscape:zoom="8.7062522"
     inkscape:cx="72.304361"
     inkscape:cy="15.276378"
     inkscape:window-width="2560"
     inkscape:window-height="1388"
     inkscape:window-x="0"
     inkscape:window-y="0"
     inkscape:window-maximized="1"
     inkscape:current-layer="svg7"
     showgrid="false" />
  <defs
     id="defs2">
    <filter
       style="color-interpolation-filters:sRGB;"
       inkscape:label="Blur"
       id="filter3"
       x="-0.10843471"
       y="-0.10870992"
       width="1.2168694"
       height="1.2174198">
      <feGaussianBlur
         stdDeviation="0.5 0.5"
         result="blur"
         id="feGaussianBlur3" />
    </filter>
    <style
       id="current-color-scheme"
       type="text/css">.ColorScheme-Text {color:#d8dee9} .ColorScheme-Highlight {color:#3b4252}</style>
    <linearGradient
       id="linearGradient3"
       inkscape:collect="always">
      <stop
         style="stop-color:#000000;stop-opacity:1;"
         offset="0"
         id="stop3" />
      <stop
         style="stop-color:#000000;stop-opacity:0;"
         offset="1"
         id="stop4" />
    </linearGradient>
    <linearGradient
       inkscape:collect="always"
       xlink:href="#linearGradient3"
       id="linearGradient4"
       x1="13.512321"
       y1="13.490874"
       x2="3.3783066"
       y2="3.3568602"
       gradientUnits="userSpaceOnUse" />
  </defs>
  <metadata
     id="metadata2">
    <rdf:RDF>
      <cc:Work
         rdf:about="">
        <dc:format>image/svg+xml</dc:format>
        <dc:type
           rdf:resource="http://purl.org/dc/dcmitype/StillImage" />
      </cc:Work>
    </rdf:RDF>
  </metadata>
  <ellipse
     style="opacity:1;fill:none;stroke:#000000;stroke-width:0.582072;stroke-dasharray:none;stroke-opacity:1;filter:url(#filter3)"
     id="path1-5"
     cx="8.4450111"
     cy="8.423522"
     rx="6.8752708"
     ry="6.8578653" />
  <ellipse
     style="opacity:1;fill:none;stroke-width:0.58207188;stroke-opacity:1;stroke:currentColor;stroke-dasharray:none;fill-opacity:1"
     id="path1"
     cx="8.4450111"
     cy="8.423522"
     rx="6.8752708"
     ry="6.8578653"
     class="ColorScheme-Text" />
  <ellipse
     style="fill:currentColor;stroke:none;stroke-width:0.285844;stroke-dasharray:none;stroke-opacity:1"
     id="path1-2"
     cx="8.4557552"
     cy="8.423522"
     rx="6.5738997"
     ry="6.5692253"
     class="ColorScheme-Highlight" />
  <path
     id="path5-3"
     style="display:inline;opacity:0.3;fill:#000000;fill-opacity:1;stroke:none;stroke-width:0.000789498px;stroke-linecap:butt;stroke-linejoin:miter;stroke-miterlimit:4;stroke-dasharray:none;stroke-dashoffset:0;stroke-opacity:1;marker:none;marker-start:none;marker-mid:none;marker-end:none;paint-order:normal;enable-background:new"
     d="m 5.9110741,5.0269844 c -0.314092,0 -0.566953,0.2673017 -0.566953,0.5993423 v 6.1717053 c 0,0.33204 0.252861,0.599343 0.566953,0.599343 h 4.5356249 c 0.09588,0 0.186051,-0.02488 0.265067,-0.06893 -0.105165,-0.04471 -0.208814,-0.113723 -0.305346,-0.210254 L 9.7324711,11.444655 c -0.430251,0.330783 -0.968924,0.527504 -1.553584,0.527504 -1.409039,0 -2.55129,-1.142251 -2.55129,-2.5512883 0.001,-0.6280409 0.180059,-1.2336454 0.599759,-1.7008592 0.06998,-0.077858 0.108721,-0.1787926 0.108933,-0.2834768 0,-0.23484 -0.190375,-0.4252149 -0.425215,-0.4252149 -0.157046,0 -0.283477,-0.1264308 -0.283477,-0.2834768 V 6.16089 c 0,-0.1570461 0.126431,-0.2834763 0.283477,-0.2834763 a 0.28347658,0.28347658 0 0 1 -0.283477,-0.2834768 0.28347658,0.28347658 0 0 1 0.283477,-0.2834768 0.28347658,0.28347658 0 0 1 0.283477,0.2834768 0.28347658,0.28347658 0 0 1 -0.283477,0.2834768 c 0.23484,0 0.425215,-0.1903754 0.425215,-0.4252149 0,-0.157046 0.126431,-0.2834768 0.283477,-0.2834768 h 3.118242 c 0.157046,0 0.2834769,0.1264308 0.2834769,0.2834768 0,0.2348395 0.190374,0.4252149 0.425214,0.4252149 a 0.28347658,0.28347658 0 0 1 -0.283476,-0.2834768 0.28347658,0.28347658 0 0 1 0.283476,-0.2834768 0.28347658,0.28347658 0 0 1 0.283477,0.2834768 0.28347658,0.28347658 0 0 1 -0.283477,0.2834768 c 0.157045,6e-7 0.283477,0.1264308 0.283477,0.2834763 v 0.566953 c 0,0.157046 -0.126431,0.2834768 -0.283477,0.2834768 -0.23484,0 -0.425214,0.1903749 -0.425214,0.4252149 1.69e-4,0.1046751 0.03898,0.2056093 0.108933,0.2834768 0.419863,0.4671472 0.598631,1.0727587 0.599758,1.7008592 0,0.2817183 -0.04565,0.5527444 -0.129973,0.8061363 l 0.413449,0.413173 V 5.6263267 c 0,-0.3320406 -0.25286,-0.5993423 -0.566953,-0.5993423 z m 0,0.4252149 a 0.14173829,0.14173829 0 0 0 -0.141738,0.1417381 0.14173829,0.14173829 0 0 0 0.141738,0.1417381 0.14173829,0.14173829 0 0 0 0.141738,-0.1417381 0.14173829,0.14173829 0 0 0 -0.141738,-0.1417381 z m 4.5356249,0 A 0.14173829,0.14173829 0 0 0 10.304961,5.5939374 0.14173829,0.14173829 0 0 0 10.446699,5.7356755 0.14173829,0.14173829 0 0 0 10.588438,5.5939374 0.14173829,0.14173829 0 0 0 10.446699,5.4521993 Z M 7.9945161,7.2856612 c -0.159875,0 -0.314713,0.036691 -0.457604,0.086372 l 0.754507,0.7525694 c 0.155077,0.1546478 0.155077,0.4003936 0,0.55505 l -0.284445,0.2837529 c -0.155078,0.1546478 -0.401634,0.1546478 -0.556711,0 L 6.6956181,8.2108362 c -0.04982,0.1424923 -0.08665,0.2970593 -0.08665,0.4564972 0,0.7631167 0.620331,1.3818096 1.385547,1.3818096 0.159876,0 0.314851,-0.0367 0.457743,-0.086372 L 10.50774,12.016869 c 0.660672,0.660674 1.488812,-0.191423 0.853613,-0.826622 L 9.2935521,9.1238302 c 0.04982,-0.1424924 0.08651,-0.2970587 0.08651,-0.4564965 0,-0.7631171 -0.620331,-1.3816719 -1.385548,-1.3816719 z m -2.083442,0.00914 a 0.28347658,0.28347658 0 0 1 0.283477,0.2834762 0.28347658,0.28347658 0 0 1 -0.283477,0.2834768 0.28347658,0.28347658 0 0 1 -0.283477,-0.2834768 0.28347658,0.28347658 0 0 1 0.283477,-0.2834762 z m 4.5356249,0 A 0.28347658,0.28347658 0 0 1 10.730176,7.5782774 0.28347658,0.28347658 0 0 1 10.446699,7.8617542 0.28347658,0.28347658 0 0 1 10.163223,7.5782774 0.28347658,0.28347658 0 0 1 10.446699,7.2948012 Z M 5.9110741,7.4365393 a 0.14173829,0.14173829 0 0 0 -0.141738,0.1417381 0.14173829,0.14173829 0 0 0 0.141738,0.1417387 0.14173829,0.14173829 0 0 0 0.141738,-0.1417387 0.14173829,0.14173829 0 0 0 -0.141738,-0.1417381 z m 4.5356249,0 A 0.14173829,0.14173829 0 0 0 10.304961,7.5782774 0.14173829,0.14173829 0 0 0 10.446699,7.7200161 0.14173829,0.14173829 0 0 0 10.588438,7.5782774 0.14173829,0.14173829 0 0 0 10.446699,7.4365393 Z M 5.9110741,11.546949 a 0.28347658,0.28347658 0 0 1 0.283477,0.283477 0.28347658,0.28347658 0 0 1 -0.283477,0.283477 0.28347658,0.28347658 0 0 1 -0.283477,-0.283477 0.28347658,0.28347658 0 0 1 0.283477,-0.283477 z m 0,0.141739 a 0.14173829,0.14173829 0 0 0 -0.141738,0.141738 0.14173829,0.14173829 0 0 0 0.141738,0.141738 0.14173829,0.14173829 0 0 0 0.141738,-0.141738 0.14173829,0.14173829 0 0 0 -0.141738,-0.141738 z m -0.566953,0.283476 v 0.425215 c 0,0.314092 0.252861,0.566953 0.566953,0.566953 h 4.5356249 c 0.314093,0 0.566953,-0.252861 0.566953,-0.566953 v -0.0044 c -0.05429,-5.63e-4 -0.109653,-0.0071 -0.165268,-0.01993 -0.10251,0.102723 -0.244425,0.1661 -0.401685,0.1661 H 5.9110741 c -0.314092,0 -0.566953,-0.252861 -0.566953,-0.566953 z" />
  <path
     id="path5-3-6"
     style="display:inline;fill:currentColor;fill-opacity:1;stroke:none;stroke-width:0.000789498px;stroke-linecap:butt;stroke-linejoin:miter;stroke-miterlimit:4;stroke-dasharray:none;stroke-dashoffset:0;stroke-opacity:1;marker:none;marker-start:none;marker-mid:none;marker-end:none;paint-order:normal;enable-background:new"
     d="m 5.9110741,4.4978258 c -0.314092,0 -0.566953,0.2673017 -0.566953,0.5993423 v 6.1717059 c 0,0.33204 0.252861,0.599342 0.566953,0.599342 h 4.5356249 c 0.09588,0 0.186051,-0.02488 0.265067,-0.06893 -0.105165,-0.04471 -0.208814,-0.113722 -0.305346,-0.210253 L 9.7324711,10.915497 c -0.430251,0.330783 -0.968924,0.527504 -1.553584,0.527504 -1.409039,0 -2.55129,-1.142251 -2.55129,-2.5512889 0.001,-0.6280409 0.180059,-1.2336454 0.599759,-1.7008592 0.06998,-0.077858 0.108721,-0.1787926 0.108933,-0.2834768 0,-0.23484 -0.190375,-0.4252149 -0.425215,-0.4252149 -0.157046,0 -0.283477,-0.1264308 -0.283477,-0.2834768 v -0.566953 c 0,-0.1570461 0.126431,-0.2834763 0.283477,-0.2834763 a 0.28347658,0.28347658 0 0 1 -0.283477,-0.2834768 0.28347658,0.28347658 0 0 1 0.283477,-0.2834768 0.28347658,0.28347658 0 0 1 0.283477,0.2834768 0.28347658,0.28347658 0 0 1 -0.283477,0.2834768 c 0.23484,0 0.425215,-0.1903754 0.425215,-0.4252149 0,-0.1570459 0.126431,-0.2834768 0.283477,-0.2834768 h 3.118242 c 0.157046,0 0.2834769,0.1264309 0.2834769,0.2834768 0,0.2348395 0.190374,0.4252149 0.425214,0.4252149 a 0.28347658,0.28347658 0 0 1 -0.283476,-0.2834768 0.28347658,0.28347658 0 0 1 0.283476,-0.2834768 0.28347658,0.28347658 0 0 1 0.283477,0.2834768 0.28347658,0.28347658 0 0 1 -0.283477,0.2834768 c 0.157045,6e-7 0.283477,0.1264308 0.283477,0.2834763 v 0.566953 c 0,0.157046 -0.126431,0.2834768 -0.283477,0.2834768 -0.23484,0 -0.425214,0.1903749 -0.425214,0.4252149 1.69e-4,0.1046751 0.03898,0.2056093 0.108933,0.2834768 0.419863,0.4671472 0.598631,1.0727588 0.599758,1.7008592 0,0.2817184 -0.04565,0.5527445 -0.129973,0.8061363 l 0.413449,0.4131726 V 5.0971681 c 0,-0.3320406 -0.25286,-0.5993423 -0.566953,-0.5993423 z m 0,0.4252149 a 0.14173829,0.14173829 0 0 0 -0.141738,0.1417381 0.14173829,0.14173829 0 0 0 0.141738,0.1417381 0.14173829,0.14173829 0 0 0 0.141738,-0.1417381 0.14173829,0.14173829 0 0 0 -0.141738,-0.1417381 z m 4.5356249,0 A 0.14173829,0.14173829 0 0 0 10.304961,5.0647788 0.14173829,0.14173829 0 0 0 10.446699,5.2065169 0.14173829,0.14173829 0 0 0 10.588438,5.0647788 0.14173829,0.14173829 0 0 0 10.446699,4.9230407 Z M 7.9945161,6.7565026 c -0.159875,0 -0.314713,0.036691 -0.457604,0.086372 l 0.754507,0.7525694 c 0.155077,0.1546478 0.155077,0.4003936 0,0.55505 l -0.284445,0.2837529 c -0.155078,0.1546478 -0.401634,0.1546478 -0.556711,0 L 6.6956181,7.6816776 c -0.04982,0.1424923 -0.08665,0.2970593 -0.08665,0.4564972 0,0.7631167 0.620331,1.3818095 1.385547,1.3818095 0.159876,0 0.314851,-0.036702 0.457743,-0.086372 L 10.50774,11.487711 c 0.660672,0.660673 1.488812,-0.191424 0.853613,-0.826622 L 9.2935521,8.5946716 c 0.04982,-0.1424924 0.08651,-0.2970587 0.08651,-0.4564965 0,-0.7631171 -0.620331,-1.3816719 -1.385548,-1.3816719 z m -2.083442,0.00914 a 0.28347658,0.28347658 0 0 1 0.283477,0.2834762 0.28347658,0.28347658 0 0 1 -0.283477,0.2834768 0.28347658,0.28347658 0 0 1 -0.283477,-0.2834768 0.28347658,0.28347658 0 0 1 0.283477,-0.2834762 z m 4.5356249,0 A 0.28347658,0.28347658 0 0 1 10.730176,7.0491188 0.28347658,0.28347658 0 0 1 10.446699,7.3325956 0.28347658,0.28347658 0 0 1 10.163223,7.0491188 0.28347658,0.28347658 0 0 1 10.446699,6.7656426 Z M 5.9110741,6.9073807 a 0.14173829,0.14173829 0 0 0 -0.141738,0.1417381 0.14173829,0.14173829 0 0 0 0.141738,0.1417387 0.14173829,0.14173829 0 0 0 0.141738,-0.1417387 0.14173829,0.14173829 0 0 0 -0.141738,-0.1417381 z m 4.5356249,0 A 0.14173829,0.14173829 0 0 0 10.304961,7.0491188 0.14173829,0.14173829 0 0 0 10.446699,7.1908575 0.14173829,0.14173829 0 0 0 10.588438,7.0491188 0.14173829,0.14173829 0 0 0 10.446699,6.9073807 Z M 5.9110741,11.017791 a 0.28347658,0.28347658 0 0 1 0.283477,0.283476 0.28347658,0.28347658 0 0 1 -0.283477,0.283477 0.28347658,0.28347658 0 0 1 -0.283477,-0.283477 0.28347658,0.28347658 0 0 1 0.283477,-0.283476 z m 0,0.141738 a 0.14173829,0.14173829 0 0 0 -0.141738,0.141738 0.14173829,0.14173829 0 0 0 0.141738,0.141739 0.14173829,0.14173829 0 0 0 0.141738,-0.141739 0.14173829,0.14173829 0 0 0 -0.141738,-0.141738 z m -0.566953,0.283477 v 0.425215 c 0,0.314092 0.252861,0.566953 0.566953,0.566953 h 4.5356249 c 0.314093,0 0.566953,-0.252861 0.566953,-0.566953 v -0.0044 c -0.05429,-5.62e-4 -0.109653,-0.0071 -0.165268,-0.01993 -0.10251,0.102724 -0.244425,0.1661 -0.401685,0.1661 H 5.9110741 c -0.314092,0 -0.566953,-0.252861 -0.566953,-0.566953 z"
     class="ColorScheme-Text" />
  <path
     id="gradient-path1"
     style="opacity:0.3;baseline-shift:baseline;display:inline;overflow:visible;vector-effect:none;enable-background:accumulate;stop-color:#000000;stop-opacity:1;fill:url(#linearGradient4)"
     d="M 8.4453131 1.2753492 C 4.4913166 1.2753492 1.2794833 4.4784283 1.2794833 8.4236094 C 1.2794833 12.36879 4.4913166 15.572386 8.4453131 15.572386 C 12.39931 15.572386 15.611143 12.36879 15.611143 8.4236094 C 15.611143 4.4784283 12.39931 1.2753492 8.4453131 1.2753492 z " />
</svg>
