<?xml version="1.0" encoding="UTF-8" standalone="no"?>
<svg
   width="64"
   height="64"
   version="1.1"
   viewBox="0 0 16.933 16.933"
   id="svg7"
   sodipodi:docname="qpwgraph.svg"
   inkscape:version="1.4.2 (ebf0e940d0, 2025-05-08)"
   xmlns:inkscape="http://www.inkscape.org/namespaces/inkscape"
   xmlns:sodipodi="http://sodipodi.sourceforge.net/DTD/sodipodi-0.dtd"
   xmlns:xlink="http://www.w3.org/1999/xlink"
   xmlns="http://www.w3.org/2000/svg"
   xmlns:svg="http://www.w3.org/2000/svg"
   xmlns:rdf="http://www.w3.org/1999/02/22-rdf-syntax-ns#"
   xmlns:cc="http://creativecommons.org/ns#"
   xmlns:dc="http://purl.org/dc/elements/1.1/">
  <sodipodi:namedview
     id="namedview7"
     pagecolor="#9c4444"
     bordercolor="#000000"
     borderopacity="0.25"
     inkscape:showpageshadow="2"
     inkscape:pageopacity="0.0"
     inkscape:pagecheckerboard="0"
     inkscape:deskcolor="#d1d1d1"
     inkscape:zoom="6.1562498"
     inkscape:cx="58.233504"
     inkscape:cy="63.512692"
     inkscape:window-width="2560"
     inkscape:window-height="1392"
     inkscape:window-x="0"
     inkscape:window-y="0"
     inkscape:window-maximized="1"
     inkscape:current-layer="svg7"
     showgrid="false" />
  <defs
     id="defs2">
    <filter
       style="color-interpolation-filters:sRGB;"
       inkscape:label="Blur"
       id="filter3"
       x="-0.10843471"
       y="-0.10870992"
       width="1.2168694"
       height="1.2174198">
      <feGaussianBlur
         stdDeviation="0.5 0.5"
         result="blur"
         id="feGaussianBlur3" />
    </filter>
    <style
       id="current-color-scheme"
       type="text/css">.ColorScheme-Text {color:#d8dee9} .ColorScheme-Highlight {color:#3b4252}</style>
    <linearGradient
       id="linearGradient3"
       inkscape:collect="always">
      <stop
         style="stop-color:#000000;stop-opacity:1;"
         offset="0"
         id="stop3" />
      <stop
         style="stop-color:#000000;stop-opacity:0;"
         offset="1"
         id="stop4" />
    </linearGradient>
    <linearGradient
       inkscape:collect="always"
       xlink:href="#linearGradient3"
       id="linearGradient4"
       x1="13.512321"
       y1="13.490874"
       x2="3.3783066"
       y2="3.3568602"
       gradientUnits="userSpaceOnUse" />
  </defs>
  <metadata
     id="metadata2">
    <rdf:RDF>
      <cc:Work
         rdf:about="">
        <dc:format>image/svg+xml</dc:format>
        <dc:type
           rdf:resource="http://purl.org/dc/dcmitype/StillImage" />
      </cc:Work>
    </rdf:RDF>
  </metadata>
  <ellipse
     style="opacity:1;fill:none;stroke:#000000;stroke-width:0.582072;stroke-dasharray:none;stroke-opacity:1;filter:url(#filter3)"
     id="path1-5"
     cx="8.4450111"
     cy="8.423522"
     rx="6.8752708"
     ry="6.8578653" />
  <ellipse
     style="opacity:1;fill:none;stroke-width:0.58207188;stroke-opacity:1;stroke:currentColor;stroke-dasharray:none;fill-opacity:1"
     id="path1"
     cx="8.4450111"
     cy="8.423522"
     rx="6.8752708"
     ry="6.8578653"
     class="ColorScheme-Text" />
  <ellipse
     style="fill:currentColor;stroke:none;stroke-width:0.285844;stroke-dasharray:none;stroke-opacity:1"
     id="path1-2"
     cx="8.4557552"
     cy="8.423522"
     rx="6.5738997"
     ry="6.5692253"
     class="ColorScheme-Highlight" />
  <path
     d="m 5.134808,5.4817942 c -0.349087,0 -0.636464,0.2873773 -0.636464,0.6364645 0,0.3490871 0.287377,0.6359479 0.636464,0.6359479 0.349087,0 0.635949,-0.2866026 0.635949,-0.6359479 0,-0.3493455 -0.286603,-0.6364645 -0.635949,-0.6364645 m 6.664415,0 a 0.63930465,0.63930465 0 0 0 -0.636464,0.6364645 0.63904643,0.63904643 0 0 0 0.636464,0.6359479 c 0.349087,0 0.635949,-0.2866026 0.635949,-0.6359479 0,-0.3493455 -0.286603,-0.6364645 -0.635949,-0.6364645 M 5.869647,5.6638256 c 0.08443,0.1334896 0.134265,0.2902174 0.134265,0.4575314 0,0.164732 -0.04854,0.3191359 -0.13065,0.4513346 h 0.624845 c 1.3633,1.8174739 1.059914,1.9687795 1.059914,1.9687795 H 5.869647 c 0.08443,0.1332316 0.134265,0.2899592 0.134265,0.4572732 0,0.1647321 -0.04829,0.3193942 -0.130134,0.4513347 h 1.684243 c 0,0 0.303128,0.1518219 -1.060171,1.969296 H 5.869647 c 0.08417,0.13349 0.134265,0.290217 0.134265,0.457532 0,0.164731 -0.04829,0.319135 -0.130134,0.451334 h 0.926941 c 2.877644,-3.3320787 0.454433,-3.3320787 3.332077,0 h 0.933138 A 0.85206194,0.85206194 0 0 1 10.9358,11.876907 c 0,-0.167315 0.04983,-0.324042 0.134265,-0.457532 H 10.435924 C 9.072626,9.6016428 9.375495,9.450079 9.375495,9.450079 h 1.690439 A 0.85206194,0.85206194 0 0 1 10.935542,8.9987443 c 0,-0.167314 0.04983,-0.3240416 0.134265,-0.4572732 H 9.375236 c 0,0 -0.30261,-0.1513056 1.06043,-1.9687795 h 0.630526 A 0.85206194,0.85206194 0 0 1 10.935542,6.121357 c 0,-0.167314 0.04983,-0.3240418 0.134265,-0.4575313 h -0.937268 c -2.877904,3.3320784 -0.454434,3.3320784 -3.332336,0 z m -0.734839,0.181515 c 0.152854,0 0.272402,0.1200633 0.272402,0.2729181 0,0.1528547 -0.119548,0.2721433 -0.272402,0.2721433 -0.152853,0 -0.27266,-0.1195469 -0.27266,-0.2721433 0,-0.1525966 0.120064,-0.2729181 0.27266,-0.2729181 m 6.664415,0 c 0.152856,0 0.272402,0.1200633 0.272402,0.2729181 0,0.1528547 -0.119546,0.2721433 -0.272402,0.2721433 -0.152855,0 -0.27266,-0.1195469 -0.27266,-0.2721433 0,-0.1525966 0.120063,-0.2729181 0.27266,-0.2729181 M 5.135067,8.3599561 A 0.63904643,0.63904643 0 0 0 4.498344,8.9956459 0.63930465,0.63930465 0 0 0 5.134808,9.6321103 0.63904643,0.63904643 0 0 0 5.770757,8.9956459 0.63853009,0.63853009 0 0 0 5.134808,8.3599561 m 6.664157,0 A 0.63904643,0.63904643 0 0 0 11.162501,8.9956459 0.63930465,0.63930465 0 0 0 11.798965,9.6321103 0.63904643,0.63904643 0 0 0 12.434913,8.9956459 0.63853009,0.63853009 0 0 0 11.798965,8.3599561 M 5.134808,8.7235025 c 0.152338,0 0.272143,0.1195469 0.272143,0.2721434 0,0.1525966 -0.119545,0.2729181 -0.272401,0.2729181 -0.152854,0 -0.27266,-0.1200634 -0.27266,-0.2729181 0,-0.1528546 0.120065,-0.2721434 0.27266,-0.2721434 m 6.664157,0 c 0.152855,0 0.272401,0.1195469 0.272401,0.2721434 0,0.1525966 -0.119546,0.2729181 -0.272401,0.2729181 -0.152855,0 -0.27266,-0.1200634 -0.27266,-0.2729181 0,-0.1528546 0.120063,-0.2721434 0.27266,-0.2721434 M 5.13455,11.237343 A 0.63930465,0.63930465 0 0 0 4.497828,11.873808 0.63904643,0.63904643 0 0 0 5.134292,12.509756 0.63853009,0.63853009 0 0 0 5.77024,11.873808 0.63904643,0.63904643 0 0 0 5.134292,11.237343 m 6.664156,0 a 0.63930465,0.63930465 0 0 0 -0.636463,0.636465 0.63904643,0.63904643 0 0 0 0.636463,0.635948 0.63853009,0.63853009 0 0 0 0.635949,-0.635948 0.63904643,0.63904643 0 0 0 -0.635949,-0.636465 m -6.664156,0.363546 c 0.152338,0 0.272143,0.120064 0.272143,0.272919 0,0.152855 -0.119547,0.272402 -0.272401,0.272402 a 0.26981962,0.26981962 0 0 1 -0.27266,-0.272402 c 0,-0.152855 0.120063,-0.272919 0.27266,-0.272919 m 6.664156,0 c 0.152855,0 0.272402,0.120064 0.272402,0.272919 0,0.152855 -0.119547,0.272402 -0.272402,0.272402 -0.152855,0 -0.272659,-0.119806 -0.272659,-0.272402 0,-0.152855 0.120063,-0.272919 0.272659,-0.272919"
     id="path1-3"
     style="opacity:0.3;fill:#000000;fill-opacity:1;stroke-width:0.2582" />
  <path
     d="m 5.134808,4.952519 c -0.349087,0 -0.636464,0.2873773 -0.636464,0.6364645 0,0.3490871 0.287377,0.6359479 0.636464,0.6359479 0.349087,0 0.635949,-0.2866026 0.635949,-0.6359479 0,-0.3493455 -0.286603,-0.6364645 -0.635949,-0.6364645 m 6.664415,0 a 0.63930465,0.63930465 0 0 0 -0.636464,0.6364645 0.63904643,0.63904643 0 0 0 0.636464,0.6359479 c 0.349087,0 0.635949,-0.2866026 0.635949,-0.6359479 0,-0.3493455 -0.286603,-0.6364645 -0.635949,-0.6364645 M 5.869647,5.1345504 c 0.08443,0.1334896 0.134265,0.2902174 0.134265,0.4575314 0,0.164732 -0.04854,0.3191359 -0.13065,0.4513346 h 0.624845 c 1.3633,1.8174739 1.059914,1.9687795 1.059914,1.9687795 H 5.869647 c 0.08443,0.1332316 0.134265,0.2899592 0.134265,0.4572732 0,0.1647321 -0.04829,0.3193942 -0.130134,0.4513348 h 1.684243 c 0,0 0.303128,0.151822 -1.060171,1.9692961 H 5.869647 c 0.08417,0.13349 0.134265,0.290217 0.134265,0.457532 0,0.164731 -0.04829,0.319135 -0.130134,0.451334 h 0.926941 c 2.877644,-3.3320789 0.454433,-3.3320789 3.332077,0 h 0.933138 A 0.85206194,0.85206194 0 0 1 10.9358,11.347632 c 0,-0.167315 0.04983,-0.324042 0.134265,-0.457532 H 10.435924 C 9.072626,9.0723679 9.375495,8.9208039 9.375495,8.9208039 h 1.690439 A 0.85206194,0.85206194 0 0 1 10.935542,8.4694691 c 0,-0.167314 0.04983,-0.3240416 0.134265,-0.4572732 H 9.375236 c 0,0 -0.30261,-0.1513056 1.06043,-1.9687795 h 0.630526 a 0.85206194,0.85206194 0 0 1 -0.13065,-0.4513346 c 0,-0.167314 0.04983,-0.3240418 0.134265,-0.4575313 h -0.937268 c -2.877904,3.3320784 -0.454434,3.3320784 -3.332336,0 z m -0.734839,0.181515 c 0.152854,0 0.272402,0.1200633 0.272402,0.2729181 0,0.1528547 -0.119548,0.2721433 -0.272402,0.2721433 -0.152853,0 -0.27266,-0.1195469 -0.27266,-0.2721433 0,-0.1525966 0.120064,-0.2729181 0.27266,-0.2729181 m 6.664415,0 c 0.152856,0 0.272402,0.1200633 0.272402,0.2729181 0,0.1528547 -0.119546,0.2721433 -0.272402,0.2721433 -0.152855,0 -0.27266,-0.1195469 -0.27266,-0.2721433 0,-0.1525966 0.120063,-0.2729181 0.27266,-0.2729181 M 5.135067,7.8306809 A 0.63904643,0.63904643 0 0 0 4.498344,8.4663707 0.63930465,0.63930465 0 0 0 5.134808,9.1028349 0.63904643,0.63904643 0 0 0 5.770757,8.4663707 0.63853009,0.63853009 0 0 0 5.134808,7.8306809 m 6.664157,0 A 0.63904643,0.63904643 0 0 0 11.162501,8.4663707 0.63930465,0.63930465 0 0 0 11.798965,9.1028349 0.63904643,0.63904643 0 0 0 12.434913,8.4663707 0.63853009,0.63853009 0 0 0 11.798965,7.8306809 M 5.134808,8.1942273 c 0.152338,0 0.272143,0.1195469 0.272143,0.2721434 0,0.1525966 -0.119545,0.2729181 -0.272401,0.2729181 -0.152854,0 -0.27266,-0.1200634 -0.27266,-0.2729181 0,-0.1528546 0.120065,-0.2721434 0.27266,-0.2721434 m 6.664157,0 c 0.152855,0 0.272401,0.1195469 0.272401,0.2721434 0,0.1525966 -0.119546,0.2729181 -0.272401,0.2729181 -0.152855,0 -0.27266,-0.1200634 -0.27266,-0.2729181 0,-0.1528546 0.120063,-0.2721434 0.27266,-0.2721434 M 5.13455,10.708068 A 0.63930465,0.63930465 0 0 0 4.497828,11.344533 0.63904643,0.63904643 0 0 0 5.134292,11.980481 0.63853009,0.63853009 0 0 0 5.77024,11.344533 0.63904643,0.63904643 0 0 0 5.134292,10.708068 m 6.664156,0 a 0.63930465,0.63930465 0 0 0 -0.636463,0.636465 0.63904643,0.63904643 0 0 0 0.636463,0.635948 0.63853009,0.63853009 0 0 0 0.635949,-0.635948 0.63904643,0.63904643 0 0 0 -0.635949,-0.636465 m -6.664156,0.363546 c 0.152338,0 0.272143,0.120064 0.272143,0.272919 0,0.152855 -0.119547,0.272402 -0.272401,0.272402 a 0.26981962,0.26981962 0 0 1 -0.27266,-0.272402 c 0,-0.152855 0.120063,-0.272919 0.27266,-0.272919 m 6.664156,0 c 0.152855,0 0.272402,0.120064 0.272402,0.272919 0,0.152855 -0.119547,0.272402 -0.272402,0.272402 -0.152855,0 -0.272659,-0.119806 -0.272659,-0.272402 0,-0.152855 0.120063,-0.272919 0.272659,-0.272919"
     id="path1-3-7"
     style="fill:currentColor;fill-opacity:1;stroke-width:0.2582"
     class="ColorScheme-Text" />
  <path
     id="gradient-path1"
     style="opacity:0.3;baseline-shift:baseline;display:inline;overflow:visible;vector-effect:none;enable-background:accumulate;stop-color:#000000;stop-opacity:1;fill:url(#linearGradient4)"
     d="M 8.4453131 1.2753492 C 4.4913166 1.2753492 1.2794833 4.4784283 1.2794833 8.4236094 C 1.2794833 12.36879 4.4913166 15.572386 8.4453131 15.572386 C 12.39931 15.572386 15.611143 12.36879 15.611143 8.4236094 C 15.611143 4.4784283 12.39931 1.2753492 8.4453131 1.2753492 z " />
</svg>
