<?xml version="1.0" encoding="UTF-8" standalone="no"?>
<svg
   width="64"
   height="64"
   version="1.1"
   viewBox="0 0 16.933 16.933"
   id="svg7"
   sodipodi:docname="org.gnome.SoundJuicer.svg"
   inkscape:version="1.4.2 (ebf0e940d0, 2025-05-08)"
   xmlns:inkscape="http://www.inkscape.org/namespaces/inkscape"
   xmlns:sodipodi="http://sodipodi.sourceforge.net/DTD/sodipodi-0.dtd"
   xmlns:xlink="http://www.w3.org/1999/xlink"
   xmlns="http://www.w3.org/2000/svg"
   xmlns:svg="http://www.w3.org/2000/svg"
   xmlns:rdf="http://www.w3.org/1999/02/22-rdf-syntax-ns#"
   xmlns:cc="http://creativecommons.org/ns#"
   xmlns:dc="http://purl.org/dc/elements/1.1/">
  <sodipodi:namedview
     id="namedview7"
     pagecolor="#9c4444"
     bordercolor="#000000"
     borderopacity="0.25"
     inkscape:showpageshadow="2"
     inkscape:pageopacity="0.0"
     inkscape:pagecheckerboard="0"
     inkscape:deskcolor="#d1d1d1"
     inkscape:zoom="4.3531261"
     inkscape:cx="36.066035"
     inkscape:cy="26.417797"
     inkscape:window-width="2560"
     inkscape:window-height="1392"
     inkscape:window-x="0"
     inkscape:window-y="0"
     inkscape:window-maximized="1"
     inkscape:current-layer="svg7"
     showgrid="false" />
  <defs
     id="defs2">
    <filter
       style="color-interpolation-filters:sRGB;"
       inkscape:label="Blur"
       id="filter3"
       x="-0.10843471"
       y="-0.10870992"
       width="1.2168694"
       height="1.2174198">
      <feGaussianBlur
         stdDeviation="0.5 0.5"
         result="blur"
         id="feGaussianBlur3" />
    </filter>
    <style
       id="current-color-scheme"
       type="text/css">.ColorScheme-Text {color:#d8dee9} .ColorScheme-Highlight {color:#3b4252}</style>
    <linearGradient
       id="linearGradient3"
       inkscape:collect="always">
      <stop
         style="stop-color:#000000;stop-opacity:1;"
         offset="0"
         id="stop3" />
      <stop
         style="stop-color:#000000;stop-opacity:0;"
         offset="1"
         id="stop4" />
    </linearGradient>
    <linearGradient
       inkscape:collect="always"
       xlink:href="#linearGradient3"
       id="linearGradient4"
       x1="13.512321"
       y1="13.490874"
       x2="3.3783066"
       y2="3.3568602"
       gradientUnits="userSpaceOnUse" />
  </defs>
  <metadata
     id="metadata2">
    <rdf:RDF>
      <cc:Work
         rdf:about="">
        <dc:format>image/svg+xml</dc:format>
        <dc:type
           rdf:resource="http://purl.org/dc/dcmitype/StillImage" />
      </cc:Work>
    </rdf:RDF>
  </metadata>
  <ellipse
     style="opacity:1;fill:none;stroke:#000000;stroke-width:0.582072;stroke-dasharray:none;stroke-opacity:1;filter:url(#filter3)"
     id="path1-5"
     cx="8.4450111"
     cy="8.423522"
     rx="6.8752708"
     ry="6.8578653" />
  <ellipse
     style="opacity:1;fill:none;stroke-width:0.58207188;stroke-opacity:1;stroke:currentColor;stroke-dasharray:none;fill-opacity:1"
     id="path1"
     cx="8.4450111"
     cy="8.423522"
     rx="6.8752708"
     ry="6.8578653"
     class="ColorScheme-Text" />
  <ellipse
     style="fill:currentColor;stroke:none;stroke-width:0.285844;stroke-dasharray:none;stroke-opacity:1"
     id="path1-2"
     cx="8.4557552"
     cy="8.423522"
     rx="6.5738997"
     ry="6.5692253"
     class="ColorScheme-Highlight" />
  <path
     d="m 8.0872057,5.1082099 c -1.988852,0 -3.589367,1.6005146 -3.589367,3.5893675 0,1.9702716 1.571232,3.5556416 3.534211,3.5851236 6.66e-4,-0.137209 0.06477,-0.256648 0.148497,-0.347906 0.08337,-0.09087 0.189824,-0.161192 0.309721,-0.216379 0.240431,-0.110668 0.544792,-0.169711 0.878249,-0.169711 0.198734,10e-7 0.376381,0.03102 0.543072,0.07213 V 8.0038876 L 8.9484847,8.2902733 C 8.8730347,8.1318426 8.7562387,7.998736 8.6111857,7.9020615 l 0.859157,-1.593153 c 0.05438,-0.1010657 0.09616,-0.1364819 0.16971,-0.1421323 0.07368,-0.00566 0.20082,0.031287 0.3924553,0.1484964 0.432506,0.2645346 0.56874,0.402828 0.687326,0.7976372 0.06168,0.2053387 0.0836,0.3739366 0.07001,0.485795 -0.0028,0.023068 -0.0082,0.041678 -0.01273,0.059399 0.222127,0.060253 0.4024,0.183265 0.536708,0.3351773 0.164042,0.1855449 0.26863,0.4047483 0.358512,0.615199 C 11.625104,6.6614442 10.04606,5.1082104 8.0872107,5.1082104 Z m 0.167589,0.4624599 c 0.04256,-0.00184 0.08396,-4.753e-4 0.12304,0.00212 0.156023,0.01036 0.292639,0.054522 0.475188,0.1527391 0.189733,0.1020824 0.327097,0.2078596 0.398819,0.299114 0.07172,0.091254 0.08324,0.1508391 0.04455,0.2227443 l -0.848551,1.5676964 c -0.111877,-0.046685 -0.232836,-0.074248 -0.360633,-0.074248 -0.06542,0 -0.128987,0.00622 -0.190924,0.019093 L 7.3829097,6.0564618 c -0.03385,-0.1127108 -0.02972,-0.1736386 0.02121,-0.2333513 0.05094,-0.059713 0.17308,-0.1232098 0.392455,-0.1760742 0.184848,-0.044544 0.330522,-0.070867 0.458217,-0.076369 z m -1.24949,0.3245704 c 0.05292,0.00216 0.08799,0.012572 0.10819,0.025456 0.02019,0.012885 0.03002,0.027262 0.04031,0.06152 l 0.549436,1.841354 c -0.162423,0.07232 -0.300262,0.1882011 -0.400942,0.3330561 -0.165463,-0.085958 -0.333,-0.1730749 -0.498524,-0.2566865 C 6.3453047,7.6683517 5.9270007,7.4516804 5.7685437,7.3335325 5.6318477,7.2316103 5.5839667,7.1587787 5.5776197,7.0726034 c -0.0063,-0.086176 0.03777,-0.2158625 0.154861,-0.4073042 0.263888,-0.4314491 0.396353,-0.558737 0.789152,-0.6767188 0.208109,-0.062508 0.378269,-0.097645 0.483673,-0.093341 z m -1.535876,1.5167835 c 0.02182,-0.00145 0.04438,0.00416 0.07213,0.019092 l 1.663158,0.8994633 c -0.04767,0.1130804 -0.07425,0.2377803 -0.07425,0.366998 0,0.079897 0.01072,0.1568318 0.0297,0.23123 -0.171048,0.054113 -0.344139,0.107814 -0.513372,0.1633459 -0.488043,0.1601457 -0.934569,0.3035473 -1.137057,0.333056 -0.172618,0.025156 -0.270232,0.00623 -0.343661,-0.057277 -0.07343,-0.063512 -0.133558,-0.1932226 -0.186681,-0.4136683 -0.119065,-0.4940922 -0.120178,-0.6932587 0.07637,-1.0585665 0.07756,-0.14415 0.150986,-0.2611748 0.218501,-0.3436628 0.06752,-0.082488 0.128454,-0.1254506 0.173953,-0.135768 0.0075,-0.00171 0.01394,-0.00376 0.02121,-0.00424 z M 10.119484,7.757808 a 0.08545631,0.08545631 0 0 0 -0.06788,0.084855 v 3.956365 c -0.1968503,-0.06769 -0.4255993,-0.110311 -0.6830833,-0.110312 -0.316603,0 -0.604744,0.05746 -0.820972,0.156982 -0.108114,0.04976 -0.198339,0.109592 -0.265172,0.182439 -0.06683,0.07285 -0.110311,0.160597 -0.110311,0.256686 0,0.09609 0.04348,0.185961 0.110311,0.258808 0.06683,0.07285 0.157058,0.132674 0.265172,0.182438 0.216228,0.09953 0.504369,0.156982 0.820972,0.156982 0.316604,0 0.604745,-0.05745 0.8209733,-0.156982 0.108113,-0.04976 0.198338,-0.109592 0.265172,-0.182438 0.06683,-0.07285 0.110311,-0.162719 0.110311,-0.258808 V 8.9648707 c 0.135849,0.013722 0.24116,0.049402 0.326692,0.1103115 0.104455,0.074384 0.193385,0.1808497 0.301235,0.2927499 0.215167,0.2232462 0.518794,0.4560904 1.164636,0.4391247 7.76e-4,-2.1e-5 0.0013,2.18e-5 0.0021,0 7.76e-4,-2.19e-5 0.0013,2.26e-5 0.0021,0 a 0.08545631,0.08545631 0 0 0 -0.0043,-0.1697102 c -7.76e-4,2.1e-6 -0.0013,5e-7 -0.0021,0 C 12.138161,9.6372381 12.007871,9.5417906 11.890797,9.3806603 11.77331,9.2189598 11.681423,8.9907834 11.583198,8.7548545 11.484978,8.5189258 11.378511,8.2752838 11.209836,8.0844998 11.041161,7.8937159 10.80563,7.7602271 10.480083,7.757808 a 0.08545631,0.08545631 0 0 0 -0.0021,0 h -0.341542 a 0.08545631,0.08545631 0 0 0 -0.01697,0 z M 8.0872057,7.9296394 c 0.41982,0 0.765817,0.3481184 0.765817,0.767938 0,0.054065 -0.0061,0.105947 -0.01697,0.1569818 a 0.1389058,0.1389058 0 0 1 0.127283,0.2078947 l -0.161225,0.2736576 c -0.03593,0.061049 -0.03796,0.1037546 -0.02546,0.1760742 0.01169,0.067593 0.04831,0.1586415 0.09971,0.2524434 0.05176,0.094484 0.114236,0.1910195 0.16971,0.2906289 0.05461,0.09806 0.114554,0.210789 0.114554,0.352148 0,0.163864 -0.02299,0.349574 -0.144253,0.502766 -0.124193,0.156891 -0.333048,0.235603 -0.581257,0.229108 -0.241025,-0.0063 -0.437793,-0.08959 -0.564286,-0.235472 -0.125298,-0.144506 -0.166654,-0.324573 -0.171832,-0.490038 -0.0015,-0.04866 -0.02841,-0.299005 0.06576,-0.5706499 0.04346,-0.1253617 0.11419,-0.2579657 0.218501,-0.3882116 -0.371734,-0.051486 -0.66399,-0.3727762 -0.66399,-0.7573311 0,-0.4198196 0.348119,-0.767938 0.767938,-0.767938 z m 0.757331,1.0628091 -0.275778,0.1548603 c -0.398457,0.223615 -0.589029,0.4996653 -0.672477,0.7403604 -0.08345,0.2406948 -0.06151,0.4525568 -0.0594,0.5218578 0.0045,0.145737 0.04018,0.290377 0.13789,0.403062 0.09771,0.112684 0.252578,0.183254 0.464581,0.188802 0.217824,0.0057 0.376607,-0.0617 0.468824,-0.178196 0.09222,-0.116497 0.114554,-0.265707 0.114554,-0.415789 0,-0.09969 -0.04486,-0.189598 -0.09758,-0.284264 -0.05272,-0.09467 -0.115043,-0.1929654 -0.16971,-0.2927501 -0.05467,-0.099785 -0.100389,-0.2006847 -0.116676,-0.2948712 -0.01629,-0.094187 -0.0079,-0.1802545 0.04455,-0.2694147 z M 10.704984,9.1345808 V 11.15413 C 11.068666,10.766639 11.345966,10.298314 11.508986,9.7773575 11.330338,9.6872845 11.19741,9.5736428 11.093196,9.4655154 10.98126,9.3493764 10.894777,9.247237 10.811053,9.1876152 c -0.03074,-0.021887 -0.06467,-0.0389 -0.106069,-0.053034 z"
     id="path5-6"
     style="opacity:0.3;fill:#000000;fill-opacity:1;stroke-width:0.067884" />
  <path
     d="m 8.0872061,4.5790794 c -1.988852,0 -3.589367,1.6005146 -3.589367,3.5893675 0,1.9702731 1.571232,3.5556431 3.534211,3.5851251 6.66e-4,-0.13721 0.06477,-0.256648 0.148497,-0.347906 0.08337,-0.09087 0.189824,-0.161192 0.309721,-0.21638 0.240431,-0.110668 0.544792,-0.16971 0.878249,-0.16971 0.198734,0 0.376381,0.03102 0.543072,0.07213 V 7.4747571 L 8.9484851,7.7611428 C 8.8730351,7.6027121 8.7562391,7.4696055 8.6111861,7.372931 l 0.859157,-1.593153 c 0.05438,-0.1010657 0.09616,-0.1364819 0.16971,-0.1421323 0.07368,-0.00566 0.20082,0.031287 0.3924549,0.1484964 0.432506,0.2645346 0.56874,0.402828 0.687326,0.7976372 0.06168,0.2053387 0.0836,0.3739366 0.07001,0.485795 -0.0028,0.023068 -0.0082,0.041678 -0.01273,0.059399 0.222127,0.060253 0.4024,0.183265 0.536708,0.3351773 0.164042,0.1855449 0.26863,0.4047483 0.358512,0.615199 C 11.625104,6.1323137 10.04606,4.5790799 8.0872111,4.5790799 Z m 0.167589,0.4624599 c 0.04256,-0.00184 0.08396,-4.753e-4 0.12304,0.00212 0.156023,0.01036 0.292639,0.054522 0.475188,0.1527391 0.189733,0.1020824 0.327097,0.2078596 0.398819,0.299114 0.07172,0.091254 0.08324,0.1508391 0.04455,0.2227443 l -0.848551,1.5676964 c -0.111877,-0.046685 -0.232836,-0.074248 -0.360633,-0.074248 -0.06542,0 -0.128987,0.00622 -0.190924,0.019093 L 7.3829101,5.5273313 c -0.03385,-0.1127108 -0.02972,-0.1736386 0.02121,-0.2333513 0.05094,-0.059713 0.17308,-0.1232098 0.392455,-0.1760742 0.184848,-0.044544 0.330522,-0.070867 0.458217,-0.076369 z m -1.24949,0.3245704 c 0.05292,0.00216 0.08799,0.012572 0.10819,0.025456 0.02019,0.012885 0.03002,0.027262 0.04031,0.06152 l 0.549436,1.841354 c -0.162423,0.07232 -0.300262,0.1882011 -0.400942,0.3330561 -0.165463,-0.085958 -0.333,-0.1730749 -0.498524,-0.2566865 C 6.3453051,7.1392212 5.9270011,6.9225499 5.7685441,6.804402 5.6318481,6.7024798 5.5839671,6.6296482 5.5776201,6.5434729 c -0.0063,-0.086176 0.03777,-0.2158625 0.154861,-0.4073042 0.263888,-0.4314491 0.396353,-0.558737 0.789152,-0.6767188 0.208109,-0.062508 0.378269,-0.097645 0.483673,-0.093341 z m -1.535876,1.5167835 c 0.02182,-0.00145 0.04438,0.00416 0.07213,0.019092 l 1.663158,0.8994633 c -0.04767,0.1130804 -0.07425,0.2377803 -0.07425,0.366998 0,0.079897 0.01072,0.1568318 0.0297,0.23123 -0.171048,0.054113 -0.344139,0.1078141 -0.513372,0.1633461 -0.488043,0.160145 -0.934569,0.303547 -1.137057,0.333056 -0.172618,0.02516 -0.270232,0.0062 -0.343661,-0.05728 -0.07343,-0.06351 -0.133558,-0.193223 -0.186681,-0.4136685 -0.119065,-0.4940922 -0.120178,-0.6932587 0.07637,-1.0585665 0.07756,-0.14415 0.150986,-0.2611748 0.218501,-0.3436628 0.06752,-0.082488 0.128454,-0.1254506 0.173953,-0.135768 0.0075,-0.00171 0.01394,-0.00376 0.02121,-0.00424 z m 4.6500549,0.3457843 a 0.08545631,0.08545631 0 0 0 -0.06788,0.084855 v 3.9563655 c -0.1968499,-0.06769 -0.4255989,-0.110311 -0.6830829,-0.110312 -0.316603,0 -0.604744,0.05746 -0.820972,0.156982 -0.108114,0.04976 -0.198339,0.109593 -0.265172,0.182439 -0.06683,0.07285 -0.110311,0.160597 -0.110311,0.256686 0,0.09609 0.04348,0.185962 0.110311,0.258808 0.06683,0.07285 0.157058,0.132675 0.265172,0.182438 0.216228,0.09953 0.504369,0.156982 0.820972,0.156982 0.316604,0 0.604745,-0.05745 0.8209729,-0.156982 0.108113,-0.04976 0.198338,-0.109592 0.265172,-0.182438 0.06683,-0.07285 0.110311,-0.162719 0.110311,-0.258808 V 8.4357402 c 0.135849,0.013722 0.24116,0.049402 0.326692,0.1103114 0.104455,0.07438 0.193385,0.18085 0.301235,0.29275 0.215167,0.223246 0.518794,0.45609 1.164636,0.439125 7.76e-4,-2.1e-5 0.0013,2.2e-5 0.0021,0 7.76e-4,-2.2e-5 0.0013,2.2e-5 0.0021,0 a 0.08545631,0.08545631 0 0 0 -0.0043,-0.16971 c -7.76e-4,2e-6 -0.0013,0 -0.0021,0 -0.217179,-1.09e-4 -0.347469,-0.09556 -0.464543,-0.256687 C 11.77331,8.6898296 11.681423,8.4616529 11.583198,8.225724 11.484978,7.9897953 11.378511,7.7461533 11.209836,7.5553693 11.041161,7.3645854 10.80563,7.2310966 10.480083,7.2286775 a 0.08545631,0.08545631 0 0 0 -0.0021,0 h -0.341542 a 0.08545631,0.08545631 0 0 0 -0.01697,0 z M 8.0872061,7.4005089 c 0.41982,0 0.765817,0.3481184 0.765817,0.767938 0,0.054065 -0.0061,0.105947 -0.01697,0.1569818 a 0.1389058,0.1389058 0 0 1 0.127283,0.2078949 l -0.161225,0.273657 c -0.03593,0.06105 -0.03796,0.103755 -0.02546,0.176075 0.01169,0.06759 0.04831,0.158641 0.09971,0.252443 0.05176,0.09448 0.114236,0.19102 0.16971,0.290629 0.05461,0.09806 0.114554,0.210789 0.114554,0.352148 0,0.1638644 -0.02299,0.3495754 -0.144253,0.5027664 -0.124193,0.156891 -0.333048,0.235604 -0.581257,0.229108 -0.241025,-0.0063 -0.437793,-0.08959 -0.564286,-0.235472 -0.125298,-0.144506 -0.166654,-0.324572 -0.171832,-0.4900384 -0.0015,-0.04866 -0.02841,-0.299005 0.06576,-0.57065 0.04346,-0.125362 0.11419,-0.257966 0.218501,-0.388212 -0.371734,-0.05149 -0.66399,-0.372776 -0.66399,-0.7573307 0,-0.4198196 0.348119,-0.767938 0.767938,-0.767938 z m 0.757331,1.0628091 -0.275778,0.1548606 c -0.398457,0.223615 -0.589029,0.499665 -0.672477,0.74036 -0.08345,0.240695 -0.06151,0.452557 -0.0594,0.521858 0.0045,0.1457384 0.04018,0.2903774 0.13789,0.4030624 0.09771,0.112684 0.252578,0.183254 0.464581,0.188802 0.217824,0.0057 0.376607,-0.0617 0.468824,-0.178195 0.09222,-0.116497 0.114554,-0.265707 0.114554,-0.4157904 0,-0.09969 -0.04486,-0.189598 -0.09758,-0.284264 -0.05272,-0.09467 -0.115043,-0.192966 -0.16971,-0.29275 -0.05467,-0.09979 -0.100389,-0.200685 -0.116676,-0.294871 -0.01629,-0.09419 -0.0079,-0.180255 0.04455,-0.269415 z M 10.704984,8.6054506 V 10.625 c 0.363682,-0.387491 0.640982,-0.8558164 0.804002,-1.3767734 -0.178648,-0.09007 -0.311576,-0.203714 -0.41579,-0.311842 -0.111936,-0.116139 -0.198419,-0.218278 -0.282143,-0.2779 -0.03074,-0.02189 -0.06467,-0.0389 -0.106069,-0.05303 z"
     id="path5-6-5"
     class="ColorScheme-Text"
     style="fill:currentColor;fill-opacity:1;stroke-width:0.067884" />
  <path
     id="gradient-path1"
     style="opacity:0.3;baseline-shift:baseline;display:inline;overflow:visible;vector-effect:none;enable-background:accumulate;stop-color:#000000;stop-opacity:1;fill:url(#linearGradient4)"
     d="M 8.4453131 1.2753492 C 4.4913166 1.2753492 1.2794833 4.4784283 1.2794833 8.4236094 C 1.2794833 12.36879 4.4913166 15.572386 8.4453131 15.572386 C 12.39931 15.572386 15.611143 12.36879 15.611143 8.4236094 C 15.611143 4.4784283 12.39931 1.2753492 8.4453131 1.2753492 z " />
</svg>
