<?xml version="1.0" encoding="UTF-8" standalone="no"?>
<svg
   width="64"
   height="64"
   version="1.1"
   viewBox="0 0 16.933 16.933"
   id="svg7"
   sodipodi:docname="org.vinegarhq.Sober.svg"
   inkscape:version="1.4.2 (ebf0e940d0, 2025-05-08)"
   xmlns:inkscape="http://www.inkscape.org/namespaces/inkscape"
   xmlns:sodipodi="http://sodipodi.sourceforge.net/DTD/sodipodi-0.dtd"
   xmlns:xlink="http://www.w3.org/1999/xlink"
   xmlns="http://www.w3.org/2000/svg"
   xmlns:svg="http://www.w3.org/2000/svg"
   xmlns:rdf="http://www.w3.org/1999/02/22-rdf-syntax-ns#"
   xmlns:cc="http://creativecommons.org/ns#"
   xmlns:dc="http://purl.org/dc/elements/1.1/">
  <sodipodi:namedview
     id="namedview7"
     pagecolor="#9c4444"
     bordercolor="#000000"
     borderopacity="0.25"
     inkscape:showpageshadow="2"
     inkscape:pageopacity="0.0"
     inkscape:pagecheckerboard="0"
     inkscape:deskcolor="#d1d1d1"
     inkscape:zoom="8.7062522"
     inkscape:cx="72.189501"
     inkscape:cy="15.276378"
     inkscape:window-width="2560"
     inkscape:window-height="1388"
     inkscape:window-x="0"
     inkscape:window-y="0"
     inkscape:window-maximized="1"
     inkscape:current-layer="svg7"
     showgrid="false" />
  <defs
     id="defs2">
    <filter
       style="color-interpolation-filters:sRGB;"
       inkscape:label="Blur"
       id="filter3"
       x="-0.10843471"
       y="-0.10870992"
       width="1.2168694"
       height="1.2174198">
      <feGaussianBlur
         stdDeviation="0.5 0.5"
         result="blur"
         id="feGaussianBlur3" />
    </filter>
    <style
       id="current-color-scheme"
       type="text/css">.ColorScheme-Text {color:#d8dee9} .ColorScheme-Highlight {color:#3b4252}</style>
    <linearGradient
       id="linearGradient3"
       inkscape:collect="always">
      <stop
         style="stop-color:#000000;stop-opacity:1;"
         offset="0"
         id="stop3" />
      <stop
         style="stop-color:#000000;stop-opacity:0;"
         offset="1"
         id="stop4" />
    </linearGradient>
    <linearGradient
       inkscape:collect="always"
       xlink:href="#linearGradient3"
       id="linearGradient4"
       x1="13.512321"
       y1="13.490874"
       x2="3.3783066"
       y2="3.3568602"
       gradientUnits="userSpaceOnUse" />
  </defs>
  <metadata
     id="metadata2">
    <rdf:RDF>
      <cc:Work
         rdf:about="">
        <dc:format>image/svg+xml</dc:format>
        <dc:type
           rdf:resource="http://purl.org/dc/dcmitype/StillImage" />
      </cc:Work>
    </rdf:RDF>
  </metadata>
  <ellipse
     style="opacity:1;fill:none;stroke:#000000;stroke-width:0.582072;stroke-dasharray:none;stroke-opacity:1;filter:url(#filter3)"
     id="path1-5"
     cx="8.4450111"
     cy="8.423522"
     rx="6.8752708"
     ry="6.8578653" />
  <ellipse
     style="opacity:1;fill:none;stroke-width:0.58207188;stroke-opacity:1;stroke:currentColor;stroke-dasharray:none;fill-opacity:1"
     id="path1"
     cx="8.4450111"
     cy="8.423522"
     rx="6.8752708"
     ry="6.8578653"
     class="ColorScheme-Text" />
  <ellipse
     style="fill:currentColor;stroke:none;stroke-width:0.285844;stroke-dasharray:none;stroke-opacity:1"
     id="path1-2"
     cx="8.4557552"
     cy="8.423522"
     rx="6.5738997"
     ry="6.5692253"
     class="ColorScheme-Highlight" />
  <path
     d="m 10.917529,12.589569 c -0.07527,0.271939 -0.356723,0.431378 -0.628662,0.356123 L 4.8725782,11.446675 c -0.271914,-0.07528 -0.431373,-0.356736 -0.356115,-0.628662 l 0.692416,-2.5018611 2.278025,0.6304626 -0.125631,0.4539213 c -0.03762,0.1359759 0.04209,0.2767031 0.178062,0.3143308 l 1.307902,0.3619854 c 0.135976,0.03763 0.276703,-0.0421 0.314331,-0.1780615 l 0.12563,-0.4539214 2.3227398,0.6428389 z m 1.142895,-6.0449479 c 0.271926,0.075255 0.431352,0.3567482 0.356122,0.6286616 L 11.720663,9.6876484 9.3979232,9.0448093 9.5235532,8.590888 c 0.03763,-0.1359759 -0.0421,-0.2767031 -0.178062,-0.3143436 L 8.0375892,7.9145722 c -0.135975,-0.037628 -0.276703,0.042085 -0.314331,0.1780612 L 7.5976292,8.5465547 5.3196022,7.9160794 6.0154752,5.4017239 c 0.07528,-0.2718943 0.356761,-0.4313447 0.628662,-0.3561148 z"
     id="path5"
     style="opacity:0.3;fill:#000000;fill-opacity:1;stroke-width:0.127725" />
  <path
     d="m 10.917529,12.060413 c -0.07527,0.271939 -0.356723,0.431378 -0.628662,0.356123 L 4.8725782,10.917519 c -0.271914,-0.07528 -0.431373,-0.356736 -0.356115,-0.628662 l 0.692416,-2.5018614 2.278025,0.6304626 -0.125631,0.4539213 c -0.03762,0.1359759 0.04209,0.2767031 0.178062,0.3143308 l 1.307902,0.3619852 c 0.135976,0.03763 0.276703,-0.042096 0.314331,-0.1780613 l 0.12563,-0.4539214 2.3227398,0.6428393 z m 1.142895,-6.0449482 c 0.271926,0.075255 0.431352,0.3567482 0.356122,0.6286616 L 11.720663,9.1584921 9.3979232,8.515653 9.5235532,8.0617317 c 0.03763,-0.1359759 -0.0421,-0.2767031 -0.178062,-0.3143436 L 8.0375892,7.3854159 c -0.135975,-0.037628 -0.276703,0.042085 -0.314331,0.1780612 L 7.5976292,8.0173984 5.3196022,7.3869231 6.0154752,4.8725676 c 0.07528,-0.2718943 0.356761,-0.4313447 0.628662,-0.3561148 z"
     id="path5-7"
     style="fill:currentColor;fill-opacity:1;stroke-width:0.127725"
     class="ColorScheme-Text" />
  <path
     id="gradient-path1"
     style="opacity:0.3;baseline-shift:baseline;display:inline;overflow:visible;vector-effect:none;enable-background:accumulate;stop-color:#000000;stop-opacity:1;fill:url(#linearGradient4)"
     d="M 8.4453131 1.2753492 C 4.4913166 1.2753492 1.2794833 4.4784283 1.2794833 8.4236094 C 1.2794833 12.36879 4.4913166 15.572386 8.4453131 15.572386 C 12.39931 15.572386 15.611143 12.36879 15.611143 8.4236094 C 15.611143 4.4784283 12.39931 1.2753492 8.4453131 1.2753492 z " />
</svg>
