<?xml version="1.0" encoding="UTF-8" standalone="no"?>
<svg
   width="64"
   height="64"
   version="1.1"
   viewBox="0 0 16.933 16.933"
   id="svg7"
   sodipodi:docname="org.xfce.mousepad.svg"
   inkscape:version="1.4.2 (ebf0e940d0, 2025-05-08)"
   xmlns:inkscape="http://www.inkscape.org/namespaces/inkscape"
   xmlns:sodipodi="http://sodipodi.sourceforge.net/DTD/sodipodi-0.dtd"
   xmlns:xlink="http://www.w3.org/1999/xlink"
   xmlns="http://www.w3.org/2000/svg"
   xmlns:svg="http://www.w3.org/2000/svg"
   xmlns:rdf="http://www.w3.org/1999/02/22-rdf-syntax-ns#"
   xmlns:cc="http://creativecommons.org/ns#"
   xmlns:dc="http://purl.org/dc/elements/1.1/">
  <sodipodi:namedview
     id="namedview7"
     pagecolor="#9c4444"
     bordercolor="#000000"
     borderopacity="0.25"
     inkscape:showpageshadow="2"
     inkscape:pageopacity="0.0"
     inkscape:pagecheckerboard="0"
     inkscape:deskcolor="#d1d1d1"
     inkscape:zoom="4.3531261"
     inkscape:cx="36.066035"
     inkscape:cy="26.417797"
     inkscape:window-width="2560"
     inkscape:window-height="1392"
     inkscape:window-x="0"
     inkscape:window-y="0"
     inkscape:window-maximized="1"
     inkscape:current-layer="svg7"
     showgrid="false" />
  <defs
     id="defs2">
    <filter
       style="color-interpolation-filters:sRGB;"
       inkscape:label="Blur"
       id="filter3"
       x="-0.10843471"
       y="-0.10870992"
       width="1.2168694"
       height="1.2174198">
      <feGaussianBlur
         stdDeviation="0.5 0.5"
         result="blur"
         id="feGaussianBlur3" />
    </filter>
    <style
       id="current-color-scheme"
       type="text/css">.ColorScheme-Text {color:#d8dee9} .ColorScheme-Highlight {color:#3b4252}</style>
    <linearGradient
       id="linearGradient3"
       inkscape:collect="always">
      <stop
         style="stop-color:#000000;stop-opacity:1;"
         offset="0"
         id="stop3" />
      <stop
         style="stop-color:#000000;stop-opacity:0;"
         offset="1"
         id="stop4" />
    </linearGradient>
    <linearGradient
       inkscape:collect="always"
       xlink:href="#linearGradient3"
       id="linearGradient4"
       x1="13.512321"
       y1="13.490874"
       x2="3.3783066"
       y2="3.3568602"
       gradientUnits="userSpaceOnUse" />
  </defs>
  <metadata
     id="metadata2">
    <rdf:RDF>
      <cc:Work
         rdf:about="">
        <dc:format>image/svg+xml</dc:format>
        <dc:type
           rdf:resource="http://purl.org/dc/dcmitype/StillImage" />
      </cc:Work>
    </rdf:RDF>
  </metadata>
  <ellipse
     style="opacity:1;fill:none;stroke:#000000;stroke-width:0.582072;stroke-dasharray:none;stroke-opacity:1;filter:url(#filter3)"
     id="path1-5"
     cx="8.4450111"
     cy="8.423522"
     rx="6.8752708"
     ry="6.8578653" />
  <ellipse
     style="opacity:1;fill:none;stroke-width:0.58207188;stroke-opacity:1;stroke:currentColor;stroke-dasharray:none;fill-opacity:1"
     id="path1"
     cx="8.4450111"
     cy="8.423522"
     rx="6.8752708"
     ry="6.8578653"
     class="ColorScheme-Text" />
  <ellipse
     style="fill:currentColor;stroke:none;stroke-width:0.285844;stroke-dasharray:none;stroke-opacity:1"
     id="path1-2"
     cx="8.4557552"
     cy="8.423522"
     rx="6.5738997"
     ry="6.5692253"
     class="ColorScheme-Highlight" />
  <path
     id="path5-6"
     style="opacity:0.3;fill:#000000;fill-opacity:1;stroke:none;stroke-width:0.0570018;stroke-linejoin:bevel;paint-order:fill markers stroke"
     d="m 5.266641,5.0269844 c -0.417764,0 -0.754086,0.3363224 -0.754086,0.7540859 v 6.4291717 c 0,0.417764 0.336322,0.754086 0.754086,0.754086 h 4.935139 c 0.417764,0 0.754085,-0.336322 0.754085,-0.754086 V 9.0466158 C 10.783483,9.220791 10.59335,9.4122888 10.384115,9.6233739 9.201133,10.816815 8.223428,11.796703 8.211405,11.801092 8.199375,11.805492 7.893891,11.513651 7.532728,11.152165 L 6.876143,10.494991 9.043845,8.3211026 C 9.836252,7.5263334 10.551078,6.8179928 10.955865,6.4246944 V 5.7810703 c 0,-0.4177635 -0.336321,-0.7540859 -0.754085,-0.7540859 z m -0.309293,0.222691 c 0.0115,-0.00192 0.298293,0.1494702 0.491039,0.2017769 0.343703,0.087833 0.657529,0.3521462 0.80917,0.5040004 l 2.94e-4,2.946e-4 v 2.945e-4 c 1.13e-4,7.27e-5 4.65e-4,-5.96e-5 5.7e-4,0 l 2.95e-4,2.946e-4 c 0.01869,0.00425 0.133904,-0.089842 0.25362,-0.082773 0.170109,0.010303 0.696426,0.158522 0.766752,0.057735 0.04264,-0.059168 0.03958,-0.1316877 0.09279,-0.1614215 6.84e-4,-1.879e-4 0.0013,-7.354e-4 0.0018,-0.00118 0.01825,-0.021857 -0.103769,-0.2564509 0.03535,-0.3331528 0.10239,-0.051174 0.189036,0.2350638 0.215327,0.2671703 0.01178,0.014365 0.07426,0.018293 0.06687,-0.014434 -0.008,-0.035546 -0.109206,-0.3105872 0.01473,-0.3567163 0.201297,-0.079711 0.165903,0.3518122 0.171142,0.3640821 v 2.946e-4 h 2.95e-4 l 2.94e-4,2.946e-4 c 0.03145,0.025601 0.701122,0.05033 0.742304,0.3558342 0.0242,0.1707931 -0.553022,0.3916168 -0.609455,0.4309483 -0.05641,0.039332 -0.05146,0.1021712 -0.02945,0.1410966 0.02529,0.042217 0.193335,0.1848684 0.170847,0.2527366 -0.01545,0.039203 -0.329028,-0.1047291 -0.349059,-0.074525 -0.04568,0.057693 0.228363,0.2021043 0.133732,0.30458 -0.03751,0.02454 -0.469152,-0.1806286 -0.468063,-0.1782117 -0.01158,0.0044 -0.609979,0.1092777 -1.069859,-0.029751 H 6.398388 6.398093 6.397798 C 6.373888,6.9028734 6.10294,7.1683233 6.071716,7.1590441 6.028346,7.1431401 6.135486,6.9208214 6.123556,6.876851 6.104066,6.852355 5.926148,6.975982 5.915888,6.913672 5.903618,6.831781 6.072192,6.7378904 6.064349,6.6836169 6.020849,6.3752915 6.083859,6.1952132 6.190717,6.0447058 6.226347,5.9892998 5.771813,5.6460973 5.442816,5.5106598 5.134162,5.383588 4.960352,5.2744412 4.956196,5.252621 4.956184,5.2524589 4.955892,5.2518857 4.955901,5.2517375 v -2.948e-4 l 2.95e-4,-2.946e-4 V 5.2508536 5.250559 h 2.94e-4 2.95e-4 v -2.946e-4 -2.946e-4 h 2.94e-4 z m 3.595753,0.2035443 h 2.94e-4 2.94e-4 l 2.95e-4,2.945e-4 v 2.946e-4 c 1.35e-4,9.86e-5 4.6e-4,1.693e-4 5.7e-4,2.946e-4 0.0152,0.018656 -0.01289,0.2354075 -0.0327,0.2539148 -3.19e-4,2.483e-4 -0.0011,7.411e-4 -0.0015,8.836e-4 H 8.52006 l -2.95e-4,2.945e-4 h -2.94e-4 -2.95e-4 l -2.95e-4,-2.944e-4 h -2.94e-4 -2.95e-4 l -2.94e-4,-2.945e-4 h -2.95e-4 c -0.02192,-0.010655 0.02167,-0.2390209 0.03446,-0.254504 l 2.95e-4,-2.946e-4 2.94e-4,-2.946e-4 z m 0.169374,0.032697 h 2.95e-4 2.94e-4 2.95e-4 2.94e-4 c 3.99e-4,3.2e-5 7.98e-4,2.089e-4 0.0012,2.945e-4 h 2.95e-4 2.95e-4 l 2.94e-4,2.946e-4 v 2.946e-4 h 2.95e-4 2.94e-4 v 2.945e-4 c 0.0024,0.018483 -0.110804,0.24764 -0.134321,0.2450779 H 8.591691 8.591397 L 8.591102,5.7318781 H 8.590808 8.590513 V 5.7315836 C 8.559033,5.7082736 8.692908,5.4932428 8.722478,5.4859167 Z m 2.702632,0.7523185 c -0.0035,7.182e-4 -0.01239,0.0027 -0.02798,0.010015 l -8.55e-4,8.835e-4 C 11.327752,6.3086147 10.958432,6.665451 10.46306,7.1555094 10.09353,7.5210768 9.645041,7.9676892 9.168448,8.4457032 l -2.043101,2.0486988 0.532278,0.533162 c 0.215669,0.215861 0.412645,0.406772 0.535519,0.522264 0.0042,0.0039 0.0081,0.0086 0.01208,0.01237 0.291144,-0.288399 1.108198,-1.109858 2.053117,-2.0631312 1.342777,-1.3546501 1.896612,-1.917852 2.085224,-2.159749 0.05243,-0.067244 0.07109,-0.1057767 0.07688,-0.1181205 -0.0053,-0.00719 -0.01424,-0.018491 -0.02563,-0.032402 -0.02497,-0.030524 -0.06219,-0.072369 -0.106928,-0.1222444 -0.08948,-0.09975 -0.210119,-0.2296258 -0.339633,-0.3620201 -0.191535,-0.1957934 -0.322231,-0.3245202 -0.408561,-0.395306 -0.07391,-0.060602 -0.104688,-0.069451 -0.111346,-0.07099 h -8.55e-4 -0.0012 z m -0.02798,0.010015 c 0.0041,-0.00231 0.0066,-0.00378 0.008,-0.00471 v -8.835e-4 h -0.0012 c -5.53e-4,3.444e-4 -0.0029,0.00172 -0.0032,0.00206 l -0.0012,0.00118 c -6.27e-4,5.107e-4 -0.0017,0.00174 -0.0023,0.00235 z m 0.0091,-0.00677 v 0.00118 h 9.12e-4 v -0.00118 z m -4.839111,4.6240788 0.459816,0.479847 c 0.252977,0.263953 0.514792,0.54139 0.58206,0.616524 l 0.122539,0.136383 H 7.149174 6.567114 v -0.616524 z"
     sodipodi:nodetypes="sssssscscccccsssccsccccccccccccccccccccccccccccccccccccccccccccccccccccccccccccccccccccccccccccccccccccccccccscccscsscssssccccccccccccccccccccccccc" />
  <path
     id="path5-6-5"
     class="ColorScheme-Text"
     style="fill:currentColor;fill-opacity:1;stroke:none;stroke-width:0.0570018;stroke-linejoin:bevel;paint-order:fill markers stroke"
     d="m 5.266641,4.4978285 c -0.417765,0 -0.754086,0.336322 -0.754086,0.754086 v 6.4291715 c 0,0.417764 0.336321,0.754086 0.754086,0.754086 h 4.935139 c 0.417763,0 0.754084,-0.336322 0.754084,-0.754086 V 8.5174595 c -0.172382,0.174175 -0.362514,0.365673 -0.57175,0.576758 C 9.201133,10.287659 8.223428,11.267547 8.211405,11.271936 8.199375,11.276336 7.893891,10.984494 7.532728,10.623008 L 6.876143,9.9658355 9.043844,7.7919465 c 0.792407,-0.794769 1.507233,-1.50311 1.91202,-1.896408 v -0.643624 c 0,-0.417764 -0.336321,-0.754086 -0.754084,-0.754086 z m -0.309293,0.222691 c 0.0115,-0.0019 0.298293,0.14947 0.491039,0.201777 0.343703,0.08783 0.657529,0.352146 0.80917,0.504 l 2.94e-4,2.95e-4 v 2.94e-4 c 1.13e-4,7.3e-5 4.65e-4,-5.9e-5 5.7e-4,0 l 2.95e-4,2.95e-4 c 0.01869,0.0043 0.133904,-0.08984 0.25362,-0.08277 0.170109,0.0103 0.696426,0.158522 0.766752,0.05773 0.04264,-0.05917 0.03958,-0.131688 0.09279,-0.161422 6.84e-4,-1.88e-4 0.0013,-7.35e-4 0.0018,-0.0012 0.01825,-0.02186 -0.103769,-0.256451 0.03535,-0.333153 0.10239,-0.05117 0.189036,0.235064 0.215327,0.267171 0.01178,0.01436 0.07426,0.01829 0.06687,-0.01443 -0.008,-0.03555 -0.109206,-0.310587 0.01473,-0.356717 0.201297,-0.07971 0.165903,0.351813 0.171142,0.364083 v 2.94e-4 h 2.95e-4 l 2.94e-4,2.95e-4 c 0.03145,0.0256 0.701122,0.05033 0.742304,0.355834 0.0242,0.170793 -0.553022,0.391617 -0.609455,0.430948 -0.05641,0.03933 -0.05146,0.102171 -0.02945,0.141097 0.02529,0.04222 0.193335,0.184868 0.170847,0.252736 -0.01545,0.0392 -0.329028,-0.104729 -0.349059,-0.07453 -0.04568,0.05769 0.228363,0.202105 0.133732,0.30458 -0.03751,0.02454 -0.469152,-0.180628 -0.468063,-0.178211 -0.01158,0.0044 -0.609979,0.109277 -1.069859,-0.02975 h -2.95e-4 -2.95e-4 -2.96e-4 c -0.02391,0.0039 -0.294858,0.26938 -0.326081,0.2601 -0.04337,-0.0159 0.06377,-0.238222 0.05184,-0.282193 -0.01949,-0.0245 -0.197408,0.09913 -0.207668,0.03682 -0.01227,-0.08189 0.156304,-0.175781 0.148461,-0.230055 -0.0435,-0.308325 0.01951,-0.488403 0.126368,-0.638911 0.03563,-0.05541 -0.418904,-0.398608 -0.747901,-0.534046 -0.308654,-0.127072 -0.482464,-0.236218 -0.486619,-0.258039 -1.3e-5,-1.62e-4 -3.04e-4,-7.35e-4 -2.96e-4,-8.83e-4 v -2.95e-4 l 2.96e-4,-2.95e-4 v -2.94e-4 -2.95e-4 h 2.94e-4 2.95e-4 v -2.94e-4 -2.95e-4 H 4.95708 Z M 8.5531,4.9240635 h 2.95e-4 2.94e-4 l 2.95e-4,2.95e-4 v 2.94e-4 c 1.35e-4,9.9e-5 4.6e-4,1.69e-4 5.7e-4,2.95e-4 0.0152,0.01866 -0.01289,0.235407 -0.0327,0.253915 -3.19e-4,2.48e-4 -0.0011,7.41e-4 -0.0015,8.83e-4 H 8.52006 l -2.95e-4,2.95e-4 h -2.94e-4 -2.95e-4 l -2.95e-4,-2.95e-4 h -2.95e-4 -2.95e-4 l -2.93e-4,-2.94e-4 h -2.96e-4 c -0.02192,-0.01065 0.02167,-0.239021 0.03446,-0.254504 l 2.95e-4,-2.95e-4 2.94e-4,-2.94e-4 z m 0.169375,0.0327 h 2.95e-4 2.94e-4 2.95e-4 2.94e-4 c 3.99e-4,3.2e-5 7.98e-4,2.09e-4 0.0012,2.95e-4 h 2.95e-4 2.95e-4 l 2.94e-4,2.94e-4 v 2.95e-4 h 2.95e-4 2.94e-4 v 2.94e-4 c 0.0024,0.01848 -0.110804,0.24764 -0.134321,0.245078 h -3.14e-4 -2.94e-4 l -2.95e-4,-2.95e-4 h -2.94e-4 -2.95e-4 v -2.94e-4 c -0.03148,-0.02331 0.102395,-0.238341 0.131965,-0.245667 z m 2.702632,0.752319 c -0.0035,7.18e-4 -0.01239,0.0027 -0.02798,0.01001 l -8.55e-4,8.83e-4 c -0.06852,0.05948 -0.43784,0.416317 -0.933212,0.906376 -0.36953,0.365567 -0.818019,0.81218 -1.294613,1.290193 l -2.0431,2.048699 0.532278,0.5331615 c 0.215669,0.215863 0.412645,0.406772 0.535519,0.522264 0.0042,0.0039 0.0081,0.0086 0.01208,0.01237 0.291144,-0.288398 1.108198,-1.1098565 2.053117,-2.0631305 1.342777,-1.35465 1.896612,-1.917852 2.085224,-2.159749 0.05243,-0.06724 0.07109,-0.105777 0.07688,-0.11812 -0.0053,-0.0072 -0.01424,-0.01849 -0.02563,-0.0324 -0.02497,-0.03052 -0.06219,-0.07237 -0.106928,-0.122245 -0.08948,-0.09975 -0.210119,-0.229626 -0.339633,-0.36202 -0.191535,-0.195793 -0.322231,-0.32452 -0.408561,-0.395306 -0.07391,-0.0606 -0.104688,-0.06945 -0.111346,-0.07099 h -8.55e-4 -0.0012 z m -0.02798,0.01001 c 0.0041,-0.0023 0.0066,-0.0038 0.008,-0.0047 v -8.84e-4 h -0.0012 c -5.53e-4,3.44e-4 -0.0029,0.0017 -0.0032,0.0021 l -0.0012,0.0012 c -6.28e-4,5.11e-4 -0.0017,0.0017 -0.0023,0.0023 z m 0.0091,-0.0068 v 0.0012 h 9.12e-4 v -0.0012 z M 6.567116,10.33637 7.026932,10.816217 c 0.252977,0.263953 0.514792,0.54139 0.58206,0.616524 l 0.122539,0.136383 H 7.149174 6.567114 V 10.9526 Z"
     sodipodi:nodetypes="sssssscscccccsssccsccccccccccccccccccccccccccccccccccccccccccccccccccccccccccccccccccccccccccccccccccccccccccscccscsscssssccccccccccccccccccccccccc" />
  <path
     id="gradient-path1"
     style="opacity:0.3;baseline-shift:baseline;display:inline;overflow:visible;vector-effect:none;enable-background:accumulate;stop-color:#000000;stop-opacity:1;fill:url(#linearGradient4)"
     d="M 8.4453131 1.2753492 C 4.4913166 1.2753492 1.2794833 4.4784283 1.2794833 8.4236094 C 1.2794833 12.36879 4.4913166 15.572386 8.4453131 15.572386 C 12.39931 15.572386 15.611143 12.36879 15.611143 8.4236094 C 15.611143 4.4784283 12.39931 1.2753492 8.4453131 1.2753492 z " />
</svg>
