<?xml version="1.0" encoding="UTF-8" standalone="no"?>
<svg
   width="64"
   height="64"
   version="1.1"
   viewBox="0 0 16.933 16.933"
   id="svg7"
   sodipodi:docname="org.musicbrainz.Picard.svg"
   inkscape:version="1.4.2 (ebf0e940d0, 2025-05-08)"
   xmlns:inkscape="http://www.inkscape.org/namespaces/inkscape"
   xmlns:sodipodi="http://sodipodi.sourceforge.net/DTD/sodipodi-0.dtd"
   xmlns:xlink="http://www.w3.org/1999/xlink"
   xmlns="http://www.w3.org/2000/svg"
   xmlns:svg="http://www.w3.org/2000/svg"
   xmlns:rdf="http://www.w3.org/1999/02/22-rdf-syntax-ns#"
   xmlns:cc="http://creativecommons.org/ns#"
   xmlns:dc="http://purl.org/dc/elements/1.1/">
  <sodipodi:namedview
     id="namedview7"
     pagecolor="#9c4444"
     bordercolor="#000000"
     borderopacity="0.25"
     inkscape:showpageshadow="2"
     inkscape:pageopacity="0.0"
     inkscape:pagecheckerboard="0"
     inkscape:deskcolor="#d1d1d1"
     inkscape:zoom="4.3531261"
     inkscape:cx="126.5757"
     inkscape:cy="90.279948"
     inkscape:window-width="2560"
     inkscape:window-height="1376"
     inkscape:window-x="0"
     inkscape:window-y="0"
     inkscape:window-maximized="1"
     inkscape:current-layer="svg7"
     showgrid="false" />
  <defs
     id="defs2">
    <filter
       style="color-interpolation-filters:sRGB;"
       inkscape:label="Blur"
       id="filter3"
       x="-0.10843471"
       y="-0.10870992"
       width="1.2168694"
       height="1.2174198">
      <feGaussianBlur
         stdDeviation="0.5 0.5"
         result="blur"
         id="feGaussianBlur3" />
    </filter>
    <style
       id="current-color-scheme"
       type="text/css">.ColorScheme-Text {color:#d8dee9} .ColorScheme-Highlight {color:#3b4252}</style>
    <linearGradient
       id="linearGradient3"
       inkscape:collect="always">
      <stop
         style="stop-color:#000000;stop-opacity:1;"
         offset="0"
         id="stop3" />
      <stop
         style="stop-color:#000000;stop-opacity:0;"
         offset="1"
         id="stop4" />
    </linearGradient>
    <linearGradient
       inkscape:collect="always"
       xlink:href="#linearGradient3"
       id="linearGradient4"
       x1="13.512321"
       y1="13.490874"
       x2="3.3783066"
       y2="3.3568602"
       gradientUnits="userSpaceOnUse" />
  </defs>
  <metadata
     id="metadata2">
    <rdf:RDF>
      <cc:Work
         rdf:about="">
        <dc:format>image/svg+xml</dc:format>
        <dc:type
           rdf:resource="http://purl.org/dc/dcmitype/StillImage" />
      </cc:Work>
    </rdf:RDF>
  </metadata>
  <ellipse
     style="opacity:1;fill:none;stroke:#000000;stroke-width:0.582072;stroke-dasharray:none;stroke-opacity:1;filter:url(#filter3)"
     id="path1-5"
     cx="8.4450111"
     cy="8.423522"
     rx="6.8752708"
     ry="6.8578653" />
  <ellipse
     style="opacity:1;fill:none;stroke-width:0.58207188;stroke-opacity:1;stroke:currentColor;stroke-dasharray:none;fill-opacity:1"
     id="path1"
     cx="8.4450111"
     cy="8.423522"
     rx="6.8752708"
     ry="6.8578653"
     class="ColorScheme-Text" />
  <ellipse
     style="fill:currentColor;stroke:none;stroke-width:0.285844;stroke-dasharray:none;stroke-opacity:1"
     id="path1-2"
     cx="8.4557552"
     cy="8.423522"
     rx="6.5738997"
     ry="6.5692253"
     class="ColorScheme-Highlight" />
  <path
     id="polygon8041"
     style="opacity:0.3;fill:#000000;fill-opacity:1;stroke-width:0.0551193"
     d="M 8.3286873,5.0269844 4.9663888,6.9561718 v 4.0788542 l 3.3622985,1.929187 V 7.2917342 c -0.00851,-0.00177 -0.017173,-0.0037 -0.026053,-0.0057 -0.017741,-0.00396 -0.03632,-0.00835 -0.055871,-0.012921 -0.02907,-0.00679 -0.059538,-0.013875 -0.09118,-0.020668 -0.059457,-0.012728 -0.1238329,-0.023201 -0.1900127,-0.029496 -0.00871,-8.572e-4 -0.017213,-0.00214 -0.026053,-0.00279 -0.019744,-0.00139 -0.039945,-0.00145 -0.060075,-0.00171 -0.018964,-3.044e-4 -0.03794,-3.52e-4 -0.057168,5.356e-4 -0.106886,0.00514 -0.2171732,0.029111 -0.3255509,0.089354 -3.331e-4,1.821e-4 -6.429e-4,3.583e-4 -9.618e-4,5.357e-4 -0.017973,0.010023 -0.035895,0.021118 -0.053716,0.033161 -0.00172,0.00117 -0.00355,0.00236 -0.00527,0.00354 -0.017344,0.011925 -0.034629,0.024883 -0.051782,0.038866 -0.00162,0.00134 -0.00325,0.00283 -0.00496,0.00418 -0.017628,0.014598 -0.035165,0.030117 -0.052531,0.047046 -0.018348,0.017882 -0.036574,0.03706 -0.054587,0.057704 L 7.7837901,8.0375582 7.2461581,10.926603 6.4495074,10.36238 5.5031076,10.602344 6.0405239,7.7132992 7.0311699,7.2357394 7.1205268,7.3310147 C 7.3595527,7.063756 7.6278293,6.9962912 7.8660421,6.9977131 c 0.00891,3.37e-5 0.018165,-9.618e-4 0.027026,-7.5e-4 0.044643,0.00124 0.087545,0.00509 0.129402,0.010227 0.00628,7.5e-4 0.01285,9.088e-4 0.019056,0.00171 0.095594,0.012825 0.1827103,0.032657 0.2554667,0.049628 0.00992,0.0023 0.019593,0.00455 0.029171,0.00679 v 0.2252151 c 6.967e-4,1.49e-4 0.00141,2.813e-4 0.00213,4.291e-4 v -0.225116 c 1.438e-4,3.31e-5 2.916e-4,7.71e-5 4.384e-4,1.103e-4 z m 0.2755981,0 v 2.0395344 c 0.1527369,0.00844 0.3480181,0.039268 0.551519,0.1276798 0.068124,0.00112 0.3470006,-0.00932 0.5479677,-0.236627 -0.07507,-0.1080349 -0.082606,-0.2547504 -0.00794,-0.3725961 0.061782,-0.098333 0.1684908,-0.1570692 0.28518,-0.1570692 0.063723,0 0.1259819,0.017989 0.1799999,0.051996 0.07667,0.048508 0.12964,0.1237299 0.149318,0.2118665 0.01962,0.087917 0.0039,0.1780618 -0.04437,0.2538515 -0.06179,0.098168 -0.168438,0.156962 -0.2850716,0.156962 -0.033291,0 -0.066009,-0.00514 -0.097539,-0.014641 -0.1311294,0.1558232 -0.2901633,0.2379902 -0.4289,0.2808736 0.1114527,0.085381 0.2098787,0.1880903 0.2946532,0.3068178 0.086815,-0.01973 0.1809038,-0.00646 0.2571904,0.041554 0.157587,0.099822 0.204725,0.3087872 0.105179,0.4659333 -0.06239,0.098499 -0.1691427,0.1571772 -0.2856113,0.1571772 -0.063882,0 -0.1263056,-0.018144 -0.1803223,-0.052429 C 9.4886739,8.1886551 9.4416382,7.9797862 9.5406326,7.822475 9.5471091,7.8122221 9.5542305,7.8024077 9.5617341,7.7928721 9.4364864,7.6212842 9.2772225,7.4909253 9.0873363,7.404773 L 9.0872259,7.4046626 C 9.0870214,7.4045855 9.0866903,7.4045309 9.0864756,7.4044484 8.910368,7.3244696 8.7388341,7.2945551 8.6042863,7.2866732 v 1.3229794 c 0.2838665,0.020614 0.4170432,0.163619 0.5164243,0.27689 0.074635,0.084995 0.1169651,0.129687 0.1905495,0.1336005 0.106877,0.00568 0.1884323,0.00266 0.2673095,-2.146e-4 0.095746,-0.00336 0.1832762,-0.00621 0.2915307,0.00646 0.3128037,-0.00513 0.4190037,-0.073971 0.5311717,-0.1469497 0.08962,-0.058316 0.19034,-0.1234965 0.376149,-0.1503949 0.0088,-0.03004 0.02155,-0.059316 0.03908,-0.086986 0.01041,-0.016426 0.02237,-0.031376 0.03499,-0.045431 0.0073,-0.00799 0.01559,-0.014686 0.02346,-0.021962 -0.06119,-0.2256048 -0.07232,-0.5456827 0.002,-0.7947134 -0.0013,-0.00124 -0.0028,-0.00214 -0.004,-0.0032 -0.118231,-0.1080895 -0.144877,-0.2884758 -0.05652,-0.4280386 0.06184,-0.098333 0.168656,-0.1570696 0.285178,-0.1570696 0.06377,0 0.125984,0.018096 0.180002,0.052109 0.07667,0.048508 0.129584,0.1237299 0.149316,0.211866 0.01958,0.087917 0.0039,0.1779547 -0.04435,0.2537444 -0.06179,0.098224 -0.168548,0.157069 -0.285181,0.157069 -0.0062,0 -0.01234,-8.035e-4 -0.01851,-0.00139 -0.05258,0.1926985 -0.04107,0.4469445 -0.0019,0.6209572 0.0069,-5.517e-4 0.01378,-9.617e-4 0.02067,-9.617e-4 0.06377,0 0.125984,0.017988 0.18,0.051998 0.07667,0.048506 0.129586,0.1237848 0.14932,0.2118661 0.01956,0.08786 0.0039,0.1780622 -0.04436,0.2538519 -0.06178,0.098168 -0.168547,0.1569617 -0.285179,0.1569617 -0.06384,0 -0.126036,-0.018091 -0.180109,-0.05232 -0.0073,-0.00474 -0.01165,-0.00758 -0.01561,-0.010443 -0.05364,-0.037867 -0.09284,-0.08904 -0.116269,-0.1460887 -0.123634,0.02078 -0.188973,0.062696 -0.267739,0.1137919 -0.06405,0.041505 -0.132281,0.085959 -0.232213,0.1205743 0.250078,0.1839342 0.585835,0.5294775 0.726998,0.7602635 0.02734,-0.00706 0.05594,-0.010767 0.08504,-0.010767 0.06377,0 0.125982,0.017989 0.18,0.051995 0.07667,0.048508 0.129585,0.1237821 0.149317,0.2119751 0.01956,0.08787 0.0039,0.178009 -0.04436,0.253744 -0.06179,0.09817 -0.168547,0.156962 -0.28518,0.156962 -0.06384,0 -0.126034,-0.01798 -0.180108,-0.05221 -0.0073,-0.0048 -0.01165,-0.0077 -0.01561,-0.01054 -0.14579,-0.102855 -0.18532,-0.302884 -0.08925,-0.454739 0.0053,-0.0084 0.01138,-0.01618 0.01734,-0.02401 -0.14738,-0.2562702 -0.6706,-0.7539078 -0.814297,-0.7893496 -0.1875172,-0.046576 -0.2955784,-0.042859 -0.4328828,-0.037788 -0.079809,0.00281 -0.1703736,0.00629 -0.2871168,0 C 9.1296139,9.2315489 9.0365794,9.1255978 8.9546171,9.0322251 8.86863,8.9341672 8.7859255,8.8466915 8.6043056,8.8301556 V 11.14529 c 0.028057,-0.0058 0.075607,-0.0153 0.141029,-0.04457 0.00618,-0.0037 0.012758,-0.0067 0.019816,-0.0092 0.1844295,-0.0884 0.4692559,-0.301245 0.6926553,-0.809339 -0.06295,-0.04624 -0.1075786,-0.112261 -0.1269263,-0.189043 -0.022105,-0.08742 -0.00881,-0.1781305 0.037353,-0.2555738 0.060632,-0.1015304 0.1717375,-0.1646052 0.2900248,-0.1646052 0.060741,0 0.1203713,0.016549 0.1726785,0.047691 0.1596826,0.095633 0.2122106,0.303077 0.1171294,0.462703 -0.058535,0.09806 -0.1641496,0.159556 -0.2777514,0.163745 -0.1419325,0.330939 -0.3113146,0.55522 -0.4731454,0.707405 0.095412,0.01847 0.1641677,0.05802 0.228768,0.101842 0.05082,0.03451 0.077257,0.05119 0.1225115,0.05361 0.058981,0.0018 0.1863119,-0.03483 0.2936849,-0.07341 -0.013173,-0.108475 0.026224,-0.221328 0.1150833,-0.29756 0.061076,-0.05247 0.1390903,-0.08138 0.2195103,-0.08138 0.09866,0 0.192006,0.04292 0.256221,0.117883 0.0587,0.06823 0.08719,0.155555 0.08031,0.245455 -0.0069,0.08984 -0.04846,0.17163 -0.116807,0.230167 -0.06102,0.05247 -0.138979,0.08128 -0.21951,0.08128 -0.08869,0 -0.17314,-0.03494 -0.2361961,-0.09645 -0.1019168,0.03865 -0.2707747,0.09506 -0.3870223,0.09506 -0.00577,0 -0.011493,-1.66e-4 -0.017011,-4.38e-4 -0.1086954,-0.0056 -0.1786267,-0.05314 -0.2349039,-0.09129 -0.086431,-0.0586 -0.1686775,-0.113877 -0.4634572,-0.03908 -0.1301927,0.0592 -0.2188855,0.06401 -0.2340434,0.06567 V 12.96433 L 11.966611,11.035042 V 6.9561888 Z m 1.3766991,1.6218312 c -0.040297,0 -0.077012,0.020148 -0.098288,0.053935 -0.033238,0.052585 -0.019694,0.1215143 0.030688,0.1571768 l 0.00529,0.00343 c 0.053682,0.034066 0.1274415,0.016461 0.1605135,-0.035957 0.01681,-0.026293 0.02217,-0.057265 0.01541,-0.087415 -0.0069,-0.030589 -0.02527,-0.056558 -0.05167,-0.073313 -0.01857,-0.011742 -0.04002,-0.017871 -0.061906,-0.017871 z M 7.1179924,7.3298442 c -0.053938,0.060303 -0.1063515,0.1306113 -0.156531,0.2125122 -0.024199,-0.00429 -0.048896,-0.00657 -0.073308,-0.00657 -0.2006912,0 -0.3729754,0.1434514 -0.4096294,0.340945 -0.020443,0.1095776 0.00294,0.2204245 0.065988,0.3123087 0.063001,0.091829 0.1580539,0.1537399 0.2676323,0.1740789 0.025304,0.00474 0.051022,0.0071 0.07665,0.0071 0.2006911,0 0.3732427,-0.1433965 0.4099524,-0.3409452 C 7.3267427,7.878804 7.2693616,7.7319845 7.1613769,7.6380607 7.1965527,7.5826967 7.2327309,7.5341835 7.2697859,7.4916489 Z m 3.9836846,0.082895 c -0.04018,0 -0.07691,0.020201 -0.09829,0.054044 -0.03324,0.052532 -0.0197,0.1213547 0.0309,0.156962 l 0.0051,0.00354 c 0.05368,0.034121 0.127554,0.016355 0.160516,-0.036064 0.0167,-0.026346 0.02211,-0.057213 0.0154,-0.087309 -0.0069,-0.030589 -0.02521,-0.056558 -0.05167,-0.073313 -0.01847,-0.011684 -0.04002,-0.017871 -0.062,-0.017871 z M 6.8880408,7.7562685 c 0.012181,0 0.024311,0.00112 0.03638,0.00332 0.1066015,0.019843 0.1772335,0.1228124 0.1575,0.2294136 C 7.0623593,8.0939515 6.958448,8.1657452 6.8525077,8.1462883 6.7457958,8.1264455 6.6753277,8.0235831 6.6951159,7.9169818 6.7124811,7.8238845 6.7935047,7.7562522 6.8880347,7.7562522 Z M 9.8264989,7.886316 c -0.021997,0 -0.043332,0.00604 -0.0618,0.017443 -0.015318,0.00943 -0.027821,0.02167 -0.037147,0.036385 -0.034235,0.054403 -0.017956,0.1267659 0.036282,0.1611605 0.018688,0.011796 0.040015,0.018086 0.061906,0.018086 0.04035,0 0.077329,-0.020411 0.098936,-0.054474 0.034332,-0.054183 0.018009,-0.1263849 -0.036388,-0.1609449 -0.0183,-0.011518 -0.039741,-0.017657 -0.0618,-0.017657 z M 7.1535185,8.2785054 c -0.00416,0.00336 -0.00881,0.00595 -0.013132,0.00915 -0.00375,0.00277 -0.00699,0.00617 -0.010763,0.00883 0.00821,-0.00571 0.016151,-0.011698 0.023896,-0.01798 z m -0.379163,0.07622 c 0.00578,0.00165 0.011502,0.00324 0.017336,0.00463 -0.00325,-7.822e-4 -0.00628,-0.00194 -0.00952,-0.0028 -0.00253,-6.964e-4 -0.00527,-0.00109 -0.0079,-0.00183 z m 0.03714,0.00883 c 0.00111,2.093e-4 0.00213,5.517e-4 0.00325,7.553e-4 0.025304,0.00474 0.051022,0.0071 0.076649,0.0071 0.013355,0 0.026538,-6.912e-4 0.039621,-0.00194 -0.013052,0.00124 -0.026285,0.00183 -0.039621,0.00183 -0.025638,0 -0.051355,-0.00237 -0.076649,-0.0071 -0.00111,-2.039e-4 -0.00213,-4.353e-4 -0.00325,-6.482e-4 z m 4.2901805,0.342452 c -0.04019,0 -0.07691,0.020201 -0.09829,0.054044 -0.03323,0.052529 -0.0197,0.1213545 0.0309,0.1569619 l 0.0051,0.00356 c 0.05368,0.034121 0.127553,0.016407 0.160514,-0.035957 0.0167,-0.026347 0.02213,-0.057321 0.0154,-0.087416 -0.0069,-0.030591 -0.02521,-0.056449 -0.05167,-0.073206 -0.01847,-0.011796 -0.04001,-0.017978 -0.062,-0.017978 z M 9.6582313,9.893988 c -0.041506,0 -0.079059,0.021182 -0.1003331,0.056734 -0.015876,0.026791 -0.020413,0.058072 -0.012809,0.088277 0.0076,0.0301 0.026559,0.0555 0.053178,0.07138 0.018135,0.01086 0.038862,0.01658 0.05975,0.01658 0.041506,0 0.0789,-0.02134 0.1001204,-0.05695 0.03285,-0.05507 0.014647,-0.1265263 -0.040482,-0.1596534 -0.017974,-0.010639 -0.038585,-0.016366 -0.059426,-0.016366 z m 1.4434447,0.261924 c -0.04019,0 -0.07691,0.02014 -0.09829,0.05394 -0.03323,0.05259 -0.0197,0.121408 0.0309,0.157071 l 0.0051,0.0034 c 0.05368,0.03407 0.127553,0.01646 0.160514,-0.03596 0.0167,-0.02635 0.02213,-0.05716 0.0154,-0.08731 -0.0069,-0.03059 -0.02521,-0.05656 -0.05167,-0.07332 -0.01847,-0.01174 -0.04001,-0.01787 -0.062,-0.01787 z m -0.924975,0.822489 c -0.01958,0 -0.04856,0.0049 -0.07567,0.02821 -0.04879,0.04184 -0.05448,0.11561 -0.01272,0.16439 0.0221,0.02563 0.05437,0.04037 0.08859,0.04037 0.01958,0 0.04868,-0.0048 0.07568,-0.02799 0.0237,-0.02028 0.03799,-0.04835 0.04037,-0.07934 0.0024,-0.03099 -0.0075,-0.06113 -0.02778,-0.08484 -0.02226,-0.02596 -0.05448,-0.04079 -0.0885,-0.04079 z" />
  <path
     id="polygon8041-7"
     class="ColorScheme-Text"
     style="fill:currentColor;fill-opacity:1;stroke-width:0.0551193"
     d="M 8.3286873,4.4978687 4.9663888,6.4270559 v 4.0788531 l 3.3622985,1.929188 V 6.7626179 c -0.00851,-0.00182 -0.017173,-0.00375 -0.026053,-0.00567 -0.017741,-0.00394 -0.03632,-0.0083 -0.055871,-0.01292 -0.02907,-0.00679 -0.059538,-0.013872 -0.09118,-0.020666 -0.059457,-0.012727 -0.1238329,-0.023197 -0.1900127,-0.029495 -0.00871,-8.566e-4 -0.017213,-0.00213 -0.026053,-0.00274 -0.019744,-0.00141 -0.039945,-0.00141 -0.060075,-0.00172 -0.018964,-3.038e-4 -0.03794,-3.524e-4 -0.057168,5.357e-4 -0.106886,0.00516 -0.2171732,0.029111 -0.3255509,0.089357 -3.331e-4,1.822e-4 -6.429e-4,3.584e-4 -9.618e-4,5.356e-4 -0.017973,0.010024 -0.035895,0.021122 -0.053716,0.033161 -0.00172,0.00122 -0.00355,0.00232 -0.00527,0.00355 -0.017344,0.011928 -0.034629,0.024878 -0.051782,0.038861 -0.00162,0.00131 -0.00325,0.00283 -0.00496,0.00416 -0.017628,0.0146 -0.035165,0.030113 -0.052531,0.047043 -0.018348,0.017882 -0.036574,0.037059 -0.054587,0.057705 L 7.7837901,7.5084946 7.2461581,10.397539 6.4495074,9.8333166 5.5031076,10.07328 6.0405239,7.1842359 l 0.990646,-0.47756 0.089357,0.09527 C 7.3595527,6.5346873 7.6278293,6.4672226 7.8660421,6.4686442 c 0.00891,3.45e-5 0.018165,-9.617e-4 0.027026,-7.493e-4 0.044643,0.00122 0.087545,0.00506 0.129402,0.010227 0.00628,7.492e-4 0.01285,9.088e-4 0.019056,0.00172 0.095594,0.012828 0.1827103,0.032655 0.2554667,0.049624 0.00992,0.00232 0.019593,0.00455 0.029171,0.00679 v 0.2252113 c 6.967e-4,1.488e-4 0.00141,2.815e-4 0.00213,4.293e-4 V 6.5367884 c 1.438e-4,3.34e-5 2.916e-4,7.69e-5 4.384e-4,1.103e-4 z m 0.2755981,0 V 6.537403 c 0.1527369,0.0084 0.3480181,0.039266 0.551519,0.1276797 0.068124,0.00111 0.3470006,-0.00932 0.5479677,-0.2366274 -0.07507,-0.1080342 -0.082606,-0.2547507 -0.00794,-0.3725955 0.061782,-0.098338 0.1684908,-0.1570698 0.28518,-0.1570698 0.063723,0 0.1259819,0.017992 0.1799999,0.051994 0.07667,0.048511 0.12964,0.1237297 0.149318,0.2118665 0.01962,0.087919 0.0039,0.1780619 -0.04437,0.2538516 -0.06179,0.098166 -0.168438,0.1569614 -0.2850716,0.1569614 -0.033291,0 -0.066009,-0.00516 -0.097539,-0.014642 C 9.75222,6.7146448 9.5931861,6.7968118 9.4544495,6.8396949 c 0.1114527,0.085377 0.2098786,0.188091 0.2946531,0.3068178 0.086815,-0.019734 0.1809038,-0.00648 0.2571904,0.041554 0.157586,0.099817 0.204724,0.3087871 0.105178,0.465934 -0.06239,0.0985 -0.1691417,0.157177 -0.2856103,0.157177 -0.063882,0 -0.1263056,-0.018146 -0.1803223,-0.052429 C 9.4886739,7.6595306 9.4416382,7.4506653 9.5406326,7.2933546 9.5471128,7.2830974 9.554231,7.2732859 9.561734,7.2637478 9.4364864,7.0921602 9.2772225,6.9618014 9.0873363,6.875649 L 9.0872259,6.8755387 C 9.0870214,6.8754617 9.0866903,6.8754071 9.0864756,6.8753241 8.910368,6.7953433 8.7388341,6.7654308 8.6042863,6.7575491 v 1.3229788 c 0.2838665,0.020615 0.4170432,0.1636199 0.5164243,0.27689 0.074635,0.084993 0.1169651,0.1296876 0.1905495,0.1336011 0.106877,0.00567 0.1884323,0.00264 0.2673095,-2.146e-4 0.095746,-0.00334 0.1832762,-0.00618 0.2915307,0.00648 0.3128037,-0.00516 0.4190037,-0.073976 0.5311717,-0.1469504 0.08962,-0.058312 0.19034,-0.1234957 0.376149,-0.150394 0.0088,-0.030042 0.02155,-0.059315 0.03908,-0.086987 0.01041,-0.016423 0.02237,-0.031379 0.03499,-0.045433 0.0073,-0.00799 0.01559,-0.014682 0.02346,-0.021962 -0.06119,-0.2256048 -0.07232,-0.5456828 0.002,-0.7947138 -0.0013,-0.00122 -0.0028,-0.00213 -0.004,-0.00325 -0.118279,-0.108084 -0.144924,-0.2884706 -0.05657,-0.4280335 0.06184,-0.098328 0.168656,-0.1570697 0.285177,-0.1570697 0.06377,0 0.125985,0.018094 0.180003,0.052106 0.07667,0.048511 0.129584,0.1237297 0.149316,0.2118655 0.01958,0.087919 0.0039,0.1779554 -0.04435,0.2537442 -0.06179,0.098227 -0.168548,0.1570699 -0.285181,0.1570699 -0.0062,0 -0.01234,-8.04e-4 -0.01851,-0.00141 -0.05258,0.1926982 -0.04107,0.4469447 -0.0019,0.6209573 0.0069,-5.518e-4 0.01378,-9.617e-4 0.02067,-9.617e-4 0.06377,0 0.125984,0.017993 0.18,0.051994 0.07667,0.048511 0.129586,0.1237854 0.14932,0.2118665 0.01956,0.087858 0.0039,0.1780618 -0.04436,0.2538517 -0.06178,0.098166 -0.168548,0.1569615 -0.28518,0.1569615 -0.06384,0 -0.126035,-0.018094 -0.180109,-0.052318 -0.0073,-0.00476 -0.01165,-0.0076 -0.01561,-0.010439 -0.05364,-0.037869 -0.09284,-0.089043 -0.11627,-0.1460887 -0.123634,0.020778 -0.188972,0.062697 -0.267738,0.1137927 -0.06405,0.041504 -0.132281,0.085955 -0.232214,0.1205736 0.250078,0.1839346 0.585836,0.5294781 0.726999,0.760264 0.02733,-0.00709 0.05594,-0.010764 0.08504,-0.010764 0.06377,0 0.125982,0.017993 0.18,0.051994 0.07667,0.048511 0.129585,0.1237823 0.149317,0.2119732 0.01956,0.087865 0.0039,0.1780094 -0.04436,0.2537451 -0.06179,0.098167 -0.168547,0.1569622 -0.285181,0.1569622 -0.06384,0 -0.126033,-0.01798 -0.180107,-0.05221 -0.0073,-0.0048 -0.01165,-0.0077 -0.01561,-0.01054 -0.14579,-0.1028528 -0.185319,-0.3028831 -0.08925,-0.4547368 0.0053,-0.0084 0.01138,-0.016181 0.01733,-0.024007 C 10.686299,9.2824735 10.163078,8.7848358 10.019381,8.7493938 9.8318627,8.7028173 9.7238015,8.7065325 9.5864972,8.7116054 c -0.079809,0.00283 -0.1703736,0.00628 -0.2871168,0 C 9.1296129,8.7023808 9.0365785,8.5964363 8.9546161,8.5030637 8.8686309,8.4050089 8.7859244,8.3175304 8.6043045,8.3009945 V 10.61613 c 0.028057,-0.0058 0.075607,-0.0153 0.141029,-0.04457 0.00618,-0.0038 0.012758,-0.0068 0.019816,-0.0092 0.1844292,-0.08842 0.4692556,-0.301274 0.692655,-0.8093686 C 9.394855,9.7067474 9.3502259,9.6407299 9.3308781,9.5639486 9.3087735,9.4765253 9.3220635,9.3858181 9.3682307,9.3083747 9.4288624,9.206844 9.5399682,9.1437686 9.6582552,9.1437686 c 0.060741,0 0.1203712,0.016545 0.1726784,0.047691 C 9.9906162,9.2870942 10.043146,9.494537 9.948064,9.6541628 9.8895288,9.7522185 9.7839143,9.8137183 9.6703125,9.8179069 9.5283797,10.148848 9.3589974,10.373129 9.1971666,10.525314 c 0.095412,0.01847 0.1641678,0.05802 0.228768,0.101841 0.05082,0.03451 0.077257,0.05119 0.1225116,0.05361 0.058981,0.0018 0.1863123,-0.03483 0.2936853,-0.07341 -0.013173,-0.108476 0.026224,-0.221328 0.1150833,-0.29756 0.061076,-0.05247 0.1390912,-0.08139 0.2195102,-0.08139 0.09866,0 0.192006,0.04292 0.256221,0.117884 0.0587,0.06823 0.08719,0.155554 0.08031,0.245455 -0.0069,0.08984 -0.04846,0.171631 -0.116806,0.230168 -0.06102,0.05247 -0.13898,0.08128 -0.219511,0.08128 -0.08869,0 -0.173139,-0.03494 -0.2361964,-0.09645 -0.101916,0.03864 -0.2707756,0.09506 -0.3870218,0.09506 -0.00577,0 -0.011493,-1.66e-4 -0.017011,-4.37e-4 -0.108692,-0.0056 -0.1786233,-0.05314 -0.2349004,-0.09129 -0.086431,-0.0586 -0.1686775,-0.113876 -0.4634572,-0.03908 -0.1301927,0.0592 -0.2188855,0.06401 -0.2340433,0.06567 v 1.598464 L 11.966611,10.505922 V 6.4270692 Z m 1.3766991,1.6218309 c -0.040297,0 -0.077012,0.020149 -0.098288,0.053938 -0.033238,0.052581 -0.019694,0.1215143 0.030688,0.157177 l 0.00529,0.00344 c 0.053682,0.034062 0.1274415,0.016465 0.1605135,-0.035956 0.01681,-0.026296 0.02217,-0.05727 0.01541,-0.087413 -0.0069,-0.030588 -0.02527,-0.05656 -0.05167,-0.073319 -0.01857,-0.011744 -0.04001,-0.017869 -0.061901,-0.017869 z M 7.1179924,6.800728 c -0.053938,0.060307 -0.1063515,0.130611 -0.156531,0.2125126 -0.024199,-0.00425 -0.048896,-0.00658 -0.073308,-0.00658 -0.2006912,0 -0.3729754,0.1434509 -0.4096294,0.3409445 -0.020443,0.1095774 0.00294,0.2204246 0.065988,0.3123088 0.063001,0.091827 0.1580539,0.1537405 0.2676323,0.1740795 0.025304,0.00476 0.051022,0.00709 0.07665,0.00709 0.2006911,0 0.3732427,-0.1433964 0.4099524,-0.3409456 C 7.3267437,7.3496608 7.2693627,7.2028419 7.161378,7.1089175 7.196554,7.0535515 7.232732,7.0050407 7.2697869,6.9625058 Z m 3.9836846,0.082897 c -0.04018,0 -0.07691,0.0202 -0.09829,0.05404 -0.03324,0.052531 -0.0197,0.1213542 0.0309,0.1569623 l 0.0051,0.00355 c 0.05368,0.034123 0.127554,0.016353 0.160516,-0.036066 0.0167,-0.026346 0.02211,-0.057209 0.0154,-0.087311 -0.0069,-0.030589 -0.02521,-0.05656 -0.05167,-0.073308 -0.01847,-0.011685 -0.04002,-0.017871 -0.062,-0.017871 z M 6.8880408,7.2271545 c 0.012181,0 0.024311,0.00111 0.03638,0.00334 0.1066015,0.019846 0.1772335,0.1228122 0.1575,0.2294139 C 7.0623593,7.5648578 6.958448,7.6366513 6.8525077,7.6171941 6.7457958,7.5973484 6.6753277,7.4944892 6.6951159,7.3878876 6.7124811,7.2947944 6.7935047,7.2271585 6.8880347,7.2271585 Z m 2.9384581,0.1300469 c -0.021997,0 -0.043332,0.00608 -0.0618,0.017446 -0.015318,0.00942 -0.027821,0.021668 -0.037147,0.03638 -0.034235,0.054404 -0.017956,0.1267664 0.036282,0.1611604 0.018688,0.011796 0.040015,0.018085 0.061906,0.018085 0.04035,0 0.077329,-0.020413 0.098936,-0.054475 0.034332,-0.054182 0.018009,-0.1263846 -0.036388,-0.1609447 -0.0183,-0.011523 -0.039741,-0.017658 -0.0618,-0.017658 z M 7.1535185,7.7493908 c -0.00416,0.00334 -0.00881,0.00597 -0.013132,0.00911 -0.00375,0.00274 -0.00699,0.00618 -0.010763,0.00881 0.00821,-0.00567 0.016151,-0.011696 0.023896,-0.017983 z m -0.379163,0.076224 c 0.00578,0.00162 0.011502,0.00325 0.017336,0.00466 -0.00325,-7.817e-4 -0.00628,-0.00192 -0.00952,-0.00283 -0.00253,-6.957e-4 -0.00527,-0.00111 -0.0079,-0.00182 z m 0.03714,0.00881 c 0.00111,2.096e-4 0.00213,5.519e-4 0.00325,7.554e-4 0.025304,0.00476 0.051022,0.00709 0.076649,0.00709 0.013355,0 0.026538,-6.906e-4 0.039621,-0.00192 -0.013052,0.00122 -0.026285,0.00182 -0.039621,0.00182 -0.025638,0 -0.051355,-0.00233 -0.076649,-0.00709 -0.00111,-2.036e-4 -0.00213,-4.355e-4 -0.00325,-6.481e-4 z M 11.101676,8.176878 c -0.04019,0 -0.07691,0.020201 -0.09829,0.05404 -0.03323,0.052531 -0.0197,0.1213544 0.0309,0.1569614 l 0.0051,0.00355 c 0.05368,0.034123 0.127553,0.016403 0.160514,-0.035956 0.0167,-0.026346 0.02213,-0.05732 0.0154,-0.087413 -0.0069,-0.030589 -0.02521,-0.056449 -0.05167,-0.073207 -0.01847,-0.011796 -0.04001,-0.017983 -0.062,-0.017983 z M 9.6582313,9.3648609 c -0.041506,0 -0.079059,0.021183 -0.1003329,0.056733 -0.015876,0.026792 -0.020413,0.058069 -0.012809,0.088273 0.0076,0.030093 0.026559,0.055498 0.053178,0.071374 0.018135,0.010854 0.038862,0.016585 0.05975,0.016585 0.041506,0 0.0789,-0.021344 0.1001204,-0.056945 0.03285,-0.055062 0.014647,-0.1265263 -0.040482,-0.1596538 -0.017974,-0.010641 -0.038585,-0.016363 -0.059426,-0.016363 z m 1.4434447,0.2619234 c -0.04019,0 -0.07691,0.020144 -0.09829,0.053938 -0.03323,0.052588 -0.0197,0.1214063 0.0309,0.1570704 l 0.0051,0.00344 c 0.05368,0.034059 0.127553,0.016465 0.160514,-0.035956 0.0167,-0.026347 0.02213,-0.057159 0.0154,-0.087309 -0.0069,-0.030591 -0.02521,-0.056559 -0.05167,-0.073315 -0.01847,-0.011744 -0.04001,-0.017868 -0.062,-0.017868 z m -0.924975,0.8224887 c -0.01958,0 -0.04856,0.0048 -0.07567,0.02821 -0.04879,0.04184 -0.05448,0.115609 -0.01272,0.16439 0.0221,0.02563 0.05437,0.04037 0.08859,0.04037 0.01958,0 0.04868,-0.0048 0.07568,-0.02799 0.0237,-0.02028 0.03799,-0.04835 0.04037,-0.07934 0.0024,-0.03098 -0.0075,-0.06112 -0.02778,-0.08483 -0.02226,-0.02596 -0.05448,-0.0408 -0.0885,-0.0408 z" />
  <path
     id="gradient-path1"
     style="opacity:0.3;baseline-shift:baseline;display:inline;overflow:visible;vector-effect:none;enable-background:accumulate;stop-color:#000000;stop-opacity:1;fill:url(#linearGradient4)"
     d="M 8.4453131 1.2753492 C 4.4913166 1.2753492 1.2794833 4.4784283 1.2794833 8.4236094 C 1.2794833 12.36879 4.4913166 15.572386 8.4453131 15.572386 C 12.39931 15.572386 15.611143 12.36879 15.611143 8.4236094 C 15.611143 4.4784283 12.39931 1.2753492 8.4453131 1.2753492 z " />
</svg>
