<?xml version="1.0" encoding="UTF-8" standalone="no"?>
<svg
   width="64"
   height="64"
   version="1.1"
   viewBox="0 0 16.933 16.933"
   id="svg7"
   sodipodi:docname="org.mozilla.firefox.svg"
   inkscape:version="1.4.2 (ebf0e940d0, 2025-05-08)"
   xmlns:inkscape="http://www.inkscape.org/namespaces/inkscape"
   xmlns:sodipodi="http://sodipodi.sourceforge.net/DTD/sodipodi-0.dtd"
   xmlns:xlink="http://www.w3.org/1999/xlink"
   xmlns="http://www.w3.org/2000/svg"
   xmlns:svg="http://www.w3.org/2000/svg"
   xmlns:rdf="http://www.w3.org/1999/02/22-rdf-syntax-ns#"
   xmlns:cc="http://creativecommons.org/ns#"
   xmlns:dc="http://purl.org/dc/elements/1.1/">
  <sodipodi:namedview
     id="namedview7"
     pagecolor="#9c4444"
     bordercolor="#000000"
     borderopacity="0.25"
     inkscape:showpageshadow="2"
     inkscape:pageopacity="0.0"
     inkscape:pagecheckerboard="0"
     inkscape:deskcolor="#d1d1d1"
     inkscape:zoom="4.3531261"
     inkscape:cx="36.066035"
     inkscape:cy="26.188077"
     inkscape:window-width="2560"
     inkscape:window-height="1376"
     inkscape:window-x="0"
     inkscape:window-y="0"
     inkscape:window-maximized="1"
     inkscape:current-layer="svg7"
     showgrid="false" />
  <defs
     id="defs2">
    <filter
       style="color-interpolation-filters:sRGB;"
       inkscape:label="Blur"
       id="filter3"
       x="-0.10843471"
       y="-0.10870992"
       width="1.2168694"
       height="1.2174198">
      <feGaussianBlur
         stdDeviation="0.5 0.5"
         result="blur"
         id="feGaussianBlur3" />
    </filter>
    <style
       id="current-color-scheme"
       type="text/css">.ColorScheme-Text {color:#d8dee9} .ColorScheme-Highlight {color:#3b4252}</style>
    <linearGradient
       id="linearGradient3"
       inkscape:collect="always">
      <stop
         style="stop-color:#000000;stop-opacity:1;"
         offset="0"
         id="stop3" />
      <stop
         style="stop-color:#000000;stop-opacity:0;"
         offset="1"
         id="stop4" />
    </linearGradient>
    <linearGradient
       inkscape:collect="always"
       xlink:href="#linearGradient3"
       id="linearGradient4"
       x1="13.512321"
       y1="13.490874"
       x2="3.3783066"
       y2="3.3568602"
       gradientUnits="userSpaceOnUse" />
  </defs>
  <metadata
     id="metadata2">
    <rdf:RDF>
      <cc:Work
         rdf:about="">
        <dc:format>image/svg+xml</dc:format>
        <dc:type
           rdf:resource="http://purl.org/dc/dcmitype/StillImage" />
      </cc:Work>
    </rdf:RDF>
  </metadata>
  <ellipse
     style="opacity:1;fill:none;stroke:#000000;stroke-width:0.582072;stroke-dasharray:none;stroke-opacity:1;filter:url(#filter3)"
     id="path1-5"
     cx="8.4450111"
     cy="8.423522"
     rx="6.8752708"
     ry="6.8578653" />
  <ellipse
     style="opacity:1;fill:none;stroke-width:0.58207188;stroke-opacity:1;stroke:currentColor;stroke-dasharray:none;fill-opacity:1"
     id="path1"
     cx="8.4450111"
     cy="8.423522"
     rx="6.8752708"
     ry="6.8578653"
     class="ColorScheme-Text" />
  <ellipse
     style="fill:currentColor;stroke:none;stroke-width:0.285844;stroke-dasharray:none;stroke-opacity:1"
     id="path1-2"
     cx="8.4557552"
     cy="8.423522"
     rx="6.5738997"
     ry="6.5692253"
     class="ColorScheme-Highlight" />
  <path
     id="path5"
     d="m 8.5283373,5.092953 c -0.251993,-0.0017 -0.504103,0.02106 -0.752884,0.06777 0.952192,-0.03894 1.892783,0.303447 2.6019117,0.970228 0.179622,0.170338 0.336282,0.3624 0.466967,0.571834 0.52812,0.85869 0.486607,1.9426068 0.06196,2.5991029 -0.08284,0.1280999 -0.190332,0.254015 -0.315591,0.3699338 0.325255,-0.1815056 0.606986,-0.4429187 0.814437,-0.76873 C 11.786475,8.3080956 11.802301,7.535975 11.599627,6.92093 11.500597,6.628979 11.340643,6.361402 11.130049,6.136368 c -1.95e-4,-1.98e-4 -4.12e-4,-4.02e-4 -6.23e-4,-5.66e-4 -1.85e-4,-1.98e-4 -4.21e-4,-4.13e-4 -6.22e-4,-5.66e-4 C 10.873991,5.870013 10.571731,5.654579 10.237976,5.499842 l -0.0014,-5.66e-4 -0.0016,-5.66e-4 C 9.9529363,5.359685 9.6557043,5.254232 9.3491583,5.184513 l -6.22e-4,-2.03e-4 h -1.95e-4 v -1.98e-4 h -1.95e-4 -1.95e-4 c -0.270034,-0.05902 -0.54474,-0.08917 -0.819666,-0.09083 z m -2.246967,0.518321 -6.22e-4,1.98e-4 -0.0014,0.0011 c 6.23e-4,-4.92e-4 0.0013,-0.0011 0.002,-0.0017 z m 1.438201,0.187268 c -0.491745,-0.01755 -1.092939,0.138169 -1.588378,0.502664 -0.59576,0.438317 -0.983121,1.104922 -1.111981,1.9053671 -0.09247,0.6126225 -0.01073,1.2394526 0.235584,1.8087219 0.522708,1.233356 1.693293,2.067491 3.02919,2.159008 0.100681,0.0077 0.201047,0.01172 0.301552,0.0116 0.670313,0 1.242644,-0.127115 1.7209077,-0.351481 0.478264,-0.22436 0.862841,-0.546084 1.157498,-0.938547 C 12.053258,10.110952 12.282362,9.0398899 12.15688,7.9063883 12.11119,7.494177 12.001134,7.128879 11.841288,6.807839 c 0.013,0.04591 0.02428,0.09244 0.03469,0.138951 l 0.0034,-0.0011 c 4.52e-4,0.0017 7.36e-4,0.0028 0.0012,0.0045 v 1.98e-4 1.93e-4 1.98e-4 c 0.123929,0.398581 0.172073,0.821502 0.153187,1.2354905 -0.04643,1.0161394 -0.757516,2.4194875 -2.3899887,2.6360025 -0.07493,0.01075 -0.151624,0.01823 -0.228772,0.02202 l -10e-4,2.09e-4 c -0.462346,0.03407 -0.924143,-0.06988 -1.327328,-0.298749 -0.01353,-0.0075 -0.02891,-0.01681 -0.0407,-0.02366 -0.07672,-0.04523 -0.150296,-0.09449 -0.220946,-0.147764 -0.02655,-0.01987 -0.05296,-0.04047 -0.0792,-0.06196 -0.05928,-0.0493 -0.115995,-0.101258 -0.169822,-0.15579 -0.02416,-0.02428 -0.05251,-0.05185 -0.0784,-0.0806 -0.057,-0.06401 -0.11024,-0.130721 -0.159601,-0.2001059 -0.01182,-0.016415 -0.03378,-0.043245 -0.04972,-0.067166 C 7.2218373,9.7105795 7.1626483,9.6071192 7.1116453,9.4995438 7.0087103,9.2887457 6.9384543,9.0625514 6.9039233,8.8296609 6.7062453,7.494163 7.5485163,6.337562 8.3902433,5.971924 8.2238563,5.870496 7.9888003,5.808096 7.7195643,5.79849 Z M 5.0929923,6.912538 C 4.9706093,7.077871 4.8599483,7.26772 4.7856253,7.44647 l -2e-4,5.66e-4 -2e-4,1.98e-4 c -1.38e-4,3.39e-4 -2.75e-4,5.66e-4 -4.06e-4,0.0011 v 1.92e-4 c -0.250835,0.6353887 -0.339349,1.3232773 -0.257241,2.0014073 0.0062,0.05366 0.01172,0.104932 0.01825,0.1545905 0.22094,1.2670632 1.003347,2.2613472 2.026469,2.8138452 1.023869,0.552906 2.2853,0.661693 3.4666807,0.15017 1.181381,-0.511522 1.965482,-1.505965 2.262867,-2.6309755 0.134264,-0.5079283 0.169014,-1.0417131 0.09564,-1.5691356 0.05229,2.1685741 -1.196808,4.0264791 -3.8119397,4.0264791 -0.105432,6.8e-5 -0.210728,-0.004 -0.315791,-0.012 h -6.22e-4 c -1.85e-4,-1.7e-5 -4.21e-4,1.2e-5 -6.23e-4,0 -1.413594,-0.09727 -2.652583,-0.980235 -3.205829,-2.284719 C 4.8008293,9.4930144 4.7140243,8.8264372 4.8124523,8.1743789 l 2e-4,-5.661e-4 v -5.66e-4 c 0.02581,-0.1603528 0.06177,-0.3163188 0.10707,-0.4665678 0.03087,-0.270487 0.08898,-0.53653 0.173233,-0.794185 z m 2.738258,0.8552767 c -0.01364,0.00509 -0.02726,0.010132 -0.0411,0.016019 -0.139704,0.059502 -0.289928,0.1695679 -0.416849,0.3593037 -0.107865,0.1613886 -0.16395,0.3782716 -0.171827,0.6049131 -0.0078,0.2246942 0.03177,0.4573923 0.101857,0.6456225 0.376639,0.803519 1.210553,1.289484 2.095648,1.220444 l 0.0012,-1.92e-4 h 0.0012 c 0.8407467,-0.05111 1.4265937,-0.418833 1.8183487,-0.8982446 0.208409,-0.2550395 0.360112,-0.5432093 0.459755,-0.8300828 -0.0059,0.00957 -0.01196,0.018962 -0.01805,0.028472 -0.502377,0.7890055 -1.394428,1.2416484 -2.3280287,1.1815584 l -0.0046,-1.98e-4 c -0.01527,-5.49e-4 -0.03061,-0.0011 -0.04592,-0.0023 -1.317077,-0.07896 -1.883838,-1.1905359 -1.589576,-2.0419244 0.0343,-0.099221 0.0802,-0.1944792 0.137944,-0.2835056 z"
     style="opacity:0.3;fill:#000000;fill-opacity:1;stroke-width:0.102657" />
  <path
     id="path5-7"
     class="ColorScheme-Text"
     d="m 8.5283373,4.5637796 c -0.251993,-0.0017 -0.504103,0.02106 -0.752884,0.06777 0.952192,-0.03894 1.892783,0.303447 2.6019117,0.970228 0.179622,0.170338 0.336282,0.3624 0.466967,0.571834 0.52812,0.85869 0.486607,1.9426068 0.06196,2.5991029 -0.08284,0.1280999 -0.190332,0.254015 -0.315591,0.3699338 0.325255,-0.1815056 0.606986,-0.4429187 0.814437,-0.76873 0.381337,-0.5949961 0.397163,-1.3671167 0.194489,-1.9821617 -0.09903,-0.291951 -0.258984,-0.559528 -0.469578,-0.784562 -1.95e-4,-1.98e-4 -4.12e-4,-4.02e-4 -6.23e-4,-5.66e-4 -1.85e-4,-1.98e-4 -4.21e-4,-4.13e-4 -6.22e-4,-5.66e-4 -0.254813,-0.265223 -0.557073,-0.480657 -0.890828,-0.635394 l -0.0014,-5.66e-4 -0.0016,-5.66e-4 C 9.9529363,4.8305116 9.6557043,4.7250586 9.3491583,4.6553396 l -6.22e-4,-2.03e-4 h -1.95e-4 v -1.98e-4 h -1.95e-4 -1.95e-4 c -0.270034,-0.05902 -0.54474,-0.08917 -0.819666,-0.09083 z m -2.246967,0.518321 -6.22e-4,1.98e-4 -0.0014,0.0011 c 6.23e-4,-4.92e-4 0.0013,-0.0011 0.002,-0.0017 z m 1.438201,0.187268 c -0.491745,-0.01755 -1.092939,0.138169 -1.588378,0.502664 -0.59576,0.438317 -0.983121,1.104922 -1.111981,1.9053671 -0.09247,0.6126225 -0.01073,1.2394526 0.235584,1.8087224 0.522708,1.2333559 1.693293,2.0674909 3.02919,2.1590079 0.100681,0.0077 0.201047,0.01172 0.301552,0.0116 0.670313,0 1.242644,-0.127115 1.7209077,-0.351481 0.478264,-0.22436 0.862841,-0.546084 1.157498,-0.938547 0.589314,-0.7849234 0.818418,-1.8559855 0.692936,-2.9894871 -0.04569,-0.4122113 -0.155746,-0.7775093 -0.315592,-1.0985493 0.013,0.04591 0.02428,0.09244 0.03469,0.138951 l 0.0034,-0.0011 c 4.52e-4,0.0017 7.36e-4,0.0028 0.0012,0.0045 v 1.98e-4 1.93e-4 1.98e-4 c 0.123929,0.398581 0.172073,0.821502 0.153187,1.2354905 -0.04643,1.0161394 -0.757516,2.4194879 -2.3899887,2.6360029 -0.07493,0.01075 -0.151624,0.01823 -0.228772,0.02202 l -10e-4,2.09e-4 c -0.462346,0.03407 -0.924143,-0.06988 -1.327328,-0.298749 -0.01353,-0.0075 -0.02891,-0.016811 -0.0407,-0.02366 -0.07672,-0.045226 -0.150296,-0.094489 -0.220946,-0.1477641 -0.02655,-0.019868 -0.05296,-0.040472 -0.0792,-0.061958 -0.05928,-0.049302 -0.115995,-0.1012585 -0.169822,-0.1557905 -0.02416,-0.024283 -0.05251,-0.051849 -0.0784,-0.080598 -0.057,-0.064008 -0.11024,-0.1307208 -0.159601,-0.2001057 -0.01182,-0.016415 -0.03378,-0.043245 -0.04972,-0.067166 C 7.2218373,9.1814061 7.1626483,9.0779458 7.1116453,8.9703704 7.0087103,8.7595723 6.9384543,8.533378 6.9039233,8.3004875 6.7062453,6.9649896 7.5485163,5.8083886 8.3902433,5.4427506 8.2238563,5.3413226 7.9888003,5.2789226 7.7195643,5.2693166 Z m -2.626579,1.113996 c -0.122383,0.165333 -0.233044,0.355182 -0.307367,0.533932 l -2e-4,5.66e-4 -2e-4,1.98e-4 c -1.38e-4,3.39e-4 -2.75e-4,5.66e-4 -4.06e-4,0.0011 v 1.92e-4 c -0.250835,0.6353887 -0.339349,1.3232773 -0.257241,2.0014073 0.0062,0.05366 0.01172,0.104932 0.01825,0.1545905 0.22094,1.2670636 1.003347,2.2613476 2.026469,2.8138456 1.023869,0.552906 2.2853,0.661693 3.4666807,0.15017 1.181381,-0.511522 1.965482,-1.505965 2.262867,-2.6309759 0.134264,-0.5079283 0.169014,-1.0417131 0.09564,-1.5691356 0.05229,2.1685745 -1.196808,4.0264795 -3.8119397,4.0264795 -0.105432,6.8e-5 -0.210728,-0.004 -0.315791,-0.012 h -6.22e-4 c -1.85e-4,-1.7e-5 -4.21e-4,1.2e-5 -6.23e-4,0 C 6.8549153,11.756466 5.6159263,10.873499 5.0626803,9.5690146 4.8008293,8.963841 4.7140243,8.2972638 4.8124523,7.6452055 l 2e-4,-5.661e-4 v -5.66e-4 c 0.02581,-0.1603528 0.06177,-0.3163188 0.10707,-0.4665678 0.03087,-0.270487 0.08898,-0.53653 0.173233,-0.794185 z m 2.738258,0.8552767 c -0.01364,0.00509 -0.02726,0.010132 -0.0411,0.016019 -0.139704,0.059502 -0.289928,0.1695679 -0.416849,0.3593037 -0.107865,0.1613886 -0.16395,0.3782716 -0.171827,0.6049131 -0.0078,0.2246942 0.03177,0.4573923 0.101857,0.6456225 0.376639,0.8035188 1.210553,1.2894844 2.095648,1.2204444 l 0.0012,-1.92e-4 h 0.0012 c 0.8407467,-0.05111 1.4265937,-0.4188336 1.8183487,-0.898245 0.208409,-0.2550395 0.360112,-0.5432093 0.459755,-0.8300828 -0.0059,0.00957 -0.01196,0.018962 -0.01805,0.028472 -0.502377,0.7890055 -1.394428,1.2416489 -2.3280287,1.1815583 l -0.0046,-1.981e-4 c -0.01527,-5.49e-4 -0.03061,-0.00113 -0.04592,-0.00226 -1.317077,-0.078957 -1.883838,-1.1905357 -1.589576,-2.0419242 0.0343,-0.099221 0.0802,-0.1944792 0.137944,-0.2835056 z"
     style="fill:currentColor;fill-opacity:1;stroke-width:0.102657" />
  <path
     id="gradient-path1"
     style="opacity:0.3;baseline-shift:baseline;display:inline;overflow:visible;vector-effect:none;enable-background:accumulate;stop-color:#000000;stop-opacity:1;fill:url(#linearGradient4)"
     d="M 8.4453131 1.2753492 C 4.4913166 1.2753492 1.2794833 4.4784283 1.2794833 8.4236094 C 1.2794833 12.36879 4.4913166 15.572386 8.4453131 15.572386 C 12.39931 15.572386 15.611143 12.36879 15.611143 8.4236094 C 15.611143 4.4784283 12.39931 1.2753492 8.4453131 1.2753492 z " />
</svg>
