<?xml version="1.0" encoding="UTF-8" standalone="no"?>
<svg
   width="64"
   height="64"
   version="1.1"
   viewBox="0 0 16.933 16.933"
   id="svg7"
   sodipodi:docname="org.gnome.World.PikaBackup.svg"
   inkscape:version="1.4.2 (ebf0e940d0, 2025-05-08)"
   xmlns:inkscape="http://www.inkscape.org/namespaces/inkscape"
   xmlns:sodipodi="http://sodipodi.sourceforge.net/DTD/sodipodi-0.dtd"
   xmlns:xlink="http://www.w3.org/1999/xlink"
   xmlns="http://www.w3.org/2000/svg"
   xmlns:svg="http://www.w3.org/2000/svg"
   xmlns:rdf="http://www.w3.org/1999/02/22-rdf-syntax-ns#"
   xmlns:cc="http://creativecommons.org/ns#"
   xmlns:dc="http://purl.org/dc/elements/1.1/">
  <sodipodi:namedview
     id="namedview7"
     pagecolor="#9c4444"
     bordercolor="#000000"
     borderopacity="0.25"
     inkscape:showpageshadow="2"
     inkscape:pageopacity="0.0"
     inkscape:pagecheckerboard="0"
     inkscape:deskcolor="#d1d1d1"
     inkscape:zoom="8.7062522"
     inkscape:cx="72.534081"
     inkscape:cy="15.276378"
     inkscape:window-width="2560"
     inkscape:window-height="1388"
     inkscape:window-x="0"
     inkscape:window-y="0"
     inkscape:window-maximized="1"
     inkscape:current-layer="svg7"
     showgrid="false" />
  <defs
     id="defs2">
    <filter
       style="color-interpolation-filters:sRGB;"
       inkscape:label="Blur"
       id="filter3"
       x="-0.10843471"
       y="-0.10870992"
       width="1.2168694"
       height="1.2174198">
      <feGaussianBlur
         stdDeviation="0.5 0.5"
         result="blur"
         id="feGaussianBlur3" />
    </filter>
    <style
       id="current-color-scheme"
       type="text/css">.ColorScheme-Text {color:#d8dee9} .ColorScheme-Highlight {color:#3b4252}</style>
    <linearGradient
       id="linearGradient3"
       inkscape:collect="always">
      <stop
         style="stop-color:#000000;stop-opacity:1;"
         offset="0"
         id="stop3" />
      <stop
         style="stop-color:#000000;stop-opacity:0;"
         offset="1"
         id="stop4" />
    </linearGradient>
    <linearGradient
       inkscape:collect="always"
       xlink:href="#linearGradient3"
       id="linearGradient4"
       x1="13.512321"
       y1="13.490874"
       x2="3.3783066"
       y2="3.3568602"
       gradientUnits="userSpaceOnUse" />
  </defs>
  <metadata
     id="metadata2">
    <rdf:RDF>
      <cc:Work
         rdf:about="">
        <dc:format>image/svg+xml</dc:format>
        <dc:type
           rdf:resource="http://purl.org/dc/dcmitype/StillImage" />
      </cc:Work>
    </rdf:RDF>
  </metadata>
  <ellipse
     style="opacity:1;fill:none;stroke:#000000;stroke-width:0.582072;stroke-dasharray:none;stroke-opacity:1;filter:url(#filter3)"
     id="path1-5"
     cx="8.4450111"
     cy="8.423522"
     rx="6.8752708"
     ry="6.8578653" />
  <ellipse
     style="opacity:1;fill:none;stroke-width:0.58207188;stroke-opacity:1;stroke:currentColor;stroke-dasharray:none;fill-opacity:1"
     id="path1"
     cx="8.4450111"
     cy="8.423522"
     rx="6.8752708"
     ry="6.8578653"
     class="ColorScheme-Text" />
  <ellipse
     style="fill:currentColor;stroke:none;stroke-width:0.285844;stroke-dasharray:none;stroke-opacity:1"
     id="path1-2"
     cx="8.4557552"
     cy="8.423522"
     rx="6.5738997"
     ry="6.5692253"
     class="ColorScheme-Highlight" />
  <path
     id="path5-3"
     style="opacity:0.3;fill:#000000;fill-opacity:1;stroke-width:0.0684255"
     d="m 8.4665,5.0269844 c -1.738432,0 -3.147567,1.409135 -3.147567,3.1475673 0,1.7384322 1.409135,3.1475673 3.147567,3.1475673 1.738432,0 3.147567,-1.4091351 3.147567,-3.1475673 0,-1.7384323 -1.409135,-3.1475673 -3.147567,-3.1475673 z m 0.058,1.1643005 c 0.309154,0.0092 0.618546,0.093115 0.899953,0.2556597 0.750434,0.4331749 1.116955,1.3181335 0.892604,2.155132 -0.224339,0.8369591 -0.983967,1.4199604 -1.850559,1.4199604 -0.866591,0 -1.626219,-0.5830013 -1.850559,-1.4199604 A 0.1368511,0.1368511 0 0 1 6.712699,8.434488 0.1368511,0.1368511 0 0 1 6.880288,8.531246 c 0.192627,0.7186492 0.842134,1.2170897 1.586212,1.2170897 0.744078,0 1.393585,-0.4984405 1.586212,-1.2170897 C 10.245329,7.8126363 9.931873,7.0559206 9.287605,6.6840282 8.654913,6.3185753 7.860628,6.4151015 7.333873,6.9168348 L 7.536877,7.1198391 A 0.13686444,0.13686444 0 0 1 7.440117,7.3534476 H 6.824289 A 0.13686444,0.13686444 0 0 1 6.687438,7.2165968 V 6.6007684 a 0.13686444,0.13686444 0 0 1 0.08446,-0.1264266 0.13686444,0.13686444 0 0 1 0.05239,-0.010424 0.13686444,0.13686444 0 0 1 0.09676,0.040093 l 0.219175,0.219175 C 7.52008,6.3589527 8.021975,6.1763264 8.524501,6.1912853 Z M 8.4665,7.0113204 A 0.13685075,0.13685075 0 0 1 8.603351,7.1481711 V 8.165464 l 0.617833,0.3707266 a 0.13685075,0.13685075 0 0 1 0.04691,0.1877689 0.13685075,0.13685075 0 0 1 -0.187769,0.046909 L 8.329651,8.3204904 V 7.1481713 A 0.13685075,0.13685075 0 0 1 8.466502,7.0113205 Z M 5.363837,9.2549242 c 0.253188,1.4845568 1.545909,2.6145978 3.102663,2.6145978 1.556753,0 2.849475,-1.130041 3.102663,-2.6145978 C 11.122445,10.538191 9.902134,11.45897 8.4665,11.45897 c -1.435633,0 -2.655945,-0.920779 -3.102663,-2.2040458 z m 0,0.5468685 c 0.252947,1.4848463 1.545705,2.6151323 3.102663,2.6151323 1.55696,0 2.849717,-1.130286 3.102663,-2.6151323 C 11.122384,11.08586 9.90165,12.006372 8.4665,12.006372 c -1.435149,0 -2.655883,-0.920513 -3.102663,-2.2045793 z M 5.3637,10.348795 c 0.252778,1.485053 1.545694,2.615533 3.1028,2.615533 1.557106,0 2.850022,-1.13048 3.102797,-2.615533 -0.446619,1.284307 -1.667466,2.204981 -3.102797,2.204981 -1.435331,0 -2.656177,-0.920674 -3.102797,-2.204981 z" />
  <path
     id="path5-3-7"
     style="fill:currentColor;fill-opacity:1;stroke-width:0.0684255"
     d="m 8.4665,4.4978281 c -1.738432,0 -3.147567,1.409135 -3.147567,3.1475673 0,1.7384322 1.409135,3.1475676 3.147567,3.1475676 1.738432,0 3.147567,-1.4091354 3.147567,-3.1475676 0,-1.7384323 -1.409135,-3.1475673 -3.147567,-3.1475673 z m 0.058,1.1643005 c 0.309154,0.0092 0.618546,0.093115 0.899953,0.2556597 0.750434,0.4331749 1.116955,1.3181335 0.892604,2.155132 -0.224339,0.8369591 -0.983967,1.4199603 -1.850559,1.4199603 -0.866591,0 -1.626219,-0.5830012 -1.850559,-1.4199603 a 0.1368511,0.1368511 0 0 1 0.09676,-0.1675886 0.1368511,0.1368511 0 0 1 0.167589,0.096758 c 0.192627,0.7186492 0.842134,1.2170897 1.586212,1.2170897 0.744078,0 1.393585,-0.4984405 1.586212,-1.2170897 C 10.245329,7.28348 9.931873,6.5267643 9.287605,6.1548719 8.654913,5.789419 7.860628,5.8859452 7.333873,6.3876785 L 7.536877,6.5906828 A 0.13686444,0.13686444 0 0 1 7.440117,6.8242913 H 6.824289 A 0.13686444,0.13686444 0 0 1 6.687438,6.6874405 V 6.0716121 a 0.13686444,0.13686444 0 0 1 0.08446,-0.1264266 0.13686444,0.13686444 0 0 1 0.05239,-0.010424 0.13686444,0.13686444 0 0 1 0.09676,0.040093 l 0.219175,0.219175 C 7.52008,5.8297964 8.021975,5.6471701 8.524501,5.662129 Z m -0.058,0.8200355 a 0.13685075,0.13685075 0 0 1 0.136851,0.1368507 v 1.0172929 l 0.617833,0.3707266 a 0.13685075,0.13685075 0 0 1 0.04691,0.1877689 0.13685075,0.13685075 0 0 1 -0.187769,0.046909 L 8.329651,7.7913341 V 6.619015 A 0.13685075,0.13685075 0 0 1 8.466502,6.4821642 Z M 5.363837,8.7257679 c 0.253188,1.4845571 1.545909,2.6145981 3.102663,2.6145981 1.556753,0 2.849475,-1.130041 3.102663,-2.6145981 -0.446718,1.2832671 -1.667029,2.2040461 -3.102663,2.2040461 -1.435633,0 -2.655945,-0.920779 -3.102663,-2.2040461 z m 0,0.5468685 c 0.252947,1.4848466 1.545705,2.6151326 3.102663,2.6151326 1.55696,0 2.849717,-1.130286 3.102663,-2.6151326 C 11.122384,10.556704 9.90165,11.477216 8.4665,11.477216 c -1.435149,0 -2.655883,-0.920513 -3.102663,-2.2045796 z M 5.3637,9.8196386 c 0.252778,1.4850534 1.545694,2.6155334 3.1028,2.6155334 1.557106,0 2.850022,-1.13048 3.102797,-2.6155334 C 11.122678,11.103946 9.901831,12.02462 8.4665,12.02462 c -1.435331,0 -2.656177,-0.920674 -3.102797,-2.2049814 z"
     class="ColorScheme-Text" />
  <path
     id="gradient-path1"
     style="opacity:0.3;baseline-shift:baseline;display:inline;overflow:visible;vector-effect:none;enable-background:accumulate;stop-color:#000000;stop-opacity:1;fill:url(#linearGradient4)"
     d="M 8.4453131 1.2753492 C 4.4913166 1.2753492 1.2794833 4.4784283 1.2794833 8.4236094 C 1.2794833 12.36879 4.4913166 15.572386 8.4453131 15.572386 C 12.39931 15.572386 15.611143 12.36879 15.611143 8.4236094 C 15.611143 4.4784283 12.39931 1.2753492 8.4453131 1.2753492 z " />
</svg>
