<?xml version="1.0" encoding="UTF-8" standalone="no"?>
<svg
   width="64"
   height="64"
   version="1.1"
   viewBox="0 0 16.933 16.933"
   id="svg7"
   sodipodi:docname="org.kde.kclock.svg"
   inkscape:version="1.4.3 (0d15f75042, 2025-12-25)"
   xmlns:inkscape="http://www.inkscape.org/namespaces/inkscape"
   xmlns:sodipodi="http://sodipodi.sourceforge.net/DTD/sodipodi-0.dtd"
   xmlns:xlink="http://www.w3.org/1999/xlink"
   xmlns="http://www.w3.org/2000/svg"
   xmlns:svg="http://www.w3.org/2000/svg"
   xmlns:rdf="http://www.w3.org/1999/02/22-rdf-syntax-ns#"
   xmlns:cc="http://creativecommons.org/ns#"
   xmlns:dc="http://purl.org/dc/elements/1.1/">
  <sodipodi:namedview
     id="namedview7"
     pagecolor="#9c4444"
     bordercolor="#000000"
     borderopacity="0.25"
     inkscape:showpageshadow="2"
     inkscape:pageopacity="0.0"
     inkscape:pagecheckerboard="0"
     inkscape:deskcolor="#d1d1d1"
     inkscape:zoom="8.7062522"
     inkscape:cx="85.168679"
     inkscape:cy="11.715719"
     inkscape:window-width="2560"
     inkscape:window-height="1388"
     inkscape:window-x="0"
     inkscape:window-y="0"
     inkscape:window-maximized="1"
     inkscape:current-layer="svg7"
     showgrid="false" />
  <defs
     id="defs2">
    <filter
       style="color-interpolation-filters:sRGB;"
       inkscape:label="Blur"
       id="filter3"
       x="-0.10843471"
       y="-0.10870992"
       width="1.2168694"
       height="1.2174198">
      <feGaussianBlur
         stdDeviation="0.5 0.5"
         result="blur"
         id="feGaussianBlur3" />
    </filter>
    <style
       id="current-color-scheme"
       type="text/css">.ColorScheme-Text {color:#d8dee9} .ColorScheme-Highlight {color:#3b4252}</style>
    <linearGradient
       id="linearGradient3"
       inkscape:collect="always">
      <stop
         style="stop-color:#000000;stop-opacity:1;"
         offset="0"
         id="stop3" />
      <stop
         style="stop-color:#000000;stop-opacity:0;"
         offset="1"
         id="stop4" />
    </linearGradient>
    <linearGradient
       inkscape:collect="always"
       xlink:href="#linearGradient3"
       id="linearGradient4"
       x1="13.512321"
       y1="13.490874"
       x2="3.3783066"
       y2="3.3568602"
       gradientUnits="userSpaceOnUse" />
  </defs>
  <metadata
     id="metadata2">
    <rdf:RDF>
      <cc:Work
         rdf:about="">
        <dc:format>image/svg+xml</dc:format>
        <dc:type
           rdf:resource="http://purl.org/dc/dcmitype/StillImage" />
      </cc:Work>
    </rdf:RDF>
  </metadata>
  <ellipse
     style="opacity:1;fill:none;stroke:#000000;stroke-width:0.582072;stroke-dasharray:none;stroke-opacity:1;filter:url(#filter3)"
     id="path1-5"
     cx="8.4450111"
     cy="8.423522"
     rx="6.8752708"
     ry="6.8578653" />
  <ellipse
     style="opacity:1;fill:none;stroke-width:0.58207188;stroke-opacity:1;stroke:currentColor;stroke-dasharray:none;fill-opacity:1"
     id="path1"
     cx="8.4450111"
     cy="8.423522"
     rx="6.8752708"
     ry="6.8578653"
     class="ColorScheme-Text" />
  <ellipse
     style="fill:currentColor;stroke:none;stroke-width:0.285844;stroke-dasharray:none;stroke-opacity:1"
     id="path1-2"
     cx="8.4557552"
     cy="8.423522"
     rx="6.5738997"
     ry="6.5692253"
     class="ColorScheme-Highlight" />
  <path
     id="path5"
     style="opacity:0.3;fill:#000000;fill-opacity:1;stroke-width:0.566038"
     d="m 8.4665,5.0269844 c -2.191841,0 -3.968672,1.7768312 -3.968672,3.968672 0,2.1918406 1.776831,3.9686716 3.968672,3.9686716 2.191841,0 3.968672,-1.776831 3.968672,-3.9686716 0,-2.1918408 -1.776831,-3.968672 -3.968672,-3.968672 z m 0,0.5669531 c 0.156621,0 0.283476,0.1268558 0.283476,0.2834766 v 0.5669532 c 0,0.1566207 -0.126855,0.2834765 -0.283476,0.2834765 0.156621,0 0.283476,0.1342531 0.283476,0.3000869 V 8.5048323 C 8.666546,8.4564703 8.569699,8.4287033 8.4665,8.4287033 c -0.1032,0 -0.200041,0.027766 -0.283476,0.076129 V 7.0279307 c 0,-0.1658338 0.126855,-0.3000869 0.283476,-0.3000869 -0.156621,0 -0.283476,-0.1268558 -0.283476,-0.2834765 V 5.8774141 c 0,-0.1566208 0.126855,-0.2834766 0.283476,-0.2834766 z M 6.064977,7.4365353 c 0.02352,5.66e-4 0.04742,0.00717 0.06921,0.019931 l 1.93672,1.1333535 C 8.000377,8.6585958 7.947574,8.7456298 7.92031,8.8431216 L 5.988294,7.712538 C 5.918554,7.671717 5.894614,7.5811763 5.934864,7.5104489 c 0.02767,-0.048625 0.07837,-0.07527 0.130112,-0.073914 z M 8.4665,8.5704415 c 0.23486,0 0.425215,0.1903545 0.425215,0.4252149 0,0.2348603 -0.190355,0.4252148 -0.425215,0.4252148 -0.234861,0 -0.425215,-0.1903545 -0.425215,-0.4252148 0,-0.2348604 0.190354,-0.4252149 0.425215,-0.4252149 z M 5.348257,8.7121798 h 0.566954 c 0.156621,0 0.283476,0.1268558 0.283476,0.2834766 0,0.1566208 -0.126855,0.2834765 -0.283476,0.2834765 H 5.348257 c -0.156621,0 -0.283476,-0.1268557 -0.283476,-0.2834765 0,-0.1566208 0.126855,-0.2834766 0.283476,-0.2834766 z m 3.118243,0 c -0.156139,0 -0.283476,0.1273377 -0.283476,0.2834766 0,0.1561389 0.127337,0.2834765 0.283476,0.2834765 0.156138,0 0.283476,-0.1273376 0.283476,-0.2834765 0,-0.1561389 -0.127338,-0.2834766 -0.283476,-0.2834766 z m 2.551289,0 h 0.566953 c 0.156621,0 0.283477,0.1268558 0.283477,0.2834766 0,0.1566208 -0.126856,0.2834765 -0.283477,0.2834765 h -0.566953 c -0.156621,0 -0.283477,-0.1268557 -0.283477,-0.2834765 0,-0.1566208 0.126856,-0.2834766 0.283477,-0.2834766 z M 8.4665,8.8539181 c 0.07824,0 0.141738,0.063499 0.141738,0.1417383 0,0.07824 -0.0635,0.1417382 -0.141738,0.1417382 -0.07824,0 -0.141738,-0.063499 -0.141738,-0.1417382 0,-0.078239 0.0635,-0.1417383 0.141738,-0.1417383 z m 0.553665,0.2640981 1.624731,1.6247298 c 0.119059,0.119202 0.119059,0.312104 0,0.431306 -0.119202,0.11906 -0.312104,0.11906 -0.431306,0 L 8.58886,9.5493216 C 8.803475,9.5019456 8.972789,9.3326306 9.020165,9.1180162 Z M 8.4665,11.263469 c 0.156621,0 0.283476,0.126856 0.283476,0.283476 v 0.566954 c 0,0.15662 -0.126855,0.283476 -0.283476,0.283476 -0.156621,0 -0.283476,-0.126856 -0.283476,-0.283476 v -0.566954 c 0,-0.15662 0.126855,-0.283476 0.283476,-0.283476 z"
     class="ColorScheme-Text" />
  <path
     id="path5-7"
     style="fill:currentColor;stroke-width:0.566038"
     d="m 8.4665,4.4978281 c -2.191841,0 -3.968672,1.7768312 -3.968672,3.968672 0,2.1918409 1.776831,3.9686719 3.968672,3.9686719 2.191841,0 3.968672,-1.776831 3.968672,-3.9686719 0,-2.1918408 -1.776831,-3.968672 -3.968672,-3.968672 z m 0,0.5669531 c 0.156621,0 0.283476,0.1268558 0.283476,0.2834766 V 5.915211 c 0,0.1566207 -0.126855,0.2834765 -0.283476,0.2834765 0.156621,0 0.283476,0.1342531 0.283476,0.3000869 V 7.975676 C 8.666546,7.927314 8.569699,7.899547 8.4665,7.899547 c -0.1032,0 -0.200041,0.027766 -0.283476,0.076129 V 6.4987744 c 0,-0.1658338 0.126855,-0.3000869 0.283476,-0.3000869 -0.156621,0 -0.283476,-0.1268558 -0.283476,-0.2834765 V 5.3482578 c 0,-0.1566208 0.126855,-0.2834766 0.283476,-0.2834766 z M 6.064977,6.907379 c 0.02352,5.66e-4 0.04742,0.00717 0.06921,0.019931 l 1.93672,1.1333535 C 8.000377,8.1294395 7.947574,8.2164735 7.92031,8.3139653 L 5.988294,7.1833817 C 5.918554,7.1425607 5.894614,7.05202 5.934864,6.9812926 c 0.02767,-0.048625 0.07837,-0.07527 0.130112,-0.073914 z M 8.4665,8.0412852 c 0.23486,0 0.425215,0.1903545 0.425215,0.4252149 0,0.2348603 -0.190355,0.4252148 -0.425215,0.4252148 -0.234861,0 -0.425215,-0.1903545 -0.425215,-0.4252148 0,-0.2348604 0.190354,-0.4252149 0.425215,-0.4252149 z M 5.348257,8.1830235 h 0.566954 c 0.156621,0 0.283476,0.1268558 0.283476,0.2834766 0,0.1566208 -0.126855,0.2834765 -0.283476,0.2834765 H 5.348257 c -0.156621,0 -0.283476,-0.1268557 -0.283476,-0.2834765 0,-0.1566208 0.126855,-0.2834766 0.283476,-0.2834766 z m 3.118243,0 c -0.156139,0 -0.283476,0.1273377 -0.283476,0.2834766 0,0.1561389 0.127337,0.2834765 0.283476,0.2834765 0.156138,0 0.283476,-0.1273376 0.283476,-0.2834765 0,-0.1561389 -0.127338,-0.2834766 -0.283476,-0.2834766 z m 2.551289,0 h 0.566953 c 0.156621,0 0.283477,0.1268558 0.283477,0.2834766 0,0.1566208 -0.126856,0.2834765 -0.283477,0.2834765 h -0.566953 c -0.156621,0 -0.283477,-0.1268557 -0.283477,-0.2834765 0,-0.1566208 0.126856,-0.2834766 0.283477,-0.2834766 z M 8.4665,8.3247618 c 0.07824,0 0.141738,0.063499 0.141738,0.1417383 0,0.07824 -0.0635,0.1417382 -0.141738,0.1417382 -0.07824,0 -0.141738,-0.063499 -0.141738,-0.1417382 0,-0.078239 0.0635,-0.1417383 0.141738,-0.1417383 z m 0.553665,0.2640981 1.624731,1.6247301 c 0.119059,0.119202 0.119059,0.312104 0,0.431306 -0.119202,0.11906 -0.312104,0.11906 -0.431306,0 L 8.58886,9.0201653 C 8.803475,8.9727893 8.972789,8.8034743 9.020165,8.5888599 Z M 8.4665,10.734313 c 0.156621,0 0.283476,0.126856 0.283476,0.283476 v 0.566954 c 0,0.15662 -0.126855,0.283476 -0.283476,0.283476 -0.156621,0 -0.283476,-0.126856 -0.283476,-0.283476 v -0.566954 c 0,-0.15662 0.126855,-0.283476 0.283476,-0.283476 z"
     class="ColorScheme-Text" />
  <path
     id="gradient-path1"
     style="opacity:0.3;baseline-shift:baseline;display:inline;overflow:visible;vector-effect:none;enable-background:accumulate;stop-color:#000000;stop-opacity:1;fill:url(#linearGradient4)"
     d="M 8.4453131 1.2753492 C 4.4913166 1.2753492 1.2794833 4.4784283 1.2794833 8.4236094 C 1.2794833 12.36879 4.4913166 15.572386 8.4453131 15.572386 C 12.39931 15.572386 15.611143 12.36879 15.611143 8.4236094 C 15.611143 4.4784283 12.39931 1.2753492 8.4453131 1.2753492 z " />
</svg>
