<?xml version="1.0" encoding="UTF-8" standalone="no"?>
<svg
   width="64"
   height="64"
   version="1.1"
   viewBox="0 0 16.933 16.933"
   id="svg7"
   sodipodi:docname="org.prismlauncher.PrismLauncher.svg"
   inkscape:version="1.4.2 (ebf0e940d0, 2025-05-08)"
   xmlns:inkscape="http://www.inkscape.org/namespaces/inkscape"
   xmlns:sodipodi="http://sodipodi.sourceforge.net/DTD/sodipodi-0.dtd"
   xmlns:xlink="http://www.w3.org/1999/xlink"
   xmlns="http://www.w3.org/2000/svg"
   xmlns:svg="http://www.w3.org/2000/svg"
   xmlns:rdf="http://www.w3.org/1999/02/22-rdf-syntax-ns#"
   xmlns:cc="http://creativecommons.org/ns#"
   xmlns:dc="http://purl.org/dc/elements/1.1/">
  <sodipodi:namedview
     id="namedview7"
     pagecolor="#9c4444"
     bordercolor="#000000"
     borderopacity="0.25"
     inkscape:showpageshadow="2"
     inkscape:pageopacity="0.0"
     inkscape:pagecheckerboard="0"
     inkscape:deskcolor="#d1d1d1"
     inkscape:zoom="8.7062522"
     inkscape:cx="72.419221"
     inkscape:cy="15.276378"
     inkscape:window-width="2560"
     inkscape:window-height="1388"
     inkscape:window-x="0"
     inkscape:window-y="0"
     inkscape:window-maximized="1"
     inkscape:current-layer="svg7"
     showgrid="false" />
  <defs
     id="defs2">
    <filter
       style="color-interpolation-filters:sRGB;"
       inkscape:label="Blur"
       id="filter3"
       x="-0.10843471"
       y="-0.10870992"
       width="1.2168694"
       height="1.2174198">
      <feGaussianBlur
         stdDeviation="0.5 0.5"
         result="blur"
         id="feGaussianBlur3" />
    </filter>
    <style
       id="current-color-scheme"
       type="text/css">.ColorScheme-Text {color:#d8dee9} .ColorScheme-Highlight {color:#3b4252}</style>
    <linearGradient
       id="linearGradient3"
       inkscape:collect="always">
      <stop
         style="stop-color:#000000;stop-opacity:1;"
         offset="0"
         id="stop3" />
      <stop
         style="stop-color:#000000;stop-opacity:0;"
         offset="1"
         id="stop4" />
    </linearGradient>
    <linearGradient
       inkscape:collect="always"
       xlink:href="#linearGradient3"
       id="linearGradient4"
       x1="13.512321"
       y1="13.490874"
       x2="3.3783066"
       y2="3.3568602"
       gradientUnits="userSpaceOnUse" />
  </defs>
  <metadata
     id="metadata2">
    <rdf:RDF>
      <cc:Work
         rdf:about="">
        <dc:format>image/svg+xml</dc:format>
        <dc:type
           rdf:resource="http://purl.org/dc/dcmitype/StillImage" />
      </cc:Work>
    </rdf:RDF>
  </metadata>
  <ellipse
     style="opacity:1;fill:none;stroke:#000000;stroke-width:0.582072;stroke-dasharray:none;stroke-opacity:1;filter:url(#filter3)"
     id="path1-5"
     cx="8.4450111"
     cy="8.423522"
     rx="6.8752708"
     ry="6.8578653" />
  <ellipse
     style="opacity:1;fill:none;stroke-width:0.58207188;stroke-opacity:1;stroke:currentColor;stroke-dasharray:none;fill-opacity:1"
     id="path1"
     cx="8.4450111"
     cy="8.423522"
     rx="6.8752708"
     ry="6.8578653"
     class="ColorScheme-Text" />
  <ellipse
     style="fill:currentColor;stroke:none;stroke-width:0.285844;stroke-dasharray:none;stroke-opacity:1"
     id="path1-2"
     cx="8.4557552"
     cy="8.423522"
     rx="6.5738997"
     ry="6.5692253"
     class="ColorScheme-Highlight" />
  <path
     id="path5"
     style="opacity:0.3;fill:#000000;fill-opacity:1;stroke-width:0.037316"
     d="m 8.392793,5.0269844 c -0.01398,0.00367 -0.02943,0.00828 -0.04583,0.01358 -0.08741,0.028256 -0.20812,0.07778 -0.349985,0.143163 C 7.642315,5.3471847 7.153782,5.6086256 6.674843,5.8856784 6.195903,6.1627313 5.725638,6.4561082 5.40703,6.6821285 5.279589,6.7725365 5.176386,6.8523998 5.108256,6.9141316 c -0.01288,0.01167 -0.02458,0.02274 -0.0348,0.033103 l 1.465015,0.8476604 -2.9e-4,-5.651e-4 0.160705,0.092801 C 6.874864,7.7176732 7.411939,7.4004052 7.698197,7.2412002 7.812984,7.1773602 7.92526,7.1175436 8.02668,7.066349 8.151595,7.003294 8.264596,6.9512355 8.345825,6.9220543 c 0.01519,-0.00546 0.03118,-0.011016 0.04697,-0.015561 z m 0.14769,0 V 6.907059 c 0.185273,0.053475 0.559954,0.256102 0.81371,0.4009129 L 10.19478,5.8491811 C 9.736439,5.5858646 9.275249,5.3402718 8.936303,5.184011 8.794443,5.11861 8.673733,5.0688294 8.586319,5.0405651 c -0.0164,-0.0053 -0.03185,-0.0099 -0.04583,-0.01358 z m 1.781899,0.8960417 -0.840304,1.4587907 c 0.25226,0.1478367 0.614379,0.3716012 0.753443,0.5055972 L 11.86011,6.9475182 C 11.84988,6.9371542 11.83819,6.9258012 11.82531,6.9141322 11.75716,6.8524092 11.653976,6.7725166 11.526535,6.6821291 11.222094,6.4662049 10.779261,6.1890015 10.322664,5.923026 Z m -1.840183,1.0465607 -0.03112,0.00113 c -0.0092,0.00161 -0.03004,0.00555 -0.05489,0.01358 -0.04547,0.014703 -0.108102,0.040686 -0.178812,0.073279 C 8.038929,7.1398278 7.792553,7.2714365 7.553338,7.4098245 7.314114,7.5482185 7.077044,7.6961661 6.916744,7.8098886 6.864934,7.8466456 6.819854,7.8806916 6.78603,7.9091976 l -0.07894,0.066491 1.760112,1.0185506 1.760112,-1.0182677 -0.07894,-0.066489 C 10.114734,7.8811375 10.069694,7.8467985 10.01766,7.8098925 9.8573,7.6961584 9.62005,7.5482163 9.380783,7.4098284 9.141529,7.2714483 8.895278,7.1395569 8.716744,7.0572968 8.645964,7.0246828 8.583096,6.9989828 8.537649,6.9843008 c -0.0163,-0.00526 -0.03082,-0.00877 -0.04131,-0.011034 h -2.91e-4 z m -0.01528,0.071865 c 2.4e-5,1.73e-5 0.02099,0.00303 0.04838,0.011883 0.0412,0.013311 0.100974,0.037538 0.171173,0.069884 0.175502,0.080863 0.419292,0.2112983 0.658098,0.3494194 0.238806,0.1381212 0.473561,0.2845694 0.631219,0.3963859 0.05122,0.036326 0.09428,0.069267 0.125903,0.095914 L 8.467202,8.9104928 6.83271,7.9646554 C 6.86431,7.9380274 6.90747,7.9053084 6.958615,7.8690244 7.116225,7.7572101 7.350797,7.6107597 7.58955,7.4726385 7.828304,7.3345175 8.072212,7.2040825 8.247647,7.1232191 c 0.07017,-0.032346 0.129717,-0.056573 0.17089,-0.069884 0.02726,-0.00881 0.04824,-0.011844 0.04838,-0.011883 z m -3.467316,0.033951 c -0.0038,0.014009 -0.0077,0.029748 -0.01131,0.046683 -0.01931,0.090001 -0.03677,0.219657 -0.05121,0.375449 -0.03608,0.3894802 -0.05432,0.9440173 -0.05432,1.4981182 0,0.5541009 0.01824,1.108612 0.05432,1.498118 0.01443,0.155802 0.0319,0.285432 0.05121,0.375449 0.0036,0.01695 0.0075,0.03267 0.01131,0.04668 L 6.624191,9.9762885 c -0.004,-0.015979 -0.0073,-0.032457 -0.01018,-0.048379 C 6.598601,9.8428925 6.586901,9.7186481 6.578931,9.578773 6.572431,9.4652075 6.568141,9.3382176 6.565921,9.206719 6.560421,8.8775966 6.566254,8.2525871 6.624771,8.0155807 v -2.898e-4 z m 6.93435,0 -1.624305,0.9398958 c 0.04354,0.1757198 0.05814,0.5659171 0.05998,0.90651 h 1.680609 c -0.0015,-0.5291267 -0.01964,-1.0520625 -0.05404,-1.4242733 -0.0144,-0.1558111 -0.03164,-0.2854372 -0.05093,-0.3754491 -0.0036,-0.016927 -0.0075,-0.03268 -0.01131,-0.046683 z m -5.22856,0.9028318 -0.01811,0.1018551 c -0.0077,0.043495 -0.01478,0.09957 -0.02066,0.162968 -0.01816,0.1960605 -0.02716,0.4758132 -0.02716,0.7525958 0,0.2767828 0.009,0.5568124 0.02716,0.7528787 0.0071,0.076324 0.01638,0.1455431 0.02632,0.1918269 0.0058,0.026989 0.01244,0.04577 0.01556,0.05404 l 0.01584,0.02773 c -0.0081,-0.0088 0.01342,0.01539 0.01358,0.01556 0.0068,0.0073 0.01543,0.01611 0.02574,0.02547 0.03505,0.03176 0.09036,0.07428 0.152782,0.118548 0.160342,0.113713 0.397379,0.261441 0.636595,0.399781 0.239205,0.138334 0.485519,0.270293 0.664038,0.352532 0.05785,0.02665 0.110169,0.04841 0.151368,0.06338 l 0.09704,0.03508 V 8.9965017 Z m 3.523336,0 -1.760394,1.0182677 v 2.0362527 l 0.09705,-0.03508 c 0.0414,-0.01504 0.09378,-0.03699 0.151651,-0.06366 0.178498,-0.08226 0.424801,-0.214149 0.664038,-0.352532 0.239262,-0.138397 0.476286,-0.286347 0.636594,-0.400064 0.06241,-0.04427 0.117709,-0.08677 0.152782,-0.118548 0.02025,-0.01835 0.03287,-0.03364 0.03848,-0.04046 l 0.0028,-0.0031 2.89e-4,-2.89e-4 2.9e-4,-2.9e-4 2.9e-4,-2.9e-4 2.89e-4,-2.9e-4 5.49e-4,-8.49e-4 -2.91e-4,-2.9e-4 c 0.0037,-0.0086 0.01647,-0.034398 0.01669,-0.035083 0.0034,-0.010347 0.0077,-0.024855 0.01131,-0.041875 0.0099,-0.046285 0.01924,-0.1155152 0.02632,-0.1918269 0.01816,-0.1960356 0.02716,-0.4758553 0.02716,-0.7525957 0,-0.2767404 -0.009,-0.5565602 -0.02716,-0.7525958 -0.0059,-0.063389 -0.01293,-0.1194811 -0.02063,-0.1629703 z M 6.758581,8.0928218 8.393072,9.0383764 v 1.8908256 c -0.0388,-0.0141 -0.08882,-0.03491 -0.145707,-0.06111 C 8.071891,10.787254 7.828031,10.656749 7.589268,10.51867 7.350505,10.380591 7.115961,10.234356 6.958333,10.122567 6.895283,10.07785 6.844452,10.038479 6.81234,10.009395 6.79895,9.9972696 6.78355,9.9798136 6.77782,9.9731796 6.777903,9.9731038 6.76972,9.9532436 6.76367,9.9250836 6.75457,9.8826646 6.74591,9.8188326 6.73878,9.7417448 6.72093,9.5490251 6.7119,9.271947 6.7119,8.9956564 c 0,-0.2762906 0.009,-0.5530858 0.02688,-0.7458055 0.0058,-0.062514 0.01259,-0.1162817 0.01981,-0.1570265 z m 3.416954,0 c 0.0072,0.040739 0.01402,0.094525 0.01981,0.1570266 0.01785,0.1926921 0.02688,0.4695575 0.02688,0.7458054 0,0.2762479 -0.009,0.5531136 -0.02688,0.7458053 -0.0071,0.077077 -0.0158,0.140927 -0.02489,0.1833391 -0.0042,0.019483 -0.01135,0.040347 -0.01415,0.048096 -7.36e-4,9.057e-4 -0.01374,0.017389 -0.03452,0.036215 -0.0321,0.02908 -0.08294,0.06845 -0.145992,0.113173 -0.157626,0.111814 -0.392151,0.258265 -0.630936,0.396385 -0.238784,0.138121 -0.482622,0.268557 -0.658097,0.34942 -0.057,0.02627 -0.107156,0.04729 -0.145991,0.0614 V 9.0383762 Z m 0.194373,0.976677 c -0.0017,0.2930149 -0.01404,0.7195133 -0.06055,0.906793 l 1.624588,0.9396122 c 0.0038,-0.01398 0.0074,-0.02952 0.01103,-0.0464 0.01927,-0.09005 0.0368,-0.219627 0.05121,-0.375448 0.03442,-0.37224 0.05248,-0.8952816 0.05404,-1.4245565 z M 6.6986,10.103894 5.073163,11.044072 c 0.01025,0.01037 0.0219,0.02171 0.0348,0.03339 0.06818,0.06171 0.17158,0.141614 0.299058,0.232003 0.318694,0.225972 0.78885,0.519134 1.267812,0.796167 0.478963,0.277034 0.967493,0.538496 1.322135,0.701952 0.141858,0.06538 0.262584,0.114907 0.349986,0.143163 0.01639,0.0053 0.03186,0.0099 0.04583,0.01358 v -1.879509 c -0.01581,-0.0045 -0.03176,-0.0101 -0.04696,-0.01556 C 8.264554,11.040073 8.151331,10.988013 8.026398,10.924957 7.924964,10.873765 7.812993,10.813946 7.698198,10.750106 7.411853,10.590863 6.874483,10.273245 6.698604,10.103892 Z m 3.536633,2.89e-4 c -0.138876,0.133782 -0.49989,0.357128 -0.75316,0.505597 l 0.840587,1.458501 c 0.456553,-0.265927 0.899237,-0.543155 1.203587,-0.759103 0.127433,-0.09042 0.230651,-0.170266 0.298775,-0.232003 0.01288,-0.01167 0.02458,-0.02274 0.0348,-0.0331 z m -0.881046,0.579442 c -0.25368,0.144757 -0.628219,0.347187 -0.813425,0.40063 v 0.0133 h -2.9e-4 v 1.866777 c 0.014,-0.0037 0.02941,-0.0083 0.04583,-0.01358 0.08743,-0.02826 0.208125,-0.07805 0.349986,-0.143445 0.338891,-0.156226 0.799964,-0.401875 1.258192,-0.66517 z" />
  <path
     id="path5-7"
     style="fill:currentColor;stroke-width:0.037316"
     d="m 8.392793,4.4978283 c -0.01398,0.00367 -0.02943,0.00828 -0.04583,0.01358 -0.08741,0.028256 -0.20812,0.07778 -0.349985,0.143163 C 7.642315,4.8180286 7.153782,5.0794695 6.674843,5.3565223 6.195903,5.6335752 5.725638,5.9269521 5.40703,6.1529724 5.279589,6.2433804 5.176386,6.3232437 5.108256,6.3849755 c -0.01288,0.01167 -0.02458,0.02274 -0.0348,0.033103 l 1.465015,0.8476604 -2.9e-4,-5.651e-4 0.160705,0.092801 C 6.874864,7.1885171 7.411939,6.8712491 7.698197,6.7120441 7.812984,6.6482041 7.92526,6.5883875 8.02668,6.5371929 8.151595,6.4741379 8.264596,6.4220794 8.345825,6.3928982 c 0.01519,-0.00546 0.03118,-0.011016 0.04697,-0.015561 z m 0.14769,0 v 1.8800746 c 0.185273,0.053475 0.559954,0.256102 0.81371,0.4009129 L 10.19478,5.320025 C 9.736439,5.0567085 9.275249,4.8111157 8.936303,4.6548549 8.794443,4.5894539 8.673733,4.5396733 8.586319,4.511409 c -0.0164,-0.0053 -0.03185,-0.0099 -0.04583,-0.01358 z M 10.322382,5.39387 9.482078,6.8526607 c 0.25226,0.1478367 0.614379,0.3716012 0.753443,0.5055972 L 11.86011,6.4183621 C 11.84988,6.4079981 11.83819,6.3966451 11.82531,6.3849761 11.75716,6.3232531 11.653976,6.2433605 11.526535,6.152973 11.222094,5.9370488 10.779261,5.6598454 10.322664,5.3938699 Z m -1.840183,1.0465607 -0.03112,0.00113 c -0.0092,0.00161 -0.03004,0.00555 -0.05489,0.01358 -0.04547,0.014703 -0.108102,0.040686 -0.178812,0.073279 C 8.038929,6.6106717 7.792553,6.7422804 7.553338,6.8806684 7.314114,7.0190624 7.077044,7.16701 6.916744,7.2807325 6.864934,7.3174895 6.819854,7.3515355 6.78603,7.3800415 l -0.07894,0.066491 1.760112,1.0185506 1.760112,-1.0182677 -0.07894,-0.066489 C 10.114734,7.3519814 10.069694,7.3176424 10.01766,7.2807364 9.8573,7.1670023 9.62005,7.0190602 9.380783,6.8806723 9.141529,6.7422922 8.895278,6.6104008 8.716744,6.5281407 8.645964,6.4955267 8.583096,6.4698267 8.537649,6.4551447 c -0.0163,-0.00526 -0.03082,-0.00877 -0.04131,-0.011034 h -2.91e-4 z m -0.01528,0.071865 c 2.4e-5,1.73e-5 0.02099,0.00303 0.04838,0.011883 0.0412,0.013311 0.100974,0.037538 0.171173,0.069884 0.175502,0.080863 0.419292,0.2112983 0.658098,0.3494194 0.238806,0.1381212 0.473561,0.2845694 0.631219,0.3963859 0.05122,0.036326 0.09428,0.069267 0.125903,0.095914 L 8.467202,8.3813367 6.83271,7.4354993 C 6.86431,7.4088713 6.90747,7.3761523 6.958615,7.3398683 7.116225,7.228054 7.350797,7.0816036 7.58955,6.9434824 7.828304,6.8053614 8.072212,6.6749264 8.247647,6.594063 8.317817,6.561717 8.377364,6.53749 8.418537,6.524179 8.445797,6.515369 8.466777,6.512335 8.466917,6.512296 Z m -3.467316,0.033951 c -0.0038,0.014009 -0.0077,0.029748 -0.01131,0.046683 -0.01931,0.090001 -0.03677,0.219657 -0.05121,0.375449 -0.03608,0.3894802 -0.05432,0.9440173 -0.05432,1.4981182 0,0.5541009 0.01824,1.1086122 0.05432,1.4981181 0.01443,0.155802 0.0319,0.285432 0.05121,0.375449 0.0036,0.01695 0.0075,0.03267 0.01131,0.04668 L 6.624191,9.4471324 c -0.004,-0.015979 -0.0073,-0.032457 -0.01018,-0.048379 C 6.598601,9.3137364 6.586901,9.189492 6.578931,9.0496169 6.572431,8.9360514 6.568141,8.8090615 6.565921,8.6775629 6.560421,8.3484405 6.566254,7.723431 6.624771,7.4864246 v -2.898e-4 z m 6.93435,0 -1.624305,0.9398958 c 0.04354,0.1757198 0.05814,0.5659171 0.05998,0.90651 h 1.680609 c -0.0015,-0.5291267 -0.01964,-1.0520625 -0.05404,-1.4242733 -0.0144,-0.1558111 -0.03164,-0.2854372 -0.05093,-0.3754491 -0.0036,-0.016927 -0.0075,-0.03268 -0.01131,-0.046683 z m -5.22856,0.9028318 -0.01811,0.1018551 c -0.0077,0.043495 -0.01478,0.09957 -0.02066,0.162968 -0.01816,0.1960605 -0.02716,0.4758132 -0.02716,0.7525958 0,0.2767828 0.009,0.5568124 0.02716,0.7528787 0.0071,0.076324 0.01638,0.1455431 0.02632,0.1918269 0.0058,0.026989 0.01244,0.04577 0.01556,0.05404 l 0.01584,0.02773 c -0.0081,-0.00885 0.01342,0.015391 0.01358,0.01556 0.0068,0.00727 0.01543,0.016115 0.02574,0.025466 0.03505,0.031755 0.09036,0.07428 0.152782,0.1185481 0.160342,0.1137131 0.397379,0.261441 0.636595,0.3997809 0.239205,0.138334 0.485519,0.270293 0.664038,0.352532 0.05785,0.02665 0.110169,0.04841 0.151368,0.06338 l 0.09704,0.03508 V 8.4673456 Z m 3.523336,0 -1.760394,1.0182677 v 2.0362528 l 0.09705,-0.03508 c 0.0414,-0.01504 0.09378,-0.03699 0.151651,-0.06366 0.178498,-0.08226 0.424801,-0.214149 0.664038,-0.352532 0.239262,-0.1383972 0.476286,-0.286347 0.636594,-0.4000641 0.06241,-0.04427 0.117709,-0.08677 0.152782,-0.1185481 0.02025,-0.018345 0.03287,-0.03364 0.03848,-0.04046 l 0.0028,-0.00311 2.89e-4,-2.892e-4 2.9e-4,-2.898e-4 2.9e-4,-2.899e-4 2.89e-4,-2.898e-4 5.49e-4,-8.49e-4 -2.91e-4,-2.898e-4 c 0.0037,-0.00857 0.01647,-0.034398 0.01669,-0.035083 0.0034,-0.010347 0.0077,-0.024855 0.01131,-0.041875 0.0099,-0.046285 0.01924,-0.1155152 0.02632,-0.1918269 0.01816,-0.1960356 0.02716,-0.4758553 0.02716,-0.7525957 0,-0.2767404 -0.009,-0.5565602 -0.02716,-0.7525958 -0.0059,-0.063389 -0.01293,-0.1194811 -0.02063,-0.1629703 z M 6.758581,7.5636657 8.393072,8.5092203 v 1.8908257 c -0.0388,-0.0141 -0.08882,-0.03491 -0.145707,-0.06111 C 8.071891,10.258098 7.828031,10.127593 7.589268,9.9895141 7.350505,9.8514354 7.115961,9.7052001 6.958333,9.593411 6.895283,9.548694 6.844452,9.509323 6.81234,9.4802385 6.79895,9.4681135 6.78355,9.4506575 6.77782,9.4440235 6.777903,9.4439477 6.76972,9.4240875 6.76367,9.3959275 6.75457,9.3535085 6.74591,9.2896765 6.73878,9.2125887 6.72093,9.019869 6.7119,8.7427909 6.7119,8.4665003 c 0,-0.2762906 0.009,-0.5530858 0.02688,-0.7458055 0.0058,-0.062514 0.01259,-0.1162817 0.01981,-0.1570265 z m 3.416954,0 c 0.0072,0.040739 0.01402,0.094525 0.01981,0.1570266 0.01785,0.1926921 0.02688,0.4695575 0.02688,0.7458054 0,0.2762479 -0.009,0.5531136 -0.02688,0.7458053 -0.0071,0.077077 -0.0158,0.140927 -0.02489,0.1833391 -0.0042,0.019483 -0.01135,0.040347 -0.01415,0.048096 -7.36e-4,9.057e-4 -0.01374,0.017389 -0.03452,0.036215 -0.0321,0.029083 -0.08294,0.068447 -0.145992,0.1131725 C 9.818167,9.7049396 9.583642,9.8513906 9.344857,9.9895112 9.106073,10.127632 8.862235,10.258068 8.68676,10.338931 c -0.057,0.02627 -0.107156,0.04729 -0.145991,0.0614 V 8.5092201 Z m 0.194373,0.976677 c -0.0017,0.2930149 -0.01404,0.7195133 -0.06055,0.906793 l 1.624588,0.9396123 c 0.0038,-0.01398 0.0074,-0.02952 0.01103,-0.0464 0.01927,-0.09005 0.0368,-0.219627 0.05121,-0.3754485 0.03442,-0.3722395 0.05248,-0.8952812 0.05404,-1.4245561 z M 6.6986,9.5747376 5.073163,10.514916 c 0.01025,0.01037 0.0219,0.02171 0.0348,0.03339 0.06818,0.06171 0.17158,0.141614 0.299058,0.232003 0.318694,0.225972 0.78885,0.519134 1.267812,0.796167 0.478963,0.277034 0.967493,0.538496 1.322135,0.701952 0.141858,0.06538 0.262584,0.114907 0.349986,0.143162 0.01639,0.0053 0.03186,0.0099 0.04583,0.01358 v -1.879508 c -0.01581,-0.0045 -0.03176,-0.0101 -0.04696,-0.01556 C 8.264554,10.510917 8.151331,10.458857 8.026398,10.395801 7.924964,10.344609 7.812993,10.28479 7.698198,10.22095 7.411853,10.061707 6.874483,9.7440892 6.698604,9.5747363 Z m 3.536633,2.898e-4 c -0.138876,0.1337819 -0.49989,0.3571275 -0.75316,0.5055966 l 0.840587,1.458501 c 0.456553,-0.265927 0.899237,-0.543155 1.203587,-0.759103 0.127433,-0.09042 0.230651,-0.170266 0.298775,-0.232003 0.01288,-0.01167 0.02458,-0.02274 0.0348,-0.0331 z M 9.354187,10.154469 c -0.25368,0.144757 -0.628219,0.347187 -0.813425,0.40063 v 0.0133 h -2.9e-4 v 1.866777 c 0.014,-0.0037 0.02941,-0.0083 0.04583,-0.01358 0.08743,-0.02826 0.208125,-0.07805 0.349986,-0.143446 0.338891,-0.156226 0.799964,-0.401875 1.258192,-0.66517 z"
     class="ColorScheme-Text" />
  <path
     id="gradient-path1"
     style="opacity:0.3;baseline-shift:baseline;display:inline;overflow:visible;vector-effect:none;enable-background:accumulate;stop-color:#000000;stop-opacity:1;fill:url(#linearGradient4)"
     d="M 8.4453131 1.2753492 C 4.4913166 1.2753492 1.2794833 4.4784283 1.2794833 8.4236094 C 1.2794833 12.36879 4.4913166 15.572386 8.4453131 15.572386 C 12.39931 15.572386 15.611143 12.36879 15.611143 8.4236094 C 15.611143 4.4784283 12.39931 1.2753492 8.4453131 1.2753492 z " />
</svg>
