<?xml version='1.0' encoding='UTF-8'?>
<svg xmlns:inkscape="http://www.inkscape.org/namespaces/inkscape" xmlns:sodipodi="http://sodipodi.sourceforge.net/DTD/sodipodi-0.dtd" xmlns:xlink="http://www.w3.org/1999/xlink" xmlns="http://www.w3.org/2000/svg" xmlns:svg="http://www.w3.org/2000/svg" xmlns:rdf="http://www.w3.org/1999/02/22-rdf-syntax-ns#" xmlns:cc="http://creativecommons.org/ns#" xmlns:dc="http://purl.org/dc/elements/1.1/" width="64" height="64" version="1.1" viewBox="0 0 16.933 16.933" id="svg7" sodipodi:docname="org.gnome.Brasero.svg" inkscape:version="1.4 (e7c3feb100, 2024-10-09)">
  <sodipodi:namedview id="namedview7" pagecolor="#9c4444" bordercolor="#000000" borderopacity="0.25" inkscape:showpageshadow="2" inkscape:pageopacity="0.0" inkscape:pagecheckerboard="0" inkscape:deskcolor="#d1d1d1" inkscape:zoom="4.3531261" inkscape:cx="36.525475" inkscape:cy="25.958357" inkscape:window-width="1280" inkscape:window-height="669" inkscape:window-x="180" inkscape:window-y="166" inkscape:window-maximized="0" inkscape:current-layer="svg7" showgrid="false"/>
  <defs id="defs2">
    <filter style="color-interpolation-filters:sRGB;" inkscape:label="Blur" id="filter3" x="-0.10843471" y="-0.10870992" width="1.2168694" height="1.2174198">
      <feGaussianBlur stdDeviation="0.5 0.5" result="blur" id="feGaussianBlur3"/>
    </filter>
    <filter style="color-interpolation-filters:sRGB" inkscape:label="Blur" id="filter3-8" x="-0.10843471" y="-0.10870992" width="1.2168694" height="1.2174198">
      <feGaussianBlur stdDeviation="0.5 0.5" result="blur" id="feGaussianBlur3-7"/>
    </filter>
    <style id="current-color-scheme" type="text/css">.ColorScheme-Text {color:#d8dee9} .ColorScheme-Highlight {color:#3b4252}</style><linearGradient id="linearGradient4" inkscape:collect="always">
      <stop style="stop-color:#000000;stop-opacity:1;" offset="0" id="stop4"/>
      <stop style="stop-color:#000000;stop-opacity:0;" offset="1" id="stop5"/>
    </linearGradient>
    <linearGradient inkscape:collect="always" xlink:href="#linearGradient4" id="linearGradient5" x1="14.157616" y1="14.109557" x2="3.4890218" y2="3.440964" gradientUnits="userSpaceOnUse"/>
  </defs>
  <metadata id="metadata2">
    <rdf:RDF>
      <cc:Work rdf:about="">
        <dc:format>image/svg+xml</dc:format>
        <dc:type rdf:resource="http://purl.org/dc/dcmitype/StillImage"/>
      </cc:Work>
    </rdf:RDF>
  </metadata>
  <ellipse style="opacity:1;fill:none;stroke:#000000;stroke-width:0.582072;stroke-dasharray:none;stroke-opacity:1;filter:url(#filter3)" id="path1-5" cx="8.4450111" cy="8.423522" rx="6.8752708" ry="6.8578653"/>
  <ellipse style="opacity:1;fill:none;stroke-width:0.58207188;stroke-opacity:1;stroke:currentColor;stroke-dasharray:none;fill-opacity:1" id="path1" cx="8.4450111" cy="8.423522" rx="6.8752708" ry="6.8578653" class="ColorScheme-Text"/>
  <ellipse style="fill:currentColor;stroke:none;stroke-width:0.285728;stroke-dasharray:none;stroke-opacity:1" id="path1-2" cx="8.4450111" cy="8.423522" rx="6.5766377" ry="6.5612183" class="ColorScheme-Highlight"/>
  <path fill="#f5f7fa" d="m 8.4867699,12.907527 c -2.1907835,0 -3.9667635,-1.749418 -3.9667635,-3.9074319 0,-2.1580175 1.77598,-3.9074355 3.9667635,-3.9074355 2.1907801,0 3.9667611,1.749418 3.9667611,3.9074355 0,2.1580139 -1.775981,3.9074319 -3.9667611,3.9074319 z m 0,-6.9465505 c -1.703943,0 -3.0852604,1.3606613 -3.0852604,3.0391186 0,0.1198892 0.098665,0.2170782 0.2203758,0.2170782 0.1217099,0 0.2203751,-0.097188 0.2203751,-0.2170782 0,-1.4386785 1.1839872,-2.6049583 2.6445095,-2.6049583 0.1217098,0 0.2203756,-0.09719 0.2203756,-0.2170785 0,-0.1198904 -0.098666,-0.2170817 -0.2203756,-0.2170818 z m 0,4.7757535 c 0.9736808,0 1.7630051,-0.7775188 1.7630051,-1.7366349 0,-0.9591186 -0.7893243,-1.7366393 -1.7630051,-1.7366393 -0.9736815,0 -1.7630057,0.7775207 -1.7630057,1.7366393 0,0.9591161 0.7893242,1.7366349 1.7630057,1.7366349 z m 0,-0.434158 c -0.7302612,0 -1.3222546,-0.5831382 -1.3222546,-1.3024769 0,-0.7193399 0.5919934,-1.3024801 1.3222546,-1.3024801 0.7302605,0 1.3222544,0.5831402 1.3222544,1.3024801 0,0.7193387 -0.5919939,1.3024769 -1.3222544,1.3024769 z m 0,-0.4341597 c 0.4868397,0 0.8815022,-0.3887581 0.8815022,-0.8683172 0,-0.4795611 -0.3946625,-0.86832 -0.8815022,-0.86832 -0.4868415,0 -0.8815024,0.3887589 -0.8815024,0.86832 0,0.4795591 0.3946609,0.8683172 0.8815024,0.8683172 z" id="path42-6" style="fill:#000000;fill-opacity:1;stroke:none;stroke-width:0.25672;stroke-dasharray:none;stroke-opacity:0.3;opacity:0.3"/>
  <path fill="#f5f7fa" d="m 8.4867699,12.378371 c -2.1907835,0 -3.9667635,-1.749418 -3.9667635,-3.9074321 0,-2.1580175 1.77598,-3.9074355 3.9667635,-3.9074355 2.1907801,0 3.9667611,1.749418 3.9667611,3.9074355 0,2.1580141 -1.775981,3.9074321 -3.9667611,3.9074321 z m 0,-6.9465507 c -1.703943,0 -3.0852604,1.3606613 -3.0852604,3.0391186 0,0.1198892 0.098665,0.2170782 0.2203758,0.2170782 0.1217099,0 0.2203751,-0.097188 0.2203751,-0.2170782 0,-1.4386785 1.1839872,-2.6049583 2.6445095,-2.6049583 0.1217098,0 0.2203756,-0.09719 0.2203756,-0.2170785 0,-0.1198904 -0.098666,-0.2170817 -0.2203756,-0.2170818 z m 0,4.7757537 c 0.9736808,0 1.7630051,-0.777519 1.7630051,-1.7366351 0,-0.9591186 -0.7893243,-1.7366393 -1.7630051,-1.7366393 -0.9736815,0 -1.7630057,0.7775207 -1.7630057,1.7366393 0,0.9591161 0.7893242,1.7366351 1.7630057,1.7366351 z m 0,-0.4341586 c -0.7302612,0 -1.3222546,-0.5831378 -1.3222546,-1.3024765 0,-0.7193399 0.5919934,-1.3024801 1.3222546,-1.3024801 0.7302605,0 1.3222544,0.5831402 1.3222544,1.3024801 0,0.7193387 -0.5919939,1.3024765 -1.3222544,1.3024765 z m 0,-0.4341593 c 0.4868397,0 0.8815022,-0.3887581 0.8815022,-0.8683172 0,-0.4795611 -0.3946625,-0.86832 -0.8815022,-0.86832 -0.4868415,0 -0.8815024,0.3887589 -0.8815024,0.86832 0,0.4795591 0.3946609,0.8683172 0.8815024,0.8683172 z" id="path42" style="opacity:1;fill:currentColor;fill-opacity:1;stroke:none;stroke-width:0.25672;stroke-dasharray:none;stroke-opacity:0.3" class="ColorScheme-Text"/>
  <ellipse style="fill:none;stroke:#000000;stroke-width:0.582072;stroke-dasharray:none;stroke-opacity:1;filter:url(#filter3-8)" id="path1-5-7" cx="8.4450111" cy="8.423522" rx="6.8752708" ry="6.8578653" transform="matrix(0.4782969,0,0,0.4782969,8.9000071,8.8280171)"/>
  <ellipse style="fill:currentColor;fill-opacity:1;stroke:currentColor;stroke-width:0.278402;stroke-dasharray:none;stroke-opacity:1" id="path1-59" cx="12.939234" cy="12.856965" rx="3.2884204" ry="3.2800953" class="ColorScheme-Text"/>
  <ellipse style="fill:currentColor;stroke:none;stroke-width:0.246622;stroke-dasharray:none;stroke-opacity:1" id="path1-2-2" cx="12.939234" cy="12.856965" rx="2.9130225" ry="2.9056478" class="ColorScheme-Highlight"/>
  <path style="opacity:0.3;fill:#000000;stroke:none;stroke-width:0.235739;stroke-dasharray:none;stroke-opacity:0.3" d="m 13.433363,11.309869 c -1.247381,0.508304 -1.996113,1.699773 -1.996113,2.541528 0,0.832299 0.6549,1.507632 1.468341,1.523441 -0.406482,-0.0081 -0.733942,-0.344987 -0.733942,-0.760985 0,-0.421093 0.37427,-1.016609 0.998058,-1.270762 0,0.889534 0.669744,1.018135 0.499023,1.524916 -0.0968,0.287361 -0.332905,0.505463 -0.742227,0.507807 0.0024,1.4e-5 0.0052,2.83e-4 0.0077,2.83e-4 0.82681,0 1.302431,-0.43877 1.49706,-1.016612 0.341457,-1.013607 -0.99803,-1.270758 -0.99803,-3.049828 z" id="path12447-1" inkscape:transform-center-x="0.18580946" inkscape:transform-center-y="4.4099719"/>
  <path style="opacity:1;fill:currentColor;stroke:none;stroke-width:0.235739;stroke-dasharray:none;stroke-opacity:0.3" d="m 13.433363,10.913022 c -1.247381,0.508304 -1.996113,1.699773 -1.996113,2.541528 0,0.832299 0.6549,1.507632 1.468341,1.523441 -0.406482,-0.0081 -0.733942,-0.344987 -0.733942,-0.760985 0,-0.421093 0.37427,-1.016609 0.998058,-1.270762 0,0.889534 0.669744,1.018135 0.499023,1.524916 -0.0968,0.287361 -0.332905,0.505463 -0.742227,0.507807 0.0024,1.4e-5 0.0052,2.83e-4 0.0077,2.83e-4 0.82681,0 1.302431,-0.43877 1.49706,-1.016612 0.341457,-1.013607 -0.99803,-1.270758 -0.99803,-3.049828 z" id="path12447" inkscape:transform-center-x="0.18580946" inkscape:transform-center-y="4.4099719" class="ColorScheme-Text"/>
<path id="gradient-path1" style="opacity:0.3;baseline-shift:baseline;display:inline;overflow:visible;vector-effect:none;enable-background:accumulate;stop-color:#000000;stop-opacity:1;fill:url(#linearGradient5)" d="M 8.4453131 1.2753492 C 4.4913166 1.2753492 1.2794833 4.4784283 1.2794833 8.4236094 C 1.2794833 12.36879 4.4913166 15.572386 8.4453131 15.572386 C 9.1638027 15.572386 9.8576697 15.466358 10.51233 15.269568 C 11.133159 15.890536 11.991864 16.275172 12.939524 16.275172 C 14.830708 16.275172 16.367154 14.744327 16.367154 12.85736 C 16.367154 11.897867 15.969699 11.029882 15.330545 10.408462 C 15.513101 9.7781514 15.611143 9.1121932 15.611143 8.4236094 C 15.611143 4.4784283 12.39931 1.2753492 8.4453131 1.2753492 z "/>
</svg>
