<?xml version="1.0" encoding="UTF-8" standalone="no"?>
<svg
   width="64"
   height="64"
   version="1.1"
   viewBox="0 0 16.933 16.933"
   id="svg7"
   sodipodi:docname="org.kde.dolphin.svg"
   inkscape:version="1.4.2 (ebf0e940d0, 2025-05-08)"
   xmlns:inkscape="http://www.inkscape.org/namespaces/inkscape"
   xmlns:sodipodi="http://sodipodi.sourceforge.net/DTD/sodipodi-0.dtd"
   xmlns:xlink="http://www.w3.org/1999/xlink"
   xmlns="http://www.w3.org/2000/svg"
   xmlns:svg="http://www.w3.org/2000/svg"
   xmlns:rdf="http://www.w3.org/1999/02/22-rdf-syntax-ns#"
   xmlns:cc="http://creativecommons.org/ns#"
   xmlns:dc="http://purl.org/dc/elements/1.1/">
  <sodipodi:namedview
     id="namedview7"
     pagecolor="#9c4444"
     bordercolor="#000000"
     borderopacity="0.25"
     inkscape:showpageshadow="2"
     inkscape:pageopacity="0.0"
     inkscape:pagecheckerboard="0"
     inkscape:deskcolor="#d1d1d1"
     inkscape:zoom="4.3531261"
     inkscape:cx="36.984915"
     inkscape:cy="25.958357"
     inkscape:window-width="2560"
     inkscape:window-height="1376"
     inkscape:window-x="0"
     inkscape:window-y="0"
     inkscape:window-maximized="1"
     inkscape:current-layer="svg7"
     showgrid="false" />
  <defs
     id="defs2">
    <filter
       style="color-interpolation-filters:sRGB;"
       inkscape:label="Blur"
       id="filter3"
       x="-0.10843471"
       y="-0.10870992"
       width="1.2168694"
       height="1.2174198">
      <feGaussianBlur
         stdDeviation="0.5 0.5"
         result="blur"
         id="feGaussianBlur3" />
    </filter>
    <filter
       style="color-interpolation-filters:sRGB"
       inkscape:label="Blur"
       id="filter3-8"
       x="-0.10843471"
       y="-0.10870992"
       width="1.2168694"
       height="1.2174198">
      <feGaussianBlur
         stdDeviation="0.5 0.5"
         result="blur"
         id="feGaussianBlur3-7" />
    </filter>
    <style
       id="current-color-scheme"
       type="text/css">.ColorScheme-Text {color:#d8dee9} .ColorScheme-Highlight {color:#3b4252}</style>
    <linearGradient
       id="linearGradient3"
       inkscape:collect="always">
      <stop
         style="stop-color:#000000;stop-opacity:1;"
         offset="0"
         id="stop3" />
      <stop
         style="stop-color:#000000;stop-opacity:0;"
         offset="1"
         id="stop4" />
    </linearGradient>
    <linearGradient
       inkscape:collect="always"
       xlink:href="#linearGradient3"
       id="linearGradient4"
       x1="13.512321"
       y1="13.490874"
       x2="3.3783066"
       y2="3.3568602"
       gradientUnits="userSpaceOnUse" />
  </defs>
  <metadata
     id="metadata2">
    <rdf:RDF>
      <cc:Work
         rdf:about="">
        <dc:format>image/svg+xml</dc:format>
        <dc:type
           rdf:resource="http://purl.org/dc/dcmitype/StillImage" />
      </cc:Work>
    </rdf:RDF>
  </metadata>
  <ellipse
     style="opacity:1;fill:none;stroke:#000000;stroke-width:0.582072;stroke-dasharray:none;stroke-opacity:1;filter:url(#filter3)"
     id="path1-5"
     cx="8.4450111"
     cy="8.423522"
     rx="6.8752708"
     ry="6.8578653" />
  <ellipse
     style="opacity:1;fill:none;stroke-width:0.58207188;stroke-opacity:1;stroke:currentColor;stroke-dasharray:none;fill-opacity:1"
     id="path1"
     cx="8.4450111"
     cy="8.423522"
     rx="6.8752708"
     ry="6.8578653"
     class="ColorScheme-Text" />
  <ellipse
     style="fill:currentColor;stroke:none;stroke-width:0.285844;stroke-dasharray:none;stroke-opacity:1"
     id="path1-2"
     cx="8.4557552"
     cy="8.423522"
     rx="6.5738997"
     ry="6.5692253"
     class="ColorScheme-Highlight" />
  <path
     id="path10-0-6"
     style="opacity:0.3;fill:#000000;fill-opacity:1;stroke:none;stroke-width:0.226629;stroke-dasharray:none;stroke-opacity:0.3"
     d="m 6.1194141,6.0286772 c -0.840279,0 -0.886681,0.00696 -1.040578,0.1512666 -0.04118,0.038612 -0.09654,0.1169887 -0.123051,0.174257 -0.04587,0.099065 -0.04832,0.2270672 -0.04885,2.636585 -5.56e-4,2.4434272 0.0011,2.5358272 0.04912,2.6290082 0.07178,0.139257 0.21233,0.263881 0.343812,0.304885 0.09366,0.02917 0.660991,0.036 3.161707,0.03736 3.4148839,0.002 3.2037439,0.01348 3.3970989,-0.185752 0.05446,-0.05613 0.114267,-0.145219 0.132979,-0.198032 0.02691,-0.07623 0.03422,-0.560986 0.03422,-2.3523392 0,-2.24106 -5.06e-4,-2.2566159 -0.05408,-2.3296105 -0.02965,-0.040421 -0.09407,-0.0941 -0.143168,-0.1191323 C 11.746024,6.735056 11.595385,6.731752 9.8106901,6.731715 H 7.8821011 L 7.7277001,6.6543832 C 7.6228421,6.6019851 7.4948121,6.4984584 7.3298091,6.3322559 7.1601981,6.1614129 7.0571261,6.0783055 6.9891321,6.0579381 6.9265721,6.0391951 6.6149861,6.0286776 6.1194141,6.0286772 Z m 3.222581,2.0537252 c 0.484894,-0.00321 0.8212199,0.1660728 1.0327409,0.3017495 0.102279,0.065606 1.018649,-0.4697507 1.136982,-0.028738 0.111771,0.4165378 -0.389009,0.8590063 -0.389009,0.8590063 C 10.331887,10.124213 9.8239171,10.43374 9.7694081,11.475321 l -4.437677,-0.0026 c 0.947565,-1.017239 1.300077,-2.2680731 2.598181,-2.9725429 0.56792,-0.3082049 1.034942,-0.415244 1.412083,-0.4177457 z M 11.407216,8.48369 C 11.087308,8.7922935 10.770651,9.0884533 10.407916,9.4234241 10.071465,9.7341239 9.3750411,10.266457 9.3835341,10.281124 9.4147141,10.335016 10.08532,9.8234627 10.475581,9.4639186 10.875737,9.095257 11.170095,8.7944966 11.407216,8.48369 Z m -2.8732829,1.559692 c -0.101578,0 -0.183924,0.10106 -0.183924,0.225724 0,0.124664 0.08235,0.225725 0.183924,0.225725 0.101578,0 0.183923,-0.101061 0.183923,-0.225725 0,-0.124664 -0.08234,-0.225724 -0.183923,-0.225724 z" />
  <path
     id="path10-0-6-5"
     class="ColorScheme-Text"
     style="fill:currentColor;fill-opacity:1;stroke:none;stroke-width:0.226629;stroke-dasharray:none;stroke-opacity:0.3"
     d="m 6.1195456,5.4994209 c -0.840278,0 -0.88668,0.007 -1.040578,0.151266 -0.04118,0.03861 -0.09654,0.116989 -0.123051,0.174258 -0.04587,0.09906 -0.04832,0.227067 -0.04885,2.636585 -5.56e-4,2.4434271 0.0011,2.5358271 0.04912,2.6290081 0.07178,0.139256 0.21233,0.26388 0.343812,0.304884 0.09366,0.02917 0.660991,0.036 3.161707,0.03736 3.4148834,0.002 3.2037434,0.01348 3.3970984,-0.185752 0.05446,-0.05613 0.114267,-0.145218 0.132979,-0.198031 0.02691,-0.07623 0.03422,-0.560986 0.03422,-2.3523391 0,-2.241061 -5.06e-4,-2.256616 -0.05408,-2.329611 -0.02965,-0.04042 -0.09407,-0.0941 -0.143168,-0.119132 -0.0826,-0.04212 -0.233239,-0.04542 -2.0179334,-0.04546 h -1.928589 l -0.154401,-0.07733 c -0.104858,-0.0524 -0.232888,-0.155925 -0.397891,-0.322127 -0.169611,-0.170843 -0.272683,-0.253951 -0.340677,-0.274318 -0.06256,-0.01874 -0.374146,-0.02926 -0.869718,-0.029261 z m 3.222581,2.053725 c 0.484894,-0.0032 0.8212194,0.166073 1.0327404,0.30175 0.102279,0.06561 1.018649,-0.469751 1.136982,-0.02874 0.111771,0.416537 -0.389009,0.859006 -0.389009,0.859006 -0.790822,0.909792 -1.2987914,1.21932 -1.3533004,2.2609001 l -4.437677,-0.0026 c 0.947565,-1.0172381 1.300077,-2.2680721 2.598181,-2.9725421 0.56792,-0.308205 1.034942,-0.415244 1.412083,-0.417747 z m 2.0652204,0.401288 c -0.319908,0.308603 -0.636565,0.604763 -0.9993,0.939734 -0.336451,0.3107 -1.0328744,0.843033 -1.0243814,0.8577 0.03118,0.05389 0.7017854,-0.457662 1.0920464,-0.817206 0.400157,-0.368661 0.694514,-0.669422 0.931635,-0.980228 z m -2.8732824,1.559692 c -0.101578,0 -0.183924,0.10106 -0.183924,0.225724 0,0.124664 0.08235,0.225724 0.183924,0.225724 0.101578,0 0.183923,-0.10106 0.183923,-0.225724 0,-0.124664 -0.08234,-0.225724 -0.183923,-0.225724 z" />
  <path
     id="gradient-path1"
     style="opacity:0.3;baseline-shift:baseline;display:inline;overflow:visible;vector-effect:none;enable-background:accumulate;stop-color:#000000;stop-opacity:1;fill:url(#linearGradient4)"
     d="M 8.4453131 1.2753492 C 4.4913166 1.2753492 1.2794833 4.4784283 1.2794833 8.4236094 C 1.2794833 12.36879 4.4913166 15.572386 8.4453131 15.572386 C 12.39931 15.572386 15.611143 12.36879 15.611143 8.4236094 C 15.611143 4.4784283 12.39931 1.2753492 8.4453131 1.2753492 z " />
</svg>
