<?xml version="1.0" encoding="UTF-8" standalone="no"?>
<svg
   width="64"
   height="64"
   version="1.1"
   viewBox="0 0 16.933 16.933"
   id="svg7"
   sodipodi:docname="antconc copy.svg"
   inkscape:version="1.4.2 (ebf0e940d0, 2025-05-08)"
   xmlns:inkscape="http://www.inkscape.org/namespaces/inkscape"
   xmlns:sodipodi="http://sodipodi.sourceforge.net/DTD/sodipodi-0.dtd"
   xmlns:xlink="http://www.w3.org/1999/xlink"
   xmlns="http://www.w3.org/2000/svg"
   xmlns:svg="http://www.w3.org/2000/svg"
   xmlns:rdf="http://www.w3.org/1999/02/22-rdf-syntax-ns#"
   xmlns:cc="http://creativecommons.org/ns#"
   xmlns:dc="http://purl.org/dc/elements/1.1/">
  <sodipodi:namedview
     id="namedview7"
     pagecolor="#9c4444"
     bordercolor="#000000"
     borderopacity="0.25"
     inkscape:showpageshadow="2"
     inkscape:pageopacity="0.0"
     inkscape:pagecheckerboard="0"
     inkscape:deskcolor="#d1d1d1"
     inkscape:zoom="8.7062522"
     inkscape:cx="72.074641"
     inkscape:cy="15.276378"
     inkscape:window-width="2560"
     inkscape:window-height="1388"
     inkscape:window-x="0"
     inkscape:window-y="0"
     inkscape:window-maximized="1"
     inkscape:current-layer="svg7"
     showgrid="false" />
  <defs
     id="defs2">
    <filter
       style="color-interpolation-filters:sRGB;"
       inkscape:label="Blur"
       id="filter3"
       x="-0.10843471"
       y="-0.10870992"
       width="1.2168694"
       height="1.2174198">
      <feGaussianBlur
         stdDeviation="0.5 0.5"
         result="blur"
         id="feGaussianBlur3" />
    </filter>
    <style
       id="current-color-scheme"
       type="text/css">.ColorScheme-Text {color:#d8dee9} .ColorScheme-Highlight {color:#3b4252}</style>
    <linearGradient
       id="linearGradient3"
       inkscape:collect="always">
      <stop
         style="stop-color:#000000;stop-opacity:1;"
         offset="0"
         id="stop3" />
      <stop
         style="stop-color:#000000;stop-opacity:0;"
         offset="1"
         id="stop4" />
    </linearGradient>
    <linearGradient
       inkscape:collect="always"
       xlink:href="#linearGradient3"
       id="linearGradient4"
       x1="13.512321"
       y1="13.490874"
       x2="3.3783066"
       y2="3.3568602"
       gradientUnits="userSpaceOnUse" />
  </defs>
  <metadata
     id="metadata2">
    <rdf:RDF>
      <cc:Work
         rdf:about="">
        <dc:format>image/svg+xml</dc:format>
        <dc:type
           rdf:resource="http://purl.org/dc/dcmitype/StillImage" />
      </cc:Work>
    </rdf:RDF>
  </metadata>
  <ellipse
     style="opacity:1;fill:none;stroke:#000000;stroke-width:0.582072;stroke-dasharray:none;stroke-opacity:1;filter:url(#filter3)"
     id="path1-5"
     cx="8.4450111"
     cy="8.423522"
     rx="6.8752708"
     ry="6.8578653" />
  <ellipse
     style="opacity:1;fill:none;stroke-width:0.58207188;stroke-opacity:1;stroke:currentColor;stroke-dasharray:none;fill-opacity:1"
     id="path1"
     cx="8.4450111"
     cy="8.423522"
     rx="6.8752708"
     ry="6.8578653"
     class="ColorScheme-Text" />
  <ellipse
     style="fill:currentColor;stroke:none;stroke-width:0.285844;stroke-dasharray:none;stroke-opacity:1"
     id="path1-2"
     cx="8.4557552"
     cy="8.423522"
     rx="6.5738997"
     ry="6.5692253"
     class="ColorScheme-Highlight" />
  <path
     id="path5-6"
     d="m 8.466263,5.0269854 c -0.08798,0 -0.176126,0.3423205 -0.321054,1.0263646 C 7.855354,7.4214382 7.771859,7.4283931 7.502745,7.3799384 7.233629,7.3314834 7.12748,6.961329 7.171277,6.2957558 7.215067,5.6301828 7.214737,5.577202 6.392706,6.7213127 5.570679,7.8654235 5.575073,7.691055 5.194682,7.5178403 4.814291,7.3446258 4.710677,7.2981902 4.645947,7.2696886 c -0.0096,-0.00423 -0.01695,-0.00585 -0.02083,-0.00395 -1.85e-4,1.205e-4 -9.06e-4,5.774e-4 -0.001,7.189e-4 l -3.59e-4,3.6e-4 c -0.01307,0.019438 0.08726,0.1613896 0.508155,0.6456973 0.513092,0.5903939 0.772157,1.213726 0.418015,1.2429134 -0.354142,0.029187 -0.30324,-0.00187 0.340805,0.5774645 0.644044,0.5793443 1.384581,1.8549793 1.161393,1.9844953 -0.223188,0.129517 -0.05248,0.467253 0.198234,0.589675 0.250715,0.122422 0.329657,0.228123 0.364148,0.343678 0.03191,0.106916 0.08212,0.234422 0.111686,0.282986 0.03664,0.06019 0.08674,0.03203 0.157295,-0.08834 0.135078,-0.230439 0.124019,-0.226419 0.370252,-0.137184 0.170476,0.06178 0.252607,0.06246 0.414065,0.004 0.273939,-0.09928 0.280344,-0.09735 0.356606,0.104145 0.08757,0.231373 0.21212,0.180086 0.280473,-0.115636 0.03882,-0.168131 0.09286,-0.254557 0.36878,-0.389284 0.275918,-0.134771 0.431465,-0.463685 0.206852,-0.594028 -0.224611,-0.130342 0.517348,-1.405152 1.161394,-1.9844956 0.644045,-0.5793439 0.694947,-0.5482772 0.340804,-0.5774646 -0.354142,-0.029187 -0.09507,-0.6525194 0.418016,-1.2429133 0.420895,-0.4843078 0.521585,-0.6259002 0.508514,-0.6453382 l -3.6e-4,-3.6e-4 c -1.66e-4,-1.417e-4 -9.06e-4,-5.944e-4 -0.0011,-7.189e-4 -0.0039,-0.0019 -0.01157,-6.453e-4 -0.02119,0.00359 -0.06473,0.028502 -0.168344,0.074937 -0.548735,0.2481517 -0.380394,0.1732023 -0.376,0.3475707 -1.198027,-0.79654 C 9.717807,5.5772004 9.717465,5.6301812 9.761262,6.2957541 9.805052,6.9613273 9.698912,7.3314816 9.429795,7.3799367 9.160679,7.4283917 9.077184,7.4214367 8.787329,6.0533483 8.642401,5.3693043 8.554261,5.0269844 8.466276,5.0269844 Z m 1.677448,3.6615852 c 0.07012,-0.00115 0.07434,0.1222924 0.07434,0.3361362 0,0.4719311 0.220078,0.3409432 -0.498099,0.638874 C 9.001774,9.9615115 8.791125,10.070877 9.494065,9.2962012 9.878486,8.8725504 10.059089,8.6899697 10.143713,8.6885706 Z m -3.37824,0.013287 C 6.853701,8.6999776 7.037907,8.8858759 7.41907,9.3058971 8.096691,10.052602 7.969397,9.9866598 7.28404,9.7045199 6.598684,9.4223802 6.686464,9.4986848 6.686464,9.0254245 c 0,-0.2070515 0.01039,-0.3221088 0.07901,-0.3235669 z m 1.687863,2.2297744 c 0.306329,-0.0032 0.56541,0.343145 0.782163,0.482657 0.216754,0.139512 0.316276,0.446357 -0.02981,0.347987 -0.346082,-0.09837 -0.544726,-0.418557 -0.752355,-0.418734 -0.226119,-1.98e-4 -0.376895,0.328885 -0.634565,0.428431 -0.257668,0.09955 -0.47234,-0.130877 -0.226245,-0.283346 0.184351,-0.114214 0.383729,-0.367939 0.615891,-0.48948 0.07776,-0.04071 0.159175,-0.06662 0.244919,-0.06751 z"
     style="opacity:0.3;fill:#000000;fill-opacity:1;stroke-width:0.180012" />
  <path
     id="path5-6-5"
     d="m 8.466263,4.4978286 c -0.08798,0 -0.176126,0.3423205 -0.321054,1.0263646 C 7.855354,6.8922814 7.771859,6.8992363 7.502745,6.8507816 7.233629,6.8023266 7.12748,6.4321722 7.171277,5.766599 7.215067,5.101026 7.214737,5.0480452 6.392706,6.1921559 5.570679,7.3362667 5.575073,7.1618982 5.194682,6.9886835 4.814291,6.815469 4.710677,6.7690334 4.645947,6.7405318 c -0.0096,-0.00423 -0.01695,-0.00585 -0.02083,-0.00395 -1.85e-4,1.205e-4 -9.06e-4,5.774e-4 -0.001,7.189e-4 l -3.59e-4,3.6e-4 c -0.01307,0.019438 0.08726,0.1613896 0.508155,0.6456973 0.513092,0.5903939 0.772157,1.213726 0.418015,1.2429134 -0.354142,0.029187 -0.30324,-0.00187 0.340805,0.5774645 0.644044,0.5793441 1.384581,1.8549791 1.161393,1.9844951 -0.223188,0.129517 -0.05248,0.467253 0.198234,0.589675 0.250715,0.122422 0.329657,0.228123 0.364148,0.343678 0.03191,0.106916 0.08212,0.234422 0.111686,0.282986 0.03664,0.06019 0.08674,0.03203 0.157295,-0.08834 0.135078,-0.230439 0.124019,-0.226419 0.370252,-0.137184 0.170476,0.06178 0.252607,0.06246 0.414065,0.004 0.273939,-0.09928 0.280344,-0.09735 0.356606,0.104145 0.08757,0.231373 0.21212,0.180086 0.280473,-0.115636 0.03882,-0.168131 0.09286,-0.254557 0.36878,-0.389284 C 9.949583,11.6475 10.10513,11.318586 9.880517,11.188243 9.655906,11.057901 10.397865,9.7830917 11.041911,9.2037476 11.685956,8.6244037 11.736858,8.6554704 11.382715,8.626283 11.028573,8.597096 11.287645,7.9737636 11.800731,7.3833697 12.221626,6.8990619 12.322316,6.7574695 12.309245,6.7380315 l -3.6e-4,-3.6e-4 c -1.66e-4,-1.417e-4 -9.06e-4,-5.944e-4 -0.0011,-7.189e-4 -0.0039,-0.0019 -0.01157,-6.453e-4 -0.02119,0.00359 -0.06473,0.028502 -0.168344,0.074937 -0.548735,0.2481517 -0.380394,0.1732023 -0.376,0.3475707 -1.198027,-0.79654 C 9.717807,5.0480436 9.717465,5.1010244 9.761262,5.7665973 9.805052,6.4321705 9.698912,6.8023248 9.429795,6.8507799 9.160679,6.8992349 9.077184,6.8922799 8.787329,5.5241915 8.642401,4.8401475 8.554261,4.4978276 8.466276,4.4978276 Z m 1.677448,3.6615852 c 0.07012,-0.00115 0.07434,0.1222924 0.07434,0.3361362 0,0.4719311 0.220078,0.3409432 -0.498099,0.638874 C 9.001774,9.4323547 8.791125,9.5417205 9.494065,8.7670444 9.878486,8.3433936 10.059089,8.1608129 10.143713,8.1594138 Z m -3.37824,0.013287 C 6.853701,8.1708208 7.037907,8.3567191 7.41907,8.7767403 8.096691,9.5234453 7.969397,9.457503 7.28404,9.1753631 6.598684,8.8932234 6.686464,8.969528 6.686464,8.4962677 c 0,-0.2070515 0.01039,-0.3221088 0.07901,-0.3235669 z m 1.687863,2.2297742 c 0.306329,-0.0032 0.56541,0.343145 0.782163,0.482657 0.216754,0.139512 0.316276,0.446357 -0.02981,0.347987 -0.346082,-0.09837 -0.544726,-0.418557 -0.752355,-0.418734 -0.226119,-1.98e-4 -0.376895,0.328885 -0.634565,0.428431 -0.257668,0.09955 -0.47234,-0.130877 -0.226245,-0.283346 0.184351,-0.114214 0.383729,-0.367939 0.615891,-0.48948 0.07776,-0.04071 0.159175,-0.06662 0.244919,-0.06751 z"
     style="fill:currentColor;stroke-width:0.180012"
     class="ColorScheme-Text" />
  <path
     id="gradient-path1"
     style="opacity:0.3;baseline-shift:baseline;display:inline;overflow:visible;vector-effect:none;enable-background:accumulate;stop-color:#000000;stop-opacity:1;fill:url(#linearGradient4)"
     d="M 8.4453131 1.2753492 C 4.4913166 1.2753492 1.2794833 4.4784283 1.2794833 8.4236094 C 1.2794833 12.36879 4.4913166 15.572386 8.4453131 15.572386 C 12.39931 15.572386 15.611143 12.36879 15.611143 8.4236094 C 15.611143 4.4784283 12.39931 1.2753492 8.4453131 1.2753492 z " />
</svg>
