<?xml version="1.0" encoding="UTF-8" standalone="no"?>
<svg
   width="64"
   height="64"
   version="1.1"
   viewBox="0 0 16.933 16.933"
   id="svg7"
   sodipodi:docname="org.strawberrymusicplayer.strawberry.svg"
   inkscape:version="1.4.2 (ebf0e940d0, 2025-05-08)"
   xmlns:inkscape="http://www.inkscape.org/namespaces/inkscape"
   xmlns:sodipodi="http://sodipodi.sourceforge.net/DTD/sodipodi-0.dtd"
   xmlns:xlink="http://www.w3.org/1999/xlink"
   xmlns="http://www.w3.org/2000/svg"
   xmlns:svg="http://www.w3.org/2000/svg"
   xmlns:rdf="http://www.w3.org/1999/02/22-rdf-syntax-ns#"
   xmlns:cc="http://creativecommons.org/ns#"
   xmlns:dc="http://purl.org/dc/elements/1.1/">
  <sodipodi:namedview
     id="namedview7"
     pagecolor="#9c4444"
     bordercolor="#000000"
     borderopacity="0.25"
     inkscape:showpageshadow="2"
     inkscape:pageopacity="0.0"
     inkscape:pagecheckerboard="0"
     inkscape:deskcolor="#d1d1d1"
     inkscape:zoom="4.3531261"
     inkscape:cx="36.066035"
     inkscape:cy="26.647517"
     inkscape:window-width="2560"
     inkscape:window-height="1392"
     inkscape:window-x="0"
     inkscape:window-y="0"
     inkscape:window-maximized="1"
     inkscape:current-layer="svg7"
     showgrid="false" />
  <defs
     id="defs2">
    <filter
       style="color-interpolation-filters:sRGB;"
       inkscape:label="Blur"
       id="filter3"
       x="-0.10843471"
       y="-0.10870992"
       width="1.2168694"
       height="1.2174198">
      <feGaussianBlur
         stdDeviation="0.5 0.5"
         result="blur"
         id="feGaussianBlur3" />
    </filter>
    <style
       id="current-color-scheme"
       type="text/css">.ColorScheme-Text {color:#d8dee9} .ColorScheme-Highlight {color:#3b4252}</style>
    <linearGradient
       id="linearGradient3"
       inkscape:collect="always">
      <stop
         style="stop-color:#000000;stop-opacity:1;"
         offset="0"
         id="stop3" />
      <stop
         style="stop-color:#000000;stop-opacity:0;"
         offset="1"
         id="stop4" />
    </linearGradient>
    <linearGradient
       inkscape:collect="always"
       xlink:href="#linearGradient3"
       id="linearGradient4"
       x1="13.512321"
       y1="13.490874"
       x2="3.3783066"
       y2="3.3568602"
       gradientUnits="userSpaceOnUse" />
  </defs>
  <metadata
     id="metadata2">
    <rdf:RDF>
      <cc:Work
         rdf:about="">
        <dc:format>image/svg+xml</dc:format>
        <dc:type
           rdf:resource="http://purl.org/dc/dcmitype/StillImage" />
      </cc:Work>
    </rdf:RDF>
  </metadata>
  <ellipse
     style="opacity:1;fill:none;stroke:#000000;stroke-width:0.582072;stroke-dasharray:none;stroke-opacity:1;filter:url(#filter3)"
     id="path1-5"
     cx="8.4450111"
     cy="8.423522"
     rx="6.8752708"
     ry="6.8578653" />
  <ellipse
     style="opacity:1;fill:none;stroke-width:0.58207188;stroke-opacity:1;stroke:currentColor;stroke-dasharray:none;fill-opacity:1"
     id="path1"
     cx="8.4450111"
     cy="8.423522"
     rx="6.8752708"
     ry="6.8578653"
     class="ColorScheme-Text" />
  <ellipse
     style="fill:currentColor;stroke:none;stroke-width:0.285844;stroke-dasharray:none;stroke-opacity:1"
     id="path1-2"
     cx="8.4557552"
     cy="8.423522"
     rx="6.5738997"
     ry="6.5692253"
     class="ColorScheme-Highlight" />
  <path
     style="opacity:0.3;fill:#000000;fill-opacity:1;stroke-width:0.459542"
     d="m 9.1963539,5.3193432 c -0.040899,0 -0.052851,0.083131 -0.027575,0.1929156 0,0 0.072146,0.3503085 0.5574241,0.6069166 0.337303,0.1668137 0.336845,0.2631794 -0.00227,0.3632216 -0.1475127,0.043564 -0.3271941,0.1262361 -0.3988823,0.183633 -0.1181026,0.094665 -0.07491,0.1337265 0.4641376,0.420986 0,0 0.6548477,0.3674496 0.7288337,0.4296256 0.128211,0.1077626 0.122237,0.1229273 -0.128213,0.3324783 -0.279401,0.2334012 -0.6102722,0.7797961 -0.6102722,1.0077289 0,0.1231571 0.054687,0.133267 0.5151462,0.094207 l 0.869913,-0.09007 -0.02528,0.6199217 c -0.01379,0.3414395 -0.05469,0.7049375 -0.09053,0.8087935 -0.03631,0.103856 -0.05101,0.204497 -0.03355,0.223797 0.07445,0.0818 0.378203,-0.09834 0.586835,-0.347873 0.212768,-0.2545864 0.226554,-0.2596413 0.27159,-0.103397 0.152567,0.28032 0.22012,0.525716 0.456784,0.771111 0.05285,0.0055 0.09329,-0.06204 0.126834,-0.201738 0.104316,-0.428754 0.04871,-0.8437196 -0.17141,-1.2729317 -0.118101,-0.2306897 -0.234365,-0.5951063 -0.257802,-0.8092528 0,0 -0.06204,-0.4627582 -0.08548,-0.5532419 -0.03631,-0.1369436 0.03355,-0.2173632 0.424157,-0.4876198 0.444836,-0.307801 0.559721,-0.4829324 0.391529,-0.5968527 -0.04182,-0.028308 -0.261939,0.057214 -0.489411,0.1900204 -0.227474,0.1328075 -0.458164,0.2414433 -0.51285,0.2414433 -0.05469,0 -0.226093,-0.1662621 -0.380959,-0.3694256 -0.268833,-0.3531118 -0.28124,-0.3934595 -0.28124,-0.9146256 0,-0.4951562 -0.01379,-0.5473142 -0.14981,-0.5685909 -0.109831,-0.017187 -0.173707,0.039751 -0.239422,0.2140544 -0.04917,0.1306477 -0.114885,0.2374911 -0.145215,0.2374911 -0.03033,0 -0.6732281,-0.3113394 -0.6732281,-0.3113394 0,0 -0.6502518,-0.3113854 -0.6897733,-0.3113854 z m -0.4016388,0.4783829 -0.079045,0.00542 C 7.5934699,5.9230449 6.6573366,6.6184233 5.5861461,8.1257198 5.2627202,8.5811255 4.8472029,9.165203 4.6625591,9.424844 c -0.7776821,1.09279 -0.7445492,2.214532 0.079911,2.686021 0.5328382,0.305136 1.0472945,0.425536 1.862384,0.437024 0.4096815,0.006 1.0102108,0.03585 1.3337275,0.06571 0.9025403,0.08318 1.0155877,0.08088 1.6506741,-0.02941 0.710911,-0.124076 1.258685,-0.381879 1.698926,-0.799143 0.177383,-0.167733 0.391989,-0.488033 0.570751,-0.813849 l -0.15073,-0.298242 c 0,0 -0.137863,0.140161 -0.215525,0.186114 -0.08318,0.04917 -0.165895,0.09237 -0.284456,0.118562 -0.118563,0.02574 -0.352009,0.04274 -0.53215,-0.154406 -0.15992,-0.175085 -0.124995,-0.262398 -0.127293,-0.32076 -0.0023,-0.0579 0.0088,-0.137403 0.0088,-0.137403 0.01195,-0.07812 0.02987,-0.149351 0.05652,-0.226095 0,0 0.01654,-0.08226 0.03171,-0.215984 l 0.0386,-0.5477737 c 0,0 -0.21001,0.022058 -0.351089,0.034006 -0.235285,0.020221 -0.3547671,0.043657 -0.5519106,0.00735 C 9.6825746,9.3986465 9.5176019,9.3356898 9.4178813,9.192312 9.3177059,9.0489353 9.3199953,8.9211826 9.3199953,8.8563871 c 0,-0.3359247 0.1282129,-0.5110102 0.2665341,-0.7394023 C 9.6807338,7.961246 9.9330239,7.6942524 9.9330239,7.6942524 L 9.5732005,7.4922837 c 0,0 -0.4085327,-0.1999925 -0.570751,-0.3473215 -0.040899,-0.036855 -0.088687,-0.084326 -0.1323471,-0.1678705 -0.043199,-0.083499 -0.071692,-0.2171794 -0.04917,-0.332984 0.04457,-0.231563 0.1649748,-0.29475 0.2173622,-0.3365681 0.051469,-0.041359 0.09834,-0.041451 0.1461349,-0.069989 C 9.0865436,6.1457348 8.9385751,6.0576868 8.8820514,5.9718446 8.8406881,5.9093922 8.8190938,5.8532827 8.7947357,5.7977242 Z M 8.3246035,7.1620133 8.4661422,7.162885 c 0,0 0.1121285,0.032949 0.1521079,0.0727 C 8.7772519,7.3946781 8.6729372,7.7572106 8.4960123,7.9341341 8.3190884,8.1105521 8.0465813,8.1252574 7.8875795,7.9663018 7.7281188,7.8073005 7.7428233,7.5344246 7.9197441,7.3576848 8.0190017,7.2582396 8.1770877,7.1815426 8.3246004,7.162012 Z M 6.4863909,8.0811424 6.628206,8.082064 c 0,0 0.1118986,0.032628 0.1516944,0.072608 C 6.9389476,8.3136733 6.8345874,8.6762518 6.6578007,8.8527157 6.4810604,9.0296394 6.2083677,9.0443446 6.0492751,8.8853434 5.8901815,8.7263419 5.9048407,8.4533742 6.0815841,8.2769104 6.1810273,8.1771898 6.3387895,8.1004463 6.486394,8.0811455 Z m 1.3786703,0.9190833 0.1415397,9.216e-4 c 0,0 0.1121275,0.032628 0.1521079,0.072608 C 8.3177107,9.2327566 8.2133959,9.5953351 8.036471,9.7722587 7.8595471,9.9487225 7.587039,9.963428 7.4280382,9.8044264 7.2688064,9.6454248 7.2834656,9.3724572 7.4602028,9.1959933 7.5594604,9.0962727 7.7175454,9.0195293 7.8650591,9.0002285 Z m 1.8381672,0.4595419 0.1415387,9.215e-4 c 0.059276,0.00965 0.1121288,0.032628 0.1521078,0.072608 0.1590021,0.1590014 0.05469,0.5215799 -0.122238,0.6985029 -0.1769236,0.176465 -0.4494307,0.19117 -0.6084325,0.03217 C 9.1072026,10.104967 9.1214493,9.8319989 9.298369,9.6555351 9.3976266,9.5558145 9.5557126,9.4790711 9.7032253,9.4597702 Z m -4.1359201,0.4595413 0.1418141,9.228e-4 c 0,0 0.1118985,0.032628 0.1516944,0.072608 0.1590472,0.1590013 0.054687,0.5215803 -0.1220997,0.6985033 -0.1767403,0.176464 -0.449432,0.191169 -0.6085256,0.03216 -0.1590936,-0.159004 -0.1444344,-0.431971 0.032309,-0.608436 0.099443,-0.09972 0.2572044,-0.1764633 0.4048099,-0.1957642 z m 1.8382116,0.9190831 0.1415397,9.23e-4 c 0,0 0.1121275,0.03263 0.152108,0.07261 0.1590018,0.159001 0.054687,0.52158 -0.1222379,0.698502 -0.1769239,0.176464 -0.4494784,0.19117 -0.608571,0.03216 -0.1590936,-0.159001 -0.1444344,-0.431969 0.032299,-0.608433 0.099443,-0.09972 0.2572065,-0.176464 0.4048563,-0.195764 z m 1.3786249,0.459542 0.1415397,9.22e-4 c 0,0 0.1121275,0.03263 0.152108,0.07261 0.1590018,0.159001 0.054687,0.521579 -0.1222389,0.698503 -0.1769229,0.176464 -0.449431,0.191169 -0.6084318,0.03216 -0.1590018,-0.159 -0.1447561,-0.431969 0.032165,-0.608432 0.099258,-0.09972 0.2573426,-0.176464 0.4048553,-0.195765 z"
     id="path1-3" />
  <path
     style="fill:currentColor;stroke-width:0.459542"
     class="ColorScheme-Text"
     d="m 9.1963539,4.7902047 c -0.040899,0 -0.052851,0.083131 -0.027575,0.1929156 0,0 0.072146,0.3503085 0.5574241,0.6069166 0.337303,0.1668137 0.336845,0.2631794 -0.00227,0.3632216 -0.1475127,0.043564 -0.3271941,0.1262361 -0.3988823,0.183633 -0.1181026,0.094665 -0.07491,0.1337265 0.4641376,0.420986 0,0 0.6548477,0.3674496 0.7288337,0.4296256 0.128211,0.1077626 0.122237,0.1229273 -0.128213,0.3324783 -0.279401,0.2334012 -0.6102722,0.7797961 -0.6102722,1.0077289 0,0.1231571 0.054687,0.133267 0.5151462,0.094207 l 0.869913,-0.09007 -0.02528,0.6199217 c -0.01379,0.3414395 -0.05469,0.7049371 -0.09053,0.8087933 -0.03631,0.1038564 -0.05101,0.204497 -0.03355,0.223797 0.07445,0.0818 0.378203,-0.098342 0.586835,-0.3478732 0.212768,-0.254586 0.226554,-0.2596409 0.27159,-0.1033969 0.152567,0.2803205 0.22012,0.5257158 0.456784,0.7711108 0.05285,0.0055 0.09329,-0.06204 0.126834,-0.201738 0.104316,-0.4287531 0.04871,-0.8437191 -0.17141,-1.2729312 -0.118101,-0.2306897 -0.234365,-0.5951063 -0.257802,-0.8092528 0,0 -0.06204,-0.4627582 -0.08548,-0.5532419 -0.03631,-0.1369436 0.03355,-0.2173632 0.424157,-0.4876198 0.444836,-0.307801 0.559721,-0.4829324 0.391529,-0.5968527 -0.04182,-0.028308 -0.261939,0.057214 -0.489411,0.1900204 -0.227474,0.1328075 -0.458164,0.2414433 -0.51285,0.2414433 -0.05469,0 -0.226093,-0.1662621 -0.380959,-0.3694256 -0.268833,-0.3531118 -0.28124,-0.3934595 -0.28124,-0.9146256 0,-0.4951562 -0.01379,-0.5473142 -0.14981,-0.5685909 -0.109831,-0.017187 -0.173707,0.039751 -0.239422,0.2140544 -0.04917,0.1306477 -0.114885,0.2374911 -0.145215,0.2374911 -0.03033,0 -0.6732281,-0.3113394 -0.6732281,-0.3113394 0,0 -0.6502518,-0.3113854 -0.6897733,-0.3113854 z m -0.4016388,0.4783829 -0.079045,0.00542 C 7.5934699,5.3939064 6.6573366,6.0892848 5.5861461,7.5965813 5.2627202,8.051987 4.8472029,8.6360645 4.6625591,8.8957055 3.884877,9.9884953 3.9180099,11.110237 4.7424704,11.581726 c 0.5328382,0.305136 1.0472945,0.425536 1.862384,0.437024 0.4096815,0.006 1.0102108,0.03585 1.3337275,0.06571 0.9025403,0.08318 1.0155877,0.08088 1.6506741,-0.02941 0.710911,-0.124076 1.258685,-0.381879 1.698926,-0.799143 0.177383,-0.167733 0.391989,-0.488033 0.570751,-0.813849 l -0.15073,-0.298242 c 0,0 -0.137863,0.140161 -0.215525,0.186114 -0.08318,0.04917 -0.165895,0.09237 -0.284456,0.118562 -0.118563,0.02574 -0.352009,0.04274 -0.53215,-0.154406 -0.15992,-0.175085 -0.124995,-0.262398 -0.127293,-0.3207597 -0.0023,-0.0579 0.0088,-0.1374029 0.0088,-0.1374029 0.01195,-0.078122 0.02987,-0.149351 0.05652,-0.2260945 0,0 0.01654,-0.082257 0.03171,-0.2159844 l 0.0386,-0.5477737 c 0,0 -0.21001,0.022058 -0.351089,0.034006 -0.235285,0.020221 -0.3547671,0.043657 -0.5519106,0.00735 C 9.6825746,8.869508 9.5176019,8.8065513 9.4178813,8.6631735 9.3177059,8.5197968 9.3199953,8.3920441 9.3199953,8.3272486 c 0,-0.3359247 0.1282129,-0.5110102 0.2665341,-0.7394023 C 9.6807338,7.4321075 9.9330239,7.1651139 9.9330239,7.1651139 L 9.5732005,6.9631452 c 0,0 -0.4085327,-0.1999925 -0.570751,-0.3473215 -0.040899,-0.036855 -0.088687,-0.084326 -0.1323471,-0.1678705 -0.043199,-0.083499 -0.071692,-0.2171794 -0.04917,-0.332984 0.04457,-0.231563 0.1649748,-0.29475 0.2173622,-0.3365681 0.051469,-0.041359 0.09834,-0.041451 0.1461349,-0.069989 C 9.0865436,5.6165963 8.9385751,5.5285483 8.8820514,5.4427061 8.8406881,5.3802537 8.8190938,5.3241442 8.7947357,5.2685857 Z m -0.4701116,1.3642872 0.1415387,8.717e-4 c 0,0 0.1121285,0.032949 0.1521079,0.0727 C 8.7772519,6.8655396 8.6729372,7.2280721 8.4960123,7.4049956 8.3190884,7.5814136 8.0465813,7.5961189 7.8875795,7.4371633 7.7281188,7.278162 7.7428233,7.0052861 7.9197441,6.8285463 8.0190017,6.7291011 8.1770877,6.6524041 8.3246004,6.6328735 Z M 6.4863909,7.5520039 6.628206,7.5529255 c 0,0 0.1118986,0.032628 0.1516944,0.072608 C 6.9389476,7.7845348 6.8345874,8.1471133 6.6578007,8.3235772 6.4810604,8.5005009 6.2083677,8.5152061 6.0492751,8.3562049 5.8901815,8.1972034 5.9048407,7.9242357 6.0815841,7.7477719 6.1810273,7.6480513 6.3387895,7.5713078 6.486394,7.552007 Z m 1.3786703,0.9190833 0.1415397,9.216e-4 c 0,0 0.1121275,0.032628 0.1521079,0.072608 C 8.3177107,8.7036181 8.2133959,9.0661966 8.036471,9.2431202 7.8595471,9.419584 7.587039,9.4342895 7.4280382,9.2752879 7.2688064,9.1162863 7.2834656,8.8433187 7.4602028,8.6668548 7.5594604,8.5671342 7.7175454,8.4903908 7.8650591,8.47109 Z m 1.8381672,0.4595419 0.1415387,9.215e-4 c 0.059276,0.00965 0.1121288,0.032628 0.1521078,0.072608 C 10.155877,9.16316 10.051565,9.5257384 9.8746369,9.7026619 9.6977133,9.879126 9.4252062,9.8938313 9.2662044,9.7348296 9.1072026,9.5758283 9.1214493,9.3028604 9.298369,9.1263966 9.3976266,9.026676 9.5557126,8.9499326 9.7032253,8.9306317 Z m -4.1359201,0.4595413 0.1418141,9.228e-4 c 0,0 0.1118985,0.032628 0.1516944,0.072608 0.1590472,0.1590015 0.054687,0.5215801 -0.1220997,0.6985028 -0.1767403,0.176464 -0.449432,0.191169 -0.6085256,0.03216 C 4.9710979,10.03536 4.9857571,9.762393 5.1625005,9.5859289 5.2619437,9.4862083 5.4197049,9.4094652 5.5673104,9.3901643 Z m 1.8382116,0.9190826 0.1415397,9.23e-4 c 0,0 0.1121275,0.03263 0.152108,0.07261 0.1590018,0.159001 0.054687,0.52158 -0.1222379,0.698502 -0.1769239,0.176464 -0.4494784,0.19117 -0.608571,0.03216 -0.1590936,-0.159001 -0.1444344,-0.431969 0.032299,-0.608433 0.099443,-0.09972 0.2572065,-0.176464 0.4048563,-0.195764 z m 1.3786249,0.459542 0.1415397,9.22e-4 c 0,0 0.1121275,0.03263 0.152108,0.07261 0.1590018,0.159001 0.054687,0.521579 -0.1222389,0.698503 -0.1769229,0.176464 -0.449431,0.191169 -0.6084318,0.03216 -0.1590018,-0.159 -0.1447561,-0.431969 0.032165,-0.608432 0.099258,-0.09972 0.2573426,-0.176464 0.4048553,-0.195765 z"
     id="path1-3-7" />
  <path
     id="gradient-path1"
     style="opacity:0.3;baseline-shift:baseline;display:inline;overflow:visible;vector-effect:none;enable-background:accumulate;stop-color:#000000;stop-opacity:1;fill:url(#linearGradient4)"
     d="M 8.4453131 1.2753492 C 4.4913166 1.2753492 1.2794833 4.4784283 1.2794833 8.4236094 C 1.2794833 12.36879 4.4913166 15.572386 8.4453131 15.572386 C 12.39931 15.572386 15.611143 12.36879 15.611143 8.4236094 C 15.611143 4.4784283 12.39931 1.2753492 8.4453131 1.2753492 z " />
</svg>
