<?xml version="1.0" encoding="UTF-8" standalone="no"?>
<svg
   width="64"
   height="64"
   version="1.1"
   viewBox="0 0 16.933 16.933"
   id="svg7"
   sodipodi:docname="org.kde.iconexplorer.svg"
   inkscape:version="1.4.2 (ebf0e940d0, 2025-05-08)"
   xmlns:inkscape="http://www.inkscape.org/namespaces/inkscape"
   xmlns:sodipodi="http://sodipodi.sourceforge.net/DTD/sodipodi-0.dtd"
   xmlns:xlink="http://www.w3.org/1999/xlink"
   xmlns="http://www.w3.org/2000/svg"
   xmlns:svg="http://www.w3.org/2000/svg"
   xmlns:rdf="http://www.w3.org/1999/02/22-rdf-syntax-ns#"
   xmlns:cc="http://creativecommons.org/ns#"
   xmlns:dc="http://purl.org/dc/elements/1.1/">
  <sodipodi:namedview
     id="namedview7"
     pagecolor="#9c4444"
     bordercolor="#000000"
     borderopacity="0.25"
     inkscape:showpageshadow="2"
     inkscape:pageopacity="0.0"
     inkscape:pagecheckerboard="0"
     inkscape:deskcolor="#d1d1d1"
     inkscape:zoom="4.3531261"
     inkscape:cx="37.099775"
     inkscape:cy="25.958357"
     inkscape:window-width="2560"
     inkscape:window-height="1392"
     inkscape:window-x="0"
     inkscape:window-y="0"
     inkscape:window-maximized="1"
     inkscape:current-layer="svg7"
     showgrid="false" />
  <defs
     id="defs2">
    <filter
       style="color-interpolation-filters:sRGB;"
       inkscape:label="Blur"
       id="filter3"
       x="-0.10843471"
       y="-0.10870992"
       width="1.2168694"
       height="1.2174198">
      <feGaussianBlur
         stdDeviation="0.5 0.5"
         result="blur"
         id="feGaussianBlur3" />
    </filter>
    <filter
       style="color-interpolation-filters:sRGB"
       inkscape:label="Blur"
       id="filter3-8"
       x="-0.10843471"
       y="-0.10870992"
       width="1.2168694"
       height="1.2174198">
      <feGaussianBlur
         stdDeviation="0.5 0.5"
         result="blur"
         id="feGaussianBlur3-7" />
    </filter>
    <style
       id="current-color-scheme"
       type="text/css">.ColorScheme-Text {color:#d8dee9} .ColorScheme-Highlight {color:#3b4252}</style>
    <linearGradient
       id="linearGradient3"
       inkscape:collect="always">
      <stop
         style="stop-color:#000000;stop-opacity:1;"
         offset="0"
         id="stop3" />
      <stop
         style="stop-color:#000000;stop-opacity:0;"
         offset="1"
         id="stop4" />
    </linearGradient>
    <linearGradient
       inkscape:collect="always"
       xlink:href="#linearGradient3"
       id="linearGradient4"
       x1="13.512321"
       y1="13.490874"
       x2="3.3783066"
       y2="3.3568602"
       gradientUnits="userSpaceOnUse" />
  </defs>
  <metadata
     id="metadata2">
    <rdf:RDF>
      <cc:Work
         rdf:about="">
        <dc:format>image/svg+xml</dc:format>
        <dc:type
           rdf:resource="http://purl.org/dc/dcmitype/StillImage" />
      </cc:Work>
    </rdf:RDF>
  </metadata>
  <ellipse
     style="opacity:1;fill:none;stroke:#000000;stroke-width:0.582072;stroke-dasharray:none;stroke-opacity:1;filter:url(#filter3)"
     id="path1-5"
     cx="8.4450111"
     cy="8.423522"
     rx="6.8752708"
     ry="6.8578653" />
  <ellipse
     style="opacity:1;fill:none;stroke-width:0.58207188;stroke-opacity:1;stroke:currentColor;stroke-dasharray:none;fill-opacity:1"
     id="path1"
     cx="8.4450111"
     cy="8.423522"
     rx="6.8752708"
     ry="6.8578653"
     class="ColorScheme-Text" />
  <ellipse
     style="fill:currentColor;stroke:none;stroke-width:0.285844;stroke-dasharray:none;stroke-opacity:1"
     id="path1-2"
     cx="8.4557552"
     cy="8.423522"
     rx="6.5738997"
     ry="6.5692253"
     class="ColorScheme-Highlight" />
  <path
     id="path5"
     style="baseline-shift:baseline;display:inline;overflow:visible;opacity:0.3;vector-effect:none;fill:#000000;fill-opacity:1;stroke-width:0.196508;enable-background:accumulate;stop-color:#000000"
     d="m 8.4665713,5.1592914 1.91e-4,1.82e-4 c 0.0406,0 0.08034,0.0033 0.120253,0.006 -0.03998,-0.0028 -0.07978,-0.0062 -0.120435,-0.0062 z m -0.04019,0.0022 c -0.06166,8.29e-4 -0.121628,0.0082 -0.182427,0.01245 0.04896,0.230024 0.04427,0.470469 -0.04795,0.642879 -0.203297,0.379799 -0.767708,0.348682 -1.092637,0.149797 -0.148188,-0.09064 -0.246294,-0.205178 -0.293161,-0.337603 -0.120553,0.07295 -0.236445,0.15363 -0.34702,0.241406 -0.04264,-0.0036 -0.08677,-0.0057 -0.130917,-0.0057 -0.239059,0 -0.478118,0.06395 -0.478118,0.319776 0,0.01254 5.7e-4,0.0263 0.0017,0.04121 l -0.01283,0.0037 c -0.495206,0.141951 -0.92029,0.761813 -1.113119,1.531693 -0.104997,0.4192079 -0.125504,0.833028 -0.0691,1.185872 0.0564,0.3528456 0.189152,0.6492602 0.408231,0.8190835 l 0.05404,0.041996 c 0.03907,0.1593337 0.236474,0.2853381 0.404375,0.3658831 0.0084,0.07574 0.01357,0.151487 0.0069,0.227203 -0.007,0.07993 -0.02713,0.159794 -0.07043,0.239714 v 6.2e-5 c -0.02597,0.04794 -0.06032,0.09588 -0.10513,0.143814 -0.373529,0.399569 -0.601127,0.330959 -0.682837,0.40371 -0.0065,0.0058 -0.01214,0.01254 -0.01681,0.02049 -0.0047,0.0079 -0.0084,0.0171 -0.01121,0.0278 -0.0042,0.01603 -0.0063,0.03549 -0.0063,0.05946 0,0.004 1.6e-4,0.008 5.17e-4,0.01214 9.33e-4,0.01236 0.0036,0.02523 0.0076,0.03849 0.02148,0.0707 0.08402,0.152403 0.172729,0.225089 h 5.9e-5 c 0.04435,0.03633 0.09519,0.07042 0.150738,0.09976 h 6.2e-5 c 0.05555,0.02934 0.115796,0.05395 0.178812,0.0713 0.06303,0.01736 0.128853,0.02748 0.195621,0.02786 0.06316,3.98e-4 0.127128,-0.0084 0.19038,-0.02755 0.02033,-0.0062 0.04061,-0.0131 0.06073,-0.02157 0.0331,-0.01393 0.0658,-0.03105 0.09796,-0.05172 l 6.2e-5,-6.1e-5 c 0.01606,-0.01032 0.03198,-0.02153 0.04772,-0.03366 h 5.9e-5 v -6.2e-5 c 0.0315,-0.02427 0.06232,-0.05223 0.09218,-0.08417 0.1071,-0.114568 0.190229,-0.216304 0.254724,-0.305214 0.0075,0.06443 0.0028,0.146171 -0.02844,0.271072 -0.123737,0.494083 -0.778017,0.452286 -0.464562,0.80301 0.242189,0.270986 0.965837,0.283864 1.368022,-0.06617 -0.160051,0.361562 -0.400324,0.577436 0.06555,0.577436 0.717178,0 1.434355,-0.511477 1.434355,-1.278748 0,0.767271 0.717178,1.278748 1.434355,1.278748 0.4670617,0 0.2243867,-0.216916 0.06434,-0.580156 0.4015447,0.352862 1.1283307,0.340584 1.3711577,0.06889 0.313454,-0.350724 -0.340766,-0.308927 -0.464504,-0.803009 -0.03091,-0.123416 -0.0358,-0.204702 -0.02868,-0.268777 0.06426,0.08836 0.146802,0.189342 0.252977,0.302918 0.478118,0.511446 1.195295,-2.2e-5 1.195295,-0.255847 0,-0.255622 -0.239059,-3e-6 -0.717177,-0.51145 -0.189994,-0.203247 -0.191243,-0.406499 -0.168751,-0.609773 0.168917,-0.08077 0.368572,-0.2077128 0.406846,-0.368482 l 0.05332,-0.041574 c 0.218347,-0.1703646 0.3507,-0.4669853 0.406794,-0.8195087 0.0561,-0.35252 0.03536,-0.765689 -0.06946,-1.18424 -0.190199,-0.7594089 -0.60651,-1.3737499 -1.094441,-1.5266169 l -0.01452,-0.0045 c 0.0014,-0.01735 0.0021,-0.0332 0.0021,-0.04749 0,-0.255824 -0.239059,-0.319778 -0.478119,-0.319778 -0.05078,0 -0.10158,0.0029 -0.150073,0.0074 -0.227713,-0.181224 -0.4778777,-0.332195 -0.7453737,-0.447459 -0.0043,0.07365 -0.01773,0.148889 -0.05175,0.22533 -0.179582,0.403221 -0.747591,0.671401 -1.007687,0.538945 -0.241509,-0.122944 -0.363723,-0.63046 -0.236831,-1.025378 z m -1.61618,0.467521 c 0.104264,-0.06309 0.21204,-0.120438 0.322864,-0.171732 -0.110776,0.05124 -0.218686,0.108286 -0.322864,0.171671 z m 1.433753,-0.455073 c -1.92e-4,-8.28e-4 -1.51e-4,-0.0016 -3.56e-4,-0.0025 -0.01322,9.84e-4 -0.02585,0.004 -0.03898,0.0052 0.01306,-0.0011 0.02624,-0.0017 0.03934,-0.0026 z m 1.148546,0.127501 c 0.112601,0.03441 0.222793,0.07489 0.330152,0.121156 2.7e-5,-4.05e-4 3e-5,-9.84e-4 6.2e-5,-0.0014 -0.107239,-0.04628 -0.217655,-0.08566 -0.330212,-0.119767 z m 0.4348,0.462385 v 2.41e-4 c 0.117044,0 0.01548,0.155066 0.01548,0.266724 0,0.111658 0.04112,0.493444 -0.07573,0.493444 -0.116852,0 -0.362805,-0.2845 -0.362805,-0.396158 0,-0.11186 0.3062,-0.36425 0.423052,-0.36425 z m -2.559824,0.343584 c 0.005,1.02e-4 0.0099,3.97e-4 0.0147,8.8e-4 v -3.56e-4 c 0.02218,0.0022 0.04305,0.0085 0.06217,0.01958 0.152998,0.08884 0.01107,0.415552 -0.04802,0.532056 -0.05929,0.116706 -0.192578,0.317194 -0.345576,0.228352 -0.152998,-0.08884 -0.148802,-0.392891 -0.08971,-0.509395 0.04841,-0.09559 0.239881,-0.262734 0.391424,-0.270772 v -6.2e-5 c 0.005,-3.02e-4 0.01005,-3.97e-4 0.015,-3.02e-4 z m 0.955453,0.04055 v 3.7e-4 c 0.169636,-0.0026 0.315786,0.05213 0.381001,0.201946 0.130622,0.299639 -0.20274,0.8975129 -0.520593,1.0560149 -0.317853,0.158502 -0.500293,0.0444 -0.630724,-0.2552429 -0.130622,-0.299639 -0.06903,-0.703664 0.24882,-0.862166 0.158927,-0.07935 0.351859,-0.138493 0.521496,-0.140915 z m 0.941837,0.133423 c 0.189073,0.001 0.348541,0.133936 0.454863,0.347272 0.151085,0.303678 0.197914,0.816916 -0.100432,0.9871289 -0.298537,0.170213 -0.708575,0.01331 -0.85966,-0.29017 -0.151086,-0.3034759 -0.04663,-0.8003589 0.251712,-0.9705719 0.07459,-0.0424 0.146482,-0.06585 0.215139,-0.07191 l 1.93e-4,-1.78e-4 c 0.01287,-0.0012 0.02559,-0.0016 0.0382,-0.0016 z m -3.368095,0.196808 c 0.06067,0.326272 0.176334,0.776735 0.196465,1.140131 -0.03324,0.15785 -0.06926,0.3162059 -0.108686,0.473985 -0.06188,0.246333 -0.131027,0.489707 -0.205442,0.726027 -0.111973,0.14531 -0.23965,0.291619 -0.350755,0.4203872 -0.09401,0.1089563 -0.159695,0.193534 -0.214058,0.2756663 -0.123302,-0.1367035 -0.222124,-0.3341285 -0.264783,-0.6010035 -0.02732,-0.170926 -0.03492,-0.361663 -0.02091,-0.56245 0.393363,-0.0448 0.49573,-0.5468721 0.80809,-0.4890931 0.308207,0.05698 -0.0065,-0.294363 -0.214116,-0.3034029 -0.01384,-6.001e-4 -0.02721,2.999e-4 -0.03989,0.003 -0.162149,0.03406 -0.185517,0.106104 -0.421968,0.08804 0.181113,-0.5813029 0.514094,-1.0185589 0.836045,-1.1712499 z m 5.3564187,0.0079 c 0.317111,0.160029 0.641455,0.592697 0.819235,1.163332 -0.236229,0.018 -0.25963,-0.05399 -0.421727,-0.08804 -0.01267,-0.0027 -0.02604,-0.0036 -0.03989,-0.003 -0.207583,0.009 -0.522323,0.360379 -0.214117,0.3034029 0.312355,-0.05778 0.414739,0.4442781 0.808089,0.4890931 0.0141,0.200161 0.0067,0.390331 -0.02042,0.560879 -0.04246,0.266891 -0.141313,0.4647967 -0.264419,0.6017887 -0.05467,-0.082437 -0.120373,-0.1674043 -0.21478,-0.2768149 -0.111792,-0.1295578 -0.240056,-0.2767428 -0.352263,-0.4227438 -0.07391,-0.234967 -0.142779,-0.476839 -0.204295,-0.721675 v -4.25e-4 c -0.03377,-0.135171 -0.06489,-0.270804 -0.09417,-0.406189 0.0069,-0.364272 0.13342,-0.851919 0.198754,-1.199648 z m -1.1590867,0.253549 c 0.1665097,0.0053 0.3047927,0.253159 0.3120177,0.381475 0.0075,0.1324549 -0.112098,0.4752479 -0.285751,0.4865549 -0.1736517,0.01131 -0.2147317,-0.346064 -0.2221897,-0.478519 -0.0075,-0.132253 0.0061,-0.3777799 0.179776,-0.389087 v -1.78e-4 c 0.0054,-3.969e-4 0.01077,-3.84e-4 0.01615,-1.78e-4 z m -1.696851,0.6935769 h 6.2e-5 1.24e-4 c 0.07701,0.0012 0.151311,0.02208 0.21743,0.06889 0.264687,0.187174 0.205048,0.586749 0.0532,0.832679 -0.151851,0.2459311 -0.564972,0.2776341 -0.829658,0.09046 -0.264686,-0.186972 -0.190107,-0.3929 -0.03826,-0.63883 0.113954,-0.184502 0.366319,-0.356939 0.597105,-0.353195 z m -0.788148,0.06139 h 1.79e-4 c 0.09467,0 0.111154,0.07634 0.111154,0.210406 0,0.134071 -0.09222,0.193849 -0.186885,0.193849 -0.09467,0 -0.156402,-0.05978 -0.156402,-0.193849 0,-0.13407 0.137283,-0.210406 0.231951,-0.210406 z m 1.509724,0.291196 c 0.146113,0 0.400642,0.152021 0.400642,0.339598 0,0.187577 -0.194282,0.339598 -0.340396,0.339598 -0.146113,0 -0.339852,-0.0066 -0.339852,-0.194212 0,-0.187578 0.133493,-0.484984 0.279606,-0.484984 z" />
  <path
     id="path5-7"
     class="ColorScheme-Text"
     style="baseline-shift:baseline;display:inline;overflow:visible;vector-effect:none;fill:currentColor;fill-opacity:1;stroke-width:0.196508;enable-background:accumulate;stop-color:#000000"
     d="m 8.4665713,4.6300741 1.91e-4,1.82e-4 c 0.0406,0 0.08034,0.0033 0.120253,0.006 -0.03998,-0.0028 -0.07978,-0.0062 -0.120435,-0.0062 z m -0.04019,0.0022 c -0.06166,8.29e-4 -0.121628,0.0082 -0.182427,0.01245 0.04896,0.230024 0.04427,0.470469 -0.04795,0.642879 -0.203297,0.379799 -0.767708,0.348682 -1.092637,0.149797 -0.148188,-0.09064 -0.246294,-0.205178 -0.293161,-0.337603 -0.120553,0.07295 -0.236445,0.15363 -0.34702,0.241406 -0.04264,-0.0036 -0.08677,-0.0057 -0.130917,-0.0057 -0.239059,0 -0.478118,0.06395 -0.478118,0.319776 0,0.01254 5.7e-4,0.0263 0.0017,0.04121 l -0.01283,0.0037 c -0.495206,0.141951 -0.92029,0.761813 -1.113119,1.531693 -0.104997,0.419208 -0.125504,0.833028 -0.0691,1.185872 0.0564,0.3528456 0.189152,0.6492602 0.408231,0.8190835 l 0.05404,0.041996 c 0.03907,0.1593337 0.236474,0.2853376 0.404375,0.3658832 0.0084,0.075736 0.01357,0.1514871 0.0069,0.2272027 -0.007,0.079926 -0.02713,0.1597945 -0.07043,0.2397145 v 6.2e-5 c -0.02597,0.04794 -0.06032,0.09588 -0.10513,0.143814 -0.373529,0.399569 -0.601127,0.330959 -0.682837,0.40371 -0.0065,0.0058 -0.01214,0.01254 -0.01681,0.02049 -0.0047,0.0079 -0.0084,0.0171 -0.01121,0.0278 -0.0042,0.01603 -0.0063,0.03549 -0.0063,0.05946 0,0.004 1.6e-4,0.008 5.17e-4,0.01214 9.33e-4,0.01236 0.0036,0.02523 0.0076,0.03849 0.02148,0.0707 0.08402,0.152403 0.172729,0.225089 h 5.9e-5 c 0.04435,0.03633 0.09519,0.07042 0.150738,0.09976 h 6.2e-5 c 0.05555,0.02934 0.115796,0.05395 0.178812,0.0713 0.06303,0.01736 0.128853,0.02748 0.195621,0.02786 0.06316,3.98e-4 0.127128,-0.0084 0.19038,-0.02755 0.02033,-0.0062 0.04061,-0.0131 0.06073,-0.02157 0.0331,-0.01393 0.0658,-0.03105 0.09796,-0.05172 l 6.2e-5,-6.1e-5 c 0.01606,-0.01032 0.03198,-0.02153 0.04772,-0.03366 h 5.9e-5 v -6.2e-5 c 0.0315,-0.02427 0.06232,-0.05223 0.09218,-0.08417 0.1071,-0.114568 0.190229,-0.216304 0.254724,-0.305214 0.0075,0.06443 0.0028,0.146171 -0.02844,0.271072 -0.123737,0.494083 -0.778017,0.452286 -0.464562,0.80301 0.242189,0.270986 0.965837,0.283864 1.368022,-0.06617 -0.160051,0.361562 -0.400324,0.577436 0.06555,0.577436 0.717178,0 1.434355,-0.511477 1.434355,-1.278748 0,0.767271 0.717178,1.278748 1.434355,1.278748 0.4670617,0 0.2243867,-0.216916 0.06434,-0.580156 0.4015447,0.352862 1.1283307,0.340584 1.3711577,0.06889 0.313454,-0.350724 -0.340766,-0.308927 -0.464504,-0.803009 -0.03091,-0.123416 -0.0358,-0.204702 -0.02868,-0.268777 0.06426,0.08836 0.146802,0.189342 0.252977,0.302918 0.478118,0.511446 1.195295,-2.2e-5 1.195295,-0.255847 0,-0.255622 -0.239059,-3e-6 -0.717177,-0.51145 C 11.384279,10.052272 11.38303,9.8490196 11.405522,9.6457456 11.574439,9.5649716 11.774094,9.438033 11.812368,9.2772638 l 0.05332,-0.041574 c 0.218347,-0.1703646 0.3507,-0.4669853 0.406794,-0.8195087 0.0561,-0.35252 0.03536,-0.765689 -0.06946,-1.18424 -0.190199,-0.759409 -0.60651,-1.37375 -1.094441,-1.526617 l -0.01452,-0.0045 c 0.0014,-0.01735 0.0021,-0.0332 0.0021,-0.04749 0,-0.255824 -0.239059,-0.319778 -0.478119,-0.319778 -0.05078,0 -0.10158,0.0029 -0.150073,0.0074 -0.227713,-0.181224 -0.4778777,-0.332195 -0.7453737,-0.447459 -0.0043,0.07365 -0.01773,0.1488891 -0.05175,0.22533 -0.179582,0.403221 -0.747591,0.671401 -1.007687,0.538945 -0.241509,-0.122944 -0.363723,-0.63046 -0.236831,-1.025378 z m -1.61618,0.467521 c 0.104264,-0.06309 0.21204,-0.120438 0.322864,-0.171732 -0.110776,0.05124 -0.218686,0.108286 -0.322864,0.171671 z m 1.433753,-0.455073 c -1.92e-4,-8.28e-4 -1.51e-4,-0.0016 -3.56e-4,-0.0025 -0.01322,9.84e-4 -0.02585,0.004 -0.03898,0.0052 0.01306,-0.0011 0.02624,-0.0017 0.03934,-0.0026 z m 1.148546,0.127501 c 0.112601,0.03441 0.222793,0.07489 0.330152,0.121156 2.7e-5,-4.05e-4 3e-5,-9.839e-4 6.2e-5,-0.0014 -0.107239,-0.04628 -0.217655,-0.08566 -0.330212,-0.119767 z m 0.4348,0.462385 v 2.41e-4 c 0.117044,0 0.01548,0.155066 0.01548,0.266724 0,0.111658 0.04112,0.493444 -0.07573,0.493444 -0.116852,0 -0.362805,-0.2845 -0.362805,-0.396158 0,-0.11186 0.3062,-0.36425 0.423052,-0.36425 z m -2.559824,0.343584 c 0.005,1.02e-4 0.0099,3.97e-4 0.0147,8.8e-4 v -3.56e-4 c 0.02218,0.0022 0.04305,0.0085 0.06217,0.01958 0.152998,0.08884 0.01107,0.415552 -0.04802,0.532056 -0.05929,0.116706 -0.192578,0.317194 -0.345576,0.228352 -0.152998,-0.08884 -0.148802,-0.392891 -0.08971,-0.509395 0.04841,-0.09559 0.239881,-0.262734 0.391424,-0.270772 v -6.2e-5 c 0.005,-3.02e-4 0.01005,-3.97e-4 0.015,-3.02e-4 z m 0.955453,0.04055 v 3.7e-4 c 0.169636,-0.0026 0.315786,0.05213 0.381001,0.201946 0.130622,0.299639 -0.20274,0.897513 -0.520593,1.056015 -0.317853,0.158502 -0.500293,0.0444 -0.630724,-0.255243 -0.130622,-0.299639 -0.06903,-0.703664 0.24882,-0.862166 0.158927,-0.07935 0.351859,-0.138493 0.521496,-0.140915 z m 0.941837,0.133423 c 0.189073,0.001 0.348541,0.133936 0.454863,0.347272 0.151085,0.303678 0.197914,0.816916 -0.100432,0.987129 -0.298537,0.170213 -0.708575,0.01331 -0.85966,-0.29017 -0.151086,-0.303476 -0.04663,-0.800359 0.251712,-0.970572 0.07459,-0.0424 0.146482,-0.06585 0.215139,-0.07191 l 1.93e-4,-1.78e-4 c 0.01287,-0.0012 0.02559,-0.0016 0.0382,-0.0016 z m -3.368095,0.1968081 c 0.06067,0.3262719 0.176334,0.7767349 0.196465,1.1401309 -0.03324,0.15785 -0.06926,0.316206 -0.108686,0.473985 -0.06188,0.246333 -0.131027,0.489707 -0.205442,0.7260271 -0.111973,0.14531 -0.23965,0.2916189 -0.350755,0.4203871 -0.09401,0.1089564 -0.159695,0.1935341 -0.214058,0.2756664 -0.123302,-0.1367036 -0.222124,-0.3341286 -0.264783,-0.6010036 -0.02732,-0.170926 -0.03492,-0.361663 -0.02091,-0.56245 0.393363,-0.0448 0.49573,-0.546872 0.80809,-0.489093 0.308207,0.05698 -0.0065,-0.294363 -0.214116,-0.303403 -0.01384,-6e-4 -0.02721,3e-4 -0.03989,0.003 -0.162149,0.03406 -0.185517,0.106104 -0.421968,0.08804 0.181113,-0.581303 0.514094,-1.018559 0.836045,-1.17125 z m 5.3564187,0.0079 c 0.317111,0.160029 0.641455,0.592697 0.819235,1.163332 -0.236229,0.018 -0.25963,-0.05399 -0.421727,-0.08804 -0.01267,-0.0027 -0.02604,-0.0036 -0.03989,-0.003 -0.207583,0.009 -0.522323,0.360379 -0.214117,0.303403 0.312355,-0.05778 0.414739,0.444278 0.808089,0.489093 0.0141,0.2001611 0.0067,0.3903311 -0.02042,0.5608791 C 12.0418,8.6494311 11.942947,8.8473368 11.819841,8.9843288 11.765171,8.9018918 11.699468,8.8169246 11.605061,8.7075139 11.493269,8.5779561 11.365005,8.4307711 11.252798,8.2847701 11.178888,8.0498031 11.110019,7.8079311 11.048503,7.5630951 v -4.25e-4 c -0.03377,-0.135171 -0.06489,-0.270804 -0.09417,-0.406189 0.0069,-0.364272 0.13342,-0.851919 0.198754,-1.199648 z M 9.9940033,6.2104222 c 0.1665097,0.0053 0.3047927,0.2531589 0.3120177,0.381475 0.0075,0.1324549 -0.112098,0.4752479 -0.285751,0.4865549 -0.1736517,0.01131 -0.2147317,-0.346064 -0.2221897,-0.478519 -0.0075,-0.132253 0.0061,-0.3777799 0.179776,-0.389087 v -1.78e-4 c 0.0054,-3.969e-4 0.01077,-3.84e-4 0.01615,-1.78e-4 z m -1.696851,0.6935769 h 6.2e-5 1.24e-4 c 0.07701,0.0012 0.151311,0.02208 0.21743,0.06889 0.264687,0.1871739 0.205048,0.5867489 0.0532,0.8326789 -0.151851,0.2459311 -0.564972,0.2776341 -0.829658,0.09046 -0.264686,-0.186972 -0.190107,-0.3929 -0.03826,-0.63883 0.113954,-0.184502 0.366319,-0.356939 0.597105,-0.353195 z m -0.788148,0.06139 h 1.79e-4 c 0.09467,0 0.111154,0.07634 0.111154,0.210406 0,0.134071 -0.09222,0.193849 -0.186885,0.193849 -0.09467,0 -0.156402,-0.05978 -0.156402,-0.193849 0,-0.13407 0.137283,-0.210406 0.231951,-0.210406 z m 1.509724,0.291196 c 0.146113,0 0.400642,0.152021 0.400642,0.339598 0,0.187577 -0.194282,0.339598 -0.340396,0.339598 -0.146113,0 -0.339852,-0.0066 -0.339852,-0.194212 0,-0.187578 0.133493,-0.484984 0.279606,-0.484984 z" />
  <path
     id="gradient-path1"
     style="opacity:0.3;baseline-shift:baseline;display:inline;overflow:visible;vector-effect:none;enable-background:accumulate;stop-color:#000000;stop-opacity:1;fill:url(#linearGradient4)"
     d="M 8.4453131 1.2753492 C 4.4913166 1.2753492 1.2794833 4.4784283 1.2794833 8.4236094 C 1.2794833 12.36879 4.4913166 15.572386 8.4453131 15.572386 C 12.39931 15.572386 15.611143 12.36879 15.611143 8.4236094 C 15.611143 4.4784283 12.39931 1.2753492 8.4453131 1.2753492 z " />
</svg>
