<?xml version='1.0' encoding='UTF-8'?>
<svg xmlns:inkscape="http://www.inkscape.org/namespaces/inkscape" xmlns:sodipodi="http://sodipodi.sourceforge.net/DTD/sodipodi-0.dtd" xmlns:xlink="http://www.w3.org/1999/xlink" xmlns="http://www.w3.org/2000/svg" xmlns:svg="http://www.w3.org/2000/svg" xmlns:rdf="http://www.w3.org/1999/02/22-rdf-syntax-ns#" xmlns:cc="http://creativecommons.org/ns#" xmlns:dc="http://purl.org/dc/elements/1.1/" width="64" height="64" version="1.1" viewBox="0 0 16.933 16.933" id="svg7" sodipodi:docname="org.kde.kwalletmanager5.svg" inkscape:version="1.4 (e7c3feb100, 2024-10-09)">
  <sodipodi:namedview id="namedview7" pagecolor="#9c4444" bordercolor="#000000" borderopacity="0.25" inkscape:showpageshadow="2" inkscape:pageopacity="0.0" inkscape:pagecheckerboard="0" inkscape:deskcolor="#d1d1d1" inkscape:zoom="4.3531261" inkscape:cx="57.889433" inkscape:cy="33.768836" inkscape:window-width="1280" inkscape:window-height="669" inkscape:window-x="180" inkscape:window-y="166" inkscape:window-maximized="0" inkscape:current-layer="svg7" showgrid="false"/>
  <defs id="defs2">
    <filter style="color-interpolation-filters:sRGB;" inkscape:label="Blur" id="filter3" x="-0.10843471" y="-0.10870992" width="1.2168694" height="1.2174198">
      <feGaussianBlur stdDeviation="0.5 0.5" result="blur" id="feGaussianBlur3"/>
    </filter>
    <style id="current-color-scheme" type="text/css">.ColorScheme-Text {color:#d8dee9} .ColorScheme-Highlight {color:#3b4252}</style><linearGradient id="linearGradient3" inkscape:collect="always">
      <stop style="stop-color:#000000;stop-opacity:1;" offset="0" id="stop3"/>
      <stop style="stop-color:#000000;stop-opacity:0;" offset="1" id="stop4"/>
    </linearGradient>
    <linearGradient inkscape:collect="always" xlink:href="#linearGradient3" id="linearGradient4" x1="13.512321" y1="13.490874" x2="3.3783066" y2="3.3568602" gradientUnits="userSpaceOnUse"/>
  </defs>
  <metadata id="metadata2">
    <rdf:RDF>
      <cc:Work rdf:about="">
        <dc:format>image/svg+xml</dc:format>
        <dc:type rdf:resource="http://purl.org/dc/dcmitype/StillImage"/>
      </cc:Work>
    </rdf:RDF>
  </metadata>
  <ellipse style="opacity:1;fill:none;stroke:#000000;stroke-width:0.582072;stroke-dasharray:none;stroke-opacity:1;filter:url(#filter3)" id="path1-5" cx="8.4450111" cy="8.423522" rx="6.8752708" ry="6.8578653"/>
  <ellipse style="opacity:1;fill:none;stroke-width:0.58207188;stroke-opacity:1;stroke:currentColor;stroke-dasharray:none;fill-opacity:1" id="path1" cx="8.4450111" cy="8.423522" rx="6.8752708" ry="6.8578653" class="ColorScheme-Text"/>
  <ellipse style="fill:currentColor;stroke:none;stroke-width:0.285844;stroke-dasharray:none;stroke-opacity:1" id="path1-2" cx="8.4557552" cy="8.423522" rx="6.5738997" ry="6.5692253" class="ColorScheme-Highlight"/>
<path id="path19-5" style="fill:#000000;fill-opacity:1;stroke:none;stroke-width:0.268554;stroke-dasharray:none;stroke-dashoffset:2.2;stroke-opacity:0.3;opacity:0.3" d="m 7.5062621,5.5771534 c -0.2082102,0.00255 -0.4191072,0.049328 -0.6205018,0.1458151 -0.9565164,0.4582531 -1.1694087,1.688034 -0.4196124,2.4253592 0.2264652,0.2226979 0.4629254,0.353109 0.7542529,0.416465 0.2391736,0.052015 0.333481,0.054402 0.5612318,0.01311 C 8.3359617,8.4774107 8.8220706,8.0414794 8.9801497,7.502647 9.0547015,7.248535 9.0440485,6.8524604 8.9560257,6.6031032 8.7291348,5.9603715 8.1308934,5.5695287 7.5062657,5.5771518 Z m 2.5507189,0.9929073 c -0.1142668,0.00175 -0.2293641,0.018695 -0.3430346,0.052452 l -0.1594516,0.047208 0.018877,0.270126 c 0.035376,0.4982969 -0.1505489,1.0902625 -0.4489834,1.4293019 -0.069352,0.078788 -0.1264085,0.155525 -0.1264085,0.1704675 0,0.03569 0.3011645,0.3244442 0.4054501,0.3886662 0.044783,0.027579 0.1628361,0.078655 0.2622591,0.1138199 0.279204,0.098753 0.6672609,0.076909 0.9446519,-0.052975 0.276797,-0.1296081 0.521005,-0.3640473 0.647774,-0.6215514 0.09331,-0.189534 0.09966,-0.2234676 0.09966,-0.5276621 0,-0.3034551 -0.0066,-0.3385418 -0.09861,-0.5250398 -0.23222,-0.470913 -0.707032,-0.7523486 -1.202187,-0.7448124 z M 9.8513693,9.6599808 10.00243,9.7596384 c 0.348882,0.2310881 0.66363,0.5878966 0.857059,0.9703496 0.104415,0.206455 0.236033,0.660986 0.236033,0.815098 v 0.11959 h 0.758974 0.758972 L 12.602988,11.30066 C 12.592508,10.9525 12.586548,10.926277 12.476052,10.702714 12.147265,10.037572 11.307606,9.6599808 10.15821,9.6599808 Z m -2.2763956,0.00578 c -0.074118,6.95e-5 -0.1497228,0.00142 -0.2271155,0.00367 -0.647459,0.018999 -0.9585756,0.070947 -1.401505,0.2339235 C 4.9833059,10.257709 4.465093,10.978708 4.4640723,11.965747 v 0.223444 h 3.0537288 3.0537299 v -0.317332 c 0,-0.593952 -0.168115,-1.000408 -0.5827386,-1.410942 C 9.4356187,9.9131941 8.6867331,9.6646872 7.5749737,9.6657509 Z"/>
  <path id="path19" style="opacity:1;fill:currentColor;fill-opacity:1;stroke:none;stroke-width:0.268554;stroke-dasharray:none;stroke-dashoffset:2.2;stroke-opacity:0.3" d="m 7.5062621,5.0479972 c -0.2082102,0.00255 -0.4191072,0.049328 -0.6205018,0.1458151 -0.9565164,0.4582531 -1.1694087,1.688034 -0.4196124,2.4253592 0.2264652,0.2226979 0.4629254,0.353109 0.7542529,0.416465 0.2391736,0.052015 0.333481,0.054402 0.5612318,0.01311 C 8.3359617,7.9482545 8.8220706,7.5123232 8.9801497,6.9734908 9.0547015,6.7193788 9.0440485,6.3233042 8.9560257,6.073947 8.7291348,5.4312153 8.1308934,5.0403725 7.5062657,5.0479956 Z m 2.5507189,0.9929073 c -0.1142668,0.00175 -0.2293641,0.018695 -0.3430346,0.052452 l -0.1594516,0.047208 0.018877,0.270126 c 0.035376,0.4982969 -0.1505489,1.0902624 -0.4489834,1.4293019 -0.069352,0.078788 -0.1264085,0.155525 -0.1264085,0.1704675 0,0.03569 0.3011645,0.3244442 0.4054501,0.3886662 0.044783,0.027579 0.1628361,0.078655 0.2622591,0.1138199 0.279204,0.098753 0.6672609,0.076909 0.9446519,-0.052975 0.276797,-0.1296081 0.521005,-0.3640473 0.647774,-0.6215514 0.09331,-0.189534 0.09966,-0.2234676 0.09966,-0.5276621 0,-0.3034551 -0.0066,-0.3385418 -0.09861,-0.5250398 -0.23222,-0.470913 -0.707032,-0.7523486 -1.202187,-0.7448124 z M 9.8513693,9.1308246 10.00243,9.2304822 c 0.348882,0.2310881 0.66363,0.5878962 0.857059,0.9703498 0.104415,0.206455 0.236033,0.660986 0.236033,0.815098 v 0.11959 h 0.758974 0.758972 l -0.01048,-0.364016 c -0.01048,-0.34816 -0.01644,-0.374383 -0.126936,-0.597946 C 12.147265,9.5084159 11.307606,9.1308246 10.15821,9.1308246 Z m -2.2763956,0.00578 c -0.074118,6.95e-5 -0.1497228,0.00142 -0.2271155,0.00367 -0.647459,0.018999 -0.9585756,0.070947 -1.401505,0.2339235 C 4.9833059,9.728553 4.465093,10.449552 4.4640723,11.436591 v 0.223444 h 3.0537288 3.0537299 v -0.317332 c 0,-0.593952 -0.168115,-1.000408 -0.5827386,-1.4109424 C 9.4356187,9.3840379 8.6867331,9.135531 7.5749737,9.1365947 Z" class="ColorScheme-Text"/>
<path id="gradient-path1" style="opacity:0.3;baseline-shift:baseline;display:inline;overflow:visible;vector-effect:none;enable-background:accumulate;stop-color:#000000;stop-opacity:1;fill:url(#linearGradient4)" d="M 8.4453131 1.2753492 C 4.4913166 1.2753492 1.2794833 4.4784283 1.2794833 8.4236094 C 1.2794833 12.36879 4.4913166 15.572386 8.4453131 15.572386 C 12.39931 15.572386 15.611143 12.36879 15.611143 8.4236094 C 15.611143 4.4784283 12.39931 1.2753492 8.4453131 1.2753492 z "/>
</svg>
