<?xml version='1.0' encoding='UTF-8'?>
<svg xmlns:inkscape="http://www.inkscape.org/namespaces/inkscape" xmlns:sodipodi="http://sodipodi.sourceforge.net/DTD/sodipodi-0.dtd" xmlns:xlink="http://www.w3.org/1999/xlink" xmlns="http://www.w3.org/2000/svg" xmlns:svg="http://www.w3.org/2000/svg" xmlns:rdf="http://www.w3.org/1999/02/22-rdf-syntax-ns#" xmlns:cc="http://creativecommons.org/ns#" xmlns:dc="http://purl.org/dc/elements/1.1/" width="64" height="64" version="1.1" viewBox="0 0 16.933 16.933" id="svg7" sodipodi:docname="com.google.Chrome.svg" inkscape:version="1.4 (e7c3feb100, 2024-10-09)">
  <sodipodi:namedview id="namedview7" pagecolor="#9c4444" bordercolor="#000000" borderopacity="0.25" inkscape:showpageshadow="2" inkscape:pageopacity="0.0" inkscape:pagecheckerboard="0" inkscape:deskcolor="#d1d1d1" inkscape:zoom="4.3531261" inkscape:cx="36.984915" inkscape:cy="25.958357" inkscape:window-width="1280" inkscape:window-height="669" inkscape:window-x="180" inkscape:window-y="166" inkscape:window-maximized="0" inkscape:current-layer="svg7" showgrid="false"/>
  <defs id="defs2">
    <filter style="color-interpolation-filters:sRGB;" inkscape:label="Blur" id="filter3" x="-0.10843471" y="-0.10870992" width="1.2168694" height="1.2174198">
      <feGaussianBlur stdDeviation="0.5 0.5" result="blur" id="feGaussianBlur3"/>
    </filter>
    <filter style="color-interpolation-filters:sRGB" inkscape:label="Blur" id="filter3-8" x="-0.10843471" y="-0.10870992" width="1.2168694" height="1.2174198">
      <feGaussianBlur stdDeviation="0.5 0.5" result="blur" id="feGaussianBlur3-7"/>
    </filter>
    <style id="current-color-scheme" type="text/css">.ColorScheme-Text {color:#d8dee9} .ColorScheme-Highlight {color:#3b4252}</style><linearGradient id="linearGradient3" inkscape:collect="always">
      <stop style="stop-color:#000000;stop-opacity:1;" offset="0" id="stop3"/>
      <stop style="stop-color:#000000;stop-opacity:0;" offset="1" id="stop4"/>
    </linearGradient>
    <linearGradient inkscape:collect="always" xlink:href="#linearGradient3" id="linearGradient4" x1="13.512321" y1="13.490874" x2="3.3783066" y2="3.3568602" gradientUnits="userSpaceOnUse"/>
  </defs>
  <metadata id="metadata2">
    <rdf:RDF>
      <cc:Work rdf:about="">
        <dc:format>image/svg+xml</dc:format>
        <dc:type rdf:resource="http://purl.org/dc/dcmitype/StillImage"/>
      </cc:Work>
    </rdf:RDF>
  </metadata>
  <ellipse style="opacity:1;fill:none;stroke:#000000;stroke-width:0.582072;stroke-dasharray:none;stroke-opacity:1;filter:url(#filter3)" id="path1-5" cx="8.4450111" cy="8.423522" rx="6.8752708" ry="6.8578653"/>
  <ellipse style="opacity:1;fill:none;stroke-width:0.58207188;stroke-opacity:1;stroke:currentColor;stroke-dasharray:none;fill-opacity:1" id="path1" cx="8.4450111" cy="8.423522" rx="6.8752708" ry="6.8578653" class="ColorScheme-Text"/>
  <ellipse style="fill:currentColor;stroke:none;stroke-width:0.285844;stroke-dasharray:none;stroke-opacity:1" id="path1-2" cx="8.4557552" cy="8.423522" rx="6.5738997" ry="6.5692253" class="ColorScheme-Highlight"/>
<path style="fill:#000000;fill-opacity:1;stroke:none;stroke-width:0.241697;stroke-dasharray:none;stroke-opacity:0.3;opacity:0.3" d="M 8.3425279,5.3605002 A 3.304806,3.3041764 0 0 0 5.0819828,8.6646759 3.304806,3.3041764 0 0 0 6.9842748,11.65632 c -0.50604,0.168976 -0.9580611,0.362698 -0.9580611,0.522731 v 0.366926 c 0,0.203391 0.1757766,0.366927 0.393736,0.366927 h 3.9336793 c 0.217959,0 0.393735,-0.163536 0.393735,-0.366927 v -0.366926 c 0,-0.160033 -0.452022,-0.353755 -0.9580613,-0.522731 A 3.304806,3.3041764 0 0 0 11.691594,8.6646759 3.304806,3.3041764 0 0 0 8.3867886,5.3605002 a 3.304806,3.3041764 0 0 0 -0.044261,0 z m 0.015672,1.4160752 a 1.8884605,1.8881007 0 0 1 0.028588,0 A 1.8884605,1.8881007 0 0 1 10.275242,8.6646759 1.8884605,1.8881007 0 0 1 8.3867849,10.552779 1.8884605,1.8881007 0 0 1 6.4983241,8.6646759 1.8884605,1.8881007 0 0 1 8.3581999,6.7765754 Z m 0.00554,0.9440501 A 0.94423023,0.94405032 0 0 0 7.4425531,8.6646759 0.94423023,0.94405032 0 0 0 8.3867827,9.608727 0.94423023,0.94405032 0 0 0 9.3310132,8.6646759 0.94423023,0.94405032 0 0 0 8.3867827,7.7206255 a 0.94423023,0.94405032 0 0 0 -0.023055,0 z" id="path2-7"/>
  <path style="fill:currentColor;fill-opacity:1;stroke:none;stroke-width:0.241697;stroke-dasharray:none;stroke-opacity:0.3" d="m 8.3425279,4.831344 a 3.304806,3.3041764 0 0 0 -3.2605451,3.3041757 3.304806,3.3041764 0 0 0 1.902292,2.9916443 c -0.50604,0.168976 -0.9580611,0.362698 -0.9580611,0.522731 v 0.366926 c 0,0.203391 0.1757766,0.366927 0.393736,0.366927 h 3.9336793 c 0.217959,0 0.393735,-0.163536 0.393735,-0.366927 v -0.366926 c 0,-0.160033 -0.452022,-0.353755 -0.9580613,-0.522731 A 3.304806,3.3041764 0 0 0 11.691594,8.1355197 3.304806,3.3041764 0 0 0 8.3867886,4.831344 a 3.304806,3.3041764 0 0 0 -0.044261,0 z m 0.015672,1.4160752 a 1.8884605,1.8881007 0 0 1 0.028588,0 A 1.8884605,1.8881007 0 0 1 10.275242,8.1355197 1.8884605,1.8881007 0 0 1 8.3867849,10.023623 1.8884605,1.8881007 0 0 1 6.4983241,8.1355197 1.8884605,1.8881007 0 0 1 8.3581999,6.2474192 Z m 0.00554,0.9440501 A 0.94423023,0.94405032 0 0 0 7.4425531,8.1355197 0.94423023,0.94405032 0 0 0 8.3867827,9.0795708 0.94423023,0.94405032 0 0 0 9.3310132,8.1355197 0.94423023,0.94405032 0 0 0 8.3867827,7.1914693 a 0.94423023,0.94405032 0 0 0 -0.023055,0 z" id="path2" class="ColorScheme-Text"/>
<path id="gradient-path1" style="opacity:0.3;baseline-shift:baseline;display:inline;overflow:visible;vector-effect:none;enable-background:accumulate;stop-color:#000000;stop-opacity:1;fill:url(#linearGradient4)" d="M 8.4453131 1.2753492 C 4.4913166 1.2753492 1.2794833 4.4784283 1.2794833 8.4236094 C 1.2794833 12.36879 4.4913166 15.572386 8.4453131 15.572386 C 12.39931 15.572386 15.611143 12.36879 15.611143 8.4236094 C 15.611143 4.4784283 12.39931 1.2753492 8.4453131 1.2753492 z "/>
</svg>
