<?xml version='1.0' encoding='UTF-8'?>
<svg xmlns:inkscape="http://www.inkscape.org/namespaces/inkscape" xmlns:sodipodi="http://sodipodi.sourceforge.net/DTD/sodipodi-0.dtd" xmlns="http://www.w3.org/2000/svg" xmlns:svg="http://www.w3.org/2000/svg" xmlns:rdf="http://www.w3.org/1999/02/22-rdf-syntax-ns#" xmlns:cc="http://creativecommons.org/ns#" xmlns:dc="http://purl.org/dc/elements/1.1/" width="64" height="64" version="1.1" viewBox="0 0 16.933 16.933" id="svg7" sodipodi:docname="osmo.svg" inkscape:version="1.4.2 (ebf0e940d0, 2025-05-08)">
  <sodipodi:namedview id="namedview7" pagecolor="#9c4444" bordercolor="#000000" borderopacity="0.25" inkscape:showpageshadow="2" inkscape:pageopacity="0.0" inkscape:pagecheckerboard="0" inkscape:deskcolor="#d1d1d1" inkscape:zoom="4.3531261" inkscape:cx="36.755195" inkscape:cy="26.073217" inkscape:window-width="1280" inkscape:window-height="669" inkscape:window-x="0" inkscape:window-y="0" inkscape:window-maximized="0" inkscape:current-layer="svg7" showgrid="false"/>
  <defs id="defs2">
    <filter style="color-interpolation-filters:sRGB;" inkscape:label="Blur" id="filter3" x="-0.10843471" y="-0.10870992" width="1.2168694" height="1.2174198">
      <feGaussianBlur stdDeviation="0.5 0.5" result="blur" id="feGaussianBlur3"/>
    </filter>
    <style id="current-color-scheme" type="text/css">.ColorScheme-Text {color:#d8dee9} .ColorScheme-Highlight {color:#3b4252}</style>
  <linearGradient id="linearGradient3" inkscape:collect="always">
      <stop style="stop-color:#000000;stop-opacity:1;" offset="0" id="stop3"/>
      <stop style="stop-color:#000000;stop-opacity:0;" offset="1" id="stop4"/>
    </linearGradient>
    <linearGradient xmlns:xlink="http://www.w3.org/1999/xlink" inkscape:collect="always" xlink:href="#linearGradient3" id="linearGradient4" x1="13.512321" y1="13.490874" x2="3.3783066" y2="3.3568602" gradientUnits="userSpaceOnUse"/>
  </defs>
  <metadata id="metadata2">
    <rdf:RDF>
      <cc:Work rdf:about="">
        <dc:format>image/svg+xml</dc:format>
        <dc:type rdf:resource="http://purl.org/dc/dcmitype/StillImage"/>
      </cc:Work>
    </rdf:RDF>
  </metadata>
  <ellipse style="opacity:1;fill:none;stroke:#000000;stroke-width:0.582072;stroke-dasharray:none;stroke-opacity:1;filter:url(#filter3)" id="path1-5" cx="8.4450111" cy="8.423522" rx="6.8752708" ry="6.8578653"/>
  <ellipse style="opacity:1;fill:none;stroke-width:0.58207188;stroke-opacity:1;stroke:currentColor;stroke-dasharray:none;fill-opacity:1" id="path1" cx="8.4450111" cy="8.423522" rx="6.8752708" ry="6.8578653" class="ColorScheme-Text"/>
  <ellipse style="fill:currentColor;stroke:none;stroke-width:0.285844;stroke-dasharray:none;stroke-opacity:1" id="path1-2" cx="8.4557552" cy="8.423522" rx="6.5738997" ry="6.5692253" class="ColorScheme-Highlight"/>
<path d="M 7.419891,5.0767251 6.897366,5.2073562 v 0.3918931 h 0.522525 z m 0,0.5225241 V 6.1217733 H 6.897366 V 5.5992492 C 6.240032,5.6070892 5.758786,5.5835722 5.365326,5.800421 5.168858,5.9085836 5.012622,6.0930345 4.926405,6.3219 4.840715,6.5507656 4.810409,6.8235232 4.810409,7.1668215 v 4.1801925 c 0,0.343821 0.03031,0.616056 0.116515,0.844921 0.08569,0.229389 0.24193,0.412272 0.43892,0.520434 0.392938,0.21737 0.874184,0.194379 1.531518,0.202217 H 8.467025 V 12.392062 H 6.897362 C 6.238982,12.38423 5.806855,12.360711 5.615611,12.25516 5.519982,12.202907 5.464085,12.144385 5.413394,12.008529 5.362182,11.872673 5.329781,11.656348 5.329781,11.347013 V 8.7343939 c 0,-0.3093343 0.03292,-0.5256593 0.08361,-0.6615156 C 5.464601,7.9370221 5.519982,7.8790219 5.615608,7.826247 5.807374,7.7201745 6.240025,7.6971835 6.900496,7.6893456 h 3.13201 c 0.65838,0.00784 1.090507,0.031351 1.281751,0.1369014 0.09615,0.052252 0.151526,0.110775 0.202217,0.2466313 0.05121,0.1358563 0.08359,0.6615156 0.08359,0.6615156 v 1.0450482 h 0.0031 v 1.5675719 c 0,0.309335 -0.0324,0.525659 -0.08361,0.661516 -0.05121,0.135855 -0.106591,0.193856 -0.202217,0.246631 -0.191244,0.10555 -0.623371,0.129063 -1.281751,0.136902 H 8.468065 v 0.522524 h 1.567573 c 0.657334,-0.0078 1.13858,0.01514 1.531518,-0.202217 0.19699,-0.108163 0.353225,-0.291046 0.43892,-0.520434 0.08622,-0.228865 0.116515,-0.501623 0.116515,-0.844921 V 7.1668215 c 0,-0.3438209 -0.03135,-0.6160559 -0.11757,-0.8449215 A 0.98234529,0.98234529 0 0 0 11.567687,5.800421 C 11.174227,5.5830509 10.692981,5.6070871 10.035647,5.5992492 V 6.1217733 H 9.513122 V 5.5992492 h 0.519389 V 5.0767251 L 9.509988,5.2073562 v 0.3918931 z" id="path24" style="opacity:0.3;fill:#000000;fill-opacity:1;stroke-width:0.489866"/>
  <path fill="currentColor" class="ColorScheme-Text" d="M 7.4198895,4.5475688 6.8973645,4.6781999 V 5.070093 h 0.522525 z m 0,0.5225241 V 5.592617 H 6.8973645 V 5.0700929 c -0.657334,0.00784 -1.13858,-0.015677 -1.53204,0.2011718 -0.196468,0.1081626 -0.352704,0.2926135 -0.438921,0.521479 -0.08569,0.2288656 -0.115996,0.5016232 -0.115996,0.8449215 v 4.1801928 c 0,0.343821 0.03031,0.616056 0.116515,0.844921 0.08569,0.229389 0.24193,0.412272 0.43892,0.520434 0.392938,0.21737 0.874184,0.194379 1.531518,0.202217 h 1.569663 v -0.522524 h -1.569663 c -0.65838,-0.0078 -1.090507,-0.03135 -1.281751,-0.136902 -0.09563,-0.05225 -0.151526,-0.110775 -0.202217,-0.246631 -0.05121,-0.135856 -0.08361,-0.352181 -0.08361,-0.661516 V 8.2052376 c 0,-0.3093343 0.03292,-0.5256593 0.08361,-0.6615156 0.05121,-0.1358562 0.106591,-0.1938564 0.202217,-0.2466313 0.191766,-0.1060725 0.624417,-0.1290635 1.284888,-0.1369014 h 3.1320095 c 0.65838,0.00784 1.090507,0.031351 1.281751,0.1369014 0.09615,0.052252 0.151526,0.110775 0.202217,0.2466313 0.05121,0.1358563 0.08359,0.6615156 0.08359,0.6615156 v 1.0450486 h 0.0031 v 1.5675718 c 0,0.309334 -0.0324,0.525659 -0.08361,0.661516 -0.05121,0.135855 -0.106591,0.193856 -0.202217,0.246631 -0.191244,0.10555 -0.623371,0.129062 -1.281751,0.136902 H 8.4680665 v 0.522524 h 1.5675725 c 0.657334,-0.0078 1.13858,0.01515 1.531518,-0.202217 0.19699,-0.108163 0.353225,-0.291046 0.43892,-0.520434 0.08622,-0.228865 0.116515,-0.501623 0.116515,-0.844921 V 6.6376652 c 0,-0.3438209 -0.03135,-0.6160559 -0.11757,-0.8449215 A 0.98234529,0.98234529 0 0 0 11.567685,5.2712647 C 11.174225,5.0538946 10.692979,5.0779308 10.035645,5.0700929 V 5.592617 H 9.5131205 V 5.0700929 H 10.032509 V 4.5475688 L 9.5099865,4.6781999 V 5.070093 Z" id="path24-6" style="stroke-width:0.489866"/>
<path id="gradient-path1" style="opacity:0.3;baseline-shift:baseline;display:inline;overflow:visible;vector-effect:none;enable-background:accumulate;stop-color:#000000;stop-opacity:1;fill:url(#linearGradient4)" d="M 8.4453131 1.2753492 C 4.4913166 1.2753492 1.2794833 4.4784283 1.2794833 8.4236094 C 1.2794833 12.36879 4.4913166 15.572386 8.4453131 15.572386 C 12.39931 15.572386 15.611143 12.36879 15.611143 8.4236094 C 15.611143 4.4784283 12.39931 1.2753492 8.4453131 1.2753492 z "/>
</svg>
