<?xml version="1.0" encoding="UTF-8" standalone="no"?>
<svg
   width="64"
   height="64"
   version="1.1"
   viewBox="0 0 16.933 16.933"
   id="svg7"
   sodipodi:docname="pacseek.svg"
   inkscape:version="1.4.2 (ebf0e940d0, 2025-05-08)"
   xmlns:inkscape="http://www.inkscape.org/namespaces/inkscape"
   xmlns:sodipodi="http://sodipodi.sourceforge.net/DTD/sodipodi-0.dtd"
   xmlns:xlink="http://www.w3.org/1999/xlink"
   xmlns="http://www.w3.org/2000/svg"
   xmlns:svg="http://www.w3.org/2000/svg"
   xmlns:rdf="http://www.w3.org/1999/02/22-rdf-syntax-ns#"
   xmlns:cc="http://creativecommons.org/ns#"
   xmlns:dc="http://purl.org/dc/elements/1.1/">
  <sodipodi:namedview
     id="namedview7"
     pagecolor="#9c4444"
     bordercolor="#000000"
     borderopacity="0.25"
     inkscape:showpageshadow="2"
     inkscape:pageopacity="0.0"
     inkscape:pagecheckerboard="0"
     inkscape:deskcolor="#d1d1d1"
     inkscape:zoom="8.7062522"
     inkscape:cx="71.270621"
     inkscape:cy="15.276378"
     inkscape:window-width="2560"
     inkscape:window-height="1392"
     inkscape:window-x="0"
     inkscape:window-y="0"
     inkscape:window-maximized="1"
     inkscape:current-layer="svg7"
     showgrid="false" />
  <defs
     id="defs2">
    <filter
       style="color-interpolation-filters:sRGB;"
       inkscape:label="Blur"
       id="filter3"
       x="-0.10843471"
       y="-0.10870992"
       width="1.2168694"
       height="1.2174198">
      <feGaussianBlur
         stdDeviation="0.5 0.5"
         result="blur"
         id="feGaussianBlur3" />
    </filter>
    <style
       id="current-color-scheme"
       type="text/css">.ColorScheme-Text {color:#d8dee9} .ColorScheme-Highlight {color:#3b4252}</style>
    <linearGradient
       id="linearGradient3"
       inkscape:collect="always">
      <stop
         style="stop-color:#000000;stop-opacity:1;"
         offset="0"
         id="stop3" />
      <stop
         style="stop-color:#000000;stop-opacity:0;"
         offset="1"
         id="stop4" />
    </linearGradient>
    <linearGradient
       inkscape:collect="always"
       xlink:href="#linearGradient3"
       id="linearGradient4"
       x1="13.512321"
       y1="13.490874"
       x2="3.3783066"
       y2="3.3568602"
       gradientUnits="userSpaceOnUse" />
  </defs>
  <metadata
     id="metadata2">
    <rdf:RDF>
      <cc:Work
         rdf:about="">
        <dc:format>image/svg+xml</dc:format>
        <dc:type
           rdf:resource="http://purl.org/dc/dcmitype/StillImage" />
      </cc:Work>
    </rdf:RDF>
  </metadata>
  <ellipse
     style="opacity:1;fill:none;stroke:#000000;stroke-width:0.582072;stroke-dasharray:none;stroke-opacity:1;filter:url(#filter3)"
     id="path1-5"
     cx="8.4450111"
     cy="8.423522"
     rx="6.8752708"
     ry="6.8578653" />
  <ellipse
     style="opacity:1;fill:none;stroke-width:0.58207188;stroke-opacity:1;stroke:currentColor;stroke-dasharray:none;fill-opacity:1"
     id="path1"
     cx="8.4450111"
     cy="8.423522"
     rx="6.8752708"
     ry="6.8578653"
     class="ColorScheme-Text" />
  <ellipse
     style="fill:currentColor;stroke:none;stroke-width:0.285844;stroke-dasharray:none;stroke-opacity:1"
     id="path1-2"
     cx="8.4557552"
     cy="8.423522"
     rx="6.5738997"
     ry="6.5692253"
     class="ColorScheme-Highlight" />
  <path
     id="path5"
     style="opacity:0.3;fill:#000000;fill-opacity:1;stroke-width:0.588311"
     d="m 8.997896,5.0269874 c -2.190473,2.58e-4 -3.968829,1.778295 -3.968829,3.9688287 0,2.1906879 1.77907,3.9685139 3.969775,3.9685129 1.063587,-9e-6 2.082033,-0.426206 2.828118,-1.184244 0.03539,-0.0358 -1.856873,-1.405468 -3.579549,-2.7246466 L 9.097898,8.3948608 C 10.046035,7.7182924 10.94282,6.9465704 11.903933,6.3184894 l -0.0073,-0.03912 -0.106627,-0.10568 h -0.0012 C 11.04586,5.4390584 10.043659,5.0270694 8.998843,5.0269844 Z m -0.146059,1.16374 c 0.320361,0 0.580135,0.259774 0.580135,0.580135 0,0.32036 -0.259774,0.579819 -0.580135,0.579819 -0.320361,0 -0.580135,-0.259459 -0.580135,-0.579819 0,-0.320361 0.259774,-0.580135 0.580135,-0.580135 z" />
  <path
     id="path5-7"
     style="fill:currentColor;fill-opacity:1;stroke-width:0.588311"
     d="m 8.997896,4.4978306 c -2.190473,2.58e-4 -3.968829,1.778295 -3.968829,3.9688287 0,2.1906877 1.77907,3.9685137 3.969775,3.9685127 1.063587,-9e-6 2.082033,-0.426206 2.828118,-1.184244 0.03539,-0.0358 -1.856873,-1.4054682 -3.579549,-2.7246464 L 9.097898,7.865704 C 10.046035,7.1891356 10.94282,6.4174136 11.903933,5.7893326 l -0.0073,-0.03912 -0.106627,-0.10568 h -0.0012 C 11.04586,4.9099016 10.043659,4.4979126 8.998843,4.4978276 Z m -0.146059,1.16374 c 0.320361,0 0.580135,0.259774 0.580135,0.580135 0,0.32036 -0.259774,0.579819 -0.580135,0.579819 -0.320361,0 -0.580135,-0.259459 -0.580135,-0.579819 0,-0.320361 0.259774,-0.580135 0.580135,-0.580135 z"
     class="ColorScheme-Text" />
  <path
     id="gradient-path1"
     style="opacity:0.3;baseline-shift:baseline;display:inline;overflow:visible;vector-effect:none;enable-background:accumulate;stop-color:#000000;stop-opacity:1;fill:url(#linearGradient4)"
     d="M 8.4453131 1.2753492 C 4.4913166 1.2753492 1.2794833 4.4784283 1.2794833 8.4236094 C 1.2794833 12.36879 4.4913166 15.572386 8.4453131 15.572386 C 12.39931 15.572386 15.611143 12.36879 15.611143 8.4236094 C 15.611143 4.4784283 12.39931 1.2753492 8.4453131 1.2753492 z " />
</svg>
