<?xml version="1.0" encoding="UTF-8" standalone="no"?>
<svg
   width="64"
   height="64"
   version="1.1"
   viewBox="0 0 16.933 16.933"
   id="svg7"
   sodipodi:docname="pacseek-alt-1.svg"
   inkscape:version="1.4.2 (ebf0e940d0, 2025-05-08)"
   xmlns:inkscape="http://www.inkscape.org/namespaces/inkscape"
   xmlns:sodipodi="http://sodipodi.sourceforge.net/DTD/sodipodi-0.dtd"
   xmlns:xlink="http://www.w3.org/1999/xlink"
   xmlns="http://www.w3.org/2000/svg"
   xmlns:svg="http://www.w3.org/2000/svg"
   xmlns:rdf="http://www.w3.org/1999/02/22-rdf-syntax-ns#"
   xmlns:cc="http://creativecommons.org/ns#"
   xmlns:dc="http://purl.org/dc/elements/1.1/">
  <sodipodi:namedview
     id="namedview7"
     pagecolor="#9c4444"
     bordercolor="#000000"
     borderopacity="0.25"
     inkscape:showpageshadow="2"
     inkscape:pageopacity="0.0"
     inkscape:pagecheckerboard="0"
     inkscape:deskcolor="#d1d1d1"
     inkscape:zoom="8.7062522"
     inkscape:cx="71.385481"
     inkscape:cy="1.4931798"
     inkscape:window-width="2560"
     inkscape:window-height="1392"
     inkscape:window-x="0"
     inkscape:window-y="0"
     inkscape:window-maximized="1"
     inkscape:current-layer="svg7"
     showgrid="false" />
  <defs
     id="defs2">
    <filter
       style="color-interpolation-filters:sRGB;"
       inkscape:label="Blur"
       id="filter3"
       x="-0.10843471"
       y="-0.10870992"
       width="1.2168694"
       height="1.2174198">
      <feGaussianBlur
         stdDeviation="0.5 0.5"
         result="blur"
         id="feGaussianBlur3" />
    </filter>
    <style
       id="current-color-scheme"
       type="text/css">.ColorScheme-Text {color:#d8dee9} .ColorScheme-Highlight {color:#3b4252}</style>
    <linearGradient
       id="linearGradient3"
       inkscape:collect="always">
      <stop
         style="stop-color:#000000;stop-opacity:1;"
         offset="0"
         id="stop3" />
      <stop
         style="stop-color:#000000;stop-opacity:0;"
         offset="1"
         id="stop4" />
    </linearGradient>
    <linearGradient
       inkscape:collect="always"
       xlink:href="#linearGradient3"
       id="linearGradient4"
       x1="13.512321"
       y1="13.490874"
       x2="3.3783066"
       y2="3.3568602"
       gradientUnits="userSpaceOnUse" />
  </defs>
  <metadata
     id="metadata2">
    <rdf:RDF>
      <cc:Work
         rdf:about="">
        <dc:format>image/svg+xml</dc:format>
        <dc:type
           rdf:resource="http://purl.org/dc/dcmitype/StillImage" />
      </cc:Work>
    </rdf:RDF>
  </metadata>
  <ellipse
     style="opacity:1;fill:none;stroke:#000000;stroke-width:0.582072;stroke-dasharray:none;stroke-opacity:1;filter:url(#filter3)"
     id="path1-5"
     cx="8.4450111"
     cy="8.423522"
     rx="6.8752708"
     ry="6.8578653" />
  <ellipse
     style="opacity:1;fill:none;stroke-width:0.58207188;stroke-opacity:1;stroke:currentColor;stroke-dasharray:none;fill-opacity:1"
     id="path1"
     cx="8.4450111"
     cy="8.423522"
     rx="6.8752708"
     ry="6.8578653"
     class="ColorScheme-Text" />
  <ellipse
     style="fill:currentColor;stroke:none;stroke-width:0.285844;stroke-dasharray:none;stroke-opacity:1"
     id="path1-2"
     cx="8.4557552"
     cy="8.423522"
     rx="6.5738997"
     ry="6.5692253"
     class="ColorScheme-Highlight" />
  <path
     id="path5-6"
     style="opacity:0.3;fill:#000000;fill-opacity:1;stroke-width:0.545493"
     d="m 8.8777671,5.0269874 c -2.187512,2.57e-4 -3.968672,1.781104 -3.968672,3.968672 0,2.1877236 1.782092,3.9686716 3.9698,3.9686716 1.063422,-10e-6 2.0816589,-0.426876 2.8275979,-1.184766 l 0.299363,-0.303874 -0.357551,-0.288925 -0.02629,-0.592125 -0.650875,0.08357 -0.100799,-0.608409 -0.645449,0.09133 -0.129949,-0.5836316 -0.5642729,0.104869 -0.867982,-0.638795 0.69909,-0.51891 0.7049219,0.100765 -0.0023,-0.607253 0.835636,0.01441 0.038,-0.639349 0.774483,0.11132 c 0.01194,-0.667382 0.02153,-0.672411 0.02153,-0.672411 l 0.288422,-0.248689 c 0.02763,-0.02382 -0.353225,-0.410327 -0.353225,-0.410327 -0.742852,-0.734556 -1.7457139,-1.146063 -2.7903889,-1.146148 z m 0,0.288651 h 0.0011 c 0.968772,7.9e-5 1.8980069,0.38211 2.5868669,1.063274 h 0.0011 l 0.09894,0.0981 0.0065,0.03608 c -0.891162,0.582369 -1.7226779,1.297954 -2.6018089,1.925281 l -0.788434,0.612538 c 1.597297,1.2231676 3.3517439,2.4930616 3.3189239,2.5262596 -0.691785,0.702867 -1.6359269,1.098218 -2.6221039,1.098227 -2.031263,1e-6 -3.680867,-1.648492 -3.680867,-3.6797386 0,-2.031103 1.648692,-3.679782 3.679739,-3.680021 z m -0.135305,1.079059 c -0.297044,0 -0.537838,0.240794 -0.537838,0.537839 0,0.297044 0.240794,0.537838 0.537838,0.537838 0.297045,0 0.537839,-0.240794 0.537839,-0.537838 0,-0.297045 -0.240794,-0.537839 -0.537839,-0.537839 z"
     sodipodi:nodetypes="ssccccccccccccccccccscssssccccccccssssssss" />
  <path
     id="path5-6-5"
     style="fill:currentColor;fill-opacity:1;stroke-width:0.545493"
     d="m 8.8777671,4.4978281 c -2.187512,2.57e-4 -3.968672,1.781104 -3.968672,3.968672 0,2.1877239 1.782092,3.9686719 3.9698,3.9686719 1.063422,-10e-6 2.0816589,-0.426876 2.8275979,-1.184766 l 0.299363,-0.303874 -0.357551,-0.288925 -0.02629,-0.592125 -0.650875,0.08357 -0.100799,-0.6084097 -0.645449,0.091332 -0.129949,-0.5836312 -0.5642729,0.104869 -0.867982,-0.638795 0.69909,-0.51891 0.7049219,0.100765 -0.0023,-0.607253 0.835636,0.01441 0.038,-0.639349 0.774483,0.11132 c 0.01194,-0.667382 0.02153,-0.672411 0.02153,-0.672411 l 0.288422,-0.248689 c 0.02763,-0.02382 -0.353225,-0.410327 -0.353225,-0.410327 -0.742852,-0.734556 -1.7457139,-1.146063 -2.7903889,-1.146148 z m 0,0.288651 h 0.0011 c 0.968772,7.9e-5 1.8980069,0.38211 2.5868669,1.063274 h 0.0011 l 0.09894,0.0981 0.0065,0.03608 c -0.891162,0.582369 -1.7226779,1.297954 -2.6018089,1.925281 l -0.788434,0.612538 c 1.597297,1.2231673 3.3517439,2.4930619 3.3189239,2.5262599 -0.691785,0.702867 -1.6359269,1.098218 -2.6221039,1.098227 -2.031263,1e-6 -3.680867,-1.648492 -3.680867,-3.6797389 0,-2.031103 1.648692,-3.679782 3.679739,-3.680021 z m -0.135305,1.079059 c -0.297044,0 -0.537838,0.240794 -0.537838,0.537839 0,0.297044 0.240794,0.537838 0.537838,0.537838 0.297045,0 0.537839,-0.240794 0.537839,-0.537838 0,-0.297045 -0.240794,-0.537839 -0.537839,-0.537839 z"
     class="ColorScheme-Text"
     sodipodi:nodetypes="ssccccccccccccccccccscssssccccccccssssssss" />
  <path
     id="gradient-path1"
     style="opacity:0.3;baseline-shift:baseline;display:inline;overflow:visible;vector-effect:none;enable-background:accumulate;stop-color:#000000;stop-opacity:1;fill:url(#linearGradient4)"
     d="M 8.4453131 1.2753492 C 4.4913166 1.2753492 1.2794833 4.4784283 1.2794833 8.4236094 C 1.2794833 12.36879 4.4913166 15.572386 8.4453131 15.572386 C 12.39931 15.572386 15.611143 12.36879 15.611143 8.4236094 C 15.611143 4.4784283 12.39931 1.2753492 8.4453131 1.2753492 z " />
</svg>
