<?xml version="1.0" encoding="UTF-8" standalone="no"?>
<svg
   width="64"
   height="64"
   version="1.1"
   viewBox="0 0 16.933 16.933"
   id="svg7"
   sodipodi:docname="pacseek-alt-2.svg"
   inkscape:version="1.4.2 (ebf0e940d0, 2025-05-08)"
   xmlns:inkscape="http://www.inkscape.org/namespaces/inkscape"
   xmlns:sodipodi="http://sodipodi.sourceforge.net/DTD/sodipodi-0.dtd"
   xmlns:xlink="http://www.w3.org/1999/xlink"
   xmlns="http://www.w3.org/2000/svg"
   xmlns:svg="http://www.w3.org/2000/svg"
   xmlns:rdf="http://www.w3.org/1999/02/22-rdf-syntax-ns#"
   xmlns:cc="http://creativecommons.org/ns#"
   xmlns:dc="http://purl.org/dc/elements/1.1/">
  <sodipodi:namedview
     id="namedview7"
     pagecolor="#9c4444"
     bordercolor="#000000"
     borderopacity="0.25"
     inkscape:showpageshadow="2"
     inkscape:pageopacity="0.0"
     inkscape:pagecheckerboard="0"
     inkscape:deskcolor="#d1d1d1"
     inkscape:zoom="8.7062522"
     inkscape:cx="71.500341"
     inkscape:cy="1.4931798"
     inkscape:window-width="2560"
     inkscape:window-height="1392"
     inkscape:window-x="0"
     inkscape:window-y="0"
     inkscape:window-maximized="1"
     inkscape:current-layer="svg7"
     showgrid="false" />
  <defs
     id="defs2">
    <filter
       style="color-interpolation-filters:sRGB;"
       inkscape:label="Blur"
       id="filter3"
       x="-0.10843471"
       y="-0.10870992"
       width="1.2168694"
       height="1.2174198">
      <feGaussianBlur
         stdDeviation="0.5 0.5"
         result="blur"
         id="feGaussianBlur3" />
    </filter>
    <style
       id="current-color-scheme"
       type="text/css">.ColorScheme-Text {color:#d8dee9} .ColorScheme-Highlight {color:#3b4252}</style>
    <linearGradient
       id="linearGradient3"
       inkscape:collect="always">
      <stop
         style="stop-color:#000000;stop-opacity:1;"
         offset="0"
         id="stop3" />
      <stop
         style="stop-color:#000000;stop-opacity:0;"
         offset="1"
         id="stop4" />
    </linearGradient>
    <linearGradient
       inkscape:collect="always"
       xlink:href="#linearGradient3"
       id="linearGradient4"
       x1="13.512321"
       y1="13.490874"
       x2="3.3783066"
       y2="3.3568602"
       gradientUnits="userSpaceOnUse" />
  </defs>
  <metadata
     id="metadata2">
    <rdf:RDF>
      <cc:Work
         rdf:about="">
        <dc:format>image/svg+xml</dc:format>
        <dc:type
           rdf:resource="http://purl.org/dc/dcmitype/StillImage" />
      </cc:Work>
    </rdf:RDF>
  </metadata>
  <ellipse
     style="opacity:1;fill:none;stroke:#000000;stroke-width:0.582072;stroke-dasharray:none;stroke-opacity:1;filter:url(#filter3)"
     id="path1-5"
     cx="8.4450111"
     cy="8.423522"
     rx="6.8752708"
     ry="6.8578653" />
  <ellipse
     style="opacity:1;fill:none;stroke-width:0.58207188;stroke-opacity:1;stroke:currentColor;stroke-dasharray:none;fill-opacity:1"
     id="path1"
     cx="8.4450111"
     cy="8.423522"
     rx="6.8752708"
     ry="6.8578653"
     class="ColorScheme-Text" />
  <ellipse
     style="fill:currentColor;stroke:none;stroke-width:0.285844;stroke-dasharray:none;stroke-opacity:1"
     id="path1-2"
     cx="8.4557552"
     cy="8.423522"
     rx="6.5738997"
     ry="6.5692253"
     class="ColorScheme-Highlight" />
  <path
     id="path5"
     style="opacity:0.3;fill:#000000;fill-opacity:1;stroke-width:0.545493"
     d="m 8.8778026,5.0269844 c -2.187512,2.58e-4 -3.968672,1.781104 -3.968672,3.968672 0,2.1877236 1.781841,3.9686716 3.969549,3.9686716 1.063422,-10e-6 2.0816824,-0.426744 2.8276214,-1.184634 l 0.299522,-0.303911 -0.357731,-0.288992 -0.02603,-0.592025 -0.651109,0.08336 -0.100622,-0.608404 -0.645552,0.09155 -0.129871,-0.5838346 -0.5642374,0.105008 -0.868147,-0.638825 0.69908,-0.518899 0.7049314,0.100621 -0.002,-0.607235 0.835387,0.01433 0.03803,-0.639118 0.774546,0.111151 c 0.01194,-0.667382 0.02164,-0.672463 0.02164,-0.672463 l 0.288408,-0.248627 2.92e-4,-2.92e-4 2.92e-4,-2.93e-4 v -2.93e-4 l 2.93e-4,-2.92e-4 c 5.9e-5,-1.37e-4 2.46e-4,-7.36e-4 2.93e-4,-8.49e-4 0.0087,-0.03946 -0.354525,-0.408334 -0.354525,-0.408334 -0.742852,-0.734556 -1.7457974,-1.145938 -2.7904734,-1.146024 z m 0,0.2887 h 8.49e-4 c 0.968772,7.9e-5 1.8980324,0.382082 2.5868914,1.063246 h 0.0012 l 0.09887,0.09799 0.0067,0.03627 c -0.891178,0.582369 -1.7226934,1.297923 -2.6018244,1.925251 l -0.788586,0.6125 c 1.597296,1.2231666 3.3518444,2.4931436 3.3190244,2.5263416 -0.691785,0.702868 -1.6361074,1.098046 -2.6222844,1.098054 -2.031263,10e-7 -3.68085,-1.648432 -3.68085,-3.6796786 0,-2.031104 1.648925,-3.679734 3.679973,-3.679973 z m 0,0.231954 c -1.905422,2.24e-4 -3.447141,1.542754 -3.447141,3.44831 0,1.9056416 1.54257,3.4468486 3.448311,3.4468486 0.841557,-8e-6 1.6498434,-0.306714 2.2771314,-0.858788 C 10.665408,11.199373 9.3010846,10.200776 8.0409526,9.2358004 l -0.238974,-0.183691 1.030486,-0.799117 0.0032,-0.0035 C 9.6185616,7.6908364 10.40727,7.0250694 11.222487,6.4675674 10.585982,5.8773364 9.7496696,5.5477184 8.8789576,5.5476474 Z m -0.135429,0.847087 c 0.297045,0 0.537912,0.240868 0.537912,0.537912 0,0.297044 -0.240867,0.537619 -0.537912,0.537619 -0.297044,0 -0.537912,-0.240575 -0.537912,-0.537619 0,-0.297044 0.240868,-0.537912 0.537912,-0.537912 z M 11.300015,11.70101 c 0.0042,0.01093 0.0065,0.0173 0.0076,0.01901 h 0.0012 c -5.66e-4,-0.0029 -0.0044,-0.01301 -0.0088,-0.01901 z" />
  <path
     id="path5-7"
     style="fill:currentColor;fill-opacity:1;stroke-width:0.545493"
     d="m 8.8778026,4.4978281 c -2.187512,2.58e-4 -3.968672,1.781104 -3.968672,3.968672 0,2.1877239 1.781841,3.9686719 3.969549,3.9686719 1.063422,-10e-6 2.0816824,-0.426744 2.8276214,-1.184634 l 0.299522,-0.303911 -0.357731,-0.288992 -0.02603,-0.592025 -0.651109,0.08336 -0.100622,-0.6084047 -0.645552,0.091553 -0.129871,-0.5838342 -0.5642374,0.105008 -0.868147,-0.638825 0.69908,-0.518899 0.7049314,0.100621 -0.002,-0.607235 0.835387,0.01433 0.03803,-0.639118 0.774546,0.111151 c 0.01194,-0.667382 0.02164,-0.672463 0.02164,-0.672463 l 0.288408,-0.248627 2.92e-4,-2.92e-4 2.92e-4,-2.93e-4 v -2.93e-4 l 2.93e-4,-2.92e-4 c 5.9e-5,-1.37e-4 2.46e-4,-7.36e-4 2.93e-4,-8.49e-4 0.0087,-0.03946 -0.354525,-0.408334 -0.354525,-0.408334 -0.742852,-0.734556 -1.7457974,-1.145938 -2.7904734,-1.146024 z m 0,0.2887 h 8.49e-4 c 0.968772,7.9e-5 1.8980324,0.382082 2.5868914,1.063246 h 0.0012 l 0.09887,0.09799 0.0067,0.03627 c -0.891178,0.582369 -1.7226934,1.297923 -2.6018244,1.925251 l -0.788586,0.6125 c 1.597296,1.2231666 3.3518444,2.4931439 3.3190244,2.5263419 -0.691785,0.702868 -1.6361074,1.098046 -2.6222844,1.098054 -2.031263,10e-7 -3.68085,-1.648432 -3.68085,-3.6796789 0,-2.031104 1.648925,-3.679734 3.679973,-3.679973 z m 0,0.231954 c -1.905422,2.24e-4 -3.447141,1.542754 -3.447141,3.44831 0,1.9056419 1.54257,3.4468489 3.448311,3.4468489 0.841557,-8e-6 1.6498434,-0.306714 2.2771314,-0.858788 C 10.665408,10.670217 9.3010846,9.6716193 8.0409526,8.7066441 l -0.238974,-0.183691 1.030486,-0.799117 0.0032,-0.0035 C 9.6185616,7.1616801 10.40727,6.4959131 11.222487,5.9384111 10.585982,5.3481801 9.7496696,5.0185621 8.8789576,5.0184911 Z m -0.135429,0.847087 c 0.297045,0 0.537912,0.240868 0.537912,0.537912 0,0.297044 -0.240867,0.537619 -0.537912,0.537619 -0.297044,0 -0.537912,-0.240575 -0.537912,-0.537619 0,-0.297044 0.240868,-0.537912 0.537912,-0.537912 z m 2.5576414,5.3062849 c 0.0042,0.01093 0.0065,0.0173 0.0076,0.01901 h 0.0012 c -5.66e-4,-0.0029 -0.0044,-0.01301 -0.0088,-0.01901 z"
     class="ColorScheme-Text" />
  <path
     id="gradient-path1"
     style="opacity:0.3;baseline-shift:baseline;display:inline;overflow:visible;vector-effect:none;enable-background:accumulate;stop-color:#000000;stop-opacity:1;fill:url(#linearGradient4)"
     d="M 8.4453131 1.2753492 C 4.4913166 1.2753492 1.2794833 4.4784283 1.2794833 8.4236094 C 1.2794833 12.36879 4.4913166 15.572386 8.4453131 15.572386 C 12.39931 15.572386 15.611143 12.36879 15.611143 8.4236094 C 15.611143 4.4784283 12.39931 1.2753492 8.4453131 1.2753492 z " />
</svg>
