<?xml version="1.0" encoding="UTF-8" standalone="no"?>
<svg
   width="64"
   height="64"
   version="1.1"
   viewBox="0 0 16.933 16.933"
   id="svg7"
   sodipodi:docname="pacseek-alt-3.svg"
   inkscape:version="1.4.2 (ebf0e940d0, 2025-05-08)"
   xmlns:inkscape="http://www.inkscape.org/namespaces/inkscape"
   xmlns:sodipodi="http://sodipodi.sourceforge.net/DTD/sodipodi-0.dtd"
   xmlns:xlink="http://www.w3.org/1999/xlink"
   xmlns="http://www.w3.org/2000/svg"
   xmlns:svg="http://www.w3.org/2000/svg"
   xmlns:rdf="http://www.w3.org/1999/02/22-rdf-syntax-ns#"
   xmlns:cc="http://creativecommons.org/ns#"
   xmlns:dc="http://purl.org/dc/elements/1.1/">
  <sodipodi:namedview
     id="namedview7"
     pagecolor="#9c4444"
     bordercolor="#000000"
     borderopacity="0.25"
     inkscape:showpageshadow="2"
     inkscape:pageopacity="0.0"
     inkscape:pagecheckerboard="0"
     inkscape:deskcolor="#d1d1d1"
     inkscape:zoom="8.7062522"
     inkscape:cx="71.615201"
     inkscape:cy="1.4931798"
     inkscape:window-width="2560"
     inkscape:window-height="1392"
     inkscape:window-x="0"
     inkscape:window-y="0"
     inkscape:window-maximized="1"
     inkscape:current-layer="svg7"
     showgrid="false" />
  <defs
     id="defs2">
    <filter
       style="color-interpolation-filters:sRGB;"
       inkscape:label="Blur"
       id="filter3"
       x="-0.10843471"
       y="-0.10870992"
       width="1.2168694"
       height="1.2174198">
      <feGaussianBlur
         stdDeviation="0.5 0.5"
         result="blur"
         id="feGaussianBlur3" />
    </filter>
    <style
       id="current-color-scheme"
       type="text/css">.ColorScheme-Text {color:#d8dee9} .ColorScheme-Highlight {color:#3b4252}</style>
    <linearGradient
       id="linearGradient3"
       inkscape:collect="always">
      <stop
         style="stop-color:#000000;stop-opacity:1;"
         offset="0"
         id="stop3" />
      <stop
         style="stop-color:#000000;stop-opacity:0;"
         offset="1"
         id="stop4" />
    </linearGradient>
    <linearGradient
       inkscape:collect="always"
       xlink:href="#linearGradient3"
       id="linearGradient4"
       x1="13.512321"
       y1="13.490874"
       x2="3.3783066"
       y2="3.3568602"
       gradientUnits="userSpaceOnUse" />
  </defs>
  <metadata
     id="metadata2">
    <rdf:RDF>
      <cc:Work
         rdf:about="">
        <dc:format>image/svg+xml</dc:format>
        <dc:type
           rdf:resource="http://purl.org/dc/dcmitype/StillImage" />
      </cc:Work>
    </rdf:RDF>
  </metadata>
  <ellipse
     style="opacity:1;fill:none;stroke:#000000;stroke-width:0.582072;stroke-dasharray:none;stroke-opacity:1;filter:url(#filter3)"
     id="path1-5"
     cx="8.4450111"
     cy="8.423522"
     rx="6.8752708"
     ry="6.8578653" />
  <ellipse
     style="opacity:1;fill:none;stroke-width:0.58207188;stroke-opacity:1;stroke:currentColor;stroke-dasharray:none;fill-opacity:1"
     id="path1"
     cx="8.4450111"
     cy="8.423522"
     rx="6.8752708"
     ry="6.8578653"
     class="ColorScheme-Text" />
  <ellipse
     style="fill:currentColor;stroke:none;stroke-width:0.285844;stroke-dasharray:none;stroke-opacity:1"
     id="path1-2"
     cx="8.4557552"
     cy="8.423522"
     rx="6.5738997"
     ry="6.5692253"
     class="ColorScheme-Highlight" />
  <path
     id="path5-6"
     style="opacity:0.3;fill:#000000;fill-opacity:1;stroke-width:0.545493"
     d="m 8.8776618,5.0269844 c -2.187512,2.58e-4 -3.968672,1.781104 -3.968672,3.968672 0,2.1877236 1.782092,3.9686716 3.9698,3.9686716 1.063422,-10e-6 2.0816592,-0.426876 2.8275982,-1.184766 l 0.299362,-0.303874 c -1.316221,-1.063597 -1.182303,-0.839909 -3.3431652,-2.4321106 3.3863392,-2.445106 0.02792,-0.0011 3.3598192,-2.460117 0.02935,-0.02166 -0.353226,-0.410328 -0.353226,-0.410328 -0.742852,-0.734555 -1.7457132,-1.146062 -2.7903882,-1.146148 z m 0,0.288652 h 0.0011 c 0.968773,7.9e-5 1.8980082,0.382109 2.5868672,1.063273 h 0.0011 l 0.09894,0.0981 0.0065,0.03608 c -0.891162,0.582368 -1.7226772,1.297953 -2.6018082,1.92528 l -0.788435,0.612539 c 1.597297,1.2231656 3.3517442,2.4930606 3.3189242,2.5262586 -0.691784,0.702867 -1.6359262,1.098218 -2.6221032,1.098227 -2.031263,10e-7 -3.680867,-1.648491 -3.680867,-3.6797376 0,-2.031104 1.648692,-3.679782 3.679739,-3.680021 z m -0.135305,1.079059 c -0.297045,0 -0.537839,0.240794 -0.537839,0.537838 0,0.297045 0.240794,0.537838 0.537839,0.537838 0.297044,0 0.537838,-0.240793 0.537838,-0.537838 0,-0.297044 -0.240794,-0.537838 -0.537838,-0.537838 z"
     sodipodi:nodetypes="ssccccscssssccccccccssssssss" />
  <path
     id="path5-6-5"
     style="fill:currentColor;fill-opacity:1;stroke-width:0.545493"
     d="m 8.8776618,4.4978281 c -2.187512,2.58e-4 -3.968672,1.781104 -3.968672,3.968672 0,2.1877239 1.782092,3.9686719 3.9698,3.9686719 1.063422,-10e-6 2.0816592,-0.426876 2.8275982,-1.184766 L 12.00575,10.946532 C 10.689529,9.8829351 10.823447,10.106623 8.6625848,8.5144211 c 3.3863392,-2.445106 0.02792,-0.0011 3.3598192,-2.460117 0.02935,-0.02166 -0.353226,-0.410328 -0.353226,-0.410328 -0.742852,-0.734555 -1.7457132,-1.146062 -2.7903882,-1.146148 z m 0,0.288652 h 0.0011 c 0.968773,7.9e-5 1.8980082,0.382109 2.5868672,1.063273 h 0.0011 l 0.09894,0.0981 0.0065,0.03608 c -0.891162,0.582368 -1.7226772,1.297953 -2.6018082,1.92528 l -0.788435,0.612539 c 1.597297,1.223166 3.3517442,2.4930609 3.3189242,2.5262589 -0.691784,0.702867 -1.6359262,1.098218 -2.6221032,1.098227 -2.031263,10e-7 -3.680867,-1.648491 -3.680867,-3.6797379 0,-2.031104 1.648692,-3.679782 3.679739,-3.680021 z m -0.135305,1.079059 c -0.297045,0 -0.537839,0.240794 -0.537839,0.537838 0,0.297045 0.240794,0.537838 0.537839,0.537838 0.297044,0 0.537838,-0.240793 0.537838,-0.537838 0,-0.297044 -0.240794,-0.537838 -0.537838,-0.537838 z"
     class="ColorScheme-Text"
     sodipodi:nodetypes="ssccccscssssccccccccssssssss" />
  <path
     id="gradient-path1"
     style="opacity:0.3;baseline-shift:baseline;display:inline;overflow:visible;vector-effect:none;enable-background:accumulate;stop-color:#000000;stop-opacity:1;fill:url(#linearGradient4)"
     d="M 8.4453131 1.2753492 C 4.4913166 1.2753492 1.2794833 4.4784283 1.2794833 8.4236094 C 1.2794833 12.36879 4.4913166 15.572386 8.4453131 15.572386 C 12.39931 15.572386 15.611143 12.36879 15.611143 8.4236094 C 15.611143 4.4784283 12.39931 1.2753492 8.4453131 1.2753492 z " />
</svg>
