<?xml version="1.0" encoding="UTF-8" standalone="no"?>
<svg
   width="64"
   height="64"
   version="1.1"
   viewBox="0 0 16.933 16.933"
   id="svg7"
   sodipodi:docname="pasystray.svg"
   inkscape:version="1.4.2 (ebf0e940d0, 2025-05-08)"
   xmlns:inkscape="http://www.inkscape.org/namespaces/inkscape"
   xmlns:sodipodi="http://sodipodi.sourceforge.net/DTD/sodipodi-0.dtd"
   xmlns:xlink="http://www.w3.org/1999/xlink"
   xmlns="http://www.w3.org/2000/svg"
   xmlns:svg="http://www.w3.org/2000/svg"
   xmlns:rdf="http://www.w3.org/1999/02/22-rdf-syntax-ns#"
   xmlns:cc="http://creativecommons.org/ns#"
   xmlns:dc="http://purl.org/dc/elements/1.1/">
  <sodipodi:namedview
     id="namedview7"
     pagecolor="#9c4444"
     bordercolor="#000000"
     borderopacity="0.25"
     inkscape:showpageshadow="2"
     inkscape:pageopacity="0.0"
     inkscape:pagecheckerboard="0"
     inkscape:deskcolor="#d1d1d1"
     inkscape:zoom="4.3531261"
     inkscape:cx="36.066035"
     inkscape:cy="25.958357"
     inkscape:window-width="2560"
     inkscape:window-height="1376"
     inkscape:window-x="0"
     inkscape:window-y="0"
     inkscape:window-maximized="1"
     inkscape:current-layer="svg7"
     showgrid="false" />
  <defs
     id="defs2">
    <filter
       style="color-interpolation-filters:sRGB;"
       inkscape:label="Blur"
       id="filter3"
       x="-0.10843471"
       y="-0.10870992"
       width="1.2168694"
       height="1.2174198">
      <feGaussianBlur
         stdDeviation="0.5 0.5"
         result="blur"
         id="feGaussianBlur3" />
    </filter>
    <style
       id="current-color-scheme"
       type="text/css">.ColorScheme-Text {color:#d8dee9} .ColorScheme-Highlight {color:#3b4252}</style>
    <linearGradient
       id="linearGradient3"
       inkscape:collect="always">
      <stop
         style="stop-color:#000000;stop-opacity:1;"
         offset="0"
         id="stop3" />
      <stop
         style="stop-color:#000000;stop-opacity:0;"
         offset="1"
         id="stop4" />
    </linearGradient>
    <linearGradient
       inkscape:collect="always"
       xlink:href="#linearGradient3"
       id="linearGradient4"
       x1="13.512321"
       y1="13.490874"
       x2="3.3783066"
       y2="3.3568602"
       gradientUnits="userSpaceOnUse" />
  </defs>
  <metadata
     id="metadata2">
    <rdf:RDF>
      <cc:Work
         rdf:about="">
        <dc:format>image/svg+xml</dc:format>
        <dc:type
           rdf:resource="http://purl.org/dc/dcmitype/StillImage" />
      </cc:Work>
    </rdf:RDF>
  </metadata>
  <ellipse
     style="opacity:1;fill:none;stroke:#000000;stroke-width:0.582072;stroke-dasharray:none;stroke-opacity:1;filter:url(#filter3)"
     id="path1-5"
     cx="8.4450111"
     cy="8.423522"
     rx="6.8752708"
     ry="6.8578653" />
  <ellipse
     style="opacity:1;fill:none;stroke-width:0.58207188;stroke-opacity:1;stroke:currentColor;stroke-dasharray:none;fill-opacity:1"
     id="path1"
     cx="8.4450111"
     cy="8.423522"
     rx="6.8752708"
     ry="6.8578653"
     class="ColorScheme-Text" />
  <ellipse
     style="fill:currentColor;stroke:none;stroke-width:0.285844;stroke-dasharray:none;stroke-opacity:1"
     id="path1-2"
     cx="8.4557552"
     cy="8.423522"
     rx="6.5738997"
     ry="6.5692253"
     class="ColorScheme-Highlight" />
  <path
     id="path2417"
     style="opacity:0.3;fill:#000000;fill-opacity:1;stroke:none;stroke-width:0.0545216"
     d="m 7.446699,5.1587443 c -1.69725,0.450618 -2.948872,1.9975663 -2.948871,3.8359928 0,1.8384239 1.251622,3.3874279 2.948871,3.8380439 C 6.222298,12.283287 5.341886,10.771077 5.341886,8.9947371 5.341885,7.2184052 6.222297,5.7082373 7.446699,5.1587443 Z m 2.039602,0 c 1.224401,0.549493 2.104403,2.0596554 2.104403,3.8359928 0,1.7763399 -0.880002,3.2885499 -2.104403,3.8380439 1.69725,-0.450616 2.948872,-1.99962 2.948871,-3.8380439 0,-1.838421 -1.251621,-3.3853748 -2.948871,-3.8359928 z M 7.81336,6.5384386 c -1.086873,0.2885633 -1.888263,1.27943 -1.888262,2.4567091 0,1.1772753 0.801389,2.1689663 1.888262,2.4575293 -0.784074,-0.35188 -1.347704,-1.320012 -1.347704,-2.4575293 -1e-6,-1.137516 0.56363,-2.1048289 1.347704,-2.4567091 z m 1.30587,0 c 0.784073,0.3518802 1.347703,1.3191898 1.347703,2.4567091 0,1.1375173 -0.56363,2.1056493 -1.347703,2.4575293 1.086872,-0.288563 1.888672,-1.280254 1.888672,-2.4575293 0,-1.1772759 -0.8018,-2.1681458 -1.888672,-2.4567091 z M 8.466295,7.7417746 A 1.2539946,1.2539946 0 0 0 7.212512,8.9955577 1.2539946,1.2539946 0 0 0 8.466295,10.249751 1.2539946,1.2539946 0 0 0 9.720488,8.9955577 1.2539946,1.2539946 0 0 0 8.466295,7.7417746 Z" />
  <path
     id="path2417-5"
     class="ColorScheme-Text"
     style="fill:currentColor;fill-opacity:1;stroke:none;stroke-width:0.0545216"
     d="m 7.446699,4.6294815 c -1.69725,0.450618 -2.948872,1.9975663 -2.948871,3.8359928 0,1.8384227 1.251622,3.3874277 2.948871,3.8380437 C 6.222298,11.754023 5.341886,10.241813 5.341886,8.4654743 5.341885,6.6891424 6.222297,5.1789745 7.446699,4.6294815 Z m 2.039602,0 c 1.224401,0.549493 2.104403,2.0596554 2.104403,3.8359928 0,1.7763387 -0.880002,3.2885487 -2.104403,3.8380437 1.69725,-0.450616 2.948872,-1.999621 2.948871,-3.8380437 0,-1.838421 -1.251621,-3.3853748 -2.948871,-3.8359928 z M 7.81336,6.0091758 c -1.086873,0.2885632 -1.888263,1.27943 -1.888262,2.456709 0,1.1772752 0.801389,2.1689652 1.888262,2.4575282 -0.784074,-0.35188 -1.347704,-1.3200104 -1.347704,-2.4575282 -1e-6,-1.137516 0.56363,-2.1048289 1.347704,-2.456709 z m 1.30587,0 c 0.784073,0.3518801 1.347703,1.3191898 1.347703,2.456709 0,1.1375178 -0.56363,2.1056482 -1.347703,2.4575282 1.086872,-0.288563 1.888672,-1.280253 1.888672,-2.4575282 0,-1.1772758 -0.8018,-2.1681458 -1.888672,-2.456709 z M 8.466295,7.2125118 A 1.2539946,1.2539946 0 0 0 7.212512,8.4662948 1.2539946,1.2539946 0 0 0 8.466295,9.7204879 1.2539946,1.2539946 0 0 0 9.720488,8.4662948 1.2539946,1.2539946 0 0 0 8.466295,7.2125118 Z" />
  <path
     id="gradient-path1"
     style="opacity:0.3;baseline-shift:baseline;display:inline;overflow:visible;vector-effect:none;enable-background:accumulate;stop-color:#000000;stop-opacity:1;fill:url(#linearGradient4)"
     d="M 8.4453131 1.2753492 C 4.4913166 1.2753492 1.2794833 4.4784283 1.2794833 8.4236094 C 1.2794833 12.36879 4.4913166 15.572386 8.4453131 15.572386 C 12.39931 15.572386 15.611143 12.36879 15.611143 8.4236094 C 15.611143 4.4784283 12.39931 1.2753492 8.4453131 1.2753492 z " />
</svg>
