<?xml version='1.0' encoding='UTF-8'?>
<svg xmlns:inkscape="http://www.inkscape.org/namespaces/inkscape" xmlns:sodipodi="http://sodipodi.sourceforge.net/DTD/sodipodi-0.dtd" xmlns="http://www.w3.org/2000/svg" xmlns:svg="http://www.w3.org/2000/svg" xmlns:rdf="http://www.w3.org/1999/02/22-rdf-syntax-ns#" xmlns:cc="http://creativecommons.org/ns#" xmlns:dc="http://purl.org/dc/elements/1.1/" width="64" height="64" version="1.1" viewBox="0 0 16.933 16.933" id="svg7" sodipodi:docname="pdfstudio.svg" inkscape:version="1.4.2 (ebf0e940d0, 2025-05-08)">
  <sodipodi:namedview id="namedview7" pagecolor="#9c4444" bordercolor="#000000" borderopacity="0.25" inkscape:showpageshadow="2" inkscape:pageopacity="0.0" inkscape:pagecheckerboard="0" inkscape:deskcolor="#d1d1d1" inkscape:zoom="4.3531261" inkscape:cx="36.755195" inkscape:cy="26.417797" inkscape:window-width="2560" inkscape:window-height="1376" inkscape:window-x="0" inkscape:window-y="0" inkscape:window-maximized="1" inkscape:current-layer="svg7" showgrid="false"/>
  <defs id="defs2">
    <filter style="color-interpolation-filters:sRGB;" inkscape:label="Blur" id="filter3" x="-0.10843471" y="-0.10870992" width="1.2168694" height="1.2174198">
      <feGaussianBlur stdDeviation="0.5 0.5" result="blur" id="feGaussianBlur3"/>
    </filter>
    <style id="current-color-scheme" type="text/css">.ColorScheme-Text {color:#d8dee9} .ColorScheme-Highlight {color:#3b4252}</style>
  <linearGradient id="linearGradient3" inkscape:collect="always">
      <stop style="stop-color:#000000;stop-opacity:1;" offset="0" id="stop3"/>
      <stop style="stop-color:#000000;stop-opacity:0;" offset="1" id="stop4"/>
    </linearGradient>
    <linearGradient xmlns:xlink="http://www.w3.org/1999/xlink" inkscape:collect="always" xlink:href="#linearGradient3" id="linearGradient4" x1="13.512321" y1="13.490874" x2="3.3783066" y2="3.3568602" gradientUnits="userSpaceOnUse"/>
  </defs>
  <metadata id="metadata2">
    <rdf:RDF>
      <cc:Work rdf:about="">
        <dc:format>image/svg+xml</dc:format>
        <dc:type rdf:resource="http://purl.org/dc/dcmitype/StillImage"/>
      </cc:Work>
    </rdf:RDF>
  </metadata>
  <ellipse style="opacity:1;fill:none;stroke:#000000;stroke-width:0.582072;stroke-dasharray:none;stroke-opacity:1;filter:url(#filter3)" id="path1-5" cx="8.4450111" cy="8.423522" rx="6.8752708" ry="6.8578653"/>
  <ellipse style="opacity:1;fill:none;stroke-width:0.58207188;stroke-opacity:1;stroke:currentColor;stroke-dasharray:none;fill-opacity:1" id="path1" cx="8.4450111" cy="8.423522" rx="6.8752708" ry="6.8578653" class="ColorScheme-Text"/>
  <ellipse style="fill:currentColor;stroke:none;stroke-width:0.285844;stroke-dasharray:none;stroke-opacity:1" id="path1-2" cx="8.4557552" cy="8.423522" rx="6.5738997" ry="6.5692253" class="ColorScheme-Highlight"/>
<path id="path3" style="opacity:0.3;fill:#000000;fill-opacity:1" d="M 6.0009732 8.0764916 L 6.0009732 13.076585 L 7.000571 13.076585 L 7.000571 11.098434 L 7.8991568 11.098434 C 8.3991568 11.098434 8.8020919 11.030096 9.1070919 10.890096 C 9.4190919 10.749096 9.6436095 10.555173 9.7826095 10.307173 C 9.9276095 10.055173 9.9993644 9.9626553 9.9993644 9.6316553 C 9.9993644 9.1366553 9.8336177 8.753644 9.5006177 8.482644 C 9.1676177 8.211644 8.6579158 8.0764916 7.9749158 8.0764916 L 6.0009732 8.0764916 z M 10.998962 8.0764916 L 10.998962 13.076585 L 12.600423 13.076585 C 13.336423 13.076585 13.919297 12.859007 14.351298 12.420007 C 14.782297 11.981007 14.999458 11.35145 14.999458 10.53445 C 14.999458 9.72245 14.788029 9.1103989 14.366028 8.6993989 C 13.950028 8.2843989 13.390599 8.0764916 12.6846 8.0764916 L 10.998962 8.0764916 z M 15.999056 8.0764916 L 15.999056 13.076585 L 17.000758 13.076585 L 17.000758 11.077389 L 18.999953 11.077389 L 18.999953 10.077792 L 17.000758 10.077792 L 17.000758 9.0760894 L 19.999551 9.0760894 L 19.999551 8.0764916 L 15.999056 8.0764916 z M 7.000571 9.0760894 L 7.9391407 9.0760894 C 8.3071407 9.0760894 8.5730278 9.1171456 8.7430278 9.1981456 C 8.9130278 9.2791456 8.9997666 9.4014184 8.9997666 9.5664184 C 8.9997666 9.7284184 8.8941042 9.8552134 8.6841042 9.9452134 C 8.4801042 10.032213 8.16543 10.077792 7.74343 10.077792 L 7.000571 10.077792 L 7.000571 9.0760894 z M 12.000664 9.0760894 L 12.604632 9.0760894 C 13.069632 9.0760894 13.418527 9.1957358 13.650527 9.4317358 C 13.883527 9.6617358 13.99986 10.031972 13.99986 10.544972 C 13.99986 11.061972 13.879796 11.446193 13.635796 11.698192 C 13.396796 11.950192 13.017515 12.076987 12.501516 12.076987 L 12.000664 12.076987 L 12.000664 9.0760894 z M 23.000449 11.999124 C 17.460449 11.999124 13.000262 16.459311 13.000262 21.999311 L 13.000262 25.999806 C 13.000262 31.539806 17.460449 35.999993 23.000449 35.999993 L 24.999645 35.999993 C 26.391385 35.999993 27.716232 35.718085 28.918068 35.208732 L 33.528844 40.000488 L 36.999027 36.919623 L 32.674451 32.424589 C 34.127376 30.689164 34.999831 28.450497 34.999831 25.999806 L 34.999831 21.999311 C 34.999831 16.459311 30.539645 11.999124 24.999645 11.999124 L 23.000449 11.999124 z M 23.455003 15.999619 L 24.545091 15.999619 C 27.567091 15.999619 29.999738 18.973411 29.999738 22.666411 L 29.999738 25.334811 C 29.999738 29.027811 27.567091 31.999497 24.545091 31.999497 L 23.455003 31.999497 C 20.433003 31.999497 18.000356 29.027811 18.000356 25.334811 L 18.000356 22.666411 C 18.000356 18.973411 20.433003 15.999619 23.455003 15.999619 z " transform="matrix(0.24555699,0,0,0.24555699,3.1870248,3.0928371)"/>
  <path id="path3-9" style="fill:currentColor;fill-opacity:1" class="ColorScheme-Text" d="M 6.0009732 8.0764914 L 6.0009732 13.076585 L 7.000571 13.076585 L 7.000571 11.098433 L 7.8991568 11.098433 C 8.3991568 11.098433 8.8020919 11.030096 9.1070919 10.890096 C 9.4190919 10.749096 9.6436095 10.555173 9.7826095 10.307173 C 9.9276095 10.055173 9.9993644 9.9626551 9.9993644 9.6316551 C 9.9993644 9.1366551 9.8336177 8.7536438 9.5006177 8.4826438 C 9.1676177 8.2116438 8.6579158 8.0764914 7.9749158 8.0764914 L 6.0009732 8.0764914 z M 10.998962 8.0764914 L 10.998962 13.076585 L 12.600423 13.076585 C 13.336423 13.076585 13.919297 12.859006 14.351298 12.420007 C 14.782297 11.981006 14.999458 11.35145 14.999458 10.53445 C 14.999458 9.7224498 14.788029 9.1103987 14.366028 8.6993987 C 13.950028 8.2843987 13.390599 8.0764914 12.6846 8.0764914 L 10.998962 8.0764914 z M 15.999056 8.0764914 L 15.999056 13.076585 L 17.000758 13.076585 L 17.000758 11.077389 L 18.999953 11.077389 L 18.999953 10.077791 L 17.000758 10.077791 L 17.000758 9.0760892 L 19.999551 9.0760892 L 19.999551 8.0764914 L 15.999056 8.0764914 z M 7.000571 9.0760892 L 7.9391407 9.0760892 C 8.3071407 9.0760892 8.5730278 9.1171454 8.7430278 9.1981454 C 8.9130278 9.2791454 8.9997666 9.4014182 8.9997666 9.5664182 C 8.9997666 9.7284182 8.8941042 9.8552132 8.6841042 9.9452132 C 8.4801042 10.032213 8.16543 10.077791 7.74343 10.077791 L 7.000571 10.077791 L 7.000571 9.0760892 z M 12.000664 9.0760892 L 12.604632 9.0760892 C 13.069632 9.0760892 13.418527 9.1957356 13.650527 9.4317356 C 13.883527 9.6617356 13.99986 10.031972 13.99986 10.544972 C 13.99986 11.061972 13.879796 11.446193 13.635796 11.698192 C 13.396796 11.950192 13.017515 12.076987 12.501516 12.076987 L 12.000664 12.076987 L 12.000664 9.0760892 z M 23.000449 11.999124 C 17.460449 11.999124 13.000262 16.45931 13.000262 21.99931 L 13.000262 25.999806 C 13.000262 31.539806 17.460449 35.999993 23.000449 35.999993 L 24.999645 35.999993 C 26.391385 35.999993 27.716232 35.718085 28.918068 35.208732 L 33.528844 40.000488 L 36.999027 36.919623 L 32.674451 32.424589 C 34.127376 30.689163 34.999831 28.450497 34.999831 25.999806 L 34.999831 21.99931 C 34.999831 16.45931 30.539645 11.999124 24.999645 11.999124 L 23.000449 11.999124 z M 23.455003 15.999619 L 24.545091 15.999619 C 27.567091 15.999619 29.999738 18.97341 29.999738 22.66641 L 29.999738 25.33481 C 29.999738 29.02781 27.567091 31.999497 24.545091 31.999497 L 23.455003 31.999497 C 20.433003 31.999497 18.000356 29.02781 18.000356 25.33481 L 18.000356 22.66641 C 18.000356 18.97341 20.433003 15.999619 23.455003 15.999619 z " transform="matrix(0.24555699,0,0,0.24555699,3.1870248,2.5636809)"/>
<path id="gradient-path1" style="opacity:0.3;baseline-shift:baseline;display:inline;overflow:visible;vector-effect:none;enable-background:accumulate;stop-color:#000000;stop-opacity:1;fill:url(#linearGradient4)" d="M 8.4453131 1.2753492 C 4.4913166 1.2753492 1.2794833 4.4784283 1.2794833 8.4236094 C 1.2794833 12.36879 4.4913166 15.572386 8.4453131 15.572386 C 12.39931 15.572386 15.611143 12.36879 15.611143 8.4236094 C 15.611143 4.4784283 12.39931 1.2753492 8.4453131 1.2753492 z "/>
</svg>
