<?xml version='1.0' encoding='UTF-8'?>
<svg xmlns:inkscape="http://www.inkscape.org/namespaces/inkscape" xmlns:sodipodi="http://sodipodi.sourceforge.net/DTD/sodipodi-0.dtd" xmlns="http://www.w3.org/2000/svg" xmlns:svg="http://www.w3.org/2000/svg" xmlns:rdf="http://www.w3.org/1999/02/22-rdf-syntax-ns#" xmlns:cc="http://creativecommons.org/ns#" xmlns:dc="http://purl.org/dc/elements/1.1/" width="64" height="64" version="1.1" viewBox="0 0 16.933 16.933" id="svg7" sodipodi:docname="archivemanager.svg" inkscape:version="1.4.2 (ebf0e940d0, 2025-05-08)">
  <sodipodi:namedview id="namedview7" pagecolor="#9c4444" bordercolor="#000000" borderopacity="0.25" inkscape:showpageshadow="2" inkscape:pageopacity="0.0" inkscape:pagecheckerboard="0" inkscape:deskcolor="#d1d1d1" inkscape:zoom="4.3531261" inkscape:cx="36.066035" inkscape:cy="26.073217" inkscape:window-width="1280" inkscape:window-height="669" inkscape:window-x="0" inkscape:window-y="0" inkscape:window-maximized="0" inkscape:current-layer="svg7" showgrid="false"/>
  <defs id="defs2">
    <filter style="color-interpolation-filters:sRGB;" inkscape:label="Blur" id="filter3" x="-0.10843471" y="-0.10870992" width="1.2168694" height="1.2174198">
      <feGaussianBlur stdDeviation="0.5 0.5" result="blur" id="feGaussianBlur3"/>
    </filter>
    <style id="current-color-scheme" type="text/css">.ColorScheme-Text {color:#d8dee9} .ColorScheme-Highlight {color:#3b4252}</style>
  <linearGradient id="linearGradient3" inkscape:collect="always">
      <stop style="stop-color:#000000;stop-opacity:1;" offset="0" id="stop3"/>
      <stop style="stop-color:#000000;stop-opacity:0;" offset="1" id="stop4"/>
    </linearGradient>
    <linearGradient xmlns:xlink="http://www.w3.org/1999/xlink" inkscape:collect="always" xlink:href="#linearGradient3" id="linearGradient4" x1="13.512321" y1="13.490874" x2="3.3783066" y2="3.3568602" gradientUnits="userSpaceOnUse"/>
  </defs>
  <metadata id="metadata2">
    <rdf:RDF>
      <cc:Work rdf:about="">
        <dc:format>image/svg+xml</dc:format>
        <dc:type rdf:resource="http://purl.org/dc/dcmitype/StillImage"/>
      </cc:Work>
    </rdf:RDF>
  </metadata>
  <ellipse style="opacity:1;fill:none;stroke:#000000;stroke-width:0.582072;stroke-dasharray:none;stroke-opacity:1;filter:url(#filter3)" id="path1-5" cx="8.4450111" cy="8.423522" rx="6.8752708" ry="6.8578653"/>
  <ellipse style="opacity:1;fill:none;stroke-width:0.58207188;stroke-opacity:1;stroke:currentColor;stroke-dasharray:none;fill-opacity:1" id="path1" cx="8.4450111" cy="8.423522" rx="6.8752708" ry="6.8578653" class="ColorScheme-Text"/>
  <ellipse style="fill:currentColor;stroke:none;stroke-width:0.285844;stroke-dasharray:none;stroke-opacity:1" id="path1-2" cx="8.4557552" cy="8.423522" rx="6.5738997" ry="6.5692253" class="ColorScheme-Highlight"/>
<path id="path20-1-0" style="fill:#000000;fill-opacity:1;stroke:none;stroke-width:0.36872;stroke-dasharray:none;stroke-opacity:0.6;opacity:0.3" d="M 31.837859 8.4119929 L 31.837859 9.5105037 L 32.938345 9.5105037 C 32.983745 9.1062217 32.938345 8.4119929 32.938345 8.4119929 L 31.837859 8.4119929 z M 32.938345 9.5105037 L 32.938345 10.61099 L 34.038832 10.61099 L 34.038832 9.5105037 L 32.938345 9.5105037 z M 32.938345 10.61099 L 31.837859 10.61099 L 31.837859 11.711477 L 32.938345 11.711477 L 32.938345 10.61099 z M 32.938345 11.711477 L 32.938345 12.811963 L 34.038832 12.811963 L 34.038832 11.711477 L 32.938345 11.711477 z M 32.938345 12.811963 L 31.837859 12.811963 L 31.837859 13.910474 L 32.938345 13.910474 L 32.938345 12.811963 z M 32.938345 13.910474 L 32.938345 15.010961 L 34.038832 15.010961 L 34.038832 13.910474 L 32.938345 13.910474 z M 32.938345 15.010961 L 31.837859 15.010961 L 31.837859 16.111447 L 32.938345 16.111447 L 32.938345 15.010961 z M 32.938345 16.111447 C 32.921061 16.333232 32.926736 16.513619 32.948224 16.656751 C 32.925074 16.656391 32.900333 16.654776 32.877097 16.654776 C 30.445357 16.654776 28.477126 18.634746 28.477126 21.054746 L 28.477126 29.854687 C 28.477126 32.274687 30.446097 34.254658 32.877097 34.254658 C 35.308094 34.254658 37.277068 32.274687 37.277068 29.854687 L 37.277068 21.054746 C 37.277068 18.960049 35.802868 17.196162 33.829404 16.75949 C 33.952992 16.576539 34.039099 16.344616 34.038832 16.111447 L 32.938345 16.111447 z M 32.877097 18.855749 C 34.091494 18.855749 35.078071 19.734746 35.078071 21.054746 C 35.078071 22.154744 34.091494 23.255719 32.877097 23.255719 C 31.662697 23.255719 30.6781 22.154744 30.6781 21.054746 C 30.6781 19.734746 31.662697 18.855749 32.877097 18.855749 z M 32.877097 25.454717 C 34.092121 25.454717 35.078071 26.440663 35.078071 27.65569 L 35.078071 29.854687 C 35.078071 31.069714 34.092121 32.05566 32.877097 32.05566 C 31.662067 32.05566 30.6781 31.069714 30.6781 29.854687 L 30.6781 27.65569 C 30.6781 26.440663 31.662067 25.454717 32.877097 25.454717 z " transform="matrix(0.26154979,0,0,0.26154982,-0.04361619,0.69108425)"/>
  <path id="path20-1" style="opacity:1;fill:currentColor;fill-opacity:1;stroke:none;stroke-width:0.36872;stroke-dasharray:none;stroke-opacity:0.6" class="ColorScheme-Text" d="M 31.837859 8.4119929 L 31.837859 9.5105037 L 32.938345 9.5105037 C 32.983745 9.1062217 32.938345 8.4119929 32.938345 8.4119929 L 31.837859 8.4119929 z M 32.938345 9.5105037 L 32.938345 10.61099 L 34.038832 10.61099 L 34.038832 9.5105037 L 32.938345 9.5105037 z M 32.938345 10.61099 L 31.837859 10.61099 L 31.837859 11.711477 L 32.938345 11.711477 L 32.938345 10.61099 z M 32.938345 11.711477 L 32.938345 12.811963 L 34.038832 12.811963 L 34.038832 11.711477 L 32.938345 11.711477 z M 32.938345 12.811963 L 31.837859 12.811963 L 31.837859 13.910474 L 32.938345 13.910474 L 32.938345 12.811963 z M 32.938345 13.910474 L 32.938345 15.010961 L 34.038832 15.010961 L 34.038832 13.910474 L 32.938345 13.910474 z M 32.938345 15.010961 L 31.837859 15.010961 L 31.837859 16.111447 L 32.938345 16.111447 L 32.938345 15.010961 z M 32.938345 16.111447 C 32.921061 16.333232 32.926736 16.513619 32.948224 16.656751 C 32.925074 16.656391 32.900333 16.654776 32.877097 16.654776 C 30.445357 16.654776 28.477126 18.634746 28.477126 21.054746 L 28.477126 29.854687 C 28.477126 32.274687 30.446097 34.254658 32.877097 34.254658 C 35.308094 34.254658 37.277068 32.274687 37.277068 29.854687 L 37.277068 21.054746 C 37.277068 18.960049 35.802868 17.196162 33.829404 16.75949 C 33.952992 16.576539 34.039099 16.344616 34.038832 16.111447 L 32.938345 16.111447 z M 32.877097 18.855749 C 34.091494 18.855749 35.078071 19.734746 35.078071 21.054746 C 35.078071 22.154744 34.091494 23.255719 32.877097 23.255719 C 31.662697 23.255719 30.6781 22.154744 30.6781 21.054746 C 30.6781 19.734746 31.662697 18.855749 32.877097 18.855749 z M 32.877097 25.454717 C 34.092121 25.454717 35.078071 26.440663 35.078071 27.65569 L 35.078071 29.854687 C 35.078071 31.069714 34.092121 32.05566 32.877097 32.05566 C 31.662067 32.05566 30.6781 31.069714 30.6781 29.854687 L 30.6781 27.65569 C 30.6781 26.440663 31.662067 25.454717 32.877097 25.454717 z " transform="matrix(0.26154979,0,0,0.26154982,-0.04361619,0.161928)"/>
<path id="gradient-path1" style="opacity:0.3;baseline-shift:baseline;display:inline;overflow:visible;vector-effect:none;enable-background:accumulate;stop-color:#000000;stop-opacity:1;fill:url(#linearGradient4)" d="M 8.4453131 1.2753492 C 4.4913166 1.2753492 1.2794833 4.4784283 1.2794833 8.4236094 C 1.2794833 12.36879 4.4913166 15.572386 8.4453131 15.572386 C 12.39931 15.572386 15.611143 12.36879 15.611143 8.4236094 C 15.611143 4.4784283 12.39931 1.2753492 8.4453131 1.2753492 z "/>
</svg>
