<?xml version="1.0" encoding="UTF-8" standalone="no"?>
<svg
   width="64"
   height="64"
   version="1.1"
   viewBox="0 0 16.933 16.933"
   id="svg7"
   sodipodi:docname="piavpn.svg"
   inkscape:version="1.4.2 (ebf0e940d0, 2025-05-08)"
   xmlns:inkscape="http://www.inkscape.org/namespaces/inkscape"
   xmlns:sodipodi="http://sodipodi.sourceforge.net/DTD/sodipodi-0.dtd"
   xmlns:xlink="http://www.w3.org/1999/xlink"
   xmlns="http://www.w3.org/2000/svg"
   xmlns:svg="http://www.w3.org/2000/svg"
   xmlns:rdf="http://www.w3.org/1999/02/22-rdf-syntax-ns#"
   xmlns:cc="http://creativecommons.org/ns#"
   xmlns:dc="http://purl.org/dc/elements/1.1/">
  <sodipodi:namedview
     id="namedview7"
     pagecolor="#9c4444"
     bordercolor="#000000"
     borderopacity="0.25"
     inkscape:showpageshadow="2"
     inkscape:pageopacity="0.0"
     inkscape:pagecheckerboard="0"
     inkscape:deskcolor="#d1d1d1"
     inkscape:zoom="4.3531261"
     inkscape:cx="36.755195"
     inkscape:cy="26.647517"
     inkscape:window-width="2560"
     inkscape:window-height="1392"
     inkscape:window-x="0"
     inkscape:window-y="0"
     inkscape:window-maximized="1"
     inkscape:current-layer="svg7"
     showgrid="false" />
  <defs
     id="defs2">
    <filter
       style="color-interpolation-filters:sRGB;"
       inkscape:label="Blur"
       id="filter3"
       x="-0.10843471"
       y="-0.10870992"
       width="1.2168694"
       height="1.2174198">
      <feGaussianBlur
         stdDeviation="0.5 0.5"
         result="blur"
         id="feGaussianBlur3" />
    </filter>
    <style
       id="current-color-scheme"
       type="text/css">.ColorScheme-Text {color:#d8dee9} .ColorScheme-Highlight {color:#3b4252}</style>
    <linearGradient
       id="linearGradient3"
       inkscape:collect="always">
      <stop
         style="stop-color:#000000;stop-opacity:1;"
         offset="0"
         id="stop3" />
      <stop
         style="stop-color:#000000;stop-opacity:0;"
         offset="1"
         id="stop4" />
    </linearGradient>
    <linearGradient
       inkscape:collect="always"
       xlink:href="#linearGradient3"
       id="linearGradient4"
       x1="13.512321"
       y1="13.490874"
       x2="3.3783066"
       y2="3.3568602"
       gradientUnits="userSpaceOnUse" />
  </defs>
  <metadata
     id="metadata2">
    <rdf:RDF>
      <cc:Work
         rdf:about="">
        <dc:format>image/svg+xml</dc:format>
        <dc:type
           rdf:resource="http://purl.org/dc/dcmitype/StillImage" />
      </cc:Work>
    </rdf:RDF>
  </metadata>
  <ellipse
     style="opacity:1;fill:none;stroke:#000000;stroke-width:0.582072;stroke-dasharray:none;stroke-opacity:1;filter:url(#filter3)"
     id="path1-5"
     cx="8.4450111"
     cy="8.423522"
     rx="6.8752708"
     ry="6.8578653" />
  <ellipse
     style="opacity:1;fill:none;stroke-width:0.58207188;stroke-opacity:1;stroke:currentColor;stroke-dasharray:none;fill-opacity:1"
     id="path1"
     cx="8.4450111"
     cy="8.423522"
     rx="6.8752708"
     ry="6.8578653"
     class="ColorScheme-Text" />
  <ellipse
     style="fill:currentColor;stroke:none;stroke-width:0.285844;stroke-dasharray:none;stroke-opacity:1"
     id="path1-2"
     cx="8.4557552"
     cy="8.423522"
     rx="6.5738997"
     ry="6.5692253"
     class="ColorScheme-Highlight" />
  <path
     id="path4"
     style="display:inline;opacity:0.3;fill:#000000;fill-opacity:1;stroke-width:0.141738"
     d="m 8.4219304,5.0269854 c -1.290583,-9.9e-5 -2.36508,1.053274 -2.364981,2.3527997 v 0.4922084 c -0.258378,0.049439 -0.454102,0.2734986 -0.45622,0.543699 -0.0725,0.1219536 -0.110746,0.2609985 -0.110733,0.4025146 V 11.78862 c 1.49e-4,0.360177 0.244082,0.675831 0.59519,0.769871 0.09435,0.211064 0.305349,0.405861 0.538439,0.405837 h 0.669658 c 0.221568,3.1e-5 0.424349,-0.229689 0.524875,-0.425215 h 1.227752 c 0.100402,0.195469 0.303136,0.425194 0.524597,0.425215 h 0.6696586 c 0.226235,-1.5e-4 0.432392,-0.187317 0.530411,-0.389227 0.387964,-0.0643 0.672211,-0.396957 0.672426,-0.786481 V 8.8182071 c 7.8e-5,-0.1383164 -0.03636,-0.2744477 -0.10575,-0.3944864 v -0.0036 C 11.337163,8.1464931 11.138404,7.9187048 10.87605,7.8708849 V 7.3797838 C 10.876148,6.0803994 9.8017894,5.0270834 8.5113464,5.0269844 Z m 0.01,0.850429 h 0.07142 c 0.808018,0 1.5223016,0.6497197 1.5223016,1.4633374 V 7.8617506 H 9.6895774 C 9.5426824,7.8616321 9.4015434,8.0435699 9.2964754,8.1452272 H 7.6407434 C 7.5357534,8.0435643 7.3947614,7.8616213 7.2479184,7.8617506 H 6.9073794 V 7.3407518 c 0,-0.8136179 0.716498,-1.4633374 1.524516,-1.4633374 z m 0.743849,0.8504301 a 0.28347652,0.28347652 0 1 0 0.282885,0.2829229 0.28347652,0.28347652 0 0 0 -0.282923,-0.2829229 z m -1.432331,5.541e-4 a 0.28377443,0.28348741 0 0 0 0.01384,0.566399 0.2835832,0.28329636 0 0 0 0.284031,-0.2834765 0.28377443,0.28348741 0 0 0 -0.297872,-0.2829229 z m 1.143041,0.6854374 a 0.06971841,0.06971841 0 0 0 -0.0075,5.541e-4 0.06971841,0.06971841 0 0 0 -0.03876,0.017718 0.55750484,0.55750484 0 0 1 -0.746894,0 0.06966549,0.06966549 0 0 0 -0.09412,0.1024279 0.68272182,0.68272182 0 0 0 0.935694,0 0.06971841,0.06971841 0 0 0 -0.04097,-0.120699 0.06971841,0.06971841 0 0 0 -0.0075,0 z m -0.396702,2.0075896 c 0.287129,0.012477 0.542903,0.2467896 0.54287,0.5677837 h 8.49e-4 c 2.54e-4,0.1881387 -0.09279,0.3640457 -0.248319,0.4695077 -0.02805,0.01894 -0.04286,0.05229 -0.03793,0.08582 l 0.139524,1.042274 c 0.0078,0.05357 -0.03344,0.101777 -0.08748,0.101875 h -0.665221 c -0.05403,-8.3e-5 -0.09543,-0.04834 -0.08748,-0.101875 l 0.139247,-1.042274 c 0.0051,-0.03323 -0.0093,-0.06644 -0.0371,-0.08526 -0.353891,-0.239789 -0.325599,-0.7707436 0.05177,-0.9714053 0.09434,-0.050165 0.193581,-0.070599 0.28929,-0.06644 z" />
  <path
     id="path4-6"
     style="display:inline;fill:currentColor;fill-opacity:1;stroke-width:0.141738"
     d="m 8.4219304,4.497829 c -1.290583,-9.9e-5 -2.36508,1.053274 -2.364981,2.3527997 v 0.4922084 c -0.258378,0.049439 -0.454102,0.2734986 -0.45622,0.543699 -0.0725,0.1219536 -0.110746,0.2609985 -0.110733,0.4025146 v 2.9704133 c 1.49e-4,0.360177 0.244082,0.675831 0.59519,0.769871 0.09435,0.211063 0.305349,0.405861 0.538439,0.405837 h 0.669658 c 0.221568,3.1e-5 0.424349,-0.229689 0.524875,-0.425215 h 1.227752 c 0.100402,0.195469 0.303136,0.425194 0.524597,0.425215 h 0.6696586 c 0.226235,-1.5e-4 0.432392,-0.187317 0.530411,-0.389227 0.387964,-0.0643 0.672211,-0.396957 0.672426,-0.786481 V 8.2890507 c 7.8e-5,-0.1383164 -0.03636,-0.2744477 -0.10575,-0.3944864 v -0.0036 C 11.337163,7.6173367 11.138404,7.3895484 10.87605,7.3417285 V 6.8506274 C 10.876148,5.551243 9.8017894,4.497927 8.5113464,4.497828 Z m 0.01,0.850429 h 0.07142 c 0.808018,0 1.5223016,0.6497197 1.5223016,1.4633374 V 7.3325942 H 9.6895774 C 9.5426824,7.3324757 9.4015434,7.5144135 9.2964754,7.6160708 H 7.6407434 C 7.5357534,7.5144079 7.3947614,7.3324649 7.2479184,7.3325942 H 6.9073794 V 6.8115954 c 0,-0.8136179 0.716498,-1.4633374 1.524516,-1.4633374 z m 0.743849,0.8504301 A 0.28347652,0.28347652 0 1 0 9.4586644,6.481611 0.28347652,0.28347652 0 0 0 9.1757414,6.1986881 Z m -1.432331,5.541e-4 a 0.28377443,0.28348741 0 0 0 0.01384,0.566399 0.2835832,0.28329636 0 0 0 0.284031,-0.2834765 0.28377443,0.28348741 0 0 0 -0.297872,-0.2829229 z m 1.143041,0.6854374 a 0.06971841,0.06971841 0 0 0 -0.0075,5.541e-4 0.06971841,0.06971841 0 0 0 -0.03876,0.017718 0.55750484,0.55750484 0 0 1 -0.746894,0 0.06966549,0.06966549 0 0 0 -0.09412,0.1024279 0.68272182,0.68272182 0 0 0 0.935694,0 0.06971841,0.06971841 0 0 0 -0.04097,-0.120699 0.06971841,0.06971841 0 0 0 -0.0075,0 z m -0.396702,2.0075896 c 0.287129,0.012477 0.542903,0.2467896 0.54287,0.5677837 h 8.49e-4 c 2.54e-4,0.1881385 -0.09279,0.3640456 -0.248319,0.4695079 -0.02805,0.018944 -0.04286,0.052289 -0.03793,0.085818 l 0.139524,1.042274 c 0.0078,0.05357 -0.03344,0.101777 -0.08748,0.101875 h -0.665221 c -0.05403,-8.3e-5 -0.09543,-0.04834 -0.08748,-0.101875 l 0.139247,-1.042274 c 0.0051,-0.033226 -0.0093,-0.066444 -0.0371,-0.085264 -0.353891,-0.2397894 -0.325599,-0.7707438 0.05177,-0.9714055 0.09434,-0.050165 0.193581,-0.070599 0.28929,-0.06644 z"
     class="ColorScheme-Text" />
  <path
     id="gradient-path1"
     style="opacity:0.3;baseline-shift:baseline;display:inline;overflow:visible;vector-effect:none;enable-background:accumulate;stop-color:#000000;stop-opacity:1;fill:url(#linearGradient4)"
     d="M 8.4453131 1.2753492 C 4.4913166 1.2753492 1.2794833 4.4784283 1.2794833 8.4236094 C 1.2794833 12.36879 4.4913166 15.572386 8.4453131 15.572386 C 12.39931 15.572386 15.611143 12.36879 15.611143 8.4236094 C 15.611143 4.4784283 12.39931 1.2753492 8.4453131 1.2753492 z " />
</svg>
