<?xml version='1.0' encoding='UTF-8'?>
<svg xmlns:inkscape="http://www.inkscape.org/namespaces/inkscape" xmlns:sodipodi="http://sodipodi.sourceforge.net/DTD/sodipodi-0.dtd" xmlns="http://www.w3.org/2000/svg" xmlns:svg="http://www.w3.org/2000/svg" xmlns:rdf="http://www.w3.org/1999/02/22-rdf-syntax-ns#" xmlns:cc="http://creativecommons.org/ns#" xmlns:dc="http://purl.org/dc/elements/1.1/" width="64" height="64" version="1.1" viewBox="0 0 16.933 16.933" id="svg7" sodipodi:docname="plank.svg" inkscape:version="1.4.2 (ebf0e940d0, 2025-05-08)">
  <sodipodi:namedview id="namedview7" pagecolor="#9c4444" bordercolor="#000000" borderopacity="0.25" inkscape:showpageshadow="2" inkscape:pageopacity="0.0" inkscape:pagecheckerboard="0" inkscape:deskcolor="#d1d1d1" inkscape:zoom="8.7062522" inkscape:cx="86.259849" inkscape:cy="13.898058" inkscape:window-width="2560" inkscape:window-height="1376" inkscape:window-x="0" inkscape:window-y="0" inkscape:window-maximized="1" inkscape:current-layer="svg7" showgrid="false"/>
  <defs id="defs2">
    <filter style="color-interpolation-filters:sRGB;" inkscape:label="Blur" id="filter3" x="-0.10843471" y="-0.10870992" width="1.2168694" height="1.2174198">
      <feGaussianBlur stdDeviation="0.5 0.5" result="blur" id="feGaussianBlur3"/>
    </filter>
    <style id="current-color-scheme" type="text/css">.ColorScheme-Text {color:#d8dee9} .ColorScheme-Highlight {color:#3b4252}</style>
  <linearGradient id="linearGradient3" inkscape:collect="always">
      <stop style="stop-color:#000000;stop-opacity:1;" offset="0" id="stop3"/>
      <stop style="stop-color:#000000;stop-opacity:0;" offset="1" id="stop4"/>
    </linearGradient>
    <linearGradient xmlns:xlink="http://www.w3.org/1999/xlink" inkscape:collect="always" xlink:href="#linearGradient3" id="linearGradient4" x1="13.512321" y1="13.490874" x2="3.3783066" y2="3.3568602" gradientUnits="userSpaceOnUse"/>
  </defs>
  <metadata id="metadata2">
    <rdf:RDF>
      <cc:Work rdf:about="">
        <dc:format>image/svg+xml</dc:format>
        <dc:type rdf:resource="http://purl.org/dc/dcmitype/StillImage"/>
      </cc:Work>
    </rdf:RDF>
  </metadata>
  <ellipse style="opacity:1;fill:none;stroke:#000000;stroke-width:0.582072;stroke-dasharray:none;stroke-opacity:1;filter:url(#filter3)" id="path1-5" cx="8.4450111" cy="8.423522" rx="6.8752708" ry="6.8578653"/>
  <ellipse style="opacity:1;fill:none;stroke-width:0.58207188;stroke-opacity:1;stroke:currentColor;stroke-dasharray:none;fill-opacity:1" id="path1" cx="8.4450111" cy="8.423522" rx="6.8752708" ry="6.8578653" class="ColorScheme-Text"/>
  <ellipse style="fill:currentColor;stroke:none;stroke-width:0.285844;stroke-dasharray:none;stroke-opacity:1" id="path1-2" cx="8.4557552" cy="8.423522" rx="6.5738997" ry="6.5692253" class="ColorScheme-Highlight"/>
<path id="path3215-9-6" style="display:inline;overflow:visible;visibility:visible;opacity:0.3;fill:#000000;fill-opacity:1;fill-rule:nonzero;stroke:none;stroke-width:0.0914086;stroke-linecap:butt;stroke-linejoin:miter;stroke-miterlimit:4;stroke-dashoffset:0;stroke-opacity:1;marker:none;enable-background:accumulate" d="m 8.4652085,5.0761959 c -0.410402,0 -0.742182,0.332435 -0.742059,0.742059 -9.3e-5,0.309071 0.194536,0.5642527 0.464045,0.6753974 v 0.252176 h -1.113089 c -0.04927,0 -0.093015,0.040628 -0.093015,0.093016 V 7.116858 c 0,0.052388 0.040545,0.093016 0.093015,0.093016 h 1.113089 v 3.431764 c 0,0.0953 -0.159332,0.09751 -0.249592,0.107485 -0.132237,-8.16e-4 -0.212469,-0.03476 -0.338991,-0.06976 -0.285727,-0.08355 -0.558752,-0.19918 -0.820606,-0.338991 -0.110248,-0.06112 -0.217642,-0.120678 -0.315736,-0.199983 -0.04228,-0.03607 -0.091315,-0.08818 -0.086815,-0.1477921 0.0057,-0.045128 0.02832,-0.093545 0.07803,-0.1018006 0.0448,-0.00709 0.08493,0.017086 0.124537,0.032039 0.03415,0.014725 0.057653,-0.026392 0.052193,-0.054776 -0.0055,-0.074774 -0.030505,-0.1440442 -0.069245,-0.2087687 -0.0806,-0.1325699 -0.204575,-0.2314662 -0.333307,-0.3162535 -0.137444,-0.087773 -0.283953,-0.1841383 -0.371029,-0.3245216 -0.01732,-0.025945 -0.036636,-0.069087 -0.075446,-0.055293 -0.05395,0.017499 -0.083646,0.070691 -0.110069,0.1162697 -0.07435,0.1414817 -0.111688,0.2938534 -0.145208,0.4490593 -0.02756,0.1234902 -0.032884,0.2539865 -0.023254,0.3798143 0.01,0.1259002 0.018772,0.2534572 0.069762,0.3710292 0.03211,0.07726 0.088393,0.139524 0.144691,0.199984 0.03592,-0.03798 0.073325,-0.07855 0.110069,-0.115753 0.04762,-0.04781 0.107547,-0.07904 0.177246,-0.06976 0.09486,0.01221 0.18021,0.06959 0.25476,0.124538 0.105008,0.08166 0.203061,0.167207 0.310053,0.246492 0.1693,0.129382 0.356444,0.224386 0.548276,0.316253 0.159822,0.07422 0.32403,0.148409 0.489883,0.208769 0.0297,0.01297 0.062259,0.01193 0.092499,0.02274 0.298497,0.124142 0.549912,0.26866 0.756528,0.527606 2.97e-4,0.0035 -2.97e-4,0.01108 0,0.01447 0.0024,-0.0031 0.00638,-0.0052 0.00878,-0.0083 0.0024,0.003 0.00638,0.0052 0.00878,0.0083 0.0015,-0.0072 -0.0015,-0.01556 0,-0.02274 0.205969,-0.255942 0.459841,-0.395948 0.756528,-0.519338 0.03024,-0.01081 0.063316,-0.0098 0.093016,-0.02274 0.165853,-0.06036 0.330061,-0.134549 0.489883,-0.208769 0.1918315,-0.09187 0.3784595,-0.186871 0.5477595,-0.316253 0.106991,-0.07928 0.205043,-0.164834 0.310052,-0.246492 0.07455,-0.05495 0.160412,-0.112327 0.255277,-0.124538 0.0697,-0.0093 0.129106,0.02195 0.17673,0.06976 0.03675,0.0372 0.07415,0.07777 0.110068,0.115753 0.0563,-0.06046 0.11258,-0.12272 0.144691,-0.199984 0.05099,-0.117571 0.0598,-0.245129 0.06976,-0.3710291 0.0096,-0.1258274 0.0043,-0.256324 -0.02325,-0.3798143 -0.03352,-0.155206 -0.07034,-0.3075777 -0.144691,-0.4490593 -0.02642,-0.045579 -0.05612,-0.098771 -0.110069,-0.1162697 -0.03881,-0.013795 -0.05813,0.029348 -0.07545,0.055293 -0.08708,0.1403833 -0.233586,0.2367482 -0.371029,0.3245216 -0.128732,0.084787 -0.252711,0.1836834 -0.333307,0.3162535 -0.03874,0.064725 -0.06426,0.133994 -0.06976,0.2087687 -0.0055,0.028384 0.01804,0.069502 0.05219,0.054776 0.03961,-0.014953 0.07974,-0.039134 0.124538,-0.032039 0.0497,0.00826 0.07283,0.056673 0.07855,0.1018006 0.0045,0.059613 -0.04505,0.11172 -0.08733,0.147792 -0.09809,0.07931 -0.205488,0.138861 -0.315737,0.199984 -0.2618535,0.13981 -0.5348785,0.255439 -0.8206055,0.33899 -0.126522,0.03501 -0.206752,0.06894 -0.33899,0.06976 -0.113616,0.02025 -0.249076,-0.04166 -0.249076,-0.107485 V 7.2098741 h 1.113089 c 0.04289,0 0.092499,-0.037434 0.092499,-0.093016 V 6.8388444 c 0,-0.053985 -0.043229,-0.093016 -0.092499,-0.093016 H 8.7437315 V 6.4936524 C 9.0132405,6.3825077 9.2073535,6.127326 9.2072605,5.818255 9.2073815,5.408631 8.8756005,5.076196 8.4652015,5.076196 Z m -0.012402,0.314703 a 0.40474321,0.40474321 0 0 1 0.404618,0.404619 0.40474321,0.40474321 0 0 1 -0.404618,0.404618 0.40474321,0.40474321 0 0 1 -0.405136,-0.404618 0.40474321,0.40474321 0 0 1 0.405136,-0.404619 z m -3.437966,6.3168031 c -0.06669,0 -0.120404,0.05372 -0.120404,0.120403 v 0.966847 c 0,0.06669 0.053721,0.120404 0.120404,0.120404 h 0.966847 c 0.06669,0 0.119887,-0.05372 0.119887,-0.120404 v -0.966847 c 0,-0.06669 -0.053203,-0.120403 -0.119887,-0.120403 z m 1.948163,0 c -0.06668,0 -0.120403,0.05372 -0.120403,0.120403 v 0.966847 c 0,0.06669 0.05372,0.120404 0.120403,0.120404 h 0.966331 c 0.06669,0 0.120403,-0.05372 0.120403,-0.120404 v -0.966847 c 0,-0.06669 -0.05372,-0.120403 -0.120403,-0.120403 z m 2.040662,0 c -0.06668,0 -0.120403,0.05372 -0.120403,0.120403 v 0.966847 c 0,0.06669 0.05372,0.120404 0.120403,0.120404 h 0.966331 c 0.066687,0 0.1204025,-0.05372 0.1204025,-0.120404 v -0.966847 c 0,-0.06669 -0.05372,-0.120403 -0.1204025,-0.120403 z m 1.9481635,0 c -0.06668,0 -0.120404,0.05372 -0.120404,0.120403 v 0.966847 c 0,0.06669 0.05372,0.120404 0.120404,0.120404 h 0.96633 c 0.06669,0 0.120404,-0.05372 0.120404,-0.120404 v -0.966847 c 0,-0.06669 -0.05372,-0.120403 -0.120404,-0.120403 z"/>
  <path id="path3215-9-6-7" class="ColorScheme-Text" style="display:inline;overflow:visible;visibility:visible;fill:currentColor;fill-opacity:1;fill-rule:nonzero;stroke:none;stroke-width:0.0914086;stroke-linecap:butt;stroke-linejoin:miter;stroke-miterlimit:4;stroke-dashoffset:0;stroke-opacity:1;marker:none;enable-background:accumulate" d="m 8.4652065,4.5469199 c -0.410402,0 -0.742182,0.332435 -0.742059,0.742059 -9.3e-5,0.309071 0.194536,0.564253 0.464045,0.675397 v 0.252176 h -1.113089 c -0.04927,0 -0.09302,0.04063 -0.09302,0.09302 v 0.278014 c 0,0.05239 0.04054,0.09302 0.09302,0.09302 h 1.113089 V 10.11237 c 0,0.0953 -0.159332,0.09751 -0.249592,0.107485 -0.132237,-8.16e-4 -0.212469,-0.03476 -0.338991,-0.06976 -0.285727,-0.08355 -0.558752,-0.1991799 -0.820606,-0.3389906 -0.110248,-0.061123 -0.217642,-0.1206781 -0.315736,-0.1999839 -0.04228,-0.036071 -0.09132,-0.088179 -0.08682,-0.1477916 0.0057,-0.045128 0.02832,-0.093545 0.07803,-0.1018006 0.0448,-0.00709 0.08493,0.017086 0.124537,0.032039 0.03415,0.014725 0.05765,-0.026392 0.05219,-0.054776 -0.0055,-0.074774 -0.03051,-0.1440442 -0.06925,-0.2087687 -0.0806,-0.1325699 -0.204575,-0.2314662 -0.333307,-0.3162535 -0.137444,-0.087773 -0.283953,-0.1841383 -0.371029,-0.3245216 -0.01732,-0.025945 -0.03664,-0.069087 -0.07545,-0.055293 -0.05395,0.017499 -0.08365,0.070691 -0.110069,0.1162697 -0.07435,0.1414817 -0.111688,0.2938534 -0.145208,0.4490593 -0.02756,0.1234902 -0.03288,0.2539865 -0.02325,0.3798143 0.01,0.1259002 0.01877,0.2534574 0.06976,0.3710295 0.03211,0.077264 0.08839,0.1395236 0.144691,0.1999839 0.03592,-0.03798 0.07333,-0.07855 0.110069,-0.115753 0.04762,-0.047809 0.107547,-0.079042 0.177246,-0.069762 0.09486,0.012209 0.18021,0.069586 0.25476,0.1245378 0.105008,0.081657 0.203061,0.167207 0.310053,0.246492 0.1693,0.129382 0.356444,0.224386 0.548276,0.316253 0.159822,0.07422 0.32403,0.148409 0.489883,0.208769 0.0297,0.01297 0.06226,0.01193 0.0925,0.02274 0.298497,0.124142 0.549912,0.26866 0.756528,0.527606 2.97e-4,0.0036 -2.97e-4,0.01108 0,0.01447 0.0024,-0.0031 0.0064,-0.0052 0.0088,-0.0083 0.0024,0.003 0.0064,0.0052 0.0088,0.0083 0.0015,-0.0071 -0.0015,-0.01555 0,-0.02274 0.205969,-0.255942 0.459841,-0.395948 0.756528,-0.519338 0.03024,-0.01081 0.06332,-0.0098 0.09302,-0.02274 0.165853,-0.06036 0.330061,-0.134549 0.489883,-0.208769 0.1918325,-0.09187 0.3784605,-0.186871 0.5477605,-0.316253 0.106991,-0.07928 0.205043,-0.1648343 0.310052,-0.2464919 0.07455,-0.054952 0.160412,-0.1123273 0.255277,-0.1245378 0.0697,-0.00928 0.129106,0.021953 0.17673,0.069762 0.03675,0.037203 0.07415,0.077773 0.110068,0.115753 0.0563,-0.06046 0.11258,-0.1227205 0.144691,-0.1999839 0.05099,-0.1175717 0.0598,-0.2451297 0.06976,-0.3710295 0.0096,-0.1258274 0.0043,-0.256324 -0.02325,-0.3798143 -0.03352,-0.155206 -0.07034,-0.3075777 -0.144691,-0.4490593 -0.02642,-0.045579 -0.05612,-0.098771 -0.110069,-0.1162697 -0.03881,-0.013795 -0.05813,0.029348 -0.07545,0.055293 -0.08708,0.1403833 -0.233586,0.2367482 -0.371029,0.3245216 -0.128732,0.084787 -0.252711,0.1836834 -0.333307,0.3162535 -0.03874,0.064725 -0.06426,0.133994 -0.06976,0.2087687 -0.0055,0.028384 0.01804,0.069502 0.05219,0.054776 0.03961,-0.014953 0.07974,-0.039134 0.124538,-0.032039 0.0497,0.00826 0.07283,0.056673 0.07855,0.1018006 0.0045,0.059613 -0.04505,0.1117204 -0.08733,0.1477916 -0.09809,0.079306 -0.205488,0.1388609 -0.315737,0.1999839 -0.2618545,0.1398106 -0.5348795,0.2554395 -0.8206065,0.3389905 -0.126522,0.03501 -0.206752,0.06894 -0.33899,0.06976 -0.113616,0.02025 -0.249076,-0.04166 -0.249076,-0.107485 V 6.6806059 h 1.113089 c 0.04289,0 0.0925,-0.03743 0.0925,-0.09302 v -0.278013 c 0,-0.05399 -0.04323,-0.09302 -0.0925,-0.09302 h -1.113089 v -0.252177 c 0.269509,-0.111144 0.463622,-0.366326 0.463529,-0.675397 1.21e-4,-0.409624 -0.33166,-0.742059 -0.742059,-0.742059 z m -0.0124,0.314703 a 0.40474321,0.40474321 0 0 1 0.404618,0.404619 0.40474321,0.40474321 0 0 1 -0.404618,0.404618 0.40474321,0.40474321 0 0 1 -0.405136,-0.404618 0.40474321,0.40474321 0 0 1 0.405136,-0.404619 z m -3.437966,6.3168031 c -0.06669,0 -0.120404,0.05372 -0.120404,0.120403 v 0.966847 c 0,0.06669 0.05372,0.120404 0.120404,0.120404 h 0.966847 c 0.06669,0 0.119887,-0.05372 0.119887,-0.120404 v -0.966847 c 0,-0.06669 -0.0532,-0.120403 -0.119887,-0.120403 z m 1.948163,0 c -0.06668,0 -0.120403,0.05372 -0.120403,0.120403 v 0.966847 c 0,0.06669 0.05372,0.120404 0.120403,0.120404 h 0.966331 c 0.06669,0 0.120403,-0.05372 0.120403,-0.120404 v -0.966847 c 0,-0.06669 -0.05372,-0.120403 -0.120403,-0.120403 z m 2.040662,0 c -0.06668,0 -0.120403,0.05372 -0.120403,0.120403 v 0.966847 c 0,0.06669 0.05372,0.120404 0.120403,0.120404 h 0.966331 c 0.066688,0 0.1204025,-0.05372 0.1204025,-0.120404 v -0.966847 c 0,-0.06669 -0.05372,-0.120403 -0.1204025,-0.120403 z m 1.9481635,0 c -0.06668,0 -0.120404,0.05372 -0.120404,0.120403 v 0.966847 c 0,0.06669 0.05372,0.120404 0.120404,0.120404 h 0.96633 c 0.06669,0 0.120404,-0.05372 0.120404,-0.120404 v -0.966847 c 0,-0.06669 -0.05372,-0.120403 -0.120404,-0.120403 z"/>
<path id="gradient-path1" style="opacity:0.3;baseline-shift:baseline;display:inline;overflow:visible;vector-effect:none;enable-background:accumulate;stop-color:#000000;stop-opacity:1;fill:url(#linearGradient4)" d="M 8.4453131 1.2753492 C 4.4913166 1.2753492 1.2794833 4.4784283 1.2794833 8.4236094 C 1.2794833 12.36879 4.4913166 15.572386 8.4453131 15.572386 C 12.39931 15.572386 15.611143 12.36879 15.611143 8.4236094 C 15.611143 4.4784283 12.39931 1.2753492 8.4453131 1.2753492 z "/>
</svg>
