<?xml version="1.0" encoding="UTF-8" standalone="no"?>
<svg
   width="64"
   height="64"
   version="1.1"
   viewBox="0 0 16.933 16.933"
   id="svg7"
   sodipodi:docname="plasmadiscover.svg"
   inkscape:version="1.4.2 (ebf0e940d0, 2025-05-08)"
   xmlns:inkscape="http://www.inkscape.org/namespaces/inkscape"
   xmlns:sodipodi="http://sodipodi.sourceforge.net/DTD/sodipodi-0.dtd"
   xmlns:xlink="http://www.w3.org/1999/xlink"
   xmlns="http://www.w3.org/2000/svg"
   xmlns:svg="http://www.w3.org/2000/svg"
   xmlns:rdf="http://www.w3.org/1999/02/22-rdf-syntax-ns#"
   xmlns:cc="http://creativecommons.org/ns#"
   xmlns:dc="http://purl.org/dc/elements/1.1/">
  <sodipodi:namedview
     id="namedview7"
     pagecolor="#9c4444"
     bordercolor="#000000"
     borderopacity="0.25"
     inkscape:showpageshadow="2"
     inkscape:pageopacity="0.0"
     inkscape:pagecheckerboard="0"
     inkscape:deskcolor="#d1d1d1"
     inkscape:zoom="4.3531261"
     inkscape:cx="36.870055"
     inkscape:cy="26.188077"
     inkscape:window-width="2560"
     inkscape:window-height="1388"
     inkscape:window-x="0"
     inkscape:window-y="0"
     inkscape:window-maximized="1"
     inkscape:current-layer="svg7"
     showgrid="false" />
  <defs
     id="defs2">
    <filter
       style="color-interpolation-filters:sRGB;"
       inkscape:label="Blur"
       id="filter3"
       x="-0.10843471"
       y="-0.10870992"
       width="1.2168694"
       height="1.2174198">
      <feGaussianBlur
         stdDeviation="0.5 0.5"
         result="blur"
         id="feGaussianBlur3" />
    </filter>
    <filter
       style="color-interpolation-filters:sRGB"
       inkscape:label="Blur"
       id="filter3-8"
       x="-0.10843471"
       y="-0.10870992"
       width="1.2168694"
       height="1.2174198">
      <feGaussianBlur
         stdDeviation="0.5 0.5"
         result="blur"
         id="feGaussianBlur3-7" />
    </filter>
    <style
       id="current-color-scheme"
       type="text/css">.ColorScheme-Text {color:#d8dee9} .ColorScheme-Highlight {color:#3b4252}</style>
    <linearGradient
       id="linearGradient4"
       inkscape:collect="always">
      <stop
         style="stop-color:#000000;stop-opacity:1;"
         offset="0"
         id="stop4" />
      <stop
         style="stop-color:#000000;stop-opacity:0;"
         offset="1"
         id="stop5" />
    </linearGradient>
    <linearGradient
       inkscape:collect="always"
       xlink:href="#linearGradient4"
       id="linearGradient5"
       x1="14.157616"
       y1="14.109557"
       x2="3.4890218"
       y2="3.440964"
       gradientUnits="userSpaceOnUse" />
  </defs>
  <metadata
     id="metadata2">
    <rdf:RDF>
      <cc:Work
         rdf:about="">
        <dc:format>image/svg+xml</dc:format>
        <dc:type
           rdf:resource="http://purl.org/dc/dcmitype/StillImage" />
      </cc:Work>
    </rdf:RDF>
  </metadata>
  <ellipse
     style="opacity:1;fill:none;stroke:#000000;stroke-width:0.582072;stroke-dasharray:none;stroke-opacity:1;filter:url(#filter3)"
     id="path1-5"
     cx="8.4450111"
     cy="8.423522"
     rx="6.8752708"
     ry="6.8578653" />
  <ellipse
     style="opacity:1;fill:none;stroke-width:0.58207188;stroke-opacity:1;stroke:currentColor;stroke-dasharray:none;fill-opacity:1"
     id="path1"
     cx="8.4450111"
     cy="8.423522"
     rx="6.8752708"
     ry="6.8578653"
     class="ColorScheme-Text" />
  <ellipse
     style="fill:currentColor;stroke:none;stroke-width:0.285728;stroke-dasharray:none;stroke-opacity:1"
     id="path1-2"
     cx="8.4450111"
     cy="8.423522"
     rx="6.5766377"
     ry="6.5612183"
     class="ColorScheme-Highlight" />
  <path
     id="path5-67"
     style="opacity:0.3;fill:#000000;fill-opacity:1;stroke:none;stroke-width:0.217875;stroke-dasharray:none;stroke-opacity:0.3"
     d="m 7.4460935,5.8066961 -0.51033,0.5100762 v 0.7653684 h -2.041068 v 4.7196033 c 0,0.212009 0.170677,0.382684 0.382684,0.382684 H 11.65562 c 0.212008,0 0.382684,-0.170675 0.382684,-0.382684 V 7.0821407 H 9.9972375 V 6.3167723 L 9.4869065,5.8066961 Z m 0,0.5100762 h 2.040813 V 7.0821407 H 7.4460935 Z M 9.0022575,8.0842394 10.073264,9.155501 9.0022575,10.226763 8.6312705,9.8557749 9.3315455,9.155501 8.6312705,8.4549727 Z m -1.359609,0.041192 c 0.114123,0 0.205962,0.091842 0.205962,0.205963 0,0.1141213 -0.09184,0.2059629 -0.205962,0.2059629 -0.114124,0 -0.206217,-0.091842 -0.206217,-0.2059629 0,-0.1141214 0.09209,-0.205963 0.206217,-0.205963 z m -0.494565,1.1948395 c 0.159772,0 0.288348,0.1285788 0.288348,0.2883481 0,0.1597696 -0.128576,0.2883479 -0.288348,0.2883479 -0.159773,0 -0.288349,-0.1285783 -0.288349,-0.2883479 0,-0.1597693 0.128577,-0.2883481 0.288349,-0.2883481 z m 0.947683,1.1948391 c 0.228247,0 0.411926,0.183684 0.411926,0.411926 0,0.228243 -0.183679,0.411926 -0.411926,0.411926 -0.228247,0 -0.41218,-0.183683 -0.41218,-0.411926 0,-0.228242 0.183933,-0.411926 0.41218,-0.411926 z"
     class="ColorScheme-Text" />
  <path
     id="path5-67-3"
     style="fill:currentColor;fill-opacity:1;stroke:none;stroke-width:0.217875;stroke-dasharray:none;stroke-opacity:0.3"
     d="m 7.4460935,5.2776341 -0.51033,0.5100762 v 0.7653684 h -2.041068 v 4.7196033 c 0,0.212009 0.170677,0.382684 0.382684,0.382684 h 6.3782415 c 0.212007,0 0.382684,-0.170675 0.382684,-0.382684 V 6.5530787 H 9.9972375 V 5.7877103 L 9.4869065,5.2776341 Z m 0,0.5100762 h 2.040813 V 6.5530787 H 7.4460935 Z M 9.0022575,7.5551774 10.073265,8.626439 9.0022575,9.6977009 8.6312705,9.3267129 9.3315455,8.626439 8.6312705,7.9259107 Z m -1.359609,0.041192 c 0.114123,0 0.205962,0.091842 0.205962,0.205963 0,0.1141213 -0.09184,0.2059629 -0.205962,0.2059629 -0.114124,0 -0.206217,-0.091842 -0.206217,-0.2059629 0,-0.1141214 0.09209,-0.205963 0.206217,-0.205963 z m -0.494565,1.1948395 c 0.159772,0 0.288348,0.1285788 0.288348,0.2883481 0,0.1597696 -0.128576,0.2883479 -0.288348,0.2883479 -0.159773,0 -0.288349,-0.1285783 -0.288349,-0.2883479 0,-0.1597693 0.128577,-0.2883481 0.288349,-0.2883481 z m 0.947683,1.1948395 c 0.228247,0 0.411926,0.1836836 0.411926,0.4119256 0,0.228243 -0.183679,0.411926 -0.411926,0.411926 -0.228247,0 -0.41218,-0.183683 -0.41218,-0.411926 0,-0.228242 0.183933,-0.4119256 0.41218,-0.4119256 z"
     class="ColorScheme-Text" />
  <ellipse
     style="fill:none;stroke:#000000;stroke-width:0.582072;stroke-dasharray:none;stroke-opacity:1;filter:url(#filter3-8)"
     id="path1-5-7"
     cx="8.4450111"
     cy="8.423522"
     rx="6.8752708"
     ry="6.8578653"
     transform="matrix(0.4782969,0,0,0.4782969,8.9000071,8.8280171)" />
  <ellipse
     style="fill:currentColor;fill-opacity:1;stroke:currentColor;stroke-width:0.278402;stroke-dasharray:none;stroke-opacity:1"
     id="path1-59"
     cx="12.939234"
     cy="12.856965"
     rx="3.2884204"
     ry="3.2800953"
     class="ColorScheme-Text" />
  <ellipse
     style="fill:currentColor;stroke:none;stroke-width:0.246622;stroke-dasharray:none;stroke-opacity:1"
     id="path1-2-2"
     cx="12.939234"
     cy="12.856965"
     rx="2.9130225"
     ry="2.9056478"
     class="ColorScheme-Highlight" />
  <path
     style="fill:#000000;fill-opacity:1;stroke:none;stroke-width:0.233382;stroke-dasharray:none;stroke-opacity:0.3;opacity:0.3"
     d="m 12.889149,15.226408 c -0.05706,-0.03279 -1.413999,-1.28004 -1.628478,-1.496853 -0.151029,-0.152673 -0.161458,-0.227674 -0.04914,-0.35343 l 0.07817,-0.08755 0.591974,-0.009 0.591971,-0.009 v -0.651354 -0.651425 l 0.0749,-0.143381 c 0.229774,-0.439837 0.790609,-0.388347 0.958678,0.08801 0.02946,0.08348 0.03868,0.258842 0.03868,0.736172 v 0.626577 l 0.529423,0.0015 c 0.57451,0.0017 0.678417,0.02013 0.764301,0.136006 0.104554,0.141059 0.07873,0.172913 -0.803548,0.991127 -0.451434,0.418655 -0.85195,0.782221 -0.890038,0.807925 -0.07938,0.05357 -0.179237,0.05926 -0.256889,0.01465 z"
     id="path5-6" />
  <path
     style="opacity:1;fill:currentColor;fill-opacity:1;stroke:none;stroke-width:0.233382;stroke-dasharray:none;stroke-opacity:0.3"
     d="m 12.889149,14.697252 c -0.05706,-0.03279 -1.413999,-1.28004 -1.628478,-1.496853 -0.151029,-0.152673 -0.161458,-0.227674 -0.04914,-0.35343 l 0.07817,-0.08755 0.591974,-0.009 0.591971,-0.009 V 12.090065 11.43864 l 0.0749,-0.143381 c 0.229774,-0.439837 0.790609,-0.388347 0.958678,0.08801 0.02946,0.08348 0.03868,0.258842 0.03868,0.736172 v 0.626577 l 0.529423,0.0015 c 0.57451,0.0017 0.678417,0.02013 0.764301,0.136006 0.104554,0.141059 0.07873,0.172913 -0.803548,0.991127 -0.451434,0.418655 -0.85195,0.782221 -0.890038,0.807925 -0.07938,0.05357 -0.179237,0.05926 -0.256889,0.01465 z"
     id="path5"
     class="ColorScheme-Text" />
  <path
     id="gradient-path1"
     style="opacity:0.3;baseline-shift:baseline;display:inline;overflow:visible;vector-effect:none;enable-background:accumulate;stop-color:#000000;stop-opacity:1;fill:url(#linearGradient5)"
     d="M 8.4453131 1.2753492 C 4.4913166 1.2753492 1.2794833 4.4784283 1.2794833 8.4236094 C 1.2794833 12.36879 4.4913166 15.572386 8.4453131 15.572386 C 9.1638027 15.572386 9.8576697 15.466358 10.51233 15.269568 C 11.133159 15.890536 11.991864 16.275172 12.939524 16.275172 C 14.830708 16.275172 16.367154 14.744327 16.367154 12.85736 C 16.367154 11.897867 15.969699 11.029882 15.330545 10.408462 C 15.513101 9.7781514 15.611143 9.1121932 15.611143 8.4236094 C 15.611143 4.4784283 12.39931 1.2753492 8.4453131 1.2753492 z " />
</svg>
