<?xml version="1.0" encoding="UTF-8" standalone="no"?>
<svg
   width="64"
   height="64"
   version="1.1"
   viewBox="0 0 16.933 16.933"
   id="svg7"
   sodipodi:docname="pragha.svg"
   inkscape:version="1.4.2 (ebf0e940d0, 2025-05-08)"
   xmlns:inkscape="http://www.inkscape.org/namespaces/inkscape"
   xmlns:sodipodi="http://sodipodi.sourceforge.net/DTD/sodipodi-0.dtd"
   xmlns:xlink="http://www.w3.org/1999/xlink"
   xmlns="http://www.w3.org/2000/svg"
   xmlns:svg="http://www.w3.org/2000/svg"
   xmlns:rdf="http://www.w3.org/1999/02/22-rdf-syntax-ns#"
   xmlns:cc="http://creativecommons.org/ns#"
   xmlns:dc="http://purl.org/dc/elements/1.1/">
  <sodipodi:namedview
     id="namedview7"
     pagecolor="#9c4444"
     bordercolor="#000000"
     borderopacity="0.25"
     inkscape:showpageshadow="2"
     inkscape:pageopacity="0.0"
     inkscape:pagecheckerboard="0"
     inkscape:deskcolor="#d1d1d1"
     inkscape:zoom="4.3531261"
     inkscape:cx="36.870055"
     inkscape:cy="26.188077"
     inkscape:window-width="2560"
     inkscape:window-height="1392"
     inkscape:window-x="0"
     inkscape:window-y="0"
     inkscape:window-maximized="1"
     inkscape:current-layer="svg7"
     showgrid="false" />
  <defs
     id="defs2">
    <filter
       style="color-interpolation-filters:sRGB;"
       inkscape:label="Blur"
       id="filter3"
       x="-0.10843471"
       y="-0.10870992"
       width="1.2168694"
       height="1.2174198">
      <feGaussianBlur
         stdDeviation="0.5 0.5"
         result="blur"
         id="feGaussianBlur3" />
    </filter>
    <style
       id="current-color-scheme"
       type="text/css">.ColorScheme-Text {color:#d8dee9} .ColorScheme-Highlight {color:#3b4252}</style>
    <linearGradient
       id="linearGradient3"
       inkscape:collect="always">
      <stop
         style="stop-color:#000000;stop-opacity:1;"
         offset="0"
         id="stop3" />
      <stop
         style="stop-color:#000000;stop-opacity:0;"
         offset="1"
         id="stop4" />
    </linearGradient>
    <linearGradient
       inkscape:collect="always"
       xlink:href="#linearGradient3"
       id="linearGradient4"
       x1="13.512321"
       y1="13.490874"
       x2="3.3783066"
       y2="3.3568602"
       gradientUnits="userSpaceOnUse" />
  </defs>
  <metadata
     id="metadata2">
    <rdf:RDF>
      <cc:Work
         rdf:about="">
        <dc:format>image/svg+xml</dc:format>
        <dc:type
           rdf:resource="http://purl.org/dc/dcmitype/StillImage" />
      </cc:Work>
    </rdf:RDF>
  </metadata>
  <ellipse
     style="opacity:1;fill:none;stroke:#000000;stroke-width:0.582072;stroke-dasharray:none;stroke-opacity:1;filter:url(#filter3)"
     id="path1-5"
     cx="8.4450111"
     cy="8.423522"
     rx="6.8752708"
     ry="6.8578653" />
  <ellipse
     style="opacity:1;fill:none;stroke-width:0.58207188;stroke-opacity:1;stroke:currentColor;stroke-dasharray:none;fill-opacity:1"
     id="path1"
     cx="8.4450111"
     cy="8.423522"
     rx="6.8752708"
     ry="6.8578653"
     class="ColorScheme-Text" />
  <ellipse
     style="fill:currentColor;stroke:none;stroke-width:0.285844;stroke-dasharray:none;stroke-opacity:1"
     id="path1-2"
     cx="8.4557552"
     cy="8.423522"
     rx="6.5738997"
     ry="6.5692253"
     class="ColorScheme-Highlight" />
  <path
     id="path5"
     style="opacity:0.3;fill:#000000;fill-opacity:1;stroke-width:0.071533"
     d="m 10.477101,5.0269862 c -0.151384,-7.36e-4 -0.468327,0.219535 -0.7176111,0.349305 -0.154877,0.08062 -0.990719,-0.04621 -1.677487,0.15391 -0.662187,0.192952 -1.183955,0.471493 -1.639802,1.0875 -0.309155,0.417777 -0.623087,0.897889 -0.601387,1.687621 0.01035,0.376475 0.168959,0.682308 0.308136,1.007695 0.07273,0.17005 -0.04681,0.345039 -0.175761,0.452862 -0.280331,0.2344038 -0.585607,0.5760898 -0.694809,0.8480848 -0.04418,0.110056 -0.109786,0.298312 -0.133326,0.507965 -0.0284,0.25295 -0.0045,0.536896 0.07505,0.752763 0.143987,0.390616 0.484994,0.718307 0.85347,0.912056 0.306771,0.161288 0.686352,0.211858 1.02828,0.155176 0.388032,-0.06432 0.761164,-0.273538 1.047281,-0.543433 0.432386,-0.40787 0.584166,-1.015245 0.91174,-1.532445 0.09969,-0.157394 0.310957,-0.291614 0.520949,-0.365139 0.386581,-0.135354 0.5293041,-0.191925 0.8759541,-0.43006 0.41463,-0.2848338 0.833302,-0.6314388 1.047598,-1.0865498 0.268914,-0.571103 0.384935,-1.274332 0.21313,-1.881749 -0.161175,-0.569831 -1.020632,-1.336657 -1.095102,-1.398804 -0.184108,-0.153643 -0.42436,-0.287584 -0.146308,-0.676758 z m -1.8858671,0.860753 c 0.121916,0.002 0.240256,0.02258 0.343605,0.08012 0.111319,0.06198 0.199695,0.243382 0.144092,0.360072 -0.107609,0.225824 -0.357009,0.697138 -0.48358,1.022263 -0.268573,0.689896 -0.345375,1.326956 -0.455711,2.002724 -0.09294,0.569227 -0.177042,1.1229708 -0.417076,1.6296668 -0.149496,0.315574 -0.342537,0.632564 -0.620705,0.843653 -0.203776,0.154634 -0.395649,0.240473 -0.640339,0.252399 -0.110388,0.0054 -0.28358,-0.02778 -0.393008,-0.08551 -0.11523,-0.06079 -0.212978,-0.156003 -0.256833,-0.2638 -0.09251,-0.227385 -0.02826,-0.467173 0.162777,-0.621338 0.193752,-0.156355 0.460705,-0.05707 0.748963,-0.10609 0.137412,-0.02337 0.276891,-0.08919 0.371789,-0.191279 0.102283,-0.110036 0.180633,-0.264677 0.176711,-0.414858 -0.006,-0.232077 -0.124063,-0.4537978 -0.305918,-0.6257728 -0.445085,-0.420901 -0.758716,-0.813585 -0.843969,-1.318998 -0.06117,-0.362664 0.03103,-0.792221 0.184311,-1.144504 0.165662,-0.380735 0.42903,-0.712553 0.756563,-0.950692 0.335141,-0.243668 0.754141,-0.376443 1.164139,-0.436394 0.117041,-0.01712 0.242273,-0.03368 0.364189,-0.03167 z m 1.217975,0.401875 c 0.01147,4.03e-4 0.02288,0.0027 0.03357,0.0067 0.5034931,0.185228 0.7329141,0.776307 0.8230671,1.303163 0.08726,0.509959 0.0077,1.121729 -0.315735,1.625235 -0.139924,0.217846 -0.288168,0.36498 -0.5142991,0.473446 -0.279909,0.134259 -0.570624,0.136719 -0.582703,-0.08234 -0.03811,-0.691095 0.0636,-1.182045 0.130158,-1.769643 0.06935,-0.612291 0.198411,-1.185898 0.301802,-1.467524 0.01996,-0.05436 0.0666,-0.08546 0.11274,-0.08867 0.0038,-2.67e-4 0.0076,-4.51e-4 0.0114,-3.17e-4 z" />
  <path
     id="path5-7"
     style="fill:currentColor;stroke-width:0.071533"
     d="m 10.477101,4.4978302 c -0.151384,-7.36e-4 -0.468327,0.219535 -0.7176111,0.349305 -0.154877,0.08062 -0.990719,-0.04621 -1.677487,0.15391 -0.662187,0.192952 -1.183955,0.471493 -1.639802,1.0875 -0.309155,0.417777 -0.623087,0.897889 -0.601387,1.687621 0.01035,0.376475 0.168959,0.682308 0.308136,1.007695 0.07273,0.17005 -0.04681,0.345039 -0.175761,0.452862 -0.280331,0.234404 -0.585607,0.57609 -0.694809,0.8480848 -0.04418,0.110056 -0.109786,0.298312 -0.133326,0.507965 -0.0284,0.25295 -0.0045,0.536896 0.07505,0.752763 0.143987,0.390616 0.484994,0.718307 0.85347,0.912056 0.306771,0.161288 0.686352,0.211858 1.02828,0.155176 0.388032,-0.06432 0.761164,-0.273538 1.047281,-0.543433 0.432386,-0.40787 0.584166,-1.015245 0.91174,-1.532445 0.09969,-0.157394 0.310957,-0.291614 0.520949,-0.3651388 0.386581,-0.135354 0.5293041,-0.191925 0.8759541,-0.43006 0.41463,-0.284834 0.833302,-0.631439 1.047598,-1.08655 0.268914,-0.571103 0.384935,-1.274332 0.21313,-1.881749 -0.161175,-0.569831 -1.020632,-1.336657 -1.095102,-1.398804 -0.184108,-0.153643 -0.42436,-0.287584 -0.146308,-0.676758 z m -1.8858671,0.860753 c 0.121916,0.002 0.240256,0.02258 0.343605,0.08012 0.111319,0.06198 0.199695,0.243382 0.144092,0.360072 -0.107609,0.225824 -0.357009,0.697138 -0.48358,1.022263 -0.268573,0.689896 -0.345375,1.326956 -0.455711,2.002724 -0.09294,0.569227 -0.177042,1.122971 -0.417076,1.6296668 -0.149496,0.315574 -0.342537,0.632564 -0.620705,0.843653 -0.203776,0.154634 -0.395649,0.240473 -0.640339,0.252399 -0.110388,0.0054 -0.28358,-0.02778 -0.393008,-0.08551 -0.11523,-0.06079 -0.212978,-0.156003 -0.256833,-0.2638 -0.09251,-0.227385 -0.02826,-0.467173 0.162777,-0.621338 0.193752,-0.156355 0.460705,-0.05707 0.748963,-0.10609 0.137412,-0.02337 0.276891,-0.08919 0.371789,-0.191279 0.102283,-0.110036 0.180633,-0.264677 0.176711,-0.4148578 -0.006,-0.232077 -0.124063,-0.453798 -0.305918,-0.625773 -0.445085,-0.420901 -0.758716,-0.813585 -0.843969,-1.318998 -0.06117,-0.362664 0.03103,-0.792221 0.184311,-1.144504 0.165662,-0.380735 0.42903,-0.712553 0.756563,-0.950692 0.335141,-0.243668 0.754141,-0.376443 1.164139,-0.436394 0.117041,-0.01712 0.242273,-0.03368 0.364189,-0.03167 z m 1.217975,0.401875 c 0.01147,4.03e-4 0.02288,0.0027 0.03357,0.0067 0.5034931,0.185228 0.7329141,0.776307 0.8230671,1.303163 0.08726,0.509959 0.0077,1.121729 -0.315735,1.625235 -0.139924,0.217846 -0.288168,0.36498 -0.5142991,0.473446 -0.279909,0.134259 -0.570624,0.136719 -0.582703,-0.08234 -0.03811,-0.691095 0.0636,-1.182045 0.130158,-1.769643 0.06935,-0.612291 0.198411,-1.185898 0.301802,-1.467524 0.01996,-0.05436 0.0666,-0.08546 0.11274,-0.08867 0.0038,-2.67e-4 0.0076,-4.51e-4 0.0114,-3.17e-4 z"
     class="ColorScheme-Text" />
  <path
     id="gradient-path1"
     style="opacity:0.3;baseline-shift:baseline;display:inline;overflow:visible;vector-effect:none;enable-background:accumulate;stop-color:#000000;stop-opacity:1;fill:url(#linearGradient4)"
     d="M 8.4453131 1.2753492 C 4.4913166 1.2753492 1.2794833 4.4784283 1.2794833 8.4236094 C 1.2794833 12.36879 4.4913166 15.572386 8.4453131 15.572386 C 12.39931 15.572386 15.611143 12.36879 15.611143 8.4236094 C 15.611143 4.4784283 12.39931 1.2753492 8.4453131 1.2753492 z " />
</svg>
