<?xml version="1.0" encoding="UTF-8" standalone="no"?>
<svg
   width="64"
   height="64"
   version="1.1"
   viewBox="0 0 16.933 16.933"
   id="svg7"
   sodipodi:docname="pycharm.svg"
   inkscape:version="1.4.2 (ebf0e940d0, 2025-05-08)"
   xmlns:inkscape="http://www.inkscape.org/namespaces/inkscape"
   xmlns:sodipodi="http://sodipodi.sourceforge.net/DTD/sodipodi-0.dtd"
   xmlns:xlink="http://www.w3.org/1999/xlink"
   xmlns="http://www.w3.org/2000/svg"
   xmlns:svg="http://www.w3.org/2000/svg"
   xmlns:rdf="http://www.w3.org/1999/02/22-rdf-syntax-ns#"
   xmlns:cc="http://creativecommons.org/ns#"
   xmlns:dc="http://purl.org/dc/elements/1.1/">
  <sodipodi:namedview
     id="namedview7"
     pagecolor="#9c4444"
     bordercolor="#000000"
     borderopacity="0.25"
     inkscape:showpageshadow="2"
     inkscape:pageopacity="0.0"
     inkscape:pagecheckerboard="0"
     inkscape:deskcolor="#d1d1d1"
     inkscape:zoom="8.7062522"
     inkscape:cx="73.338101"
     inkscape:cy="29.059576"
     inkscape:window-width="2560"
     inkscape:window-height="1388"
     inkscape:window-x="0"
     inkscape:window-y="0"
     inkscape:window-maximized="1"
     inkscape:current-layer="svg7"
     showgrid="false" />
  <defs
     id="defs2">
    <filter
       style="color-interpolation-filters:sRGB;"
       inkscape:label="Blur"
       id="filter3"
       x="-0.10843471"
       y="-0.10870992"
       width="1.2168694"
       height="1.2174198">
      <feGaussianBlur
         stdDeviation="0.5 0.5"
         result="blur"
         id="feGaussianBlur3" />
    </filter>
    <style
       id="current-color-scheme"
       type="text/css">.ColorScheme-Text {color:#d8dee9} .ColorScheme-Highlight {color:#3b4252}</style>
    <linearGradient
       id="linearGradient3"
       inkscape:collect="always">
      <stop
         style="stop-color:#000000;stop-opacity:1;"
         offset="0"
         id="stop3" />
      <stop
         style="stop-color:#000000;stop-opacity:0;"
         offset="1"
         id="stop4" />
    </linearGradient>
    <linearGradient
       inkscape:collect="always"
       xlink:href="#linearGradient3"
       id="linearGradient4"
       x1="13.512321"
       y1="13.490874"
       x2="3.3783066"
       y2="3.3568602"
       gradientUnits="userSpaceOnUse" />
  </defs>
  <metadata
     id="metadata2">
    <rdf:RDF>
      <cc:Work
         rdf:about="">
        <dc:format>image/svg+xml</dc:format>
        <dc:type
           rdf:resource="http://purl.org/dc/dcmitype/StillImage" />
      </cc:Work>
    </rdf:RDF>
  </metadata>
  <ellipse
     style="opacity:1;fill:none;stroke:#000000;stroke-width:0.582072;stroke-dasharray:none;stroke-opacity:1;filter:url(#filter3)"
     id="path1-5"
     cx="8.4450111"
     cy="8.423522"
     rx="6.8752708"
     ry="6.8578653" />
  <ellipse
     style="opacity:1;fill:none;stroke-width:0.58207188;stroke-opacity:1;stroke:currentColor;stroke-dasharray:none;fill-opacity:1"
     id="path1"
     cx="8.4450111"
     cy="8.423522"
     rx="6.8752708"
     ry="6.8578653"
     class="ColorScheme-Text" />
  <ellipse
     style="fill:currentColor;stroke:none;stroke-width:0.285844;stroke-dasharray:none;stroke-opacity:1"
     id="path1-2"
     cx="8.4557552"
     cy="8.423522"
     rx="6.5738997"
     ry="6.5692253"
     class="ColorScheme-Highlight" />
  <path
     id="path5-3"
     style="opacity:0.3;fill:#000000;fill-opacity:1;stroke-width:0.720611;paint-order:stroke fill markers"
     d="M 8.4665,5.0269844 A 4.0395411,3.9686717 0 0 0 4.426959,8.9956562 4.0395411,3.9686717 0 0 0 8.4665,12.964328 4.0395411,3.9686717 0 0 0 12.506041,8.9956562 4.0395411,3.9686717 0 0 0 8.4665,5.0269844 Z M 6.54279,6.1608907 h 3.847421 c 0.532838,0 0.961715,0.4213391 0.961715,0.9448296 v 3.7798717 c 0,0.523491 -0.428877,0.94483 -0.961715,0.94483 H 6.54279 c -0.532839,0 -0.961716,-0.421339 -0.961716,-0.94483 V 7.1057203 c 0,-0.5234905 0.428877,-0.9448296 0.961716,-0.9448296 z M 6.208376,6.7771199 v 2.440556 h 0.451792 v -0.887525 h 0.451514 c 0.543648,0 0.903304,-0.2180023 0.903304,-0.7654423 v -0.011072 c 0,-0.494052 -0.245267,-0.7765154 -0.829667,-0.7765154 z m 3.387324,0 c -0.747518,0 -1.1292,0.5260298 -1.1292,1.20699 h 2.99e-4 c 0,0.6809957 0.408617,1.2469273 1.128922,1.233566 0.462051,0 0.742557,-0.178657 0.987186,-0.4457003 L 10.273132,8.4621998 c -0.190278,0.1735786 -0.405598,0.3117134 -0.677411,0.3117134 -0.419018,0 -0.674635,-0.3850589 -0.677408,-0.7964472 0.0028,-0.4110469 0.271856,-0.7565833 0.677408,-0.7565833 0.244639,0 0.451709,0.089136 0.641976,0.2627141 l 0.29511,-0.3474249 C 10.301759,6.9091853 10.057811,6.7771199 9.59573,6.7771199 Z M 6.660168,7.2208827 h 0.451514 c 0.271815,0 0.451513,0.092416 0.451513,0.3327526 v 0.011072 c 0,0.2002861 -0.179698,0.3216794 -0.451513,0.3216794 H 6.660168 Z M 5.982481,10.770983 v 0.443763 h 2.258123 v -0.443763 z" />
  <path
     id="path5-3-7"
     style="fill:currentColor;stroke-width:0.720611;paint-order:stroke fill markers"
     d="M 8.4665,4.4978281 A 4.0395411,3.9686717 0 0 0 4.426959,8.4664999 4.0395411,3.9686717 0 0 0 8.4665,12.435172 4.0395411,3.9686717 0 0 0 12.506041,8.4664999 4.0395411,3.9686717 0 0 0 8.4665,4.4978281 Z M 6.54279,5.6317344 h 3.847421 c 0.532838,0 0.961715,0.4213391 0.961715,0.9448296 v 3.779872 c 0,0.52349 -0.428877,0.94483 -0.961715,0.94483 H 6.54279 c -0.532839,0 -0.961716,-0.42134 -0.961716,-0.94483 V 6.576564 c 0,-0.5234905 0.428877,-0.9448296 0.961716,-0.9448296 z M 6.208376,6.2479636 v 2.440556 h 0.451792 v -0.887525 h 0.451514 c 0.543648,0 0.903304,-0.2180023 0.903304,-0.7654423 v -0.011072 c 0,-0.494052 -0.245267,-0.7765154 -0.829667,-0.7765154 z m 3.387324,0 c -0.747518,0 -1.1292,0.5260298 -1.1292,1.20699 h 2.99e-4 c 0,0.6809957 0.408617,1.2469273 1.128922,1.233566 0.462051,0 0.742557,-0.178657 0.987186,-0.4457003 L 10.273132,7.9330435 c -0.190278,0.1735786 -0.405598,0.3117134 -0.677411,0.3117134 -0.419018,0 -0.674635,-0.3850589 -0.677408,-0.7964472 0.0028,-0.4110469 0.271856,-0.7565833 0.677408,-0.7565833 0.244639,0 0.451709,0.089136 0.641976,0.2627141 l 0.29511,-0.3474249 C 10.301759,6.380029 10.057811,6.2479636 9.59573,6.2479636 Z M 6.660168,6.6917264 h 0.451514 c 0.271815,0 0.451513,0.092416 0.451513,0.3327526 v 0.011072 c 0,0.2002861 -0.179698,0.3216794 -0.451513,0.3216794 H 6.660168 Z M 5.982481,10.241827 v 0.443763 h 2.258123 v -0.443763 z"
     class="ColorScheme-Text" />
  <path
     id="gradient-path1"
     style="opacity:0.3;baseline-shift:baseline;display:inline;overflow:visible;vector-effect:none;enable-background:accumulate;stop-color:#000000;stop-opacity:1;fill:url(#linearGradient4)"
     d="M 8.4453131 1.2753492 C 4.4913166 1.2753492 1.2794833 4.4784283 1.2794833 8.4236094 C 1.2794833 12.36879 4.4913166 15.572386 8.4453131 15.572386 C 12.39931 15.572386 15.611143 12.36879 15.611143 8.4236094 C 15.611143 4.4784283 12.39931 1.2753492 8.4453131 1.2753492 z " />
</svg>
