<?xml version="1.0" encoding="UTF-8" standalone="no"?>
<svg
   width="64"
   height="64"
   version="1.1"
   viewBox="0 0 16.933 16.933"
   id="svg7"
   sodipodi:docname="qemu.svg"
   inkscape:version="1.4.2 (ebf0e940d0, 2025-05-08)"
   xmlns:inkscape="http://www.inkscape.org/namespaces/inkscape"
   xmlns:sodipodi="http://sodipodi.sourceforge.net/DTD/sodipodi-0.dtd"
   xmlns:xlink="http://www.w3.org/1999/xlink"
   xmlns="http://www.w3.org/2000/svg"
   xmlns:svg="http://www.w3.org/2000/svg"
   xmlns:rdf="http://www.w3.org/1999/02/22-rdf-syntax-ns#"
   xmlns:cc="http://creativecommons.org/ns#"
   xmlns:dc="http://purl.org/dc/elements/1.1/">
  <sodipodi:namedview
     id="namedview7"
     pagecolor="#9c4444"
     bordercolor="#000000"
     borderopacity="0.25"
     inkscape:showpageshadow="2"
     inkscape:pageopacity="0.0"
     inkscape:pagecheckerboard="0"
     inkscape:deskcolor="#d1d1d1"
     inkscape:zoom="4.3531261"
     inkscape:cx="36.066035"
     inkscape:cy="26.647517"
     inkscape:window-width="2560"
     inkscape:window-height="1392"
     inkscape:window-x="0"
     inkscape:window-y="0"
     inkscape:window-maximized="1"
     inkscape:current-layer="svg7"
     showgrid="false" />
  <defs
     id="defs2">
    <filter
       style="color-interpolation-filters:sRGB;"
       inkscape:label="Blur"
       id="filter3"
       x="-0.10843471"
       y="-0.10870992"
       width="1.2168694"
       height="1.2174198">
      <feGaussianBlur
         stdDeviation="0.5 0.5"
         result="blur"
         id="feGaussianBlur3" />
    </filter>
    <style
       id="current-color-scheme"
       type="text/css">.ColorScheme-Text {color:#d8dee9} .ColorScheme-Highlight {color:#3b4252}</style>
    <linearGradient
       id="linearGradient3"
       inkscape:collect="always">
      <stop
         style="stop-color:#000000;stop-opacity:1;"
         offset="0"
         id="stop3" />
      <stop
         style="stop-color:#000000;stop-opacity:0;"
         offset="1"
         id="stop4" />
    </linearGradient>
    <linearGradient
       inkscape:collect="always"
       xlink:href="#linearGradient3"
       id="linearGradient4"
       x1="13.512321"
       y1="13.490874"
       x2="3.3783066"
       y2="3.3568602"
       gradientUnits="userSpaceOnUse" />
  </defs>
  <metadata
     id="metadata2">
    <rdf:RDF>
      <cc:Work
         rdf:about="">
        <dc:format>image/svg+xml</dc:format>
        <dc:type
           rdf:resource="http://purl.org/dc/dcmitype/StillImage" />
      </cc:Work>
    </rdf:RDF>
  </metadata>
  <ellipse
     style="opacity:1;fill:none;stroke:#000000;stroke-width:0.582072;stroke-dasharray:none;stroke-opacity:1;filter:url(#filter3)"
     id="path1-5"
     cx="8.4450111"
     cy="8.423522"
     rx="6.8752708"
     ry="6.8578653" />
  <ellipse
     style="opacity:1;fill:none;stroke-width:0.58207188;stroke-opacity:1;stroke:currentColor;stroke-dasharray:none;fill-opacity:1"
     id="path1"
     cx="8.4450111"
     cy="8.423522"
     rx="6.8752708"
     ry="6.8578653"
     class="ColorScheme-Text" />
  <ellipse
     style="fill:currentColor;stroke:none;stroke-width:0.285844;stroke-dasharray:none;stroke-opacity:1"
     id="path1-2"
     cx="8.4557552"
     cy="8.423522"
     rx="6.5738997"
     ry="6.5692253"
     class="ColorScheme-Highlight" />
  <path
     d="m 8.4674899,5.0481506 c -2.191698,0 -3.969662,1.7670504 -3.969662,3.9475033 0,2.1804531 1.777964,3.9475041 3.969662,3.9475041 0.717337,0 1.389034,-0.188512 1.9694521,-0.519235 l 0.206371,0.519235 h 1.601028 l -0.626058,-1.547451 a 3.9174078,3.9174078 0 0 0 0.816885,-2.4000531 c 0,-2.1804529 -1.77598,-3.9475033 -3.9676781,-3.9475033 z m -1.053351,0.6502008 c 0.131627,0.1121145 0.107154,0.065483 0.284421,0.044315 0.201741,-0.131297 0.295336,0.3115403 0.379339,0.064491 0.247381,0.032077 0.509974,0.1124451 0.744126,0.1931417 a 1.1400004,1.1400004 0 0 1 0.614812,0.3730551 l -0.0046,0.00232 0.115752,0.1531245 c 0.01488,0.026457 0.02712,0.054238 0.03968,0.082019 0.04696,0.3985206 0.4894701,0.3935598 0.7861281,0.5374245 0.253664,0.089956 0.558921,0.2268753 0.59034,0.5327938 -0.06383,-0.013891 -0.31121,-0.3045956 -0.506006,-0.3330379 A 1.2961014,1.2961014 0 0 1 10.09632,7.2636641 L 9.4123869,7.1369973 v -0.00232 a 1.0037427,1.0037427 0 0 1 -0.102193,-0.01753 v 0.0043 L 8.3421689,7.0017258 c 0.01587,0.010913 0.03307,0.025466 0.04894,0.039685 l 0.992167,0.1934722 v -0.00232 l 0.06912,0.01753 0.277476,0.062176 c 0.0549,0.00526 0.110462,0.014219 0.15544,0.02216 0.2830991,0.07805 0.6177891,0.06416 0.8502881,0.2619323 -0.06085,0.1164141 -0.400175,0.050598 -0.568512,0.035717 -0.02051,-0.00396 -0.04332,-0.00761 -0.06416,-0.011247 l -0.01125,-0.00232 C 9.8614949,7.5811413 9.6250289,7.5788263 9.4034439,7.6476173 h -0.0023 a 1.0559969,1.0559969 0 0 0 -0.221915,0.099878 C 8.8590899,7.933692 8.4635459,8.0011592 8.1979759,8.2690445 7.9376969,8.5491664 7.9535719,8.9344581 7.9982199,9.2926309 h 0.01091 v 0.090949 c 0.0043,0.031421 0.0093,0.062837 0.01323,0.093263 0.135596,0.7242831 0.496084,1.3890341 0.608529,2.1205931 0.0215,0.278799 0.06714,0.638956 0.102194,0.865831 -0.101249,-0.0301 -0.157142,-0.483516 -0.179961,-0.333037 A 12.632276,12.632276 0 0 0 7.3740959,10.393936 C 7.0919899,10.06189 6.8128599,9.7126472 6.4771769,9.4368249 6.2506319,9.2622034 6.3223989,8.9242047 6.2995789,8.6755019 c -0.07607,-0.3062491 -0.03109,-0.6111753 0.01985,-0.9170936 0.103516,-0.3184856 0.138242,-0.6508618 0.279791,-0.9567797 0.215962,-0.19215 0.221254,-0.539078 0.430932,-0.7060925 0.03109,0.019183 0.05192,0.028109 0.06615,0.033074 l 0.02249,0.00266 h 0.0023 c 0.02976,-0.031421 -0.293682,-0.3690861 0.0066,-0.2354746 0.01158,-0.1775977 0.282437,-0.042334 0.286406,-0.1974413 z m 1.272289,0.7216363 c -0.106823,0.003 -0.189834,0.042996 -0.213316,0.1107917 -0.0377,0.1091383 0.09029,0.2496957 0.286406,0.317494 0.196449,0.067798 0.386284,0.036051 0.423986,-0.07309 0.0377,-0.1091383 -0.08996,-0.2520102 -0.286406,-0.3198085 a 0.60919082,0.60919082 0 0 0 -0.21067,-0.035389 z"
     id="path5"
     style="opacity:0.3;fill:#000000;fill-opacity:1;stroke-width:0.330722" />
  <path
     d="m 8.4674899,4.518996 c -2.191698,0 -3.969662,1.767051 -3.969662,3.947503 0,2.180454 1.777964,3.947505 3.969662,3.947505 0.717337,0 1.389034,-0.188512 1.9694521,-0.519235 l 0.206371,0.519235 h 1.601028 l -0.626058,-1.547451 a 3.9174078,3.9174078 0 0 0 0.816885,-2.400054 c 0,-2.180452 -1.77598,-3.947503 -3.9676781,-3.947503 z m -1.053351,0.650201 c 0.131627,0.112114 0.107154,0.06548 0.284421,0.04431 0.201741,-0.131297 0.295336,0.31154 0.379339,0.06449 0.247381,0.03208 0.509974,0.112445 0.744126,0.193142 a 1.1400004,1.1400004 0 0 1 0.614812,0.373055 l -0.0046,0.0023 0.115752,0.153124 c 0.01488,0.02646 0.02712,0.05424 0.03968,0.08202 0.04696,0.398521 0.4894701,0.39356 0.7861281,0.537425 0.253664,0.08996 0.558921,0.226875 0.59034,0.532794 -0.06383,-0.01389 -0.31121,-0.304596 -0.506006,-0.333038 A 1.2961014,1.2961014 0 0 1 10.09632,6.734489 L 9.4123869,6.607822 v -0.0023 a 1.0037427,1.0037427 0 0 1 -0.102193,-0.01753 v 0.0043 L 8.3421689,6.47257 c 0.01587,0.01091 0.03307,0.02547 0.04894,0.03969 l 0.992167,0.193472 v -0.0023 l 0.06912,0.01753 0.277476,0.06218 c 0.0549,0.0053 0.110462,0.01422 0.15544,0.02216 0.2830991,0.07805 0.6177891,0.06416 0.8502881,0.261933 -0.06085,0.116414 -0.400175,0.0506 -0.568512,0.03572 -0.02051,-0.004 -0.04332,-0.0076 -0.06416,-0.01125 l -0.01125,-0.0023 C 9.8614949,7.052035 9.6250289,7.049715 9.4034439,7.118515 h -0.0023 a 1.0559969,1.0559969 0 0 0 -0.221915,0.09988 C 8.8590899,7.404592 8.4635459,7.472059 8.1979759,7.739944 7.9376969,8.020066 7.9535719,8.405358 7.9982199,8.76353 h 0.01091 v 0.09095 c 0.0043,0.03142 0.0093,0.06284 0.01323,0.09326 0.135596,0.724283 0.496084,1.389035 0.608529,2.120594 0.0215,0.278799 0.06714,0.638956 0.102194,0.865831 -0.101249,-0.0301 -0.157142,-0.483516 -0.179961,-0.333037 A 12.632276,12.632276 0 0 0 7.3740959,9.864782 C 7.0919899,9.532736 6.8128599,9.183493 6.4771769,8.90767 6.2506319,8.733049 6.3223989,8.39505 6.2995789,8.146347 c -0.07607,-0.306249 -0.03109,-0.611175 0.01985,-0.917093 0.103516,-0.318486 0.138242,-0.650862 0.279791,-0.95678 0.215962,-0.19215 0.221254,-0.539078 0.430932,-0.706092 0.03109,0.01918 0.05192,0.02811 0.06615,0.03307 l 0.02249,0.0027 h 0.0023 c 0.02976,-0.03142 -0.293682,-0.369086 0.0066,-0.235475 0.01158,-0.177598 0.282437,-0.04233 0.286406,-0.197441 z m 1.272289,0.721636 c -0.106823,0.003 -0.189834,0.043 -0.213316,0.110792 -0.0377,0.109138 0.09029,0.249696 0.286406,0.317494 0.196449,0.0678 0.386284,0.03605 0.423986,-0.07309 0.0377,-0.109138 -0.08996,-0.25201 -0.286406,-0.319809 a 0.60919082,0.60919082 0 0 0 -0.21067,-0.03539 z"
     id="path5-7"
     class="ColorScheme-Text"
     style="fill:currentColor;fill-opacity:1;stroke-width:0.330722" />
  <path
     id="gradient-path1"
     style="opacity:0.3;baseline-shift:baseline;display:inline;overflow:visible;vector-effect:none;enable-background:accumulate;stop-color:#000000;stop-opacity:1;fill:url(#linearGradient4)"
     d="M 8.4453131 1.2753492 C 4.4913166 1.2753492 1.2794833 4.4784283 1.2794833 8.4236094 C 1.2794833 12.36879 4.4913166 15.572386 8.4453131 15.572386 C 12.39931 15.572386 15.611143 12.36879 15.611143 8.4236094 C 15.611143 4.4784283 12.39931 1.2753492 8.4453131 1.2753492 z " />
</svg>
