<?xml version='1.0' encoding='UTF-8'?>
<svg xmlns:inkscape="http://www.inkscape.org/namespaces/inkscape" xmlns:sodipodi="http://sodipodi.sourceforge.net/DTD/sodipodi-0.dtd" xmlns="http://www.w3.org/2000/svg" xmlns:svg="http://www.w3.org/2000/svg" xmlns:rdf="http://www.w3.org/1999/02/22-rdf-syntax-ns#" xmlns:cc="http://creativecommons.org/ns#" xmlns:dc="http://purl.org/dc/elements/1.1/" width="64" height="64" version="1.1" viewBox="0 0 16.933 16.933" id="svg7" sodipodi:docname="qpdfview.svg" inkscape:version="1.4.2 (ebf0e940d0, 2025-05-08)">
  <sodipodi:namedview id="namedview7" pagecolor="#9c4444" bordercolor="#000000" borderopacity="0.25" inkscape:showpageshadow="2" inkscape:pageopacity="0.0" inkscape:pagecheckerboard="0" inkscape:deskcolor="#d1d1d1" inkscape:zoom="4" inkscape:cx="191.75" inkscape:cy="78.5" inkscape:window-width="2560" inkscape:window-height="1376" inkscape:window-x="0" inkscape:window-y="0" inkscape:window-maximized="1" inkscape:current-layer="svg7" showgrid="false"/>
  <defs id="defs2">
    <filter style="color-interpolation-filters:sRGB;" inkscape:label="Blur" id="filter3" x="-0.10843471" y="-0.10870992" width="1.2168694" height="1.2174198">
      <feGaussianBlur stdDeviation="0.5 0.5" result="blur" id="feGaussianBlur3"/>
    </filter>
    <style id="current-color-scheme" type="text/css">.ColorScheme-Text {color:#d8dee9} .ColorScheme-Highlight {color:#3b4252}</style>
  <linearGradient id="linearGradient3" inkscape:collect="always">
      <stop style="stop-color:#000000;stop-opacity:1;" offset="0" id="stop3"/>
      <stop style="stop-color:#000000;stop-opacity:0;" offset="1" id="stop4"/>
    </linearGradient>
    <linearGradient xmlns:xlink="http://www.w3.org/1999/xlink" inkscape:collect="always" xlink:href="#linearGradient3" id="linearGradient4" x1="13.512321" y1="13.490874" x2="3.3783066" y2="3.3568602" gradientUnits="userSpaceOnUse"/>
  </defs>
  <metadata id="metadata2">
    <rdf:RDF>
      <cc:Work rdf:about="">
        <dc:format>image/svg+xml</dc:format>
        <dc:type rdf:resource="http://purl.org/dc/dcmitype/StillImage"/>
      </cc:Work>
    </rdf:RDF>
  </metadata>
  <ellipse style="opacity:1;fill:none;stroke:#000000;stroke-width:0.582072;stroke-dasharray:none;stroke-opacity:1;filter:url(#filter3)" id="path1-5" cx="8.4450111" cy="8.423522" rx="6.8752708" ry="6.8578653"/>
  <ellipse style="opacity:1;fill:none;stroke-width:0.58207188;stroke-opacity:1;stroke:currentColor;stroke-dasharray:none;fill-opacity:1" id="path1" cx="8.4450111" cy="8.423522" rx="6.8752708" ry="6.8578653" class="ColorScheme-Text"/>
  <ellipse style="fill:currentColor;stroke:none;stroke-width:0.285844;stroke-dasharray:none;stroke-opacity:1" id="path1-2" cx="8.4557552" cy="8.423522" rx="6.5738997" ry="6.5692253" class="ColorScheme-Highlight"/>
<path id="path52" style="opacity:0.3;fill:#000000;fill-opacity:1;stroke:none;stroke-width:0.0964453;stroke-dasharray:none;stroke-dashoffset:2.2;stroke-opacity:0.6" d="m 8.5620324,5.0766986 c -0.07943,-0.0013 -0.16008,-3.24e-5 -0.241604,0.00327 -1.995397,0.081231 -3.581592,1.5984776 -3.758385,3.595132 -0.185655,2.0967264 1.371261,3.9768724 3.491937,4.2170244 1.053807,0.119338 2.1579886,-0.231025 2.9683246,-0.933932 l -0.520065,-0.52115 c -0.265407,0.183149 -0.5901616,0.290198 -0.9347496,0.290198 -0.906009,0 -1.645096,-0.741904 -1.645096,-1.648917 0,-0.9070138 0.739087,-1.6486445 1.645096,-1.6486445 v -2.73e-4 c 0.9059786,0 1.6546496,0.7419037 1.6546496,1.6489175 0,0.344739 -0.116508,0.662031 -0.299207,0.927652 L 11.446,11.530135 C 12.172791,10.681202 12.496706,9.607581 12.352358,8.4941074 12.180148,7.1656886 11.360323,6.0342051 10.15362,5.4597171 9.6270514,5.2090277 9.1180504,5.0858126 8.5620324,5.0766986 Z m -2.583395,1.1883673 h 0.701609 c 0.242729,0 0.42356,0.047835 0.541904,0.1441437 0.118339,0.09631 0.177996,0.2324907 0.177996,0.4084074 0,0.117633 -0.02546,0.1504087 -0.07699,0.2399666 -0.0494,0.088136 -0.129359,0.1568227 -0.24024,0.2069337 -0.108391,0.04975 -0.25146,0.073983 -0.429155,0.073983 h -0.319955 v 0.7032469 h -0.355173 z m 1.776682,0 h 0.598415 c 0.250904,0 0.450573,0.073644 0.598415,0.2211296 0.149974,0.1460647 0.224679,0.3633494 0.224679,0.651923 0,0.2903518 -0.07669,0.5141985 -0.229866,0.670214 -0.153526,0.1560136 -0.361147,0.2334146 -0.622712,0.2334146 h -0.568931 z m 1.777227,0 H 10.954054 V 6.6202383 H 9.8877194 V 6.9756838 H 10.598336 V 7.3308562 H 9.8877194 v 0.7108909 h -0.355173 z m -3.198736,0.3551724 v 0.3554455 h 0.264536 c 0.149973,0 0.261382,-0.015761 0.333879,-0.046683 0.07463,-0.031985 0.112203,-0.077016 0.112203,-0.1345888 0,-0.058636 -0.03049,-0.1025295 -0.09091,-0.1313127 -0.06042,-0.028783 -0.155049,-0.042861 -0.285831,-0.042861 z m 1.776954,0 v 1.0663364 h 0.178269 c 0.183379,0 0.31801,-0.045305 0.402947,-0.1348618 0.08672,-0.089557 0.129675,-0.2254911 0.129675,-0.4092264 0,-0.1823131 -0.04168,-0.3146562 -0.124488,-0.3963954 -0.08245,-0.083872 -0.20657,-0.1258528 -0.371825,-0.1258528 z m 1.456726,2.4089483 c -0.582511,0 -1.046953,0.465968 -1.046953,1.0491374 0,0.583139 0.464442,1.04941 1.046953,1.04941 0.5825076,0 1.0469526,-0.466271 1.0469526,-1.04941 0,-0.5831694 -0.464445,-1.0491374 -1.0469526,-1.0491374 z"/>
  <path id="path52-5" style="fill:currentColor;stroke:none;stroke-width:0.0964453;stroke-dasharray:none;stroke-dashoffset:2.2;stroke-opacity:0.6" class="ColorScheme-Text" d="m 8.5620324,4.5475299 c -0.07943,-0.0013 -0.16008,-3.3e-5 -0.241604,0.0033 -1.995397,0.08123 -3.581592,1.598477 -3.758385,3.595131 -0.185655,2.0967281 1.371261,3.9768741 3.491937,4.2170251 1.053807,0.119338 2.1579886,-0.231025 2.9683246,-0.933931 L 10.50224,10.907899 c -0.265407,0.18315 -0.5901616,0.290198 -0.9347496,0.290198 -0.906009,0 -1.645096,-0.741903 -1.645096,-1.6489171 0,-0.907014 0.739087,-1.648645 1.645096,-1.648645 v -2.73e-4 c 0.9059786,0 1.6546496,0.741904 1.6546496,1.648918 0,0.344739 -0.116508,0.6620311 -0.299207,0.9276531 L 11.446,11.000992 C 12.172791,10.152059 12.496706,9.0784369 12.352358,7.9649629 12.180148,6.6365439 11.360323,5.5050609 10.15362,4.9305729 9.6270514,4.6798839 9.1180504,4.5566689 8.5620324,4.5475549 Z m -2.583395,1.188367 h 0.701609 c 0.242729,0 0.42356,0.04784 0.541904,0.144143 0.118339,0.09631 0.177996,0.232491 0.177996,0.408408 0,0.117633 -0.02546,0.150409 -0.07699,0.239966 -0.0494,0.08814 -0.129359,0.156823 -0.24024,0.206934 -0.108391,0.04975 -0.25146,0.07398 -0.429155,0.07398 h -0.319955 v 0.703247 h -0.355173 z m 1.776682,0 h 0.598415 c 0.250904,0 0.450573,0.07364 0.598415,0.221129 0.149974,0.146065 0.224679,0.36335 0.224679,0.651923 0,0.290352 -0.07669,0.514199 -0.229866,0.670214 -0.153526,0.156014 -0.361147,0.233415 -0.622712,0.233415 h -0.568931 z m 1.777227,0 h 1.4215076 v 0.355172 H 9.8877194 v 0.355446 h 0.7106166 v 0.355172 H 9.8877194 v 0.710891 h -0.355173 z m -3.198736,0.355172 v 0.355446 h 0.264536 c 0.149973,0 0.261382,-0.01576 0.333879,-0.04668 0.07463,-0.03199 0.112203,-0.07702 0.112203,-0.134589 0,-0.05864 -0.03049,-0.10253 -0.09091,-0.131313 -0.06042,-0.02878 -0.155049,-0.04286 -0.285831,-0.04286 z m 1.776954,0 v 1.066337 h 0.178269 c 0.183379,0 0.31801,-0.0453 0.402947,-0.134862 0.08672,-0.08956 0.129675,-0.225491 0.129675,-0.409227 0,-0.182313 -0.04168,-0.314656 -0.124488,-0.396395 -0.08245,-0.08387 -0.20657,-0.125853 -0.371825,-0.125853 z m 1.456726,2.408948 c -0.582511,0 -1.046953,0.465968 -1.046953,1.049138 0,0.5831401 0.464442,1.0494101 1.046953,1.0494101 0.5825076,0 1.0469526,-0.46627 1.0469526,-1.0494101 0,-0.58317 -0.464445,-1.049138 -1.0469526,-1.049138 z"/>
<path id="gradient-path1" style="opacity:0.3;baseline-shift:baseline;display:inline;overflow:visible;vector-effect:none;enable-background:accumulate;stop-color:#000000;stop-opacity:1;fill:url(#linearGradient4)" d="M 8.4453131 1.2753492 C 4.4913166 1.2753492 1.2794833 4.4784283 1.2794833 8.4236094 C 1.2794833 12.36879 4.4913166 15.572386 8.4453131 15.572386 C 12.39931 15.572386 15.611143 12.36879 15.611143 8.4236094 C 15.611143 4.4784283 12.39931 1.2753492 8.4453131 1.2753492 z "/>
</svg>
