<?xml version="1.0" encoding="UTF-8" standalone="no"?>
<svg
   width="64"
   height="64"
   version="1.1"
   viewBox="0 0 16.933 16.933"
   id="svg7"
   sodipodi:docname="qtdbusviewer.svg"
   inkscape:version="1.4.2 (ebf0e940d0, 2025-05-08)"
   xmlns:inkscape="http://www.inkscape.org/namespaces/inkscape"
   xmlns:sodipodi="http://sodipodi.sourceforge.net/DTD/sodipodi-0.dtd"
   xmlns:xlink="http://www.w3.org/1999/xlink"
   xmlns="http://www.w3.org/2000/svg"
   xmlns:svg="http://www.w3.org/2000/svg"
   xmlns:rdf="http://www.w3.org/1999/02/22-rdf-syntax-ns#"
   xmlns:cc="http://creativecommons.org/ns#"
   xmlns:dc="http://purl.org/dc/elements/1.1/">
  <sodipodi:namedview
     id="namedview7"
     pagecolor="#9c4444"
     bordercolor="#000000"
     borderopacity="0.25"
     inkscape:showpageshadow="2"
     inkscape:pageopacity="0.0"
     inkscape:pagecheckerboard="0"
     inkscape:deskcolor="#d1d1d1"
     inkscape:zoom="8.7062522"
     inkscape:cx="72.763801"
     inkscape:cy="15.276378"
     inkscape:window-width="2560"
     inkscape:window-height="1388"
     inkscape:window-x="0"
     inkscape:window-y="0"
     inkscape:window-maximized="1"
     inkscape:current-layer="svg7"
     showgrid="false" />
  <defs
     id="defs2">
    <filter
       style="color-interpolation-filters:sRGB;"
       inkscape:label="Blur"
       id="filter3"
       x="-0.10843471"
       y="-0.10870992"
       width="1.2168694"
       height="1.2174198">
      <feGaussianBlur
         stdDeviation="0.5 0.5"
         result="blur"
         id="feGaussianBlur3" />
    </filter>
    <style
       id="current-color-scheme"
       type="text/css">.ColorScheme-Text {color:#d8dee9} .ColorScheme-Highlight {color:#3b4252}</style>
    <linearGradient
       id="linearGradient3"
       inkscape:collect="always">
      <stop
         style="stop-color:#000000;stop-opacity:1;"
         offset="0"
         id="stop3" />
      <stop
         style="stop-color:#000000;stop-opacity:0;"
         offset="1"
         id="stop4" />
    </linearGradient>
    <linearGradient
       inkscape:collect="always"
       xlink:href="#linearGradient3"
       id="linearGradient4"
       x1="13.512321"
       y1="13.490874"
       x2="3.3783066"
       y2="3.3568602"
       gradientUnits="userSpaceOnUse" />
  </defs>
  <metadata
     id="metadata2">
    <rdf:RDF>
      <cc:Work
         rdf:about="">
        <dc:format>image/svg+xml</dc:format>
        <dc:type
           rdf:resource="http://purl.org/dc/dcmitype/StillImage" />
      </cc:Work>
    </rdf:RDF>
  </metadata>
  <ellipse
     style="opacity:1;fill:none;stroke:#000000;stroke-width:0.582072;stroke-dasharray:none;stroke-opacity:1;filter:url(#filter3)"
     id="path1-5"
     cx="8.4450111"
     cy="8.423522"
     rx="6.8752708"
     ry="6.8578653" />
  <ellipse
     style="opacity:1;fill:none;stroke-width:0.58207188;stroke-opacity:1;stroke:currentColor;stroke-dasharray:none;fill-opacity:1"
     id="path1"
     cx="8.4450111"
     cy="8.423522"
     rx="6.8752708"
     ry="6.8578653"
     class="ColorScheme-Text" />
  <ellipse
     style="fill:currentColor;stroke:none;stroke-width:0.285844;stroke-dasharray:none;stroke-opacity:1"
     id="path1-2"
     cx="8.4557552"
     cy="8.423522"
     rx="6.5738997"
     ry="6.5692253"
     class="ColorScheme-Highlight" />
  <path
     id="path5-6"
     style="opacity:0.3;fill:#000000;fill-opacity:1;stroke-width:0.566038"
     d="M 6.5518205,5.0269844 4.4978685,6.957793 v 0.2734898 4.5922882 c 0,0.03748 0.002,0.07435 0.0055,0.110858 0.0015,0.01543 0.0044,0.03039 0.0064,0.04563 0.0027,0.01957 0.0045,0.03953 0.0082,0.05879 l 2.92e-4,-2.92e-4 h 2.92e-4 l 2.93e-4,-2.92e-4 c 0.100566,0.527103 0.563428,0.926062 1.119699,0.926062 h 5.6558265 c 0.629698,0 1.14076,-0.511061 1.14076,-1.140759 v -0.02954 -1.014106 -4.6121781 c 0,-0.6296981 -0.511062,-1.1407595 -1.14076,-1.1407595 z m -1.258931,1.9468962 h 1.684522 c 0.808876,0 1.460465,0.6515879 1.460465,1.4604648 v 1.1226243 c 0,0.8088773 -0.651589,1.4604643 -1.460465,1.4604643 h -1.684522 z m 3.087656,0 h 0.706101 l 0.9234305,2.924732 0.92343,-2.924732 h 0.706686 L 10.363127,11.017434 H 9.6570265 Z m -2.413437,0.6739257 v 2.6957027 h 1.010303 c 0.447229,0 0.786539,-0.339309 0.786539,-0.7865393 V 8.4343454 c 0,-0.4472297 -0.33931,-0.7865391 -0.786539,-0.7865391 z"
     class="ColorScheme-Text" />
  <path
     id="path5-6-5"
     style="fill:currentColor;stroke-width:0.566038"
     d="m 6.5518205,4.4978285 -2.053952,1.9308086 v 0.2734898 4.5922881 c 0,0.03748 0.002,0.07435 0.0055,0.110858 0.0015,0.01543 0.0044,0.03039 0.0064,0.04563 0.0027,0.01957 0.0045,0.03953 0.0082,0.05879 l 2.92e-4,-2.92e-4 h 2.92e-4 l 2.93e-4,-2.92e-4 c 0.100566,0.527103 0.563428,0.926062 1.119699,0.926062 h 5.6558265 c 0.629698,0 1.14076,-0.511061 1.14076,-1.140759 v -0.02954 -1.014106 -4.612178 c 0,-0.6296981 -0.511062,-1.1407595 -1.14076,-1.1407595 z m -1.258931,1.9468962 h 1.684522 c 0.808876,0 1.460465,0.6515879 1.460465,1.4604648 v 1.1226243 c 0,0.8088772 -0.651589,1.4604642 -1.460465,1.4604642 h -1.684522 z m 3.087656,0 h 0.706101 l 0.9234305,2.9247321 0.92343,-2.9247321 h 0.706686 L 10.363127,10.488278 H 9.6570265 Z m -2.413437,0.6739257 v 2.6957024 h 1.010303 c 0.447229,0 0.786539,-0.3393091 0.786539,-0.786539 V 7.9051895 c 0,-0.4472296 -0.33931,-0.7865391 -0.786539,-0.7865391 z"
     class="ColorScheme-Text" />
  <path
     id="gradient-path1"
     style="opacity:0.3;baseline-shift:baseline;display:inline;overflow:visible;vector-effect:none;enable-background:accumulate;stop-color:#000000;stop-opacity:1;fill:url(#linearGradient4)"
     d="M 8.4453131 1.2753492 C 4.4913166 1.2753492 1.2794833 4.4784283 1.2794833 8.4236094 C 1.2794833 12.36879 4.4913166 15.572386 8.4453131 15.572386 C 12.39931 15.572386 15.611143 12.36879 15.611143 8.4236094 C 15.611143 4.4784283 12.39931 1.2753492 8.4453131 1.2753492 z " />
</svg>
