<?xml version="1.0" encoding="UTF-8" standalone="no"?>
<svg
   width="64"
   height="64"
   version="1.1"
   viewBox="0 0 16.933 16.933"
   id="svg7"
   sodipodi:docname="qtdesigner.svg"
   inkscape:version="1.4.2 (ebf0e940d0, 2025-05-08)"
   xmlns:inkscape="http://www.inkscape.org/namespaces/inkscape"
   xmlns:sodipodi="http://sodipodi.sourceforge.net/DTD/sodipodi-0.dtd"
   xmlns:xlink="http://www.w3.org/1999/xlink"
   xmlns="http://www.w3.org/2000/svg"
   xmlns:svg="http://www.w3.org/2000/svg"
   xmlns:rdf="http://www.w3.org/1999/02/22-rdf-syntax-ns#"
   xmlns:cc="http://creativecommons.org/ns#"
   xmlns:dc="http://purl.org/dc/elements/1.1/">
  <sodipodi:namedview
     id="namedview7"
     pagecolor="#9c4444"
     bordercolor="#000000"
     borderopacity="0.25"
     inkscape:showpageshadow="2"
     inkscape:pageopacity="0.0"
     inkscape:pagecheckerboard="0"
     inkscape:deskcolor="#d1d1d1"
     inkscape:zoom="8.7062522"
     inkscape:cx="72.878661"
     inkscape:cy="15.276378"
     inkscape:window-width="2560"
     inkscape:window-height="1388"
     inkscape:window-x="0"
     inkscape:window-y="0"
     inkscape:window-maximized="1"
     inkscape:current-layer="svg7"
     showgrid="false" />
  <defs
     id="defs2">
    <filter
       style="color-interpolation-filters:sRGB;"
       inkscape:label="Blur"
       id="filter3"
       x="-0.10843471"
       y="-0.10870992"
       width="1.2168694"
       height="1.2174198">
      <feGaussianBlur
         stdDeviation="0.5 0.5"
         result="blur"
         id="feGaussianBlur3" />
    </filter>
    <style
       id="current-color-scheme"
       type="text/css">.ColorScheme-Text {color:#d8dee9} .ColorScheme-Highlight {color:#3b4252}</style>
    <linearGradient
       id="linearGradient3"
       inkscape:collect="always">
      <stop
         style="stop-color:#000000;stop-opacity:1;"
         offset="0"
         id="stop3" />
      <stop
         style="stop-color:#000000;stop-opacity:0;"
         offset="1"
         id="stop4" />
    </linearGradient>
    <linearGradient
       inkscape:collect="always"
       xlink:href="#linearGradient3"
       id="linearGradient4"
       x1="13.512321"
       y1="13.490874"
       x2="3.3783066"
       y2="3.3568602"
       gradientUnits="userSpaceOnUse" />
  </defs>
  <metadata
     id="metadata2">
    <rdf:RDF>
      <cc:Work
         rdf:about="">
        <dc:format>image/svg+xml</dc:format>
        <dc:type
           rdf:resource="http://purl.org/dc/dcmitype/StillImage" />
      </cc:Work>
    </rdf:RDF>
  </metadata>
  <ellipse
     style="opacity:1;fill:none;stroke:#000000;stroke-width:0.582072;stroke-dasharray:none;stroke-opacity:1;filter:url(#filter3)"
     id="path1-5"
     cx="8.4450111"
     cy="8.423522"
     rx="6.8752708"
     ry="6.8578653" />
  <ellipse
     style="opacity:1;fill:none;stroke-width:0.58207188;stroke-opacity:1;stroke:currentColor;stroke-dasharray:none;fill-opacity:1"
     id="path1"
     cx="8.4450111"
     cy="8.423522"
     rx="6.8752708"
     ry="6.8578653"
     class="ColorScheme-Text" />
  <ellipse
     style="fill:currentColor;stroke:none;stroke-width:0.285844;stroke-dasharray:none;stroke-opacity:1"
     id="path1-2"
     cx="8.4557552"
     cy="8.423522"
     rx="6.5738997"
     ry="6.5692253"
     class="ColorScheme-Highlight" />
  <path
     id="path5"
     style="opacity:0.3;fill:#000000;fill-opacity:1;stroke-width:0.566038"
     d="M 6.035804,5.0269844 C 5.963454,5.0271676 5.894327,5.0663784 5.844508,5.1357953 L 4.570952,6.5392215 c -0.02945,0.040963 -0.04966,0.090776 -0.06142,0.1442037 -0.0034,0.015297 -0.0064,0.030658 -0.0082,0.046508 -0.0022,0.016862 -0.0035,0.034177 -0.0035,0.051481 v 5.0421548 c 0,0.629698 0.51106,1.140759 1.140759,1.140759 h 5.153306 c 0.07216,-1.83e-4 0.141474,-0.03987 0.191292,-0.109104 l 1.378856,-1.403134 h 2.93e-4 v -2.92e-4 c 0.0041,-0.0057 0.008,-0.01154 0.0117,-0.01755 0.0074,-0.01197 0.01386,-0.02495 0.01989,-0.03803 0.0264,-0.05556 0.04124,-0.119719 0.04124,-0.186323 V 6.1677439 c 0,-0.6296982 -0.511061,-1.1407592 -1.140759,-1.1407592 z M 6.894006,6.9738801 H 8.57882 c 0.808928,0 1.460171,0.6512422 1.460171,1.4601717 v 1.1232091 c 0,0.8089291 -0.651243,1.4601711 -1.460171,1.4601711 H 6.894006 Z M 7.567639,7.6478055 V 10.343507 H 8.57882 c 0.447258,0 0.786246,-0.338987 0.786246,-0.7862461 V 8.4340518 c 0,-0.4472588 -0.338988,-0.7862463 -0.786246,-0.7862463 z"
     class="ColorScheme-Text" />
  <path
     id="path5-7"
     style="fill:currentColor;stroke-width:0.566038"
     d="M 6.035804,4.4978276 C 5.963454,4.4980108 5.894327,4.5372216 5.844508,4.6066385 L 4.570952,6.0100647 c -0.02945,0.040963 -0.04966,0.090776 -0.06142,0.1442037 -0.0034,0.015297 -0.0064,0.030658 -0.0082,0.046508 -0.0022,0.016862 -0.0035,0.034177 -0.0035,0.051481 v 5.0421556 c 0,0.629698 0.51106,1.140759 1.140759,1.140759 h 5.153306 c 0.07216,-1.84e-4 0.141474,-0.03987 0.191292,-0.109104 l 1.378856,-1.403134 h 2.93e-4 v -2.92e-4 c 0.0041,-0.0057 0.008,-0.01154 0.0117,-0.01755 0.0074,-0.01197 0.01386,-0.02495 0.01989,-0.03803 0.0264,-0.05556 0.04124,-0.11972 0.04124,-0.186324 V 5.6385871 c 0,-0.6296982 -0.511061,-1.1407592 -1.140759,-1.1407592 z M 6.894006,6.4447233 H 8.57882 c 0.808928,0 1.460171,0.6512422 1.460171,1.4601717 v 1.1232091 c 0,0.8089296 -0.651243,1.4601719 -1.460171,1.4601719 H 6.894006 Z M 7.567639,7.1186487 V 9.8143503 H 8.57882 c 0.447258,0 0.786246,-0.3389869 0.786246,-0.7862462 V 7.904895 c 0,-0.4472588 -0.338988,-0.7862463 -0.786246,-0.7862463 z"
     class="ColorScheme-Text" />
  <path
     id="gradient-path1"
     style="opacity:0.3;baseline-shift:baseline;display:inline;overflow:visible;vector-effect:none;enable-background:accumulate;stop-color:#000000;stop-opacity:1;fill:url(#linearGradient4)"
     d="M 8.4453131 1.2753492 C 4.4913166 1.2753492 1.2794833 4.4784283 1.2794833 8.4236094 C 1.2794833 12.36879 4.4913166 15.572386 8.4453131 15.572386 C 12.39931 15.572386 15.611143 12.36879 15.611143 8.4236094 C 15.611143 4.4784283 12.39931 1.2753492 8.4453131 1.2753492 z " />
</svg>
