<?xml version="1.0" encoding="UTF-8" standalone="no"?>
<svg
   width="64"
   height="64"
   version="1.1"
   viewBox="0 0 16.933 16.933"
   id="svg7"
   sodipodi:docname="qv4l2.svg"
   inkscape:version="1.4.2 (ebf0e940d0, 2025-05-08)"
   xmlns:inkscape="http://www.inkscape.org/namespaces/inkscape"
   xmlns:sodipodi="http://sodipodi.sourceforge.net/DTD/sodipodi-0.dtd"
   xmlns:xlink="http://www.w3.org/1999/xlink"
   xmlns="http://www.w3.org/2000/svg"
   xmlns:svg="http://www.w3.org/2000/svg"
   xmlns:rdf="http://www.w3.org/1999/02/22-rdf-syntax-ns#"
   xmlns:cc="http://creativecommons.org/ns#"
   xmlns:dc="http://purl.org/dc/elements/1.1/">
  <sodipodi:namedview
     id="namedview7"
     pagecolor="#9c4444"
     bordercolor="#000000"
     borderopacity="0.25"
     inkscape:showpageshadow="2"
     inkscape:pageopacity="0.0"
     inkscape:pagecheckerboard="0"
     inkscape:deskcolor="#d1d1d1"
     inkscape:zoom="8.7062522"
     inkscape:cx="73.108381"
     inkscape:cy="15.276378"
     inkscape:window-width="2560"
     inkscape:window-height="1388"
     inkscape:window-x="0"
     inkscape:window-y="0"
     inkscape:window-maximized="1"
     inkscape:current-layer="svg7"
     showgrid="false" />
  <defs
     id="defs2">
    <filter
       style="color-interpolation-filters:sRGB;"
       inkscape:label="Blur"
       id="filter3"
       x="-0.10843471"
       y="-0.10870992"
       width="1.2168694"
       height="1.2174198">
      <feGaussianBlur
         stdDeviation="0.5 0.5"
         result="blur"
         id="feGaussianBlur3" />
    </filter>
    <style
       id="current-color-scheme"
       type="text/css">.ColorScheme-Text {color:#d8dee9} .ColorScheme-Highlight {color:#3b4252}</style>
    <linearGradient
       id="linearGradient3"
       inkscape:collect="always">
      <stop
         style="stop-color:#000000;stop-opacity:1;"
         offset="0"
         id="stop3" />
      <stop
         style="stop-color:#000000;stop-opacity:0;"
         offset="1"
         id="stop4" />
    </linearGradient>
    <linearGradient
       inkscape:collect="always"
       xlink:href="#linearGradient3"
       id="linearGradient4"
       x1="13.512321"
       y1="13.490874"
       x2="3.3783066"
       y2="3.3568602"
       gradientUnits="userSpaceOnUse" />
  </defs>
  <metadata
     id="metadata2">
    <rdf:RDF>
      <cc:Work
         rdf:about="">
        <dc:format>image/svg+xml</dc:format>
        <dc:type
           rdf:resource="http://purl.org/dc/dcmitype/StillImage" />
      </cc:Work>
    </rdf:RDF>
  </metadata>
  <ellipse
     style="opacity:1;fill:none;stroke:#000000;stroke-width:0.582072;stroke-dasharray:none;stroke-opacity:1;filter:url(#filter3)"
     id="path1-5"
     cx="8.4450111"
     cy="8.423522"
     rx="6.8752708"
     ry="6.8578653" />
  <ellipse
     style="opacity:1;fill:none;stroke-width:0.58207188;stroke-opacity:1;stroke:currentColor;stroke-dasharray:none;fill-opacity:1"
     id="path1"
     cx="8.4450111"
     cy="8.423522"
     rx="6.8752708"
     ry="6.8578653"
     class="ColorScheme-Text" />
  <ellipse
     style="fill:currentColor;stroke:none;stroke-width:0.285844;stroke-dasharray:none;stroke-opacity:1"
     id="path1-2"
     cx="8.4557552"
     cy="8.423522"
     rx="6.5738997"
     ry="6.5692253"
     class="ColorScheme-Highlight" />
  <path
     id="path5"
     style="opacity:0.3;fill:#000000;fill-opacity:1;stroke-width:0.566038"
     d="m 5.3247275,5.0269844 c -0.458051,0 -0.826899,0.3688485 -0.826899,0.8268991 V 10.007203 H 12.435172 V 5.8538835 c 0,-0.4580506 -0.368848,-0.8268991 -0.8269,-0.8268991 z m 3.141773,0.3078376 c 1.282534,0 2.3148725,1.0326191 2.3148725,2.3151511 0,1.2825317 -1.0323385,2.3151508 -2.3148725,2.3151508 -1.282533,0 -2.315151,-1.0326191 -2.315151,-2.3151508 0,-1.282532 1.032618,-2.3151511 2.315151,-2.3151511 z m -0.165269,0.6616301 c -1.00461,0 -1.819067,0.8141669 -1.819067,1.8187901 0,1.0046101 0.814442,1.8190668 1.819067,1.8190668 1.004608,0 1.8187895,-0.8144393 1.8187895,-1.8190668 0,-1.0046068 -0.8141635,-1.8187901 -1.8187895,-1.8187901 z m -0.54453,0.909395 a 0.27650156,0.27567409 0 0 1 0.131219,0.036539 l 1.102347,0.6347772 a 0.27611105,0.2752848 0 0 1 0,0.4761521 L 7.8879205,8.6878162 C 7.7043665,8.7933354 7.4743325,8.6613308 7.4743325,8.4502938 v -1.269831 a 0.27572049,0.27489538 0 0 1 0.282369,-0.2746179 z m -3.370437,3.2472459 c -0.173826,0 -0.313651,0.147652 -0.313651,0.330815 v 1.322983 c 0,0.183163 0.139825,0.330538 0.313651,0.330538 h 8.1604705 c 0.173826,0 0.313651,-0.147375 0.313651,-0.330538 v -1.322983 c 0,-0.183163 -0.139825,-0.330815 -0.313651,-0.330815 z m 4.551128,0.350193 c 0.281691,0 0.519174,0.202169 0.588546,0.476152 h 1.7650855 c 0.08708,0 0.15724,0.07369 0.15724,0.165269 0,0.09158 -0.07016,0.165269 -0.15724,0.165269 H 9.5259385 c -0.06922,0.274227 -0.306691,0.476706 -0.588546,0.476706 -0.281856,0 -0.51933,-0.202479 -0.588547,-0.476706 h -2.706868 c -0.08708,0 -0.157241,-0.07369 -0.157241,-0.165269 0,-0.09158 0.07016,-0.165269 0.157241,-0.165269 h 2.706868 c 0.069373,-0.273983 0.306856,-0.476152 0.588547,-0.476152 z m 0,0.145614 a 0.47094298,0.49624105 0 0 0 -0.470892,0.496084 0.47094298,0.49624105 0 0 0 0.470892,0.496361 0.47094298,0.49624105 0 0 0 0.470892,-0.496361 0.47094298,0.49624105 0 0 0 -0.470892,-0.496084 z m -4.42683,1.633866 c 0.06831,0.388294 0.40572,0.681562 0.814165,0.681562 h 6.2835455 c 0.408448,0 0.745851,-0.293268 0.814164,-0.681562 z"
     class="ColorScheme-Text" />
  <path
     id="path5-7"
     style="fill:currentColor;stroke-width:0.566038"
     d="m 5.3247275,4.4978283 c -0.458051,0 -0.826899,0.3688485 -0.826899,0.8268991 V 9.4780466 H 12.435172 V 5.3247274 c 0,-0.4580506 -0.368848,-0.8268991 -0.8269,-0.8268991 z m 3.141773,0.3078376 c 1.282534,0 2.3148725,1.0326191 2.3148725,2.3151511 0,1.2825317 -1.0323385,2.3151506 -2.3148725,2.3151506 -1.282533,0 -2.315151,-1.0326189 -2.315151,-2.3151506 0,-1.282532 1.032618,-2.3151511 2.315151,-2.3151511 z M 8.3012315,5.467296 c -1.00461,0 -1.819067,0.8141669 -1.819067,1.81879 0,1.0046101 0.814442,1.8190666 1.819067,1.8190666 1.004608,0 1.8187905,-0.814439 1.8187905,-1.8190666 0,-1.0046067 -0.8141645,-1.81879 -1.8187905,-1.81879 z m -0.54453,0.909395 a 0.27650156,0.27567409 0 0 1 0.131219,0.03654 l 1.102347,0.6347771 a 0.27611105,0.2752848 0 0 1 0,0.4761522 L 7.8879205,8.1586601 C 7.7043665,8.2641792 7.4743325,8.1321746 7.4743325,7.9211377 V 6.6513066 a 0.27572049,0.27489538 0 0 1 0.282369,-0.2746178 z m -3.370437,3.2472456 c -0.173826,0 -0.313651,0.147653 -0.313651,0.330815 v 1.3229844 c 0,0.183163 0.139825,0.330537 0.313651,0.330537 h 8.1604705 c 0.173826,0 0.313651,-0.147374 0.313651,-0.330537 V 9.9547516 c 0,-0.183163 -0.139825,-0.330815 -0.313651,-0.330815 z m 4.551128,0.350194 c 0.281691,0 0.519174,0.2021684 0.588546,0.4761524 h 1.7650855 c 0.08708,0 0.15724,0.07369 0.15724,0.165269 0,0.09158 -0.07016,0.165269 -0.15724,0.165269 H 9.5259385 c -0.06922,0.274227 -0.306691,0.476705 -0.588546,0.476705 -0.281856,0 -0.51933,-0.202478 -0.588547,-0.476705 h -2.706868 c -0.08708,0 -0.157241,-0.07369 -0.157241,-0.165269 0,-0.09158 0.07016,-0.165269 0.157241,-0.165269 h 2.706868 c 0.06937,-0.273984 0.306856,-0.4761524 0.588547,-0.4761524 z m 0,0.1456144 a 0.47094298,0.49624105 0 0 0 -0.470892,0.496084 0.47094298,0.49624105 0 0 0 0.470892,0.49636 0.47094298,0.49624105 0 0 0 0.470892,-0.49636 0.47094298,0.49624105 0 0 0 -0.470892,-0.496084 z m -4.42683,1.633866 c 0.06831,0.388293 0.40572,0.681561 0.814165,0.681561 h 6.2835455 c 0.408448,0 0.745852,-0.293268 0.814165,-0.681561 z"
     class="ColorScheme-Text" />
  <path
     id="gradient-path1"
     style="opacity:0.3;baseline-shift:baseline;display:inline;overflow:visible;vector-effect:none;enable-background:accumulate;stop-color:#000000;stop-opacity:1;fill:url(#linearGradient4)"
     d="M 8.4453131 1.2753492 C 4.4913166 1.2753492 1.2794833 4.4784283 1.2794833 8.4236094 C 1.2794833 12.36879 4.4913166 15.572386 8.4453131 15.572386 C 12.39931 15.572386 15.611143 12.36879 15.611143 8.4236094 C 15.611143 4.4784283 12.39931 1.2753492 8.4453131 1.2753492 z " />
</svg>
