<?xml version="1.0" encoding="UTF-8" standalone="no"?>
<svg
   width="64"
   height="64"
   version="1.1"
   viewBox="0 0 16.933 16.933"
   id="svg7"
   sodipodi:docname="davinci-resolve.svg"
   inkscape:version="1.4.2 (ebf0e940d0, 2025-05-08)"
   xmlns:inkscape="http://www.inkscape.org/namespaces/inkscape"
   xmlns:sodipodi="http://sodipodi.sourceforge.net/DTD/sodipodi-0.dtd"
   xmlns:xlink="http://www.w3.org/1999/xlink"
   xmlns="http://www.w3.org/2000/svg"
   xmlns:svg="http://www.w3.org/2000/svg"
   xmlns:rdf="http://www.w3.org/1999/02/22-rdf-syntax-ns#"
   xmlns:cc="http://creativecommons.org/ns#"
   xmlns:dc="http://purl.org/dc/elements/1.1/">
  <sodipodi:namedview
     id="namedview7"
     pagecolor="#9c4444"
     bordercolor="#000000"
     borderopacity="0.25"
     inkscape:showpageshadow="2"
     inkscape:pageopacity="0.0"
     inkscape:pagecheckerboard="0"
     inkscape:deskcolor="#d1d1d1"
     inkscape:zoom="4.3531261"
     inkscape:cx="35.951175"
     inkscape:cy="26.647517"
     inkscape:window-width="2560"
     inkscape:window-height="1392"
     inkscape:window-x="0"
     inkscape:window-y="0"
     inkscape:window-maximized="1"
     inkscape:current-layer="svg7"
     showgrid="false" />
  <defs
     id="defs2">
    <filter
       style="color-interpolation-filters:sRGB;"
       inkscape:label="Blur"
       id="filter3"
       x="-0.10843471"
       y="-0.10870992"
       width="1.2168694"
       height="1.2174198">
      <feGaussianBlur
         stdDeviation="0.5 0.5"
         result="blur"
         id="feGaussianBlur3" />
    </filter>
    <style
       id="current-color-scheme"
       type="text/css">.ColorScheme-Text {color:#d8dee9} .ColorScheme-Highlight {color:#3b4252}</style>
    <linearGradient
       id="linearGradient3"
       inkscape:collect="always">
      <stop
         style="stop-color:#000000;stop-opacity:1;"
         offset="0"
         id="stop3" />
      <stop
         style="stop-color:#000000;stop-opacity:0;"
         offset="1"
         id="stop4" />
    </linearGradient>
    <linearGradient
       inkscape:collect="always"
       xlink:href="#linearGradient3"
       id="linearGradient4"
       x1="13.512321"
       y1="13.490874"
       x2="3.3783066"
       y2="3.3568602"
       gradientUnits="userSpaceOnUse" />
  </defs>
  <metadata
     id="metadata2">
    <rdf:RDF>
      <cc:Work
         rdf:about="">
        <dc:format>image/svg+xml</dc:format>
        <dc:type
           rdf:resource="http://purl.org/dc/dcmitype/StillImage" />
      </cc:Work>
    </rdf:RDF>
  </metadata>
  <ellipse
     style="opacity:1;fill:none;stroke:#000000;stroke-width:0.582072;stroke-dasharray:none;stroke-opacity:1;filter:url(#filter3)"
     id="path1-5"
     cx="8.4450111"
     cy="8.423522"
     rx="6.8752708"
     ry="6.8578653" />
  <ellipse
     style="opacity:1;fill:none;stroke-width:0.58207188;stroke-opacity:1;stroke:currentColor;stroke-dasharray:none;fill-opacity:1"
     id="path1"
     cx="8.4450111"
     cy="8.423522"
     rx="6.8752708"
     ry="6.8578653"
     class="ColorScheme-Text" />
  <ellipse
     style="fill:currentColor;stroke:none;stroke-width:0.285844;stroke-dasharray:none;stroke-opacity:1"
     id="path1-2"
     cx="8.4557552"
     cy="8.423522"
     rx="6.5738997"
     ry="6.5692253"
     class="ColorScheme-Highlight" />
  <path
     id="path27"
     style="opacity:0.3;fill:#000000;fill-opacity:1;stroke-width:0.141737"
     d="m 8.2656955,5.0270175 c -0.04282,0.01091 -0.08802,0.007 -0.130841,0.01099 -0.241194,0.02 -0.479379,0.06176 -0.712655,0.125478 -0.480523,0.131501 -0.920369,0.345853 -1.320209,0.642946 -0.245202,0.182358 -0.466419,0.3907109 -0.663858,0.6239079 -0.199325,0.23538 -0.369041,0.490516 -0.508618,0.76467 -0.202441,0.397737 -0.333997,0.8176075 -0.393864,1.2601505 -0.0121,0.091636 -0.02185,0.1842381 -0.02681,0.2769652 -9.62e-4,0.018911 -0.004,0.037711 -0.01099,0.055768 v 0.4096828 c 0.0069,0.020934 0.01099,0.041805 0.01099,0.06274 0.02499,0.3877957 0.106543,0.7635271 0.243183,1.1263601 0.152614,0.408591 0.368009,0.780574 0.644286,1.117511 0.234348,0.287013 0.503392,0.536142 0.807568,0.747511 0.328029,0.227324 0.682155,0.401805 1.062013,0.523365 0.22133,0.0707 0.448692,0.121564 0.679944,0.151486 0.123624,0.01681 0.248128,0.02676 0.373756,0.03271 0.01102,0 0.02206,0.0011 0.03298,0.0051 h 0.235138 2.69e-4 c 0.04086,-0.0087 0.08269,-0.0078 0.121994,-0.01233 0.149518,-0.009 0.298096,-0.02585 0.44561,-0.05175 0.38389,-0.06667 0.749893,-0.188461 1.0979425,-0.363836 0.302132,-0.152415 0.580438,-0.340822 0.834649,-0.564118 0.255302,-0.224208 0.477404,-0.477385 0.667879,-0.758503 0.256236,-0.377715 0.440905,-0.787439 0.555539,-1.2290488 0.05987,-0.2352212 0.0975,-0.4735267 0.115558,-0.7148003 0.0029,-0.037821 0.0029,-0.075573 0.0029,-0.1134136 9.63e-4,-0.015954 0.0011,-0.032039 0.0051,-0.046921 V 8.8742214 c -9.62e-4,-0.012859 -0.004,-0.026585 -0.004,-0.039682 -9.06e-4,-0.1973801 -0.028,-0.3927518 -0.06384,-0.586104 -0.06794,-0.365789 -0.187491,-0.71366 -0.354987,-1.045657 -0.141621,-0.280979 -0.314898,-0.541239 -0.519343,-0.780488 -0.254213,-0.298025 -0.545332,-0.553976 -0.875405,-0.766279 -0.424823,-0.273974 -0.8844335,-0.459459 -1.3799975,-0.557147 -0.157436,-0.03086 -0.316022,-0.05099 -0.47564,-0.06488 -0.03086,-0.003 -0.0627,0.002 -0.09357,-0.007 z m 0.123334,1.2767739 c 0.25622,-0.01235 0.486344,0.0746 0.687452,0.257392 0.194385,0.176971 0.303135,0.402583 0.335683,0.668953 0.01952,0.161426 -0.0095,0.314999 -0.06891,0.463842 -0.05945,0.149754 -0.140319,0.287782 -0.230581,0.4190675 -0.0995,0.1449137 -0.209142,0.2802545 -0.324423,0.4115598 -0.08186,0.092415 -0.167419,0.1819197 -0.253906,0.2713346 -0.01954,0.021468 -0.04289,0.037987 -0.06891,0.049601 -0.02692,0.011622 -0.05277,0.011673 -0.07883,-0.00188 -0.02601,-0.012562 -0.05038,-0.029284 -0.07078,-0.048796 -0.249212,-0.2373469 -0.47895,-0.4928832 -0.661177,-0.7914802 -0.07999,-0.1313047 -0.147823,-0.2703077 -0.188754,-0.4220157 -0.02149,-0.07974 -0.03441,-0.159537 -0.03164,-0.232458 -0.0019,-0.506598 0.353475,-0.95765 0.843497,-1.033592 0.03766,-0.0058 0.07467,-0.0098 0.111269,-0.01153 z m -1.516471,2.6932367 c 0.245128,-0.00826 0.485488,0.025239 0.723916,0.077486 0.144014,0.031768 0.285268,0.070936 0.425503,0.1147539 0.110397,0.034386 0.135534,0.096982 0.113145,0.1967982 -0.04031,0.1781694 -0.09276,0.3543432 -0.154435,0.5268499 -0.05047,0.1426139 -0.108223,0.2835749 -0.177494,0.4187989 -0.05892,0.114763 -0.127282,0.223732 -0.208595,0.324422 -0.133702,0.165117 -0.307806,0.258401 -0.512639,0.30324 -0.06923,0.01471 -0.138339,0.02224 -0.200016,0.02038 -0.482532,0.0038 -0.907214,-0.336566 -0.990425,-0.815076 -0.0579,-0.3348756 0.03546,-0.6286484 0.270262,-0.8748661 0.137462,-0.1445074 0.305777,-0.2359766 0.504061,-0.2705301 0.06836,-0.012124 0.137466,-0.019476 0.206717,-0.022254 z m 3.106942,0 c 0.069249,0.00277 0.1383595,0.01013 0.2067185,0.022254 0.198282,0.034554 0.366597,0.1260226 0.50406,0.2705301 0.234798,0.2462178 0.328162,0.5399904 0.270262,0.8748658 -0.08321,0.478511 -0.507624,0.818845 -0.9901555,0.815076 -0.06168,0.0019 -0.13105,-0.0057 -0.200284,-0.02038 -0.204835,-0.04484 -0.378937,-0.138123 -0.512641,-0.30324 -0.08131,-0.100689 -0.149672,-0.209658 -0.208595,-0.324421 -0.06927,-0.135224 -0.12702,-0.276186 -0.177494,-0.4187993 -0.06168,-0.1725069 -0.114123,-0.3486805 -0.154434,-0.52685 -0.02239,-0.099816 0.0028,-0.1624118 0.113145,-0.1967981 0.140235,-0.043818 0.281488,-0.082986 0.425501,-0.114754 0.238429,-0.052248 0.47879,-0.085748 0.723917,-0.077487 z" />
  <path
     id="path27-7"
     style="fill:currentColor;fill-opacity:1;stroke-width:0.141737"
     d="m 8.2656955,4.4978498 c -0.04282,0.01091 -0.08802,0.007 -0.130841,0.01099 -0.241194,0.02 -0.479379,0.06176 -0.712655,0.125478 -0.480523,0.131501 -0.920369,0.345853 -1.320209,0.642946 -0.245202,0.182358 -0.466419,0.390711 -0.663858,0.623908 -0.199325,0.23538 -0.369041,0.490516 -0.508618,0.76467 -0.202441,0.397737 -0.333997,0.8176075 -0.393864,1.2601505 -0.0121,0.091636 -0.02185,0.184238 -0.02681,0.2769652 -9.62e-4,0.018911 -0.004,0.037711 -0.01099,0.055768 v 0.4096829 c 0.0069,0.020934 0.01099,0.041805 0.01099,0.06274 0.02499,0.3877957 0.106543,0.7635271 0.243183,1.12636 0.152614,0.4085916 0.368009,0.7805746 0.644286,1.1175116 0.234348,0.287013 0.503392,0.536142 0.807568,0.747511 0.328029,0.227324 0.682155,0.401805 1.062013,0.523365 0.22133,0.0707 0.448692,0.121564 0.679944,0.151486 0.123624,0.01681 0.248128,0.02676 0.373756,0.03271 0.01102,0 0.02206,0.0011 0.03298,0.0051 h 0.235138 2.69e-4 c 0.04086,-0.0087 0.08269,-0.0078 0.121994,-0.01233 0.149518,-0.009 0.298096,-0.02585 0.44561,-0.05175 0.38389,-0.06667 0.749893,-0.188461 1.0979425,-0.363836 0.302132,-0.152415 0.580438,-0.340822 0.834649,-0.564118 0.255302,-0.224208 0.477404,-0.477385 0.667879,-0.758503 0.256236,-0.377715 0.440905,-0.7874393 0.555539,-1.2290493 0.05987,-0.2352212 0.0975,-0.4735267 0.115558,-0.7148003 0.0029,-0.037821 0.0029,-0.075573 0.0029,-0.1134136 9.63e-4,-0.015954 0.0011,-0.032039 0.0051,-0.046921 v -0.235407 c -9.61e-4,-0.012859 -0.004,-0.026585 -0.004,-0.039682 -9.06e-4,-0.1973801 -0.028,-0.3927518 -0.06384,-0.586104 -0.06794,-0.365789 -0.187491,-0.71366 -0.354987,-1.045657 -0.141621,-0.280979 -0.314898,-0.541239 -0.519343,-0.780488 -0.254213,-0.298025 -0.545332,-0.553976 -0.875405,-0.766279 -0.424823,-0.273974 -0.8844345,-0.459459 -1.3799985,-0.557147 -0.157436,-0.03086 -0.316022,-0.05099 -0.47564,-0.06488 -0.03086,-0.003 -0.0627,0.002 -0.09357,-0.007 z m 0.123334,1.276774 c 0.25622,-0.01235 0.486344,0.0746 0.687452,0.257392 0.194385,0.176971 0.303135,0.402583 0.335683,0.668953 0.01952,0.161426 -0.0095,0.314999 -0.06891,0.463842 -0.05945,0.149754 -0.140319,0.287782 -0.230581,0.4190675 -0.0995,0.1449137 -0.209142,0.2802545 -0.324423,0.4115598 -0.08186,0.092415 -0.167419,0.1819197 -0.253906,0.2713346 -0.01954,0.021468 -0.04289,0.037987 -0.06891,0.049601 -0.02692,0.011622 -0.05277,0.011673 -0.07883,-0.00188 -0.02601,-0.012562 -0.05038,-0.029284 -0.07078,-0.048796 -0.249212,-0.2373469 -0.47895,-0.4928832 -0.661177,-0.7914802 -0.07999,-0.1313047 -0.147823,-0.2703077 -0.188754,-0.4220157 -0.02149,-0.07974 -0.03441,-0.159537 -0.03164,-0.232458 -0.0019,-0.506598 0.353475,-0.95765 0.843497,-1.033592 0.03766,-0.0058 0.07467,-0.0098 0.111269,-0.01153 z m -1.516471,2.6932367 c 0.245128,-0.00826 0.485488,0.025239 0.723916,0.077486 0.144014,0.031768 0.285268,0.070936 0.425503,0.114754 0.110397,0.034386 0.135534,0.096982 0.113145,0.1967981 -0.04031,0.1781695 -0.09276,0.3543432 -0.154435,0.52685 -0.05047,0.1426137 -0.108223,0.2835752 -0.177494,0.4187993 -0.05892,0.114763 -0.127282,0.2237321 -0.208595,0.3244221 -0.133702,0.165117 -0.307806,0.258401 -0.512639,0.30324 -0.06923,0.01471 -0.138339,0.02224 -0.200016,0.02038 -0.482532,0.0038 -0.907214,-0.336566 -0.990425,-0.8150766 -0.0579,-0.3348756 0.03546,-0.6286483 0.270262,-0.874866 0.137462,-0.1445075 0.305777,-0.2359766 0.504061,-0.2705301 0.06836,-0.012124 0.137466,-0.019476 0.206717,-0.022254 z m 3.106942,0 c 0.069249,0.00277 0.1383605,0.01013 0.2067195,0.022254 0.198282,0.034554 0.366597,0.1260226 0.50406,0.2705301 0.234798,0.2462178 0.328162,0.5399904 0.270262,0.8748663 -0.08321,0.4785111 -0.507624,0.8188451 -0.9901565,0.8150761 -0.06168,0.0019 -0.13105,-0.0057 -0.200284,-0.02038 -0.204835,-0.04484 -0.378937,-0.138123 -0.512641,-0.30324 -0.08131,-0.100689 -0.149672,-0.2096586 -0.208595,-0.3244216 -0.06927,-0.1352241 -0.12702,-0.2761856 -0.177494,-0.4187993 -0.06168,-0.1725068 -0.114123,-0.3486805 -0.154434,-0.52685 -0.02239,-0.099816 0.0028,-0.1624118 0.113145,-0.1967981 0.140235,-0.043818 0.281488,-0.082986 0.425501,-0.114754 0.238429,-0.052248 0.47879,-0.085748 0.723917,-0.077486 z"
     class="ColorScheme-Text" />
  <path
     id="gradient-path1"
     style="opacity:0.3;baseline-shift:baseline;display:inline;overflow:visible;vector-effect:none;enable-background:accumulate;stop-color:#000000;stop-opacity:1;fill:url(#linearGradient4)"
     d="M 8.4453131 1.2753492 C 4.4913166 1.2753492 1.2794833 4.4784283 1.2794833 8.4236094 C 1.2794833 12.36879 4.4913166 15.572386 8.4453131 15.572386 C 12.39931 15.572386 15.611143 12.36879 15.611143 8.4236094 C 15.611143 4.4784283 12.39931 1.2753492 8.4453131 1.2753492 z " />
</svg>
