<?xml version="1.0" encoding="UTF-8" standalone="no"?>
<svg
   width="64"
   height="64"
   version="1.1"
   viewBox="0 0 16.933 16.933"
   id="svg7"
   sodipodi:docname="rkward.svg"
   inkscape:version="1.4.2 (ebf0e940d0, 2025-05-08)"
   xmlns:inkscape="http://www.inkscape.org/namespaces/inkscape"
   xmlns:sodipodi="http://sodipodi.sourceforge.net/DTD/sodipodi-0.dtd"
   xmlns:xlink="http://www.w3.org/1999/xlink"
   xmlns="http://www.w3.org/2000/svg"
   xmlns:svg="http://www.w3.org/2000/svg"
   xmlns:rdf="http://www.w3.org/1999/02/22-rdf-syntax-ns#"
   xmlns:cc="http://creativecommons.org/ns#"
   xmlns:dc="http://purl.org/dc/elements/1.1/">
  <sodipodi:namedview
     id="namedview7"
     pagecolor="#9c4444"
     bordercolor="#000000"
     borderopacity="0.25"
     inkscape:showpageshadow="2"
     inkscape:pageopacity="0.0"
     inkscape:pagecheckerboard="0"
     inkscape:deskcolor="#d1d1d1"
     inkscape:zoom="8.7062522"
     inkscape:cx="72.419221"
     inkscape:cy="15.276378"
     inkscape:window-width="2560"
     inkscape:window-height="1388"
     inkscape:window-x="0"
     inkscape:window-y="0"
     inkscape:window-maximized="1"
     inkscape:current-layer="svg7"
     showgrid="false" />
  <defs
     id="defs2">
    <filter
       style="color-interpolation-filters:sRGB;"
       inkscape:label="Blur"
       id="filter3"
       x="-0.10843471"
       y="-0.10870992"
       width="1.2168694"
       height="1.2174198">
      <feGaussianBlur
         stdDeviation="0.5 0.5"
         result="blur"
         id="feGaussianBlur3" />
    </filter>
    <style
       id="current-color-scheme"
       type="text/css">.ColorScheme-Text {color:#d8dee9} .ColorScheme-Highlight {color:#3b4252}</style>
    <linearGradient
       id="linearGradient3"
       inkscape:collect="always">
      <stop
         style="stop-color:#000000;stop-opacity:1;"
         offset="0"
         id="stop3" />
      <stop
         style="stop-color:#000000;stop-opacity:0;"
         offset="1"
         id="stop4" />
    </linearGradient>
    <linearGradient
       inkscape:collect="always"
       xlink:href="#linearGradient3"
       id="linearGradient4"
       x1="13.512321"
       y1="13.490874"
       x2="3.3783066"
       y2="3.3568602"
       gradientUnits="userSpaceOnUse" />
  </defs>
  <metadata
     id="metadata2">
    <rdf:RDF>
      <cc:Work
         rdf:about="">
        <dc:format>image/svg+xml</dc:format>
        <dc:type
           rdf:resource="http://purl.org/dc/dcmitype/StillImage" />
      </cc:Work>
    </rdf:RDF>
  </metadata>
  <ellipse
     style="opacity:1;fill:none;stroke:#000000;stroke-width:0.582072;stroke-dasharray:none;stroke-opacity:1;filter:url(#filter3)"
     id="path1-5"
     cx="8.4450111"
     cy="8.423522"
     rx="6.8752708"
     ry="6.8578653" />
  <ellipse
     style="opacity:1;fill:none;stroke-width:0.58207188;stroke-opacity:1;stroke:currentColor;stroke-dasharray:none;fill-opacity:1"
     id="path1"
     cx="8.4450111"
     cy="8.423522"
     rx="6.8752708"
     ry="6.8578653"
     class="ColorScheme-Text" />
  <ellipse
     style="fill:currentColor;stroke:none;stroke-width:0.285844;stroke-dasharray:none;stroke-opacity:1"
     id="path1-2"
     cx="8.4557552"
     cy="8.423522"
     rx="6.5738997"
     ry="6.5692253"
     class="ColorScheme-Highlight" />
  <path
     id="path5"
     style="opacity:0.3;fill:#000000;fill-opacity:1;stroke-width:0.352938;stroke-linecap:round;stroke-linejoin:round"
     d="m 8.4857044,6.0696868 v 4.2662082 c 0.458774,0.02402 0.980098,-0.06912 1.306761,-0.205246 V 9.2126736 h 0.3670796 c 0.212279,0 0.381279,0.047811 0.507758,0.1404026 0.465047,0.5250127 0.372576,1.7766028 0.372576,1.7766028 h 1.387815 C 12.480674,10.418066 12.246095,9.3030382 11.914717,9.0398492 11.774689,8.8953112 11.612568,8.8049264 11.43416,8.7642643 11.759371,8.662635 12.00275,8.5037635 12.163099,8.2892031 12.325714,8.0746601 12.406245,7.7972462 12.406264,7.4629979 12.406245,6.9796841 12.253305,6.6279383 11.941642,6.4043452 11.752088,6.267373 11.471342,6.1875932 11.147858,6.1345303 l -0.431647,0.8742883 c 0.07999,0.046624 0.148775,0.1052165 0.210192,0.157163 0.119687,0.099383 0.178318,0.2609169 0.178318,0.491272 0,0.232619 -0.05863,0.4006333 -0.178318,0.5022626 -0.117459,0.1016464 -0.315257,0.1511356 -0.588538,0.1511182 H 9.7924654 l 8.49e-4,-2.2409476 z m -0.720972,1.6290556 c -0.877233,0 -1.672352,0.1843724 -2.262379,0.4951186 -0.295014,0.1553904 -0.538727,0.3422531 -0.716301,0.5632592 -0.177573,0.2210062 -0.288224,0.4833335 -0.288224,0.7687805 v 0.5687543 c 0,0.285447 0.110651,0.547774 0.288224,0.76878 0.177574,0.221006 0.421287,0.408161 0.716301,0.563534 0.590027,0.310746 1.385146,0.494844 2.262379,0.494844 0.877215,0 1.672355,-0.184098 2.2623786,-0.494844 0.29502,-0.155373 0.538447,-0.342528 0.716025,-0.563534 0.0565,-0.07033 0.106278,-0.144721 0.147822,-0.22283 -0.0029,-0.05903 -0.0072,-0.121615 -0.01318,-0.186013 -0.0151,-0.163181 -0.04351,-0.336468 -0.08737,-0.4975921 -0.324871,0.7399151 -1.5565856,1.2908251 -3.0256646,1.2908251 -1.716809,0 -3.10974,-0.752522 -3.10974,-1.6796114 0,-0.0173 0.0047,-0.034248 0.0093,-0.051105 0.107175,0.6761454 1.131679,1.2264534 2.46845,1.3608894 0.0089,8.98e-4 0.01687,0.003 0.02583,0.0038 h 2.84e-4 2.85e-4 2.84e-4 c 0.195826,0.01879 0.398161,0.02885 0.605297,0.02885 0.206945,0 0.408816,-0.01009 0.604474,-0.02885 h 2.85e-4 2.84e-4 c 0.0048,-4.49e-4 0.009,-0.0015 0.01374,-0.0019 1.133867,-0.1115 2.0450426,-0.522501 2.3662376,-1.0559048 -0.04797,-0.1386896 -0.109366,-0.2617841 -0.185189,-0.3522131 -0.0734,-0.051389 -0.166077,-0.088148 -0.290698,-0.1019363 0.09698,0.092619 0.168294,0.1906856 0.215963,0.2876744 -0.08098,0.1467154 -0.246263,0.3364277 -0.5239686,0.4951188 -0.0087,0.005 -0.01749,0.0099 -0.02638,0.01484 -0.01103,0.04575 -0.04307,0.08454 -0.08765,0.103584 -0.400004,0.167591 -1.162674,0.252897 -1.517503,0.209643 v -0.01594 c -0.41981,-0.03987 -0.768106,-0.159468 -1.032553,-0.306908 -0.28968,-0.161508 -0.45638,-0.3583588 -0.524243,-0.5003393 0.05767,-0.1719108 0.24103,-0.3799712 0.559138,-0.5368822 0.275072,-0.1356892 0.624371,-0.2342394 0.997656,-0.269815 V 8.6601364 c -0.870183,0.077193 -1.565281,0.4807678 -1.744457,0.9973813 -0.02934,-0.084625 -0.04808,-0.1681046 -0.04808,-0.2580001 0,-0.6386398 0.779144,-1.1665927 1.792538,-1.2556562 V 7.7254019 c -0.184972,-0.01747 -0.375242,-0.026652 -0.569593,-0.026652 z m 2.178852,0.4528056 v 0.00797 h 0.01649 c -0.0055,-0.00272 -0.01099,-0.00526 -0.01649,-0.00797 z" />
  <path
     id="path5-6"
     style="fill:currentColor;fill-opacity:1;stroke-width:0.352938;stroke-linecap:round;stroke-linejoin:round"
     d="m 8.4857044,5.5404367 v 4.2662079 c 0.458774,0.024021 0.980098,-0.069124 1.306761,-0.2052459 V 8.6834235 h 0.3670796 c 0.212279,0 0.381279,0.047811 0.507758,0.1404026 0.465047,0.5250127 0.372576,1.7766029 0.372576,1.7766029 h 1.387815 C 12.480674,9.8888157 12.246095,8.7737881 11.914717,8.5105991 11.774689,8.3660612 11.612568,8.2756763 11.43416,8.2350142 11.759371,8.133385 12.00275,7.9745134 12.163099,7.759953 12.325714,7.54541 12.406245,7.2679961 12.406264,6.9337478 12.406245,6.450434 12.253305,6.0986882 11.941642,5.8750951 11.752088,5.7381229 11.471342,5.6583431 11.147858,5.6052802 l -0.431647,0.8742883 c 0.07999,0.046624 0.148775,0.1052165 0.210192,0.157163 0.119687,0.099383 0.178318,0.2609169 0.178318,0.491272 0,0.232619 -0.05863,0.4006333 -0.178318,0.5022626 -0.117459,0.1016464 -0.315257,0.1511356 -0.588538,0.1511182 H 9.7924654 l 8.49e-4,-2.2409476 z m -0.720972,1.6290556 c -0.877233,0 -1.672352,0.1843724 -2.262379,0.4951186 -0.295014,0.1553904 -0.538727,0.3422531 -0.716301,0.5632592 -0.177573,0.2210062 -0.288224,0.4833335 -0.288224,0.7687806 v 0.5687544 c 0,0.2854469 0.110651,0.5477739 0.288224,0.7687799 0.177574,0.221006 0.421287,0.408161 0.716301,0.563534 0.590027,0.310746 1.385146,0.494844 2.262379,0.494844 0.877215,0 1.672355,-0.184098 2.2623786,-0.494844 0.29502,-0.155373 0.538447,-0.342528 0.716025,-0.563534 0.0565,-0.07033 0.106278,-0.144721 0.147822,-0.22283 -0.0029,-0.05903 -0.0072,-0.1216146 -0.01318,-0.1860134 -0.0151,-0.1631809 -0.04351,-0.3364678 -0.08737,-0.4975918 -0.324871,0.7399152 -1.5565856,1.2908252 -3.0256646,1.2908252 -1.716809,0 -3.10974,-0.7525225 -3.10974,-1.6796115 0,-0.0173 0.0047,-0.034248 0.0093,-0.051105 0.107175,0.6761451 1.131679,1.2264535 2.46845,1.3608895 0.0089,8.98e-4 0.01687,0.003 0.02583,0.0038 h 2.84e-4 2.85e-4 2.84e-4 c 0.195826,0.01879 0.398161,0.02885 0.605297,0.02885 0.206945,0 0.408816,-0.01009 0.604474,-0.02885 h 2.85e-4 2.84e-4 c 0.0048,-4.49e-4 0.009,-0.0015 0.01374,-0.0019 1.133867,-0.1115 2.0450426,-0.5225012 2.3662376,-1.0559049 C 10.701784,9.1560535 10.640388,9.032959 10.564565,8.94253 10.491165,8.891141 10.398488,8.854382 10.273867,8.8405937 c 0.09698,0.092619 0.168294,0.1906856 0.215963,0.2876744 -0.08098,0.1467154 -0.246263,0.3364277 -0.5239686,0.4951187 -0.0087,0.00497 -0.01749,0.00993 -0.02638,0.014837 -0.01103,0.045745 -0.04307,0.08454 -0.08765,0.1035846 -0.400004,0.1675908 -1.162674,0.2528964 -1.517503,0.2096421 v -0.015936 c -0.41981,-0.039868 -0.768106,-0.1594677 -1.032553,-0.3069079 -0.28968,-0.1615077 -0.45638,-0.3583585 -0.524243,-0.500339 0.05767,-0.1719108 0.24103,-0.3799712 0.559138,-0.5368822 0.275072,-0.1356892 0.624371,-0.2342394 0.997656,-0.269815 V 8.1308863 c -0.870183,0.077193 -1.565281,0.4807679 -1.744457,0.9973813 -0.02934,-0.084625 -0.04808,-0.1681046 -0.04808,-0.2580001 0,-0.6386398 0.779144,-1.1665927 1.792538,-1.2556562 V 7.1961518 c -0.184972,-0.01747 -0.375242,-0.026652 -0.569593,-0.026652 z m 2.178852,0.4528056 v 0.00797 h 0.01649 c -0.0055,-0.00272 -0.01099,-0.00526 -0.01649,-0.00797 z"
     class="ColorScheme-Text" />
  <path
     id="gradient-path1"
     style="opacity:0.3;baseline-shift:baseline;display:inline;overflow:visible;vector-effect:none;enable-background:accumulate;stop-color:#000000;stop-opacity:1;fill:url(#linearGradient4)"
     d="M 8.4453131 1.2753492 C 4.4913166 1.2753492 1.2794833 4.4784283 1.2794833 8.4236094 C 1.2794833 12.36879 4.4913166 15.572386 8.4453131 15.572386 C 12.39931 15.572386 15.611143 12.36879 15.611143 8.4236094 C 15.611143 4.4784283 12.39931 1.2753492 8.4453131 1.2753492 z " />
</svg>
