<?xml version="1.0" encoding="UTF-8" standalone="no"?>
<svg
   width="64"
   height="64"
   version="1.1"
   viewBox="0 0 16.933 16.933"
   id="svg7"
   sodipodi:docname="rofi.svg"
   inkscape:version="1.4.2 (ebf0e940d0, 2025-05-08)"
   xmlns:inkscape="http://www.inkscape.org/namespaces/inkscape"
   xmlns:sodipodi="http://sodipodi.sourceforge.net/DTD/sodipodi-0.dtd"
   xmlns:xlink="http://www.w3.org/1999/xlink"
   xmlns="http://www.w3.org/2000/svg"
   xmlns:svg="http://www.w3.org/2000/svg"
   xmlns:rdf="http://www.w3.org/1999/02/22-rdf-syntax-ns#"
   xmlns:cc="http://creativecommons.org/ns#"
   xmlns:dc="http://purl.org/dc/elements/1.1/">
  <sodipodi:namedview
     id="namedview7"
     pagecolor="#9c4444"
     bordercolor="#000000"
     borderopacity="0.25"
     inkscape:showpageshadow="2"
     inkscape:pageopacity="0.0"
     inkscape:pagecheckerboard="0"
     inkscape:deskcolor="#d1d1d1"
     inkscape:zoom="4.3531261"
     inkscape:cx="36.755195"
     inkscape:cy="27.106957"
     inkscape:window-width="2560"
     inkscape:window-height="1392"
     inkscape:window-x="0"
     inkscape:window-y="0"
     inkscape:window-maximized="1"
     inkscape:current-layer="svg7"
     showgrid="false" />
  <defs
     id="defs2">
    <filter
       style="color-interpolation-filters:sRGB;"
       inkscape:label="Blur"
       id="filter3"
       x="-0.10843471"
       y="-0.10870992"
       width="1.2168694"
       height="1.2174198">
      <feGaussianBlur
         stdDeviation="0.5 0.5"
         result="blur"
         id="feGaussianBlur3" />
    </filter>
    <style
       id="current-color-scheme"
       type="text/css">.ColorScheme-Text {color:#d8dee9} .ColorScheme-Highlight {color:#3b4252}</style>
    <linearGradient
       id="linearGradient3"
       inkscape:collect="always">
      <stop
         style="stop-color:#000000;stop-opacity:1;"
         offset="0"
         id="stop3" />
      <stop
         style="stop-color:#000000;stop-opacity:0;"
         offset="1"
         id="stop4" />
    </linearGradient>
    <linearGradient
       inkscape:collect="always"
       xlink:href="#linearGradient3"
       id="linearGradient4"
       x1="13.512321"
       y1="13.490874"
       x2="3.3783066"
       y2="3.3568602"
       gradientUnits="userSpaceOnUse" />
  </defs>
  <metadata
     id="metadata2">
    <rdf:RDF>
      <cc:Work
         rdf:about="">
        <dc:format>image/svg+xml</dc:format>
        <dc:type
           rdf:resource="http://purl.org/dc/dcmitype/StillImage" />
      </cc:Work>
    </rdf:RDF>
  </metadata>
  <ellipse
     style="opacity:1;fill:none;stroke:#000000;stroke-width:0.582072;stroke-dasharray:none;stroke-opacity:1;filter:url(#filter3)"
     id="path1-5"
     cx="8.4450111"
     cy="8.423522"
     rx="6.8752708"
     ry="6.8578653" />
  <ellipse
     style="opacity:1;fill:none;stroke-width:0.58207188;stroke-opacity:1;stroke:currentColor;stroke-dasharray:none;fill-opacity:1"
     id="path1"
     cx="8.4450111"
     cy="8.423522"
     rx="6.8752708"
     ry="6.8578653"
     class="ColorScheme-Text" />
  <ellipse
     style="fill:currentColor;stroke:none;stroke-width:0.285844;stroke-dasharray:none;stroke-opacity:1"
     id="path1-2"
     cx="8.4557552"
     cy="8.423522"
     rx="6.5738997"
     ry="6.5692253"
     class="ColorScheme-Highlight" />
  <path
     id="path5"
     style="opacity:0.3;fill:#000000;fill-opacity:1;stroke-width:0.0468742;stroke-linejoin:bevel;paint-order:fill markers stroke"
     d="m 5.738038,5.6548283 c -0.687077,0 -1.24021,0.553134 -1.24021,1.2402099 V 12.33646 h 7.937344 V 6.8950383 c 0,-0.687076 -0.553134,-1.24021 -1.24021,-1.24021 z m 2.662333,1.7324185 c 0.558583,0 1.004764,0.3878655 1.004764,0.8766251 0,0.4926387 -0.446171,0.8766251 -1.016391,0.8766251 -0.570219,0 -1.016148,-0.3839864 -1.016148,-0.8766251 0,-0.4965177 0.445919,-0.8766251 1.027775,-0.8766251 z m -3.150424,0.096891 h 0.833266 c 0.497006,0 0.837142,0.5508634 0.837142,1.3421883 0,0.4732431 -0.127092,0.8378598 -0.39241,1.1249091 0.160686,0.2870488 0.310239,0.6516858 0.45224,1.1016558 h 0.04118 c 0.100895,0 0.138143,0.01545 0.179249,0.07751 0.04858,0.06982 0.08236,0.20191 0.08236,0.326039 0,0.139646 -0.03758,0.271471 -0.09738,0.349051 -0.02989,0.03103 -0.08949,0.05426 -0.16423,0.05426 H 6.718578 l -0.01114,-0.04651 C 6.513117,11.091743 6.187875,10.323635 6.0384,10.215022 H 5.694678 v 0.837868 h 0.115785 c 0.104633,0 0.138386,0.01545 0.179492,0.07751 0.05231,0.07758 0.08211,0.20191 0.08211,0.32604 0,0.139645 -0.03734,0.27147 -0.09713,0.349051 -0.0299,0.03103 -0.086,0.05426 -0.164473,0.05426 H 5.249945 c -0.171896,0 -0.261607,-0.139535 -0.261607,-0.40331 0,-0.139646 0.03734,-0.27172 0.09713,-0.341543 0.03737,-0.04655 0.07105,-0.06201 0.164473,-0.06201 h 0.04118 V 8.2832495 h -0.04118 c -0.09716,0 -0.138144,-0.015448 -0.179249,-0.077513 -0.04858,-0.069823 -0.08236,-0.1939098 -0.08236,-0.3257973 0,-0.1318875 0.03734,-0.2639613 0.09713,-0.3415423 0.03737,-0.046547 0.06358,-0.054259 0.164473,-0.054259 z m 4.661446,0 h 1.650545 c 0.153032,0 0.202214,0.015691 0.262334,0.077755 0.07652,0.077581 0.120387,0.1939168 0.120387,0.3180461 0,0.1396457 -0.05474,0.2714705 -0.142188,0.3490513 -0.04919,0.038789 -0.114828,0.054259 -0.240533,0.054259 h -0.529996 v 2.7773928 h 0.529996 c 0.147567,0 0.202214,0.01545 0.262334,0.07751 0.07652,0.07758 0.120387,0.194158 0.120387,0.318288 0,0.271533 -0.131311,0.40331 -0.382721,0.40331 H 9.911393 c -0.25141,0 -0.382479,-0.131777 -0.382479,-0.40331 0,-0.131888 0.0545,-0.263962 0.141946,-0.341542 0.05466,-0.04655 0.09843,-0.05426 0.240533,-0.05426 h 0.530238 V 8.2832501 H 9.911393 c -0.142102,0 -0.202214,-0.015448 -0.262334,-0.077513 -0.07652,-0.069823 -0.120145,-0.1939098 -0.120145,-0.3257973 0,-0.1318875 0.0545,-0.2639613 0.141946,-0.3415423 0.05466,-0.046549 0.09843,-0.054259 0.240533,-0.05426 z m -1.5304,0.3025434 c -0.329719,0 -0.589584,0.2095362 -0.589584,0.4771902 0,0.2676539 0.259859,0.4771903 0.597335,0.4771903 0.337477,0 0.597578,-0.2095363 0.597578,-0.4771903 0,-0.271533 -0.260094,-0.4771902 -0.605329,-0.4771902 z M 5.694679,8.2832496 v 1.1326606 h 0.269115 c 0.306425,0 0.530481,-0.2559662 0.530481,-0.6128382 0,-0.3025652 -0.168094,-0.5198224 -0.396043,-0.5198224 z m 3.041664,1.2375456 c 0.166798,0 0.407316,0.027102 0.535325,0.058135 0.112492,0.031033 0.174404,0.097053 0.174404,0.1901494 0,0.1163715 -0.08541,0.2054098 -0.194025,0.2054098 -0.02715,0 -0.06584,-0.00387 -0.11627,-0.011628 -0.143524,-0.023273 -0.306553,-0.038757 -0.430682,-0.038757 -0.213348,0 -0.314171,0.054403 -0.314171,0.1668956 v 0.120145 H 8.96113 c 0.108614,0 0.143605,0.0077 0.186274,0.03488 0.05431,0.03879 0.08526,0.100955 0.08526,0.16302 0,0.135766 -0.0931,0.201776 -0.271539,0.201776 H 8.390919 v 0.849496 h 0.523698 c 0.108613,0 0.143605,0.0077 0.186274,0.03876 0.05431,0.03879 0.08526,0.09684 0.08526,0.158902 0,0.135766 -0.0931,0.201776 -0.271539,0.201776 H 7.762574 c -0.0931,0 -0.147484,-0.0116 -0.186274,-0.03876 -0.05431,-0.03879 -0.08526,-0.09708 -0.08526,-0.16302 0,-0.06594 0.0387,-0.131738 0.100766,-0.170528 0.03879,-0.02327 0.06992,-0.02713 0.170772,-0.02713 H 7.972105 V 10.610822 H 7.80521 c -0.178436,0 -0.271538,-0.06601 -0.271538,-0.201776 0,-0.06982 0.03894,-0.13586 0.101009,-0.170771 0.03879,-0.02327 0.06967,-0.02713 0.174405,-0.02713 h 0.163019 v -0.120146 c 0,-0.3529923 0.294867,-0.5702053 0.764232,-0.5702051 z" />
  <path
     id="path5-1"
     style="fill:currentColor;stroke-width:0.0468742;stroke-linejoin:bevel;paint-order:fill markers stroke"
     d="m 5.738038,5.1256842 c -0.687077,0 -1.24021,0.553134 -1.24021,1.24021 v 5.4414218 h 7.937344 V 6.3658942 c 0,-0.687076 -0.553134,-1.24021 -1.24021,-1.24021 z m 2.662333,1.7324186 c 0.558583,0 1.004764,0.3878655 1.004764,0.876625 0,0.4926387 -0.446171,0.8766251 -1.016391,0.8766251 -0.570219,0 -1.016148,-0.3839864 -1.016148,-0.8766251 0,-0.4965177 0.445919,-0.876625 1.027775,-0.876625 z m -3.150424,0.096891 h 0.833266 c 0.497006,0 0.837142,0.5508634 0.837142,1.3421883 0,0.4732431 -0.127092,0.8378597 -0.39241,1.1249091 0.160686,0.2870491 0.310239,0.6516858 0.45224,1.1016558 h 0.04118 c 0.100895,0 0.138143,0.01545 0.179249,0.07751 0.04858,0.06982 0.08236,0.20191 0.08236,0.326039 0,0.139646 -0.03758,0.271471 -0.09738,0.349051 -0.02989,0.03103 -0.08949,0.05426 -0.16423,0.05426 H 6.718578 l -0.01114,-0.04651 C 6.513117,10.562599 6.187875,9.7944908 6.0384,9.6858776 H 5.694678 v 0.8378684 h 0.115785 c 0.104633,0 0.138386,0.01545 0.179492,0.07751 0.05231,0.07758 0.08211,0.20191 0.08211,0.32604 0,0.139645 -0.03734,0.27147 -0.09713,0.349051 -0.0299,0.03103 -0.086,0.05426 -0.164473,0.05426 H 5.249945 c -0.171896,0 -0.261607,-0.139535 -0.261607,-0.40331 0,-0.139646 0.03734,-0.27172 0.09713,-0.341543 0.03737,-0.04655 0.07105,-0.06201 0.164473,-0.06201 h 0.04118 V 7.7541055 h -0.04118 c -0.09716,0 -0.138144,-0.015448 -0.179249,-0.077513 -0.04858,-0.069823 -0.08236,-0.1939098 -0.08236,-0.3257973 0,-0.1318875 0.03734,-0.2639613 0.09713,-0.3415423 0.03737,-0.046547 0.06358,-0.054259 0.164473,-0.054259 z m 4.661446,0 h 1.650545 c 0.153032,0 0.202214,0.015691 0.262334,0.077755 0.07652,0.077581 0.120387,0.1939168 0.120387,0.3180461 0,0.1396457 -0.05474,0.2714705 -0.142188,0.3490513 -0.04919,0.038789 -0.114828,0.054259 -0.240533,0.054259 h -0.529996 v 2.7773928 h 0.529996 c 0.147567,0 0.202214,0.01545 0.262334,0.07751 0.07652,0.07758 0.120387,0.194158 0.120387,0.318288 0,0.271533 -0.131311,0.40331 -0.382721,0.40331 H 9.911393 c -0.25141,0 -0.382479,-0.131777 -0.382479,-0.40331 0,-0.131888 0.0545,-0.263962 0.141946,-0.341542 0.05466,-0.04655 0.09843,-0.05426 0.240533,-0.05426 h 0.530238 V 7.754106 H 9.911393 C 9.769291,7.754106 9.709179,7.738658 9.649059,7.676593 9.572539,7.60677 9.528914,7.4826832 9.528914,7.3507957 c 0,-0.1318875 0.0545,-0.2639613 0.141946,-0.3415423 0.05466,-0.046549 0.09843,-0.054259 0.240533,-0.05426 z m -1.5304,0.3025434 c -0.329719,0 -0.589584,0.2095362 -0.589584,0.4771902 0,0.2676539 0.259859,0.4771902 0.597335,0.4771902 0.337477,0 0.597578,-0.2095363 0.597578,-0.4771902 0,-0.271533 -0.260094,-0.4771902 -0.605329,-0.4771902 z M 5.694679,7.7541056 v 1.1326606 h 0.269115 c 0.306425,0 0.530481,-0.2559662 0.530481,-0.6128382 0,-0.3025652 -0.168094,-0.5198224 -0.396043,-0.5198224 z m 3.041664,1.2375456 c 0.166798,0 0.407316,0.027102 0.535325,0.058135 0.112492,0.031033 0.174404,0.097053 0.174404,0.1901494 0,0.1163715 -0.08541,0.2054098 -0.194025,0.2054098 -0.02715,0 -0.06584,-0.00387 -0.11627,-0.011628 -0.143524,-0.023273 -0.306553,-0.038757 -0.430682,-0.038757 -0.213348,0 -0.314171,0.054403 -0.314171,0.1668953 V 9.6820012 H 8.96113 c 0.108614,0 0.143605,0.00773 0.186274,0.034881 0.05431,0.038791 0.08526,0.1009549 0.08526,0.1630197 0,0.1357661 -0.0931,0.2017761 -0.271539,0.2017761 H 8.390919 v 0.849496 h 0.523698 c 0.108613,0 0.143605,0.0077 0.186274,0.03876 0.05431,0.03879 0.08526,0.09684 0.08526,0.158902 0,0.135766 -0.0931,0.201776 -0.271539,0.201776 H 7.762574 c -0.0931,0 -0.147484,-0.0116 -0.186274,-0.03876 -0.05431,-0.03879 -0.08526,-0.09708 -0.08526,-0.16302 0,-0.06594 0.0387,-0.131738 0.100766,-0.170528 0.03879,-0.02327 0.06992,-0.02713 0.170772,-0.02713 H 7.972105 V 10.081678 H 7.80521 c -0.178436,0 -0.271538,-0.06601 -0.271538,-0.2017761 0,-0.069823 0.03894,-0.1358595 0.101009,-0.1707711 0.03879,-0.023274 0.06967,-0.02713 0.174405,-0.02713 H 7.972105 V 9.5618553 c 0,-0.3529927 0.294867,-0.5702057 0.764232,-0.5702055 z"
     class="ColorScheme-Text" />
  <path
     id="gradient-path1"
     style="opacity:0.3;baseline-shift:baseline;display:inline;overflow:visible;vector-effect:none;enable-background:accumulate;stop-color:#000000;stop-opacity:1;fill:url(#linearGradient4)"
     d="M 8.4453131 1.2753492 C 4.4913166 1.2753492 1.2794833 4.4784283 1.2794833 8.4236094 C 1.2794833 12.36879 4.4913166 15.572386 8.4453131 15.572386 C 12.39931 15.572386 15.611143 12.36879 15.611143 8.4236094 C 15.611143 4.4784283 12.39931 1.2753492 8.4453131 1.2753492 z " />
</svg>
