<?xml version="1.0" encoding="UTF-8" standalone="no"?>
<svg
   width="64"
   height="64"
   version="1.1"
   viewBox="0 0 16.933 16.933"
   id="svg7"
   sodipodi:docname="rubymine.svg"
   inkscape:version="1.4.2 (ebf0e940d0, 2025-05-08)"
   xmlns:inkscape="http://www.inkscape.org/namespaces/inkscape"
   xmlns:sodipodi="http://sodipodi.sourceforge.net/DTD/sodipodi-0.dtd"
   xmlns:xlink="http://www.w3.org/1999/xlink"
   xmlns="http://www.w3.org/2000/svg"
   xmlns:svg="http://www.w3.org/2000/svg"
   xmlns:rdf="http://www.w3.org/1999/02/22-rdf-syntax-ns#"
   xmlns:cc="http://creativecommons.org/ns#"
   xmlns:dc="http://purl.org/dc/elements/1.1/">
  <sodipodi:namedview
     id="namedview7"
     pagecolor="#9c4444"
     bordercolor="#000000"
     borderopacity="0.25"
     inkscape:showpageshadow="2"
     inkscape:pageopacity="0.0"
     inkscape:pagecheckerboard="0"
     inkscape:deskcolor="#d1d1d1"
     inkscape:zoom="8.7062522"
     inkscape:cx="73.567821"
     inkscape:cy="29.059576"
     inkscape:window-width="2560"
     inkscape:window-height="1388"
     inkscape:window-x="0"
     inkscape:window-y="0"
     inkscape:window-maximized="1"
     inkscape:current-layer="svg7"
     showgrid="false" />
  <defs
     id="defs2">
    <filter
       style="color-interpolation-filters:sRGB;"
       inkscape:label="Blur"
       id="filter3"
       x="-0.10843471"
       y="-0.10870992"
       width="1.2168694"
       height="1.2174198">
      <feGaussianBlur
         stdDeviation="0.5 0.5"
         result="blur"
         id="feGaussianBlur3" />
    </filter>
    <style
       id="current-color-scheme"
       type="text/css">.ColorScheme-Text {color:#d8dee9} .ColorScheme-Highlight {color:#3b4252}</style>
    <linearGradient
       id="linearGradient3"
       inkscape:collect="always">
      <stop
         style="stop-color:#000000;stop-opacity:1;"
         offset="0"
         id="stop3" />
      <stop
         style="stop-color:#000000;stop-opacity:0;"
         offset="1"
         id="stop4" />
    </linearGradient>
    <linearGradient
       inkscape:collect="always"
       xlink:href="#linearGradient3"
       id="linearGradient4"
       x1="13.512321"
       y1="13.490874"
       x2="3.3783066"
       y2="3.3568602"
       gradientUnits="userSpaceOnUse" />
  </defs>
  <metadata
     id="metadata2">
    <rdf:RDF>
      <cc:Work
         rdf:about="">
        <dc:format>image/svg+xml</dc:format>
        <dc:type
           rdf:resource="http://purl.org/dc/dcmitype/StillImage" />
      </cc:Work>
    </rdf:RDF>
  </metadata>
  <ellipse
     style="opacity:1;fill:none;stroke:#000000;stroke-width:0.582072;stroke-dasharray:none;stroke-opacity:1;filter:url(#filter3)"
     id="path1-5"
     cx="8.4450111"
     cy="8.423522"
     rx="6.8752708"
     ry="6.8578653" />
  <ellipse
     style="opacity:1;fill:none;stroke-width:0.58207188;stroke-opacity:1;stroke:currentColor;stroke-dasharray:none;fill-opacity:1"
     id="path1"
     cx="8.4450111"
     cy="8.423522"
     rx="6.8752708"
     ry="6.8578653"
     class="ColorScheme-Text" />
  <ellipse
     style="fill:currentColor;stroke:none;stroke-width:0.285844;stroke-dasharray:none;stroke-opacity:1"
     id="path1-2"
     cx="8.4557552"
     cy="8.423522"
     rx="6.5738997"
     ry="6.5692253"
     class="ColorScheme-Highlight" />
  <path
     id="path5"
     style="opacity:0.3;fill:#000000;fill-opacity:1;fill-rule:nonzero;stroke:none;stroke-width:0.183431"
     d="m 8.4665,5.0269844 c -2.230855,0 -4.039541,1.7769535 -4.039541,3.9686718 0,2.1917178 1.808686,3.9686718 4.039541,3.9686718 2.230858,0 4.039541,-1.776954 4.039541,-3.9686718 0,-2.1917183 -1.808683,-3.9686718 -4.039541,-3.9686718 z M 6.542792,6.1608907 h 3.847419 c 0.532838,0 0.961717,0.4213389 0.961717,0.9448296 v 3.7798717 c 0,0.523491 -0.428879,0.94483 -0.961717,0.94483 H 6.542792 c -0.532839,0 -0.961718,-0.421339 -0.961718,-0.94483 V 7.1057203 c 0,-0.5234907 0.428879,-0.9448296 0.961718,-0.9448296 z M 6.208376,6.7771199 V 9.2173992 H 6.659891 V 8.3301507 H 7.111406 L 7.563197,9.2173992 H 8.014709 L 7.516689,8.247101 C 7.802096,8.0881705 8.014709,7.8864149 8.014709,7.5536353 8.014709,7.1226185 7.5633,6.7771199 7.111682,6.7771199 Z m 2.258124,0 v 2.4402793 h 0.451515 v -1.552754 l 0.67741,1.1092682 0.677407,-1.1092682 v 1.552754 h 0.451791 V 6.7771199 H 10.272832 L 9.595425,7.8863881 8.918015,6.7771199 Z M 6.659891,7.2208827 h 0.451791 c 0.358083,0 0.451606,0.1779573 0.457881,0.3327526 -0.0063,0.1747366 -0.105564,0.3327528 -0.457881,0.3327528 H 6.659891 Z M 5.982481,10.77043 v 0.443486 H 8.240604 V 10.77043 Z" />
  <path
     id="path5-6"
     style="fill:currentColor;fill-opacity:1;fill-rule:nonzero;stroke:none;stroke-width:0.183431"
     d="m 8.4665,4.497828 c -2.230855,0 -4.039541,1.7769535 -4.039541,3.9686718 0,2.1917182 1.808686,3.9686722 4.039541,3.9686722 2.230858,0 4.039541,-1.776954 4.039541,-3.9686722 0,-2.1917183 -1.808683,-3.9686718 -4.039541,-3.9686718 z M 6.542792,5.6317343 h 3.847419 c 0.532838,0 0.961717,0.4213389 0.961717,0.9448296 v 3.7798721 c 0,0.523491 -0.428879,0.944829 -0.961717,0.944829 H 6.542792 c -0.532839,0 -0.961718,-0.421338 -0.961718,-0.944829 V 6.5765639 c 0,-0.5234907 0.428879,-0.9448296 0.961718,-0.9448296 z M 6.208376,6.2479635 V 8.6882428 H 6.659891 V 7.8009943 H 7.111406 L 7.563197,8.6882428 H 8.014709 L 7.516689,7.7179446 C 7.802096,7.5590141 8.014709,7.3572585 8.014709,7.0244789 8.014709,6.5934621 7.5633,6.2479635 7.111682,6.2479635 Z m 2.258124,0 v 2.4402793 h 0.451515 v -1.552754 l 0.67741,1.1092682 0.677407,-1.1092682 v 1.552754 h 0.451791 V 6.2479635 H 10.272832 L 9.595425,7.3572317 8.918015,6.2479635 Z M 6.659891,6.6917263 h 0.451791 c 0.358083,0 0.451606,0.1779573 0.457881,0.3327526 -0.0063,0.1747366 -0.105564,0.3327528 -0.457881,0.3327528 H 6.659891 Z m -0.67741,3.5495467 v 0.443486 h 2.258123 v -0.443486 z"
     class="ColorScheme-Text" />
  <path
     id="gradient-path1"
     style="opacity:0.3;baseline-shift:baseline;display:inline;overflow:visible;vector-effect:none;enable-background:accumulate;stop-color:#000000;stop-opacity:1;fill:url(#linearGradient4)"
     d="M 8.4453131 1.2753492 C 4.4913166 1.2753492 1.2794833 4.4784283 1.2794833 8.4236094 C 1.2794833 12.36879 4.4913166 15.572386 8.4453131 15.572386 C 12.39931 15.572386 15.611143 12.36879 15.611143 8.4236094 C 15.611143 4.4784283 12.39931 1.2753492 8.4453131 1.2753492 z " />
</svg>
