<?xml version="1.0" encoding="UTF-8" standalone="no"?>
<svg
   width="64"
   height="64"
   version="1.1"
   viewBox="0 0 16.933 16.933"
   id="svg7"
   sodipodi:docname="rustrover.svg"
   inkscape:version="1.4.2 (ebf0e940d0, 2025-05-08)"
   xmlns:inkscape="http://www.inkscape.org/namespaces/inkscape"
   xmlns:sodipodi="http://sodipodi.sourceforge.net/DTD/sodipodi-0.dtd"
   xmlns:xlink="http://www.w3.org/1999/xlink"
   xmlns="http://www.w3.org/2000/svg"
   xmlns:svg="http://www.w3.org/2000/svg"
   xmlns:rdf="http://www.w3.org/1999/02/22-rdf-syntax-ns#"
   xmlns:cc="http://creativecommons.org/ns#"
   xmlns:dc="http://purl.org/dc/elements/1.1/">
  <sodipodi:namedview
     id="namedview7"
     pagecolor="#9c4444"
     bordercolor="#000000"
     borderopacity="0.25"
     inkscape:showpageshadow="2"
     inkscape:pageopacity="0.0"
     inkscape:pagecheckerboard="0"
     inkscape:deskcolor="#d1d1d1"
     inkscape:zoom="8.7062522"
     inkscape:cx="73.797541"
     inkscape:cy="29.059576"
     inkscape:window-width="2560"
     inkscape:window-height="1388"
     inkscape:window-x="0"
     inkscape:window-y="0"
     inkscape:window-maximized="1"
     inkscape:current-layer="svg7"
     showgrid="false" />
  <defs
     id="defs2">
    <filter
       style="color-interpolation-filters:sRGB;"
       inkscape:label="Blur"
       id="filter3"
       x="-0.10843471"
       y="-0.10870992"
       width="1.2168694"
       height="1.2174198">
      <feGaussianBlur
         stdDeviation="0.5 0.5"
         result="blur"
         id="feGaussianBlur3" />
    </filter>
    <style
       id="current-color-scheme"
       type="text/css">.ColorScheme-Text {color:#d8dee9} .ColorScheme-Highlight {color:#3b4252}</style>
    <linearGradient
       id="linearGradient3"
       inkscape:collect="always">
      <stop
         style="stop-color:#000000;stop-opacity:1;"
         offset="0"
         id="stop3" />
      <stop
         style="stop-color:#000000;stop-opacity:0;"
         offset="1"
         id="stop4" />
    </linearGradient>
    <linearGradient
       inkscape:collect="always"
       xlink:href="#linearGradient3"
       id="linearGradient4"
       x1="13.512321"
       y1="13.490874"
       x2="3.3783066"
       y2="3.3568602"
       gradientUnits="userSpaceOnUse" />
  </defs>
  <metadata
     id="metadata2">
    <rdf:RDF>
      <cc:Work
         rdf:about="">
        <dc:format>image/svg+xml</dc:format>
        <dc:type
           rdf:resource="http://purl.org/dc/dcmitype/StillImage" />
      </cc:Work>
    </rdf:RDF>
  </metadata>
  <ellipse
     style="opacity:1;fill:none;stroke:#000000;stroke-width:0.582072;stroke-dasharray:none;stroke-opacity:1;filter:url(#filter3)"
     id="path1-5"
     cx="8.4450111"
     cy="8.423522"
     rx="6.8752708"
     ry="6.8578653" />
  <ellipse
     style="opacity:1;fill:none;stroke-width:0.58207188;stroke-opacity:1;stroke:currentColor;stroke-dasharray:none;fill-opacity:1"
     id="path1"
     cx="8.4450111"
     cy="8.423522"
     rx="6.8752708"
     ry="6.8578653"
     class="ColorScheme-Text" />
  <ellipse
     style="fill:currentColor;stroke:none;stroke-width:0.285844;stroke-dasharray:none;stroke-opacity:1"
     id="path1-2"
     cx="8.4557552"
     cy="8.423522"
     rx="6.5738997"
     ry="6.5692253"
     class="ColorScheme-Highlight" />
  <path
     id="path5-3"
     style="opacity:0.3;fill:#000000;fill-opacity:1;fill-rule:nonzero;stroke:none;stroke-width:0.183431"
     d="m 8.4665005,5.0269844 c -2.230855,0 -4.039458,1.7769535 -4.039458,3.9686718 0,2.1917178 1.808603,3.9686718 4.039458,3.9686718 2.2308575,0 4.0394565,-1.776954 4.0394565,-3.9686718 0,-2.1917183 -1.808599,-3.9686718 -4.0394565,-3.9686718 z m -1.923788,1.1340317 h 3.8475765 c 0.532838,0 0.961747,0.4212917 0.961747,0.9447824 v 3.7797155 c 0,0.523491 -0.428909,0.944782 -0.961747,0.944782 H 6.5427125 c -0.532839,0 -0.961748,-0.421291 -0.961748,-0.944782 V 7.1057985 c 0,-0.5234907 0.428909,-0.9447824 0.961748,-0.9447824 z m -0.108519,0.6160098 v 2.4403472 h 0.451624 V 8.3302135 h 0.451624 l 0.451623,0.8871596 h 0.451624 L 7.7425565,8.2471428 c 0.285408,-0.1589305 0.498132,-0.3607435 0.498132,-0.6935231 0,-0.4310168 -0.451629,-0.7765938 -0.903247,-0.7765938 z m 2.258118,0 v 2.4403472 h 0.451624 V 8.3302135 h 0.451624 l 0.4516235,0.8871596 h 0.451623 L 10.000674,8.2471428 c 0.285408,-0.1589305 0.498132,-0.3607435 0.498132,-0.6935231 0,-0.4310168 -0.451629,-0.7765938 -0.9032465,-0.7765938 z m -1.806494,0.4437262 h 0.451624 c 0.358083,0 0.452076,0.1780723 0.45835,0.3328676 -0.0063,0.1747366 -0.106033,0.3328676 -0.45835,0.3328676 h -0.451624 z m 2.258118,0 h 0.451624 c 0.358083,0 0.4520765,0.1780723 0.4583495,0.3328676 -0.0063,0.1747366 -0.1060325,0.3328676 -0.4583495,0.3328676 H 9.1439355 Z M 5.9825705,10.77056 v 0.443434 h 2.258118 V 10.77056 Z" />
  <path
     id="path5-3-7"
     style="fill:currentColor;fill-opacity:1;fill-rule:nonzero;stroke:none;stroke-width:0.183431"
     d="m 8.4665005,4.4978281 c -2.230855,0 -4.039458,1.7769535 -4.039458,3.9686718 0,2.1917181 1.808603,3.9686721 4.039458,3.9686721 2.2308565,0 4.0394565,-1.776954 4.0394565,-3.9686721 0,-2.1917183 -1.8086,-3.9686718 -4.0394565,-3.9686718 z m -1.923788,1.1340317 h 3.8475755 c 0.532838,0 0.961747,0.4212917 0.961747,0.9447824 v 3.7797158 c 0,0.52349 -0.428909,0.944782 -0.961747,0.944782 H 6.5427125 c -0.532839,0 -0.961748,-0.421292 -0.961748,-0.944782 V 6.5766422 c 0,-0.5234907 0.428909,-0.9447824 0.961748,-0.9447824 z m -0.108519,0.6160098 v 2.4403472 h 0.451624 V 7.8010572 h 0.451624 l 0.451623,0.8871596 h 0.451624 L 7.7425565,7.7179865 c 0.285408,-0.1589305 0.498132,-0.3607435 0.498132,-0.6935231 0,-0.4310168 -0.451629,-0.7765938 -0.903247,-0.7765938 z m 2.258118,0 v 2.4403472 h 0.451624 V 7.8010572 h 0.451624 l 0.4516225,0.8871596 h 0.451624 L 10.000674,7.7179865 c 0.285408,-0.1589305 0.498132,-0.3607435 0.498132,-0.6935231 0,-0.4310168 -0.451629,-0.7765938 -0.9032465,-0.7765938 z m -1.806494,0.4437262 h 0.451624 c 0.358083,0 0.452076,0.1780723 0.45835,0.3328676 -0.0063,0.1747366 -0.106033,0.3328676 -0.45835,0.3328676 h -0.451624 z m 2.258118,0 h 0.451624 c 0.358083,0 0.4520755,0.1780723 0.4583495,0.3328676 C 10.047609,7.1992 9.9478765,7.357331 9.5955595,7.357331 h -0.451624 z m -3.161365,3.5498082 v 0.443434 h 2.258118 v -0.443434 z"
     class="ColorScheme-Text" />
  <path
     id="gradient-path1"
     style="opacity:0.3;baseline-shift:baseline;display:inline;overflow:visible;vector-effect:none;enable-background:accumulate;stop-color:#000000;stop-opacity:1;fill:url(#linearGradient4)"
     d="M 8.4453131 1.2753492 C 4.4913166 1.2753492 1.2794833 4.4784283 1.2794833 8.4236094 C 1.2794833 12.36879 4.4913166 15.572386 8.4453131 15.572386 C 12.39931 15.572386 15.611143 12.36879 15.611143 8.4236094 C 15.611143 4.4784283 12.39931 1.2753492 8.4453131 1.2753492 z " />
</svg>
