<?xml version="1.0" encoding="UTF-8" standalone="no"?>
<svg
   width="64"
   height="64"
   version="1.1"
   viewBox="0 0 16.933 16.933"
   id="svg7"
   sodipodi:docname="satty.svg"
   inkscape:version="1.4.2 (ebf0e940d0, 2025-05-08)"
   xmlns:inkscape="http://www.inkscape.org/namespaces/inkscape"
   xmlns:sodipodi="http://sodipodi.sourceforge.net/DTD/sodipodi-0.dtd"
   xmlns:xlink="http://www.w3.org/1999/xlink"
   xmlns="http://www.w3.org/2000/svg"
   xmlns:svg="http://www.w3.org/2000/svg"
   xmlns:rdf="http://www.w3.org/1999/02/22-rdf-syntax-ns#"
   xmlns:cc="http://creativecommons.org/ns#"
   xmlns:dc="http://purl.org/dc/elements/1.1/">
  <sodipodi:namedview
     id="namedview7"
     pagecolor="#9c4444"
     bordercolor="#000000"
     borderopacity="0.25"
     inkscape:showpageshadow="2"
     inkscape:pageopacity="0.0"
     inkscape:pagecheckerboard="0"
     inkscape:deskcolor="#d1d1d1"
     inkscape:zoom="4.3531261"
     inkscape:cx="36.755195"
     inkscape:cy="26.877237"
     inkscape:window-width="2560"
     inkscape:window-height="1392"
     inkscape:window-x="0"
     inkscape:window-y="0"
     inkscape:window-maximized="1"
     inkscape:current-layer="svg7"
     showgrid="false" />
  <defs
     id="defs2">
    <filter
       style="color-interpolation-filters:sRGB;"
       inkscape:label="Blur"
       id="filter3"
       x="-0.10843471"
       y="-0.10870992"
       width="1.2168694"
       height="1.2174198">
      <feGaussianBlur
         stdDeviation="0.5 0.5"
         result="blur"
         id="feGaussianBlur3" />
    </filter>
    <style
       id="current-color-scheme"
       type="text/css">.ColorScheme-Text {color:#d8dee9} .ColorScheme-Highlight {color:#3b4252}</style>
    <linearGradient
       id="linearGradient3"
       inkscape:collect="always">
      <stop
         style="stop-color:#000000;stop-opacity:1;"
         offset="0"
         id="stop3" />
      <stop
         style="stop-color:#000000;stop-opacity:0;"
         offset="1"
         id="stop4" />
    </linearGradient>
    <linearGradient
       inkscape:collect="always"
       xlink:href="#linearGradient3"
       id="linearGradient4"
       x1="13.512321"
       y1="13.490874"
       x2="3.3783066"
       y2="3.3568602"
       gradientUnits="userSpaceOnUse" />
  </defs>
  <metadata
     id="metadata2">
    <rdf:RDF>
      <cc:Work
         rdf:about="">
        <dc:format>image/svg+xml</dc:format>
        <dc:type
           rdf:resource="http://purl.org/dc/dcmitype/StillImage" />
      </cc:Work>
    </rdf:RDF>
  </metadata>
  <ellipse
     style="opacity:1;fill:none;stroke:#000000;stroke-width:0.582072;stroke-dasharray:none;stroke-opacity:1;filter:url(#filter3)"
     id="path1-5"
     cx="8.4450111"
     cy="8.423522"
     rx="6.8752708"
     ry="6.8578653" />
  <ellipse
     style="opacity:1;fill:none;stroke-width:0.58207188;stroke-opacity:1;stroke:currentColor;stroke-dasharray:none;fill-opacity:1"
     id="path1"
     cx="8.4450111"
     cy="8.423522"
     rx="6.8752708"
     ry="6.8578653"
     class="ColorScheme-Text" />
  <ellipse
     style="fill:currentColor;stroke:none;stroke-width:0.285844;stroke-dasharray:none;stroke-opacity:1"
     id="path1-2"
     cx="8.4557552"
     cy="8.423522"
     rx="6.5738997"
     ry="6.5692253"
     class="ColorScheme-Highlight" />
  <path
     id="path5"
     style="opacity:0.3;fill:#000000;fill-opacity:1;stroke-width:0.211866"
     d="m 11.852585,5.0800054 c -0.225531,-0.071849 -1.254852,-0.049846 -1.254852,-0.049846 -1.0596828,3.834e-4 -1.2593398,0.016871 -1.4126838,0.1184184 -0.09823,0.065048 -0.745771,0.6858595 -1.438738,1.3792014 -1.370127,1.3708676 -1.520273,1.5894305 -1.403121,2.0250277 0.103208,0.3837502 0.339585,0.5696712 0.769201,0.6053415 0.138336,0.013228 0.178445,0.018997 0.336959,-0.026259 0.189597,-0.080194 0.597249,-0.4871633 0.597249,-0.4871633 0.711585,-0.6743907 1.011539,-0.8720094 1.624783,-0.8859753 0.4067888,-0.00926 0.4961288,-1.15e-4 0.8395048,0.1486441 0.964088,0.472256 1.365561,1.5542179 0.927178,2.4983791 -0.07364,0.158608 -0.291845,0.456029 -0.485094,0.661238 -0.388809,0.412876 -0.471446,0.574482 -0.471446,0.922504 0,0.397505 0.156621,0.667935 0.483026,0.833898 0.49367,0.251009 0.966133,0.133371 1.316327,-0.327928 0.125332,-0.165096 0.132682,-0.32603 0.151773,-3.3430419 0.01318,-2.0824302 -0.02844,-3.2529083 -0.0517,-3.4362027 -0.02047,-0.16136 -0.08587,-0.2811858 -0.156725,-0.3740861 C 12.127466,5.2120955 12.040627,5.1530585 11.85258,5.0800059 Z M 5.5241592,5.0269844 c -0.463472,0 -0.634205,0.05782 -0.752697,0.1338813 -0.132788,0.092446 -0.198099,0.1866254 -0.244772,0.366499 -0.03395,0.1694921 -0.02855,3.4041137 -0.02855,3.4041137 0.0011,3.2408426 0.0018,3.2536066 0.1526,3.5169426 0.08323,0.14536 0.257233,0.320858 0.387082,0.390036 0.202119,0.10768 0.395154,0.125871 1.341554,0.125871 0.822021,0 1.152566,-0.02465 1.288619,-0.09606 0.10063,-0.05282 0.796105,-0.716983 1.545433,-1.475675 C 10.670043,9.9177768 10.722401,9.8395235 10.578141,9.3451146 10.491351,9.0476786 10.344168,8.8963453 9.9662302,8.8271505 9.5989692,8.7599105 9.3538262,8.8634255 8.7729982,9.4246122 7.9826922,10.188191 7.4173012,10.380532 6.6324672,10.152098 6.1102412,10.000099 5.5875092,9.4921451 5.4133242,8.9670866 5.1657032,8.2206644 5.3672442,7.4960164 5.9898122,6.8926947 c 0.357455,-0.3464049 0.472273,-0.5688773 0.472273,-0.9158791 0,-0.5755982 -0.369629,-0.9498314 -0.93793,-0.9498312 z" />
  <path
     id="path5-5"
     style="fill:currentColor;fill-opacity:1;stroke-width:0.211866"
     d="m 11.852585,4.5508492 c -0.225531,-0.071849 -1.254852,-0.049846 -1.254852,-0.049846 -1.0596828,3.834e-4 -1.2593398,0.016871 -1.4126838,0.1184184 -0.09823,0.065048 -0.745771,0.6858595 -1.438738,1.3792014 -1.370127,1.3708676 -1.520273,1.5894305 -1.403121,2.0250277 0.103208,0.3837502 0.339585,0.5696712 0.769201,0.6053415 0.138336,0.013228 0.178445,0.018997 0.336959,-0.026259 0.189597,-0.080194 0.597249,-0.4871633 0.597249,-0.4871633 0.711585,-0.6743907 1.011539,-0.8720094 1.624783,-0.8859753 0.4067888,-0.00926 0.4961288,-1.15e-4 0.8395048,0.1486441 0.964088,0.472256 1.365561,1.5542179 0.927178,2.4983792 -0.07364,0.1586081 -0.291845,0.4560291 -0.485094,0.6612381 -0.388809,0.412876 -0.471446,0.574482 -0.471446,0.922504 0,0.397505 0.156621,0.667935 0.483026,0.833898 0.49367,0.251009 0.966133,0.133371 1.316327,-0.327928 0.125332,-0.165096 0.132682,-0.32603 0.151773,-3.3430421 0.01318,-2.0824302 -0.02844,-3.2529083 -0.0517,-3.4362027 -0.02047,-0.16136 -0.08587,-0.2811858 -0.156725,-0.3740861 C 12.127466,4.6829393 12.040627,4.6239023 11.85258,4.5508497 Z M 5.5241592,4.4978282 c -0.463472,0 -0.634205,0.05782 -0.752697,0.1338813 -0.132788,0.092446 -0.198099,0.1866254 -0.244772,0.366499 -0.03395,0.1694921 -0.02855,3.4041137 -0.02855,3.4041137 0.0011,3.2408428 0.0018,3.2536068 0.1526,3.5169428 0.08323,0.14536 0.257233,0.320858 0.387082,0.390036 0.202119,0.10768 0.395154,0.125871 1.341554,0.125871 0.822021,0 1.152566,-0.02465 1.288619,-0.09606 0.10063,-0.05282 0.796105,-0.716983 1.545433,-1.475675 C 10.670043,9.3886209 10.722401,9.3103669 10.578141,8.8159584 10.491351,8.5185224 10.344168,8.3671891 9.9662302,8.2979943 9.5989692,8.2307543 9.3538262,8.3342693 8.7729982,8.895456 7.9826922,9.6590349 7.4173012,9.8513759 6.6324672,9.6229419 6.1102412,9.4709429 5.5875092,8.9629889 5.4133242,8.4379304 5.1657032,7.6915082 5.3672442,6.9668602 5.9898122,6.3635385 c 0.357455,-0.3464049 0.472273,-0.5688773 0.472273,-0.9158791 0,-0.5755982 -0.369629,-0.9498314 -0.93793,-0.9498312 z"
     class="ColorScheme-Text" />
  <path
     id="gradient-path1"
     style="opacity:0.3;baseline-shift:baseline;display:inline;overflow:visible;vector-effect:none;enable-background:accumulate;stop-color:#000000;stop-opacity:1;fill:url(#linearGradient4)"
     d="M 8.4453131 1.2753492 C 4.4913166 1.2753492 1.2794833 4.4784283 1.2794833 8.4236094 C 1.2794833 12.36879 4.4913166 15.572386 8.4453131 15.572386 C 12.39931 15.572386 15.611143 12.36879 15.611143 8.4236094 C 15.611143 4.4784283 12.39931 1.2753492 8.4453131 1.2753492 z " />
</svg>
