<?xml version="1.0" encoding="UTF-8" standalone="no"?>
<svg
   width="64"
   height="64"
   version="1.1"
   viewBox="0 0 16.933 16.933"
   id="svg7"
   sodipodi:docname="smplayer.svg"
   inkscape:version="1.4.2 (ebf0e940d0, 2025-05-08)"
   xmlns:inkscape="http://www.inkscape.org/namespaces/inkscape"
   xmlns:sodipodi="http://sodipodi.sourceforge.net/DTD/sodipodi-0.dtd"
   xmlns:xlink="http://www.w3.org/1999/xlink"
   xmlns="http://www.w3.org/2000/svg"
   xmlns:svg="http://www.w3.org/2000/svg"
   xmlns:rdf="http://www.w3.org/1999/02/22-rdf-syntax-ns#"
   xmlns:cc="http://creativecommons.org/ns#"
   xmlns:dc="http://purl.org/dc/elements/1.1/">
  <sodipodi:namedview
     id="namedview7"
     pagecolor="#9c4444"
     bordercolor="#000000"
     borderopacity="0.25"
     inkscape:showpageshadow="2"
     inkscape:pageopacity="0.0"
     inkscape:pagecheckerboard="0"
     inkscape:deskcolor="#d1d1d1"
     inkscape:zoom="6.1562498"
     inkscape:cx="58.233504"
     inkscape:cy="63.512692"
     inkscape:window-width="2560"
     inkscape:window-height="1392"
     inkscape:window-x="0"
     inkscape:window-y="0"
     inkscape:window-maximized="1"
     inkscape:current-layer="svg7"
     showgrid="false" />
  <defs
     id="defs2">
    <filter
       style="color-interpolation-filters:sRGB;"
       inkscape:label="Blur"
       id="filter3"
       x="-0.10843471"
       y="-0.10870992"
       width="1.2168694"
       height="1.2174198">
      <feGaussianBlur
         stdDeviation="0.5 0.5"
         result="blur"
         id="feGaussianBlur3" />
    </filter>
    <style
       id="current-color-scheme"
       type="text/css">.ColorScheme-Text {color:#d8dee9} .ColorScheme-Highlight {color:#3b4252}</style>
    <linearGradient
       id="linearGradient3"
       inkscape:collect="always">
      <stop
         style="stop-color:#000000;stop-opacity:1;"
         offset="0"
         id="stop3" />
      <stop
         style="stop-color:#000000;stop-opacity:0;"
         offset="1"
         id="stop4" />
    </linearGradient>
    <linearGradient
       inkscape:collect="always"
       xlink:href="#linearGradient3"
       id="linearGradient4"
       x1="13.512321"
       y1="13.490874"
       x2="3.3783066"
       y2="3.3568602"
       gradientUnits="userSpaceOnUse" />
  </defs>
  <metadata
     id="metadata2">
    <rdf:RDF>
      <cc:Work
         rdf:about="">
        <dc:format>image/svg+xml</dc:format>
        <dc:type
           rdf:resource="http://purl.org/dc/dcmitype/StillImage" />
      </cc:Work>
    </rdf:RDF>
  </metadata>
  <ellipse
     style="opacity:1;fill:none;stroke:#000000;stroke-width:0.582072;stroke-dasharray:none;stroke-opacity:1;filter:url(#filter3)"
     id="path1-5"
     cx="8.4450111"
     cy="8.423522"
     rx="6.8752708"
     ry="6.8578653" />
  <ellipse
     style="opacity:1;fill:none;stroke-width:0.58207188;stroke-opacity:1;stroke:currentColor;stroke-dasharray:none;fill-opacity:1"
     id="path1"
     cx="8.4450111"
     cy="8.423522"
     rx="6.8752708"
     ry="6.8578653"
     class="ColorScheme-Text" />
  <ellipse
     style="fill:currentColor;stroke:none;stroke-width:0.285844;stroke-dasharray:none;stroke-opacity:1"
     id="path1-2"
     cx="8.4557552"
     cy="8.423522"
     rx="6.5738997"
     ry="6.5692253"
     class="ColorScheme-Highlight" />
  <path
     style="opacity:0.3;fill:#000000;fill-opacity:1;stroke-width:0.496084"
     d="m 8.4665,5.0269844 c -2.198644,0 -3.968672,1.7700277 -3.968672,3.9686718 0,2.1986448 1.770028,3.9686718 3.968672,3.9686718 2.198646,0 3.968672,-1.770027 3.968672,-3.9686718 0,-2.1986441 -1.770026,-3.9686718 -3.968672,-3.9686718 z m 0,0.496084 A 0.99216799,0.99216799 0 0 1 9.458669,6.5152363 0.99216799,0.99216799 0 0 1 8.4665,7.5074043 0.99216799,0.99216799 0 0 1 7.474332,6.5152363 0.99216799,0.99216799 0 0 1 8.4665,5.5230684 Z M 5.986081,8.0034883 A 0.99216799,0.99216799 0 0 1 6.978249,8.9956562 0.99216799,0.99216799 0 0 1 5.986081,9.9878242 0.99216799,0.99216799 0 0 1 4.993914,8.9956562 0.99216799,0.99216799 0 0 1 5.986081,8.0034883 Z m 4.96084,0 a 0.99216799,0.99216799 0 0 1 0.992167,0.9921679 0.99216799,0.99216799 0 0 1 -0.992167,0.992168 0.99216799,0.99216799 0 0 1 -0.992168,-0.992168 0.99216799,0.99216799 0 0 1 0.992168,-0.9921679 z M 8.212655,8.3183876 a 0.24804199,0.24804199 0 0 1 0.22091,0.1240219 0.24804199,0.24804199 0 0 1 -0.09079,0.3378332 0.24804199,0.24804199 0 0 1 -0.33932,-0.089792 0.24804199,0.24804199 0 0 1 0.09127,-0.3393214 0.24804199,0.24804199 0 0 1 0.118069,-0.032741 z M 8.890306,8.4994583 A 0.24804199,0.24804199 0 0 1 9.111217,8.6234801 0.24804199,0.24804199 0 0 1 9.020147,8.9625983 0.24804199,0.24804199 0 0 1 8.681818,8.8713193 0.24804199,0.24804199 0 0 1 8.771608,8.5319977 0.24804199,0.24804199 0 0 1 8.890164,8.4992567 Z M 8.031832,8.9955422 A 0.24804199,0.24804199 0 0 1 8.251775,9.1195641 0.24804199,0.24804199 0 0 1 8.161665,9.4586823 0.24804199,0.24804199 0 0 1 7.821848,9.3674033 0.24804199,0.24804199 0 0 1 7.913118,9.0280819 0.24804199,0.24804199 0 0 1 8.031187,8.9953409 Z m 0.677253,0.181185 a 0.24804199,0.24804199 0 0 1 0.220911,0.1240219 0.24804199,0.24804199 0 0 1 -0.09127,0.3393214 0.24804199,0.24804199 0 0 1 -0.33932,-0.091279 0.24804199,0.24804199 0 0 1 0.09127,-0.3378331 0.24804199,0.24804199 0 0 1 0.11807,-0.03423 z M 8.4665,10.483908 A 0.99216799,0.99216799 0 0 1 9.458669,11.476076 0.99216799,0.99216799 0 0 1 8.4665,12.468244 0.99216799,0.99216799 0 0 1 7.474332,11.476076 0.99216799,0.99216799 0 0 1 8.4665,10.483908 Z"
     id="path1-6" />
  <path
     style="fill:currentColor;stroke-width:0.496084"
     class="ColorScheme-Text"
     d="m 8.4665,4.4978285 c -2.198644,0 -3.968672,1.770027 -3.968672,3.968671 0,2.1986445 1.770028,3.9686715 3.968672,3.9686715 2.198646,0 3.968672,-1.770027 3.968672,-3.9686715 0,-2.198644 -1.770026,-3.968671 -3.968672,-3.968671 z m 0,0.496083 A 0.99216799,0.99216799 0 0 1 9.458669,5.9860795 0.99216799,0.99216799 0 0 1 8.4665,6.9782475 0.99216799,0.99216799 0 0 1 7.474332,5.9860795 0.99216799,0.99216799 0 0 1 8.4665,4.9939115 Z m -2.480419,2.48042 a 0.99216799,0.99216799 0 0 1 0.992168,0.992168 0.99216799,0.99216799 0 0 1 -0.992168,0.992168 0.99216799,0.99216799 0 0 1 -0.992167,-0.992168 0.99216799,0.99216799 0 0 1 0.992167,-0.992168 z m 4.96084,0 a 0.99216799,0.99216799 0 0 1 0.992167,0.992168 0.99216799,0.99216799 0 0 1 -0.992167,0.992168 0.99216799,0.99216799 0 0 1 -0.992168,-0.992168 0.99216799,0.99216799 0 0 1 0.992168,-0.992168 z m -2.734266,0.3149 a 0.24804199,0.24804199 0 0 1 0.22091,0.124022 0.24804199,0.24804199 0 0 1 -0.09079,0.337833 0.24804199,0.24804199 0 0 1 -0.33932,-0.08979 0.24804199,0.24804199 0 0 1 0.09127,-0.339322 0.24804199,0.24804199 0 0 1 0.118069,-0.03274 z m 0.677651,0.18107 a 0.24804199,0.24804199 0 0 1 0.220911,0.124022 0.24804199,0.24804199 0 0 1 -0.09107,0.339118 0.24804199,0.24804199 0 0 1 -0.338329,-0.09128 0.24804199,0.24804199 0 0 1 0.08979,-0.339321 0.24804199,0.24804199 0 0 1 0.118556,-0.03274 z m -0.858474,0.496084 a 0.24804199,0.24804199 0 0 1 0.219943,0.124022 0.24804199,0.24804199 0 0 1 -0.09011,0.339118 0.24804199,0.24804199 0 0 1 -0.339817,-0.09128 0.24804199,0.24804199 0 0 1 0.09127,-0.339321 0.24804199,0.24804199 0 0 1 0.118069,-0.03274 z m 0.677253,0.181185 a 0.24804199,0.24804199 0 0 1 0.220911,0.124022 0.24804199,0.24804199 0 0 1 -0.09127,0.339322 0.24804199,0.24804199 0 0 1 -0.33932,-0.09128 0.24804199,0.24804199 0 0 1 0.09127,-0.337833 0.24804199,0.24804199 0 0 1 0.11807,-0.03423 z M 8.4665,9.9547515 A 0.99216799,0.99216799 0 0 1 9.458669,10.946919 0.99216799,0.99216799 0 0 1 8.4665,11.939088 0.99216799,0.99216799 0 0 1 7.474332,10.946919 0.99216799,0.99216799 0 0 1 8.4665,9.9547515 Z"
     id="path1-6-5" />
  <path
     id="gradient-path1"
     style="opacity:0.3;baseline-shift:baseline;display:inline;overflow:visible;vector-effect:none;enable-background:accumulate;stop-color:#000000;stop-opacity:1;fill:url(#linearGradient4)"
     d="M 8.4453131 1.2753492 C 4.4913166 1.2753492 1.2794833 4.4784283 1.2794833 8.4236094 C 1.2794833 12.36879 4.4913166 15.572386 8.4453131 15.572386 C 12.39931 15.572386 15.611143 12.36879 15.611143 8.4236094 C 15.611143 4.4784283 12.39931 1.2753492 8.4453131 1.2753492 z " />
</svg>
