<?xml version="1.0" encoding="UTF-8" standalone="no"?>
<svg
   width="64"
   height="64"
   version="1.1"
   viewBox="0 0 16.933 16.933"
   id="svg7"
   sodipodi:docname="snapper-tools.svg"
   inkscape:version="1.4.2 (ebf0e940d0, 2025-05-08)"
   xmlns:inkscape="http://www.inkscape.org/namespaces/inkscape"
   xmlns:sodipodi="http://sodipodi.sourceforge.net/DTD/sodipodi-0.dtd"
   xmlns:xlink="http://www.w3.org/1999/xlink"
   xmlns="http://www.w3.org/2000/svg"
   xmlns:svg="http://www.w3.org/2000/svg"
   xmlns:rdf="http://www.w3.org/1999/02/22-rdf-syntax-ns#"
   xmlns:cc="http://creativecommons.org/ns#"
   xmlns:dc="http://purl.org/dc/elements/1.1/">
  <sodipodi:namedview
     id="namedview7"
     pagecolor="#9c4444"
     bordercolor="#000000"
     borderopacity="0.25"
     inkscape:showpageshadow="2"
     inkscape:pageopacity="0.0"
     inkscape:pagecheckerboard="0"
     inkscape:deskcolor="#d1d1d1"
     inkscape:zoom="4.3531261"
     inkscape:cx="36.066035"
     inkscape:cy="26.647517"
     inkscape:window-width="2560"
     inkscape:window-height="1376"
     inkscape:window-x="0"
     inkscape:window-y="0"
     inkscape:window-maximized="1"
     inkscape:current-layer="svg7"
     showgrid="false" />
  <defs
     id="defs2">
    <filter
       style="color-interpolation-filters:sRGB;"
       inkscape:label="Blur"
       id="filter3"
       x="-0.10843471"
       y="-0.10870992"
       width="1.2168694"
       height="1.2174198">
      <feGaussianBlur
         stdDeviation="0.5 0.5"
         result="blur"
         id="feGaussianBlur3" />
    </filter>
    <style
       id="current-color-scheme"
       type="text/css">.ColorScheme-Text {color:#d8dee9} .ColorScheme-Highlight {color:#3b4252}</style>
    <linearGradient
       id="linearGradient3"
       inkscape:collect="always">
      <stop
         style="stop-color:#000000;stop-opacity:1;"
         offset="0"
         id="stop3" />
      <stop
         style="stop-color:#000000;stop-opacity:0;"
         offset="1"
         id="stop4" />
    </linearGradient>
    <linearGradient
       inkscape:collect="always"
       xlink:href="#linearGradient3"
       id="linearGradient4"
       x1="13.512321"
       y1="13.490874"
       x2="3.3783066"
       y2="3.3568602"
       gradientUnits="userSpaceOnUse" />
  </defs>
  <metadata
     id="metadata2">
    <rdf:RDF>
      <cc:Work
         rdf:about="">
        <dc:format>image/svg+xml</dc:format>
        <dc:type
           rdf:resource="http://purl.org/dc/dcmitype/StillImage" />
      </cc:Work>
    </rdf:RDF>
  </metadata>
  <ellipse
     style="opacity:1;fill:none;stroke:#000000;stroke-width:0.582072;stroke-dasharray:none;stroke-opacity:1;filter:url(#filter3)"
     id="path1-5"
     cx="8.4450111"
     cy="8.423522"
     rx="6.8752708"
     ry="6.8578653" />
  <ellipse
     style="opacity:1;fill:none;stroke-width:0.58207188;stroke-opacity:1;stroke:currentColor;stroke-dasharray:none;fill-opacity:1"
     id="path1"
     cx="8.4450111"
     cy="8.423522"
     rx="6.8752708"
     ry="6.8578653"
     class="ColorScheme-Text" />
  <ellipse
     style="fill:currentColor;stroke:none;stroke-width:0.285844;stroke-dasharray:none;stroke-opacity:1"
     id="path1-2"
     cx="8.4557552"
     cy="8.423522"
     rx="6.5738997"
     ry="6.5692253"
     class="ColorScheme-Highlight" />
  <path
     d="m 9.4607805,5.0269865 -0.284463,0.2864343 a 3.7671195,3.7671195 0 0 0 -1.55144,0.033457 L 7.3425785,5.0664865 a 4.1095308,4.1095308 0 0 0 -1.561554,0.8496977 4.1095308,4.1095308 0 0 0 -1.2589,1.9911103 l 0.283572,0.2815367 a 3.7671195,3.7671195 0 0 0 -0.01908,1.5450154 l -0.289106,0.2910774 a 4.1095308,4.1095308 0 0 0 2.752836,2.909062 l 0.279756,-0.281728 a 3.7671195,3.7671195 0 0 0 1.799581,0.02907 l 0.284908,0.283 A 4.1095308,4.1095308 0 0 0 12.435489,10.123965 L 12.152491,9.8429372 A 3.7671195,3.7671195 0 0 0 12.109561,8.0407479 L 12.39078,7.7575575 A 4.1095308,4.1095308 0 0 0 9.4607865,5.0269844 Z m -0.98137,0.6793512 A 3.3084714,3.3084714 0 0 1 11.787877,9.0148051 3.3084714,3.3084714 0 0 1 8.4794105,12.323271 3.3084714,3.3084714 0 0 1 5.1709435,9.0148051 3.3084714,3.3084714 0 0 1 8.4794105,5.7063377 Z m 0.08479,0.7081033 c -0.334466,0 -0.63595,0.061224 -0.904466,0.1837046 -0.268514,0.1224806 -0.480513,0.2991676 -0.63597,0.5299955 -0.150744,0.2261183 -0.226132,0.4922918 -0.226132,0.7984926 0,0.362731 0.1013,0.664216 0.303864,0.9044663 0.207275,0.2402503 0.569984,0.4592984 1.08817,0.6571518 0.263805,0.098926 0.442842,0.1954625 0.537057,0.2896782 0.09422,0.089505 0.141341,0.2073175 0.141341,0.353352 0,0.136613 -0.04242,0.247312 -0.127219,0.332106 -0.0848,0.08479 -0.216706,0.127155 -0.395716,0.127155 -0.353309,0 -0.704269,-0.15541 -1.052868,-0.466322 l -0.685394,0.756065 c 0.489922,0.489922 1.102355,0.734882 1.837239,0.734882 0.390995,0 0.730142,-0.06599 1.017499,-0.197889 0.287359,-0.136614 0.506408,-0.3274 0.6571525,-0.57236 0.155455,-0.244961 0.233192,-0.525233 0.233192,-0.840856 0,-0.2920695 -0.04712,-0.5346799 -0.14134,-0.727823 C 10.1211,9.0783872 9.9821445,8.9111638 9.7937135,8.774551 9.6052815,8.6332274 9.3532705,8.5013159 9.0376475,8.3788352 8.8162415,8.2940402 8.6537175,8.225767 8.5500795,8.1739482 8.4464425,8.1174192 8.3734055,8.0632443 8.3310075,8.0114255 c -0.04239,-0.056529 -0.06361,-0.1272167 -0.06361,-0.2120106 0,-0.1130594 0.03772,-0.2025456 0.113098,-0.2684964 0.07538,-0.070663 0.188422,-0.1059743 0.339167,-0.1059743 0.310912,0 0.617097,0.1294982 0.918586,0.3885916 L 10.245977,7.0786532 C 10.029282,6.8619568 9.7843205,6.6970829 9.5110945,6.5840242 9.2378685,6.4709653 8.9222205,6.414441 8.5642005,6.414441 Z"
     id="path4"
     style="opacity:0.3;fill:#000000;fill-opacity:1;stroke-width:0.0315623" />
  <path
     d="m 9.4607805,4.4978302 -0.284463,0.2864343 a 3.7671195,3.7671195 0 0 0 -1.55144,0.033457 L 7.3425785,4.5373302 a 4.1095308,4.1095308 0 0 0 -1.561554,0.8496977 4.1095308,4.1095308 0 0 0 -1.2589,1.9911103 l 0.283572,0.2815367 a 3.7671195,3.7671195 0 0 0 -0.01908,1.5450154 l -0.289106,0.2910778 a 4.1095308,4.1095308 0 0 0 2.752836,2.9090619 l 0.279756,-0.281728 a 3.7671195,3.7671195 0 0 0 1.799581,0.02907 l 0.284908,0.283 A 4.1095308,4.1095308 0 0 0 12.43549,9.5948089 L 12.152491,9.3137809 A 3.7671195,3.7671195 0 0 0 12.109561,7.5115916 L 12.39078,7.2284012 A 4.1095308,4.1095308 0 0 0 9.4607865,4.4978281 Z m -0.98137,0.6793512 A 3.3084714,3.3084714 0 0 1 11.787877,8.4856488 3.3084714,3.3084714 0 0 1 8.4794105,11.794115 3.3084714,3.3084714 0 0 1 5.1709435,8.4856488 3.3084714,3.3084714 0 0 1 8.4794105,5.1771814 Z m 0.08479,0.7081033 c -0.334466,0 -0.63595,0.061224 -0.904466,0.1837046 -0.268514,0.1224806 -0.480513,0.2991676 -0.63597,0.5299955 -0.150744,0.2261183 -0.226132,0.4922918 -0.226132,0.7984926 0,0.362731 0.1013,0.664216 0.303864,0.9044663 0.207275,0.2402503 0.569984,0.4592984 1.08817,0.6571518 0.263805,0.098926 0.442842,0.1954625 0.537057,0.2896782 0.09422,0.089505 0.141341,0.2073175 0.141341,0.353352 0,0.1366128 -0.04242,0.2473118 -0.127219,0.3321064 -0.0848,0.084794 -0.216706,0.1271549 -0.395716,0.1271549 -0.353309,0 -0.704269,-0.1554101 -1.052868,-0.4663223 L 6.6068675,10.35113 c 0.489922,0.489922 1.102355,0.734882 1.837239,0.734882 0.390995,0 0.730142,-0.06599 1.017499,-0.197889 0.287359,-0.136614 0.506408,-0.3274 0.6571525,-0.57236 0.155455,-0.244961 0.233192,-0.5252336 0.233192,-0.8408566 0,-0.2920692 -0.04712,-0.5346796 -0.14134,-0.7278227 C 10.121101,8.5492309 9.9821445,8.3820075 9.7937135,8.2453947 9.6052815,8.1040711 9.3532705,7.9721596 9.0376475,7.8496789 8.8162415,7.7648839 8.6537175,7.6966107 8.5500795,7.6447919 8.4464425,7.5882629 8.3734055,7.534088 8.3310075,7.4822692 c -0.04239,-0.056529 -0.06361,-0.1272167 -0.06361,-0.2120106 0,-0.1130594 0.03772,-0.2025456 0.113098,-0.2684964 0.07538,-0.070663 0.188423,-0.1059743 0.339168,-0.1059743 0.310912,0 0.617097,0.1294982 0.918585,0.3885916 L 10.245978,6.5494969 C 10.029282,6.3328005 9.7843205,6.1679266 9.5110945,6.0548679 9.2378695,5.941809 8.9222205,5.8852847 8.5642005,5.8852847 Z"
     id="path4-7"
     class="ColorScheme-Text"
     style="fill:currentColor;fill-opacity:1;stroke-width:0.0315623" />
  <path
     id="gradient-path1"
     style="opacity:0.3;baseline-shift:baseline;display:inline;overflow:visible;vector-effect:none;enable-background:accumulate;stop-color:#000000;stop-opacity:1;fill:url(#linearGradient4)"
     d="M 8.4453131 1.2753492 C 4.4913166 1.2753492 1.2794833 4.4784283 1.2794833 8.4236094 C 1.2794833 12.36879 4.4913166 15.572386 8.4453131 15.572386 C 12.39931 15.572386 15.611143 12.36879 15.611143 8.4236094 C 15.611143 4.4784283 12.39931 1.2753492 8.4453131 1.2753492 z " />
</svg>
