<?xml version="1.0" encoding="UTF-8" standalone="no"?>
<svg
   width="64"
   height="64"
   version="1.1"
   viewBox="0 0 16.933 16.933"
   id="svg7"
   sodipodi:docname="soundconverter.svg"
   inkscape:version="1.4.2 (ebf0e940d0, 2025-05-08)"
   xmlns:inkscape="http://www.inkscape.org/namespaces/inkscape"
   xmlns:sodipodi="http://sodipodi.sourceforge.net/DTD/sodipodi-0.dtd"
   xmlns:xlink="http://www.w3.org/1999/xlink"
   xmlns="http://www.w3.org/2000/svg"
   xmlns:svg="http://www.w3.org/2000/svg"
   xmlns:rdf="http://www.w3.org/1999/02/22-rdf-syntax-ns#"
   xmlns:cc="http://creativecommons.org/ns#"
   xmlns:dc="http://purl.org/dc/elements/1.1/">
  <sodipodi:namedview
     id="namedview7"
     pagecolor="#9c4444"
     bordercolor="#000000"
     borderopacity="0.25"
     inkscape:showpageshadow="2"
     inkscape:pageopacity="0.0"
     inkscape:pagecheckerboard="0"
     inkscape:deskcolor="#d1d1d1"
     inkscape:zoom="4.3531261"
     inkscape:cx="36.066035"
     inkscape:cy="26.417797"
     inkscape:window-width="2560"
     inkscape:window-height="1392"
     inkscape:window-x="0"
     inkscape:window-y="0"
     inkscape:window-maximized="1"
     inkscape:current-layer="svg7"
     showgrid="false" />
  <defs
     id="defs2">
    <filter
       style="color-interpolation-filters:sRGB;"
       inkscape:label="Blur"
       id="filter3"
       x="-0.10843471"
       y="-0.10870992"
       width="1.2168694"
       height="1.2174198">
      <feGaussianBlur
         stdDeviation="0.5 0.5"
         result="blur"
         id="feGaussianBlur3" />
    </filter>
    <style
       id="current-color-scheme"
       type="text/css">.ColorScheme-Text {color:#d8dee9} .ColorScheme-Highlight {color:#3b4252}</style>
    <linearGradient
       id="linearGradient3"
       inkscape:collect="always">
      <stop
         style="stop-color:#000000;stop-opacity:1;"
         offset="0"
         id="stop3" />
      <stop
         style="stop-color:#000000;stop-opacity:0;"
         offset="1"
         id="stop4" />
    </linearGradient>
    <linearGradient
       inkscape:collect="always"
       xlink:href="#linearGradient3"
       id="linearGradient4"
       x1="13.512321"
       y1="13.490874"
       x2="3.3783066"
       y2="3.3568602"
       gradientUnits="userSpaceOnUse" />
  </defs>
  <metadata
     id="metadata2">
    <rdf:RDF>
      <cc:Work
         rdf:about="">
        <dc:format>image/svg+xml</dc:format>
        <dc:type
           rdf:resource="http://purl.org/dc/dcmitype/StillImage" />
      </cc:Work>
    </rdf:RDF>
  </metadata>
  <ellipse
     style="opacity:1;fill:none;stroke:#000000;stroke-width:0.582072;stroke-dasharray:none;stroke-opacity:1;filter:url(#filter3)"
     id="path1-5"
     cx="8.4450111"
     cy="8.423522"
     rx="6.8752708"
     ry="6.8578653" />
  <ellipse
     style="opacity:1;fill:none;stroke-width:0.58207188;stroke-opacity:1;stroke:currentColor;stroke-dasharray:none;fill-opacity:1"
     id="path1"
     cx="8.4450111"
     cy="8.423522"
     rx="6.8752708"
     ry="6.8578653"
     class="ColorScheme-Text" />
  <ellipse
     style="fill:currentColor;stroke:none;stroke-width:0.285844;stroke-dasharray:none;stroke-opacity:1"
     id="path1-2"
     cx="8.4557552"
     cy="8.423522"
     rx="6.5738997"
     ry="6.5692253"
     class="ColorScheme-Highlight" />
  <path
     id="path2"
     style="baseline-shift:baseline;display:inline;overflow:visible;opacity:0.3;vector-effect:none;fill:#000000;fill-opacity:1;stroke-width:0.211006;marker:none;enable-background:accumulate;stop-color:#000000"
     d="m 10.23651,5.143667 a 0.11115713,0.11115713 0 0 0 -0.01442,8.208e-4 L 7.5935893,5.4704781 a 0.11115713,0.11115713 0 0 0 -0.09767,0.1096239 l -0.02432,4.700227 c -0.368893,-0.09515 -0.809024,-0.113033 -1.317959,-0.0082 -0.49825,0.10259 -0.927043,0.290017 -1.226056,0.518859 -0.299013,0.228842 -0.483348,0.514379 -0.415829,0.803222 0.06756,0.289034 0.358746,0.471007 0.731513,0.560483 0.372767,0.08948 0.846141,0.09104 1.344335,-0.01154 0.469858,-0.09674 0.907218,-0.268991 1.23265,-0.478471 0.325432,-0.20948 0.557978,-0.459361 0.546059,-0.746349 l 0.03379,-4.1315035 1.8471207,-0.2979626 a 0.11115713,0.11115713 0 0 0 0.09314,-0.1092094 l 0.0066,-1.124263 A 0.11115713,0.11115713 0 0 0 10.236508,5.143667 Z m -0.114157,0.2295508 -0.0091,0.9161425 -1.9163567,0.2991989 -0.03256,4.2365928 v 0.002 c -0.013948,0.301236 -0.246595,0.539087 -0.553031,0.7175 -0.306437,0.178413 -0.700144,0.306088 -1.097888,0.379975 -0.397743,0.07389 -0.798191,0.09384 -1.120554,0.04533 -0.161181,-0.02425 -0.303503,-0.06518 -0.418713,-0.131879 -0.114934,-0.06654 -0.205718,-0.166064 -0.23326,-0.294254 -0.03947,-0.171733 0.061876,-0.337092 0.218836,-0.48795 0.157338,-0.151221 0.38609,-0.294816 0.669696,-0.408411 0.534841,-0.214222 1.268846,-0.307959 2.061836,-0.103442 l 0.0375,-4.8696082 z m -0.2246047,0.2522173 -1.94809,0.2452113 -0.03874,4.9586266 -0.142181,-0.04286 c -0.795688,-0.241415 -1.533991,-0.141851 -2.05689,0.06759 -0.26145,0.10472 -0.468637,0.237537 -0.598398,0.362254 -0.129762,0.124717 -0.166455,0.234287 -0.156194,0.278181 l 4.12e-4,0.0012 4.12e-4,0.0012 c 0.01185,0.05581 0.04865,0.102975 0.127757,0.148775 0.07911,0.0458 0.197424,0.08275 0.340411,0.104267 0.285971,0.04302 0.66836,0.02612 1.046372,-0.0441 0.378013,-0.07022 0.752878,-0.193997 1.027003,-0.353598 0.274125,-0.159601 0.433847,-0.346391 0.442616,-0.535344 l 0.03379,-4.4187628 1.917182,-0.299199 z M 10.894666,7.6225679 9.2004413,9.4503194 h 0.746349 V 10.830509 H 11.754348 V 9.4503194 h 0.680822 z m -2.3128167,2.0296903 -0.01195,1.4399478 c 0.01012,0.243652 -0.233128,0.503073 -0.609113,0.7175 l 0.953234,1.03813 1.5166007,-1.83517 -0.6820587,-0.0136 V 9.6522582 Z" />
  <path
     id="path2-7"
     class="ColorScheme-Text"
     style="baseline-shift:baseline;display:inline;overflow:visible;vector-effect:none;fill:currentColor;fill-opacity:1;stroke-width:0.211006;marker:none;enable-background:accumulate;stop-color:#000000"
     d="m 10.23651,4.6144175 a 0.11115713,0.11115713 0 0 0 -0.01442,8.208e-4 L 7.5935893,4.9412286 a 0.11115713,0.11115713 0 0 0 -0.09767,0.1096239 l -0.02432,4.7002269 c -0.368893,-0.095153 -0.809024,-0.1130332 -1.317959,-0.00824 -0.49825,0.1025903 -0.927043,0.2900166 -1.226056,0.5188586 -0.299013,0.228843 -0.483348,0.514379 -0.415829,0.803222 0.06756,0.289034 0.358746,0.471007 0.731513,0.560483 0.372767,0.08948 0.846141,0.09104 1.344335,-0.01154 0.469858,-0.09674 0.907218,-0.268991 1.23265,-0.478471 0.325432,-0.20948 0.557978,-0.459361 0.546059,-0.746349 L 8.4001023,6.25754 10.247223,5.9595774 a 0.11115713,0.11115713 0 0 0 0.09314,-0.1092094 l 0.0066,-1.124263 A 0.11115713,0.11115713 0 0 0 10.236508,4.6144175 Z m -0.114157,0.2295508 -0.0091,0.9161425 -1.9163567,0.2991989 -0.03256,4.2365923 v 0.002 c -0.01395,0.301236 -0.246595,0.539087 -0.553031,0.7175 -0.306437,0.178413 -0.700144,0.306088 -1.097888,0.379975 -0.397743,0.07389 -0.798191,0.09384 -1.120554,0.04533 -0.161181,-0.02425 -0.303503,-0.06518 -0.418713,-0.131878 -0.114934,-0.06654 -0.205718,-0.166064 -0.23326,-0.294254 -0.03947,-0.171733 0.06188,-0.337092 0.218836,-0.48795 0.157338,-0.151221 0.38609,-0.294816 0.669696,-0.40841 0.534841,-0.2142225 1.268846,-0.30796 2.061836,-0.103443 l 0.0375,-4.8696077 z m -0.2246047,0.2522173 -1.94809,0.2452113 -0.03874,4.9586261 -0.142181,-0.04286 c -0.795688,-0.241415 -1.533991,-0.141851 -2.05689,0.06759 -0.26145,0.104719 -0.468637,0.237536 -0.598398,0.362253 -0.129762,0.124717 -0.166455,0.234287 -0.156194,0.278181 l 4.12e-4,0.0012 4.12e-4,0.0012 c 0.01185,0.05581 0.04865,0.102975 0.127757,0.148775 0.07911,0.0458 0.197424,0.08275 0.340411,0.104267 0.285971,0.04302 0.66836,0.02612 1.046372,-0.0441 0.378013,-0.07022 0.752878,-0.193997 1.027003,-0.353598 0.274125,-0.159601 0.433847,-0.346391 0.442616,-0.535344 l 0.03379,-4.4187623 1.917182,-0.299199 z M 10.894666,7.0933184 9.2004413,8.9210699 h 0.746349 V 10.301259 H 11.754348 V 8.9210699 h 0.680822 z m -2.3128167,2.0296903 -0.01195,1.4399473 c 0.01012,0.243652 -0.233128,0.503073 -0.609113,0.7175 l 0.953234,1.03813 1.5166007,-1.835169 -0.6820587,-0.0136 V 9.1230086 Z" />
  <path
     id="gradient-path1"
     style="opacity:0.3;baseline-shift:baseline;display:inline;overflow:visible;vector-effect:none;enable-background:accumulate;stop-color:#000000;stop-opacity:1;fill:url(#linearGradient4)"
     d="M 8.4453131 1.2753492 C 4.4913166 1.2753492 1.2794833 4.4784283 1.2794833 8.4236094 C 1.2794833 12.36879 4.4913166 15.572386 8.4453131 15.572386 C 12.39931 15.572386 15.611143 12.36879 15.611143 8.4236094 C 15.611143 4.4784283 12.39931 1.2753492 8.4453131 1.2753492 z " />
</svg>
