<?xml version="1.0" encoding="UTF-8" standalone="no"?>
<svg
   width="64"
   height="64"
   version="1.1"
   viewBox="0 0 16.933 16.933"
   id="svg7"
   sodipodi:docname="stardew-valley.svg"
   inkscape:version="1.4.2 (ebf0e940d0, 2025-05-08)"
   xmlns:inkscape="http://www.inkscape.org/namespaces/inkscape"
   xmlns:sodipodi="http://sodipodi.sourceforge.net/DTD/sodipodi-0.dtd"
   xmlns:xlink="http://www.w3.org/1999/xlink"
   xmlns="http://www.w3.org/2000/svg"
   xmlns:svg="http://www.w3.org/2000/svg"
   xmlns:rdf="http://www.w3.org/1999/02/22-rdf-syntax-ns#"
   xmlns:cc="http://creativecommons.org/ns#"
   xmlns:dc="http://purl.org/dc/elements/1.1/">
  <sodipodi:namedview
     id="namedview7"
     pagecolor="#9c4444"
     bordercolor="#000000"
     borderopacity="0.25"
     inkscape:showpageshadow="2"
     inkscape:pageopacity="0.0"
     inkscape:pagecheckerboard="0"
     inkscape:deskcolor="#d1d1d1"
     inkscape:zoom="8.7062522"
     inkscape:cx="72.419221"
     inkscape:cy="15.276378"
     inkscape:window-width="2560"
     inkscape:window-height="1392"
     inkscape:window-x="0"
     inkscape:window-y="0"
     inkscape:window-maximized="1"
     inkscape:current-layer="svg7"
     showgrid="false" />
  <defs
     id="defs2">
    <filter
       style="color-interpolation-filters:sRGB;"
       inkscape:label="Blur"
       id="filter3"
       x="-0.10843471"
       y="-0.10870992"
       width="1.2168694"
       height="1.2174198">
      <feGaussianBlur
         stdDeviation="0.5 0.5"
         result="blur"
         id="feGaussianBlur3" />
    </filter>
    <style
       id="current-color-scheme"
       type="text/css">.ColorScheme-Text {color:#d8dee9} .ColorScheme-Highlight {color:#3b4252}</style>
    <linearGradient
       id="linearGradient3"
       inkscape:collect="always">
      <stop
         style="stop-color:#000000;stop-opacity:1;"
         offset="0"
         id="stop3" />
      <stop
         style="stop-color:#000000;stop-opacity:0;"
         offset="1"
         id="stop4" />
    </linearGradient>
    <linearGradient
       inkscape:collect="always"
       xlink:href="#linearGradient3"
       id="linearGradient4"
       x1="13.512321"
       y1="13.490874"
       x2="3.3783066"
       y2="3.3568602"
       gradientUnits="userSpaceOnUse" />
  </defs>
  <metadata
     id="metadata2">
    <rdf:RDF>
      <cc:Work
         rdf:about="">
        <dc:format>image/svg+xml</dc:format>
        <dc:type
           rdf:resource="http://purl.org/dc/dcmitype/StillImage" />
      </cc:Work>
    </rdf:RDF>
  </metadata>
  <ellipse
     style="opacity:1;fill:none;stroke:#000000;stroke-width:0.582072;stroke-dasharray:none;stroke-opacity:1;filter:url(#filter3)"
     id="path1-5"
     cx="8.4450111"
     cy="8.423522"
     rx="6.8752708"
     ry="6.8578653" />
  <ellipse
     style="opacity:1;fill:none;stroke-width:0.58207188;stroke-opacity:1;stroke:currentColor;stroke-dasharray:none;fill-opacity:1"
     id="path1"
     cx="8.4450111"
     cy="8.423522"
     rx="6.8752708"
     ry="6.8578653"
     class="ColorScheme-Text" />
  <ellipse
     style="fill:currentColor;stroke:none;stroke-width:0.285844;stroke-dasharray:none;stroke-opacity:1"
     id="path1-2"
     cx="8.4557552"
     cy="8.423522"
     rx="6.5738997"
     ry="6.5692253"
     class="ColorScheme-Highlight" />
  <path
     id="path5"
     style="opacity:0.3;fill:#000000;fill-opacity:1;stroke-width:0.141738"
     d="m 6.6239086,5.0269877 c -0.157323,0 -0.294921,0.085688 -0.368464,0.2128841 -0.119898,-0.083406 -0.281643,-0.097561 -0.418016,-0.022147 -0.154183,0.084552 -0.230148,0.2578392 -0.198766,0.4221694 0.164203,-0.097195 0.355788,-0.1528453 0.559755,-0.1530883 0.389122,4.182e-4 0.74272,0.2046068 0.939015,0.5268121 l 0.0025,0.00415 0.0019,0.00415 c 0.04914,0.099997 0.09738,0.2059257 0.145614,0.3144815 0.05948,-0.047215 0.108933,-0.1087911 0.142293,-0.1827093 0.113372,-0.2486117 0.0033,-0.5435498 -0.246105,-0.6569232 -0.04385,-0.019932 -0.08916,-0.033015 -0.13454,-0.039588 2e-5,-0.00169 0,-0.00328 0,-0.00498 0,-0.2346288 -0.190586,-0.4252146 -0.425215,-0.4252146 z m -0.425491,0.5669527 c -0.526143,6.283e-4 -0.960215,0.4101668 -0.989399,0.9332019 -0.0028,0.023605 -0.0025,0.047232 -0.0025,0.070592 7e-6,3.969e-4 -6e-6,7.076e-4 0,0.0011 0.0038,0.2149306 0.078,0.4226802 0.211223,0.5918676 0.164167,0.2218118 0.35573,0.3863616 0.35573,0.6757495 0,0.5596596 -0.425215,0.9545775 -0.425215,1.7448745 0,1.6467211 2.199919,2.5025641 3.125714,2.5025641 0.464351,0 0.834981,-0.09007 1.070512,-0.181048 C 10.52689,11.510057 10.827869,10.108084 11.868214,9.5626034 11.768584,9.4311577 11.734068,9.2165288 11.556499,9.1504019 11.689334,8.9858912 11.778299,9.0287161 12.009951,8.9956525 11.844717,8.7980783 11.649181,8.5588111 11.41753,8.5588111 11.814415,8.4596211 12.151689,7.6473952 12.151689,7.1530563 12.019664,7.4820779 11.085997,8.4286998 9.1679896,8.4286998 7.8297806,8.3140528 7.4960766,6.985639 7.0457916,6.0692576 6.8688286,5.7787846 6.5497606,5.5943139 6.1984086,5.5939364 Z m -0.21233,0.4252145 c 0.177895,0 0.354345,0.177896 0.354345,0.3543454 0,0.1764495 -0.177896,0.3543455 -0.354345,0.3543455 -0.177896,0 -0.354346,-0.177896 -0.354346,-0.3543455 0,-0.1764494 0.17645,-0.3543454 0.354346,-0.3543454 z m 0,0.1417382 a 0.21260726,0.21260726 0 0 0 -0.212608,0.2126072 0.21260726,0.21260726 0 0 0 0.212608,0.2126073 0.21260726,0.21260726 0 0 0 0.212607,-0.2126073 0.21260726,0.21260726 0 0 0 -0.212607,-0.2126072 z m 0.349085,0.4083276 c -0.03097,0.1569926 -0.190676,0.3003633 -0.349085,0.3003633 -0.15944,0 -0.317682,-0.1428514 -0.34881,-0.2995327 0.07472,0.1213163 0.210264,0.2114999 0.34881,0.2114999 0.137797,0 0.274117,-0.090643 0.349085,-0.2123305 z m -1.234673,0.06644 c -0.12334,0.118296 -0.319743,0.3093003 -0.319187,0.6494489 0.150855,-0.085977 0.351957,-0.1160171 0.483072,-0.1265125 -0.09795,-0.1572354 -0.154612,-0.3371305 -0.163885,-0.5229364 z m 3.031315,5.5565793 c -0.02283,0.03457 -0.04424,0.05927 -0.05647,0.07308 -0.382976,0.04009 -0.746256,0.192938 -0.77513,0.221743 -0.132336,0.09962 -0.132165,0.278808 -0.06478,0.37843 0.06658,0.06561 0.165688,0.09883 0.232262,0.09883 0.06657,0 0.132192,-0.03295 0.198766,-0.06616 0.06576,-0.03321 0.357456,-0.359051 0.589653,-0.359051 0.232196,0 0.384109,0.292637 0.450683,0.359051 0.132336,0.09881 0.298759,0.06532 0.397808,-0.0335 0.09905,-0.09881 0.09912,-0.277977 -0.03322,-0.377599 -0.01299,-0.01296 -0.09298,-0.05272 -0.199319,-0.0944 -3.83e-4,-0.002 -1.21e-4,-0.0032 -5.36e-4,-0.0053 0,0 -0.09027,-0.03507 -0.154749,-0.174404 -0.07788,0.0053 -0.158888,0.008 -0.242782,0.008 -0.10163,0 -0.216931,-0.0096 -0.342165,-0.02879 z" />
  <path
     id="path5-7"
     style="fill:currentColor;stroke-width:0.141738"
     d="m 6.6239086,4.4978324 c -0.157323,0 -0.294921,0.085688 -0.368464,0.2128841 -0.119898,-0.083406 -0.281643,-0.097561 -0.418016,-0.022147 -0.154183,0.084552 -0.230148,0.2578392 -0.198766,0.4221694 0.164203,-0.097195 0.355788,-0.1528453 0.559755,-0.1530883 0.389122,4.182e-4 0.74272,0.2046068 0.939015,0.5268121 l 0.0025,0.00415 0.0019,0.00415 c 0.04914,0.099997 0.09738,0.2059257 0.145614,0.3144815 0.05948,-0.047215 0.108933,-0.1087911 0.142293,-0.1827093 0.113372,-0.2486117 0.0033,-0.5435498 -0.246105,-0.6569232 -0.04385,-0.019932 -0.08916,-0.033015 -0.13454,-0.039588 2e-5,-0.00169 0,-0.00328 0,-0.00498 0,-0.2346288 -0.190586,-0.4252146 -0.425215,-0.4252146 z m -0.425491,0.5669527 c -0.526143,6.283e-4 -0.960215,0.4101668 -0.989399,0.9332019 -0.0028,0.023605 -0.0025,0.047232 -0.0025,0.070592 7e-6,3.969e-4 -6e-6,7.076e-4 0,0.0011 0.0038,0.2149306 0.078,0.4226802 0.211223,0.5918676 0.164167,0.2218118 0.35573,0.3863616 0.35573,0.6757495 0,0.5596596 -0.425215,0.9545775 -0.425215,1.7448745 0,1.6467204 2.199919,2.5025634 3.125714,2.5025634 0.464351,0 0.834981,-0.09007 1.070512,-0.181048 C 10.52689,10.980902 10.827869,9.5789287 11.868214,9.0334481 11.768584,8.9020024 11.734068,8.6873735 11.556499,8.6212466 11.689334,8.4567359 11.778299,8.4995608 12.009951,8.4664972 11.844717,8.268923 11.649181,8.0296558 11.41753,8.0296558 11.814415,7.9304658 12.151689,7.1182399 12.151689,6.623901 12.019664,6.9529226 11.085997,7.8995445 9.1679896,7.8995445 7.8297806,7.7848975 7.4960766,6.4564837 7.0457916,5.5401023 6.8688286,5.2496293 6.5497606,5.0651586 6.1984086,5.0647811 Z m -0.21233,0.4252145 c 0.177895,0 0.354345,0.177896 0.354345,0.3543454 0,0.1764495 -0.177896,0.3543455 -0.354345,0.3543455 -0.177896,0 -0.354346,-0.177896 -0.354346,-0.3543455 0,-0.1764494 0.17645,-0.3543454 0.354346,-0.3543454 z m 0,0.1417382 A 0.21260726,0.21260726 0 0 0 5.7734796,5.844345 0.21260726,0.21260726 0 0 0 5.9860876,6.0569523 0.21260726,0.21260726 0 0 0 6.1986946,5.844345 0.21260726,0.21260726 0 0 0 5.9860876,5.6317378 Z m 0.349085,0.4083276 c -0.03097,0.1569926 -0.190676,0.3003633 -0.349085,0.3003633 -0.15944,0 -0.317682,-0.1428514 -0.34881,-0.2995327 0.07472,0.1213163 0.210264,0.2114999 0.34881,0.2114999 0.137797,0 0.274117,-0.090643 0.349085,-0.2123305 z m -1.234673,0.06644 c -0.12334,0.118296 -0.319743,0.3093003 -0.319187,0.6494489 0.150855,-0.085977 0.351957,-0.1160171 0.483072,-0.1265125 -0.09795,-0.1572354 -0.154612,-0.3371305 -0.163885,-0.5229364 z m 3.031315,5.5565796 c -0.02283,0.03457 -0.04424,0.05927 -0.05647,0.07308 -0.382976,0.04009 -0.746256,0.192938 -0.77513,0.221743 -0.132336,0.09962 -0.132165,0.278808 -0.06478,0.37843 0.06658,0.06561 0.165688,0.09883 0.232262,0.09883 0.06657,0 0.132192,-0.03295 0.198766,-0.06616 0.06576,-0.03321 0.357456,-0.359052 0.589653,-0.359052 0.232196,0 0.384109,0.292638 0.450683,0.359052 0.132336,0.09881 0.298759,0.06532 0.397808,-0.0335 0.09905,-0.09881 0.09912,-0.277977 -0.03322,-0.377599 -0.01299,-0.01296 -0.09298,-0.05272 -0.199319,-0.0944 -3.83e-4,-0.002 -1.21e-4,-0.0032 -5.36e-4,-0.0053 0,0 -0.09027,-0.03507 -0.154749,-0.174404 -0.07788,0.0053 -0.158888,0.008 -0.242782,0.008 -0.10163,0 -0.216931,-0.0096 -0.342165,-0.02879 z"
     class="ColorScheme-Text" />
  <path
     id="gradient-path1"
     style="opacity:0.3;baseline-shift:baseline;display:inline;overflow:visible;vector-effect:none;enable-background:accumulate;stop-color:#000000;stop-opacity:1;fill:url(#linearGradient4)"
     d="M 8.4453131 1.2753492 C 4.4913166 1.2753492 1.2794833 4.4784283 1.2794833 8.4236094 C 1.2794833 12.36879 4.4913166 15.572386 8.4453131 15.572386 C 12.39931 15.572386 15.611143 12.36879 15.611143 8.4236094 C 15.611143 4.4784283 12.39931 1.2753492 8.4453131 1.2753492 z " />
</svg>
