<?xml version="1.0" encoding="UTF-8" standalone="no"?>
<svg
   width="64"
   height="64"
   version="1.1"
   viewBox="0 0 16.933 16.933"
   id="svg7"
   sodipodi:docname="steam_icon_391220 copy.svg"
   inkscape:version="1.4.2 (ebf0e940d0, 2025-05-08)"
   xmlns:inkscape="http://www.inkscape.org/namespaces/inkscape"
   xmlns:sodipodi="http://sodipodi.sourceforge.net/DTD/sodipodi-0.dtd"
   xmlns:xlink="http://www.w3.org/1999/xlink"
   xmlns="http://www.w3.org/2000/svg"
   xmlns:svg="http://www.w3.org/2000/svg"
   xmlns:rdf="http://www.w3.org/1999/02/22-rdf-syntax-ns#"
   xmlns:cc="http://creativecommons.org/ns#"
   xmlns:dc="http://purl.org/dc/elements/1.1/">
  <sodipodi:namedview
     id="namedview7"
     pagecolor="#9c4444"
     bordercolor="#000000"
     borderopacity="0.25"
     inkscape:showpageshadow="2"
     inkscape:pageopacity="0.0"
     inkscape:pagecheckerboard="0"
     inkscape:deskcolor="#d1d1d1"
     inkscape:zoom="4.3531261"
     inkscape:cx="36.180895"
     inkscape:cy="25.958357"
     inkscape:window-width="2560"
     inkscape:window-height="1388"
     inkscape:window-x="0"
     inkscape:window-y="0"
     inkscape:window-maximized="1"
     inkscape:current-layer="svg7"
     showgrid="false" />
  <defs
     id="defs2">
    <filter
       style="color-interpolation-filters:sRGB;"
       inkscape:label="Blur"
       id="filter3"
       x="-0.10843471"
       y="-0.10870992"
       width="1.2168694"
       height="1.2174198">
      <feGaussianBlur
         stdDeviation="0.5 0.5"
         result="blur"
         id="feGaussianBlur3" />
    </filter>
    <filter
       style="color-interpolation-filters:sRGB"
       inkscape:label="Blur"
       id="filter3-8"
       x="-0.10843471"
       y="-0.10870992"
       width="1.2168694"
       height="1.2174198">
      <feGaussianBlur
         stdDeviation="0.5 0.5"
         result="blur"
         id="feGaussianBlur3-7" />
    </filter>
    <style
       id="current-color-scheme"
       type="text/css">.ColorScheme-Text {color:#d8dee9} .ColorScheme-Highlight {color:#3b4252}</style>
    <linearGradient
       id="linearGradient4"
       inkscape:collect="always">
      <stop
         style="stop-color:#000000;stop-opacity:1;"
         offset="0"
         id="stop4" />
      <stop
         style="stop-color:#000000;stop-opacity:0;"
         offset="1"
         id="stop5" />
    </linearGradient>
    <linearGradient
       inkscape:collect="always"
       xlink:href="#linearGradient4"
       id="linearGradient5"
       x1="14.157616"
       y1="14.109557"
       x2="3.4890218"
       y2="3.440964"
       gradientUnits="userSpaceOnUse" />
  </defs>
  <metadata
     id="metadata2">
    <rdf:RDF>
      <cc:Work
         rdf:about="">
        <dc:format>image/svg+xml</dc:format>
        <dc:type
           rdf:resource="http://purl.org/dc/dcmitype/StillImage" />
      </cc:Work>
    </rdf:RDF>
  </metadata>
  <ellipse
     style="opacity:1;fill:none;stroke:#000000;stroke-width:0.582072;stroke-dasharray:none;stroke-opacity:1;filter:url(#filter3)"
     id="path1-5"
     cx="8.4450111"
     cy="8.423522"
     rx="6.8752708"
     ry="6.8578653" />
  <ellipse
     style="opacity:1;fill:none;stroke-width:0.58207188;stroke-opacity:1;stroke:currentColor;stroke-dasharray:none;fill-opacity:1"
     id="path1"
     cx="8.4450111"
     cy="8.423522"
     rx="6.8752708"
     ry="6.8578653"
     class="ColorScheme-Text" />
  <ellipse
     style="fill:currentColor;stroke:none;stroke-width:0.285728;stroke-dasharray:none;stroke-opacity:1"
     id="path1-2"
     cx="8.4450111"
     cy="8.423522"
     rx="6.5766377"
     ry="6.5612183"
     class="ColorScheme-Highlight" />
  <path
     style="opacity:0.3;fill:#000000;fill-opacity:1;stroke-width:0.0135522"
     d="m 5.3960349,11.243661 c 0,-0.102874 0.0037,-0.116592 0.02639,-0.09777 0.02171,0.01802 0.03291,0.01121 0.06318,-0.03845 0.04926,-0.08079 0.04726,-0.08745 -0.02632,-0.08745 h -0.06324 v -0.459083 c 0,-0.450189 7.28e-4,-0.458902 0.03614,-0.449635 0.02817,0.0074 0.03614,5.54e-4 0.03614,-0.0309 0,-0.03146 -0.008,-0.03827 -0.03614,-0.0309 -0.03402,0.0089 -0.03614,5.53e-4 -0.03614,-0.1424488 0,-0.136992 0.0033,-0.1519 0.0342,-0.1519 0.01881,0 0.03889,-0.0122 0.04461,-0.02711 0.0075,-0.01958 -0.002,-0.02711 -0.0342,-0.02711 h -0.04461 l -0.0036,-0.57371 c -0.002,-0.31554 -0.0015,-0.598104 0.0013,-0.627919 0.01054,-0.116644 0.0078,-0.419111 -0.0044,-0.483362 l -0.01288,-0.06776 h -0.42998 c -0.236488,0 -0.553241,-0.0053 -0.703895,-0.01186 l -0.273918,-0.01186 v -0.64811 -0.648112 l 3.627474,0.0059 c 3.9858361,0.0065 3.6897131,-0.0016 4.0965081,0.113423 0.50423,0.142649 0.868888,0.418155 1.047881,0.791694 0.122553,0.255754 0.144961,0.366957 0.144293,0.716049 -6.67e-4,0.342741 -0.03616,0.528896 -0.142876,0.749158 -0.08559,0.176645 -0.377322,0.501433 -0.524801,0.584254 -0.171447,0.09628 -0.230048,0.146926 -0.221535,0.191457 0.0092,0.04827 0.463722,0.7060248 0.55964,0.8099228 0.04055,0.04393 0.147436,0.224443 0.251512,0.424785 0.161537,0.310947 0.176852,0.348395 0.142488,0.348395 -0.02118,0 -0.05527,-0.009 -0.07575,-0.01993 -0.02737,-0.01465 -0.04061,-0.0145 -0.04991,5.53e-4 -0.01169,0.01892 -0.09086,-0.0467 -0.159634,-0.132308 -0.03829,-0.04766 -0.06065,-0.03704 -0.137539,0.06538 -0.06659,0.08869 -0.13846,0.102266 -0.312238,0.05899 -0.119074,-0.02965 -0.155661,-0.03069 -0.389332,-0.01106 -0.164311,0.0138 -0.278217,0.01561 -0.313871,0.005 -0.03526,-0.01051 -0.09034,-0.0099 -0.148897,0.0017 -0.07138,0.01411 -0.09946,0.01296 -0.121058,-0.005 -0.05849,-0.04853 -0.61265,-0.894615 -0.72916,-1.113255 -0.03252,-0.06103 -0.08339,-0.134208 -0.113048,-0.162627 -0.04929,-0.04723 -0.0673,-0.05223 -0.209643,-0.05818 -0.133802,-0.0056 -0.15907,-0.0019 -0.17952,0.02604 -0.01864,0.02549 -0.0238,0.172896 -0.0238,0.6796 0,0.355879 -0.0061,0.646845 -0.01355,0.646591 -0.0075,-2.57e-4 -0.0579,-0.02871 -0.112098,-0.06324 -0.106896,-0.0681 -0.163783,-0.07795 -0.206056,-0.03568 -0.01491,0.01491 -0.03853,0.0271 -0.05249,0.0271 -0.01396,0 -0.03097,0.0056 -0.0378,0.01242 -0.01371,0.01371 -0.05163,0.02134 -0.176432,0.03549 l -0.08344,0.0095 0.0018,-0.05893 c 0.0023,-0.07777 -0.0291,-0.08565 -0.05611,-0.01409 l -0.0215,0.05696 -0.104492,-0.01275 c -0.288054,-0.03514 -0.270037,-0.03597 -0.375188,0.01723 -0.09552,0.04833 -0.100927,0.04907 -0.134707,0.0185 -0.03784,-0.03424 -0.0993,-0.04247 -0.150238,-0.0201 -0.02999,0.01316 -0.03162,-0.07342 -0.03162,-1.6775598 v -1.69145 l -0.650505,-0.0036 c -0.357779,-0.002 -0.680998,-0.004 -0.718267,-0.0045 -0.05342,-7.28e-4 -0.07154,0.0077 -0.0856,0.03975 -0.01088,0.02478 -0.03366,0.04066 -0.05838,0.04066 -0.07823,0 -0.07613,0.193716 0.0037,0.338015 0.0337,0.06095 0.03741,0.07984 0.01871,0.09536 -0.03431,0.02847 -0.04457,0.248232 -0.01552,0.332341 0.02824,0.08174 0.03043,0.103338 0.0067,0.06578 -0.02496,-0.03947 -0.07849,0.09772 -0.07392,0.189435 0.002,0.03975 0.003,0.160871 0.0023,0.26915 -7.28e-4,0.108279 0.0067,0.206539 0.01653,0.218354 0.012,0.01446 0.0079,0.04672 -0.01247,0.09862 -0.02843,0.07238 -0.02841,0.07819 3.95e-4,0.09431 0.02356,0.01319 0.02647,0.02507 0.01251,0.05116 -0.02735,0.05111 -0.02257,0.05945 0.02698,0.04702 0.03184,-0.008 0.04517,-0.004 0.04517,0.0136 0,0.01588 -0.01477,0.02241 -0.04066,0.01799 -0.02236,-0.0038 -0.05285,0.0016 -0.06776,0.01207 -0.02265,0.0159 -0.01448,0.03048 0.04969,0.08871 l 0.07679,0.06969 -5.53e-4,0.66612 -5.53e-4,0.666121 -0.03921,-0.05421 c -0.02156,-0.02982 -0.07309,-0.08877 -0.114502,-0.131005 -0.07031,-0.07171 -0.0818,-0.0768 -0.173602,-0.0768 -0.09012,0 -0.105476,0.0064 -0.184317,0.0768 -0.101962,0.09104 -0.198348,0.14791 -0.206951,0.122098 -0.01185,-0.03556 -0.05844,-0.01747 -0.07635,0.02965 -0.01653,0.04347 -0.02025,0.04503 -0.04071,0.01705 -0.02064,-0.02823 -0.02699,-0.02846 -0.07623,-0.0028 -0.04224,0.02203 -0.11832,0.02803 -0.356375,0.02812 l -0.302666,1.08e-4 z m 3.895983,-0.356166 c 0.0011,-0.10104 -0.002,-0.190676 -0.0068,-0.199191 -0.01482,-0.0262 -0.03981,0.03037 -0.0401,0.09077 -1.53e-4,0.03147 -0.0099,0.06043 -0.02167,0.06435 -0.01564,0.0052 -0.01321,0.02759 0.009,0.08318 0.01673,0.04183 0.03043,0.09757 0.03043,0.123873 0,0.0263 0.0061,0.04172 0.01355,0.03427 0.0075,-0.0075 0.01444,-0.09622 0.01553,-0.197259 z m -0.02909,-0.301162 c 0,-0.0099 -0.0036,-0.01807 -0.008,-0.01807 -0.0044,0 -0.01299,0.0081 -0.01914,0.01807 -0.0061,0.0099 -0.0025,0.01807 0.008,0.01807 0.01052,0 0.01914,-0.0081 0.01914,-0.01807 z m 0,-0.172729 c 0,-0.01432 -0.0081,-0.02604 -0.01807,-0.02604 -0.0099,0 -0.01807,0.01674 -0.01807,0.0372 0,0.02046 0.0081,0.03218 0.01807,0.02604 0.0099,-0.0061 0.01807,-0.02289 0.01807,-0.03721 z m -3.631992,-0.07918 c 0,-0.02132 -0.03524,-0.04413 -0.04818,-0.03118 -0.01294,0.01294 0.0099,0.04818 0.03119,0.04818 0.0094,0 0.01701,-0.0077 0.01701,-0.017 z m -0.08131,-0.199832 c -0.0061,-0.0099 -0.0193,-0.01807 -0.02923,-0.01807 -0.0099,0 -0.01305,0.0081 -0.0069,0.01807 0.0061,0.0099 0.0193,0.01807 0.02923,0.01807 0.0099,0 0.01305,-0.0081 0.0069,-0.01807 z m -0.02374,-0.1948098 c -0.05694,-0.05895 -0.06603,-0.05818 -0.05037,0.0042 0.0084,0.03343 0.02349,0.04601 0.05523,0.04601 h 0.04368 z m 0.09933,-0.22418 c -0.0058,-0.01442 -0.01005,-0.01013 -0.01092,0.01092 -7.88e-4,0.01905 0.0035,0.02972 0.0095,0.02372 0.006,-0.006 0.0067,-0.02159 0.0014,-0.03463 z m -0.06655,0.01349 c 0,-0.01907 -0.03468,-0.02708 -0.04499,-0.0104 -0.0062,0.0101 0.0013,0.01836 0.01682,0.01836 0.01549,0 0.02817,-0.0036 0.02817,-0.008 z m 5.5429421,-0.231453 c -0.009,-0.02724 -0.08592,-0.04169 -0.08592,-0.01613 0,0.01578 0.03026,0.02994 0.0783,0.03662 0.0083,0.0012 0.01171,-0.0081 0.0076,-0.02049 z M 5.6226499,9.0130742 c 0.02119,-0.03428 -0.0097,-0.04275 -0.04118,-0.01128 -0.02817,0.02817 -0.02822,0.03055 -6.06e-4,0.03055 0.01645,0 0.03527,-0.0087 0.04182,-0.01927 z m 6.5720871,-0.195677 c -0.0294,-0.09195 -0.104131,-0.197421 -0.12505,-0.176502 -0.0056,0.0056 0.0071,0.04562 0.02811,0.08903 0.02101,0.04341 0.03821,0.08702 0.03821,0.09692 0,0.02099 0.07272,0.10267 0.0826,0.09279 0.0037,-0.0037 -0.0071,-0.04968 -0.02386,-0.102231 z m -1.229505,0.01869 c 0.274381,-0.08971 0.407512,-0.286084 0.356188,-0.525404 -0.02231,-0.104036 -0.115323,-0.221116 -0.216778,-0.272874 -0.152588,-0.07784 -0.259251,-0.09278 -0.689773,-0.0966 l -0.411083,-0.0036 v 0.464817 0.464817 l 0.04066,0.0087 c 0.02236,0.0048 0.211414,0.0067 0.420118,0.0042 0.334195,-0.0039 0.393921,-0.0092 0.500671,-0.04407 z m -5.3885001,-0.01047 c 0,-0.01432 -0.0081,-0.03106 -0.01807,-0.03721 -0.0099,-0.0061 -0.01807,0.0056 -0.01807,0.02604 0,0.02046 0.0081,0.03721 0.01807,0.03721 0.0099,0 0.01807,-0.01172 0.01807,-0.02604 z m -0.108418,-0.188864 c 0,-0.0089 -0.0122,-0.02082 -0.0271,-0.02654 -0.01651,-0.0063 -0.02711,-2.7e-5 -0.02711,0.01614 0,0.01459 0.0122,0.02653 0.02711,0.02653 0.01491,0 0.0271,-0.0073 0.0271,-0.01613 z m 0.162627,-0.02 c 0,-0.0099 -0.0086,-0.01807 -0.01914,-0.01807 -0.01052,0 -0.01411,0.0081 -0.008,0.01807 0.0061,0.0099 0.01475,0.01807 0.01914,0.01807 0.0044,0 0.008,-0.0081 0.008,-0.01807 z m 0.04332,-0.159634 c 0.0052,-0.0083 -0.02692,-0.05064 -0.07121,-0.09411 -0.09275,-0.09102 -0.105171,-0.07481 -0.02621,0.0342 0.0535,0.07385 0.07908,0.08959 0.09742,0.05992 z m 0.155442,-0.02213 c 0,-0.0094 -0.0081,-0.01701 -0.01807,-0.01701 -0.0099,0 -0.01807,0.01268 -0.01807,0.02817 0,0.0155 0.0081,0.02315 0.01807,0.01701 0.0099,-0.0061 0.01807,-0.01882 0.01807,-0.02817 z m 3.427499,-0.05653 c -0.0058,-0.01442 -0.01004,-0.01014 -0.01092,0.01092 -7.88e-4,0.01905 0.0035,0.02972 0.0095,0.02372 0.006,-0.006 0.0067,-0.02159 0.0014,-0.03463 z m -3.759327,-0.08149 c -0.0074,-0.0074 -0.02102,-0.0015 -0.03027,0.01312 -0.02782,0.044 -0.01948,0.06354 0.01319,0.03088 0.01681,-0.0168 0.02449,-0.0366 0.01708,-0.04401 z m 0.105958,-0.04161 c 0.0061,-0.0099 0.0025,-0.01807 -0.008,-0.01807 -0.01053,0 -0.01914,0.0081 -0.01914,0.01807 0,0.0099 0.0036,0.01807 0.008,0.01807 0.0044,0 0.01299,-0.0081 0.01914,-0.01807 z m 0.0271,-0.135523 c 0,-0.02811 -0.01024,-0.04517 -0.0271,-0.04517 -0.03206,0 -0.03338,0.0087 -0.0084,0.0554 0.02514,0.04698 0.0355,0.044 0.0355,-0.01022 z m 3.641126,-0.04533 c 0.01474,-0.02384 -0.0066,-0.09019 -0.02899,-0.09019 -0.02392,0 -0.04047,0.04835 -0.02782,0.08131 0.01194,0.03112 0.04031,0.03556 0.05681,0.0089 z m 0.01116,-0.199944 c 0.02298,-0.08223 0.01667,-0.224367 -0.01178,-0.264969 -0.01724,-0.0246 -0.0233,-0.05671 -0.01611,-0.08533 0.0063,-0.02524 0.006,-0.04589 -6.67e-4,-0.04589 -0.03378,0 -0.07949,0.04046 -0.09905,0.08768 -0.01879,0.04536 -0.01659,0.06338 0.01537,0.126024 0.02553,0.05004 0.0338,0.09055 0.02623,0.128417 -0.0195,0.09752 0.05991,0.14744 0.086,0.05407 z m 2.1119271,-0.753237 c 0,-0.0075 -0.01627,-0.02388 -0.03614,-0.0363 -0.03911,-0.02442 -0.04187,-0.02207 -0.02517,0.02144 0.01097,0.02858 0.06131,0.04078 0.06131,0.01486 z m -0.142525,-0.190238 c -0.01476,-0.01476 -0.0201,-0.01273 -0.0201,0.0076 0,0.03592 0.0243,0.06022 0.03328,0.03328 0.0038,-0.01143 -0.0021,-0.02983 -0.01317,-0.04088 z"
     id="path5"
     class="ColorScheme-Text" />
  <path
     style="fill:currentColor;stroke-width:0.0135522"
     d="m 5.3960349,10.714399 c 0,-0.102874 0.0037,-0.116592 0.02639,-0.09777 0.02171,0.01802 0.03291,0.01121 0.06318,-0.03845 0.04926,-0.08079 0.04726,-0.08745 -0.02632,-0.08745 h -0.06324 v -0.459083 c 0,-0.4501875 7.28e-4,-0.4589005 0.03614,-0.4496335 0.02817,0.0074 0.03614,5.54e-4 0.03614,-0.0309 0,-0.03146 -0.008,-0.03827 -0.03614,-0.0309 -0.03402,0.0089 -0.03614,5.53e-4 -0.03614,-0.142449 0,-0.136992 0.0033,-0.1519 0.0342,-0.1519 0.01881,0 0.03889,-0.0122 0.04461,-0.02711 0.0075,-0.01958 -0.002,-0.02711 -0.0342,-0.02711 h -0.04461 l -0.0036,-0.57371 c -0.002,-0.31554 -0.0015,-0.598104 0.0013,-0.627919 0.01054,-0.116644 0.0078,-0.419111 -0.0044,-0.483362 l -0.01288,-0.06776 h -0.42998 c -0.236488,0 -0.553241,-0.0053 -0.703895,-0.01186 l -0.273918,-0.01186 v -0.64811 -0.648112 l 3.627474,0.0059 c 3.9858361,0.0065 3.6897131,-0.0016 4.0965081,0.113423 0.50423,0.142649 0.868888,0.418155 1.047881,0.791694 0.122553,0.255754 0.144961,0.366957 0.144293,0.716049 -6.67e-4,0.342741 -0.03616,0.528896 -0.142876,0.749158 -0.08559,0.176645 -0.377322,0.501433 -0.524801,0.584254 -0.171447,0.09628 -0.230048,0.146926 -0.221535,0.191457 0.0092,0.04827 0.463722,0.706025 0.55964,0.8099225 0.04055,0.04393 0.147436,0.224443 0.251512,0.424785 0.161537,0.310947 0.176852,0.348395 0.142488,0.348395 -0.02118,0 -0.05527,-0.009 -0.07575,-0.01993 -0.02737,-0.01465 -0.04061,-0.0145 -0.04991,5.53e-4 -0.01169,0.01892 -0.09086,-0.0467 -0.159634,-0.132308 -0.03829,-0.04766 -0.06065,-0.03704 -0.137539,0.06538 -0.06659,0.08869 -0.13846,0.102266 -0.312238,0.05899 -0.119074,-0.02965 -0.155661,-0.03069 -0.389332,-0.01106 -0.164311,0.0138 -0.278217,0.01561 -0.313871,0.005 -0.03526,-0.01051 -0.09034,-0.0099 -0.148897,0.0017 -0.07138,0.01411 -0.09946,0.01296 -0.121058,-0.005 -0.05849,-0.04853 -0.61265,-0.8946145 -0.72916,-1.1132545 -0.03252,-0.06103 -0.08339,-0.134208 -0.113048,-0.162627 -0.04929,-0.04723 -0.0673,-0.05223 -0.209643,-0.05818 -0.133802,-0.0056 -0.15907,-0.0019 -0.17952,0.02604 -0.01864,0.02549 -0.0238,0.172896 -0.0238,0.6795995 0,0.355879 -0.0061,0.646845 -0.01355,0.646591 -0.0075,-2.57e-4 -0.0579,-0.02871 -0.112098,-0.06324 -0.106896,-0.0681 -0.163783,-0.07795 -0.206056,-0.03568 -0.01491,0.01491 -0.03853,0.0271 -0.05249,0.0271 -0.01396,0 -0.03097,0.0056 -0.0378,0.01242 -0.01371,0.01371 -0.05163,0.02134 -0.176432,0.03549 l -0.08344,0.0095 0.0018,-0.05893 c 0.0023,-0.07777 -0.0291,-0.08565 -0.05611,-0.01409 l -0.0215,0.05696 -0.104492,-0.01275 c -0.288054,-0.03514 -0.270037,-0.03597 -0.375188,0.01723 -0.09552,0.04833 -0.100927,0.04907 -0.134707,0.0185 -0.03784,-0.03424 -0.0993,-0.04247 -0.150238,-0.0201 -0.02999,0.01316 -0.03162,-0.07342 -0.03162,-1.6775595 v -1.69145 l -0.650505,-0.0036 c -0.357779,-0.002 -0.680998,-0.004 -0.718267,-0.0045 -0.05342,-7.28e-4 -0.07154,0.0077 -0.0856,0.03975 -0.01088,0.02478 -0.03366,0.04066 -0.05838,0.04066 -0.07823,0 -0.07613,0.193716 0.0037,0.338015 0.0337,0.06095 0.03741,0.07984 0.01871,0.09536 -0.03431,0.02847 -0.04457,0.248232 -0.01552,0.332341 0.02824,0.08174 0.03043,0.103338 0.0067,0.06578 -0.02496,-0.03947 -0.07849,0.09772 -0.07392,0.189435 0.002,0.03975 0.003,0.160871 0.0023,0.26915 -7.28e-4,0.108279 0.0067,0.206539 0.01653,0.218354 0.012,0.01446 0.0079,0.04672 -0.01247,0.09862 -0.02843,0.07238 -0.02841,0.07819 3.95e-4,0.09431 0.02356,0.01319 0.02647,0.02507 0.01251,0.05116 -0.02735,0.05111 -0.02257,0.05945 0.02698,0.04702 0.03184,-0.008 0.04517,-0.004 0.04517,0.0136 0,0.01588 -0.01477,0.02241 -0.04066,0.01799 -0.02236,-0.0038 -0.05285,0.0016 -0.06776,0.01207 -0.02265,0.0159 -0.01448,0.03048 0.04969,0.08871 l 0.07679,0.06969 -5.53e-4,0.6661195 -5.53e-4,0.666121 -0.03921,-0.05421 c -0.02156,-0.02982 -0.07309,-0.08877 -0.114502,-0.131005 -0.07031,-0.07171 -0.0818,-0.0768 -0.173602,-0.0768 -0.09012,0 -0.105476,0.0064 -0.184317,0.0768 -0.101962,0.09104 -0.198348,0.14791 -0.206951,0.122098 -0.01185,-0.03556 -0.05844,-0.01747 -0.07635,0.02965 -0.01653,0.04347 -0.02025,0.04503 -0.04071,0.01705 -0.02064,-0.02823 -0.02699,-0.02846 -0.07623,-0.0028 -0.04224,0.02203 -0.11832,0.02803 -0.356375,0.02812 l -0.302666,1.08e-4 z m 3.895983,-0.356166 c 0.0011,-0.101039 -0.002,-0.190676 -0.0068,-0.199191 -0.01482,-0.0262 -0.03981,0.03037 -0.0401,0.09077 -1.53e-4,0.03147 -0.0099,0.06043 -0.02167,0.06435 -0.01564,0.0052 -0.01321,0.02759 0.009,0.08318 0.01673,0.04183 0.03043,0.09757 0.03043,0.123873 0,0.0263 0.0061,0.04172 0.01355,0.03427 0.0075,-0.0075 0.01444,-0.09622 0.01553,-0.19726 z m -0.02909,-0.301162 c 0,-0.0099 -0.0036,-0.01807 -0.008,-0.01807 -0.0044,0 -0.01299,0.0081 -0.01914,0.01807 -0.0061,0.0099 -0.0025,0.01807 0.008,0.01807 0.01052,0 0.01914,-0.0081 0.01914,-0.01807 z m 0,-0.1727275 c 0,-0.01432 -0.0081,-0.02604 -0.01807,-0.02604 -0.0099,0 -0.01807,0.01674 -0.01807,0.0372 0,0.02046 0.0081,0.03218 0.01807,0.02604 0.0099,-0.0061 0.01807,-0.02289 0.01807,-0.03721 z m -3.631992,-0.07918 c 0,-0.02132 -0.03524,-0.04413 -0.04818,-0.03118 -0.01294,0.01294 0.0099,0.04818 0.03119,0.04818 0.0094,0 0.01701,-0.0077 0.01701,-0.017 z m -0.08131,-0.199832 c -0.0061,-0.0099 -0.0193,-0.01807 -0.02923,-0.01807 -0.0099,0 -0.01305,0.0081 -0.0069,0.01807 0.0061,0.0099 0.0193,0.01807 0.02923,0.01807 0.0099,0 0.01305,-0.0081 0.0069,-0.01807 z m -0.02374,-0.19481 c -0.05694,-0.05895 -0.06603,-0.05818 -0.05037,0.0042 0.0084,0.03343 0.02349,0.04601 0.05523,0.04601 h 0.04368 z m 0.09933,-0.22418 c -0.0058,-0.01442 -0.01005,-0.01013 -0.01092,0.01092 -7.88e-4,0.01905 0.0035,0.02972 0.0095,0.02372 0.006,-0.006 0.0067,-0.02159 0.0014,-0.03463 z m -0.06655,0.01349 c 0,-0.01907 -0.03468,-0.02708 -0.04499,-0.0104 -0.0062,0.0101 0.0013,0.01836 0.01682,0.01836 0.01549,0 0.02817,-0.0036 0.02817,-0.008 z m 5.5429421,-0.231453 c -0.009,-0.02724 -0.08592,-0.04169 -0.08592,-0.01613 0,0.01578 0.03026,0.02994 0.0783,0.03662 0.0083,0.0012 0.01171,-0.0081 0.0076,-0.02049 z M 5.6226499,8.4838135 c 0.02119,-0.03428 -0.0097,-0.04275 -0.04118,-0.01128 -0.02817,0.02817 -0.02822,0.03055 -6.06e-4,0.03055 0.01645,0 0.03527,-0.0087 0.04182,-0.01927 z m 6.5720871,-0.195677 c -0.0294,-0.09195 -0.104131,-0.197421 -0.12505,-0.176502 -0.0056,0.0056 0.0071,0.04562 0.02811,0.08903 0.02101,0.04341 0.03821,0.08702 0.03821,0.09692 0,0.02099 0.07272,0.10267 0.0826,0.09279 0.0037,-0.0037 -0.0071,-0.04968 -0.02386,-0.102231 z m -1.229505,0.01869 c 0.274381,-0.08971 0.407512,-0.286084 0.356188,-0.525404 -0.02231,-0.104036 -0.115323,-0.221116 -0.216778,-0.272874 -0.152588,-0.07784 -0.259251,-0.09278 -0.689773,-0.0966 l -0.411083,-0.0036 v 0.464817 0.464817 l 0.04066,0.0087 c 0.02236,0.0048 0.211414,0.0067 0.420118,0.0042 0.334195,-0.0039 0.393921,-0.0092 0.500671,-0.04407 z m -5.3885001,-0.01047 c 0,-0.01432 -0.0081,-0.03106 -0.01807,-0.03721 -0.0099,-0.0061 -0.01807,0.0056 -0.01807,0.02604 0,0.02046 0.0081,0.03721 0.01807,0.03721 0.0099,0 0.01807,-0.01172 0.01807,-0.02604 z m -0.108418,-0.188864 c 0,-0.0089 -0.0122,-0.02082 -0.0271,-0.02654 -0.01651,-0.0063 -0.02711,-2.7e-5 -0.02711,0.01614 0,0.01459 0.0122,0.02653 0.02711,0.02653 0.01491,0 0.0271,-0.0073 0.0271,-0.01613 z m 0.162627,-0.02 c 0,-0.0099 -0.0086,-0.01807 -0.01914,-0.01807 -0.01052,0 -0.01411,0.0081 -0.008,0.01807 0.0061,0.0099 0.01475,0.01807 0.01914,0.01807 0.0044,0 0.008,-0.0081 0.008,-0.01807 z m 0.04332,-0.159634 c 0.0052,-0.0083 -0.02692,-0.05064 -0.07121,-0.09411 -0.09275,-0.09102 -0.105171,-0.07481 -0.02621,0.0342 0.0535,0.07385 0.07908,0.08959 0.09742,0.05992 z m 0.155442,-0.02213 c 0,-0.0094 -0.0081,-0.01701 -0.01807,-0.01701 -0.0099,0 -0.01807,0.01268 -0.01807,0.02817 0,0.0155 0.0081,0.02315 0.01807,0.01701 0.0099,-0.0061 0.01807,-0.01882 0.01807,-0.02817 z m 3.427499,-0.05653 c -0.0058,-0.01442 -0.01004,-0.01014 -0.01092,0.01092 -7.88e-4,0.01905 0.0035,0.02972 0.0095,0.02372 0.006,-0.006 0.0067,-0.02159 0.0014,-0.03463 z m -3.759327,-0.08149 c -0.0074,-0.0074 -0.02102,-0.0015 -0.03027,0.01312 -0.02782,0.044 -0.01948,0.06354 0.01319,0.03088 0.01681,-0.0168 0.02449,-0.0366 0.01708,-0.04401 z m 0.105958,-0.04161 c 0.0061,-0.0099 0.0025,-0.01807 -0.008,-0.01807 -0.01053,0 -0.01914,0.0081 -0.01914,0.01807 0,0.0099 0.0036,0.01807 0.008,0.01807 0.0044,0 0.01299,-0.0081 0.01914,-0.01807 z m 0.0271,-0.135523 c 0,-0.02811 -0.01024,-0.04517 -0.0271,-0.04517 -0.03206,0 -0.03338,0.0087 -0.0084,0.0554 0.02514,0.04698 0.0355,0.044 0.0355,-0.01022 z m 3.641126,-0.04533 c 0.01474,-0.02384 -0.0066,-0.09019 -0.02899,-0.09019 -0.02392,0 -0.04047,0.04835 -0.02782,0.08131 0.01194,0.03112 0.04031,0.03556 0.05681,0.0089 z m 0.01116,-0.199944 c 0.02298,-0.08223 0.01667,-0.224367 -0.01178,-0.264969 -0.01724,-0.0246 -0.0233,-0.05671 -0.01611,-0.08533 0.0063,-0.02524 0.006,-0.04589 -6.67e-4,-0.04589 -0.03378,0 -0.07949,0.04046 -0.09905,0.08768 -0.01879,0.04536 -0.01659,0.06338 0.01537,0.126024 0.02553,0.05004 0.0338,0.09055 0.02623,0.128417 -0.0195,0.09752 0.05991,0.14744 0.086,0.05407 z m 2.1119271,-0.753237 c 0,-0.0075 -0.01627,-0.02388 -0.03614,-0.0363 -0.03911,-0.02442 -0.04187,-0.02207 -0.02517,0.02144 0.01097,0.02858 0.06131,0.04078 0.06131,0.01486 z m -0.142525,-0.190238 c -0.01476,-0.01476 -0.0201,-0.01273 -0.0201,0.0076 0,0.03592 0.0243,0.06022 0.03328,0.03328 0.0038,-0.01143 -0.0021,-0.02983 -0.01317,-0.04088 z"
     id="path5-7"
     class="ColorScheme-Text" />
  <ellipse
     style="fill:none;stroke:#000000;stroke-width:0.582072;stroke-dasharray:none;stroke-opacity:1;filter:url(#filter3-8)"
     id="path1-5-7"
     cx="8.4450111"
     cy="8.423522"
     rx="6.8752708"
     ry="6.8578653"
     transform="matrix(0.4782969,0,0,0.4782969,8.9000071,8.8280171)" />
  <ellipse
     style="fill:currentColor;fill-opacity:1;stroke:currentColor;stroke-width:0.278402;stroke-dasharray:none;stroke-opacity:1"
     id="path1-59"
     cx="12.939234"
     cy="12.856965"
     rx="3.2884204"
     ry="3.2800953"
     class="ColorScheme-Text" />
  <ellipse
     style="fill:currentColor;stroke:none;stroke-width:0.246622;stroke-dasharray:none;stroke-opacity:1"
     id="path1-2-2"
     cx="12.939234"
     cy="12.856965"
     rx="2.9130225"
     ry="2.9056478"
     class="ColorScheme-Highlight" />
  <path
     id="path1-36-3"
     style="fill:#000000;fill-opacity:1;stroke:none;stroke-width:0.124104;stroke-dasharray:none;stroke-dashoffset:2.2;stroke-opacity:0.3;opacity:0.3"
     d="m 14.021099,11.736685 c -0.06523,-2.7e-5 -0.135047,0.02623 -0.222431,0.07744 -0.207942,0.121835 -0.479893,0.179294 -0.853351,0.179294 -0.373425,0 -0.654446,-0.05868 -0.861152,-0.179813 -0.165749,-0.09713 -0.264703,-0.09842 -0.403809,-0.0046 -0.357127,0.240662 -0.62628,1.012267 -0.705238,2.020557 -0.04735,0.604628 -0.0031,0.923391 0.153311,1.102784 0.07546,0.08649 0.260665,0.07183 0.427716,-0.0343 0.141607,-0.08996 0.310333,-0.288477 0.511911,-0.602326 0.182153,-0.283608 0.40248,-0.377017 0.889733,-0.377816 0.486283,-7.65e-4 0.677387,0.09125 0.901686,0.436021 0.376321,0.578447 0.72416,0.779828 0.928191,0.537359 0.113031,-0.134326 0.133719,-0.264107 0.128366,-0.804479 -0.0098,-0.981615 -0.266353,-1.87461 -0.636118,-2.215438 -0.09848,-0.09078 -0.174941,-0.134569 -0.258815,-0.134604 z m -2.112591,0.578416 h 0.225551 0.22555 v 0.193324 0.193326 h 0.19333 0.193331 v 0.241656 0.241656 h -0.193331 -0.19333 v 0.209435 0.209435 h -0.204243 c -0.112206,0 -0.213221,-0.01005 -0.225032,-0.02182 -0.0118,-0.01181 -0.02182,-0.105569 -0.02182,-0.208914 v -0.188138 h -0.193337 -0.193331 v -0.241656 -0.241656 h 0.193331 0.193332 v -0.193326 z m 1.83871,0 c 0.203478,0 0.290618,0.225442 0.14396,0.372098 -0.09327,0.09326 -0.178394,0.100588 -0.270247,0.02287 -0.159321,-0.134809 -0.07616,-0.394964 0.126287,-0.394964 z m -0.391336,0.413154 c 0.05081,3.5e-5 0.101967,0.02029 0.142399,0.06495 0.06302,0.06964 0.06984,0.229093 0.013,0.303499 -0.111241,0.145623 -0.378344,0.05196 -0.378344,-0.13252 0,-0.140009 0.111172,-0.236016 0.22295,-0.23594 z m 0.798786,0.0078 c 0.05856,0.0011 0.115418,0.02047 0.148634,0.05716 0.06302,0.06964 0.06983,0.229092 0.013,0.303499 -0.118321,0.154886 -0.378346,0.05122 -0.378346,-0.150713 0,-0.06121 0.02453,-0.127549 0.05873,-0.158506 0.03909,-0.03538 0.09943,-0.05251 0.15799,-0.05145 z m -0.393417,0.416788 c 0.180393,0 0.268168,0.19134 0.159029,0.347153 -0.0373,0.05326 -0.08282,0.07171 -0.176699,0.07171 -0.108097,0 -0.133181,-0.01407 -0.176699,-0.09823 -0.08582,-0.165932 0.0078,-0.320649 0.194369,-0.320649 z" />
  <path
     id="path1-36"
     style="fill:currentColor;fill-opacity:1;stroke:none;stroke-width:0.124104;stroke-dasharray:none;stroke-dashoffset:2.2;stroke-opacity:0.3"
     d="m 14.021099,11.207529 c -0.06523,-2.7e-5 -0.135047,0.02623 -0.222431,0.07744 -0.207942,0.121835 -0.479893,0.179294 -0.853351,0.179294 -0.373425,0 -0.654446,-0.05868 -0.861152,-0.179813 -0.165749,-0.09713 -0.264703,-0.09842 -0.403809,-0.0046 -0.357127,0.240662 -0.62628,1.012267 -0.705238,2.020557 -0.04735,0.604628 -0.0031,0.923391 0.153311,1.102784 0.07546,0.08649 0.260665,0.07183 0.427716,-0.0343 0.141607,-0.08996 0.310333,-0.288477 0.511911,-0.602326 0.182153,-0.283608 0.40248,-0.377017 0.889733,-0.377816 0.486283,-7.65e-4 0.677387,0.09125 0.901686,0.436021 0.376321,0.578447 0.72416,0.779828 0.928191,0.537359 0.113031,-0.134326 0.133719,-0.264107 0.128366,-0.804479 -0.0098,-0.981615 -0.266353,-1.87461 -0.636118,-2.215438 -0.09848,-0.09078 -0.174941,-0.134569 -0.258815,-0.134604 z m -2.112591,0.578416 h 0.225551 0.22555 v 0.193324 0.193326 h 0.19333 0.193331 v 0.241656 0.241656 h -0.193331 -0.19333 v 0.209435 0.209435 h -0.204243 c -0.112206,0 -0.213221,-0.01005 -0.225032,-0.02182 -0.0118,-0.01181 -0.02182,-0.105569 -0.02182,-0.208914 v -0.188138 h -0.193337 -0.193331 v -0.241656 -0.241656 h 0.193331 0.193332 v -0.193326 z m 1.83871,0 c 0.203478,0 0.290618,0.225442 0.14396,0.372098 -0.09327,0.09326 -0.178394,0.100588 -0.270247,0.02287 -0.159321,-0.134809 -0.07616,-0.394964 0.126287,-0.394964 z m -0.391336,0.413154 c 0.05081,3.5e-5 0.101967,0.02029 0.142399,0.06495 0.06302,0.06964 0.06984,0.229093 0.013,0.303499 -0.111241,0.145623 -0.378344,0.05196 -0.378344,-0.13252 0,-0.140009 0.111172,-0.236016 0.22295,-0.23594 z m 0.798786,0.0078 c 0.05856,0.0011 0.115418,0.02047 0.148634,0.05716 0.06302,0.06964 0.06983,0.229092 0.013,0.303499 -0.118321,0.154886 -0.378346,0.05122 -0.378346,-0.150713 0,-0.06121 0.02453,-0.127549 0.05873,-0.158506 0.03909,-0.03538 0.09943,-0.05251 0.15799,-0.05145 z m -0.393417,0.416788 c 0.180393,0 0.268168,0.19134 0.159029,0.347153 -0.0373,0.05326 -0.08282,0.07171 -0.176699,0.07171 -0.108097,0 -0.133181,-0.01407 -0.176699,-0.09823 -0.08582,-0.165932 0.0078,-0.320649 0.194369,-0.320649 z"
     class="ColorScheme-Text" />
  <path
     id="gradient-path1"
     style="opacity:0.3;baseline-shift:baseline;display:inline;overflow:visible;vector-effect:none;enable-background:accumulate;stop-color:#000000;stop-opacity:1;fill:url(#linearGradient5)"
     d="M 8.4453131 1.2753492 C 4.4913166 1.2753492 1.2794833 4.4784283 1.2794833 8.4236094 C 1.2794833 12.36879 4.4913166 15.572386 8.4453131 15.572386 C 9.1638027 15.572386 9.8576697 15.466358 10.51233 15.269568 C 11.133159 15.890536 11.991864 16.275172 12.939524 16.275172 C 14.830708 16.275172 16.367154 14.744327 16.367154 12.85736 C 16.367154 11.897867 15.969699 11.029882 15.330545 10.408462 C 15.513101 9.7781514 15.611143 9.1121932 15.611143 8.4236094 C 15.611143 4.4784283 12.39931 1.2753492 8.4453131 1.2753492 z " />
</svg>
