<?xml version="1.0" encoding="UTF-8" standalone="no"?>
<svg
   width="64"
   height="64"
   version="1.1"
   viewBox="0 0 16.933 16.933"
   id="svg7"
   sodipodi:docname="steam_icon_2525380.svg"
   inkscape:version="1.4.2 (ebf0e940d0, 2025-05-08)"
   xmlns:inkscape="http://www.inkscape.org/namespaces/inkscape"
   xmlns:sodipodi="http://sodipodi.sourceforge.net/DTD/sodipodi-0.dtd"
   xmlns:xlink="http://www.w3.org/1999/xlink"
   xmlns="http://www.w3.org/2000/svg"
   xmlns:svg="http://www.w3.org/2000/svg"
   xmlns:rdf="http://www.w3.org/1999/02/22-rdf-syntax-ns#"
   xmlns:cc="http://creativecommons.org/ns#"
   xmlns:dc="http://purl.org/dc/elements/1.1/">
  <sodipodi:namedview
     id="namedview7"
     pagecolor="#9c4444"
     bordercolor="#000000"
     borderopacity="0.25"
     inkscape:showpageshadow="2"
     inkscape:pageopacity="0.0"
     inkscape:pagecheckerboard="0"
     inkscape:deskcolor="#d1d1d1"
     inkscape:zoom="4.3531261"
     inkscape:cx="36.180895"
     inkscape:cy="25.958357"
     inkscape:window-width="1763"
     inkscape:window-height="1372"
     inkscape:window-x="0"
     inkscape:window-y="0"
     inkscape:window-maximized="0"
     inkscape:current-layer="svg7"
     showgrid="false" />
  <defs
     id="defs2">
    <filter
       style="color-interpolation-filters:sRGB;"
       inkscape:label="Blur"
       id="filter3"
       x="-0.10843471"
       y="-0.10870992"
       width="1.2168694"
       height="1.2174198">
      <feGaussianBlur
         stdDeviation="0.5 0.5"
         result="blur"
         id="feGaussianBlur3" />
    </filter>
    <filter
       style="color-interpolation-filters:sRGB"
       inkscape:label="Blur"
       id="filter3-8"
       x="-0.10843471"
       y="-0.10870992"
       width="1.2168694"
       height="1.2174198">
      <feGaussianBlur
         stdDeviation="0.5 0.5"
         result="blur"
         id="feGaussianBlur3-7" />
    </filter>
    <style
       id="current-color-scheme"
       type="text/css">.ColorScheme-Text {color:#d8dee9} .ColorScheme-Highlight {color:#3b4252}</style>
    <linearGradient
       id="linearGradient4"
       inkscape:collect="always">
      <stop
         style="stop-color:#000000;stop-opacity:1;"
         offset="0"
         id="stop4" />
      <stop
         style="stop-color:#000000;stop-opacity:0;"
         offset="1"
         id="stop5" />
    </linearGradient>
    <linearGradient
       inkscape:collect="always"
       xlink:href="#linearGradient4"
       id="linearGradient5"
       x1="14.157616"
       y1="14.109557"
       x2="3.4890218"
       y2="3.440964"
       gradientUnits="userSpaceOnUse" />
  </defs>
  <metadata
     id="metadata2">
    <rdf:RDF>
      <cc:Work
         rdf:about="">
        <dc:format>image/svg+xml</dc:format>
        <dc:type
           rdf:resource="http://purl.org/dc/dcmitype/StillImage" />
      </cc:Work>
    </rdf:RDF>
  </metadata>
  <ellipse
     style="opacity:1;fill:none;stroke:#000000;stroke-width:0.582072;stroke-dasharray:none;stroke-opacity:1;filter:url(#filter3)"
     id="path1-5"
     cx="8.4450111"
     cy="8.423522"
     rx="6.8752708"
     ry="6.8578653" />
  <ellipse
     style="opacity:1;fill:none;stroke-width:0.58207188;stroke-opacity:1;stroke:currentColor;stroke-dasharray:none;fill-opacity:1"
     id="path1"
     cx="8.4450111"
     cy="8.423522"
     rx="6.8752708"
     ry="6.8578653"
     class="ColorScheme-Text" />
  <ellipse
     style="fill:currentColor;stroke:none;stroke-width:0.285728;stroke-dasharray:none;stroke-opacity:1"
     id="path1-2"
     cx="8.4450111"
     cy="8.423522"
     rx="6.5766377"
     ry="6.5612183"
     class="ColorScheme-Highlight" />
  <path
     id="path5"
     style="opacity:0.3;fill:#000000;fill-opacity:1;stroke-width:0.00345917;paint-order:fill markers stroke"
     d="m 3.836379,5.8402975 1.6402083,0.00138 c 0.7839747,6.531e-4 0.5416371,0.012567 0.7429197,0.016523 h 0.1328974 v 0.00298 c 0.1170425,0.00469 0.7024516,7.923e-4 0.6571055,0.014613 -0.3024268,0.092242 -0.4424497,0.2289235 -0.5475921,0.5345244 -0.045866,0.1333203 -0.042016,0.2591911 0.013202,0.43038 0.071547,0.2218086 0.1881918,0.3468485 0.4182028,0.4483177 0.1277818,0.05637 0.144559,0.059189 0.3575291,0.060101 0.1943951,8.516e-4 0.2374288,-0.00456 0.3307388,-0.041402 0.190719,-0.075337 0.4200879,-0.2928795 0.4200879,-0.3984053 0,-0.015017 0.016108,-0.047745 0.035773,-0.072747 0.044857,-0.057029 0.047909,-0.2086216 0.00774,-0.3820128 C 7.971375,6.1362766 7.7941741,5.9573527 7.4654093,5.8690897 7.3775414,5.8455013 7.6717286,5.8425687 10.231858,5.8415122 l 2.864755,-0.00119 z m 9.260195,0 -0.0012,2.2122587 -0.0012,2.2122588 -0.0359,-0.08045 c -0.01974,-0.04425 -0.04639,-0.108593 -0.05924,-0.143006 -0.0564,-0.151113 -0.193407,-0.4781813 -0.24228,-0.5783609 -0.02935,-0.060154 -0.05335,-0.1182928 -0.05335,-0.1292055 0,-0.010916 -0.01611,-0.034419 -0.03577,-0.052216 -0.04831,-0.043716 -0.04542,-0.054249 0.02236,-0.082096 0.0809,-0.033237 0.201234,-0.1597564 0.230365,-0.2422009 0.03904,-0.1105084 0.03333,-0.5963486 -0.0085,-0.7214982 -0.06684,-0.2000512 -0.221081,-0.3786066 -0.380023,-0.4399118 -0.07791,-0.030047 -0.13938,-0.033804 -0.552462,-0.033804 h -0.464815 l 0.0054,0.5452349 c 0.003,0.2998839 0.0091,0.7302772 0.01359,0.9564198 0.0045,0.2261419 0.0081,0.4596431 0.008,0.518917 l -1.74e-4,0.1077844 0.120667,0.030793 c 0.06637,0.016932 0.16091,0.035481 0.210071,0.041247 0.04916,0.00575 0.120074,0.02201 0.157591,0.036083 0.03752,0.014079 0.07604,0.020736 0.0856,0.014819 0.0099,-0.0061 0.01608,-0.096727 0.01435,-0.210357 -0.0017,-0.1097964 -0.0017,-0.2680096 7.8e-5,-0.351584 l 0.0031,-0.1519615 0.02685,0.071516 c 0.01476,0.039331 0.04197,0.1168679 0.06044,0.1723354 0.01847,0.055465 0.04127,0.1158012 0.0507,0.1340758 0.0094,0.018273 0.02525,0.065416 0.03518,0.1047473 0.02362,0.093772 0.05465,0.182122 0.09089,0.258672 0.02652,0.05602 0.04322,0.06605 0.172388,0.103647 0.206497,0.0601 0.289796,0.08466 0.415479,0.122501 l 0.111582,0.0336 1.58e-4,0.925128 1.22e-4,0.925127 z m 0,6.3105165 -0.218974,-0.0024 c -0.157131,-0.0017 -0.196276,-0.006 -0.138554,-0.01508 0.110007,-0.01737 0.161577,-0.04148 0.2168,-0.101396 0.06988,-0.0758 0.08538,-0.115529 0.09799,-0.251184 0.0097,-0.10462 0.0058,-0.134363 -0.02637,-0.197317 -0.04505,-0.0883 -0.127768,-0.15481 -0.225861,-0.181605 -0.03933,-0.01075 -0.161209,-0.01958 -0.270876,-0.01964 l -0.199411,-7.9e-5 -0.01218,0.183229 c -0.0067,0.10078 -0.0095,0.273764 -0.0062,0.384396 l 0.006,0.201062 z M 6.3524044,5.8611422 C 6.3287346,5.8602146 6.255513,5.8588934 6.219507,5.8581671 H 5.7826589 c -0.313368,0 -0.5702207,0.00601 -0.5707669,0.013406 -5.47e-4,0.00738 -0.00277,0.1045816 -0.00496,0.2160145 -0.00464,0.2348305 -0.00995,0.2272356 0.1731996,0.2459988 l 0.1188044,0.012182 v 0.4990678 0.4990411 l 0.2782605,-0.0039 0.2782598,-0.0039 -0.00562,-0.4872052 c -0.00309,-0.2679661 0.00114,-0.4938935 0.00943,-0.5020788 0.00828,-0.00818 0.077805,-0.01326 0.1545274,-0.01126 l 0.139497,0.00363 -4.192e-4,-0.2404998 z m 2.0664513,0.00356 c -0.060216,0.0035 -0.077512,0.034809 -0.077512,0.111896 0,0.031883 -0.024239,0.2013158 -0.053867,0.3764874 -0.02962,0.1751717 -0.073557,0.4431662 -0.097623,0.5955661 -0.024069,0.1523999 -0.04891,0.3022792 -0.055202,0.3330434 l -0.011444,0.055934 0.2207548,0.00198 c 0.1214125,0.00106 0.2353025,-0.00264 0.2530956,-0.0083 0.048422,-0.015367 0.066134,-0.081623 0.085343,-0.3192164 0.026657,-0.3297152 0.037678,-0.4209526 0.050856,-0.4209526 0.00668,0 0.030051,0.062353 0.051979,0.1385545 0.021928,0.0762 0.073809,0.245046 0.1152998,0.3752302 l 0.075446,0.2367021 0.1340769,-1.044e-4 c 0.073745,-5.35e-5 0.1426087,-0.00601 0.1530354,-0.013254 0.010427,-0.00723 0.037604,-0.073454 0.060411,-0.1471963 0.098778,-0.3193538 0.1670143,-0.5113068 0.1904301,-0.5356766 0.027699,-0.028832 0.025925,-0.03294 0.034772,0.079817 0.052866,0.6735207 0.049228,0.6445599 0.078587,0.6264136 0.00932,-0.00575 0.1261807,-0.011418 0.2597206,-0.012593 0.2137401,-0.00191 0.2418781,-0.00561 0.2350491,-0.030896 -0.0043,-0.01581 -0.01684,-0.085048 -0.02791,-0.1538732 -0.01109,-0.068826 -0.02795,-0.1693742 -0.0375,-0.2234516 C 10.009705,6.6649237 9.9872436,6.5214091 9.9419252,6.197844 9.9260876,6.0847728 9.9070562,5.9641045 9.8996624,5.9296917 L 9.8862311,5.8671279 H 9.609865 9.3335164 L 9.2864533,6.0459052 C 9.2202136,6.2975673 9.1337939,6.5912352 9.1227071,6.6023215 9.1124756,6.6125504 9.0952852,6.5544176 8.9898877,6.1535852 8.9095019,5.8478919 8.9175031,5.8558098 8.7078303,5.8751937 c -0.058995,0.00548 -0.1550548,0.00304 -0.2134747,-0.00528 -0.030564,-0.00436 -0.055422,-0.00634 -0.075495,-0.00515 z m 1.9140183,0.00165 c -0.03724,0.00894 -0.03752,0.013993 -0.04134,0.7426308 l -0.0038,0.7335969 0.103907,-0.0066 c 0.05715,-0.00363 0.144151,-0.00178 0.193311,0.00416 0.04917,0.00594 0.210045,0.00791 0.357528,0.00443 0.236182,-0.00562 0.280941,-0.011629 0.375414,-0.050723 0.05899,-0.024413 0.141441,-0.077535 0.183229,-0.1180499 l 0.07599,-0.073663 -2.6e-5,-0.1348096 c -2.6e-5,-0.1005605 -0.0089,-0.1507278 -0.03502,-0.1973958 -0.01924,-0.034412 -0.0403,-0.076647 -0.04677,-0.093854 -0.0065,-0.017203 -0.0227,-0.031295 -0.03606,-0.031295 -0.01336,0 -0.05012,-0.015704 -0.0817,-0.034907 l -0.05743,-0.034934 0.04468,-0.016998 c 0.02458,-0.00934 0.07133,-0.047309 0.103882,-0.084374 0.05706,-0.064981 0.05885,-0.071712 0.05056,-0.1875232 -0.01486,-0.2077567 -0.09755,-0.3226413 -0.281788,-0.3915171 -0.06314,-0.023602 -0.824744,-0.047309 -0.904517,-0.028152 z m 0.475473,0.3672436 h 0.07686 c 0.09238,0 0.119778,0.023404 0.119778,0.1023376 0,0.065509 -0.044,0.094299 -0.144157,0.094299 -0.05168,0 -0.05247,-0.00152 -0.05247,-0.098331 z m -3.5609307,0.091185 c 0.041528,8.546e-4 0.084781,0.01161 0.1274773,0.033389 0.098298,0.050148 0.1441056,0.1328541 0.1441056,0.2601921 0,0.1751605 -0.1076324,0.2766634 -0.2933961,0.2766634 -0.092027,0 -0.1032165,-0.00482 -0.1690882,-0.073402 C 6.9763893,6.7382406 6.9559054,6.6657301 6.9809963,6.554078 7.0136358,6.4087956 7.1228212,6.3222303 7.2474204,6.324786 Z m 3.5609307,0.4228114 0.101291,0.00841 c 0.101383,0.00841 0.166862,0.052428 0.166862,0.1122102 0,0.059784 -0.06548,0.1038293 -0.166862,0.1122366 l -0.101291,0.00841 V 6.8682144 Z m -2.5195343,1.0007325 -5.949e-4,0.9145997 -5.763e-4,0.9145997 0.2369118,-0.00594 c 0.1981488,-0.00495 0.3535463,2.965e-4 0.5930513,0.020036 0.0189,0.00158 0.1033664,-0.010084 0.1877075,-0.025873 C 9.601067,9.5103721 9.7706614,9.3503685 9.8905869,9.0135696 9.9344912,8.890252 9.921892,8.5606412 9.8649475,8.3430577 9.8205462,8.1734372 9.6637536,7.9762368 9.504296,7.8894497 9.2971652,7.7767152 9.2473285,7.7680359 8.748598,7.7577829 Z m 1.8221543,0.00264 0.0073,0.9473588 c 0.004,0.5210448 0.01276,0.9563254 0.01953,0.9672876 0.0083,0.013466 0.01933,0.014119 0.03391,0.00205 0.02048,-0.016998 0.244022,0.00337 0.279832,0.02553 0.03289,0.020326 0.214858,0.048267 0.356847,0.054785 0.08732,0.00403 0.193765,0.021726 0.250267,0.041663 0.05408,0.019085 0.128694,0.035264 0.165814,0.035958 l 0.06751,0.00125 -0.005,-0.2815606 -0.005,-0.2815601 -0.09833,-0.011887 c -0.327231,-0.03955 -0.421119,-0.055676 -0.433025,-0.074397 -0.02113,-0.033217 -0.01604,-0.1337437 0.0075,-0.1482957 0.02902,-0.017935 0.17538,-0.00903 0.327177,0.019904 0.06883,0.013115 0.131431,0.017856 0.139104,0.010553 0.0076,-0.0073 0.0076,-0.1332965 0,-0.2799888 l -0.01396,-0.2667122 -0.214522,-0.013723 c -0.117987,-0.00754 -0.225047,-0.017526 -0.237907,-0.022182 -0.01555,-0.00562 -0.02154,-0.033989 -0.01788,-0.08461 l 0.0055,-0.076151 h 0.250267 0.250267 l 0.0049,-0.277109 0.005,-0.2771084 -0.572599,-0.00555 z m -6.274588,0.00212 v 3.4651383 c 0,-0.512915 0.00505,-0.927574 0.011102,-0.921459 0.00611,0.0062 0.052386,-0.01 0.1028096,-0.03577 0.050416,-0.02579 0.1487297,-0.05696 0.2184765,-0.06929 0.069748,-0.01232 0.1570589,-0.03505 0.1940173,-0.05049 l 0.067192,-0.0281 -0.00938,-0.3263922 c -0.01015,-0.3534801 1.286e-4,-0.4373991 0.040852,-0.3335671 0.013113,0.033441 0.033641,0.084939 0.04559,0.1144363 0.011957,0.029499 0.043384,0.1139648 0.06987,0.1877062 0.026478,0.073742 0.064091,0.1691357 0.083561,0.2119822 0.031622,0.069593 0.040559,0.076862 0.083851,0.06819 0.1325848,-0.02656 0.2217811,-0.049713 0.3521586,-0.091444 0.078538,-0.025141 0.1730546,-0.045724 0.2100447,-0.045724 0.077985,0 0.08098,-0.010685 0.02857,-0.1022332 C 5.3138201,9.7588999 5.2563713,9.6520698 5.2074356,9.558663 5.1585007,9.4652563 5.0954747,9.3624016 5.0673631,9.3301047 5.0392492,9.2978065 5.016247,9.2602215 5.016247,9.2465696 c 0,-0.01365 -0.020227,-0.048854 -0.044938,-0.07822 L 4.926371,9.1149516 4.985033,9.0787106 C 5.0721826,9.02485 5.1137968,8.9736029 5.1858056,8.8314547 5.2413498,8.7218067 5.2522975,8.6799351 5.2611207,8.5437929 5.2730451,8.3596752 5.2514835,8.2471651 5.1748351,8.0937727 5.1138212,7.9716708 5.0658093,7.91655 4.9651574,7.8530114 4.8596178,7.7863877 4.7087581,7.751076 4.5425032,7.7540781 c -0.07866,0.00138 -0.2697084,0.00179 -0.4245671,7.924e-4 z m 0,3.4651383 v 0.932565 H 3.854237 C 3.842557,12.150647 3.836379,11.82789 3.836379,11.218225 Z m 3.5973561,-3.4651383 -0.00789,0.916197 c -0.00439,0.5039034 -0.00602,0.9202101 -0.00375,0.9251266 0.00473,0.010156 0.5760219,-0.015638 0.6119326,-0.02763 0.01894,-0.00634 0.022709,-0.1800987 0.019795,-0.9107496 L 8.050238,7.7530841 H 7.7419972 Z m -1.405889,0.00896 -0.042448,0.1340765 C 5.9620621,7.9698592 5.9278191,8.086488 5.9093021,8.1553142 5.8907761,8.2241392 5.8348581,8.4172101 5.7850196,8.5843582 5.7351896,8.751507 5.6830954,8.9325097 5.6692745,8.9865871 5.6249465,9.1600119 5.5683907,9.3674733 5.5303539,9.4960773 5.4719609,9.6935187 5.4308329,9.8600097 5.4385679,9.867746 5.4486859,9.877863 5.6908772,9.830528 5.7275393,9.811257 5.7630843,9.792582 5.9191366,9.769594 6.0104614,9.769594 c 0.070317,0 0.073475,-0.00469 0.1029407,-0.1528787 0.019787,-0.099486 0.021651,-0.1017903 0.1006087,-0.1256437 0.044246,-0.013366 0.1447942,-0.0251 0.2234522,-0.026085 l 0.1430067,-0.00178 0.027805,0.086417 c 0.045126,0.1402841 0.056065,0.1427254 0.3628971,0.081152 0.057571,-0.01155 0.1356592,-0.015776 0.173539,-0.00938 0.087628,0.014806 0.1419071,-0.00231 0.1419071,-0.044779 0,-0.018286 -0.024394,-0.1002217 -0.054201,-0.18205 C 7.2026097,9.3127382 7.1624981,9.1894793 7.1433027,9.1206531 7.1241096,9.0518276 7.0636329,8.8627972 7.0089124,8.7005651 6.9541904,8.5383322 6.9007071,8.3734102 6.8900508,8.3340809 6.8793962,8.294749 6.8364357,8.1499494 6.7945732,8.0122976 L 6.7184768,7.7620308 H 6.3731464 Z m -2.1829564,0.095443 c 0.00114,-2.622e-4 0.00244,0.00212 0.00382,0.00733 0.00448,0.017203 0.00448,0.045354 0,0.062557 -0.00448,0.01721 -0.0082,0.00317 -0.0082,-0.031268 0,-0.023925 0.00179,-0.038044 0.00439,-0.038625 z m 5.0451449,0.4676701 0.060835,7.84e-5 c 0.1770162,2.966e-4 0.3028965,0.094471 0.3366569,0.2518907 0.027145,0.1265436 0.024264,0.1675489 -0.018721,0.2674715 -0.046583,0.1082942 -0.12145,0.1586056 -0.2567608,0.1725711 l -0.098646,0.010163 V 8.8935674 c 0,-0.073574 -0.00529,-0.2315556 -0.01168,-0.3510867 z m 3.2191144,0.048498 0.08631,0.00974 c 0.101143,0.011398 0.141408,0.050848 0.159162,0.1559422 0.01932,0.1143143 -0.0031,0.1785482 -0.07264,0.2075828 -0.07941,0.033184 -0.110271,0.031731 -0.130201,-0.00614 -0.0091,-0.017203 -0.02234,-0.1068453 -0.02954,-0.1992027 z m -7.6739046,0.031949 0.079084,0.00178 c 0.064433,0.00145 0.086964,0.011379 0.1215583,0.053629 0.034259,0.041841 0.040461,0.065166 0.032135,0.1207732 C 4.6525647,8.6849534 4.6128437,8.7480131 4.5493433,8.7701483 4.4539053,8.8034183 4.428957,8.7961273 4.418357,8.7318663 4.413067,8.6999103 4.414687,8.6134492 4.422027,8.5397072 Z m 1.9247021,0.00205 c 0.00789,-0.00106 0.031101,0.089928 0.060835,0.2422281 0.023678,0.1213021 0.052361,0.2431069 0.063741,0.2706928 0.027219,0.066017 0.011233,0.077585 -0.1230258,0.088956 -0.099735,0.00844 -0.1117395,0.00594 -0.1117395,-0.023199 0,-0.017962 0.024134,-0.1478678 0.053632,-0.2886833 0.029497,-0.140815 0.053632,-0.2634473 0.053632,-0.2725255 0,-0.011537 9.8e-4,-0.017216 0.00293,-0.017467 z m -2.5143756,0.064502 c 0.00106,1.31e-5 0.0022,0.00304 0.00342,0.00946 0.00431,0.022123 0.00431,0.058323 0,0.080445 -0.00431,0.022123 -0.00773,0.00403 -0.00773,-0.040223 0,-0.031454 0.00179,-0.049706 0.00431,-0.049673 z m -0.00114,0.2246825 c 0.0013,-1.584e-4 0.00277,0.00257 0.00439,0.00857 0.00456,0.017394 0.00423,0.041524 -6.552e-4,0.053629 -0.00488,0.012104 -0.00861,-0.00212 -0.00824,-0.031606 2.393e-4,-0.019356 0.00204,-0.030285 0.00456,-0.030589 z m -0.00195,0.3495937 c 0.00171,-1.922e-4 0.00375,0.00257 0.00611,0.00836 0.00513,0.012904 0.00456,0.02831 -0.00138,0.034254 -0.00594,0.00594 -0.01015,-0.00462 -0.00938,-0.023463 5.103e-4,-0.012362 0.0022,-0.018873 0.00473,-0.019144 z m 2.1e-4,0.1251206 c 0.00163,3.96e-5 0.00367,0.00284 0.00586,0.00838 0.00513,0.012904 0.00456,0.02831 -0.00138,0.034254 -0.00594,0.00594 -0.01015,-0.00462 -0.00938,-0.023463 5.226e-4,-0.012693 0.00228,-0.01923 0.00488,-0.019171 z m 3.4965378,0.9946724 c -0.075771,-0.0023 -0.1539438,0.0027 -0.1758962,0.01663 -0.037914,0.024 -0.00915,0.07303 0.042839,0.07303 0.0252,0 0.05031,0.01175 0.055829,0.02613 0.00554,0.01438 -0.0217,0.107191 -0.060493,0.206248 l -0.070526,0.180113 -0.050017,-0.13921 c -0.027512,-0.07657 -0.061811,-0.162751 -0.076227,-0.19153 -0.024956,-0.04981 -0.023963,-0.05398 0.020666,-0.08649 0.025778,-0.01878 0.042334,-0.04149 0.03679,-0.05046 -0.013772,-0.02228 -0.3833997,-0.02117 -0.3833997,0.0011 0,0.0096 0.018981,0.02989 0.042187,0.0451 0.023434,0.01535 0.064554,0.08112 0.092491,0.147903 0.027666,0.06614 0.068005,0.16049 0.089638,0.209652 0.021627,0.04917 0.056708,0.136689 0.07796,0.194516 0.021252,0.05783 0.046672,0.12018 0.056504,0.138553 0.020593,0.03847 0.058084,0.04345 0.083274,0.01105 0.00956,-0.01229 0.06361,-0.138992 0.1201452,-0.28156 0.1414729,-0.3568 0.1479838,-0.368991 0.2189206,-0.410846 0.051979,-0.03067 0.058954,-0.0415 0.040828,-0.06334 -0.01238,-0.01492 -0.08575,-0.02439 -0.1615202,-0.02663 z m 2.8076683,0.0046 c -0.1684989,-0.0051 -0.218229,0.01067 -0.1799037,0.05685 0.012863,0.0155 0.038763,0.02818 0.057532,0.02818 0.01877,0 0.03845,0.0113 0.04376,0.02511 0.01165,0.03036 -0.1207619,0.373402 -0.136876,0.354596 -0.00621,-0.0073 -0.029838,-0.06152 -0.052483,-0.120511 -0.022636,-0.05898 -0.053507,-0.134546 -0.068609,-0.167911 -0.026095,-0.05767 -0.025534,-0.06223 0.01155,-0.09226 0.072748,-0.05891 0.048239,-0.07055 -0.1486881,-0.07055 -0.1562872,0 -0.1877075,0.0046 -0.1877075,0.02726 0,0.01499 0.018518,0.03431 0.04117,0.04292 0.024272,0.0092 0.05473,0.04758 0.074184,0.09341 0.06869,0.161795 0.095745,0.223768 0.1414611,0.324035 0.0259,0.05681 0.047088,0.115461 0.047088,0.130332 0,0.03766 0.068698,0.168616 0.088458,0.168616 0.00892,0 0.027703,-0.01145 0.041711,-0.02545 0.014009,-0.01401 0.043575,-0.07235 0.065704,-0.129623 0.02212,-0.05727 0.050908,-0.128254 0.063954,-0.157751 0.01304,-0.0295 0.04602,-0.109951 0.0733,-0.178778 0.06499,-0.163997 0.09133,-0.203744 0.143766,-0.216904 0.03164,-0.008 0.04197,-0.02127 0.03802,-0.04897 -0.0051,-0.03497 -0.01769,-0.03841 -0.157382,-0.04261 z m -1.4278079,0.0056 c -0.077879,-9e-6 -0.1536549,0.0053 -0.1624887,0.01595 -0.023581,0.02842 7.26e-4,0.05877 0.052898,0.0661 0.062064,0.0087 0.056456,0.07472 -0.022237,0.261109 l -0.062304,0.147562 -0.049724,-0.138633 c -0.027349,-0.07624 -0.062634,-0.161329 -0.0784,-0.189096 -0.027829,-0.04901 -0.027227,-0.05154 0.020585,-0.08647 0.027088,-0.01979 0.044719,-0.04335 0.039176,-0.05232 -0.01203,-0.01946 -0.3833257,-0.02227 -0.3835585,-0.0029 -9.36e-5,0.0074 0.022758,0.03353 0.050775,0.05811 0.033071,0.02901 0.080475,0.116815 0.1350975,0.250267 0.046282,0.113072 0.091798,0.219551 0.1011598,0.236625 0.00936,0.01707 0.017199,0.04121 0.01741,0.05363 2.1e-4,0.01242 0.015913,0.05678 0.034878,0.09857 0.034666,0.07636 0.07061,0.09511 0.1028618,0.05363 0.00956,-0.01229 0.047584,-0.09878 0.084478,-0.192185 0.036905,-0.09341 0.078335,-0.195166 0.092073,-0.226148 0.013739,-0.03098 0.024981,-0.07321 0.024981,-0.09385 0,-0.02063 0.00708,-0.03752 0.015709,-0.03752 0.00864,0 0.02612,-0.02513 0.038834,-0.05583 0.014448,-0.03488 0.045451,-0.06515 0.08262,-0.08068 0.060884,-0.02544 0.074347,-0.04885 0.04025,-0.06992 -0.017232,-0.01065 -0.097204,-0.01597 -0.175085,-0.01598 z m -2.2726982,0.0079 c -0.148277,0 -0.1787507,0.0046 -0.1787507,0.02726 0,0.01499 0.018599,0.03433 0.041349,0.04297 0.041129,0.01564 0.041308,0.01729 0.037133,0.307146 -0.00415,0.290638 -0.00431,0.291504 -0.050359,0.325056 -0.025395,0.0185 -0.041479,0.04127 -0.035716,0.05059 0.01387,0.02245 0.3461435,0.01194 0.3517924,-0.01113 0.00236,-0.0098 -0.012763,-0.02541 -0.033722,-0.03461 -0.033226,-0.01459 -0.0392,-0.03526 -0.046566,-0.160892 -0.00464,-0.07928 -0.00439,-0.215257 4.713e-4,-0.302142 0.00814,-0.144369 0.012511,-0.159614 0.05101,-0.177155 0.023165,-0.01056 0.04213,-0.02999 0.04213,-0.04316 0,-0.01841 -0.041316,-0.02393 -0.1787775,-0.02393 z m 4.1027351,0 c -0.153859,0 -0.187707,0.0047 -0.187707,0.02647 0,0.01456 0.01954,0.03137 0.04343,0.03737 0.02387,0.006 0.04666,0.02023 0.05067,0.03163 0.004,0.0114 0.0036,0.147994 -8.75e-4,0.303558 -0.0081,0.277939 -0.0089,0.283129 -0.05067,0.299001 -0.02337,0.0089 -0.04251,0.02842 -0.04251,0.04342 0,0.02261 0.0305,0.02726 0.178777,0.02726 0.139955,0 0.178777,-0.0053 0.178777,-0.02465 0,-0.01355 -0.01628,-0.03566 -0.03619,-0.04916 -0.03356,-0.02275 -0.03627,-0.04398 -0.03711,-0.292688 -4.89e-4,-0.147484 -2.97e-4,-0.278382 4.37e-4,-0.290882 7.27e-4,-0.0125 0.02146,-0.0319 0.04603,-0.0431 0.02458,-0.0112 0.04467,-0.03114 0.04467,-0.04431 0,-0.01849 -0.04277,-0.02393 -0.187707,-0.02393 z m -1.3343777,0.321789 c -0.030848,0 -0.086836,0.06257 -0.086836,0.09705 0,0.01837 0.062137,0.08024 0.099457,0.09904 6.12e-4,3.14e-4 0.023295,-0.02258 0.050384,-0.05086 l 0.049228,-0.0514 -0.043473,-0.0469 c -0.023922,-0.02581 -0.054869,-0.04693 -0.068763,-0.04693 z m -1.4514548,0.0026 c -0.016678,-5.06e-4 -0.033787,0.01172 -0.060102,0.03645 l -0.04156,0.03904 0.048235,0.05034 c 0.026527,0.02768 0.051816,0.05036 0.05622,0.05036 0.00439,0 0.027537,-0.02107 0.051401,-0.04682 l 0.043391,-0.04682 -0.039989,-0.04258 c -0.024655,-0.02625 -0.040934,-0.03947 -0.057613,-0.03996 z m 2.7800675,0.850808 -0.01105,0.09618 c -0.0061,0.05291 -0.0088,0.230961 -0.0061,0.395657 l 0.0051,0.299419 h 0.402674 l -0.14772,-2.61e-4 c -0.10311,-1.92e-4 -0.139597,-0.0056 -0.120878,-0.01786 0.01475,-0.0097 0.04856,-0.01299 0.07513,-0.0074 l 0.04832,0.01013 0.0053,-0.1219 0.0053,-0.1219 0.06725,0.129599 0.06727,0.129598 h 0.558879 l -0.21968,-0.0016 c -0.161976,-0.0011 -0.208697,-0.006 -0.169822,-0.0176 0.0295,-0.0088 0.06772,-0.01163 0.08492,-0.0062 0.05273,0.01662 0.03585,-0.02806 -0.06049,-0.160106 -0.0655,-0.08979 -0.0847,-0.128157 -0.06703,-0.134024 0.01361,-0.0045 0.04771,-0.0328 0.07578,-0.06282 0.0458,-0.04897 0.05024,-0.06432 0.04321,-0.149133 -0.0056,-0.06799 -0.01997,-0.107544 -0.05104,-0.140806 -0.07885,-0.0844 -0.136172,-0.101617 -0.367898,-0.110612 z m -6.6712397,1.05e-4 v 0.395579 c 0,0.250738 -0.00651,0.394364 -0.017728,0.395576 h 0.2769518 l 0.00513,-0.09383 c 0.00945,-0.171786 0.010483,-0.172251 0.08063,-0.03577 l 0.066622,0.129599 h 1.0900245 l -0.00277,-0.06703 c -0.00155,-0.03687 -0.00122,-0.08514 6.61e-4,-0.107261 0.00333,-0.03826 -0.00269,-0.04022 -0.1236021,-0.04022 -0.1215379,0 -0.1268132,-0.0018 -0.1213491,-0.04022 0.00513,-0.03621 0.017052,-0.04074 0.1190188,-0.04556 0.09313,-0.0044 0.1114204,-0.01025 0.1027836,-0.03276 -0.00577,-0.01507 -0.0105,-0.05488 -0.0105,-0.08849 v -0.06112 H 5.2307334 c -0.1024938,0 -0.1072611,-0.0019 -0.1072611,-0.04468 0,-0.04344 0.0035,-0.0447 0.1260365,-0.0447 h 0.1260114 l -0.00537,-0.102783 -0.00537,-0.102809 H 5.1056646 4.8464676 l -0.0048,0.364206 c -0.00333,0.253536 0.0013,0.371673 0.01558,0.388822 0.017224,0.02075 -0.018631,0.0241 -0.2275367,0.02131 -0.1038963,-0.0014 -0.1689441,-0.0043 -0.1712093,-0.0073 -2.44e-5,-4.5e-5 -3.1e-5,-1.4e-4 -2.53e-5,-1.75e-4 2.767e-4,-8.15e-4 0.00577,-0.0017 0.017069,-0.0025 0.051621,-0.0037 0.093854,-0.01122 0.093854,-0.01692 0,-0.01731 -0.075331,-0.135608 -0.1316675,-0.206772 -0.05565,-0.0703 -0.054926,-0.07777 0.010687,-0.110436 0.050238,-0.02502 0.091151,-0.141387 0.078327,-0.22285 -0.010337,-0.06564 -0.06501,-0.134587 -0.1360923,-0.171576 -0.0252,-0.01312 -0.1480174,-0.02896 -0.2815611,-0.03635 z m 2.0539864,0.0046 c -0.138648,0 -0.1406162,6.29e-4 -0.1515435,0.04916 -0.00611,0.02704 -0.017687,0.07732 -0.02577,0.111739 -0.00806,0.03441 -0.033381,0.189262 -0.056252,0.344121 l -0.041585,0.28156 h 0.3038195 l 0.0022,-0.197318 c 0.00123,-0.108532 0.00594,-0.201106 0.010549,-0.205724 0.00464,-0.0046 0.026567,0.05805 0.048764,0.139236 0.022188,0.08119 0.051214,0.173769 0.064497,0.205724 l 0.024141,0.05808 h 0.3360807 l -0.135857,-0.0017 c -0.081273,-10e-4 -0.1184034,-0.0067 -0.092439,-0.01391 0.036905,-0.01032 0.053346,-0.04264 0.1099325,-0.216225 l 0.066541,-0.204126 0.012258,0.124178 c 0.00676,0.06829 0.018387,0.166386 0.0259,0.218006 l 0.013675,0.09385 h 1.0391435 l -0.2084991,-0.0029 c -0.091382,-0.0013 -0.1501158,-0.0045 -0.1513066,-0.0077 -1.31e-5,-6.2e-5 1.95e-5,-1.73e-4 5.2e-5,-2.27e-4 5.063e-4,-7.27e-4 0.00399,-0.0015 0.010687,-0.0022 0.05206,-0.0053 0.071758,-0.01722 0.084453,-0.05062 0.014928,-0.03925 0.02682,-0.04357 0.1203536,-0.04357 0.0989,0 0.1047305,0.0025 0.1240212,0.05363 l 0.020243,0.05363 h 0.2623389 l -0.00212,-0.04916 c -0.00171,-0.04047 -0.046231,-0.174487 -0.108307,-0.326391 -0.032045,-0.07841 -0.098498,-0.26644 -0.1113984,-0.31521 -0.024972,-0.09438 -0.028611,-0.09607 -0.1916868,-0.08875 l -0.1524071,0.0068 -0.053916,0.149396 c -0.029661,0.08216 -0.064946,0.188289 -0.078433,0.235837 -0.013487,0.04755 -0.044922,0.137417 -0.069837,0.1997 -0.024915,0.06228 -0.045304,0.129972 -0.045304,0.150417 0,0.03399 -0.01037,0.03716 -0.1206686,0.03714 l -0.1206687,-2.6e-5 -0.00407,-0.05807 c -0.00407,-0.05836 -0.088071,-0.613058 -0.1041714,-0.688216 -0.00765,-0.03564 -0.019535,-0.04022 -0.1043546,-0.04022 -0.1636477,0 -0.2022503,0.014 -0.2148617,0.07786 -0.00611,0.03093 -0.028513,0.111557 -0.049782,0.179196 -0.044279,0.14084 -0.04401,0.141117 -0.106632,-0.10857 l -0.037239,-0.148484 z m 2.4016422,0.0013 c -0.039102,0.0012 -0.079808,0.0074 -0.1204855,0.01838 -0.1723432,0.04697 -0.2561568,0.227855 -0.1706071,0.368159 0.033682,0.05523 0.070749,0.07264 0.2205448,0.103491 0.057001,0.01173 0.083613,0.05877 0.046534,0.08225 -0.040763,0.02581 -0.1106057,0.01862 -0.1798512,-0.01849 l -0.06497,-0.03481 -0.037547,0.08728 c -0.020658,0.04801 -0.037547,0.09555 -0.037547,0.105636 0,0.0101 0.032159,0.02701 0.07149,0.03761 0.039331,0.01059 0.071514,0.02299 0.071514,0.02753 0,0.0044 -0.082387,0.0081 -0.184616,0.0082 H 9.7002311 L 9.4254274,12.15028 c -0.2068548,-3.84e-4 -0.2796036,-0.0058 -0.2569186,-0.01896 0.01741,-0.01013 0.047576,-0.01338 0.067037,-0.0073 0.03417,0.01084 0.035407,0.0022 0.035407,-0.249193 v -0.260402 h 0.069186 0.06921 l 0.012152,-0.107514 c 0.00668,-0.05912 0.00749,-0.11501 0.00187,-0.124204 -0.00577,-0.0093 -0.1378015,-0.01664 -0.2958843,-0.01655 l -0.2855414,1.75e-4 v 0.12402 0.124047 h 0.081992 0.082017 l -0.00602,0.2681 -0.00611,0.268128 -0.3217827,-0.0016 c -0.1852485,-8.15e-4 -0.3021558,-0.0075 -0.2755379,-0.01553 0.1656868,-0.05021 0.2649916,-0.24036 0.1850882,-0.354438 -0.033283,-0.04752 -0.1061437,-0.08722 -0.2246829,-0.122423 -0.093419,-0.02774 -0.1073345,-0.04814 -0.052793,-0.07733 0.036433,-0.0195 0.1387205,-0.0067 0.1548425,0.01941 0.017622,0.02852 0.039558,0.01608 0.059346,-0.0336 0.010761,-0.02704 0.027365,-0.06724 0.036896,-0.08932 0.015368,-0.03563 0.00942,-0.04421 -0.052842,-0.07597 -0.048698,-0.02484 -0.1094418,-0.0365 -0.1746141,-0.03452 z m 1.7841831,0.0013 c -0.03989,-0.0012 -0.09371,-3.9e-5 -0.1657622,0.0014 l -0.2551376,0.005 2.271e-4,0.294968 c 1.205e-4,0.162233 0.00529,0.337202 0.011469,0.388821 l 0.011233,0.09383 h 0.4584507 c -0.176178,-2.79e-4 -0.3133702,-0.0041 -0.3087142,-0.0088 0.00481,-0.0048 0.086608,-0.0096 0.1817352,-0.0106 l 0.172964,-0.0018 v -0.09675 -0.09663 h -0.126371 c -0.1208363,0 -0.126131,-0.0017 -0.1206683,-0.04022 0.00516,-0.03623 0.01701,-0.04077 0.1196213,-0.04562 l 0.113939,-0.0053 -0.01095,-0.06615 c -0.006,-0.03637 -0.01102,-0.07617 -0.01113,-0.08846 -1.36e-4,-0.0154 -0.03392,-0.02234 -0.108702,-0.02234 -0.1022989,0 -0.1081684,-0.0023 -0.1027837,-0.04022 0.00516,-0.03608 0.017124,-0.04078 0.1164787,-0.04554 l 0.110745,-0.0053 0.01192,-0.0794 c 0.01538,-0.102563 0.02111,-0.127276 -0.09857,-0.130855 z m 1.66176,0.0064 c -0.122902,0 -0.237551,0.0058 -0.254771,0.01283 -0.02863,0.01175 -0.03091,0.045 -0.02682,0.388849 l 0.0045,0.375936 h 0.816478 l -0.235499,-0.0031 c -0.104217,-0.0014 -0.170588,-0.0045 -0.17223,-0.0075 -9e-6,-2.9e-5 -3e-6,-1.01e-4 0,-1.3e-4 1.4e-5,-4.5e-5 8.8e-5,-1.38e-4 1.31e-4,-1.74e-4 8.75e-4,-7.27e-4 0.0053,-0.0014 0.01364,-0.002 0.07623,-0.0061 0.08374,-0.01102 0.09385,-0.06159 0.02722,-0.136122 0.02415,-0.139864 -0.114148,-0.139864 -0.121562,0 -0.125147,-0.0013 -0.125147,-0.0447 0,-0.04271 0.0047,-0.0447 0.107261,-0.0447 h 0.107261 v -0.08947 -0.08937 h -0.107261 c -0.101936,0 -0.107261,-0.0022 -0.107261,-0.04386 0,-0.04129 0.0065,-0.04414 0.111739,-0.04916 l 0.111713,-0.0053 v -0.09838 -0.0983 z M 4.1729544,11.57828 c 0.011452,-2.62e-4 0.026584,0.0038 0.046322,0.01134 0.037295,0.01431 0.037295,0.107015 0,0.121324 -0.063196,0.02425 -0.079003,0.01213 -0.079003,-0.06065 0,-0.05003 0.00749,-0.07143 0.032681,-0.07201 z m 6.6598226,0.0043 c 0.01258,-6.3e-4 0.02785,0.0038 0.04567,0.0133 0.06844,0.03663 0.03521,0.12588 -0.04687,0.12588 -0.03515,0 -0.04112,-0.0092 -0.04112,-0.06311 0,-0.04894 0.01464,-0.07468 0.04232,-0.07607 z m 1.82383,0.03192 c 0.07752,0 0.127137,0.05843 0.127137,0.149735 0,0.09295 -0.02625,0.126982 -0.111739,0.144866 l -0.05811,0.01215 v -0.153375 c 0,-0.149786 9.63e-4,-0.153377 0.04272,-0.153377 z m -5.3163089,0.02736 c 4.543e-4,-5.6e-5 8.926e-4,4.2e-5 0.00123,2.8e-4 0.00741,0.0046 0.01873,0.04246 0.025225,0.08419 0.00651,0.04174 0.015775,0.08995 0.020633,0.107157 0.007,0.02491 -0.00228,0.0313 -0.04598,0.0313 -0.035521,0 -0.054836,-0.009 -0.054836,-0.02545 0,-0.05204 0.039599,-0.195724 0.05368,-0.197474 z m -2.3083378,0.493071 c 0.019437,3.4e-5 0.038207,10e-4 0.051637,0.0031 0.00651,9.62e-4 0.00991,0.0019 0.010476,0.0028 1.55e-5,2.7e-5 4.31e-5,1.04e-4 5.22e-5,1.31e-4 4e-6,1.2e-5 2.52e-5,6.4e-5 2.67e-5,7.8e-5 0,1.4e-5 -2.52e-5,6.6e-5 -2.67e-5,7.9e-5 -2.5e-6,1.3e-5 -2.12e-5,6.5e-5 -2.53e-5,7.9e-5 -5.7e-6,1.3e-5 -1.95e-5,6.5e-5 -2.69e-5,7.8e-5 -0.00155,0.0024 -0.026958,0.0041 -0.068893,0.004 -0.039403,-6.3e-5 -0.0623,-0.0017 -0.063578,-0.0038 -5.7e-6,-1.2e-5 -2.19e-5,-6.6e-5 -2.52e-5,-7.9e-5 -3.2e-6,-1.3e-5 -2.53e-5,-6.5e-5 -2.68e-5,-7.8e-5 0,-1.3e-5 2.44e-5,-6.5e-5 2.68e-5,-7.9e-5 2.5e-6,-1.3e-5 2.12e-5,-6.5e-5 2.52e-5,-7.8e-5 6.6e-6,-1.3e-5 1.95e-5,-6.5e-5 2.69e-5,-7.9e-5 6.585e-4,-9.63e-4 0.00545,-0.002 0.014717,-0.0032 0.016068,-0.0019 0.036181,-0.0029 0.055626,-0.0029 z m 0.7887453,1.74e-4 c 0.011338,0 0.022693,0.0011 0.031296,0.0033 0.017207,0.0045 0.00309,0.0081 -0.031296,0.0081 -0.034414,0 -0.048495,-0.0037 -0.031296,-0.0081 0.0086,-0.0023 0.01995,-0.0033 0.031296,-0.0033 z m 5.7899494,1.05e-4 c 0.0097,1.21e-4 0.01877,0.0015 0.02482,0.0039 0.0121,0.0049 -0.0021,0.0086 -0.03161,0.0082 -0.0295,-3.67e-4 -0.03942,-0.0043 -0.02202,-0.0089 0.0087,-0.0023 0.01908,-0.0033 0.0288,-0.0032 z"
     class="ColorScheme-Text" />
  <path
     id="path5-7"
     style="fill:currentColor;stroke-width:0.00345917;paint-order:fill markers stroke"
     d="m 3.836379,5.3111678 1.640208,0.00138 c 0.783975,6.531e-4 0.541637,0.012567 0.74292,0.016523 h 0.132897 v 0.00298 c 0.117043,0.00469 0.702452,7.923e-4 0.657106,0.014613 -0.302427,0.092242 -0.44245,0.2289235 -0.547592,0.5345244 -0.04587,0.1333203 -0.04202,0.2591911 0.0132,0.43038 0.07155,0.2218086 0.188192,0.3468485 0.418203,0.4483177 0.127781,0.05637 0.144559,0.059189 0.357529,0.060101 0.194395,8.516e-4 0.237428,-0.00456 0.330739,-0.041402 0.190718,-0.075337 0.420087,-0.2928795 0.420087,-0.3984053 0,-0.015017 0.01611,-0.047745 0.03577,-0.072747 0.04486,-0.057029 0.04791,-0.2086216 0.0077,-0.3820128 C 7.971326,5.6071469 7.794129,5.428223 7.465364,5.33996 7.377494,5.316372 7.671684,5.313439 10.231813,5.312383 l 2.864755,-0.00119 z m 9.260195,0 -0.0012,2.2122587 -0.0012,2.2122591 -0.0359,-0.080445 c -0.01974,-0.044245 -0.04639,-0.1085933 -0.05924,-0.1430061 -0.0564,-0.1511132 -0.193407,-0.4781815 -0.24228,-0.5783611 -0.02935,-0.060154 -0.05335,-0.1182928 -0.05335,-0.1292055 0,-0.010916 -0.01611,-0.034419 -0.03577,-0.052216 -0.04831,-0.043716 -0.04542,-0.054249 0.02236,-0.082096 0.0809,-0.033237 0.201234,-0.1597564 0.230365,-0.2422009 0.03904,-0.1105084 0.03333,-0.5963486 -0.0085,-0.7214982 C 12.845019,7.5066056 12.690778,7.3280502 12.531836,7.266745 12.453926,7.236698 12.392456,7.232941 11.979374,7.232941 h -0.464815 l 0.0054,0.5452349 c 0.003,0.2998839 0.0091,0.7302772 0.01359,0.9564198 0.0045,0.2261419 0.0081,0.4596431 0.008,0.518917 l -1.74e-4,0.1077844 0.120667,0.030793 c 0.06637,0.016932 0.16091,0.035481 0.210071,0.041247 0.04916,0.00575 0.120074,0.02201 0.157591,0.036083 0.03752,0.014079 0.07604,0.020736 0.0856,0.014819 0.0099,-0.00614 0.01608,-0.096727 0.01435,-0.2103568 -0.0017,-0.1097964 -0.0017,-0.2680096 7.8e-5,-0.351584 l 0.0031,-0.1519615 0.02685,0.071516 c 0.01476,0.039331 0.04197,0.1168679 0.06044,0.1723354 0.01847,0.055465 0.04127,0.1158012 0.0507,0.1340758 0.0094,0.018273 0.02525,0.065416 0.03518,0.1047473 0.02362,0.093772 0.05465,0.182122 0.09089,0.2586718 0.02652,0.05602 0.04322,0.066049 0.172388,0.1036471 0.206497,0.060101 0.289796,0.084656 0.415479,0.1225011 l 0.111582,0.0336 1.58e-4,0.9251277 1.22e-4,0.925127 z m 0,6.3105162 -0.218974,-0.0024 c -0.157131,-0.0017 -0.196276,-0.006 -0.138554,-0.01508 0.110007,-0.01737 0.161577,-0.04148 0.2168,-0.101396 0.06988,-0.0758 0.08538,-0.115529 0.09799,-0.251184 0.0097,-0.10462 0.0058,-0.134363 -0.02637,-0.197317 -0.04505,-0.0883 -0.127768,-0.15481 -0.225861,-0.181605 -0.03933,-0.01075 -0.161209,-0.01958 -0.270876,-0.01964 l -0.199411,-7.9e-5 -0.01218,0.183229 c -0.0067,0.10078 -0.0095,0.273764 -0.0062,0.384396 l 0.006,0.201062 z M 6.352404,5.3320125 c -0.02367,-9.276e-4 -0.09689,-0.00225 -0.132897,-0.00298 H 5.782659 c -0.313368,0 -0.570221,0.00601 -0.570767,0.013406 -5.47e-4,0.00738 -0.0028,0.1045816 -0.005,0.2160145 -0.0046,0.2348305 -0.0099,0.2272356 0.1732,0.2459988 l 0.118804,0.012182 v 0.4990678 0.4990411 l 0.278261,-0.0039 0.278259,-0.0039 -0.0056,-0.4872052 c -0.0031,-0.2679661 0.0011,-0.4938935 0.0094,-0.5020788 0.0083,-0.00818 0.0778,-0.01326 0.154528,-0.01126 l 0.139497,0.00363 -4.19e-4,-0.2404998 z m 2.066452,0.00356 c -0.06022,0.0035 -0.07751,0.034809 -0.07751,0.111896 0,0.031883 -0.02424,0.2013158 -0.05387,0.3764874 -0.02962,0.1751717 -0.07356,0.4431662 -0.09762,0.5955661 -0.02407,0.1523999 -0.04891,0.3022792 -0.0552,0.3330434 l -0.01144,0.055934 0.220754,0.00198 c 0.121413,0.00106 0.235303,-0.00264 0.253096,-0.0083 0.04842,-0.015367 0.06613,-0.081623 0.08534,-0.3192164 0.02666,-0.3297152 0.03768,-0.4209526 0.05086,-0.4209526 0.0067,0 0.03005,0.062353 0.05198,0.1385545 0.02193,0.0762 0.07381,0.245046 0.1153,0.3752302 l 0.07545,0.2367021 0.134077,-1.044e-4 c 0.07374,-5.35e-5 0.142608,-0.00601 0.153035,-0.013254 0.01043,-0.00723 0.0376,-0.073454 0.06041,-0.1471963 0.09878,-0.3193538 0.167015,-0.5113068 0.19043,-0.5356766 0.0277,-0.028832 0.02593,-0.03294 0.03477,0.079817 0.05287,0.6735207 0.04923,0.6445599 0.07859,0.6264136 0.0093,-0.00575 0.126181,-0.011418 0.259721,-0.012593 0.21374,-0.00191 0.241878,-0.00561 0.235049,-0.030896 -0.0043,-0.01581 -0.01684,-0.085048 -0.02791,-0.1538732 -0.01109,-0.068826 -0.02795,-0.1693742 -0.0375,-0.2234516 C 10.009718,6.135794 9.987258,5.9922794 9.941939,5.6687143 9.926099,5.5556431 9.907069,5.4349748 9.899679,5.400562 L 9.886249,5.337998 H 9.609883 9.333534 L 9.286474,5.5167753 C 9.220234,5.7684374 9.133815,6.0621053 9.122728,6.0731916 9.112498,6.0834206 9.095308,6.0252876 8.989909,5.6244553 8.909519,5.318762 8.917519,5.3266799 8.707851,5.3460638 c -0.05899,0.00548 -0.155055,0.00304 -0.213474,-0.00528 -0.03056,-0.00436 -0.05542,-0.00634 -0.0755,-0.00515 z m 1.914018,0.00165 c -0.03724,0.00894 -0.03752,0.013993 -0.04134,0.7426308 l -0.0038,0.7335969 0.103907,-0.0066 c 0.05715,-0.00363 0.144151,-0.00178 0.193311,0.00416 0.04917,0.00594 0.210045,0.00791 0.357528,0.00443 0.236182,-0.00562 0.280941,-0.011629 0.375414,-0.050723 0.05899,-0.024413 0.141441,-0.077535 0.183229,-0.1180499 l 0.07599,-0.073663 -2.6e-5,-0.1348096 c -2.6e-5,-0.1005605 -0.0089,-0.1507278 -0.03502,-0.1973958 -0.01924,-0.034412 -0.0403,-0.076647 -0.04677,-0.093854 -0.0065,-0.017203 -0.0227,-0.031295 -0.03606,-0.031295 -0.01336,0 -0.05012,-0.015704 -0.0817,-0.034907 l -0.05743,-0.034934 0.04468,-0.016998 c 0.02458,-0.00934 0.07133,-0.047309 0.103882,-0.084374 0.05706,-0.064981 0.05885,-0.071712 0.05056,-0.1875232 -0.01486,-0.2077567 -0.09755,-0.3226413 -0.281788,-0.3915171 -0.06314,-0.023602 -0.824744,-0.047309 -0.904517,-0.028152 z m 0.475473,0.3672436 h 0.07686 c 0.09238,0 0.119778,0.023404 0.119778,0.1023376 0,0.065509 -0.044,0.094299 -0.144157,0.094299 -0.05168,0 -0.05247,-0.00152 -0.05247,-0.098331 z m -3.560931,0.091185 c 0.04153,8.546e-4 0.08478,0.01161 0.127478,0.033389 0.0983,0.050148 0.144105,0.1328541 0.144105,0.2601921 0,0.1751605 -0.107632,0.2766634 -0.293396,0.2766634 -0.09203,0 -0.103216,-0.00482 -0.169088,-0.073402 C 6.976385,6.2091106 6.955905,6.1366004 6.980995,6.0249483 7.013635,5.8796659 7.12282,5.7931006 7.247419,5.7956563 Z m 3.560931,0.4228114 0.101291,0.00841 c 0.101383,0.00841 0.166862,0.052428 0.166862,0.1122102 0,0.059784 -0.06548,0.1038293 -0.166862,0.1122366 l -0.101291,0.00841 V 6.3390847 Z M 8.288813,7.219195 8.288218,8.1337947 8.287641,9.0483944 8.524553,9.0424544 c 0.198149,-0.00495 0.353547,2.965e-4 0.593052,0.020036 0.0189,0.00158 0.103366,-0.010084 0.187707,-0.025873 C 9.601067,8.9812434 9.770661,8.8212401 9.890587,8.4844412 9.934487,8.3611236 9.921887,8.0315128 9.864947,7.8139293 9.820546,7.6443075 9.663754,7.4471071 9.504296,7.36032 9.297165,7.2475855 9.247328,7.2389062 8.748598,7.2286532 Z m 1.822154,0.00264 0.0073,0.9473588 c 0.004,0.5210448 0.01276,0.9563254 0.01953,0.9672876 0.0083,0.013466 0.01933,0.014119 0.03391,0.00205 0.02048,-0.016998 0.244022,0.00337 0.279832,0.02553 0.03289,0.020326 0.214858,0.048267 0.356847,0.054785 0.08732,0.00403 0.193765,0.021726 0.250267,0.041663 0.05408,0.019085 0.128694,0.035264 0.165814,0.035958 l 0.06751,0.00125 -0.005,-0.2815606 -0.005,-0.28156 -0.09833,-0.011887 c -0.327231,-0.03955 -0.421119,-0.055676 -0.433025,-0.074397 -0.02113,-0.033217 -0.01604,-0.1337436 0.0075,-0.1482956 0.02902,-0.017935 0.17538,-0.00903 0.327177,0.019904 0.06883,0.013115 0.131431,0.017856 0.139104,0.010553 0.0076,-0.0073 0.0076,-0.1332966 0,-0.2799888 l -0.01396,-0.2667122 -0.214522,-0.013723 c -0.117987,-0.00754 -0.225047,-0.017526 -0.237907,-0.022182 -0.01555,-0.00562 -0.02154,-0.033989 -0.01788,-0.08461 l 0.0055,-0.076151 h 0.250267 0.250267 l 0.0049,-0.2771091 0.005,-0.2771083 -0.572599,-0.00555 z m -6.274588,0.00212 v 3.465138 c 0,-0.512915 0.005,-0.9275735 0.0111,-0.9214591 0.0061,0.00619 0.05239,-0.00998 0.10281,-0.035773 0.05042,-0.025787 0.148729,-0.056964 0.218476,-0.06929 0.06975,-0.012323 0.157059,-0.035047 0.194017,-0.050485 l 0.06719,-0.028098 -0.0094,-0.3263918 C 4.410422,8.904116 4.420701,8.820197 4.461422,8.924029 c 0.01311,0.033441 0.03364,0.084939 0.04559,0.1144363 0.01196,0.029499 0.04338,0.1139648 0.06987,0.1877062 0.02648,0.073742 0.06409,0.1691357 0.08356,0.2119822 0.03162,0.069593 0.04056,0.076862 0.08385,0.06819 0.132585,-0.02656 0.221781,-0.049713 0.352159,-0.091444 0.07854,-0.025141 0.173055,-0.045724 0.210045,-0.045724 0.07798,0 0.08098,-0.010685 0.02857,-0.1022331 C 5.313796,9.2297705 5.256346,9.1229401 5.207408,9.0295333 5.158468,8.9361263 5.095447,8.8332719 5.067335,8.800975 5.039225,8.768677 5.016215,8.731092 5.016215,8.71744 c 0,-0.01365 -0.02023,-0.048854 -0.04494,-0.07822 L 4.926335,8.585822 4.984995,8.549581 C 5.072145,8.49572 5.113759,8.4444733 5.185768,8.3023251 5.241308,8.1926771 5.252258,8.1508055 5.261078,8.0146633 5.272998,7.8305456 5.251478,7.7180355 5.174788,7.5646431 5.113821,7.4425411 5.065809,7.3874203 4.965157,7.3238817 4.859618,7.257258 4.708758,7.2219463 4.542503,7.2249484 c -0.07866,0.00138 -0.269708,0.00179 -0.424567,7.924e-4 z m 0,3.465138 v 0.932565 h 0.01786 c -0.01168,-1.41e-4 -0.01786,-0.322898 -0.01786,-0.932563 z m 3.597356,-3.465138 -0.0079,0.916197 c -0.0044,0.5039034 -0.006,0.9202101 -0.0038,0.9251266 0.0047,0.010156 0.576022,-0.015638 0.611933,-0.02763 0.01894,-0.00634 0.02271,-0.1800987 0.01979,-0.9107496 L 8.050158,7.2239544 H 7.741917 Z m -1.405889,0.00896 -0.04245,0.1340765 c -0.02334,0.073738 -0.05758,0.1903668 -0.0761,0.259193 -0.01853,0.068825 -0.07444,0.2618959 -0.124282,0.429044 C 5.735184,8.2223773 5.683089,8.40338 5.669268,8.4574574 5.624938,8.6308822 5.568385,8.8383436 5.530348,8.9669476 5.471958,9.164389 5.430828,9.33088 5.438558,9.3386163 c 0.01012,0.010117 0.252309,-0.037218 0.288971,-0.056489 0.03554,-0.018675 0.191598,-0.041663 0.282922,-0.041663 0.07032,0 0.07347,-0.00469 0.102941,-0.1528787 0.01979,-0.099486 0.02165,-0.1017903 0.100609,-0.1256437 0.04425,-0.013366 0.144794,-0.0251 0.223452,-0.026085 l 0.143007,-0.00178 0.02781,0.086417 c 0.04513,0.1402841 0.05607,0.1427254 0.362897,0.081152 0.05757,-0.01155 0.135659,-0.015776 0.173539,-0.00938 0.08763,0.014806 0.141907,-0.00231 0.141907,-0.044779 0,-0.018286 -0.02439,-0.1002217 -0.0542,-0.18205 C 7.202603,8.7836089 7.162493,8.6603496 7.143303,8.5915234 7.124113,8.5226984 7.063633,8.3336675 7.008912,8.1714354 6.954192,8.0092025 6.900707,7.8442805 6.890051,7.8049512 6.879401,7.7656192 6.836431,7.6208197 6.794571,7.4831679 L 6.718471,7.2329011 H 6.37314 Z M 3.84489,7.328358 c 0.0011,-2.622e-4 0.0024,0.00212 0.0038,0.00733 0.0045,0.017203 0.0045,0.045354 0,0.062557 -0.0045,0.01721 -0.0082,0.00317 -0.0082,-0.031268 0,-0.023925 0.0018,-0.038044 0.0044,-0.038625 z m 5.045145,0.4676701 0.06083,7.84e-5 c 0.177016,2.966e-4 0.302896,0.094471 0.336657,0.2518907 0.02714,0.1265436 0.02426,0.1675489 -0.01872,0.2674715 -0.04658,0.1082942 -0.121451,0.1586056 -0.256761,0.1725711 l -0.09865,0.010163 V 8.3644377 c 0,-0.073574 -0.0053,-0.2315556 -0.01168,-0.3510867 z m 3.219114,0.048498 0.08631,0.00974 c 0.101143,0.011398 0.141408,0.050848 0.159162,0.1559422 0.01932,0.1143143 -0.0031,0.1785482 -0.07264,0.2075828 -0.07941,0.033184 -0.110271,0.031731 -0.130201,-0.00614 -0.0091,-0.017203 -0.02234,-0.1068453 -0.02954,-0.1992027 z m -7.673905,0.031949 0.07908,0.00178 c 0.06443,0.00145 0.08696,0.011379 0.121559,0.053629 0.03426,0.041841 0.04046,0.065166 0.03214,0.1207732 -0.01546,0.1031664 -0.05518,0.1662261 -0.118679,0.1883613 -0.09544,0.03327 -0.120386,0.025979 -0.130986,-0.038282 -0.0053,-0.031956 -0.0037,-0.118417 0.0037,-0.192159 z m 1.924702,0.00205 c 0.0079,-0.00106 0.0311,0.089928 0.06083,0.2422281 0.02368,0.1213021 0.05236,0.2431069 0.06374,0.2706928 0.02722,0.066017 0.01123,0.077585 -0.123026,0.088956 -0.09973,0.00844 -0.11174,0.00594 -0.11174,-0.023199 0,-0.017962 0.02413,-0.1478678 0.05363,-0.2886833 0.0295,-0.140815 0.05363,-0.2634473 0.05363,-0.2725255 0,-0.011537 9.8e-4,-0.017216 0.0029,-0.017467 z m -2.514375,0.064502 c 0.0011,1.31e-5 0.0022,0.00304 0.0034,0.00946 0.0043,0.022123 0.0043,0.058323 0,0.080445 -0.0043,0.022123 -0.0077,0.00403 -0.0077,-0.040223 0,-0.031454 0.0018,-0.049706 0.0043,-0.049673 z m -0.0011,0.2246825 c 0.0013,-1.584e-4 0.0028,0.00257 0.0044,0.00857 0.0046,0.017394 0.0042,0.041524 -6.55e-4,0.053629 -0.0049,0.012104 -0.0086,-0.00212 -0.0082,-0.031606 2.39e-4,-0.019356 0.002,-0.030285 0.0046,-0.030589 z m -0.002,0.3495937 c 0.0017,-1.922e-4 0.0038,0.00257 0.0061,0.00836 0.0051,0.012904 0.0046,0.02831 -0.0014,0.034254 -0.0059,0.00594 -0.01015,-0.00462 -0.0094,-0.023463 5.1e-4,-0.012362 0.0022,-0.018873 0.0047,-0.019144 z m 2.1e-4,0.1251206 c 0.0016,3.96e-5 0.0037,0.00284 0.0059,0.00838 0.0051,0.012904 0.0046,0.02831 -0.0014,0.034254 -0.0059,0.00594 -0.01015,-0.00462 -0.0094,-0.023463 5.23e-4,-0.012693 0.0023,-0.01923 0.0049,-0.019171 z m 3.496548,0.9946725 c -0.07577,-0.00225 -0.153944,0.00271 -0.175897,0.016629 -0.03791,0.024004 -0.0091,0.073034 0.04284,0.073034 0.0252,0 0.05031,0.011753 0.05583,0.026128 0.0055,0.014375 -0.0217,0.1071912 -0.06049,0.206248 l -0.07052,0.1801126 -0.05002,-0.13921 c -0.02751,-0.076572 -0.06181,-0.1627507 -0.07623,-0.1915297 -0.02496,-0.049814 -0.02396,-0.053982 0.02067,-0.086495 0.02578,-0.018781 0.04233,-0.041485 0.03679,-0.050459 -0.01377,-0.022275 -0.383399,-0.021166 -0.383399,0.00112 0,0.00961 0.01898,0.029889 0.04219,0.045097 0.02343,0.015351 0.06455,0.081118 0.09249,0.1479032 0.02767,0.066142 0.068,0.1604895 0.08964,0.2096515 0.02163,0.04917 0.05671,0.136689 0.07796,0.194516 0.02125,0.05783 0.04667,0.12018 0.0565,0.138553 0.02059,0.03847 0.05808,0.04345 0.08327,0.01105 0.0096,-0.01229 0.06361,-0.138992 0.120145,-0.28156 0.141473,-0.3567996 0.147984,-0.368991 0.218921,-0.4108453 0.05198,-0.030668 0.05895,-0.041498 0.04083,-0.063343 -0.01238,-0.014918 -0.08575,-0.024387 -0.161521,-0.026632 z m 2.807668,0.00462 c -0.168499,-0.00508 -0.218229,0.010672 -0.179904,0.056852 0.01286,0.015499 0.03876,0.028178 0.05753,0.028178 0.01877,0 0.03845,0.011297 0.04376,0.02511 0.01165,0.03036 -0.120761,0.3734016 -0.136875,0.3545956 -0.0062,-0.0073 -0.02984,-0.06152 -0.05248,-0.1205111 -0.02264,-0.058984 -0.05351,-0.1345453 -0.06861,-0.1679111 -0.02609,-0.057668 -0.02553,-0.062227 0.01155,-0.092256 0.07275,-0.058912 0.04824,-0.070547 -0.148688,-0.070547 -0.156287,0 -0.187708,0.00456 -0.187708,0.02726 0,0.014991 0.01852,0.034313 0.04117,0.042917 0.02427,0.00922 0.05473,0.047584 0.07418,0.093408 0.06869,0.1617956 0.09574,0.2237682 0.141462,0.3240352 0.0259,0.05681 0.04709,0.115461 0.04709,0.130332 0,0.03766 0.0687,0.168616 0.08846,0.168616 0.0089,0 0.0277,-0.01145 0.04171,-0.02545 0.01401,-0.01401 0.04357,-0.07235 0.0657,-0.129623 0.02212,-0.05727 0.05091,-0.128254 0.06395,-0.157751 0.01304,-0.0295 0.04602,-0.109951 0.0733,-0.1787775 0.06499,-0.1639977 0.09133,-0.2037438 0.143766,-0.2169038 0.03164,-0.00798 0.04197,-0.021272 0.03802,-0.048967 -0.0051,-0.034973 -0.01769,-0.038414 -0.157382,-0.042608 z m -1.427808,0.00562 c -0.07788,-9.2e-6 -0.153655,0.00528 -0.162489,0.015948 -0.02358,0.028416 7.26e-4,0.058773 0.0529,0.066095 0.06206,0.00871 0.05646,0.074721 -0.02224,0.2611091 L 8.52496,10.13805 8.47524,9.9994174 C 8.44789,9.9231784 8.41261,9.8380882 8.39684,9.8103216 8.36901,9.7613136 8.36961,9.7587816 8.41743,9.7238526 8.44452,9.7040606 8.46215,9.6805056 8.45661,9.6715306 8.44458,9.6520696 8.073284,9.6492556 8.073051,9.6686306 c -9.4e-5,0.00738 0.02276,0.033528 0.05078,0.058106 0.03307,0.029009 0.08047,0.1168147 0.135098,0.2502671 0.04628,0.1130713 0.0918,0.2195503 0.101159,0.2366243 0.0094,0.01707 0.0172,0.04121 0.01741,0.05363 2.1e-4,0.01242 0.01591,0.05678 0.03488,0.09857 0.03467,0.07636 0.07061,0.09511 0.102862,0.05363 0.0096,-0.01229 0.04758,-0.09878 0.08448,-0.192185 0.03691,-0.09341 0.07834,-0.195166 0.09207,-0.226148 0.01374,-0.030984 0.02498,-0.073212 0.02498,-0.093853 0,-0.020633 0.0071,-0.03752 0.01571,-0.03752 0.0086,0 0.02612,-0.02513 0.03883,-0.055825 0.01445,-0.034878 0.04545,-0.065149 0.08262,-0.080679 0.06088,-0.025438 0.07435,-0.048848 0.04025,-0.069918 -0.01723,-0.010648 -0.0972,-0.015965 -0.175085,-0.015978 z m -2.272698,0.00787 c -0.148277,0 -0.178751,0.00462 -0.178751,0.02726 0,0.014991 0.0186,0.034326 0.04135,0.04297 0.04113,0.015636 0.04131,0.017288 0.03713,0.3071456 -0.0041,0.290638 -0.0043,0.291504 -0.05036,0.325056 -0.0254,0.0185 -0.04148,0.04127 -0.03572,0.05059 0.01387,0.02245 0.346144,0.01194 0.351793,-0.01113 0.0024,-0.0098 -0.01276,-0.02541 -0.03372,-0.03461 -0.03323,-0.01459 -0.0392,-0.03526 -0.04657,-0.160892 -0.0046,-0.07928 -0.0044,-0.2152563 4.71e-4,-0.3021418 0.0081,-0.144369 0.01251,-0.1596143 0.05101,-0.177155 0.02316,-0.01056 0.04213,-0.029987 0.04213,-0.043156 0,-0.018412 -0.04132,-0.023932 -0.178778,-0.023932 z m 4.102735,0 c -0.153859,0 -0.187707,0.00475 -0.187707,0.026475 0,0.014562 0.01954,0.031374 0.04343,0.037371 0.02387,0.00602 0.04666,0.020234 0.05067,0.031631 0.004,0.011403 0.0036,0.1479935 -8.75e-4,0.3035576 -0.0081,0.277939 -0.0089,0.283129 -0.05067,0.299001 -0.02337,0.0089 -0.04251,0.02842 -0.04251,0.04342 0,0.02261 0.0305,0.02726 0.178777,0.02726 0.139955,0 0.178777,-0.0053 0.178777,-0.02465 0,-0.01355 -0.01628,-0.03566 -0.03619,-0.04916 -0.03356,-0.02275 -0.03627,-0.04398 -0.03711,-0.292688 -4.89e-4,-0.1474835 -2.97e-4,-0.2783813 4.37e-4,-0.290882 7.27e-4,-0.012502 0.02146,-0.031899 0.04603,-0.043099 0.02458,-0.011201 0.04467,-0.031138 0.04467,-0.044311 0,-0.018491 -0.04277,-0.023932 -0.187707,-0.023932 z m -1.334378,0.321789 c -0.03085,0 -0.08684,0.062572 -0.08684,0.097049 0,0.01837 0.06214,0.08024 0.09946,0.09904 6.12e-4,3.14e-4 0.0233,-0.02258 0.05038,-0.05086 l 0.04923,-0.0514 -0.04347,-0.0469 c -0.02392,-0.025813 -0.05487,-0.046927 -0.06876,-0.046927 z m -1.451455,0.00263 c -0.01668,-5.057e-4 -0.03379,0.011725 -0.0601,0.036453 l -0.04156,0.03904 0.04823,0.05034 c 0.02653,0.02768 0.05182,0.05036 0.05622,0.05036 0.0044,0 0.02754,-0.02107 0.0514,-0.04682 l 0.04339,-0.04682 -0.03999,-0.04258 c -0.02465,-0.026247 -0.04093,-0.039468 -0.05761,-0.039958 z m 2.780068,0.8508076 -0.01105,0.09618 c -0.0061,0.05291 -0.0088,0.230961 -0.0061,0.395657 l 0.0051,0.299419 h 0.402674 l -0.14772,-2.61e-4 c -0.10311,-1.92e-4 -0.139597,-0.0056 -0.120878,-0.01786 0.01475,-0.0097 0.04856,-0.01299 0.07513,-0.0074 l 0.04832,0.01013 0.0053,-0.1219 0.0053,-0.1219 0.06725,0.129599 0.06727,0.129598 h 0.558879 l -0.21968,-0.0016 c -0.161976,-0.0011 -0.208697,-0.006 -0.169822,-0.0176 0.0295,-0.0088 0.06772,-0.01163 0.08492,-0.0062 0.05273,0.01662 0.03585,-0.02806 -0.06049,-0.160106 -0.0655,-0.08979 -0.0847,-0.128157 -0.06703,-0.134024 0.01361,-0.0045 0.04771,-0.0328 0.07578,-0.06282 0.0458,-0.04897 0.05024,-0.06432 0.04321,-0.149133 -0.0056,-0.06799 -0.01997,-0.107544 -0.05104,-0.140806 -0.07885,-0.0844 -0.136172,-0.101617 -0.367898,-0.110612 z m -6.67124,1.05e-4 v 0.395579 c 0,0.250738 -0.0065,0.394364 -0.01773,0.395576 h 0.276952 l 0.0051,-0.09383 c 0.0094,-0.171786 0.01048,-0.172251 0.08063,-0.03577 l 0.06662,0.129599 h 1.090025 l -0.0028,-0.06703 c -0.0015,-0.03687 -0.0012,-0.08514 6.61e-4,-0.107261 0.0033,-0.03826 -0.0027,-0.04022 -0.123603,-0.04022 -0.121537,0 -0.126813,-0.0018 -0.121349,-0.04022 0.0051,-0.03621 0.01705,-0.04074 0.119019,-0.04556 0.09313,-0.0044 0.111421,-0.01025 0.102784,-0.03276 -0.0058,-0.01507 -0.0105,-0.05488 -0.0105,-0.08849 v -0.06112 H 5.230669 c -0.102493,0 -0.107261,-0.0019 -0.107261,-0.04468 0,-0.04344 0.0035,-0.0447 0.126037,-0.0447 h 0.126011 l -0.0054,-0.102783 -0.0054,-0.102809 H 5.105541 4.846344 l -0.0048,0.364206 c -0.0033,0.253536 0.0013,0.371673 0.01558,0.388822 0.01722,0.02075 -0.01863,0.0241 -0.227537,0.02131 -0.103896,-0.0014 -0.168944,-0.0043 -0.171209,-0.0073 -2.5e-5,-4.5e-5 -3.1e-5,-1.4e-4 -2.6e-5,-1.75e-4 2.77e-4,-8.15e-4 0.0058,-0.0017 0.01707,-0.0025 0.05162,-0.0037 0.09385,-0.01122 0.09385,-0.01692 0,-0.01731 -0.07533,-0.135608 -0.131667,-0.206772 -0.05565,-0.0703 -0.05493,-0.07777 0.01069,-0.110436 0.05024,-0.02502 0.09115,-0.141387 0.07833,-0.22285 -0.01034,-0.06564 -0.06501,-0.134587 -0.136092,-0.171576 -0.0252,-0.01312 -0.148018,-0.02896 -0.281562,-0.03635 z m 2.053987,0.0046 c -0.138648,0 -0.140617,6.29e-4 -0.151544,0.04916 -0.0061,0.02704 -0.01769,0.07732 -0.02577,0.111739 -0.0081,0.03441 -0.03338,0.189262 -0.05625,0.344121 l -0.04159,0.28156 h 0.30382 l 0.0022,-0.197318 c 0.0012,-0.108532 0.0059,-0.201106 0.01055,-0.205724 0.0046,-0.0046 0.02657,0.05805 0.04876,0.139236 0.02219,0.08119 0.05121,0.173769 0.0645,0.205724 l 0.02414,0.05808 h 0.33608 l -0.135857,-0.0017 c -0.08127,-10e-4 -0.118403,-0.0067 -0.09244,-0.01391 0.03691,-0.01032 0.05335,-0.04264 0.109933,-0.216225 l 0.06654,-0.204126 0.01226,0.124178 c 0.0068,0.06829 0.01839,0.166386 0.0259,0.218006 l 0.01368,0.09385 h 1.039143 l -0.208499,-0.0029 c -0.09138,-0.0013 -0.150115,-0.0045 -0.151306,-0.0077 -1.3e-5,-6.2e-5 1.9e-5,-1.73e-4 5.2e-5,-2.27e-4 5.06e-4,-7.27e-4 0.004,-0.0015 0.01069,-0.0022 0.05206,-0.0053 0.07176,-0.01722 0.08445,-0.05062 0.01493,-0.03925 0.02682,-0.04357 0.120353,-0.04357 0.0989,0 0.104731,0.0025 0.124022,0.05363 l 0.02024,0.05363 h 0.262339 l -0.0021,-0.04916 c -0.0017,-0.04047 -0.04623,-0.174487 -0.108307,-0.326391 -0.03205,-0.07841 -0.0985,-0.26644 -0.111398,-0.31521 -0.02497,-0.09438 -0.02861,-0.09607 -0.191687,-0.08875 l -0.152407,0.0068 -0.05392,0.149396 c -0.02966,0.08216 -0.06495,0.188289 -0.07843,0.235837 -0.01349,0.04755 -0.04492,0.137417 -0.06984,0.1997 -0.02492,0.06228 -0.0453,0.129972 -0.0453,0.150417 0,0.03399 -0.01037,0.03716 -0.120669,0.03714 l -0.120668,-2.6e-5 -0.0041,-0.05807 c -0.0041,-0.05836 -0.08807,-0.613058 -0.104172,-0.688216 -0.0076,-0.03564 -0.01954,-0.04022 -0.104354,-0.04022 -0.163648,0 -0.202251,0.014 -0.214862,0.07786 -0.0061,0.03093 -0.02851,0.111557 -0.04978,0.179196 -0.04428,0.14084 -0.04401,0.141117 -0.106632,-0.10857 l -0.03724,-0.148484 z m 2.401642,0.0013 c -0.0391,0.0012 -0.07981,0.0074 -0.120486,0.01838 -0.172343,0.04697 -0.256156,0.227855 -0.170607,0.368159 0.03368,0.05523 0.07075,0.07264 0.220545,0.103491 0.057,0.01173 0.08361,0.05877 0.04653,0.08225 -0.04076,0.02581 -0.110606,0.01862 -0.179851,-0.01849 l -0.06497,-0.03481 -0.03755,0.08728 c -0.02066,0.04801 -0.03755,0.09555 -0.03755,0.105636 0,0.0101 0.03216,0.02701 0.07149,0.03761 0.03933,0.01059 0.07151,0.02299 0.07151,0.02753 0,0.0044 -0.08239,0.0081 -0.184616,0.0082 H 9.700217 L 9.425413,11.62115 c -0.206854,-3.84e-4 -0.279603,-0.0058 -0.256918,-0.01896 0.01741,-0.01013 0.04758,-0.01338 0.06704,-0.0073 0.03417,0.01084 0.03541,0.0022 0.03541,-0.249193 v -0.260402 h 0.06919 0.06921 l 0.01215,-0.107514 c 0.0067,-0.05912 0.0075,-0.11501 0.0019,-0.124204 -0.0058,-0.0093 -0.137802,-0.01664 -0.295885,-0.01655 l -0.285541,1.75e-4 v 0.12402 0.124047 h 0.08199 0.08202 l -0.006,0.2681 -0.0061,0.268128 -0.321783,-0.0016 c -0.185248,-8.15e-4 -0.302155,-0.0075 -0.275537,-0.01553 0.165686,-0.05021 0.264991,-0.24036 0.185088,-0.354438 -0.03328,-0.04752 -0.106144,-0.08722 -0.224683,-0.122423 -0.09342,-0.02774 -0.107335,-0.04814 -0.05279,-0.07733 0.03643,-0.0195 0.13872,-0.0067 0.154842,0.01941 0.01762,0.02852 0.03956,0.01608 0.05935,-0.0336 0.01076,-0.02704 0.02736,-0.06724 0.0369,-0.08932 0.01537,-0.03563 0.0094,-0.04421 -0.05284,-0.07597 -0.0487,-0.02484 -0.109441,-0.0365 -0.174614,-0.03452 z m 1.784183,0.0013 c -0.03989,-0.0012 -0.09371,-3.9e-5 -0.165762,0.0014 l -0.255138,0.005 2.27e-4,0.294968 c 1.21e-4,0.162233 0.0053,0.337202 0.01147,0.388821 l 0.01123,0.09383 h 0.458451 c -0.176178,-2.79e-4 -0.31337,-0.0041 -0.308714,-0.0088 0.0048,-0.0048 0.08661,-0.0096 0.181735,-0.0106 l 0.172964,-0.0018 v -0.09675 -0.09663 h -0.126371 c -0.120836,0 -0.126131,-0.0017 -0.120668,-0.04022 0.0052,-0.03623 0.01701,-0.04077 0.119621,-0.04562 l 0.113939,-0.0053 -0.01095,-0.06615 c -0.006,-0.03637 -0.01102,-0.07617 -0.01113,-0.08846 -1.36e-4,-0.0154 -0.03392,-0.02234 -0.108702,-0.02234 -0.102299,0 -0.108168,-0.0023 -0.102784,-0.04022 0.0052,-0.03608 0.01712,-0.04078 0.116479,-0.04554 l 0.110745,-0.0053 0.01192,-0.0794 c 0.01538,-0.102563 0.02111,-0.127276 -0.09857,-0.130855 z m 1.66176,0.0064 c -0.122902,0 -0.237551,0.0058 -0.254771,0.01283 -0.02863,0.01175 -0.03091,0.045 -0.02682,0.388849 l 0.0045,0.375936 h 0.816478 l -0.235499,-0.0031 c -0.104217,-0.0014 -0.170588,-0.0045 -0.17223,-0.0075 -9e-6,-2.9e-5 -3e-6,-1.01e-4 0,-1.3e-4 1.4e-5,-4.5e-5 8.8e-5,-1.38e-4 1.31e-4,-1.74e-4 8.75e-4,-7.27e-4 0.0053,-0.0014 0.01364,-0.002 0.07623,-0.0061 0.08374,-0.01102 0.09385,-0.06159 0.02722,-0.136122 0.02415,-0.139864 -0.114148,-0.139864 -0.121562,0 -0.125147,-0.0013 -0.125147,-0.0447 0,-0.04271 0.0047,-0.0447 0.107261,-0.0447 h 0.107261 v -0.08947 -0.08937 h -0.107261 c -0.101936,0 -0.107261,-0.0022 -0.107261,-0.04386 0,-0.04129 0.0065,-0.04414 0.111739,-0.04916 l 0.111713,-0.0053 v -0.09838 -0.0983 z M 4.172954,11.04915 c 0.01145,-2.62e-4 0.02658,0.0038 0.04632,0.01134 0.0373,0.01431 0.0373,0.107015 0,0.121324 -0.0632,0.02425 -0.079,0.01213 -0.079,-0.06065 0,-0.05003 0.0075,-0.07143 0.03268,-0.07201 z m 6.659823,0.0043 c 0.01258,-6.3e-4 0.02785,0.0038 0.04567,0.0133 0.06844,0.03663 0.03521,0.12588 -0.04687,0.12588 -0.03515,0 -0.04112,-0.0092 -0.04112,-0.06311 0,-0.04894 0.01464,-0.07468 0.04232,-0.07607 z m 1.82383,0.03192 c 0.07752,0 0.127137,0.05843 0.127137,0.149735 0,0.09295 -0.02625,0.126982 -0.111739,0.144866 l -0.05811,0.01215 v -0.153375 c 0,-0.149786 9.63e-4,-0.153377 0.04272,-0.153377 z m -5.316309,0.02736 c 4.54e-4,-5.6e-5 8.93e-4,4.2e-5 0.0012,2.8e-4 0.0074,0.0046 0.01873,0.04246 0.02522,0.08419 0.0065,0.04174 0.01578,0.08995 0.02063,0.107157 0.007,0.02491 -0.0023,0.0313 -0.04598,0.0313 -0.03552,0 -0.05484,-0.009 -0.05484,-0.02545 0,-0.05204 0.0396,-0.195724 0.05368,-0.197474 z M 5.03196,11.605801 c 0.01944,3.4e-5 0.03821,0.001 0.05164,0.0031 0.0065,9.62e-4 0.0099,0.0019 0.01048,0.0028 1.6e-5,2.7e-5 4.3e-5,1.04e-4 5.2e-5,1.31e-4 5e-6,1.2e-5 2.6e-5,6.4e-5 2.7e-5,7.8e-5 0,1.4e-5 -2.5e-5,6.6e-5 -2.7e-5,7.9e-5 -2e-6,1.3e-5 -2.1e-5,6.5e-5 -2.5e-5,7.9e-5 -5e-6,1.3e-5 -1.9e-5,6.5e-5 -2.7e-5,7.8e-5 -0.0015,0.0024 -0.02696,0.0041 -0.06889,0.004 -0.0394,-6.3e-5 -0.0623,-0.0017 -0.06358,-0.0038 -5e-6,-1.2e-5 -2.2e-5,-6.6e-5 -2.5e-5,-7.9e-5 -3e-6,-1.3e-5 -2.5e-5,-6.5e-5 -2.7e-5,-7.8e-5 0,-1.3e-5 2.5e-5,-6.5e-5 2.7e-5,-7.9e-5 3e-6,-1.3e-5 2.1e-5,-6.5e-5 2.5e-5,-7.8e-5 7e-6,-1.3e-5 2e-5,-6.5e-5 2.7e-5,-7.9e-5 6.59e-4,-9.63e-4 0.0054,-0.002 0.01472,-0.0032 0.01607,-0.0019 0.03618,-0.0029 0.05563,-0.0029 z m 0.788746,1.74e-4 c 0.01134,0 0.02269,0.0011 0.0313,0.0033 0.01721,0.0045 0.0031,0.0081 -0.0313,0.0081 -0.03441,0 -0.04849,-0.0037 -0.0313,-0.0081 0.0086,-0.0023 0.01995,-0.0033 0.0313,-0.0033 z m 5.789949,1.05e-4 c 0.0097,1.21e-4 0.01877,0.0015 0.02482,0.0039 0.0121,0.0049 -0.0021,0.0086 -0.03161,0.0082 -0.0295,-3.67e-4 -0.03942,-0.0043 -0.02202,-0.0089 0.0087,-0.0023 0.01908,-0.0033 0.0288,-0.0032 z"
     class="ColorScheme-Text" />
  <ellipse
     style="fill:none;stroke:#000000;stroke-width:0.582072;stroke-dasharray:none;stroke-opacity:1;filter:url(#filter3-8)"
     id="path1-5-7"
     cx="8.4450111"
     cy="8.423522"
     rx="6.8752708"
     ry="6.8578653"
     transform="matrix(0.4782969,0,0,0.4782969,8.9000071,8.8280171)" />
  <ellipse
     style="fill:currentColor;fill-opacity:1;stroke:currentColor;stroke-width:0.278402;stroke-dasharray:none;stroke-opacity:1"
     id="path1-59"
     cx="12.939234"
     cy="12.856965"
     rx="3.2884204"
     ry="3.2800953"
     class="ColorScheme-Text" />
  <ellipse
     style="fill:currentColor;stroke:none;stroke-width:0.246622;stroke-dasharray:none;stroke-opacity:1"
     id="path1-2-2"
     cx="12.939234"
     cy="12.856965"
     rx="2.9130225"
     ry="2.9056478"
     class="ColorScheme-Highlight" />
  <path
     id="path1-36-3"
     style="fill:#000000;fill-opacity:1;stroke:none;stroke-width:0.124104;stroke-dasharray:none;stroke-dashoffset:2.2;stroke-opacity:0.3;opacity:0.3"
     d="m 14.021099,11.736685 c -0.06523,-2.7e-5 -0.135047,0.02623 -0.222431,0.07744 -0.207942,0.121835 -0.479893,0.179294 -0.853351,0.179294 -0.373425,0 -0.654446,-0.05868 -0.861152,-0.179813 -0.165749,-0.09713 -0.264703,-0.09842 -0.403809,-0.0046 -0.357127,0.240662 -0.62628,1.012267 -0.705238,2.020557 -0.04735,0.604628 -0.0031,0.923391 0.153311,1.102784 0.07546,0.08649 0.260665,0.07183 0.427716,-0.0343 0.141607,-0.08996 0.310333,-0.288477 0.511911,-0.602326 0.182153,-0.283608 0.40248,-0.377017 0.889733,-0.377816 0.486283,-7.65e-4 0.677387,0.09125 0.901686,0.436021 0.376321,0.578447 0.72416,0.779828 0.928191,0.537359 0.113031,-0.134326 0.133719,-0.264107 0.128366,-0.804479 -0.0098,-0.981615 -0.266353,-1.87461 -0.636118,-2.215438 -0.09848,-0.09078 -0.174941,-0.134569 -0.258815,-0.134604 z m -2.112591,0.578416 h 0.225551 0.22555 v 0.193324 0.193326 h 0.19333 0.193331 v 0.241656 0.241656 h -0.193331 -0.19333 v 0.209435 0.209435 h -0.204243 c -0.112206,0 -0.213221,-0.01005 -0.225032,-0.02182 -0.0118,-0.01181 -0.02182,-0.105569 -0.02182,-0.208914 v -0.188138 h -0.193337 -0.193331 v -0.241656 -0.241656 h 0.193331 0.193332 v -0.193326 z m 1.83871,0 c 0.203478,0 0.290618,0.225442 0.14396,0.372098 -0.09327,0.09326 -0.178394,0.100588 -0.270247,0.02287 -0.159321,-0.134809 -0.07616,-0.394964 0.126287,-0.394964 z m -0.391336,0.413154 c 0.05081,3.5e-5 0.101967,0.02029 0.142399,0.06495 0.06302,0.06964 0.06984,0.229093 0.013,0.303499 -0.111241,0.145623 -0.378344,0.05196 -0.378344,-0.13252 0,-0.140009 0.111172,-0.236016 0.22295,-0.23594 z m 0.798786,0.0078 c 0.05856,0.0011 0.115418,0.02047 0.148634,0.05716 0.06302,0.06964 0.06983,0.229092 0.013,0.303499 -0.118321,0.154886 -0.378346,0.05122 -0.378346,-0.150713 0,-0.06121 0.02453,-0.127549 0.05873,-0.158506 0.03909,-0.03538 0.09943,-0.05251 0.15799,-0.05145 z m -0.393417,0.416788 c 0.180393,0 0.268168,0.19134 0.159029,0.347153 -0.0373,0.05326 -0.08282,0.07171 -0.176699,0.07171 -0.108097,0 -0.133181,-0.01407 -0.176699,-0.09823 -0.08582,-0.165932 0.0078,-0.320649 0.194369,-0.320649 z" />
  <path
     id="path1-36"
     style="fill:currentColor;fill-opacity:1;stroke:none;stroke-width:0.124104;stroke-dasharray:none;stroke-dashoffset:2.2;stroke-opacity:0.3"
     d="m 14.021099,11.207529 c -0.06523,-2.7e-5 -0.135047,0.02623 -0.222431,0.07744 -0.207942,0.121835 -0.479893,0.179294 -0.853351,0.179294 -0.373425,0 -0.654446,-0.05868 -0.861152,-0.179813 -0.165749,-0.09713 -0.264703,-0.09842 -0.403809,-0.0046 -0.357127,0.240662 -0.62628,1.012267 -0.705238,2.020557 -0.04735,0.604628 -0.0031,0.923391 0.153311,1.102784 0.07546,0.08649 0.260665,0.07183 0.427716,-0.0343 0.141607,-0.08996 0.310333,-0.288477 0.511911,-0.602326 0.182153,-0.283608 0.40248,-0.377017 0.889733,-0.377816 0.486283,-7.65e-4 0.677387,0.09125 0.901686,0.436021 0.376321,0.578447 0.72416,0.779828 0.928191,0.537359 0.113031,-0.134326 0.133719,-0.264107 0.128366,-0.804479 -0.0098,-0.981615 -0.266353,-1.87461 -0.636118,-2.215438 -0.09848,-0.09078 -0.174941,-0.134569 -0.258815,-0.134604 z m -2.112591,0.578416 h 0.225551 0.22555 v 0.193324 0.193326 h 0.19333 0.193331 v 0.241656 0.241656 h -0.193331 -0.19333 v 0.209435 0.209435 h -0.204243 c -0.112206,0 -0.213221,-0.01005 -0.225032,-0.02182 -0.0118,-0.01181 -0.02182,-0.105569 -0.02182,-0.208914 v -0.188138 h -0.193337 -0.193331 v -0.241656 -0.241656 h 0.193331 0.193332 v -0.193326 z m 1.83871,0 c 0.203478,0 0.290618,0.225442 0.14396,0.372098 -0.09327,0.09326 -0.178394,0.100588 -0.270247,0.02287 -0.159321,-0.134809 -0.07616,-0.394964 0.126287,-0.394964 z m -0.391336,0.413154 c 0.05081,3.5e-5 0.101967,0.02029 0.142399,0.06495 0.06302,0.06964 0.06984,0.229093 0.013,0.303499 -0.111241,0.145623 -0.378344,0.05196 -0.378344,-0.13252 0,-0.140009 0.111172,-0.236016 0.22295,-0.23594 z m 0.798786,0.0078 c 0.05856,0.0011 0.115418,0.02047 0.148634,0.05716 0.06302,0.06964 0.06983,0.229092 0.013,0.303499 -0.118321,0.154886 -0.378346,0.05122 -0.378346,-0.150713 0,-0.06121 0.02453,-0.127549 0.05873,-0.158506 0.03909,-0.03538 0.09943,-0.05251 0.15799,-0.05145 z m -0.393417,0.416788 c 0.180393,0 0.268168,0.19134 0.159029,0.347153 -0.0373,0.05326 -0.08282,0.07171 -0.176699,0.07171 -0.108097,0 -0.133181,-0.01407 -0.176699,-0.09823 -0.08582,-0.165932 0.0078,-0.320649 0.194369,-0.320649 z"
     class="ColorScheme-Text" />
  <path
     id="gradient-path1"
     style="opacity:0.3;baseline-shift:baseline;display:inline;overflow:visible;vector-effect:none;enable-background:accumulate;stop-color:#000000;stop-opacity:1;fill:url(#linearGradient5)"
     d="M 8.4453131 1.2753492 C 4.4913166 1.2753492 1.2794833 4.4784283 1.2794833 8.4236094 C 1.2794833 12.36879 4.4913166 15.572386 8.4453131 15.572386 C 9.1638027 15.572386 9.8576697 15.466358 10.51233 15.269568 C 11.133159 15.890536 11.991864 16.275172 12.939524 16.275172 C 14.830708 16.275172 16.367154 14.744327 16.367154 12.85736 C 16.367154 11.897867 15.969699 11.029882 15.330545 10.408462 C 15.513101 9.7781514 15.611143 9.1121932 15.611143 8.4236094 C 15.611143 4.4784283 12.39931 1.2753492 8.4453131 1.2753492 z " />
</svg>
