<?xml version="1.0" encoding="UTF-8" standalone="no"?>
<svg
   width="64"
   height="64"
   version="1.1"
   viewBox="0 0 16.933 16.933"
   id="svg7"
   sodipodi:docname="steam_icon_3017860.svg"
   inkscape:version="1.4.2 (ebf0e940d0, 2025-05-08)"
   xmlns:inkscape="http://www.inkscape.org/namespaces/inkscape"
   xmlns:sodipodi="http://sodipodi.sourceforge.net/DTD/sodipodi-0.dtd"
   xmlns:xlink="http://www.w3.org/1999/xlink"
   xmlns="http://www.w3.org/2000/svg"
   xmlns:svg="http://www.w3.org/2000/svg"
   xmlns:rdf="http://www.w3.org/1999/02/22-rdf-syntax-ns#"
   xmlns:cc="http://creativecommons.org/ns#"
   xmlns:dc="http://purl.org/dc/elements/1.1/">
  <sodipodi:namedview
     id="namedview7"
     pagecolor="#9c4444"
     bordercolor="#000000"
     borderopacity="0.25"
     inkscape:showpageshadow="2"
     inkscape:pageopacity="0.0"
     inkscape:pagecheckerboard="0"
     inkscape:deskcolor="#d1d1d1"
     inkscape:zoom="4.3531261"
     inkscape:cx="36.180895"
     inkscape:cy="25.958357"
     inkscape:window-width="2560"
     inkscape:window-height="1388"
     inkscape:window-x="0"
     inkscape:window-y="0"
     inkscape:window-maximized="1"
     inkscape:current-layer="svg7"
     showgrid="false" />
  <defs
     id="defs2">
    <filter
       style="color-interpolation-filters:sRGB;"
       inkscape:label="Blur"
       id="filter3"
       x="-0.10843471"
       y="-0.10870992"
       width="1.2168694"
       height="1.2174198">
      <feGaussianBlur
         stdDeviation="0.5 0.5"
         result="blur"
         id="feGaussianBlur3" />
    </filter>
    <filter
       style="color-interpolation-filters:sRGB"
       inkscape:label="Blur"
       id="filter3-8"
       x="-0.10843471"
       y="-0.10870992"
       width="1.2168694"
       height="1.2174198">
      <feGaussianBlur
         stdDeviation="0.5 0.5"
         result="blur"
         id="feGaussianBlur3-7" />
    </filter>
    <style
       id="current-color-scheme"
       type="text/css">.ColorScheme-Text {color:#d8dee9} .ColorScheme-Highlight {color:#3b4252}</style>
    <linearGradient
       id="linearGradient4"
       inkscape:collect="always">
      <stop
         style="stop-color:#000000;stop-opacity:1;"
         offset="0"
         id="stop4" />
      <stop
         style="stop-color:#000000;stop-opacity:0;"
         offset="1"
         id="stop5" />
    </linearGradient>
    <linearGradient
       inkscape:collect="always"
       xlink:href="#linearGradient4"
       id="linearGradient5"
       x1="14.157616"
       y1="14.109557"
       x2="3.4890218"
       y2="3.440964"
       gradientUnits="userSpaceOnUse" />
  </defs>
  <metadata
     id="metadata2">
    <rdf:RDF>
      <cc:Work
         rdf:about="">
        <dc:format>image/svg+xml</dc:format>
        <dc:type
           rdf:resource="http://purl.org/dc/dcmitype/StillImage" />
      </cc:Work>
    </rdf:RDF>
  </metadata>
  <ellipse
     style="opacity:1;fill:none;stroke:#000000;stroke-width:0.582072;stroke-dasharray:none;stroke-opacity:1;filter:url(#filter3)"
     id="path1-5"
     cx="8.4450111"
     cy="8.423522"
     rx="6.8752708"
     ry="6.8578653" />
  <ellipse
     style="opacity:1;fill:none;stroke-width:0.58207188;stroke-opacity:1;stroke:currentColor;stroke-dasharray:none;fill-opacity:1"
     id="path1"
     cx="8.4450111"
     cy="8.423522"
     rx="6.8752708"
     ry="6.8578653"
     class="ColorScheme-Text" />
  <ellipse
     style="fill:currentColor;stroke:none;stroke-width:0.285728;stroke-dasharray:none;stroke-opacity:1"
     id="path1-2"
     cx="8.4450111"
     cy="8.423522"
     rx="6.5766377"
     ry="6.5612183"
     class="ColorScheme-Highlight" />
  <path
     id="path5"
     style="opacity:0.3;fill:#000000;fill-opacity:1;stroke-width:0.00049596;paint-order:fill markers stroke"
     d="m 4.5376348,6.037943 0.1631941,0.1223758 0.1631919,0.1223759 v 1.804467 1.8044715 l -0.034651,0.1114628 c -0.019051,0.0613 -0.035737,0.114663 -0.037051,0.118576 -0.00194,0.0057 -0.00171,0.0067 0.00106,0.0051 0.00697,-0.0041 1.8671652,-1.4014893 1.8672749,-1.4028138 6.06e-5,-7.555e-4 -0.012,-0.0104 -0.0268,-0.021394 L 6.6069347,8.6825955 V 7.441632 6.2006651 L 6.4992434,6.1199566 6.391552,6.0392481 6.5135325,6.0385841 c 0.067086,-3.657e-4 0.1762867,-3.657e-4 0.2426603,0 l 0.1206788,6.64e-4 -0.1074171,0.080743 -0.107417,0.080743 -6.389e-4,1.1999966 -6.388e-4,1.1999978 0.5606806,0.4209185 c 0.3083746,0.2315038 0.5618898,0.4218397 0.5633664,0.4229677 0.0016,0.00126 0.1269096,-0.091177 0.3107563,-0.2291473 l 0.308074,-0.2312043 1.94e-5,-1.392096 1.83e-5,-1.3920947 -0.1080913,-0.081051 -0.1080799,-0.08104 z m 4.1385918,0 -0.1080799,0.08104 -0.1080799,0.081051 5.25e-5,1.3920948 5.27e-5,1.3920959 0.2979082,0.2235336 c 0.1638491,0.1229429 0.3025769,0.2269657 0.3082809,0.23116 l 0.0104,0.00766 0.5624791,-0.4223414 0.5624798,-0.4223447 5.39e-4,-1.2005795 5.39e-4,-1.200583 -0.106435,-0.079451 c -0.05855,-0.043703 -0.1070047,-0.08032 -0.1077017,-0.081383 -6.93e-4,-0.00106 0.05936,-0.00194 0.1334537,-0.00194 z m 1.5805624,0 v 1.3225199 1.3225223 l -0.0268,0.019897 c -0.01474,0.010972 -0.02679,0.02048 -0.02677,0.021189 2.1e-5,6.994e-4 0.158849,0.1204639 0.352955,0.2661346 l 0.352924,0.2648558 0.0013,-0.6432772 0.0013,-0.6432726 0.107417,0.5040122 c 0.05907,0.2772077 0.108103,0.5047892 0.108937,0.5057412 8.3e-4,9.818e-4 0.06027,-0.1910878 0.132084,-0.4267562 0.07181,-0.2356683 0.132568,-0.4342533 0.135014,-0.4413013 0.0042,-0.012217 0.0045,0.020743 0.0046,0.7099811 l 7.5e-5,0.7227937 -0.02693,0.019989 -0.02693,0.01999 0.126352,0.09558 c 0.0695,0.05256 0.232466,0.175857 0.36216,0.273977 0.129692,0.098109 0.236119,0.1775225 0.236503,0.1764505 3.79e-4,-0.0011 -0.01547,-0.05394 -0.03525,-0.117494 l -0.03594,-0.1155495 8.6e-5,-1.806607 8.9e-5,-1.8066041 0.162971,-0.1223897 0.16297,-0.1223873 z m 0.770612,6.125e-4 c 0.05546,-3.691e-4 0.146213,-3.691e-4 0.201668,0 l 0.100823,6.675e-4 -0.100183,0.3517482 c -0.0551,0.1934616 -0.100765,0.3517437 -0.101462,0.351738 -7e-4,-6.9e-6 -0.04638,-0.1582947 -0.101486,-0.3517483 L 10.926555,6.039223 Z M 5.5176111,6.747924 h 0.1912832 0.1912833 l 0.026583,0.019772 0.026594,0.019771 -6.389e-4,0.7163491 -6.388e-4,0.7163433 -0.2153004,0.1621062 c -0.1184159,0.089154 -0.2161667,0.1621678 -0.2172238,0.1622455 -0.00106,7.89e-5 -0.00194,-0.404123 -0.00194,-0.8982255 z m 2.1802792,0 0.026091,0.019497 0.026091,0.019497 v 0.8788644 c 0,0.4833767 -3.188e-4,0.8788678 -7.188e-4,0.8788678 -3.989e-4,0 -0.098446,-0.073429 -0.2178684,-0.163169 l -0.2171396,-0.1631687 6.389e-4,-0.7152634 6.388e-4,-0.7152668 0.025634,-0.019817 0.025634,-0.019806 0.1655005,-1.212e-4 z m 1.4679404,0 h 0.1649107 0.1649118 l 0.02674,0.019863 0.02675,0.019863 1.1e-4,0.7153605 1.08e-4,0.7153617 -0.2146576,0.1613884 c -0.1180628,0.088766 -0.2161027,0.1622456 -0.217865,0.1632925 -0.00251,0.00149 -0.0032,-0.1745885 -0.0032,-0.8771101 V 6.7869252 l 0.026091,-0.019497 z m 0.1498856,3.0399192 c -0.00331,4.4e-5 -0.00823,0.0017 -0.010971,0.0039 -0.00434,0.0032 -0.036274,0.0038 -0.2313198,0.0038 H 8.8470779 v 0.0072 c 0,0.0058 0.00171,0.0078 0.0088,0.01028 0.011314,0.0041 0.026057,0.0205 0.029508,0.03293 0.00377,0.01357 0.00377,0.4084288 0,0.4219918 -0.00343,0.01241 -0.018149,0.02881 -0.029508,0.03292 -0.00709,0.0025 -0.0088,0.0046 -0.0088,0.01029 v 0.0072 h 0.2319632 c 0.1275793,0 0.2319598,-6.58e-4 0.2319598,-0.0015 0,-8.29e-4 0.00571,-0.02806 0.012811,-0.06057 0.00697,-0.03251 0.012811,-0.06011 0.012811,-0.06134 0,-0.0013 -0.00206,-0.0023 -0.00457,-0.0023 -0.0032,0 -0.00629,0.0048 -0.010743,0.01601 -0.00446,0.0115 -0.010286,0.02003 -0.020491,0.03022 -0.023474,0.02334 -0.020857,0.02296 -0.1645232,0.02296 H 9.0136834 v -0.07784 -0.07784 l 0.040366,-0.0015 c 0.02912,-0.0011 0.048674,-0.0032 0.070171,-0.0079 0.030891,-0.0066 0.102537,-0.02456 0.1226983,-0.03063 l 0.011531,-0.0034 -0.014103,-0.0041 c -0.021006,-0.0062 -0.092926,-0.02409 -0.1219473,-0.03037 -0.017611,-0.0038 -0.03824,-0.0059 -0.067086,-0.0067 l -0.041646,-0.0013 v -0.08426 -0.08428 h 0.1161542 c 0.1279211,0 0.1345542,6.79e-4 0.151409,0.01547 0.00846,0.0074 0.012457,0.01483 0.015497,0.02874 9.806e-4,0.0047 0.0032,0.007 0.0064,0.007 0.00571,0 0.00594,-0.0016 0.01168,-0.05767 0.00217,-0.02114 0.00457,-0.04277 0.00549,-0.04806 0.00137,-0.0088 9.806e-4,-0.0096 -0.00457,-0.0095 z m -1.7875687,0.0025 -0.00571,0.05575 c -0.0032,0.03066 -0.00571,0.05776 -0.00571,0.06023 1.863e-4,0.0096 0.00789,0.0037 0.015269,-0.01176 0.010057,-0.02104 0.028206,-0.03825 0.046651,-0.04419 0.011428,-0.0037 0.026983,-0.0046 0.09136,-0.0056 l 0.077588,-0.0011 -6.983e-4,0.2097848 -6.994e-4,0.209785 -0.00571,0.01063 c -0.0064,0.01193 -0.016217,0.01991 -0.030709,0.0249 -0.00663,0.0023 -0.00994,0.0051 -0.010514,0.0089 l -8.309e-4,0.0055 h 0.1116562 c 0.1097028,0 0.1116799,-8.8e-5 0.1116799,-0.0051 0,-0.0034 -0.00309,-0.0063 -0.00949,-0.009 -0.014983,-0.0063 -0.02656,-0.01642 -0.03176,-0.02785 -0.00457,-0.01006 -0.0048,-0.02094 -0.0048,-0.2188 l -5.6e-5,-0.2082538 0.066,4.9e-5 c 0.036297,2.7e-5 0.073828,0.0013 0.083383,0.0025 0.03232,0.0047 0.051314,0.01883 0.065154,0.04857 0.0048,0.01017 0.00869,0.01541 0.011646,0.01542 0.00251,1.9e-5 0.00446,-3.8e-4 0.00446,-9.06e-4 0,-0.0023 -0.0104,-0.09904 -0.01168,-0.108663 l -0.00149,-0.01086 H 7.8106056 Z m 0.6063892,0 v 0.0057 c 0,0.0045 0.00274,0.0069 0.011566,0.01051 0.015668,0.0064 0.028491,0.02192 0.031943,0.03857 0.00183,0.0089 0.00251,0.07935 0.00206,0.2156158 -6.583e-4,0.19123 -9.806e-4,0.202903 -0.00549,0.211106 -0.0064,0.01177 -0.016171,0.0205 -0.029234,0.02615 -0.00777,0.0033 -0.010857,0.0063 -0.010857,0.0099 0,0.0053 6.789e-4,0.0053 0.1056914,0.0046 0.096548,-6.19e-4 0.1057599,-0.0011 0.1065256,-0.005 h 1.49e-5 c 5.782e-4,-0.003 -0.00286,-0.0059 -0.011497,-0.0097 -0.00674,-0.003 -0.015634,-0.0086 -0.019691,-0.01237 -0.014126,-0.01325 -0.014423,-0.01563 -0.014423,-0.1132 v -0.08981 h 0.1640398 0.1640399 l -1.83e-5,0.08522 c 0,0.05217 -0.00106,0.08902 -0.00274,0.09502 -0.00366,0.01343 -0.017817,0.02823 -0.033154,0.03482 -0.00926,0.0039 -0.012789,0.007 -0.012789,0.01063 0,0.005 0.00183,0.005 0.1069714,0.0045 0.098206,-6.19e-4 0.1070513,-0.0011 0.107817,-0.005 5.989e-4,-0.0031 -0.00286,-0.0059 -0.012126,-0.0099 -0.017943,-0.0078 -0.029749,-0.02147 -0.03336,-0.03887 -0.00206,-0.0098 -0.00263,-0.07283 -0.00217,-0.21363 7.189e-4,-0.1976448 7.543e-4,-0.1998448 0.00617,-0.2115338 0.00583,-0.01263 0.016811,-0.02241 0.032343,-0.02881 0.00674,-0.0027 0.0096,-0.0056 0.0096,-0.0093 0,-0.0053 -8.309e-4,-0.0053 -0.1076457,-0.0053 -0.1068342,0 -0.1076456,3.9e-5 -0.1076456,0.0053 0,0.0037 0.00297,0.0065 0.0096,0.0093 0.014686,0.0061 0.025726,0.01546 0.032057,0.02731 0.0056,0.0104 0.00571,0.01333 0.00651,0.09725 l 8.297e-4,0.0865 H 8.4652839 8.3010898 l 5.71e-5,-0.08522 c 5.14e-5,-0.07866 4.389e-4,-0.08607 0.00503,-0.09613 0.00606,-0.01343 0.015897,-0.02288 0.030183,-0.02905 0.00766,-0.0033 0.010857,-0.0063 0.010857,-0.0099 0,-0.0051 -0.00113,-0.0053 -0.1063656,-0.0053 z m 1.4205654,0.2189678 c -0.003,0.003 0.02234,0.04448 0.03655,0.05976 0.02617,0.02816 0.05591,0.04301 0.09356,0.04673 0.02811,0.0027 1.7050608,0.0031 1.7033468,3.19e-4 -0.0047,-0.0075 -0.12345,-0.01768 -0.316707,-0.02712 -0.226167,-0.01109 -0.557488,-0.02209 -1.0752227,-0.03585 -0.132513,-0.0035 -0.25708,-0.0077 -0.276816,-0.0091 -0.04319,-0.0032 -0.100479,-0.01444 -0.136932,-0.02677 -0.0147,-0.005 -0.0272,-0.0086 -0.02778,-0.008 z m -2.215959,2.6e-4 c -0.00229,3.8e-5 -0.00994,0.0023 -0.01848,0.0054 -0.041828,0.01519 -0.1048685,0.02713 -0.160097,0.03033 -0.0148,8.3e-4 -0.1537896,0.005 -0.3088569,0.0091 -0.5370109,0.01451 -0.8590724,0.02561 -1.079063,0.03719 -0.157617,0.0083 -0.2596341,0.01764 -0.2664341,0.02439 -0.00331,0.0033 1.6706088,0.0032 1.7021677,-1.43e-4 0.056309,-0.0059 0.097314,-0.03466 0.123337,-0.08641 0.00514,-0.01017 0.00869,-0.01905 0.008,-0.01975 -8.57e-5,-8.6e-5 -2.994e-4,-1.26e-4 -6.182e-4,-1.2e-4 z m -4.1642054,0.470075 v 0.0015 l 0.00937,0.01384 c 0.01248,0.01853 0.03792,0.04307 0.055589,0.05363 0.025029,0.01495 0.041989,0.02025 0.082697,0.02587 0.077783,0.01074 0.127977,0.03185 0.1650239,0.06949 0.015223,0.01546 0.028674,0.0393 0.033166,0.0588 0.00171,0.0073 0.00263,0.07578 0.00274,0.18865 l 6.52e-5,0.177121 -0.030126,0.0015 c -0.030651,0.0015 -0.066651,0.0072 -0.1172616,0.01867 -0.054491,0.01229 -0.1358651,0.03249 -0.1377655,0.03421 -0.00194,0.0017 0.05224,0.01594 0.1236707,0.03233 0.062697,0.01439 0.1086171,0.02169 0.1364181,0.02169 h 0.025051 v 0.205918 c 0,0.195208 -2.594e-4,0.206927 -0.00503,0.225306 -0.0104,0.04055 -0.02976,0.06512 -0.065531,0.08301 -0.011314,0.0057 -0.024251,0.01157 -0.028834,0.01317 -0.00789,0.0027 -0.00834,0.0035 -0.00834,0.01585 v 0.01295 l 0.1249519,-3.8e-5 c 0.1393119,-4.2e-5 0.1438845,-4.79e-4 0.1753404,-0.01701 0.022411,-0.01177 0.042686,-0.03337 0.054457,-0.05801 0.017931,-0.03753 0.016903,-0.0034 0.016903,-0.556792 v -0.498787 l 0.2223518,9.81e-4 c 0.2370169,0.0011 0.2359254,9.82e-4 0.2973666,0.01442 0.1387473,0.03027 0.2381586,0.11248 0.287418,0.237648 0.040206,0.102171 0.052251,0.253554 0.030834,0.387761 -0.016777,0.105132 -0.051383,0.181176 -0.1102629,0.242316 -0.050937,0.05288 -0.111737,0.08651 -0.1920146,0.106194 -0.049188,0.01206 -0.07976,0.01563 -0.1563507,0.0183 -0.1558261,0.0055 -0.2214352,0.02105 -0.2960386,0.0705 -0.019714,0.01307 -0.055108,0.04527 -0.055108,0.05014 0,0.0032 0.3410283,0.003 0.4062488,-2.79e-4 0.2338398,-0.01169 0.407067,-0.07336 0.5325184,-0.189593 0.091337,-0.08463 0.1519324,-0.207843 0.1714146,-0.348587 0.00526,-0.03794 0.00457,-0.139849 -0.00126,-0.180699 -0.029451,-0.207696 -0.1470957,-0.364563 -0.3387323,-0.451689 -0.060983,-0.02773 -0.1455997,-0.05239 -0.2217094,-0.06462 -0.091326,-0.01467 -0.059943,-0.01395 -0.6478234,-0.01487 z m 6.1540095,1.4e-4 v 0.0137 0.0137 l 0.013451,0.003 c 0.01753,0.0039 0.06366,0.02615 0.08007,0.03855 0.0075,0.0057 0.01576,0.01501 0.01983,0.02249 l 0.007,0.01275 -0.2345988,0.431678 c -0.1290297,0.237425 -0.2416056,0.443794 -0.2501655,0.458597 -0.067703,0.11707 -0.1454227,0.195535 -0.2224936,0.224621 -0.02152,0.0081 -0.021794,0.0083 -0.022594,0.01766 -4.388e-4,0.0053 -1.955e-4,0.01109 5.6e-4,0.01301 0.00113,0.003 0.038971,0.0035 0.2449495,0.0035 h 0.2435724 v -0.0141 c 0,-0.0112 -8.298e-4,-0.0141 -0.00411,-0.0141 -0.00709,0 -0.046971,-0.01992 -0.063646,-0.03183 -0.020251,-0.01446 -0.031234,-0.02696 -0.039474,-0.04495 -0.00743,-0.01621 -0.00846,-0.03863 -0.00263,-0.0543 0.00434,-0.01173 0.4463969,-0.837549 0.4483449,-0.837677 7.541e-4,-5.2e-5 0.051,0.09362 0.111588,0.20816 l 0.11016,0.20825 -0.04367,0.0016 c -0.0646,0.0023 -0.146592,0.01786 -0.311386,0.05897 -0.05721,0.01427 -0.07343,0.01917 -0.06897,0.02082 0.0175,0.0065 0.176813,0.04467 0.238958,0.0573 0.08487,0.01725 0.08411,0.01717 0.179618,0.01875 l 0.08957,0.0015 0.06251,0.1179 c 0.04014,0.0757 0.06391,0.123374 0.06642,0.133189 0.01017,0.03956 -0.0099,0.08126 -0.05443,0.11304 -0.01498,0.01074 -0.04655,0.02717 -0.05759,0.03006 -0.0047,0.0013 -0.0053,0.003 -0.0046,0.01378 l 7.55e-4,0.01238 0.2979608,6.59e-4 0.29796,6.58e-4 v -0.01296 c 0,-0.01232 -4e-4,-0.0131 -0.0083,-0.01582 -0.01747,-0.0059 -0.05526,-0.02697 -0.0741,-0.04117 -0.0273,-0.02055 -0.05785,-0.05367 -0.0793,-0.08598 -0.0099,-0.01505 -0.147106,-0.267842 -0.3046978,-0.561766 L 9.7089362,10.480999 9.5189763,10.48034 Z m 1.5825967,0.142086 c -0.04152,-2.4e-4 -0.08234,0.0016 -0.12163,0.0055 -0.261459,0.0263 -0.444161,0.151227 -0.509886,0.348648 -0.04298,0.129129 -0.03002,0.27346 0.0347,0.386339 0.06301,0.109874 0.174571,0.196569 0.315769,0.245374 0.07668,0.0265 0.143328,0.03914 0.247841,0.04701 0.02535,0.0019 0.116042,-0.0011 0.149941,-0.005 0.113783,-0.01308 0.225337,-0.0509 0.330641,-0.11216 l 0.02434,-0.01416 0.0013,-0.129012 c 0.0015,-0.144426 -0.0011,-0.12452 0.02141,-0.167947 0.01074,-0.02077 0.02093,-0.02966 0.04682,-0.04095 l 0.01635,-0.0071 v -0.01183 -0.01183 l -0.209534,-0.0017 c -0.285418,-0.0023 -0.379979,-0.0022 -0.379979,6.19e-4 0,0.0037 0.01859,0.02612 0.03138,0.03785 0.01975,0.01811 0.04261,0.02782 0.07498,0.03183 0.07379,0.0091 0.127892,0.03801 0.148172,0.07907 l 0.0069,0.01397 v 0.08936 0.08937 l -0.01686,0.0077 c -0.0231,0.01051 -0.05701,0.02153 -0.0831,0.02711 -0.03042,0.0065 -0.135301,0.0065 -0.173009,-3e-5 -0.130894,-0.02259 -0.227513,-0.08086 -0.287001,-0.173035 -0.04368,-0.06768 -0.06474,-0.160479 -0.05766,-0.253905 0.0078,-0.102366 0.04221,-0.1813 0.107463,-0.246343 0.05434,-0.05417 0.122192,-0.09003 0.20546,-0.108594 0.08363,-0.01864 0.18443,-0.01472 0.285248,0.01109 0.124816,0.03199 0.208529,0.08802 0.235056,0.157342 l 0.0055,0.01448 h 0.0112 c 0.01086,0 0.0112,-2e-4 0.0112,-0.0083 0,-0.0104 0.0095,-0.214433 0.01158,-0.249901 l 0.0016,-0.02628 h -0.01017 c -0.009,0 -0.01086,0.0011 -0.01594,0.0093 -0.007,0.0112 -0.02456,0.02287 -0.0425,0.02809 -0.01312,0.0039 -0.01347,0.0038 -0.04742,-0.0067 -0.114694,-0.03536 -0.245535,-0.05453 -0.370089,-0.05523 z m 2.229256,0.0013 c -0.126935,-0.0063 -0.233523,0.0038 -0.311939,0.02957 -0.124035,0.04082 -0.192488,0.118901 -0.208722,0.238049 -0.0034,0.02507 -0.0034,0.08433 -8e-5,0.108103 0.01424,0.10016 0.06907,0.168664 0.165001,0.206106 0.06771,0.02643 0.135498,0.03678 0.303679,0.04635 0.127774,0.0072 0.162324,0.01158 0.20656,0.02575 0.05704,0.01827 0.08354,0.05246 0.08006,0.103268 -0.0038,0.05543 -0.05152,0.09981 -0.129987,0.12086 -0.101622,0.02728 -0.263538,0.02829 -0.369086,0.0023 -0.02981,-0.0073 -0.06801,-0.02088 -0.08989,-0.03187 -0.04763,-0.02394 -0.09445,-0.0653 -0.123802,-0.109406 -0.01593,-0.02393 -0.04001,-0.07174 -0.04005,-0.0795 0,-0.0021 -0.0041,-0.0032 -0.0119,-0.0032 h -0.01188 l 0.0016,0.02114 c 8.29e-4,0.01163 0.0039,0.07074 0.0069,0.131361 0.003,0.06062 0.0059,0.11392 0.0065,0.118463 0.0011,0.0073 0.0038,0.0096 0.02241,0.01978 0.08058,0.04392 0.197901,0.07191 0.340046,0.08111 0.0583,0.0038 0.173965,0.0017 0.22427,-0.004 0.135859,-0.01547 0.233143,-0.0551 0.295589,-0.120419 0.05609,-0.05867 0.0805,-0.126809 0.0804,-0.22436 -5.1e-5,-0.04274 -0.005,-0.07681 -0.01591,-0.109017 l -0.0073,-0.02166 0.0056,-0.0011 c 0.04966,-0.01006 0.09262,-0.0197 0.138216,-0.0311 0.03065,-0.0077 0.05689,-0.01392 0.05831,-0.01392 0.0017,0 0.0025,0.133058 0.0025,0.401523 v -0.404778 l -0.05523,-0.0137 c -0.111714,-0.0277 -0.175558,-0.03943 -0.21458,-0.03943 -0.02083,0 -0.02261,-4.61e-4 -0.03941,-0.01029 -0.0097,-0.0057 -0.02949,-0.01495 -0.04403,-0.02065 -0.06679,-0.02615 -0.140044,-0.03811 -0.288811,-0.04717 -0.181929,-0.01108 -0.233827,-0.02216 -0.27184,-0.0581 -0.01895,-0.01791 -0.02509,-0.03308 -0.02528,-0.06243 -1.3e-4,-0.02007 7.54e-4,-0.02506 0.007,-0.03844 0.02245,-0.04816 0.07918,-0.06912 0.205517,-0.07591 0.134461,-0.0072 0.225376,0.0065 0.307572,0.04655 0.07558,0.0368 0.119743,0.09299 0.126457,0.160886 l 0.0017,0.01714 h 0.0089 0.009 l 6.59e-4,-0.156993 6.59e-4,-0.156988 h -0.01006 c -0.0093,0 -0.01063,9.8e-4 -0.01861,0.01323 -0.0048,0.0072 -0.0093,0.01423 -0.01006,0.01546 -8.3e-4,0.0013 -0.01582,-0.0053 -0.03333,-0.01438 -0.06974,-0.03638 -0.140812,-0.05149 -0.273525,-0.05811 z m -0.650539,0.0054 c -0.0061,0 -0.01182,0.0022 -0.01674,0.0063 -0.0041,0.0034 -0.01178,0.0074 -0.01703,0.0089 -0.0064,0.0017 -0.156041,0.0026 -0.453591,0.0026 l -0.444056,2e-5 v 0.01161 c 0,0.0088 0.0011,0.01199 0.0045,0.01312 0.04157,0.01388 0.06448,0.03675 0.07666,0.07651 0.0045,0.01463 0.0047,0.03357 0.0047,0.38703 0,0.289152 -7.19e-4,0.374677 -0.0032,0.385291 -0.0085,0.03597 -0.02678,0.05843 -0.06111,0.07505 -0.02133,0.01029 -0.02154,0.01051 -0.02154,0.02004 0,0.0053 7.54e-4,0.0104 0.0017,0.01131 9.05e-4,9.06e-4 0.208215,0.0015 0.460603,0.0011 l 0.458888,-6.39e-4 0.02629,-0.119188 c 0.01446,-0.06555 0.02633,-0.120629 0.02639,-0.122391 6.2e-5,-0.0021 -0.0035,-0.0032 -0.0097,-0.0032 -0.0094,0 -0.0099,5.19e-4 -0.01307,0.01086 -0.0018,0.0059 -0.0086,0.02128 -0.01509,0.03397 -0.02145,0.04172 -0.05445,0.06867 -0.0996,0.08137 -0.01986,0.0056 -0.02198,0.0057 -0.256432,0.0065 -0.165707,5.8e-4 -0.237948,0 -0.24157,-0.0019 -0.005,-0.0027 -0.0053,-0.005 -0.0053,-0.143309 v -0.140544 l 0.06857,-0.0015 c 0.07263,-0.0015 0.09357,-0.0039 0.169804,-0.01946 0.07064,-0.01444 0.240274,-0.05558 0.244341,-0.05927 0.0021,-0.0019 -0.144432,-0.03907 -0.2123,-0.05381 -0.09794,-0.02126 -0.117158,-0.02369 -0.19672,-0.02497 l -0.07369,-0.0013 v -0.154988 -0.15491 l 0.232601,8.31e-4 c 0.216973,7.54e-4 0.233723,0.0011 0.249264,0.0056 0.04632,0.01317 0.07423,0.04101 0.07866,0.0785 l 0.0015,0.01268 h 0.0112 c 0.0061,0 0.0112,-9.05e-4 0.0112,-0.0019 0,-0.0011 0.0053,-0.04866 0.01152,-0.105726 0.0063,-0.05706 0.01152,-0.107509 0.01153,-0.11208 2e-5,-0.0079 -4.98e-4,-0.0083 -0.0093,-0.0083 z m -7.295597,0.0179 v 0.01221 0.01222 l 0.01672,0.0059 c 0.019714,0.0071 0.049931,0.0264 0.063154,0.04041 0.00514,0.0055 0.013554,0.01759 0.01864,0.02693 l 0.00926,0.01698 -0.1925667,0.354664 c -0.1059085,0.195065 -0.1983473,0.364468 -0.2054182,0.37645 -0.037417,0.06339 -0.077589,0.0988 -0.1226959,0.108115 l -0.015131,0.0031 v 0.0123 0.0123 h 0.1935129 0.1935164 v -0.01262 c 0,-0.01232 -2.227e-4,-0.01269 -0.0096,-0.0157 -0.022228,-0.0071 -0.049394,-0.02361 -0.06288,-0.03817 -0.018491,-0.01997 -0.023851,-0.03897 -0.016743,-0.05937 0.0024,-0.0069 0.3232224,-0.608791 0.3259356,-0.611504 7.543e-4,-7.54e-4 0.1400821,0.264536 0.1400821,0.266817 0,8.31e-4 -0.0072,0.0015 -0.016023,0.0015 -0.019211,1e-6 -0.065874,0.0074 -0.1140799,0.01805 -0.059874,0.01323 -0.1415872,0.03394 -0.1415872,0.03586 0,0.0019 0.08064,0.0223 0.1409723,0.03566 0.064251,0.01423 0.094903,0.01809 0.1437565,0.01809 h 0.045086 l 0.059966,0.114663 c 0.058389,0.111645 0.059989,0.115115 0.060926,0.131785 8.307e-4,0.01497 6.4e-5,0.01879 -0.00629,0.03041 -0.004,0.0073 -0.012937,0.01842 -0.01992,0.0247 -0.012183,0.01097 -0.046469,0.02947 -0.061189,0.03305 -0.00651,0.0016 -0.00697,0.0027 -0.00697,0.01425 v 0.01255 l 0.4555916,-6.6e-4 0.4555916,-6.39e-4 8.298e-4,-0.01097 c 7.555e-4,-0.01051 4.206e-4,-0.01109 -0.00903,-0.01493 -0.032857,-0.01337 -0.049348,-0.02617 -0.060766,-0.04714 -0.016457,-0.03025 -0.015394,-0.0035 -0.016251,-0.406828 -8.297e-4,-0.399716 -0.00149,-0.382962 0.013051,-0.386596 0.00343,-9.06e-4 0.064411,-0.0011 0.1353702,-4e-4 0.1394159,0.0013 0.1506753,0.0023 0.1896307,0.01616 0.050366,0.01799 0.081954,0.05152 0.09312,0.09888 0.00891,0.0379 0.0032,0.09366 -0.012926,0.125465 -0.010743,0.02131 -0.03528,0.044 -0.06048,0.05605 -0.046446,0.02221 -0.075817,0.02565 -0.2186317,0.02565 H 6.4711714 v 0.01223 0.01223 l 0.061897,0.06786 c 0.1541735,0.169033 0.3183825,0.344632 0.3699128,0.395571 0.2238798,0.22131 0.4614213,0.358 0.6613548,0.380568 0.012343,0.0014 -0.8569215,0.0024 -2.1844049,0.0026 l -2.2049169,3.18e-4 H 13.758062 l -3.043041,-2.59e-4 c -2.5465163,-2.19e-4 -3.0389535,-8.31e-4 -3.0179856,-0.0037 0.026594,-0.0037 0.058994,-0.01109 0.073303,-0.01698 l 0.00869,-0.0035 -0.038126,-0.01512 C 7.6267269,11.868698 7.5174653,11.813052 7.4335797,11.757497 7.3162929,11.679817 7.2224873,11.592211 7.022892,11.373939 6.9119664,11.252636 6.855851,11.188571 6.8590248,11.186866 c 0.00171,-9.06e-4 0.0088,-0.0024 0.015794,-0.0034 0.00697,-9.82e-4 0.024011,-0.0046 0.037703,-0.008 0.1210742,-0.03036 0.2025267,-0.100309 0.2280581,-0.195871 0.0048,-0.01815 0.00583,-0.02822 0.00571,-0.06023 -9.14e-5,-0.05232 -0.00823,-0.08328 -0.032926,-0.125563 -0.012777,-0.02185 -0.052617,-0.06279 -0.07584,-0.07792 -0.038286,-0.02495 -0.08872,-0.04504 -0.141753,-0.05647 -0.060697,-0.01307 -0.058514,-0.01302 -0.5254258,-0.01302 h -0.435219 l 0.00457,0.0082 c 0.00914,0.01617 0.035166,0.03949 0.05488,0.04915 0.015257,0.0074 0.025451,0.01029 0.052274,0.01429 0.067943,0.01017 0.1087313,0.02963 0.1348673,0.06432 0.017486,0.02321 0.017966,0.02806 0.017108,0.175187 l -7.543e-4,0.130455 -0.047417,0.0096 c -0.054091,0.01086 -0.1668364,0.03803 -0.1699712,0.04091 -0.00331,0.003 0.1492958,0.03941 0.2091986,0.04989 l 0.00971,0.0017 -8.297e-4,0.161975 c -8.309e-4,0.158887 -9.817e-4,0.162292 -0.00651,0.178732 -0.010286,0.03049 -0.029383,0.0515 -0.058994,0.06479 -0.014811,0.0066 -0.015509,0.0067 -0.029749,0.003 -0.039509,-0.01028 -0.075783,-0.04174 -0.107417,-0.09311 -0.0072,-0.01175 -0.1147645,-0.209558 -0.2389541,-0.439571 L 5.5313425,10.647653 5.3629541,10.646994 Z m 2.1196849,3.4e-5 v 0.01281 c 0,0.0087 0.00106,0.01281 0.0032,0.01281 0.00183,0 0.011314,0.0039 0.021166,0.0086 0.032309,0.01548 0.051074,0.04214 0.057486,0.08168 0.0016,0.0097 0.00263,0.07829 0.00263,0.171775 l 1.94e-5,0.155659 -0.00571,0.0013 c -0.0032,6.59e-4 -0.020766,0.0042 -0.039086,0.0079 -0.043268,0.0087 -0.1608467,0.0372 -0.1636193,0.03974 -0.00251,0.0023 0.1059199,0.02929 0.1668227,0.04156 l 0.041657,0.0083 -4.46e-5,0.157646 c -4.92e-5,0.167863 -7.394e-4,0.178919 -0.012686,0.202344 -0.011086,0.02177 -0.033234,0.04038 -0.05968,0.05017 l -0.012171,0.0046 v 0.01248 0.01248 l 0.205689,-6.58e-4 0.2056901,-6.6e-4 7.543e-4,-0.0116 7.542e-4,-0.01161 -0.013588,-0.0046 c -0.032251,-0.01097 -0.056789,-0.03558 -0.066789,-0.067 -0.00571,-0.01781 -0.00571,-0.01921 -0.00571,-0.188389 v -0.170445 l 0.030857,-7.19e-4 0.030857,-7.19e-4 0.222889,0.22816 0.2228855,0.228163 0.206969,2.6e-5 0.2069689,3.1e-5 v -0.01231 -0.01231 l -0.018571,-0.0058 C 8.5064121,11.58618 8.4564691,11.5587 8.4210726,11.53029 8.4035066,11.51619 7.973113,11.092819 7.973065,11.089593 c -1.83e-5,-9.81e-4 0.057943,-0.06728 0.1288033,-0.147347 0.1125371,-0.127156 0.1327154,-0.148752 0.1595531,-0.170753 0.052137,-0.04274 0.1078856,-0.07755 0.1509667,-0.09428 l 0.01816,-0.007 7.554e-4,-0.01174 7.543e-4,-0.01175 H 8.249923 8.0678043 v 0.01248 0.01248 l 0.011577,0.0013 c 0.032514,0.0037 0.045611,0.03172 0.02952,0.06327 -0.00274,0.0053 -0.072103,0.08361 -0.1542445,0.174057 l -0.1493414,0.164197 h -0.082937 -0.082937 l 9.806e-4,-0.156993 c 0.00106,-0.169667 8.308e-4,-0.167126 0.015394,-0.195435 0.011428,-0.02222 0.035211,-0.04041 0.066606,-0.05088 0.00343,-0.0011 0.00446,-0.0043 0.00446,-0.01311 v -0.01161 H 7.5205476 Z"
     class="ColorScheme-Text" />
  <path
     id="path5-7"
     style="fill:currentColor;stroke-width:0.00049596;paint-order:fill markers stroke"
     d="M 4.5376348,5.5087318 4.7008289,5.6311077 4.8640208,5.7534836 V 7.5579505 9.362422 l -0.034651,0.1114628 c -0.019051,0.061303 -0.035737,0.1146628 -0.037051,0.1185759 -0.00194,0.00571 -0.00171,0.00674 0.00106,0.00514 0.00697,-0.00411 1.8671652,-1.4014891 1.8672749,-1.4028137 6.06e-5,-7.553e-4 -0.012,-0.0104 -0.0268,-0.021394 L 6.6069347,8.1533843 V 6.9124208 5.671454 L 6.4992434,5.5907455 6.391552,5.510037 6.5135325,5.509373 c 0.067086,-3.657e-4 0.1762867,-3.657e-4 0.2426603,0 L 6.8768716,5.510037 6.7694545,5.59078 6.6620375,5.671523 6.6613986,6.8715195 6.6607598,8.0715174 7.2214404,8.4924359 c 0.3083746,0.2315037 0.5618898,0.4218396 0.5633664,0.4229675 0.0016,0.00126 0.1269096,-0.091177 0.3107564,-0.2291471 l 0.308074,-0.2312049 1.93e-5,-1.392096 1.84e-5,-1.3920946 -0.1080913,-0.081051 -0.1080799,-0.08104 z m 4.1385919,0 -0.1080799,0.08104 -0.1080799,0.081051 5.25e-5,1.3920947 5.26e-5,1.3920959 0.2979083,0.2235335 C 8.9219293,8.80149 9.0606571,8.9055127 9.0663611,8.909707 l 0.0104,0.00766 0.5624792,-0.4223414 0.5624797,-0.4223448 5.39e-4,-1.2005795 5.39e-4,-1.2005828 -0.106435,-0.079451 c -0.05855,-0.043703 -0.1070047,-0.08032 -0.1077017,-0.081383 -6.93e-4,-0.00106 0.05936,-0.00194 0.1334537,-0.00194 z m 1.5805623,0 V 6.8312517 8.153774 l -0.0268,0.019897 c -0.01474,0.010971 -0.02679,0.02048 -0.02677,0.021189 2.1e-5,6.995e-4 0.15885,0.1204639 0.352956,0.2661347 l 0.352924,0.2648557 0.0013,-0.6432771 0.0013,-0.6432726 0.107417,0.5040121 c 0.05907,0.2772078 0.108103,0.5047893 0.108937,0.5057413 8.3e-4,9.817e-4 0.06027,-0.1910878 0.132084,-0.4267562 0.07181,-0.2356684 0.132568,-0.4342533 0.135014,-0.4413013 0.0042,-0.012217 0.0045,0.020743 0.0046,0.7099811 l 7.5e-5,0.7227936 -0.02693,0.019989 -0.02693,0.019989 0.126352,0.095577 c 0.0695,0.05256 0.232466,0.175857 0.36216,0.2739769 0.129692,0.098114 0.236119,0.1775233 0.236503,0.1764513 3.79e-4,-0.00106 -0.01547,-0.053943 -0.03525,-0.1174948 l -0.03594,-0.1155496 8.6e-5,-1.8066076 9e-5,-1.806604 0.162971,-0.1223896 0.162969,-0.1223873 z m 0.770613,6.126e-4 c 0.05546,-3.691e-4 0.146214,-3.691e-4 0.201667,0 l 0.100823,6.674e-4 -0.100183,0.3517483 c -0.0551,0.1934615 -0.100765,0.3517437 -0.101462,0.351738 -7e-4,-6.9e-6 -0.04638,-0.1582948 -0.101486,-0.3517483 L 10.926555,5.5100118 Z M 5.5176111,6.2187129 h 0.1912832 0.1912833 l 0.026583,0.019771 0.026594,0.019771 L 5.9527157,6.974604 5.9520769,7.6909474 5.7367765,7.8530535 C 5.6183606,7.9422075 5.5206098,8.0152214 5.5195527,8.0152991 5.5184927,8.015378 5.5176127,7.611176 5.5176127,7.1170736 Z m 2.1802792,0 0.026091,0.019497 0.026091,0.019497 v 0.8788643 c 0,0.4833768 -3.188e-4,0.8788678 -7.188e-4,0.8788678 -3.989e-4,0 -0.098446,-0.073429 -0.2178684,-0.163169 L 7.3143455,7.6891013 7.3149844,6.973838 l 6.388e-4,-0.7152668 0.025634,-0.019817 0.025634,-0.019806 0.1655005,-1.211e-4 z m 1.4679405,0 h 0.1649107 0.1649118 l 0.02674,0.019863 0.02675,0.019863 1.1e-4,0.7153604 1.08e-4,0.7153617 -0.2146576,0.1613884 c -0.1180629,0.088766 -0.2161028,0.1622456 -0.217865,0.1632924 -0.00251,0.00149 -0.0032,-0.1745884 -0.0032,-0.8771101 V 6.257714 l 0.026091,-0.019497 z m 0.1498855,3.0399195 c -0.00331,4.35e-5 -0.00823,0.00171 -0.010971,0.00389 -0.00434,0.0032 -0.036274,0.00377 -0.2313197,0.00377 H 8.8470779 v 0.0072 c 0,0.00583 0.00171,0.00777 0.0088,0.010286 0.011314,0.00411 0.026057,0.020503 0.029508,0.032926 0.00377,0.013566 0.00377,0.408429 0,0.421992 -0.00343,0.01241 -0.018149,0.02881 -0.029508,0.03293 -0.00709,0.0025 -0.0088,0.0046 -0.0088,0.01029 v 0.0072 h 0.2319632 c 0.1275793,0 0.2319598,-6.59e-4 0.2319598,-0.0015 0,-8.3e-4 0.00571,-0.02806 0.012811,-0.06057 0.00697,-0.03252 0.012811,-0.06011 0.012811,-0.06134 0,-0.0013 -0.00206,-0.0023 -0.00457,-0.0023 -0.0032,0 -0.00629,0.0048 -0.010743,0.01601 -0.00446,0.0115 -0.010286,0.02003 -0.020491,0.03022 -0.023474,0.02334 -0.020857,0.02296 -0.1645232,0.02296 H 9.0136835 v -0.07784 -0.07784 l 0.040366,-0.00149 c 0.02912,-0.00106 0.048674,-0.0032 0.070171,-0.00789 0.030891,-0.00663 0.102537,-0.02456 0.1226982,-0.030629 l 0.011531,-0.00343 -0.014103,-0.00411 c -0.021006,-0.00617 -0.092926,-0.024091 -0.1219473,-0.030366 -0.017611,-0.00377 -0.03824,-0.00594 -0.067086,-0.00674 l -0.041646,-0.00126 v -0.084263 -0.084286 h 0.1161542 c 0.127921,0 0.1345541,6.789e-4 0.151409,0.015474 0.00846,0.00743 0.012457,0.014834 0.015497,0.028743 9.806e-4,0.00469 0.0032,0.00697 0.0064,0.00697 0.00571,0 0.00594,-0.0016 0.01168,-0.057669 0.00217,-0.021143 0.00457,-0.042766 0.00549,-0.048057 0.00137,-0.0088 9.807e-4,-0.0096 -0.00457,-0.00949 z m -1.7875687,0.00251 -0.00571,0.055748 c -0.0032,0.030663 -0.00571,0.05776 -0.00571,0.060229 1.863e-4,0.0096 0.00789,0.00366 0.015269,-0.01176 0.010057,-0.02104 0.028206,-0.038251 0.046651,-0.044194 0.011428,-0.00366 0.026983,-0.00457 0.09136,-0.0056 l 0.077588,-0.00113 -6.983e-4,0.2097848 -6.994e-4,0.2097852 -0.00571,0.01063 c -0.0064,0.01193 -0.016217,0.01991 -0.030709,0.0249 -0.00663,0.0023 -0.00994,0.0051 -0.010514,0.0089 l -8.309e-4,0.0055 h 0.1116562 c 0.1097029,0 0.11168,-8.8e-5 0.11168,-0.0051 0,-0.0034 -0.00309,-0.0063 -0.00949,-0.009 -0.014983,-0.0063 -0.02656,-0.01642 -0.03176,-0.02785 -0.00457,-0.01006 -0.0048,-0.02094 -0.0048,-0.2187993 l -5.6e-5,-0.2082536 0.066,4.92e-5 c 0.036297,2.63e-5 0.073828,0.00126 0.083383,0.00251 0.03232,0.00469 0.051314,0.018834 0.065154,0.048571 0.0048,0.010171 0.00869,0.015406 0.011646,0.015417 0.00251,1.82e-5 0.00446,-3.807e-4 0.00446,-9.064e-4 0,-0.00229 -0.0104,-0.09904 -0.01168,-0.1086628 l -0.00149,-0.010857 H 7.8106056 Z m 0.6063893,0 v 0.00571 c 0,0.00446 0.00274,0.00686 0.011566,0.010514 0.015668,0.0064 0.028491,0.02192 0.031943,0.038571 0.00183,0.00891 0.00251,0.079349 0.00206,0.2156157 -6.583e-4,0.1912313 -9.806e-4,0.2029043 -0.00549,0.2111063 -0.0064,0.01177 -0.016171,0.0205 -0.029234,0.02615 -0.00777,0.0033 -0.010857,0.0063 -0.010857,0.0099 0,0.0053 6.789e-4,0.0053 0.1056914,0.0046 0.096548,-6.2e-4 0.1057599,-0.0011 0.1065255,-0.005 h 1.49e-5 c 5.782e-4,-0.003 -0.00286,-0.0059 -0.011497,-0.0097 -0.00674,-0.003 -0.015634,-0.0086 -0.019691,-0.01237 -0.014126,-0.01324 -0.014423,-0.01563 -0.014423,-0.1132 v -0.089805 h 0.1640398 0.1640399 l -1.83e-5,0.085223 c 0,0.05217 -0.00106,0.08902 -0.00274,0.09502 -0.00366,0.01343 -0.017817,0.02823 -0.033154,0.03482 -0.00926,0.0039 -0.012789,0.007 -0.012789,0.01063 0,0.005 0.00183,0.005 0.1069715,0.0045 0.098206,-6.18e-4 0.1070513,-0.0011 0.107817,-0.005 5.989e-4,-0.0031 -0.00286,-0.0059 -0.012126,-0.0099 -0.017943,-0.0078 -0.029749,-0.02148 -0.03336,-0.03887 -0.00206,-0.0098 -0.00263,-0.07283 -0.00217,-0.2136296 7.189e-4,-0.1976456 7.543e-4,-0.1998456 0.00617,-0.2115347 0.00583,-0.012628 0.016811,-0.022411 0.032343,-0.028811 0.00674,-0.00274 0.0096,-0.0056 0.0096,-0.00926 0,-0.00526 -8.309e-4,-0.00526 -0.1076457,-0.00526 -0.1068342,0 -0.1076456,3.89e-5 -0.1076456,0.00526 0,0.00366 0.00297,0.00651 0.0096,0.00926 0.014686,0.00606 0.025726,0.015463 0.032057,0.027314 0.0056,0.0104 0.00571,0.013326 0.00651,0.097246 l 8.297e-4,0.086503 H 8.465284 8.3010898 l 5.71e-5,-0.085223 c 5.14e-5,-0.078663 4.389e-4,-0.086068 0.00503,-0.096126 0.00606,-0.013429 0.015897,-0.02288 0.030183,-0.029051 0.00766,-0.00331 0.010857,-0.00629 0.010857,-0.00994 0,-0.00514 -0.00113,-0.00526 -0.1063656,-0.00526 z m 1.4205654,0.2189678 c -0.003,0.00297 0.02234,0.04448 0.03655,0.05976 0.02617,0.02816 0.05591,0.043006 0.09356,0.046731 0.02811,0.00274 1.7050607,0.00309 1.7033467,3.188e-4 C 11.383859,9.57938 11.265109,9.56924 11.071852,9.5598 10.845685,9.548714 10.514363,9.537709 9.9966293,9.523949 c -0.132513,-0.00354 -0.25708,-0.00766 -0.276816,-0.00914 -0.04319,-0.0032 -0.100479,-0.014434 -0.136932,-0.026766 -0.0147,-0.00503 -0.0272,-0.00857 -0.02778,-0.008 z m -2.215959,2.606e-4 c -0.00229,3.77e-5 -0.00994,0.00229 -0.01848,0.00537 -0.041828,0.015189 -0.1048685,0.027131 -0.160097,0.030331 -0.0148,8.297e-4 -0.1537896,0.00503 -0.308857,0.00914 -0.5370109,0.014514 -0.8590723,0.025611 -1.0790629,0.037189 -0.157617,0.00834 -0.2596341,0.017634 -0.2664341,0.024389 -0.00331,0.00331 1.6706088,0.0032 1.7021677,-1.43e-4 0.056309,-0.00594 0.097314,-0.034663 0.123337,-0.086411 0.00514,-0.010171 0.00869,-0.019051 0.008,-0.019749 -8.57e-5,-8.56e-5 -2.994e-4,-1.257e-4 -6.183e-4,-1.2e-4 z M 3.1749377,9.9504504 v 0.0015 l 0.00937,0.01384 c 0.01248,0.01853 0.03792,0.04307 0.055589,0.05363 0.025029,0.01495 0.041989,0.02025 0.082697,0.02587 0.077783,0.01074 0.127977,0.03185 0.1650239,0.06949 0.015223,0.01546 0.028674,0.0393 0.033166,0.0588 0.00171,0.0073 0.00263,0.07578 0.00274,0.18865 l 6.52e-5,0.177121 -0.030126,0.0015 c -0.030651,0.0015 -0.066651,0.0072 -0.1172616,0.01867 -0.054491,0.01229 -0.1358651,0.03249 -0.1377656,0.03421 -0.00194,0.0017 0.05224,0.01594 0.1236707,0.03233 0.062697,0.01439 0.1086171,0.02169 0.1364182,0.02169 h 0.025051 v 0.205919 c 0,0.195208 -2.594e-4,0.206927 -0.00503,0.225306 -0.0104,0.04055 -0.02976,0.06512 -0.065531,0.08301 -0.011314,0.0057 -0.024251,0.01157 -0.028834,0.01317 -0.00789,0.0027 -0.00834,0.0035 -0.00834,0.01585 v 0.01295 l 0.1249519,-3.7e-5 c 0.1393119,-4.3e-5 0.1438845,-4.79e-4 0.1753403,-0.01701 0.022411,-0.01177 0.042686,-0.03337 0.054457,-0.05801 0.017931,-0.03753 0.016903,-0.0034 0.016903,-0.556792 V 10.07332 l 0.2223518,9.8e-4 c 0.2370169,0.0011 0.2359255,9.82e-4 0.2973666,0.01442 0.1387473,0.03027 0.2381586,0.11248 0.287418,0.237648 0.040206,0.102172 0.052251,0.253554 0.030834,0.387762 -0.016777,0.105131 -0.051383,0.181176 -0.1102628,0.242315 -0.050937,0.05288 -0.111737,0.08652 -0.1920146,0.106195 -0.049188,0.01206 -0.07976,0.01563 -0.1563507,0.0183 -0.1558261,0.0055 -0.2214353,0.02105 -0.2960387,0.0705 -0.019714,0.01308 -0.055108,0.04527 -0.055108,0.05014 0,0.0032 0.3410282,0.003 0.4062488,-2.79e-4 0.2338398,-0.01169 0.407067,-0.07336 0.5325184,-0.189593 0.091337,-0.08463 0.1519324,-0.207844 0.1714146,-0.348587 0.00526,-0.03794 0.00457,-0.139849 -0.00126,-0.1807 -0.029451,-0.207695 -0.1470958,-0.364563 -0.3387323,-0.451689 -0.060983,-0.02772 -0.1455998,-0.05239 -0.2217095,-0.06462 -0.091326,-0.01467 -0.059943,-0.01395 -0.6478234,-0.01487 z m 6.1540095,1.39e-4 v 0.0137 0.0137 l 0.013451,0.003 c 0.01753,0.0039 0.06366,0.02615 0.08007,0.03855 0.0075,0.0057 0.01576,0.01501 0.01983,0.02249 l 0.007,0.01276 -0.2345988,0.431678 c -0.1290296,0.237425 -0.2416055,0.443794 -0.2501654,0.458596 -0.067703,0.117071 -0.1454227,0.195536 -0.2224936,0.224622 -0.02152,0.0081 -0.021794,0.0083 -0.022594,0.01766 -4.388e-4,0.0053 -1.955e-4,0.01109 5.6e-4,0.01301 0.00113,0.003 0.038971,0.0035 0.2449495,0.0035 h 0.2435724 v -0.0141 c 0,-0.0112 -8.298e-4,-0.0141 -0.00411,-0.0141 -0.00709,0 -0.046971,-0.01992 -0.063646,-0.03183 -0.020251,-0.01446 -0.031234,-0.02696 -0.039474,-0.04495 -0.00743,-0.01621 -0.00846,-0.03863 -0.00263,-0.0543 0.00434,-0.01173 0.4463969,-0.837549 0.4483449,-0.837677 7.541e-4,-5.2e-5 0.051,0.09362 0.111588,0.208159 l 0.11016,0.208251 -0.04367,0.0016 c -0.0646,0.0023 -0.146592,0.01786 -0.311386,0.05897 -0.05721,0.01427 -0.07343,0.01917 -0.06897,0.02082 0.0175,0.0065 0.176813,0.04467 0.238958,0.0573 0.08487,0.01724 0.08411,0.01717 0.179618,0.01875 l 0.08957,0.0015 0.06251,0.1179 c 0.04014,0.0757 0.06391,0.123374 0.06642,0.133188 0.01017,0.03957 -0.0099,0.08126 -0.05443,0.11304 -0.01498,0.01074 -0.04655,0.02717 -0.05759,0.03006 -0.0047,0.0013 -0.0053,0.003 -0.0046,0.01378 l 7.55e-4,0.01238 0.2979608,6.6e-4 0.297961,6.58e-4 v -0.01296 c 0,-0.01232 -4e-4,-0.0131 -0.0083,-0.01582 -0.01747,-0.0059 -0.05526,-0.02697 -0.0741,-0.04117 -0.0273,-0.02055 -0.05785,-0.05367 -0.0793,-0.08598 -0.0099,-0.01505 -0.147108,-0.267842 -0.3046997,-0.561765 l -0.286533,-0.5344056 -0.18996,-6.6e-4 z m 1.5825968,0.1420866 c -0.04152,-2.4e-4 -0.08234,0.0016 -0.121629,0.0055 -0.26146,0.0263 -0.44416,0.151227 -0.509886,0.348647 -0.04298,0.129129 -0.03002,0.273461 0.0347,0.386339 0.06301,0.109875 0.174573,0.196569 0.315769,0.245375 0.07669,0.0265 0.143329,0.03914 0.247841,0.04701 0.02535,0.0019 0.116042,-0.0011 0.149941,-0.005 0.113783,-0.01307 0.225337,-0.0509 0.330641,-0.11216 l 0.02434,-0.01416 0.0013,-0.129011 c 0.0015,-0.144426 -0.0011,-0.12452 0.02141,-0.167947 0.01074,-0.02077 0.02093,-0.02966 0.04682,-0.04095 l 0.01635,-0.0071 v -0.01183 -0.01183 l -0.209533,-0.0017 c -0.285418,-0.0023 -0.37998,-0.0022 -0.37998,6.18e-4 0,0.0037 0.01859,0.02613 0.03138,0.03785 0.01975,0.01811 0.04261,0.02782 0.07498,0.03183 0.07379,0.0091 0.127891,0.03801 0.148173,0.07907 l 0.0069,0.01397 v 0.08936 0.08937 l -0.01686,0.0077 c -0.0231,0.01051 -0.05701,0.02153 -0.0831,0.02711 -0.03042,0.0065 -0.135301,0.0065 -0.173009,-3e-5 -0.130895,-0.02259 -0.227514,-0.08086 -0.287,-0.173035 -0.04368,-0.06768 -0.06474,-0.160479 -0.05766,-0.253905 0.0078,-0.102365 0.04221,-0.181299 0.107463,-0.246342 0.05434,-0.05417 0.122192,-0.09003 0.205459,-0.108595 0.08363,-0.01864 0.18443,-0.01472 0.285248,0.01109 0.124817,0.03199 0.208529,0.08802 0.235057,0.157342 l 0.0055,0.01448 h 0.0112 c 0.01086,0 0.0112,-2e-4 0.0112,-0.0083 0,-0.0104 0.0095,-0.214433 0.01158,-0.249902 l 0.0016,-0.02627 h -0.01017 c -0.009,0 -0.01086,0.0011 -0.01594,0.0093 -0.007,0.0112 -0.02456,0.02287 -0.0425,0.02809 -0.01312,0.0039 -0.01347,0.0038 -0.04742,-0.0067 -0.114694,-0.03536 -0.245535,-0.05453 -0.370089,-0.05523 z m 2.229257,0.0013 c -0.126934,-0.0063 -0.233523,0.0038 -0.311939,0.02957 -0.124035,0.04082 -0.192489,0.1189 -0.208722,0.238049 -0.0034,0.02507 -0.0034,0.08433 -8e-5,0.108102 0.01424,0.10016 0.06907,0.168664 0.165001,0.206106 0.06771,0.02643 0.135498,0.03678 0.303679,0.04636 0.127774,0.0072 0.162324,0.01158 0.206561,0.02575 0.05704,0.01828 0.08354,0.05246 0.08006,0.103269 -0.0038,0.05543 -0.05152,0.0998 -0.129986,0.120859 -0.101623,0.02728 -0.263539,0.02829 -0.369087,0.0023 -0.02981,-0.0073 -0.06801,-0.02088 -0.08989,-0.03187 -0.04763,-0.02394 -0.09444,-0.0653 -0.123802,-0.109406 -0.01593,-0.02393 -0.04001,-0.07174 -0.04005,-0.0795 0,-0.0021 -0.0041,-0.0032 -0.0119,-0.0032 h -0.01188 l 0.0016,0.02114 c 8.29e-4,0.01163 0.0039,0.07074 0.0069,0.131361 0.003,0.06062 0.0059,0.11392 0.0065,0.118462 0.0011,0.0073 0.0038,0.0096 0.02241,0.01978 0.08058,0.04392 0.197901,0.07191 0.340046,0.08111 0.0583,0.0038 0.173965,0.0017 0.224271,-0.004 0.135858,-0.01547 0.233142,-0.0551 0.295588,-0.12042 0.05609,-0.05867 0.0805,-0.126809 0.0804,-0.224359 -5e-5,-0.04274 -0.005,-0.07681 -0.01591,-0.109017 l -0.0073,-0.02166 0.0056,-0.0011 c 0.04966,-0.01006 0.09262,-0.0197 0.138216,-0.0311 0.03065,-0.0077 0.05689,-0.01392 0.05831,-0.01392 0.0017,0 0.0025,0.133058 0.0025,0.401523 v -0.404778 l -0.05524,-0.0137 c -0.111714,-0.0277 -0.175558,-0.03943 -0.21458,-0.03943 -0.02083,0 -0.02261,-4.61e-4 -0.03941,-0.01029 -0.0097,-0.0057 -0.02948,-0.01495 -0.04403,-0.02065 -0.06679,-0.02615 -0.140044,-0.03811 -0.288811,-0.04716 -0.181929,-0.01109 -0.233827,-0.02216 -0.27184,-0.0581 -0.01895,-0.01791 -0.02509,-0.03309 -0.02528,-0.06243 -1.3e-4,-0.02007 7.54e-4,-0.02506 0.007,-0.03845 0.02244,-0.04816 0.07918,-0.06912 0.205516,-0.07591 0.134462,-0.0072 0.225376,0.0065 0.307572,0.04655 0.07558,0.0368 0.119743,0.09299 0.126457,0.160887 l 0.0017,0.01714 h 0.0089 0.009 l 6.59e-4,-0.156993 6.59e-4,-0.156989 h -0.01006 c -0.0093,0 -0.01063,9.81e-4 -0.01861,0.01323 -0.0048,0.0072 -0.0093,0.01423 -0.01006,0.01546 -8.3e-4,0.0013 -0.01582,-0.0053 -0.03332,-0.01438 -0.06974,-0.03638 -0.140813,-0.05149 -0.273525,-0.05811 z m -0.650539,0.0054 c -0.0061,0 -0.01182,0.0022 -0.01674,0.0063 -0.0041,0.0034 -0.01178,0.0074 -0.01703,0.0089 -0.0064,0.0017 -0.156041,0.0026 -0.45359,0.0026 l -0.444057,1.9e-5 v 0.01161 c 0,0.0088 0.0011,0.01199 0.0045,0.01312 0.04157,0.01387 0.06448,0.03675 0.07666,0.07651 0.0045,0.01463 0.0047,0.03357 0.0047,0.38703 0,0.289151 -7.18e-4,0.374677 -0.0032,0.385291 -0.0085,0.03597 -0.02678,0.05843 -0.06111,0.07505 -0.02133,0.01029 -0.02154,0.01051 -0.02154,0.02003 0,0.0053 7.54e-4,0.0104 0.0017,0.01131 9.06e-4,9.06e-4 0.208215,0.0015 0.460603,0.0011 l 0.458888,-6.39e-4 0.02629,-0.119189 c 0.01446,-0.06555 0.02633,-0.120628 0.02639,-0.12239 6.2e-5,-0.0021 -0.0035,-0.0032 -0.0097,-0.0032 -0.0094,0 -0.0099,5.18e-4 -0.01307,0.01086 -0.0018,0.0059 -0.0086,0.02128 -0.01509,0.03397 -0.02145,0.04173 -0.05445,0.06867 -0.0996,0.08137 -0.01986,0.0056 -0.02198,0.0057 -0.256432,0.0065 -0.165707,5.79e-4 -0.237948,0 -0.24157,-0.0019 -0.005,-0.0027 -0.0053,-0.005 -0.0053,-0.143308 v -0.140649 l 0.06857,-0.0015 c 0.07263,-0.0015 0.09356,-0.0039 0.169803,-0.01946 0.07064,-0.01443 0.240274,-0.05558 0.244341,-0.05927 0.0021,-0.0019 -0.144432,-0.03907 -0.2123,-0.05381 -0.09794,-0.02126 -0.117158,-0.02369 -0.19672,-0.02497 l -0.07369,-0.0013 v -0.154948 -0.154909 l 0.232601,8.31e-4 c 0.216973,7.54e-4 0.233723,0.0011 0.249265,0.0056 0.04632,0.01316 0.07423,0.041 0.07866,0.0785 l 0.0015,0.01269 h 0.0112 c 0.0061,0 0.0112,-9.05e-4 0.0112,-0.0019 0,-0.0011 0.0053,-0.04866 0.01152,-0.105725 0.0063,-0.05706 0.01152,-0.107509 0.01153,-0.11208 2e-5,-0.0079 -4.98e-4,-0.0083 -0.0093,-0.0083 z m -7.2955981,0.0179 v 0.0122 0.01222 l 0.01672,0.0059 c 0.019714,0.0071 0.049931,0.0264 0.063154,0.04041 0.00514,0.0055 0.013554,0.01759 0.01864,0.02693 l 0.00926,0.01698 -0.1925667,0.354665 c -0.1059085,0.195065 -0.1983473,0.364467 -0.2054182,0.37645 -0.037417,0.06339 -0.077589,0.0988 -0.1226959,0.108114 l -0.015131,0.0031 v 0.0123 0.0123 H 4.960139 5.1536554 v -0.01262 c 0,-0.01232 -2.228e-4,-0.01269 -0.0096,-0.0157 -0.022228,-0.0071 -0.049394,-0.02361 -0.06288,-0.03817 -0.018491,-0.01997 -0.023851,-0.03897 -0.016743,-0.05937 0.0024,-0.0069 0.3232225,-0.60879 0.3259357,-0.611503 7.543e-4,-7.54e-4 0.1400821,0.264536 0.1400821,0.266817 0,8.31e-4 -0.0072,0.0015 -0.016023,0.0015 -0.019211,10e-7 -0.065874,0.0074 -0.1140799,0.01804 -0.059874,0.01323 -0.1415873,0.03394 -0.1415873,0.03586 0,0.0019 0.08064,0.0223 0.1409724,0.03566 0.064251,0.01423 0.094903,0.01809 0.1437565,0.01809 h 0.045086 l 0.059966,0.114662 c 0.058389,0.111646 0.059989,0.115116 0.060926,0.131785 8.308e-4,0.01497 6.4e-5,0.01879 -0.00629,0.03041 -0.004,0.0073 -0.012937,0.01842 -0.01992,0.0247 -0.012183,0.01097 -0.046469,0.02947 -0.061189,0.03305 -0.00651,0.0016 -0.00697,0.0027 -0.00697,0.01425 v 0.01255 l 0.4555916,-6.59e-4 0.4555916,-6.39e-4 8.298e-4,-0.01097 c 7.555e-4,-0.01051 4.205e-4,-0.01109 -0.00903,-0.01493 -0.032857,-0.01337 -0.049348,-0.02617 -0.060766,-0.04714 -0.016457,-0.03025 -0.015394,-0.0035 -0.016251,-0.406828 -8.297e-4,-0.399717 -0.00149,-0.382962 0.013051,-0.386596 0.00343,-9.07e-4 0.064411,-0.0011 0.1353701,-4e-4 0.139416,0.0013 0.1506753,0.0023 0.1896308,0.01616 0.050366,0.01799 0.081954,0.05152 0.09312,0.09888 0.00891,0.0379 0.0032,0.09366 -0.012926,0.125466 -0.010743,0.02131 -0.03528,0.044 -0.06048,0.05605 -0.046446,0.02221 -0.075817,0.02565 -0.2186318,0.02565 H 6.4711714 v 0.01223 0.01223 l 0.061897,0.06786 c 0.1541735,0.169033 0.3183825,0.344632 0.3699128,0.395571 0.2238798,0.221309 0.4614213,0.358 0.6613548,0.380568 0.012343,0.0014 -0.8569215,0.0024 -2.1844049,0.0026 l -2.2049169,3.19e-4 H 13.758062 l -3.043041,-2.59e-4 c -2.5465163,-2.2e-4 -3.0389535,-8.31e-4 -3.0179856,-0.0037 0.026594,-0.0037 0.058994,-0.01108 0.073303,-0.01698 l 0.00869,-0.0035 -0.038126,-0.01512 C 7.6267269,11.339486 7.5174653,11.283841 7.4335797,11.228285 7.3162929,11.150605 7.2224873,11.063 7.022892,10.844728 6.9119664,10.723425 6.855851,10.65936 6.8590248,10.657655 c 0.00171,-9.06e-4 0.0088,-0.0024 0.015794,-0.0034 0.00697,-9.81e-4 0.024011,-0.0046 0.037703,-0.008 0.1210742,-0.03035 0.2025267,-0.100308 0.2280581,-0.19587 0.0048,-0.01815 0.00583,-0.02822 0.00571,-0.06023 -9.14e-5,-0.05232 -0.00823,-0.08328 -0.032926,-0.125563 -0.012777,-0.02185 -0.052617,-0.06279 -0.07584,-0.07792 -0.038286,-0.02495 -0.08872,-0.04504 -0.141753,-0.05647 -0.060697,-0.01307 -0.058514,-0.01302 -0.5254258,-0.01302 h -0.435219 l 0.00457,0.0082 c 0.00914,0.01617 0.035166,0.03948 0.05488,0.04915 0.015257,0.0074 0.025451,0.01029 0.052274,0.01429 0.067943,0.01017 0.1087313,0.02963 0.1348673,0.06432 0.017486,0.02321 0.017966,0.02806 0.017108,0.175187 l -7.543e-4,0.130455 -0.047417,0.0096 c -0.054091,0.01086 -0.1668364,0.03803 -0.1699712,0.04091 -0.00331,0.003 0.1492958,0.03941 0.2091986,0.04989 l 0.00971,0.0017 -8.297e-4,0.161975 c -8.309e-4,0.158886 -9.817e-4,0.162292 -0.00651,0.178732 -0.010286,0.03049 -0.029383,0.0515 -0.058994,0.06479 -0.014811,0.0066 -0.015509,0.0067 -0.029749,0.003 -0.039509,-0.01029 -0.075783,-0.04174 -0.107417,-0.09311 -0.0072,-0.01175 -0.1147645,-0.209557 -0.2389541,-0.439571 l -0.2257975,-0.418248 -0.1683884,-6.6e-4 z m 2.119685,3.4e-5 v 0.01281 c 0,0.0087 0.00106,0.01281 0.0032,0.01281 0.00183,0 0.011314,0.0039 0.021166,0.0086 0.032309,0.01549 0.051074,0.04214 0.057486,0.08168 0.0016,0.0097 0.00263,0.07829 0.00263,0.171775 l 1.94e-5,0.155659 -0.00571,0.0013 c -0.0032,6.6e-4 -0.020766,0.0042 -0.039086,0.0079 -0.043268,0.0087 -0.1608467,0.0372 -0.1636193,0.03974 -0.00251,0.0023 0.1059199,0.02929 0.1668227,0.04155 l 0.041657,0.0083 -4.46e-5,0.157647 c -4.92e-5,0.167863 -7.394e-4,0.178918 -0.012686,0.202344 -0.011086,0.02177 -0.033234,0.04038 -0.05968,0.05017 l -0.012171,0.0046 v 0.01248 0.01248 l 0.205689,-6.58e-4 0.2056901,-6.59e-4 7.543e-4,-0.0116 7.542e-4,-0.01161 -0.013588,-0.0046 c -0.032251,-0.01097 -0.056789,-0.03558 -0.066789,-0.06701 -0.00571,-0.01781 -0.00571,-0.01921 -0.00571,-0.188388 v -0.170446 l 0.030857,-7.19e-4 0.030857,-7.18e-4 0.222889,0.228159 0.2228855,0.228164 0.206969,2.6e-5 0.2069689,3.1e-5 v -0.01231 -0.01231 l -0.018571,-0.0058 c -0.037577,-0.01174 -0.08752,-0.03922 -0.1229165,-0.06763 C 8.4035066,10.986977 7.973113,10.563605 7.973065,10.56038 7.9730467,10.559398 8.031008,10.4931 8.1018683,10.413033 8.2144054,10.285876 8.2345837,10.264281 8.2614214,10.24228 8.3135584,10.19954 8.369307,10.16473 8.4123881,10.14799 l 0.01816,-0.007 7.554e-4,-0.01174 7.543e-4,-0.01175 H 8.2499231 8.0678043 v 0.01248 0.01248 l 0.011577,0.0013 c 0.032514,0.0037 0.045611,0.03173 0.02952,0.06327 -0.00274,0.0053 -0.072103,0.08361 -0.1542446,0.174057 l -0.1493414,0.164209 h -0.082937 -0.082937 l 9.806e-4,-0.156993 c 0.00106,-0.169667 8.308e-4,-0.167127 0.015394,-0.195435 0.011428,-0.02222 0.035211,-0.04041 0.066606,-0.05088 0.00343,-0.0011 0.00446,-0.0043 0.00446,-0.01311 v -0.01161 H 7.5205476 Z"
     class="ColorScheme-Text" />
  <ellipse
     style="fill:none;stroke:#000000;stroke-width:0.582072;stroke-dasharray:none;stroke-opacity:1;filter:url(#filter3-8)"
     id="path1-5-7"
     cx="8.4450111"
     cy="8.423522"
     rx="6.8752708"
     ry="6.8578653"
     transform="matrix(0.4782969,0,0,0.4782969,8.9000071,8.8280171)" />
  <ellipse
     style="fill:currentColor;fill-opacity:1;stroke:currentColor;stroke-width:0.278402;stroke-dasharray:none;stroke-opacity:1"
     id="path1-59"
     cx="12.939234"
     cy="12.856965"
     rx="3.2884204"
     ry="3.2800953"
     class="ColorScheme-Text" />
  <ellipse
     style="fill:currentColor;stroke:none;stroke-width:0.246622;stroke-dasharray:none;stroke-opacity:1"
     id="path1-2-2"
     cx="12.939234"
     cy="12.856965"
     rx="2.9130225"
     ry="2.9056478"
     class="ColorScheme-Highlight" />
  <path
     id="path1-36-3"
     style="fill:#000000;fill-opacity:1;stroke:none;stroke-width:0.124104;stroke-dasharray:none;stroke-dashoffset:2.2;stroke-opacity:0.3;opacity:0.3"
     d="m 14.021099,11.736685 c -0.06523,-2.7e-5 -0.135047,0.02623 -0.222431,0.07744 -0.207942,0.121835 -0.479893,0.179294 -0.853351,0.179294 -0.373425,0 -0.654446,-0.05868 -0.861152,-0.179813 -0.165749,-0.09713 -0.264703,-0.09842 -0.403809,-0.0046 -0.357127,0.240662 -0.62628,1.012267 -0.705238,2.020557 -0.04735,0.604628 -0.0031,0.923391 0.153311,1.102784 0.07546,0.08649 0.260665,0.07183 0.427716,-0.0343 0.141607,-0.08996 0.310333,-0.288477 0.511911,-0.602326 0.182153,-0.283608 0.40248,-0.377017 0.889733,-0.377816 0.486283,-7.65e-4 0.677387,0.09125 0.901686,0.436021 0.376321,0.578447 0.72416,0.779828 0.928191,0.537359 0.113031,-0.134326 0.133719,-0.264107 0.128366,-0.804479 -0.0098,-0.981615 -0.266353,-1.87461 -0.636118,-2.215438 -0.09848,-0.09078 -0.174941,-0.134569 -0.258815,-0.134604 z m -2.112591,0.578416 h 0.225551 0.22555 v 0.193324 0.193326 h 0.19333 0.193331 v 0.241656 0.241656 h -0.193331 -0.19333 v 0.209435 0.209435 h -0.204243 c -0.112206,0 -0.213221,-0.01005 -0.225032,-0.02182 -0.0118,-0.01181 -0.02182,-0.105569 -0.02182,-0.208914 v -0.188138 h -0.193337 -0.193331 v -0.241656 -0.241656 h 0.193331 0.193332 v -0.193326 z m 1.83871,0 c 0.203478,0 0.290618,0.225442 0.14396,0.372098 -0.09327,0.09326 -0.178394,0.100588 -0.270247,0.02287 -0.159321,-0.134809 -0.07616,-0.394964 0.126287,-0.394964 z m -0.391336,0.413154 c 0.05081,3.5e-5 0.101967,0.02029 0.142399,0.06495 0.06302,0.06964 0.06984,0.229093 0.013,0.303499 -0.111241,0.145623 -0.378344,0.05196 -0.378344,-0.13252 0,-0.140009 0.111172,-0.236016 0.22295,-0.23594 z m 0.798786,0.0078 c 0.05856,0.0011 0.115418,0.02047 0.148634,0.05716 0.06302,0.06964 0.06983,0.229092 0.013,0.303499 -0.118321,0.154886 -0.378346,0.05122 -0.378346,-0.150713 0,-0.06121 0.02453,-0.127549 0.05873,-0.158506 0.03909,-0.03538 0.09943,-0.05251 0.15799,-0.05145 z m -0.393417,0.416788 c 0.180393,0 0.268168,0.19134 0.159029,0.347153 -0.0373,0.05326 -0.08282,0.07171 -0.176699,0.07171 -0.108097,0 -0.133181,-0.01407 -0.176699,-0.09823 -0.08582,-0.165932 0.0078,-0.320649 0.194369,-0.320649 z" />
  <path
     id="path1-36"
     style="fill:currentColor;fill-opacity:1;stroke:none;stroke-width:0.124104;stroke-dasharray:none;stroke-dashoffset:2.2;stroke-opacity:0.3"
     d="m 14.021099,11.207529 c -0.06523,-2.7e-5 -0.135047,0.02623 -0.222431,0.07744 -0.207942,0.121835 -0.479893,0.179294 -0.853351,0.179294 -0.373425,0 -0.654446,-0.05868 -0.861152,-0.179813 -0.165749,-0.09713 -0.264703,-0.09842 -0.403809,-0.0046 -0.357127,0.240662 -0.62628,1.012267 -0.705238,2.020557 -0.04735,0.604628 -0.0031,0.923391 0.153311,1.102784 0.07546,0.08649 0.260665,0.07183 0.427716,-0.0343 0.141607,-0.08996 0.310333,-0.288477 0.511911,-0.602326 0.182153,-0.283608 0.40248,-0.377017 0.889733,-0.377816 0.486283,-7.65e-4 0.677387,0.09125 0.901686,0.436021 0.376321,0.578447 0.72416,0.779828 0.928191,0.537359 0.113031,-0.134326 0.133719,-0.264107 0.128366,-0.804479 -0.0098,-0.981615 -0.266353,-1.87461 -0.636118,-2.215438 -0.09848,-0.09078 -0.174941,-0.134569 -0.258815,-0.134604 z m -2.112591,0.578416 h 0.225551 0.22555 v 0.193324 0.193326 h 0.19333 0.193331 v 0.241656 0.241656 h -0.193331 -0.19333 v 0.209435 0.209435 h -0.204243 c -0.112206,0 -0.213221,-0.01005 -0.225032,-0.02182 -0.0118,-0.01181 -0.02182,-0.105569 -0.02182,-0.208914 v -0.188138 h -0.193337 -0.193331 v -0.241656 -0.241656 h 0.193331 0.193332 v -0.193326 z m 1.83871,0 c 0.203478,0 0.290618,0.225442 0.14396,0.372098 -0.09327,0.09326 -0.178394,0.100588 -0.270247,0.02287 -0.159321,-0.134809 -0.07616,-0.394964 0.126287,-0.394964 z m -0.391336,0.413154 c 0.05081,3.5e-5 0.101967,0.02029 0.142399,0.06495 0.06302,0.06964 0.06984,0.229093 0.013,0.303499 -0.111241,0.145623 -0.378344,0.05196 -0.378344,-0.13252 0,-0.140009 0.111172,-0.236016 0.22295,-0.23594 z m 0.798786,0.0078 c 0.05856,0.0011 0.115418,0.02047 0.148634,0.05716 0.06302,0.06964 0.06983,0.229092 0.013,0.303499 -0.118321,0.154886 -0.378346,0.05122 -0.378346,-0.150713 0,-0.06121 0.02453,-0.127549 0.05873,-0.158506 0.03909,-0.03538 0.09943,-0.05251 0.15799,-0.05145 z m -0.393417,0.416788 c 0.180393,0 0.268168,0.19134 0.159029,0.347153 -0.0373,0.05326 -0.08282,0.07171 -0.176699,0.07171 -0.108097,0 -0.133181,-0.01407 -0.176699,-0.09823 -0.08582,-0.165932 0.0078,-0.320649 0.194369,-0.320649 z"
     class="ColorScheme-Text" />
  <path
     id="gradient-path1"
     style="opacity:0.3;baseline-shift:baseline;display:inline;overflow:visible;vector-effect:none;enable-background:accumulate;stop-color:#000000;stop-opacity:1;fill:url(#linearGradient5)"
     d="M 8.4453131 1.2753492 C 4.4913166 1.2753492 1.2794833 4.4784283 1.2794833 8.4236094 C 1.2794833 12.36879 4.4913166 15.572386 8.4453131 15.572386 C 9.1638027 15.572386 9.8576697 15.466358 10.51233 15.269568 C 11.133159 15.890536 11.991864 16.275172 12.939524 16.275172 C 14.830708 16.275172 16.367154 14.744327 16.367154 12.85736 C 16.367154 11.897867 15.969699 11.029882 15.330545 10.408462 C 15.513101 9.7781514 15.611143 9.1121932 15.611143 8.4236094 C 15.611143 4.4784283 12.39931 1.2753492 8.4453131 1.2753492 z " />
</svg>
