<?xml version="1.0" encoding="UTF-8" standalone="no"?>
<svg
   width="64"
   height="64"
   version="1.1"
   viewBox="0 0 16.933 16.933"
   id="svg7"
   sodipodi:docname="steam_icon_1590910.svg"
   inkscape:version="1.4.2 (ebf0e940d0, 2025-05-08)"
   xmlns:inkscape="http://www.inkscape.org/namespaces/inkscape"
   xmlns:sodipodi="http://sodipodi.sourceforge.net/DTD/sodipodi-0.dtd"
   xmlns:xlink="http://www.w3.org/1999/xlink"
   xmlns="http://www.w3.org/2000/svg"
   xmlns:svg="http://www.w3.org/2000/svg"
   xmlns:rdf="http://www.w3.org/1999/02/22-rdf-syntax-ns#"
   xmlns:cc="http://creativecommons.org/ns#"
   xmlns:dc="http://purl.org/dc/elements/1.1/">
  <sodipodi:namedview
     id="namedview7"
     pagecolor="#9c4444"
     bordercolor="#000000"
     borderopacity="0.25"
     inkscape:showpageshadow="2"
     inkscape:pageopacity="0.0"
     inkscape:pagecheckerboard="0"
     inkscape:deskcolor="#d1d1d1"
     inkscape:zoom="4.3531261"
     inkscape:cx="36.180895"
     inkscape:cy="25.958357"
     inkscape:window-width="2560"
     inkscape:window-height="1388"
     inkscape:window-x="0"
     inkscape:window-y="0"
     inkscape:window-maximized="1"
     inkscape:current-layer="svg7"
     showgrid="false" />
  <defs
     id="defs2">
    <filter
       style="color-interpolation-filters:sRGB;"
       inkscape:label="Blur"
       id="filter3"
       x="-0.10843471"
       y="-0.10870992"
       width="1.2168694"
       height="1.2174198">
      <feGaussianBlur
         stdDeviation="0.5 0.5"
         result="blur"
         id="feGaussianBlur3" />
    </filter>
    <filter
       style="color-interpolation-filters:sRGB"
       inkscape:label="Blur"
       id="filter3-8"
       x="-0.10843471"
       y="-0.10870992"
       width="1.2168694"
       height="1.2174198">
      <feGaussianBlur
         stdDeviation="0.5 0.5"
         result="blur"
         id="feGaussianBlur3-7" />
    </filter>
    <style
       id="current-color-scheme"
       type="text/css">.ColorScheme-Text {color:#d8dee9} .ColorScheme-Highlight {color:#3b4252}</style>
    <linearGradient
       id="linearGradient4"
       inkscape:collect="always">
      <stop
         style="stop-color:#000000;stop-opacity:1;"
         offset="0"
         id="stop4" />
      <stop
         style="stop-color:#000000;stop-opacity:0;"
         offset="1"
         id="stop5" />
    </linearGradient>
    <linearGradient
       inkscape:collect="always"
       xlink:href="#linearGradient4"
       id="linearGradient5"
       x1="14.157616"
       y1="14.109557"
       x2="3.4890218"
       y2="3.440964"
       gradientUnits="userSpaceOnUse" />
  </defs>
  <metadata
     id="metadata2">
    <rdf:RDF>
      <cc:Work
         rdf:about="">
        <dc:format>image/svg+xml</dc:format>
        <dc:type
           rdf:resource="http://purl.org/dc/dcmitype/StillImage" />
      </cc:Work>
    </rdf:RDF>
  </metadata>
  <ellipse
     style="opacity:1;fill:none;stroke:#000000;stroke-width:0.582072;stroke-dasharray:none;stroke-opacity:1;filter:url(#filter3)"
     id="path1-5"
     cx="8.4450111"
     cy="8.423522"
     rx="6.8752708"
     ry="6.8578653" />
  <ellipse
     style="opacity:1;fill:none;stroke-width:0.58207188;stroke-opacity:1;stroke:currentColor;stroke-dasharray:none;fill-opacity:1"
     id="path1"
     cx="8.4450111"
     cy="8.423522"
     rx="6.8752708"
     ry="6.8578653"
     class="ColorScheme-Text" />
  <ellipse
     style="fill:currentColor;stroke:none;stroke-width:0.285728;stroke-dasharray:none;stroke-opacity:1"
     id="path1-2"
     cx="8.4450111"
     cy="8.423522"
     rx="6.5766377"
     ry="6.5612183"
     class="ColorScheme-Highlight" />
  <path
     style="opacity:0.3;fill:#000000;fill-opacity:1;stroke:none;stroke-width:0.00532469"
     d="m 11.327657,6.6921875 0.0484,0.283981 -0.06261,0.0923 -0.220058,0.170389 v 0.0071 c 0.07568,-4.6e-5 0.151136,-0.0071 0.227184,-0.0071 0.02972,0 0.07215,0.0097 0.09911,-0.0045 0.03968,-0.02055 0.06471,-0.06929 0.07936,-0.109308 0.0585,-0.159855 -0.06587,-0.316868 -0.171373,-0.433075 m -0.887446,0.269784 v 0.0071 c 0.07568,0.04653 0.144561,0.110236 0.148755,0.205891 0.0045,0.102159 -0.05903,0.213323 0.0244,0.303125 0.04517,0.04857 0.114951,0.04393 0.174713,0.03328 0.147527,-0.02632 0.27501,-0.05638 0.425978,-0.05241 v -0.0071 h -0.01421 v -0.0071 h 0.0568 c 0.0034,0.02898 0.08599,0.03617 0.113593,0.05281 0.06592,0.03968 0.10624,0.112867 0.106494,0.188603 0.0706,-0.04002 0.168981,-0.11786 0.191689,-0.198792 h 0.0071 l 0.0071,0.01421 c 0.03911,-0.05991 -0.08557,-0.192436 -0.147883,-0.19543 -0.166427,-0.008 -0.323321,-0.02893 -0.491049,0.0051 -0.06404,0.01302 -0.180493,0.07732 -0.241415,0.04698 -0.118659,-0.05914 -0.08694,-0.188236 -0.145393,-0.282612 -0.04506,-0.07276 -0.141249,-0.08957 -0.216685,-0.113694 m 0.127789,0.06389 0.01421,0.02841 h -0.0071 l -0.0071,-0.02841 m 0.134892,0.269785 0.0071,0.02128 -0.0071,-0.02128 m 0.511171,0 v 0.0071 l -0.0497,0.0071 0.0497,-0.01421 m 0.01421,0.0023 0.0023,0.0023 c -0.0034,0.0011 -0.0079,-0.0023 -0.0023,-0.0023 m 0.06389,-0.0023 v 0.0071 h -0.02841 l 0.02841,-0.0071 m 0.0568,0.0071 0.03549,0.0071 v 0.0071 l -0.04257,-0.0071 0.0071,-0.0071 m 0.177492,0.01421 -0.0071,0.0071 0.0071,-0.0071 m -0.930051,0.01421 0.0071,0.02128 -0.0071,-0.02128 m 0.816453,0.07809 v 0.0071 h -0.03549 l 0.03549,-0.0071 m -0.01421,0.02128 -0.0071,0.0071 0.0071,-0.0071 m 0.248485,0.04262 0.0071,0.02841 -0.02841,-0.0071 0.0071,-0.02128 h 0.01421 m -0.468571,0.390475 0.0071,-0.02128 c -0.07762,-0.05729 -0.106483,-0.170728 -0.106495,-0.262681 h 0.0071 v 0.0568 h 0.0071 l 0.01421,-0.106494 c -0.05213,0.0023 -0.183296,-5.15e-4 -0.220523,0.04076 -0.03906,0.0433 -0.0093,0.157568 4.36e-4,0.207747 h -0.0071 l -0.0071,-0.02128 h -0.0071 c 0.0028,0.0584 0.03192,0.104779 0.06827,0.149094 0.13766,0.167938 0.338366,0.176287 0.535194,0.115602 0.06262,-0.0193 0.153328,-0.09805 0.220081,-0.08193 0.04104,0.0099 0.06151,0.05004 0.03781,0.08581 -0.03889,0.05881 -0.101869,0.109574 -0.158507,0.1503 -0.01721,0.05977 -0.156844,0.10723 -0.212989,0.120691 v 0.0071 h 0.02128 v 0.0071 c -0.237572,0.04902 -0.521241,0.04234 -0.752558,-0.01958 -0.154065,-0.04126 -0.281587,-0.143015 -0.447272,-0.150538 -0.135227,-0.0061 -0.2821865,0.0034 -0.4117765,0.04477 -0.115437,0.03702 -0.219214,0.114136 -0.333684,0.149774 -0.05784,0.018 -0.138373,0.004 -0.198787,0.004 0.03549,0.03623 0.108516,0.02128 0.156193,0.02128 0.141827,0 0.291872,0.0034 0.433076,-0.01421 v -0.0071 h -0.04262 c 0.159357,-0.131921 0.3686825,-0.112834 0.5537655,-0.04913 0.04777,0.01642 0.08681,0.05519 0.134898,0.06709 0.205461,0.05089 0.424506,0.0011 0.638961,0.0034 0.105571,0.0011 0.214754,0.0184 0.305281,-0.04262 v 0.07099 l 0.120696,-0.02281 0.276883,0.02785 0.177487,-0.06184 v 0.0781 l 0.0923,-0.04755 0.16329,-0.01636 v -0.0071 H 12.0873 c 0.17447,-0.174476 0.322613,-0.419134 0.208075,-0.667365 -0.02224,-0.04828 -0.04324,-0.09596 -0.08738,-0.127794 l 0.0071,0.02128 c -0.122009,-0.116417 -0.30064,-0.102821 -0.440179,-0.02621 -0.191259,0.10504 -0.34727,0.347026 -0.596366,0.324368 m 0.433081,-0.369175 -0.01421,0.01421 0.01421,-0.01421 m 0.631862,0.255583 -0.02128,-0.071 c 0.04959,0.0057 0.06187,0.03974 0.02128,0.071 m -1.327624,0.02128 -0.0071,-0.0568 c 0.03838,0.0067 0.03951,0.03889 0.0071,0.0568 m -2.9179315,0.227185 c 0.109846,0.1527 0.397834,0.203422 0.567964,0.138673 0.100176,-0.03815 0.170178,-0.121155 0.262685,-0.171956 0.187778,-0.103127 0.454642,-0.091 0.617662,0.05049 0.04726,0.04104 0.09494,0.09589 0.120695,0.153169 0.08729,-0.0062 0.2163,-0.02417 0.269786,-0.09939 h -0.02841 c 0.02564,-0.06578 -0.04166,-0.09637 -0.0852,-0.129809 -0.114118,-0.08765 -0.218401,-0.147538 -0.362077,-0.174798 -0.16693,-0.0317 -0.387809,-0.01732 -0.53957,0.06354 -0.152366,0.08121 -0.271839,0.220596 -0.447277,0.258566 -0.03085,0.0067 -0.06854,-0.0079 -0.09939,-0.01234 -0.09782,-0.01398 -0.185411,-0.03815 -0.276883,-0.07617 m 4.2406745,-0.229868 c 0.03741,-0.01664 0.04098,0.03068 0.012,0.04647 -0.03011,0.01647 -0.036,-0.03577 -0.012,-0.04647 m -1.273047,0.04528 c -0.0023,0.02745 -0.0078,0.03798 -0.03549,0.04262 v -0.04262 h 0.03549 m 0.0497,0.0071 -0.02842,0.03549 -0.0071,-0.04262 0.03549,0.0071 m 1.263724,0.06389 v -0.0497 c 0.04064,0.0068 0.03085,0.03413 0,0.0497 m -1.24243,0 c -0.01987,0.04087 -0.05309,0.04104 -0.0568,-0.0071 l 0.0568,0.0071 m 1.22113,-0.0071 -0.04262,0.0568 v -0.0568 h 0.04262 m -1.171432,0.01421 -0.03549,0.04262 v -0.04262 h 0.03549 m 1.221131,0.0639 -0.0497,0.06389 c -0.01172,-0.04319 0.0067,-0.06249 0.0497,-0.06389 m -1.206929,0.01421 -0.03549,0.02842 0.03549,-0.02842 m 0.553766,0.0497 c -0.05927,-0.02485 -0.120136,0.0092 -0.177492,0.02841 -0.01874,0.0062 -0.05764,0.01228 -0.06004,0.03708 -0.0017,0.01981 0.0146,0.04008 0.0266,0.054 0.06012,0.0696 0.117057,0.02326 0.167389,-0.0343 0.02168,-0.02479 0.03458,-0.05383 0.04353,-0.08519 m -0.0497,0.0071 -0.02128,0.02128 0.02128,-0.02128 m 0.525373,0.08519 c 9.7e-5,-0.02541 0.03289,-0.120504 0.07038,-0.06569 0.02383,0.03487 -0.04817,0.06167 -0.07038,0.06569 m -2.5203555,-0.03311 0.0023,0.0023 c -0.0034,0.0011 -0.0079,-0.0023 -0.0023,-0.0023 m 2.3996595,0.139624 c -0.0023,-0.01409 -0.0057,-0.02836 -0.0023,-0.04262 0.02213,-0.09851 0.145726,-0.01387 0.045,0.03187 -0.01324,0.006 -0.02847,0.008 -0.04262,0.01075 m 0.205891,-0.08519 c -0.0057,0.0163 -0.01132,0.02915 -0.02293,0.04234 -0.0886,0.100851 -0.0947,-0.07678 0.02293,-0.04234 m -5.5376815,0.06389 v 0.0071 c 0.105916,0.0137 0.167376,0.01398 0.191687,0.127789 l -0.631862,0.0071 c 0.02417,0.03945 0.0724,0.02819 0.113593,0.02841 0.10145,4.87e-4 0.197587,-0.0017 0.298184,-0.0068 0.137535,-0.0067 0.274579,0.0068 0.411774,0.0068 0.267877,0 0.534058,-0.0071 0.802258,-0.0071 v -0.02128 c -0.2973,0 -0.595302,-0.01206 -0.887418,-0.05715 -0.04817,-0.0074 -0.06208,-0.0605 -0.100063,-0.08477 -0.05106,-0.0326 -0.143068,-0.01336 -0.198153,-6.8e-5 m 5.3955775,0.03164 c 0.06227,-0.0094 0.01375,0.08598 -0.02723,0.08663 -0.04766,5.66e-4 -0.0086,-0.0812 0.02723,-0.08663 m -0.326473,0.004 -0.02842,0.02128 0.02842,-0.02128 m 0.24849,0.01421 c -0.0163,0.04789 -0.05462,0.08238 -0.106494,0.0781 0.0075,-0.05468 0.0514,-0.0939 0.106494,-0.0781 m -0.127794,0 -0.02128,0.01421 v -0.0071 l 0.02128,-0.0071 m -7.3693745,0.0994 v 0.0071 c 0.135735,0.04013 0.319817,0.0071 0.461474,0.0071 v -0.02128 c -0.14943,0 -0.315051,-0.03617 -0.461474,0.0071 m 0.496969,0.01421 c 0.100109,0 0.198912,7.4e-5 0.298467,-5.32e-4 0.03594,-2.15e-4 0.09159,0.01274 0.113309,-0.02077 -0.101989,0 -0.203729,-0.0071 -0.305281,-0.0071 -0.03849,0 -0.0846,-0.0091 -0.106495,0.02842 m 0.482774,0 h 0.283987 c 0.03481,0 0.08548,0.01109 0.106489,-0.02128 h -0.284041 c -0.03481,0 -0.08548,-0.01109 -0.106494,0.02128 m 0.418873,-0.01421 v 0.0071 c 0.04223,0.01245 0.165628,0.02604 0.191694,-0.01421 l -0.191694,0.0071 m 2.030485,0.01421 0.49697,-0.004 0.212989,0.02513 0.141996,-0.021 0.404672,-2.83e-4 c -0.06264,-0.04659 -0.194627,-0.02128 -0.269785,-0.02128 h -0.702855 -0.205891 c -0.02983,6e-6 -0.06047,-0.0059 -0.0781,0.02128 m 4.3307555,0 h 0.177487 c -0.02485,-0.03515 -0.154059,-0.03617 -0.177487,0 m -2.7688425,0.02128 v 0.0071 h 0.02128 l -0.02128,-0.0071 m -3.798283,0.209004 c -0.07042,0.01098 -0.138758,0.03713 -0.198787,0.07562 -0.435917,0.279566 -0.156028,0.97659 0.347877,0.897888 0.06849,-0.0107 0.133381,-0.03532 0.191688,-0.07284 0.435192,-0.279769 0.172766,-0.980875 -0.340778,-0.900673 m 2.335766,0.486758 h -0.18459 c 0,0.07574 0.01721,0.175031 -0.0023,0.24818 -0.02858,0.107377 -0.23965,0.04098 -0.295918,0.0017 -0.238671,-0.165804 -0.123398,-0.581712 0.184584,-0.550976 0.08301,0.0083 0.133109,0.05714 0.205884,0.0879 0.01749,-0.03741 0.09378,-0.121149 0.08203,-0.162056 -0.01993,-0.06942 -0.1785,-0.10131 -0.238216,-0.110638 -0.248792,-0.03889 -0.497735,0.132079 -0.548039,0.379189 -0.063,0.309464 0.167162,0.596383 0.484139,0.596366 0.09247,-6e-6 0.242241,-0.02604 0.301002,-0.107802 0.0206,-0.0287 0.01138,-0.07881 0.01138,-0.112285 v -0.269785 m 2.4919595,0.468572 h 0.191688 v -0.596366 c 0,-0.06735 -0.0034,-0.172144 0.09229,-0.174663 0.09247,-0.0023 0.0994,0.101779 0.0994,0.167564 v 0.603465 h 0.184584 v -0.596366 c 0,-0.06836 0.004,-0.174861 0.0994,-0.174861 0.09672,0 0.09229,0.107717 0.09229,0.174861 v 0.596366 h 0.191694 v -0.53957 c 0,-0.09569 0.01296,-0.198487 -0.03877,-0.283981 -0.06437,-0.106291 -0.194434,-0.160681 -0.316188,-0.129493 -0.039,0.01 -0.08017,0.0497 -0.11768,0.05343 -0.02587,0.0028 -0.0634,-0.03357 -0.08821,-0.04296 -0.05925,-0.02258 -0.138787,-0.02496 -0.198787,-0.004 -0.08315,0.02932 -0.156464,0.100064 -0.179196,0.186725 -0.02315,0.08822 -0.01251,0.186543 -0.01251,0.276883 v 0.482773 M 4.5829895,8.5943045 v 0.951345 h 0.191688 v -0.376279 h 0.283987 v -0.191689 h -0.283987 v -0.191689 h 0.475676 v -0.191688 h -0.667364 m 1.796196,0.951345 h 0.191689 c 0,-0.04359 -0.01789,-0.137825 0.0073,-0.174413 0.01766,-0.02564 0.0655,-0.01726 0.0921,-0.01726 0.03017,0 0.07804,-0.0089 0.104898,0.0073 0.04251,0.02558 0.07411,0.138017 0.08679,0.184392 h 0.205891 c -0.0197,-0.05789 -0.04579,-0.114192 -0.06993,-0.170389 -0.0085,-0.01987 -0.02672,-0.04794 -0.01947,-0.07036 0.01268,-0.03945 0.07189,-0.07182 0.09584,-0.107128 0.07722,-0.113813 0.08843,-0.266904 0.0283,-0.390475 -0.104032,-0.213759 -0.319732,-0.212989 -0.524587,-0.212989 -0.03651,0 -0.176507,-0.02009 -0.194507,0.01647 -0.03068,0.06241 -0.0045,0.19787 -0.0045,0.267526 v 0.667364 m 1.796173,-0.951344 v 0.951346 h 0.191689 v -0.688659 -0.177492 c 0,-0.02066 0.0065,-0.05643 -0.0073,-0.07381 -0.02457,-0.03102 -0.146876,-0.01138 -0.184393,-0.01138 m 0.276889,0 c 0.06398,0.239372 0.153804,0.474764 0.231917,0.709958 0.01879,0.0566 0.03555,0.113802 0.05445,0.170389 0.0071,0.0214 0.01234,0.05621 0.03509,0.06671 0.02904,0.01341 0.15973,0.01709 0.18201,-0.0071 0.0523,-0.05689 0.06998,-0.19907 0.09307,-0.272598 0.04851,-0.154494 0.10286,-0.307172 0.15193,-0.461474 0.02123,-0.0667 0.05479,-0.135781 0.06088,-0.20589 h -0.212988 c -0.04755,0.205511 -0.108249,0.438232 -0.191689,0.631862 -0.04381,-0.154336 -0.08951,-0.308332 -0.13731,-0.461474 -0.01273,-0.04087 -0.02145,-0.137422 -0.058,-0.163092 -0.0416,-0.02921 -0.159107,-0.0073 -0.209365,-0.0073 m 0.908746,0 v 0.951345 H 10.01396 v -0.18459 H 9.6802805 c -0.03136,0 -0.09945,0.01268 -0.12351,-0.01138 -0.03062,-0.03062 -0.01138,-0.139076 -0.01138,-0.180306 h 0.319483 v -0.191687 h -0.319465 c 0,-0.04121 -0.01919,-0.149705 0.01138,-0.180305 0.02406,-0.02406 0.09215,-0.01138 0.123509,-0.01138 h 0.3336795 c 0,-0.04177 0.01913,-0.146916 -0.0073,-0.180306 -0.022809,-0.02881 -0.1289215,-0.01138 -0.1630935,-0.01138 h -0.482773 m 2.2789705,0 v 0.951345 h 0.653162 v -0.18459 h -0.461474 v -0.191689 h 0.31238 v -0.191689 h -0.31238 v -0.191689 h 0.461474 V 8.5943495 H 11.63978 m -5.8997605,0.179525 c 0.202806,-0.02462 0.366895,0.181935 0.320191,0.374241 -0.03243,0.13363 -0.145325,0.216402 -0.277597,0.231164 -0.214658,0.02394 -0.368467,-0.207543 -0.305983,-0.401552 0.03764,-0.116825 0.14524,-0.189527 0.263389,-0.203853 m 0.830649,0.395541 v -0.383377 c 0.08936,0 0.212378,-0.02225 0.291085,0.02819 0.126311,0.08094 0.117968,0.274981 -0.02128,0.33849 -0.07741,0.03532 -0.186504,0.0167 -0.269785,0.0167 m 0.823557,0.788055 v 0.6886625 0.177489 c 0,0.02066 -0.0065,0.05643 0.0073,0.07381 0.02457,0.031 0.146875,0.01138 0.184392,0.01138 v -0.383373 h 0.283981 v -0.184591 h -0.205891 l -0.0708,-0.01647 -0.0073,-0.175234 h 0.475669 V 9.9574565 h -0.667359 m 0.738357,0.9513465 h 0.18459 v -0.191689 h 0.383377 v 0.191689 h 0.191689 v -0.447274 c 0,-0.11067 0.0051,-0.220006 -0.05208,-0.319481 -0.143921,-0.2510385 -0.542468,-0.2429445 -0.668576,0.02128 -0.04692,0.09838 -0.039,0.199296 -0.039,0.30528 v 0.440175 m 0.823551,-0.9513435 v 0.1916895 h 0.283987 v 0.759657 h 0.184585 v -0.759657 h 0.20589 l 0.0779,-0.01138 0.0073,-0.1803065 h -0.759656 m 0.859053,0 v 0.9513465 h 0.1916875 v -0.383378 h 0.269785 l 0.10221,0.01138 0.01138,0.102209 v 0.269786 h 0.184591 V 9.9574455 h -0.18459 v 0.2697855 l -0.01138,0.102209 -0.10221,0.01138 h -0.26978 V 9.9574395 H 9.8152095 m 0.9371435,0 v 0.9513455 h 0.653162 v -0.191689 h -0.461474 v -0.191689 h 0.312385 v -0.18459 h -0.312385 v -0.191688 h 0.461474 V 9.9574395 h -0.653163 m 0.788055,0 v 0.9513455 h 0.191689 v -0.191689 c 0.05208,0 0.159107,-0.0205 0.203937,0.0073 0.05309,0.03292 0.04455,0.130013 0.0871,0.17301 0.03306,0.03341 0.1605,0.01138 0.205936,0.01138 l -0.106491,-0.25559 c 0.251032,-0.09726 0.210945,-0.483568 0.02841,-0.619361 C 11.986344,9.9113645 11.733892,9.9574445 11.54042,9.9574445 M 8.7005855,10.525411 h -0.383378 c 0,-0.09468 -0.01958,-0.215188 0.03628,-0.298073 0.08018,-0.118987 0.270193,-0.09877 0.330589,0.0283 0.03611,0.076 0.01653,0.187313 0.01653,0.269783 m 3.0315235,0 v -0.376276 c 0.08557,0 0.207691,-0.02242 0.283987,0.02287 0.131457,0.07807 0.11944,0.280428 -0.02128,0.341423 -0.07331,0.03177 -0.183815,0.01196 -0.262687,0.01196 m -1.164334,0.603466 v 0.0071 c 0.09852,0.03074 0.179411,0.0053 0.277523,0.0028 0.0304,-7.93e-4 0.06008,0.02004 0.09166,0.02186 0.04789,0.0028 0.09983,-0.01052 0.149089,-0.01052 -0.02468,-0.03812 -0.10123,-0.01986 -0.141991,-0.02143 -0.0326,-0.0012 -0.05976,-0.0269 -0.09109,-0.02547 -0.02723,0.0013 -0.05162,0.02153 -0.0793,0.02469 -0.06703,0.0077 -0.138426,9.05e-4 -0.205892,9.05e-4 m -1.4838105,0 v 0.0213 h 0.319483 0.6460585 c -0.03051,-0.04709 -0.1881115,-0.0213 -0.2413865,-0.0213 h -0.724152 m -1.682604,0.0142 v 0.0071 h 0.468572 v -0.0213 h -0.31238 l -0.156192,0.0142 m 0.51827,0.0071 h 0.461473 c -0.02423,-0.01835 -0.05564,-0.01441 -0.08519,-0.01829 -0.08779,-0.01153 -0.181291,-0.003 -0.269785,-0.003 -0.03481,0 -0.08424,-0.01019 -0.106494,0.0213 m 0.489871,-0.0071 c 0.125916,0.07914 0.241591,0.02507 0.37628,0.0091 0.08794,-0.01041 0.181245,-0.002 0.269785,-0.002 -0.03776,-0.03093 -0.09579,-0.0213 -0.141997,-0.0213 -0.06947,0 -0.14413,-0.0069 -0.212983,0.002 -0.04562,0.0059 -0.08985,0.02852 -0.134892,0.03263 -0.06147,0.0056 -0.08828,-0.05317 -0.156193,-0.02049 m 1.6826045,0 v 0.0071 h 0.319483 v -0.0213 c -0.09299,0 -0.23503,-0.02644 -0.319483,0.0142 m 1.086238,0 v 0.0071 c 0.03476,0 0.160545,-0.01934 0.166789,0.02917 0.0045,0.03677 -0.03017,0.07994 -0.03187,0.119921 0.09658,-0.0091 0.150447,-0.130899 0.241387,-0.14747 0.159385,-0.02904 0.348951,-0.0016 0.511166,-0.0016 0.07264,0 0.137264,0.01016 0.20589,-0.0142 -0.07119,-0.02988 -0.192424,-0.0071 -0.269785,-0.0071 h -0.56797 c -0.0769,0 -0.185417,-0.01957 -0.255583,0.0142 m 0.269785,0.0213 -0.01421,0.0142 v -0.0142 h 0.01421 m -0.177492,0.0639 0.04262,-0.0426 c -0.03102,0.0024 -0.04019,0.01161 -0.04262,0.0426 z"
     id="path5" />
  <path
     style="fill:currentColor;stroke:none;stroke-width:0.00532469"
     d="m 11.327657,6.1631415 0.0484,0.283981 -0.06261,0.0923 -0.220058,0.170389 v 0.0071 c 0.07568,-4.5e-5 0.151137,-0.0071 0.227184,-0.0071 0.02972,0 0.07215,0.0097 0.09911,-0.0045 0.03968,-0.02055 0.06471,-0.06929 0.07936,-0.109307 0.0585,-0.159855 -0.06587,-0.316868 -0.171373,-0.433076 m -0.887446,0.269785 v 0.0071 c 0.07568,0.04653 0.14456,0.110236 0.148755,0.205891 0.0045,0.102158 -0.05903,0.213322 0.0244,0.303124 0.04517,0.04857 0.114951,0.04393 0.174713,0.03328 0.147527,-0.02632 0.27501,-0.05638 0.425978,-0.05241 v -0.0071 h -0.01421 v -0.0071 h 0.0568 c 0.0034,0.02898 0.08599,0.03617 0.113593,0.05281 0.06592,0.03968 0.10624,0.112868 0.106494,0.188604 0.0706,-0.04002 0.16898,-0.117861 0.191689,-0.198793 h 0.0071 l 0.0071,0.01421 c 0.03911,-0.05992 -0.08557,-0.192436 -0.147883,-0.19543 -0.166427,-0.008 -0.323321,-0.02892 -0.491049,0.0051 -0.06404,0.01302 -0.180493,0.07732 -0.241415,0.04698 -0.118659,-0.05914 -0.08694,-0.188236 -0.145393,-0.282611 -0.04506,-0.07276 -0.141249,-0.08957 -0.216685,-0.113695 m 0.127789,0.06389 0.01421,0.02842 h -0.0071 l -0.0071,-0.02842 m 0.134892,0.269785 0.0071,0.02128 -0.0071,-0.02128 m 0.511172,0 v 0.0071 l -0.0497,0.0071 0.0497,-0.01421 m 0.01421,0.0023 0.0023,0.0023 c -0.0034,0.0011 -0.0079,-0.0023 -0.0023,-0.0023 m 0.06389,-0.0023 v 0.0071 h -0.02841 l 0.02841,-0.0071 m 0.0568,0.0071 0.03549,0.0071 v 0.0071 l -0.04257,-0.0071 0.0071,-0.0071 m 0.177492,0.01421 -0.0071,0.0071 0.0071,-0.0071 m -0.930051,0.01421 0.0071,0.02128 -0.0071,-0.02128 m 0.816453,0.07809 v 0.0071 h -0.03549 l 0.03549,-0.0071 m -0.01421,0.02128 -0.0071,0.0071 0.0071,-0.0071 m 0.248485,0.04262 0.0071,0.02841 -0.02841,-0.0071 0.0071,-0.02128 h 0.01421 m -0.468571,0.390476 0.0071,-0.02128 c -0.07762,-0.05729 -0.106483,-0.170728 -0.106494,-0.262681 h 0.0071 v 0.0568 h 0.0071 l 0.01421,-0.106495 c -0.05213,0.0023 -0.183295,-5.15e-4 -0.220523,0.04076 -0.03906,0.0433 -0.0093,0.157568 4.36e-4,0.207747 h -0.0071 l -0.0071,-0.02128 h -0.0071 c 0.0028,0.0584 0.03192,0.10478 0.06827,0.149095 0.13766,0.167938 0.338366,0.176287 0.535194,0.115602 0.06262,-0.0193 0.153328,-0.09805 0.220081,-0.08193 0.04104,0.0099 0.06151,0.05004 0.03781,0.08581 -0.03889,0.05881 -0.101869,0.109573 -0.158507,0.1503 -0.01721,0.05977 -0.156844,0.10723 -0.212989,0.12069 v 0.0071 h 0.02128 v 0.0071 c -0.237572,0.04902 -0.521241,0.04234 -0.752558,-0.01958 -0.154065,-0.04126 -0.281587,-0.143015 -0.447272,-0.150537 -0.135227,-0.0061 -0.282187,0.0034 -0.411776,0.04477 -0.115437,0.03702 -0.219215,0.114136 -0.333685,0.149773 -0.05784,0.018 -0.138373,0.004 -0.198786,0.004 0.03549,0.03623 0.108515,0.02128 0.156192,0.02128 0.141827,0 0.291872,0.0034 0.433076,-0.01421 v -0.0071 h -0.04262 c 0.159357,-0.131921 0.368683,-0.112834 0.553766,-0.04913 0.04777,0.01642 0.08681,0.05519 0.134898,0.06709 0.205461,0.05089 0.424506,0.0011 0.638961,0.0034 0.105571,0.0011 0.214754,0.0184 0.305281,-0.04262 v 0.07099 l 0.120696,-0.02281 0.276883,0.02785 0.177487,-0.06184 v 0.0781 l 0.0923,-0.04755 0.16329,-0.01636 v -0.0071 h -0.156192 c 0.17447,-0.174475 0.322613,-0.419134 0.208075,-0.667364 -0.02224,-0.04828 -0.04324,-0.09596 -0.08738,-0.127794 l 0.0071,0.02128 c -0.122009,-0.116417 -0.30064,-0.102821 -0.440179,-0.02621 -0.191259,0.105039 -0.34727,0.347026 -0.596366,0.324368 m 0.433081,-0.369176 -0.01421,0.01421 0.01421,-0.01421 m 0.631862,0.255583 -0.02128,-0.071 c 0.04959,0.0057 0.06187,0.03974 0.02128,0.071 m -1.327624,0.02128 -0.0071,-0.0568 c 0.03838,0.0067 0.03951,0.03889 0.0071,0.0568 m -2.917932,0.227185 c 0.109846,0.1527 0.397835,0.203423 0.567964,0.138674 0.100176,-0.03815 0.170179,-0.121155 0.262685,-0.171957 0.187779,-0.103126 0.454642,-0.091 0.617662,0.05049 0.04726,0.04104 0.09494,0.09589 0.120695,0.15317 0.08729,-0.0062 0.2163,-0.02417 0.269785,-0.09939 h -0.02841 c 0.02564,-0.06578 -0.04166,-0.09637 -0.0852,-0.12981 -0.114118,-0.08765 -0.2184,-0.147537 -0.362077,-0.174798 -0.16693,-0.0317 -0.387809,-0.01732 -0.53957,0.06354 -0.152366,0.08121 -0.271839,0.220597 -0.447277,0.258566 -0.03085,0.0067 -0.06854,-0.0079 -0.09939,-0.01234 -0.09782,-0.01398 -0.185411,-0.03815 -0.276883,-0.07617 m 4.240676,-0.229868 c 0.03741,-0.01664 0.04098,0.03068 0.012,0.04647 -0.03011,0.01647 -0.036,-0.03577 -0.012,-0.04647 m -1.273047,0.04528 c -0.0023,0.02745 -0.0078,0.03798 -0.03549,0.04262 v -0.04262 h 0.03549 m 0.0497,0.0071 -0.02842,0.03549 -0.0071,-0.04262 0.03549,0.0071 m 1.263724,0.06389 v -0.0497 c 0.04064,0.0068 0.03085,0.03413 0,0.0497 m -1.24243,0 c -0.01987,0.04087 -0.05309,0.04104 -0.0568,-0.0071 l 0.0568,0.0071 m 1.22113,-0.0071 -0.04262,0.0568 v -0.0568 h 0.04262 m -1.171432,0.01421 -0.03549,0.04262 v -0.04262 h 0.03549 m 1.221131,0.0639 -0.0497,0.06389 c -0.01172,-0.04319 0.0067,-0.06249 0.0497,-0.06389 m -1.206929,0.01421 -0.03549,0.02841 0.03549,-0.02841 m 0.553766,0.0497 c -0.05927,-0.02485 -0.120136,0.0092 -0.177492,0.02842 -0.01874,0.0062 -0.05764,0.01228 -0.06004,0.03707 -0.0017,0.01981 0.0146,0.04008 0.0266,0.054 0.06012,0.0696 0.117057,0.02326 0.167389,-0.0343 0.02168,-0.02479 0.03458,-0.05383 0.04353,-0.08519 m -0.0497,0.0071 -0.02128,0.02128 0.02128,-0.02128 m 0.525373,0.08519 c 9.7e-5,-0.02541 0.03289,-0.120503 0.07038,-0.06569 0.02383,0.03487 -0.04817,0.06167 -0.07038,0.06569 m -2.520356,-0.03311 0.0023,0.0023 c -0.0034,0.0011 -0.0079,-0.0023 -0.0023,-0.0023 m 2.39966,0.139625 c -0.0023,-0.01409 -0.0057,-0.02836 -0.0023,-0.04262 0.02213,-0.09851 0.145726,-0.01387 0.045,0.03187 -0.01324,0.006 -0.02847,0.008 -0.04262,0.01075 m 0.205891,-0.08519 c -0.0057,0.0163 -0.01132,0.02915 -0.02293,0.04234 -0.0886,0.100851 -0.0947,-0.07678 0.02293,-0.04234 m -5.537683,0.06389 v 0.0071 c 0.105917,0.0137 0.167377,0.01398 0.191688,0.127789 l -0.631862,0.0071 c 0.02417,0.03945 0.0724,0.02819 0.113593,0.02841 0.10145,4.86e-4 0.197586,-0.0017 0.298183,-0.0068 0.137535,-0.0067 0.274579,0.0068 0.411775,0.0068 0.267877,0 0.534057,-0.0071 0.802257,-0.0071 v -0.02128 c -0.2973,0 -0.595302,-0.01206 -0.887417,-0.05715 -0.04817,-0.0074 -0.06208,-0.0605 -0.100064,-0.08477 -0.05106,-0.0326 -0.143067,-0.01336 -0.198153,-6.8e-5 m 5.395579,0.03164 c 0.06227,-0.0094 0.01375,0.08598 -0.02723,0.08663 -0.04766,5.66e-4 -0.0086,-0.0812 0.02723,-0.08663 m -0.326473,0.004 -0.02842,0.02128 0.02842,-0.02128 m 0.24849,0.01421 c -0.0163,0.04789 -0.05462,0.08238 -0.106494,0.0781 0.0075,-0.05468 0.0514,-0.0939 0.106494,-0.0781 m -0.127794,0 -0.02128,0.01421 v -0.0071 l 0.02128,-0.0071 m -7.369376,0.0994 v 0.0071 c 0.135736,0.04013 0.319817,0.0071 0.461474,0.0071 v -0.02128 c -0.149429,0 -0.315051,-0.03617 -0.461474,0.0071 m 0.49697,0.01421 c 0.100109,0 0.198911,7.3e-5 0.298466,-5.32e-4 0.03594,-2.16e-4 0.09159,0.01274 0.113309,-0.02077 -0.101988,0 -0.203728,-0.0071 -0.305281,-0.0071 -0.03849,0 -0.0846,-0.0091 -0.106494,0.02841 m 0.482773,0 h 0.283987 c 0.03481,0 0.08548,0.01109 0.106489,-0.02128 h -0.28404 c -0.03481,0 -0.08548,-0.01109 -0.106495,0.02128 m 0.418874,-0.01421 v 0.0071 c 0.04223,0.01245 0.165628,0.02604 0.191694,-0.01421 l -0.191694,0.0071 m 2.030485,0.01421 0.49697,-0.004 0.212989,0.02513 0.141996,-0.021 0.404672,-2.83e-4 c -0.06264,-0.04659 -0.194627,-0.02128 -0.269785,-0.02128 H 8.21089 8.004999 c -0.02983,5e-6 -0.06047,-0.0059 -0.0781,0.02128 m 4.330755,0 h 0.177487 c -0.02485,-0.03515 -0.154059,-0.03617 -0.177487,0 m -2.768842,0.02128 v 0.0071 h 0.02128 l -0.02128,-0.0071 m -3.798283,0.209003 c -0.07042,0.01098 -0.138758,0.03713 -0.198787,0.07562 -0.435917,0.279566 -0.156028,0.976591 0.347876,0.897889 0.06849,-0.0107 0.133381,-0.03532 0.191689,-0.07284 0.435192,-0.27977 0.172765,-0.980875 -0.340778,-0.900674 m 2.335765,0.486759 h -0.18459 c 0,0.07574 0.01721,0.17503 -0.0023,0.248179 -0.02858,0.107378 -0.239649,0.04098 -0.295918,0.0017 -0.238671,-0.165804 -0.123398,-0.581711 0.184584,-0.550975 0.08301,0.0083 0.133109,0.05714 0.205884,0.0879 0.01749,-0.03741 0.09378,-0.121149 0.08203,-0.162057 -0.01993,-0.06942 -0.1785,-0.101309 -0.238217,-0.110638 -0.248791,-0.03889 -0.497734,0.13208 -0.548038,0.379189 -0.063,0.309464 0.167162,0.596383 0.484138,0.596366 0.09247,-5e-6 0.242241,-0.02604 0.301002,-0.107802 0.0206,-0.0287 0.01138,-0.07881 0.01138,-0.112285 v -0.269785 m 2.49196,0.468572 h 0.191688 v -0.596366 c 0,-0.06735 -0.0034,-0.172143 0.09229,-0.174662 0.09247,-0.0023 0.0994,0.101779 0.0994,0.167564 v 0.603464 h 0.184585 v -0.596366 c 0,-0.06836 0.004,-0.17486 0.0994,-0.17486 0.09672,0 0.09229,0.107717 0.09229,0.17486 v 0.596366 h 0.191694 v -0.53957 c 0,-0.09569 0.01296,-0.198486 -0.03877,-0.283981 -0.06437,-0.10629 -0.194434,-0.160681 -0.316188,-0.129492 -0.039,0.01 -0.08017,0.0497 -0.11768,0.05343 -0.02587,0.0028 -0.0634,-0.03357 -0.08821,-0.04296 -0.05925,-0.02258 -0.138787,-0.02496 -0.198787,-0.004 -0.08315,0.02932 -0.156464,0.100064 -0.179196,0.186724 -0.02315,0.08822 -0.01251,0.186544 -0.01251,0.276883 v 0.482774 M 4.582989,8.0652485 v 0.951345 H 4.774677 V 8.6403145 H 5.058664 V 8.4486255 H 4.774677 V 8.2569375 H 5.250353 V 8.0652485 H 4.582989 m 1.796196,0.951345 h 0.191689 c 0,-0.04359 -0.01789,-0.137824 0.0073,-0.174413 0.01766,-0.02564 0.0655,-0.01726 0.0921,-0.01726 0.03017,0 0.07804,-0.0089 0.104899,0.0073 0.04251,0.02559 0.07411,0.138017 0.08679,0.184393 h 0.20589 c -0.0197,-0.05789 -0.04579,-0.114193 -0.06993,-0.170389 -0.0085,-0.01987 -0.02672,-0.04794 -0.01947,-0.07036 0.01268,-0.03945 0.07189,-0.07182 0.09584,-0.107128 0.07722,-0.113814 0.08843,-0.266904 0.0283,-0.390476 -0.104032,-0.213758 -0.319732,-0.212989 -0.524587,-0.212989 -0.03651,0 -0.176507,-0.02009 -0.194507,0.01647 -0.03068,0.06241 -0.0045,0.19787 -0.0045,0.267527 v 0.667364 m 1.796173,-0.951344 v 0.951345 h 0.191689 v -0.688658 -0.177493 c 0,-0.02066 0.0065,-0.05643 -0.0073,-0.07381 -0.02457,-0.03102 -0.146876,-0.01138 -0.184393,-0.01138 m 0.276889,0 c 0.06398,0.239372 0.153804,0.474765 0.231917,0.709959 0.01879,0.0566 0.03555,0.113802 0.05445,0.170389 0.0071,0.0214 0.01234,0.05621 0.03509,0.06671 0.02904,0.01342 0.15973,0.01709 0.18201,-0.0071 0.0523,-0.05689 0.06998,-0.19907 0.09307,-0.272599 0.04851,-0.154494 0.10286,-0.307171 0.15193,-0.461473 0.02123,-0.0667 0.05479,-0.135781 0.06088,-0.205891 H 9.048417 c -0.04755,0.205512 -0.108249,0.438232 -0.191689,0.631863 -0.04381,-0.154336 -0.08951,-0.308333 -0.13731,-0.461474 -0.01273,-0.04087 -0.02145,-0.137423 -0.058,-0.163093 -0.0416,-0.02921 -0.159107,-0.0073 -0.209366,-0.0073 m 0.908746,0 v 0.951346 H 10.01396 V 8.8320385 H 9.680281 c -0.03136,0 -0.09945,0.01268 -0.12351,-0.01138 -0.03062,-0.03062 -0.01138,-0.139075 -0.01138,-0.180305 H 9.864874 V 8.4486665 H 9.545409 c 0,-0.04121 -0.01919,-0.149706 0.01138,-0.180306 0.02406,-0.02406 0.09215,-0.01138 0.12351,-0.01138 h 0.333679 c 0,-0.04177 0.01913,-0.146915 -0.0073,-0.180306 -0.02281,-0.02881 -0.12892,-0.01138 -0.163093,-0.01138 H 9.360812 m 2.27897,0 v 0.951346 h 0.653162 v -0.184591 h -0.461475 v -0.191689 h 0.31238 v -0.191689 h -0.31238 v -0.191689 h 0.461474 V 8.0652945 H 11.639781 M 5.74002,8.2448185 c 0.202806,-0.02462 0.366895,0.181936 0.320191,0.374242 -0.03243,0.13363 -0.145325,0.216402 -0.277597,0.231164 -0.214658,0.02394 -0.368467,-0.207544 -0.305983,-0.401553 0.03764,-0.116825 0.14524,-0.189526 0.263389,-0.203853 m 0.830649,0.395542 v -0.383378 c 0.08936,0 0.212378,-0.02224 0.291085,0.02819 0.126311,0.08094 0.117968,0.274981 -0.02128,0.338491 -0.07741,0.03532 -0.186504,0.0167 -0.269785,0.0167 m 0.823557,0.788055 v 0.6886615 0.177489 c 0,0.02066 -0.0065,0.05643 0.0073,0.07381 0.02457,0.031 0.146875,0.01138 0.184392,0.01138 V 9.9963865 H 7.869919 V 9.8117955 H 7.664028 l -0.0708,-0.01647 -0.0073,-0.175234 H 8.061597 V 9.4284035 H 7.394238 m 0.738357,0.9513455 h 0.18459 V 10.18806 h 0.383377 v 0.191689 H 8.892251 V 9.9324745 c 0,-0.11067 0.0051,-0.220005 -0.05208,-0.319481 -0.143921,-0.251038 -0.542468,-0.242943 -0.668576,0.02128 -0.04692,0.09838 -0.039,0.199296 -0.039,0.305281 V 10.379729 M 8.956146,9.4283835 v 0.191688 H 9.240133 V 10.379729 H 9.424718 V 9.6200715 h 0.20589 l 0.0779,-0.01138 0.0073,-0.180305 H 8.956152 m 0.859053,0 v 0.9513455 h 0.191688 V 9.9963545 h 0.269785 l 0.10221,0.011379 0.01138,0.102209 v 0.269786 h 0.184591 V 9.4283845 h -0.184591 v 0.269785 l -0.01138,0.102209 -0.102209,0.01138 H 10.006898 V 9.4283815 H 9.815211 m 0.937142,0 v 0.9513445 h 0.653162 V 10.188037 H 10.944042 V 9.9963485 h 0.312385 v -0.18459 h -0.312385 v -0.191689 h 0.461473 v -0.191688 h -0.653162 m 0.788055,0 v 0.9513445 h 0.191689 v -0.191689 c 0.05208,0 0.159107,-0.0205 0.203937,0.0073 0.05309,0.03292 0.04455,0.130013 0.0871,0.173009 0.03306,0.03341 0.1605,0.01138 0.205936,0.01138 l -0.106491,-0.25559 c 0.251031,-0.09725 0.210944,-0.4835655 0.02841,-0.6193575 -0.164644,-0.122474 -0.417096,-0.0764 -0.610568,-0.0764 M 8.700587,9.9963455 H 8.317209 c 0,-0.09468 -0.01958,-0.215189 0.03628,-0.298074 0.08018,-0.118987 0.270193,-0.09877 0.330589,0.0283 0.03611,0.076 0.01653,0.187313 0.01653,0.269783 m 3.031523,0 v -0.376277 c 0.08557,0 0.207691,-0.02241 0.283987,0.02287 0.131457,0.07807 0.11944,0.280427 -0.02128,0.341422 -0.07331,0.031771 -0.183815,0.01196 -0.262687,0.01196 m -1.164334,0.6034655 v 0.0071 c 0.09852,0.03074 0.17941,0.0053 0.277522,0.0028 0.0304,-7.93e-4 0.06008,0.02004 0.09166,0.02186 0.04789,0.0028 0.09983,-0.01052 0.14909,-0.01052 -0.02468,-0.03812 -0.101231,-0.01986 -0.141992,-0.02143 -0.0326,-0.0012 -0.05976,-0.0269 -0.09109,-0.02547 -0.02723,0.0013 -0.05162,0.02153 -0.0793,0.02469 -0.06703,0.0077 -0.138425,9.05e-4 -0.205891,9.05e-4 m -1.483811,0 v 0.0213 h 0.319483 0.646058 c -0.03051,-0.04709 -0.18811,-0.0213 -0.241385,-0.0213 H 9.084009 m -1.682605,0.0142 v 0.0071 h 0.468573 v -0.0213 h -0.31238 l -0.156193,0.0142 m 0.518271,0.0071 h 0.461473 c -0.02423,-0.01835 -0.05564,-0.01441 -0.08519,-0.01829 -0.08779,-0.01153 -0.181292,-0.003 -0.269786,-0.003 -0.03481,0 -0.08424,-0.01019 -0.106493,0.0213 m 0.489871,-0.0071 c 0.125916,0.07914 0.241591,0.02507 0.37628,0.0091 0.08794,-0.01041 0.181245,-0.002 0.269785,-0.002 -0.03776,-0.03093 -0.09579,-0.0213 -0.141997,-0.0213 -0.06947,0 -0.14413,-0.0069 -0.212983,0.002 -0.04562,0.0059 -0.08985,0.02852 -0.134892,0.03263 -0.06147,0.0056 -0.08828,-0.05317 -0.156193,-0.02049 m 1.682604,0 v 0.0071 h 0.319483 v -0.0213 c -0.09299,0 -0.23503,-0.02644 -0.319483,0.0142 m 1.086238,0 v 0.0071 c 0.03476,0 0.160545,-0.01934 0.166789,0.02917 0.0045,0.03677 -0.03017,0.07994 -0.03187,0.119921 0.09658,-0.0091 0.150447,-0.130899 0.241387,-0.14747 0.159385,-0.02904 0.348951,-0.0016 0.511166,-0.0016 0.07264,0 0.137264,0.01016 0.20589,-0.0142 -0.07119,-0.02988 -0.192424,-0.0071 -0.269785,-0.0071 h -0.56797 c -0.0769,0 -0.185417,-0.01957 -0.255583,0.0142 m 0.269785,0.0213 -0.01421,0.0142 v -0.0142 h 0.01421 m -0.177492,0.0639 0.04262,-0.0426 c -0.03102,0.0024 -0.04019,0.01161 -0.04262,0.0426 z"
     id="path5-7"
     class="ColorScheme-Text" />
  <ellipse
     style="fill:none;stroke:#000000;stroke-width:0.582072;stroke-dasharray:none;stroke-opacity:1;filter:url(#filter3-8)"
     id="path1-5-7"
     cx="8.4450111"
     cy="8.423522"
     rx="6.8752708"
     ry="6.8578653"
     transform="matrix(0.4782969,0,0,0.4782969,8.9000071,8.8280171)" />
  <ellipse
     style="fill:currentColor;fill-opacity:1;stroke:currentColor;stroke-width:0.278402;stroke-dasharray:none;stroke-opacity:1"
     id="path1-59"
     cx="12.939234"
     cy="12.856965"
     rx="3.2884204"
     ry="3.2800953"
     class="ColorScheme-Text" />
  <ellipse
     style="fill:currentColor;stroke:none;stroke-width:0.246622;stroke-dasharray:none;stroke-opacity:1"
     id="path1-2-2"
     cx="12.939234"
     cy="12.856965"
     rx="2.9130225"
     ry="2.9056478"
     class="ColorScheme-Highlight" />
  <path
     id="path1-36-3"
     style="fill:#000000;fill-opacity:1;stroke:none;stroke-width:0.124104;stroke-dasharray:none;stroke-dashoffset:2.2;stroke-opacity:0.3;opacity:0.3"
     d="m 14.021099,11.736685 c -0.06523,-2.7e-5 -0.135047,0.02623 -0.222431,0.07744 -0.207942,0.121835 -0.479893,0.179294 -0.853351,0.179294 -0.373425,0 -0.654446,-0.05868 -0.861152,-0.179813 -0.165749,-0.09713 -0.264703,-0.09842 -0.403809,-0.0046 -0.357127,0.240662 -0.62628,1.012267 -0.705238,2.020557 -0.04735,0.604628 -0.0031,0.923391 0.153311,1.102784 0.07546,0.08649 0.260665,0.07183 0.427716,-0.0343 0.141607,-0.08996 0.310333,-0.288477 0.511911,-0.602326 0.182153,-0.283608 0.40248,-0.377017 0.889733,-0.377816 0.486283,-7.65e-4 0.677387,0.09125 0.901686,0.436021 0.376321,0.578447 0.72416,0.779828 0.928191,0.537359 0.113031,-0.134326 0.133719,-0.264107 0.128366,-0.804479 -0.0098,-0.981615 -0.266353,-1.87461 -0.636118,-2.215438 -0.09848,-0.09078 -0.174941,-0.134569 -0.258815,-0.134604 z m -2.112591,0.578416 h 0.225551 0.22555 v 0.193324 0.193326 h 0.19333 0.193331 v 0.241656 0.241656 h -0.193331 -0.19333 v 0.209435 0.209435 h -0.204243 c -0.112206,0 -0.213221,-0.01005 -0.225032,-0.02182 -0.0118,-0.01181 -0.02182,-0.105569 -0.02182,-0.208914 v -0.188138 h -0.193337 -0.193331 v -0.241656 -0.241656 h 0.193331 0.193332 v -0.193326 z m 1.83871,0 c 0.203478,0 0.290618,0.225442 0.14396,0.372098 -0.09327,0.09326 -0.178394,0.100588 -0.270247,0.02287 -0.159321,-0.134809 -0.07616,-0.394964 0.126287,-0.394964 z m -0.391336,0.413154 c 0.05081,3.5e-5 0.101967,0.02029 0.142399,0.06495 0.06302,0.06964 0.06984,0.229093 0.013,0.303499 -0.111241,0.145623 -0.378344,0.05196 -0.378344,-0.13252 0,-0.140009 0.111172,-0.236016 0.22295,-0.23594 z m 0.798786,0.0078 c 0.05856,0.0011 0.115418,0.02047 0.148634,0.05716 0.06302,0.06964 0.06983,0.229092 0.013,0.303499 -0.118321,0.154886 -0.378346,0.05122 -0.378346,-0.150713 0,-0.06121 0.02453,-0.127549 0.05873,-0.158506 0.03909,-0.03538 0.09943,-0.05251 0.15799,-0.05145 z m -0.393417,0.416788 c 0.180393,0 0.268168,0.19134 0.159029,0.347153 -0.0373,0.05326 -0.08282,0.07171 -0.176699,0.07171 -0.108097,0 -0.133181,-0.01407 -0.176699,-0.09823 -0.08582,-0.165932 0.0078,-0.320649 0.194369,-0.320649 z" />
  <path
     id="path1-36"
     style="fill:currentColor;fill-opacity:1;stroke:none;stroke-width:0.124104;stroke-dasharray:none;stroke-dashoffset:2.2;stroke-opacity:0.3"
     d="m 14.021099,11.207529 c -0.06523,-2.7e-5 -0.135047,0.02623 -0.222431,0.07744 -0.207942,0.121835 -0.479893,0.179294 -0.853351,0.179294 -0.373425,0 -0.654446,-0.05868 -0.861152,-0.179813 -0.165749,-0.09713 -0.264703,-0.09842 -0.403809,-0.0046 -0.357127,0.240662 -0.62628,1.012267 -0.705238,2.020557 -0.04735,0.604628 -0.0031,0.923391 0.153311,1.102784 0.07546,0.08649 0.260665,0.07183 0.427716,-0.0343 0.141607,-0.08996 0.310333,-0.288477 0.511911,-0.602326 0.182153,-0.283608 0.40248,-0.377017 0.889733,-0.377816 0.486283,-7.65e-4 0.677387,0.09125 0.901686,0.436021 0.376321,0.578447 0.72416,0.779828 0.928191,0.537359 0.113031,-0.134326 0.133719,-0.264107 0.128366,-0.804479 -0.0098,-0.981615 -0.266353,-1.87461 -0.636118,-2.215438 -0.09848,-0.09078 -0.174941,-0.134569 -0.258815,-0.134604 z m -2.112591,0.578416 h 0.225551 0.22555 v 0.193324 0.193326 h 0.19333 0.193331 v 0.241656 0.241656 h -0.193331 -0.19333 v 0.209435 0.209435 h -0.204243 c -0.112206,0 -0.213221,-0.01005 -0.225032,-0.02182 -0.0118,-0.01181 -0.02182,-0.105569 -0.02182,-0.208914 v -0.188138 h -0.193337 -0.193331 v -0.241656 -0.241656 h 0.193331 0.193332 v -0.193326 z m 1.83871,0 c 0.203478,0 0.290618,0.225442 0.14396,0.372098 -0.09327,0.09326 -0.178394,0.100588 -0.270247,0.02287 -0.159321,-0.134809 -0.07616,-0.394964 0.126287,-0.394964 z m -0.391336,0.413154 c 0.05081,3.5e-5 0.101967,0.02029 0.142399,0.06495 0.06302,0.06964 0.06984,0.229093 0.013,0.303499 -0.111241,0.145623 -0.378344,0.05196 -0.378344,-0.13252 0,-0.140009 0.111172,-0.236016 0.22295,-0.23594 z m 0.798786,0.0078 c 0.05856,0.0011 0.115418,0.02047 0.148634,0.05716 0.06302,0.06964 0.06983,0.229092 0.013,0.303499 -0.118321,0.154886 -0.378346,0.05122 -0.378346,-0.150713 0,-0.06121 0.02453,-0.127549 0.05873,-0.158506 0.03909,-0.03538 0.09943,-0.05251 0.15799,-0.05145 z m -0.393417,0.416788 c 0.180393,0 0.268168,0.19134 0.159029,0.347153 -0.0373,0.05326 -0.08282,0.07171 -0.176699,0.07171 -0.108097,0 -0.133181,-0.01407 -0.176699,-0.09823 -0.08582,-0.165932 0.0078,-0.320649 0.194369,-0.320649 z"
     class="ColorScheme-Text" />
  <path
     id="gradient-path1"
     style="opacity:0.3;baseline-shift:baseline;display:inline;overflow:visible;vector-effect:none;enable-background:accumulate;stop-color:#000000;stop-opacity:1;fill:url(#linearGradient5)"
     d="M 8.4453131 1.2753492 C 4.4913166 1.2753492 1.2794833 4.4784283 1.2794833 8.4236094 C 1.2794833 12.36879 4.4913166 15.572386 8.4453131 15.572386 C 9.1638027 15.572386 9.8576697 15.466358 10.51233 15.269568 C 11.133159 15.890536 11.991864 16.275172 12.939524 16.275172 C 14.830708 16.275172 16.367154 14.744327 16.367154 12.85736 C 16.367154 11.897867 15.969699 11.029882 15.330545 10.408462 C 15.513101 9.7781514 15.611143 9.1121932 15.611143 8.4236094 C 15.611143 4.4784283 12.39931 1.2753492 8.4453131 1.2753492 z " />
</svg>
