<?xml version="1.0" encoding="UTF-8" standalone="no"?>
<svg
   width="64"
   height="64"
   version="1.1"
   viewBox="0 0 16.933 16.933"
   id="svg7"
   sodipodi:docname="steam_icon_782330.svg"
   inkscape:version="1.4.2 (ebf0e940d0, 2025-05-08)"
   xmlns:inkscape="http://www.inkscape.org/namespaces/inkscape"
   xmlns:sodipodi="http://sodipodi.sourceforge.net/DTD/sodipodi-0.dtd"
   xmlns:xlink="http://www.w3.org/1999/xlink"
   xmlns="http://www.w3.org/2000/svg"
   xmlns:svg="http://www.w3.org/2000/svg"
   xmlns:rdf="http://www.w3.org/1999/02/22-rdf-syntax-ns#"
   xmlns:cc="http://creativecommons.org/ns#"
   xmlns:dc="http://purl.org/dc/elements/1.1/">
  <sodipodi:namedview
     id="namedview7"
     pagecolor="#9c4444"
     bordercolor="#000000"
     borderopacity="0.25"
     inkscape:showpageshadow="2"
     inkscape:pageopacity="0.0"
     inkscape:pagecheckerboard="0"
     inkscape:deskcolor="#d1d1d1"
     inkscape:zoom="4.3531261"
     inkscape:cx="36.180895"
     inkscape:cy="25.958357"
     inkscape:window-width="2560"
     inkscape:window-height="1388"
     inkscape:window-x="0"
     inkscape:window-y="0"
     inkscape:window-maximized="1"
     inkscape:current-layer="svg7"
     showgrid="false" />
  <defs
     id="defs2">
    <filter
       style="color-interpolation-filters:sRGB;"
       inkscape:label="Blur"
       id="filter3"
       x="-0.10843471"
       y="-0.10870992"
       width="1.2168694"
       height="1.2174198">
      <feGaussianBlur
         stdDeviation="0.5 0.5"
         result="blur"
         id="feGaussianBlur3" />
    </filter>
    <filter
       style="color-interpolation-filters:sRGB"
       inkscape:label="Blur"
       id="filter3-8"
       x="-0.10843471"
       y="-0.10870992"
       width="1.2168694"
       height="1.2174198">
      <feGaussianBlur
         stdDeviation="0.5 0.5"
         result="blur"
         id="feGaussianBlur3-7" />
    </filter>
    <style
       id="current-color-scheme"
       type="text/css">.ColorScheme-Text {color:#d8dee9} .ColorScheme-Highlight {color:#3b4252}</style>
    <linearGradient
       id="linearGradient4"
       inkscape:collect="always">
      <stop
         style="stop-color:#000000;stop-opacity:1;"
         offset="0"
         id="stop4" />
      <stop
         style="stop-color:#000000;stop-opacity:0;"
         offset="1"
         id="stop5" />
    </linearGradient>
    <linearGradient
       inkscape:collect="always"
       xlink:href="#linearGradient4"
       id="linearGradient5"
       x1="14.157616"
       y1="14.109557"
       x2="3.4890218"
       y2="3.440964"
       gradientUnits="userSpaceOnUse" />
  </defs>
  <metadata
     id="metadata2">
    <rdf:RDF>
      <cc:Work
         rdf:about="">
        <dc:format>image/svg+xml</dc:format>
        <dc:type
           rdf:resource="http://purl.org/dc/dcmitype/StillImage" />
      </cc:Work>
    </rdf:RDF>
  </metadata>
  <ellipse
     style="opacity:1;fill:none;stroke:#000000;stroke-width:0.582072;stroke-dasharray:none;stroke-opacity:1;filter:url(#filter3)"
     id="path1-5"
     cx="8.4450111"
     cy="8.423522"
     rx="6.8752708"
     ry="6.8578653" />
  <ellipse
     style="opacity:1;fill:none;stroke-width:0.58207188;stroke-opacity:1;stroke:currentColor;stroke-dasharray:none;fill-opacity:1"
     id="path1"
     cx="8.4450111"
     cy="8.423522"
     rx="6.8752708"
     ry="6.8578653"
     class="ColorScheme-Text" />
  <ellipse
     style="fill:currentColor;stroke:none;stroke-width:0.285728;stroke-dasharray:none;stroke-opacity:1"
     id="path1-2"
     cx="8.4450111"
     cy="8.423522"
     rx="6.5766377"
     ry="6.5612183"
     class="ColorScheme-Highlight" />
  <path
     id="path5"
     style="opacity:0.3;fill:#000000;fill-opacity:1;stroke-width:0.00243138"
     d="m 3.836369,5.9400435 v 0.0052 c 0.010981,0.021684 0.1050854,0.099669 0.1237811,0.099669 0.00651,0 0.013772,0.00472 0.016067,0.010521 0.00228,0.00578 0.050847,0.046044 0.1078598,0.089435 l 0.1036643,0.078903 v 2.2539757 c 0,1.2396888 0.00432,2.2539938 0.00959,2.2539938 0.00965,0 2.0953444,-1.5591054 2.1197212,-1.5845451 0.00916,-0.00956 0.00463,-0.019372 -0.015205,-0.032818 L 6.2735778,9.0951901 6.2734126,7.6108849 6.2732474,6.126579 6.1653502,6.0449112 c -0.059345,-0.044922 -0.1200615,-0.088666 -0.1349168,-0.097203 -0.00545,-0.00309 -0.00651,-0.00562 -0.00155,-0.00764 z m 2.7481603,0 c -0.01243,0.011437 -0.059883,0.048673 -0.1160869,0.090925 l -0.1192721,0.089637 -0.00326,1.4228484 c -0.0018,0.7825706 -0.00113,1.4313467 0.00146,1.4417132 0.00407,0.016523 1.2322896,0.944731 1.3125582,0.9919791 0.029978,0.017649 0.0413,0.010341 0.3965784,-0.2559184 L 8.4222462,9.4471438 V 7.7862497 6.1253377 L 8.3060143,6.0389036 c -0.063927,-0.047543 -0.1215965,-0.091086 -0.1281619,-0.096762 -1.293e-4,-1.115e-4 -2.099e-4,-2.571e-4 -2.45e-4,-3.678e-4 -7.3e-6,-4.48e-5 -9.6e-6,-1.214e-4 0,-1.661e-4 1.638e-4,-5.306e-4 0.00155,-0.00106 0.00391,-0.00155 z m 2.1556693,0 -0.1158112,0.087005 c -0.069721,0.052378 -0.1273992,0.099029 -0.1281618,0.1036631 -0.00611,0.037239 -0.00643,3.306472 -2.98e-4,3.3155851 0.00708,0.010479 0.3164148,0.2448019 0.3869153,0.2930621 0.014919,0.010213 0.095808,0.070881 0.1797535,0.1348064 0.083946,0.063924 0.1580165,0.1162163 0.1646063,0.1162163 0.00659,0 0.3116091,-0.2243338 0.6778231,-0.4985297 L 10.570885,8.9933048 V 7.5579217 6.1225216 l -0.03642,-0.029375 c -0.06042,-0.048764 -0.192192,-0.1419095 -0.213639,-0.1510225 -0.0016,-7.261e-4 -0.0015,-0.00138 2.63e-4,-0.00204 z m 1.9060824,0 v 1.5761701 c 0,1.5738292 -1.76e-4,1.5844414 -0.02515,1.5909691 -0.01383,0.00358 -0.02478,0.015806 -0.02434,0.027096 5.93e-4,0.015628 0.620111,0.4904662 0.803684,0.6159978 l 0.02556,0.017467 -0.0035,-0.6048977 c -0.0019,-0.3326977 -2.27e-4,-0.6049015 0.0038,-0.6048989 0.004,1.4e-6 0.05338,0.1625687 0.109683,0.3612563 0.140528,0.4958274 0.141123,0.497741 0.153156,0.4853324 0.0058,-0.00602 0.06201,-0.1919408 0.124757,-0.4130884 0.06274,-0.2211475 0.119332,-0.4133839 0.125751,-0.4272062 0.0073,-0.01579 0.01199,0.2771615 0.01254,0.7882966 l 9.21e-4,0.8134404 0.374197,0.279736 c 0.205807,0.153856 0.381099,0.281156 0.389527,0.282884 0.01202,0.0025 0.01542,-0.485375 0.01581,-2.2554673 l 5.03e-4,-2.2585954 0.173626,-0.1287869 c 0.0955,-0.070839 0.177275,-0.1288059 0.181723,-0.1288059 0.0043,0 0.0081,1.3711867 0.0081,3.0470762 V 5.9400455 H 11.92443 c 0.0023,5.519e-4 0.0036,0.00113 0.0036,0.0017 0,0.00545 -0.01631,0.063406 -0.03624,0.1287869 -0.01993,0.065375 -0.07194,0.2461081 -0.11559,0.4016028 -0.04365,0.155495 -0.08246,0.2866155 -0.08627,0.2913868 -0.0038,0.00472 -0.06095,-0.1804015 -0.126983,-0.4115045 L 11.44513,5.9400605 Z M 4.9667799,6.7736931 h 0.2307756 c 0.2144301,0 0.2331059,0.00188 0.2638706,0.026046 l 0.033095,0.02603 -4.55e-4,0.8566752 -4.376e-4,0.8566573 -0.2537638,0.1884793 C 5.1002845,8.8312441 4.9817516,8.9179518 4.9764431,8.9202561 c -0.0053,0.00228 -0.00966,-0.4797244 -0.00966,-1.071181 z m 2.4103536,0 c 0.1565432,0 0.1951964,0.00366 0.2272601,0.021976 l 0.038631,0.022001 7.33e-5,1.0523325 c 4.68e-5,0.5787856 -0.00414,1.051755 -0.00936,1.0510436 C 7.6286166,8.9203339 7.5156804,8.8369398 7.3828872,8.7357162 7.250094,8.6344918 7.1383429,8.5483065 7.1345523,8.5441823 c -0.00374,-0.00407 -0.007,-0.3933137 -0.00716,-0.8648488 l -2.799e-4,-0.8573378 0.030701,-0.02415 c 0.027202,-0.02139 0.052281,-0.02415 0.2193307,-0.02415 z m 2.1571234,8.93e-4 c 0.1782349,0 0.2042392,0.00261 0.2293036,0.023581 l 0.028272,0.023596 v 0.858718 0.8587003 L 9.5412517,8.7274205 c -0.1378183,0.1035242 -0.25514,0.1897456 -0.2607222,0.1916079 -0.00562,0.00188 -0.00856,-0.4694051 -0.00659,-1.0472527 l 0.0035,-1.05062 0.027887,-0.023287 c 0.024606,-0.020537 0.051645,-0.023288 0.228954,-0.023288 z m 1.3524991,3.06806 0.0026,0.032614 c 0.0027,0.034859 0.04935,0.072591 0.16538,0.1336649 0.04777,0.02515 0.07465,0.05172 0.112166,0.110952 0.02714,0.04285 0.07944,0.124496 0.116236,0.181448 0.03679,0.05695 0.0669,0.106422 0.0669,0.109939 0,0.0035 -0.259139,0.0064 -0.575872,0.0064 h -0.575939 l -0.01649,-0.03084 c -0.0291,-0.05434 -0.08346,-0.06966 -0.2472529,-0.06973 -0.1481307,-4.6e-5 -0.1492432,-2.79e-4 -0.2180025,-0.04356 -0.1737247,-0.109396 -0.1655742,-0.107181 -0.39539,-0.107181 -0.227021,0 -0.2360916,0.0035 -0.1769382,0.06728 0.030474,0.03288 0.032729,0.03324 0.2057249,0.03324 h 0.1748953 l 0.097111,0.06339 c 0.05341,0.03487 0.113403,0.06665 0.1333342,0.07064 0.064505,0.0129 0.02637,0.02713 -0.054441,0.0203 -0.057591,-0.0048 -0.095282,-0.01688 -0.1413596,-0.04508 -0.059331,-0.03631 -0.072004,-0.03884 -0.227297,-0.04557 l -0.1644594,-0.0072 -0.053712,-0.04398 C 9.0843824,10.255282 9.031166,10.209775 8.9956692,10.178348 8.8443799,10.044405 8.8082336,10.021174 8.7256143,10.004779 c -0.04392,-0.00872 -0.082602,-0.013109 -0.085955,-0.00976 -0.016638,0.016634 0.034845,0.080368 0.092177,0.1141183 0.058955,0.0347 0.070153,0.04925 0.1287871,0.167145 0.035326,0.07103 0.064219,0.131894 0.064219,0.135267 0,0.0033 -0.022156,0.0062 -0.049235,0.0062 -0.042529,0 -0.052865,-0.0059 -0.075867,-0.04311 -0.035204,-0.05701 -0.095286,-0.108502 -0.1608879,-0.137922 -0.045231,-0.02028 -0.055259,-0.03173 -0.066027,-0.07539 C 8.5411953,10.032981 8.506774,9.920007 8.4949316,9.9056265 8.474721,9.8810843 8.4371984,9.8871411 8.417021,9.918197 8.406924,9.933746 8.383723,10.006275 8.365466,10.079379 8.333534,10.20726 8.330685,10.21287 8.290698,10.227328 c -0.059564,0.02154 -0.1503777,0.09423 -0.1823494,0.14596 -0.022734,0.03678 -0.034763,0.04438 -0.070365,0.04438 -0.023629,0 -0.042967,-0.0037 -0.042967,-0.0082 0,-0.0045 0.028049,-0.0654 0.06234,-0.135266 0.05784,-0.11785 0.067378,-0.130092 0.1321014,-0.169319 0.044197,-0.02679 0.072572,-0.0534 0.077398,-0.07263 0.00414,-0.0167 0.00554,-0.032293 0.00301,-0.034658 -0.00261,-0.00237 -0.039534,0.00212 -0.082183,0.00999 -0.087894,0.01624 -0.1026004,0.02592 -0.2987302,0.196469 l -0.1421533,0.123604 -0.1566181,0.0042 c -0.1499602,0.0041 -0.1592929,0.0058 -0.2193822,0.04324 -0.052393,0.03261 -0.079181,0.0401 -0.1621766,0.04535 -0.05539,0.0035 -0.088286,0.0018 -0.074289,-0.0038 0.08199,-0.03284 0.1454501,-0.06641 0.1992834,-0.105467 l 0.061054,-0.04429 h 0.1707163 c 0.1681428,0 0.171235,-5.06e-4 0.2059463,-0.03376 0.065596,-0.06284 0.0553,-0.06678 -0.1752264,-0.06672 l -0.2104547,7.4e-5 -0.069112,0.04347 c -0.1636555,0.10297 -0.1550253,0.100293 -0.3438617,0.10714 l -0.1742326,0.0064 -0.040714,0.04712 -0.040696,0.04712 h -0.573534 c -0.3424885,0 -0.5735344,-0.0047 -0.5735344,-0.01161 0,-0.0064 0.05192,-0.09134 0.1153512,-0.188809 l 0.1153318,-0.177222 0.1094061,-0.062616 c 0.071122,-0.040698 0.1118896,-0.072112 0.1165111,-0.089785 0.00986,-0.037735 -3.321e-4,-0.048901 -0.032964,-0.036077 -0.015302,0.00601 -0.070235,0.023528 -0.1220687,0.038929 -0.063894,0.018984 -0.1185166,0.04633 -0.1696306,0.084925 -0.069178,0.052235 -0.2245484,0.1708974 -0.4146545,0.3166754 -0.041462,0.0318 -0.1488859,0.113751 -0.2387271,0.18211 -0.089841,0.06836 -0.2103213,0.160273 -0.2677165,0.204253 -0.057391,0.04398 -0.1973414,0.150637 -0.3109891,0.237016 -0.1136484,0.08638 -0.2066276,0.159178 -0.2066276,0.161771 0,0.0026 0.1044576,0.06023 0.2321383,0.128069 l 0.2321561,0.12334 3.125e-4,0.0573 c 1.71e-4,0.03151 0.00741,0.06618 0.016011,0.07705 0.00863,0.01087 0.1113548,0.0685 0.2282549,0.128052 l 0.2125351,0.108283 h 1.0170484 1.0170294 l 0.025916,0.03292 c 0.042512,0.05405 0.093961,0.06758 0.2568755,0.0676 l 0.1480586,1.7e-5 0.094645,0.06063 c 0.05206,0.03336 0.1136746,0.06728 0.1369419,0.07539 0.025264,0.0088 0.1199826,0.01475 0.235193,0.01475 0.1783699,0 0.1928956,-0.0017 0.1928956,-0.02294 0,-0.01261 -0.013089,-0.03524 -0.029083,-0.05027 -0.026493,-0.0249 -0.042422,-0.02732 -0.1790544,-0.02738 -0.1737231,-8.2e-5 -0.2287442,-0.01225 -0.2870981,-0.06348 -0.046094,-0.04048 -0.1180079,-0.07466 -0.1570227,-0.07466 -0.013634,0 -0.02765,-0.0047 -0.031141,-0.01029 -0.0035,-0.0057 0.042422,-0.0077 0.1020245,-0.0046 0.092023,0.0048 0.1169132,0.01112 0.1651223,0.0417 0.056089,0.03557 0.059075,0.03599 0.2483349,0.03599 0.1190449,0 0.1946146,0.005 0.1996326,0.01308 0.00439,0.0072 0.019112,0.05926 0.032598,0.11572 0.013485,0.05647 0.033682,0.112792 0.044872,0.125162 0.019363,0.0214 -0.069145,0.02247 -2.2287222,0.02249 H 8.484538 l 0.017516,-0.02827 c 0.00964,-0.01556 0.027756,-0.07068 0.040273,-0.122512 0.012511,-0.05183 0.031281,-0.10132 0.041706,-0.109957 0.013218,-0.01095 0.073523,-0.0157 0.1993753,-0.0157 0.1819221,0 0.2217206,-0.0081 0.2796985,-0.05648 0.016563,-0.01384 0.238728,-0.03618 0.238728,-0.024 0,0.0027 -0.024516,0.01091 -0.054502,0.01844 -0.029977,0.0076 -0.084301,0.03628 -0.1207078,0.06383 -0.036407,0.02757 -0.0801,0.05538 -0.097093,0.06184 -0.016995,0.0064 -0.1058024,0.01174 -0.1973502,0.01174 h -0.166441 l -0.027495,0.03718 c -0.015124,0.02046 -0.02748,0.04307 -0.02748,0.05027 0,0.01854 0.373573,0.01723 0.428476,-0.0016 0.02349,-0.0081 0.082289,-0.04047 0.1306648,-0.07213 l 0.087963,-0.05757 0.1696307,-0.0067 c 0.1769554,-0.0069 0.2068117,-0.01521 0.2489984,-0.06883 l 0.024777,-0.03149 H 10.7149 11.728525 l 0.224684,-0.116235 0.224701,-0.116216 0.0038,-0.06868 0.0038,-0.06869 0.222493,-0.119788 c 0.122371,-0.06589 0.224815,-0.125447 0.227646,-0.132358 0.0029,-0.0069 -0.05488,-0.05773 -0.128253,-0.112922 -0.07321,-0.05512 -0.195439,-0.148474 -0.271458,-0.207398 -0.07602,-0.05892 -0.150353,-0.115544 -0.165195,-0.125825 -0.01484,-0.01028 -0.104024,-0.07807 -0.198179,-0.150634 -0.09415,-0.07257 -0.190131,-0.146059 -0.213272,-0.163336 -0.02314,-0.01727 -0.119562,-0.09079 -0.214283,-0.163355 -0.09472,-0.07257 -0.184518,-0.140056 -0.199541,-0.149973 -0.01503,-0.00992 -0.04428,-0.033191 -0.06502,-0.051722 -0.02074,-0.01853 -0.05184,-0.037654 -0.06911,-0.042501 -0.01727,-0.00484 -0.04836,-0.013544 -0.0691,-0.019326 -0.02074,-0.00578 -0.06417,-0.018855 -0.09652,-0.029064 z M 9.2666496,10.64287 9.4192925,10.802599 c 0.083957,0.08785 0.2063704,0.21388 0.2720239,0.280066 l 0.1193638,0.120339 0.00331,-0.279589 0.00331,-0.279569 h 0.1002748 0.100276 v 0.402081 0.402099 H 9.9005317 9.7830997 l -0.11189,-0.116619 C 9.6096689,11.267293 9.4896903,11.142322 9.4045968,11.053678 9.319503,10.965037 9.2471217,10.895269 9.2437462,10.898643 c -0.00496,0.005 -0.018859,0.413795 -0.017703,0.521078 2.972e-4,0.02682 -0.00448,0.02827 -0.093945,0.02827 h -0.09418 V 11.05846 c 0,-0.214237 -0.00138,-0.393769 -0.00309,-0.398953 -0.0017,-0.0052 0.049732,-0.01106 0.1143565,-0.01305 z m 2.0895544,3.6e-5 v 0.317745 0.317744 l 0.261605,0.0033 0.261607,0.0034 0.06257,0.04213 0.06256,0.04213 -0.0593,0.03928 -0.05931,0.0393 h -0.360668 -0.360667 l -0.0081,-0.04026 c -0.0044,-0.02213 -0.0058,-0.201668 -0.003,-0.398952 l 0.0051,-0.358699 0.09875,-0.0037 z m -6.2763366,9.21e-4 h 0.4586441 0.4586244 v 0.07538 0.07539 H 5.641437 5.2857398 l 0.00228,0.06597 c 0.00122,0.03628 0.00301,0.07303 0.00391,0.08167 0.00122,0.01207 0.068802,0.01571 0.2914779,0.01571 h 0.2898786 l 0.055665,0.03829 c 0.030612,0.02106 0.055625,0.04227 0.055567,0.04712 -5.61e-5,0.0048 -0.024077,0.02296 -0.053395,0.04023 -0.051669,0.03045 -0.062202,0.0316 -0.342316,0.0377 l -0.2889946,0.0063 -0.00749,0.05623 c -0.014399,0.107938 -0.038012,0.10083 0.3346413,0.10083 0.1817681,0 0.3394296,0.0034 0.350361,0.0076 0.015009,0.0058 0.019876,0.02575 0.019876,0.08169 v 0.07404 H 5.5444654 c -0.3507598,0 -0.4540362,-0.0036 -0.4584778,-0.01571 -0.00317,-0.0087 -0.00724,-0.08628 -0.00904,-0.17254 l -0.00335,-0.156778 -0.040347,-0.02537 c -0.051906,-0.03262 -0.051393,-0.0485 0.00261,-0.08191 l 0.043978,-0.02719 v -0.162341 z m 0.9549637,0 H 6.524213 7.0136132 l -3.669e-4,0.07538 -3.5e-4,0.07539 h -0.19376 -0.193743 v 0.326692 0.326707 H 6.524877 6.4243616 V 11.121339 10.794648 H 6.2372262 c -0.2096447,0 -0.2023933,0.0034 -0.2023933,-0.09527 z m 1.0177848,0 h 0.4554964 0.4554771 v 0.07538 0.07539 H 7.6086279 7.2536665 v 0.08167 0.08169 h 0.2908161 0.2908162 l 0.054705,0.03456 c 0.030082,0.019 0.054713,0.04072 0.054729,0.04826 8.8e-6,0.0076 -0.0276,0.02875 -0.06137,0.04712 -0.061332,0.03339 -0.061624,0.03341 -0.3461083,0.03341 H 7.2525088 l 0.00366,0.0829 0.00366,0.0829 0.3329841,-6.29e-4 c 0.183139,-3.32e-4 0.3414484,0.0033 0.3518148,0.0082 0.013544,0.0064 0.018851,0.02916 0.018851,0.0811 v 0.07227 l -0.4554751,-1.8e-5 -0.4554955,-1.9e-5 v -0.173609 -0.173607 l -0.050856,-0.02857 c -0.056349,-0.03167 -0.053265,-0.0485 0.015384,-0.08401 l 0.035471,-0.01836 v -0.163021 z m 0.9675172,0 0.3738277,7.27e-4 c 0.4087828,7.7e-4 0.440568,0.0055 0.5172862,0.07797 0.073434,0.06931 0.098282,0.192626 0.058163,0.288644 -0.016612,0.03975 -0.095507,0.122451 -0.1172657,0.122916 -0.00496,1.06e-4 -0.016906,0.0053 -0.0266,0.01136 -0.013887,0.0087 0.00399,0.04205 0.084264,0.156876 L 9.011723,11.448034 H 8.9003507 8.7889928 l -0.092288,-0.127727 c -0.050758,-0.07023 -0.095797,-0.132992 -0.1000923,-0.139483 -0.011346,-0.01714 -0.3332559,-0.0251 -0.3633735,-0.0089 -0.022049,0.0118 -0.024621,0.02693 -0.024621,0.144672 V 11.44809 H 8.114376 8.020137 v -0.4021 z m 2.4403009,0 0.127481,1.48e-4 0.127463,1.66e-4 0.07526,0.147488 c 0.04139,0.08112 0.10555,0.201198 0.142574,0.266852 0.03703,0.06565 0.09604,0.174494 0.131162,0.241876 0.03513,0.06737 0.0685,0.122511 0.07417,0.122511 0.0057,0 0.01032,0.0057 0.01032,0.01257 0,0.0074 -0.04388,0.01257 -0.106535,0.01257 h -0.106542 l -0.02485,-0.04872 c -0.01367,-0.02678 -0.03404,-0.05224 -0.04526,-0.05653 -0.01123,-0.0043 -0.14112,-0.0078 -0.288646,-0.0078 -0.291904,0 -0.288754,-7.26e-4 -0.319842,0.07432 l -0.01605,0.03877 h -0.105283 c -0.05791,0 -0.105282,-0.0028 -0.105282,-0.0061 0,-0.0033 0.01628,-0.03304 0.03617,-0.06597 0.03211,-0.05319 0.268794,-0.491863 0.359397,-0.666154 z m -2.2518227,0.150786 v 0.09844 c 0,0.05413 0.00407,0.102515 0.00909,0.107511 0.00505,0.0051 0.1204629,0.0073 0.2566006,0.0053 0.2421684,-0.0038 0.2482265,-0.0044 0.2799198,-0.03431 0.057758,-0.0543 0.038304,-0.135786 -0.039485,-0.165359 -0.016654,-0.0064 -0.1373383,-0.0115 -0.2681951,-0.0115 z m 2.3715547,0.03142 c -0.0092,0.0012 -0.05721,0.08135 -0.107235,0.179054 l -0.09166,0.179056 h 0.19459 c 0.107025,0 0.197254,-0.0043 0.200516,-0.0096 0.0093,-0.015 -0.178298,-0.3485 -0.196007,-0.3485 -6.8e-5,0 -1.29e-4,-1.1e-5 -2.1e-4,0 z"
     class="ColorScheme-Text" />
  <path
     id="path5-7"
     style="fill:currentColor;stroke-width:0.00243138"
     d="m 3.836369,5.4109095 v 0.0052 c 0.010981,0.021684 0.1050854,0.099669 0.1237811,0.099669 0.00651,0 0.013772,0.00472 0.016067,0.010521 0.00228,0.00578 0.050847,0.046044 0.1078598,0.089435 l 0.1036643,0.078903 v 2.2539757 c 0,1.2396888 0.00432,2.2539938 0.00959,2.2539938 0.00965,0 2.0953444,-1.5591054 2.1197212,-1.5845451 0.00916,-0.00956 0.00463,-0.019372 -0.015205,-0.032818 L 6.2735778,8.5660561 6.2734126,7.0817509 6.2732474,5.597445 6.1653502,5.5157772 c -0.059345,-0.044922 -0.1200615,-0.088666 -0.1349168,-0.097203 -0.00545,-0.00309 -0.00651,-0.00562 -0.00155,-0.00764 z m 2.7481603,0 c -0.01243,0.011437 -0.059883,0.048673 -0.1160869,0.090925 l -0.1192721,0.089637 -0.00326,1.4228484 c -0.0018,0.7825706 -0.00113,1.4313467 0.00146,1.4417132 0.00407,0.016523 1.2322896,0.944731 1.3125582,0.9919791 0.029978,0.017649 0.0413,0.010341 0.3965784,-0.2559184 L 8.4222462,8.9180098 V 7.2571157 5.5962037 L 8.3060143,5.5097696 c -0.063927,-0.047543 -0.1215965,-0.091086 -0.1281619,-0.096762 -1.293e-4,-1.115e-4 -2.099e-4,-2.571e-4 -2.45e-4,-3.678e-4 -7.3e-6,-4.48e-5 -9.6e-6,-1.214e-4 0,-1.661e-4 1.638e-4,-5.306e-4 0.00155,-0.00106 0.00391,-0.00155 z m 2.1556693,0 -0.1158112,0.087005 c -0.069721,0.052378 -0.1273992,0.099029 -0.1281618,0.1036631 -0.00611,0.037239 -0.00643,3.306472 -2.98e-4,3.3155851 0.00708,0.010479 0.3164148,0.2448019 0.3869153,0.2930621 0.014919,0.010213 0.095808,0.070881 0.1797535,0.1348064 0.083946,0.063924 0.1580165,0.1162163 0.1646063,0.1162163 0.00659,0 0.3116091,-0.2243338 0.6778231,-0.4985297 L 10.570885,8.4641708 V 7.0287877 5.5933876 l -0.03642,-0.029375 c -0.06042,-0.048764 -0.192192,-0.1419095 -0.213639,-0.1510225 -0.0016,-7.261e-4 -0.0015,-0.00138 2.63e-4,-0.00204 z m 1.9060824,0 v 1.5761701 c 0,1.5738292 -1.76e-4,1.5844414 -0.02515,1.5909691 -0.01383,0.00358 -0.02478,0.015806 -0.02434,0.027096 5.93e-4,0.015628 0.620111,0.4904662 0.803684,0.6159978 l 0.02556,0.017467 -0.0035,-0.6048977 c -0.0019,-0.3326977 -2.27e-4,-0.6049015 0.0038,-0.6048989 0.004,1.4e-6 0.05338,0.1625687 0.109683,0.3612563 0.140528,0.4958274 0.141123,0.497741 0.153156,0.4853324 0.0058,-0.00602 0.06201,-0.1919408 0.124757,-0.4130884 0.06274,-0.2211475 0.119332,-0.4133839 0.125751,-0.4272062 0.0073,-0.01579 0.01199,0.2771615 0.01254,0.7882966 l 9.21e-4,0.8134402 0.374197,0.2797361 c 0.205807,0.1538561 0.381099,0.2811561 0.389527,0.2828841 0.01202,0.0025 0.01542,-0.4853748 0.01581,-2.2554673 l 5.03e-4,-2.2585954 0.173626,-0.1287869 c 0.0955,-0.070839 0.177275,-0.1288059 0.181723,-0.1288059 0.0043,0 0.0081,1.3711867 0.0081,3.0470762 V 5.4109115 H 11.92443 c 0.0023,5.519e-4 0.0036,0.00113 0.0036,0.0017 0,0.00545 -0.01631,0.063406 -0.03624,0.1287869 -0.01993,0.065375 -0.07194,0.2461081 -0.11559,0.4016028 -0.04365,0.155495 -0.08246,0.2866155 -0.08627,0.2913868 -0.0038,0.00472 -0.06095,-0.1804015 -0.126983,-0.4115045 L 11.44513,5.4109265 Z M 4.9667799,6.2445591 h 0.2307756 c 0.2144301,0 0.2331059,0.00188 0.2638706,0.026046 l 0.033095,0.02603 -4.55e-4,0.8566752 -4.376e-4,0.8566573 -0.2537638,0.1884793 C 5.1002845,8.3021101 4.9817516,8.3888178 4.9764431,8.3911221 c -0.0053,0.00228 -0.00966,-0.4797244 -0.00966,-1.071181 z m 2.4103536,0 c 0.1565432,0 0.1951964,0.00366 0.2272601,0.021976 l 0.038631,0.022001 7.33e-5,1.0523325 c 4.68e-5,0.5787856 -0.00414,1.051755 -0.00936,1.0510436 C 7.6286166,8.3911999 7.5156804,8.3078058 7.3828872,8.2065822 7.250094,8.1053578 7.1383429,8.0191725 7.1345523,8.0150483 c -0.00374,-0.00407 -0.007,-0.3933137 -0.00716,-0.8648488 l -2.799e-4,-0.8573378 0.030701,-0.02415 c 0.027202,-0.02139 0.052281,-0.02415 0.2193307,-0.02415 z m 2.1571234,8.93e-4 c 0.1782349,0 0.2042392,0.00261 0.2293036,0.023581 l 0.028272,0.023596 v 0.858718 0.8587003 L 9.5412517,8.1982865 c -0.1378183,0.1035242 -0.25514,0.1897456 -0.2607222,0.1916079 -0.00562,0.00188 -0.00856,-0.4694051 -0.00659,-1.0472527 l 0.0035,-1.05062 0.027887,-0.023287 c 0.024606,-0.020537 0.051645,-0.023288 0.228954,-0.023288 z m 1.3524991,3.06806 0.0026,0.032614 c 0.0027,0.034859 0.04935,0.072591 0.16538,0.1336651 0.04777,0.025147 0.07465,0.051721 0.112166,0.1109522 0.02714,0.042846 0.07944,0.1244954 0.116236,0.1814479 0.03679,0.056952 0.0669,0.1064213 0.0669,0.1099391 0,0.00347 -0.259139,0.00639 -0.575872,0.00639 h -0.575939 l -0.01649,-0.03084 C 10.152634,9.8033367 10.098273,9.7880151 9.9344841,9.7879535 9.7863534,9.7879066 9.7852409,9.787674 9.7164816,9.7443909 9.5427569,9.6349946 9.5509074,9.6372097 9.3210916,9.6372097 c -0.227021,0 -0.2360916,0.00347 -0.1769382,0.067276 0.030474,0.032884 0.032729,0.033245 0.2057249,0.033245 h 0.1748953 l 0.097111,0.063387 c 0.05341,0.034871 0.113403,0.066653 0.1333342,0.070642 0.064505,0.012904 0.02637,0.027125 -0.054441,0.020303 -0.057591,-0.00485 -0.095282,-0.016884 -0.1413596,-0.045079 -0.059331,-0.03631 -0.072004,-0.038835 -0.227297,-0.045572 L 9.1676618,9.7942529 9.1139497,9.7502751 C 9.0843824,9.7261482 9.031166,9.6806407 8.9956692,9.6492144 8.8443799,9.5152714 8.8082336,9.4920402 8.7256143,9.4756447 c -0.04392,-0.00872 -0.082602,-0.013109 -0.085955,-0.00976 -0.016638,0.016634 0.034845,0.080368 0.092177,0.1141184 0.058955,0.0347 0.070153,0.049252 0.1287871,0.1671447 0.035326,0.071027 0.064219,0.1318944 0.064219,0.1352675 0,0.00331 -0.022156,0.00616 -0.049235,0.00616 -0.042529,0 -0.052865,-0.00586 -0.075867,-0.043108 C 8.7645363,9.7884555 8.7044543,9.7369649 8.6388525,9.7075452 8.5936213,9.6872652 8.5835938,9.6758163 8.5728256,9.6321536 8.5411953,9.5038471 8.506774,9.390873 8.4949316,9.3764925 8.474721,9.3519503 8.4371984,9.3580071 8.417021,9.389063 8.406924,9.404612 8.383723,9.477141 8.365466,9.5502453 8.333534,9.678126 8.330685,9.6837358 8.290698,9.6981942 8.231134,9.7197372 8.1403203,9.7924222 8.1083486,9.8441545 c -0.022734,0.036779 -0.034763,0.044379 -0.070365,0.044379 -0.023629,0 -0.042967,-0.00369 -0.042967,-0.00824 0,-0.00454 0.028049,-0.065398 0.06234,-0.1352667 0.05784,-0.1178493 0.067378,-0.1300919 0.1321014,-0.1693184 0.044197,-0.026786 0.072572,-0.053395 0.077398,-0.072628 0.00414,-0.0167 0.00554,-0.032293 0.00301,-0.034658 -0.00261,-0.00237 -0.039534,0.00212 -0.082183,0.00999 -0.087894,0.016244 -0.1026004,0.025922 -0.2987302,0.1964683 l -0.1421533,0.1236039 -0.1566181,0.00424 c -0.1499602,0.00408 -0.1592929,0.00577 -0.2193822,0.04324 -0.052393,0.032606 -0.079181,0.040098 -0.1621766,0.04535 -0.05539,0.00347 -0.088286,0.00184 -0.074289,-0.00378 0.08199,-0.032837 0.1454501,-0.066414 0.1992834,-0.1054662 l 0.061054,-0.044287 h 0.1707163 c 0.1681428,0 0.171235,-5.067e-4 0.2059463,-0.033761 0.065596,-0.062841 0.0553,-0.066775 -0.1752264,-0.066723 l -0.2104547,7.39e-5 -0.069112,0.04347 C 7.152885,9.7838108 7.1615152,9.7811339 6.9726788,9.787981 L 6.7984462,9.794371 6.7577322,9.84149 6.7170362,9.888609 h -0.573534 c -0.3424885,0 -0.5735344,-0.0047 -0.5735344,-0.011611 0,-0.00639 0.05192,-0.091343 0.1153512,-0.188809 L 5.8006508,9.5109674 5.9100569,9.4483506 c 0.071122,-0.040698 0.1118896,-0.072112 0.1165111,-0.089785 0.00986,-0.037735 -3.321e-4,-0.048901 -0.032964,-0.036077 -0.015302,0.00601 -0.070235,0.023528 -0.1220687,0.038929 -0.063894,0.018984 -0.1185166,0.04633 -0.1696306,0.084925 -0.069178,0.052235 -0.2245484,0.1708972 -0.4146545,0.3166756 -0.041462,0.031799 -0.1488859,0.1137506 -0.2387271,0.1821103 -0.089841,0.068363 -0.2103213,0.1602725 -0.2677165,0.2042525 -0.057391,0.04398 -0.1973414,0.150637 -0.3109891,0.237016 -0.1136484,0.08638 -0.2066276,0.159178 -0.2066276,0.16177 0,0.0026 0.1044576,0.06023 0.2321383,0.12807 l 0.2321561,0.12334 3.125e-4,0.0573 c 1.71e-4,0.03151 0.00741,0.06618 0.016011,0.07705 0.00863,0.01087 0.1113548,0.0685 0.2282549,0.128052 l 0.2125351,0.108283 h 1.0170484 1.0170294 l 0.025916,0.03292 c 0.042512,0.05405 0.093961,0.06758 0.2568755,0.0676 l 0.1480586,1.6e-5 0.094645,0.06063 c 0.05206,0.03336 0.1136746,0.06728 0.1369419,0.07539 0.025264,0.0088 0.1199826,0.01475 0.235193,0.01475 0.1783699,0 0.1928956,-0.0017 0.1928956,-0.02294 0,-0.01261 -0.013089,-0.03524 -0.029083,-0.05027 -0.026493,-0.0249 -0.042422,-0.02732 -0.1790544,-0.02738 -0.1737231,-8.2e-5 -0.2287442,-0.01225 -0.2870981,-0.06348 -0.046094,-0.04048 -0.1180079,-0.07466 -0.1570227,-0.07466 -0.013634,0 -0.02765,-0.0047 -0.031141,-0.01029 -0.0035,-0.0057 0.042422,-0.0077 0.1020245,-0.0046 0.092023,0.0048 0.1169132,0.01112 0.1651223,0.0417 0.056089,0.03557 0.059075,0.03599 0.2483349,0.03599 0.1190449,0 0.1946146,0.005 0.1996326,0.01308 0.00439,0.0072 0.019112,0.05926 0.032598,0.11572 0.013485,0.05647 0.033682,0.112792 0.044872,0.125162 0.019363,0.0214 -0.069145,0.02247 -2.2287222,0.02249 H 8.484538 l 0.017516,-0.02827 c 0.00964,-0.01556 0.027756,-0.07068 0.040273,-0.122512 0.012511,-0.05183 0.031281,-0.101319 0.041706,-0.109957 0.013218,-0.01095 0.073523,-0.0157 0.1993753,-0.0157 0.1819221,0 0.2217206,-0.0081 0.2796985,-0.05648 0.016563,-0.01384 0.238728,-0.03618 0.238728,-0.024 0,0.0027 -0.024516,0.01091 -0.054502,0.01844 -0.029977,0.0076 -0.084301,0.03628 -0.1207078,0.06383 -0.036407,0.02757 -0.0801,0.05538 -0.097093,0.06184 -0.016995,0.0064 -0.1058024,0.01174 -0.1973502,0.01174 h -0.166441 l -0.027495,0.03718 c -0.015124,0.02046 -0.02748,0.04307 -0.02748,0.05027 0,0.01854 0.373573,0.01723 0.428476,-0.0016 0.02349,-0.0081 0.082289,-0.04047 0.1306648,-0.07213 l 0.087963,-0.05757 0.1696307,-0.0067 c 0.1769554,-0.0069 0.2068117,-0.01521 0.2489984,-0.06883 l 0.024777,-0.03149 H 10.7149 11.728525 l 0.224684,-0.116235 0.224701,-0.116216 0.0038,-0.06868 0.0038,-0.06869 0.222493,-0.119788 c 0.122371,-0.06589 0.224815,-0.125447 0.227646,-0.132358 0.0029,-0.0069 -0.05488,-0.05773 -0.128253,-0.112922 -0.07321,-0.05512 -0.195439,-0.148474 -0.271458,-0.207398 -0.07602,-0.05892 -0.150353,-0.115544 -0.165195,-0.125825 -0.01484,-0.01028 -0.104024,-0.07807 -0.198179,-0.1506342 -0.09415,-0.072566 -0.190131,-0.1460588 -0.213272,-0.1633361 -0.02314,-0.017269 -0.119562,-0.09079 -0.214283,-0.1633544 -0.09472,-0.072566 -0.184518,-0.1400564 -0.199541,-0.1499729 -0.01503,-0.00992 -0.04428,-0.033191 -0.06502,-0.051722 -0.02074,-0.01853 -0.05184,-0.037654 -0.06911,-0.042501 -0.01727,-0.00484 -0.04836,-0.013544 -0.0691,-0.019326 -0.02074,-0.00578 -0.06417,-0.018855 -0.09652,-0.029064 z m -1.6201064,0.8002239 0.1526429,0.159729 c 0.083957,0.08785 0.2063704,0.21388 0.2720239,0.280066 l 0.1193638,0.120339 0.00331,-0.279589 0.00331,-0.279569 h 0.1002748 0.100276 v 0.402081 0.402099 H 9.9005317 9.7830997 l -0.11189,-0.116619 C 9.6096689,10.738159 9.4896903,10.613188 9.4045968,10.524544 9.319503,10.435903 9.2471217,10.366135 9.2437462,10.369509 c -0.00496,0.005 -0.018859,0.413795 -0.017703,0.521078 2.972e-4,0.02682 -0.00448,0.02827 -0.093945,0.02827 h -0.09418 v -0.389531 c 0,-0.214237 -0.00138,-0.393769 -0.00309,-0.398953 -0.0017,-0.0052 0.049732,-0.01106 0.1143565,-0.01305 z m 2.0895544,3.6e-5 v 0.317745 0.317744 l 0.261605,0.0033 0.261607,0.0034 0.06257,0.04213 0.06256,0.04213 -0.0593,0.03928 -0.05931,0.0393 h -0.360668 -0.360667 l -0.0081,-0.04026 c -0.0044,-0.02213 -0.0058,-0.201668 -0.003,-0.398952 l 0.0051,-0.358699 0.09875,-0.0037 z m -6.2763366,9.21e-4 h 0.4586441 0.4586244 v 0.07538 0.07539 H 5.641437 5.2857398 l 0.00228,0.06597 c 0.00122,0.03628 0.00301,0.07303 0.00391,0.08167 0.00122,0.01207 0.068802,0.01571 0.2914779,0.01571 h 0.2898786 l 0.055665,0.03829 c 0.030612,0.02106 0.055625,0.04227 0.055567,0.04712 -5.61e-5,0.0048 -0.024077,0.02296 -0.053395,0.04023 -0.051669,0.03045 -0.062202,0.0316 -0.342316,0.0377 l -0.2889946,0.0063 -0.00749,0.05623 c -0.014399,0.107938 -0.038012,0.10083 0.3346413,0.10083 0.1817681,0 0.3394296,0.0034 0.350361,0.0076 0.015009,0.0058 0.019876,0.02575 0.019876,0.08169 v 0.07404 H 5.5444654 c -0.3507598,0 -0.4540362,-0.0036 -0.4584778,-0.01571 -0.00317,-0.0087 -0.00724,-0.08628 -0.00904,-0.17254 l -0.00335,-0.156778 -0.040347,-0.02537 c -0.051906,-0.03262 -0.051393,-0.0485 0.00261,-0.08191 l 0.043978,-0.02719 v -0.162341 z m 0.9549637,0 H 6.524213 7.0136132 l -3.669e-4,0.07538 -3.5e-4,0.07539 h -0.19376 -0.193743 v 0.326692 0.326707 H 6.524877 6.4243616 V 10.592205 10.265514 H 6.2372262 c -0.2096447,0 -0.2023933,0.0034 -0.2023933,-0.09527 z m 1.0177848,0 h 0.4554964 0.4554771 v 0.07538 0.07539 H 7.6086279 7.2536665 v 0.08167 0.08169 h 0.2908161 0.2908162 l 0.054705,0.03456 c 0.030082,0.019 0.054713,0.04072 0.054729,0.04826 8.8e-6,0.0076 -0.0276,0.02875 -0.06137,0.04712 -0.061332,0.03339 -0.061624,0.03341 -0.3461083,0.03341 H 7.2525088 l 0.00366,0.0829 0.00366,0.0829 0.3329841,-6.29e-4 c 0.183139,-3.32e-4 0.3414484,0.0033 0.3518148,0.0082 0.013544,0.0064 0.018851,0.02916 0.018851,0.0811 v 0.07227 l -0.4554751,-1.8e-5 -0.4554955,-1.9e-5 v -0.173609 -0.173607 l -0.050856,-0.02857 c -0.056349,-0.03167 -0.053265,-0.0485 0.015384,-0.08401 l 0.035471,-0.01836 v -0.163021 z m 0.9675172,0 0.3738277,7.27e-4 c 0.4087828,7.7e-4 0.440568,0.0055 0.5172862,0.07797 0.073434,0.06931 0.098282,0.192626 0.058163,0.288644 -0.016612,0.03975 -0.095507,0.122451 -0.1172657,0.122916 -0.00496,1.06e-4 -0.016906,0.0053 -0.0266,0.01136 -0.013887,0.0087 0.00399,0.04205 0.084264,0.156876 L 9.011723,10.9189 H 8.9003507 8.7889928 l -0.092288,-0.127727 c -0.050758,-0.07023 -0.095797,-0.132992 -0.1000923,-0.139483 -0.011346,-0.01714 -0.3332559,-0.0251 -0.3633735,-0.0089 -0.022049,0.0118 -0.024621,0.02693 -0.024621,0.144672 v 0.131494 h -0.094242 -0.094239 v -0.4021 z m 2.4403009,0 0.127481,1.48e-4 0.127463,1.66e-4 0.07526,0.147488 c 0.04139,0.08112 0.10555,0.201198 0.142574,0.266852 0.03703,0.06565 0.09604,0.174494 0.131162,0.241876 0.03513,0.06737 0.0685,0.122511 0.07417,0.122511 0.0057,0 0.01032,0.0057 0.01032,0.01257 0,0.0074 -0.04388,0.01257 -0.106535,0.01257 h -0.106542 l -0.02485,-0.04872 c -0.01367,-0.02678 -0.03404,-0.05224 -0.04526,-0.05653 -0.01123,-0.0043 -0.14112,-0.0078 -0.288646,-0.0078 -0.291904,0 -0.288754,-7.26e-4 -0.319842,0.07432 l -0.01605,0.03877 h -0.105283 c -0.05791,0 -0.105282,-0.0028 -0.105282,-0.0061 0,-0.0033 0.01628,-0.03304 0.03617,-0.06597 0.03211,-0.05319 0.268794,-0.491863 0.359397,-0.666154 z m -2.2518227,0.150786 v 0.09844 c 0,0.05413 0.00407,0.102515 0.00909,0.107511 0.00505,0.0051 0.1204629,0.0073 0.2566006,0.0053 0.2421684,-0.0038 0.2482265,-0.0044 0.2799198,-0.03431 0.057758,-0.0543 0.038304,-0.135786 -0.039485,-0.165359 -0.016654,-0.0064 -0.1373383,-0.0115 -0.2681951,-0.0115 z m 2.3715547,0.03142 c -0.0092,0.0012 -0.05721,0.08135 -0.107235,0.179054 l -0.09166,0.179056 h 0.19459 c 0.107025,0 0.197254,-0.0043 0.200516,-0.0096 0.0093,-0.015 -0.178298,-0.3485 -0.196007,-0.3485 -6.8e-5,0 -1.29e-4,-1.1e-5 -2.1e-4,0 z"
     class="ColorScheme-Text" />
  <ellipse
     style="fill:none;stroke:#000000;stroke-width:0.582072;stroke-dasharray:none;stroke-opacity:1;filter:url(#filter3-8)"
     id="path1-5-7"
     cx="8.4450111"
     cy="8.423522"
     rx="6.8752708"
     ry="6.8578653"
     transform="matrix(0.4782969,0,0,0.4782969,8.9000071,8.8280171)" />
  <ellipse
     style="fill:currentColor;fill-opacity:1;stroke:currentColor;stroke-width:0.278402;stroke-dasharray:none;stroke-opacity:1"
     id="path1-59"
     cx="12.939234"
     cy="12.856965"
     rx="3.2884204"
     ry="3.2800953"
     class="ColorScheme-Text" />
  <ellipse
     style="fill:currentColor;stroke:none;stroke-width:0.246622;stroke-dasharray:none;stroke-opacity:1"
     id="path1-2-2"
     cx="12.939234"
     cy="12.856965"
     rx="2.9130225"
     ry="2.9056478"
     class="ColorScheme-Highlight" />
  <path
     id="path1-36-3"
     style="fill:#000000;fill-opacity:1;stroke:none;stroke-width:0.124104;stroke-dasharray:none;stroke-dashoffset:2.2;stroke-opacity:0.3;opacity:0.3"
     d="m 14.021099,11.736685 c -0.06523,-2.7e-5 -0.135047,0.02623 -0.222431,0.07744 -0.207942,0.121835 -0.479893,0.179294 -0.853351,0.179294 -0.373425,0 -0.654446,-0.05868 -0.861152,-0.179813 -0.165749,-0.09713 -0.264703,-0.09842 -0.403809,-0.0046 -0.357127,0.240662 -0.62628,1.012267 -0.705238,2.020557 -0.04735,0.604628 -0.0031,0.923391 0.153311,1.102784 0.07546,0.08649 0.260665,0.07183 0.427716,-0.0343 0.141607,-0.08996 0.310333,-0.288477 0.511911,-0.602326 0.182153,-0.283608 0.40248,-0.377017 0.889733,-0.377816 0.486283,-7.65e-4 0.677387,0.09125 0.901686,0.436021 0.376321,0.578447 0.72416,0.779828 0.928191,0.537359 0.113031,-0.134326 0.133719,-0.264107 0.128366,-0.804479 -0.0098,-0.981615 -0.266353,-1.87461 -0.636118,-2.215438 -0.09848,-0.09078 -0.174941,-0.134569 -0.258815,-0.134604 z m -2.112591,0.578416 h 0.225551 0.22555 v 0.193324 0.193326 h 0.19333 0.193331 v 0.241656 0.241656 h -0.193331 -0.19333 v 0.209435 0.209435 h -0.204243 c -0.112206,0 -0.213221,-0.01005 -0.225032,-0.02182 -0.0118,-0.01181 -0.02182,-0.105569 -0.02182,-0.208914 v -0.188138 h -0.193337 -0.193331 v -0.241656 -0.241656 h 0.193331 0.193332 v -0.193326 z m 1.83871,0 c 0.203478,0 0.290618,0.225442 0.14396,0.372098 -0.09327,0.09326 -0.178394,0.100588 -0.270247,0.02287 -0.159321,-0.134809 -0.07616,-0.394964 0.126287,-0.394964 z m -0.391336,0.413154 c 0.05081,3.5e-5 0.101967,0.02029 0.142399,0.06495 0.06302,0.06964 0.06984,0.229093 0.013,0.303499 -0.111241,0.145623 -0.378344,0.05196 -0.378344,-0.13252 0,-0.140009 0.111172,-0.236016 0.22295,-0.23594 z m 0.798786,0.0078 c 0.05856,0.0011 0.115418,0.02047 0.148634,0.05716 0.06302,0.06964 0.06983,0.229092 0.013,0.303499 -0.118321,0.154886 -0.378346,0.05122 -0.378346,-0.150713 0,-0.06121 0.02453,-0.127549 0.05873,-0.158506 0.03909,-0.03538 0.09943,-0.05251 0.15799,-0.05145 z m -0.393417,0.416788 c 0.180393,0 0.268168,0.19134 0.159029,0.347153 -0.0373,0.05326 -0.08282,0.07171 -0.176699,0.07171 -0.108097,0 -0.133181,-0.01407 -0.176699,-0.09823 -0.08582,-0.165932 0.0078,-0.320649 0.194369,-0.320649 z" />
  <path
     id="path1-36"
     style="fill:currentColor;fill-opacity:1;stroke:none;stroke-width:0.124104;stroke-dasharray:none;stroke-dashoffset:2.2;stroke-opacity:0.3"
     d="m 14.021099,11.207529 c -0.06523,-2.7e-5 -0.135047,0.02623 -0.222431,0.07744 -0.207942,0.121835 -0.479893,0.179294 -0.853351,0.179294 -0.373425,0 -0.654446,-0.05868 -0.861152,-0.179813 -0.165749,-0.09713 -0.264703,-0.09842 -0.403809,-0.0046 -0.357127,0.240662 -0.62628,1.012267 -0.705238,2.020557 -0.04735,0.604628 -0.0031,0.923391 0.153311,1.102784 0.07546,0.08649 0.260665,0.07183 0.427716,-0.0343 0.141607,-0.08996 0.310333,-0.288477 0.511911,-0.602326 0.182153,-0.283608 0.40248,-0.377017 0.889733,-0.377816 0.486283,-7.65e-4 0.677387,0.09125 0.901686,0.436021 0.376321,0.578447 0.72416,0.779828 0.928191,0.537359 0.113031,-0.134326 0.133719,-0.264107 0.128366,-0.804479 -0.0098,-0.981615 -0.266353,-1.87461 -0.636118,-2.215438 -0.09848,-0.09078 -0.174941,-0.134569 -0.258815,-0.134604 z m -2.112591,0.578416 h 0.225551 0.22555 v 0.193324 0.193326 h 0.19333 0.193331 v 0.241656 0.241656 h -0.193331 -0.19333 v 0.209435 0.209435 h -0.204243 c -0.112206,0 -0.213221,-0.01005 -0.225032,-0.02182 -0.0118,-0.01181 -0.02182,-0.105569 -0.02182,-0.208914 v -0.188138 h -0.193337 -0.193331 v -0.241656 -0.241656 h 0.193331 0.193332 v -0.193326 z m 1.83871,0 c 0.203478,0 0.290618,0.225442 0.14396,0.372098 -0.09327,0.09326 -0.178394,0.100588 -0.270247,0.02287 -0.159321,-0.134809 -0.07616,-0.394964 0.126287,-0.394964 z m -0.391336,0.413154 c 0.05081,3.5e-5 0.101967,0.02029 0.142399,0.06495 0.06302,0.06964 0.06984,0.229093 0.013,0.303499 -0.111241,0.145623 -0.378344,0.05196 -0.378344,-0.13252 0,-0.140009 0.111172,-0.236016 0.22295,-0.23594 z m 0.798786,0.0078 c 0.05856,0.0011 0.115418,0.02047 0.148634,0.05716 0.06302,0.06964 0.06983,0.229092 0.013,0.303499 -0.118321,0.154886 -0.378346,0.05122 -0.378346,-0.150713 0,-0.06121 0.02453,-0.127549 0.05873,-0.158506 0.03909,-0.03538 0.09943,-0.05251 0.15799,-0.05145 z m -0.393417,0.416788 c 0.180393,0 0.268168,0.19134 0.159029,0.347153 -0.0373,0.05326 -0.08282,0.07171 -0.176699,0.07171 -0.108097,0 -0.133181,-0.01407 -0.176699,-0.09823 -0.08582,-0.165932 0.0078,-0.320649 0.194369,-0.320649 z"
     class="ColorScheme-Text" />
  <path
     id="gradient-path1"
     style="opacity:0.3;baseline-shift:baseline;display:inline;overflow:visible;vector-effect:none;enable-background:accumulate;stop-color:#000000;stop-opacity:1;fill:url(#linearGradient5)"
     d="M 8.4453131 1.2753492 C 4.4913166 1.2753492 1.2794833 4.4784283 1.2794833 8.4236094 C 1.2794833 12.36879 4.4913166 15.572386 8.4453131 15.572386 C 9.1638027 15.572386 9.8576697 15.466358 10.51233 15.269568 C 11.133159 15.890536 11.991864 16.275172 12.939524 16.275172 C 14.830708 16.275172 16.367154 14.744327 16.367154 12.85736 C 16.367154 11.897867 15.969699 11.029882 15.330545 10.408462 C 15.513101 9.7781514 15.611143 9.1121932 15.611143 8.4236094 C 15.611143 4.4784283 12.39931 1.2753492 8.4453131 1.2753492 z " />
</svg>
