<?xml version="1.0" encoding="UTF-8" standalone="no"?>
<svg
   width="64"
   height="64"
   version="1.1"
   viewBox="0 0 16.933 16.933"
   id="svg7"
   sodipodi:docname="steam_icon_8140.svg"
   inkscape:version="1.4.2 (ebf0e940d0, 2025-05-08)"
   xmlns:inkscape="http://www.inkscape.org/namespaces/inkscape"
   xmlns:sodipodi="http://sodipodi.sourceforge.net/DTD/sodipodi-0.dtd"
   xmlns:xlink="http://www.w3.org/1999/xlink"
   xmlns="http://www.w3.org/2000/svg"
   xmlns:svg="http://www.w3.org/2000/svg"
   xmlns:rdf="http://www.w3.org/1999/02/22-rdf-syntax-ns#"
   xmlns:cc="http://creativecommons.org/ns#"
   xmlns:dc="http://purl.org/dc/elements/1.1/">
  <sodipodi:namedview
     id="namedview7"
     pagecolor="#9c4444"
     bordercolor="#000000"
     borderopacity="0.25"
     inkscape:showpageshadow="2"
     inkscape:pageopacity="0.0"
     inkscape:pagecheckerboard="0"
     inkscape:deskcolor="#d1d1d1"
     inkscape:zoom="4.3531261"
     inkscape:cx="36.180895"
     inkscape:cy="25.958357"
     inkscape:window-width="2560"
     inkscape:window-height="1388"
     inkscape:window-x="0"
     inkscape:window-y="0"
     inkscape:window-maximized="1"
     inkscape:current-layer="svg7"
     showgrid="false" />
  <defs
     id="defs2">
    <filter
       style="color-interpolation-filters:sRGB;"
       inkscape:label="Blur"
       id="filter3"
       x="-0.10843471"
       y="-0.10870992"
       width="1.2168694"
       height="1.2174198">
      <feGaussianBlur
         stdDeviation="0.5 0.5"
         result="blur"
         id="feGaussianBlur3" />
    </filter>
    <filter
       style="color-interpolation-filters:sRGB"
       inkscape:label="Blur"
       id="filter3-8"
       x="-0.10843471"
       y="-0.10870992"
       width="1.2168694"
       height="1.2174198">
      <feGaussianBlur
         stdDeviation="0.5 0.5"
         result="blur"
         id="feGaussianBlur3-7" />
    </filter>
    <style
       id="current-color-scheme"
       type="text/css">.ColorScheme-Text {color:#d8dee9} .ColorScheme-Highlight {color:#3b4252}</style>
    <linearGradient
       id="linearGradient4"
       inkscape:collect="always">
      <stop
         style="stop-color:#000000;stop-opacity:1;"
         offset="0"
         id="stop4" />
      <stop
         style="stop-color:#000000;stop-opacity:0;"
         offset="1"
         id="stop5" />
    </linearGradient>
    <linearGradient
       inkscape:collect="always"
       xlink:href="#linearGradient4"
       id="linearGradient5"
       x1="14.157616"
       y1="14.109557"
       x2="3.4890218"
       y2="3.440964"
       gradientUnits="userSpaceOnUse" />
  </defs>
  <metadata
     id="metadata2">
    <rdf:RDF>
      <cc:Work
         rdf:about="">
        <dc:format>image/svg+xml</dc:format>
        <dc:type
           rdf:resource="http://purl.org/dc/dcmitype/StillImage" />
      </cc:Work>
    </rdf:RDF>
  </metadata>
  <ellipse
     style="opacity:1;fill:none;stroke:#000000;stroke-width:0.582072;stroke-dasharray:none;stroke-opacity:1;filter:url(#filter3)"
     id="path1-5"
     cx="8.4450111"
     cy="8.423522"
     rx="6.8752708"
     ry="6.8578653" />
  <ellipse
     style="opacity:1;fill:none;stroke-width:0.58207188;stroke-opacity:1;stroke:currentColor;stroke-dasharray:none;fill-opacity:1"
     id="path1"
     cx="8.4450111"
     cy="8.423522"
     rx="6.8752708"
     ry="6.8578653"
     class="ColorScheme-Text" />
  <ellipse
     style="fill:currentColor;stroke:none;stroke-width:0.285728;stroke-dasharray:none;stroke-opacity:1"
     id="path1-2"
     cx="8.4450111"
     cy="8.423522"
     rx="6.5766377"
     ry="6.5612183"
     class="ColorScheme-Highlight" />
  <path
     id="path5"
     style="opacity:0.3;fill:#000000;fill-opacity:1;stroke-width:0.000837037;paint-order:fill markers stroke"
     d="m 2.77806,7.3735808 v 2.491654 h 0.300387 c 0.165212,0 0.301358,-0.0015 0.302547,-0.0035 0.0012,-0.0019 0.04606,-0.256147 0.09971,-0.564939 l 0.09755,-0.561444 -0.05201,-0.07203 -0.05202,-0.07204 0.359887,-0.0011 c 0.197938,-6.08e-4 0.360549,-4.42e-4 0.361358,3.66e-4 8.09e-4,8.1e-4 -0.01352,0.09815 -0.03184,0.216313 l -0.03332,0.214844 h -0.27644 c -0.236498,0 -0.276105,8.92e-4 -0.274097,0.0061 0.0044,0.01144 0.518836,0.822241 0.525844,0.828764 0.0062,0.0057 0.07381,0.0062 0.572829,0.0043 l 0.565858,-0.0022 -0.05832,-0.07778 c -0.03224,-0.043 -0.05702,-0.07996 -0.05541,-0.08266 0.0059,-0.0099 0.720421,-0.858287 0.722873,-0.858287 0.0024,0 0.272798,0.520764 0.272798,0.525464 0,0.0012 -0.129936,0.0023 -0.288747,0.0024 l -0.288747,7e-5 -0.05624,0.06949 c -0.03093,0.03822 -0.05688,0.07127 -0.05768,0.07346 -8.92e-4,0.0024 0.150487,0.004 0.382877,0.004 h 0.384321 l 0.04662,0.09336 0.04662,0.09336 -0.05604,0.05913 c -0.03082,0.03252 -0.06487,0.06772 -0.07568,0.07823 -0.0108,0.01051 -0.01864,0.02072 -0.0174,0.02271 0.0012,0.0019 0.188222,0.0037 0.415548,0.0037 0.36546,0 0.413034,-7.51e-4 0.410834,-0.0065 -0.0014,-0.0036 -0.166062,-0.289644 -0.365989,-0.635733 -0.199928,-0.346088 -0.363507,-0.630807 -0.363507,-0.632703 0,-0.0019 0.03212,-0.03553 0.07138,-0.07473 0.03926,-0.0392 0.07138,-0.07276 0.07138,-0.07457 0,-0.0018 -0.164975,-0.0032 -0.366611,-0.0031 l -0.366611,1.77e-4 -0.495224,0.555689 c -0.272376,0.305629 -0.496237,0.555577 -0.497469,0.555448 -0.0012,-1.29e-4 -0.06585,-0.08919 -0.143587,-0.197905 l -0.141345,-0.19767 0.03103,-9.74e-4 c 0.201843,-0.0066 0.23672,-0.0112 0.281649,-0.03752 0.02432,-0.01425 0.05981,-0.05277 0.07347,-0.07974 0.01705,-0.03365 0.02615,-0.07921 0.04808,-0.240772 0.02169,-0.159762 0.02222,-0.181356 0.0056,-0.226243 -0.02132,-0.05742 -0.0549,-0.09193 -0.106328,-0.109268 -0.0644,-0.02171 -0.03541,-0.02105 -0.940809,-0.02122 -0.465725,-8.3e-5 -0.846772,7.9e-4 -0.846772,0.0019 0,0.0011 0.02199,0.03278 0.04886,0.07029 0.02688,0.03751 0.05024,0.07045 0.0519,0.07319 0.0024,0.004 -0.234888,1.246069 -0.241177,1.262474 -8.92e-4,0.0024 -0.0018,-0.552893 -0.002,-1.233934 z m 2.570039,0 -0.003,0.05191 -0.003,0.05191 h 0.213075 0.213075 l -0.0024,0.02271 c -0.0014,0.01249 -0.0098,0.176494 -0.01868,0.36445 l -0.01622,0.341733 -0.04711,0.05191 -0.04712,0.05191 0.275789,0.0011 c 0.151683,6.12e-4 0.276712,1.91e-4 0.277842,-9.74e-4 0.0011,-0.0011 -0.01645,-0.02509 -0.03904,-0.05324 l -0.04108,-0.05119 0.01225,-0.293937 c 0.0067,-0.161666 0.01231,-0.303899 0.01239,-0.316076 1.42e-4,-0.02156 -8.92e-4,-0.02337 -0.03862,-0.06921 l -0.03876,-0.04707 0.229606,-0.0011 0.229607,-0.0011 0.04816,-0.04064 c 0.02648,-0.02235 0.0536,-0.04569 0.06027,-0.05187 l 0.01211,-0.01124 z m 1.289011,0 0.08305,4.75e-4 c 0.06072,3.46e-4 0.07781,0.0015 0.06358,0.0043 -0.03146,0.0062 -0.0705,0.02788 -0.09268,0.05158 -0.02987,0.03194 -0.04136,0.06035 -0.04591,0.113527 -0.0055,0.06493 -0.01872,0.563522 -0.01606,0.607738 0.0042,0.07062 0.03281,0.117144 0.08886,0.14474 l 0.02883,0.01419 0.555961,0.0011 c 0.372242,7.8e-4 0.563099,-3.24e-4 0.577581,-0.0033 0.04908,-0.0102 0.106144,-0.04669 0.126004,-0.08058 0.0065,-0.01101 0.01572,-0.0329 0.02059,-0.04866 0.0085,-0.02759 0.0089,-0.04052 0.01026,-0.350801 0.0015,-0.355993 0.0025,-0.341834 -0.02608,-0.386755 -0.0232,-0.03644 -0.05908,-0.05539 -0.119958,-0.06333 -0.01434,-0.0019 0.02005,-0.0033 0.08651,-0.0037 l 0.110308,-5.64e-4 0.04435,0.05147 0.04434,0.05148 v 0.366066 0.366066 l -0.04411,0.05072 -0.0441,0.05072 0.276225,0.0011 c 0.151924,6.12e-4 0.27711,2.23e-4 0.278196,-8.92e-4 0.0011,-0.0011 -0.01748,-0.02468 -0.04125,-0.05244 l -0.04322,-0.05047 -0.0032,-0.224652 c -0.0018,-0.123559 -0.0024,-0.225527 -0.0013,-0.226597 0.0011,-0.0011 0.09982,0.100248 0.219442,0.225152 l 0.217498,0.227104 h 0.05515 0.05516 l 0.20902,-0.227108 c 0.114925,-0.124909 0.209518,-0.22655 0.210204,-0.225863 6.87e-4,6.87e-4 0.0044,0.101994 0.0082,0.225121 0.0067,0.215033 0.0066,0.22427 -8.92e-4,0.234176 -0.0043,0.0057 -0.02314,0.02903 -0.04189,0.0519 -0.01874,0.02287 -0.03317,0.04251 -0.03205,0.04362 0.0011,0.0011 0.126045,0.0015 0.277625,8.93e-4 l 0.275604,-0.0011 -0.04521,-0.05045 -0.04521,-0.05046 -0.0027,-0.04471 c -0.0034,-0.05666 -0.02419,-0.628313 -0.02419,-0.663943 v -0.02661 l 0.03893,-0.04676 c 0.02141,-0.02572 0.03893,-0.0483 0.03893,-0.05018 0,-0.0019 0.01217,-0.0033 0.02704,-0.0031 l 0.02703,2.91e-4 0.02267,0.02675 c 0.01246,0.01471 0.03287,0.0381 0.04534,0.05198 l 0.02268,0.02525 0.015,0.364532 0.015,0.364533 -0.03838,0.04713 c -0.02111,0.02592 -0.04027,0.0496 -0.04257,0.05263 -0.0034,0.0045 0.115713,0.0053 0.622585,0.0043 l 0.626771,-0.0012 0.02857,-0.0097 c 0.0379,-0.01288 0.06369,-0.03585 0.07988,-0.07114 0.01149,-0.02503 0.01264,-0.03212 0.014,-0.08568 0.0017,-0.06757 -0.0061,-0.129403 -0.02062,-0.163092 -0.01313,-0.03046 -0.04715,-0.0621 -0.08,-0.07438 -0.01405,-0.0053 -0.06753,-0.02269 -0.118849,-0.03876 l -0.09331,-0.02921 -0.0012,-0.0149 -0.0012,-0.01491 0.0728,-0.01186 c 0.112151,-0.01827 0.135854,-0.02761 0.153377,-0.06043 0.0093,-0.01735 0.0099,-0.02335 0.0095,-0.09209 -4.59e-4,-0.09143 -0.0064,-0.134405 -0.02356,-0.169454 -0.02209,-0.04521 -0.07594,-0.08647 -0.125502,-0.09618 -0.01116,-0.0022 0.606082,-0.004 1.465555,-0.0042 l 1.484825,-4.76e-4 z m 2.152082,0.0011 c 0.131798,-6.15e-4 0.348052,-6.15e-4 0.480562,0 l 0.240924,0.0011 -0.221959,0.234675 -0.221965,0.234676 H 9.039614 9.012464 L 8.781008,7.6104558 8.549556,7.3757808 Z m -1.486561,0.102773 h 0.341537 l -0.002,0.202233 c -0.0011,0.111227 -0.0032,0.274741 -0.0046,0.363366 l -0.0026,0.161133 H 7.3305 7.02604 l 1.07e-4,-0.02488 c 5.8e-5,-0.01368 0.0029,-0.138754 0.0064,-0.277935 0.0035,-0.139183 0.0063,-0.269954 0.0064,-0.29061 l 1.07e-4,-0.03756 -0.03893,-0.04554 c -0.02141,-0.02504 -0.03894,-0.04659 -0.03894,-0.04788 0,-0.0013 0.153687,-0.0024 0.34153,-0.0024 z m 3.377835,0.0011 c 0.151525,-6.16e-4 0.277578,-3.23e-4 0.280117,6.47e-4 0.0043,0.0016 0.01838,0.208819 0.01437,0.211763 -8.92e-4,6.78e-4 -0.02893,0.0133 -0.06224,0.02804 l -0.06057,0.02681 -0.175815,-4.5e-5 -0.175816,-5e-5 -0.0025,-0.03785 c -0.0014,-0.02082 -0.0037,-0.05965 -0.0053,-0.08629 l -0.0027,-0.04843 -0.04253,-0.04672 -0.04253,-0.04673 z m -0.176144,0.334212 0.03549,0.03789 0.0355,0.0379 0.142618,-5.1e-5 0.142618,-4.4e-5 0.08232,0.0222 c 0.04528,0.01222 0.0836,0.02341 0.08516,0.02488 0.0027,0.0025 0.01663,0.212031 0.01662,0.250314 v 0.01838 H 10.78294 10.521225 l -3.2e-5,-0.01406 c -3.2e-5,-0.0077 -0.0039,-0.089 -0.0086,-0.180599 -0.0047,-0.0916 -0.0085,-0.173356 -0.0084,-0.181684 z m 1.221634,0.624935 0.07484,0.07496 0.07484,0.07496 0.04931,0.538294 c 0.02712,0.296062 0.05034,0.546566 0.05161,0.556677 l 0.0023,0.01839 h -0.591637 -0.591636 l -0.01683,-0.304917 c -0.0093,-0.167705 -0.01568,-0.30606 -0.01429,-0.307453 0.0014,-0.0014 0.04356,0.02487 0.0937,0.05835 l 0.09117,0.06088 h 0.361491 0.361491 l -0.0025,-0.02488 c -0.0047,-0.04618 -0.01521,-0.169864 -0.01521,-0.178509 0,-0.0085 -0.0041,-0.0086 -0.44988,-0.0086 h -0.449886 v -0.01838 c -3e-6,-0.01011 -0.0029,-0.06878 -0.0066,-0.130356 l -0.0066,-0.111969 -0.0687,-0.07187 -0.0687,-0.07187 0.507758,-0.0022 0.507766,-0.0022 -0.07164,-0.07462 -0.07165,-0.07462 h -0.731251 -0.73125 l 0.01029,0.01278 c 0.0057,0.0071 0.03705,0.04083 0.06977,0.07514 l 0.05949,0.06237 0.02059,0.55643 0.02059,0.556423 -0.06602,0.07867 c -0.03631,0.04327 -0.06602,0.08008 -0.06602,0.08181 0,0.0017 0.569864,0.0028 1.26637,0.0023 l 1.266377,-8.93e-4 -8.92e-4,-0.01712 c -4.93e-4,-0.0094 -0.02829,-0.263359 -0.06176,-0.564326 l -0.06085,-0.547209 -0.0745,-0.07237 -0.07451,-0.07237 0.362201,-8.9e-5 0.362206,-8.9e-5 0.0022,0.0097 c 0.0028,0.01235 0.05421,0.407244 0.05421,0.416194 0,0.0059 -0.03034,0.0067 -0.274686,0.0067 -0.151078,0 -0.274653,0.0015 -0.274616,0.0032 1.11e-4,0.0051 0.767563,0.838245 0.771083,0.837041 0.0017,-6.01e-4 0.176829,-0.0011 0.389087,-0.0011 h 0.385924 l -0.356382,-0.353643 -0.356384,-0.353634 0.09266,-0.0032 c 0.05097,-0.0017 0.108549,-0.005 0.127961,-0.0074 0.06045,-0.0072 0.09602,-0.03013 0.118932,-0.07668 0.02271,-0.04613 0.02204,-0.07231 -0.0068,-0.262526 -0.02539,-0.167532 -0.02999,-0.185773 -0.05939,-0.235025 -0.02012,-0.03372 -0.06194,-0.07451 -0.09374,-0.09146 -0.01469,-0.0078 -0.0457,-0.01948 -0.06891,-0.02589 l -0.04219,-0.01165 -0.865162,-0.0011 z m -4.281721,1.4e-4 c -0.232416,0 -0.42254,0.0015 -0.422499,0.0032 4.2e-5,0.0018 0.02728,0.03537 0.06053,0.07462 0.05614,0.06628 0.06044,0.07261 0.06025,0.08868 -1.16e-4,0.0095 -0.01717,0.296151 -0.03789,0.636969 l -0.03768,0.619669 h 0.301521 0.301521 l 0.0023,-0.01838 c 0.0012,-0.01011 0.01312,-0.288963 0.02641,-0.61967 0.01329,-0.330706 0.02513,-0.609254 0.0263,-0.618997 0.0019,-0.0157 0.0089,-0.0248 0.06106,-0.08003 0.0324,-0.03427 0.06383,-0.06767 0.06985,-0.07421 l 0.01094,-0.01189 z m 1.3975,2.5e-5 c -0.487137,-1.3e-5 -0.885667,0.0015 -0.885623,0.0032 4.6e-5,0.0018 0.01972,0.02563 0.04372,0.053 0.02401,0.02736 0.05241,0.05993 0.06311,0.07239 l 0.01946,0.02264 -0.01633,0.554852 -0.01633,0.554852 -0.07173,0.0793 c -0.03945,0.04362 -0.07239,0.08112 -0.0732,0.08334 -8.92e-4,0.0025 0.35388,0.0036 0.930049,0.0028 0.885403,-0.0012 0.932782,-0.0016 0.957304,-0.0091 0.08593,-0.02615 0.158036,-0.07983 0.185599,-0.138183 0.0065,-0.01381 0.01552,-0.03941 0.01999,-0.05691 0.01787,-0.06985 0.01799,-0.101152 0.0025,-0.57767 -0.01344,-0.413069 -0.01524,-0.449574 -0.02312,-0.471717 -0.02834,-0.07962 -0.07019,-0.125167 -0.137491,-0.149594 -0.06558,-0.0238 -0.03847,-0.02318 -0.997902,-0.0232 z m 0.0043,0.151394 c 0.330982,2e-5 0.356199,0.0014 0.417424,0.02197 0.06167,0.02078 0.10626,0.05513 0.127245,0.09802 0.01029,0.02103 0.01193,0.03081 0.01494,0.08915 0.0019,0.03604 0.004,0.21542 0.0047,0.398617 0.0014,0.358728 0.0015,0.356267 -0.02118,0.401608 -0.0225,0.04489 -0.05743,0.07149 -0.118114,0.08997 l -0.03243,0.0099 -0.360121,0.0015 c -0.198067,7.94e-4 -0.360122,3e-4 -0.360122,-0.0011 0,-0.0015 0.03022,-0.03642 0.06716,-0.07777 l 0.06716,-0.07519 0.0041,-0.321488 c 0.0023,-0.17682 0.0041,-0.359498 0.0042,-0.405955 l 1.12e-4,-0.08446 -0.06272,-0.06996 c -0.0345,-0.03848 -0.06272,-0.07104 -0.06272,-0.07234 0,-0.0013 0.139673,-0.0024 0.31038,-0.0024 z M 4.729618,10.186446 c -0.0024,-5.5e-5 -0.0042,8.92e-4 -0.0059,0.0025 -0.0028,0.0028 -0.0055,0.07543 -0.0074,0.194692 -0.0032,0.204922 -0.0031,0.204063 -0.026,0.204063 -0.01421,0 -0.0287,0.0099 -0.02449,0.01665 0.0021,0.0034 0.0263,0.0049 0.07867,0.0049 0.06414,0 0.07597,-9.74e-4 0.07815,-0.0067 0.0036,-0.0092 0.0011,-0.01079 -0.02296,-0.01422 -0.01915,-0.0028 -0.02139,-0.0043 -0.02584,-0.01809 -0.0028,-0.0084 -0.0062,-0.06627 -0.008,-0.131033 l -0.0032,-0.115947 0.146452,0.147401 c 0.08055,0.08107 0.148642,0.147356 0.151325,0.147306 0.0027,-4.8e-5 0.0069,-0.0025 0.0093,-0.0055 0.0028,-0.0033 0.0058,-0.07684 0.0081,-0.194001 0.0028,-0.145991 0.0049,-0.190156 0.0094,-0.195503 0.0032,-0.0038 0.01289,-0.0075 0.02164,-0.0082 0.01257,-0.0011 0.01589,-0.0032 0.01589,-0.01 0,-0.0083 -0.0029,-0.0086 -0.0757,-0.0086 -0.07282,0 -0.0757,3.22e-4 -0.0757,0.0086 0,0.0065 0.0032,0.009 0.01298,0.0098 0.02479,0.0023 0.03278,0.0056 0.03633,0.01516 0.0019,0.0053 0.0049,0.06596 0.0067,0.134831 l 0.0031,0.125224 L 4.927196,10.38186 C 4.869296,10.3225 4.804424,10.25519 4.783035,10.23227 4.751995,10.19901 4.737995,10.18645 4.729655,10.18624 Z m 5.244366,0.0019 c -0.07401,0 -0.123187,0.01843 -0.167096,0.0626 -0.0395,0.03975 -0.05987,0.09101 -0.05996,0.150976 -1.63e-4,0.102661 0.06539,0.188031 0.161139,0.209855 0.0407,0.0093 0.105886,0.0056 0.143258,-0.0081 0.06918,-0.02535 0.11633,-0.07681 0.135141,-0.147444 0.0089,-0.03358 0.0076,-0.100003 -0.0026,-0.133139 -0.02678,-0.0867 -0.101616,-0.134729 -0.209907,-0.134729 z m -3.005022,0.0043 c -0.0011,2.7e-5 -0.0022,1.35e-4 -0.0036,2.58e-4 -0.0059,5.57e-4 -0.06532,0.0015 -0.131935,0.0022 -0.117849,0.0011 -0.121124,0.0014 -0.121124,0.0098 0,0.0071 0.0037,0.0091 0.02053,0.01101 0.01129,0.0013 0.02297,0.0048 0.02595,0.0078 0.0041,0.0042 0.0054,0.04463 0.0053,0.174998 -1.53e-4,0.184016 -7.51e-4,0.188977 -0.02272,0.189102 -0.01561,8.8e-5 -0.02442,0.0062 -0.02119,0.01455 0.0023,0.0059 0.01568,0.007 0.09687,0.0081 0.05184,6.87e-4 0.105325,0.0017 0.118849,0.0023 0.01353,5.38e-4 0.02948,-8.92e-4 0.03546,-0.0032 0.0124,-0.0047 0.01683,-0.0207 0.01744,-0.06293 3.43e-4,-0.02314 -5.58e-4,-0.02595 -0.0082,-0.02595 -0.0053,0 -0.0091,0.0033 -0.01,0.0086 -0.0029,0.01827 -0.01055,0.03151 -0.02086,0.03621 -0.01666,0.0076 -0.08426,0.0063 -0.09587,-0.0019 -0.0093,-0.0065 -0.0096,-0.0091 -0.0096,-0.08284 v -0.07611 l 0.04196,0.0028 c 0.04608,0.003 0.05233,0.0062 0.05707,0.02941 0.0036,0.01748 0.01644,0.02229 0.01951,0.0073 0.0011,-0.0055 0.0032,-0.02802 0.0046,-0.05003 0.0024,-0.03585 0.0018,-0.04001 -0.0048,-0.04001 -0.0041,0 -0.01064,0.0029 -0.01463,0.0066 -0.0051,0.0046 -0.0216,0.0074 -0.05549,0.0093 l -0.04825,0.0028 v -0.07053 -0.07053 l 0.0429,0.0028 c 0.02359,0.0015 0.04605,0.0041 0.04991,0.0055 0.0038,0.0015 0.0093,0.01121 0.01207,0.02163 0.0036,0.01335 0.0073,0.01894 0.01274,0.01894 0.0094,0 0.0115,-0.0088 0.0131,-0.05407 0.0011,-0.03026 0.0012,-0.03406 -0.006,-0.03387 z m 2.13927,0.0024 c -0.05668,0.0011 -0.05997,0.0017 -0.05997,0.0098 0,0.0066 0.0036,0.0092 0.0151,0.01082 0.0098,0.0014 0.01559,0.0048 0.01654,0.0097 0.0015,0.0081 -0.06897,0.249812 -0.07288,0.249814 -0.0013,10e-7 -0.01656,-0.03455 -0.03396,-0.07678 -0.07535,-0.182893 -0.08317,-0.200071 -0.09117,-0.200071 -0.0042,0 -0.0097,0.0024 -0.01207,0.0054 -0.0024,0.003 -0.02714,0.06672 -0.05497,0.141668 -0.02785,0.07494 -0.0511,0.136742 -0.05168,0.137332 -0.0028,0.0028 -0.07605,-0.246939 -0.07605,-0.259376 0,-0.0053 0.0033,-0.0077 0.01029,-0.0077 0.0057,0 0.01249,-0.0027 0.0152,-0.0059 0.01081,-0.01302 -0.0048,-0.01597 -0.07797,-0.01474 -0.06701,0.0011 -0.0708,0.0016 -0.0708,0.0097 0,0.006 0.0039,0.0093 0.01335,0.01121 0.0074,0.0015 0.01546,0.0041 0.01804,0.0056 0.0026,0.0016 0.03236,0.08609 0.06619,0.187778 0.03382,0.101688 0.06427,0.190358 0.06764,0.197049 0.0095,0.01875 0.01905,0.01298 0.03635,-0.02192 0.0086,-0.01726 0.03468,-0.08105 0.05806,-0.141742 l 0.0425,-0.110353 0.0589,0.141744 c 0.05475,0.131741 0.05966,0.141743 0.06956,0.141743 0.01016,0 0.01331,-0.008 0.06906,-0.173033 0.07916,-0.234484 0.076,-0.227104 0.09709,-0.227104 0.0055,0 0.01219,-0.0027 0.01489,-0.0059 0.01048,-0.01263 -0.0049,-0.01601 -0.06717,-0.01476 z m -5.364913,2.15e-4 c -0.08178,9.73e-4 -0.08499,0.0013 -0.08499,0.0096 0,0.0071 0.0037,0.0091 0.02053,0.01102 0.01129,0.0013 0.02297,0.0048 0.02595,0.0078 0.004,0.004 0.0061,0.04076 0.008,0.140388 0.0014,0.07423 0.0045,0.140868 0.007,0.148073 0.0092,0.02692 0.02276,0.04838 0.04173,0.06586 0.0334,0.03079 0.0652,0.04025 0.128753,0.03831 0.03574,-0.0011 0.04547,-0.0031 0.06921,-0.01434 0.0287,-0.01358 0.05624,-0.03774 0.06734,-0.05909 0.01912,-0.03679 0.02006,-0.04416 0.02265,-0.180529 0.0019,-0.100571 0.0039,-0.134019 0.0083,-0.139266 0.0032,-0.0038 0.01288,-0.0075 0.02163,-0.0082 0.01257,-0.0011 0.01589,-0.0032 0.01589,-0.01 0,-0.0083 -0.0029,-0.0086 -0.0757,-0.0086 -0.07282,0 -0.0757,3.22e-4 -0.0757,0.0086 0,0.007 0.0037,0.0092 0.019,0.01119 0.03193,0.0043 0.03143,0.0017 0.02961,0.151027 -0.0011,0.09162 -0.0033,0.137223 -0.0071,0.149239 -0.0031,0.0097 -0.01368,0.02511 -0.02396,0.03502 -0.03592,0.03459 -0.09417,0.03691 -0.130319,0.0052 -0.03473,-0.03049 -0.04066,-0.06104 -0.04062,-0.208891 3.5e-5,-0.119666 0.0017,-0.128723 0.0238,-0.131238 0.01747,-0.002 0.02529,-0.0087 0.01898,-0.01631 -0.0038,-0.0045 -0.023,-0.0056 -0.08982,-0.0049 z m 8.105895,1.2e-5 c -0.08115,8.92e-4 -0.08435,0.0013 -0.08435,0.0096 0,0.0069 0.0037,0.0092 0.01847,0.01112 0.01016,0.0014 0.02087,0.0049 0.0238,0.0078 0.0041,0.0041 0.0054,0.04602 0.0054,0.17273 0,0.09207 -0.0015,0.172757 -0.0033,0.179299 -0.0026,0.0093 -0.0059,0.01189 -0.01539,0.01189 -0.01535,0 -0.03064,0.0106 -0.02441,0.01693 0.0028,0.0028 0.04164,0.0051 0.101658,0.006 0.145913,0.0023 0.164513,0.0015 0.171082,-0.0075 0.0061,-0.0084 0.01209,-0.05347 0.0098,-0.07381 -0.0021,-0.01848 -0.01246,-0.01619 -0.01955,0.0043 -0.01103,0.03193 -0.01667,0.0346 -0.07273,0.0346 -0.04171,0 -0.05068,-0.0012 -0.0572,-0.0077 -0.0071,-0.0071 -0.0078,-0.02096 -0.009,-0.169281 -0.0015,-0.181593 -0.0024,-0.175549 0.02984,-0.175549 0.01818,0 0.0279,-0.01044 0.0164,-0.01763 -0.0033,-0.0021 -0.044,-0.0033 -0.09039,-0.0028 z m -4.178714,0.0011 c -0.107454,-9e-5 -0.110307,1.33e-4 -0.110307,0.0086 0,0.0071 0.0037,0.0091 0.02053,0.01102 0.01129,0.0013 0.02297,0.0048 0.02595,0.0078 0.0077,0.0077 0.0079,0.340313 1.78e-4,0.353715 -0.0034,0.0059 -0.01145,0.01015 -0.02271,0.01195 -0.01612,0.0026 -0.0221,0.0096 -0.01458,0.01711 0.0016,0.0016 0.04058,0.0028 0.08665,0.0028 0.07282,0 0.08412,-8.92e-4 0.08643,-0.0069 0.0035,-0.0091 -0.0058,-0.01455 -0.02511,-0.01464 -0.0252,-1.07e-4 -0.02738,-0.0061 -0.02902,-0.07967 l -0.0015,-0.06531 0.02582,0.0015 0.02582,0.0015 0.03404,0.04805 c 0.04302,0.06075 0.0768,0.09747 0.09892,0.107537 0.01354,0.0062 0.02836,0.0079 0.06813,0.008 0.04702,8.9e-5 0.05083,-5.15e-4 0.05083,-0.0081 0,-0.0086 -0.008,-0.01344 -0.02215,-0.01344 -0.02592,0 -0.05631,-0.02746 -0.125844,-0.113742 l -0.04461,-0.05535 0.0219,-0.02261 c 0.01205,-0.01244 0.02659,-0.03228 0.0323,-0.04409 0.01228,-0.02537 0.0161,-0.06384 0.0086,-0.08658 -0.0076,-0.023 -0.03095,-0.04695 -0.05732,-0.05876 -0.02186,-0.0098 -0.02664,-0.01016 -0.13298,-0.01025 z m -1.840625,1.33e-4 c -0.13129,-2.15e-4 -0.134096,-4.3e-5 -0.134096,0.0084 0,0.0071 0.0037,0.0091 0.02053,0.01102 0.01129,0.0013 0.02297,0.0048 0.02595,0.0078 0.0041,0.0042 0.0054,0.04466 0.0054,0.174998 -1.25e-4,0.184075 -7.09e-4,0.188978 -0.02275,0.189102 -0.01559,8.8e-5 -0.02443,0.0062 -0.02121,0.01451 0.0022,0.0057 0.01319,0.0071 0.06659,0.0081 0.16134,0.0033 0.176575,0.0031 0.204191,-0.0034 0.06861,-0.01618 0.11847,-0.05427 0.145375,-0.11108 0.03919,-0.08275 0.02727,-0.17618 -0.03016,-0.236387 -0.0261,-0.02737 -0.05399,-0.04311 -0.09753,-0.05511 -0.02412,-0.0067 -0.04717,-0.0078 -0.162217,-0.008 z m 6.927754,3.8e-5 c -0.129138,-2.58e-4 -0.131934,-7.9e-5 -0.131934,0.0084 0,0.0069 0.0037,0.0091 0.01801,0.01106 0.03362,0.0045 0.0318,-0.0059 0.03123,0.17873 -2.79e-4,0.09071 -0.0018,0.170747 -0.0032,0.177856 -0.0018,0.0084 -0.0058,0.01338 -0.01138,0.01422 -0.02346,0.0036 -0.02808,0.0058 -0.02808,0.01391 0,0.008 0.0039,0.0085 0.06596,0.01001 0.118051,0.0028 0.198211,1.66e-4 0.220818,-0.0072 0.07406,-0.02423 0.12972,-0.08173 0.145533,-0.150317 0.0024,-0.01044 0.0044,-0.03581 0.0045,-0.05638 2.79e-4,-0.09989 -0.05334,-0.168707 -0.150177,-0.192747 -0.02401,-0.006 -0.05282,-0.0073 -0.161172,-0.0075 z m -1.883879,2.5e-5 c -0.105356,-2.79e-4 -0.108147,-6.4e-5 -0.108147,0.0084 0,0.0069 0.0037,0.0091 0.01801,0.01106 0.03362,0.0045 0.03179,-0.0059 0.03123,0.178731 -2.79e-4,0.09071 -0.0018,0.170746 -0.0032,0.177854 -0.0018,0.0084 -0.0058,0.01338 -0.01139,0.01422 -0.02355,0.0036 -0.02809,0.0058 -0.02809,0.01402 0,0.0083 0.0032,0.0086 0.08449,0.0086 0.07348,0 0.08484,-8.92e-4 0.08715,-0.0069 0.0036,-0.0092 -0.0058,-0.01455 -0.02548,-0.01464 -0.01199,-5e-5 -0.01734,-0.0024 -0.02106,-0.0094 -0.0028,-0.0052 -0.006,-0.03759 -0.0072,-0.07249 l -0.0023,-0.06315 0.02738,0.0022 0.02738,0.0022 0.03368,0.04749 c 0.0457,0.06444 0.0732,0.09476 0.09594,0.105764 0.01679,0.0081 0.02532,0.0091 0.07039,0.008 0.04441,-0.0011 0.05147,-0.0022 0.0527,-0.0086 9.74e-4,-0.0052 -0.0023,-0.0082 -0.01077,-0.0099 -0.05016,-0.01035 -0.06298,-0.02103 -0.139285,-0.115947 l -0.04455,-0.05543 0.02437,-0.02556 c 0.03089,-0.03239 0.0419,-0.05669 0.04211,-0.09293 2.79e-4,-0.04758 -0.02103,-0.07851 -0.06599,-0.0958 -0.01614,-0.0062 -0.03629,-0.0074 -0.127315,-0.0076 z m -0.916634,0.02921 c 0.02204,1.38e-4 0.04417,0.0039 0.05783,0.01112 0.03056,0.01623 0.04284,0.02684 0.05805,0.05013 0.01964,0.03008 0.02722,0.05141 0.03285,0.09253 0.0089,0.06534 -0.0054,0.129305 -0.03704,0.164427 -0.03074,0.03419 -0.07987,0.04449 -0.129837,0.02722 -0.07333,-0.02534 -0.11843,-0.117638 -0.105815,-0.21652 0.0079,-0.06168 0.02835,-0.09808 0.06668,-0.118513 0.0133,-0.0071 0.03525,-0.01054 0.05729,-0.0104 z m -4.095596,0.0048 c 0.03788,-7.51e-4 0.08761,0.0115 0.119977,0.03048 0.05722,0.03353 0.08748,0.108867 0.0761,0.189484 -0.0089,0.06306 -0.03334,0.09697 -0.08402,0.116611 -0.02818,0.01091 -0.09759,0.01458 -0.119319,0.0063 -0.02714,-0.01034 -0.02655,-0.0063 -0.02655,-0.180599 v -0.158862 l 0.01838,-0.0025 c 0.0049,-6.65e-4 0.01001,-0.0011 0.01542,-0.0011 z m 5.047581,7.7e-5 c 0.01662,-6.88e-4 0.04014,0.006 0.05399,0.01584 0.01902,0.01355 0.02961,0.04099 0.02961,0.07673 0,0.03521 -0.0071,0.05611 -0.0242,0.07204 -0.0101,0.0094 -0.0155,0.01077 -0.04023,0.01047 -0.01571,-1.88e-4 -0.031,-0.0013 -0.03398,-0.0025 -0.0041,-0.0016 -0.0054,-0.02292 -0.0054,-0.08563 v -0.08346 l 0.01356,-0.0027 c 0.002,-4.08e-4 0.0043,-6.65e-4 0.0067,-7.51e-4 z m -3.197495,2.79e-4 c 0.01295,4.29e-4 0.02892,0.0043 0.03963,0.01 0.04546,0.02433 0.05513,0.112341 0.01657,0.150893 -0.01325,0.01325 -0.01623,0.01423 -0.04173,0.01391 -0.01511,-1.87e-4 -0.0299,-0.0013 -0.03287,-0.0025 -0.0041,-0.0016 -0.0054,-0.02292 -0.0054,-0.08563 v -0.08346 l 0.01216,-0.0024 c 0.0033,-6.65e-4 0.0073,-8.92e-4 0.01164,-7.51e-4 z m 5.08908,0.0011 c 0.04487,7.09e-4 0.08428,0.01206 0.115642,0.03327 0.02648,0.01791 0.03992,0.0345 0.05634,0.06957 0.01134,0.02422 0.01206,0.0293 0.01206,0.08417 0,0.05175 -0.0011,0.06086 -0.0099,0.08003 -0.02305,0.05016 -0.06629,0.0754 -0.134298,0.07841 -0.0296,0.0013 -0.04657,3.5e-5 -0.05829,-0.0044 -0.02098,-0.0079 -0.02065,-0.0075 -0.02492,-0.02953 -0.006,-0.031 -0.0049,-0.30514 0.0012,-0.30893 0.0028,-0.0018 0.02184,-0.0029 0.04218,-0.0026 z"
     class="ColorScheme-Text" />
  <path
     id="path5-7"
     style="fill:currentColor;stroke-width:0.000837037;paint-order:fill markers stroke"
     d="m 2.77806,6.8443326 v 2.4916537 h 0.300387 c 0.165212,0 0.301358,-0.0015 0.302547,-0.0035 0.0012,-0.0019 0.04606,-0.256147 0.09971,-0.564939 l 0.09755,-0.561444 -0.05201,-0.07203 -0.05202,-0.07204 0.359887,-0.0011 c 0.197938,-6.08e-4 0.360549,-4.42e-4 0.361358,3.66e-4 8.09e-4,8.1e-4 -0.01352,0.09815 -0.03184,0.216313 l -0.03332,0.214844 h -0.27644 c -0.236498,0 -0.276105,8.92e-4 -0.274097,0.0061 0.0044,0.01144 0.518836,0.822241 0.525844,0.828764 0.0062,0.0057 0.07381,0.0062 0.572829,0.0043 l 0.565858,-0.0022 -0.05832,-0.07778 c -0.03224,-0.043 -0.05702,-0.07996 -0.05541,-0.08266 0.0059,-0.0099 0.720421,-0.858287 0.722873,-0.858287 0.0024,0 0.272798,0.520764 0.272798,0.525464 0,0.0012 -0.129936,0.0023 -0.288747,0.0024 l -0.288747,7e-5 -0.05624,0.06949 c -0.03093,0.03822 -0.05688,0.07127 -0.05768,0.07346 -8.92e-4,0.0024 0.150487,0.004 0.382877,0.004 h 0.384321 l 0.04662,0.09336 0.04662,0.09336 -0.05604,0.05913 c -0.03082,0.03252 -0.06487,0.06772 -0.07568,0.07823 -0.0108,0.01051 -0.01864,0.02072 -0.0174,0.02271 0.0012,0.0019 0.188222,0.0037 0.415548,0.0037 0.36546,0 0.413034,-7.51e-4 0.410834,-0.0065 -0.0014,-0.0036 -0.166062,-0.289644 -0.365989,-0.635733 -0.199928,-0.346088 -0.363507,-0.630807 -0.363507,-0.632703 0,-0.0019 0.03212,-0.03553 0.07138,-0.07473 0.03926,-0.0392 0.07138,-0.07276 0.07138,-0.07457 0,-0.0018 -0.164975,-0.0032 -0.366611,-0.0031 l -0.366611,1.77e-4 -0.495224,0.5556884 c -0.272376,0.305629 -0.496237,0.555577 -0.497469,0.555448 -0.0012,-1.29e-4 -0.06585,-0.08919 -0.143587,-0.197905 l -0.141345,-0.19767 0.03103,-9.74e-4 c 0.201843,-0.0066 0.23672,-0.0112 0.281649,-0.03752 0.02432,-0.01425 0.05981,-0.05277 0.07347,-0.07974 0.01705,-0.03365 0.02615,-0.07921 0.04808,-0.240772 0.02169,-0.159762 0.02222,-0.181356 0.0056,-0.226243 -0.02132,-0.05742 -0.0549,-0.09193 -0.106328,-0.1092674 -0.0644,-0.02171 -0.03541,-0.02105 -0.940809,-0.02122 -0.465725,-8.3e-5 -0.846772,7.9e-4 -0.846772,0.0019 0,0.0011 0.02199,0.03278 0.04886,0.07029 0.02688,0.03751 0.05024,0.07045 0.0519,0.07319 0.0024,0.004 -0.234888,1.246069 -0.241177,1.262474 -8.92e-4,0.0024 -0.0018,-0.552893 -0.002,-1.233934 z m 2.570039,0 -0.003,0.05191 -0.003,0.05191 h 0.213075 0.213075 l -0.0024,0.02271 c -0.0014,0.01249 -0.0098,0.176494 -0.01868,0.36445 l -0.01622,0.341733 -0.04711,0.05191 -0.04712,0.05191 0.275789,0.0011 c 0.151683,6.12e-4 0.276712,1.91e-4 0.277842,-9.74e-4 0.0011,-0.0011 -0.01645,-0.02509 -0.03904,-0.05324 l -0.04108,-0.05119 0.01225,-0.293937 c 0.0067,-0.161666 0.01231,-0.303899 0.01239,-0.316076 1.42e-4,-0.02156 -8.92e-4,-0.02337 -0.03862,-0.06921 l -0.03876,-0.04707 0.229606,-0.0011 0.229607,-0.0011 0.04816,-0.04064 c 0.02648,-0.02235 0.0536,-0.04569 0.06027,-0.05187 l 0.01211,-0.01124 z m 1.289011,0 0.08305,4.75e-4 c 0.06072,3.46e-4 0.07781,0.0015 0.06358,0.0043 -0.03146,0.0062 -0.0705,0.02788 -0.09268,0.05158 -0.02987,0.03194 -0.04136,0.06035 -0.04591,0.113527 -0.0055,0.06493 -0.01872,0.563522 -0.01606,0.607738 0.0042,0.07062 0.03281,0.117144 0.08886,0.14474 l 0.02883,0.01419 0.555961,0.0011 c 0.372242,7.8e-4 0.563099,-3.24e-4 0.577581,-0.0033 0.04908,-0.0102 0.106144,-0.04669 0.126004,-0.08058 0.0065,-0.01101 0.01572,-0.0329 0.02059,-0.04866 0.0085,-0.02759 0.0089,-0.04052 0.01026,-0.350801 0.0015,-0.355993 0.0025,-0.341834 -0.02608,-0.386755 -0.0232,-0.03644 -0.05908,-0.05539 -0.119958,-0.06333 -0.01434,-0.0019 0.02005,-0.0033 0.08651,-0.0037 l 0.110308,-5.64e-4 0.04435,0.05147 0.04434,0.05148 v 0.366066 0.366066 l -0.04411,0.05072 -0.0441,0.05072 0.276225,0.0011 c 0.151924,6.12e-4 0.27711,2.23e-4 0.278196,-8.92e-4 0.0011,-0.0011 -0.01748,-0.02468 -0.04125,-0.05244 l -0.04322,-0.05047 -0.0032,-0.224652 c -0.0018,-0.123559 -0.0024,-0.225527 -0.0013,-0.226597 0.0011,-0.0011 0.09982,0.100248 0.219442,0.225152 l 0.217498,0.227104 h 0.05515 0.05516 l 0.20902,-0.227108 c 0.114925,-0.124909 0.209518,-0.22655 0.210204,-0.225863 6.87e-4,6.87e-4 0.0044,0.101994 0.0082,0.225121 0.0067,0.215033 0.0066,0.22427 -8.92e-4,0.234176 -0.0043,0.0057 -0.02314,0.02903 -0.04189,0.0519 -0.01874,0.02287 -0.03317,0.04251 -0.03205,0.04362 0.0011,0.0011 0.126045,0.0015 0.277625,8.93e-4 l 0.275604,-0.0011 -0.04521,-0.05045 -0.04521,-0.05046 -0.0027,-0.04471 c -0.0034,-0.05666 -0.02419,-0.628313 -0.02419,-0.663943 v -0.02661 l 0.03893,-0.04676 c 0.02141,-0.02572 0.03893,-0.0483 0.03893,-0.05018 0,-0.0019 0.01217,-0.0033 0.02704,-0.0031 l 0.02703,2.91e-4 0.02267,0.02675 c 0.01246,0.01471 0.03287,0.0381 0.04534,0.05198 l 0.02268,0.02525 0.015,0.364532 0.015,0.364533 -0.03838,0.04713 c -0.02111,0.02592 -0.04027,0.0496 -0.04257,0.05263 -0.0034,0.0045 0.115713,0.0053 0.622585,0.0043 l 0.626771,-0.0012 0.02857,-0.0097 c 0.0379,-0.01288 0.06369,-0.03585 0.07988,-0.07114 0.01149,-0.02503 0.01264,-0.03212 0.014,-0.08568 0.0017,-0.06757 -0.0061,-0.129403 -0.02062,-0.163092 -0.01313,-0.03046 -0.04715,-0.0621 -0.08,-0.07438 -0.01405,-0.0053 -0.06753,-0.02269 -0.118849,-0.03876 l -0.09331,-0.02921 -0.0012,-0.0149 -0.0012,-0.01491 0.0728,-0.01186 c 0.112151,-0.01827 0.135854,-0.02761 0.153377,-0.06043 0.0093,-0.01735 0.0099,-0.02335 0.0095,-0.09209 -4.59e-4,-0.09143 -0.0064,-0.134405 -0.02356,-0.169454 -0.02209,-0.04521 -0.07594,-0.08647 -0.125502,-0.09618 -0.01116,-0.0022 0.606082,-0.004 1.465555,-0.0042 l 1.484825,-4.76e-4 z m 2.152082,0.0011 c 0.131798,-6.15e-4 0.348052,-6.15e-4 0.480562,0 l 0.240924,0.0011 -0.221959,0.234675 -0.221965,0.234676 H 9.039614 9.012464 L 8.781008,7.0812076 8.549556,6.8465326 Z m -1.486561,0.102773 h 0.341537 l -0.002,0.202233 c -0.0011,0.111227 -0.0032,0.274741 -0.0046,0.363366 l -0.0026,0.161133 H 7.3305 7.02604 l 1.07e-4,-0.02488 c 5.8e-5,-0.01368 0.0029,-0.138754 0.0064,-0.277935 0.0035,-0.139183 0.0063,-0.269954 0.0064,-0.29061 l 1.07e-4,-0.03756 -0.03893,-0.04554 c -0.02141,-0.02504 -0.03894,-0.04659 -0.03894,-0.04788 0,-0.0013 0.153687,-0.0024 0.34153,-0.0024 z m 3.377835,0.0011 c 0.151525,-6.16e-4 0.277578,-3.23e-4 0.280117,6.47e-4 0.0043,0.0016 0.01838,0.208819 0.01437,0.211763 -8.92e-4,6.78e-4 -0.02893,0.0133 -0.06224,0.02804 l -0.06057,0.02681 -0.175815,-4.5e-5 -0.175816,-5e-5 -0.0025,-0.03785 c -0.0014,-0.02082 -0.0037,-0.05965 -0.0053,-0.08629 l -0.0027,-0.04843 -0.04253,-0.04672 -0.04253,-0.04673 z m -0.176144,0.334212 0.03549,0.03789 0.0355,0.0379 0.142618,-5.1e-5 0.142618,-4.4e-5 0.08232,0.0222 c 0.04528,0.01222 0.0836,0.02341 0.08516,0.02488 0.0027,0.0025 0.01663,0.212031 0.01662,0.250314 v 0.01838 H 10.78294 10.521225 l -3.2e-5,-0.01406 c -3.2e-5,-0.0077 -0.0039,-0.089 -0.0086,-0.180599 -0.0047,-0.0916 -0.0085,-0.173356 -0.0084,-0.181684 z m 1.221634,0.624935 0.07484,0.07496 0.07484,0.07496 0.04931,0.538294 c 0.02712,0.296062 0.05034,0.546566 0.05161,0.556677 l 0.0023,0.01839 h -0.591637 -0.591636 l -0.01683,-0.304917 c -0.0093,-0.167705 -0.01568,-0.30606 -0.01429,-0.307453 0.0014,-0.0014 0.04356,0.02487 0.0937,0.05835 l 0.09117,0.06088 h 0.361491 0.361491 l -0.0025,-0.02488 c -0.0047,-0.04618 -0.01521,-0.169864 -0.01521,-0.178509 0,-0.0085 -0.0041,-0.0086 -0.44988,-0.0086 h -0.449886 v -0.01838 c -3e-6,-0.01011 -0.0029,-0.06878 -0.0066,-0.130356 l -0.0066,-0.111969 -0.0687,-0.07187 -0.0687,-0.07187 0.507758,-0.0022 0.507766,-0.0022 -0.07164,-0.07462 -0.07165,-0.07462 h -0.731251 -0.73125 l 0.01029,0.01278 c 0.0057,0.0071 0.03705,0.04083 0.06977,0.07514 l 0.05949,0.06237 0.02059,0.55643 0.02059,0.556423 -0.06602,0.07867 c -0.03631,0.04327 -0.06602,0.08008 -0.06602,0.08181 0,0.0017 0.569864,0.0028 1.26637,0.0023 l 1.266377,-8.93e-4 -8.92e-4,-0.01712 c -4.93e-4,-0.0094 -0.02829,-0.263359 -0.06176,-0.564326 l -0.06085,-0.547209 -0.0745,-0.07237 -0.07451,-0.07237 0.362201,-8.9e-5 0.362206,-8.9e-5 0.0022,0.0097 c 0.0028,0.01235 0.05421,0.407244 0.05421,0.416194 0,0.0059 -0.03034,0.0067 -0.274686,0.0067 -0.151078,0 -0.274653,0.0015 -0.274616,0.0032 1.11e-4,0.0051 0.767563,0.838245 0.771083,0.837041 0.0017,-6.01e-4 0.176829,-0.0011 0.389087,-0.0011 h 0.385924 l -0.356382,-0.353643 -0.356384,-0.353634 0.09266,-0.0032 c 0.05097,-0.0017 0.108549,-0.005 0.127961,-0.0074 0.06045,-0.0072 0.09602,-0.03013 0.118932,-0.07668 0.02271,-0.04613 0.02204,-0.07231 -0.0068,-0.262526 -0.02539,-0.167532 -0.02999,-0.185773 -0.05939,-0.235025 -0.02012,-0.03372 -0.06194,-0.07451 -0.09374,-0.09146 -0.01469,-0.0078 -0.0457,-0.01948 -0.06891,-0.02589 l -0.04219,-0.01165 -0.865162,-0.0011 z m -4.281721,1.4e-4 c -0.232416,0 -0.42254,0.0015 -0.422499,0.0032 4.2e-5,0.0018 0.02728,0.03537 0.06053,0.07462 0.05614,0.06628 0.06044,0.07261 0.06025,0.08868 -1.16e-4,0.0095 -0.01717,0.296151 -0.03789,0.636969 l -0.03768,0.619669 h 0.301521 0.301521 l 0.0023,-0.01838 c 0.0012,-0.01011 0.01312,-0.288963 0.02641,-0.61967 0.01329,-0.330706 0.02513,-0.609254 0.0263,-0.618997 0.0019,-0.0157 0.0089,-0.0248 0.06106,-0.08003 0.0324,-0.03427 0.06383,-0.06767 0.06985,-0.07421 l 0.01094,-0.01189 z m 1.3975,2.5e-5 c -0.487137,-1.3e-5 -0.885667,0.0015 -0.885623,0.0032 4.6e-5,0.0018 0.01972,0.02563 0.04372,0.053 0.02401,0.02736 0.05241,0.05993 0.06311,0.07239 l 0.01946,0.02264 -0.01633,0.554852 -0.01633,0.554852 -0.07173,0.0793 c -0.03945,0.04362 -0.07239,0.08112 -0.0732,0.08334 -8.92e-4,0.0025 0.35388,0.0036 0.930049,0.0028 0.885403,-0.0012 0.932782,-0.0016 0.957304,-0.0091 0.08593,-0.02615 0.158036,-0.07983 0.185599,-0.138183 0.0065,-0.01381 0.01552,-0.03941 0.01999,-0.05691 0.01787,-0.06985 0.01799,-0.101152 0.0025,-0.57767 -0.01344,-0.413069 -0.01524,-0.449574 -0.02312,-0.471717 -0.02834,-0.07962 -0.07019,-0.125167 -0.137491,-0.149594 -0.06558,-0.0238 -0.03847,-0.02318 -0.997902,-0.0232 z m 0.0043,0.1513937 c 0.330982,2e-5 0.356199,0.0014 0.417424,0.02197 0.06167,0.02078 0.10626,0.05513 0.127245,0.09802 0.01029,0.02103 0.01193,0.03081 0.01494,0.08915 0.0019,0.03604 0.004,0.21542 0.0047,0.398617 0.0014,0.358728 0.0015,0.356267 -0.02118,0.401608 -0.0225,0.04489 -0.05743,0.07149 -0.118114,0.08997 l -0.03243,0.0099 -0.360121,0.0015 c -0.198067,7.94e-4 -0.360122,3e-4 -0.360122,-0.0011 0,-0.0015 0.03022,-0.03642 0.06716,-0.07777 l 0.06716,-0.07519 0.0041,-0.321488 c 0.0023,-0.17682 0.0041,-0.359498 0.0042,-0.405955 l 1.12e-4,-0.08446 -0.06272,-0.06996 c -0.0345,-0.03848 -0.06272,-0.07104 -0.06272,-0.07234 0,-0.0013 0.139673,-0.0024 0.31038,-0.0024 z m -4.116417,1.597186 c -0.0024,-5.5e-5 -0.0042,8.92e-4 -0.0059,0.0025 -0.0028,0.0028 -0.0055,0.07543 -0.0074,0.194692 -0.0032,0.2049227 -0.0031,0.2040637 -0.026,0.2040637 -0.01421,0 -0.0287,0.0099 -0.02449,0.01665 0.0021,0.0034 0.0263,0.0049 0.07867,0.0049 0.06414,0 0.07597,-9.74e-4 0.07815,-0.0067 0.0036,-0.0092 0.0011,-0.01079 -0.02296,-0.01422 -0.01915,-0.0028 -0.02139,-0.0043 -0.02584,-0.01809 -0.0028,-0.0084 -0.0062,-0.06627 -0.008,-0.1310337 l -0.0032,-0.115947 0.146452,0.147401 c 0.08055,0.08107 0.148642,0.1473567 0.151325,0.1473067 0.0027,-4.8e-5 0.0069,-0.0025 0.0093,-0.0055 0.0028,-0.0033 0.0058,-0.07684 0.0081,-0.1940017 0.0028,-0.145991 0.0049,-0.190156 0.0094,-0.195503 0.0032,-0.0038 0.01289,-0.0075 0.02164,-0.0082 0.01257,-0.0011 0.01589,-0.0032 0.01589,-0.01 0,-0.0083 -0.0029,-0.0086 -0.0757,-0.0086 -0.07282,0 -0.0757,3.22e-4 -0.0757,0.0086 0,0.0065 0.0032,0.009 0.01298,0.0098 0.02479,0.0023 0.03278,0.0056 0.03633,0.01516 0.0019,0.0053 0.0049,0.06596 0.0067,0.134831 l 0.0031,0.125224 -0.105269,-0.107919 c -0.0579,-0.05936 -0.122772,-0.12667 -0.144161,-0.14959 -0.03104,-0.03326 -0.04504,-0.04582 -0.05338,-0.04603 z m 5.244366,0.0019 c -0.07401,0 -0.123187,0.01843 -0.167096,0.0626 -0.0395,0.03975 -0.05987,0.09101 -0.05996,0.150976 -1.63e-4,0.102661 0.06539,0.1880317 0.161139,0.2098557 0.0407,0.0093 0.105886,0.0056 0.143258,-0.0081 0.06918,-0.02535 0.11633,-0.07681 0.135141,-0.1474447 0.0089,-0.03358 0.0076,-0.100003 -0.0026,-0.133139 -0.02678,-0.0867 -0.101616,-0.134729 -0.209907,-0.134729 z m -3.005022,0.0043 c -0.0011,2.7e-5 -0.0022,1.35e-4 -0.0036,2.58e-4 -0.0059,5.57e-4 -0.06532,0.0015 -0.131935,0.0022 -0.117849,0.0011 -0.121124,0.0014 -0.121124,0.0098 0,0.0071 0.0037,0.0091 0.02053,0.01101 0.01129,0.0013 0.02297,0.0048 0.02595,0.0078 0.0041,0.0042 0.0054,0.04463 0.0053,0.174998 -1.53e-4,0.1840167 -7.51e-4,0.1889777 -0.02272,0.1891027 -0.01561,8.8e-5 -0.02442,0.0062 -0.02119,0.01455 0.0023,0.0059 0.01568,0.007 0.09687,0.0081 0.05184,6.87e-4 0.105325,0.0017 0.118849,0.0023 0.01353,5.38e-4 0.02948,-8.92e-4 0.03546,-0.0032 0.0124,-0.0047 0.01683,-0.0207 0.01744,-0.06293 3.43e-4,-0.02314 -5.58e-4,-0.02595 -0.0082,-0.02595 -0.0053,0 -0.0091,0.0033 -0.01,0.0086 -0.0029,0.01827 -0.01055,0.03151 -0.02086,0.03621 -0.01666,0.0076 -0.08426,0.0063 -0.09587,-0.0019 -0.0093,-0.0065 -0.0096,-0.0091 -0.0096,-0.08284 v -0.07611 l 0.04196,0.0028 c 0.04608,0.003 0.05233,0.0062 0.05707,0.02941 0.0036,0.01748 0.01644,0.02229 0.01951,0.0073 0.0011,-0.0055 0.0032,-0.02802 0.0046,-0.05003 0.0024,-0.03585 0.0018,-0.04001 -0.0048,-0.04001 -0.0041,0 -0.01064,0.0029 -0.01463,0.0066 -0.0051,0.0046 -0.0216,0.0074 -0.05549,0.0093 l -0.04825,0.0028 v -0.07053 -0.07053 l 0.0429,0.0028 c 0.02359,0.0015 0.04605,0.0041 0.04991,0.0055 0.0038,0.0015 0.0093,0.01121 0.01207,0.02163 0.0036,0.01335 0.0073,0.01894 0.01274,0.01894 0.0094,0 0.0115,-0.0088 0.0131,-0.05407 0.0011,-0.03026 0.0012,-0.03406 -0.006,-0.03387 z m 2.13927,0.0024 c -0.05668,0.0011 -0.05997,0.0017 -0.05997,0.0098 0,0.0066 0.0036,0.0092 0.0151,0.01082 0.0098,0.0014 0.01559,0.0048 0.01654,0.0097 0.0015,0.0081 -0.06897,0.249812 -0.07288,0.249814 -0.0013,1e-6 -0.01656,-0.03455 -0.03396,-0.07678 -0.07535,-0.182893 -0.08317,-0.200071 -0.09117,-0.200071 -0.0042,0 -0.0097,0.0024 -0.01207,0.0054 -0.0024,0.003 -0.02714,0.06672 -0.05497,0.141668 -0.02785,0.07494 -0.0511,0.136742 -0.05168,0.137332 -0.0028,0.0028 -0.07605,-0.246939 -0.07605,-0.259376 0,-0.0053 0.0033,-0.0077 0.01029,-0.0077 0.0057,0 0.01249,-0.0027 0.0152,-0.0059 0.01081,-0.01302 -0.0048,-0.01597 -0.07797,-0.01474 -0.06701,0.0011 -0.0708,0.0016 -0.0708,0.0097 0,0.006 0.0039,0.0093 0.01335,0.01121 0.0074,0.0015 0.01546,0.0041 0.01804,0.0056 0.0026,0.0016 0.03236,0.08609 0.06619,0.187778 0.03382,0.101688 0.06427,0.1903587 0.06764,0.1970497 0.0095,0.01875 0.01905,0.01298 0.03635,-0.02192 0.0086,-0.01726 0.03468,-0.08105 0.05806,-0.1417427 l 0.0425,-0.110353 0.0589,0.141744 c 0.05475,0.1317417 0.05966,0.1417437 0.06956,0.1417437 0.01016,0 0.01331,-0.008 0.06906,-0.1730337 0.07916,-0.234484 0.076,-0.227104 0.09709,-0.227104 0.0055,0 0.01219,-0.0027 0.01489,-0.0059 0.01048,-0.01263 -0.0049,-0.01601 -0.06717,-0.01476 z m -5.364913,2.15e-4 c -0.08178,9.73e-4 -0.08499,0.0013 -0.08499,0.0096 0,0.0071 0.0037,0.0091 0.02053,0.01102 0.01129,0.0013 0.02297,0.0048 0.02595,0.0078 0.004,0.004 0.0061,0.04076 0.008,0.140388 0.0014,0.07423 0.0045,0.140868 0.007,0.148073 0.0092,0.02692 0.02276,0.04838 0.04173,0.06586 0.0334,0.03079 0.0652,0.04025 0.128753,0.03831 0.03574,-0.0011 0.04547,-0.0031 0.06921,-0.01434 0.0287,-0.01358 0.05624,-0.03774 0.06734,-0.05909 0.01912,-0.03679 0.02006,-0.04416 0.02265,-0.1805287 0.0019,-0.100571 0.0039,-0.134019 0.0083,-0.139266 0.0032,-0.0038 0.01288,-0.0075 0.02163,-0.0082 0.01257,-0.0011 0.01589,-0.0032 0.01589,-0.01 0,-0.0083 -0.0029,-0.0086 -0.0757,-0.0086 -0.07282,0 -0.0757,3.22e-4 -0.0757,0.0086 0,0.007 0.0037,0.0092 0.019,0.01119 0.03193,0.0043 0.03143,0.0017 0.02961,0.151027 -0.0011,0.09162 -0.0033,0.137223 -0.0071,0.149239 -0.0031,0.0097 -0.01368,0.02511 -0.02396,0.03502 -0.03592,0.03459 -0.09417,0.03691 -0.130319,0.0052 -0.03473,-0.03049 -0.04066,-0.06104 -0.04062,-0.2088917 3.5e-5,-0.119666 0.0017,-0.128723 0.0238,-0.131238 0.01747,-0.002 0.02529,-0.0087 0.01898,-0.01631 -0.0038,-0.0045 -0.023,-0.0056 -0.08982,-0.0049 z m 8.105895,1.2e-5 c -0.08115,8.92e-4 -0.08435,0.0013 -0.08435,0.0096 0,0.0069 0.0037,0.0092 0.01847,0.01112 0.01016,0.0014 0.02087,0.0049 0.0238,0.0078 0.0041,0.0041 0.0054,0.04602 0.0054,0.17273 0,0.09207 -0.0015,0.1727577 -0.0033,0.1792997 -0.0026,0.0093 -0.0059,0.01189 -0.01539,0.01189 -0.01535,0 -0.03064,0.0106 -0.02441,0.01693 0.0028,0.0028 0.04164,0.0051 0.101658,0.006 0.145913,0.0023 0.164513,0.0015 0.171082,-0.0075 0.0061,-0.0084 0.01209,-0.05347 0.0098,-0.07381 -0.0021,-0.01848 -0.01246,-0.01619 -0.01955,0.0043 -0.01103,0.03193 -0.01667,0.0346 -0.07273,0.0346 -0.04171,0 -0.05068,-0.0012 -0.0572,-0.0077 -0.0071,-0.0071 -0.0078,-0.02096 -0.009,-0.1692817 -0.0015,-0.181593 -0.0024,-0.175549 0.02984,-0.175549 0.01818,0 0.0279,-0.01044 0.0164,-0.01763 -0.0033,-0.0021 -0.044,-0.0033 -0.09039,-0.0028 z m -4.178714,0.0011 c -0.107454,-9e-5 -0.110307,1.33e-4 -0.110307,0.0086 0,0.0071 0.0037,0.0091 0.02053,0.01102 0.01129,0.0013 0.02297,0.0048 0.02595,0.0078 0.0077,0.0077 0.0079,0.3403137 1.78e-4,0.3537157 -0.0034,0.0059 -0.01145,0.01015 -0.02271,0.01195 -0.01612,0.0026 -0.0221,0.0096 -0.01458,0.01711 0.0016,0.0016 0.04058,0.0028 0.08665,0.0028 0.07282,0 0.08412,-8.92e-4 0.08643,-0.0069 0.0035,-0.0091 -0.0058,-0.01455 -0.02511,-0.01464 -0.0252,-1.07e-4 -0.02738,-0.0061 -0.02902,-0.07967 l -0.0015,-0.06531 0.02582,0.0015 0.02582,0.0015 0.03404,0.04805 c 0.04302,0.06075 0.0768,0.09747 0.09892,0.1075367 0.01354,0.0062 0.02836,0.0079 0.06813,0.008 0.04702,8.9e-5 0.05083,-5.15e-4 0.05083,-0.0081 0,-0.0086 -0.008,-0.01344 -0.02215,-0.01344 -0.02592,0 -0.05631,-0.02746 -0.125844,-0.1137417 l -0.04461,-0.05535 0.0219,-0.02261 c 0.01205,-0.01244 0.02659,-0.03228 0.0323,-0.04409 0.01228,-0.02537 0.0161,-0.06384 0.0086,-0.08658 -0.0076,-0.023 -0.03095,-0.04695 -0.05732,-0.05876 -0.02186,-0.0098 -0.02664,-0.01016 -0.13298,-0.01025 z m -1.840625,1.33e-4 c -0.13129,-2.15e-4 -0.134096,-4.3e-5 -0.134096,0.0084 0,0.0071 0.0037,0.0091 0.02053,0.01102 0.01129,0.0013 0.02297,0.0048 0.02595,0.0078 0.0041,0.0042 0.0054,0.04466 0.0054,0.174998 -1.25e-4,0.1840757 -7.09e-4,0.1889787 -0.02275,0.1891027 -0.01559,8.8e-5 -0.02443,0.0062 -0.02121,0.01451 0.0022,0.0057 0.01319,0.0071 0.06659,0.0081 0.16134,0.0033 0.176575,0.0031 0.204191,-0.0034 0.06861,-0.01618 0.11847,-0.05427 0.145375,-0.1110807 0.03919,-0.08275 0.02727,-0.17618 -0.03016,-0.236387 -0.0261,-0.02737 -0.05399,-0.04311 -0.09753,-0.05511 -0.02412,-0.0067 -0.04717,-0.0078 -0.162217,-0.008 z m 6.927754,3.8e-5 c -0.129138,-2.58e-4 -0.131934,-7.9e-5 -0.131934,0.0084 0,0.0069 0.0037,0.0091 0.01801,0.01106 0.03362,0.0045 0.0318,-0.0059 0.03123,0.17873 -2.79e-4,0.09071 -0.0018,0.1707477 -0.0032,0.1778567 -0.0018,0.0084 -0.0058,0.01338 -0.01138,0.01422 -0.02346,0.0036 -0.02808,0.0058 -0.02808,0.01391 0,0.008 0.0039,0.0085 0.06596,0.01001 0.118051,0.0028 0.198211,1.66e-4 0.220818,-0.0072 0.07406,-0.02423 0.12972,-0.08173 0.145533,-0.1503177 0.0024,-0.01044 0.0044,-0.03581 0.0045,-0.05638 2.79e-4,-0.09989 -0.05334,-0.168707 -0.150177,-0.192747 -0.02401,-0.006 -0.05282,-0.0073 -0.161172,-0.0075 z m -1.883879,2.5e-5 c -0.105356,-2.79e-4 -0.108147,-6.4e-5 -0.108147,0.0084 0,0.0069 0.0037,0.0091 0.01801,0.01106 0.03362,0.0045 0.03179,-0.0059 0.03123,0.178731 -2.79e-4,0.09071 -0.0018,0.1707467 -0.0032,0.1778547 -0.0018,0.0084 -0.0058,0.01338 -0.01139,0.01422 -0.02355,0.0036 -0.02809,0.0058 -0.02809,0.01402 0,0.0083 0.0032,0.0086 0.08449,0.0086 0.07348,0 0.08484,-8.92e-4 0.08715,-0.0069 0.0036,-0.0092 -0.0058,-0.01455 -0.02548,-0.01464 -0.01199,-5e-5 -0.01734,-0.0024 -0.02106,-0.0094 -0.0028,-0.0052 -0.006,-0.03759 -0.0072,-0.07249 l -0.0023,-0.06315 0.02738,0.0022 0.02738,0.0022 0.03368,0.04749 c 0.0457,0.06444 0.0732,0.09476 0.09594,0.1057637 0.01679,0.0081 0.02532,0.0091 0.07039,0.008 0.04441,-0.0011 0.05147,-0.0022 0.0527,-0.0086 9.74e-4,-0.0052 -0.0023,-0.0082 -0.01077,-0.0099 -0.05016,-0.01035 -0.06298,-0.02103 -0.139285,-0.1159467 l -0.04455,-0.05543 0.02437,-0.02556 c 0.03089,-0.03239 0.0419,-0.05669 0.04211,-0.09293 2.79e-4,-0.04758 -0.02103,-0.07851 -0.06599,-0.0958 -0.01614,-0.0062 -0.03629,-0.0074 -0.127315,-0.0076 z m -0.916634,0.02921 c 0.02204,1.38e-4 0.04417,0.0039 0.05783,0.01112 0.03056,0.01623 0.04284,0.02684 0.05805,0.05013 0.01964,0.03008 0.02722,0.05141 0.03285,0.09253 0.0089,0.06534 -0.0054,0.129305 -0.03704,0.1644277 -0.03074,0.03419 -0.07987,0.04449 -0.129837,0.02722 -0.07333,-0.02534 -0.11843,-0.1176387 -0.105815,-0.2165207 0.0079,-0.06168 0.02835,-0.09808 0.06668,-0.118513 0.0133,-0.0071 0.03525,-0.01054 0.05729,-0.0104 z m -4.095596,0.0048 c 0.03788,-7.51e-4 0.08761,0.0115 0.119977,0.03048 0.05722,0.03353 0.08748,0.108867 0.0761,0.189484 -0.0089,0.06306 -0.03334,0.09697 -0.08402,0.1166117 -0.02818,0.01091 -0.09759,0.01458 -0.119319,0.0063 -0.02714,-0.01034 -0.02655,-0.0063 -0.02655,-0.1805997 v -0.158862 l 0.01838,-0.0025 c 0.0049,-6.65e-4 0.01001,-0.0011 0.01542,-0.0011 z m 5.047581,7.7e-5 c 0.01662,-6.88e-4 0.04014,0.006 0.05399,0.01584 0.01902,0.01355 0.02961,0.04099 0.02961,0.07673 0,0.03521 -0.0071,0.05611 -0.0242,0.07204 -0.0101,0.0094 -0.0155,0.01077 -0.04023,0.01047 -0.01571,-1.88e-4 -0.031,-0.0013 -0.03398,-0.0025 -0.0041,-0.0016 -0.0054,-0.02292 -0.0054,-0.08563 v -0.08346 l 0.01356,-0.0027 c 0.002,-4.08e-4 0.0043,-6.65e-4 0.0067,-7.51e-4 z m -3.197495,2.79e-4 c 0.01295,4.29e-4 0.02892,0.0043 0.03963,0.01 0.04546,0.02433 0.05513,0.112341 0.01657,0.150893 -0.01325,0.01325 -0.01623,0.01423 -0.04173,0.01391 -0.01511,-1.87e-4 -0.0299,-0.0013 -0.03287,-0.0025 -0.0041,-0.0016 -0.0054,-0.02292 -0.0054,-0.08563 v -0.08346 l 0.01216,-0.0024 c 0.0033,-6.65e-4 0.0073,-8.92e-4 0.01164,-7.51e-4 z m 5.08908,0.0011 c 0.04487,7.09e-4 0.08428,0.01206 0.115642,0.03327 0.02648,0.01791 0.03992,0.0345 0.05634,0.06957 0.01134,0.02422 0.01206,0.0293 0.01206,0.08417 0,0.05175 -0.0011,0.06086 -0.0099,0.08003 -0.02305,0.05016 -0.06629,0.0754 -0.134298,0.07841 -0.0296,0.0013 -0.04657,3.5e-5 -0.05829,-0.0044 -0.02098,-0.0079 -0.02065,-0.0075 -0.02492,-0.02953 -0.006,-0.031 -0.0049,-0.3051397 0.0012,-0.3089297 0.0028,-0.0018 0.02184,-0.0029 0.04218,-0.0026 z"
     class="ColorScheme-Text" />
  <ellipse
     style="fill:none;stroke:#000000;stroke-width:0.582072;stroke-dasharray:none;stroke-opacity:1;filter:url(#filter3-8)"
     id="path1-5-7"
     cx="8.4450111"
     cy="8.423522"
     rx="6.8752708"
     ry="6.8578653"
     transform="matrix(0.4782969,0,0,0.4782969,8.9000071,8.8280171)" />
  <ellipse
     style="fill:currentColor;fill-opacity:1;stroke:currentColor;stroke-width:0.278402;stroke-dasharray:none;stroke-opacity:1"
     id="path1-59"
     cx="12.939234"
     cy="12.856965"
     rx="3.2884204"
     ry="3.2800953"
     class="ColorScheme-Text" />
  <ellipse
     style="fill:currentColor;stroke:none;stroke-width:0.246622;stroke-dasharray:none;stroke-opacity:1"
     id="path1-2-2"
     cx="12.939234"
     cy="12.856965"
     rx="2.9130225"
     ry="2.9056478"
     class="ColorScheme-Highlight" />
  <path
     id="path1-36-3"
     style="fill:#000000;fill-opacity:1;stroke:none;stroke-width:0.124104;stroke-dasharray:none;stroke-dashoffset:2.2;stroke-opacity:0.3;opacity:0.3"
     d="m 14.021099,11.736685 c -0.06523,-2.7e-5 -0.135047,0.02623 -0.222431,0.07744 -0.207942,0.121835 -0.479893,0.179294 -0.853351,0.179294 -0.373425,0 -0.654446,-0.05868 -0.861152,-0.179813 -0.165749,-0.09713 -0.264703,-0.09842 -0.403809,-0.0046 -0.357127,0.240662 -0.62628,1.012267 -0.705238,2.020557 -0.04735,0.604628 -0.0031,0.923391 0.153311,1.102784 0.07546,0.08649 0.260665,0.07183 0.427716,-0.0343 0.141607,-0.08996 0.310333,-0.288477 0.511911,-0.602326 0.182153,-0.283608 0.40248,-0.377017 0.889733,-0.377816 0.486283,-7.65e-4 0.677387,0.09125 0.901686,0.436021 0.376321,0.578447 0.72416,0.779828 0.928191,0.537359 0.113031,-0.134326 0.133719,-0.264107 0.128366,-0.804479 -0.0098,-0.981615 -0.266353,-1.87461 -0.636118,-2.215438 -0.09848,-0.09078 -0.174941,-0.134569 -0.258815,-0.134604 z m -2.112591,0.578416 h 0.225551 0.22555 v 0.193324 0.193326 h 0.19333 0.193331 v 0.241656 0.241656 h -0.193331 -0.19333 v 0.209435 0.209435 h -0.204243 c -0.112206,0 -0.213221,-0.01005 -0.225032,-0.02182 -0.0118,-0.01181 -0.02182,-0.105569 -0.02182,-0.208914 v -0.188138 h -0.193337 -0.193331 v -0.241656 -0.241656 h 0.193331 0.193332 v -0.193326 z m 1.83871,0 c 0.203478,0 0.290618,0.225442 0.14396,0.372098 -0.09327,0.09326 -0.178394,0.100588 -0.270247,0.02287 -0.159321,-0.134809 -0.07616,-0.394964 0.126287,-0.394964 z m -0.391336,0.413154 c 0.05081,3.5e-5 0.101967,0.02029 0.142399,0.06495 0.06302,0.06964 0.06984,0.229093 0.013,0.303499 -0.111241,0.145623 -0.378344,0.05196 -0.378344,-0.13252 0,-0.140009 0.111172,-0.236016 0.22295,-0.23594 z m 0.798786,0.0078 c 0.05856,0.0011 0.115418,0.02047 0.148634,0.05716 0.06302,0.06964 0.06983,0.229092 0.013,0.303499 -0.118321,0.154886 -0.378346,0.05122 -0.378346,-0.150713 0,-0.06121 0.02453,-0.127549 0.05873,-0.158506 0.03909,-0.03538 0.09943,-0.05251 0.15799,-0.05145 z m -0.393417,0.416788 c 0.180393,0 0.268168,0.19134 0.159029,0.347153 -0.0373,0.05326 -0.08282,0.07171 -0.176699,0.07171 -0.108097,0 -0.133181,-0.01407 -0.176699,-0.09823 -0.08582,-0.165932 0.0078,-0.320649 0.194369,-0.320649 z" />
  <path
     id="path1-36"
     style="fill:currentColor;fill-opacity:1;stroke:none;stroke-width:0.124104;stroke-dasharray:none;stroke-dashoffset:2.2;stroke-opacity:0.3"
     d="m 14.021099,11.207529 c -0.06523,-2.7e-5 -0.135047,0.02623 -0.222431,0.07744 -0.207942,0.121835 -0.479893,0.179294 -0.853351,0.179294 -0.373425,0 -0.654446,-0.05868 -0.861152,-0.179813 -0.165749,-0.09713 -0.264703,-0.09842 -0.403809,-0.0046 -0.357127,0.240662 -0.62628,1.012267 -0.705238,2.020557 -0.04735,0.604628 -0.0031,0.923391 0.153311,1.102784 0.07546,0.08649 0.260665,0.07183 0.427716,-0.0343 0.141607,-0.08996 0.310333,-0.288477 0.511911,-0.602326 0.182153,-0.283608 0.40248,-0.377017 0.889733,-0.377816 0.486283,-7.65e-4 0.677387,0.09125 0.901686,0.436021 0.376321,0.578447 0.72416,0.779828 0.928191,0.537359 0.113031,-0.134326 0.133719,-0.264107 0.128366,-0.804479 -0.0098,-0.981615 -0.266353,-1.87461 -0.636118,-2.215438 -0.09848,-0.09078 -0.174941,-0.134569 -0.258815,-0.134604 z m -2.112591,0.578416 h 0.225551 0.22555 v 0.193324 0.193326 h 0.19333 0.193331 v 0.241656 0.241656 h -0.193331 -0.19333 v 0.209435 0.209435 h -0.204243 c -0.112206,0 -0.213221,-0.01005 -0.225032,-0.02182 -0.0118,-0.01181 -0.02182,-0.105569 -0.02182,-0.208914 v -0.188138 h -0.193337 -0.193331 v -0.241656 -0.241656 h 0.193331 0.193332 v -0.193326 z m 1.83871,0 c 0.203478,0 0.290618,0.225442 0.14396,0.372098 -0.09327,0.09326 -0.178394,0.100588 -0.270247,0.02287 -0.159321,-0.134809 -0.07616,-0.394964 0.126287,-0.394964 z m -0.391336,0.413154 c 0.05081,3.5e-5 0.101967,0.02029 0.142399,0.06495 0.06302,0.06964 0.06984,0.229093 0.013,0.303499 -0.111241,0.145623 -0.378344,0.05196 -0.378344,-0.13252 0,-0.140009 0.111172,-0.236016 0.22295,-0.23594 z m 0.798786,0.0078 c 0.05856,0.0011 0.115418,0.02047 0.148634,0.05716 0.06302,0.06964 0.06983,0.229092 0.013,0.303499 -0.118321,0.154886 -0.378346,0.05122 -0.378346,-0.150713 0,-0.06121 0.02453,-0.127549 0.05873,-0.158506 0.03909,-0.03538 0.09943,-0.05251 0.15799,-0.05145 z m -0.393417,0.416788 c 0.180393,0 0.268168,0.19134 0.159029,0.347153 -0.0373,0.05326 -0.08282,0.07171 -0.176699,0.07171 -0.108097,0 -0.133181,-0.01407 -0.176699,-0.09823 -0.08582,-0.165932 0.0078,-0.320649 0.194369,-0.320649 z"
     class="ColorScheme-Text" />
  <path
     id="gradient-path1"
     style="opacity:0.3;baseline-shift:baseline;display:inline;overflow:visible;vector-effect:none;enable-background:accumulate;stop-color:#000000;stop-opacity:1;fill:url(#linearGradient5)"
     d="M 8.4453131 1.2753492 C 4.4913166 1.2753492 1.2794833 4.4784283 1.2794833 8.4236094 C 1.2794833 12.36879 4.4913166 15.572386 8.4453131 15.572386 C 9.1638027 15.572386 9.8576697 15.466358 10.51233 15.269568 C 11.133159 15.890536 11.991864 16.275172 12.939524 16.275172 C 14.830708 16.275172 16.367154 14.744327 16.367154 12.85736 C 16.367154 11.897867 15.969699 11.029882 15.330545 10.408462 C 15.513101 9.7781514 15.611143 9.1121932 15.611143 8.4236094 C 15.611143 4.4784283 12.39931 1.2753492 8.4453131 1.2753492 z " />
</svg>
