<?xml version='1.0' encoding='UTF-8'?>
<svg xmlns:inkscape="http://www.inkscape.org/namespaces/inkscape" xmlns:sodipodi="http://sodipodi.sourceforge.net/DTD/sodipodi-0.dtd" xmlns:xlink="http://www.w3.org/1999/xlink" xmlns="http://www.w3.org/2000/svg" xmlns:svg="http://www.w3.org/2000/svg" xmlns:rdf="http://www.w3.org/1999/02/22-rdf-syntax-ns#" xmlns:cc="http://creativecommons.org/ns#" xmlns:dc="http://purl.org/dc/elements/1.1/" width="64" height="64" version="1.1" viewBox="0 0 16.933 16.933" id="svg7" sodipodi:docname="steam.svg" inkscape:version="1.4.2 (ebf0e940d0, 2025-05-08)">
  <sodipodi:namedview id="namedview7" pagecolor="#a9abb3" bordercolor="#000000" borderopacity="0.25" inkscape:showpageshadow="2" inkscape:pageopacity="0.0" inkscape:pagecheckerboard="0" inkscape:deskcolor="#d1d1d1" inkscape:zoom="4.3531261" inkscape:cx="36.066035" inkscape:cy="26.417797" inkscape:window-width="2560" inkscape:window-height="1372" inkscape:window-x="0" inkscape:window-y="0" inkscape:window-maximized="1" inkscape:current-layer="svg7" showgrid="false"/>
  <defs id="defs2">
    <filter style="color-interpolation-filters:sRGB;" inkscape:label="Blur" id="filter3" x="-0.10843471" y="-0.10870992" width="1.2168694" height="1.2174198">
      <feGaussianBlur stdDeviation="0.5 0.5" result="blur" id="feGaussianBlur3"/>
    </filter>
    <style id="current-color-scheme" type="text/css">.ColorScheme-Text {color:#d8dee9} .ColorScheme-Highlight {color:#3b4252}</style><linearGradient id="linearGradient3" inkscape:collect="always">
      <stop style="stop-color:#000000;stop-opacity:1;" offset="0" id="stop3"/>
      <stop style="stop-color:#000000;stop-opacity:0;" offset="1" id="stop4"/>
    </linearGradient>
    <linearGradient inkscape:collect="always" xlink:href="#linearGradient3" id="linearGradient4" x1="13.512321" y1="13.490874" x2="3.3783066" y2="3.3568602" gradientUnits="userSpaceOnUse"/>
  </defs>
  <metadata id="metadata2">
    <rdf:RDF>
      <cc:Work rdf:about="">
        <dc:format>image/svg+xml</dc:format>
        <dc:type rdf:resource="http://purl.org/dc/dcmitype/StillImage"/>
      </cc:Work>
    </rdf:RDF>
  </metadata>
  <ellipse style="opacity:1;fill:none;stroke:#000000;stroke-width:0.582072;stroke-dasharray:none;stroke-opacity:1;filter:url(#filter3)" id="path1-5" cx="8.4450111" cy="8.423522" rx="6.8752708" ry="6.8578653"/>
  <ellipse style="opacity:1;fill:none;stroke-width:0.58207188;stroke-opacity:1;stroke:currentColor;stroke-dasharray:none;fill-opacity:1" id="path1" cx="8.4450111" cy="8.423522" rx="6.8752708" ry="6.8578653" class="ColorScheme-Text"/>
  <ellipse style="fill:currentColor;stroke:none;stroke-width:0.285844;stroke-dasharray:none;stroke-opacity:1" id="path1-2" cx="8.4557552" cy="8.423522" rx="6.5738997" ry="6.5692253" class="ColorScheme-Highlight"/>
<path fill="currentColor" class="ColorScheme-Text" d="M 10.596645,5.9188772 A 1.6567775,1.6567775 0 0 0 8.9620565,7.3112356 L 7.7888135,9.2592439 A 1.420095,1.420095 0 0 0 7.5197725,9.232433 1.420095,1.420095 0 0 0 6.9012555,9.3757366 L 4.8062445,8.1664363 a 4.73365,4.73365 0 0 0 -0.126662,1.0659956 4.73365,4.73365 0 0 0 0.03421,0.5205165 l 1.389584,0.8015776 a 1.420095,1.420095 0 0 0 -0.0037,0.098 1.420095,1.420095 0 0 0 1.420095,1.420095 1.420095,1.420095 0 0 0 1.420095,-1.420095 1.420095,1.420095 0 0 0 -0.0074,-0.134058 L 11.004363,9.1788084 A 1.6567775,1.6567775 0 0 0 12.253417,7.5756544 1.6567775,1.6567775 0 0 0 10.59664,5.9188772 Z m 0,0.473365 A 1.1834125,1.1834125 0 0 1 11.780057,7.5756544 1.1834125,1.1834125 0 0 1 10.596645,8.7590668 1.1834125,1.1834125 0 0 1 9.4132325,7.5756544 1.1834125,1.1834125 0 0 1 10.596645,6.3922422 Z m 0,0.473365 A 0.71004751,0.71004751 0 0 0 9.8865985,7.5756544 0.71004751,0.71004751 0 0 0 10.596645,8.2857018 0.71004751,0.71004751 0 0 0 11.306692,7.5756544 0.71004751,0.71004751 0 0 0 10.596645,6.8656072 Z M 7.5197725,9.7057969 a 0.94672994,0.94672994 0 0 1 0.946731,0.9467301 0.94672994,0.94672994 0 0 1 -0.946731,0.94673 0.94672994,0.94672994 0 0 1 -0.927314,-0.762746 l 0.333759,0.193229 c 0.340665,0.196683 0.773161,0.08087 0.969844,-0.259796 0.196682,-0.340666 0.08087,-0.7731603 -0.259797,-0.9698438 l -0.159945,-0.092454 a 0.94672994,0.94672994 0 0 1 0.04345,-0.00188 z" id="path24-3" style="fill:#000000;fill-opacity:1;stroke-width:0.205811;opacity:0.3"/>
  <path fill="currentColor" class="ColorScheme-Text" d="M 10.596646,5.3896275 A 1.6567775,1.6567775 0 0 0 8.9620565,6.7819859 L 7.7888135,8.7299942 A 1.420095,1.420095 0 0 0 7.5197725,8.7031833 1.420095,1.420095 0 0 0 6.9012555,8.8464869 L 4.8062445,7.6371866 a 4.73365,4.73365 0 0 0 -0.126662,1.0659956 4.73365,4.73365 0 0 0 0.03421,0.5205166 l 1.389584,0.8015772 a 1.420095,1.420095 0 0 0 -0.0037,0.098 1.420095,1.420095 0 0 0 1.420095,1.420095 1.420095,1.420095 0 0 0 1.420095,-1.420095 1.420095,1.420095 0 0 0 -0.0074,-0.134058 L 11.004363,8.6495588 A 1.6567775,1.6567775 0 0 0 12.253417,7.0464047 1.6567775,1.6567775 0 0 0 10.59664,5.3896275 Z m 0,0.473365 A 1.1834125,1.1834125 0 0 1 11.780057,7.0464047 1.1834125,1.1834125 0 0 1 10.596646,8.2298171 1.1834125,1.1834125 0 0 1 9.4132325,7.0464047 1.1834125,1.1834125 0 0 1 10.596646,5.8629925 Z m 0,0.473365 A 0.71004751,0.71004751 0 0 0 9.8865985,7.0464047 0.71004751,0.71004751 0 0 0 10.596646,7.7564521 0.71004751,0.71004751 0 0 0 11.306692,7.0464047 0.71004751,0.71004751 0 0 0 10.596646,6.3363575 Z M 7.5197725,9.1765472 a 0.94672994,0.94672994 0 0 1 0.946731,0.9467298 0.94672994,0.94672994 0 0 1 -0.946731,0.94673 0.94672994,0.94672994 0 0 1 -0.927314,-0.762746 l 0.333759,0.193229 c 0.340665,0.196683 0.773161,0.08087 0.969844,-0.259796 0.196682,-0.3406655 0.08087,-0.77316 -0.259797,-0.9698435 l -0.159945,-0.092454 a 0.94672994,0.94672994 0 0 1 0.04345,-0.00188 z" id="path24-3-7" style="fill:currentColor;fill-opacity:1;stroke-width:0.205811"/>
<path id="gradient-path1" style="opacity:0.3;baseline-shift:baseline;display:inline;overflow:visible;vector-effect:none;enable-background:accumulate;stop-color:#000000;stop-opacity:1;fill:url(#linearGradient4)" d="M 8.4453131 1.2753492 C 4.4913166 1.2753492 1.2794833 4.4784283 1.2794833 8.4236094 C 1.2794833 12.36879 4.4913166 15.572386 8.4453131 15.572386 C 12.39931 15.572386 15.611143 12.36879 15.611143 8.4236094 C 15.611143 4.4784283 12.39931 1.2753492 8.4453131 1.2753492 z "/>
</svg>
