<?xml version="1.0" encoding="UTF-8" standalone="no"?>
<svg
   width="64"
   height="64"
   version="1.1"
   viewBox="0 0 16.933 16.933"
   id="svg7"
   sodipodi:docname="template copy.svg"
   inkscape:version="1.4.2 (ebf0e940d0, 2025-05-08)"
   xmlns:inkscape="http://www.inkscape.org/namespaces/inkscape"
   xmlns:sodipodi="http://sodipodi.sourceforge.net/DTD/sodipodi-0.dtd"
   xmlns:xlink="http://www.w3.org/1999/xlink"
   xmlns="http://www.w3.org/2000/svg"
   xmlns:svg="http://www.w3.org/2000/svg"
   xmlns:rdf="http://www.w3.org/1999/02/22-rdf-syntax-ns#"
   xmlns:cc="http://creativecommons.org/ns#"
   xmlns:dc="http://purl.org/dc/elements/1.1/">
  <sodipodi:namedview
     id="namedview7"
     pagecolor="#9c4444"
     bordercolor="#000000"
     borderopacity="0.25"
     inkscape:showpageshadow="2"
     inkscape:pageopacity="0.0"
     inkscape:pagecheckerboard="0"
     inkscape:deskcolor="#d1d1d1"
     inkscape:zoom="4.3531261"
     inkscape:cx="36.180895"
     inkscape:cy="25.958357"
     inkscape:window-width="2560"
     inkscape:window-height="1388"
     inkscape:window-x="0"
     inkscape:window-y="0"
     inkscape:window-maximized="1"
     inkscape:current-layer="svg7"
     showgrid="false" />
  <defs
     id="defs2">
    <filter
       style="color-interpolation-filters:sRGB;"
       inkscape:label="Blur"
       id="filter3"
       x="-0.10843471"
       y="-0.10870992"
       width="1.2168694"
       height="1.2174198">
      <feGaussianBlur
         stdDeviation="0.5 0.5"
         result="blur"
         id="feGaussianBlur3" />
    </filter>
    <filter
       style="color-interpolation-filters:sRGB"
       inkscape:label="Blur"
       id="filter3-8"
       x="-0.10843471"
       y="-0.10870992"
       width="1.2168694"
       height="1.2174198">
      <feGaussianBlur
         stdDeviation="0.5 0.5"
         result="blur"
         id="feGaussianBlur3-7" />
    </filter>
    <style
       id="current-color-scheme"
       type="text/css">.ColorScheme-Text {color:#d8dee9} .ColorScheme-Highlight {color:#3b4252}</style>
    <linearGradient
       id="linearGradient4"
       inkscape:collect="always">
      <stop
         style="stop-color:#000000;stop-opacity:1;"
         offset="0"
         id="stop4" />
      <stop
         style="stop-color:#000000;stop-opacity:0;"
         offset="1"
         id="stop5" />
    </linearGradient>
    <linearGradient
       inkscape:collect="always"
       xlink:href="#linearGradient4"
       id="linearGradient5"
       x1="14.157616"
       y1="14.109557"
       x2="3.4890218"
       y2="3.440964"
       gradientUnits="userSpaceOnUse" />
  </defs>
  <metadata
     id="metadata2">
    <rdf:RDF>
      <cc:Work
         rdf:about="">
        <dc:format>image/svg+xml</dc:format>
        <dc:type
           rdf:resource="http://purl.org/dc/dcmitype/StillImage" />
      </cc:Work>
    </rdf:RDF>
  </metadata>
  <ellipse
     style="opacity:1;fill:none;stroke:#000000;stroke-width:0.582072;stroke-dasharray:none;stroke-opacity:1;filter:url(#filter3)"
     id="path1-5"
     cx="8.4450111"
     cy="8.423522"
     rx="6.8752708"
     ry="6.8578653" />
  <ellipse
     style="opacity:1;fill:none;stroke-width:0.58207188;stroke-opacity:1;stroke:currentColor;stroke-dasharray:none;fill-opacity:1"
     id="path1"
     cx="8.4450111"
     cy="8.423522"
     rx="6.8752708"
     ry="6.8578653"
     class="ColorScheme-Text" />
  <ellipse
     style="fill:currentColor;stroke:none;stroke-width:0.285728;stroke-dasharray:none;stroke-opacity:1"
     id="path1-2"
     cx="8.4450111"
     cy="8.423522"
     rx="6.5766377"
     ry="6.5612183"
     class="ColorScheme-Highlight" />
  <path
     id="path5"
     style="opacity:0.3;fill:#000000;fill-opacity:1;stroke-width:0.164497"
     d="m 8.4665075,5.0269844 c -2.14983,0 -3.892986,1.7822836 -3.892986,3.969473 0,0.3362542 0.04122,0.6629291 0.11875,0.9750369 0.07822,-0.045122 0.166702,-0.072598 0.257033,-0.078661 0.0011,-0.042631 0.0034,-0.091699 0.0095,-0.1195485 0.01512,-0.070497 0.05095,-0.1335494 0.100742,-0.1825838 -0.03187,-0.1931255 -0.04846,-0.3916464 -0.04846,-0.5942436 0,-1.9555373 1.546984,-3.5318777 3.455418,-3.5318777 1.9084325,0 3.4554185,1.5763404 3.4554185,3.5318777 0,0.2034464 -0.01676,0.4027826 -0.04892,0.5966667 0.04037,0.04065 0.07002,0.091807 0.08854,0.15418 0.01155,0.038895 0.01523,0.086927 0.01636,0.1455575 0.03974,0.00226 0.07791,0.00776 0.10942,0.015852 0.05282,0.013531 0.104914,0.035101 0.153314,0.063245 0.07761,-0.3122381 0.118841,-0.6390659 0.118841,-0.9754729 0,-2.1871893 -1.74314,-3.969473 -3.8929745,-3.969473 z m -0.01042,0.8440182 -0.56225,0.637792 c 0.287588,0.4000934 0.274974,0.7755026 0.274974,0.7755026 -0.237257,-0.3565677 -0.543692,-0.488045 -0.543692,-0.488045 l -0.362597,0.4001104 c 0.450232,0.1936747 0.575153,0.5061392 0.575153,0.5061392 0.493769,0.9566993 0.0061,1.5878447 0.0061,1.5878447 -0.08165,0.096059 -0.167196,0.1595131 -0.253138,0.1985096 h 1.721853 c -0.151474,-0.071788 -0.231505,-0.18529 -0.231505,-0.18529 -0.357915,-0.4731552 -0.206074,-1.2444966 -0.0088,-1.6052085 0.229342,-0.3892686 0.571711,-0.501995 0.571711,-0.501995 L 9.2878595,6.7962522 c -0.375301,0.2064074 -0.550004,0.4939613 -0.550004,0.4939613 0.01885,-0.4248002 0.274754,-0.7873408 0.274754,-0.7873408 z m 1.5705995,0.517315 c -0.02095,5.266e-4 0.02667,0.042631 0.02667,0.042631 1.428393,1.6782534 0.132858,2.8390955 0.132858,2.8390955 -0.124451,0.1062326 -0.2394195,0.1759881 -0.3443605,0.2188344 h 1.6452685 c 0.02429,-0.16505 0.03816,-0.3355748 0.0411,-0.5108948 -0.07802,-1.5126881 -0.833929,-2.1188776 -1.465239,-2.5784678 -0.01919,-0.00821 -0.0304,-0.011323 -0.03629,-0.011153 z m -3.1405815,0.00396 c -0.0045,0 -0.0099,0.00113 -0.01104,0.00113 -0.925114,0.6086069 -1.431105,1.5295764 -1.468811,2.5280407 -0.0059,0.1930122 0.0058,0.3826955 0.03363,0.5673967 h 1.642862 C 6.8670715,9.407466 6.7127055,9.2590839 6.7127055,9.2590839 5.4999805,8.0306207 6.8174215,6.4743785 6.8907705,6.4064404 c 0.0062,-0.011663 0.0011,-0.013984 -0.0045,-0.013984 z m -1.622165,3.2688212 c 0.0051,0.00113 0.0023,0.00283 -0.004,0.00453 -0.06688,0.020608 -0.118218,0.07613 -0.132666,0.1434967 -0.0034,0.016532 -0.0065,0.084974 -0.0065,0.1520796 0,0.1137059 -5.66e-4,0.1217229 -0.01064,0.1178899 -0.024,-0.0093 -0.07315,-0.01546 -0.123036,-0.01546 -0.122232,0 -0.243654,0.05718 -0.320283,0.150811 -0.03193,0.03901 -0.07053,0.115206 -0.08383,0.165492 -0.0023,0.0076 -0.0034,0.01127 -0.0045,0.007 v 0.180398 l 0.0094,0.03153 c 0.04456,0.149322 0.152736,0.253018 0.304544,0.291839 0.06606,0.01687 0.157684,0.01557 0.217305,-0.0034 0.0088,-0.0028 0.01025,0.0066 0.01246,0.0807 0.0023,0.07627 0.004,0.08727 0.01982,0.121921 0.01948,0.04291 0.05158,0.07533 0.09392,0.0949 l 0.02814,0.01302 1.058041,0.0017 1.058046,0.0017 0.01863,-0.01749 c 0.01025,-0.0096 0.02406,-0.02055 0.03074,-0.02423 0.0089,-0.0051 -0.264014,-0.0068 -1.015822,-0.007 -0.648946,-1.93e-4 -1.043446,-0.0023 -1.069913,-0.0063 -0.05344,-0.0077 -0.08703,-0.0227 -0.116027,-0.05169 -0.03872,-0.03873 -0.04818,-0.06764 -0.05078,-0.155641 l -0.0023,-0.07678 0.03255,-0.01874 c 0.106595,-0.06146 0.18217,-0.17729 0.200321,-0.307012 l 0.0074,-0.05293 h 3.051707 3.0517075 l 0.0074,0.05293 c 0.01795,0.128177 0.0895,0.239652 0.193827,0.3019 l 0.03227,0.01925 -0.0017,0.08211 c -0.0017,0.07799 -0.0028,0.08376 -0.01982,0.114697 -0.02174,0.03929 -0.04971,0.06346 -0.09447,0.0816 l -0.03346,0.01353 -1.07969,0.0028 -1.0797015,0.0028 -0.0402,-0.01302 c -0.07746,-0.02514 -0.125754,-0.02729 -0.558944,-0.02531 l -0.41059,0.0017 -0.0017,0.427195 -0.0017,0.427189 0.01647,0.004 c 0.0091,0.0023 0.208315,0.0023 0.442809,-1.24e-4 0.393696,-0.004 0.429981,-0.0051 0.473727,-0.01608 0.06607,-0.01653 0.09607,-0.03108 0.130589,-0.06335 0.03612,-0.0338 0.05797,-0.08 0.06809,-0.14408 0.01121,-0.07088 0.0045,-0.397699 -0.0089,-0.44628 -0.0137,-0.04897 -0.03561,-0.08537 -0.07238,-0.120137 -0.01681,-0.01591 -0.02683,-0.02887 -0.02225,-0.02887 0.01047,0 0.05463,0.03023 0.05463,0.03737 0,0.0028 0.463695,0.0045 1.0751265,0.004 l 1.075133,-0.0017 0.03182,-0.01438 c 0.03754,-0.01699 0.07623,-0.05674 0.0942,-0.09682 0.01059,-0.02361 0.01336,-0.04422 0.01557,-0.115393 0.0017,-0.04767 0.0028,-0.08668 0.0034,-0.08668 4.64e-4,0 0.01998,0.004 0.04342,0.009 0.218014,0.0462 0.429641,-0.08026 0.49365,-0.294914 l 0.0094,-0.03153 v -0.166121 c -0.0017,-0.0058 -0.004,-0.01393 -0.0059,-0.02287 -0.01098,-0.04659 -0.0501,-0.124112 -0.08274,-0.163981 -0.05378,-0.06574 -0.135587,-0.117108 -0.221393,-0.139052 -0.05622,-0.01438 -0.148308,-0.01563 -0.19813,-0.0028 -0.01925,0.0051 -0.03629,0.0091 -0.03776,0.0091 -0.0017,0 -0.0028,-0.05698 -0.0028,-0.1266309 0,-0.09804 -0.0023,-0.1339967 -0.0097,-0.1592074 -0.02078,-0.070033 -0.05926,-0.1079594 -0.133271,-0.131432 -0.0045,-0.0017 -0.0051,-0.00283 1.58e-4,-0.00396 z m 1.818722,0.1166272 0.142697,0.0017 0.142688,0.0017 0.09291,0.282849 c 0.01274,0.03873 0.02485,0.07575 0.03595,0.109516 -5.66e-4,2.3e-5 -0.0011,4.6e-5 -0.0023,7.4e-5 -0.0069,2.83e-4 -0.01444,0.0011 -0.02219,0.0028 0.0034,4.5e-5 0.0071,8.5e-5 0.01047,1.24e-4 0.004,4.6e-5 0.008,8.5e-5 0.01183,1.14e-4 0.0011,1.1e-5 0.0017,1.7e-5 0.0028,2.8e-5 0.03284,0.100254 0.05599,0.17117 0.05605,0.171855 5.8e-5,0.0011 -0.04671,0.0011 -0.10399,0 l -0.104098,-0.0017 -0.01817,-0.05033 -0.01817,-0.05033 -0.08873,0.0017 -0.08872,0.0017 -0.01795,0.05016 -0.01795,0.05016 h -0.09894 -0.09893 l 0.02582,-0.08059 c 0.01421,-0.04433 0.05571,-0.173027 0.09217,-0.2859853 z m -1.039087,1.755e-4 h 0.460237 0.460235 v 0.07908 0.07908 h -0.12774 -0.127736 v 0.2068095 0.206815 h -0.09116 -0.09116 l -0.0017,-0.205292 -0.0017,-0.2052923 h -0.152669 c -0.120466,0 -0.154786,0.0017 -0.162712,0.00832 -0.0057,0.00453 -0.01008,0.010757 -0.01008,0.013758 0,0.00283 0.02604,0.033176 0.05789,0.067151 0.07759,0.08275 0.09739,0.122045 0.09677,0.192004 -4.19e-4,0.04614 -0.0023,0.05243 -0.01914,0.07611 -0.0103,0.01421 -0.03035,0.03199 -0.04461,0.03952 -0.02587,0.0137 -0.02599,0.0137 -0.338207,0.0137 h -0.312312 v -0.08211 -0.08212 h 0.21918 c 0.17763,0 0.223171,-0.0017 0.240262,-0.0088 0.01161,-0.0051 0.02106,-0.01098 0.02106,-0.0137 -8.6e-5,-0.01076 -0.02361,-0.03923 -0.0675,-0.08175 -0.03521,-0.03408 -0.05175,-0.05599 -0.06932,-0.091835 -0.02214,-0.045122 -0.02293,-0.048915 -0.01959,-0.092815 0.004,-0.055087 0.01851,-0.08173 0.05565,-0.1034924 z m 1.571331,0 h 0.22179 c 0.211412,0 0.223413,5.661e-4 0.256421,0.012965 0.04461,0.016701 0.09572,0.065124 0.105112,0.09958 0.0034,0.013361 0.0066,0.042235 0.0067,0.06419 5.7e-5,0.071046 -0.04127,0.1279105 -0.112931,0.1552665 -0.01483,0.0057 -0.02695,0.01246 -0.02695,0.01512 0,0.0028 0.01025,0.01331 0.02282,0.02366 0.03782,0.03131 0.06814,0.03674 0.203362,0.03674 h 0.120544 v 0.08212 0.08211 l -0.156632,-1.86e-4 c -0.203123,-2.44e-4 -0.237437,-0.0045 -0.281326,-0.03538 -0.0184,-0.01291 -0.0594,-0.05197 -0.0911,-0.08672 -0.0317,-0.03476 -0.05976,-0.06414 -0.06234,-0.06525 -0.0028,-0.0011 -0.0045,0.04065 -0.0045,0.09277 v 0.09478 h -0.100368 -0.100366 v -0.28589 z m 1.008587,0 h 0.103549 l 0.02865,0.085851 c 0.01574,0.047217 0.03046,0.082817 0.03278,0.079097 0.0023,-0.00396 0.015,-0.042348 0.02814,-0.085823 l 0.02395,-0.079063 0.113146,-2.84e-5 0.113151,-3.39e-5 0.02293,0.077557 c 0.01262,0.042631 0.02502,0.079822 0.02751,0.08259 0.004,0.00453 0.02457,-0.046255 0.05135,-0.1282106 l 0.01047,-0.031931 h 0.102627 0.10262 l -0.008,0.025873 c -0.0045,0.01421 -0.04592,0.1429362 -0.09227,0.2860424 l -0.08429,0.260186 -0.09054,-0.0017 -0.09055,-0.0017 -0.03153,-0.09729 c -0.01738,-0.0535 -0.03312,-0.09457 -0.03505,-0.09124 -0.0017,0.0034 -0.01246,0.0334 -0.02338,0.06687 -0.01093,0.03346 -0.02519,0.0752 -0.03165,0.09276 l -0.01178,0.03193 h -0.08964 -0.08964 l -0.08963,-0.27695 c -0.04931,-0.1523229 -0.09117,-0.2809694 -0.09306,-0.2858893 -0.0028,-0.00764 0.01149,-0.00895 0.100123,-0.00895 z m 0.884152,0 h 0.14219 0.142194 l 0.07307,0.2235445 c 0.0402,0.122946 0.08255,0.251603 0.09413,0.285895 l 0.02106,0.06235 -0.104528,-2.8e-5 -0.104529,-1.7e-5 -0.01829,-0.05016 -0.01829,-0.05016 -0.08871,-0.0017 -0.0887,-0.0017 -0.01761,0.05186 -0.01761,0.05186 h -0.09893 c -0.05441,0 -0.09892,-0.0011 -0.09892,-0.0028 0,-0.0023 0.107965,-0.337483 0.168101,-0.5217649 z m 0.5342885,0 h 0.221474 c 0.2126,0 0.222864,5.265e-4 0.255968,0.013191 0.09026,0.034535 0.135486,0.1205166 0.109822,0.2087966 -0.01325,0.045688 -0.05953,0.093936 -0.105723,0.1103429 -0.01727,0.0061 -0.03142,0.01296 -0.03142,0.01517 0,0.01087 0.04603,0.04235 0.07401,0.05067 0.04557,0.01353 0.289473,0.01359 0.315595,1.07e-4 0.0099,-0.0051 0.01795,-0.01223 0.01795,-0.0158 0,-0.0034 -0.02191,-0.02989 -0.04869,-0.05853 -0.08598,-0.0919 -0.114605,-0.1486425 -0.107116,-0.2123629 0.0045,-0.038385 0.01064,-0.052652 0.03335,-0.077144 0.03221,-0.034818 0.02899,-0.034422 0.28333,-0.034422 h 0.234488 v 0.07908 0.07908 l -0.138378,5.661e-4 c -0.07611,3.341e-4 -0.145235,0.00226 -0.153597,0.00453 -0.02955,0.00815 -0.02327,0.028704 0.02327,0.076011 0.07827,0.07957 0.110586,0.139715 0.110586,0.205802 0,0.05384 -0.02842,0.09201 -0.08506,0.114238 -0.03272,0.01285 -0.03861,0.01308 -0.313263,0.01098 -0.312142,-0.0023 -0.296511,-2.61e-4 -0.353109,-0.04671 -0.01681,-0.01381 -0.05356,-0.05112 -0.0816,-0.08291 -0.02802,-0.03176 -0.05327,-0.05779 -0.05605,-0.05779 -0.0028,0 -0.0051,0.04246 -0.0051,0.09429 v 0.09428 h -0.100368 -0.100368 v -0.28589 z m -0.3930045,0.123336 c -0.0023,0.00226 -0.08145,0.2225935 -0.08145,0.2270375 0,0.0011 0.03555,0.0023 0.07907,0.0023 0.04348,0 0.07907,-0.0023 0.07907,-0.0045 0,-0.0092 -0.07435,-0.2272639 -0.0767,-0.2249144 z m -2.422527,0.00283 c -0.0028,8.49e-5 -0.0089,0.011493 -0.01602,0.031874 -0.0076,0.02174 -0.02638,0.074431 -0.04167,0.1170915 l -0.02774,0.07755 h 0.08141 0.08141 l -0.03606,-0.107961 c -0.01982,-0.059384 -0.03771,-0.1120805 -0.0398,-0.1170966 -3.96e-4,-0.00113 -0.0011,-0.0017 -0.0017,-0.0017 z m 0.592279,0.01053 -0.0017,0.048123 c -0.0011,0.026496 -3.9e-4,0.051803 0.0011,0.056275 0.0023,0.0062 0.02134,0.0082 0.07962,0.0082 0.07311,0 0.07717,-5.66e-4 0.09143,-0.01495 0.01908,-0.019079 0.02078,-0.061659 0.0034,-0.083241 -0.01115,-0.013814 -0.01483,-0.01438 -0.09276,-0.01438 z m 2.4270215,0 -0.0017,0.048123 c -0.0011,0.026496 -3.12e-4,0.051972 0.0017,0.05674 0.0028,0.007 0.01897,0.0082 0.08594,0.0066 0.07345,-0.0017 0.08359,-0.0034 0.09125,-0.01381 0.0128,-0.017494 0.01104,-0.065962 -0.0028,-0.083319 -0.01115,-0.013814 -0.01483,-0.01438 -0.09276,-0.01438 z m 1.698963,0.2017875 c 0.102899,4.3e-4 0.19594,0.04252 0.269239,0.122532 0.06417,0.07003 0.09409,0.150664 0.09297,0.250505 -0.0017,0.164059 -0.119243,0.312464 -0.276497,0.34953 -0.05214,0.01228 -0.138734,0.01127 -0.185839,-0.0023 -0.06439,-0.0184 -0.105338,-0.04303 -0.157838,-0.09487 -0.05639,-0.05571 -0.08786,-0.111532 -0.102756,-0.182482 -0.04439,-0.211406 0.103322,-0.417343 0.316047,-0.440623 0.01506,-0.0017 0.03001,-0.0023 0.04467,-0.0023 z m -6.9481295,2.49e-4 c 0.132921,0.0028 0.259167,0.07672 0.319376,0.198895 0.05452,0.110631 0.0552,0.222916 0.0017,0.332053 -0.01682,0.03448 -0.03431,0.05754 -0.07156,0.09435 -0.05344,0.05282 -0.09965,0.07982 -0.165741,0.09678 -0.04575,0.01172 -0.132117,0.01172 -0.180715,-5.1e-5 -0.115116,-0.02785 -0.21687,-0.124101 -0.256728,-0.2428 -0.01902,-0.05671 -0.02316,-0.141724 -0.0095,-0.197688 0.02802,-0.115008 0.121071,-0.220058 0.22997,-0.259586 0.04359,-0.01585 0.08865,-0.02287 0.132955,-0.02197 z m -0.0058,0.03227 -0.01755,0.01665 c -0.0097,0.0092 -0.02299,0.02423 -0.02961,0.0334 -0.012,0.0167 -0.012,0.01682 5.66e-4,0.05039 0.0069,0.01851 0.01257,0.03527 0.01257,0.0372 0,8.5e-5 -3.4e-5,1.59e-4 -6.8e-5,2.04e-4 -0.0011,0.0011 -0.01149,-0.0071 -0.02429,-0.01868 -0.01342,-0.01212 -0.02684,-0.02197 -0.02989,-0.02197 -0.0061,0 -0.03714,0.03505 -0.0368,0.0415 1.19e-4,0.0023 0.0107,0.01132 0.02344,0.02015 0.03091,0.02134 0.05022,0.06236 0.05395,0.114527 0.0034,0.04993 -0.0051,0.07968 -0.02989,0.100373 -0.0372,0.03131 -0.09234,0.01563 -0.127633,-0.03635 -0.04597,-0.06766 -0.03946,-0.163884 0.01659,-0.247239 0.01155,-0.01715 0.01993,-0.03227 0.01857,-0.03357 -0.004,-0.004 -0.06198,0.04427 -0.08239,0.06889 -0.02735,0.03295 -0.05932,0.09908 -0.0679,0.1404 -0.01025,0.04937 -0.0045,0.141764 0.01166,0.187147 0.05509,0.154723 0.221948,0.244634 0.383363,0.206588 0.05611,-0.01325 0.117403,-0.04767 0.158381,-0.08904 0.09777,-0.09869 0.122436,-0.250833 0.0614,-0.378726 -0.0205,-0.04291 -0.07667,-0.108061 -0.109958,-0.12748 -0.02146,-0.01251 -0.02117,-0.01138 0.0072,0.03057 0.03844,0.05681 0.05571,0.1318 0.04172,0.181609 -0.0088,0.03131 -0.03771,0.07483 -0.06296,0.09469 -0.0094,0.0074 -0.0291,0.01478 -0.04382,0.01642 -0.03476,0.004 -0.05463,-0.0089 -0.07092,-0.04569 -0.01557,-0.03527 -0.0128,-0.09578 0.0061,-0.132853 0.01223,-0.02395 0.04597,-0.05867 0.06303,-0.06485 0.0058,-0.0023 0.0017,-0.0096 -0.01274,-0.02502 -0.01155,-0.01212 -0.02316,-0.02208 -0.02582,-0.02208 -0.0028,0 -0.0158,0.0099 -0.0291,0.02191 l -0.02423,0.02191 0.0085,-0.02825 c 0.0045,-0.01557 0.01195,-0.03238 0.01608,-0.03742 0.0063,-0.0076 0.0023,-0.01455 -0.02508,-0.04223 z m 6.9475855,0 c -2.59e-4,6e-6 -4.53e-4,8.5e-5 -5.66e-4,2.38e-4 -0.0011,0.0017 -0.01506,0.01715 -0.03057,0.03487 l -0.02825,0.03216 0.0099,0.01919 c 0.0057,0.01053 0.01212,0.02695 0.01483,0.0364 l 0.0051,0.01721 -0.02502,-0.02146 c -0.01376,-0.01178 -0.02672,-0.0214 -0.02882,-0.0214 -0.0023,0 -0.01325,0.0099 -0.02474,0.02208 -0.01619,0.01704 -0.01885,0.02282 -0.01183,0.02525 0.0051,0.0017 0.02044,0.01444 0.03431,0.02814 0.04212,0.04178 0.05694,0.11918 0.03295,0.171997 -0.02502,0.05509 -0.08817,0.05976 -0.135367,0.01008 -0.05829,-0.06137 -0.05874,-0.172999 -0.0011,-0.25872 0.01155,-0.0171 0.02265,-0.03386 0.02468,-0.03714 0.0107,-0.01732 -0.04059,0.02219 -0.07127,0.0548 -0.05367,0.05715 -0.0906,0.147573 -0.09095,0.222503 -3.11e-4,0.06789 0.03522,0.165219 0.0802,0.219808 0.04071,0.04942 0.116094,0.09306 0.184299,0.106753 0.04037,0.0081 0.101726,0.0068 0.14015,-0.0028 0.09096,-0.02321 0.171997,-0.0845 0.211718,-0.16009 0.07746,-0.147409 0.04314,-0.32184 -0.08293,-0.421494 -0.01665,-0.01319 -0.03137,-0.02287 -0.03267,-0.02151 -0.0011,0.0011 0.0071,0.01642 0.01857,0.03357 0.03233,0.04807 0.04625,0.0915 0.04625,0.144357 0,0.05124 -0.01183,0.08218 -0.04473,0.117137 -0.03856,0.04093 -0.08038,0.04914 -0.112523,0.02208 -0.02491,-0.02095 -0.03335,-0.05022 -0.02995,-0.103402 0.0034,-0.05101 0.02253,-0.09062 0.05492,-0.113009 0.01087,-0.0075 0.02083,-0.01444 0.02214,-0.01546 0.004,-0.0028 -0.02984,-0.04473 -0.03612,-0.04473 -0.0034,0 -0.01687,0.01002 -0.03046,0.02231 l -0.02474,0.02236 0.0045,-0.01778 c 0.0023,-0.0098 0.008,-0.02519 0.01257,-0.0342 0.0045,-0.0091 0.0083,-0.0201 0.0083,-0.02457 0,-0.0083 -0.05441,-0.06496 -0.06217,-0.06534 -5.1e-5,-6e-6 -8.5e-5,-6e-6 -1.2e-4,0 z m -0.899228,0.444406 c -0.0034,8.5e-5 -0.0065,4.47e-4 -0.01047,5.66e-4 l -0.02865,0.0017 -0.0017,0.190357 -0.0017,0.190351 0.04422,-0.0017 0.04416,-0.0017 -0.0023,-0.12106 -0.0023,-0.121077 0.132372,0.122589 0.132383,0.1226 h 0.02961 c 0.01931,0 0.02978,-0.0028 0.03018,-0.0076 3.17e-4,-0.004 7.3e-5,-0.08698 -5.27e-4,-0.183994 -5.66e-4,-0.115347 -0.0034,-0.179141 -0.0076,-0.184305 -0.004,-0.0051 -0.01698,-0.0072 -0.03448,-0.0061 l -0.02791,0.0017 -0.0028,0.122832 -0.0028,0.122833 -0.07603,-0.07041 c -0.178,-0.164814 -0.191355,-0.178367 -0.213333,-0.177807 z m -0.289882,5.66e-4 c -0.120272,-0.0017 -0.153342,-5.15e-4 -0.179889,0.0072 -0.05693,0.01653 -0.05537,0.01076 -0.05124,0.189621 0.0028,0.115093 0.0057,0.158024 0.01161,0.165152 0.0188,0.02265 0.04054,0.02553 0.193522,0.02565 0.134795,9e-5 0.151519,-0.0011 0.175105,-0.01172 0.04342,-0.0197 0.04625,-0.03301 0.04138,-0.193952 -0.004,-0.141097 -0.0084,-0.163578 -0.03227,-0.174641 -0.006,-0.0028 -0.07718,-0.0061 -0.158228,-0.0073 z m -1.3750275,0.004 -0.01659,0.02916 c -0.03997,0.0703 -0.173323,0.335331 -0.173323,0.344492 0,0.0083 0.0064,0.01013 0.03499,0.01008 l 0.03499,-3.4e-5 0.01931,-0.04252 0.01931,-0.04257 h 0.110133 0.110122 l 0.01959,0.04105 0.01965,0.04105 0.03584,0.0017 c 0.0197,0.0011 0.03782,-3.57e-4 0.04025,-0.0028 0.0023,-0.0028 -0.03697,-0.08838 -0.08756,-0.190414 l -0.09194,-0.185528 -0.03737,-0.0017 z m -0.531446,0.0011 c -0.0069,-3e-4 -0.01444,-2.15e-4 -0.02095,3.17e-4 l -0.02378,0.0017 -0.0045,0.161189 c -0.0051,0.177284 -0.0034,0.1882 0.02825,0.207511 0.01693,0.01036 0.03261,0.01144 0.165587,0.01144 l 0.146871,1.7e-5 0.01897,-0.01772 0.01897,-0.01772 -0.0017,-0.172348 -0.0017,-0.172347 h -0.03952 -0.03957 l 0.0023,0.152957 0.0023,0.152962 -0.105763,0.0023 c -0.05817,0.0011 -0.107818,0.0017 -0.110326,2.66e-4 -0.0023,-0.0011 -0.0045,-0.07045 -0.0045,-0.153823 v -0.151593 l -0.01427,-0.0034 c -0.004,-0.0011 -0.01019,-0.0017 -0.01704,-0.0017 z m 1.4301365,4.64e-4 c -0.130214,-0.0017 -0.164772,-1.75e-4 -0.167031,0.0061 -0.0017,0.0045 -0.0034,0.09069 -0.0045,0.191891 l -0.0017,0.184005 h 0.03074 c 0.01687,0 0.03403,-0.0034 0.03799,-0.0073 0.0045,-0.0045 0.0073,-0.02933 0.0073,-0.06995 v -0.06266 h 0.04201 0.04201 l 0.06862,0.06995 0.06863,0.06995 h 0.04416 c 0.02429,0 0.04569,-0.0023 0.04761,-0.0057 0.0017,-0.0028 -0.02808,-0.03522 -0.06662,-0.07137 -0.07531,-0.07069 -0.07631,-0.07375 -0.02429,-0.0747 0.0274,-5.09e-4 0.0596,-0.01755 0.07006,-0.03708 0.0045,-0.0084 0.0062,-0.03884 0.0051,-0.08536 -0.0017,-0.06972 -0.0028,-0.07296 -0.01885,-0.08919 l -0.01687,-0.01687 z m -0.6232645,0.0017 -0.0017,0.190085 -0.0017,0.190086 0.108057,-5.1e-5 c 0.05943,-3.4e-5 0.125844,-0.0028 0.147589,-0.0065 0.05231,-0.0084 0.08423,-0.02814 0.1176865,-0.07264 0.03148,-0.0419 0.03816,-0.0696 0.03216,-0.133006 -0.0058,-0.06125 -0.01381,-0.08211 -0.04433,-0.116101 -0.047099,-0.05237 -0.04524,-0.05192 -0.2119505,-0.05192 z m -2.393392,0.0023 -0.03505,0.0017 -0.03505,0.0017 -0.0017,0.153597 -0.0017,0.153585 h -0.110184 -0.110184 l 0.0023,-0.153585 0.0023,-0.153597 -0.03403,-0.0017 c -0.02406,-0.0011 -0.03618,5.66e-4 -0.04133,0.007 -0.01115,0.01342 -0.0069,0.351048 0.0045,0.36489 0.0074,0.0088 0.02621,0.01002 0.158149,0.01 0.144335,-1.02e-4 0.150693,-5.66e-4 0.174137,-0.01387 l 0.02434,-0.01376 0.0017,-0.178037 z m 0.424143,4.25e-4 -0.168067,0.0017 -0.168057,0.0017 -0.0017,0.181751 c -0.0011,0.130221 3.68e-4,0.184141 0.0057,0.190182 0.0057,0.0069 0.03725,0.0082 0.171929,0.0068 l 0.164931,-0.0017 0.0017,-0.03499 c 0.0011,-0.02508 -4.13e-4,-0.03533 -0.0061,-0.03629 -0.0045,-5.66e-4 -0.06402,-0.0011 -0.132604,-0.0017 l -0.124689,-2.04e-4 v -0.04563 -0.04563 h 0.07299 0.07299 l 0.0023,-0.01749 c 0.0011,-0.0096 3.56e-4,-0.02395 -0.0017,-0.03193 -0.0034,-0.01421 -0.0051,-0.01449 -0.07651,-0.01449 h -0.07288 v -0.03867 -0.03867 l 0.126223,-0.0045 c 0.07101,-0.0023 0.129541,-0.0072 0.133816,-0.0107 0.0082,-0.0068 0.0096,-0.02406 0.004,-0.04597 z m 0.256008,1.86e-4 -0.01778,0.01778 c -0.01727,0.01727 -0.01778,0.01959 -0.01772,0.07756 2.2e-5,0.03289 0.0028,0.06995 0.0063,0.0824 0.01104,0.03969 0.01704,0.04122 0.162275,0.04122 h 0.129434 v 0.04207 0.04206 l -0.0441,0.004 c -0.02423,0.0023 -0.07831,0.0028 -0.120127,0.0023 l -0.07605,-0.0017 -0.0017,-0.01976 c -0.0017,-0.01647 -0.0045,-0.01976 -0.01693,-0.01976 -0.0083,0 -0.02451,0.004 -0.03612,0.0088 -0.01744,0.0073 -0.02112,0.01195 -0.02112,0.02718 0,0.01008 0.0045,0.02791 0.01013,0.03963 0.01699,0.03555 0.03476,0.03929 0.187567,0.03963 0.122102,2.66e-4 0.135508,-5.67e-4 0.153194,-0.01155 0.01064,-0.0065 0.02191,-0.01676 0.02502,-0.02282 0.0088,-0.0171 0.01381,-0.104772 0.0081,-0.140694 -0.0085,-0.05322 -0.0059,-0.05231 -0.160651,-0.05577 l -0.135135,-0.0028 -0.0017,-0.04105 -0.0017,-0.04105 h 0.109296 0.109295 l 0.0072,0.02174 c 0.0045,0.01393 0.01008,0.02055 0.01529,0.01857 0.0045,-0.0017 0.01925,-0.0061 0.03284,-0.0098 0.0205,-0.0057 0.02468,-0.0092 0.02468,-0.0218 0,-0.01919 -0.01342,-0.05169 -0.02695,-0.0652 -0.0092,-0.0092 -0.02672,-0.01042 -0.156422,-0.01042 z m 0.605335,0 c -0.234777,0 -0.221195,-0.01081 -0.221144,0.176238 4.9e-5,0.201884 -5.67e-4,0.200893 0.134659,0.200893 h 0.09048 l 0.01948,0.03957 0.01947,0.03952 h 0.0342 c 0.0188,0 0.03589,-0.0017 0.03799,-0.004 0.0023,-0.0023 -0.0028,-0.01704 -0.01115,-0.03323 -0.0082,-0.01619 -0.01495,-0.03233 -0.01495,-0.03578 0,-0.0034 0.01161,-0.0063 0.02587,-0.0063 0.02616,-1.7e-5 0.06137,-0.01631 0.07604,-0.0351 0.0057,-0.0072 0.0076,-0.04852 0.0076,-0.157164 v -0.147392 l -0.01574,-0.01874 -0.01574,-0.01874 z m -1.933237,0.0045 -0.157899,0.0028 -0.01698,0.01699 -0.01698,0.01699 v 0.154758 c 0,0.147352 5.66e-4,0.155522 0.01262,0.170779 l 0.01262,0.01602 h 0.164405 0.164393 l 0.02066,-0.02066 0.02072,-0.02067 v -0.08881 -0.08881 h -0.0968 -0.0968 l -0.004,0.02412 c -0.0023,0.01325 -0.0023,0.02695 -1.76e-4,0.0304 0.0023,0.0034 0.02921,0.0063 0.06437,0.0063 h 0.06048 v 0.04269 0.04269 l -0.120137,-0.0017 -0.120137,-0.0017 -0.0017,-0.120261 -0.0017,-0.120274 0.120262,0.0017 0.120262,0.0017 v 0.01823 c 0,0.01704 0.0011,0.01817 0.02157,0.01704 0.01183,-5.66e-4 0.02899,-0.004 0.03799,-0.0075 0.01908,-0.0073 0.02151,-0.02525 0.0079,-0.05798 -0.01585,-0.03793 -0.01942,-0.03861 -0.194914,-0.03521 z m -0.452507,0.0017 c -0.09983,0 -0.170548,0.0023 -0.181905,0.0065 -0.01104,0.004 -0.02117,0.01308 -0.02497,0.02282 -0.0034,0.009 -0.0082,0.0768 -0.01047,0.150692 -0.0045,0.151576 -0.0017,0.17044 0.02978,0.190589 0.01834,0.01172 0.02814,0.0124 0.171498,0.01183 0.08364,-3.4e-4 0.159989,-0.0023 0.16967,-0.0045 0.0097,-0.0023 0.02338,-0.01155 0.0304,-0.021 0.01195,-0.01602 0.01296,-0.0261 0.01472,-0.149866 0.0023,-0.139567 -0.0023,-0.173757 -0.02355,-0.19522 -0.01115,-0.01115 -0.02146,-0.01183 -0.175172,-0.01183 z m -0.48449,0.0011 -0.145988,0.0017 -0.0017,0.190079 -0.0017,0.190097 h 0.03352 0.03352 v -0.07299 -0.07299 h 0.04501 0.04501 l 0.03827,0.0441 c 0.02106,0.02423 0.05067,0.0571 0.06579,0.07299 l 0.02752,0.02887 h 0.04699 c 0.02587,0 0.04857,-0.0023 0.05044,-0.0057 0.0017,-0.0028 -0.02876,-0.03584 -0.06807,-0.07287 l -0.07149,-0.06736 0.0385,-1.19e-4 c 0.03403,-1.08e-4 0.04048,-0.0023 0.05565,-0.01732 0.0141,-0.0141 0.01795,-0.02457 0.02163,-0.05869 0.0062,-0.05755 -8.5e-5,-0.123444 -0.01308,-0.13779 -0.01891,-0.02089 -0.0488,-0.02423 -0.200032,-0.02236 z m 5.1780975,0.05214 c 0.0059,0.0023 0.0074,0.02938 0.0061,0.119204 l -0.0017,0.116383 -0.125087,0.0017 c -0.0688,0.0011 -0.126965,-2.43e-4 -0.129263,-0.0023 -0.0051,-0.0051 -0.0051,-0.09597 -2.33e-4,-0.173214 l 0.004,-0.05855 0.119265,-0.0028 c 0.06559,-0.0017 0.122753,-0.0017 0.127005,-6.7e-5 z m -1.1239285,5.55e-4 0.09327,0.0017 c 0.09207,0.0017 0.09355,0.0023 0.116214,0.01948 0.02984,0.02276 0.03991,0.04829 0.03991,0.100974 0,0.04303 -0.0051,0.0579 -0.02735,0.08433 -0.02338,0.0274 -0.03963,0.03137 -0.129461,0.03137 -0.04642,0 -0.08628,-0.0017 -0.0885,-0.004 -0.0023,-0.0023 -0.004,-0.05582 -0.004,-0.11904 z m 0.4501245,0.0011 h 0.105803 c 0.120369,0 0.113179,-0.0034 0.113179,0.05503 0,0.02916 -0.0023,0.03691 -0.01178,0.04207 -0.0067,0.0034 -0.05373,0.0063 -0.109488,0.0063 h -0.09773 v -0.05169 z m -1.5176475,0.0028 0.0045,0.100368 c 0.0028,0.0552 0.0034,0.109267 0.0011,0.120137 -0.0034,0.01948 -0.004,0.01976 -0.03697,0.01976 h -0.03357 l -0.02417,-0.05231 c -0.02616,-0.05663 -0.0248,-0.05588 -0.06848,-0.03923 -0.02202,0.0084 -0.02242,0.01223 -0.0059,0.05141 0.01212,0.0287 0.01353,0.03686 0.0071,0.04093 -0.0086,0.0057 -0.08197,0.0064 -0.09474,0.0011 -0.0057,-0.0023 -0.0076,-0.03182 -0.0076,-0.118326 0,-0.09747 0.0017,-0.1158 0.0092,-0.118801 0.0051,-0.0017 0.06324,-0.004 0.129251,-0.0045 z m -3.070493,0.0091 h 0.103057 c 0.07204,0 0.105253,0.0023 0.110353,0.0073 0.01025,0.01019 0.0093,0.07286 -0.0011,0.08735 -0.0073,0.01 -0.01659,0.01189 -0.05931,0.0124 -0.02785,3.17e-4 -0.07188,-4.75e-4 -0.09781,-0.0017 -0.0445,-0.0023 -0.04716,-0.0034 -0.04716,-0.01642 0,-0.0078 -0.0017,-0.03091 -0.004,-0.05146 z m 0.430564,0.0028 h 0.127735 0.12774 l 0.0017,0.115127 c 0.0011,0.08804 -1.7e-4,0.116282 -0.0061,0.120041 -0.0045,0.0028 -0.06189,0.0051 -0.128069,0.0051 -0.09233,7.4e-5 -0.12102,-0.0017 -0.123313,-0.0077 -0.0017,-0.0045 -0.0023,-0.05834 -0.0011,-0.120126 z m 3.385403,0.0059 c 0,-5e-6 3.9e-5,0 5.1e-5,0 0.0059,2.04e-4 0.07261,0.123014 0.07261,0.133884 0,0.0017 -0.03284,0.0034 -0.07299,0.0034 -0.04014,0 -0.07299,-0.0011 -0.07299,-0.0023 0,-0.0058 0.06848,-0.132078 0.07319,-0.134988 4.5e-5,-1.7e-5 8.6e-5,-3.4e-5 1.36e-4,-5.1e-5 z m 2.1735005,0.262559 c -6e-6,2.09e-4 0,5.66e-4 0,5.66e-4 0,-2.72e-4 5.1e-5,-5.15e-4 5.1e-5,-5.66e-4 v -1.2e-5 0 c 0,0 0,0 -5.1e-5,-5e-6 z m -6.2269115,0.0051 c -3.4e-5,3.4e-5 -6.8e-5,5.1e-5 -1.02e-4,8.5e-5 3.4e-5,5.49e-4 5.1e-5,0.0011 8.5e-5,0.0017 z m 2.487182,0.156761 c -0.196477,0.0023 -0.258256,0.0045 -0.289354,0.01206 -0.127566,0.03023 -0.172111,0.08545 -0.17296,0.214373 l -4.02e-4,0.06083 0.10642,0.0017 c 0.120715,0.0017 0.121688,0.0017 0.121688,-0.04495 0,-0.03329 0.02174,-0.06018 0.05671,-0.07026 0.03091,-0.0089 0.339418,-0.0075 0.381252,0.0017 0.06044,0.01336 0.08788,0.07127 0.06311,0.133165 -0.0062,0.01534 -0.0167,0.02819 -0.02791,0.03403 -0.02378,0.01229 -0.14289,0.02117 -0.221025,0.01647 -0.08869,-0.0051 -0.08787,-0.0061 -0.08787,0.08001 0,0.04846 0.0023,0.07077 0.0075,0.07401 0.004,0.0028 0.07324,0.0045 0.153586,0.0051 0.163759,3.23e-4 0.175347,0.0028 0.193935,0.04201 0.01234,0.02604 0.01285,0.07643 0.0011,0.104687 -0.0154,0.03691 -0.02848,0.03918 -0.223556,0.03878 -0.215755,-4.13e-4 -0.261903,-0.0045 -0.28328,-0.02604 -0.01268,-0.01268 -0.01619,-0.02299 -0.01834,-0.05395 -0.0017,-0.02106 -0.0057,-0.04172 -0.0088,-0.04592 -0.0072,-0.0089 -0.20291,-0.01087 -0.216656,-0.0023 -0.0137,0.0087 -0.0065,0.141911 0.0097,0.177681 0.02684,0.05955 0.06468,0.08825 0.14366,0.108955 0.01234,0.0034 0.01942,0.0057 -0.01206,0.0072 h 0.668975 c -0.07569,-5.2e-4 -0.110439,-0.0011 -0.09639,-0.0017 0.123314,-0.0045 0.162236,-0.01302 0.20993,-0.04456 0.04546,-0.03012 0.07225,-0.117493 0.06448,-0.210529 -0.0091,-0.108406 -0.03595,-0.143026 -0.125391,-0.16137 -0.04478,-0.0092 -0.04325,-0.02021 0.0051,-0.03686 0.08065,-0.0278 0.102722,-0.07239 0.09587,-0.193736 -0.0063,-0.111368 -0.03018,-0.155981 -0.100956,-0.188325 -0.06743,-0.03085 -0.123026,-0.03533 -0.397993,-0.03238 z m 0.562239,0.04093 -0.06236,3.4e-5 -0.06235,1.7e-5 0.01959,0.01195 c 0.01076,0.0066 0.0231,0.01749 0.02729,0.02429 0.0063,0.01008 0.0141,0.01234 0.04274,0.01234 h 0.03505 v -0.02434 z m 0.279741,0.169846 0.272234,0.0017 0.272239,0.0017 0.02735,0.01523 c 0.02021,0.01121 0.03137,0.02316 0.04257,0.04563 0.01483,0.02961 0.01517,0.03386 0.01517,0.161188 0,0.159044 -0.0028,0.168351 -0.06111,0.197689 l -0.03623,0.01823 -0.26309,0.0017 c -0.144691,0.0011 -0.262955,-3.68e-4 -0.262802,-0.0028 1.59e-4,-0.0028 -0.0011,-0.102819 -0.0028,-0.222554 z m 2.9054485,0.04829 -0.559267,5.66e-4 c -0.63213,0.711086 -1.5445005,1.156539 -2.5590145,1.156539 -1.014504,0 -1.926868,-0.445448 -2.558998,-1.156522 l -0.559284,-5.66e-4 c 0.71005,0.967371 1.842567,1.594955 3.118282,1.594955 1.275719,0 2.4082315,-0.62759 3.1182815,-1.594961 z m -1.8512975,5.66e-4 c 0.01013,0.143678 0.0065,0.358266 -0.0017,0.409412 -0.0059,0.03754 -0.0154,0.07397 -0.02933,0.108412 0.3072735,-0.126195 0.5830395,-0.300892 0.8215705,-0.516975 -0.323533,3.91e-4 -0.6065575,5.1e-5 -0.7906755,-5.66e-4 z m -3.26196,0.0011 c 0.217923,0.190017 0.463016,0.349745 0.729356,0.472249 -0.01699,-0.09588 -0.02021,-0.23887 0.07804,-0.30233 a 0.17242504,0.17242504 0 0 1 -0.07671,-0.144556 l 1.59e-4,-0.02423 z m 2.382919,0.123562 5.67e-4,0.0415 c 3.4e-5,0.0023 4.41e-4,0.02497 0.0011,0.05531 l 0.09133,4.99e-4 0.189022,-0.0011 v -0.0023 c 8.5e-5,-0.01229 1.3e-4,-0.02627 1.3e-4,-0.04195 0,-0.01959 -8.4e-5,-0.03629 -2.09e-4,-0.05016 v -1.2e-5 l -0.185873,-0.0011 z m 0.279775,0.15272 c -3.45e-4,0.0017 -4.7e-4,0.0023 -4.58e-4,0.0028 v 5e-6 l 5e-6,1.2e-5 v 1.1e-5 h 1.2e-5 v -1.1e-5 l 5e-6,-1.2e-5 c 4.6e-5,-1.19e-4 1.53e-4,-5.66e-4 2.72e-4,-0.0011 4e-5,-2.94e-4 9.6e-5,-5.66e-4 1.64e-4,-0.0011 z m -0.805604,0.464311 c -0.004,0.0017 -0.0076,0.0034 -0.01149,0.0045 0.0066,3.34e-4 0.01313,5.67e-4 0.0197,0.0011 a 0.17242504,0.17242504 0 0 1 -0.0082,-0.0057 z" />
  <path
     id="path5-7"
     style="fill:currentColor;stroke-width:0.164497"
     d="m 8.4665075,4.4978895 c -2.14983,0 -3.892986,1.7822836 -3.892986,3.969473 0,0.3362542 0.04122,0.6629291 0.11875,0.9750369 0.07822,-0.045122 0.166702,-0.072598 0.257033,-0.078661 0.0011,-0.042631 0.0034,-0.091699 0.0095,-0.1195485 0.01512,-0.070497 0.05095,-0.1335494 0.100742,-0.1825838 -0.03187,-0.1931255 -0.04846,-0.3916464 -0.04846,-0.5942436 0,-1.9555373 1.546984,-3.5318777 3.455418,-3.5318777 1.9084325,0 3.4554185,1.5763404 3.4554185,3.5318777 0,0.2034464 -0.01676,0.4027826 -0.04892,0.5966667 0.04037,0.04065 0.07002,0.091807 0.08854,0.15418 0.01155,0.038895 0.01523,0.086927 0.01636,0.1455575 0.03974,0.00226 0.07791,0.00776 0.10942,0.015852 0.05282,0.013531 0.104914,0.035101 0.153314,0.063245 0.07761,-0.3122381 0.118841,-0.6390659 0.118841,-0.9754729 0,-2.1871893 -1.74314,-3.9694733 -3.8929745,-3.9694733 z m -0.01042,0.8440182 -0.56225,0.637792 c 0.287588,0.4000934 0.274974,0.7755026 0.274974,0.7755026 -0.237257,-0.3565677 -0.543692,-0.488045 -0.543692,-0.488045 l -0.362597,0.4001104 c 0.450232,0.1936747 0.575153,0.5061392 0.575153,0.5061392 0.493769,0.9566993 0.0061,1.5878447 0.0061,1.5878447 -0.08165,0.096059 -0.167196,0.1595131 -0.253138,0.1985096 h 1.721853 c -0.151474,-0.071788 -0.231505,-0.18529 -0.231505,-0.18529 -0.357915,-0.4731552 -0.206074,-1.2444966 -0.0088,-1.6052085 0.229342,-0.3892686 0.571711,-0.501995 0.571711,-0.501995 L 9.2878595,6.2671573 c -0.375301,0.2064074 -0.550004,0.4939613 -0.550004,0.4939613 0.01885,-0.4248002 0.274754,-0.7873408 0.274754,-0.7873408 z m 1.5705985,0.517315 c -0.02095,5.266e-4 0.02667,0.042631 0.02667,0.042631 1.428393,1.6782534 0.132859,2.8390955 0.132859,2.8390955 -0.124451,0.1062326 -0.2394205,0.1759881 -0.3443615,0.2188344 h 1.6452695 c 0.02429,-0.16505 0.03816,-0.3355748 0.0411,-0.5108948 -0.07802,-1.5126881 -0.833929,-2.1188776 -1.465239,-2.5784678 -0.01919,-0.00821 -0.0304,-0.011323 -0.03629,-0.011153 z m -3.1405805,0.00396 c -0.0045,0 -0.0099,0.00113 -0.01104,0.00113 -0.925114,0.6086069 -1.431105,1.5295764 -1.468811,2.5280407 -0.0059,0.1930122 0.0058,0.3826955 0.03363,0.5673967 h 1.642863 C 6.8670715,8.8783711 6.7127055,8.729989 6.7127055,8.729989 5.4999805,7.5015258 6.8174215,5.9452836 6.8907705,5.8773455 c 0.0062,-0.011663 0.0011,-0.013984 -0.0045,-0.013984 z m -1.622165,3.2688212 c 0.0051,0.00113 0.0023,0.00283 -0.004,0.00453 -0.06688,0.020608 -0.118218,0.07613 -0.132666,0.1434967 -0.0034,0.016532 -0.0065,0.084974 -0.0065,0.1520796 0,0.1137058 -5.66e-4,0.1217225 -0.01064,0.1178896 -0.024,-0.00928 -0.07315,-0.015456 -0.123036,-0.015456 -0.122232,0 -0.243654,0.057176 -0.320283,0.1508114 -0.03193,0.039008 -0.07053,0.1152061 -0.08383,0.1654916 -0.0023,0.00764 -0.0034,0.011266 -0.0045,0.00702 v 0.1803982 l 0.0094,0.03153 c 0.04456,0.149322 0.152736,0.253018 0.304544,0.291839 0.06606,0.01687 0.157684,0.01557 0.217305,-0.0034 0.0088,-0.0028 0.01025,0.0066 0.01246,0.0807 0.0023,0.07627 0.004,0.08727 0.01982,0.121921 0.01948,0.04291 0.05158,0.07533 0.09392,0.0949 l 0.02814,0.01302 1.05804,0.0017 1.058046,0.0017 0.01863,-0.01749 c 0.01025,-0.0096 0.02406,-0.02055 0.03074,-0.02423 0.0089,-0.0051 -0.264014,-0.0068 -1.015822,-0.007 -0.648946,-1.92e-4 -1.043446,-0.0023 -1.069913,-0.0063 -0.05344,-0.0077 -0.08703,-0.0227 -0.116027,-0.05169 -0.03872,-0.03873 -0.04818,-0.06764 -0.05078,-0.155641 l -0.0023,-0.07678 0.03255,-0.01874 c 0.106595,-0.06146 0.18217,-0.17729 0.200321,-0.307012 l 0.0074,-0.052934 h 3.051707 3.0517085 l 0.0074,0.052934 c 0.01795,0.128177 0.0895,0.239652 0.193827,0.3019 l 0.03227,0.01925 -0.0017,0.08211 c -0.0017,0.07799 -0.0028,0.08376 -0.01982,0.114697 -0.02174,0.03929 -0.04971,0.06346 -0.09447,0.0816 l -0.03346,0.01353 -1.07969,0.0028 -1.0797015,0.0028 -0.0402,-0.01302 c -0.07746,-0.02514 -0.125754,-0.02729 -0.558944,-0.02531 l -0.41059,0.0017 -0.0017,0.427195 -0.0017,0.427189 0.01647,0.004 c 0.0091,0.0023 0.208315,0.0023 0.442809,-1.24e-4 0.393696,-0.004 0.429981,-0.0051 0.473727,-0.01608 0.06607,-0.01653 0.09607,-0.03108 0.130589,-0.06335 0.03612,-0.0338 0.05797,-0.08 0.06809,-0.14408 0.01121,-0.07088 0.0045,-0.397699 -0.0089,-0.44628 -0.0137,-0.04897 -0.03561,-0.08537 -0.07238,-0.120137 -0.01681,-0.01591 -0.02683,-0.02887 -0.02225,-0.02887 0.01047,0 0.05463,0.03023 0.05463,0.03737 0,0.0028 0.463695,0.0045 1.0751265,0.004 l 1.075133,-0.0017 0.03182,-0.01438 c 0.03754,-0.01699 0.07623,-0.05674 0.0942,-0.09682 0.01059,-0.02361 0.01336,-0.04422 0.01557,-0.115393 0.0017,-0.04767 0.0028,-0.08668 0.0034,-0.08668 4.64e-4,0 0.01998,0.004 0.04342,0.009 0.218014,0.0462 0.429641,-0.08026 0.49365,-0.294914 l 0.0094,-0.03153 V 9.8716437 c -0.0017,-0.00583 -0.004,-0.013927 -0.0059,-0.022872 -0.01098,-0.046594 -0.0501,-0.1241117 -0.08274,-0.1639801 -0.05378,-0.065742 -0.135587,-0.1171084 -0.221392,-0.1390524 -0.05622,-0.01438 -0.148309,-0.015626 -0.198131,-0.00283 -0.01925,0.0051 -0.03629,0.00911 -0.03776,0.00911 -0.0017,0 -0.0028,-0.056983 -0.0028,-0.126631 0,-0.09804 -0.0023,-0.1339967 -0.0097,-0.1592074 -0.02078,-0.070033 -0.05926,-0.1079594 -0.133272,-0.131432 -0.0045,-0.0017 -0.0051,-0.00283 1.59e-4,-0.00396 z m 1.818722,0.1166272 0.142698,0.0017 0.142687,0.0017 0.09291,0.2828491 c 0.01274,0.038725 0.02485,0.075745 0.03595,0.1095163 -5.66e-4,2.27e-5 -0.0011,4.53e-5 -0.0023,7.36e-5 -0.0069,2.831e-4 -0.01444,0.00113 -0.02219,0.00283 0.0034,4.53e-5 0.0071,8.49e-5 0.01047,1.245e-4 0.004,4.53e-5 0.008,8.49e-5 0.01183,1.132e-4 0.0011,1.14e-5 0.0017,1.7e-5 0.0028,2.84e-5 0.03284,0.100254 0.05599,0.1711701 0.05605,0.1718552 5.8e-5,0.00113 -0.04671,0.00113 -0.10399,0 l -0.104098,-0.0017 -0.01817,-0.050331 -0.01817,-0.050331 -0.08873,0.0017 -0.08872,0.0017 -0.01795,0.050161 -0.01795,0.050161 h -0.09894 -0.09893 l 0.02582,-0.080592 c 0.01421,-0.04433 0.05571,-0.1730271 0.09217,-0.2859856 z m -1.039086,1.755e-4 h 0.460236 0.460235 v 0.07908 0.07908 h -0.12774 -0.127736 V 9.613776 9.820591 h -0.09116 -0.09116 l -0.0017,-0.2052921 -0.0017,-0.2052921 h -0.152669 c -0.120466,0 -0.154786,0.0017 -0.162712,0.00832 -0.0057,0.00453 -0.01008,0.010757 -0.01008,0.013758 0,0.00283 0.02604,0.033176 0.05789,0.067151 0.07759,0.082749 0.09739,0.1220452 0.09677,0.1920045 -4.19e-4,0.046141 -0.0023,0.052426 -0.01914,0.076113 -0.0103,0.01421 -0.03035,0.031988 -0.04461,0.039517 -0.02587,0.013701 -0.02599,0.013701 -0.338207,0.013701 h -0.312312 v -0.082115 -0.08212 h 0.21918 c 0.17763,0 0.223171,-0.0017 0.240262,-0.00883 0.01161,-0.0051 0.02106,-0.010983 0.02106,-0.013701 -8.6e-5,-0.010757 -0.02361,-0.039234 -0.0675,-0.081752 -0.03521,-0.034082 -0.05175,-0.055992 -0.06932,-0.091835 -0.02214,-0.045122 -0.02293,-0.048915 -0.01959,-0.092815 0.004,-0.055087 0.01851,-0.08173 0.05565,-0.1034924 z m 1.57133,0 h 0.22179 c 0.211412,0 0.223414,5.661e-4 0.256421,0.012965 0.04461,0.016701 0.09572,0.065124 0.105112,0.09958 0.0034,0.013361 0.0066,0.042235 0.0067,0.06419 5.7e-5,0.071046 -0.04127,0.1279105 -0.11293,0.155267 -0.01483,0.00566 -0.02695,0.012455 -0.02695,0.015116 0,0.00283 0.01025,0.013305 0.02282,0.023665 0.03782,0.031308 0.06814,0.036743 0.203362,0.036743 h 0.120544 v 0.08212 0.082115 l -0.156631,-1.868e-4 c -0.203124,-2.434e-4 -0.237438,-0.00453 -0.281326,-0.035384 -0.0184,-0.012908 -0.0594,-0.051973 -0.0911,-0.086723 -0.0317,-0.034762 -0.05976,-0.064139 -0.06234,-0.065255 -0.0028,-0.00113 -0.0045,0.04065 -0.0045,0.09277 v 0.094785 h -0.10037 -0.100366 V 9.5346844 Z m 1.008587,0 h 0.103549 l 0.02865,0.085851 c 0.01574,0.047217 0.03046,0.082817 0.03278,0.079097 0.0023,-0.00396 0.015,-0.042348 0.02814,-0.085823 l 0.02395,-0.079063 0.113146,-2.84e-5 0.113151,-3.39e-5 0.02293,0.077557 c 0.01262,0.042631 0.02502,0.079822 0.02751,0.08259 0.004,0.00453 0.02457,-0.046255 0.05135,-0.1282106 l 0.01047,-0.031931 h 0.102627 0.10262 l -0.008,0.025873 c -0.0045,0.01421 -0.04592,0.1429362 -0.09227,0.2860423 l -0.08429,0.2601861 -0.09054,-0.0017 -0.09055,-0.0017 -0.03153,-0.097293 c -0.01738,-0.053501 -0.03312,-0.09457 -0.03505,-0.091241 -0.0017,0.0034 -0.01246,0.033403 -0.02338,0.066874 -0.01093,0.03346 -0.02519,0.075202 -0.03165,0.092764 l -0.01178,0.031931 h -0.08964 -0.08964 l -0.08963,-0.2769499 c -0.04931,-0.152323 -0.09117,-0.2809695 -0.09306,-0.2858894 -0.0028,-0.00764 0.01149,-0.00895 0.100123,-0.00895 z m 0.884152,0 h 0.14219 0.142194 l 0.07307,0.2235448 c 0.0402,0.1229454 0.08255,0.2516032 0.09413,0.285895 l 0.02106,0.062345 -0.104528,-2.83e-5 -0.104529,-1.7e-5 -0.01829,-0.050161 -0.01829,-0.050161 -0.08871,-0.0017 -0.0887,-0.0017 -0.01761,0.051859 -0.01761,0.051859 h -0.09893 c -0.05441,0 -0.09892,-0.00113 -0.09892,-0.00283 0,-0.00226 0.107965,-0.3374827 0.168101,-0.5217649 z m 0.5342875,0 h 0.221473 c 0.212601,0 0.222865,5.265e-4 0.255968,0.013191 0.09026,0.034535 0.135486,0.1205166 0.109822,0.2087966 -0.01325,0.045688 -0.05953,0.093936 -0.105722,0.1103428 -0.01727,0.00611 -0.03142,0.012965 -0.03142,0.015173 0,0.01087 0.04603,0.042348 0.07401,0.05067 0.04557,0.013531 0.289473,0.013588 0.315595,1.076e-4 0.0099,-0.0051 0.01795,-0.012229 0.01795,-0.015796 0,-0.0034 -0.02191,-0.029893 -0.04869,-0.058529 -0.08598,-0.091903 -0.114606,-0.148643 -0.107116,-0.2123634 0.0045,-0.038385 0.01064,-0.052652 0.03335,-0.077144 0.03221,-0.034818 0.02899,-0.034422 0.28333,-0.034422 h 0.234488 v 0.07908 0.07908 l -0.138378,5.661e-4 c -0.07611,3.341e-4 -0.145235,0.00226 -0.153597,0.00453 -0.02955,0.00815 -0.02327,0.028704 0.02327,0.076011 0.07827,0.079573 0.110585,0.1397148 0.110585,0.2058016 0,0.053841 -0.02842,0.092011 -0.08506,0.114238 -0.03272,0.012852 -0.03861,0.013078 -0.313263,0.010983 -0.312142,-0.00226 -0.296512,-2.605e-4 -0.35311,-0.046708 -0.01681,-0.013814 -0.05356,-0.051124 -0.0816,-0.082907 -0.02802,-0.031761 -0.05327,-0.057793 -0.05605,-0.057793 -0.0028,0 -0.0051,0.042461 -0.0051,0.094287 v 0.094281 H 10.142303 10.041935 V 9.5343935 Z m -0.3930035,0.123336 c -0.0023,0.00226 -0.08145,0.2225937 -0.08145,0.227038 0,0.00113 0.03555,0.00226 0.07907,0.00226 0.04348,0 0.07907,-0.00226 0.07907,-0.00453 0,-0.00923 -0.07435,-0.2272644 -0.0767,-0.2249149 z m -2.422528,0.00283 c -0.0028,8.49e-5 -0.0089,0.011493 -0.01602,0.031874 -0.0076,0.02174 -0.02638,0.074432 -0.04167,0.1170914 l -0.02774,0.077551 h 0.08141 0.08141 l -0.03606,-0.1079605 c -0.01982,-0.059384 -0.03771,-0.1120809 -0.0398,-0.117097 -3.96e-4,-0.00113 -0.0011,-0.0017 -0.0017,-0.0017 z m 0.592279,0.01053 -0.0017,0.048123 c -0.0011,0.026496 -3.89e-4,0.051803 0.0011,0.056275 0.0023,0.00623 0.02134,0.00815 0.07962,0.00815 0.07311,0 0.07717,-5.661e-4 0.09143,-0.014946 0.01908,-0.019079 0.02078,-0.06166 0.0034,-0.083241 -0.01115,-0.013814 -0.01483,-0.01438 -0.09276,-0.01438 z m 2.4270225,0 -0.0017,0.048123 c -0.0011,0.026496 -3.12e-4,0.051973 0.0017,0.05674 0.0028,0.00696 0.01897,0.00821 0.08594,0.00662 0.07345,-0.0017 0.08359,-0.0034 0.09125,-0.013814 0.0128,-0.017494 0.01104,-0.065962 -0.0028,-0.083321 -0.01115,-0.013814 -0.01483,-0.01438 -0.09276,-0.01438 z m 1.698962,0.2017876 c 0.102899,4.303e-4 0.195941,0.042518 0.269239,0.1225321 0.06417,0.070033 0.09409,0.1506642 0.09297,0.2505049 -0.0017,0.1640598 -0.119242,0.3124648 -0.276496,0.3495308 -0.05214,0.01228 -0.138734,0.01127 -0.18584,-0.0023 -0.06439,-0.0184 -0.105338,-0.04303 -0.157837,-0.09487 -0.05639,-0.05571 -0.08786,-0.111532 -0.102756,-0.182482 -0.04439,-0.2114057 0.103323,-0.4173432 0.316048,-0.4406233 0.01506,-0.0017 0.03001,-0.00226 0.04467,-0.00226 z m -6.9481295,2.491e-4 c 0.132922,0.00283 0.259167,0.076719 0.319377,0.1988946 0.05452,0.1106316 0.0552,0.2229161 0.0017,0.3320531 -0.01682,0.03448 -0.03431,0.05754 -0.07156,0.09435 -0.05344,0.05282 -0.09965,0.07982 -0.165741,0.09678 -0.04575,0.01172 -0.132117,0.01172 -0.180715,-5.1e-5 -0.115116,-0.02785 -0.21687,-0.124101 -0.256727,-0.242799 -0.01902,-0.05671 -0.02316,-0.141725 -0.0095,-0.1976891 0.02802,-0.1150079 0.121071,-0.2200573 0.22997,-0.2595859 0.04359,-0.015852 0.08865,-0.022873 0.132955,-0.021967 z m -0.0058,0.032271 -0.01755,0.016645 c -0.0097,0.00917 -0.02299,0.024231 -0.02961,0.033403 -0.012,0.016701 -0.012,0.016815 5.66e-4,0.050387 0.0069,0.018513 0.01257,0.035271 0.01257,0.037196 0,8.49e-5 -3.5e-5,1.585e-4 -6.9e-5,2.038e-4 -0.0011,0.00113 -0.01149,-0.00713 -0.02429,-0.018683 -0.01342,-0.012116 -0.02684,-0.021967 -0.02989,-0.021967 -0.0061,0 -0.03714,0.035045 -0.0368,0.041499 1.18e-4,0.00226 0.0107,0.011323 0.02344,0.020155 0.03091,0.021344 0.05022,0.062362 0.05395,0.1145267 0.0034,0.049935 -0.0051,0.07968 -0.02989,0.100373 -0.0372,0.031308 -0.09234,0.015626 -0.127632,-0.036347 -0.04597,-0.067661 -0.03946,-0.1638838 0.01659,-0.2472383 0.01155,-0.017154 0.01993,-0.032271 0.01857,-0.033573 -0.004,-0.00396 -0.06198,0.044273 -0.08239,0.068889 -0.02735,0.03295 -0.05932,0.099076 -0.0679,0.1403998 -0.01025,0.049368 -0.0045,0.1417637 0.01166,0.1871467 0.05509,0.154723 0.221948,0.244634 0.383363,0.206588 0.05611,-0.01325 0.117404,-0.04767 0.158382,-0.08904 0.09777,-0.09869 0.122436,-0.2508325 0.0614,-0.378726 -0.0205,-0.042914 -0.07667,-0.1080613 -0.109957,-0.1274803 -0.02146,-0.012512 -0.02117,-0.01138 0.0072,0.030572 0.03844,0.056813 0.05571,0.1318 0.04172,0.1816099 -0.0088,0.031308 -0.03771,0.074834 -0.06296,0.094689 -0.0094,0.00736 -0.0291,0.014777 -0.04382,0.016418 -0.03476,0.004 -0.05463,-0.00889 -0.07092,-0.045688 -0.01557,-0.035271 -0.0128,-0.095776 0.0061,-0.132853 0.01223,-0.023948 0.04597,-0.05867 0.06303,-0.064847 0.0058,-0.00226 0.0017,-0.00957 -0.01274,-0.025024 -0.01155,-0.012116 -0.02316,-0.02208 -0.02582,-0.02208 -0.0028,0 -0.0158,0.00985 -0.0291,0.02191 l -0.02423,0.02191 0.0085,-0.028251 c 0.0045,-0.015569 0.01195,-0.032384 0.01608,-0.037423 0.0063,-0.00764 0.0023,-0.01455 -0.02508,-0.042235 z m 6.9475865,0 c -2.59e-4,5.7e-6 -4.53e-4,8.49e-5 -5.66e-4,2.378e-4 -0.0011,0.0017 -0.01506,0.017154 -0.03057,0.034875 l -0.02825,0.032157 0.0099,0.019193 c 0.0057,0.01053 0.01212,0.026949 0.01483,0.036404 l 0.0051,0.017211 -0.02502,-0.021457 c -0.01376,-0.011776 -0.02672,-0.021401 -0.02882,-0.021401 -0.0023,0 -0.01325,0.00991 -0.02474,0.02208 -0.01619,0.017041 -0.01885,0.022816 -0.01183,0.02525 0.0051,0.0017 0.02044,0.014437 0.03431,0.028138 0.04212,0.041782 0.05694,0.1191805 0.03295,0.1719967 -0.02502,0.055087 -0.08817,0.059763 -0.135367,0.010077 -0.05829,-0.061371 -0.05874,-0.1729988 -0.0011,-0.2587198 0.01155,-0.017098 0.02265,-0.033856 0.02468,-0.03714 0.0107,-0.017324 -0.04059,0.022193 -0.07127,0.054803 -0.05367,0.057153 -0.0906,0.147573 -0.09095,0.2225031 -3.11e-4,0.067893 0.03522,0.1652189 0.0802,0.2198079 0.04071,0.04942 0.116094,0.09306 0.184299,0.106753 0.04037,0.0081 0.101725,0.0068 0.140149,-0.0028 0.09096,-0.02321 0.171997,-0.0845 0.211718,-0.16009 0.07746,-0.1474085 0.04314,-0.3218397 -0.08293,-0.4214936 -0.01665,-0.013191 -0.03137,-0.022873 -0.03267,-0.021514 -0.0011,0.00113 0.0071,0.016418 0.01857,0.033573 0.03233,0.048066 0.04625,0.091501 0.04625,0.1443572 0,0.051237 -0.01183,0.082183 -0.04473,0.1171367 -0.03856,0.040933 -0.08038,0.049142 -0.112523,0.02208 -0.02491,-0.020948 -0.03335,-0.050218 -0.02995,-0.1034019 0.0034,-0.05101 0.02253,-0.090624 0.05492,-0.1130094 0.01087,-0.00747 0.02083,-0.014437 0.02214,-0.015456 0.004,-0.00283 -0.02984,-0.044726 -0.03612,-0.044726 -0.0034,0 -0.01687,0.010021 -0.03046,0.022306 l -0.02474,0.022363 0.0045,-0.017777 c 0.0023,-0.00979 0.008,-0.025194 0.01257,-0.034196 0.0045,-0.00906 0.0083,-0.020098 0.0083,-0.024571 0,-0.00832 -0.05441,-0.06496 -0.06217,-0.06534 -5.1e-5,-5.7e-6 -8.5e-5,-5.7e-6 -1.19e-4,0 z m -0.89923,0.4444057 c -0.0034,8.5e-5 -0.0065,4.47e-4 -0.01047,5.66e-4 l -0.02865,0.0017 -0.0017,0.190357 -0.0017,0.190351 0.04422,-0.0017 0.04416,-0.0017 -0.0023,-0.12106 -0.0023,-0.121077 0.132372,0.122589 0.132382,0.1226 h 0.02961 c 0.01931,0 0.02978,-0.0028 0.03018,-0.0076 3.18e-4,-0.004 7.3e-5,-0.08698 -5.27e-4,-0.183994 -5.65e-4,-0.115347 -0.0034,-0.179141 -0.0076,-0.184304 -0.004,-0.0051 -0.01698,-0.0072 -0.03448,-0.0061 l -0.02791,0.0017 -0.0028,0.122833 -0.0028,0.122832 -0.07603,-0.07041 c -0.177998,-0.164812 -0.191353,-0.178366 -0.213331,-0.177806 z m -0.289881,5.66e-4 c -0.120273,-0.0017 -0.153342,-5.15e-4 -0.179889,0.0072 -0.05693,0.01653 -0.05537,0.01076 -0.05124,0.189621 0.0028,0.115093 0.0057,0.158024 0.01161,0.165152 0.0188,0.02265 0.04054,0.02553 0.193522,0.02565 0.134795,9e-5 0.151519,-0.0011 0.175105,-0.01172 0.04342,-0.0197 0.04625,-0.03301 0.04138,-0.193952 -0.004,-0.141096 -0.0084,-0.163578 -0.03227,-0.174641 -0.006,-0.0028 -0.07718,-0.0061 -0.158228,-0.0073 z m -1.3750275,0.004 -0.01659,0.02916 c -0.03997,0.0703 -0.173323,0.335331 -0.173323,0.344492 0,0.0083 0.0064,0.01013 0.03499,0.01008 l 0.03499,-3.4e-5 0.01931,-0.04252 0.01931,-0.04257 h 0.110133 0.110122 l 0.01959,0.04105 0.01965,0.04105 0.03584,0.0017 c 0.0197,0.0011 0.03782,-3.57e-4 0.04025,-0.0028 0.0023,-0.0028 -0.03697,-0.08838 -0.08756,-0.190414 l -0.09194,-0.185527 -0.03737,-0.0017 z m -0.531446,0.0011 c -0.0069,-3e-4 -0.01444,-2.15e-4 -0.02095,3.17e-4 l -0.02378,0.0017 -0.0045,0.161189 c -0.0051,0.177284 -0.0034,0.1882 0.02825,0.207511 0.01693,0.01036 0.03261,0.01144 0.165587,0.01144 l 0.146871,1.7e-5 0.01897,-0.01772 0.01897,-0.01772 -0.0017,-0.172348 -0.0017,-0.172347 h -0.03952 -0.03957 l 0.0023,0.152957 0.0023,0.152962 -0.105763,0.0023 c -0.05817,0.0011 -0.107818,0.0017 -0.110326,2.67e-4 -0.0023,-0.0011 -0.0045,-0.07045 -0.0045,-0.153824 v -0.151592 l -0.01427,-0.0034 c -0.004,-0.0011 -0.01019,-0.0017 -0.01704,-0.0017 z m 1.4301365,4.64e-4 c -0.130214,-0.0017 -0.164772,-1.75e-4 -0.167032,0.0061 -0.0017,0.0045 -0.0034,0.09069 -0.0045,0.191891 l -0.0017,0.184005 h 0.03074 c 0.01687,0 0.03403,-0.0034 0.03799,-0.0073 0.0045,-0.0045 0.0073,-0.02933 0.0073,-0.06995 v -0.06266 h 0.04201 0.04201 l 0.06862,0.06995 0.06863,0.06995 h 0.04416 c 0.02429,0 0.04569,-0.0023 0.04761,-0.0057 0.0017,-0.0028 -0.02808,-0.03522 -0.06662,-0.07137 -0.07531,-0.07069 -0.07631,-0.07375 -0.02429,-0.0747 0.0274,-5.09e-4 0.0596,-0.01755 0.07006,-0.03708 0.0045,-0.0084 0.0062,-0.03884 0.0051,-0.08536 -0.0017,-0.06972 -0.0028,-0.07296 -0.01885,-0.08919 l -0.01687,-0.01687 z m -0.6232645,0.0017 -0.0017,0.190085 -0.0017,0.190086 0.108057,-5.1e-5 c 0.05943,-3.4e-5 0.125844,-0.0028 0.147589,-0.0065 0.05231,-0.0084 0.08423,-0.02814 0.1176865,-0.07264 0.03148,-0.0419 0.03816,-0.0696 0.03216,-0.133006 -0.0058,-0.06125 -0.01381,-0.08211 -0.04433,-0.116101 -0.047099,-0.05237 -0.045239,-0.05192 -0.2119505,-0.05192 z m -2.393392,0.0023 -0.03505,0.0017 -0.03505,0.0017 -0.0017,0.153597 -0.0017,0.153585 h -0.110184 -0.110184 l 0.0023,-0.153585 0.0023,-0.153597 -0.03403,-0.0017 c -0.02406,-0.0011 -0.03618,5.66e-4 -0.04133,0.007 -0.01115,0.01342 -0.0069,0.351048 0.0045,0.36489 0.0074,0.0088 0.02621,0.01002 0.158149,0.01 0.144335,-1.02e-4 0.150693,-5.66e-4 0.174137,-0.01387 l 0.02434,-0.01376 0.0017,-0.178037 z m 0.424143,4.25e-4 -0.168067,0.0017 -0.168057,0.0017 -0.0017,0.181751 c -0.0011,0.130221 3.68e-4,0.184141 0.0057,0.190182 0.0057,0.0069 0.03725,0.0082 0.171929,0.0068 l 0.164931,-0.0017 0.0017,-0.03499 c 0.0011,-0.02508 -4.13e-4,-0.03533 -0.0061,-0.03629 -0.0045,-5.66e-4 -0.06402,-0.0011 -0.132604,-0.0017 l -0.124689,-2.04e-4 v -0.04563 -0.04563 h 0.07299 0.07299 l 0.0023,-0.01749 c 0.0011,-0.0096 3.56e-4,-0.02395 -0.0017,-0.03193 -0.0034,-0.01421 -0.0051,-0.01449 -0.07651,-0.01449 h -0.07288 v -0.03867 -0.03867 l 0.126223,-0.0045 c 0.07101,-0.0023 0.129541,-0.0072 0.133816,-0.0107 0.0082,-0.0068 0.0096,-0.02406 0.004,-0.04597 z m 0.256008,1.87e-4 -0.01778,0.01778 c -0.01727,0.01727 -0.01778,0.01959 -0.01772,0.07756 2.2e-5,0.03289 0.0028,0.06995 0.0063,0.0824 0.01104,0.03969 0.01704,0.04122 0.162275,0.04122 h 0.129434 v 0.04207 0.04206 l -0.0441,0.004 c -0.02423,0.0023 -0.07831,0.0028 -0.120127,0.0023 l -0.07605,-0.0017 -0.0017,-0.01976 c -0.0017,-0.01647 -0.0045,-0.01976 -0.01693,-0.01976 -0.0083,0 -0.02451,0.004 -0.03612,0.0088 -0.01744,0.0073 -0.02112,0.01195 -0.02112,0.02718 0,0.01008 0.0045,0.02791 0.01013,0.03963 0.01699,0.03555 0.03476,0.03929 0.187567,0.03963 0.122102,2.66e-4 0.135508,-5.67e-4 0.153194,-0.01155 0.01064,-0.0065 0.02191,-0.01676 0.02502,-0.02282 0.0088,-0.0171 0.01381,-0.104772 0.0081,-0.140695 -0.0085,-0.05322 -0.0059,-0.05231 -0.160651,-0.05577 l -0.135135,-0.0028 -0.0017,-0.04105 -0.0017,-0.04105 h 0.109296 0.109295 l 0.0072,0.02174 c 0.0045,0.01393 0.01008,0.02055 0.01529,0.01857 0.0045,-0.0017 0.01925,-0.0061 0.03284,-0.0098 0.0205,-0.0057 0.02468,-0.0092 0.02468,-0.0218 0,-0.01919 -0.01342,-0.05169 -0.02695,-0.0652 -0.0092,-0.0092 -0.02672,-0.01042 -0.156422,-0.01042 z m 0.605335,0 c -0.234777,0 -0.221195,-0.01081 -0.221144,0.176237 4.9e-5,0.201884 -5.67e-4,0.200893 0.134659,0.200893 h 0.09048 l 0.01948,0.03957 0.01947,0.03952 h 0.0342 c 0.0188,0 0.03589,-0.0017 0.03799,-0.004 0.0023,-0.0023 -0.0028,-0.01704 -0.01115,-0.03323 -0.0082,-0.01619 -0.01495,-0.03233 -0.01495,-0.03578 0,-0.0034 0.01161,-0.0063 0.02587,-0.0063 0.02616,-1.7e-5 0.06137,-0.01631 0.07604,-0.0351 0.0057,-0.0072 0.0076,-0.04852 0.0076,-0.157165 v -0.147392 l -0.01574,-0.01874 -0.01574,-0.01874 z m -1.933237,0.0045 -0.157899,0.0028 -0.01698,0.01699 -0.01698,0.01699 v 0.154757 c 0,0.147352 5.66e-4,0.155522 0.01262,0.170779 l 0.01262,0.01602 h 0.164405 0.164393 l 0.02066,-0.02066 0.02072,-0.02067 v -0.08881 -0.08881 h -0.0968 -0.0968 l -0.004,0.02412 c -0.0023,0.01325 -0.0023,0.02695 -1.76e-4,0.0304 0.0023,0.0034 0.02921,0.0063 0.06437,0.0063 h 0.06048 v 0.04269 0.04269 l -0.120137,-0.0017 -0.120137,-0.0017 -0.0017,-0.120262 -0.0017,-0.120274 0.120262,0.0017 0.120262,0.0017 v 0.01823 c 0,0.01704 0.0011,0.01817 0.02157,0.01704 0.01183,-5.66e-4 0.02899,-0.004 0.03799,-0.0075 0.01908,-0.0073 0.02151,-0.02525 0.0079,-0.05798 -0.01585,-0.03793 -0.01942,-0.03861 -0.194914,-0.03521 z m -0.452507,0.0017 c -0.09983,0 -0.170548,0.0023 -0.181905,0.0064 -0.01104,0.004 -0.02117,0.01308 -0.02497,0.02282 -0.0034,0.009 -0.0082,0.0768 -0.01047,0.150692 -0.0045,0.151576 -0.0017,0.17044 0.02978,0.190589 0.01834,0.01172 0.02814,0.0124 0.171498,0.01183 0.08364,-3.4e-4 0.159989,-0.0023 0.16967,-0.0045 0.0097,-0.0023 0.02338,-0.01155 0.0304,-0.021 0.01195,-0.01602 0.01296,-0.0261 0.01472,-0.149866 0.0023,-0.139567 -0.0023,-0.173757 -0.02355,-0.19522 -0.01115,-0.01115 -0.02146,-0.01183 -0.175172,-0.01183 z m -0.48449,0.0011 -0.145988,0.0017 -0.0017,0.190079 -0.0017,0.190097 h 0.03352 0.03352 v -0.07299 -0.07299 h 0.04501 0.04501 l 0.03827,0.0441 c 0.02106,0.02423 0.05067,0.0571 0.06579,0.07299 l 0.02752,0.02887 h 0.04699 c 0.02587,0 0.04857,-0.0023 0.05044,-0.0057 0.0017,-0.0028 -0.02876,-0.03584 -0.06807,-0.07287 l -0.07149,-0.06736 0.0385,-1.19e-4 c 0.03403,-1.08e-4 0.04048,-0.0023 0.05565,-0.01732 0.0141,-0.0141 0.01795,-0.02457 0.02163,-0.05869 0.0062,-0.05755 -8.5e-5,-0.123444 -0.01308,-0.13779 -0.01891,-0.02089 -0.0488,-0.02423 -0.200032,-0.02236 z m 5.1780975,0.05214 c 0.0059,0.0023 0.0074,0.02938 0.0061,0.119203 l -0.0017,0.116383 -0.125086,0.0017 c -0.0688,0.0011 -0.126965,-2.43e-4 -0.129264,-0.0023 -0.0051,-0.0051 -0.0051,-0.09597 -2.33e-4,-0.173213 l 0.004,-0.05855 0.119265,-0.0028 c 0.06559,-0.0017 0.122753,-0.0017 0.127005,-6.8e-5 z m -1.1239285,5.54e-4 0.09327,0.0017 c 0.09207,0.0017 0.09355,0.0023 0.116214,0.01948 0.02984,0.02276 0.03991,0.04829 0.03991,0.100974 0,0.04303 -0.0051,0.0579 -0.02735,0.08433 -0.02338,0.0274 -0.03963,0.03136 -0.129461,0.03136 -0.04642,0 -0.08628,-0.0017 -0.0885,-0.004 -0.0023,-0.0023 -0.004,-0.05582 -0.004,-0.119039 z m 0.4501245,0.0011 h 0.105803 c 0.120369,0 0.113179,-0.0034 0.113179,0.05503 0,0.02916 -0.0023,0.03691 -0.01178,0.04207 -0.0067,0.0034 -0.05373,0.0063 -0.109488,0.0063 h -0.09773 v -0.05169 z m -1.5176475,0.0028 0.0045,0.100368 c 0.0028,0.0552 0.0034,0.109267 0.0011,0.120137 -0.0034,0.01948 -0.004,0.01976 -0.03697,0.01976 h -0.03357 l -0.02417,-0.05231 c -0.02616,-0.05663 -0.0248,-0.05588 -0.06848,-0.03923 -0.02202,0.0084 -0.02242,0.01223 -0.0059,0.05141 0.01212,0.0287 0.01353,0.03686 0.0071,0.04093 -0.0086,0.0057 -0.08197,0.0064 -0.09474,0.0011 -0.0057,-0.0023 -0.0076,-0.03182 -0.0076,-0.118326 0,-0.09747 0.0017,-0.1158 0.0092,-0.118801 0.0051,-0.0017 0.06324,-0.004 0.129251,-0.0045 z m -3.070493,0.0091 h 0.103057 c 0.07204,0 0.105253,0.0023 0.110353,0.0073 0.01025,0.01019 0.0093,0.07286 -0.0011,0.08735 -0.0073,0.01 -0.01659,0.01189 -0.05931,0.0124 -0.02785,3.18e-4 -0.07188,-4.75e-4 -0.09781,-0.0017 -0.0445,-0.0023 -0.04716,-0.0034 -0.04716,-0.01642 0,-0.0078 -0.0017,-0.03091 -0.004,-0.05146 z m 0.430564,0.0028 h 0.127735 0.12774 l 0.0017,0.115127 c 0.0011,0.08804 -1.7e-4,0.116282 -0.0061,0.120041 -0.0045,0.0028 -0.06189,0.0051 -0.128069,0.0051 -0.09233,7.4e-5 -0.12102,-0.0017 -0.123313,-0.0077 -0.0017,-0.0045 -0.0023,-0.05834 -0.0011,-0.120126 z m 3.385403,0.0059 c 0,-5e-6 3.9e-5,0 5.1e-5,0 0.0059,2.04e-4 0.07261,0.123014 0.07261,0.133884 0,0.0017 -0.03284,0.0034 -0.07299,0.0034 -0.04014,0 -0.07299,-0.0011 -0.07299,-0.0023 0,-0.0058 0.06848,-0.132078 0.07319,-0.134988 4.5e-5,-1.7e-5 8.6e-5,-3.4e-5 1.36e-4,-5.1e-5 z m 2.1735005,0.262559 c -6e-6,2.09e-4 0,5.66e-4 0,5.66e-4 0,-2.72e-4 5.1e-5,-5.15e-4 5.1e-5,-5.66e-4 v -1.2e-5 0 c 0,0 0,0 -5.1e-5,-5e-6 z m -6.2269115,0.0051 c -3.4e-5,3.4e-5 -6.8e-5,5.1e-5 -1.02e-4,8.5e-5 3.4e-5,5.49e-4 5.1e-5,0.0011 8.5e-5,0.0017 z m 2.487182,0.156761 c -0.196477,0.0023 -0.258256,0.0045 -0.289354,0.01206 -0.127566,0.03023 -0.172111,0.08545 -0.17296,0.214373 l -4.02e-4,0.06083 0.10642,0.0017 c 0.120715,0.0017 0.121688,0.0017 0.121688,-0.04495 0,-0.03329 0.02174,-0.06018 0.05671,-0.07026 0.03091,-0.0089 0.339418,-0.0075 0.381252,0.0017 0.06044,0.01336 0.08788,0.07127 0.06311,0.133165 -0.0062,0.01534 -0.0167,0.02819 -0.02791,0.03403 -0.02378,0.01229 -0.14289,0.02117 -0.221025,0.01647 -0.08869,-0.0051 -0.08787,-0.0061 -0.08787,0.08001 0,0.04846 0.0023,0.07077 0.0075,0.07401 0.004,0.0028 0.07324,0.0045 0.153586,0.0051 0.163759,3.23e-4 0.175347,0.0028 0.193935,0.04201 0.01234,0.02604 0.01285,0.07643 0.0011,0.104687 -0.0154,0.03691 -0.02848,0.03918 -0.223556,0.03878 -0.215755,-4.13e-4 -0.261903,-0.0045 -0.28328,-0.02604 -0.01268,-0.01268 -0.01619,-0.02299 -0.01834,-0.05395 -0.0017,-0.02106 -0.0057,-0.04172 -0.0088,-0.04592 -0.0072,-0.0089 -0.20291,-0.01087 -0.216656,-0.0023 -0.0137,0.0087 -0.0065,0.141911 0.0097,0.177681 0.02684,0.05955 0.06468,0.08825 0.14366,0.108956 0.01234,0.0034 0.01942,0.0057 -0.01206,0.0072 h 0.668975 c -0.07569,-5.21e-4 -0.110439,-0.0011 -0.09639,-0.0017 0.123314,-0.0045 0.162236,-0.01302 0.20993,-0.04456 0.04546,-0.03012 0.07225,-0.117494 0.06448,-0.210529 -0.0091,-0.108407 -0.03595,-0.143027 -0.125391,-0.16137 -0.04478,-0.0092 -0.04325,-0.02021 0.0051,-0.03686 0.08065,-0.0278 0.102722,-0.07239 0.09587,-0.193737 -0.0063,-0.111368 -0.03018,-0.155981 -0.100956,-0.188325 -0.06743,-0.03085 -0.123026,-0.03533 -0.397993,-0.03238 z m 0.562239,0.04093 -0.06236,3.4e-5 -0.06235,1.7e-5 0.01959,0.01195 c 0.01076,0.0066 0.0231,0.01749 0.02729,0.02429 0.0063,0.01008 0.0141,0.01234 0.04274,0.01234 h 0.03505 v -0.02434 z m 0.279741,0.169846 0.272234,0.0017 0.272239,0.0017 0.02735,0.01523 c 0.02021,0.01121 0.03137,0.02316 0.04257,0.04563 0.01483,0.02961 0.01517,0.03386 0.01517,0.161189 0,0.159043 -0.0028,0.16835 -0.06111,0.197688 l -0.03623,0.01823 -0.26309,0.0017 c -0.144691,0.0011 -0.262955,-3.68e-4 -0.262802,-0.0028 1.59e-4,-0.0028 -0.0011,-0.102818 -0.0028,-0.222554 z m 2.9054485,0.04829 -0.559267,5.66e-4 c -0.63213,0.711086 -1.5445005,1.156539 -2.5590145,1.156539 -1.014504,0 -1.926868,-0.445448 -2.558998,-1.156522 l -0.559284,-5.66e-4 c 0.71005,0.967371 1.842567,1.594955 3.118282,1.594955 1.275719,0 2.4082315,-0.62759 3.1182815,-1.594961 z m -1.8512975,5.66e-4 c 0.01013,0.143678 0.0065,0.358266 -0.0017,0.409412 -0.0059,0.03754 -0.0154,0.07397 -0.02933,0.108412 0.3072735,-0.126195 0.5830395,-0.300892 0.8215705,-0.516975 -0.323533,3.91e-4 -0.6065575,5.1e-5 -0.7906755,-5.66e-4 z m -3.26196,0.0011 c 0.217923,0.190017 0.463016,0.349745 0.729356,0.472249 -0.01699,-0.09588 -0.02021,-0.23887 0.07804,-0.30233 a 0.17242504,0.17242504 0 0 1 -0.07671,-0.144556 l 1.59e-4,-0.02423 z m 2.382919,0.123562 5.67e-4,0.0415 c 3.4e-5,0.0023 4.41e-4,0.02497 0.0011,0.05531 l 0.09133,4.99e-4 0.189022,-0.0011 v -0.0023 c 8.5e-5,-0.01229 1.3e-4,-0.02627 1.3e-4,-0.04195 0,-0.01959 -8.4e-5,-0.03629 -2.09e-4,-0.05016 v -1.2e-5 l -0.185873,-0.0011 z m 0.279775,0.15272 c -3.45e-4,0.0017 -4.7e-4,0.0023 -4.58e-4,0.0028 v 5e-6 l 5e-6,1.2e-5 v 1.1e-5 h 1.2e-5 v -1.1e-5 l 5e-6,-1.2e-5 c 4.6e-5,-1.19e-4 1.53e-4,-5.66e-4 2.72e-4,-0.0011 4e-5,-2.94e-4 9.6e-5,-5.66e-4 1.64e-4,-0.0011 z m -0.805604,0.464312 c -0.004,0.0017 -0.0076,0.0034 -0.01149,0.0045 0.0066,3.34e-4 0.01313,5.66e-4 0.0197,0.0011 a 0.17242504,0.17242504 0 0 1 -0.0082,-0.0057 z"
     class="ColorScheme-Text" />
  <ellipse
     style="fill:none;stroke:#000000;stroke-width:0.582072;stroke-dasharray:none;stroke-opacity:1;filter:url(#filter3-8)"
     id="path1-5-7"
     cx="8.4450111"
     cy="8.423522"
     rx="6.8752708"
     ry="6.8578653"
     transform="matrix(0.4782969,0,0,0.4782969,8.9000071,8.8280171)" />
  <ellipse
     style="fill:currentColor;fill-opacity:1;stroke:currentColor;stroke-width:0.278402;stroke-dasharray:none;stroke-opacity:1"
     id="path1-59"
     cx="12.939234"
     cy="12.856965"
     rx="3.2884204"
     ry="3.2800953"
     class="ColorScheme-Text" />
  <ellipse
     style="fill:currentColor;stroke:none;stroke-width:0.246622;stroke-dasharray:none;stroke-opacity:1"
     id="path1-2-2"
     cx="12.939234"
     cy="12.856965"
     rx="2.9130225"
     ry="2.9056478"
     class="ColorScheme-Highlight" />
  <path
     id="path1-36-3"
     style="fill:#000000;fill-opacity:1;stroke:none;stroke-width:0.124104;stroke-dasharray:none;stroke-dashoffset:2.2;stroke-opacity:0.3;opacity:0.3"
     d="m 14.021099,11.736685 c -0.06523,-2.7e-5 -0.135047,0.02623 -0.222431,0.07744 -0.207942,0.121835 -0.479893,0.179294 -0.853351,0.179294 -0.373425,0 -0.654446,-0.05868 -0.861152,-0.179813 -0.165749,-0.09713 -0.264703,-0.09842 -0.403809,-0.0046 -0.357127,0.240662 -0.62628,1.012267 -0.705238,2.020557 -0.04735,0.604628 -0.0031,0.923391 0.153311,1.102784 0.07546,0.08649 0.260665,0.07183 0.427716,-0.0343 0.141607,-0.08996 0.310333,-0.288477 0.511911,-0.602326 0.182153,-0.283608 0.40248,-0.377017 0.889733,-0.377816 0.486283,-7.65e-4 0.677387,0.09125 0.901686,0.436021 0.376321,0.578447 0.72416,0.779828 0.928191,0.537359 0.113031,-0.134326 0.133719,-0.264107 0.128366,-0.804479 -0.0098,-0.981615 -0.266353,-1.87461 -0.636118,-2.215438 -0.09848,-0.09078 -0.174941,-0.134569 -0.258815,-0.134604 z m -2.112591,0.578416 h 0.225551 0.22555 v 0.193324 0.193326 h 0.19333 0.193331 v 0.241656 0.241656 h -0.193331 -0.19333 v 0.209435 0.209435 h -0.204243 c -0.112206,0 -0.213221,-0.01005 -0.225032,-0.02182 -0.0118,-0.01181 -0.02182,-0.105569 -0.02182,-0.208914 v -0.188138 h -0.193337 -0.193331 v -0.241656 -0.241656 h 0.193331 0.193332 v -0.193326 z m 1.83871,0 c 0.203478,0 0.290618,0.225442 0.14396,0.372098 -0.09327,0.09326 -0.178394,0.100588 -0.270247,0.02287 -0.159321,-0.134809 -0.07616,-0.394964 0.126287,-0.394964 z m -0.391336,0.413154 c 0.05081,3.5e-5 0.101967,0.02029 0.142399,0.06495 0.06302,0.06964 0.06984,0.229093 0.013,0.303499 -0.111241,0.145623 -0.378344,0.05196 -0.378344,-0.13252 0,-0.140009 0.111172,-0.236016 0.22295,-0.23594 z m 0.798786,0.0078 c 0.05856,0.0011 0.115418,0.02047 0.148634,0.05716 0.06302,0.06964 0.06983,0.229092 0.013,0.303499 -0.118321,0.154886 -0.378346,0.05122 -0.378346,-0.150713 0,-0.06121 0.02453,-0.127549 0.05873,-0.158506 0.03909,-0.03538 0.09943,-0.05251 0.15799,-0.05145 z m -0.393417,0.416788 c 0.180393,0 0.268168,0.19134 0.159029,0.347153 -0.0373,0.05326 -0.08282,0.07171 -0.176699,0.07171 -0.108097,0 -0.133181,-0.01407 -0.176699,-0.09823 -0.08582,-0.165932 0.0078,-0.320649 0.194369,-0.320649 z" />
  <path
     id="path1-36"
     style="fill:currentColor;fill-opacity:1;stroke:none;stroke-width:0.124104;stroke-dasharray:none;stroke-dashoffset:2.2;stroke-opacity:0.3"
     d="m 14.021099,11.207529 c -0.06523,-2.7e-5 -0.135047,0.02623 -0.222431,0.07744 -0.207942,0.121835 -0.479893,0.179294 -0.853351,0.179294 -0.373425,0 -0.654446,-0.05868 -0.861152,-0.179813 -0.165749,-0.09713 -0.264703,-0.09842 -0.403809,-0.0046 -0.357127,0.240662 -0.62628,1.012267 -0.705238,2.020557 -0.04735,0.604628 -0.0031,0.923391 0.153311,1.102784 0.07546,0.08649 0.260665,0.07183 0.427716,-0.0343 0.141607,-0.08996 0.310333,-0.288477 0.511911,-0.602326 0.182153,-0.283608 0.40248,-0.377017 0.889733,-0.377816 0.486283,-7.65e-4 0.677387,0.09125 0.901686,0.436021 0.376321,0.578447 0.72416,0.779828 0.928191,0.537359 0.113031,-0.134326 0.133719,-0.264107 0.128366,-0.804479 -0.0098,-0.981615 -0.266353,-1.87461 -0.636118,-2.215438 -0.09848,-0.09078 -0.174941,-0.134569 -0.258815,-0.134604 z m -2.112591,0.578416 h 0.225551 0.22555 v 0.193324 0.193326 h 0.19333 0.193331 v 0.241656 0.241656 h -0.193331 -0.19333 v 0.209435 0.209435 h -0.204243 c -0.112206,0 -0.213221,-0.01005 -0.225032,-0.02182 -0.0118,-0.01181 -0.02182,-0.105569 -0.02182,-0.208914 v -0.188138 h -0.193337 -0.193331 v -0.241656 -0.241656 h 0.193331 0.193332 v -0.193326 z m 1.83871,0 c 0.203478,0 0.290618,0.225442 0.14396,0.372098 -0.09327,0.09326 -0.178394,0.100588 -0.270247,0.02287 -0.159321,-0.134809 -0.07616,-0.394964 0.126287,-0.394964 z m -0.391336,0.413154 c 0.05081,3.5e-5 0.101967,0.02029 0.142399,0.06495 0.06302,0.06964 0.06984,0.229093 0.013,0.303499 -0.111241,0.145623 -0.378344,0.05196 -0.378344,-0.13252 0,-0.140009 0.111172,-0.236016 0.22295,-0.23594 z m 0.798786,0.0078 c 0.05856,0.0011 0.115418,0.02047 0.148634,0.05716 0.06302,0.06964 0.06983,0.229092 0.013,0.303499 -0.118321,0.154886 -0.378346,0.05122 -0.378346,-0.150713 0,-0.06121 0.02453,-0.127549 0.05873,-0.158506 0.03909,-0.03538 0.09943,-0.05251 0.15799,-0.05145 z m -0.393417,0.416788 c 0.180393,0 0.268168,0.19134 0.159029,0.347153 -0.0373,0.05326 -0.08282,0.07171 -0.176699,0.07171 -0.108097,0 -0.133181,-0.01407 -0.176699,-0.09823 -0.08582,-0.165932 0.0078,-0.320649 0.194369,-0.320649 z"
     class="ColorScheme-Text" />
  <path
     id="gradient-path1"
     style="opacity:0.3;baseline-shift:baseline;display:inline;overflow:visible;vector-effect:none;enable-background:accumulate;stop-color:#000000;stop-opacity:1;fill:url(#linearGradient5)"
     d="M 8.4453131 1.2753492 C 4.4913166 1.2753492 1.2794833 4.4784283 1.2794833 8.4236094 C 1.2794833 12.36879 4.4913166 15.572386 8.4453131 15.572386 C 9.1638027 15.572386 9.8576697 15.466358 10.51233 15.269568 C 11.133159 15.890536 11.991864 16.275172 12.939524 16.275172 C 14.830708 16.275172 16.367154 14.744327 16.367154 12.85736 C 16.367154 11.897867 15.969699 11.029882 15.330545 10.408462 C 15.513101 9.7781514 15.611143 9.1121932 15.611143 8.4236094 C 15.611143 4.4784283 12.39931 1.2753492 8.4453131 1.2753492 z " />
</svg>
