<?xml version="1.0" encoding="UTF-8" standalone="no"?>
<svg
   width="64"
   height="64"
   version="1.1"
   viewBox="0 0 16.933 16.933"
   id="svg7"
   sodipodi:docname="steam_icon_8000.svg"
   inkscape:version="1.4.2 (ebf0e940d0, 2025-05-08)"
   xmlns:inkscape="http://www.inkscape.org/namespaces/inkscape"
   xmlns:sodipodi="http://sodipodi.sourceforge.net/DTD/sodipodi-0.dtd"
   xmlns:xlink="http://www.w3.org/1999/xlink"
   xmlns="http://www.w3.org/2000/svg"
   xmlns:svg="http://www.w3.org/2000/svg"
   xmlns:rdf="http://www.w3.org/1999/02/22-rdf-syntax-ns#"
   xmlns:cc="http://creativecommons.org/ns#"
   xmlns:dc="http://purl.org/dc/elements/1.1/">
  <sodipodi:namedview
     id="namedview7"
     pagecolor="#9c4444"
     bordercolor="#000000"
     borderopacity="0.25"
     inkscape:showpageshadow="2"
     inkscape:pageopacity="0.0"
     inkscape:pagecheckerboard="0"
     inkscape:deskcolor="#d1d1d1"
     inkscape:zoom="4.3531261"
     inkscape:cx="36.180895"
     inkscape:cy="25.958357"
     inkscape:window-width="2560"
     inkscape:window-height="1388"
     inkscape:window-x="0"
     inkscape:window-y="0"
     inkscape:window-maximized="1"
     inkscape:current-layer="svg7"
     showgrid="false" />
  <defs
     id="defs2">
    <filter
       style="color-interpolation-filters:sRGB;"
       inkscape:label="Blur"
       id="filter3"
       x="-0.10843471"
       y="-0.10870992"
       width="1.2168694"
       height="1.2174198">
      <feGaussianBlur
         stdDeviation="0.5 0.5"
         result="blur"
         id="feGaussianBlur3" />
    </filter>
    <filter
       style="color-interpolation-filters:sRGB"
       inkscape:label="Blur"
       id="filter3-8"
       x="-0.10843471"
       y="-0.10870992"
       width="1.2168694"
       height="1.2174198">
      <feGaussianBlur
         stdDeviation="0.5 0.5"
         result="blur"
         id="feGaussianBlur3-7" />
    </filter>
    <style
       id="current-color-scheme"
       type="text/css">.ColorScheme-Text {color:#d8dee9} .ColorScheme-Highlight {color:#3b4252}</style>
    <linearGradient
       id="linearGradient4"
       inkscape:collect="always">
      <stop
         style="stop-color:#000000;stop-opacity:1;"
         offset="0"
         id="stop4" />
      <stop
         style="stop-color:#000000;stop-opacity:0;"
         offset="1"
         id="stop5" />
    </linearGradient>
    <linearGradient
       inkscape:collect="always"
       xlink:href="#linearGradient4"
       id="linearGradient5"
       x1="14.157616"
       y1="14.109557"
       x2="3.4890218"
       y2="3.440964"
       gradientUnits="userSpaceOnUse" />
  </defs>
  <metadata
     id="metadata2">
    <rdf:RDF>
      <cc:Work
         rdf:about="">
        <dc:format>image/svg+xml</dc:format>
        <dc:type
           rdf:resource="http://purl.org/dc/dcmitype/StillImage" />
      </cc:Work>
    </rdf:RDF>
  </metadata>
  <ellipse
     style="opacity:1;fill:none;stroke:#000000;stroke-width:0.582072;stroke-dasharray:none;stroke-opacity:1;filter:url(#filter3)"
     id="path1-5"
     cx="8.4450111"
     cy="8.423522"
     rx="6.8752708"
     ry="6.8578653" />
  <ellipse
     style="opacity:1;fill:none;stroke-width:0.58207188;stroke-opacity:1;stroke:currentColor;stroke-dasharray:none;fill-opacity:1"
     id="path1"
     cx="8.4450111"
     cy="8.423522"
     rx="6.8752708"
     ry="6.8578653"
     class="ColorScheme-Text" />
  <ellipse
     style="fill:currentColor;stroke:none;stroke-width:0.285728;stroke-dasharray:none;stroke-opacity:1"
     id="path1-2"
     cx="8.4450111"
     cy="8.423522"
     rx="6.5766377"
     ry="6.5612183"
     class="ColorScheme-Highlight" />
  <path
     id="path5"
     style="opacity:0.3;fill:#000000;fill-opacity:1;stroke-width:0.00187514;paint-order:fill markers stroke"
     d="m 4.695622,7.2804161 c 1.641878,0 1.919208,0.00195 1.928956,0.013711 0.009,0.01088 0.0024,0.031747 -0.03231,0.1007155 -0.02403,0.047852 -0.0548,0.095729 -0.06835,0.1063939 -0.01356,0.010661 -0.02464,0.022035 -0.02464,0.025264 0,0.00325 0.06029,0.00584 0.133974,0.00584 0.130382,0 0.134596,-6.417e-4 0.156744,-0.024218 l 0.02276,-0.024234 h -0.06405 -0.06405 l 0.03956,-0.084789 c 0.02176,-0.046635 0.04336,-0.086274 0.048,-0.088082 0.0046,-0.00178 0.01472,-0.00957 0.02238,-0.017232 0.01106,-0.011058 0.04137,-0.013395 0.146382,-0.011261 l 0.132427,0.00268 -0.144124,0.1211428 -0.144125,0.1211282 0.06134,0.00292 0.06135,0.00292 0.08196,-0.074398 c 0.04508,-0.040923 0.08338,-0.072767 0.08512,-0.070747 0.0061,0.00706 0.02517,0.046067 0.02517,0.051486 0,0.003 -0.01908,0.00552 -0.04242,0.00552 -0.02589,0 -0.04712,0.00568 -0.05448,0.014539 -0.0105,0.012648 -0.0045,0.014539 0.04646,0.014539 0.0631,0 0.07813,0.011805 0.05252,0.041191 -0.01392,0.015983 -0.0099,0.016948 0.07014,0.016948 0.06384,0 0.0838,-0.003 0.08044,-0.012105 -0.0024,-0.00665 -0.01863,-0.054886 -0.03594,-0.1071605 -0.03017,-0.09109 -0.03076,-0.095844 -0.01445,-0.1138743 0.0091,-0.010012 0.02694,-0.016307 0.04601,-0.018806 z m 2.589675,0 c 0.01637,0.00235 0.0293,0.00821 0.03227,0.017557 0.0031,0.00965 -0.0075,0.060889 -0.02346,0.1138604 -0.01597,0.052971 -0.02909,0.1017613 -0.02916,0.1084238 -7.6e-5,0.00841 0.01843,0.012105 0.06057,0.012105 h 0.06067 l 0.02616,-0.093945 c 0.0192,-0.068938 0.02337,-0.097309 0.01568,-0.1065919 -0.0085,-0.010206 0.003,-0.012648 0.05955,-0.012648 0.0599,0 0.06921,0.00219 0.06418,0.015334 -0.0032,0.00843 -0.0058,0.021281 -0.0058,0.028558 0,0.009 -0.01527,0.014174 -0.04768,0.01617 l -0.04768,0.00292 0.0452,0.075112 0.04521,0.075096 h 0.10824 0.108252 l 0.07265,-0.08706 0.07264,-0.087074 0.01993,0.031341 0.01993,0.031357 -0.0374,0.00292 c -0.02177,0.0017 -0.04454,0.010815 -0.05448,0.021808 -0.01676,0.018522 -0.01591,0.018879 0.04669,0.018879 0.05282,0 0.06445,0.00292 0.06764,0.016948 0.0021,0.00933 -0.0026,0.024599 -0.01049,0.033929 -0.01349,0.015967 -0.0089,0.016948 0.07924,0.016948 0.05146,0 0.09356,-0.00252 0.09356,-0.0056 0,-0.00308 -0.03053,-0.057847 -0.06784,-0.1217245 -0.03731,-0.063875 -0.06783,-0.1180558 -0.06783,-0.1203907 0,-0.00235 0.08427,-0.00422 0.187278,-0.00422 H 7.750334 c 0.03506,0.00122 0.06902,0.00544 0.07451,0.012105 0.0073,0.00893 -0.01349,0.037264 -0.07934,0.1079832 l -0.08926,0.09586 -0.03092,-0.037507 c -0.03549,-0.043057 -0.03817,-0.052549 -0.01297,-0.045961 0.0099,0.0026 0.02461,-0.00195 0.03275,-0.010125 0.01602,-0.016023 0.03181,-0.096793 0.02202,-0.1126394 -0.0034,-0.00552 0.01553,-0.00869 0.04141,-0.00972 z m 0.893622,0 c 0.18323,0 0.187729,4.851e-4 0.208345,0.022425 0.01816,0.019342 0.02106,0.033605 0.02106,0.1035542 0,0.069952 -0.0029,0.0842 -0.02106,0.1035405 l -0.02107,0.022425 h 0.198407 c 0.141397,0 0.201746,-0.00333 0.210034,-0.011626 0.0064,-0.00641 0.01163,-0.032558 0.01163,-0.058147 v -0.046521 h -0.07268 -0.07268 v 0.02907 0.02907 h -0.05815 -0.05815 v -0.062188 c 0,-0.034205 -0.0027,-0.069092 -0.0058,-0.077521 -0.005,-0.013022 0.0037,-0.015334 0.05815,-0.015334 0.06214,0 0.06402,7.286e-4 0.06402,0.024672 0,0.024283 0.0011,0.024623 0.06541,0.021808 l 0.06541,-0.00284 -0.0032,-0.028956 c -0.0017,-0.015926 -0.0077,-0.034473 -0.0133,-0.041191 -0.0075,-0.00911 -0.0055,-0.012154 0.008,-0.011926 0.01,1.68e-4 0.02686,0.01217 0.03751,0.02666 0.0164,0.022303 0.01938,0.041588 0.01938,0.1256424 l 1.3e-5,0.09931 0.09449,2.84e-5 c 0.05196,1.22e-5 0.09448,-0.00365 0.09448,-0.00818 0,-0.00454 -0.0084,-0.015764 -0.01864,-0.025037 -0.01365,-0.012348 -0.02044,-0.036152 -0.02538,-0.08889 -0.0048,-0.051137 -0.01133,-0.074698 -0.02256,-0.081254 -0.01109,-0.00649 0.0048,-0.00932 0.05333,-0.00952 0.06361,-2.71e-4 0.06959,0.00146 0.07497,0.021516 0.0096,0.035941 0.0078,0.037864 -0.03507,0.036168 -0.02265,-8.924e-4 -0.04544,-0.00122 -0.05065,-7.383e-4 -0.0052,4.941e-4 0.02522,0.035787 0.06761,0.07843 l 0.07707,0.077521 h 0.07048 c 0.03876,0 0.07023,-0.00325 0.06991,-0.0073 -3.22e-4,-0.00398 -0.02942,-0.031244 -0.06469,-0.060557 -0.06327,-0.052582 -0.06375,-0.053344 -0.0358,-0.056598 0.01558,-0.00178 0.03133,-0.00815 0.03499,-0.014084 0.0089,-0.014368 -8.11e-4,-0.064524 -0.0177,-0.091644 -0.01324,-0.021248 -0.01258,-0.021808 0.02549,-0.021808 z m 1.033601,0 c 0.03474,0 0.0379,0.00187 0.02859,0.016965 -0.0132,0.021378 0.02234,0.193024 0.04457,0.2153004 0.01194,0.011967 0.04806,0.015448 0.185717,0.017914 0.202386,0.00365 0.216095,0.00146 0.216095,-0.034708 0,-0.048468 -0.04833,-0.1752066 -0.07474,-0.1959796 -0.02347,-0.018466 -0.02371,-0.019488 -0.0043,-0.019488 z m 0.395907,0 c 0.01125,0 0.03445,0.00851 0.05154,0.018912 0.02538,0.015431 0.03683,0.034749 0.06228,0.1051444 0.02038,0.05637 0.0282,0.090942 0.02259,0.099808 -0.0047,0.00746 -0.0086,0.016827 -0.0087,0.020827 -8.1e-5,0.00398 0.04455,0.00714 0.09918,0.00698 l 0.09932,-3.107e-4 -0.02475,-0.021833 c -0.01362,-0.012008 -0.03212,-0.040217 -0.04111,-0.062691 l -0.01634,-0.040842 h 0.06362 c 0.05536,0 0.06319,-0.00219 0.06037,-0.016965 -0.0027,-0.013963 -0.01563,-0.01746 -0.07339,-0.019804 -0.05248,-0.00211 -0.07015,-0.00625 -0.07015,-0.016478 0,-0.00746 -0.0076,-0.018076 -0.01695,-0.023504 -0.01261,-0.00738 0.0019,-0.00995 0.05665,-0.010174 0.06663,-2.67e-4 0.07462,-0.00235 0.08414,-0.022084 l 0.0082,-0.016965 z m 0.358928,0 5.15e-4,0.016965 c 6.01e-4,0.01991 0.0054,0.0218 0.05441,0.0218 h 0.05373 l 0.03885,0.084462 c 0.02536,0.055162 0.03692,0.092158 0.03329,0.1066064 -0.0055,0.021914 -0.0046,0.022125 0.08912,0.022019 l 0.09467,-1.136e-4 -0.03154,-0.024859 c -0.01911,-0.015066 -0.04444,-0.052768 -0.06426,-0.095676 -0.018,-0.038951 -0.04087,-0.07555 -0.05083,-0.08134 -0.01442,-0.00838 -0.0055,-0.01058 0.04359,-0.010815 0.05686,-2.718e-4 0.06129,-0.00178 0.05663,-0.019675 -0.005,-0.019334 -3.07e-4,-0.019374 1.932145,-0.019374 z m -0.455654,0.02907 0.02816,0.089643 c 0.01549,0.049304 0.02643,0.092899 0.02433,0.096897 -0.0021,0.00398 -0.04045,0.0073 -0.08523,0.0073 h -0.08141 l -0.0099,-0.036339 C 9.354711,7.3465128 9.347101,7.3244011 9.336201,7.317483 c -0.0067,-0.00422 0.03013,-0.00771 0.08172,-0.00779 z M 7.775318,7.5856694 c -0.442558,0 -0.441552,-1.646e-4 -0.485733,0.076353 -0.03677,0.06368 -0.16441,0.4733346 -0.156858,0.5034215 0.01497,0.059656 0.04577,0.063161 0.539122,0.061352 0.394437,-0.00146 0.423945,-0.00276 0.459019,-0.020161 0.07091,-0.035195 0.07373,-0.045507 0.09678,-0.3544846 C 8.242298,7.6558105 8.240228,7.6416294 8.192008,7.6059192 8.165328,7.5861632 8.155058,7.5856602 7.77532,7.5856602 Z m -0.881172,0.00487 c -0.418127,0 -0.43329,6.506e-4 -0.442978,0.01875 -0.02014,0.037621 -0.01426,0.039389 0.130483,0.039389 0.07729,0 0.140505,0.00243 0.140505,0.00535 0,0.00292 -0.05302,0.1164981 -0.117835,0.2523777 -0.09968,0.2089599 -0.123588,0.2516012 -0.155056,0.2765241 -0.02046,0.01621 -0.03721,0.032363 -0.03722,0.035917 -5e-6,0.00357 0.08942,0.00519 0.19872,0.00365 l 0.19872,-0.00276 -0.0146,-0.02821 c -0.008,-0.015512 -0.01459,-0.03457 -0.01459,-0.042335 0,-0.00779 0.03915,-0.1086826 0.087,-0.2242712 0.08378,-0.2023842 0.08647,-0.2111829 0.07268,-0.237842 -0.0079,-0.015229 -0.01432,-0.030076 -0.01432,-0.033005 0,-0.00292 0.07523,-0.00552 0.167164,-0.00576 l 0.167164,-3.968e-4 0.03356,-0.028672 0.03354,-0.028688 z m 1.364792,0 0.04011,0.041199 0.0401,0.041183 -0.0088,0.2366779 -0.0087,0.2366924 -0.02934,0.030262 c -0.01614,0.016648 -0.02935,0.033337 -0.02935,0.037077 0,0.00373 0.09464,0.00682 0.210317,0.00682 h 0.210318 l -0.03554,-0.036412 -0.03554,-0.036396 -0.0103,-0.1539055 c -0.0057,-0.084651 -0.0089,-0.1552912 -0.0072,-0.1569715 0.0017,-0.0017 0.08033,0.068938 0.174772,0.1569431 0.170228,0.1586128 0.172076,0.159979 0.212106,0.1570283 0.04,-0.00292 0.0416,-0.00454 0.167093,-0.1692078 0.06969,-0.091429 0.128135,-0.1648599 0.129886,-0.1631748 0.0018,0.0017 0.01963,0.074325 0.03972,0.1614004 0.03643,0.1579061 0.03646,0.1584319 0.01933,0.1986205 -0.0094,0.022165 -0.01426,0.043203 -0.0107,0.046756 0.0074,0.00738 0.389199,0.00276 0.38932,-0.00471 4.4e-5,-0.00268 -0.02139,-0.024478 -0.04761,-0.04846 L 9.62125,8.1283534 9.55414,7.8934216 9.48703,7.6584759 9.51013,7.6245059 9.53321,7.5905199 H 9.397843 9.262491 L 9.114349,7.7504161 C 9.016329,7.8562226 8.959559,7.9103027 8.946532,7.9102832 8.935152,7.910267 8.847722,7.8428382 8.739239,7.7503877 L 8.551648,7.5905199 H 8.405323 Z m 1.292892,0.00227 c 3e-6,0.00389 0.01749,0.018717 0.03887,0.032858 0.03878,0.02567 0.03904,0.026246 0.120873,0.2773046 l 0.08201,0.2515834 -0.02511,0.032931 -0.02513,0.032932 h 0.498283 c 0.37463,0 0.501166,-0.00292 0.509909,-0.011642 0.0064,-0.00641 0.01163,-0.017419 0.01163,-0.024502 0,-0.022473 -0.110529,-0.2078736 -0.132712,-0.2226104 -0.01171,-0.00779 -0.06588,-0.025767 -0.120405,-0.040006 -0.05452,-0.014231 -0.1008,-0.030976 -0.10283,-0.037207 -0.0024,-0.0073 0.02222,-0.015504 0.06981,-0.023179 0.04043,-0.00649 0.07588,-0.015723 0.07879,-0.020445 0.0065,-0.010515 -0.0775,-0.1689222 -0.106224,-0.2003243 -0.01141,-0.012478 -0.02948,-0.027755 -0.04014,-0.033929 -0.02192,-0.012697 -0.857633,-0.026124 -0.857623,-0.013784 z m 0.650528,0.036485 0.03253,0.070398 c 0.01789,0.038716 0.03395,0.07615 0.0357,0.08317 0.0019,0.00746 -0.01495,0.020283 -0.04041,0.030822 -0.03399,0.014068 -0.0695,0.018157 -0.161032,0.018579 L 9.951723,7.8328021 9.921343,7.7523271 C 9.893463,7.6784731 9.887593,7.6701711 9.849803,7.6511866 l -0.04117,-0.02068 0.19686,-6.102e-4 z m -2.467936,0.017289 c 0.153948,-0.00178 0.237848,6.702e-4 0.237842,0.00698 -1.5e-5,0.012267 -0.05587,0.425259 -0.06324,0.4675644 l -0.0055,0.031503 H 7.663114 7.422702 l 0.05722,-0.2231077 0.05724,-0.2231215 -0.02032,-0.028502 -0.0203,-0.028518 z m 2.249953,0.236991 c 0.0055,1.664e-4 0.01805,0.00471 0.03123,0.011496 0.02097,0.010847 0.05706,0.015245 0.12499,0.015245 0.07153,0 0.110689,0.00511 0.155978,0.020429 l 0.06046,0.020413 0.05295,0.1055557 0.05294,0.1055704 h -0.189351 c -0.171575,0 -0.189924,-0.00162 -0.195398,-0.016965 -0.0033,-0.00933 -0.02735,-0.070917 -0.0534,-0.1368711 -0.02605,-0.065952 -0.04541,-0.1218673 -0.04302,-0.1242656 4.51e-4,-4.486e-4 0.0014,-6.482e-4 0.0026,-6.093e-4 z M 6.677058,8.3057278 6.40722,8.3086478 5.792351,8.7875118 C 5.454173,9.0508857 5.17608,9.2649741 5.174373,9.2632669 5.171773,9.2606769 5.113513,8.93399 5.113513,8.9220547 c 0,-0.00215 0.07982,-0.0039 0.17737,-0.0039 0.171216,0 0.179118,-8.762e-4 0.227522,-0.024997 0.02758,-0.013744 0.06265,-0.04099 0.07794,-0.060557 0.03772,-0.04829 0.244004,-0.4400062 0.243819,-0.4629795 -1.93e-4,-0.023836 -0.0095,-0.037102 -0.03554,-0.050837 -0.02586,-0.013614 -1.413681,-0.016137 -1.422056,-0.0026 -0.0029,0.00471 0.0011,0.029783 0.009,0.055713 0.0079,0.025938 0.01437,0.052038 0.01442,0.058001 5.8e-5,0.00592 -0.13182,0.1236254 -0.293047,0.2614778 C 3.951712,8.8292284 3.593202,9.1361446 3.316244,9.3734169 3.039286,9.6106892 2.804898,9.8105234 2.795377,9.817488 2.778777,9.829629 2.778057,9.777609 2.778057,8.5552712 v 2.1215148 l 0.0024,-0.399541 0.0025,-0.4336659 0.106607,-0.035417 C 2.948194,9.7886761 3.120439,9.7328041 3.272339,9.6840102 3.763845,9.5261275 3.707791,9.5495311 3.799723,9.4638552 3.844423,9.4222042 4.084131,9.1984291 4.332429,8.9665803 l 0.451453,-0.4215436 9.9e-5,-0.065408 10e-5,-0.065409 h 0.27607 0.276084 L 5.22862,8.5910782 c -0.05919,0.097271 -0.112002,0.182306 -0.117366,0.1889683 -0.0073,0.0091 -0.06963,0.012109 -0.250831,0.012109 -0.188698,0 -0.241078,0.00269 -0.241078,0.012336 0,0.01454 0.03376,0.4280228 0.04805,0.5884798 0.0054,0.061294 0.01,0.1168935 0.01001,0.1235558 6.5e-5,0.00947 0.0785,0.012122 0.35968,0.012122 h 0.359609 l 0.06402,-0.050876 c 0.03521,-0.027982 0.275153,-0.2309215 0.533203,-0.45097 0.25805,-0.2200488 0.470961,-0.3983022 0.473143,-0.3961196 0.004,0.00401 0.06134,0.4229882 0.06134,0.4482588 0,0.011336 -0.0403,0.013628 -0.240156,0.013628 H 6.048088 l -0.06715,0.055716 -0.06714,0.055716 0.323979,0.00485 0.323979,0.00484 0.01841,0.094115 c 0.01012,0.051766 0.0159,0.1006653 0.01283,0.1086649 -0.0031,0.008 -0.03403,0.033239 -0.06881,0.056086 -0.03477,0.022847 -0.06332,0.044821 -0.06343,0.048818 -1.11e-4,0.004 0.164853,0.00727 0.366594,0.00727 H 7.194157 L 7.021201,8.9883887 C 6.926081,8.6912492 6.84435,8.4368699 6.839587,8.4231042 c -0.008,-0.023204 -0.0041,-0.02808 0.05296,-0.06682 0.0339,-0.022985 0.06001,-0.044428 0.05802,-0.047657 -0.002,-0.00325 -0.125055,-0.00454 -0.273472,-0.00292 z m 1.043239,0.00195 c -0.170555,0 -0.310095,0.00203 -0.310095,0.00454 0,0.00252 0.01358,0.023845 0.03019,0.047414 l 0.03019,0.042838 -0.06971,0.3377912 c -0.03834,0.1857885 -0.08896,0.4315575 -0.112469,0.5461495 -0.02351,0.1145919 -0.04506,0.218156 -0.04788,0.2301481 l -0.0051,0.021804 h 0.291203 c 0.224097,0 0.292254,-0.00278 0.29573,-0.012109 0.0025,-0.00666 0.03291,-0.2650393 0.06762,-0.5741709 l 0.0631,-0.5620629 0.03867,-0.03229 c 0.02127,-0.017768 0.03867,-0.03629 0.03867,-0.041183 0,-0.00519 -0.128519,-0.00888 -0.310096,-0.00888 z m 2.552299,0 c -0.390061,0 -0.594783,0.00333 -0.594783,0.00968 0,0.00535 0.0032,0.00988 0.0073,0.010109 0.004,2.272e-4 0.02574,0.016656 0.04834,0.036509 l 0.04107,0.036087 0.130639,0.5037483 0.130625,0.5037482 -0.03512,0.058144 c -0.01932,0.031979 -0.03687,0.061414 -0.03902,0.065412 -0.0022,0.004 0.522139,0.00727 1.165092,0.00727 0.955765,0 1.168436,-0.0023 1.165874,-0.01262 -0.0017,-0.00694 -0.14676,-0.2461258 -0.322304,-0.5314999 l -0.319168,-0.518852 -0.07815,-0.040063 -0.07815,-0.040055 0.321012,-1.988e-4 0.321027,-1.988e-4 0.145515,0.1962352 0.145502,0.1962357 -0.258183,0.00484 -0.258185,0.00484 0.184127,0.1271471 c 0.583332,0.4028214 0.883564,0.6078243 0.900946,0.6151953 0.01082,0.00458 0.174474,0.048028 0.363683,0.096528 0.189211,0.048501 0.44402,0.113989 0.566251,0.14553 0.122231,0.031541 0.223619,0.057349 0.225307,0.057349 0.0017,0 0.0031,0.1926459 0.0031,0.4294779 V 8.5679075 c -3.8e-5,0.6954526 -0.0033,1.2604036 -0.0073,1.2580576 -0.004,-0.00236 -0.31907,-0.1936693 -0.700155,-0.4251205 C 13.066403,9.1693932 12.721973,8.9606679 12.682092,8.9369993 l -0.07251,-0.04304 0.157681,-0.00484 c 0.165178,-0.00508 0.175796,-0.00817 0.176164,-0.051359 2.61e-4,-0.03084 -0.02932,-0.076498 -0.142521,-0.2199844 -0.137152,-0.1738412 -0.183526,-0.2224214 -0.243365,-0.2549893 -0.0996,-0.054212 -0.109074,-0.054813 -0.876175,-0.054967 -0.387747,-7.87e-5 -0.704828,0.00316 -0.704625,0.00714 2.03e-4,0.00398 0.03585,0.029297 0.07921,0.056224 l 0.07883,0.048971 0.163572,0.3144255 c 0.08996,0.172938 0.193376,0.3722536 0.229793,0.4429214 l 0.0662,0.1284815 -0.505067,-0.0025 -0.505083,-0.00252 -0.06995,-0.1938083 c -0.03847,-0.106597 -0.07016,-0.1992091 -0.07041,-0.2058032 -3.44e-4,-0.00926 0.07656,-0.01257 0.337592,-0.014536 l 0.338047,-0.00256 -0.02923,-0.065412 -0.02924,-0.065412 h -0.336829 -0.336797 l -0.05809,-0.1671634 -0.05809,-0.1671641 0.318655,-0.00252 c 0.175261,-0.00138 0.318656,-0.00495 0.318656,-0.00787 0,-0.00292 -0.0092,-0.026855 -0.02057,-0.053166 L 10.86737,8.307721 Z m -1.590497,0.00252 c -0.346993,-0.00227 -0.612938,-2.872e-4 -0.612938,0.00454 0,0.00471 0.01265,0.025711 0.02812,0.046748 l 0.02814,0.038246 -0.04028,0.4964659 -0.04029,0.4964802 -0.06052,0.065426 c -0.03329,0.035981 -0.06052,0.066573 -0.06052,0.067995 0,0.00806 1.385946,0.00112 1.450474,-0.00727 C 9.672196,9.4800979 9.84256,9.3849134 9.84256,9.2571955 9.84256,9.2153365 9.690739,8.5436264 9.67108,8.4985138 9.64022,8.4276938 9.537491,8.3688627 9.384492,8.3343736 9.300192,8.3153726 9.259712,8.3139686 8.682109,8.3102286 Z m -0.142946,0.082745 0.23743,0.00462 c 0.277022,0.00544 0.316395,0.01333 0.371761,0.074609 0.01911,0.021151 0.03684,0.048371 0.03939,0.0605 0.0025,0.012129 0.02289,0.1629383 0.04521,0.3351367 0.03403,0.2625922 0.0388,0.3190478 0.02952,0.3499847 -0.01477,0.049275 -0.04161,0.081678 -0.0859,0.1036825 -0.03273,0.01626 -0.06869,0.018707 -0.339438,0.023039 -0.166564,0.00266 -0.302848,0.0025 -0.302843,-3.693e-4 6e-6,-0.00286 0.02182,-0.026686 0.04846,-0.052934 l 0.04846,-0.047725 V 9.0096758 c 0,-0.1285982 -0.0028,-0.3060498 -0.0063,-0.3943309 l -0.0063,-0.1605058 -0.03971,-0.03096 z M 8.35504,9.8290656 c -3.982513,0 -4.491616,0.00166 -4.491616,0.014522 0,0.012821 0.205956,0.014848 1.770961,0.01746 0.974032,0.00163 2.348776,0.0018 3.054982,3.864e-4 0.706206,-0.00142 1.930489,-0.00274 2.72064,-0.00294 1.270396,-3.006e-4 1.436649,-0.00204 1.436649,-0.014891 0,-0.012901 -0.505529,-0.014536 -4.491616,-0.014536 z m 2.552284,0.3196914 c -0.0014,5e-5 -0.0026,6.87e-4 -0.0037,0.0018 -0.003,0.003 -0.04227,0.105202 -0.08733,0.227168 -0.101802,0.275541 -0.1075,0.287051 -0.147589,0.298853 -0.04753,0.01399 -0.0351,0.02167 0.03012,0.02373 0.0052,1.8e-4 0.04403,1.84e-4 0.04999,3.65e-4 0.04825,-7.08e-4 0.08222,-0.0039 0.08222,-0.0091 -10e-7,-0.0053 -0.0089,-0.0097 -0.01969,-0.0097 -0.03096,0 -0.03313,-0.02512 -0.0085,-0.09756 l 0.02287,-0.06717 0.08259,1.85e-4 0.0826,1.84e-4 0.03206,0.07275 c 0.01959,0.04447 0.0297,0.08021 0.026,0.09189 -0.0058,0.01816 -0.0012,0.01911 0.09149,0.01911 0.0942,0 0.127692,-0.01093 0.06929,-0.02261 -0.04171,-0.0084 -0.06453,-0.04586 -0.174901,-0.287486 -0.08631,-0.188963 -0.114129,-0.242844 -0.127501,-0.24237 z m -0.158547,0.551913 c -0.0056,8.3e-5 -0.0086,5.59e-4 -0.01469,5.59e-4 -0.01461,0 -0.02403,-5.59e-4 -0.03529,-8.93e-4 -0.05103,-0.0018 -0.502562,-6.01e-4 -0.49462,-0.0034 0.13736,-0.04899 0.139018,-0.200453 0.0033,-0.304418 -0.08948,-0.06856 -0.111764,-0.09105 -0.118432,-0.119553 -0.0086,-0.03682 0.03084,-0.07559 0.07692,-0.07559 0.03912,0 0.09325,0.03987 0.09325,0.06869 0,0.01018 0.0066,0.01852 0.01454,0.01852 0.01116,0 0.01454,-0.01241 0.01454,-0.05354 0,-0.04855 -0.0024,-0.05441 -0.02486,-0.06298 -0.03623,-0.01377 -0.13557,-0.01156 -0.171692,0.0038 -0.04544,0.01937 -0.07566,0.05688 -0.08162,0.101383 -0.0082,0.06099 0.02381,0.115676 0.106707,0.182438 0.08975,0.07229 0.102907,0.08853 0.103298,0.127503 4.51e-4,0.04479 -0.01358,0.06629 -0.05137,0.07877 -0.06719,0.02218 -0.120578,-0.01447 -0.147007,-0.100943 -0.0097,-0.03186 -0.02388,0.0024 -0.02388,0.05787 0,0.05973 0.0076,0.07251 0.04931,0.08235 0.01801,0.0042 -0.500392,0.0082 -1.152005,0.0087 l -1.184739,9.73e-4 h 6.444418 L 12.161,10.710502 c -1.222445,-2.57e-4 -1.24403,-0.005 -1.412261,-0.0098 z m -3.038302,0.01025 0.06154,-0.123555 c 0.03385,-0.06796 0.09124,-0.183753 0.127517,-0.257333 0.05814,-0.117912 0.06925,-0.134446 0.09357,-0.139312 0.05662,-0.01132 0.02463,-0.02247 -0.06446,-0.02247 -0.05491,0 -0.09206,0.0039 -0.09206,0.0097 0,0.0053 0.0109,0.0097 0.02423,0.0097 0.01397,0 0.02422,0.0056 0.02422,0.01319 0,0.0072 -0.02551,0.06939 -0.0567,0.138091 -0.03119,0.0687 -0.06654,0.146704 -0.07856,0.173354 l -0.02185,0.04846 -0.01742,-0.04846 C 7.637132,10.308063 7.60398,10.205182 7.608977,10.197096 c 0.0032,-0.0052 0.01431,-0.0095 0.02466,-0.0095 0.01035,0 0.01881,-0.0044 0.01881,-0.0097 0,-0.0059 -0.04522,-0.0097 -0.116288,-0.0097 -0.07106,0 -0.116288,0.0038 -0.116288,0.0097 0,0.0053 0.01023,0.0097 0.02272,0.0097 0.0125,0 0.02965,0.0076 0.03812,0.017 0.0085,0.0094 0.05454,0.117941 0.102404,0.241319 0.04786,0.123379 0.09192,0.233481 0.0979,0.244657 l 0.01087,0.02032 z M 4.212259,10.149836 c -0.0031,0 -0.0062,0.0015 -0.0091,0.0044 -0.005,0.0051 -0.06862,0.118223 -0.141356,0.25147 -0.07274,0.133246 -0.141075,0.249893 -0.151861,0.25922 -0.01078,0.0093 -0.03003,0.01697 -0.04277,0.01697 -0.01274,0 -0.02316,0.0044 -0.02316,0.0097 0,0.0058 0.03877,0.0097 0.09691,0.0097 0.05815,0 0.09691,-0.0039 0.09691,-0.0097 0,-0.0053 -0.0085,-0.0097 -0.01881,-0.0097 -0.03216,0 -0.03099,-0.01542 0.0067,-0.08883 l 0.03651,-0.07106 0.08407,-0.0028 0.08408,-0.0028 0.02333,0.07546 c 0.01304,0.04216 0.01973,0.07954 0.01516,0.08469 -0.01837,0.02066 -0.0038,0.0247 0.08872,0.0247 0.05355,0 0.0969,-0.0041 0.0969,-0.0091 0,-0.0049 -0.01178,-0.01043 -0.02617,-0.01211 -0.03826,-0.0045 -0.05133,-0.03386 -0.128879,-0.289005 -0.03807,-0.125251 -0.07327,-0.23187 -0.07822,-0.236933 -0.0028,-0.0029 -0.0059,-0.0044 -0.009,-0.0044 z m 1.710163,0.0087 c -0.01673,0 -0.01904,0.01445 -0.04348,0.271343 -0.0109,0.114592 -0.02396,0.218156 -0.02901,0.230149 -0.0061,0.01442 -0.01748,0.0218 -0.03363,0.0218 -0.01344,0 -0.02445,0.0044 -0.02445,0.0097 0,0.0058 0.04038,0.0097 0.101752,0.0097 0.06138,0 0.101751,-0.0038 0.101751,-0.0097 0,-0.0053 -0.01037,-0.0097 -0.02304,-0.0097 -0.04436,0 -0.04711,-0.01469 -0.03559,-0.19026 0.0058,-0.08927 0.01194,-0.163598 0.01352,-0.165177 7e-6,-5e-6 3.6e-5,-2.2e-5 4.2e-5,-2.8e-5 1.6e-5,-9e-6 5.5e-5,-2.2e-5 7.2e-5,-2.8e-5 0.0024,-5.8e-4 0.0247,0.0228 0.05039,0.05278 0.0262,0.03058 0.108333,0.117744 0.182508,0.193695 l 0.134856,0.138092 h 0.01606 l 0.0046,-0.02181 c 0.0025,-0.01199 0.01414,-0.124287 0.02575,-0.249539 0.01161,-0.125251 0.02541,-0.233181 0.03066,-0.239843 0.0053,-0.0067 0.01748,-0.01211 0.02717,-0.01211 0.0097,0 0.02032,-0.0044 0.02361,-0.0097 0.0038,-0.0062 -0.03058,-0.0097 -0.09633,-0.0097 -0.06176,0 -0.102319,0.0038 -0.102319,0.0097 0,0.0053 0.013,0.0097 0.02889,0.0097 0.02189,0 0.0302,0.0053 0.03429,0.0218 0.0055,0.02233 -0.0096,0.325174 -0.01663,0.332184 -0.0038,0.0038 -0.303096,-0.31319 -0.339721,-0.359751 -0.01008,-0.01282 -0.02436,-0.02331 -0.03172,-0.02331 z m -1.012763,0.0011 c -0.01278,-2.36e-4 -0.01626,0.0258 -0.0476,0.273316 -0.01607,0.126935 -0.03175,0.234865 -0.03482,0.239844 -0.0031,0.0049 -0.01842,0.0091 -0.0341,0.0091 -0.01567,0 -0.02849,0.0044 -0.02849,0.0097 0,0.0058 0.04038,0.0097 0.101751,0.0097 0.06138,0 0.101753,-0.0038 0.101753,-0.0097 0,-0.0053 -0.01103,-0.0097 -0.02453,-0.0097 -0.01349,0 -0.02713,-0.0067 -0.03029,-0.01499 -0.0032,-0.0083 2.51e-4,-0.08915 0.0075,-0.179783 l 0.01331,-0.164779 0.117282,0.128907 c 0.0645,0.07089 0.144468,0.158329 0.17771,0.194305 l 0.06044,0.06541 h 0.01972 l 0.0083,-0.03681 c 0.0045,-0.02024 0.01969,-0.132501 0.03365,-0.249468 0.01396,-0.116966 0.02993,-0.218142 0.03549,-0.224839 0.0056,-0.0067 0.01804,-0.01218 0.02774,-0.01218 0.0097,0 0.02032,-0.0044 0.02361,-0.0097 0.0038,-0.0062 -0.03058,-0.0097 -0.09633,-0.0097 -0.06176,0 -0.102334,0.0038 -0.102334,0.0097 0,0.0053 0.01037,0.0097 0.02304,0.0097 0.04313,0 0.04547,0.01378 0.03166,0.187435 -0.0071,0.08887 -0.01507,0.16379 -0.01778,0.166496 -0.0027,0.0027 -0.08244,-0.08126 -0.177199,-0.186611 -0.09475,-0.105392 -0.178107,-0.192975 -0.185235,-0.194662 -0.0015,-3.65e-4 -0.003,-6.65e-4 -0.0043,-6.87e-4 z m 3.78621,0.0038 c -8.93e-4,-2.2e-5 -0.08233,0.0022 -0.180933,0.0049 -0.157676,0.0044 -0.196638,0.01068 -0.130824,0.02126 0.0186,0.003 0.01948,0.01164 0.02199,0.214093 0.003,0.24174 -0.0013,0.271882 -0.03967,0.276383 -0.01444,0.0017 -0.02374,0.0071 -0.02066,0.01211 0.0068,0.01105 0.340501,0.01221 0.347301,0.0012 0.0027,-0.0043 0.0079,-0.03046 0.01151,-0.05815 0.0076,-0.05738 -0.0045,-0.0665 -0.02557,-0.01931 -0.0092,0.02052 -0.02371,0.03374 -0.04294,0.03909 -0.03352,0.0093 -0.09979,0.0017 -0.118232,-0.01357 -0.01364,-0.01132 -0.01608,-0.06973 -0.0063,-0.151024 l 0.0061,-0.05088 h 0.05485 c 0.057,0 0.07811,0.01101 0.07811,0.04071 0,0.02886 0.01651,0.01963 0.02301,-0.01284 0.01349,-0.06747 0.0025,-0.11947 -0.01817,-0.08601 -0.0033,0.0053 -0.03625,0.0097 -0.07325,0.0097 h -0.06726 v -0.09191 -0.09191 l 0.06056,0.0055 c 0.0795,0.0072 0.08275,0.0085 0.08646,0.03478 0.0055,0.03911 0.02232,0.02008 0.02905,-0.03296 0.0036,-0.02814 0.0058,-0.05118 0.0049,-0.0512 z m 2.979987,0.0044 c -0.07596,-8.35e-4 -0.147133,0.0023 -0.147133,0.01008 0,0.0053 0.01319,0.0097 0.02931,0.0097 0.02153,0 0.03146,0.0058 0.03742,0.0218 0.008,0.02167 0.03036,0.328898 0.03024,0.416518 -7.3e-5,0.04079 -0.0028,0.04651 -0.02429,0.05192 -0.05426,0.01362 -0.0179,0.02335 0.08722,0.02335 0.06783,0 0.111447,-0.0038 0.111447,-0.0097 0,-0.0053 -0.0084,-0.0097 -0.0186,-0.0097 -0.04881,0 -0.05238,-0.0078 -0.06355,-0.138091 l -0.0056,-0.06541 h 0.0337 c 0.02848,0 0.03941,0.0071 0.07052,0.04556 0.123048,0.152254 0.159799,0.177161 0.261563,0.177271 0.0593,6.5e-5 0.0765,-0.01557 0.0273,-0.0248 -0.03911,-0.0073 -0.09903,-0.05774 -0.188103,-0.158207 l -0.05918,-0.06676 0.03018,-0.03231 c 0.03724,-0.03987 0.04744,-0.06564 0.04744,-0.119922 0,-0.04967 -0.03352,-0.09661 -0.08404,-0.117722 -0.01915,-0.008 -0.09988,-0.01278 -0.175837,-0.01361 z m -4.706588,4.08e-4 c -0.06783,0 -0.111434,0.0038 -0.111434,0.0097 0,0.0053 0.01103,0.0097 0.02453,0.0097 0.01382,0 0.0272,0.007 0.03064,0.01594 0.0088,0.02302 -0.01545,0.438994 -0.02687,0.460339 -0.0054,0.01002 -0.02017,0.01795 -0.0335,0.01795 -0.01314,0 -0.02388,0.0044 -0.02388,0.0097 0,0.0059 0.04683,0.0097 0.121128,0.0097 0.07429,0 0.121128,-0.0037 0.121128,-0.0097 0,-0.0053 -0.01254,-0.0097 -0.02788,-0.0097 -0.01533,0 -0.03208,-0.0054 -0.03721,-0.01211 -0.0095,-0.01239 0.0011,-0.318946 0.0146,-0.42397 0.0063,-0.04893 0.0091,-0.05355 0.03353,-0.05637 0.01465,-0.0017 0.02664,-0.0071 0.02664,-0.01211 0,-0.0051 -0.0489,-0.009 -0.111447,-0.009 z m 5.421918,0 c -0.05815,0 -0.0969,0.0039 -0.0969,0.0097 0,0.0053 0.0077,0.0097 0.01722,0.0097 0.0313,0 0.05914,0.02871 0.146935,0.151506 0.09077,0.126963 0.08986,0.124638 0.101795,0.257446 0.0052,0.05757 -0.0076,0.08527 -0.03949,0.08527 -0.008,0 -0.01171,0.0044 -0.0084,0.0097 0.0075,0.01205 0.227721,0.01309 0.227721,10e-4 0,-0.0047 -0.01484,-0.0114 -0.03298,-0.01481 -0.01814,-0.0034 -0.03537,-0.01241 -0.03829,-0.02001 -0.0029,-0.0076 -0.0083,-0.05723 -0.01195,-0.110269 l -0.0067,-0.09643 0.05542,-0.105087 c 0.05918,-0.112219 0.09518,-0.158392 0.123471,-0.158392 0.0097,0 0.01757,-0.0044 0.01757,-0.0097 0,-0.0058 -0.03614,-0.0096 -0.08964,-0.0094 -0.07662,2.58e-4 -0.08718,0.0022 -0.07268,0.01319 0.0093,0.0071 0.01696,0.02142 0.01696,0.03188 0,0.01793 -0.08219,0.196889 -0.09042,0.196889 -0.0021,0 -0.03604,-0.04869 -0.0754,-0.10821 -0.04568,-0.06909 -0.06719,-0.109684 -0.05948,-0.112257 0.0067,-0.0022 0.0121,-0.008 0.0121,-0.01292 0,-0.0049 -0.04362,-0.0089 -0.09691,-0.0089 z m -3.12823,2.13e-4 c -0.09649,-1.38e-4 -0.14626,0.0032 -0.142364,0.0095 0.0033,0.0053 0.01649,0.0097 0.02931,0.0097 0.01314,0 0.0277,0.0082 0.03335,0.01874 0.01289,0.02409 0.0134,0.416911 5.79e-4,0.45063 -0.0058,0.01538 -0.01692,0.02486 -0.02907,0.02486 -0.01079,0 -0.01963,0.0044 -0.01963,0.0097 0,0.0059 0.04362,0.0097 0.111447,0.0097 0.06783,0 0.111447,-0.0038 0.111447,-0.0097 0,-0.0053 -0.01003,-0.0097 -0.02229,-0.0097 -0.03855,0 -0.04556,-0.01743 -0.04556,-0.113378 v -0.09013 l 0.0315,2.8e-5 c 0.02831,2.2e-5 0.03836,0.009 0.09932,0.08895 0.09107,0.119383 0.104273,0.128154 0.199316,0.13247 0.05179,0.0023 0.07686,-4e-6 0.07686,-0.0072 0,-0.0059 -0.007,-0.01072 -0.01551,-0.01072 -0.03658,0 -0.08287,-0.0352 -0.150257,-0.114229 -0.10741,-0.125997 -0.101362,-0.115536 -0.07833,-0.135283 0.09256,-0.07936 0.09193,-0.202989 -0.0012,-0.245295 -0.03409,-0.01548 -0.06416,-0.01843 -0.188897,-0.01861 z m 0.0284,0.03854 h 0.02896 c 0.03993,0 0.08013,0.02269 0.09396,0.05303 0.0063,0.01397 0.01157,0.04938 0.01157,0.07868 0,0.07033 -0.02723,0.100858 -0.09,0.100858 -0.02334,0 -0.04426,-0.0018 -0.04647,-0.004 -0.0022,-0.0022 -0.0027,-0.05453 -0.0011,-0.116288 z m 2.406059,0 h 0.03286 c 0.07472,0 0.124013,0.06243 0.115904,0.146822 -0.0061,0.06311 -0.02765,0.08575 -0.08178,0.08575 -0.03502,0 -0.04378,-0.0037 -0.05059,-0.0218 -0.0045,-0.01199 -0.01008,-0.06432 -0.01232,-0.116288 z M 4.177816,10.31388 c 0.0016,-2.3e-5 0.0027,0.0015 0.0033,0.0045 0.0021,0.01066 0.01194,0.04881 0.02176,0.08479 l 0.01784,0.06541 h -0.06236 c -0.0343,0 -0.06237,-0.0023 -0.06237,-0.005 0,-0.0028 0.01827,-0.04093 0.04061,-0.08479 0.02273,-0.04464 0.03541,-0.06485 0.04121,-0.06493 z m 6.721695,0.0063 c 0.0067,-4.09e-4 0.02827,0.04524 0.06442,0.136359 0.0036,0.009 -0.01185,0.01211 -0.05901,0.01211 h -0.06383 l 0.02548,-0.07025 c 0.01402,-0.03864 0.02838,-0.07359 0.03192,-0.07768 2.79e-4,-3.22e-4 6.22e-4,-5.15e-4 9.74e-4,-5.37e-4 z"
     class="ColorScheme-Text" />
  <path
     id="path5-7"
     style="fill:currentColor;stroke-width:0.00187514;paint-order:fill markers stroke"
     d="m 4.6956215,6.7512523 c 1.641878,0 1.919208,0.00195 1.928956,0.013711 0.009,0.01088 0.0024,0.031747 -0.03231,0.1007155 -0.02403,0.047852 -0.0548,0.095729 -0.06835,0.1063939 -0.01356,0.010661 -0.02464,0.022035 -0.02464,0.025264 0,0.00325 0.06029,0.00584 0.133974,0.00584 0.130382,0 0.134596,-6.417e-4 0.156744,-0.024218 l 0.02276,-0.024234 h -0.06405 -0.06405 l 0.03956,-0.084789 c 0.02176,-0.046635 0.04336,-0.086274 0.048,-0.088082 0.0046,-0.00178 0.01472,-0.00957 0.02238,-0.017232 0.01106,-0.011058 0.04137,-0.013395 0.146382,-0.011261 l 0.132427,0.00268 -0.144124,0.1211428 -0.144125,0.1211282 0.06134,0.00292 0.06135,0.00292 0.08196,-0.074398 c 0.04508,-0.040923 0.08338,-0.072767 0.08512,-0.070747 0.0061,0.00706 0.02517,0.046067 0.02517,0.051486 0,0.003 -0.01908,0.00552 -0.04242,0.00552 -0.02589,0 -0.04712,0.00568 -0.05448,0.014539 -0.0105,0.012648 -0.0045,0.014539 0.04646,0.014539 0.0631,0 0.07813,0.011805 0.05252,0.041191 -0.01392,0.015983 -0.0099,0.016948 0.07014,0.016948 0.06384,0 0.0838,-0.003 0.08044,-0.012105 -0.0024,-0.00665 -0.01863,-0.054886 -0.03594,-0.1071605 -0.03017,-0.09109 -0.03076,-0.095844 -0.01445,-0.1138743 0.0091,-0.010012 0.02694,-0.016307 0.04601,-0.018806 z m 2.589675,0 c 0.01637,0.00235 0.0293,0.00821 0.03227,0.017557 0.0031,0.00965 -0.0075,0.060889 -0.02346,0.1138604 -0.01597,0.052971 -0.02909,0.1017613 -0.02916,0.1084238 -7.6e-5,0.00841 0.01843,0.012105 0.06057,0.012105 h 0.06067 l 0.02616,-0.093945 c 0.0192,-0.068938 0.02337,-0.097309 0.01568,-0.1065919 -0.0085,-0.010206 0.003,-0.012648 0.05955,-0.012648 0.0599,0 0.06921,0.00219 0.06418,0.015334 -0.0032,0.00843 -0.0058,0.021281 -0.0058,0.028558 0,0.009 -0.01527,0.014174 -0.04768,0.01617 l -0.04768,0.00292 0.0452,0.075112 0.04521,0.075096 h 0.10824 0.108252 l 0.07265,-0.08706 0.07264,-0.087074 0.01993,0.031341 0.01993,0.031357 -0.0374,0.00292 c -0.02177,0.0017 -0.04454,0.010815 -0.05448,0.021808 -0.01676,0.018522 -0.01591,0.018879 0.04669,0.018879 0.05282,0 0.06445,0.00292 0.06764,0.016948 0.0021,0.00933 -0.0026,0.024599 -0.01049,0.033929 -0.01349,0.015967 -0.0089,0.016948 0.07924,0.016948 0.05146,0 0.09356,-0.00252 0.09356,-0.0056 0,-0.00308 -0.03053,-0.057847 -0.06784,-0.1217245 -0.03731,-0.063875 -0.06783,-0.1180558 -0.06783,-0.1203907 0,-0.00235 0.08427,-0.00422 0.187278,-0.00422 h -0.428683 c 0.03506,0.00122 0.06902,0.00544 0.07451,0.012105 0.0073,0.00893 -0.01349,0.037264 -0.07934,0.1079832 l -0.08926,0.09586 -0.03092,-0.037507 c -0.03549,-0.043057 -0.03817,-0.052549 -0.01297,-0.045961 0.0099,0.0026 0.02461,-0.00195 0.03275,-0.010125 0.01602,-0.016023 0.03181,-0.096793 0.02202,-0.1126394 -0.0034,-0.00552 0.01553,-0.00869 0.04141,-0.00972 z m 0.893622,0 c 0.18323,0 0.187729,4.851e-4 0.208346,0.022425 0.01816,0.019342 0.02106,0.033605 0.02106,0.1035542 0,0.069952 -0.0029,0.0842 -0.02106,0.1035405 l -0.02107,0.022425 h 0.198407 c 0.141398,0 0.201746,-0.00333 0.210034,-0.011626 0.0064,-0.00641 0.01163,-0.032558 0.01163,-0.058147 V 6.886903 h -0.07268 -0.07268 v 0.02907 0.02907 h -0.05815 -0.05815 V 6.882855 c 0,-0.034205 -0.0027,-0.069092 -0.0058,-0.077521 -0.005,-0.013022 0.0037,-0.015334 0.05815,-0.015334 0.06214,0 0.06402,7.286e-4 0.06402,0.024672 0,0.024283 0.0011,0.024623 0.06541,0.021808 l 0.06541,-0.00284 -0.0032,-0.028956 c -0.0017,-0.015926 -0.0077,-0.034473 -0.0133,-0.041191 -0.0075,-0.00911 -0.0055,-0.012154 0.008,-0.011926 0.01,1.68e-4 0.02686,0.01217 0.03751,0.02666 0.0164,0.022303 0.01938,0.041588 0.01938,0.1256424 l 1.2e-5,0.09931 0.09449,2.84e-5 c 0.05196,1.22e-5 0.09448,-0.00365 0.09448,-0.00818 0,-0.00454 -0.0084,-0.015764 -0.01864,-0.025037 -0.01365,-0.012348 -0.02044,-0.036152 -0.02538,-0.08889 -0.0048,-0.051137 -0.01133,-0.074698 -0.02256,-0.081254 -0.01109,-0.00649 0.0048,-0.00932 0.05333,-0.00952 0.06361,-2.71e-4 0.06959,0.00146 0.07497,0.021516 0.0096,0.035941 0.0078,0.037864 -0.03507,0.036168 -0.02265,-8.924e-4 -0.04544,-0.00122 -0.05065,-7.383e-4 -0.0052,4.941e-4 0.02522,0.035787 0.06761,0.07843 l 0.07707,0.077521 h 0.07048 c 0.03876,0 0.07023,-0.00325 0.06991,-0.0073 -3.22e-4,-0.00398 -0.02942,-0.031244 -0.06469,-0.060557 -0.06327,-0.052582 -0.06375,-0.053344 -0.0358,-0.056598 0.01558,-0.00178 0.03133,-0.00815 0.03499,-0.014084 0.0089,-0.014368 -8.11e-4,-0.064524 -0.0177,-0.091644 -0.01324,-0.021248 -0.01258,-0.021808 0.02549,-0.021808 z m 1.033601,0 c 0.03474,0 0.0379,0.00187 0.02859,0.016965 -0.0132,0.021378 0.02234,0.193024 0.04457,0.2153004 0.01194,0.011967 0.04806,0.015448 0.185718,0.017914 0.202385,0.00365 0.216094,0.00146 0.216094,-0.034708 0,-0.048468 -0.04833,-0.1752066 -0.07474,-0.1959796 -0.02347,-0.018466 -0.02371,-0.019488 -0.0043,-0.019488 z m 0.395907,0 c 0.01125,0 0.03445,0.00851 0.05154,0.018912 0.02538,0.015431 0.03683,0.034749 0.06228,0.1051444 0.02038,0.05637 0.0282,0.090942 0.02259,0.099808 -0.0047,0.00746 -0.0086,0.016827 -0.0087,0.020827 -8.1e-5,0.00398 0.04455,0.00714 0.09918,0.00698 l 0.09932,-3.107e-4 -0.02475,-0.021833 c -0.01362,-0.012008 -0.03212,-0.040217 -0.04111,-0.062691 l -0.01634,-0.040842 h 0.06362 c 0.05536,0 0.06319,-0.00219 0.06037,-0.016965 -0.0027,-0.013963 -0.01563,-0.01746 -0.07339,-0.019804 -0.05248,-0.00211 -0.07015,-0.00625 -0.07015,-0.016478 0,-0.00746 -0.0076,-0.018076 -0.01695,-0.023504 -0.01261,-0.00738 0.0019,-0.00995 0.05665,-0.010174 0.06663,-2.67e-4 0.07462,-0.00235 0.08414,-0.022084 l 0.0082,-0.016965 z m 0.358928,0 5.15e-4,0.016965 c 6.02e-4,0.01991 0.0054,0.0218 0.054408,0.0218 h 0.05373 l 0.03885,0.084462 c 0.02536,0.055162 0.03692,0.092158 0.03329,0.1066064 -0.0055,0.021914 -0.0046,0.022125 0.08912,0.022019 l 0.09467,-1.136e-4 -0.03154,-0.024859 c -0.01911,-0.015066 -0.04444,-0.052768 -0.06426,-0.095676 -0.018,-0.038951 -0.04087,-0.07555 -0.05083,-0.08134 -0.01442,-0.00838 -0.0055,-0.01058 0.04359,-0.010815 0.05686,-2.718e-4 0.06129,-0.00178 0.05663,-0.019675 -0.005,-0.019334 -3.07e-4,-0.019374 1.932144,-0.019374 z m -0.455653,0.02907 0.02816,0.089643 c 0.01549,0.049304 0.02643,0.092899 0.02433,0.096897 -0.0021,0.00398 -0.04045,0.0073 -0.08523,0.0073 h -0.08141 l -0.0099,-0.036339 c -0.03294,-0.1204743 -0.04055,-0.142586 -0.05145,-0.1495041 -0.0067,-0.00422 0.03013,-0.00771 0.08172,-0.00779 z m -1.736384,0.2761833 c -0.442558,0 -0.441552,-1.646e-4 -0.485732,0.076353 -0.03677,0.06368 -0.164411,0.4733346 -0.156858,0.5034215 0.01497,0.059656 0.04577,0.063161 0.539122,0.061352 0.394436,-0.00146 0.423944,-0.00276 0.459018,-0.020161 0.07091,-0.035195 0.07373,-0.045507 0.09678,-0.3544846 0.01465,-0.1963398 0.01258,-0.2105209 -0.03564,-0.2462311 -0.02668,-0.019756 -0.03695,-0.020259 -0.416688,-0.020259 z m -0.881172,0.00487 c -0.418126,0 -0.43329,6.506e-4 -0.442977,0.01875 -0.02014,0.037621 -0.01426,0.039389 0.130483,0.039389 0.07729,0 0.140505,0.00243 0.140505,0.00535 0,0.00292 -0.05302,0.1164981 -0.117835,0.2523777 -0.09968,0.2089599 -0.123588,0.2516012 -0.155056,0.2765241 -0.02046,0.01621 -0.03721,0.032363 -0.03722,0.035917 -5e-6,0.00357 0.08942,0.00519 0.19872,0.00365 l 0.19872,-0.00276 -0.0146,-0.02821 c -0.008,-0.015512 -0.01459,-0.03457 -0.01459,-0.042335 0,-0.00779 0.03915,-0.1086826 0.087,-0.2242712 0.08378,-0.2023842 0.08647,-0.2111829 0.07268,-0.237842 -0.0079,-0.015229 -0.01432,-0.030076 -0.01432,-0.033005 0,-0.00292 0.07523,-0.00552 0.167164,-0.00576 l 0.167164,-3.968e-4 0.03356,-0.028672 0.03354,-0.028688 z m 1.364792,0 0.04011,0.041199 0.0401,0.041183 -0.0088,0.2366779 -0.0087,0.2366924 -0.02934,0.030262 c -0.01614,0.016648 -0.02935,0.033337 -0.02935,0.037077 0,0.00373 0.09464,0.00682 0.210317,0.00682 h 0.210318 l -0.03554,-0.036412 -0.03554,-0.036396 -0.0103,-0.1539055 c -0.0057,-0.084651 -0.0089,-0.1552912 -0.0072,-0.1569715 0.0017,-0.0017 0.08033,0.068938 0.174772,0.1569431 0.170228,0.1586128 0.172076,0.159979 0.212106,0.1570283 0.04,-0.00292 0.0416,-0.00454 0.167093,-0.1692078 0.06969,-0.091429 0.128135,-0.1648599 0.129886,-0.1631748 0.0018,0.0017 0.01963,0.074325 0.03972,0.1614004 0.03643,0.1579061 0.03646,0.1584319 0.01933,0.1986205 -0.0094,0.022165 -0.01426,0.043203 -0.0107,0.046756 0.0074,0.00738 0.389199,0.00276 0.38932,-0.00471 4.4e-5,-0.00268 -0.02139,-0.024478 -0.04761,-0.04846 l -0.04768,-0.043608 -0.06711,-0.2349318 -0.06711,-0.2349457 0.0231,-0.03397 0.02308,-0.033986 h -0.135367 -0.135352 l -0.148142,0.1598962 c -0.09802,0.1058065 -0.15479,0.1598866 -0.167817,0.1598671 -0.01138,-1.62e-5 -0.09881,-0.067445 -0.207293,-0.1598955 L 8.5516475,7.0613561 h -0.146325 z m 1.292893,0.00227 c 3e-6,0.00389 0.01749,0.018717 0.03887,0.032858 0.03878,0.02567 0.03904,0.026246 0.120874,0.2773046 l 0.08201,0.2515834 -0.02511,0.032931 -0.02513,0.032932 h 0.4982825 c 0.37463,0 0.501167,-0.00292 0.509909,-0.011642 0.0064,-0.00641 0.01163,-0.017419 0.01163,-0.024502 0,-0.022473 -0.110529,-0.2078736 -0.132713,-0.2226104 -0.01171,-0.00779 -0.06588,-0.025767 -0.120405,-0.040006 -0.05452,-0.014231 -0.1008,-0.030976 -0.10283,-0.037207 -0.0024,-0.0073 0.02222,-0.015504 0.06981,-0.023179 0.04043,-0.00649 0.07588,-0.015723 0.07879,-0.020445 0.0065,-0.010515 -0.0775,-0.1689222 -0.106224,-0.2003243 -0.01141,-0.012478 -0.02948,-0.027755 -0.04014,-0.033929 -0.02192,-0.012697 -0.8576325,-0.026124 -0.8576225,-0.013784 z m 0.6505275,0.036485 0.03253,0.070398 c 0.01789,0.038716 0.03395,0.07615 0.0357,0.08317 0.0019,0.00746 -0.01495,0.020283 -0.04041,0.030822 -0.03399,0.014068 -0.0695,0.018157 -0.161032,0.018579 l -0.1174225,5.387e-4 -0.03038,-0.080475 c -0.02788,-0.073854 -0.03375,-0.082156 -0.07154,-0.1011405 l -0.04117,-0.02068 0.1968605,-6.102e-4 z m -2.4679355,0.017289 c 0.153948,-0.00178 0.237848,6.702e-4 0.237842,0.00698 -1.5e-5,0.012267 -0.05587,0.425259 -0.06324,0.4675644 l -0.0055,0.031503 h -0.240411 -0.240411 l 0.05722,-0.2231077 0.05724,-0.2231215 -0.02032,-0.028502 -0.0203,-0.028518 z m 2.249953,0.236991 c 0.0055,1.664e-4 0.01805,0.00471 0.03123,0.011496 0.02097,0.010847 0.05706,0.015245 0.12499,0.015245 0.07153,0 0.110689,0.00511 0.155978,0.020429 l 0.06046,0.020413 0.05295,0.1055557 0.05294,0.1055704 h -0.189351 c -0.171575,0 -0.189924,-0.00162 -0.195398,-0.016965 -0.0033,-0.00933 -0.02735,-0.070917 -0.0534,-0.1368711 -0.02605,-0.065952 -0.045409,-0.1218673 -0.04302,-0.1242656 4.51e-4,-4.486e-4 0.0014,-6.482e-4 0.0026,-6.093e-4 z m -3.307317,0.4221534 -0.269838,0.00292 -0.614869,0.478864 c -0.338178,0.2633739 -0.616271,0.4774623 -0.617978,0.4757551 -0.0026,-0.00259 -0.06086,-0.3292769 -0.06086,-0.3412122 0,-0.00215 0.07982,-0.0039 0.17737,-0.0039 0.171216,0 0.179118,-8.762e-4 0.227522,-0.024997 0.02758,-0.013744 0.06265,-0.04099 0.07794,-0.060557 0.03772,-0.04829 0.244004,-0.4400062 0.243819,-0.4629795 -1.93e-4,-0.023836 -0.0095,-0.037102 -0.03554,-0.050837 -0.02586,-0.013614 -1.413682,-0.016137 -1.422057,-0.0026 -0.0029,0.00471 0.0011,0.029783 0.009,0.055713 0.0079,0.025938 0.01437,0.052038 0.01442,0.058001 5.8e-5,0.00592 -0.13182,0.1236254 -0.293048,0.2614778 -0.161229,0.1378524 -0.519739,0.4447686 -0.796697,0.6820409 -0.276958,0.2372723 -0.511345,0.4371065 -0.520866,0.4440711 -0.0166,0.012141 -0.01732,-0.039879 -0.01732,-1.2622168 v 2.1215146 l 0.0024,-0.3995404 0.0025,-0.4336663 0.106606,-0.035417 c 0.05863,-0.019486 0.230876,-0.075358 0.382776,-0.1241519 0.491506,-0.1578827 0.435451,-0.1344791 0.527383,-0.220155 0.0447,-0.041651 0.284408,-0.2654261 0.532707,-0.4972749 l 0.451453,-0.4215436 9.9e-5,-0.065408 9.9e-5,-0.065409 h 0.276071 0.276084 l -0.107615,0.1768585 c -0.05919,0.097271 -0.112002,0.182306 -0.117366,0.1889683 -0.0073,0.0091 -0.06963,0.012109 -0.250831,0.012109 -0.188698,0 -0.241078,0.00269 -0.241078,0.012336 0,0.01454 0.03376,0.4280228 0.04805,0.5884798 0.0054,0.061294 0.01,0.1168935 0.01001,0.1235558 6.5e-5,0.00947 0.0785,0.012122 0.359681,0.012122 h 0.359609 l 0.06402,-0.050876 c 0.03521,-0.027982 0.275152,-0.2309215 0.533203,-0.45097 0.258049,-0.2200488 0.47096,-0.3983022 0.473143,-0.3961196 0.004,0.00401 0.06134,0.4229882 0.06134,0.4482588 0,0.011336 -0.0403,0.013628 -0.240156,0.013628 h -0.240156 l -0.06715,0.055716 -0.06714,0.055716 0.323979,0.00485 0.323979,0.00484 0.01841,0.094115 c 0.01012,0.051766 0.0159,0.1006653 0.01283,0.1086649 -0.0031,0.008 -0.03403,0.033239 -0.06881,0.056086 -0.03477,0.022847 -0.06332,0.044821 -0.06343,0.048818 -1.11e-4,0.004 0.164853,0.00727 0.366594,0.00727 h 0.366807 L 7.0212015,8.4592249 c -0.09512,-0.2971395 -0.176851,-0.5515188 -0.181614,-0.5652845 -0.008,-0.023204 -0.0041,-0.02808 0.05296,-0.06682 0.0339,-0.022985 0.06001,-0.044428 0.05802,-0.047657 -0.002,-0.00325 -0.125055,-0.00454 -0.273472,-0.00292 z m 1.043239,0.00195 c -0.170555,0 -0.310095,0.00203 -0.310095,0.00454 0,0.00252 0.01358,0.023845 0.03019,0.047414 l 0.03019,0.042838 -0.06971,0.3377912 c -0.03834,0.1857885 -0.08896,0.4315575 -0.112469,0.5461495 -0.02351,0.1145919 -0.04506,0.218156 -0.04788,0.2301481 l -0.0051,0.021804 h 0.291203 c 0.224097,0 0.292254,-0.00278 0.29573,-0.012109 0.0025,-0.00666 0.03291,-0.2650393 0.06762,-0.5741709 l 0.0631,-0.5620629 0.03867,-0.03229 c 0.02127,-0.017768 0.03867,-0.03629 0.03867,-0.041183 0,-0.00519 -0.128519,-0.00888 -0.310096,-0.00888 z m 2.5522985,0 c -0.3900605,0 -0.5947825,0.00333 -0.5947825,0.00968 0,0.00535 0.0032,0.00988 0.0073,0.010109 0.004,2.272e-4 0.02574,0.016656 0.04834,0.036509 l 0.04107,0.036087 0.130639,0.5037483 0.1306245,0.5037482 -0.03512,0.058144 c -0.019319,0.031979 -0.036869,0.061414 -0.03902,0.065412 -0.0022,0.004 0.522138,0.00727 1.165091,0.00727 0.955765,0 1.168436,-0.0023 1.165874,-0.01262 -0.0017,-0.00694 -0.14676,-0.2461258 -0.322304,-0.5314999 l -0.319168,-0.518852 -0.07815,-0.040063 -0.07815,-0.040055 0.321012,-1.988e-4 0.321027,-1.988e-4 0.145515,0.1962352 0.145502,0.1962357 -0.258183,0.00484 -0.258185,0.00484 0.184127,0.1271471 c 0.583332,0.4028214 0.883564,0.6078243 0.900946,0.6151953 0.01082,0.00458 0.174474,0.048028 0.363683,0.096528 0.189211,0.048501 0.44402,0.113989 0.566251,0.14553 0.122231,0.031541 0.223619,0.057349 0.225307,0.057349 0.0017,0 0.0031,0.1926459 0.0031,0.4294782 V 8.0387437 c -3.9e-5,0.6954526 -0.0033,1.2604036 -0.0073,1.2580576 -0.004,-0.00236 -0.319071,-0.1936693 -0.700156,-0.4251205 C 13.066403,8.6402294 12.721973,8.4315041 12.682092,8.4078355 l -0.07251,-0.04304 0.157681,-0.00484 c 0.165178,-0.00508 0.175796,-0.00817 0.176164,-0.051359 2.61e-4,-0.03084 -0.02932,-0.076498 -0.142521,-0.2199844 -0.137152,-0.1738412 -0.183526,-0.2224214 -0.243365,-0.2549893 -0.0996,-0.054212 -0.109074,-0.054813 -0.876175,-0.054967 -0.387747,-7.87e-5 -0.704828,0.00316 -0.704625,0.00714 2.03e-4,0.00398 0.03585,0.029297 0.07921,0.056224 l 0.07883,0.048971 0.163572,0.3144255 c 0.08996,0.172938 0.193376,0.3722536 0.229793,0.4429214 l 0.0662,0.1284815 -0.505067,-0.0025 -0.505083,-0.00252 -0.06995,-0.1938083 c -0.03847,-0.106597 -0.07016,-0.1992091 -0.07041,-0.2058032 -3.44e-4,-0.00926 0.07656,-0.01257 0.337592,-0.014536 l 0.338047,-0.00256 -0.02923,-0.065412 -0.02924,-0.065412 h -0.33683 -0.336796 l -0.05809,-0.1671634 -0.05809,-0.1671641 0.318655,-0.00252 c 0.175261,-0.00138 0.318655,-0.00495 0.318655,-0.00787 0,-0.00292 -0.0092,-0.026855 -0.02057,-0.053166 l -0.02057,-0.047827 z m -1.5904965,0.00252 c -0.346993,-0.00227 -0.612938,-2.872e-4 -0.612938,0.00454 0,0.00471 0.01265,0.025711 0.02812,0.046748 l 0.02814,0.038246 -0.04028,0.4964659 -0.04029,0.4964802 -0.06052,0.065426 c -0.03329,0.035981 -0.06052,0.066573 -0.06052,0.067995 0,0.00806 1.385946,0.00112 1.450474,-0.00727 0.297911,-0.038731 0.468275,-0.1339155 0.468275,-0.2616334 0,-0.041859 -0.151821,-0.7135691 -0.17148,-0.7586817 -0.03086,-0.07082 -0.133589,-0.1296511 -0.286588,-0.1641402 -0.0843,-0.019001 -0.12478,-0.020405 -0.702383,-0.024145 z m -0.142946,0.082745 0.23743,0.00462 c 0.277022,0.00544 0.316395,0.01333 0.371761,0.074609 0.01911,0.021151 0.03684,0.048371 0.03939,0.0605 0.0025,0.012129 0.02289,0.1629383 0.04521,0.3351367 0.03403,0.2625922 0.0388,0.3190478 0.02952,0.3499847 -0.01477,0.049275 -0.04161,0.081678 -0.0859,0.1036825 -0.03273,0.01626 -0.06869,0.018707 -0.339438,0.023039 -0.166564,0.00266 -0.302848,0.0025 -0.302843,-3.693e-4 6e-6,-0.00286 0.02182,-0.026686 0.04846,-0.052934 l 0.04846,-0.047725 V 8.480512 c 0,-0.1285982 -0.0028,-0.3060498 -0.0063,-0.3943309 l -0.0063,-0.1605058 -0.03971,-0.03096 z m -0.184113,1.4361228 c -3.982513,0 -4.491616,0.00166 -4.491616,0.014522 0,0.012821 0.205956,0.014848 1.770961,0.01746 0.974032,0.00163 2.348776,0.0018 3.054982,3.864e-4 0.706206,-0.00142 1.9304885,-0.00274 2.7206395,-0.00294 1.270396,-3.006e-4 1.436649,-0.00204 1.436649,-0.014891 0,-0.012901 -0.505529,-0.014536 -4.4916155,-0.014536 z m 2.5522835,0.3196919 c -0.0014,4.92e-5 -0.0026,6.869e-4 -0.0037,0.0018 -0.003,0.00297 -0.04227,0.1052017 -0.08733,0.2271672 -0.101802,0.2755411 -0.1075,0.2870511 -0.147589,0.2988531 -0.04753,0.01399 -0.0351,0.02167 0.03012,0.02373 0.0052,1.8e-4 0.04403,1.84e-4 0.04999,3.65e-4 0.04825,-7.08e-4 0.08222,-0.0039 0.08222,-0.0091 -10e-7,-0.0053 -0.0089,-0.0097 -0.01969,-0.0097 -0.03096,0 -0.03313,-0.02512 -0.0085,-0.09756 l 0.02287,-0.067169 0.08259,1.85e-4 0.0826,1.842e-4 0.03206,0.072751 c 0.01959,0.04447 0.0297,0.08021 0.026,0.09189 -0.0058,0.01816 -0.0012,0.01911 0.09149,0.01911 0.0942,0 0.127692,-0.01093 0.06929,-0.02261 -0.04171,-0.0084 -0.06453,-0.04586 -0.174901,-0.2874856 -0.08631,-0.1889635 -0.114129,-0.2428446 -0.127501,-0.2423702 z m -0.158547,0.5519133 c -0.0056,8.2e-5 -0.0086,5.58e-4 -0.01469,5.58e-4 -0.01461,0 -0.02403,-5.58e-4 -0.03529,-8.93e-4 -0.05103,-0.0018 -0.502562,-6.01e-4 -0.49462,-0.0034 0.13736,-0.04899 0.139018,-0.2004523 0.0033,-0.3044179 -0.08948,-0.068564 -0.111764,-0.091052 -0.118432,-0.1195526 -0.0086,-0.036823 0.03084,-0.07559 0.07692,-0.07559 0.03912,0 0.09325,0.039868 0.09325,0.068691 0,0.010182 0.0066,0.018522 0.01454,0.018522 0.01116,0 0.01454,-0.012413 0.01454,-0.053545 0,-0.048553 -0.0024,-0.054414 -0.02486,-0.062984 -0.03623,-0.013775 -0.135571,-0.01156 -0.171692,0.00383 -0.04544,0.019365 -0.07566,0.056882 -0.08162,0.1013832 -0.0082,0.060987 0.02381,0.1156753 0.106707,0.1824371 0.08975,0.072288 0.102907,0.088533 0.103298,0.1275032 4.51e-4,0.04479 -0.01358,0.06629 -0.05137,0.07877 -0.06719,0.02218 -0.120577,-0.01447 -0.147006,-0.100943 -0.0097,-0.03186 -0.02388,0.0024 -0.02388,0.05787 0,0.05973 0.0076,0.07251 0.04931,0.08235 0.01801,0.0042 -0.5003925,0.0082 -1.1520055,0.0087 l -1.184739,9.73e-4 h 6.4444185 l -1.993855,-4.29e-4 c -1.222445,-2.57e-4 -1.24403,-0.005 -1.412261,-0.0098 z m -3.0383015,0.01025 0.06154,-0.123555 c 0.03385,-0.067956 0.09124,-0.1837524 0.127517,-0.2573325 0.05814,-0.1179119 0.06925,-0.1344465 0.09357,-0.1393124 0.05662,-0.011324 0.02463,-0.022471 -0.06446,-0.022471 -0.05491,0 -0.09206,0.0039 -0.09206,0.00968 0,0.00533 0.0109,0.0097 0.02423,0.0097 0.01397,0 0.02422,0.00559 0.02422,0.013186 0,0.00725 -0.02551,0.06939 -0.0567,0.1380913 -0.03119,0.068702 -0.06654,0.1467043 -0.07856,0.1733536 l -0.02185,0.04846 -0.01742,-0.04846 c -0.07337,-0.2041934 -0.106522,-0.3070748 -0.101525,-0.3151609 0.0032,-0.00521 0.01431,-0.00947 0.02466,-0.00947 0.01035,0 0.01881,-0.00436 0.01881,-0.0097 0,-0.00592 -0.04522,-0.00968 -0.116288,-0.00968 -0.07106,0 -0.116288,0.00376 -0.116288,0.00968 0,0.00533 0.01023,0.0097 0.02272,0.0097 0.0125,0 0.02965,0.00765 0.03812,0.017005 0.0085,0.00935 0.05454,0.1179415 0.102404,0.2413195 0.04786,0.1233784 0.09192,0.2334804 0.0979,0.2446564 l 0.01087,0.02032 z M 4.2122595,9.6206724 c -0.0031,0 -0.0062,0.00146 -0.0091,0.00436 -0.005,0.00506 -0.06862,0.118223 -0.141355,0.2514699 -0.07274,0.1332457 -0.141075,0.2498927 -0.151861,0.2592197 -0.01078,0.0093 -0.03003,0.01697 -0.04277,0.01697 -0.01274,0 -0.02316,0.0044 -0.02316,0.0097 0,0.0058 0.03877,0.0097 0.09691,0.0097 0.05815,0 0.09691,-0.0039 0.09691,-0.0097 0,-0.0053 -0.0085,-0.0097 -0.01881,-0.0097 -0.03216,0 -0.03099,-0.01542 0.0067,-0.08883 l 0.03651,-0.071063 0.08407,-0.00276 0.08408,-0.00276 0.02333,0.075461 c 0.01304,0.04216 0.01973,0.07954 0.01516,0.08469 -0.01837,0.02066 -0.0038,0.0247 0.08872,0.0247 0.05355,0 0.0969,-0.0041 0.0969,-0.0091 0,-0.0049 -0.01178,-0.01043 -0.02617,-0.01211 -0.03826,-0.0045 -0.05133,-0.03386 -0.128879,-0.2890048 -0.03807,-0.1252514 -0.07327,-0.2318701 -0.07822,-0.2369334 -0.0028,-0.0029 -0.0059,-0.00436 -0.009,-0.00436 z m 1.710163,0.00872 c -0.01673,0 -0.01904,0.014453 -0.04348,0.2713432 -0.0109,0.1145914 -0.02396,0.2181554 -0.02901,0.2301484 -0.0061,0.01442 -0.01748,0.0218 -0.03363,0.0218 -0.01344,0 -0.02445,0.0044 -0.02445,0.0097 0,0.0058 0.04038,0.0097 0.101752,0.0097 0.06138,0 0.101751,-0.0038 0.101751,-0.0097 0,-0.0053 -0.01037,-0.0097 -0.02304,-0.0097 -0.04436,0 -0.04711,-0.01469 -0.03559,-0.1902599 0.0058,-0.089266 0.01194,-0.1635975 0.01352,-0.1651764 7e-6,-5.6e-6 3.6e-5,-2.27e-5 4.2e-5,-2.84e-5 1.6e-5,-8.9e-6 5.5e-5,-2.19e-5 7.2e-5,-2.84e-5 0.0024,-5.792e-4 0.0247,0.022798 0.05039,0.052776 0.0262,0.030579 0.108333,0.1177442 0.182508,0.1936951 l 0.134856,0.138092 h 0.01606 l 0.0046,-0.02181 c 0.0025,-0.01199 0.01414,-0.124287 0.02575,-0.2495388 0.01161,-0.1252514 0.02541,-0.2331811 0.03066,-0.2398431 0.0053,-0.00666 0.01748,-0.012109 0.02717,-0.012109 0.0097,0 0.02032,-0.00436 0.02361,-0.0097 0.0038,-0.00623 -0.03058,-0.00968 -0.09633,-0.00968 -0.06176,0 -0.102319,0.00383 -0.102319,0.00968 0,0.00533 0.013,0.0097 0.02889,0.0097 0.02189,0 0.0302,0.00528 0.03429,0.021804 0.0055,0.022328 -0.0096,0.3251739 -0.01663,0.3321839 -0.0038,0.0038 -0.303096,-0.3131897 -0.339721,-0.359751 -0.01008,-0.01282 -0.02436,-0.023309 -0.03172,-0.023309 z m -1.012763,0.00107 c -0.01278,-2.361e-4 -0.01626,0.025801 -0.0476,0.2733162 -0.01607,0.1269344 -0.03175,0.2348644 -0.03482,0.2398434 -0.0031,0.0049 -0.01842,0.0091 -0.0341,0.0091 -0.01567,0 -0.02849,0.0044 -0.02849,0.0097 0,0.0058 0.04038,0.0097 0.101751,0.0097 0.06138,0 0.101753,-0.0038 0.101753,-0.0097 0,-0.0053 -0.01103,-0.0097 -0.02453,-0.0097 -0.01349,0 -0.02713,-0.0067 -0.03029,-0.01499 -0.0032,-0.0083 2.5e-4,-0.08915 0.0075,-0.1797831 l 0.01331,-0.1647788 0.117282,0.1289071 c 0.0645,0.070893 0.144468,0.1583288 0.17771,0.1943048 l 0.06044,0.06541 h 0.01972 l 0.0083,-0.03681 c 0.0045,-0.02024 0.01969,-0.132501 0.03365,-0.249468 0.01396,-0.1169661 0.02993,-0.2181415 0.03549,-0.2248388 0.0056,-0.00669 0.01804,-0.01218 0.02774,-0.01218 0.0097,0 0.02032,-0.00436 0.02361,-0.0097 0.0038,-0.00623 -0.03058,-0.00968 -0.09633,-0.00968 -0.06176,0 -0.102334,0.00383 -0.102334,0.00968 0,0.00533 0.01037,0.0097 0.02304,0.0097 0.04313,0 0.04547,0.013781 0.03166,0.1874346 -0.0071,0.088867 -0.01507,0.1637902 -0.01778,0.1664962 -0.0027,0.0027 -0.08244,-0.081263 -0.177199,-0.1866112 -0.09475,-0.1053375 -0.178107,-0.1929206 -0.185235,-0.1946073 -0.0015,-3.65e-4 -0.003,-6.655e-4 -0.0043,-6.87e-4 z m 3.78621,0.00381 c -8.93e-4,-2.19e-5 -0.08233,0.00219 -0.180933,0.00491 -0.157676,0.00435 -0.196638,0.010681 -0.130824,0.021264 0.0186,0.00299 0.01948,0.011638 0.02199,0.2140932 0.003,0.2417394 -0.0013,0.2718814 -0.03967,0.2763824 -0.01444,0.0017 -0.02374,0.0071 -0.02066,0.01211 0.0068,0.01105 0.3405,0.01221 0.347301,0.0012 0.0027,-0.0043 0.0079,-0.03046 0.01151,-0.05815 0.0076,-0.05738 -0.0045,-0.0665 -0.02557,-0.01931 -0.0092,0.02052 -0.02371,0.03374 -0.04294,0.03909 -0.03352,0.0093 -0.09979,0.0017 -0.118232,-0.01357 -0.01364,-0.01132 -0.01608,-0.06973 -0.0063,-0.1510239 l 0.0061,-0.050878 h 0.05485 c 0.057,0 0.07811,0.01101 0.07811,0.040712 0,0.028859 0.01651,0.019634 0.02301,-0.012843 0.01349,-0.067469 0.0025,-0.1194699 -0.01817,-0.08601 -0.0033,0.00535 -0.03625,0.0097 -0.07325,0.0097 h -0.06726 v -0.091914 -0.091914 l 0.06056,0.00552 c 0.0795,0.00724 0.08275,0.00854 0.08646,0.034779 0.0055,0.039114 0.02232,0.02008 0.02905,-0.032961 0.0036,-0.028141 0.0058,-0.05118 0.0049,-0.051202 z m 2.9799865,0.00441 c -0.07596,-8.356e-4 -0.147133,0.00229 -0.147133,0.010078 0,0.00533 0.01319,0.0097 0.02931,0.0097 0.02153,0 0.03146,0.00578 0.03742,0.021804 0.008,0.021673 0.03036,0.3288976 0.03024,0.4165176 -7.3e-5,0.04079 -0.0028,0.04651 -0.02429,0.05192 -0.05426,0.01362 -0.0179,0.02335 0.08722,0.02335 0.06783,0 0.111447,-0.0038 0.111447,-0.0097 0,-0.0053 -0.0084,-0.0097 -0.0186,-0.0097 -0.04881,0 -0.05238,-0.0078 -0.06355,-0.138091 l -0.0056,-0.065408 h 0.0337 c 0.02848,0 0.03941,0.00706 0.07052,0.045564 0.123048,0.1522538 0.159799,0.1771608 0.261563,0.1772708 0.0593,6.5e-5 0.0765,-0.01557 0.0273,-0.0248 -0.03911,-0.0073 -0.09903,-0.05774 -0.188103,-0.1582064 l -0.05918,-0.066763 0.03018,-0.032307 c 0.03724,-0.039868 0.04744,-0.065636 0.04744,-0.1199218 0,-0.049669 -0.03352,-0.096613 -0.08404,-0.1177219 -0.01915,-0.008 -0.09988,-0.012783 -0.175837,-0.013614 z m -4.7065875,4.079e-4 c -0.06783,0 -0.111434,0.00378 -0.111434,0.00968 0,0.00533 0.01103,0.0097 0.02453,0.0097 0.01382,0 0.0272,0.00696 0.03064,0.015941 0.0088,0.02302 -0.01545,0.4389937 -0.02687,0.4603387 -0.0054,0.01002 -0.02017,0.01795 -0.0335,0.01795 -0.01314,0 -0.02388,0.0044 -0.02388,0.0097 0,0.0059 0.04683,0.0097 0.121128,0.0097 0.07429,0 0.121128,-0.0037 0.121128,-0.0097 0,-0.0053 -0.01254,-0.0097 -0.02788,-0.0097 -0.01533,0 -0.03208,-0.0054 -0.03721,-0.01211 -0.0095,-0.01239 0.0011,-0.3189459 0.0146,-0.4239702 0.0063,-0.048933 0.0091,-0.053554 0.03353,-0.05637 0.01465,-0.0017 0.02664,-0.00713 0.02664,-0.012109 0,-0.00508 -0.0489,-0.00904 -0.111447,-0.00904 z m 5.4219175,0 c -0.05815,0 -0.0969,0.00387 -0.0969,0.00968 0,0.00533 0.0077,0.0097 0.01722,0.0097 0.0313,0 0.05914,0.028706 0.146934,0.151506 0.09077,0.1269632 0.08986,0.1246379 0.101796,0.2574457 0.0052,0.05757 -0.0076,0.08527 -0.03949,0.08527 -0.008,0 -0.01171,0.0044 -0.0084,0.0097 0.0075,0.01205 0.22772,0.01309 0.22772,0.001 0,-0.0047 -0.01484,-0.0114 -0.03298,-0.01481 -0.01814,-0.0034 -0.03537,-0.01241 -0.03829,-0.02001 -0.0029,-0.0076 -0.0083,-0.05723 -0.01195,-0.110269 l -0.0067,-0.096429 0.05542,-0.1050868 c 0.05918,-0.1122188 0.09518,-0.1583915 0.123471,-0.1583915 0.0097,0 0.01757,-0.00436 0.01757,-0.0097 0,-0.00578 -0.03614,-0.00957 -0.08964,-0.00938 -0.07662,2.575e-4 -0.08718,0.00218 -0.07268,0.013186 0.0093,0.00708 0.01696,0.021423 0.01696,0.031882 0,0.01793 -0.08219,0.1968886 -0.09042,0.1968886 -0.0021,0 -0.03604,-0.048687 -0.0754,-0.1082104 -0.04568,-0.069094 -0.06719,-0.1096841 -0.05948,-0.1122565 0.0067,-0.00221 0.0121,-0.00803 0.0121,-0.012918 0,-0.00488 -0.04362,-0.00887 -0.09691,-0.00887 z m -3.1282295,2.13e-4 c -0.09649,-1.38e-4 -0.14626,0.00316 -0.142364,0.00947 0.0033,0.00533 0.01649,0.0097 0.02931,0.0097 0.01314,0 0.0277,0.00818 0.03335,0.018737 0.01289,0.024094 0.0134,0.4169107 5.79e-4,0.4506297 -0.0058,0.01538 -0.01692,0.02486 -0.02907,0.02486 -0.01079,0 -0.01963,0.0044 -0.01963,0.0097 0,0.0059 0.04362,0.0097 0.111446,0.0097 0.06783,0 0.111447,-0.0038 0.111447,-0.0097 0,-0.0053 -0.01003,-0.0097 -0.02229,-0.0097 -0.03855,0 -0.04556,-0.01743 -0.04556,-0.113378 v -0.090126 l 0.0315,2.84e-5 c 0.02831,2.19e-5 0.03836,0.00903 0.09932,0.088948 0.09107,0.119383 0.104273,0.128154 0.199317,0.13247 0.05179,0.0023 0.07686,-4e-6 0.07686,-0.0072 0,-0.0059 -0.007,-0.01072 -0.01551,-0.01072 -0.03658,0 -0.08287,-0.0352 -0.150256,-0.114229 -0.107411,-0.1259787 -0.101363,-0.1155175 -0.07833,-0.135265 0.09256,-0.079356 0.09193,-0.2029891 -0.0012,-0.2452943 -0.03409,-0.015477 -0.06416,-0.018431 -0.188897,-0.018611 z m 0.0284,0.03854 h 0.02896 c 0.03993,0 0.08013,0.022691 0.09396,0.053034 0.0063,0.013971 0.01157,0.049377 0.01157,0.078682 0,0.070333 -0.02723,0.1008575 -0.09,0.1008575 -0.02334,0 -0.04426,-0.00178 -0.04647,-0.00398 -0.0022,-0.00219 -0.0027,-0.054529 -0.0011,-0.1162879 z m 2.4060585,0 h 0.03286 c 0.07472,0 0.124013,0.062433 0.115904,0.1468218 -0.0061,0.063112 -0.02765,0.085754 -0.08178,0.085754 -0.03502,0 -0.04378,-0.00373 -0.05059,-0.0218 -0.0045,-0.011991 -0.01008,-0.064321 -0.01232,-0.1162879 z M 4.1778165,9.7847158 c 0.0016,-2.27e-5 0.0027,0.00154 0.0033,0.00454 0.0021,0.010661 0.01194,0.048809 0.02176,0.084788 l 0.01784,0.065408 h -0.06236 c -0.0343,0 -0.06237,-0.00227 -0.06237,-0.00503 0,-0.00276 0.01827,-0.040931 0.04061,-0.084788 0.02273,-0.044639 0.03541,-0.064849 0.04121,-0.06493 z m 6.7216945,0.00633 c 0.0067,-4.081e-4 0.02827,0.045239 0.06442,0.1363599 0.0036,0.00895 -0.01185,0.012105 -0.05901,0.012105 h -0.06383 l 0.02548,-0.070252 c 0.01402,-0.038643 0.02838,-0.073595 0.03192,-0.077676 2.79e-4,-3.221e-4 6.22e-4,-5.152e-4 9.74e-4,-5.371e-4 z"
     class="ColorScheme-Text" />
  <ellipse
     style="fill:none;stroke:#000000;stroke-width:0.582072;stroke-dasharray:none;stroke-opacity:1;filter:url(#filter3-8)"
     id="path1-5-7"
     cx="8.4450111"
     cy="8.423522"
     rx="6.8752708"
     ry="6.8578653"
     transform="matrix(0.4782969,0,0,0.4782969,8.9000071,8.8280171)" />
  <ellipse
     style="fill:currentColor;fill-opacity:1;stroke:currentColor;stroke-width:0.278402;stroke-dasharray:none;stroke-opacity:1"
     id="path1-59"
     cx="12.939234"
     cy="12.856965"
     rx="3.2884204"
     ry="3.2800953"
     class="ColorScheme-Text" />
  <ellipse
     style="fill:currentColor;stroke:none;stroke-width:0.246622;stroke-dasharray:none;stroke-opacity:1"
     id="path1-2-2"
     cx="12.939234"
     cy="12.856965"
     rx="2.9130225"
     ry="2.9056478"
     class="ColorScheme-Highlight" />
  <path
     id="path1-36-3"
     style="fill:#000000;fill-opacity:1;stroke:none;stroke-width:0.124104;stroke-dasharray:none;stroke-dashoffset:2.2;stroke-opacity:0.3;opacity:0.3"
     d="m 14.021099,11.736685 c -0.06523,-2.7e-5 -0.135047,0.02623 -0.222431,0.07744 -0.207942,0.121835 -0.479893,0.179294 -0.853351,0.179294 -0.373425,0 -0.654446,-0.05868 -0.861152,-0.179813 -0.165749,-0.09713 -0.264703,-0.09842 -0.403809,-0.0046 -0.357127,0.240662 -0.62628,1.012267 -0.705238,2.020557 -0.04735,0.604628 -0.0031,0.923391 0.153311,1.102784 0.07546,0.08649 0.260665,0.07183 0.427716,-0.0343 0.141607,-0.08996 0.310333,-0.288477 0.511911,-0.602326 0.182153,-0.283608 0.40248,-0.377017 0.889733,-0.377816 0.486283,-7.65e-4 0.677387,0.09125 0.901686,0.436021 0.376321,0.578447 0.72416,0.779828 0.928191,0.537359 0.113031,-0.134326 0.133719,-0.264107 0.128366,-0.804479 -0.0098,-0.981615 -0.266353,-1.87461 -0.636118,-2.215438 -0.09848,-0.09078 -0.174941,-0.134569 -0.258815,-0.134604 z m -2.112591,0.578416 h 0.225551 0.22555 v 0.193324 0.193326 h 0.19333 0.193331 v 0.241656 0.241656 h -0.193331 -0.19333 v 0.209435 0.209435 h -0.204243 c -0.112206,0 -0.213221,-0.01005 -0.225032,-0.02182 -0.0118,-0.01181 -0.02182,-0.105569 -0.02182,-0.208914 v -0.188138 h -0.193337 -0.193331 v -0.241656 -0.241656 h 0.193331 0.193332 v -0.193326 z m 1.83871,0 c 0.203478,0 0.290618,0.225442 0.14396,0.372098 -0.09327,0.09326 -0.178394,0.100588 -0.270247,0.02287 -0.159321,-0.134809 -0.07616,-0.394964 0.126287,-0.394964 z m -0.391336,0.413154 c 0.05081,3.5e-5 0.101967,0.02029 0.142399,0.06495 0.06302,0.06964 0.06984,0.229093 0.013,0.303499 -0.111241,0.145623 -0.378344,0.05196 -0.378344,-0.13252 0,-0.140009 0.111172,-0.236016 0.22295,-0.23594 z m 0.798786,0.0078 c 0.05856,0.0011 0.115418,0.02047 0.148634,0.05716 0.06302,0.06964 0.06983,0.229092 0.013,0.303499 -0.118321,0.154886 -0.378346,0.05122 -0.378346,-0.150713 0,-0.06121 0.02453,-0.127549 0.05873,-0.158506 0.03909,-0.03538 0.09943,-0.05251 0.15799,-0.05145 z m -0.393417,0.416788 c 0.180393,0 0.268168,0.19134 0.159029,0.347153 -0.0373,0.05326 -0.08282,0.07171 -0.176699,0.07171 -0.108097,0 -0.133181,-0.01407 -0.176699,-0.09823 -0.08582,-0.165932 0.0078,-0.320649 0.194369,-0.320649 z" />
  <path
     id="path1-36"
     style="fill:currentColor;fill-opacity:1;stroke:none;stroke-width:0.124104;stroke-dasharray:none;stroke-dashoffset:2.2;stroke-opacity:0.3"
     d="m 14.021099,11.207529 c -0.06523,-2.7e-5 -0.135047,0.02623 -0.222431,0.07744 -0.207942,0.121835 -0.479893,0.179294 -0.853351,0.179294 -0.373425,0 -0.654446,-0.05868 -0.861152,-0.179813 -0.165749,-0.09713 -0.264703,-0.09842 -0.403809,-0.0046 -0.357127,0.240662 -0.62628,1.012267 -0.705238,2.020557 -0.04735,0.604628 -0.0031,0.923391 0.153311,1.102784 0.07546,0.08649 0.260665,0.07183 0.427716,-0.0343 0.141607,-0.08996 0.310333,-0.288477 0.511911,-0.602326 0.182153,-0.283608 0.40248,-0.377017 0.889733,-0.377816 0.486283,-7.65e-4 0.677387,0.09125 0.901686,0.436021 0.376321,0.578447 0.72416,0.779828 0.928191,0.537359 0.113031,-0.134326 0.133719,-0.264107 0.128366,-0.804479 -0.0098,-0.981615 -0.266353,-1.87461 -0.636118,-2.215438 -0.09848,-0.09078 -0.174941,-0.134569 -0.258815,-0.134604 z m -2.112591,0.578416 h 0.225551 0.22555 v 0.193324 0.193326 h 0.19333 0.193331 v 0.241656 0.241656 h -0.193331 -0.19333 v 0.209435 0.209435 h -0.204243 c -0.112206,0 -0.213221,-0.01005 -0.225032,-0.02182 -0.0118,-0.01181 -0.02182,-0.105569 -0.02182,-0.208914 v -0.188138 h -0.193337 -0.193331 v -0.241656 -0.241656 h 0.193331 0.193332 v -0.193326 z m 1.83871,0 c 0.203478,0 0.290618,0.225442 0.14396,0.372098 -0.09327,0.09326 -0.178394,0.100588 -0.270247,0.02287 -0.159321,-0.134809 -0.07616,-0.394964 0.126287,-0.394964 z m -0.391336,0.413154 c 0.05081,3.5e-5 0.101967,0.02029 0.142399,0.06495 0.06302,0.06964 0.06984,0.229093 0.013,0.303499 -0.111241,0.145623 -0.378344,0.05196 -0.378344,-0.13252 0,-0.140009 0.111172,-0.236016 0.22295,-0.23594 z m 0.798786,0.0078 c 0.05856,0.0011 0.115418,0.02047 0.148634,0.05716 0.06302,0.06964 0.06983,0.229092 0.013,0.303499 -0.118321,0.154886 -0.378346,0.05122 -0.378346,-0.150713 0,-0.06121 0.02453,-0.127549 0.05873,-0.158506 0.03909,-0.03538 0.09943,-0.05251 0.15799,-0.05145 z m -0.393417,0.416788 c 0.180393,0 0.268168,0.19134 0.159029,0.347153 -0.0373,0.05326 -0.08282,0.07171 -0.176699,0.07171 -0.108097,0 -0.133181,-0.01407 -0.176699,-0.09823 -0.08582,-0.165932 0.0078,-0.320649 0.194369,-0.320649 z"
     class="ColorScheme-Text" />
  <path
     id="gradient-path1"
     style="opacity:0.3;baseline-shift:baseline;display:inline;overflow:visible;vector-effect:none;enable-background:accumulate;stop-color:#000000;stop-opacity:1;fill:url(#linearGradient5)"
     d="M 8.4453131 1.2753492 C 4.4913166 1.2753492 1.2794833 4.4784283 1.2794833 8.4236094 C 1.2794833 12.36879 4.4913166 15.572386 8.4453131 15.572386 C 9.1638027 15.572386 9.8576697 15.466358 10.51233 15.269568 C 11.133159 15.890536 11.991864 16.275172 12.939524 16.275172 C 14.830708 16.275172 16.367154 14.744327 16.367154 12.85736 C 16.367154 11.897867 15.969699 11.029882 15.330545 10.408462 C 15.513101 9.7781514 15.611143 9.1121932 15.611143 8.4236094 C 15.611143 4.4784283 12.39931 1.2753492 8.4453131 1.2753492 z " />
</svg>
