<?xml version="1.0" encoding="UTF-8" standalone="no"?>
<svg
   width="64"
   height="64"
   version="1.1"
   viewBox="0 0 16.933 16.933"
   id="svg7"
   sodipodi:docname="steam_icon_2325290.svg"
   inkscape:version="1.4.2 (ebf0e940d0, 2025-05-08)"
   xmlns:inkscape="http://www.inkscape.org/namespaces/inkscape"
   xmlns:sodipodi="http://sodipodi.sourceforge.net/DTD/sodipodi-0.dtd"
   xmlns:xlink="http://www.w3.org/1999/xlink"
   xmlns="http://www.w3.org/2000/svg"
   xmlns:svg="http://www.w3.org/2000/svg"
   xmlns:rdf="http://www.w3.org/1999/02/22-rdf-syntax-ns#"
   xmlns:cc="http://creativecommons.org/ns#"
   xmlns:dc="http://purl.org/dc/elements/1.1/">
  <sodipodi:namedview
     id="namedview7"
     pagecolor="#9c4444"
     bordercolor="#000000"
     borderopacity="0.25"
     inkscape:showpageshadow="2"
     inkscape:pageopacity="0.0"
     inkscape:pagecheckerboard="0"
     inkscape:deskcolor="#d1d1d1"
     inkscape:zoom="4.3531261"
     inkscape:cx="36.180895"
     inkscape:cy="25.958357"
     inkscape:window-width="2560"
     inkscape:window-height="1388"
     inkscape:window-x="0"
     inkscape:window-y="0"
     inkscape:window-maximized="1"
     inkscape:current-layer="svg7"
     showgrid="false" />
  <defs
     id="defs2">
    <filter
       style="color-interpolation-filters:sRGB;"
       inkscape:label="Blur"
       id="filter3"
       x="-0.10843471"
       y="-0.10870992"
       width="1.2168694"
       height="1.2174198">
      <feGaussianBlur
         stdDeviation="0.5 0.5"
         result="blur"
         id="feGaussianBlur3" />
    </filter>
    <filter
       style="color-interpolation-filters:sRGB"
       inkscape:label="Blur"
       id="filter3-8"
       x="-0.10843471"
       y="-0.10870992"
       width="1.2168694"
       height="1.2174198">
      <feGaussianBlur
         stdDeviation="0.5 0.5"
         result="blur"
         id="feGaussianBlur3-7" />
    </filter>
    <style
       id="current-color-scheme"
       type="text/css">.ColorScheme-Text {color:#d8dee9} .ColorScheme-Highlight {color:#3b4252}</style>
    <linearGradient
       id="linearGradient4"
       inkscape:collect="always">
      <stop
         style="stop-color:#000000;stop-opacity:1;"
         offset="0"
         id="stop4" />
      <stop
         style="stop-color:#000000;stop-opacity:0;"
         offset="1"
         id="stop5" />
    </linearGradient>
    <linearGradient
       inkscape:collect="always"
       xlink:href="#linearGradient4"
       id="linearGradient5"
       x1="14.157616"
       y1="14.109557"
       x2="3.4890218"
       y2="3.440964"
       gradientUnits="userSpaceOnUse" />
  </defs>
  <metadata
     id="metadata2">
    <rdf:RDF>
      <cc:Work
         rdf:about="">
        <dc:format>image/svg+xml</dc:format>
        <dc:type
           rdf:resource="http://purl.org/dc/dcmitype/StillImage" />
      </cc:Work>
    </rdf:RDF>
  </metadata>
  <ellipse
     style="opacity:1;fill:none;stroke:#000000;stroke-width:0.582072;stroke-dasharray:none;stroke-opacity:1;filter:url(#filter3)"
     id="path1-5"
     cx="8.4450111"
     cy="8.423522"
     rx="6.8752708"
     ry="6.8578653" />
  <ellipse
     style="opacity:1;fill:none;stroke-width:0.58207188;stroke-opacity:1;stroke:currentColor;stroke-dasharray:none;fill-opacity:1"
     id="path1"
     cx="8.4450111"
     cy="8.423522"
     rx="6.8752708"
     ry="6.8578653"
     class="ColorScheme-Text" />
  <ellipse
     style="fill:currentColor;stroke:none;stroke-width:0.285728;stroke-dasharray:none;stroke-opacity:1"
     id="path1-2"
     cx="8.4450111"
     cy="8.423522"
     rx="6.5766377"
     ry="6.5612183"
     class="ColorScheme-Highlight" />
  <path
     id="path2"
     d="m 8.276267,5.0274661 c -0.27939,-0.01055 -0.906978,0.153704 -1.227709,0.344589 -0.522435,0.310742 -0.927521,0.587878 -1.231882,1.0881181 -0.294927,0.485535 -0.268847,1.131454 0,1.434982 0.19255,0.217243 0.840397,0.749963 1.044876,0.880086 C 7.066031,8.9053642 7.250534,9.1764162 7.139,9.5296082 7.027466,9.8828002 6.212917,10.248774 5.673834,10.236289 5.432309,10.230589 5.29209,10.187669 5.222493,10.157549 5.047998,10.067409 5.043096,9.9209962 5.173013,9.7157452 c 0.10987,-0.173406 0.288017,-0.349861 0.699473,-0.566548 0.197211,-0.103775 0.516783,-0.220394 0.868761,-0.328928 -0.03652,-0.02578 -0.07907,-0.05722 -0.125719,-0.09277 -0.73247,0.2316 -1.267986,0.588454 -1.430864,0.751332 -0.09822,0.09822 -0.260219,0.329306 -0.283247,0.479683 -0.01661,0.1082748 0.08702,0.2409658 0.248024,0.3172228 -0.02415,-0.02467 -0.04207,-0.0474 -0.05446,-0.06508 -0.0065,-0.0093 -0.01752,-0.02667 -0.02168,-0.03468 H 5.20032 c 0.05449,0.06573 0.18021,0.176884 0.414113,0.189879 0.334603,0.01859 0.713308,-0.110427 1.04791,-0.203372 C 6.996946,10.069534 7.645085,9.7734862 7.92392,9.4949282 8.202756,9.2163702 8.271834,8.9167042 8.104533,8.6750462 7.937509,8.4336662 7.86314,8.3221362 7.695838,8.1176572 7.528537,7.9131772 7.689138,7.5330912 8.023791,7.3100222 8.358394,7.0869532 9.405477,6.5195872 9.647135,6.3336961 9.968143,6.0864901 9.871027,5.7449311 9.610505,5.5021641 9.459573,5.3614981 9.235137,5.1869981 9.033987,5.1292891 8.771798,5.0540991 8.547882,5.0377291 8.27626,5.0274671 Z m 1.504725,1.8647571 c -0.05354,-0.0014 -0.112142,0.0091 -0.166036,0.02769 -0.225566,0.07796 -0.430862,0.274412 -0.650323,0.667556 -0.219463,0.393144 -0.855376,2.9550958 -0.855376,2.9897768 0,0 0.01138,0.161755 0.06936,0.02303 0.04011,-0.09643 0.213916,-0.504284 0.429557,-0.9351418 0.0071,0.02431 0.01773,0.05068 0.03241,0.08004 0.08102,0.161752 0.132872,0.249972 0.375639,0.4350298 0.242767,0.185058 0.61846,0.351256 0.826547,0.408966 0.208641,0.05743 0.497456,0.05744 0.497456,0.05744 0,0 -0.439201,-0.09239 -0.728302,-0.242767 -0.289101,-0.150377 -0.603992,-0.37564 -0.638673,-0.5143638 -0.03468,-0.138724 -0.02027,-0.236964 0.08378,-0.294951 0.104042,-0.05799 0.431995,-0.02162 0.640081,-0.09098 0.208087,-0.06936 0.342367,-0.10269 0.411729,-0.264443 0.06936,-0.161752 0.157587,-0.380084 0.134281,-0.541837 -0.01602,-0.111205 -0.04751,-0.15621 -0.114502,-0.15471 -0.03045,6.79e-4 -0.06821,0.01101 -0.115205,0.02904 -0.150378,0.05771 -0.455036,0.184226 -0.706681,0.312129 -0.157116,0.07984 -0.313338,0.184083 -0.43308,0.284656 0.01154,-0.01994 0.02313,-0.03965 0.03468,-0.05912 0.372891,-0.628698 0.780432,-1.31788 0.919156,-1.560647 0.138725,-0.242767 0.168962,-0.35127 0.134281,-0.533275 -0.0163,-0.08549 -0.09154,-0.120783 -0.180775,-0.123118 z m 0.200662,1.232369 c -0.117618,-0.0029 -0.243315,-7.92e-4 -0.372442,0.005 -0.05144,0.08735 -0.106465,0.180671 -0.16376,0.277665 0.217048,0.0079 0.416818,0.02487 0.578632,0.04936 0.03458,-0.01052 0.06962,-0.01778 0.102363,-0.01853 0.07031,-0.0016 0.121288,0.02394 0.157041,0.06974 0.07504,0.01849 0.136897,0.03841 0.187873,0.06227 0.08061,-0.133952 0.182676,-0.251038 0.284222,-0.322751 0.0057,-0.004 0.01143,-0.008 0.01712,-0.01187 -0.140872,-0.03751 -0.301421,-0.06172 -0.466894,-0.08594 -0.09698,-0.0142 -0.206542,-0.02209 -0.324159,-0.02498 z m 1.131577,0.09716 c -0.09119,-0.0024 -0.186679,0.03316 -0.297173,0.111196 -0.196433,0.138724 -0.398994,0.478325 -0.398994,0.732746 0,0.25442 0.03192,0.437848 0.182021,0.81934 0.150377,0.3814908 0.198067,0.4913458 0.329578,0.6156418 0.146771,0.138724 0.255827,0.06492 0.255827,0.06492 0,0 -0.221141,0.342371 -0.528831,0.65894 -0.297148,0.305748 -0.830939,0.823729 -1.027372,0.962453 -0.196434,0.138724 -0.323505,0.251962 -0.208087,0.268886 0.147326,0.02164 0.26163,-0.0059 0.41173,-0.144576 0.150099,-0.138724 0.498574,-0.462515 0.832345,-0.882849 0.199485,-0.251369 0.433404,-0.531869 0.64149,-0.832346 0.208087,-0.300476 0.580962,-0.7615755 0.685005,-0.9233285 0.104044,-0.161752 -0.01305,-0.135403 -0.03192,-0.11293 -0.145938,0.173406 -0.327919,0.377034 -0.479683,0.5418375 -0.150377,0.163417 -0.229762,0.0028 -0.229762,-0.2166475 0,-0.219463 -0.02027,-0.371524 0.06075,-0.706681 0.08102,-0.335158 0.174813,-0.780486 0.01306,-0.884529 -0.07077,-0.04552 -0.139061,-0.07024 -0.209984,-0.07207 z m -2.487769,0.0041 c -0.03806,0.0053 -0.07525,0.01071 -0.111412,0.01609 -0.14858,0.02208 -0.325434,0.05842 -0.512088,0.102039 0.03063,0.04288 0.06176,0.08748 0.09629,0.137369 0.146153,-0.02485 0.30467,-0.04341 0.467924,-0.0563 0.02001,-0.0684 0.0398,-0.135056 0.05928,-0.1992 z m 1.80374,1.503206 c -0.154118,0.220176 -0.357157,0.4534658 -0.567144,0.6690738 0.08565,0.03207 0.173762,0.06008 0.251384,0.08237 0.03599,0.01033 0.06977,0.01952 0.100141,0.02748 0.132214,-0.129737 0.257308,-0.260937 0.367349,-0.38561 -0.02365,-0.05763 -0.04967,-0.1232578 -0.0795,-0.1989288 -0.02778,-0.07061 -0.05168,-0.134879 -0.07223,-0.194376 z M 9.629479,10.627461 c -0.08109,0.07681 -0.160897,0.149259 -0.237024,0.215564 -0.583751,0.50884 -2.635759,2.023151 -2.635759,2.023151 0,0 -0.115692,0.16174 0.04606,0.0699 0.161752,-0.09267 0.46026,-0.269371 0.826492,-0.502983 0.398971,-0.25442 1.277396,-0.86705 1.820918,-1.266021 0.170929,-0.12547 0.354963,-0.278901 0.534521,-0.442563 -0.06305,-0.0094 -0.121504,-0.021 -0.169828,-0.0343 -0.05324,-0.01477 -0.116508,-0.03612 -0.185381,-0.06275 z"
     style="opacity:0.3;fill:#000000;fill-opacity:1;stroke-width:0.277449" />
  <path
     id="path2-7"
     d="m 8.276267,4.4983271 c -0.27939,-0.01055 -0.906978,0.153704 -1.227709,0.344589 -0.522435,0.310742 -0.92752,0.587878 -1.231881,1.088118 -0.294928,0.4855351 -0.268847,1.1314541 0,1.4349821 0.192549,0.217243 0.840396,0.749963 1.044875,0.880086 0.204479,0.130123 0.388982,0.401175 0.277448,0.754367 -0.111534,0.353192 -0.926083,0.719166 -1.465165,0.706681 -0.241526,-0.0057 -0.381745,-0.04862 -0.451341,-0.07874 -0.174495,-0.09014 -0.179398,-0.236553 -0.04948,-0.441804 0.109869,-0.173406 0.288017,-0.349861 0.699473,-0.566548 0.19721,-0.103775 0.516782,-0.220394 0.86876,-0.328928 -0.03652,-0.02578 -0.07907,-0.05722 -0.125719,-0.09277 -0.732469,0.2316 -1.267986,0.588454 -1.430864,0.751332 -0.09822,0.09822 -0.260218,0.329306 -0.283247,0.479683 -0.01661,0.108275 0.08702,0.240966 0.248024,0.317223 -0.02415,-0.02467 -0.04207,-0.0474 -0.05446,-0.06508 -0.0065,-0.0093 -0.01752,-0.02667 -0.02168,-0.03468 H 5.20032 c 0.05449,0.06573 0.180211,0.176884 0.414114,0.189879 0.334603,0.01859 0.713307,-0.110427 1.047909,-0.203372 C 6.996946,9.5403952 7.645085,9.2443472 7.92392,8.9657892 8.202756,8.6872312 8.271834,8.3875652 8.104533,8.1459072 7.937509,7.9045272 7.86314,7.7929972 7.695838,7.5885182 7.528537,7.3840382 7.689138,7.0039522 8.023791,6.7808832 8.358394,6.5578142 9.405477,5.9904481 9.647135,5.8045571 9.968143,5.5573511 9.871027,5.2157921 9.610505,4.9730251 9.459573,4.8323591 9.235137,4.6578591 9.033987,4.6001501 8.771798,4.5249601 8.547882,4.5085901 8.27626,4.4983281 Z m 1.504725,1.864757 c -0.05354,-0.0014 -0.112142,0.0091 -0.166036,0.02769 C 9.38939,6.4687341 9.184094,6.6651862 8.964633,7.0583302 8.74517,7.4514742 8.109257,10.013426 8.109257,10.048107 c 0,0 0.01138,0.161755 0.06936,0.02303 0.04011,-0.09643 0.213916,-0.5042838 0.429557,-0.9351418 0.0071,0.02431 0.01773,0.05068 0.03241,0.08004 0.08102,0.161752 0.132872,0.249972 0.375639,0.43503 0.242767,0.185058 0.61846,0.3512558 0.826547,0.4089658 0.208641,0.05743 0.497456,0.05744 0.497456,0.05744 0,0 -0.439201,-0.09239 -0.728302,-0.2427668 -0.289101,-0.150377 -0.603992,-0.37564 -0.638673,-0.514364 -0.03468,-0.138724 -0.02027,-0.236964 0.08378,-0.294951 0.104042,-0.05799 0.431995,-0.02162 0.640081,-0.09098 0.208087,-0.06936 0.342367,-0.10269 0.411729,-0.264443 0.06936,-0.161752 0.157587,-0.380084 0.134281,-0.541837 -0.01602,-0.111205 -0.04751,-0.15621 -0.114502,-0.15471 -0.03045,6.79e-4 -0.06821,0.01101 -0.115205,0.02904 -0.150378,0.05771 -0.455036,0.184226 -0.706681,0.312129 -0.157116,0.07984 -0.313338,0.184083 -0.43308,0.284656 0.01154,-0.01994 0.02313,-0.03965 0.03468,-0.05912 0.372891,-0.628698 0.780432,-1.31788 0.919156,-1.560647 0.138725,-0.242767 0.168962,-0.35127 0.134281,-0.533275 -0.0163,-0.08549 -0.09154,-0.1207831 -0.180775,-0.1231181 z m 0.200662,1.2323691 c -0.117618,-0.0029 -0.243315,-7.92e-4 -0.372442,0.005 -0.05144,0.08735 -0.106465,0.180671 -0.16376,0.277665 0.217048,0.0079 0.416818,0.02487 0.578632,0.04936 0.03458,-0.01052 0.06962,-0.01778 0.102363,-0.01853 0.07031,-0.0016 0.121288,0.02394 0.157041,0.06974 0.07504,0.01849 0.136897,0.03841 0.187873,0.06227 0.08061,-0.133952 0.182676,-0.251038 0.284222,-0.322751 0.0057,-0.004 0.01143,-0.008 0.01712,-0.01187 -0.140872,-0.03751 -0.301421,-0.06172 -0.466894,-0.08594 -0.09698,-0.0142 -0.206542,-0.02209 -0.324159,-0.02498 z m 1.131577,0.09716 c -0.09119,-0.0024 -0.186679,0.03316 -0.297173,0.111196 -0.196433,0.138724 -0.398994,0.478325 -0.398994,0.732746 0,0.25442 0.03192,0.437848 0.182021,0.81934 0.150377,0.381491 0.198067,0.491346 0.329578,0.615642 0.146771,0.1387238 0.255827,0.06492 0.255827,0.06492 0,0 -0.221141,0.342371 -0.528831,0.65894 -0.297148,0.305748 -0.830939,0.823729 -1.027372,0.962453 -0.196434,0.138724 -0.323505,0.251962 -0.208087,0.268886 0.147326,0.02164 0.26163,-0.0059 0.41173,-0.144576 0.150099,-0.138724 0.498574,-0.462515 0.832345,-0.882849 0.199485,-0.251369 0.433404,-0.531869 0.64149,-0.832346 0.208087,-0.300475 0.580962,-0.761575 0.685005,-0.923328 0.104044,-0.161752 -0.01305,-0.135403 -0.03192,-0.11293 -0.145938,0.173406 -0.327919,0.377034 -0.479683,0.541838 -0.150377,0.163417 -0.229762,0.0028 -0.229762,-0.216648 0,-0.219463 -0.02027,-0.371524 0.06075,-0.706681 0.08102,-0.335158 0.174813,-0.780486 0.01306,-0.884529 -0.07077,-0.04552 -0.139061,-0.07024 -0.209984,-0.07207 z m -2.487769,0.0041 c -0.03806,0.0053 -0.07525,0.01071 -0.111412,0.01609 -0.14858,0.02208 -0.325434,0.05842 -0.512088,0.102039 0.03063,0.04288 0.06176,0.08748 0.09629,0.137369 0.146153,-0.02485 0.30467,-0.04341 0.467924,-0.0563 0.02001,-0.0684 0.0398,-0.135056 0.05928,-0.1992 z m 1.80374,1.503206 c -0.154118,0.220176 -0.357157,0.453466 -0.567144,0.669074 0.08565,0.03207 0.173762,0.06008 0.251384,0.08237 0.03599,0.01033 0.06977,0.01952 0.100141,0.02748 0.132214,-0.129737 0.257308,-0.260937 0.367349,-0.38561 -0.02365,-0.05763 -0.04967,-0.123258 -0.0795,-0.198929 -0.02778,-0.07061 -0.05168,-0.134879 -0.07223,-0.194376 z M 9.629479,10.098322 c -0.08109,0.07681 -0.160897,0.149259 -0.237024,0.215564 -0.583751,0.50884 -2.635759,2.023151 -2.635759,2.023151 0,0 -0.115692,0.16174 0.04606,0.0699 0.161752,-0.09267 0.46026,-0.269371 0.826492,-0.502983 0.398971,-0.25442 1.277396,-0.86705 1.820918,-1.266021 0.170929,-0.12547 0.354963,-0.278901 0.534521,-0.442563 -0.06305,-0.0094 -0.121504,-0.021 -0.169828,-0.0343 C 9.761619,10.1463 9.698351,10.12495 9.629478,10.09832 Z"
     style="fill:currentColor;stroke-width:0.277449"
     class="ColorScheme-Text" />
  <ellipse
     style="fill:none;stroke:#000000;stroke-width:0.582072;stroke-dasharray:none;stroke-opacity:1;filter:url(#filter3-8)"
     id="path1-5-7"
     cx="8.4450111"
     cy="8.423522"
     rx="6.8752708"
     ry="6.8578653"
     transform="matrix(0.4782969,0,0,0.4782969,8.9000071,8.8280171)" />
  <ellipse
     style="fill:currentColor;fill-opacity:1;stroke:currentColor;stroke-width:0.278402;stroke-dasharray:none;stroke-opacity:1"
     id="path1-59"
     cx="12.939234"
     cy="12.856965"
     rx="3.2884204"
     ry="3.2800953"
     class="ColorScheme-Text" />
  <ellipse
     style="fill:currentColor;stroke:none;stroke-width:0.246622;stroke-dasharray:none;stroke-opacity:1"
     id="path1-2-2"
     cx="12.939234"
     cy="12.856965"
     rx="2.9130225"
     ry="2.9056478"
     class="ColorScheme-Highlight" />
  <path
     id="path1-36-3"
     style="fill:#000000;fill-opacity:1;stroke:none;stroke-width:0.124104;stroke-dasharray:none;stroke-dashoffset:2.2;stroke-opacity:0.3;opacity:0.3"
     d="m 14.021099,11.736685 c -0.06523,-2.7e-5 -0.135047,0.02623 -0.222431,0.07744 -0.207942,0.121835 -0.479893,0.179294 -0.853351,0.179294 -0.373425,0 -0.654446,-0.05868 -0.861152,-0.179813 -0.165749,-0.09713 -0.264703,-0.09842 -0.403809,-0.0046 -0.357127,0.240662 -0.62628,1.012267 -0.705238,2.020557 -0.04735,0.604628 -0.0031,0.923391 0.153311,1.102784 0.07546,0.08649 0.260665,0.07183 0.427716,-0.0343 0.141607,-0.08996 0.310333,-0.288477 0.511911,-0.602326 0.182153,-0.283608 0.40248,-0.377017 0.889733,-0.377816 0.486283,-7.65e-4 0.677387,0.09125 0.901686,0.436021 0.376321,0.578447 0.72416,0.779828 0.928191,0.537359 0.113031,-0.134326 0.133719,-0.264107 0.128366,-0.804479 -0.0098,-0.981615 -0.266353,-1.87461 -0.636118,-2.215438 -0.09848,-0.09078 -0.174941,-0.134569 -0.258815,-0.134604 z m -2.112591,0.578416 h 0.225551 0.22555 v 0.193324 0.193326 h 0.19333 0.193331 v 0.241656 0.241656 h -0.193331 -0.19333 v 0.209435 0.209435 h -0.204243 c -0.112206,0 -0.213221,-0.01005 -0.225032,-0.02182 -0.0118,-0.01181 -0.02182,-0.105569 -0.02182,-0.208914 v -0.188138 h -0.193337 -0.193331 v -0.241656 -0.241656 h 0.193331 0.193332 v -0.193326 z m 1.83871,0 c 0.203478,0 0.290618,0.225442 0.14396,0.372098 -0.09327,0.09326 -0.178394,0.100588 -0.270247,0.02287 -0.159321,-0.134809 -0.07616,-0.394964 0.126287,-0.394964 z m -0.391336,0.413154 c 0.05081,3.5e-5 0.101967,0.02029 0.142399,0.06495 0.06302,0.06964 0.06984,0.229093 0.013,0.303499 -0.111241,0.145623 -0.378344,0.05196 -0.378344,-0.13252 0,-0.140009 0.111172,-0.236016 0.22295,-0.23594 z m 0.798786,0.0078 c 0.05856,0.0011 0.115418,0.02047 0.148634,0.05716 0.06302,0.06964 0.06983,0.229092 0.013,0.303499 -0.118321,0.154886 -0.378346,0.05122 -0.378346,-0.150713 0,-0.06121 0.02453,-0.127549 0.05873,-0.158506 0.03909,-0.03538 0.09943,-0.05251 0.15799,-0.05145 z m -0.393417,0.416788 c 0.180393,0 0.268168,0.19134 0.159029,0.347153 -0.0373,0.05326 -0.08282,0.07171 -0.176699,0.07171 -0.108097,0 -0.133181,-0.01407 -0.176699,-0.09823 -0.08582,-0.165932 0.0078,-0.320649 0.194369,-0.320649 z" />
  <path
     id="path1-36"
     style="fill:currentColor;fill-opacity:1;stroke:none;stroke-width:0.124104;stroke-dasharray:none;stroke-dashoffset:2.2;stroke-opacity:0.3"
     d="m 14.021099,11.207529 c -0.06523,-2.7e-5 -0.135047,0.02623 -0.222431,0.07744 -0.207942,0.121835 -0.479893,0.179294 -0.853351,0.179294 -0.373425,0 -0.654446,-0.05868 -0.861152,-0.179813 -0.165749,-0.09713 -0.264703,-0.09842 -0.403809,-0.0046 -0.357127,0.240662 -0.62628,1.012267 -0.705238,2.020557 -0.04735,0.604628 -0.0031,0.923391 0.153311,1.102784 0.07546,0.08649 0.260665,0.07183 0.427716,-0.0343 0.141607,-0.08996 0.310333,-0.288477 0.511911,-0.602326 0.182153,-0.283608 0.40248,-0.377017 0.889733,-0.377816 0.486283,-7.65e-4 0.677387,0.09125 0.901686,0.436021 0.376321,0.578447 0.72416,0.779828 0.928191,0.537359 0.113031,-0.134326 0.133719,-0.264107 0.128366,-0.804479 -0.0098,-0.981615 -0.266353,-1.87461 -0.636118,-2.215438 -0.09848,-0.09078 -0.174941,-0.134569 -0.258815,-0.134604 z m -2.112591,0.578416 h 0.225551 0.22555 v 0.193324 0.193326 h 0.19333 0.193331 v 0.241656 0.241656 h -0.193331 -0.19333 v 0.209435 0.209435 h -0.204243 c -0.112206,0 -0.213221,-0.01005 -0.225032,-0.02182 -0.0118,-0.01181 -0.02182,-0.105569 -0.02182,-0.208914 v -0.188138 h -0.193337 -0.193331 v -0.241656 -0.241656 h 0.193331 0.193332 v -0.193326 z m 1.83871,0 c 0.203478,0 0.290618,0.225442 0.14396,0.372098 -0.09327,0.09326 -0.178394,0.100588 -0.270247,0.02287 -0.159321,-0.134809 -0.07616,-0.394964 0.126287,-0.394964 z m -0.391336,0.413154 c 0.05081,3.5e-5 0.101967,0.02029 0.142399,0.06495 0.06302,0.06964 0.06984,0.229093 0.013,0.303499 -0.111241,0.145623 -0.378344,0.05196 -0.378344,-0.13252 0,-0.140009 0.111172,-0.236016 0.22295,-0.23594 z m 0.798786,0.0078 c 0.05856,0.0011 0.115418,0.02047 0.148634,0.05716 0.06302,0.06964 0.06983,0.229092 0.013,0.303499 -0.118321,0.154886 -0.378346,0.05122 -0.378346,-0.150713 0,-0.06121 0.02453,-0.127549 0.05873,-0.158506 0.03909,-0.03538 0.09943,-0.05251 0.15799,-0.05145 z m -0.393417,0.416788 c 0.180393,0 0.268168,0.19134 0.159029,0.347153 -0.0373,0.05326 -0.08282,0.07171 -0.176699,0.07171 -0.108097,0 -0.133181,-0.01407 -0.176699,-0.09823 -0.08582,-0.165932 0.0078,-0.320649 0.194369,-0.320649 z"
     class="ColorScheme-Text" />
  <path
     id="gradient-path1"
     style="opacity:0.3;baseline-shift:baseline;display:inline;overflow:visible;vector-effect:none;enable-background:accumulate;stop-color:#000000;stop-opacity:1;fill:url(#linearGradient5)"
     d="M 8.4453131 1.2753492 C 4.4913166 1.2753492 1.2794833 4.4784283 1.2794833 8.4236094 C 1.2794833 12.36879 4.4913166 15.572386 8.4453131 15.572386 C 9.1638027 15.572386 9.8576697 15.466358 10.51233 15.269568 C 11.133159 15.890536 11.991864 16.275172 12.939524 16.275172 C 14.830708 16.275172 16.367154 14.744327 16.367154 12.85736 C 16.367154 11.897867 15.969699 11.029882 15.330545 10.408462 C 15.513101 9.7781514 15.611143 9.1121932 15.611143 8.4236094 C 15.611143 4.4784283 12.39931 1.2753492 8.4453131 1.2753492 z " />
</svg>
