<?xml version="1.0" encoding="UTF-8" standalone="no"?>
<svg
   width="64"
   height="64"
   version="1.1"
   viewBox="0 0 16.933 16.933"
   id="svg7"
   sodipodi:docname="steam_icon_379720.svg"
   inkscape:version="1.4.2 (ebf0e940d0, 2025-05-08)"
   xmlns:inkscape="http://www.inkscape.org/namespaces/inkscape"
   xmlns:sodipodi="http://sodipodi.sourceforge.net/DTD/sodipodi-0.dtd"
   xmlns:xlink="http://www.w3.org/1999/xlink"
   xmlns="http://www.w3.org/2000/svg"
   xmlns:svg="http://www.w3.org/2000/svg"
   xmlns:rdf="http://www.w3.org/1999/02/22-rdf-syntax-ns#"
   xmlns:cc="http://creativecommons.org/ns#"
   xmlns:dc="http://purl.org/dc/elements/1.1/">
  <sodipodi:namedview
     id="namedview7"
     pagecolor="#9c4444"
     bordercolor="#000000"
     borderopacity="0.25"
     inkscape:showpageshadow="2"
     inkscape:pageopacity="0.0"
     inkscape:pagecheckerboard="0"
     inkscape:deskcolor="#d1d1d1"
     inkscape:zoom="4.3531261"
     inkscape:cx="36.180895"
     inkscape:cy="25.958357"
     inkscape:window-width="2560"
     inkscape:window-height="1388"
     inkscape:window-x="0"
     inkscape:window-y="0"
     inkscape:window-maximized="1"
     inkscape:current-layer="svg7"
     showgrid="false" />
  <defs
     id="defs2">
    <filter
       style="color-interpolation-filters:sRGB;"
       inkscape:label="Blur"
       id="filter3"
       x="-0.10843471"
       y="-0.10870992"
       width="1.2168694"
       height="1.2174198">
      <feGaussianBlur
         stdDeviation="0.5 0.5"
         result="blur"
         id="feGaussianBlur3" />
    </filter>
    <filter
       style="color-interpolation-filters:sRGB"
       inkscape:label="Blur"
       id="filter3-8"
       x="-0.10843471"
       y="-0.10870992"
       width="1.2168694"
       height="1.2174198">
      <feGaussianBlur
         stdDeviation="0.5 0.5"
         result="blur"
         id="feGaussianBlur3-7" />
    </filter>
    <style
       id="current-color-scheme"
       type="text/css">.ColorScheme-Text {color:#d8dee9} .ColorScheme-Highlight {color:#3b4252}</style>
    <linearGradient
       id="linearGradient4"
       inkscape:collect="always">
      <stop
         style="stop-color:#000000;stop-opacity:1;"
         offset="0"
         id="stop4" />
      <stop
         style="stop-color:#000000;stop-opacity:0;"
         offset="1"
         id="stop5" />
    </linearGradient>
    <linearGradient
       inkscape:collect="always"
       xlink:href="#linearGradient4"
       id="linearGradient5"
       x1="14.157616"
       y1="14.109557"
       x2="3.4890218"
       y2="3.440964"
       gradientUnits="userSpaceOnUse" />
  </defs>
  <metadata
     id="metadata2">
    <rdf:RDF>
      <cc:Work
         rdf:about="">
        <dc:format>image/svg+xml</dc:format>
        <dc:type
           rdf:resource="http://purl.org/dc/dcmitype/StillImage" />
      </cc:Work>
    </rdf:RDF>
  </metadata>
  <ellipse
     style="opacity:1;fill:none;stroke:#000000;stroke-width:0.582072;stroke-dasharray:none;stroke-opacity:1;filter:url(#filter3)"
     id="path1-5"
     cx="8.4450111"
     cy="8.423522"
     rx="6.8752708"
     ry="6.8578653" />
  <ellipse
     style="opacity:1;fill:none;stroke-width:0.58207188;stroke-opacity:1;stroke:currentColor;stroke-dasharray:none;fill-opacity:1"
     id="path1"
     cx="8.4450111"
     cy="8.423522"
     rx="6.8752708"
     ry="6.8578653"
     class="ColorScheme-Text" />
  <ellipse
     style="fill:currentColor;stroke:none;stroke-width:0.285728;stroke-dasharray:none;stroke-opacity:1"
     id="path1-2"
     cx="8.4450111"
     cy="8.423522"
     rx="6.5766377"
     ry="6.5612183"
     class="ColorScheme-Highlight" />
  <path
     id="path3347"
     d="m 12.297272,10.989249 -0.0022,-1.7806548 -0.2847,0.9947888 -0.284333,-0.9902452 -0.0022,1.3516902 -0.928357,-0.6962707 0.07038,-0.052795 -0.0034,-3.4658137 0.882411,0.00203 0.264504,0.9265341 0.264898,-0.9277763 1.305423,0.00404 -0.428364,0.320074 -6.76e-4,4.9580636 z M 3.786729,6.6745399 3.353302,6.349875 l 2.443028,0.00337 0.279616,0.213601 2.28e-4,3.2478448 0.07408,0.053672 -2.362957,1.7730722 z m 1.433784,2.5338452 -6.75e-4,-1.8743816 -0.06549,-0.05347 -0.508005,0.0027 -0.0012,2.3570178 z m 0.927763,0.5039563 -4.32e-4,-3.145888 0.286568,-0.2147555 1.714912,-9.46e-5 0.286001,0.21564 0.0012,3.6402647 -0.811042,0.60999 z m 1.358362,-2.4336707 -0.432522,0.0027 -0.06755,0.051916 6.74e-4,1.8756643 0.568113,0.4261019 0.0012,-2.30074 z m 1.00332,2.9322403 -0.0022,-3.6453421 0.285629,-0.2145259 1.717181,0.00134 0.287451,0.2147692 -0.0022,3.1386036 -1.469195,1.1107332 z m 1.4285,-1.0029108 -1.82e-4,-1.8751984 -0.07227,-0.055225 -0.431841,0.00134 -0.06943,0.053469 0.004,2.2970808 z"
     style="opacity:0.3;fill:#000000;fill-opacity:1;stroke:none;stroke-width:0.00608776" />
  <path
     id="path3347-6"
     class="ColorScheme-Text"
     d="m 12.297272,10.460094 -0.0022,-1.780655 -0.2847,0.9947887 -0.284333,-0.9902451 -0.0022,1.3516904 -0.928357,-0.6962709 0.07038,-0.052795 -0.0034,-3.4658138 0.882411,0.00203 0.264504,0.9265341 0.264898,-0.9277763 1.305423,0.00404 -0.428364,0.320074 -6.76e-4,4.9580639 z M 3.786729,6.1453847 3.353302,5.8207198 l 2.443028,0.00337 0.279616,0.213601 2.28e-4,3.2478448 0.07408,0.053672 -2.362957,1.7730724 z m 1.433784,2.5338452 -6.75e-4,-1.8743816 -0.06549,-0.05347 -0.508005,0.0027 -0.0012,2.3570178 z m 0.927763,0.5039564 -4.32e-4,-3.1458881 0.286568,-0.2147555 1.714912,-9.46e-5 0.286001,0.21564 0.0012,3.6402648 -0.811042,0.6099901 z m 1.358362,-2.4336708 -0.432522,0.0027 -0.06755,0.051916 6.74e-4,1.8756643 0.568113,0.4261019 0.0012,-2.30074 z m 1.00332,2.9322399 -0.0022,-3.6453417 0.285629,-0.2145259 1.717181,0.00134 0.287451,0.2147692 -0.0022,3.1386036 -1.469195,1.1107334 z m 1.4285,-1.0029104 -1.82e-4,-1.8751984 -0.07227,-0.055225 -0.431841,0.00134 -0.06943,0.053469 0.004,2.2970808 z"
     style="fill:currentColor;fill-opacity:1;stroke:none;stroke-width:0.00608776"
     inkscape:label="path3347-6" />
  <ellipse
     style="fill:none;stroke:#000000;stroke-width:0.582072;stroke-dasharray:none;stroke-opacity:1;filter:url(#filter3-8)"
     id="path1-5-7"
     cx="8.4450111"
     cy="8.423522"
     rx="6.8752708"
     ry="6.8578653"
     transform="matrix(0.4782969,0,0,0.4782969,8.9000071,8.8280171)" />
  <ellipse
     style="fill:currentColor;fill-opacity:1;stroke:currentColor;stroke-width:0.278402;stroke-dasharray:none;stroke-opacity:1"
     id="path1-59"
     cx="12.939234"
     cy="12.856965"
     rx="3.2884204"
     ry="3.2800953"
     class="ColorScheme-Text" />
  <ellipse
     style="fill:currentColor;stroke:none;stroke-width:0.246622;stroke-dasharray:none;stroke-opacity:1"
     id="path1-2-2"
     cx="12.939234"
     cy="12.856965"
     rx="2.9130225"
     ry="2.9056478"
     class="ColorScheme-Highlight" />
  <path
     id="path1-36-3"
     style="fill:#000000;fill-opacity:1;stroke:none;stroke-width:0.124104;stroke-dasharray:none;stroke-dashoffset:2.2;stroke-opacity:0.3;opacity:0.3"
     d="m 14.021099,11.736685 c -0.06523,-2.7e-5 -0.135047,0.02623 -0.222431,0.07744 -0.207942,0.121835 -0.479893,0.179294 -0.853351,0.179294 -0.373425,0 -0.654446,-0.05868 -0.861152,-0.179813 -0.165749,-0.09713 -0.264703,-0.09842 -0.403809,-0.0046 -0.357127,0.240662 -0.62628,1.012267 -0.705238,2.020557 -0.04735,0.604628 -0.0031,0.923391 0.153311,1.102784 0.07546,0.08649 0.260665,0.07183 0.427716,-0.0343 0.141607,-0.08996 0.310333,-0.288477 0.511911,-0.602326 0.182153,-0.283608 0.40248,-0.377017 0.889733,-0.377816 0.486283,-7.65e-4 0.677387,0.09125 0.901686,0.436021 0.376321,0.578447 0.72416,0.779828 0.928191,0.537359 0.113031,-0.134326 0.133719,-0.264107 0.128366,-0.804479 -0.0098,-0.981615 -0.266353,-1.87461 -0.636118,-2.215438 -0.09848,-0.09078 -0.174941,-0.134569 -0.258815,-0.134604 z m -2.112591,0.578416 h 0.225551 0.22555 v 0.193324 0.193326 h 0.19333 0.193331 v 0.241656 0.241656 h -0.193331 -0.19333 v 0.209435 0.209435 h -0.204243 c -0.112206,0 -0.213221,-0.01005 -0.225032,-0.02182 -0.0118,-0.01181 -0.02182,-0.105569 -0.02182,-0.208914 v -0.188138 h -0.193337 -0.193331 v -0.241656 -0.241656 h 0.193331 0.193332 v -0.193326 z m 1.83871,0 c 0.203478,0 0.290618,0.225442 0.14396,0.372098 -0.09327,0.09326 -0.178394,0.100588 -0.270247,0.02287 -0.159321,-0.134809 -0.07616,-0.394964 0.126287,-0.394964 z m -0.391336,0.413154 c 0.05081,3.5e-5 0.101967,0.02029 0.142399,0.06495 0.06302,0.06964 0.06984,0.229093 0.013,0.303499 -0.111241,0.145623 -0.378344,0.05196 -0.378344,-0.13252 0,-0.140009 0.111172,-0.236016 0.22295,-0.23594 z m 0.798786,0.0078 c 0.05856,0.0011 0.115418,0.02047 0.148634,0.05716 0.06302,0.06964 0.06983,0.229092 0.013,0.303499 -0.118321,0.154886 -0.378346,0.05122 -0.378346,-0.150713 0,-0.06121 0.02453,-0.127549 0.05873,-0.158506 0.03909,-0.03538 0.09943,-0.05251 0.15799,-0.05145 z m -0.393417,0.416788 c 0.180393,0 0.268168,0.19134 0.159029,0.347153 -0.0373,0.05326 -0.08282,0.07171 -0.176699,0.07171 -0.108097,0 -0.133181,-0.01407 -0.176699,-0.09823 -0.08582,-0.165932 0.0078,-0.320649 0.194369,-0.320649 z" />
  <path
     id="path1-36"
     style="fill:currentColor;fill-opacity:1;stroke:none;stroke-width:0.124104;stroke-dasharray:none;stroke-dashoffset:2.2;stroke-opacity:0.3"
     d="m 14.021099,11.207529 c -0.06523,-2.7e-5 -0.135047,0.02623 -0.222431,0.07744 -0.207942,0.121835 -0.479893,0.179294 -0.853351,0.179294 -0.373425,0 -0.654446,-0.05868 -0.861152,-0.179813 -0.165749,-0.09713 -0.264703,-0.09842 -0.403809,-0.0046 -0.357127,0.240662 -0.62628,1.012267 -0.705238,2.020557 -0.04735,0.604628 -0.0031,0.923391 0.153311,1.102784 0.07546,0.08649 0.260665,0.07183 0.427716,-0.0343 0.141607,-0.08996 0.310333,-0.288477 0.511911,-0.602326 0.182153,-0.283608 0.40248,-0.377017 0.889733,-0.377816 0.486283,-7.65e-4 0.677387,0.09125 0.901686,0.436021 0.376321,0.578447 0.72416,0.779828 0.928191,0.537359 0.113031,-0.134326 0.133719,-0.264107 0.128366,-0.804479 -0.0098,-0.981615 -0.266353,-1.87461 -0.636118,-2.215438 -0.09848,-0.09078 -0.174941,-0.134569 -0.258815,-0.134604 z m -2.112591,0.578416 h 0.225551 0.22555 v 0.193324 0.193326 h 0.19333 0.193331 v 0.241656 0.241656 h -0.193331 -0.19333 v 0.209435 0.209435 h -0.204243 c -0.112206,0 -0.213221,-0.01005 -0.225032,-0.02182 -0.0118,-0.01181 -0.02182,-0.105569 -0.02182,-0.208914 v -0.188138 h -0.193337 -0.193331 v -0.241656 -0.241656 h 0.193331 0.193332 v -0.193326 z m 1.83871,0 c 0.203478,0 0.290618,0.225442 0.14396,0.372098 -0.09327,0.09326 -0.178394,0.100588 -0.270247,0.02287 -0.159321,-0.134809 -0.07616,-0.394964 0.126287,-0.394964 z m -0.391336,0.413154 c 0.05081,3.5e-5 0.101967,0.02029 0.142399,0.06495 0.06302,0.06964 0.06984,0.229093 0.013,0.303499 -0.111241,0.145623 -0.378344,0.05196 -0.378344,-0.13252 0,-0.140009 0.111172,-0.236016 0.22295,-0.23594 z m 0.798786,0.0078 c 0.05856,0.0011 0.115418,0.02047 0.148634,0.05716 0.06302,0.06964 0.06983,0.229092 0.013,0.303499 -0.118321,0.154886 -0.378346,0.05122 -0.378346,-0.150713 0,-0.06121 0.02453,-0.127549 0.05873,-0.158506 0.03909,-0.03538 0.09943,-0.05251 0.15799,-0.05145 z m -0.393417,0.416788 c 0.180393,0 0.268168,0.19134 0.159029,0.347153 -0.0373,0.05326 -0.08282,0.07171 -0.176699,0.07171 -0.108097,0 -0.133181,-0.01407 -0.176699,-0.09823 -0.08582,-0.165932 0.0078,-0.320649 0.194369,-0.320649 z"
     class="ColorScheme-Text" />
  <path
     id="gradient-path1"
     style="opacity:0.3;baseline-shift:baseline;display:inline;overflow:visible;vector-effect:none;enable-background:accumulate;stop-color:#000000;stop-opacity:1;fill:url(#linearGradient5)"
     d="M 8.4453131 1.2753492 C 4.4913166 1.2753492 1.2794833 4.4784283 1.2794833 8.4236094 C 1.2794833 12.36879 4.4913166 15.572386 8.4453131 15.572386 C 9.1638027 15.572386 9.8576697 15.466358 10.51233 15.269568 C 11.133159 15.890536 11.991864 16.275172 12.939524 16.275172 C 14.830708 16.275172 16.367154 14.744327 16.367154 12.85736 C 16.367154 11.897867 15.969699 11.029882 15.330545 10.408462 C 15.513101 9.7781514 15.611143 9.1121932 15.611143 8.4236094 C 15.611143 4.4784283 12.39931 1.2753492 8.4453131 1.2753492 z " />
</svg>
