<?xml version="1.0" encoding="UTF-8" standalone="no"?>
<svg
   width="64"
   height="64"
   version="1.1"
   viewBox="0 0 16.933 16.933"
   id="svg7"
   sodipodi:docname="steam_icon_1262560.svg"
   inkscape:version="1.4.2 (ebf0e940d0, 2025-05-08)"
   xmlns:inkscape="http://www.inkscape.org/namespaces/inkscape"
   xmlns:sodipodi="http://sodipodi.sourceforge.net/DTD/sodipodi-0.dtd"
   xmlns:xlink="http://www.w3.org/1999/xlink"
   xmlns="http://www.w3.org/2000/svg"
   xmlns:svg="http://www.w3.org/2000/svg"
   xmlns:rdf="http://www.w3.org/1999/02/22-rdf-syntax-ns#"
   xmlns:cc="http://creativecommons.org/ns#"
   xmlns:dc="http://purl.org/dc/elements/1.1/">
  <sodipodi:namedview
     id="namedview7"
     pagecolor="#9c4444"
     bordercolor="#000000"
     borderopacity="0.25"
     inkscape:showpageshadow="2"
     inkscape:pageopacity="0.0"
     inkscape:pagecheckerboard="0"
     inkscape:deskcolor="#d1d1d1"
     inkscape:zoom="4.3531261"
     inkscape:cx="36.066035"
     inkscape:cy="26.188077"
     inkscape:window-width="2560"
     inkscape:window-height="1376"
     inkscape:window-x="0"
     inkscape:window-y="0"
     inkscape:window-maximized="1"
     inkscape:current-layer="svg7"
     showgrid="false" />
  <defs
     id="defs2">
    <filter
       style="color-interpolation-filters:sRGB;"
       inkscape:label="Blur"
       id="filter3"
       x="-0.10843471"
       y="-0.10870992"
       width="1.2168694"
       height="1.2174198">
      <feGaussianBlur
         stdDeviation="0.5 0.5"
         result="blur"
         id="feGaussianBlur3" />
    </filter>
    <filter
       style="color-interpolation-filters:sRGB"
       inkscape:label="Blur"
       id="filter3-8"
       x="-0.10843471"
       y="-0.10870992"
       width="1.2168694"
       height="1.2174198">
      <feGaussianBlur
         stdDeviation="0.5 0.5"
         result="blur"
         id="feGaussianBlur3-7" />
    </filter>
    <style
       id="current-color-scheme"
       type="text/css">.ColorScheme-Text {color:#d8dee9} .ColorScheme-Highlight {color:#3b4252}</style>
    <linearGradient
       id="linearGradient4"
       inkscape:collect="always">
      <stop
         style="stop-color:#000000;stop-opacity:1;"
         offset="0"
         id="stop4" />
      <stop
         style="stop-color:#000000;stop-opacity:0;"
         offset="1"
         id="stop5" />
    </linearGradient>
    <linearGradient
       inkscape:collect="always"
       xlink:href="#linearGradient4"
       id="linearGradient5"
       x1="14.157616"
       y1="14.109557"
       x2="3.4890218"
       y2="3.440964"
       gradientUnits="userSpaceOnUse" />
  </defs>
  <metadata
     id="metadata2">
    <rdf:RDF>
      <cc:Work
         rdf:about="">
        <dc:format>image/svg+xml</dc:format>
        <dc:type
           rdf:resource="http://purl.org/dc/dcmitype/StillImage" />
      </cc:Work>
    </rdf:RDF>
  </metadata>
  <ellipse
     style="opacity:1;fill:none;stroke:#000000;stroke-width:0.582072;stroke-dasharray:none;stroke-opacity:1;filter:url(#filter3)"
     id="path1-5"
     cx="8.4450111"
     cy="8.423522"
     rx="6.8752708"
     ry="6.8578653" />
  <ellipse
     style="opacity:1;fill:none;stroke-width:0.58207188;stroke-opacity:1;stroke:currentColor;stroke-dasharray:none;fill-opacity:1"
     id="path1"
     cx="8.4450111"
     cy="8.423522"
     rx="6.8752708"
     ry="6.8578653"
     class="ColorScheme-Text" />
  <ellipse
     style="fill:currentColor;stroke:none;stroke-width:0.285728;stroke-dasharray:none;stroke-opacity:1"
     id="path1-2"
     cx="8.4450111"
     cy="8.423522"
     rx="6.5766377"
     ry="6.5612183"
     class="ColorScheme-Highlight" />
  <path
     id="path5-6"
     style="opacity:0.3;fill:#000000;fill-opacity:1;fill-rule:evenodd;stroke-width:0.0499759"
     d="M 7.056678,5.4680361 3.968672,10.817141 6.188115,9.3427085 7.74501,6.6454851 h 1.705957 c 0.201136,0 0.242113,0.134573 0.15416,0.290183 l -0.123838,0.219053 1.936343,-1.286267 c -0.05163,-0.307361 -0.327716,-0.400418 -0.6923,-0.400418 z m 5.90765,0 -6.448626,4.2841578 H 9.601443 L 11.081825,7.1873101 Z M 5.180693,11.119509 4.986295,11.464383 h 0.04846 l 0.192133,-0.338923 8.48e-4,2.8e-4 0.02693,0.338641 H 5.471171 L 5.665854,11.119509 H 5.617394 L 5.445948,11.42301 h -0.02267 l -0.0238,-0.303501 z m 0.599069,0 -0.194399,0.344874 h 0.384264 l 0.01928,-0.03429 h -0.23294 l 0.07169,-0.127238 h 0.213387 l 0.01955,-0.03429 h -0.2131 l 0.06404,-0.114212 v -5.61e-4 h 5.59e-4 0.232373 l 0.01955,-0.03428 z m 0.4877,0 -0.194401,0.344874 h 0.384266 l 0.01926,-0.03429 H 6.243654 l 0.07169,-0.127238 H 6.52873 l 0.01956,-0.03429 H 6.335471 l 0.06376,-0.114204 2.79e-4,-5.61e-4 h 2.8e-4 0.232373 l 0.01955,-0.03429 z m 0.487698,0 -0.194399,0.344874 h 0.35366 5.6e-4 c 0.07307,-5.2e-5 0.128284,-0.03244 0.164361,-0.09607 l 0.09351,-0.166061 c 0.01612,-0.02861 0.02094,-0.0503 0.01417,-0.06264 -0.0065,-0.01292 -0.02816,-0.01996 -0.06235,-0.02012 z m 0.582632,0 -0.117886,0.209136 h 0.08501 l 0.05752,-0.102585 h 0.135457 l 0.0068,-0.0119 H 7.369556 l 0.04619,-0.08275 H 7.56367 l 0.0068,-0.0119 z m 0.372647,0 c -0.04481,4.3e-5 -0.07884,0.01991 -0.100889,0.05866 L 7.55033,11.28358 c -0.0091,0.01724 -0.01128,0.02817 -0.0074,0.03485 0.0039,0.0068 0.0147,0.0099 0.03401,0.0102 h 0.178247 c 0.04453,-4e-5 0.07832,-0.01965 0.100319,-0.05838 l 0.05923,-0.105698 c 0.0093,-0.01769 0.01164,-0.02812 0.0076,-0.03485 -0.0039,-0.0068 -0.0144,-0.0099 -0.03372,-0.0102 z m 0.308885,0 -0.117886,0.209136 h 0.08501 l 0.05752,-0.102585 h 0.05752 5.59e-4 v 5.59e-4 l -0.0025,0.102298 h 0.09891 l -0.0062,-0.102298 v -5.59e-4 h 5.6e-4 c 0.04863,-1.99e-4 0.06027,-0.01381 0.06887,-0.02891 l 0.02579,-0.04505 v -5.61e-4 h 2.8e-4 c 0.007,-0.01152 0.0089,-0.01852 0.0065,-0.02295 h -2.79e-4 c -0.0036,-0.0065 -0.01684,-0.0083 -0.04024,-0.009 z m 0.518021,0 c -0.02955,0 -0.05706,0.0078 -0.08161,0.02324 -0.02163,0.01371 -0.03972,0.03292 -0.05243,0.05526 l -0.04988,0.08897 -0.0043,0.009 c -0.0044,0.0091 -0.0082,0.01711 -0.0094,0.02324 -0.0011,0.0056 -2.8e-4,0.01031 8.49e-4,0.01274 v 2.8e-4 2.79e-4 h 2.8e-4 v 2.8e-4 c 0.0036,0.0052 0.01584,0.01152 0.05384,0.01165 h 0.15671 c 0.01867,-0.0012 0.03061,0.002 0.0357,0.0097 0.0042,0.0063 0.0037,0.01523 -0.002,0.02664 l -2.81e-4,5.61e-4 v 2.8e-4 l -0.01417,0.02521 h -2.8e-4 v 2.8e-4 c -0.0099,0.01772 -0.02202,0.02334 -0.04959,0.02295 H 7.153726 l -0.01926,0.03429 h 1.449211 2.8e-4 c 0.0346,-4e-5 0.06344,-0.0067 0.08785,-0.0204 0.02374,-0.01342 0.04264,-0.03315 0.05809,-0.06036 l 0.05498,-0.09777 c 0.01021,-0.01837 0.01081,-0.03021 0.002,-0.0374 -0.01057,-0.0089 -0.03364,-0.01357 -0.0666,-0.0136 H 8.583975 c -0.01948,0.0012 -0.03213,-0.0021 -0.0374,-0.01 -0.004,-0.0059 -0.0038,-0.01428 0.0011,-0.02495 v -5.6e-4 l 2.8e-4,-2.78e-4 0.0136,-0.02324 c 0.0096,-0.01694 0.02241,-0.02229 0.05243,-0.02211 h 0.244839 l 0.01955,-0.03429 H 8.537526 Z m 0.447743,0 -0.194399,0.344874 h 0.151608 l 0.07482,-0.132622 h 0.206869 c 0.07097,-1.14e-4 0.119787,-0.02583 0.149058,-0.0785 l 2.8e-4,-2.81e-4 0.03656,-0.06489 c 0.01481,-0.02672 0.01847,-0.0445 0.01081,-0.05327 -0.0078,-0.0099 -0.03102,-0.0152 -0.06688,-0.0153 z m 0.570163,0 -2.8e-4,2.79e-4 -0.194399,0.344592 H 9.74512 l 0.019,-0.03429 H 9.532023 9.531462 l 5.61e-4,-5.6e-4 0.07112,-0.126386 2.8e-4,-2.81e-4 h 2.81e-4 0.212819 l 0.01956,-0.03429 H 9.62383 9.623271 l 2.81e-4,-5.6e-4 0.06376,-0.113635 v -5.59e-4 h 5.59e-4 0.232373 l 0.01927,-0.03429 z m 0.487983,0 -2.8e-4,2.79e-4 -0.194683,0.344592 h 0.384548 l 0.019,-0.03429 h -0.231806 -5.6e-4 l 2.8e-4,-5.6e-4 0.07113,-0.126386 2.79e-4,-2.81e-4 h 2.81e-4 0.21282 l 0.01956,-0.03429 h -0.212255 -5.6e-4 l 2.81e-4,-5.6e-4 0.06376,-0.113635 -2.8e-4,-5.59e-4 h 2.8e-4 l 2.8e-4,-2.8e-4 2.8e-4,2.8e-4 h 0.23209 l 0.01983,-0.03429 z m 0.4877,0 -0.194401,0.344874 h 0.353661 2.79e-4 c 0.07306,-5.2e-5 0.128517,-0.03215 0.164644,-0.09578 l 0.09322,-0.166061 v -2.8e-4 c 0.01612,-0.02861 0.02096,-0.05029 0.01417,-0.06263 -0.0065,-0.01293 -0.02784,-0.01996 -0.06206,-0.02012 z m -2.723578,0.01165 c 0.01152,7.8e-5 0.01984,0.0037 0.0238,0.01 0.004,0.0063 0.0032,0.0153 -0.0023,0.02521 v 2.8e-4 l -0.07257,0.128376 v 2.81e-4 l -2.81e-4,2.8e-4 c -0.0085,0.01466 -0.02203,0.02136 -0.04251,0.02125 h -0.051 c -0.01416,9.69e-4 -0.02436,-0.0023 -0.02891,-0.0097 -0.004,-0.0063 -0.0031,-0.0153 0.0025,-0.02521 l 0.072309,-0.128655 h 2.79e-4 v -2.8e-4 l 2.81e-4,-2.79e-4 c 0.0085,-0.01462 0.02204,-0.02136 0.04251,-0.02126 h 0.05073 c 0.0018,-1.24e-4 0.0034,-3e-4 0.0051,-2.8e-4 z m 0.370378,0 c 0.0014,-6.6e-5 0.0026,-9.3e-5 0.0039,0 0.0077,5.59e-4 0.01332,0.0031 0.01615,0.0073 0.0039,0.0057 0.0029,0.0145 -0.0029,0.02607 v 2.78e-4 l -2.8e-4,5.61e-4 -0.01587,0.02862 c -0.01128,0.02046 -0.01752,0.02026 -0.03514,0.02012 h -0.0014 -0.09097 v -2.81e-4 l 0.04619,-0.08247 h 0.07566 c 0.0015,-1.18e-4 0.0031,-2.2e-4 0.0045,-2.8e-4 z m -1.290517,0.02266 H 6.98895 c 0.01959,-0.001 0.03294,0.0033 0.03854,0.01247 0.0048,0.0078 0.0034,0.0184 -0.0037,0.0309 v 2.79e-4 L 6.909585,11.40037 h -2.8e-4 c -0.01206,0.02068 -0.0306,0.02986 -0.06036,0.02975 H 6.731352 Z m 2.229644,0 h 5.58e-4 0.10627 5.6e-4 2.8e-4 v 2.79e-4 c 0.01738,1.21e-4 0.02819,0.0037 0.03258,0.01128 0.0049,0.0084 0.002,0.02148 -0.0085,0.03967 l -0.03146,0.0564 c -0.01709,0.03142 -0.02846,0.03608 -0.05866,0.03599 H 9.036071 l 0.08077,-0.143107 z m 1.546129,2.79e-4 h 0.101734 c 0.01954,-9.69e-4 0.03294,0.0033 0.03855,0.01247 0.0048,0.0078 0.0034,0.01841 -0.0037,0.0309 v 2.81e-4 l -0.113919,0.20205 -2.81e-4,2.81e-4 -2.79e-4,2.79e-4 c -0.01211,0.02066 -0.03068,0.02986 -0.06036,0.02975 h -0.117623 z m -6.148242,0.378325 -0.546076,0.990701 h 8.44958 l 0.546075,-0.990701 z m 7.352894,0.07793 h 0.536724 c 0.0451,0 0.05951,0.04061 0.03146,0.09153 L 12.20402,12.1125 c -0.02802,0.05091 -0.08868,0.09125 -0.133754,0.09125 h -0.537292 l 0.253059,-0.452276 h 0.25306 l -0.200918,0.360177 h 0.07226 c 0.02324,0 0.05298,-0.01926 0.06772,-0.04477 l 0.175978,-0.317954 c 0.01225,-0.02266 0.0065,-0.04234 -0.01246,-0.0445 l 2.81e-4,-5.59e-4 h -0.32929 z m -6.951059,0.0059 h 0.251926 l -0.07595,0.140327 0.191849,-0.140273 h 0.16918 c 0.04511,0 0.05944,0.04061 0.03145,0.09153 l -0.02664,0.04676 0.0022,0.002 0.191849,-0.140274 h 0.168895 c 0.04511,0 0.05946,0.04061 0.03146,0.09154 L 5.481847,12.365617 H 5.312389 c -0.04646,0 -0.06085,-0.04031 -0.03145,-0.09125 l 0.282526,-0.500449 -0.1927,0.145941 -0.246541,0.445758 H 5.114014 4.87144 4.86123 l 0.334413,-0.591699 -0.1927,0.145941 -0.246825,0.445758 H 4.503617 Z m 1.177166,0 h 0.453693 c 0.0451,0 0.05915,0.04061 0.03117,0.09153 L 6.346805,12.1184 c -0.02801,0.05091 -0.08868,0.09125 -0.133757,0.09125 H 5.759355 c -0.04647,0 -0.06086,-0.04032 -0.03146,-0.09125 l 0.202054,-0.366923 h 0.253909 l -0.177101,0.322208 c -0.0147,0.02552 -0.0074,0.04505 0.01587,0.04505 h 0.03004 c 0.02323,0 0.05274,-0.01953 0.06744,-0.04505 l 0.178531,-0.324781 c 0.01295,-0.02396 0.0061,-0.04505 -0.01587,-0.04505 H 5.958865 c 0.0318,-0.04139 0.09459,-0.08756 0.134889,-0.08756 z m 0.71752,0 h 2.8e-4 0.490534 l -0.0513,0.08756 H 6.970519 c -0.02182,0 -0.05308,0.02111 -0.06603,0.04505 l -0.03542,0.06292 c -0.01428,0.02481 -0.0076,0.04373 0.01417,0.04477 l -2.8e-4,8.47e-4 h 0.245975 c 0.04509,0 0.05947,0.0406 0.03145,0.09154 l -0.09493,0.168046 c -0.02801,0.05093 -0.08898,0.09152 -0.134039,0.09152 l -0.536725,0.0012 0.05129,-0.08756 h 0.322772 c 0.02322,0 0.05275,-0.01955 0.06744,-0.04505 l 0.04392,-0.08701 c 0.01292,-0.02394 0.0061,-0.04505 -0.01587,-0.04505 H 6.72142 6.62251 c -0.04645,0 -0.06059,-0.04031 -0.03117,-0.09125 l 0.08473,-0.145943 c 0.02941,-0.05093 0.08869,-0.09153 0.135173,-0.09153 z m 0.530774,0 h 0.696268 l -0.0513,0.08756 H 7.806782 c -0.01697,0 -0.03963,0.01279 -0.05498,0.02975 h -0.002 L 7.489703,12.209679 H 7.23721 L 7.514074,11.703856 H 7.290769 Z m 0.86998,0 h 0.253059 l -0.369245,0.658295 h 0.07085 c 0.02051,0 0.04571,-0.01519 0.06149,-0.03627 l 0.35026,-0.622045 H 8.831213 L 8.46168,12.274529 H 8.5328 c 0.02326,0 0.05275,-0.01954 0.06744,-0.04505 l 0.344316,-0.613242 h 0.252776 l -0.370379,0.658011 c -0.028,0.05095 -0.08868,0.09125 -0.133756,0.09125 H 7.792328 Z m 1.080532,0 h 0.537009 c 0.04513,0 0.05922,0.04061 0.03116,0.09153 L 9.579906,12.209695 H 9.326279 l 0.09323,-0.167762 H 9.305305 l -0.09351,0.167762 H 8.95817 l 0.252776,-0.452276 h 0.253059 l -0.107113,0.192133 h 0.113919 l 0.108254,-0.194683 c 0.01227,-0.02266 0.0066,-0.04235 -0.01246,-0.0445 l 2.81e-4,-5.59e-4 H 9.237879 Z m 0.715824,0 h 0.251925 l -0.07595,0.140273 0.19185,-0.140273 h 0.169178 c 0.04511,0 0.05941,0.04061 0.03146,0.09153 l -0.283101,0.501867 h -0.252493 l 0.24626,-0.435841 -0.192701,0.145942 -0.158976,0.289899 h -0.25249 z m 0.662546,0 h 0.566195 l -0.0513,0.08756 h -0.144524 c -0.01699,0 -0.03964,0.01279 -0.05498,0.02975 h -0.002 l -0.260126,0.476074 h -0.252775 l 0.277147,-0.505822 h -0.12894 z m 0.682665,0 h 0.430172 l -0.053,0.08756 h -0.218767 c -0.02188,0 -0.05308,0.02111 -0.06602,0.04505 l -0.06036,0.107684 h 0.209135 l -0.05016,0.09238 h -0.208853 l -0.07226,0.123838 c -0.01468,0.02552 -0.0071,0.04477 0.01615,0.04477 h 0.218487 l -0.04987,0.0921 h -0.429033 c -0.04644,0 -0.06082,-0.04032 -0.03146,-0.09125 l 0.230388,-0.410619 c 0.02939,-0.05093 0.08897,-0.09154 0.135456,-0.09154 z m -5.678112,0.635384 h 2.125643 l -0.06376,0.11392 H 5.609452 Z m 3.260869,0 h 3.224029 l -0.06376,0.11392 H 8.87032 Z" />
  <path
     id="path5-3"
     class="ColorScheme-Text"
     style="fill:currentColor;fill-opacity:1;fill-rule:evenodd;stroke-width:0.0499759"
     d="M 7.056678,4.93896 3.968672,10.288065 6.188115,8.813632 7.74501,6.116409 h 1.705957 c 0.201136,0 0.242113,0.134573 0.15416,0.290182 L 9.481289,6.625645 11.417633,5.339378 C 11.366003,5.032016 11.089917,4.93896 10.725333,4.93896 Z m 5.90765,0 -6.448626,4.284158 h 3.085741 l 1.480384,-2.564884 z m -7.783635,5.651473 -0.194398,0.344874 h 0.04846 l 0.192133,-0.338923 8.48e-4,2.8e-4 0.02693,0.33864 h 0.216505 l 0.194683,-0.344871 h -0.04846 l -0.171446,0.303501 h -0.02267 l -0.0238,-0.303501 z m 0.599069,0 -0.194399,0.344874 h 0.384264 l 0.01928,-0.03429 h -0.23294 l 0.07169,-0.127238 h 0.213387 l 0.01955,-0.03429 h -0.2131 l 0.06404,-0.114204 v -5.61e-4 h 5.59e-4 0.232373 l 0.01955,-0.03428 z m 0.4877,0 -0.194401,0.344874 h 0.384266 l 0.01926,-0.03429 H 6.243654 l 0.07169,-0.127238 H 6.52873 l 0.01956,-0.03429 H 6.335471 l 0.06376,-0.114204 2.79e-4,-5.61e-4 h 2.8e-4 0.232373 l 0.01955,-0.03429 z m 0.487698,0 -0.194399,0.344874 h 0.35366 5.6e-4 c 0.07307,-5.2e-5 0.128284,-0.03244 0.164361,-0.09607 l 0.09351,-0.166061 c 0.01612,-0.02861 0.02094,-0.0503 0.01417,-0.06264 -0.0065,-0.01292 -0.02816,-0.01996 -0.06235,-0.02012 z m 0.582632,0 -0.117886,0.209135 h 0.08501 l 0.05752,-0.102585 h 0.135457 l 0.0068,-0.0119 H 7.369556 l 0.04619,-0.08275 H 7.56367 l 0.0068,-0.0119 z m 0.372647,0 c -0.04481,4.3e-5 -0.07884,0.01991 -0.100889,0.05866 l -0.05922,0.105411 c -0.0091,0.01724 -0.01128,0.02816 -0.0074,0.03485 0.0039,0.0068 0.0147,0.0099 0.03401,0.0102 h 0.178247 c 0.04453,-3.9e-5 0.07832,-0.01965 0.100319,-0.05838 l 0.05923,-0.105698 c 0.0093,-0.01769 0.01164,-0.02812 0.0076,-0.03485 -0.0039,-0.0068 -0.0144,-0.0099 -0.03372,-0.0102 z m 0.308885,0 -0.117886,0.209135 h 0.08501 l 0.05752,-0.102585 h 0.05752 5.59e-4 v 5.6e-4 l -0.0025,0.102298 h 0.09891 l -0.0062,-0.102298 v -5.6e-4 h 5.6e-4 c 0.04863,-1.98e-4 0.06027,-0.01381 0.06887,-0.02891 l 0.02579,-0.04505 v -5.6e-4 h 2.8e-4 c 0.007,-0.01152 0.0089,-0.01852 0.0065,-0.02295 h -2.79e-4 c -0.0036,-0.0065 -0.01684,-0.0083 -0.04024,-0.009 z m 0.518021,0 c -0.02955,0 -0.05706,0.0078 -0.08161,0.02324 -0.02163,0.01371 -0.03972,0.03292 -0.05243,0.05525 l -0.04988,0.08897 -0.0043,0.009 c -0.0044,0.0091 -0.0082,0.01711 -0.0094,0.02324 -0.0011,0.0056 -2.8e-4,0.01031 8.49e-4,0.01274 v 2.79e-4 2.8e-4 h 2.8e-4 v 2.79e-4 c 0.0036,0.0052 0.01584,0.01152 0.05384,0.01164 h 0.15671 c 0.01867,-0.0012 0.03061,0.002 0.0357,0.0097 0.0042,0.0063 0.0037,0.01522 -0.002,0.02664 l -2.81e-4,5.61e-4 v 2.79e-4 l -0.01417,0.02521 h -2.8e-4 v 2.81e-4 c -0.0099,0.01772 -0.02202,0.02334 -0.04959,0.02295 H 7.153726 l -0.01926,0.03429 h 1.449211 2.8e-4 c 0.0346,-4.1e-5 0.06344,-0.0067 0.08785,-0.02041 0.02374,-0.01341 0.04264,-0.03315 0.05809,-0.06036 l 0.05498,-0.09776 c 0.01021,-0.01837 0.01081,-0.03021 0.002,-0.0374 -0.01057,-0.0089 -0.03364,-0.01357 -0.0666,-0.0136 H 8.583975 c -0.01948,0.0012 -0.03213,-0.0021 -0.0374,-0.01 -0.004,-0.006 -0.0038,-0.01428 0.0011,-0.02495 v -5.59e-4 l 2.8e-4,-2.81e-4 0.0136,-0.02324 c 0.0096,-0.01694 0.02241,-0.02229 0.05243,-0.0221 h 0.244839 l 0.01955,-0.03429 H 8.537526 Z m 0.447743,0 -0.194399,0.344874 h 0.151608 l 0.07482,-0.132623 h 0.206869 c 0.07097,-1.14e-4 0.119787,-0.02583 0.149058,-0.0785 l 2.8e-4,-2.8e-4 0.03656,-0.06489 c 0.01481,-0.02672 0.01847,-0.0445 0.01081,-0.05327 -0.0078,-0.0099 -0.03102,-0.0152 -0.06688,-0.0153 z m 0.570163,0 -2.8e-4,2.79e-4 -0.194399,0.344592 H 9.74512 l 0.019,-0.03429 H 9.532023 9.531462 l 5.61e-4,-5.6e-4 0.07112,-0.126388 2.8e-4,-2.79e-4 h 2.81e-4 0.212819 l 0.01956,-0.03429 H 9.62383 9.623271 l 2.81e-4,-5.61e-4 0.06376,-0.113635 v -5.58e-4 h 5.59e-4 0.232373 l 0.01927,-0.03429 z m 0.487983,0 -2.8e-4,2.79e-4 -0.194683,0.344592 h 0.384548 l 0.019,-0.03429 h -0.231806 -5.6e-4 l 2.8e-4,-5.6e-4 0.07113,-0.126388 2.79e-4,-2.79e-4 h 2.81e-4 0.21282 l 0.01956,-0.03429 h -0.212255 -5.6e-4 l 2.81e-4,-5.61e-4 0.06376,-0.113635 -2.8e-4,-5.59e-4 h 2.8e-4 l 2.8e-4,-2.79e-4 2.8e-4,2.79e-4 h 0.23209 l 0.01983,-0.03429 z m 0.487698,0 -0.1944,0.344874 h 0.353661 2.79e-4 c 0.07306,-5.2e-5 0.128517,-0.03215 0.164644,-0.09578 l 0.09322,-0.166061 v -2.8e-4 c 0.01612,-0.02861 0.02096,-0.05029 0.01417,-0.06263 -0.0065,-0.01293 -0.02784,-0.01996 -0.06206,-0.02012 z m -2.723576,0.01164 c 0.01152,7.8e-5 0.01984,0.0037 0.0238,0.01 0.004,0.0063 0.0032,0.0153 -0.0023,0.02521 v 2.8e-4 l -0.07257,0.128376 v 2.8e-4 l -2.81e-4,2.8e-4 c -0.0085,0.01466 -0.02203,0.02136 -0.04251,0.02125 h -0.051 c -0.01416,9.72e-4 -0.02436,-0.0023 -0.02891,-0.0097 -0.004,-0.0063 -0.0031,-0.0153 0.0025,-0.02521 l 0.07226,-0.128656 h 2.79e-4 v -2.79e-4 l 2.81e-4,-2.78e-4 c 0.0085,-0.01462 0.02204,-0.02136 0.04251,-0.02126 h 0.05073 c 0.0018,-1.24e-4 0.0034,-3e-4 0.0051,-2.81e-4 z m 0.370378,0 c 0.0014,-6.6e-5 0.0026,-9.3e-5 0.0039,0 0.0077,5.59e-4 0.01332,0.0031 0.01615,0.0073 0.0039,0.0057 0.0029,0.0145 -0.0029,0.02607 v 2.78e-4 l -2.8e-4,5.61e-4 -0.01587,0.02862 c -0.01128,0.02046 -0.01752,0.02026 -0.03514,0.02012 h -0.0014 -0.09097 v -2.81e-4 l 0.04619,-0.08247 h 0.07566 c 0.0015,-1.19e-4 0.0031,-2.2e-4 0.0045,-2.8e-4 z m -1.290518,0.02266 H 6.98895 c 0.01959,-0.001 0.03294,0.0033 0.03854,0.01247 0.0048,0.0078 0.0034,0.0184 -0.0037,0.03089 v 2.8e-4 l -0.114205,0.202901 h -2.8e-4 c -0.01206,0.02068 -0.0306,0.02986 -0.06036,0.02975 H 6.731348 Z m 2.229645,0 h 5.58e-4 0.10627 5.6e-4 2.8e-4 v 2.79e-4 c 0.01738,1.21e-4 0.02819,0.0037 0.03258,0.01128 0.0049,0.0084 0.002,0.02148 -0.0085,0.03967 l -0.03146,0.0564 c -0.01709,0.03142 -0.02846,0.03608 -0.05866,0.03599 H 9.036071 l 0.08077,-0.143107 z m 1.546127,2.79e-4 h 0.101735 c 0.01954,-9.69e-4 0.03294,0.0033 0.03855,0.01247 0.0048,0.0078 0.0034,0.01841 -0.0037,0.03089 v 2.79e-4 l -0.11392,0.202052 -2.8e-4,2.79e-4 -2.79e-4,2.8e-4 c -0.01211,0.02066 -0.03069,0.02987 -0.06036,0.02975 h -0.117595 z m -6.14824,0.378326 -0.546076,0.990702 h 8.449579 l 0.546075,-0.990702 z m 7.352893,0.07794 h 0.536724 c 0.0451,0 0.05951,0.04061 0.03146,0.09153 l -0.231806,0.410619 c -0.02802,0.0509 -0.08868,0.09125 -0.133755,0.09125 h -0.53729 l 0.25306,-0.452279 h 0.25306 l -0.200918,0.360178 h 0.07226 c 0.02324,0 0.05298,-0.01926 0.06772,-0.04477 l 0.175978,-0.317955 c 0.01225,-0.02266 0.0065,-0.04234 -0.01246,-0.0445 l 2.81e-4,-5.6e-4 h -0.32929 z m -6.951058,0.006 h 0.251926 l -0.07595,0.14022 0.191849,-0.140273 h 0.16918 c 0.04511,0 0.05944,0.04061 0.03145,0.09153 l -0.02664,0.04676 0.0023,0.002 0.191849,-0.140274 h 0.168895 c 0.04511,0 0.05946,0.04061 0.03146,0.09153 L 5.481946,11.836537 H 5.312488 c -0.04646,0 -0.06085,-0.04031 -0.03145,-0.09125 l 0.282526,-0.500449 -0.1927,0.145942 -0.246541,0.445759 H 5.114113 4.871539 4.861329 l 0.334413,-0.591701 -0.1927,0.145942 -0.246825,0.445759 H 4.503716 Z m 1.177165,0 h 0.453694 c 0.0451,0 0.05915,0.04061 0.03117,0.09153 l -0.231807,0.410618 c -0.02801,0.05091 -0.08868,0.09125 -0.133757,0.09125 H 5.759355 c -0.04647,0 -0.06086,-0.04032 -0.03146,-0.09125 l 0.202054,-0.36703 h 0.253909 l -0.177101,0.322206 c -0.0147,0.02552 -0.0074,0.04505 0.01587,0.04505 h 0.03004 c 0.02323,0 0.05274,-0.01953 0.06744,-0.04505 l 0.178531,-0.324775 c 0.01295,-0.02396 0.0061,-0.04505 -0.01587,-0.04505 H 5.958865 c 0.0318,-0.04139 0.09459,-0.08756 0.134889,-0.08756 z m 0.717521,0 h 2.8e-4 0.490534 l -0.0513,0.08756 H 6.970519 c -0.02182,0 -0.05308,0.0211 -0.06603,0.04505 l -0.03542,0.06292 c -0.01428,0.02481 -0.0076,0.04373 0.01417,0.04477 l -2.8e-4,8.49e-4 h 0.245975 c 0.04509,0 0.05947,0.0406 0.03145,0.09154 l -0.09493,0.168045 c -0.02801,0.05094 -0.08898,0.09153 -0.134039,0.09153 l -0.536725,0.0012 0.05129,-0.08756 h 0.322772 c 0.02322,0 0.05275,-0.01955 0.06744,-0.04505 l 0.04392,-0.08701 c 0.01292,-0.02394 0.0061,-0.04505 -0.01587,-0.04505 H 6.72142 6.62251 c -0.04645,0 -0.06059,-0.04031 -0.03117,-0.09125 L 6.67607,11.17888 c 0.02941,-0.05093 0.08869,-0.09154 0.135173,-0.09154 z m 0.530774,0 h 0.696268 l -0.0513,0.08756 H 7.806782 c -0.01697,0 -0.03963,0.01279 -0.05498,0.02975 h -0.002 L 7.489703,11.680603 H 7.23721 L 7.514074,11.174779 H 7.290769 Z m 0.86998,0 h 0.253059 l -0.369245,0.658297 h 0.07085 c 0.02051,0 0.04571,-0.01519 0.06149,-0.03627 l 0.35026,-0.622039 H 8.831213 L 8.46168,11.745562 H 8.5328 c 0.02326,0 0.05275,-0.01954 0.06744,-0.04505 l 0.344316,-0.613298 h 0.252776 l -0.370379,0.658012 c -0.028,0.05095 -0.08868,0.09125 -0.133756,0.09125 H 7.792328 Z m 1.080532,0 h 0.537009 c 0.04513,0 0.05922,0.04061 0.03116,0.09153 L 9.579906,11.680603 H 9.326279 l 0.09323,-0.167762 H 9.305305 l -0.09351,0.167762 H 8.95817 l 0.252776,-0.452276 h 0.253059 l -0.107113,0.192131 h 0.113919 l 0.108254,-0.194682 c 0.01227,-0.02266 0.0066,-0.04235 -0.01246,-0.0445 l 2.81e-4,-5.6e-4 H 9.237879 Z m 0.715824,0 h 0.251925 l -0.07595,0.140275 0.19185,-0.140273 h 0.169178 c 0.04511,0 0.05941,0.04061 0.03146,0.09153 l -0.283101,0.501867 h -0.252493 l 0.24626,-0.435842 -0.192701,0.145943 -0.158976,0.289899 h -0.25249 z m 0.662546,0 h 0.566195 l -0.0513,0.08756 h -0.144524 c -0.01699,0 -0.03964,0.01279 -0.05498,0.02975 h -0.002 l -0.260126,0.476077 h -0.252775 l 0.277147,-0.505823 h -0.12894 z m 0.682665,0 h 0.430172 l -0.053,0.08756 h -0.218767 c -0.02188,0 -0.05308,0.0211 -0.06602,0.04505 l -0.06036,0.107685 h 0.209136 l -0.05016,0.09238 h -0.208852 l -0.07226,0.12384 c -0.01468,0.02552 -0.0071,0.04477 0.01615,0.04477 h 0.218489 l -0.04987,0.0921 h -0.429032 c -0.04644,0 -0.06082,-0.04032 -0.03146,-0.09125 l 0.23039,-0.410618 c 0.02939,-0.05092 0.08897,-0.09153 0.135454,-0.09153 z m -5.678112,0.635336 h 2.125643 l -0.06376,0.113921 H 5.609452 Z m 3.260869,0 h 3.224029 l -0.06376,0.113921 H 8.87032 Z" />
  <ellipse
     style="fill:none;stroke:#000000;stroke-width:0.582072;stroke-dasharray:none;stroke-opacity:1;filter:url(#filter3-8)"
     id="path1-5-7"
     cx="8.4450111"
     cy="8.423522"
     rx="6.8752708"
     ry="6.8578653"
     transform="matrix(0.4782969,0,0,0.4782969,8.9000071,8.8280171)" />
  <ellipse
     style="fill:currentColor;fill-opacity:1;stroke:currentColor;stroke-width:0.278402;stroke-dasharray:none;stroke-opacity:1"
     id="path1-59"
     cx="12.939234"
     cy="12.856965"
     rx="3.2884204"
     ry="3.2800953"
     class="ColorScheme-Text" />
  <ellipse
     style="fill:currentColor;stroke:none;stroke-width:0.246622;stroke-dasharray:none;stroke-opacity:1"
     id="path1-2-2"
     cx="12.939234"
     cy="12.856965"
     rx="2.9130225"
     ry="2.9056478"
     class="ColorScheme-Highlight" />
  <path
     id="path1-36-3"
     style="fill:#000000;fill-opacity:1;stroke:none;stroke-width:0.124104;stroke-dasharray:none;stroke-dashoffset:2.2;stroke-opacity:0.3;opacity:0.3"
     d="m 14.021099,11.736685 c -0.06523,-2.7e-5 -0.135047,0.02623 -0.222431,0.07744 -0.207942,0.121835 -0.479893,0.179294 -0.853351,0.179294 -0.373425,0 -0.654446,-0.05868 -0.861152,-0.179813 -0.165749,-0.09713 -0.264703,-0.09842 -0.403809,-0.0046 -0.357127,0.240662 -0.62628,1.012267 -0.705238,2.020557 -0.04735,0.604628 -0.0031,0.923391 0.153311,1.102784 0.07546,0.08649 0.260665,0.07183 0.427716,-0.0343 0.141607,-0.08996 0.310333,-0.288477 0.511911,-0.602326 0.182153,-0.283608 0.40248,-0.377017 0.889733,-0.377816 0.486283,-7.65e-4 0.677387,0.09125 0.901686,0.436021 0.376321,0.578447 0.72416,0.779828 0.928191,0.537359 0.113031,-0.134326 0.133719,-0.264107 0.128366,-0.804479 -0.0098,-0.981615 -0.266353,-1.87461 -0.636118,-2.215438 -0.09848,-0.09078 -0.174941,-0.134569 -0.258815,-0.134604 z m -2.112591,0.578416 h 0.225551 0.22555 v 0.193324 0.193326 h 0.19333 0.193331 v 0.241656 0.241656 h -0.193331 -0.19333 v 0.209435 0.209435 h -0.204243 c -0.112206,0 -0.213221,-0.01005 -0.225032,-0.02182 -0.0118,-0.01181 -0.02182,-0.105569 -0.02182,-0.208914 v -0.188138 h -0.193337 -0.193331 v -0.241656 -0.241656 h 0.193331 0.193332 v -0.193326 z m 1.83871,0 c 0.203478,0 0.290618,0.225442 0.14396,0.372098 -0.09327,0.09326 -0.178394,0.100588 -0.270247,0.02287 -0.159321,-0.134809 -0.07616,-0.394964 0.126287,-0.394964 z m -0.391336,0.413154 c 0.05081,3.5e-5 0.101967,0.02029 0.142399,0.06495 0.06302,0.06964 0.06984,0.229093 0.013,0.303499 -0.111241,0.145623 -0.378344,0.05196 -0.378344,-0.13252 0,-0.140009 0.111172,-0.236016 0.22295,-0.23594 z m 0.798786,0.0078 c 0.05856,0.0011 0.115418,0.02047 0.148634,0.05716 0.06302,0.06964 0.06983,0.229092 0.013,0.303499 -0.118321,0.154886 -0.378346,0.05122 -0.378346,-0.150713 0,-0.06121 0.02453,-0.127549 0.05873,-0.158506 0.03909,-0.03538 0.09943,-0.05251 0.15799,-0.05145 z m -0.393417,0.416788 c 0.180393,0 0.268168,0.19134 0.159029,0.347153 -0.0373,0.05326 -0.08282,0.07171 -0.176699,0.07171 -0.108097,0 -0.133181,-0.01407 -0.176699,-0.09823 -0.08582,-0.165932 0.0078,-0.320649 0.194369,-0.320649 z" />
  <path
     id="path1-36"
     style="fill:currentColor;fill-opacity:1;stroke:none;stroke-width:0.124104;stroke-dasharray:none;stroke-dashoffset:2.2;stroke-opacity:0.3"
     d="m 14.021099,11.207529 c -0.06523,-2.7e-5 -0.135047,0.02623 -0.222431,0.07744 -0.207942,0.121835 -0.479893,0.179294 -0.853351,0.179294 -0.373425,0 -0.654446,-0.05868 -0.861152,-0.179813 -0.165749,-0.09713 -0.264703,-0.09842 -0.403809,-0.0046 -0.357127,0.240662 -0.62628,1.012267 -0.705238,2.020557 -0.04735,0.604628 -0.0031,0.923391 0.153311,1.102784 0.07546,0.08649 0.260665,0.07183 0.427716,-0.0343 0.141607,-0.08996 0.310333,-0.288477 0.511911,-0.602326 0.182153,-0.283608 0.40248,-0.377017 0.889733,-0.377816 0.486283,-7.65e-4 0.677387,0.09125 0.901686,0.436021 0.376321,0.578447 0.72416,0.779828 0.928191,0.537359 0.113031,-0.134326 0.133719,-0.264107 0.128366,-0.804479 -0.0098,-0.981615 -0.266353,-1.87461 -0.636118,-2.215438 -0.09848,-0.09078 -0.174941,-0.134569 -0.258815,-0.134604 z m -2.112591,0.578416 h 0.225551 0.22555 v 0.193324 0.193326 h 0.19333 0.193331 v 0.241656 0.241656 h -0.193331 -0.19333 v 0.209435 0.209435 h -0.204243 c -0.112206,0 -0.213221,-0.01005 -0.225032,-0.02182 -0.0118,-0.01181 -0.02182,-0.105569 -0.02182,-0.208914 v -0.188138 h -0.193337 -0.193331 v -0.241656 -0.241656 h 0.193331 0.193332 v -0.193326 z m 1.83871,0 c 0.203478,0 0.290618,0.225442 0.14396,0.372098 -0.09327,0.09326 -0.178394,0.100588 -0.270247,0.02287 -0.159321,-0.134809 -0.07616,-0.394964 0.126287,-0.394964 z m -0.391336,0.413154 c 0.05081,3.5e-5 0.101967,0.02029 0.142399,0.06495 0.06302,0.06964 0.06984,0.229093 0.013,0.303499 -0.111241,0.145623 -0.378344,0.05196 -0.378344,-0.13252 0,-0.140009 0.111172,-0.236016 0.22295,-0.23594 z m 0.798786,0.0078 c 0.05856,0.0011 0.115418,0.02047 0.148634,0.05716 0.06302,0.06964 0.06983,0.229092 0.013,0.303499 -0.118321,0.154886 -0.378346,0.05122 -0.378346,-0.150713 0,-0.06121 0.02453,-0.127549 0.05873,-0.158506 0.03909,-0.03538 0.09943,-0.05251 0.15799,-0.05145 z m -0.393417,0.416788 c 0.180393,0 0.268168,0.19134 0.159029,0.347153 -0.0373,0.05326 -0.08282,0.07171 -0.176699,0.07171 -0.108097,0 -0.133181,-0.01407 -0.176699,-0.09823 -0.08582,-0.165932 0.0078,-0.320649 0.194369,-0.320649 z"
     class="ColorScheme-Text" />
  <path
     id="gradient-path1"
     style="opacity:0.3;baseline-shift:baseline;display:inline;overflow:visible;vector-effect:none;enable-background:accumulate;stop-color:#000000;stop-opacity:1;fill:url(#linearGradient5)"
     d="M 8.4453131 1.2753492 C 4.4913166 1.2753492 1.2794833 4.4784283 1.2794833 8.4236094 C 1.2794833 12.36879 4.4913166 15.572386 8.4453131 15.572386 C 9.1638027 15.572386 9.8576697 15.466358 10.51233 15.269568 C 11.133159 15.890536 11.991864 16.275172 12.939524 16.275172 C 14.830708 16.275172 16.367154 14.744327 16.367154 12.85736 C 16.367154 11.897867 15.969699 11.029882 15.330545 10.408462 C 15.513101 9.7781514 15.611143 9.1121932 15.611143 8.4236094 C 15.611143 4.4784283 12.39931 1.2753492 8.4453131 1.2753492 z " />
</svg>
