<?xml version="1.0" encoding="UTF-8" standalone="no"?>
<svg
   width="64"
   height="64"
   version="1.1"
   viewBox="0 0 16.933 16.933"
   id="svg7"
   sodipodi:docname="steam_icon_391220.svg"
   inkscape:version="1.4.2 (ebf0e940d0, 2025-05-08)"
   xmlns:inkscape="http://www.inkscape.org/namespaces/inkscape"
   xmlns:sodipodi="http://sodipodi.sourceforge.net/DTD/sodipodi-0.dtd"
   xmlns:xlink="http://www.w3.org/1999/xlink"
   xmlns="http://www.w3.org/2000/svg"
   xmlns:svg="http://www.w3.org/2000/svg"
   xmlns:rdf="http://www.w3.org/1999/02/22-rdf-syntax-ns#"
   xmlns:cc="http://creativecommons.org/ns#"
   xmlns:dc="http://purl.org/dc/elements/1.1/">
  <sodipodi:namedview
     id="namedview7"
     pagecolor="#9c4444"
     bordercolor="#000000"
     borderopacity="0.25"
     inkscape:showpageshadow="2"
     inkscape:pageopacity="0.0"
     inkscape:pagecheckerboard="0"
     inkscape:deskcolor="#d1d1d1"
     inkscape:zoom="4.3531261"
     inkscape:cx="36.180895"
     inkscape:cy="25.958357"
     inkscape:window-width="2560"
     inkscape:window-height="1388"
     inkscape:window-x="0"
     inkscape:window-y="0"
     inkscape:window-maximized="1"
     inkscape:current-layer="svg7"
     showgrid="false" />
  <defs
     id="defs2">
    <filter
       style="color-interpolation-filters:sRGB;"
       inkscape:label="Blur"
       id="filter3"
       x="-0.10843471"
       y="-0.10870992"
       width="1.2168694"
       height="1.2174198">
      <feGaussianBlur
         stdDeviation="0.5 0.5"
         result="blur"
         id="feGaussianBlur3" />
    </filter>
    <filter
       style="color-interpolation-filters:sRGB"
       inkscape:label="Blur"
       id="filter3-8"
       x="-0.10843471"
       y="-0.10870992"
       width="1.2168694"
       height="1.2174198">
      <feGaussianBlur
         stdDeviation="0.5 0.5"
         result="blur"
         id="feGaussianBlur3-7" />
    </filter>
    <style
       id="current-color-scheme"
       type="text/css">.ColorScheme-Text {color:#d8dee9} .ColorScheme-Highlight {color:#3b4252}</style>
    <linearGradient
       id="linearGradient4"
       inkscape:collect="always">
      <stop
         style="stop-color:#000000;stop-opacity:1;"
         offset="0"
         id="stop4" />
      <stop
         style="stop-color:#000000;stop-opacity:0;"
         offset="1"
         id="stop5" />
    </linearGradient>
    <linearGradient
       inkscape:collect="always"
       xlink:href="#linearGradient4"
       id="linearGradient5"
       x1="14.157616"
       y1="14.109557"
       x2="3.4890218"
       y2="3.440964"
       gradientUnits="userSpaceOnUse" />
  </defs>
  <metadata
     id="metadata2">
    <rdf:RDF>
      <cc:Work
         rdf:about="">
        <dc:format>image/svg+xml</dc:format>
        <dc:type
           rdf:resource="http://purl.org/dc/dcmitype/StillImage" />
      </cc:Work>
    </rdf:RDF>
  </metadata>
  <ellipse
     style="opacity:1;fill:none;stroke:#000000;stroke-width:0.582072;stroke-dasharray:none;stroke-opacity:1;filter:url(#filter3)"
     id="path1-5"
     cx="8.4450111"
     cy="8.423522"
     rx="6.8752708"
     ry="6.8578653" />
  <ellipse
     style="opacity:1;fill:none;stroke-width:0.58207188;stroke-opacity:1;stroke:currentColor;stroke-dasharray:none;fill-opacity:1"
     id="path1"
     cx="8.4450111"
     cy="8.423522"
     rx="6.8752708"
     ry="6.8578653"
     class="ColorScheme-Text" />
  <ellipse
     style="fill:currentColor;stroke:none;stroke-width:0.285728;stroke-dasharray:none;stroke-opacity:1"
     id="path1-2"
     cx="8.4450111"
     cy="8.423522"
     rx="6.5766377"
     ry="6.5612183"
     class="ColorScheme-Highlight" />
  <path
     id="path5-3"
     style="color:#d8dee9;opacity:0.3;fill:#000000;fill-opacity:1;stroke-width:0.00348131;paint-order:fill markers stroke"
     d="m 11.866831,5.7908214 v 0.539289 0.53929 l 0.04615,-0.01755 c 0.02538,-0.0096 0.05418,-0.01753 0.06401,-0.01753 0.0098,0 0.01268,0.0084 0.0064,0.01871 -0.01133,0.01842 0.01598,0.01568 0.130875,-0.01312 0.02721,-0.0068 0.07649,-0.01355 0.109503,-0.01494 0.03301,-0.0014 0.06659,-0.01318 0.07464,-0.02619 0.0096,-0.01555 0.02605,-0.01858 0.04794,-0.0088 0.01832,0.0082 0.09468,0.01554 0.169723,0.01634 0.10593,0.0012 0.143662,0.0087 0.168745,0.03376 0.01777,0.01777 0.04408,0.02779 0.05845,0.02227 0.01438,-0.0056 0.03809,-0.01006 0.0527,-0.01006 0.01462,0 0.02203,-0.0074 0.01644,-0.01642 -0.0057,-0.009 0.01018,-0.01419 0.03492,-0.01145 0.02847,0.0031 0.04507,-0.004 0.04507,-0.01955 0,-0.01348 0.01619,-0.0245 0.03597,-0.0245 0.02998,0 0.03597,-0.012 0.03597,-0.07197 v -0.07197 h -0.323844 -0.323842 v -0.08097 -0.08096 h 0.278881 0.278856 v -0.134935 -0.134934 h -0.278872 -0.278882 v -0.07195 -0.07197 h 0.323842 0.323843 V 5.9257763 5.7908424 h -0.548724 z m -2.2759105,0.01018 c -0.368115,0 -0.548726,0.114 -0.548726,0.346374 0,0.162434 0.113411,0.242415 0.455062,0.320918 0.229603,0.05275 0.296777,0.08441 0.263702,0.12426 -0.06126,0.07382 -0.243677,0.06761 -0.314566,-0.01075 -0.02819,-0.03115 -0.0561,-0.03533 -0.237268,-0.03533 -0.204567,0 -0.205287,1.48e-4 -0.193073,0.04048 0.03035,0.100217 0.129982,0.211056 0.199872,0.222351 0.01145,0.0019 0.0357,0.0117 0.05392,0.0219 0.02516,0.01408 0.04722,0.0098 0.09166,-0.01763 l 0.05851,-0.03616 v 0.03744 c 0,0.04456 0.03102,0.04794 0.0861,0.0094 0.03462,-0.02426 0.04148,-0.02451 0.05013,-0.002 0.0057,0.01475 0.02429,0.02237 0.04283,0.01753 0.01804,-0.0047 0.03778,-4.93e-4 0.04388,0.0094 0.01406,0.02276 0.05323,0.0173 0.08902,-0.01242 0.01525,-0.01266 0.04239,-0.0215 0.0603,-0.01963 0.06235,0.0065 0.07843,-10e-4 0.09906,-0.04633 0.0141,-0.03094 0.03275,-0.04394 0.05808,-0.04048 0.02699,0.0037 0.03585,-0.0036 0.03202,-0.02641 -0.0036,-0.02144 0.0065,-0.03147 0.0315,-0.03147 0.02069,0 0.03676,0.01179 0.03676,0.02699 0,0.03833 0.02273,0.03356 0.0817,-0.0171 0.04447,-0.03822 0.05144,-0.05721 0.05229,-0.142578 7.28e-4,-0.07175 -0.009,-0.112255 -0.03582,-0.149297 -0.05428,-0.07501 -0.2067325,-0.142277 -0.4391975,-0.1937841 -0.21426,-0.04748 -0.278998,-0.08081 -0.237505,-0.1223089 0.01244,-0.01243 0.06204,-0.02262 0.110208,-0.02262 0.0661,0 0.09818,0.0099 0.130692,0.04048 0.03942,0.03702 0.06035,0.04048 0.245542,0.04048 0.2016595,0 0.2024265,-1.57e-4 0.1899895,-0.04048 -0.06419,-0.208081 -0.2231625,-0.291242 -0.5566825,-0.291242 z m -5.622258,0.0079 v 0.536128 c 0,0.39301 0.0058,0.541912 0.02158,0.557738 0.02768,0.02767 0.03733,0.02742 0.02794,-7.89e-4 -0.0088,-0.02619 0.02812,-0.06762 0.06014,-0.06762 0.01226,0 0.01716,-0.0051 0.01087,-0.01133 -0.0062,-0.0062 -0.0027,-0.02779 0.0082,-0.04786 0.01768,-0.03304 0.02113,-0.03364 0.03632,-0.0065 0.0092,0.0165 0.01184,0.03802 0.0058,0.04784 -0.0061,0.0098 0.0052,0.01786 0.02496,0.01786 0.01978,0 0.04106,0.0082 0.04728,0.01826 0.0062,0.01006 0.02032,0.01274 0.03134,0.0059 0.02961,-0.0183 0.121414,-0.02081 0.121414,-0.0032 0,0.0083 0.0081,0.0151 0.01797,0.0151 0.01064,0 0.018,-0.06597 0.018,-0.161922 v -0.161926 h 0.167324 c 0.106149,0 0.175211,0.0079 0.188908,0.02159 0.01187,0.01187 0.02158,0.06352 0.02158,0.114752 0,0.08746 0.03114,0.150362 0.0601,0.121387 0.0065,-0.0065 0.01186,0.0017 0.01186,0.01815 0,0.03565 0.01968,0.03842 0.05302,0.0075 0.01979,-0.01836 0.0222,-0.01671 0.01315,0.009 -0.0111,0.03156 0.01349,0.04467 0.03091,0.0165 0.0051,-0.0082 0.03391,-0.01133 0.06405,-0.0069 0.04022,0.0059 0.05476,9.1e-4 0.05476,-0.01889 0,-0.04842 0.06619,-0.0491 0.08813,-9.09e-4 0.01098,0.02409 0.02713,0.03936 0.03589,0.03394 0.01997,-0.01234 0.0032,-0.313315 -0.0199,-0.358023 -0.0094,-0.01815 -0.04929,-0.04744 -0.08865,-0.06507 l -0.07158,-0.03204 0.06486,-0.03826 c 0.07023,-0.04144 0.134099,-0.155867 0.134775,-0.241485 6.07e-4,-0.07892 -0.04427,-0.165907 -0.112475,-0.217925 -0.1032,-0.07871 -0.25672,-0.10016 -0.71921,-0.100518 z m 2.912474,0 0.0055,0.490244 c 0.0031,0.269645 0.01211,0.500383 0.02011,0.512752 0.01775,0.02743 0.04841,0.02961 0.04841,0.0035 0,-0.01052 0.0079,-0.0142 0.0175,-0.0082 0.04241,0.02621 0.147833,0.02644 0.173913,3.67e-4 0.03475,-0.03475 0.06045,-0.03452 0.06045,5.54e-4 0,0.0201 0.01346,0.02539 0.04947,0.01947 0.02721,-0.0045 0.05556,-0.0088 0.06298,-0.0096 0.0074,-8.48e-4 0.01349,-0.228174 0.01349,-0.50524 v -0.503739 h -0.22596 z m -2.462685,0.26987 0.09446,8.1e-5 c 0.187019,1.99e-4 0.292145,0.06015 0.248496,0.1417059 -0.02545,0.04755 -0.05735,0.0561 -0.209491,0.0561 h -0.133459 v -0.09896 z m 0.652166,1.1336849 c -0.78742,-2.13e-4 -0.904061,0.0032 -0.904061,0.02647 0,0.02251 0.04499,0.02663 0.286604,0.02625 0.206089,-3.22e-4 0.289486,-0.0066 0.296856,-0.02221 0.0079,-0.01679 0.01266,-0.01663 0.02077,7.88e-4 0.0058,0.01237 0.04058,0.02251 0.07735,0.02251 0.03677,0 0.07778,-0.01018 0.09111,-0.02251 0.01064,-0.0098 0.01613,-0.01426 0.01726,-0.01333 8.49e-4,9.09e-4 -0.0012,0.0053 -0.0058,0.01333 -0.01006,0.01777 0.104276,0.02251 0.546089,0.02251 0.50631,0 0.637219,-0.01075 0.518311,-0.04264 -0.02227,-0.0059 -0.447307,-0.01099 -0.944541,-0.0111 z m 4.386581,1.33e-4 c -2.852911,5.05e-4 -3.309469,0.0042 -3.317991,0.02633 -0.0086,0.02228 0.435827,0.02582 3.297802,0.02627 2.9167655,4.59e-4 3.3089285,-0.0027 3.3180165,-0.02633 0.0091,-0.02376 -0.371646,-0.02679 -3.2978275,-0.02627 z m -5.488536,0.251497 v 0.653829 0.6537981 l 0.380715,0.01186 c 0.209395,0.0065 0.524354,0.01186 0.69992,0.01186 h 0.31923 l 0.0132,0.193413 c 0.0073,0.1063691 0.006,0.2217422 -0.0028,0.2563759 -0.0088,0.034631 -0.01386,0.3402684 -0.01122,0.6791787 l 0.0047,0.616191 h 0.0458 c 0.02715,0 0.04109,0.0076 0.03424,0.01871 -0.0064,0.0103 -0.02708,0.01382 -0.04605,0.0078 -0.03357,-0.01066 -0.03441,0.0066 -0.03239,0.660441 0.0011,0.369262 0.0058,0.657206 0.01029,0.639884 0.0064,-0.0241 0.01952,-0.02878 0.05637,-0.01995 0.06468,0.0155 0.06437,0.01473 0.02893,0.06881 -0.02175,0.03319 -0.03679,0.04176 -0.05002,0.02853 -0.03841,-0.03841 -0.04771,-0.01582 -0.04771,0.116012 v 0.134935 l 0.310349,-1.07e-4 c 0.243624,-8.2e-5 0.321713,-0.006 0.363216,-0.02768 0.04753,-0.02478 0.05444,-0.02478 0.06836,1.07e-4 0.02272,0.0406 0.04747,0.03381 0.06009,-0.0165 0.0094,-0.03712 0.01907,-0.0426 0.06101,-0.03421 0.03594,0.0072 0.0707,-0.0038 0.124182,-0.03916 0.04085,-0.02704 0.07484,-0.05821 0.07553,-0.06926 6.68e-4,-0.01105 0.008,-0.0039 0.01607,0.01589 l 0.01479,0.03597 0.01222,-0.03597 c 0.0275,-0.08093 0.04022,-0.08995 0.134565,-0.09546 0.116745,-0.0068 0.148247,0.01269 0.253027,0.156598 l 0.0808,0.110979 0.0047,-0.684635 0.0046,-0.684634 -0.06312,-0.05542 c -0.06799,-0.0597 -0.0672,-0.09616 0.0018,-0.08296 0.03498,0.0067 0.04288,6.67e-4 0.04288,-0.03263 0,-0.03268 -0.0076,-0.0388 -0.03803,-0.03084 -0.03375,0.0088 -0.03575,0.0058 -0.01797,-0.02749 0.02634,-0.04923 0.02531,-0.0578 -0.0069,-0.0578 -0.03476,0 -0.03433,-0.04156 0.0011,-0.110134 0.02032,-0.03928 0.02278,-0.0608 0.0089,-0.07753 -0.01098,-0.01323 -0.01908,-0.103349 -0.01887,-0.210123 2.04e-4,-0.102815 -9.7e-4,-0.2233638 -0.0027,-0.2678922 -0.0017,-0.044528 0.0065,-0.104091 0.01803,-0.1323782 0.01753,-0.042734 0.0256,-0.04768 0.04779,-0.029281 0.03501,0.029063 0.03578,-0.00582 0.0022,-0.1014384 -0.02653,-0.075594 -0.0214,-0.2604208 0.0089,-0.3227887 0.01406,-0.028908 0.0079,-0.056463 -0.02817,-0.1241287 -0.03448,-0.064846 -0.04625,-0.1137346 -0.04625,-0.1922295 0,-0.09951 0.0023,-0.105259 0.04377,-0.105259 0.02727,0 0.04787,-0.01294 0.05466,-0.03432 0.0059,-0.01888 0.02072,-0.0371 0.03271,-0.04048 0.01199,-0.0034 0.331468,-0.0037 0.70996,-5e-4 l 0.688165,0.0057 v 1.6897107 1.68971 l 0.0612,-0.02918 c 0.05867,-0.02798 0.06356,-0.0275 0.118358,0.01152 l 0.05717,0.04069 0.09823,-0.04968 c 0.08948,-0.04527 0.108196,-0.04842 0.209992,-0.03534 0.210235,0.02701 0.269955,0.02228 0.292797,-0.02319 0.03062,-0.06095 0.03504,-0.06075 0.03494,0.0017 -8.2e-5,0.0542 0.0037,0.05734 0.07569,0.06257 0.04167,0.003 0.0916,-0.003 0.110983,-0.01333 0.02588,-0.01385 0.0377,-0.01294 0.04454,0.0035 0.0067,0.01615 0.01642,0.01363 0.03492,-0.0091 0.01408,-0.01731 0.03912,-0.03149 0.05566,-0.03149 0.01654,0 0.03474,-0.01214 0.04042,-0.02699 0.01761,-0.04589 0.09327,-0.03011 0.2189,0.04567 l 0.12044,0.07266 0.0096,-0.679864 c 0.0053,-0.373928 0.01133,-0.681897 0.01349,-0.68437 0.0022,-0.0024 0.07217,-0.0045 0.1555165,-0.0045 0.134552,0 0.15742,0.0049 0.203904,0.04404 0.02879,0.02423 0.07924,0.09506 0.112139,0.157415 0.168645,0.319698 0.726099,1.14833 0.771709,1.147101 0.01599,-4.29e-4 0.06458,-0.0076 0.107999,-0.01602 0.04573,-0.0088 0.102495,-0.0082 0.134934,0.0014 0.03591,0.01068 0.14803,0.0088 0.312511,-0.0054 0.233316,-0.02007 0.267816,-0.01914 0.381849,0.01044 0.175796,0.0456 0.241734,0.03086 0.336044,-0.07508 l 0.07483,-0.08407 0.08803,0.09374 c 0.08121,0.0865 0.13114,0.116294 0.13114,0.07825 0,-0.0085 0.03214,-0.0069 0.07143,0.0036 0.03927,0.01048 0.07573,0.01471 0.08103,0.0094 0.01805,-0.01805 -0.356521,-0.724509 -0.415318,-0.783305 -0.03205,-0.03205 -0.115549,-0.139562 -0.185561,-0.238929 -0.07002,-0.09937 -0.183973,-0.261123 -0.253239,-0.359447 -0.06926,-0.09833 -0.125921,-0.194494 -0.125921,-0.213708 0,-0.03399 0.08822,-0.102176 0.26299,-0.203324 0.08155,-0.04719 0.320306,-0.304948 0.423436,-0.4571168 0.167985,-0.2478616 0.249522,-0.7392404 0.188565,-1.1364529 -0.108265,-0.70542 -0.625344,-1.152682 -1.502473,-1.299629 -0.220069,-0.03686 -0.264074,-0.03729 -3.8006415,-0.03729 z m 5.239066,0.870092 c 0.0084,-2.47e-4 0.01198,0.0087 0.0053,0.02986 -0.0071,0.02229 0.0031,0.05969 0.02654,0.09764 0.03508,0.05675 0.03642,0.07066 0.01745,0.179658 -0.01122,0.06421 -0.02309,0.116895 -0.02662,0.118121 -1.4e-5,3e-6 -6.6e-5,-3e-6 -8.2e-5,0 -0.0034,0 -0.0182,-0.01719 -0.03292,-0.03822 -0.02086,-0.02977 -0.02218,-0.04551 -0.0061,-0.07129 0.01653,-0.02647 0.01245,-0.04995 -0.02033,-0.117409 -0.03461,-0.07122 -0.03773,-0.09207 -0.02023,-0.134302 0.0156,-0.03767 0.043,-0.06366 0.05701,-0.06406 z m 1.0983415,0.446786 c 0.511881,-0.0038 0.725419,0.04179 0.869116,0.185482 0.141758,0.1417578 0.149037,0.3714876 0.01669,0.5261128 -0.06683,0.078086 -0.222458,0.1568056 -0.361952,0.1831098 -0.11578,0.021831 -0.420551,0.033556 -0.649767,0.024983 L 9.9957305,9.693712 V 9.2384694 8.7832233 Z m -1.0809755,0.05046 c 0.0082,0 0.015,0.01619 0.015,0.03597 0,0.04126 -0.02739,0.0483 -0.0418,0.01075 -0.01018,-0.02647 0.0015,-0.04673 0.0268,-0.04673 z m -3.661492,0.3566012 c 0.0047,-9.72e-5 0.01797,0.00902 0.03948,0.02907 0.03122,0.029058 0.05676,0.055387 0.05676,0.058475 0,0.016766 -0.03398,0.0015 -0.05746,-0.025855 -0.03338,-0.038875 -0.04628,-0.061539 -0.03879,-0.061701 z m 6.4895805,0.3113513 h 2.8e-5 c 0.002,-3.469e-4 0.01041,0.00844 0.02598,0.024699 0.0323,0.033798 0.102391,0.1889073 0.08536,0.1889073 -0.0043,0 -0.02044,-0.017987 -0.03585,-0.039976 -0.0154,-0.021988 -0.02806,-0.048312 -0.02812,-0.058478 -5.1e-5,-0.010164 -0.01265,-0.042758 -0.02797,-0.072449 -0.01398,-0.027098 -0.0208,-0.040526 -0.01971,-0.042479 9e-6,-1.26e-5 4e-5,-6.46e-5 5.1e-5,-8.09e-5 l 2.5e-5,-2.66e-5 c 1.3e-5,-1.04e-5 5.1e-5,-4.05e-5 1.03e-4,-5.67e-5 2.7e-5,-1.27e-5 5.1e-5,-3.93e-5 1.02e-4,-5.55e-5 z M 5.4879125,10.763909 c 0.0065,6.6e-5 0.01686,0.0061 0.02765,0.01913 0.01419,0.0171 0.01554,0.02741 0.0036,0.02741 -0.01052,0 -0.02448,-0.0086 -0.03099,-0.01919 -0.01087,-0.01762 -0.0087,-0.02744 -2.64e-4,-0.02735 z m -0.06389,0.118516 c 0.0088,0 0.02073,0.01214 0.02643,0.02699 0.0051,0.01333 0.008,0.024 0.0068,0.02546 l -2.7e-5,2.6e-5 -2.7e-5,2.8e-5 -2.7e-5,2.6e-5 c -1.3e-5,8e-6 -6.7e-5,4.1e-5 -8.2e-5,5.7e-5 h -2.7e-5 c -2.7e-5,5e-6 -1.07e-4,0 -1.33e-4,0 -4e-5,-5e-6 -1.07e-4,-8e-6 -1.58e-4,-2.7e-5 -0.0022,-7.88e-4 -0.01404,-0.0055 -0.02641,-0.01049 -0.02574,-0.01038 -0.03059,-0.04206 -0.0065,-0.04206 z m 3.833165,0.647684 c 1.48e-4,-1.2e-5 2.95e-4,0 4.49e-4,0 0.01666,0 0.01422,0.02643 -0.01655,0.179896 -0.01177,0.0587 -0.01357,0.06011 -0.0266,0.02069 -0.0084,-0.02544 -0.0061,-0.05017 0.0058,-0.06207 0.01087,-0.01088 0.01977,-0.04651 0.01977,-0.07917 0,-0.03214 0.0076,-0.05853 0.0171,-0.05934 z"
     class="ColorScheme-Text" />
  <path
     id="path5-3-6"
     style="fill:currentColor;stroke-width:0.00348131;paint-order:fill markers stroke"
     d="m 11.86683,5.2617917 v 0.539289 0.53929 l 0.04615,-0.01755 c 0.02538,-0.0096 0.05418,-0.01753 0.06401,-0.01753 0.0098,0 0.01268,0.0084 0.0064,0.01871 -0.01133,0.01842 0.01598,0.01568 0.130876,-0.01312 0.02721,-0.0068 0.07649,-0.01355 0.109502,-0.01494 0.03301,-0.0014 0.06659,-0.01318 0.07464,-0.02619 0.0096,-0.01555 0.02605,-0.01858 0.04794,-0.0088 0.01832,0.0082 0.09468,0.01554 0.169723,0.01634 0.10593,0.0012 0.143662,0.0087 0.168746,0.03376 0.01777,0.01777 0.04408,0.02779 0.05845,0.02227 0.01438,-0.0056 0.03809,-0.01006 0.0527,-0.01006 0.01462,0 0.02203,-0.0074 0.01644,-0.01642 -0.0057,-0.009 0.01018,-0.01419 0.03492,-0.01145 0.02847,0.0031 0.04507,-0.004 0.04507,-0.01955 0,-0.01348 0.01619,-0.0245 0.03597,-0.0245 0.02998,0 0.03597,-0.012 0.03597,-0.07197 v -0.07197 h -0.323844 -0.323842 v -0.08097 -0.08096 h 0.278881 0.278856 v -0.134935 -0.134934 h -0.278873 -0.278882 v -0.07195 -0.07197 h 0.323842 0.323843 v -0.134935 -0.134934 h -0.548724 z m -2.2759095,0.01018 c -0.368115,0 -0.548726,0.114 -0.548726,0.346374 0,0.162434 0.113411,0.242415 0.455062,0.320918 0.229603,0.05275 0.296777,0.08441 0.263702,0.12426 -0.06126,0.07382 -0.243677,0.06761 -0.314566,-0.01075 -0.02819,-0.03115 -0.0561,-0.03533 -0.237268,-0.03533 -0.204567,0 -0.205287,1.48e-4 -0.193073,0.04048 0.03035,0.100217 0.129982,0.211056 0.199872,0.222351 0.01145,0.0019 0.0357,0.0117 0.05392,0.0219 0.02516,0.01408 0.04722,0.0098 0.09166,-0.01763 l 0.05851,-0.03616 v 0.03744 c 0,0.04456 0.03102,0.04794 0.0861,0.0094 0.03462,-0.02426 0.04148,-0.02451 0.05013,-0.002 0.0057,0.01475 0.02429,0.02237 0.04283,0.01753 0.01804,-0.0047 0.03778,-4.93e-4 0.04388,0.0094 0.01406,0.02276 0.05323,0.0173 0.08902,-0.01242 0.01525,-0.01266 0.04239,-0.0215 0.0603,-0.01963 0.06235,0.0065 0.07843,-10e-4 0.09906,-0.04633 0.0141,-0.03094 0.03275,-0.04394 0.05808,-0.04048 0.02699,0.0037 0.03585,-0.0036 0.03202,-0.02641 -0.0036,-0.02144 0.0065,-0.03147 0.0315,-0.03147 0.02069,0 0.03676,0.01179 0.03676,0.02699 0,0.03833 0.02273,0.03356 0.0817,-0.0171 0.04447,-0.03822 0.05144,-0.05721 0.05229,-0.142578 7.28e-4,-0.07175 -0.009,-0.112255 -0.03582,-0.149297 -0.05428,-0.07501 -0.206733,-0.142277 -0.439198,-0.193784 -0.21426,-0.04748 -0.278998,-0.08081 -0.237505,-0.122309 0.01244,-0.01243 0.06204,-0.02262 0.110208,-0.02262 0.0661,0 0.09818,0.0099 0.130692,0.04048 0.03942,0.03702 0.06035,0.04048 0.245542,0.04048 0.20166,0 0.202427,-1.57e-4 0.18999,-0.04048 -0.06419,-0.208081 -0.223163,-0.291242 -0.556683,-0.291242 z m -5.622258,0.0079 v 0.536128 c 0,0.39301 0.0058,0.541912 0.02158,0.557738 0.02768,0.02767 0.03733,0.02742 0.02794,-7.89e-4 -0.0088,-0.02619 0.02812,-0.06762 0.06014,-0.06762 0.01226,0 0.01716,-0.0051 0.01087,-0.01133 -0.0062,-0.0062 -0.0027,-0.02779 0.0082,-0.04786 0.01768,-0.03304 0.02113,-0.03364 0.03632,-0.0065 0.0092,0.0165 0.01184,0.03802 0.0058,0.04784 -0.0061,0.0098 0.0052,0.01786 0.02496,0.01786 0.01978,0 0.04106,0.0082 0.04728,0.01826 0.0062,0.01006 0.02032,0.01274 0.03134,0.0059 0.02961,-0.0183 0.121414,-0.02081 0.121414,-0.0032 0,0.0083 0.0081,0.0151 0.01797,0.0151 0.01064,0 0.018,-0.06597 0.018,-0.161922 v -0.161926 h 0.167324 c 0.106149,0 0.175211,0.0079 0.188908,0.02159 0.01187,0.01187 0.02158,0.06352 0.02158,0.114752 0,0.08746 0.03114,0.150362 0.0601,0.121387 0.0065,-0.0065 0.01186,0.0017 0.01186,0.01815 0,0.03565 0.01968,0.03842 0.05302,0.0075 0.01979,-0.01836 0.0222,-0.01671 0.01315,0.009 -0.0111,0.03156 0.01349,0.04467 0.03091,0.0165 0.0051,-0.0082 0.03391,-0.01133 0.06405,-0.0069 0.04022,0.0059 0.05476,9.1e-4 0.05476,-0.01889 0,-0.04842 0.06619,-0.0491 0.08813,-9.09e-4 0.01098,0.02409 0.02713,0.03936 0.03589,0.03394 0.01997,-0.01234 0.0032,-0.313315 -0.0199,-0.358023 -0.0094,-0.01815 -0.04929,-0.04744 -0.08865,-0.06507 l -0.07158,-0.03204 0.06486,-0.03826 c 0.07023,-0.04144 0.134099,-0.155867 0.134775,-0.241485 6.07e-4,-0.07892 -0.04427,-0.165907 -0.112475,-0.217925 -0.1032,-0.07871 -0.25672,-0.10016 -0.71921,-0.100518 z m 2.912474,0 0.0055,0.490244 c 0.0031,0.269645 0.01211,0.500383 0.02011,0.512752 0.01775,0.02743 0.04841,0.02961 0.04841,0.0035 0,-0.01052 0.0079,-0.0142 0.0175,-0.0082 0.04241,0.02621 0.147833,0.02644 0.173913,3.67e-4 0.03475,-0.03475 0.06045,-0.03452 0.06045,5.54e-4 0,0.0201 0.01346,0.02539 0.04947,0.01947 0.02721,-0.0045 0.05556,-0.0088 0.06298,-0.0096 0.0074,-8.48e-4 0.01349,-0.228174 0.01349,-0.50524 v -0.503739 h -0.22596 z m -2.462685,0.26987 0.09446,8.1e-5 c 0.187019,1.99e-4 0.292145,0.06015 0.248496,0.141706 -0.02545,0.04755 -0.05735,0.0561 -0.209491,0.0561 h -0.133459 v -0.09896 z m 0.652166,1.133685 c -0.78742,-2.13e-4 -0.904061,0.0032 -0.904061,0.02647 0,0.02251 0.04499,0.02663 0.286604,0.02625 0.206089,-3.22e-4 0.289486,-0.0066 0.296856,-0.02221 0.0079,-0.01679 0.01266,-0.01663 0.02077,7.88e-4 0.0058,0.01237 0.04058,0.02251 0.07735,0.02251 0.03677,0 0.07778,-0.01018 0.09111,-0.02251 0.01064,-0.0098 0.01613,-0.01426 0.01726,-0.01333 8.49e-4,9.09e-4 -0.0012,0.0053 -0.0058,0.01333 -0.01006,0.01777 0.104276,0.02251 0.546089,0.02251 0.50631,0 0.637219,-0.01075 0.518311,-0.04264 -0.02227,-0.0059 -0.447307,-0.01099 -0.944541,-0.0111 z m 4.386581,1.33e-4 c -2.852911,5.05e-4 -3.309469,0.0042 -3.317991,0.02633 -0.0086,0.02228 0.435827,0.02582 3.297802,0.02627 2.9167645,4.59e-4 3.3089285,-0.0027 3.3180155,-0.02633 0.0091,-0.02376 -0.371646,-0.02679 -3.2978265,-0.02627 z m -5.488536,0.251497 v 0.653829 0.653798 l 0.380715,0.01186 c 0.209395,0.0065 0.524354,0.01186 0.69992,0.01186 h 0.31923 l 0.0132,0.193413 c 0.0073,0.1063691 0.006,0.2217422 -0.0028,0.256376 -0.0088,0.034631 -0.01386,0.3402684 -0.01122,0.6791787 l 0.0047,0.6161906 h 0.0458 c 0.02715,0 0.04109,0.0076 0.03424,0.01871 -0.0064,0.0103 -0.02708,0.01382 -0.04605,0.0078 -0.03357,-0.01066 -0.03441,0.0066 -0.03239,0.660441 0.0011,0.369262 0.0058,0.657206 0.01029,0.639884 0.0064,-0.0241 0.01952,-0.02878 0.05637,-0.01995 0.06468,0.0155 0.06437,0.01473 0.02893,0.06881 -0.02175,0.03319 -0.03679,0.04176 -0.05002,0.02853 -0.03841,-0.03841 -0.04771,-0.01582 -0.04771,0.116012 v 0.134935 l 0.310349,-1.07e-4 c 0.243624,-8.2e-5 0.321713,-0.006 0.363216,-0.02768 0.04753,-0.02478 0.05444,-0.02478 0.06836,1.07e-4 0.02272,0.0406 0.04747,0.03381 0.06009,-0.0165 0.0094,-0.03712 0.01907,-0.0426 0.06101,-0.03421 0.03594,0.0072 0.0707,-0.0038 0.124182,-0.03916 0.04085,-0.02704 0.07484,-0.05821 0.07553,-0.06926 6.68e-4,-0.01105 0.008,-0.0039 0.01607,0.01589 l 0.01479,0.03597 0.01222,-0.03597 c 0.0275,-0.08093 0.04022,-0.08995 0.134565,-0.09546 0.116745,-0.0068 0.148247,0.01269 0.253027,0.156598 l 0.0808,0.110979 0.0047,-0.684635 0.0046,-0.684634 -0.06312,-0.05542 c -0.06799,-0.0597 -0.0672,-0.09616 0.0018,-0.08296 0.03498,0.0067 0.04288,6.67e-4 0.04288,-0.03263 0,-0.03268 -0.0076,-0.0388 -0.03803,-0.03084 -0.03375,0.0088 -0.03575,0.0058 -0.01797,-0.02749 0.02634,-0.04923 0.02531,-0.0578 -0.0069,-0.0578 -0.03476,0 -0.03433,-0.041564 0.0011,-0.1101337 0.02032,-0.039285 0.02278,-0.060799 0.0089,-0.077535 -0.01098,-0.013234 -0.01908,-0.1033486 -0.01887,-0.2101227 2.04e-4,-0.1028156 -9.7e-4,-0.223364 -0.0027,-0.2678924 -0.0017,-0.044528 0.0065,-0.104091 0.01803,-0.1323782 0.01753,-0.042734 0.0256,-0.04768 0.04779,-0.029281 0.03501,0.029063 0.03578,-0.00582 0.0022,-0.1014384 -0.02653,-0.075594 -0.0214,-0.2604208 0.0089,-0.3227887 0.01406,-0.028908 0.0079,-0.056463 -0.02817,-0.1241287 -0.03448,-0.064846 -0.04625,-0.1137346 -0.04625,-0.1922295 0,-0.09951 0.0023,-0.105259 0.04377,-0.105259 0.02727,0 0.04787,-0.01294 0.05466,-0.03432 0.0059,-0.01888 0.02072,-0.0371 0.03271,-0.04048 0.01199,-0.0034 0.331468,-0.0037 0.70996,-5e-4 l 0.688165,0.0057 v 1.6897106 1.6897097 l 0.0612,-0.02918 c 0.05867,-0.02798 0.06356,-0.0275 0.118358,0.01152 l 0.05717,0.04069 0.09823,-0.04968 c 0.08948,-0.04527 0.108196,-0.04842 0.209992,-0.03534 0.210235,0.02701 0.269955,0.02228 0.292797,-0.02319 0.03062,-0.06095 0.03504,-0.06075 0.03494,0.0017 -8.2e-5,0.0542 0.0037,0.05734 0.07569,0.06257 0.04167,0.003 0.0916,-0.003 0.110983,-0.01333 0.02588,-0.01385 0.0377,-0.01294 0.04454,0.0035 0.0067,0.01615 0.01642,0.01363 0.03492,-0.0091 0.01408,-0.01731 0.03912,-0.03149 0.05566,-0.03149 0.01654,0 0.03474,-0.01214 0.04042,-0.02699 0.01761,-0.04589 0.09327,-0.03011 0.2189,0.04567 l 0.12044,0.07266 0.0096,-0.679864 c 0.0053,-0.373928 0.01133,-0.681897 0.01349,-0.68437 0.0022,-0.0024 0.07217,-0.0045 0.1555165,-0.0045 0.134552,0 0.15742,0.0049 0.203904,0.04404 0.02879,0.02423 0.07924,0.09506 0.112138,0.157415 0.168645,0.319698 0.7261,1.14833 0.771709,1.147101 0.01599,-4.29e-4 0.06458,-0.0076 0.107999,-0.01602 0.04573,-0.0088 0.102495,-0.0082 0.134934,0.0014 0.03591,0.01068 0.14803,0.0088 0.312511,-0.0054 0.233316,-0.02007 0.267816,-0.01914 0.381849,0.01044 0.175796,0.0456 0.241734,0.03086 0.336044,-0.07508 l 0.07483,-0.08407 0.08803,0.09374 c 0.08121,0.0865 0.13114,0.116294 0.13114,0.07825 0,-0.0085 0.03214,-0.0069 0.07143,0.0036 0.03927,0.01048 0.07573,0.01471 0.08103,0.0094 0.01805,-0.01805 -0.356522,-0.724509 -0.415318,-0.783305 -0.03205,-0.03205 -0.11555,-0.139562 -0.185561,-0.238929 -0.07002,-0.09937 -0.183973,-0.261123 -0.253239,-0.359447 -0.06926,-0.09833 -0.125921,-0.194494 -0.125921,-0.213708 0,-0.03399 0.08822,-0.1021759 0.262991,-0.2033235 0.08155,-0.04719 0.320306,-0.3049479 0.423436,-0.4571169 0.167985,-0.2478616 0.249522,-0.7392404 0.188565,-1.1364529 -0.108266,-0.70542 -0.625344,-1.152682 -1.502473,-1.299629 -0.220069,-0.03686 -0.264074,-0.03729 -3.8006425,-0.03729 z m 5.239066,0.870092 c 0.0084,-2.47e-4 0.01198,0.0087 0.0053,0.02986 -0.0071,0.02229 0.0031,0.05969 0.02654,0.09764 0.03508,0.05675 0.03642,0.07066 0.01745,0.179658 -0.01122,0.06421 -0.02309,0.116895 -0.02662,0.118121 -1.4e-5,3e-6 -6.6e-5,-3e-6 -8.2e-5,0 -0.0034,0 -0.0182,-0.01719 -0.03292,-0.03822 -0.02086,-0.02977 -0.02218,-0.04551 -0.0061,-0.07129 0.01653,-0.02647 0.01245,-0.04995 -0.02033,-0.117409 -0.03461,-0.07122 -0.03773,-0.09207 -0.02023,-0.134302 0.0156,-0.03767 0.043,-0.06366 0.05701,-0.06406 z m 1.0983415,0.446786 c 0.51188,-0.0038 0.725419,0.04179 0.869116,0.185482 0.141758,0.1417578 0.149037,0.3714876 0.01669,0.5261128 -0.06683,0.078086 -0.222458,0.1568056 -0.361952,0.1831098 -0.11578,0.021831 -0.420551,0.033556 -0.649767,0.024983 L 9.9957305,9.1646823 V 8.7094397 8.2541937 Z m -1.0809755,0.05046 c 0.0082,0 0.015,0.01619 0.015,0.03597 0,0.04126 -0.02739,0.0483 -0.0418,0.01075 -0.01018,-0.02647 0.0015,-0.04673 0.0268,-0.04673 z m -3.661492,0.3566012 c 0.0047,-9.72e-5 0.01797,0.00902 0.03948,0.02907 0.03122,0.029058 0.05676,0.055387 0.05676,0.058475 0,0.016766 -0.03398,0.0015 -0.05746,-0.025855 -0.03338,-0.038875 -0.04628,-0.061539 -0.03879,-0.061701 z m 6.4895795,0.3113513 h 2.8e-5 c 0.002,-3.469e-4 0.01041,0.00844 0.02598,0.024699 0.0323,0.033798 0.102391,0.1889073 0.08536,0.1889073 -0.0043,0 -0.02044,-0.017987 -0.03585,-0.039976 -0.0154,-0.021988 -0.02806,-0.048312 -0.02812,-0.058478 -5.1e-5,-0.010164 -0.01265,-0.042758 -0.02797,-0.072449 -0.01398,-0.027098 -0.0208,-0.040526 -0.01971,-0.042479 9e-6,-1.27e-5 4e-5,-6.47e-5 5.1e-5,-8.09e-5 l 2.6e-5,-2.66e-5 c 1.3e-5,-1.04e-5 5.1e-5,-4.05e-5 1.03e-4,-5.67e-5 2.7e-5,-1.27e-5 5.1e-5,-3.93e-5 1.02e-4,-5.55e-5 z M 5.4879125,10.234879 c 0.0065,6.6e-5 0.01686,0.0061 0.02765,0.01913 0.01419,0.0171 0.01554,0.02741 0.0036,0.02741 -0.01052,0 -0.02448,-0.0086 -0.03099,-0.01919 -0.01087,-0.01762 -0.0087,-0.02744 -2.64e-4,-0.02735 z m -0.06389,0.118516 c 0.0088,0 0.02073,0.01214 0.02643,0.02699 0.0051,0.01333 0.008,0.024 0.0068,0.02546 l -2.7e-5,2.6e-5 -2.7e-5,2.8e-5 -2.7e-5,2.6e-5 c -1.3e-5,8e-6 -6.7e-5,4.1e-5 -8.2e-5,5.7e-5 h -2.7e-5 c -2.7e-5,5e-6 -1.07e-4,0 -1.33e-4,0 -4e-5,-5e-6 -1.07e-4,-8e-6 -1.58e-4,-2.7e-5 -0.0022,-7.88e-4 -0.01404,-0.0055 -0.02641,-0.01049 -0.02574,-0.01038 -0.03059,-0.04206 -0.0065,-0.04206 z m 3.833165,0.647684 c 1.48e-4,-1.2e-5 2.95e-4,0 4.49e-4,0 0.01666,0 0.01422,0.02643 -0.01655,0.179896 -0.01177,0.0587 -0.01357,0.06011 -0.0266,0.02069 -0.0084,-0.02544 -0.0061,-0.05017 0.0058,-0.06207 0.01087,-0.01088 0.01977,-0.04651 0.01977,-0.07917 0,-0.03214 0.0076,-0.05853 0.0171,-0.05934 z"
     class="ColorScheme-Text" />
  <ellipse
     style="fill:none;stroke:#000000;stroke-width:0.582072;stroke-dasharray:none;stroke-opacity:1;filter:url(#filter3-8)"
     id="path1-5-7"
     cx="8.4450111"
     cy="8.423522"
     rx="6.8752708"
     ry="6.8578653"
     transform="matrix(0.4782969,0,0,0.4782969,8.9000071,8.8280171)" />
  <ellipse
     style="fill:currentColor;fill-opacity:1;stroke:currentColor;stroke-width:0.278402;stroke-dasharray:none;stroke-opacity:1"
     id="path1-59"
     cx="12.939234"
     cy="12.856965"
     rx="3.2884204"
     ry="3.2800953"
     class="ColorScheme-Text" />
  <ellipse
     style="fill:currentColor;stroke:none;stroke-width:0.246622;stroke-dasharray:none;stroke-opacity:1"
     id="path1-2-2"
     cx="12.939234"
     cy="12.856965"
     rx="2.9130225"
     ry="2.9056478"
     class="ColorScheme-Highlight" />
  <path
     id="path1-36-3"
     style="fill:#000000;fill-opacity:1;stroke:none;stroke-width:0.124104;stroke-dasharray:none;stroke-dashoffset:2.2;stroke-opacity:0.3;opacity:0.3"
     d="m 14.021099,11.736685 c -0.06523,-2.7e-5 -0.135047,0.02623 -0.222431,0.07744 -0.207942,0.121835 -0.479893,0.179294 -0.853351,0.179294 -0.373425,0 -0.654446,-0.05868 -0.861152,-0.179813 -0.165749,-0.09713 -0.264703,-0.09842 -0.403809,-0.0046 -0.357127,0.240662 -0.62628,1.012267 -0.705238,2.020557 -0.04735,0.604628 -0.0031,0.923391 0.153311,1.102784 0.07546,0.08649 0.260665,0.07183 0.427716,-0.0343 0.141607,-0.08996 0.310333,-0.288477 0.511911,-0.602326 0.182153,-0.283608 0.40248,-0.377017 0.889733,-0.377816 0.486283,-7.65e-4 0.677387,0.09125 0.901686,0.436021 0.376321,0.578447 0.72416,0.779828 0.928191,0.537359 0.113031,-0.134326 0.133719,-0.264107 0.128366,-0.804479 -0.0098,-0.981615 -0.266353,-1.87461 -0.636118,-2.215438 -0.09848,-0.09078 -0.174941,-0.134569 -0.258815,-0.134604 z m -2.112591,0.578416 h 0.225551 0.22555 v 0.193324 0.193326 h 0.19333 0.193331 v 0.241656 0.241656 h -0.193331 -0.19333 v 0.209435 0.209435 h -0.204243 c -0.112206,0 -0.213221,-0.01005 -0.225032,-0.02182 -0.0118,-0.01181 -0.02182,-0.105569 -0.02182,-0.208914 v -0.188138 h -0.193337 -0.193331 v -0.241656 -0.241656 h 0.193331 0.193332 v -0.193326 z m 1.83871,0 c 0.203478,0 0.290618,0.225442 0.14396,0.372098 -0.09327,0.09326 -0.178394,0.100588 -0.270247,0.02287 -0.159321,-0.134809 -0.07616,-0.394964 0.126287,-0.394964 z m -0.391336,0.413154 c 0.05081,3.5e-5 0.101967,0.02029 0.142399,0.06495 0.06302,0.06964 0.06984,0.229093 0.013,0.303499 -0.111241,0.145623 -0.378344,0.05196 -0.378344,-0.13252 0,-0.140009 0.111172,-0.236016 0.22295,-0.23594 z m 0.798786,0.0078 c 0.05856,0.0011 0.115418,0.02047 0.148634,0.05716 0.06302,0.06964 0.06983,0.229092 0.013,0.303499 -0.118321,0.154886 -0.378346,0.05122 -0.378346,-0.150713 0,-0.06121 0.02453,-0.127549 0.05873,-0.158506 0.03909,-0.03538 0.09943,-0.05251 0.15799,-0.05145 z m -0.393417,0.416788 c 0.180393,0 0.268168,0.19134 0.159029,0.347153 -0.0373,0.05326 -0.08282,0.07171 -0.176699,0.07171 -0.108097,0 -0.133181,-0.01407 -0.176699,-0.09823 -0.08582,-0.165932 0.0078,-0.320649 0.194369,-0.320649 z" />
  <path
     id="path1-36"
     style="fill:currentColor;fill-opacity:1;stroke:none;stroke-width:0.124104;stroke-dasharray:none;stroke-dashoffset:2.2;stroke-opacity:0.3"
     d="m 14.021099,11.207529 c -0.06523,-2.7e-5 -0.135047,0.02623 -0.222431,0.07744 -0.207942,0.121835 -0.479893,0.179294 -0.853351,0.179294 -0.373425,0 -0.654446,-0.05868 -0.861152,-0.179813 -0.165749,-0.09713 -0.264703,-0.09842 -0.403809,-0.0046 -0.357127,0.240662 -0.62628,1.012267 -0.705238,2.020557 -0.04735,0.604628 -0.0031,0.923391 0.153311,1.102784 0.07546,0.08649 0.260665,0.07183 0.427716,-0.0343 0.141607,-0.08996 0.310333,-0.288477 0.511911,-0.602326 0.182153,-0.283608 0.40248,-0.377017 0.889733,-0.377816 0.486283,-7.65e-4 0.677387,0.09125 0.901686,0.436021 0.376321,0.578447 0.72416,0.779828 0.928191,0.537359 0.113031,-0.134326 0.133719,-0.264107 0.128366,-0.804479 -0.0098,-0.981615 -0.266353,-1.87461 -0.636118,-2.215438 -0.09848,-0.09078 -0.174941,-0.134569 -0.258815,-0.134604 z m -2.112591,0.578416 h 0.225551 0.22555 v 0.193324 0.193326 h 0.19333 0.193331 v 0.241656 0.241656 h -0.193331 -0.19333 v 0.209435 0.209435 h -0.204243 c -0.112206,0 -0.213221,-0.01005 -0.225032,-0.02182 -0.0118,-0.01181 -0.02182,-0.105569 -0.02182,-0.208914 v -0.188138 h -0.193337 -0.193331 v -0.241656 -0.241656 h 0.193331 0.193332 v -0.193326 z m 1.83871,0 c 0.203478,0 0.290618,0.225442 0.14396,0.372098 -0.09327,0.09326 -0.178394,0.100588 -0.270247,0.02287 -0.159321,-0.134809 -0.07616,-0.394964 0.126287,-0.394964 z m -0.391336,0.413154 c 0.05081,3.5e-5 0.101967,0.02029 0.142399,0.06495 0.06302,0.06964 0.06984,0.229093 0.013,0.303499 -0.111241,0.145623 -0.378344,0.05196 -0.378344,-0.13252 0,-0.140009 0.111172,-0.236016 0.22295,-0.23594 z m 0.798786,0.0078 c 0.05856,0.0011 0.115418,0.02047 0.148634,0.05716 0.06302,0.06964 0.06983,0.229092 0.013,0.303499 -0.118321,0.154886 -0.378346,0.05122 -0.378346,-0.150713 0,-0.06121 0.02453,-0.127549 0.05873,-0.158506 0.03909,-0.03538 0.09943,-0.05251 0.15799,-0.05145 z m -0.393417,0.416788 c 0.180393,0 0.268168,0.19134 0.159029,0.347153 -0.0373,0.05326 -0.08282,0.07171 -0.176699,0.07171 -0.108097,0 -0.133181,-0.01407 -0.176699,-0.09823 -0.08582,-0.165932 0.0078,-0.320649 0.194369,-0.320649 z"
     class="ColorScheme-Text" />
  <path
     id="gradient-path1"
     style="opacity:0.3;baseline-shift:baseline;display:inline;overflow:visible;vector-effect:none;enable-background:accumulate;stop-color:#000000;stop-opacity:1;fill:url(#linearGradient5)"
     d="M 8.4453131 1.2753492 C 4.4913166 1.2753492 1.2794833 4.4784283 1.2794833 8.4236094 C 1.2794833 12.36879 4.4913166 15.572386 8.4453131 15.572386 C 9.1638027 15.572386 9.8576697 15.466358 10.51233 15.269568 C 11.133159 15.890536 11.991864 16.275172 12.939524 16.275172 C 14.830708 16.275172 16.367154 14.744327 16.367154 12.85736 C 16.367154 11.897867 15.969699 11.029882 15.330545 10.408462 C 15.513101 9.7781514 15.611143 9.1121932 15.611143 8.4236094 C 15.611143 4.4784283 12.39931 1.2753492 8.4453131 1.2753492 z " />
</svg>
