<?xml version='1.0' encoding='UTF-8'?>
<svg xmlns:inkscape="http://www.inkscape.org/namespaces/inkscape" xmlns:sodipodi="http://sodipodi.sourceforge.net/DTD/sodipodi-0.dtd" xmlns:xlink="http://www.w3.org/1999/xlink" xmlns="http://www.w3.org/2000/svg" xmlns:svg="http://www.w3.org/2000/svg" xmlns:rdf="http://www.w3.org/1999/02/22-rdf-syntax-ns#" xmlns:cc="http://creativecommons.org/ns#" xmlns:dc="http://purl.org/dc/elements/1.1/" width="64" height="64" version="1.1" viewBox="0 0 16.933 16.933" id="svg7" sodipodi:docname="stoken-gui.svg" inkscape:version="1.4.2 (ebf0e940d0, 2025-05-08)">
  <sodipodi:namedview id="namedview7" pagecolor="#a9abb3" bordercolor="#000000" borderopacity="0.25" inkscape:showpageshadow="2" inkscape:pageopacity="0.0" inkscape:pagecheckerboard="0" inkscape:deskcolor="#d1d1d1" inkscape:zoom="4.3531261" inkscape:cx="36.066035" inkscape:cy="26.417797" inkscape:window-width="2560" inkscape:window-height="1372" inkscape:window-x="0" inkscape:window-y="0" inkscape:window-maximized="1" inkscape:current-layer="svg7" showgrid="false"/>
  <defs id="defs2">
    <filter style="color-interpolation-filters:sRGB;" inkscape:label="Blur" id="filter3" x="-0.10843471" y="-0.10870992" width="1.2168694" height="1.2174198">
      <feGaussianBlur stdDeviation="0.5 0.5" result="blur" id="feGaussianBlur3"/>
    </filter>
    <style id="current-color-scheme" type="text/css">.ColorScheme-Text {color:#d8dee9} .ColorScheme-Highlight {color:#3b4252}</style><linearGradient id="linearGradient3" inkscape:collect="always">
      <stop style="stop-color:#000000;stop-opacity:1;" offset="0" id="stop3"/>
      <stop style="stop-color:#000000;stop-opacity:0;" offset="1" id="stop4"/>
    </linearGradient>
    <linearGradient inkscape:collect="always" xlink:href="#linearGradient3" id="linearGradient4" x1="13.512321" y1="13.490874" x2="3.3783066" y2="3.3568602" gradientUnits="userSpaceOnUse"/>
  </defs>
  <metadata id="metadata2">
    <rdf:RDF>
      <cc:Work rdf:about="">
        <dc:format>image/svg+xml</dc:format>
        <dc:type rdf:resource="http://purl.org/dc/dcmitype/StillImage"/>
      </cc:Work>
    </rdf:RDF>
  </metadata>
  <ellipse style="opacity:1;fill:none;stroke:#000000;stroke-width:0.582072;stroke-dasharray:none;stroke-opacity:1;filter:url(#filter3)" id="path1-5" cx="8.4450111" cy="8.423522" rx="6.8752708" ry="6.8578653"/>
  <ellipse style="opacity:1;fill:none;stroke-width:0.58207188;stroke-opacity:1;stroke:currentColor;stroke-dasharray:none;fill-opacity:1" id="path1" cx="8.4450111" cy="8.423522" rx="6.8752708" ry="6.8578653" class="ColorScheme-Text"/>
  <ellipse style="fill:currentColor;stroke:none;stroke-width:0.285844;stroke-dasharray:none;stroke-opacity:1" id="path1-2" cx="8.4557552" cy="8.423522" rx="6.5738997" ry="6.5692253" class="ColorScheme-Highlight"/>
<path id="path4" style="fill:#000000;fill-opacity:1;stroke-width:0.011984;stroke-opacity:0.66;opacity:0.3" d="m 5.4092466,5.2119759 c -0.05191,5.427e-4 -0.101457,0.00533 -0.14194,0.014823 -0.290935,0.068235 -0.524058,0.3134062 -0.576279,0.6059274 -0.05722,0.3205368 0.104005,0.6397499 0.402099,0.7956736 0.09031,0.047238 0.156857,0.067488 0.257936,0.078196 0.133117,0.014101 0.27672,-0.00892 0.39654,-0.063743 l 0.06078,-0.027794 -3.75e-4,-0.076714 c -6.06e-4,-0.1042663 0.03065,-0.1884778 0.0971,-0.2623833 0.05955,-0.066226 0.11346,-0.098716 0.199752,-0.1204444 0.06909,-0.017395 0.07346,-0.030846 0.07227,-0.2090173 -10e-4,-0.1484962 -0.02922,-0.2509726 -0.103021,-0.3735624 -0.08661,-0.1438625 -0.255836,-0.2774095 -0.417293,-0.3290911 -0.06802,-0.021774 -0.161047,-0.032769 -0.24756,-0.031871 z m 0.01482,0.3691155 c 0.125038,-1.4e-5 0.189242,0.026429 0.275354,0.1130323 0.05456,0.054867 0.07725,0.088697 0.09265,0.1371214 0.06076,0.1910934 -0.01631,0.3850748 -0.186411,0.4684356 -0.203585,0.099773 -0.432934,0.018945 -0.526249,-0.1852989 -0.03761,-0.082322 -0.03844,-0.2275417 -0.0019,-0.3072257 0.06388,-0.1391288 0.197217,-0.226048 0.346509,-0.2260647 z m 2.294001,0.3872748 c -0.334873,-0.00165 -0.670295,0.071368 -0.982085,0.2190234 -0.705132,0.3339314 -1.186722,1.006833 -1.28375,1.7944348 -0.01838,0.1491973 -0.0081,0.5030296 0.01853,0.6474343 0.08572,0.4643157 0.304367,0.8814739 0.635205,1.2122256 0.488834,0.4887067 1.181786,0.7315007 1.860031,0.6515107 l 0.114144,-0.01334 1.008396,1.006174 c 0.849728,0.848028 1.0244664,1.016949 1.1114234,1.073993 0.162019,0.106281 0.330774,0.174418 0.511797,0.206423 0.131725,0.02329 0.398777,0.01407 0.528101,-0.01816 0.440934,-0.109878 0.787414,-0.421502 0.939464,-0.845334 0.141514,-0.394462 0.07737,-0.853986 -0.16751,-1.203702 -0.03334,-0.04761 -0.451175,-0.475991 -1.061022,-1.086964 C 10.160764,8.8205958 9.9458896,8.5991223 9.9512896,8.5814512 c 0.0038,-0.012379 0.01278,-0.093316 0.02002,-0.1801106 C 10.00365,8.0132955 9.9188096,7.587117 9.7370916,7.2246925 9.5095646,6.7709113 9.1553996,6.4214175 8.6957116,6.1970247 8.3869656,6.0463127 8.0529476,5.9700153 7.7180746,5.9683658 Z m -1.534646,0.1893754 c -0.131569,0.00152 -0.25797,0.074709 -0.324273,0.2093878 -0.03308,0.067181 -0.0393,0.092897 -0.03854,0.1593572 0.001,0.088374 0.02528,0.1656627 0.07078,0.2253234 0.01668,0.021874 0.03274,0.039654 0.03558,0.039654 0.0029,0 0.07371,-0.069295 0.157875,-0.1537981 0.130362,-0.1308935 0.217687,-0.2040495 0.376528,-0.3168612 l 0.02816,-0.020384 -0.04669,-0.041877 c -0.0772,-0.069365 -0.169399,-0.1018408 -0.25942,-0.1008021 z m 3.487326,3.2342076 c 0.0039,0 0.3961974,0.3895056 0.8716464,0.8657168 0.668806,0.669878 0.871184,0.879395 0.894253,0.925754 0.176368,0.35443 -0.0011,0.750267 -0.376157,0.838662 -0.161307,0.03802 -0.332665,0.0027 -0.463247,-0.09524 -0.03789,-0.02842 -0.445609,-0.428584 -0.9057414,-0.889435 l -0.83644,-0.837921 0.08746,-0.05818 c 0.265643,-0.1759447 0.49643,-0.4048512 0.657812,-0.6526234 0.03464,-0.053188 0.06646,-0.096726 0.07041,-0.096726 z"/>
  <path id="path4-2" style="fill:currentColor;fill-opacity:1;stroke-width:0.011984;stroke-opacity:0.66" d="m 5.4092466,4.6828975 c -0.05191,5.427e-4 -0.101457,0.00533 -0.14194,0.014823 -0.290935,0.068235 -0.524058,0.3134062 -0.576279,0.6059274 -0.05722,0.3205368 0.104005,0.6397499 0.402099,0.7956736 0.09031,0.047238 0.156857,0.067488 0.257936,0.078196 0.133117,0.014101 0.27672,-0.00892 0.39654,-0.063743 l 0.06078,-0.027794 -3.75e-4,-0.076714 c -6.06e-4,-0.1042663 0.03065,-0.1884778 0.0971,-0.2623833 0.05955,-0.066226 0.11346,-0.098716 0.199752,-0.1204444 0.06909,-0.017395 0.07346,-0.030846 0.07227,-0.2090173 -10e-4,-0.1484962 -0.02922,-0.2509726 -0.103021,-0.3735624 C 5.9874986,4.8999966 5.8182726,4.7664496 5.6568156,4.714768 5.5887956,4.692994 5.4957686,4.681999 5.4092556,4.682897 Z m 0.01482,0.3691155 c 0.125038,-1.4e-5 0.189242,0.026429 0.275354,0.1130323 0.05456,0.054867 0.07725,0.088697 0.09265,0.1371214 0.06076,0.1910934 -0.01631,0.3850748 -0.186411,0.4684356 -0.203585,0.099773 -0.432934,0.018945 -0.526249,-0.1852989 -0.03761,-0.082322 -0.03844,-0.2275417 -0.0019,-0.3072257 0.06388,-0.1391288 0.197217,-0.226048 0.346509,-0.2260647 z m 2.294001,0.3872748 c -0.334873,-0.00165 -0.670295,0.071368 -0.982085,0.2190234 -0.705132,0.3339314 -1.186722,1.006833 -1.28375,1.7944348 -0.01838,0.1491973 -0.0081,0.5030296 0.01853,0.6474343 0.08572,0.4643157 0.304367,0.8814739 0.635205,1.2122257 0.488834,0.4887064 1.181786,0.7315 1.860031,0.651511 l 0.114144,-0.013341 1.008396,1.006173 c 0.849728,0.848027 1.0244664,1.016949 1.1114234,1.073992 0.162019,0.106282 0.330774,0.174419 0.511797,0.206424 0.131725,0.02329 0.398777,0.01407 0.528101,-0.01816 0.440934,-0.109878 0.787414,-0.421502 0.939464,-0.845334 0.141514,-0.394462 0.07737,-0.853986 -0.16751,-1.203702 C 11.978474,10.122353 11.560639,9.6939776 10.950792,9.0830046 10.160764,8.2915165 9.9458896,8.0700429 9.9512896,8.0523718 c 0.0038,-0.012379 0.01278,-0.093316 0.02002,-0.1801105 C 10.00365,7.4842161 9.9188096,7.0580376 9.7370916,6.6956131 9.5095646,6.2418329 9.1553996,5.8923391 8.6957116,5.6679463 8.3869656,5.5172343 8.0529476,5.4409369 7.7180746,5.4392874 Z m -1.534646,0.1893754 c -0.131569,0.00152 -0.25797,0.074709 -0.324273,0.2093878 -0.03308,0.067181 -0.0393,0.092897 -0.03854,0.1593572 0.001,0.088374 0.02528,0.1656627 0.07078,0.2253234 0.01668,0.021874 0.03274,0.039654 0.03558,0.039654 0.0029,0 0.07371,-0.069295 0.157875,-0.1537981 0.130362,-0.1308935 0.217687,-0.2040495 0.376528,-0.3168612 l 0.02816,-0.020384 -0.04669,-0.041877 c -0.0772,-0.069365 -0.169399,-0.1018408 -0.25942,-0.1008021 z m 3.487326,3.2342076 c 0.0039,0 0.3961974,0.3895056 0.8716464,0.8657166 0.668806,0.6698786 0.871184,0.8793946 0.894253,0.9257536 0.176368,0.35443 -0.0011,0.750267 -0.376157,0.838662 -0.161307,0.03802 -0.332665,0.0027 -0.463247,-0.09524 -0.03789,-0.02842 -0.445609,-0.428584 -0.9057414,-0.889434 l -0.83644,-0.8379218 0.08746,-0.058184 c 0.265643,-0.1759442 0.49643,-0.4048507 0.657812,-0.6526229 0.03464,-0.053188 0.06646,-0.096726 0.07041,-0.096726 z" class="ColorScheme-Text"/>
<path id="gradient-path1" style="opacity:0.3;baseline-shift:baseline;display:inline;overflow:visible;vector-effect:none;enable-background:accumulate;stop-color:#000000;stop-opacity:1;fill:url(#linearGradient4)" d="M 8.4453131 1.2753492 C 4.4913166 1.2753492 1.2794833 4.4784283 1.2794833 8.4236094 C 1.2794833 12.36879 4.4913166 15.572386 8.4453131 15.572386 C 12.39931 15.572386 15.611143 12.36879 15.611143 8.4236094 C 15.611143 4.4784283 12.39931 1.2753492 8.4453131 1.2753492 z "/>
</svg>
