<?xml version="1.0" encoding="UTF-8" standalone="no"?>
<svg
   width="64"
   height="64"
   version="1.1"
   viewBox="0 0 16.933 16.933"
   id="svg7"
   sodipodi:docname="supertux.svg"
   inkscape:version="1.4.2 (ebf0e940d0, 2025-05-08)"
   xmlns:inkscape="http://www.inkscape.org/namespaces/inkscape"
   xmlns:sodipodi="http://sodipodi.sourceforge.net/DTD/sodipodi-0.dtd"
   xmlns:xlink="http://www.w3.org/1999/xlink"
   xmlns="http://www.w3.org/2000/svg"
   xmlns:svg="http://www.w3.org/2000/svg"
   xmlns:rdf="http://www.w3.org/1999/02/22-rdf-syntax-ns#"
   xmlns:cc="http://creativecommons.org/ns#"
   xmlns:dc="http://purl.org/dc/elements/1.1/">
  <sodipodi:namedview
     id="namedview7"
     pagecolor="#9c4444"
     bordercolor="#000000"
     borderopacity="0.25"
     inkscape:showpageshadow="2"
     inkscape:pageopacity="0.0"
     inkscape:pagecheckerboard="0"
     inkscape:deskcolor="#d1d1d1"
     inkscape:zoom="8.7062522"
     inkscape:cx="72.534081"
     inkscape:cy="15.276378"
     inkscape:window-width="2560"
     inkscape:window-height="1388"
     inkscape:window-x="0"
     inkscape:window-y="0"
     inkscape:window-maximized="1"
     inkscape:current-layer="svg7"
     showgrid="false" />
  <defs
     id="defs2">
    <filter
       style="color-interpolation-filters:sRGB;"
       inkscape:label="Blur"
       id="filter3"
       x="-0.10843471"
       y="-0.10870992"
       width="1.2168694"
       height="1.2174198">
      <feGaussianBlur
         stdDeviation="0.5 0.5"
         result="blur"
         id="feGaussianBlur3" />
    </filter>
    <style
       id="current-color-scheme"
       type="text/css">.ColorScheme-Text {color:#d8dee9} .ColorScheme-Highlight {color:#3b4252}</style>
    <linearGradient
       id="linearGradient3"
       inkscape:collect="always">
      <stop
         style="stop-color:#000000;stop-opacity:1;"
         offset="0"
         id="stop3" />
      <stop
         style="stop-color:#000000;stop-opacity:0;"
         offset="1"
         id="stop4" />
    </linearGradient>
    <linearGradient
       inkscape:collect="always"
       xlink:href="#linearGradient3"
       id="linearGradient4"
       x1="13.512321"
       y1="13.490874"
       x2="3.3783066"
       y2="3.3568602"
       gradientUnits="userSpaceOnUse" />
  </defs>
  <metadata
     id="metadata2">
    <rdf:RDF>
      <cc:Work
         rdf:about="">
        <dc:format>image/svg+xml</dc:format>
        <dc:type
           rdf:resource="http://purl.org/dc/dcmitype/StillImage" />
      </cc:Work>
    </rdf:RDF>
  </metadata>
  <ellipse
     style="opacity:1;fill:none;stroke:#000000;stroke-width:0.582072;stroke-dasharray:none;stroke-opacity:1;filter:url(#filter3)"
     id="path1-5"
     cx="8.4450111"
     cy="8.423522"
     rx="6.8752708"
     ry="6.8578653" />
  <ellipse
     style="opacity:1;fill:none;stroke-width:0.58207188;stroke-opacity:1;stroke:currentColor;stroke-dasharray:none;fill-opacity:1"
     id="path1"
     cx="8.4450111"
     cy="8.423522"
     rx="6.8752708"
     ry="6.8578653"
     class="ColorScheme-Text" />
  <ellipse
     style="fill:currentColor;stroke:none;stroke-width:0.285844;stroke-dasharray:none;stroke-opacity:1"
     id="path1-2"
     cx="8.4557552"
     cy="8.423522"
     rx="6.5738997"
     ry="6.5692253"
     class="ColorScheme-Highlight" />
  <path
     id="path5"
     style="opacity:0.3;fill:#000000;fill-opacity:1;stroke-width:0.566036"
     d="m 8.6896435,5.0269874 c -0.133479,-1.79e-4 -0.268671,0.012 -0.367382,0.03656 -0.271074,0.06745 -0.473192,0.18453 -0.651692,0.377327 -0.171909,0.185677 -0.295442,0.459804 -0.308297,0.684452 -0.0028,0.04924 7.93e-4,0.254277 0.0082,0.455717 0.02023,0.5516248 -0.01775,0.8290292 -0.151223,1.1006828 -0.0499,0.1015473 -0.108821,0.1807061 -0.254769,0.341934 -0.57291,0.6328895 -1.051171,1.2333644 -1.275306,1.601737 -0.151135,0.2483959 -0.202703,0.3676256 -0.202703,0.4674168 0,0.07573 0.0047,0.09239 0.04505,0.129578 l 0.03101,0.02603 c 0.03027,0.0219 0.05633,0.02759 0.106177,0.02749 0.08848,-1.84e-4 0.213637,-0.05268 0.297767,-0.124898 0.05362,-0.04602 0.165052,-0.119048 0.181643,-0.119048 h 2.93e-4 v 2.93e-4 h 2.92e-4 l 2.93e-4,2.92e-4 c 0.0045,0.0069 0.01248,0.06437 0.01814,0.133673 0.006,0.07386 0.01483,0.178236 0.01989,0.231954 0.01673,0.177723 -0.08126,0.35697 -0.331989,0.606647 -0.194507,0.193693 -0.231369,0.248256 -0.231369,0.341349 0,0.08935 0.04123,0.15182 0.128701,0.195099 0.03742,0.01852 0.130063,0.105226 0.223764,0.209139 0.261577,0.290083 1.07761,1.141189 1.122035,1.170297 0.02261,0.01481 0.07188,0.03253 0.109395,0.0392 0.06799,0.01209 0.16904,-0.0018 0.222593,-0.03042 0.05347,-0.02862 0.12922,-0.129845 0.147421,-0.197438 0.03201,-0.118901 -0.03412,-0.237854 -0.18779,-0.337545 -0.100535,-0.06522 -0.230044,-0.163533 -0.236048,-0.178719 v -2.92e-4 -2.93e-4 -2.92e-4 -2.93e-4 c 0.005,-0.02869 0.324062,-0.252485 0.454255,-0.318241 0.08534,-0.0431 0.09178,-0.044 0.210601,-0.02633 0.06743,0.01003 0.306252,0.02566 0.530597,0.03452 1.09538,0.04326 1.628181,0.164045 1.7310225,0.392829 0.07374,0.164036 0.199628,0.1963 0.356852,0.09126 0.207686,-0.138752 0.752796,-1.122435 0.931909,-1.681589 0.106651,-0.332945 0.10347,-0.517581 -0.01082,-0.644088 -0.0736,-0.081461 -0.156612,-0.1057511 -0.268224,-0.078976 -0.156778,0.037613 -0.227952,0.1337833 -0.264129,0.3574363 -0.01374,0.08494 -0.04345,0.216185 -0.06611,0.291624 -0.02266,0.07544 -0.04124,0.13955 -0.04124,0.142448 0,0.01839 -0.05299,-0.0033 -0.147713,-0.06055 l -0.109103,-0.06611 0.02574,-0.07634 c 0.04109,-0.122901 0.03534,-0.508938 -0.01024,-0.6952754 -0.05347,-0.2186506 -0.141813,-0.4776156 -0.248915,-0.7286213 -0.05258,-0.1232248 -0.09565,-0.2288118 -0.09565,-0.234586 0,-0.00577 0.05747,-0.102551 0.127823,-0.2152809 0.34796,-0.5575537 0.663364,-1.2214617 0.897687,-1.8898508 0.112193,-0.3200232 0.152786,-0.4868022 0.139815,-0.5733022 -0.02269,-0.151321 -0.165743,-0.250799 -0.301861,-0.210016 -0.100792,0.0302 -0.162393,0.09371 -0.229029,0.237218 -0.03343,0.072 -0.08641,0.160457 -0.117878,0.196269 l -0.05733,0.06494 -0.209139,-0.04417 c -0.115133,-0.0243 -0.268038,-0.06197 -0.339593,-0.08366 l -0.1298715,-0.03919 -0.01989,-0.168773 c -0.0109,-0.09275 -0.0284,-0.20529 -0.0389,-0.250089 -0.104477,-0.445688 -0.397713,-0.762935 -0.807596,-0.873702 -0.09185,-0.02482 -0.223666,-0.03726 -0.357144,-0.03744 z m -0.736226,0.301861 c -0.06647,0.05074 -0.144537,0.120818 -0.201825,0.184861 0.05185,-0.06152 0.109829,-0.11611 0.175793,-0.165849 0.0086,-0.0065 0.01727,-0.01281 0.02603,-0.01901 z m 1.298414,0.425882 c 0.156893,-0.0079 0.282054,0.122952 0.303908,0.331404 l 0.01024,0.09623 -0.03276,-0.05119 c -0.0759,-0.118515 -0.183207,-0.137958 -0.271734,-0.04943 -0.09641,0.09641 -0.09108,0.259961 0.0117,0.355974 l 0.04885,0.04563 -0.07079,-5.83e-4 c -0.08282,-8.49e-4 -0.181764,-0.03306 -0.226688,-0.07371 -0.06912,-0.06256 -0.100914,-0.284032 -0.06025,-0.419739 0.02659,-0.08873 0.13303,-0.197219 0.218498,-0.222594 0.0235,-0.007 0.04662,-0.01087 0.06903,-0.01199 z m 0.114368,0.290161 c 0.01833,-3.01e-4 0.03836,0.0069 0.0585,0.02164 0.02633,0.01925 0.02783,0.02661 0.0094,0.04885 -0.02732,0.03292 -0.08861,0.03388 -0.115245,0.0018 -0.01617,-0.01948 -0.01617,-0.02937 0,-0.04885 0.01267,-0.01527 0.02905,-0.0231 0.04738,-0.0234 z m 1.6900725,0.09652 h 0.05645 l -0.04738,0.05382 c -0.02598,0.02958 -0.05654,0.07913 -0.06815,0.10998 -0.01161,0.03085 -0.03199,0.08186 -0.04504,0.113198 -0.01305,0.03134 -0.04342,0.07963 -0.06757,0.107641 -0.0398,0.04617 -0.04894,0.04957 -0.0977,0.03598 l -0.05382,-0.01492 0.05704,-0.07751 c 0.03128,-0.04262 0.07225,-0.119137 0.09126,-0.169944 0.0405,-0.108262 0.09586,-0.158243 0.174916,-0.158243 z m -3.9941055,0.03686 -2.38447,2.3844709 c -0.239825,0.2398242 -0.239824,0.6259795 0,0.8658038 l 0.525332,0.5253325 c 0.0343,-0.1469457 0.119171,-0.2998785 0.231076,-0.4837974 0.239475,-0.3935857 0.745315,-1.0260237 1.307773,-1.6473672 0.140087,-0.1547531 0.173391,-0.2001514 0.209139,-0.2729037 0.107949,-0.2196996 0.140099,-0.4232028 0.12051,-0.9573569 -0.0045,-0.121825 -0.0098,-0.302168 -0.0094,-0.414182 z m 1.786305,0.04592 c 2.22e-4,0.002 3.59e-4,0.0041 5.66e-4,0.0061 -2.6e-5,-2.27e-4 -2.62e-4,-3.47e-4 -2.92e-4,-5.83e-4 -2.03e-4,-0.0018 -1.02e-4,-0.0037 -2.93e-4,-0.0056 z m -1.363348,0.14157 c 4.31e-4,0.0278 6.23e-4,0.05352 0.0018,0.08804 2.15e-4,0.0064 3.91e-4,0.0074 5.66e-4,0.01346 -2.47e-4,-0.007 -5.66e-4,-0.0056 -9.06e-4,-0.01316 -0.0012,-0.03709 -0.0011,-0.06115 -0.0015,-0.08834 z m 2.166557,0.05879 c 0.122152,-0.0057 0.272036,0.01756 0.4235425,0.06845 0.06396,0.02148 0.225709,0.06113 0.359484,0.08804 0.26735,0.0538 0.452976,0.105262 0.501055,0.1389378 0.02964,0.020756 0.02862,0.023402 -0.0237,0.055575 -0.108737,0.066875 -0.49186,0.1713805 -0.866973,0.236341 -0.1912045,0.033113 -0.4892945,0.032787 -0.5569235,-5.83e-4 -0.07718,-0.038083 -0.124459,-0.1375289 -0.133672,-0.2810937 -0.0095,-0.1473171 0.02041,-0.2169361 0.112905,-0.2641281 0.04782,-0.0244 0.110985,-0.03815 0.184276,-0.04154 z m -0.03247,0.0056 v 2.92e-4 c 8.49e-4,3.43e-4 0.0028,7.82e-4 0.0061,0.0018 l -0.0041,-0.0015 c -9.06e-4,-3.33e-4 -0.0016,-4.82e-4 -0.002,-5.83e-4 z m 0.8447445,0.5964101 h 2.92e-4 c 0.003,6.29e-5 0.0056,7.925e-4 0.0067,0.00146 0.0099,0.00987 -0.312978,0.3822378 -0.6704135,0.7730809 -0.01,0.010879 -0.01978,0.021711 -0.02925,0.031883 -7.93e-4,-0.00164 -0.0016,-0.00357 -0.0027,-0.00526 5.42e-4,0.00204 9.06e-4,0.00419 0.0015,0.00614 h 2.93e-4 c -0.04882,0.052404 -0.08867,0.09256 -0.09419,0.09477 l -2.93e-4,2.925e-4 h -2.92e-4 -2.92e-4 l -2.93e-4,-2.925e-4 h -2.93e-4 l -2.92e-4,-2.925e-4 c -0.0137,-0.010585 -0.05274,-0.1700446 -0.07225,-0.2983513 l -0.0099,-0.065813 0.148005,-0.1181705 c 0.08136,-0.064965 0.21112,-0.1721731 0.2884075,-0.2383885 0.120605,-0.1033276 0.153346,-0.1230197 0.231953,-0.1386457 0.05037,-0.010013 0.116881,-0.024998 0.147713,-0.033052 0.02296,-0.006 0.04458,-0.00946 0.05557,-0.00936 z m -0.5156805,0.097403 c 0.0032,0.00317 -0.07034,0.065399 -0.163508,0.1383531 -0.09316,0.072954 -0.17461,0.1327956 -0.181058,0.1327956 -0.01649,0 0.0023,-0.067763 0.04709,-0.1690657 l 0.03831,-0.086288 0.126653,-0.010823 c 0.06974,-0.0059 0.129347,-0.00814 0.132503,-0.00497 z m -2.23939,0.062302 c 0.0097,0.01007 0.01994,0.020649 0.03101,0.031591 h -2.93e-4 c -0.01096,-0.010828 -0.02103,-0.021385 -0.03071,-0.031591 z m 2.3046185,0.1950984 c -0.06746,0.056256 -0.1428505,0.1179862 -0.1965615,0.1608757 l -0.09243,0.07371 c 0.0036,0.023168 0.0079,0.0478 0.01258,0.072248 0.09734,-0.106711 0.191653,-0.2114309 0.2764145,-0.3068338 z m -1.8544585,0.077805 c 0.0028,0.00102 0.0051,0.00185 0.0082,0.00293 l 0.176671,0.060546 -0.176963,-0.060255 c -0.0032,-0.00108 -0.005,-0.00214 -0.0079,-0.00322 z m 3.0475715,0.05499 c -0.201478,0.4762211 -0.437473,0.9360529 -0.691181,1.3425809 -0.01798,0.028822 -0.03551,0.056715 -0.0509,0.0819 0.01174,0.028228 0.02474,0.060507 0.03861,0.093015 0.110939,0.2599999 0.207426,0.5382221 0.265298,0.7748358 4.53e-4,0.00181 7.36e-4,0.00371 0.0012,0.00556 0.06744,-0.054569 0.1507,-0.094116 0.250966,-0.1181705 0.212412,-0.050957 0.410843,0.00199 0.560725,0.1678957 0.04075,0.045102 0.07288,0.092829 0.0977,0.1430332 l 0.576227,-0.5762276 c 0.239825,-0.2398248 0.239825,-0.6259795 0,-0.8658037 z m -3.3353935,0.039195 c 0.06954,9.623e-4 0.136503,0.00865 0.182229,0.0234 -0.04671,-0.014338 -0.128193,-0.022228 -0.182229,-0.0234 z m -0.16731,0.0117 -0.03013,0.031298 c -0.23263,0.2431976 -0.982983,1.0110128 -1.473622,1.5093065 0.31315,-0.415404 0.659878,-0.8391489 0.908802,-1.1021449 0,0.00666 0.189808,-0.2082854 0.227858,-0.2448236 0.08484,-0.081466 0.190831,-0.1435382 0.306834,-0.1795958 0.01784,-0.00555 0.03833,-0.010281 0.06026,-0.01404 z m 0.480579,0.037733 c -0.0038,7.358e-4 -0.0074,0.00147 -0.01082,0.00175 -0.0063,4.987e-4 -0.01313,4.337e-4 -0.02106,-2.925e-4 0.01105,8.377e-4 0.02137,3.789e-4 0.03188,-0.00146 z m 1.434134,0.5241623 c 0.02337,0.05322 0.04435,0.1032773 0.07459,0.1655557 l -0.0047,-0.00936 c -0.02933,-0.059834 -0.04776,-0.1057251 -0.06991,-0.1561956 z m 0.08395,0.1851533 c 0.02264,0.045594 0.04729,0.094064 0.0743,0.1459582 0.3852045,0.7399988 0.5343735,1.1149188 0.6081095,1.5294891 0.02007,0.1128362 0.02625,0.3288712 0.01814,0.4668322 -0.0022,-0.0025 -0.0093,-0.0079 -0.02106,-0.0094 0.0027,0.0015 0.005,0.0029 0.0073,0.0041 0.0024,0.0013 0.0048,0.0023 0.0067,0.0032 0.0017,8.49e-4 0.0032,0.0015 0.0044,0.002 10e-4,4.8e-4 0.0016,9.06e-4 0.0023,0.0012 -0.0033,0.05495 -0.0088,0.09733 -0.01667,0.115538 -3.63e-4,8.49e-4 -0.0011,0.002 -0.0018,0.0027 -1.35e-4,1.11e-4 -7.36e-4,4.84e-4 -9.06e-4,5.66e-4 -0.01889,0.01088 -0.120138,-0.05076 -0.4758995,-0.286984 C 9.5693305,10.06283 9.3597175,9.9199413 9.2201315,9.8179139 l -0.01989,-0.2781687 c -0.007,-0.099054 0.01217,-0.2339501 0.0389,-0.2995213 0.01369,-0.033583 0.07819,-0.1528869 0.129286,-0.2319536 0.0585,-0.090528 0.143027,-0.2555504 0.186031,-0.3615316 0.02394,-0.059015 0.0508,-0.1194444 0.07108,-0.1614607 1.4e-5,-2.77e-5 0.02341,-0.045343 0.0234,-0.045338 0.0024,-0.00334 0.0047,-0.00562 0.0064,-0.00702 l 0.07605,-0.061718 z m -2.180012,0.771326 c 0.0033,7.246e-4 0.0044,0.00138 0.0053,0.00205 9.62e-4,6.905e-4 0.0029,0.00221 0.0064,0.00907 5.21e-4,0.001 0.0012,0.00166 0.0018,0.00293 3.33e-4,7.359e-4 7.36e-4,0.00197 0.0012,0.00322 -9.06e-4,-0.00228 -0.0019,-0.00431 -0.0029,-0.00614 -0.0031,-0.00549 -0.0068,-0.00922 -0.0117,-0.011115 z m 0.02515,0.056745 c 0.0011,0.00475 0.0022,0.00955 0.0032,0.014333 5.66e-4,0.00272 0.0011,0.00546 0.0015,0.0079 -4.36e-4,-0.00243 -0.0011,-0.00518 -0.0018,-0.0079 -0.0011,-0.00509 -0.002,-0.00983 -0.0029,-0.014333 z m -0.835383,0.8643415 v 0.04709 c -0.0031,-0.01964 -0.0032,-0.03573 0,-0.04709 z m 4.4416325,0.07898 c 0.0041,-2.07e-4 0.0083,-1.23e-4 0.01228,0 0.09648,0.0029 0.17082,0.09973 0.17082,0.248333 0,0.181523 -0.145076,0.588987 -0.365626,1.026972 -0.239619,0.475854 -0.492626,0.869493 -0.60928,0.947704 -0.06807,0.04564 -0.106032,0.04667 -0.148299,0.0044 -0.04854,-0.04854 -0.03974,-0.114149 0.03276,-0.246871 0.381317,-0.697987 0.648996,-1.365443 0.692058,-1.725173 0.0131,-0.109474 0.05334,-0.181355 0.125776,-0.225518 0.03073,-0.01874 0.06086,-0.02839 0.0895,-0.02984 z m -4.8552295,0.05382 h 2.93e-4 2.92e-4 v 2.92e-4 h 2.92e-4 l 2.93e-4,2.93e-4 c 6.79e-4,0.0011 0.0014,0.004 0.002,0.0082 0.03691,0.228148 0.130844,0.528656 0.226396,0.724233 0.09039,0.185011 0.199015,0.329437 0.366211,0.486722 0.08645,0.08132 0.12321,0.118127 0.120511,0.121096 -1.07e-4,-5e-6 -7.36e-4,2.2e-5 -8.49e-4,0 -0.0042,-0.0011 -0.01648,-0.0092 -0.03598,-0.02282 -0.01593,-0.01116 -0.03001,-0.01859 -0.03481,-0.01901 -1.49e-4,2e-6 -4.6e-4,2.71e-4 -5.66e-4,2.92e-4 h -2.92e-4 -2.93e-4 v 2.92e-4 l -2.93e-4,2.93e-4 v 2.93e-4 2.92e-4 h -2.92e-4 v 2.92e-4 h -2.92e-4 -2.93e-4 c -0.0074,0.0012 -0.05009,-0.0096 -0.100913,-0.02603 -0.07327,-0.02365 -0.16373,-0.03537 -0.323214,-0.04124 -0.196785,-0.0072 -0.246936,-0.0029 -0.451622,0.03744 -0.257318,0.05073 -0.295118,0.04566 -0.326431,-0.04417 -0.01556,-0.04463 -0.0087,-0.05548 0.136305,-0.213525 0.243405,-0.265271 0.336621,-0.399539 0.40687,-0.586173 0.03564,-0.09468 0.03883,-0.118503 0.02486,-0.192173 -0.0088,-0.04626 -0.01497,-0.125244 -0.01375,-0.175501 7.92e-4,-0.03309 0.003,-0.05457 0.0053,-0.05879 v -2.93e-4 h 2.93e-4 z m 0.611328,0.334329 c 0.07035,0.102803 0.181143,0.215894 0.293086,0.305079 0.112114,0.08932 0.242048,0.168076 0.350416,0.207383 -0.221123,-0.0802 -0.499125,-0.301481 -0.643502,-0.512461 z m -1.059148,0.07517 c -0.01434,0.0043 -0.02886,0.0083 -0.04329,0.0117 l 0.02194,0.02164 c 0.0082,-0.01184 0.01516,-0.02302 0.02135,-0.03335 z m 0.506905,0.241021 c -0.0091,0.0077 -0.01934,0.0161 -0.03071,0.02545 -0.01436,0.0118 -0.03429,0.02839 -0.05792,0.04826 -0.06926,0.106204 -0.163318,0.219771 -0.303324,0.372354 -0.02955,0.03221 -0.05325,0.05856 -0.07137,0.07927 0.03506,-0.0046 0.08386,-0.01326 0.147128,-0.02574 0.213336,-0.04206 0.274485,-0.04705 0.479995,-0.03949 0.03841,0.0014 0.07369,0.0031 0.106178,0.0053 -0.0834,-0.101503 -0.150277,-0.206496 -0.210016,-0.328771 -0.02024,-0.04143 -0.04031,-0.08758 -0.05996,-0.136598 z m 1.427699,0.253306 c 0.07525,0.0111 0.155558,0.01508 0.212356,0.0085 -0.05747,0.0067 -0.133248,0.0032 -0.212356,-0.0085 z m 0.354219,0.0076 c 0.02011,9.06e-4 0.04108,0.0021 0.06259,0.0038 0.02975,0.0023 0.06063,0.005 0.09185,0.0085 -0.05451,-0.0059 -0.107241,-0.0099 -0.154441,-0.01228 z m -1.098635,0.436118 h 2.93e-4 2.92e-4 2.93e-4 c 0.0025,3.52e-4 0.01113,0.0044 0.02633,0.0117 0.01763,0.0085 0.03255,0.01888 0.03598,0.02398 9.4e-5,1.7e-4 2.3e-4,7.36e-4 2.93e-4,8.49e-4 l 2.92e-4,2.93e-4 v 2.93e-4 c 0,0.0023 -4.69e-4,0.0044 -0.0012,0.0055 l -2.93e-4,2.92e-4 -2.93e-4,2.92e-4 -2.92e-4,2.93e-4 h -2.92e-4 l -2.93e-4,2.93e-4 h -2.93e-4 -2.92e-4 c -0.0049,7.92e-4 -0.0163,-0.0067 -0.03861,-0.02457 -0.01266,-0.01014 -0.01994,-0.01616 -0.02164,-0.01843 l -2.92e-4,-2.93e-4 v -2.92e-4 z m -0.797066,0.0079 0.304201,0.307712 c 0.35237,0.356608 0.530173,0.51526 0.735349,0.655787 0.138245,0.09469 0.195683,0.159457 0.195683,0.220839 0,0.05654 -0.0527,0.12549 -0.119048,0.155611 -0.03745,0.017 -0.07929,0.03104 -0.09272,0.03101 -0.07067,-2.05e-4 -0.166007,-0.08189 -0.473559,-0.404531 -0.483121,-0.506822 -0.742069,-0.78322 -0.796481,-0.850301 l -0.04797,-0.05909 0.147128,-0.02866 z m 3.746942,0.229907 c 0.035271,0.02414 0.06946,0.04871 0.1026675,0.07342 l 0.112906,0.08395 -8.49e-4,0.0015 -0.08132,-0.06201 c -0.04275,-0.03268 -0.08725,-0.06519 -0.1333805,-0.09682 z m -2.247288,0.43963 v 0.0012 9.05e-4 h -0.0012 c -0.01462,0.0074 -0.04833,0.02739 -0.0895,0.05324 0.127716,0.109524 0.22057,0.252573 0.231954,0.418277 l 0.148591,0.148591 c 0.239824,0.239824 0.625978,0.239824 0.865803,0 l 0.486449,-0.486477 c -0.247978,-0.04271 -0.599091,-0.07614 -1.048617,-0.09389 -0.172221,-0.0068 -0.468603,-0.02347 -0.56248,-0.03744 -0.01099,-0.0016 -0.02097,-0.0033 -0.02896,-0.0044 h -0.0012 z"
     class="ColorScheme-Text" />
  <path
     id="path5-7"
     style="fill:currentColor;stroke-width:0.566036"
     d="m 8.6896648,4.4978085 c -0.133479,-1.79e-4 -0.268671,0.012 -0.367382,0.03656 -0.271074,0.06745 -0.473192,0.18453 -0.651692,0.377327 -0.171909,0.185677 -0.295442,0.459804 -0.308297,0.684452 -0.0028,0.04924 7.93e-4,0.254277 0.0082,0.455717 0.02023,0.5516248 -0.01775,0.8290292 -0.151223,1.1006828 -0.0499,0.1015473 -0.108821,0.1807061 -0.254769,0.341934 -0.57291,0.6328895 -1.051171,1.2333644 -1.275306,1.601737 -0.151135,0.2483959 -0.202703,0.3676256 -0.202703,0.4674171 0,0.075733 0.0047,0.092394 0.04505,0.1295781 l 0.03101,0.026032 c 0.03027,0.0219 0.05633,0.027594 0.106177,0.027492 0.08848,-1.845e-4 0.213637,-0.052681 0.297767,-0.1248981 0.05362,-0.046024 0.165052,-0.119048 0.181643,-0.119048 h 2.93e-4 v 2.926e-4 h 2.92e-4 l 2.93e-4,2.921e-4 c 0.0045,0.00685 0.01248,0.064374 0.01814,0.1336733 0.006,0.073862 0.01483,0.1782361 0.01989,0.2319535 0.01673,0.1777231 -0.08126,0.3569701 -0.331989,0.6066471 -0.194507,0.193693 -0.231369,0.248256 -0.231369,0.341349 0,0.08935 0.04123,0.15182 0.128701,0.195099 0.03742,0.01852 0.130063,0.105226 0.223764,0.209139 0.261577,0.290083 1.07761,1.141189 1.122035,1.170297 0.02261,0.01481 0.07188,0.03253 0.109395,0.0392 0.06799,0.01209 0.16904,-0.0018 0.222593,-0.03042 0.05347,-0.02862 0.12922,-0.129845 0.147421,-0.197438 0.03201,-0.118901 -0.03412,-0.237854 -0.18779,-0.337545 -0.100535,-0.06522 -0.230044,-0.163533 -0.236048,-0.178719 v -2.92e-4 -2.93e-4 -2.92e-4 -2.93e-4 c 0.005,-0.02869 0.324062,-0.252485 0.454255,-0.318241 0.08534,-0.0431 0.09178,-0.044 0.210601,-0.02633 0.06743,0.01003 0.306252,0.02566 0.530597,0.03452 1.09538,0.04326 1.628181,0.164045 1.7310222,0.392829 0.07374,0.164036 0.199628,0.1963 0.356852,0.09126 0.207686,-0.138752 0.752796,-1.122435 0.931909,-1.681589 0.106651,-0.3329446 0.10347,-0.5175804 -0.01082,-0.6440882 -0.0736,-0.081461 -0.156612,-0.1057508 -0.268224,-0.078976 -0.156778,0.037613 -0.227952,0.1337831 -0.264129,0.3574368 -0.01374,0.08494 -0.04345,0.2161844 -0.06611,0.2916234 -0.02266,0.07544 -0.04124,0.13955 -0.04124,0.142448 0,0.01839 -0.05299,-0.0033 -0.147713,-0.06055 l -0.109103,-0.06611 0.02574,-0.07634 c 0.04109,-0.1229011 0.03534,-0.5089375 -0.01024,-0.6952753 -0.05347,-0.2186506 -0.141813,-0.4776156 -0.248915,-0.7286213 -0.05258,-0.1232248 -0.09565,-0.2288118 -0.09565,-0.234586 0,-0.00577 0.05747,-0.102551 0.127823,-0.2152809 0.34796,-0.5575537 0.663364,-1.2214617 0.897687,-1.8898508 0.112193,-0.3200232 0.152786,-0.4868022 0.139815,-0.5733022 -0.02269,-0.151321 -0.165743,-0.250799 -0.301861,-0.210016 -0.100792,0.0302 -0.162393,0.09371 -0.229029,0.237218 -0.03343,0.072 -0.08641,0.160457 -0.117878,0.196269 l -0.05733,0.06494 -0.209139,-0.04417 c -0.115133,-0.0243 -0.268038,-0.06197 -0.339593,-0.08366 l -0.1298712,-0.03919 -0.01989,-0.168773 c -0.0109,-0.09275 -0.0284,-0.20529 -0.0389,-0.250089 -0.104477,-0.445688 -0.397713,-0.762935 -0.807596,-0.873702 -0.09185,-0.02482 -0.223666,-0.03726 -0.357144,-0.03744 z m -0.736226,0.301861 c -0.06647,0.05074 -0.144537,0.120818 -0.201825,0.184861 0.05185,-0.06152 0.109829,-0.11611 0.175793,-0.165849 0.0086,-0.0065 0.01727,-0.01281 0.02603,-0.01901 z m 1.298414,0.425882 c 0.156893,-0.0079 0.282054,0.122952 0.303908,0.331404 l 0.01024,0.09623 -0.03276,-0.05119 c -0.0759,-0.118515 -0.183207,-0.137958 -0.271734,-0.04943 -0.09641,0.09641 -0.09108,0.259961 0.0117,0.355974 l 0.04885,0.04563 -0.07079,-5.83e-4 c -0.08282,-8.49e-4 -0.181764,-0.03306 -0.226688,-0.07371 -0.06912,-0.06256 -0.100914,-0.284032 -0.06025,-0.419739 0.02659,-0.08873 0.13303,-0.197219 0.218498,-0.222594 0.0235,-0.007 0.04662,-0.01087 0.06903,-0.01199 z m 0.114368,0.290161 c 0.01833,-3.01e-4 0.03836,0.0069 0.0585,0.02164 0.02633,0.01925 0.02783,0.02661 0.0094,0.04885 -0.02732,0.03292 -0.08861,0.03388 -0.115245,0.0018 -0.01617,-0.01948 -0.01617,-0.02937 0,-0.04885 0.01267,-0.01527 0.02905,-0.0231 0.04738,-0.0234 z m 1.6900722,0.09652 h 0.05645 l -0.04738,0.05382 c -0.02598,0.02958 -0.05654,0.07913 -0.06815,0.10998 -0.01161,0.03085 -0.03199,0.08186 -0.04504,0.113198 -0.01305,0.03134 -0.04342,0.07963 -0.06757,0.107641 -0.0398,0.04617 -0.04894,0.04957 -0.0977,0.03598 l -0.05382,-0.01492 0.05704,-0.07751 c 0.03128,-0.04262 0.07225,-0.119137 0.09126,-0.169944 0.0405,-0.108262 0.09586,-0.158243 0.174916,-0.158243 z m -3.9941052,0.03686 -2.38447,2.3844709 c -0.239825,0.2398242 -0.239824,0.6259795 0,0.8658038 l 0.525332,0.5253325 c 0.0343,-0.1469457 0.119171,-0.2998785 0.231076,-0.4837974 0.239475,-0.3935857 0.745315,-1.0260237 1.307773,-1.6473672 0.140087,-0.1547531 0.173391,-0.2001514 0.209139,-0.2729037 0.107949,-0.2196996 0.140099,-0.4232028 0.12051,-0.9573569 -0.0045,-0.121825 -0.0098,-0.302168 -0.0094,-0.414182 z m 1.786305,0.04592 c 2.22e-4,0.002 3.59e-4,0.0041 5.66e-4,0.0061 -2.6e-5,-2.27e-4 -2.62e-4,-3.47e-4 -2.92e-4,-5.83e-4 -2.03e-4,-0.0018 -1.02e-4,-0.0037 -2.93e-4,-0.0056 z m -1.363348,0.14157 c 4.31e-4,0.0278 6.23e-4,0.05352 0.0018,0.08804 2.15e-4,0.0064 3.91e-4,0.0074 5.66e-4,0.01346 -2.47e-4,-0.007 -5.66e-4,-0.0056 -9.06e-4,-0.01316 -0.0012,-0.03709 -0.0011,-0.06115 -0.0015,-0.08834 z m 2.166557,0.05879 c 0.122152,-0.0057 0.272036,0.01756 0.4235422,0.06845 0.06396,0.02148 0.225709,0.06113 0.359484,0.08804 0.26735,0.0538 0.452976,0.105262 0.501055,0.1389378 0.02964,0.020756 0.02862,0.023402 -0.0237,0.055575 -0.108737,0.066875 -0.49186,0.1713805 -0.866973,0.236341 -0.1912042,0.033113 -0.4892942,0.032787 -0.5569232,-5.83e-4 -0.07718,-0.038083 -0.124459,-0.1375289 -0.133672,-0.2810937 -0.0095,-0.1473171 0.02041,-0.2169361 0.112905,-0.2641281 0.04782,-0.0244 0.110985,-0.03815 0.184276,-0.04154 z m -0.03247,0.0056 v 2.92e-4 c 8.49e-4,3.43e-4 0.0028,7.82e-4 0.0061,0.0018 l -0.0041,-0.0015 c -9.06e-4,-3.33e-4 -0.0016,-4.82e-4 -0.002,-5.83e-4 z m 0.8447442,0.5964101 h 2.92e-4 c 0.003,6.29e-5 0.0056,7.925e-4 0.0067,0.00146 0.0099,0.00987 -0.312978,0.3822378 -0.6704132,0.7730809 -0.01,0.010879 -0.01978,0.021711 -0.02925,0.031883 -7.93e-4,-0.00164 -0.0016,-0.00357 -0.0027,-0.00526 5.42e-4,0.00204 9.06e-4,0.00419 0.0015,0.00614 h 2.93e-4 c -0.04882,0.052404 -0.08867,0.09256 -0.09419,0.09477 l -2.93e-4,2.925e-4 h -2.92e-4 -2.92e-4 l -2.93e-4,-2.925e-4 h -2.93e-4 l -2.92e-4,-2.925e-4 c -0.0137,-0.010585 -0.05274,-0.1700446 -0.07225,-0.2983513 l -0.0099,-0.065813 0.148005,-0.1181705 c 0.08136,-0.064965 0.21112,-0.1721731 0.2884072,-0.2383885 0.120605,-0.1033276 0.153346,-0.1230197 0.231953,-0.1386457 0.05037,-0.010013 0.116881,-0.024998 0.147713,-0.033052 0.02296,-0.006 0.04458,-0.00946 0.05557,-0.00936 z m -0.5156802,0.097403 c 0.0032,0.00317 -0.07034,0.065399 -0.163508,0.1383531 -0.09316,0.072954 -0.17461,0.1327956 -0.181058,0.1327956 -0.01649,0 0.0023,-0.067763 0.04709,-0.1690657 l 0.03831,-0.086288 0.126653,-0.010823 c 0.06974,-0.0059 0.129347,-0.00814 0.132503,-0.00497 z m -2.23939,0.062302 c 0.0097,0.01007 0.01994,0.020649 0.03101,0.031591 h -2.93e-4 c -0.01096,-0.010828 -0.02103,-0.021385 -0.03071,-0.031591 z M 10.013524,6.852186 C 9.946064,6.908442 9.8706738,6.9701722 9.8169628,7.0130617 l -0.09243,0.07371 c 0.0036,0.023168 0.0079,0.0478 0.01258,0.072248 0.09734,-0.106711 0.191653,-0.2114309 0.2764142,-0.3068338 z M 8.1590658,6.929991 c 0.0028,0.00102 0.0051,0.00185 0.0082,0.00293 l 0.176671,0.060546 -0.176963,-0.060255 c -0.0032,-0.00108 -0.005,-0.00214 -0.0079,-0.00322 z m 3.0475712,0.05499 c -0.201478,0.4762211 -0.437473,0.9360529 -0.691181,1.3425809 -0.01798,0.028822 -0.03551,0.056715 -0.0509,0.0819 0.01174,0.028228 0.02474,0.060507 0.03861,0.093015 0.110939,0.2599999 0.207426,0.5382221 0.265298,0.7748358 4.53e-4,0.00181 7.36e-4,0.00371 0.0012,0.00556 0.06744,-0.054569 0.1507,-0.094116 0.250966,-0.1181705 0.212412,-0.050957 0.410843,0.00199 0.560725,0.1678957 0.04075,0.045102 0.07288,0.092829 0.0977,0.1430333 l 0.576227,-0.5762277 c 0.239825,-0.2398248 0.239825,-0.6259795 0,-0.8658037 z M 7.8712438,7.024176 c 0.06954,9.623e-4 0.136503,0.00865 0.182229,0.0234 -0.04671,-0.014338 -0.128193,-0.022228 -0.182229,-0.0234 z m -0.16731,0.0117 -0.03013,0.031298 c -0.23263,0.2431976 -0.982983,1.0110128 -1.473622,1.5093065 0.31315,-0.415404 0.659878,-0.8391489 0.908802,-1.1021449 0,0.00666 0.189808,-0.2082854 0.227858,-0.2448236 0.08484,-0.081466 0.190831,-0.1435382 0.306834,-0.1795958 0.01784,-0.00555 0.03833,-0.010281 0.06026,-0.01404 z m 0.480579,0.037733 c -0.0038,7.358e-4 -0.0074,0.00147 -0.01082,0.00175 -0.0063,4.987e-4 -0.01313,4.337e-4 -0.02106,-2.925e-4 0.01105,8.377e-4 0.02137,3.789e-4 0.03188,-0.00146 z m 1.434134,0.5241623 c 0.02337,0.05322 0.04435,0.1032773 0.07459,0.1655557 l -0.0047,-0.00936 c -0.02933,-0.059834 -0.04776,-0.1057251 -0.06991,-0.1561956 z m 0.08395,0.1851533 c 0.02264,0.045594 0.04729,0.094064 0.0743,0.1459582 0.3852042,0.7399988 0.5343732,1.1149188 0.6081092,1.5294891 0.02007,0.1128364 0.02625,0.3288713 0.01814,0.4668323 -0.0022,-0.00255 -0.0093,-0.00792 -0.02106,-0.00936 0.0027,0.00147 0.005,0.00289 0.0073,0.00408 0.0024,0.00125 0.0048,0.00232 0.0067,0.00323 0.0017,8.491e-4 0.0032,0.00147 0.0044,0.00204 10e-4,4.8e-4 0.0016,9.056e-4 0.0023,0.00119 -0.0033,0.054945 -0.0088,0.097328 -0.01667,0.1155378 -3.63e-4,8.49e-4 -0.0011,0.002 -0.0018,0.0027 -1.35e-4,1.11e-4 -7.36e-4,4.84e-4 -9.06e-4,5.66e-4 C 10.36452,10.056067 10.263272,9.9944263 9.9075108,9.7582045 9.5693518,9.5336507 9.3597388,9.3907624 9.2201528,9.288735 l -0.01989,-0.2781687 c -0.007,-0.099054 0.01217,-0.2339501 0.0389,-0.2995213 0.01369,-0.033583 0.07819,-0.1528869 0.129286,-0.2319536 0.0585,-0.090528 0.143027,-0.2555504 0.186031,-0.3615316 0.02394,-0.059015 0.0508,-0.1194444 0.07108,-0.1614607 1.4e-5,-2.77e-5 0.02341,-0.045343 0.0234,-0.045338 0.0024,-0.00334 0.0047,-0.00562 0.0064,-0.00702 l 0.07605,-0.061718 z m -2.180012,0.771326 c 0.0033,7.246e-4 0.0044,0.00138 0.0053,0.00205 9.62e-4,6.905e-4 0.0029,0.00221 0.0064,0.00907 5.21e-4,0.001 0.0012,0.00166 0.0018,0.00293 3.33e-4,7.359e-4 7.36e-4,0.00197 0.0012,0.00322 -9.06e-4,-0.00228 -0.0019,-0.00431 -0.0029,-0.00614 -0.0031,-0.00549 -0.0068,-0.00922 -0.0117,-0.011115 z m 0.02515,0.056745 c 0.0011,0.00475 0.0022,0.00955 0.0032,0.014333 5.66e-4,0.00272 0.0011,0.00546 0.0015,0.0079 -4.36e-4,-0.00243 -0.0011,-0.00518 -0.0018,-0.0079 -0.0011,-0.00509 -0.002,-0.00983 -0.0029,-0.014333 z m -0.835383,0.8643413 v 0.047094 c -0.0031,-0.019636 -0.0032,-0.035728 0,-0.047094 z m 4.4416322,0.078976 c 0.0041,-2.066e-4 0.0083,-1.228e-4 0.01228,0 0.09648,0.00294 0.17082,0.099725 0.17082,0.2483335 0,0.1815225 -0.145076,0.5889866 -0.365626,1.0269716 -0.239619,0.475854 -0.492626,0.869493 -0.60928,0.947704 -0.06807,0.04564 -0.106032,0.04667 -0.148299,0.0044 -0.04854,-0.04854 -0.03974,-0.114149 0.03276,-0.246871 0.381317,-0.697987 0.648996,-1.365443 0.692058,-1.7251726 0.0131,-0.1094747 0.05334,-0.181355 0.125776,-0.2255182 0.03073,-0.018741 0.06086,-0.028392 0.0895,-0.029836 z m -4.8552292,0.053819 h 2.93e-4 2.92e-4 v 2.926e-4 h 2.92e-4 l 2.93e-4,2.927e-4 c 6.79e-4,0.00113 0.0014,0.00396 0.002,0.00819 0.03691,0.2281475 0.130844,0.5286558 0.226396,0.7242328 0.09039,0.185011 0.199015,0.329437 0.366211,0.486722 0.08645,0.08132 0.12321,0.118127 0.120511,0.121096 -1.07e-4,-5e-6 -7.36e-4,2.2e-5 -8.49e-4,0 -0.0042,-0.0011 -0.01648,-0.0092 -0.03598,-0.02282 -0.01593,-0.01116 -0.03001,-0.01859 -0.03481,-0.01901 -1.49e-4,2e-6 -4.6e-4,2.71e-4 -5.66e-4,2.92e-4 h -2.92e-4 -2.93e-4 v 2.92e-4 l -2.93e-4,2.93e-4 v 2.93e-4 2.92e-4 h -2.92e-4 v 2.92e-4 h -2.92e-4 -2.93e-4 c -0.0074,0.0012 -0.05009,-0.0096 -0.100913,-0.02603 -0.07327,-0.02365 -0.16373,-0.03537 -0.323214,-0.04124 -0.196785,-0.0072 -0.246936,-0.0029 -0.451622,0.03744 -0.257318,0.05073 -0.295118,0.04566 -0.326431,-0.04417 -0.01556,-0.04463 -0.0087,-0.05548 0.136305,-0.213525 0.243405,-0.265271 0.336621,-0.399539 0.40687,-0.586173 0.03564,-0.094684 0.03883,-0.118503 0.02486,-0.1921732 -0.0088,-0.046262 -0.01497,-0.1252433 -0.01375,-0.1755005 7.92e-4,-0.03309 0.003,-0.054572 0.0053,-0.058793 v -2.927e-4 h 2.93e-4 z m 0.611328,0.334329 c 0.07035,0.1028031 0.181143,0.2158941 0.293086,0.3050791 0.112114,0.08932 0.242048,0.168076 0.350416,0.207383 -0.221123,-0.0802 -0.499125,-0.301481 -0.643502,-0.512461 z m -1.059148,0.075173 c -0.01434,0.0043 -0.02886,0.0083 -0.04329,0.0117 l 0.02194,0.02164 c 0.0082,-0.01184 0.01516,-0.02302 0.02135,-0.03335 z m 0.506905,0.241021 c -0.0091,0.0077 -0.01934,0.0161 -0.03071,0.02545 -0.01436,0.0118 -0.03429,0.02839 -0.05792,0.04826 -0.06926,0.106204 -0.163318,0.219771 -0.303324,0.372354 -0.02955,0.03221 -0.05325,0.05856 -0.07137,0.07927 0.03506,-0.0046 0.08386,-0.01326 0.147128,-0.02574 0.213336,-0.04206 0.274485,-0.04705 0.479995,-0.03949 0.03841,0.0014 0.07369,0.0031 0.106178,0.0053 -0.0834,-0.101503 -0.150277,-0.206496 -0.210016,-0.328771 -0.02024,-0.04143 -0.04031,-0.08758 -0.05996,-0.136598 z m 1.427699,0.253306 c 0.07525,0.0111 0.155558,0.01508 0.212356,0.0085 -0.05747,0.0067 -0.133248,0.0032 -0.212356,-0.0085 z m 0.354219,0.0076 c 0.02011,9.06e-4 0.04108,0.0021 0.06259,0.0038 0.02975,0.0023 0.06063,0.005 0.09185,0.0085 -0.05451,-0.0059 -0.107241,-0.0099 -0.154441,-0.01228 z m -1.098635,0.436118 h 2.93e-4 2.92e-4 2.93e-4 c 0.0025,3.52e-4 0.01113,0.0044 0.02633,0.0117 0.01763,0.0085 0.03255,0.01888 0.03598,0.02398 9.4e-5,1.7e-4 2.3e-4,7.36e-4 2.93e-4,8.49e-4 l 2.92e-4,2.93e-4 v 2.93e-4 c 0,0.0023 -4.69e-4,0.0044 -0.0012,0.0055 l -2.93e-4,2.92e-4 -2.93e-4,2.92e-4 -2.92e-4,2.93e-4 h -2.92e-4 l -2.93e-4,2.93e-4 h -2.93e-4 -2.92e-4 c -0.0049,7.92e-4 -0.0163,-0.0067 -0.03861,-0.02457 -0.01266,-0.01014 -0.01994,-0.01616 -0.02164,-0.01843 l -2.92e-4,-2.93e-4 v -2.92e-4 z m -0.797066,0.0079 0.304201,0.307712 c 0.35237,0.356608 0.530173,0.51526 0.735349,0.655787 0.138245,0.09469 0.195683,0.159457 0.195683,0.220839 0,0.05654 -0.0527,0.12549 -0.119048,0.155611 -0.03745,0.017 -0.07929,0.03104 -0.09272,0.03101 -0.07067,-2.05e-4 -0.166007,-0.08189 -0.473559,-0.404531 -0.483121,-0.506822 -0.742069,-0.78322 -0.796481,-0.850301 l -0.04797,-0.05909 0.147128,-0.02866 z m 3.746942,0.229907 c 0.03527,0.02414 0.06946,0.04871 0.1026672,0.07342 l 0.112906,0.08395 -8.49e-4,0.0015 -0.08132,-0.06201 c -0.04275,-0.03268 -0.08725,-0.06519 -0.1333802,-0.09682 z m -2.247288,0.43963 v 0.0012 9.05e-4 h -0.0012 c -0.01462,0.0074 -0.04833,0.02739 -0.0895,0.05324 0.127716,0.109524 0.22057,0.252573 0.231954,0.418277 l 0.148591,0.148591 c 0.239824,0.239824 0.625978,0.239824 0.865803,0 l 0.486449,-0.486477 c -0.247978,-0.04271 -0.599091,-0.07614 -1.048617,-0.09389 -0.172221,-0.0068 -0.468603,-0.02347 -0.56248,-0.03744 -0.01099,-0.0016 -0.02097,-0.0033 -0.02896,-0.0044 h -0.0012 z"
     class="ColorScheme-Text" />
  <path
     id="gradient-path1"
     style="opacity:0.3;baseline-shift:baseline;display:inline;overflow:visible;vector-effect:none;enable-background:accumulate;stop-color:#000000;stop-opacity:1;fill:url(#linearGradient4)"
     d="M 8.4453131 1.2753492 C 4.4913166 1.2753492 1.2794833 4.4784283 1.2794833 8.4236094 C 1.2794833 12.36879 4.4913166 15.572386 8.4453131 15.572386 C 12.39931 15.572386 15.611143 12.36879 15.611143 8.4236094 C 15.611143 4.4784283 12.39931 1.2753492 8.4453131 1.2753492 z " />
</svg>
