<?xml version="1.0" encoding="UTF-8" standalone="no"?>
<svg
   width="64"
   height="64"
   version="1.1"
   viewBox="0 0 16.933 16.933"
   id="svg7"
   sodipodi:docname="supertuxkart.svg"
   inkscape:version="1.4.2 (ebf0e940d0, 2025-05-08)"
   xmlns:inkscape="http://www.inkscape.org/namespaces/inkscape"
   xmlns:sodipodi="http://sodipodi.sourceforge.net/DTD/sodipodi-0.dtd"
   xmlns:xlink="http://www.w3.org/1999/xlink"
   xmlns="http://www.w3.org/2000/svg"
   xmlns:svg="http://www.w3.org/2000/svg"
   xmlns:rdf="http://www.w3.org/1999/02/22-rdf-syntax-ns#"
   xmlns:cc="http://creativecommons.org/ns#"
   xmlns:dc="http://purl.org/dc/elements/1.1/">
  <sodipodi:namedview
     id="namedview7"
     pagecolor="#9c4444"
     bordercolor="#000000"
     borderopacity="0.25"
     inkscape:showpageshadow="2"
     inkscape:pageopacity="0.0"
     inkscape:pagecheckerboard="0"
     inkscape:deskcolor="#d1d1d1"
     inkscape:zoom="6.1562498"
     inkscape:cx="58.071068"
     inkscape:cy="63.512692"
     inkscape:window-width="2560"
     inkscape:window-height="1392"
     inkscape:window-x="0"
     inkscape:window-y="0"
     inkscape:window-maximized="1"
     inkscape:current-layer="svg7"
     showgrid="false" />
  <defs
     id="defs2">
    <filter
       style="color-interpolation-filters:sRGB;"
       inkscape:label="Blur"
       id="filter3"
       x="-0.10843471"
       y="-0.10870992"
       width="1.2168694"
       height="1.2174198">
      <feGaussianBlur
         stdDeviation="0.5 0.5"
         result="blur"
         id="feGaussianBlur3" />
    </filter>
    <style
       id="current-color-scheme"
       type="text/css">.ColorScheme-Text {color:#d8dee9} .ColorScheme-Highlight {color:#3b4252}</style>
    <linearGradient
       id="linearGradient3"
       inkscape:collect="always">
      <stop
         style="stop-color:#000000;stop-opacity:1;"
         offset="0"
         id="stop3" />
      <stop
         style="stop-color:#000000;stop-opacity:0;"
         offset="1"
         id="stop4" />
    </linearGradient>
    <linearGradient
       inkscape:collect="always"
       xlink:href="#linearGradient3"
       id="linearGradient4"
       x1="13.512321"
       y1="13.490874"
       x2="3.3783066"
       y2="3.3568602"
       gradientUnits="userSpaceOnUse" />
  </defs>
  <metadata
     id="metadata2">
    <rdf:RDF>
      <cc:Work
         rdf:about="">
        <dc:format>image/svg+xml</dc:format>
        <dc:type
           rdf:resource="http://purl.org/dc/dcmitype/StillImage" />
      </cc:Work>
    </rdf:RDF>
  </metadata>
  <ellipse
     style="opacity:1;fill:none;stroke:#000000;stroke-width:0.582072;stroke-dasharray:none;stroke-opacity:1;filter:url(#filter3)"
     id="path1-5"
     cx="8.4450111"
     cy="8.423522"
     rx="6.8752708"
     ry="6.8578653" />
  <ellipse
     style="opacity:1;fill:none;stroke-width:0.58207188;stroke-opacity:1;stroke:currentColor;stroke-dasharray:none;fill-opacity:1"
     id="path1"
     cx="8.4450111"
     cy="8.423522"
     rx="6.8752708"
     ry="6.8578653"
     class="ColorScheme-Text" />
  <ellipse
     style="fill:currentColor;stroke:none;stroke-width:0.285844;stroke-dasharray:none;stroke-opacity:1"
     id="path1-2"
     cx="8.4557552"
     cy="8.423522"
     rx="6.5738997"
     ry="6.5692253"
     class="ColorScheme-Highlight" />
  <path
     id="path28"
     style="opacity:0.3;fill:#000000;fill-opacity:1;stroke-width:0.00669449;stroke-linejoin:bevel;paint-order:fill markers stroke"
     d="m 9.192777,5.9675598 c -0.0251,-3.19e-5 -0.03461,0.00532 -0.03452,0.03276 l 2.92e-4,0.1017904 c 8.9e-5,0.027833 0.01555,0.030081 0.0351,0.030128 l 0.667781,0.00146 c 0.0099,2.3e-5 0.04184,0.00156 0.04504,-0.032175 -2.4e-4,-0.023356 8.49e-4,-0.097403 8.49e-4,-0.097403 -1.8e-5,-0.015739 -0.005,-0.035665 -0.02077,-0.035685 z m -1.519834,0.00644 0.0067,0.5323516 -0.424126,0.0079 -0.0155,-0.5370316 -0.16731,0.00175 0.0012,0.5212366 0.07137,-0.027203 a 0.08368959,0.08368959 0 0 1 0.03305,-0.00526 0.08368959,0.08368959 0 0 1 0.07166,0.045923 l 0.07751,0.1541479 0.393121,-8.774e-4 c 0.07909,-1.953e-4 0.150515,-0.04496 0.149466,-0.1196334 -0.006,-0.4283234 -0.0079,-0.5697917 -0.0079,-0.5697917 z m 2.467244,0.00439 c -0.03184,0.003 -0.05451,0.015626 -0.04622,0.06084 l -2.93e-4,0.6312168 c 0.06583,0.0019 0.131597,8.378e-4 0.197438,0.00146 l -0.0038,-0.2459933 h 0.134257 l 0.265591,0.2457008 0.211186,-0.00644 -0.0032,-0.064643 -0.235756,-0.1953905 0.11466,-0.00293 c 0.04678,-0.0277 0.05056,-0.052104 0.05967,-0.088335 l 9.05e-4,-0.2474558 c -0.0099,-0.056901 -0.06763,-0.081457 -0.129604,-0.077801 z m -4.004044,0.00644 c -0.04694,-1.066e-4 -0.103467,0.038531 -0.1053,0.069907 -0.0042,0.071251 -0.007,0.1352449 -0.0035,0.2070906 0.0033,0.069054 0.04035,0.1118414 0.08453,0.1134904 0.171015,0.00638 0.330253,0.00148 0.501639,0.0038 l -0.0026,0.1199253 -0.416814,-0.00117 -0.002,-0.06084 -0.170821,-0.00146 c 1.8e-5,0.045117 -0.0091,0.090311 0.0117,0.1354279 0.01159,0.025117 0.03773,0.082485 0.0898,0.082485 h 0.547854 l 0.08716,-0.033052 c 0.01558,-0.023651 0.01567,-0.052514 0.0158,-0.06084 l 0.0032,-0.2307832 c -9.62e-4,-0.052172 -0.07293,-0.085023 -0.11963,-0.085705 l -0.458349,-0.00673 -0.0012,-0.1091028 0.416814,-0.00497 2.92e-4,0.072833 0.155903,-0.00234 c -0.0042,-0.1378853 0.01157,-0.085442 -0.0041,-0.1380605 -0.0096,-0.032357 -0.04379,-0.068615 -0.09448,-0.068738 z m 2.027908,0.00234 c 0,0 -0.0019,0.4222015 -0.0047,0.6332643 -2.24e-4,0.016569 0.0018,0.04324 0.0234,0.042998 l 0.143033,-0.00175 c 0.01828,-2.097e-4 0.0254,-0.025305 0.02545,-0.043582 l 5.66e-4,-0.1953906 0.459519,5.83e-4 c 0.05097,6.7e-5 0.134596,-0.070899 0.133965,-0.1281157 l -0.002,-0.1892443 C 8.943177,6.0965525 8.920434,5.9889897 8.819848,5.9901021 8.594881,5.9925921 8.389029,5.9869921 8.164061,5.9871721 Z m 2.4807,0.1471279 8.49e-4,0.1342579 h -0.361502 l -8.49e-4,-0.1330879 z m -2.278289,5.83e-4 0.379374,0.00761 0.0032,0.1231429 -0.382591,5.83e-4 z m 1.308356,0.096233 -0.482041,8.774e-4 c -0.0251,5.49e-5 -0.03461,0.00531 -0.03452,0.03276 l 2.92e-4,0.1017903 c 8.9e-5,0.027832 0.01555,0.030143 0.0351,0.030128 l 0.45601,-2.925e-4 c 0.0099,-8.9e-6 0.04487,0.00104 0.04504,-0.032468 0.0032,-0.029305 8.49e-4,-0.09711 8.49e-4,-0.09711 -1.8e-5,-0.015739 -0.005,-0.035721 -0.02077,-0.035685 z M 9.192777,6.4967084 c -0.0251,-3.19e-5 -0.03461,0.00532 -0.03452,0.03276 l 2.92e-4,0.1014979 c 8.9e-5,0.027833 0.01555,0.030081 0.0351,0.030128 l 0.667781,0.00175 c 0.0099,2.3e-5 0.0475,-0.00274 0.04504,-0.032468 -0.0012,-0.017424 8.49e-4,-0.09711 8.49e-4,-0.09711 -1.8e-5,-0.015739 -0.005,-0.035666 -0.02077,-0.035685 z M 7.134156,6.6616789 6.760047,6.8041268 6.746007,6.8038343 6.38857,6.9398473 H 6.40261 L 4.924312,7.5017268 C 5.044637,7.8787629 5.124564,8.2771473 5.255423,8.6278551 L 5.85739,8.3277492 a 0.08368959,0.08368959 0 0 1 0.11583,0.04563 l 0.213526,0.5735942 -2.93e-4,2.925e-4 v 2.925e-4 2.925e-4 2.925e-4 2.925e-4 2.925e-4 l 0.08015,0.2132329 v 2.926e-4 2.924e-4 l 0.06318,0.1690655 v 2.926e-4 2.925e-4 l 2.92e-4,2.925e-4 0.0035,0.00878 0.01521,0.04095 0.833627,-0.338716 -0.441968,-1.039548 a 0.08368959,0.08368959 0 0 1 0.04329,-0.1091029 l 0.305371,-0.1348429 0.166726,-0.073418 0.0018,0.2764133 v 8.774e-4 l 2.93e-4,0.054405 0.106763,1.0258005 0.0073,0.01755 a 0.08368959,0.08368959 0 0 1 0.0067,0.027495 c 0.176263,0.142503 0.355461,0.3019 0.526502,0.4422612 0.01891,0.00971 0.03093,0.012838 0.03598,0.013455 l 1.330879,-0.1275303 0.105593,-0.070785 0.0275,-0.028958 a 0.08368959,0.08368959 0 0 1 0.115245,-0.00497 l 0.122558,0.1064703 0.0032,-0.00146 0.638237,-0.528549 a 0.08368959,0.08368959 0 0 1 0.130455,0.03159 L 10.721962,9.6413791 11.68429,9.3371782 11.108064,8.2944126 a 0.08368959,0.08368959 0 0 1 0.02135,-0.1058853 l 0.97666,-0.7733723 0.005,-0.03042 L 11.256972,7.0641541 10.75855,7.4935453 A 0.08368959,0.08368959 0 0 1 10.63102,7.4710233 L 10.339381,6.9486077 h 0.0032 l -0.0547,-0.097695 -0.404236,0.096525 h 0.02223 l -0.183983,0.044168 a 0.08368959,0.08368959 0 0 1 -0.09478,-0.044753 h 0.0029 a 0.08368959,0.08368959 0 0 1 -0.0099,-0.026325 l -0.0044,-0.02223 -0.826023,0.03861 v 0.00556 h -2.92e-4 l 0.03247,1.3908416 a 0.08368959,0.08368959 0 0 1 -0.03393,0.06903 l -0.131909,0.097402 a 0.08368959,0.08368959 0 0 1 -0.0465,0.01638 L 8.312054,8.5275283 A 0.08368959,0.08368959 0 0 1 8.243024,8.4959393 L 8.100868,8.3160513 a 0.08368959,0.08368959 0 0 1 -0.01784,-0.044752 c -0.0279,-0.3276719 -0.04111,-0.4916369 -0.04709,-0.5744717 -0.003,-0.041417 -0.0044,-0.06171 -0.0047,-0.075758 -1.42e-4,-0.00702 -0.0011,-0.010241 0.0018,-0.026032 5.4e-5,-3.145e-4 2.48e-4,-0.00112 2.93e-4,-0.00146 -2.99e-4,-0.00839 -0.0012,-0.02417 -0.0038,-0.060548 -0.005,-0.069485 -0.01957,-0.2484056 -0.04008,-0.491109 -0.154213,0.00872 -0.309688,0.018854 -0.466539,0.023693 l -0.18369,0.00497 -0.0012,-0.00205 c -4.34e-4,-6e-7 -7.92e-4,7e-7 -0.0012,0 l -0.0839,-0.1722811 c 6.23e-4,1.36e-5 0.0014,-1.31e-5 0.002,0 l -0.04592,-0.090968 h -0.0027 z M 5.438236,6.7968143 5.43733,6.9377997 5.920249,6.9386771 6.27827,6.8026642 5.52274,6.8006142 Z m 1.958586,0.00878 0.04534,0.090383 c 0.204384,-0.00449 0.411022,-0.020424 0.61981,-0.031005 a 0.08368959,0.08368959 0 0 1 0.0819,0.078683 h 0.0044 l 0.0012,-0.00234 c 6.4e-5,7.472e-4 2.26e-4,0.00159 2.92e-4,0.00234 l 0.472682,0.00117 -0.002,-0.085703 a 0.08368959,0.08368959 0 0 1 0.0155,-0.050018 z m 3.062191,0.00819 0.07517,0.1351354 0.592314,0.00117 0.05879,-0.050602 a 0.08368959,0.08368959 0 0 1 0.08395,-0.014918 l 0.164385,0.061718 -0.0015,-0.1298704 z M 9.657268,7.4953112 9.96966,8.1309156 9.683886,8.3578962 Z M 5.83516,9.1681236 5.098935,9.1833336 4.532946,11.232887 c -0.01157,0.04187 -0.02809,0.09253 -0.0351,0.128993 l 1.126713,0.01287 0.03598,-0.460396 a 0.08368959,0.08368959 0 0 1 0.158536,-0.03042 l 0.559554,1.139875 0.190711,-0.102082 -2.92e-4,-2.93e-4 0.217912,-0.116415 0.329941,0.02047 0.284019,0.0193 0.07547,-0.286066 0.08366,-0.0623 0.329941,0.01053 0.07868,0.06377 0.07547,0.310636 0.648182,0.05031 0.01667,0.0085 0.05557,0.0047 0.03685,0.07722 0.685914,-0.08804 0.05148,-0.01082 -0.0076,-0.244238 -0.0234,-0.320289 0.176963,0.269686 0.02106,0.03188 0.03217,0.04914 0.192758,0.295719 0.760795,-0.292794 -0.01433,-0.01082 0.115245,-0.07985 -8.49e-4,0.162338 0.0029,0.0023 0.976953,-0.112027 -0.151223,-1.060024 0.07985,-0.09536 0.735055,-0.02808 -0.06552,-0.9822176 -0.520652,0.011993 -2.92e-4,2.925e-4 -0.192173,0.00556 -0.0076,2.925e-4 -0.01726,5.831e-4 h -2.93e-4 l -0.0272,0.00848 2.92e-4,2.925e-4 -0.184861,0.0585 -0.850299,0.2685158 -0.08717,-0.2316606 -0.186615,0.01989 -0.01082,-0.00117 -0.03832,-0.0079 -0.06493,-0.035685 -0.231953,-0.1339654 -0.215866,0.09009 -0.03773,0.031298 a 0.08368959,0.08368959 0 0 1 -0.108226,-0.00146 l -0.0392,-0.03393 -0.247749,0.038902 -0.03101,0.011115 C 8.614871,9.6704612 8.940784,9.6364142 8.547193,9.6650762 L 8.665956,10.92868 8.285998,9.685259 c -0.09047,0.00716 -0.198853,0.015918 -0.329064,0.026618 -0.0028,2.246e-4 -0.0054,1.877e-4 -0.0082,2.925e-4 h -2.92e-4 l -0.04359,0.00439 a 0.08368959,0.08368959 0 0 1 -0.06055,-0.018135 c -0.01192,-0.00961 -0.02371,-0.019456 -0.03568,-0.02925 -0.02736,-0.015282 -0.05078,-0.029387 -0.07283,-0.040365 l -0.357729,-0.02808 -0.0035,0.01053 -2.93e-4,2.925e-4 -2.92e-4,2.925e-4 -2.93e-4,2.925e-4 -2.92e-4,2.925e-4 -0.08746,0.2813856 -5.66e-4,5.66e-4 -0.252428,0.8020379 -0.05353,0.182227 0.0018,0.0032 -0.06581,0.221423 -0.0012,-0.0023 -5.66e-4,0.0012 -0.115245,-0.200656 2.92e-4,-0.0015 -0.227565,-0.395461 a 0.08368959,0.08368959 0 0 1 0.0114,-0.09886 L 7.137082,9.80812 7.165452,9.718322 6.799241,9.3892585 6.155155,9.6510468 5.929344,9.8768572 A 0.08368959,0.08368959 0 0 1 5.786603,9.8116302 Z m 3.728508,0.8836444 0.143325,0.09594 0.0819,0.284018 -0.0819,0.106471 -0.332865,0.06406 -0.06377,-0.475899 z m 0.990116,0.502517 0.229905,0.002 c 0,0 0.01555,0.916496 0.0085,1.064996 L 10.156,10.978989 l 0.219376,-0.03276 0.205628,-0.222886 z m -2.817368,0.04797 0.118462,0.441091 -0.226396,-0.03042 c -0.0056,-0.02894 0.107934,-0.410671 0.107934,-0.410671 z" />
  <path
     id="path28-7"
     style="fill:currentColor;fill-opacity:1;stroke-width:0.00669449;stroke-linejoin:bevel;paint-order:fill markers stroke"
     class="ColorScheme-Text"
     d="m 9.192777,5.4384166 c -0.0251,-3.2e-5 -0.03461,0.0053 -0.03452,0.03276 l 2.92e-4,0.10179 c 8.9e-5,0.02783 0.01555,0.03008 0.0351,0.03013 l 0.667781,0.0015 c 0.0099,2.3e-5 0.04184,0.0016 0.04504,-0.03218 -2.4e-4,-0.02336 8.49e-4,-0.0974 8.49e-4,-0.0974 -1.8e-5,-0.01574 -0.005,-0.03566 -0.02077,-0.03569 z m -1.519834,0.0064 0.0067,0.532352 -0.424126,0.0079 -0.0155,-0.537032 -0.16731,0.0017 0.0012,0.521237 0.07137,-0.0272 a 0.08368959,0.08368959 0 0 1 0.03305,-0.0053 0.08368959,0.08368959 0 0 1 0.07166,0.04592 l 0.07751,0.154147 0.393121,-8.77e-4 c 0.07909,-1.95e-4 0.150515,-0.04496 0.149466,-0.119633 -0.006,-0.428324 -0.0079,-0.569792 -0.0079,-0.569792 z m 2.467244,0.0044 c -0.03184,0.003 -0.05451,0.01563 -0.04622,0.06084 l -2.93e-4,0.631217 c 0.06583,0.0019 0.131597,8.38e-4 0.197438,0.0015 l -0.0038,-0.245993 h 0.134257 l 0.265591,0.2457 0.211186,-0.0064 -0.0032,-0.06464 -0.235756,-0.19539 0.11466,-0.0029 c 0.04678,-0.0277 0.05056,-0.0521 0.05967,-0.08833 l 9.05e-4,-0.247456 c -0.0099,-0.0569 -0.06763,-0.08146 -0.129604,-0.0778 z m -4.004044,0.0064 c -0.04694,-1.07e-4 -0.103467,0.03853 -0.1053,0.06991 -0.0042,0.07125 -0.007,0.135245 -0.0035,0.207091 0.0033,0.06905 0.04035,0.111841 0.08453,0.11349 0.171015,0.0064 0.330253,0.0015 0.501639,0.0038 l -0.0026,0.119925 -0.416814,-0.0012 -0.002,-0.06084 -0.170821,-0.0015 c 1.8e-5,0.04512 -0.0091,0.09031 0.0117,0.135428 0.01159,0.02512 0.03773,0.08249 0.0898,0.08249 h 0.547854 l 0.08716,-0.03305 c 0.01558,-0.02365 0.01567,-0.05251 0.0158,-0.06084 l 0.0032,-0.230783 c -9.62e-4,-0.05217 -0.07293,-0.08502 -0.11963,-0.0857 l -0.458349,-0.0067 -0.0012,-0.109103 0.416814,-0.005 2.92e-4,0.07283 0.155903,-0.0023 c -0.0042,-0.137885 0.01157,-0.08544 -0.0041,-0.13806 -0.0096,-0.03236 -0.04379,-0.06861 -0.09448,-0.06874 z m 2.027908,0.0023 c 0,0 -0.0019,0.422201 -0.0047,0.633264 -2.24e-4,0.01657 0.0018,0.04324 0.0234,0.043 l 0.143033,-0.0017 c 0.01828,-2.09e-4 0.0254,-0.02531 0.02545,-0.04358 l 5.66e-4,-0.19539 0.459519,5.83e-4 c 0.05097,6.7e-5 0.134596,-0.0709 0.133965,-0.128116 l -0.002,-0.189244 c -1.07e-4,-0.0094 -0.02285,-0.116943 -0.123436,-0.115831 -0.224967,0.0025 -0.430819,-0.0031 -0.655787,-0.0029 z m 2.4807,0.147128 8.49e-4,0.134258 h -0.361502 l -8.49e-4,-0.133088 z m -2.278289,5.83e-4 0.379374,0.0076 0.0032,0.123143 -0.382591,5.83e-4 z m 1.308356,0.09623 -0.482041,8.77e-4 c -0.0251,5.5e-5 -0.03461,0.0053 -0.03452,0.03276 l 2.92e-4,0.101791 c 8.9e-5,0.02783 0.01555,0.03014 0.0351,0.03013 l 0.45601,-2.93e-4 c 0.0099,-9e-6 0.04487,0.001 0.04504,-0.03247 0.0032,-0.0293 8.49e-4,-0.09711 8.49e-4,-0.09711 -1.8e-5,-0.01574 -0.005,-0.03572 -0.02077,-0.03569 z m -0.482041,0.265595 c -0.0251,-3.2e-5 -0.03461,0.0053 -0.03452,0.03276 l 2.92e-4,0.101497 c 8.9e-5,0.02783 0.01555,0.03008 0.0351,0.03013 l 0.667781,0.0017 c 0.0099,2.3e-5 0.0475,-0.0027 0.04504,-0.03247 -0.0012,-0.01742 8.49e-4,-0.09711 8.49e-4,-0.09711 -1.8e-5,-0.01574 -0.005,-0.03567 -0.02077,-0.03568 z m -2.058621,0.16497 -0.374109,0.142448 -0.01404,-2.93e-4 -0.357437,0.136013 h 0.01404 l -1.478298,0.56188 c 0.120325,0.377036 0.200252,0.77542 0.331111,1.126128 L 5.85739,7.7984926 a 0.08368959,0.08368959 0 0 1 0.11583,0.04563 l 0.213526,0.573595 -2.93e-4,2.92e-4 v 2.93e-4 2.92e-4 2.93e-4 2.92e-4 2.93e-4 l 0.08015,0.213232 v 2.93e-4 2.92e-4 l 0.06318,0.169066 v 2.93e-4 2.92e-4 l 2.92e-4,2.93e-4 0.0035,0.0088 0.01521,0.04095 0.833627,-0.338716 -0.441968,-1.039548 a 0.08368959,0.08368959 0 0 1 0.04329,-0.109103 l 0.305371,-0.134843 0.166726,-0.07342 0.0018,0.276413 v 8.77e-4 l 2.93e-4,0.05441 0.106763,1.025801 0.0073,0.01755 a 0.08368959,0.08368959 0 0 1 0.0067,0.0275 c 0.176263,0.142503 0.355461,0.3019 0.526502,0.442261 0.01891,0.0097 0.03093,0.01284 0.03598,0.01345 l 1.330879,-0.12753 0.105593,-0.07079 0.0275,-0.02896 a 0.08368959,0.08368959 0 0 1 0.115245,-0.005 l 0.122558,0.10647 0.0032,-0.0015 0.638237,-0.528549 a 0.08368959,0.08368959 0 0 1 0.130455,0.03159 l 0.307126,0.720722 0.962328,-0.304201 -0.576226,-1.042765 a 0.08368959,0.08368959 0 0 1 0.02135,-0.105886 l 0.97666,-0.773372 0.005,-0.03042 -0.854102,-0.320581 -0.498422,0.429392 a 0.08368959,0.08368959 0 0 1 -0.12753,-0.02252 l -0.291639,-0.522251 h 0.0032 l -0.0547,-0.09769 -0.404236,0.09652 h 0.02223 l -0.183983,0.04417 a 0.08368959,0.08368959 0 0 1 -0.09478,-0.04475 h 0.0029 a 0.08368959,0.08368959 0 0 1 -0.0099,-0.02632 l -0.0044,-0.02223 -0.826023,0.03861 v 0.0056 h -2.92e-4 l 0.03247,1.390841 a 0.08368959,0.08368959 0 0 1 -0.03393,0.06903 l -0.131909,0.0974 a 0.08368959,0.08368959 0 0 1 -0.0465,0.01638 l -0.297474,0.01141 a 0.08368959,0.08368959 0 0 1 -0.06903,-0.03159 L 8.100868,7.7869576 a 0.08368959,0.08368959 0 0 1 -0.01784,-0.04475 c -0.0279,-0.327671 -0.04111,-0.491636 -0.04709,-0.574471 -0.003,-0.04142 -0.0044,-0.06171 -0.0047,-0.07576 -1.42e-4,-0.007 -0.0011,-0.01024 0.0018,-0.02603 5.4e-5,-3.15e-4 2.48e-4,-0.0011 2.93e-4,-0.0015 -2.99e-4,-0.0084 -0.0012,-0.02417 -0.0038,-0.06055 -0.005,-0.06949 -0.01957,-0.248406 -0.04008,-0.491109 -0.154213,0.0087 -0.309688,0.01885 -0.466539,0.02369 l -0.18369,0.005 -0.0012,-0.0021 c -4.34e-4,-1e-6 -7.92e-4,0 -0.0012,0 l -0.0839,-0.172281 c 6.23e-4,1.3e-5 0.0014,-1.3e-5 0.002,0 l -0.04592,-0.09097 h -0.0027 z m -1.69592,0.135135 -9.06e-4,0.140986 0.482919,8.77e-4 0.358021,-0.136013 -0.75553,-0.0021 z m 1.958586,0.0088 0.04534,0.09038 c 0.204384,-0.0045 0.411022,-0.02042 0.61981,-0.03101 a 0.08368959,0.08368959 0 0 1 0.0819,0.07868 h 0.0044 l 0.0012,-0.0023 c 6.4e-5,7.48e-4 2.26e-4,0.0016 2.92e-4,0.0023 l 0.472682,0.0012 -0.002,-0.0857 a 0.08368959,0.08368959 0 0 1 0.0155,-0.05002 z m 3.062191,0.0082 0.07517,0.135136 0.592314,0.0012 0.05879,-0.0506 a 0.08368959,0.08368959 0 0 1 0.08395,-0.01492 l 0.164385,0.06172 -0.0015,-0.129871 z m -0.801745,0.681527 0.312392,0.635605 -0.285774,0.22698 z M 5.83516,8.6388976 5.098935,8.6541076 4.532946,10.703662 c -0.01157,0.04187 -0.02809,0.09253 -0.0351,0.128992 l 1.126713,0.01287 0.03598,-0.460396 a 0.08368959,0.08368959 0 0 1 0.158536,-0.03042 l 0.559554,1.139876 0.190711,-0.102083 -2.92e-4,-2.93e-4 0.217912,-0.116415 0.329941,0.02047 0.284019,0.0193 0.07547,-0.286065 0.08366,-0.0623 0.329941,0.01053 0.07868,0.06377 0.07547,0.310636 0.648182,0.05031 0.01667,0.0085 0.05557,0.0047 0.03685,0.07722 0.685914,-0.08804 0.05148,-0.01082 -0.0076,-0.244239 -0.0234,-0.320288 0.176963,0.269685 0.02106,0.03189 0.03217,0.04914 0.192758,0.295719 0.760795,-0.292794 -0.01433,-0.01082 0.115245,-0.07985 -8.49e-4,0.162339 0.0029,0.0023 0.976953,-0.112028 -0.151223,-1.060023 0.07985,-0.09536 0.735055,-0.02808 -0.06552,-0.982218 -0.520652,0.01199 -2.92e-4,2.92e-4 -0.192173,0.0056 -0.0076,2.93e-4 -0.01726,5.83e-4 h -2.93e-4 l -0.0272,0.0085 2.92e-4,2.93e-4 -0.184861,0.0585 -0.850299,0.268515 -0.08717,-0.23166 -0.186615,0.01989 -0.01082,-0.0012 -0.03832,-0.0079 -0.06493,-0.03569 -0.231953,-0.133966 -0.215866,0.09009 -0.03773,0.0313 a 0.08368959,0.08368959 0 0 1 -0.108226,-0.0015 l -0.0392,-0.03393 -0.247749,0.0389 -0.03101,0.01112 c -0.654836,0.06184 -0.328923,0.02779 -0.722514,0.05646 L 8.665956,10.399461 8.285998,9.1560396 c -0.09047,0.0072 -0.198853,0.01592 -0.329064,0.02662 -0.0028,2.25e-4 -0.0054,1.88e-4 -0.0082,2.93e-4 h -2.92e-4 l -0.04359,0.0044 a 0.08368959,0.08368959 0 0 1 -0.06055,-0.01813 c -0.01192,-0.0096 -0.02371,-0.01946 -0.03568,-0.02925 -0.02736,-0.01528 -0.05078,-0.02939 -0.07283,-0.04036 l -0.357729,-0.02808 -0.0035,0.01053 -2.93e-4,2.92e-4 -2.92e-4,2.93e-4 -2.93e-4,2.92e-4 -2.92e-4,2.93e-4 -0.08746,0.281385 -5.66e-4,5.66e-4 -0.252428,0.8020384 -0.05353,0.182227 0.0018,0.0032 -0.06581,0.221424 -0.0012,-0.0023 -5.66e-4,0.0012 -0.115245,-0.200656 2.92e-4,-0.0015 -0.227565,-0.3954624 a 0.08368959,0.08368959 0 0 1 0.0114,-0.09886 l 0.554567,-0.597597 0.02837,-0.0898 -0.366211,-0.329063 -0.644086,0.261788 -0.225811,0.22581 a 0.08368959,0.08368959 0 0 1 -0.142741,-0.06523 z m 3.728508,0.883645 0.143325,0.09594 0.0819,0.284018 -0.0819,0.1064704 -0.332865,0.06406 -0.06377,-0.4758994 z m 0.990116,0.5025164 0.229905,0.002 c 0,0 0.01555,0.916496 0.0085,1.064996 L 10.156,10.449723 l 0.219376,-0.03276 0.205628,-0.222885 z M 7.736416,10.073029 7.854878,10.51412 7.628482,10.4837 c -0.0056,-0.02894 0.107934,-0.410671 0.107934,-0.410671 z" />
  <path
     id="gradient-path1"
     style="opacity:0.3;baseline-shift:baseline;display:inline;overflow:visible;vector-effect:none;enable-background:accumulate;stop-color:#000000;stop-opacity:1;fill:url(#linearGradient4)"
     d="M 8.4453131 1.2753492 C 4.4913166 1.2753492 1.2794833 4.4784283 1.2794833 8.4236094 C 1.2794833 12.36879 4.4913166 15.572386 8.4453131 15.572386 C 12.39931 15.572386 15.611143 12.36879 15.611143 8.4236094 C 15.611143 4.4784283 12.39931 1.2753492 8.4453131 1.2753492 z " />
</svg>
