<?xml version="1.0" encoding="UTF-8" standalone="no"?>
<svg
   width="64"
   height="64"
   version="1.1"
   viewBox="0 0 16.933 16.933"
   id="svg7"
   sodipodi:docname="system-config-samba.svg"
   inkscape:version="1.4.2 (ebf0e940d0, 2025-05-08)"
   xmlns:inkscape="http://www.inkscape.org/namespaces/inkscape"
   xmlns:sodipodi="http://sodipodi.sourceforge.net/DTD/sodipodi-0.dtd"
   xmlns:xlink="http://www.w3.org/1999/xlink"
   xmlns="http://www.w3.org/2000/svg"
   xmlns:svg="http://www.w3.org/2000/svg"
   xmlns:rdf="http://www.w3.org/1999/02/22-rdf-syntax-ns#"
   xmlns:cc="http://creativecommons.org/ns#"
   xmlns:dc="http://purl.org/dc/elements/1.1/">
  <sodipodi:namedview
     id="namedview7"
     pagecolor="#9c4444"
     bordercolor="#000000"
     borderopacity="0.25"
     inkscape:showpageshadow="2"
     inkscape:pageopacity="0.0"
     inkscape:pagecheckerboard="0"
     inkscape:deskcolor="#d1d1d1"
     inkscape:zoom="6.1562498"
     inkscape:cx="58.233504"
     inkscape:cy="63.512692"
     inkscape:window-width="2560"
     inkscape:window-height="1392"
     inkscape:window-x="0"
     inkscape:window-y="0"
     inkscape:window-maximized="1"
     inkscape:current-layer="svg7"
     showgrid="false" />
  <defs
     id="defs2">
    <filter
       style="color-interpolation-filters:sRGB;"
       inkscape:label="Blur"
       id="filter3"
       x="-0.10843471"
       y="-0.10870992"
       width="1.2168694"
       height="1.2174198">
      <feGaussianBlur
         stdDeviation="0.5 0.5"
         result="blur"
         id="feGaussianBlur3" />
    </filter>
    <style
       id="current-color-scheme"
       type="text/css">.ColorScheme-Text {color:#d8dee9} .ColorScheme-Highlight {color:#3b4252}</style>
    <linearGradient
       id="linearGradient3"
       inkscape:collect="always">
      <stop
         style="stop-color:#000000;stop-opacity:1;"
         offset="0"
         id="stop3" />
      <stop
         style="stop-color:#000000;stop-opacity:0;"
         offset="1"
         id="stop4" />
    </linearGradient>
    <linearGradient
       inkscape:collect="always"
       xlink:href="#linearGradient3"
       id="linearGradient4"
       x1="13.512321"
       y1="13.490874"
       x2="3.3783066"
       y2="3.3568602"
       gradientUnits="userSpaceOnUse" />
  </defs>
  <metadata
     id="metadata2">
    <rdf:RDF>
      <cc:Work
         rdf:about="">
        <dc:format>image/svg+xml</dc:format>
        <dc:type
           rdf:resource="http://purl.org/dc/dcmitype/StillImage" />
      </cc:Work>
    </rdf:RDF>
  </metadata>
  <ellipse
     style="opacity:1;fill:none;stroke:#000000;stroke-width:0.582072;stroke-dasharray:none;stroke-opacity:1;filter:url(#filter3)"
     id="path1-5"
     cx="8.4450111"
     cy="8.423522"
     rx="6.8752708"
     ry="6.8578653" />
  <ellipse
     style="opacity:1;fill:none;stroke-width:0.58207188;stroke-opacity:1;stroke:currentColor;stroke-dasharray:none;fill-opacity:1"
     id="path1"
     cx="8.4450111"
     cy="8.423522"
     rx="6.8752708"
     ry="6.8578653"
     class="ColorScheme-Text" />
  <ellipse
     style="fill:currentColor;stroke:none;stroke-width:0.285844;stroke-dasharray:none;stroke-opacity:1"
     id="path1-2"
     cx="8.4557552"
     cy="8.423522"
     rx="6.5738997"
     ry="6.5692253"
     class="ColorScheme-Highlight" />
  <path
     id="path5"
     style="opacity:0.3;fill:#000000;fill-opacity:1;stroke-width:0.496084"
     d="M 8.4665005,5.0269844 A 3.968672,3.968672 0 0 0 4.4978285,8.9956565 3.968672,3.968672 0 0 0 8.4665005,12.964328 3.968672,3.968672 0 0 0 12.435171,8.9956565 3.968672,3.968672 0 0 0 8.4665005,5.0269844 Z m -1.254744,1.9843353 a 0.27504245,0.18422762 0 0 1 0.252887,0.092043 l 0.965038,1.1200652 a 0.27504245,0.18422762 0 0 1 -0.238353,0.276141 h -0.716996 v 2.2323771 c 0,0.137418 -0.110627,0.248041 -0.248042,0.248041 -0.137415,0 -0.248042,-0.110624 -0.248042,-0.248041 V 8.4995689 H 6.2612515 A 0.27504245,0.18422762 0 0 1 6.0228985,8.2234321 l 0.965039,-1.120065 a 0.27504245,0.18422762 0 0 1 0.223819,-0.092044 z m 2.494954,0 c 0.137415,0 0.248042,0.1106247 0.248042,0.2480436 v 2.2323769 h 0.7169955 a 0.27504245,0.18422762 0 0 1 0.238353,0.2761406 L 9.9450635,10.887946 a 0.27504245,0.18422762 0 0 1 -0.252887,0.09204 0.27504245,0.18422762 0 0 1 -0.223819,-0.09204 L 8.5033185,9.7678808 a 0.27504245,0.18422762 0 0 1 0.238353,-0.2761406 h 0.716997 V 7.2593633 c 0,-0.1374189 0.110627,-0.2480436 0.248042,-0.2480436 z" />
  <path
     id="path5-7"
     style="fill:currentColor;fill-opacity:1;stroke-width:0.496084"
     d="m 8.4665005,4.4978285 a 3.968672,3.968672 0 0 0 -3.968672,3.968672 3.968672,3.968672 0 0 0 3.968672,3.9686705 3.968672,3.968672 0 0 0 3.9686705,-3.9686705 3.968672,3.968672 0 0 0 -3.9686705,-3.968672 z m -1.254744,1.984335 a 0.27504245,0.18422762 0 0 1 0.252887,0.09204 l 0.965038,1.120065 a 0.27504245,0.18422762 0 0 1 -0.238353,0.276141 h -0.716996 v 2.2323765 c 0,0.137419 -0.110627,0.248042 -0.248042,0.248042 -0.137415,0 -0.248042,-0.110625 -0.248042,-0.248042 V 7.9704095 h -0.716997 a 0.27504245,0.18422762 0 0 1 -0.238353,-0.276137 l 0.965039,-1.120065 a 0.27504245,0.18422762 0 0 1 0.223819,-0.09204 z m 2.494954,0 c 0.137415,0 0.248042,0.110625 0.248042,0.248043 v 2.232377 h 0.7169965 a 0.27504245,0.18422762 0 0 1 0.238353,0.276141 L 9.9450635,10.358789 a 0.27504245,0.18422762 0 0 1 -0.252887,0.09204 0.27504245,0.18422762 0 0 1 -0.223819,-0.09204 L 8.5033185,9.2387245 a 0.27504245,0.18422762 0 0 1 0.238353,-0.276141 h 0.716997 v -2.232377 c 0,-0.137418 0.110627,-0.248043 0.248042,-0.248043 z"
     class="ColorScheme-Text" />
  <path
     id="gradient-path1"
     style="opacity:0.3;baseline-shift:baseline;display:inline;overflow:visible;vector-effect:none;enable-background:accumulate;stop-color:#000000;stop-opacity:1;fill:url(#linearGradient4)"
     d="M 8.4453131 1.2753492 C 4.4913166 1.2753492 1.2794833 4.4784283 1.2794833 8.4236094 C 1.2794833 12.36879 4.4913166 15.572386 8.4453131 15.572386 C 12.39931 15.572386 15.611143 12.36879 15.611143 8.4236094 C 15.611143 4.4784283 12.39931 1.2753492 8.4453131 1.2753492 z " />
</svg>
