<?xml version='1.0' encoding='UTF-8'?>
<svg xmlns:inkscape="http://www.inkscape.org/namespaces/inkscape" xmlns:sodipodi="http://sodipodi.sourceforge.net/DTD/sodipodi-0.dtd" xmlns="http://www.w3.org/2000/svg" xmlns:svg="http://www.w3.org/2000/svg" xmlns:rdf="http://www.w3.org/1999/02/22-rdf-syntax-ns#" xmlns:cc="http://creativecommons.org/ns#" xmlns:dc="http://purl.org/dc/elements/1.1/" width="64" height="64" version="1.1" viewBox="0 0 16.933 16.933" id="svg7" sodipodi:docname="tauonmb.svg" inkscape:version="1.4.2 (ebf0e940d0, 2025-05-08)">
  <sodipodi:namedview id="namedview7" pagecolor="#9c4444" bordercolor="#000000" borderopacity="0.25" inkscape:showpageshadow="2" inkscape:pageopacity="0.0" inkscape:pagecheckerboard="0" inkscape:deskcolor="#d1d1d1" inkscape:zoom="4.3531261" inkscape:cx="36.755195" inkscape:cy="26.188077" inkscape:window-width="2560" inkscape:window-height="1376" inkscape:window-x="0" inkscape:window-y="0" inkscape:window-maximized="1" inkscape:current-layer="svg7" showgrid="false"/>
  <defs id="defs2">
    <filter style="color-interpolation-filters:sRGB;" inkscape:label="Blur" id="filter3" x="-0.10843471" y="-0.10870992" width="1.2168694" height="1.2174198">
      <feGaussianBlur stdDeviation="0.5 0.5" result="blur" id="feGaussianBlur3"/>
    </filter>
    <style id="current-color-scheme" type="text/css">.ColorScheme-Text {color:#d8dee9} .ColorScheme-Highlight {color:#3b4252}</style>
  <linearGradient id="linearGradient3" inkscape:collect="always">
      <stop style="stop-color:#000000;stop-opacity:1;" offset="0" id="stop3"/>
      <stop style="stop-color:#000000;stop-opacity:0;" offset="1" id="stop4"/>
    </linearGradient>
    <linearGradient xmlns:xlink="http://www.w3.org/1999/xlink" inkscape:collect="always" xlink:href="#linearGradient3" id="linearGradient4" x1="13.512321" y1="13.490874" x2="3.3783066" y2="3.3568602" gradientUnits="userSpaceOnUse"/>
  </defs>
  <metadata id="metadata2">
    <rdf:RDF>
      <cc:Work rdf:about="">
        <dc:format>image/svg+xml</dc:format>
        <dc:type rdf:resource="http://purl.org/dc/dcmitype/StillImage"/>
      </cc:Work>
    </rdf:RDF>
  </metadata>
  <ellipse style="opacity:1;fill:none;stroke:#000000;stroke-width:0.582072;stroke-dasharray:none;stroke-opacity:1;filter:url(#filter3)" id="path1-5" cx="8.4450111" cy="8.423522" rx="6.8752708" ry="6.8578653"/>
  <ellipse style="opacity:1;fill:none;stroke-width:0.58207188;stroke-opacity:1;stroke:currentColor;stroke-dasharray:none;fill-opacity:1" id="path1" cx="8.4450111" cy="8.423522" rx="6.8752708" ry="6.8578653" class="ColorScheme-Text"/>
  <ellipse style="fill:currentColor;stroke:none;stroke-width:0.285844;stroke-dasharray:none;stroke-opacity:1" id="path1-2" cx="8.4557552" cy="8.423522" rx="6.5738997" ry="6.5692253" class="ColorScheme-Highlight"/>
<path fill="currentColor" class="ColorScheme-Text" d="m 8.4665,5.0767251 c -2.164229,0 -3.918931,1.7547014 -3.918931,3.9189312 0,2.1642297 1.754702,3.9189307 3.918931,3.9189307 2.16423,0 3.918931,-1.754701 3.918931,-3.9189307 0,-2.1642298 -1.754701,-3.9189312 -3.918931,-3.9189312 z m 0,0.5844106 c 1.839449,0 3.335011,1.4950722 3.335011,3.3345206 0,1.8394477 -1.495562,3.3350097 -3.335011,3.3350097 -1.839448,0 -3.33501,-1.495562 -3.33501,-3.3350097 0,-1.8394484 1.496052,-3.3350105 3.33501,-3.3350105 z M 7.929606,6.1887217 C 6.780871,6.4116111 5.882945,7.3100259 5.659565,8.4582729 l 0.80975,0.1508787 C 6.627044,7.7935242 7.264858,7.155718 8.080485,6.998471 Z M 8.315621,7.5069523 C 7.564657,7.5833713 6.977796,8.223137 6.977796,8.9951664 6.977305,9.3904885 7.133581,9.7696451 7.413287,10.048869 7.692512,10.328093 8.071668,10.48485 8.4665,10.48436 8.861333,10.48485 9.240488,10.328092 9.519713,10.048869 9.798936,9.7696451 9.955693,9.3904885 9.955204,8.9956563 9.955693,8.6008239 9.798938,8.2216673 9.519713,7.9424435 9.240488,7.6632197 8.861333,7.5064624 8.4665,7.5069523 c -0.05192,0 -0.09992,-0.00441 -0.150879,0 z M 8.4665,8.6370741 c 0.196437,0 0.358093,0.1616563 0.358093,0.3580923 0,0.1969263 -0.161654,0.3580923 -0.358093,0.3580923 C 8.269084,9.3527688 8.109388,9.1930725 8.108407,8.9956563 8.108407,8.7992197 8.270062,8.637564 8.4665,8.637564 Z m 1.997185,0.7445968 C 10.305956,10.197298 9.668142,10.835104 8.852516,10.992351 l 0.150878,0.810239 c 1.148736,-0.222889 2.047152,-1.121304 2.270041,-2.2705301 z" id="path24" style="opacity:0.3;fill:#000000;fill-opacity:1;stroke-width:0.489866"/>
  <path fill="currentColor" class="ColorScheme-Text" d="m 8.4665,4.547569 c -2.164229,0 -3.918931,1.754701 -3.918931,3.918931 0,2.164229 1.754702,3.918931 3.918931,3.918931 2.16423,0 3.918931,-1.754702 3.918931,-3.918931 0,-2.16423 -1.754701,-3.918931 -3.918931,-3.918931 z m 0,0.58441 c 1.839449,0 3.335011,1.495072 3.335011,3.334521 0,1.839448 -1.495562,3.33501 -3.335011,3.33501 -1.839448,0 -3.33501,-1.495562 -3.33501,-3.33501 0,-1.839449 1.496052,-3.335011 3.33501,-3.335011 z M 7.929606,5.659565 C 6.780871,5.882455 5.882945,6.780869 5.659565,7.929116 l 0.80975,0.150879 C 6.627044,7.264368 7.264858,6.626562 8.080485,6.469315 Z M 8.315621,6.977796 C 7.564657,7.054216 6.977796,7.693981 6.977796,8.46601 6.977305,8.861332 7.133581,9.240489 7.413287,9.519712 7.692512,9.798936 8.071668,9.955693 8.4665,9.955204 8.861333,9.955693 9.240488,9.798935 9.519713,9.519712 9.798936,9.240489 9.955693,8.861332 9.955204,8.4665 9.955693,8.071667 9.798938,7.692511 9.519713,7.413287 9.240488,7.134063 8.861333,6.977306 8.4665,6.977796 c -0.05192,0 -0.09992,-0.0044 -0.150879,0 z M 8.4665,8.107918 c 0.196437,0 0.358093,0.161656 0.358093,0.358092 0,0.196926 -0.161654,0.358092 -0.358093,0.358092 C 8.269084,8.823612 8.109388,8.663916 8.108407,8.4665 c 0,-0.196437 0.161656,-0.358092 0.358093,-0.358092 z m 1.997185,0.744596 c -0.157728,0.815628 -0.795542,1.453434 -1.611168,1.610681 l 0.150877,0.810239 c 1.148736,-0.222889 2.047152,-1.121304 2.270041,-2.270531 z" id="path24-1" style="stroke-width:0.489866"/>
<path id="gradient-path1" style="opacity:0.3;baseline-shift:baseline;display:inline;overflow:visible;vector-effect:none;enable-background:accumulate;stop-color:#000000;stop-opacity:1;fill:url(#linearGradient4)" d="M 8.4453131 1.2753492 C 4.4913166 1.2753492 1.2794833 4.4784283 1.2794833 8.4236094 C 1.2794833 12.36879 4.4913166 15.572386 8.4453131 15.572386 C 12.39931 15.572386 15.611143 12.36879 15.611143 8.4236094 C 15.611143 4.4784283 12.39931 1.2753492 8.4453131 1.2753492 z "/>
</svg>
