<?xml version="1.0" encoding="UTF-8" standalone="no"?>
<svg
   width="64"
   height="64"
   version="1.1"
   viewBox="0 0 16.933 16.933"
   id="svg7"
   sodipodi:docname="moe.launcher.the-honkers-railway-launcher.svg"
   inkscape:version="1.4.2 (ebf0e940d0, 2025-05-08)"
   xmlns:inkscape="http://www.inkscape.org/namespaces/inkscape"
   xmlns:sodipodi="http://sodipodi.sourceforge.net/DTD/sodipodi-0.dtd"
   xmlns:xlink="http://www.w3.org/1999/xlink"
   xmlns="http://www.w3.org/2000/svg"
   xmlns:svg="http://www.w3.org/2000/svg"
   xmlns:rdf="http://www.w3.org/1999/02/22-rdf-syntax-ns#"
   xmlns:cc="http://creativecommons.org/ns#"
   xmlns:dc="http://purl.org/dc/elements/1.1/">
  <sodipodi:namedview
     id="namedview7"
     pagecolor="#9c4444"
     bordercolor="#000000"
     borderopacity="0.25"
     inkscape:showpageshadow="2"
     inkscape:pageopacity="0.0"
     inkscape:pagecheckerboard="0"
     inkscape:deskcolor="#d1d1d1"
     inkscape:zoom="8.7062522"
     inkscape:cx="72.419221"
     inkscape:cy="15.276378"
     inkscape:window-width="2560"
     inkscape:window-height="1388"
     inkscape:window-x="0"
     inkscape:window-y="0"
     inkscape:window-maximized="1"
     inkscape:current-layer="svg7"
     showgrid="false" />
  <defs
     id="defs2">
    <filter
       style="color-interpolation-filters:sRGB;"
       inkscape:label="Blur"
       id="filter3"
       x="-0.10843471"
       y="-0.10870992"
       width="1.2168694"
       height="1.2174198">
      <feGaussianBlur
         stdDeviation="0.5 0.5"
         result="blur"
         id="feGaussianBlur3" />
    </filter>
    <style
       id="current-color-scheme"
       type="text/css">.ColorScheme-Text {color:#d8dee9} .ColorScheme-Highlight {color:#3b4252}</style>
    <linearGradient
       id="linearGradient3"
       inkscape:collect="always">
      <stop
         style="stop-color:#000000;stop-opacity:1;"
         offset="0"
         id="stop3" />
      <stop
         style="stop-color:#000000;stop-opacity:0;"
         offset="1"
         id="stop4" />
    </linearGradient>
    <linearGradient
       inkscape:collect="always"
       xlink:href="#linearGradient3"
       id="linearGradient4"
       x1="13.512321"
       y1="13.490874"
       x2="3.3783066"
       y2="3.3568602"
       gradientUnits="userSpaceOnUse" />
  </defs>
  <metadata
     id="metadata2">
    <rdf:RDF>
      <cc:Work
         rdf:about="">
        <dc:format>image/svg+xml</dc:format>
        <dc:type
           rdf:resource="http://purl.org/dc/dcmitype/StillImage" />
      </cc:Work>
    </rdf:RDF>
  </metadata>
  <ellipse
     style="opacity:1;fill:none;stroke:#000000;stroke-width:0.582072;stroke-dasharray:none;stroke-opacity:1;filter:url(#filter3)"
     id="path1-5"
     cx="8.4450111"
     cy="8.423522"
     rx="6.8752708"
     ry="6.8578653" />
  <ellipse
     style="opacity:1;fill:none;stroke-width:0.58207188;stroke-opacity:1;stroke:currentColor;stroke-dasharray:none;fill-opacity:1"
     id="path1"
     cx="8.4450111"
     cy="8.423522"
     rx="6.8752708"
     ry="6.8578653"
     class="ColorScheme-Text" />
  <ellipse
     style="fill:currentColor;stroke:none;stroke-width:0.285844;stroke-dasharray:none;stroke-opacity:1"
     id="path1-2"
     cx="8.4557552"
     cy="8.423522"
     rx="6.5738997"
     ry="6.5692253"
     class="ColorScheme-Highlight" />
  <path
     id="path21"
     style="opacity:0.3;fill:#000000;fill-opacity:1;stroke-width:0.0124215"
     d="m 7.2767495,6.1472202 c -0.03002,0 -0.273648,0.08715 -0.398217,0.142459 -0.526139,0.233593 -0.982464,0.632221 -1.286622,1.123929 -0.07765,0.125532 -0.218419,0.40321 -0.218419,0.430847 0,0.01377 0.04945,0.01693 0.264563,0.01693 h 0.264589 l 0.02822,-0.09627 c 0.116257,-0.396757 0.338663,-0.772529 0.640412,-1.082007 0.200279,-0.20541 0.360459,-0.329565 0.609236,-0.472212 0.05702,-0.0327 0.09856,-0.05986 0.09719,-0.06332 -1.2e-5,-2.5e-5 -5e-5,-9.9e-5 -7.5e-5,-1.23e-4 l -2.4e-5,-2.4e-5 c -1.6e-4,-1.22e-4 -4.68e-4,-2.21e-4 -8.5e-4,-2.21e-4 z m 4.0092875,0.894349 c -0.0069,0 -0.156411,0.07201 -0.3323,0.16 l -0.319805,0.159976 -0.161432,0.161334 c -0.08879,0.08873 -0.17372,0.16767 -0.188724,0.175454 -0.015,0.0078 -0.249771,0.109571 -0.5217035,0.226183 -0.271933,0.116612 -0.498939,0.216401 -0.504455,0.221743 -0.0102,0.0099 -0.08313,0.326445 -0.08314,0.360855 -3e-6,0.01658 0.06649,0.01843 0.558968,0.01548 l 0.5589675,-0.0034 v 0.05907 c 0,0.05865 9.64e-4,0.06001 0.139549,0.198987 0.07675,0.07697 0.143032,0.139937 0.147311,0.139937 0.0043,0 0.08338,-0.03635 0.175794,-0.08079 l 0.16803,-0.08081 0.07839,-0.108615 c 0.04312,-0.05975 0.08427,-0.112968 0.09146,-0.118271 0.0072,-0.0053 0.08015,-0.0085 0.162134,-0.0072 0.146976,0.0025 0.15036,0.0019 0.24222,-0.04129 0.05124,-0.02409 0.358671,-0.170972 0.683183,-0.326405 0.589472,-0.282341 0.590092,-0.282679 0.676391,-0.367817 0.04751,-0.04687 0.08374,-0.08785 0.08052,-0.09108 -0.0032,-0.0032 -0.150595,-0.04214 -0.327497,-0.08647 l -0.321625,-0.08059 -0.330965,0.16558 -0.330966,0.165555 -0.163882,-0.328054 c -0.159749,-0.31977 -0.163905,-0.330132 -0.163905,-0.40877 0,-0.0459 -0.0054,-0.08067 -0.01252,-0.08067 z m -2.1812135,0.882268 c -0.01031,7.82e-4 -0.02209,0.02287 -0.03394,0.06487 -0.01012,0.03587 -0.08921,0.316749 -0.175745,0.624181 -0.31943,1.134816 -0.382091,1.354358 -0.391739,1.372578 -0.0054,0.01025 -0.03386,0.026 -0.0632,0.03501 l -0.05333,0.01638 -0.04406,-0.05311 c -0.02423,-0.02922 -0.120409,-0.142789 -0.213737,-0.252385 l -0.169705,-0.199278 0.06985,-0.0092 c 0.227558,-0.02997 0.403676,-0.156921 0.555354,-0.400279 l 0.05961,-0.09564 -0.162572,-0.162887 c -0.0031,-0.0031 -0.0063,-0.0063 -0.0094,-0.0095 l -0.0029,-0.0029 -0.169098,-0.169437 -0.494459,-7.77e-4 c -0.271944,-4.23e-4 -0.494434,0.0025 -0.494434,0.0065 0,0.004 0.01956,0.03281 0.04348,0.06412 0.02391,0.03132 0.04347,0.06249 0.04347,0.06927 0,0.0068 -0.04543,0.183434 -0.100949,0.392588 -0.05552,0.209154 -0.131206,0.494876 -0.1682,0.634929 -0.03699,0.140052 -0.07005,0.2626328 -0.07344,0.2723998 -0.0034,0.0098 -0.111912,-0.3004618 -0.241177,-0.6893948 -0.129264,-0.388933 -0.24007,-0.715538 -0.246222,-0.725785 -0.0014,-0.0023 -0.0035,-0.0046 -0.0063,-0.0066 -5e-6,-4e-6 -2.5e-5,3e-6 -2.5e-5,0 l -0.0019,-0.0058 -0.0081,1.25e-4 c -7e-6,-3e-6 -1.3e-5,2e-6 -2.5e-5,0 -0.0089,-0.0039 -0.01987,-0.0063 -0.03047,-0.0063 -0.03292,0 -0.07175,0.05064 -0.504746,0.658341 l -0.469082,0.6583408 -0.125283,0.0035 c -0.115373,0.0033 -0.12475,0.0018 -0.118587,-0.01863 0.0037,-0.0122 0.0657,-0.259739 0.137803,-0.550092 0.0721,-0.290353 0.13636,-0.540218 0.142799,-0.555257 0.0053,-0.0124 0.0093,-0.0192 0.03392,-0.0229 h 7.5e-5 l 0.195227,-0.0028 0.111527,-0.0016 h 0.120479 l 0.04745,0.04287 c 0.0261,0.02358 0.05117,0.04287 0.0557,0.04287 0.0045,0 0.0067,-0.05729 0.0047,-0.127321 l -0.0035,-0.12732 h -0.943358 -0.943356 l -0.02322,0.0789 c -0.01278,0.04339 -0.02079,0.08135 -0.01778,0.08435 0.003,0.003 0.228723,0.0051 0.501592,0.0047 0.08826,-1.3e-4 0.171664,7.5e-5 0.244233,5.35e-4 0.149794,0.0013 0.231733,0.0041 0.258742,0.0088 -0.0036,0.03128 -0.06426,0.283204 -0.140761,0.583909 -0.08119,0.319155 -0.203423,0.8010858 -0.271624,1.0709428 -0.0682,0.269858 -0.127681,0.5041 -0.132173,0.52054 -0.01011,0.037 -0.01122,0.03769 0.134793,-0.08249 0.224662,-0.184909 0.308136,-0.255318 0.308136,-0.259882 0,-0.013 0.125325,-0.492881 0.131203,-0.502392 0.0013,-0.0021 0.01254,-0.004 0.03103,-0.0057 8.9e-5,-8e-6 3.43e-4,-1.3e-5 4.37e-4,-2.5e-5 l 0.157695,-0.0027 c 0.05257,-8.9e-4 0.09149,-0.0017 0.120261,-0.0028 h 0.09069 l 0.0054,-0.03416 c 0.0018,-0.01172 0.126148,-0.1888058 0.218638,-0.3233958 0.152595,-0.221052 0.298276,-0.4382 0.417019,-0.594753 0.03154,-0.04158 0.05495,-0.07118 0.06657,-0.08363 0.0085,0.01943 0.03418,0.09153 0.0631,0.178098 l 0.0625,0.187076 h -0.160145 -0.160122 l -0.06347,0.08384 -0.06349,0.08384 0.02052,2.68e-4 h 4.14e-4 c 0.02537,0.0034 0.123794,0.0059 0.240788,0.0059 h 0.207696 l 0.03668,4.85e-4 0.08018,0.248164 0.08018,0.2481388 h 0.0082 l 2.5e-5,7.5e-5 h 0.333513 c 0.02186,0 0.04173,-2.5e-5 0.06085,-5.2e-5 l 0.280915,5.2e-5 0.08678,-0.3296068 c 0.07146,-0.271483 0.09036,-0.32899 0.107183,-0.326066 0.01123,0.002 0.144763,0.150271 0.296734,0.329607 l 0.276305,0.3260628 h 0.01402 0.133313 0.01322 c 0.0013,0 0.0028,-1e-6 0.0041,0 0.04624,8.9e-5 0.08731,0.0018 0.113322,0.0042 0.01621,0.0038 0.01669,0.01082 0.01669,0.02414 0,0.01561 -0.02514,0.195885 -0.05587,0.400594 -0.03073,0.204716 -0.05589,0.376401 -0.0559,0.381525 -3.7e-5,0.01574 0.03769,0.0103 0.04309,-0.0062 0.0028,-0.0085 0.02471,-0.07981 0.04872,-0.158375 0.120973,-0.39587 0.196647,-0.640015 0.199229,-0.642789 0.0016,-0.0017 0.05754,-0.01951 0.124361,-0.03957 l 0.121498,-0.03646 -0.0073,0.03644 -0.0073,0.03646 h 0.009 0.168249 c 0.01474,0 0.02819,-1.1e-5 0.04051,-7.5e-5 1.41e-4,0 1.27e-4,1e-6 2.68e-4,0 l 0.135327,-5.1e-5 0.0466,-0.176958 c 0.02563,-0.09732 0.06422,-0.2454078 0.08576,-0.3290978 0.02154,-0.08369 0.04286,-0.152164 0.04738,-0.152164 0.0045,0 0.133622,0.147963 0.286883,0.328807 l 0.27866,0.3288088 h 0.0085 l 6.31e-4,7.28e-4 h 0.1635665 0.163542 l 8.73e-4,-0.0012 0.01072,-2.5e-5 0.173465,-0.2477988 0.169122,-0.241612 h 0.290814 0.288315 l 0.07936,0.239114 0.08142,0.2453248 0.0081,7.5e-5 0.002,0.0061 h 0.313037 c 0.08554,0 0.147741,-1.74e-4 0.193358,-9.22e-4 h 6.53e-4 l 0.128704,0.0013 0.15129,-0.5747138 c 0.08321,-0.316083 0.170727,-0.647355 0.194474,-0.736169 0.02375,-0.08881 0.0433,-0.168614 0.04345,-0.177346 1.88e-4,-0.0123 -0.03825,-0.0151 -0.170529,-0.01242 l -0.170795,0.0034 -0.02091,0.06832 c -0.01151,0.03758 -0.08053,0.2947 -0.153352,0.571389 -0.07283,0.27669 -0.147662,0.558738 -0.166308,0.626778 l -0.02994,0.1092218 c -0.0072,-0.01084 -0.02114,-0.04416 -0.04326,-0.1042708 l -0.186661,-0.563917 c -0.124281,-0.375472 -0.230683,-0.690109 -0.236447,-0.699196 -0.0058,-0.0092 -0.0257,-0.0147 -0.04481,-0.01242 -5.28e-4,6.2e-5 -0.0085,0.01189 -0.0091,0.01201 -0.02353,0.0082 -0.151341,0.183246 -0.356779,0.470369 -0.06956,0.09607 -0.02831,0.02704 -0.148281,0.195517 -0.263897,0.370586 -0.485366,0.6724288 -0.492154,0.6707618 -0.01397,-0.0034 -0.4334725,-0.4935738 -0.4267475,-0.4986068 0.0024,-0.0018 0.04581,-0.0094 0.09651,-0.01696 0.130769,-0.01945 0.2572585,-0.08486 0.3570945,-0.184697 0.07431,-0.07431 0.187573,-0.231535 0.208424,-0.288558 3e-6,-8e-6 2.5e-5,-1.2e-5 2.5e-5,-2.5e-5 l 0.01046,-0.0157 -0.01764,-0.01817 c -1.3e-5,-2.4e-5 -1.13e-4,-1.24e-4 -1.22e-4,-1.45e-4 -0.01673,-0.02687 -0.05818,-0.07237 -0.142969,-0.159782 l -0.159634,-0.16456 -0.4854815,-0.0018 c -0.267011,-9.79e-4 -0.489081,0.0018 -0.493489,0.0062 -0.0044,0.0044 0.0122,0.03552 0.03688,0.06914 l 0.04486,0.06114 -0.166235,0.626462 c -0.09144,0.344552 -0.169853,0.6264608 -0.174241,0.6264618 -0.0044,10e-7 -0.05253,-0.02096 -0.10699,-0.04658 l -0.0984,-0.04629 c -1.31e-4,-4.27e-4 -2.82e-4,-8.73e-4 -3.9e-4,-0.0013 l 0.02885,-0.129407 c 0.01599,-0.07173 0.07687,-0.348424 0.135278,-0.614865 0.05841,-0.266442 0.14546,-0.662722 0.193455,-0.880618 0.03734,-0.169521 0.06765,-0.319635 0.07759,-0.382301 0.0017,-0.0073 0.0029,-0.01191 0.0033,-0.01339 0.0022,-0.0071 0.0022,-0.01269 7.6e-5,-0.0164 -3.8e-5,-3.99e-4 -9e-5,-7.09e-4 -1.69e-4,-9.21e-4 -0.0044,-0.01147 -0.0094,-0.01691 -0.0148,-0.0165 z m -2.837541,0.09801 -0.07332,0.05641 c -0.04032,0.03102 -0.07612,0.05641 -0.07958,0.05641 -0.0035,0 -0.0011,-0.01814 0.0053,-0.0403 0.0085,-0.0297 0.01316,-0.04705 0.0086,-0.05721 l 5.59e-4,-0.0019 h -0.0016 c -0.0075,-0.012 -0.03112,-0.01242 -0.08249,-0.01242 h -0.08649 l -0.01225,0.04658 c -0.02784,0.105796 -0.11291,0.449694 -0.11291,0.456466 0,0.004 0.04028,0.0057 0.08952,0.0037 l 0.08955,-0.0036 0.01793,-0.0737 0.01795,-0.0737 0.06953,0.07756 0.06953,0.07756 0.07938,-0.0039 0.07938,-0.0039 -0.09588,-0.121304 c -0.05273,-0.06672 -0.09404,-0.126139 -0.0918,-0.132027 0.0022,-0.0059 0.07395,-0.06307 0.159344,-0.127102 l 0.155269,-0.116428 -0.102768,-0.0036 z m -0.800023,5.2e-5 -0.08724,0.0036 -0.08727,0.0036 -0.05794,0.223587 c -0.03186,0.122973 -0.05841,0.236164 -0.059,0.251536 -10e-4,0.02638 0.0037,0.02795 0.0845,0.02795 h 0.08554 l 0.02795,-0.114899 c 0.01536,-0.06319 0.03182,-0.122334 0.03659,-0.131421 0.007,-0.01334 0.05356,0.100787 0.09437,0.231376 0.0036,0.0116 0.02851,0.01507 0.08904,0.01242 l 0.08402,-0.0037 0.05794,-0.223587 c 0.03186,-0.122973 0.05841,-0.236164 0.059,-0.251536 0.001,-0.02638 -0.0037,-0.02795 -0.0845,-0.02795 h -0.08554 l -0.02788,0.114899 c -0.01532,0.06319 -0.03217,0.119659 -0.03743,0.125477 -0.0053,0.0058 -0.02814,-0.0461 -0.05085,-0.115385 z m -1.088218,9.69e-4 c -0.08085,0 -0.0838,0.0011 -0.09178,0.03416 -0.0045,0.01879 -0.01374,0.05512 -0.02045,0.08074 l -0.0122,0.04658 h -0.07407 c -0.04073,0 -0.07398,-0.0014 -0.0739,-0.0031 8e-5,-0.0017 0.0084,-0.03385 0.01849,-0.07142 0.01009,-0.03757 0.01841,-0.07274 0.01849,-0.07817 7.9e-5,-0.0054 -0.04015,-0.0082 -0.0894,-0.0062 l -0.08957,0.0036 -0.0592,0.236009 c -0.03256,0.129804 -0.05934,0.242996 -0.05951,0.251535 -2.11e-4,0.01095 0.02494,0.01553 0.08528,0.01553 h 0.08557 l 0.02142,-0.08385 c 0.04299,-0.16839 0.03641,-0.158012 0.102405,-0.161553 0.08581,-0.0046 0.08965,0.0016 0.06393,0.102551 -0.01701,0.06675 -0.02624,0.102311 -0.02181,0.121255 -9.39e-4,0.0039 -0.0015,0.0062 -0.0015,0.0066 v 2.5e-5 2.5e-5 2.5e-5 2.5e-5 h 2.5e-5 c 9e-6,1.2e-5 3.7e-5,6.1e-5 4.7e-5,7.5e-5 4.04e-4,3.33e-4 0.002,6.42e-4 0.0045,8.5e-4 0.0088,0.01422 0.03228,0.01395 0.07637,0.01395 0.06105,0 0.08292,-0.0047 0.08836,-0.01885 0.01952,-0.05088 0.124254,-0.478238 0.118586,-0.483906 -0.0036,-0.0036 -0.04411,-0.0065 -0.09006,-0.0065 z m 0.250105,0 -0.01206,0.04658 c -0.01568,0.06054 -0.09555,0.384288 -0.105728,0.428542 l -0.0079,0.03416 h 0.254423 0.254398 l 0.01225,-0.04658 c 0.0267,-0.101437 0.11291,-0.449567 0.11291,-0.455932 0,-0.0037 -0.114367,-0.0068 -0.254156,-0.0068 z m 2.050982,0 -0.156458,0.241128 c -0.06582,0.101444 -0.09667,0.154335 -0.119678,0.19479 -0.0042,0.0067 -0.02419,0.03724 -0.0253,0.03921 -0.0018,0.0031 -0.0031,0.0058 -0.0037,0.0081 -3.38e-4,8.8e-4 -0.0077,0.01222 -0.0077,0.01259 0,0.0085 0.03332,0.01347 0.09006,0.01337 0.08915,-1.51e-4 0.09034,-5.89e-4 0.118126,-0.04348 0.01917,-0.02959 0.02908,-0.03932 0.05405,-0.04214 0.01299,-1.83e-4 0.02987,4.65e-4 0.05243,0.0014 0.01502,6.13e-4 0.02751,0.0012 0.03792,0.0018 0.03215,0.006 0.04407,0.01943 0.04947,0.04641 0.0071,0.03546 0.0088,0.03617 0.08756,0.03617 0.04417,0 0.08279,-0.0042 0.08581,-0.0093 0.003,-0.0051 -0.01047,-0.11552 -0.02999,-0.245325 -0.01951,-0.129805 -0.03562,-0.240201 -0.03581,-0.245325 -1.85e-4,-0.0051 -0.04452,-0.0093 -0.09852,-0.0093 z m 0.437931,0 -0.05895,0.239114 c -0.03243,0.131513 -0.05884,0.246101 -0.05869,0.254641 9e-6,5.13e-4 9.9e-5,10e-4 2.18e-4,0.0015 l -4.12e-4,0.0016 h 0.001 c 0.0049,0.0087 0.031,0.01242 0.08484,0.01242 h 0.08542 l 0.05794,-0.232903 c 0.03187,-0.128097 0.06088,-0.242686 0.06448,-0.254641 0.0058,-0.01932 -0.0036,-0.02174 -0.08467,-0.02174 z m -2.181966,0.09826 -0.03976,0.158932 -0.03979,0.158933 -0.0773,0.0037 -0.07441,0.0036 c -8.89e-4,-0.0013 -0.0015,-0.0027 -0.0018,-0.0043 l 0.0075,-0.03035 c 0.0048,-0.01912 0.02309,-0.09066 0.04076,-0.158981 l 0.03212,-0.124216 0.07632,-0.0037 z m 3.910692,0.05286 c -0.01346,3.8e-5 -0.06415,0.0373 -0.187924,0.134696 -0.126328,0.09941 -0.197153,0.145907 -0.259396,0.170335 -0.0815,0.03199 -0.08389,0.03405 -0.04969,0.04299 0.02187,0.0057 0.08933,0.06304 0.172349,0.146414 0.07503,0.07535 0.139727,0.137001 0.143745,0.137001 0.004,0 0.04545,-0.13555 0.09209,-0.301222 0.04664,-0.165672 0.08735,-0.308209 0.09049,-0.316749 0.0032,-0.0086 0.0032,-0.01348 -0.0017,-0.01346 z m -2.117553,0.08503 c 0.0044,-8.9e-5 0.01015,0.02221 0.01276,0.04954 0.0036,0.03764 0.004,0.04677 -0.01427,0.04898 -0.0061,5.22e-4 -0.01371,6.79e-4 -0.02319,7.03e-4 -0.0217,-1.22e-4 -0.0392,-0.0029 -0.0392,-0.0064 0,-0.01168 0.05576,-0.09269 0.0639,-0.09285 z m -2.765851,0.422186 c -0.122528,0 -0.156009,5.37e-4 -0.170116,0.01242 h -0.0038 l -0.0017,0.0066 c -3e-6,6e-6 4e-6,1.2e-5 0,2.5e-5 -0.0016,0.0026 -0.003,0.0055 -0.0044,0.0089 -0.01557,0.03581 -0.210899,0.776033 -0.210899,0.799247 0,0.01471 0.07764,0.01747 0.492106,0.01747 h 0.49145 c 2.5e-5,0.001 -3.7e-5,0.0022 -1.45e-4,0.0037 -2.91e-4,0.004 -0.0072,0.02941 -0.0083,0.03651 -0.01314,0.0578 -0.09309,0.359921 -0.107063,0.403869 l -0.01283,0.04037 h -0.626341 -0.626316 v 0.01264 0.07431 0.0064 0.08052 1.93e-4 l 0.04719,-1.93e-4 h 0.735369 c 0.40548,0 0.699677,-0.0028 0.737236,-0.0061 l 0.03744,-1.45e-4 5.1e-5,-1.46e-4 c 7.5e-5,-3.7e-5 0.0078,-3.7e-5 0.0078,-7.5e-5 0,-0.0035 0.04751,-0.1851148 0.105583,-0.4034808 0.05807,-0.218366 0.105582,-0.402734 0.105582,-0.409692 0,-0.0012 -0.0034,-0.0023 -0.01021,-0.0033 1.69e-4,-0.0016 1.73e-4,-0.0026 0,-0.0029 v -2.5e-5 l -2.5e-5,-2.5e-5 -2.5e-5,-2.5e-5 c -0.0028,-0.0028 -0.146624,-0.0052 -0.342126,-0.006 -0.04351,-2.08e-4 -0.091,-3.12e-4 -0.142459,-3.12e-4 h -0.01029 c -0.243613,0 -0.447068,-0.0026 -0.48296,-0.006 l 0.08309,-0.313837 c 0.04659,-0.17592 0.08481,-0.326842 0.08494,-0.335382 1.74e-4,-0.01167 -0.04151,-0.01553 -0.167714,-0.01553 z m 8.9434695,0.0027 -0.160436,0.0035 -0.189331,0.714238 c -0.104125,0.39283 -0.192773,0.7296088 -0.196998,0.7483958 l -0.0077,0.03416 h 0.702446 3.29e-4 0.702811 v -0.08074 -0.0062 -0.07453 -0.01242 h -0.239478 -0.238216 l -0.0699,-0.06936 -0.0062,-0.0061 -0.0052,-0.0052 -0.08001,-0.08074 h -0.166284 c -0.109613,0 -0.147947,-0.0014 -0.157379,-0.0093 0.0015,-0.01017 0.006,-0.0312 0.01298,-0.06114 0.02235,-0.08172 0.06766,-0.251396 0.117859,-0.441692 0.0687,-0.260437 0.135557,-0.51195 0.148573,-0.558919 0.0183,-0.06603 0.02011,-0.08675 0.0081,-0.09137 -0.0086,-0.0033 -0.08777,-0.0044 -0.176012,-0.0025 z m -4.8402435,0.174554 c 0.09963,-6.91e-4 0.156552,-2.75e-4 0.187706,0.0022 h 2.5e-5 c 0.03005,0.0024 0.03611,0.0068 0.03333,0.01402 -0.0186,0.04846 -0.261616,0.3926 -0.293046,0.414981 -0.0197,0.01403 -0.05926,0.03378 -0.0879,0.04389 -0.02832,0.01 -0.08227,0.01657 -0.14588,0.01805 -0.0038,2.5e-5 -0.0077,3.8e-5 -0.01174,5e-5 -0.06514,1.27e-4 -0.120232,-0.0023 -0.135521,-0.0057 l 0.03384,-0.127541 c 0.0195,-0.07344 0.04882,-0.183838 0.06514,-0.245325 l 0.02967,-0.111793 0.276233,-0.0025 c 0.01706,-1.51e-4 0.03308,-2.84e-4 0.04813,-3.87e-4 z m 1.763904,3.87e-4 c 0.06116,-5.7e-4 0.10259,2.45e-4 0.143915,0.001 0.033269,0.0012 0.083189,0.0016 0.094129,0.0032 0.01519,0.0015 0.02511,0.0032 0.02511,0.0054 0,0.01664 -0.2191105,0.344739 -0.2593455,0.388343 -0.01791,0.01941 -0.05492,0.04709 -0.08224,0.0615 -0.03899,0.02056 -0.07826,0.02727 -0.182416,0.03125 l -0.02722,0.001 c -0.05093,5.77e-4 -0.09115,-0.0012 -0.103205,-0.0046 l 0.05294,-0.200758 c 0.03038,-0.115174 0.05973,-0.226164 0.06521,-0.246659 l 0.01,-0.03726 z m -2.644813,0.114997 c -0.0067,-0.0067 -0.285306,0.101674 -0.301294,0.117131 -0.0059,0.0057 0.02383,0.113981 0.06684,0.24302 0.04722,0.141676 0.08111,0.225895 0.08663,0.215363 0.01516,-0.02889 0.153975,-0.56936 0.147821,-0.575514 z m -1.388541,0.04512 c -0.03684,-0.0021 -0.07137,6.95e-4 -0.07671,0.0062 -0.0053,0.0055 -0.04672,0.155351 -0.09195,0.332979 -0.04523,0.177628 -0.08537,0.333438 -0.08921,0.34625 -0.004,0.01327 -0.0018,0.02011 0.0049,0.01591 0.01118,-0.0069 0.317389,-0.432249 0.350156,-0.48638 0.01208,-0.01996 0.01061,-0.04314 -0.0076,-0.118005 l -0.02266,-0.09316 z m 2.12408,0.0025 -0.05459,0.0014 -0.02123,0.07739 c -0.01168,0.04256 -0.01873,0.07991 -0.01565,0.083 0.0083,0.0083 0.04347,-0.0062 0.06985,-0.02875 0.03432,-0.02939 0.09641,-0.123068 0.08557,-0.129116 -0.0052,-0.0029 -0.03394,-0.0046 -0.06395,-0.0039 z m 1.822785,5.83e-4 -0.05153,8.73e-4 -0.02125,0.07759 c -0.0213,0.07781 -0.01756,0.08791 0.02421,0.06555 0.01947,-0.01042 0.1001,-0.122337 0.1001,-0.138941 0,-0.0033 -0.02319,-0.0056 -0.05153,-0.0051 z m 1.3036765,0.119484 0.01019,0.02596 c 0.01246,0.02495 0.03709,0.106295 0.06776,0.199788 0.01183,0.03633 0.01916,0.05482 0.03113,0.0934 l 0.01638,0.05279 H 10.9798 10.786416 l 0.01834,-0.02795 c 0.01008,-0.01537 0.06887,-0.09906 0.130644,-0.185983 l 0.111891,-0.157453 3.66e-4,-5.09e-4 c 2.5e-5,-1.3e-5 2.5e-5,-3.8e-5 5.1e-5,-5e-5 z m -2.5826565,0.3807 c -0.0072,4.75e-4 -0.0379,0.01719 -0.07436,0.04076 -0.04167,0.02693 -0.08639,0.05233 -0.09937,0.05645 -0.01298,0.0041 -0.02357,0.01132 -0.02353,0.01599 3.7e-5,0.0047 0.02615,0.04061 0.05803,0.07989 0.03189,0.03928 0.06119,0.0714 0.06514,0.07138 0.0065,-3.7e-5 0.07613,-0.242468 0.07569,-0.263642 -1.2e-5,-6.22e-4 -5.75e-4,-8.93e-4 -0.0016,-8.25e-4 z m -2.071992,0.326453 c -0.0061,-1.22e-4 -0.01297,1.69e-4 -0.02099,1.69e-4 -0.03,0 -0.05454,0.0024 -0.05454,0.0052 0,0.0029 0.02865,0.08532 0.06366,0.1832168 0.04641,0.12974 0.07704,0.194811 0.113056,0.240085 l 0.04942,0.06211 -0.05925,-0.06211 c -0.07252,-0.07604 -0.184524,-0.225378 -0.256218,-0.3415918 l -0.05352,-0.08673 -0.05847,-9.9e-5 -0.05847,-1.22e-4 -0.118538,0.1659918 -0.118539,0.165998 v 0.08244 0.08244 h -0.142847 c -0.151621,0 -0.161804,0.0047 -0.124822,0.05747 0.01662,0.02373 0.01468,0.02902 -0.02484,0.06732 -0.04086,0.03961 -0.04289,0.04566 -0.04304,0.129164 l -1.46e-4,0.08763 -0.08125,0.07996 -0.08123,0.07996 0.08127,0.08127 0.08127,0.08127 0.0812,-0.0805 0.08123,-0.0805 h 0.109974 0.109974 l 0.116379,0.118222 c 0.517615,0.525859 1.174447,0.824269 1.923686,0.873995 0.207181,0.01375 0.55248,-0.01586 0.782556,-0.06713 0.7513,-0.167414 1.4249875,-0.646758 1.8306205,-1.302512 0.03843,-0.06213 0.06987,-0.115826 0.06987,-0.119315 -3e-6,-2.5e-5 -1.2e-5,-9.8e-5 -2.5e-5,-1.22e-4 -0.0013,-0.0034 -0.04338,-0.0062 -0.09462,-0.0062 h -0.09464 l -0.113419,0.107937 c -0.4513935,0.429608 -1.0342325,0.681434 -1.6667155,0.720132 l -0.128655,0.0079 -0.0079,0.03605 c -0.0044,0.01984 -0.01161,0.03417 -0.01611,0.03183 -0.109896,-0.05708 -0.177918,-0.08401 -0.212282,-0.08402 -0.08239,-2.5e-5 -0.263873,-0.02853 -0.268276,-0.04214 -0.0024,-0.0076 -0.0071,-0.03554 -0.01024,-0.06216 -0.0051,-0.04261 -0.02557,-0.06821 -0.171329,-0.214272 l -0.165531,-0.165872 h -0.164755 -0.164755 v 0.08443 c 0,0.08207 0.0014,0.08579 0.04947,0.132731 0.0272,0.02656 0.0471,0.05065 0.04423,0.05352 -0.0029,0.0029 -0.06775,-0.02751 -0.144158,-0.06752 l -0.138917,-0.07273 0.009,-0.198744 c 0.0049,-0.109309 0.0098,-0.212719 0.01084,-0.229798 l 0.0018,-0.03105 -0.274729,-0.0033 -0.274753,-0.0033 -0.0656,-0.201631 C 6.4393965,9.8700082 6.4355665,9.8495542 6.3930125,9.8487172 Z m 4.3968775,5.2e-5 c -0.01195,5.31e-4 -0.03105,0.01815 -0.04794,0.04821 -0.01486,0.02644 -0.06622,0.102164 -0.114098,0.1682728 -0.04788,0.06611 -0.08705,0.122525 -0.08705,0.12538 0,0.0029 0.01735,0.02495 0.03855,0.0491 0.0212,0.02415 0.0407,0.04391 0.04331,0.04391 0.01668,0 0.178996,-0.3775558 0.178996,-0.4163638 0,-0.01299 -0.0046,-0.01883 -0.01177,-0.01851 z m -3.1350985,0.0015 c -0.0085,-1.37e-4 -0.01571,0.02734 -0.08368,0.2869318 l -0.05434,0.207599 -0.09969,0.0036 -0.09966,0.0036 0.16148,0.08319 c 0.151087,0.07784 0.166863,0.08324 0.245058,0.08384 l 0.08358,6.54e-4 0.09971,-0.132464 c 0.08667,-0.115121 0.09754,-0.135039 0.08292,-0.152163 -0.0093,-0.01084 -0.08553,-0.10075 -0.169486,-0.199812 -0.08396,-0.09906 -0.157108,-0.1818618 -0.162571,-0.1839938 -0.0012,-4.71e-4 -0.0023,-9.05e-4 -0.0033,-9.21e-4 z m 1.650073,0.5016628 -0.0038,0.06684 c -0.0021,0.03676 -7.81e-4,0.07477 0.0029,0.08445 0.0051,0.01318 0.0263,0.01667 0.08455,0.0139 l 0.0778,-0.0037 v -0.08074 -0.08074 h -0.08074 z m -4.813897,0.174751 c -5.43e-4,3e-6 -9.87e-4,9.8e-5 -0.0013,3.14e-4 -0.01251,0.0077 -0.159587,0.298463 -0.159587,0.315463 0,0.0068 0.03494,0.04574 0.07763,0.08666 0.0427,0.04092 0.08097,0.07453 0.08503,0.07467 0.02393,8.76e-4 0.05036,-0.06178 0.08564,-0.20299 l 0.03991,-0.159757 -0.05925,-0.06017 c -0.03055,-0.03102 -0.05991,-0.05425 -0.06805,-0.0542 z m 1.323183,0.489801 c -0.0035,0 -0.07888,0.03638 -0.167594,0.08084 l -0.16131,0.08081 v 0.167618 0.167593 h 0.164925 0.164901 l 0.08452,-0.08516 0.0845,-0.08516 -0.08183,-0.163275 c -0.045,-0.0898 -0.08465,-0.163275 -0.08812,-0.163275 z m -2.154867,0.161479 v 0.08695 0.08695 h 0.07974 c 0.07862,0 0.0807,-8.86e-4 0.149495,-0.06376 0.120756,-0.110364 0.120902,-0.110144 -0.06732,-0.110144 z m 0.811305,0.02023 -0.07026,0.07256 c -0.03865,0.03991 -0.07028,0.07473 -0.07028,0.07742 0,0.0027 0.01817,0.01279 0.04037,0.02244 0.0222,0.0097 0.0443,0.01776 0.0491,0.01803 0.0099,5.52e-4 0.03105,-0.069 0.04301,-0.141562 z m 0.253767,0.0543 c -0.01073,0 -0.220409,0.172431 -0.220409,0.181253 2.49e-4,0.0027 0.03229,0.02134 0.07142,0.04153 0.03928,0.02028 0.07406,0.03713 0.0773,0.03746 0.0109,0.0011 0.161819,-0.153835 0.161819,-0.166138 0,-0.01522 -0.07555,-0.09411 -0.09013,-0.09411 z m -0.729691,0.260852 v 0.08074 0.08074 h 0.16769 0.167691 V 11.6137 c 0,-0.103557 0.0055,-0.100391 -0.175236,-0.100391 z" />
  <path
     id="path21-6"
     style="fill:currentColor;stroke-width:0.0124215"
     d="m 7.2767495,5.6179645 c -0.03002,0 -0.273648,0.08715 -0.398217,0.142459 -0.526139,0.233593 -0.982464,0.632221 -1.286622,1.123929 -0.07765,0.125532 -0.218419,0.40321 -0.218419,0.430847 0,0.01377 0.04945,0.01693 0.264563,0.01693 h 0.264589 l 0.02822,-0.09627 c 0.116257,-0.396757 0.338663,-0.772529 0.640412,-1.082007 0.200279,-0.20541 0.360459,-0.329565 0.609236,-0.472212 0.05702,-0.0327 0.09856,-0.05986 0.09719,-0.06332 -1.2e-5,-2.5e-5 -5e-5,-9.9e-5 -7.5e-5,-1.23e-4 l -2.4e-5,-2.4e-5 c -1.6e-4,-1.22e-4 -4.68e-4,-2.21e-4 -8.5e-4,-2.21e-4 z m 4.0092875,0.894349 c -0.0069,0 -0.156411,0.07201 -0.3323,0.16 l -0.319805,0.159976 -0.161432,0.161334 c -0.08879,0.08873 -0.17372,0.16767 -0.188724,0.175454 -0.015,0.0078 -0.249771,0.109571 -0.5217035,0.226183 -0.271933,0.116612 -0.498939,0.216401 -0.504455,0.221743 -0.0102,0.0099 -0.08313,0.326445 -0.08314,0.360855 -3e-6,0.01658 0.06649,0.01843 0.558968,0.01548 l 0.5589675,-0.0034 v 0.05907 c 0,0.05865 9.65e-4,0.06001 0.13955,0.198987 0.07675,0.07697 0.143031,0.139937 0.147311,0.139937 0.0043,0 0.08338,-0.03635 0.175794,-0.08079 l 0.16803,-0.08081 0.07839,-0.108615 c 0.04312,-0.05975 0.08427,-0.112968 0.09146,-0.118271 0.0072,-0.0053 0.08015,-0.0085 0.162134,-0.0072 0.146976,0.0025 0.15036,0.0019 0.24222,-0.04129 0.05124,-0.02409 0.358671,-0.170972 0.683183,-0.326405 0.589472,-0.282341 0.590092,-0.282679 0.676391,-0.367817 0.04751,-0.04687 0.08374,-0.08785 0.08052,-0.09108 -0.0032,-0.0032 -0.150595,-0.04214 -0.327497,-0.08647 l -0.321625,-0.08059 -0.330965,0.16558 -0.330966,0.165555 -0.163882,-0.328054 c -0.159749,-0.31977 -0.163905,-0.330132 -0.163905,-0.40877 0,-0.0459 -0.0054,-0.08067 -0.01252,-0.08067 z m -2.1812135,0.882268 c -0.01031,7.82e-4 -0.02209,0.02287 -0.03394,0.06487 -0.01012,0.03587 -0.08921,0.316749 -0.175745,0.624181 -0.31943,1.134816 -0.382091,1.354358 -0.391739,1.372578 -0.0054,0.01025 -0.03386,0.026 -0.0632,0.03501 l -0.05333,0.01638 -0.04406,-0.05311 c -0.02423,-0.02922 -0.120409,-0.142789 -0.213737,-0.252385 l -0.169705,-0.199278 0.06985,-0.0092 c 0.227558,-0.02997 0.403676,-0.156921 0.555354,-0.400279 l 0.05961,-0.09564 -0.162572,-0.162887 c -0.0031,-0.0031 -0.0063,-0.0063 -0.0094,-0.0095 l -0.0029,-0.0029 -0.169098,-0.169437 -0.494459,-7.77e-4 c -0.271944,-4.23e-4 -0.494434,0.0025 -0.494434,0.0065 0,0.004 0.01956,0.03281 0.04348,0.06412 0.02391,0.03132 0.04347,0.06249 0.04347,0.06927 0,0.0068 -0.04543,0.183434 -0.100949,0.392588 -0.05552,0.209154 -0.131206,0.494876 -0.1682,0.634929 -0.03699,0.140052 -0.07005,0.262633 -0.07344,0.2724 -0.0034,0.0098 -0.111912,-0.300462 -0.241177,-0.689395 -0.129264,-0.388933 -0.24007,-0.715538 -0.246222,-0.725785 -0.0014,-0.0023 -0.0035,-0.0046 -0.0063,-0.0066 -5e-6,-4e-6 -2.5e-5,3e-6 -2.5e-5,0 l -0.0019,-0.0058 -0.0081,1.25e-4 c -7e-6,-3e-6 -1.3e-5,2e-6 -2.5e-5,0 -0.0089,-0.0039 -0.01987,-0.0063 -0.03047,-0.0063 -0.03292,0 -0.07175,0.05064 -0.504746,0.658341 l -0.469082,0.658341 -0.125283,0.0035 c -0.115373,0.0033 -0.12475,0.0018 -0.118587,-0.01863 0.0037,-0.0122 0.0657,-0.259739 0.137803,-0.550092 0.0721,-0.290353 0.13636,-0.540218 0.142799,-0.555257 0.0053,-0.0124 0.0093,-0.0192 0.03392,-0.0229 h 7.5e-5 l 0.195227,-0.0028 0.111527,-0.0016 h 0.120479 l 0.04745,0.04287 c 0.0261,0.02358 0.05117,0.04287 0.0557,0.04287 0.0045,0 0.0067,-0.05729 0.0047,-0.127321 l -0.0035,-0.12732 h -0.943358 -0.943356 l -0.02322,0.0789 c -0.01278,0.04339 -0.02079,0.08135 -0.01778,0.08435 0.003,0.003 0.228723,0.0051 0.501592,0.0047 0.08826,-1.3e-4 0.171664,7.5e-5 0.244233,5.35e-4 0.149794,0.0013 0.231733,0.0041 0.258742,0.0088 -0.0036,0.03128 -0.06426,0.283204 -0.140761,0.583909 -0.08119,0.319155 -0.203423,0.801086 -0.271624,1.070943 -0.0682,0.2698575 -0.127681,0.5040995 -0.132173,0.5205395 -0.01011,0.037 -0.01122,0.03769 0.134793,-0.08249 0.224662,-0.184909 0.308136,-0.255318 0.308136,-0.259882 0,-0.013 0.125325,-0.4928805 0.131203,-0.5023915 0.0013,-0.0021 0.01254,-0.004 0.03103,-0.0057 8.9e-5,-8e-6 3.43e-4,-1.3e-5 4.37e-4,-2.5e-5 l 0.157695,-0.0027 c 0.05257,-8.9e-4 0.09149,-0.0017 0.120261,-0.0028 h 0.09069 l 0.0054,-0.03416 c 0.0018,-0.01172 0.126148,-0.188806 0.218638,-0.323396 0.152595,-0.221052 0.298276,-0.4382 0.417019,-0.594753 0.03154,-0.04158 0.05495,-0.07118 0.06657,-0.08363 0.0085,0.01943 0.03418,0.09153 0.0631,0.178098 l 0.0625,0.187076 h -0.160145 -0.160122 l -0.06347,0.08384 -0.06349,0.08384 0.02052,2.68e-4 h 4.14e-4 c 0.02537,0.0034 0.123794,0.0059 0.240788,0.0059 h 0.207696 l 0.03668,4.85e-4 0.08018,0.248164 0.08018,0.248139 h 0.0082 l 2.5e-5,7.5e-5 h 0.333513 c 0.02186,0 0.04173,-2.5e-5 0.06085,-5.2e-5 l 0.280915,5.2e-5 0.08678,-0.329607 c 0.07146,-0.271483 0.09036,-0.32899 0.107183,-0.326066 0.01123,0.002 0.144763,0.150271 0.296734,0.329607 l 0.276305,0.326063 h 0.01402 0.133313 0.01322 c 0.0013,0 0.0028,-1e-6 0.0041,0 0.04624,8.9e-5 0.08731,0.0018 0.113322,0.0042 0.01621,0.0038 0.01669,0.01082 0.01669,0.02414 0,0.01561 -0.02514,0.195885 -0.05587,0.4005935 -0.03073,0.204716 -0.05589,0.376401 -0.0559,0.381525 -3.7e-5,0.01574 0.03769,0.0103 0.04309,-0.0062 0.0028,-0.0085 0.02471,-0.07981 0.04872,-0.158375 0.120973,-0.3958695 0.196647,-0.6400145 0.199229,-0.6427885 0.0016,-0.0017 0.05754,-0.01951 0.124361,-0.03957 l 0.121498,-0.03646 -0.0073,0.03644 -0.0073,0.03646 h 0.009 0.168249 c 0.01474,0 0.02819,-1.1e-5 0.04051,-7.5e-5 1.41e-4,0 1.27e-4,1e-6 2.68e-4,0 l 0.135327,-5.1e-5 0.0466,-0.176958 c 0.02563,-0.09732 0.06422,-0.245408 0.08576,-0.329098 0.02154,-0.08369 0.04286,-0.152164 0.04738,-0.152164 0.0045,0 0.133622,0.147963 0.286883,0.328807 l 0.27866,0.328809 h 0.0085 l 6.31e-4,7.28e-4 h 0.1635665 0.163542 l 8.73e-4,-0.0012 0.01072,-2.5e-5 0.173465,-0.247799 0.169122,-0.241612 h 0.290814 0.288315 l 0.07936,0.239114 0.08142,0.245325 0.0081,7.5e-5 0.002,0.0061 h 0.313037 c 0.08554,0 0.147741,-1.74e-4 0.193358,-9.22e-4 h 6.53e-4 l 0.128704,0.0013 0.15129,-0.574714 c 0.08321,-0.316083 0.170727,-0.647355 0.194474,-0.736169 0.02375,-0.08881 0.0433,-0.168614 0.04345,-0.177346 1.88e-4,-0.0123 -0.03825,-0.0151 -0.170529,-0.01242 l -0.170795,0.0034 -0.02091,0.06832 c -0.01151,0.03758 -0.08053,0.2947 -0.153352,0.571389 -0.07283,0.27669 -0.147662,0.558738 -0.166308,0.626778 l -0.02994,0.109222 c -0.0072,-0.01084 -0.02114,-0.04416 -0.04326,-0.104271 l -0.186661,-0.563917 c -0.124281,-0.375472 -0.230683,-0.690109 -0.236447,-0.699196 -0.0058,-0.0092 -0.0257,-0.0147 -0.04481,-0.01242 -5.28e-4,6.2e-5 -0.0085,0.01189 -0.0091,0.01201 -0.02353,0.0082 -0.151341,0.183246 -0.356779,0.470369 -0.06956,0.09607 -0.02831,0.02704 -0.148281,0.195517 -0.263897,0.370586 -0.485366,0.672429 -0.492154,0.670762 -0.01397,-0.0034 -0.4334725,-0.493574 -0.4267475,-0.498607 0.0024,-0.0018 0.04581,-0.0094 0.09651,-0.01696 0.130769,-0.01945 0.2572585,-0.08486 0.3570945,-0.184697 0.07431,-0.07431 0.187573,-0.231535 0.208424,-0.288558 3e-6,-8e-6 2.5e-5,-1.2e-5 2.5e-5,-2.5e-5 l 0.01046,-0.0157 -0.01764,-0.01817 c -1.3e-5,-2.4e-5 -1.13e-4,-1.24e-4 -1.22e-4,-1.45e-4 -0.01673,-0.02687 -0.05818,-0.07237 -0.142969,-0.159782 l -0.159633,-0.16456 -0.4854825,-0.0018 c -0.267011,-9.79e-4 -0.489081,0.0018 -0.493489,0.0062 -0.0044,0.0044 0.0122,0.03552 0.03688,0.06914 l 0.04486,0.06114 -0.166235,0.626462 c -0.09144,0.344552 -0.169853,0.626461 -0.174241,0.626462 -0.0044,10e-7 -0.05253,-0.02096 -0.10699,-0.04658 l -0.0984,-0.04629 c -1.31e-4,-4.27e-4 -2.82e-4,-8.73e-4 -3.9e-4,-0.0013 l 0.02885,-0.129407 c 0.01599,-0.07173 0.07687,-0.348424 0.135278,-0.614865 0.05841,-0.266442 0.14546,-0.662722 0.193455,-0.880618 0.03734,-0.169521 0.06765,-0.319635 0.07759,-0.382301 0.0017,-0.0073 0.0029,-0.01191 0.0033,-0.01339 0.0022,-0.0071 0.0022,-0.01269 7.6e-5,-0.0164 -3.8e-5,-3.99e-4 -9e-5,-7.09e-4 -1.69e-4,-9.21e-4 -0.0044,-0.01147 -0.0094,-0.01691 -0.0148,-0.0165 z m -2.837541,0.09801 -0.07332,0.05641 c -0.04032,0.03102 -0.07612,0.05641 -0.07958,0.05641 -0.0035,0 -0.0011,-0.01814 0.0053,-0.0403 0.0085,-0.0297 0.01316,-0.04705 0.0086,-0.05721 l 5.59e-4,-0.0019 h -0.0016 c -0.0075,-0.012 -0.03112,-0.01242 -0.08249,-0.01242 h -0.08649 l -0.01225,0.04658 c -0.02784,0.105796 -0.11291,0.449694 -0.11291,0.456466 0,0.004 0.04028,0.0057 0.08952,0.0037 l 0.08955,-0.0036 0.01793,-0.0737 0.01795,-0.0737 0.06953,0.07756 0.06953,0.07756 0.07938,-0.0039 0.07938,-0.0039 -0.09588,-0.121304 c -0.05273,-0.06672 -0.09404,-0.126139 -0.0918,-0.132027 0.0022,-0.0059 0.07395,-0.06307 0.159344,-0.127102 l 0.155269,-0.116428 -0.102768,-0.0036 z m -0.800023,5.2e-5 -0.08724,0.0036 -0.08727,0.0036 -0.05794,0.223587 c -0.03186,0.122973 -0.05841,0.236164 -0.059,0.251536 -10e-4,0.02638 0.0037,0.02795 0.0845,0.02795 h 0.08554 l 0.02795,-0.114899 c 0.01536,-0.06319 0.03182,-0.122334 0.03659,-0.131421 0.007,-0.01334 0.05356,0.100787 0.09437,0.231376 0.0036,0.0116 0.02851,0.01507 0.08904,0.01242 l 0.08402,-0.0037 0.05794,-0.223587 c 0.03186,-0.122973 0.05841,-0.236164 0.059,-0.251536 0.001,-0.02638 -0.0037,-0.02795 -0.0845,-0.02795 h -0.08554 l -0.02788,0.114899 c -0.01532,0.06319 -0.03217,0.119659 -0.03743,0.125477 -0.0053,0.0058 -0.02814,-0.0461 -0.05085,-0.115385 z m -1.088218,9.69e-4 c -0.08085,0 -0.0838,0.0011 -0.09178,0.03416 -0.0045,0.01879 -0.01374,0.05512 -0.02045,0.08074 l -0.0122,0.04658 h -0.07407 c -0.04073,0 -0.07398,-0.0014 -0.0739,-0.0031 8e-5,-0.0017 0.0084,-0.03385 0.01849,-0.07142 0.01009,-0.03757 0.01841,-0.07274 0.01849,-0.07817 7.9e-5,-0.0054 -0.04015,-0.0082 -0.0894,-0.0062 l -0.08957,0.0036 -0.0592,0.236009 c -0.03256,0.129804 -0.05934,0.242996 -0.05951,0.251535 -2.11e-4,0.01095 0.02494,0.01553 0.08528,0.01553 h 0.08557 l 0.02142,-0.08385 c 0.04299,-0.16839 0.03641,-0.158012 0.102405,-0.161553 0.08581,-0.0046 0.08965,0.0016 0.06393,0.102551 -0.01701,0.06675 -0.02624,0.102311 -0.02181,0.121255 -9.39e-4,0.0039 -0.0015,0.0062 -0.0015,0.0066 v 2.5e-5 2.5e-5 2.5e-5 2.5e-5 h 2.5e-5 c 9e-6,1.2e-5 3.7e-5,6.1e-5 4.7e-5,7.5e-5 4.04e-4,3.33e-4 0.002,6.42e-4 0.0045,8.5e-4 0.0088,0.01422 0.03228,0.01395 0.07637,0.01395 0.06105,0 0.08292,-0.0047 0.08836,-0.01885 0.01952,-0.05088 0.124254,-0.478238 0.118586,-0.483906 -0.0036,-0.0036 -0.04411,-0.0065 -0.09006,-0.0065 z m 0.250105,0 -0.01206,0.04658 c -0.01568,0.06054 -0.09555,0.384288 -0.105728,0.428542 l -0.0079,0.03416 h 0.254423 0.254398 l 0.01225,-0.04658 c 0.0267,-0.101437 0.11291,-0.449567 0.11291,-0.455932 0,-0.0037 -0.114367,-0.0068 -0.254156,-0.0068 z m 2.050982,0 -0.156458,0.241128 c -0.06582,0.101444 -0.09667,0.154335 -0.119678,0.19479 -0.0042,0.0067 -0.02419,0.03724 -0.0253,0.03921 -0.0018,0.0031 -0.0031,0.0058 -0.0037,0.0081 -3.38e-4,8.8e-4 -0.0077,0.01222 -0.0077,0.01259 0,0.0085 0.03332,0.01347 0.09006,0.01337 0.08915,-1.51e-4 0.09034,-5.89e-4 0.118126,-0.04348 0.01917,-0.02959 0.02908,-0.03932 0.05405,-0.04214 0.01299,-1.83e-4 0.02987,4.65e-4 0.05243,0.0014 0.01502,6.13e-4 0.02751,0.0012 0.03792,0.0018 0.03215,0.006 0.04407,0.01943 0.04947,0.04641 0.0071,0.03546 0.0088,0.03617 0.08756,0.03617 0.04417,0 0.08279,-0.0042 0.08581,-0.0093 0.003,-0.0051 -0.01047,-0.11552 -0.02999,-0.245325 -0.01951,-0.129805 -0.03562,-0.240201 -0.03581,-0.245325 -1.85e-4,-0.0051 -0.04452,-0.0093 -0.09852,-0.0093 z m 0.437931,0 -0.05895,0.239114 c -0.03243,0.131513 -0.05884,0.246101 -0.05869,0.254641 9e-6,5.13e-4 9.9e-5,10e-4 2.18e-4,0.0015 l -4.12e-4,0.0016 h 0.001 c 0.0049,0.0087 0.031,0.01242 0.08484,0.01242 h 0.08542 l 0.05794,-0.232903 c 0.03187,-0.128097 0.06088,-0.242686 0.06448,-0.254641 0.0058,-0.01932 -0.0036,-0.02174 -0.08467,-0.02174 z m -2.181966,0.09826 -0.03976,0.158932 -0.03979,0.158933 -0.0773,0.0037 -0.07441,0.0036 c -8.89e-4,-0.0013 -0.0015,-0.0027 -0.0018,-0.0043 l 0.0075,-0.03035 c 0.0048,-0.01912 0.02309,-0.09066 0.04076,-0.158981 l 0.03212,-0.124216 0.07632,-0.0037 z m 3.910692,0.05286 c -0.01346,3.8e-5 -0.06415,0.0373 -0.187924,0.134696 -0.126328,0.09941 -0.197153,0.145907 -0.259396,0.170335 -0.0815,0.03199 -0.08389,0.03405 -0.04969,0.04299 0.02187,0.0057 0.08933,0.06304 0.172349,0.146414 0.07503,0.07535 0.139727,0.137001 0.143745,0.137001 0.004,0 0.04545,-0.13555 0.09209,-0.301222 0.04664,-0.165672 0.08735,-0.308209 0.09049,-0.316749 0.0032,-0.0086 0.0032,-0.01348 -0.0017,-0.01346 z m -2.117553,0.08503 c 0.0044,-8.9e-5 0.01015,0.02221 0.01276,0.04954 0.0036,0.03764 0.004,0.04677 -0.01427,0.04898 -0.0061,5.22e-4 -0.01371,6.79e-4 -0.02319,7.03e-4 -0.0217,-1.22e-4 -0.0392,-0.0029 -0.0392,-0.0064 0,-0.01168 0.05576,-0.09269 0.0639,-0.09285 z m -2.765851,0.422186 c -0.122528,0 -0.156009,5.37e-4 -0.170116,0.01242 h -0.0038 l -0.0017,0.0066 c -3e-6,6e-6 4e-6,1.2e-5 0,2.5e-5 -0.0016,0.0026 -0.003,0.0055 -0.0044,0.0089 -0.01557,0.03581 -0.210899,0.776033 -0.210899,0.799247 0,0.01471 0.07764,0.01747 0.492106,0.01747 h 0.49145 c 2.5e-5,0.001 -3.7e-5,0.0022 -1.45e-4,0.0037 -2.91e-4,0.004 -0.0072,0.02941 -0.0083,0.03651 -0.01314,0.0578 -0.09309,0.359921 -0.107063,0.403869 l -0.01283,0.04037 h -0.626341 -0.626316 v 0.01264 0.07431 0.0064 0.08052 1.93e-4 l 0.04719,-1.93e-4 h 0.735369 c 0.40548,0 0.699677,-0.0028 0.737236,-0.0061 l 0.03744,-1.45e-4 5.1e-5,-1.46e-4 c 7.5e-5,-3.7e-5 0.0078,-3.7e-5 0.0078,-7.5e-5 0,-0.0035 0.04751,-0.185115 0.105583,-0.403481 0.05807,-0.218366 0.105582,-0.402734 0.105582,-0.409692 0,-0.0012 -0.0034,-0.0023 -0.01021,-0.0033 1.69e-4,-0.0016 1.73e-4,-0.0026 0,-0.0029 v -2.5e-5 l -2.5e-5,-2.5e-5 -2.5e-5,-2.5e-5 c -0.0028,-0.0028 -0.146624,-0.0052 -0.342126,-0.006 -0.04351,-2.08e-4 -0.091,-3.12e-4 -0.142459,-3.12e-4 h -0.01029 c -0.243613,0 -0.447068,-0.0026 -0.48296,-0.006 l 0.08309,-0.313837 c 0.04659,-0.17592 0.08481,-0.326842 0.08494,-0.335382 1.74e-4,-0.01167 -0.04151,-0.01553 -0.167714,-0.01553 z m 8.9434695,0.0027 -0.160435,0.0035 -0.189332,0.714238 c -0.104125,0.39283 -0.192773,0.729609 -0.196998,0.748396 l -0.0077,0.03416 h 0.702447 3.29e-4 0.70281 v -0.08074 -0.0062 -0.07453 -0.01242 h -0.239478 -0.238216 l -0.0699,-0.06936 -0.0062,-0.0061 -0.0052,-0.0052 -0.08001,-0.08074 h -0.166283 c -0.109614,0 -0.147948,-0.0014 -0.157379,-0.0093 0.0015,-0.01017 0.006,-0.0312 0.01298,-0.06114 0.02235,-0.08172 0.06766,-0.251396 0.117859,-0.441692 0.0687,-0.260437 0.135557,-0.51195 0.148573,-0.558919 0.0183,-0.06603 0.02011,-0.08675 0.0081,-0.09137 -0.0086,-0.0033 -0.08777,-0.0044 -0.176012,-0.0025 z m -4.8402435,0.174554 c 0.09963,-6.91e-4 0.156552,-2.75e-4 0.187706,0.0022 h 2.5e-5 c 0.03005,0.0024 0.03611,0.0068 0.03333,0.01402 -0.0186,0.04846 -0.261616,0.3926 -0.293046,0.414981 -0.0197,0.01403 -0.05926,0.03378 -0.0879,0.04389 -0.02832,0.01 -0.08227,0.01657 -0.14588,0.01805 -0.0038,2.5e-5 -0.0077,3.8e-5 -0.01174,5e-5 -0.06514,1.27e-4 -0.120232,-0.0023 -0.135521,-0.0057 l 0.03384,-0.127541 c 0.0195,-0.07344 0.04882,-0.183838 0.06514,-0.245325 l 0.02967,-0.111793 0.276233,-0.0025 c 0.01706,-1.51e-4 0.03308,-2.84e-4 0.04813,-3.87e-4 z m 1.763904,3.87e-4 c 0.06116,-5.7e-4 0.10259,2.45e-4 0.143915,10e-4 0.033269,0.0012 0.083189,0.0016 0.094129,0.0032 0.01519,0.0015 0.02511,0.0032 0.02511,0.0054 0,0.01664 -0.219111,0.344739 -0.259346,0.388343 -0.01791,0.01941 -0.05492,0.04709 -0.08224,0.0615 -0.03899,0.02056 -0.07826,0.02727 -0.182416,0.03125 l -0.02722,0.001 c -0.05093,5.77e-4 -0.09115,-0.0012 -0.103205,-0.0046 l 0.05294,-0.200758 c 0.03038,-0.115174 0.05973,-0.226164 0.06521,-0.246659 l 0.01,-0.03726 z m -2.644813,0.114997 c -0.0067,-0.0067 -0.285306,0.101674 -0.301294,0.117131 -0.0059,0.0057 0.02383,0.113981 0.06684,0.24302 0.04722,0.141676 0.08111,0.225895 0.08663,0.215363 0.01516,-0.02889 0.153975,-0.56936 0.147821,-0.575514 z m -1.388541,0.04512 c -0.03684,-0.0021 -0.07137,6.95e-4 -0.07671,0.0062 -0.0053,0.0055 -0.04672,0.155351 -0.09195,0.332979 -0.04523,0.177628 -0.08537,0.333438 -0.08921,0.34625 -0.004,0.01327 -0.0018,0.02011 0.0049,0.01591 0.01118,-0.0069 0.317389,-0.432249 0.350156,-0.48638 0.01208,-0.01996 0.01061,-0.04314 -0.0076,-0.118005 l -0.02266,-0.09316 z m 2.12408,0.0025 -0.05459,0.0014 -0.02123,0.07739 c -0.01168,0.04256 -0.01873,0.07991 -0.01565,0.083 0.0083,0.0083 0.04347,-0.0062 0.06985,-0.02875 0.03432,-0.02939 0.09641,-0.123068 0.08557,-0.129116 -0.0052,-0.0029 -0.03394,-0.0046 -0.06395,-0.0039 z m 1.822785,5.83e-4 -0.05153,8.73e-4 -0.02125,0.07759 c -0.0213,0.07781 -0.01756,0.08791 0.02421,0.06555 0.01947,-0.01042 0.1001,-0.122337 0.1001,-0.138941 0,-0.0033 -0.02319,-0.0056 -0.05153,-0.0051 z m 1.3036765,0.119484 0.01019,0.02596 c 0.01246,0.02495 0.03709,0.106295 0.06776,0.199788 0.01183,0.03633 0.01916,0.05482 0.03113,0.0934 l 0.01638,0.05279 h -0.193358 -0.193383 l 0.01834,-0.02795 c 0.01008,-0.01537 0.06887,-0.09906 0.130644,-0.185983 l 0.111891,-0.157453 3.66e-4,-5.09e-4 c 2.5e-5,-1.3e-5 2.5e-5,-3.8e-5 5.1e-5,-5e-5 z m -2.5826565,0.3807 c -0.0072,4.75e-4 -0.0379,0.01719 -0.07436,0.04076 -0.04167,0.02693 -0.08639,0.05233 -0.09937,0.05645 -0.01298,0.0041 -0.02357,0.01132 -0.02353,0.01599 3.7e-5,0.0047 0.02615,0.04061 0.05803,0.07989 0.03189,0.03928 0.06119,0.0714 0.06514,0.07138 0.0065,-3.7e-5 0.07613,-0.242468 0.07569,-0.263642 -1.2e-5,-6.22e-4 -5.75e-4,-8.93e-4 -0.0016,-8.25e-4 z m -2.071992,0.326453 c -0.0061,-1.22e-4 -0.01297,1.69e-4 -0.02099,1.69e-4 -0.03,0 -0.05454,0.0024 -0.05454,0.0052 0,0.0029 0.02865,0.08532 0.06366,0.183217 0.04641,0.12974 0.07704,0.194811 0.113056,0.240085 l 0.04942,0.06211 -0.05925,-0.06211 c -0.07252,-0.07604 -0.184524,-0.225378 -0.256218,-0.341592 l -0.05352,-0.08673 -0.05847,-9.9e-5 -0.05847,-1.22e-4 -0.118538,0.165992 -0.118539,0.165998 v 0.08244 0.08244 h -0.142847 c -0.151621,0 -0.161804,0.0047 -0.124822,0.05747 0.01662,0.02373 0.01468,0.02902 -0.02484,0.06732 -0.04086,0.03961 -0.04289,0.04566 -0.04304,0.1291635 l -1.46e-4,0.08763 -0.08125,0.07996 -0.08123,0.07996 0.08127,0.08127 0.08127,0.08127 0.0812,-0.0805 0.08123,-0.0805 h 0.109974 0.109974 l 0.116379,0.118222 c 0.517615,0.525859 1.174447,0.824269 1.923686,0.873995 0.207181,0.01375 0.55248,-0.01586 0.782556,-0.06713 0.7513,-0.167414 1.4249875,-0.646758 1.8306205,-1.3025115 0.03843,-0.06213 0.06987,-0.115826 0.06987,-0.119315 -3e-6,-2.5e-5 -1.2e-5,-9.8e-5 -2.5e-5,-1.22e-4 -0.0013,-0.0034 -0.04338,-0.0062 -0.09462,-0.0062 h -0.09464 l -0.113419,0.107937 C 9.8364085,10.353951 9.2535695,10.605777 8.6210865,10.644475 l -0.128655,0.0079 -0.0079,0.03605 c -0.0044,0.01984 -0.01161,0.03417 -0.01611,0.03183 -0.109896,-0.05708 -0.177918,-0.08401 -0.212282,-0.08402 -0.08239,-2.5e-5 -0.263873,-0.02853 -0.268276,-0.04214 -0.0024,-0.0076 -0.0071,-0.03554 -0.01024,-0.06216 -0.0051,-0.04261 -0.02557,-0.06821 -0.171329,-0.214272 l -0.165531,-0.165872 h -0.164755 -0.164755 v 0.08443 c 0,0.08207 0.0014,0.08579 0.04947,0.132731 0.0272,0.02656 0.0471,0.05065 0.04423,0.05352 -0.0029,0.0029 -0.06775,-0.02751 -0.144158,-0.06752 l -0.138917,-0.07273 0.009,-0.198744 c 0.0049,-0.1093085 0.0098,-0.2127185 0.01084,-0.2297975 l 0.0018,-0.03105 -0.274729,-0.0033 -0.274753,-0.0033 -0.0656,-0.201631 c -0.08904,-0.273647 -0.09287,-0.294101 -0.135424,-0.294938 z m 4.3968775,5.2e-5 c -0.01195,5.31e-4 -0.03105,0.01815 -0.04794,0.04821 -0.01486,0.02644 -0.06622,0.102164 -0.114098,0.168273 -0.04788,0.06611 -0.08705,0.122525 -0.08705,0.12538 0,0.0029 0.01735,0.02495 0.03855,0.0491 0.0212,0.02415 0.0407,0.04391 0.04331,0.04391 0.01668,0 0.178996,-0.377556 0.178996,-0.416364 0,-0.01299 -0.0046,-0.01883 -0.01177,-0.01851 z m -3.1350985,0.0015 c -0.0085,-1.37e-4 -0.01571,0.02734 -0.08368,0.286932 l -0.05434,0.207599 -0.09969,0.0036 -0.09966,0.0036 0.16148,0.08319 c 0.151087,0.07784 0.166863,0.08324 0.245058,0.08384 l 0.08358,6.54e-4 0.09971,-0.132464 c 0.08667,-0.115121 0.09754,-0.135039 0.08292,-0.152163 -0.0093,-0.01084 -0.08553,-0.10075 -0.169486,-0.199812 -0.08396,-0.09906 -0.157108,-0.181862 -0.162571,-0.183994 -0.0012,-4.71e-4 -0.0023,-9.05e-4 -0.0033,-9.21e-4 z m 1.650073,0.501663 -0.0038,0.06684 c -0.0021,0.03676 -7.81e-4,0.07477 0.0029,0.08445 0.0051,0.01318 0.0263,0.01667 0.08455,0.0139 l 0.0778,-0.0037 v -0.08074 -0.08074 h -0.08074 z m -4.813897,0.174751 c -5.43e-4,3e-6 -9.87e-4,9.8e-5 -0.0013,3.14e-4 -0.01251,0.0077 -0.159587,0.2984625 -0.159587,0.3154625 0,0.0068 0.03494,0.04574 0.07763,0.08666 0.0427,0.04092 0.08097,0.07453 0.08503,0.07467 0.02393,8.76e-4 0.05036,-0.06178 0.08564,-0.20299 l 0.03991,-0.159757 -0.05925,-0.06017 c -0.03055,-0.03102 -0.05991,-0.05425 -0.06805,-0.0542 z m 1.323183,0.4898005 c -0.0035,0 -0.07888,0.03638 -0.167594,0.08084 l -0.16131,0.08081 v 0.167618 0.167593 h 0.164925 0.164901 l 0.08452,-0.08516 0.0845,-0.08516 -0.08183,-0.163275 c -0.045,-0.0898 -0.08465,-0.163275 -0.08812,-0.163275 z m -2.154867,0.161479 v 0.08695 0.08695 h 0.07974 c 0.07862,0 0.0807,-8.86e-4 0.149495,-0.06376 0.120756,-0.110364 0.120902,-0.110144 -0.06732,-0.110144 z m 0.811305,0.02023 -0.07026,0.07256 c -0.03865,0.03991 -0.07028,0.07473 -0.07028,0.07742 0,0.0027 0.01817,0.01279 0.04037,0.02244 0.0222,0.0097 0.0443,0.01776 0.0491,0.01803 0.0099,5.52e-4 0.03105,-0.069 0.04301,-0.141562 z m 0.253767,0.0543 c -0.01073,0 -0.220409,0.172431 -0.220409,0.181253 2.49e-4,0.0027 0.03229,0.02134 0.07142,0.04153 0.03928,0.02028 0.07406,0.03713 0.0773,0.03746 0.0109,0.0011 0.161819,-0.153835 0.161819,-0.166138 0,-0.01522 -0.07555,-0.09411 -0.09013,-0.09411 z m -0.729691,0.260852 v 0.08074 0.08074 h 0.16769 0.167691 v -0.06109 c 0,-0.103557 0.0055,-0.100391 -0.175236,-0.100391 z"
     class="ColorScheme-Text" />
  <path
     id="gradient-path1"
     style="opacity:0.3;baseline-shift:baseline;display:inline;overflow:visible;vector-effect:none;enable-background:accumulate;stop-color:#000000;stop-opacity:1;fill:url(#linearGradient4)"
     d="M 8.4453131 1.2753492 C 4.4913166 1.2753492 1.2794833 4.4784283 1.2794833 8.4236094 C 1.2794833 12.36879 4.4913166 15.572386 8.4453131 15.572386 C 12.39931 15.572386 15.611143 12.36879 15.611143 8.4236094 C 15.611143 4.4784283 12.39931 1.2753492 8.4453131 1.2753492 z " />
</svg>
