<?xml version="1.0" encoding="UTF-8" standalone="no"?>
<svg
   width="64"
   height="64"
   version="1.1"
   viewBox="0 0 16.933 16.933"
   id="svg7"
   sodipodi:docname="thunderbird.svg"
   inkscape:version="1.4.2 (ebf0e940d0, 2025-05-08)"
   xmlns:inkscape="http://www.inkscape.org/namespaces/inkscape"
   xmlns:sodipodi="http://sodipodi.sourceforge.net/DTD/sodipodi-0.dtd"
   xmlns:xlink="http://www.w3.org/1999/xlink"
   xmlns="http://www.w3.org/2000/svg"
   xmlns:svg="http://www.w3.org/2000/svg"
   xmlns:rdf="http://www.w3.org/1999/02/22-rdf-syntax-ns#"
   xmlns:cc="http://creativecommons.org/ns#"
   xmlns:dc="http://purl.org/dc/elements/1.1/">
  <sodipodi:namedview
     id="namedview7"
     pagecolor="#9c4444"
     bordercolor="#000000"
     borderopacity="0.25"
     inkscape:showpageshadow="2"
     inkscape:pageopacity="0.0"
     inkscape:pagecheckerboard="0"
     inkscape:deskcolor="#d1d1d1"
     inkscape:zoom="8.7062522"
     inkscape:cx="71.500341"
     inkscape:cy="15.276378"
     inkscape:window-width="2560"
     inkscape:window-height="1392"
     inkscape:window-x="0"
     inkscape:window-y="0"
     inkscape:window-maximized="1"
     inkscape:current-layer="svg7"
     showgrid="false" />
  <defs
     id="defs2">
    <filter
       style="color-interpolation-filters:sRGB;"
       inkscape:label="Blur"
       id="filter3"
       x="-0.10843471"
       y="-0.10870992"
       width="1.2168694"
       height="1.2174198">
      <feGaussianBlur
         stdDeviation="0.5 0.5"
         result="blur"
         id="feGaussianBlur3" />
    </filter>
    <style
       id="current-color-scheme"
       type="text/css">.ColorScheme-Text {color:#d8dee9} .ColorScheme-Highlight {color:#3b4252}</style>
    <linearGradient
       id="linearGradient3"
       inkscape:collect="always">
      <stop
         style="stop-color:#000000;stop-opacity:1;"
         offset="0"
         id="stop3" />
      <stop
         style="stop-color:#000000;stop-opacity:0;"
         offset="1"
         id="stop4" />
    </linearGradient>
    <linearGradient
       inkscape:collect="always"
       xlink:href="#linearGradient3"
       id="linearGradient4"
       x1="13.512321"
       y1="13.490874"
       x2="3.3783066"
       y2="3.3568602"
       gradientUnits="userSpaceOnUse" />
  </defs>
  <metadata
     id="metadata2">
    <rdf:RDF>
      <cc:Work
         rdf:about="">
        <dc:format>image/svg+xml</dc:format>
        <dc:type
           rdf:resource="http://purl.org/dc/dcmitype/StillImage" />
      </cc:Work>
    </rdf:RDF>
  </metadata>
  <ellipse
     style="opacity:1;fill:none;stroke:#000000;stroke-width:0.582072;stroke-dasharray:none;stroke-opacity:1;filter:url(#filter3)"
     id="path1-5"
     cx="8.4450111"
     cy="8.423522"
     rx="6.8752708"
     ry="6.8578653" />
  <ellipse
     style="opacity:1;fill:none;stroke-width:0.58207188;stroke-opacity:1;stroke:currentColor;stroke-dasharray:none;fill-opacity:1"
     id="path1"
     cx="8.4450111"
     cy="8.423522"
     rx="6.8752708"
     ry="6.8578653"
     class="ColorScheme-Text" />
  <ellipse
     style="fill:currentColor;stroke:none;stroke-width:0.285844;stroke-dasharray:none;stroke-opacity:1"
     id="path1-2"
     cx="8.4557552"
     cy="8.423522"
     rx="6.5738997"
     ry="6.5692253"
     class="ColorScheme-Highlight" />
  <path
     id="path5"
     style="opacity:0.3;fill:#000000;fill-opacity:1;stroke-width:0.00978849"
     d="m 10.315339,5.0269844 c -1.159164,0 -2.296665,0.4454485 -2.557704,1.3580196 h -0.0019 C 7.092476,6.6574182 7.021412,7.2665526 7.12801,7.5940369 7.230339,7.2032994 7.71724,6.7231499 8.365337,6.6871488 8.320687,6.6081448 8.114497,6.4912538 8.024365,6.4708833 c 0.341099,-1.0926023 2.078834,-1.428021 3.142414,-1.234727 0.442616,0.08054 0.993816,0.3216702 1.161524,0.446983 C 11.835364,5.2805574 11.116216,5.0269844 10.315332,5.0269844 Z m 0.33082,0.3067126 C 10.470207,5.329447 10.285586,5.337267 10.10003,5.358167 9.728918,5.400003 9.353778,5.4942339 9.033867,5.6427985 8.655319,5.8185945 8.35969,6.0655013 8.213775,6.3884643 8.323897,6.4445073 8.446026,6.5291321 8.494181,6.6143264 L 8.611375,6.8217011 8.373546,6.8349121 C 8.225074,6.8431621 8.08573,6.8775861 7.959025,6.9301981 7.838485,6.9802531 7.729386,7.0467679 7.634781,7.1228705 7.503369,7.2285839 7.401687,7.3537394 7.337207,7.4713753 7.681802,7.2846201 8.083461,7.1853105 8.466365,7.1853105 c 1.125882,0 2.038702,0.7447519 2.038702,1.6634905 0,0.918728 -0.91282,1.663471 -2.038702,1.663471 l -1.15e-4,-1.16e-4 c -0.05425,0 -0.145669,-0.01387 -0.178832,0.04026 -0.03328,0.05413 0.04004,0.137508 0.08232,0.185235 0.183614,0.207716 0.40174,0.33967 0.605816,0.424118 0.247308,0.01303 0.630468,0.0163 0.860718,-0.02522 l 2e-5,-2e-5 c 4e-6,-6e-6 3e-5,-3e-5 3.9e-5,-3.7e-5 l 1.8e-5,-2e-5 h 1.9e-5 l 2e-5,-1.9e-5 h 1.9e-5 1.8e-5 2e-5 c 9e-6,0 4.8e-5,-10e-7 5.7e-5,0 1e-5,3e-6 4.8e-5,1.6e-5 5.8e-5,1.9e-5 0.0014,6.23e-4 0.0078,0.01239 0.02843,0.155602 l 0.0203,0.142871 c -0.133061,0.03954 -0.458765,0.0518 -0.572952,0.05565 -0.03732,0.0012 -0.07388,-3e-4 -0.110943,-1.5e-4 -0.07644,3e-4 -0.152605,-6.9e-5 -0.227831,-0.0043 -0.04318,-0.0024 -0.0856,-0.0071 -0.12834,-0.01099 -0.06826,-0.0062 -0.136088,-0.01347 -0.203112,-0.02346 -0.04383,-0.0065 -0.08706,-0.01438 -0.130328,-0.02248 -0.06467,-0.01211 -0.128583,-0.02583 -0.19187,-0.04141 -0.04257,-0.01047 -0.08485,-0.02131 -0.126753,-0.03332 -0.06324,-0.01814 -0.125252,-0.03864 -0.186862,-0.06024 -0.03928,-0.01376 -0.07873,-0.02697 -0.117309,-0.04212 -0.06494,-0.02551 -0.128058,-0.05418 -0.190875,-0.08355 -0.0327,-0.01528 -0.06614,-0.02913 -0.09823,-0.04545 -0.08138,-0.04135 -0.160348,-0.08653 -0.237563,-0.134369 -0.01162,-0.0072 -0.02402,-0.01318 -0.03554,-0.02051 -0.08794,-0.05605 -0.172577,-0.116744 -0.254444,-0.181031 -0.02515,-0.01975 -0.04842,-0.04174 -0.07297,-0.06225 -0.05555,-0.04642 -0.110477,-0.09349 -0.162791,-0.14373 -0.02863,-0.0275 -0.05551,-0.05678 -0.08313,-0.0854 -0.04527,-0.0469 -0.08978,-0.09446 -0.132221,-0.144319 -0.02757,-0.03239 -0.05385,-0.06586 -0.08018,-0.09947 -0.03926,-0.05012 -0.07719,-0.101343 -0.113601,-0.15413 C 6.402775,10.06215 6.378685,10.026037 6.355365,9.9890739 6.320625,9.9339949 6.288035,9.8772457 6.256415,9.8195534 6.235825,9.7819934 6.214955,9.7447894 6.195735,9.7061452 6.164445,9.6432532 6.136275,9.5781024 6.108705,9.5124006 6.093425,9.4759686 6.076885,9.4405346 6.062785,9.4032562 6.031435,9.3203872 6.004265,9.2347014 5.978955,9.1477606 c -0.0065,-0.022436 -0.01487,-0.043658 -0.02099,-0.066359 -7.36e-4,-0.00271 -0.0018,-0.00521 -0.0025,-0.00794 v -0.00361 C 5.894615,8.8411184 5.854018,8.59957 5.837735,8.3454642 5.468641,8.7891228 5.36808,9.3007924 5.39643,9.7578561 c 0.01512,0.2437289 0.06798,0.4705359 0.136313,0.6557909 0.06834,0.185255 0.154897,0.329808 0.220433,0.401481 l -3.9e-4,4.5e-4 c 0.06551,0.06085 0.133104,0.119476 0.202672,0.175771 0.157889,0.127768 0.325929,0.243493 0.502732,0.34579 0.176802,0.102297 0.362366,0.191167 0.555306,0.265207 0.435605,0.167165 0.9088,0.258766 1.403597,0.258766 0.484618,0 0.950172,-0.09194 1.380523,-0.258766 0.169763,-0.06581 0.331781,-0.147255 0.489596,-0.235325 0.03633,-0.02028 0.07258,-0.04063 0.10821,-0.06202 0.152345,-0.09145 0.299824,-0.19057 0.438245,-0.301112 0.01661,-0.01327 0.0317,-0.02829 0.0481,-0.04181 0.922039,-0.760627 1.502522,-1.9252954 1.446518,-3.1921598 l 9.05e-4,-0.00577 c -0.02456,-0.4042803 -0.177512,-0.9041336 -0.447976,-1.295924 0.194086,-0.00379 0.388097,0.010891 0.579412,0.043817 -0.25358,-0.2817623 -0.595753,-0.5095194 -0.994067,-0.65757 0.196917,-0.070821 0.400568,-0.1204619 0.607499,-0.1482413 -0.07805,-0.039645 -0.174846,-0.084308 -0.27859,-0.1259898 -0.206947,-0.083144 -0.448818,-0.1608765 -0.65518,-0.1984274 -0.15089,-0.027419 -0.318175,-0.043777 -0.494128,-0.048045 z m -4.74398,0.5144899 c -0.002,-8.1e-5 -0.0039,-6.17e-5 -0.0058,3.73e-5 -0.03352,0.0017 -0.06232,0.029717 -0.06665,0.065995 C 5.750369,6.5790147 5.578406,6.8094028 5.393051,7.0580021 5.114832,7.4309734 4.912662,7.8619637 4.92154,8.335248 4.820092,8.1232775 4.738527,7.9023528 4.677917,7.6753073 4.671117,7.6497203 4.634077,7.5782933 4.589307,7.5749763 4.565027,7.5732063 4.552117,7.5968923 4.546077,7.6218913 4.291667,8.663446 4.488287,9.887633 5.644014,10.914975 5.299948,10.538686 4.879843,9.1493896 5.806862,8.1568742 5.869282,8.0899502 5.976704,8.1391212 5.98013,8.2305572 6.05653,10.293283 7.72095,11.553106 9.639881,11.317546 8.161369,11.459309 6.428193,10.514529 6.427724,8.8730613 6.427575,8.485632 6.570763,8.1564074 6.799362,7.8944212 c -0.0011,1.497e-4 -0.0021,4.493e-4 -0.0032,6e-4 0.05022,-0.8403325 -0.272404,-1.8459984 -0.87609,-2.0435609 -0.006,-0.00198 -0.01199,-0.003 -0.01788,-0.00328 z M 8.76239,5.9898893 c 0.12569,0.00408 0.188982,0.078633 0.188982,0.078633 0,0 0.01921,0.2159168 -0.198961,0.2846123 -0.249441,0.078523 -0.359958,-0.131113 -0.359958,-0.131113 0,0 0.03139,-0.1441359 0.233682,-0.2108157 0.04053,-0.013342 0.0773,-0.019675 0.110293,-0.021147 0.0089,-4.494e-4 0.01758,-4.494e-4 0.02596,-1.494e-4 z M 8.466365,7.3334 c -0.57533,0 -1.19119,0.237701 -1.558399,0.6625391 l 0.05554,0.051963 c 0.415001,0.3889568 0.750534,0.7031887 1.223466,1.1068281 0.213428,0.182153 0.279762,0.1786007 0.489156,0 C 9.177688,8.7265105 9.554346,8.3949826 10.016446,7.9828623 9.677414,7.5932585 9.115008,7.3334004 8.466366,7.3334004 Z m 4.009764,0.429909 c 0.100793,2.279957 -1.773506,4.245705 -4.059032,4.245705 -1.069416,0 -1.8907,-0.269951 -2.616206,-0.945336 l -0.08467,0.09876 C 4.942597,10.474757 4.40995,9.5611693 4.321685,8.8037385 c -2.69e-4,0.015292 -4.64e-4,0.030605 -5.66e-4,0.045903 0.01623,2.2458525 1.902856,4.1146855 4.145391,4.1146855 2.289422,0 4.145371,-1.855939 4.145371,-4.1453715 0,-0.3647869 -0.04726,-0.7185603 -0.13574,-1.0556473 z M 10.172946,8.198229 8.67175,9.6347669 C 8.52879,9.7363814 8.376597,9.7437107 8.226411,9.6515719 L 6.756206,8.2068122 C 6.642113,8.4008727 6.575657,8.6240364 6.575769,8.8730039 6.576068,10.01307 7.480487,10.799671 8.521023,11.075091 8.429713,11.007823 8.341057,10.928776 8.258893,10.835846 l -1.8e-5,-1.8e-5 -1.9e-5,-1.9e-5 c -2.1e-5,-2.3e-5 -3.8e-5,-5.4e-5 -5.7e-5,-7.6e-5 -0.03479,-0.03924 -0.194344,-0.20322 -0.09758,-0.36078 1.9e-5,-3.3e-5 3.8e-5,-6.3e-5 5.7e-5,-9.6e-5 0.08565,-0.139464 0.280733,-0.110789 0.304974,-0.110789 h 0.0237 c 1.049275,-0.01021 1.867024,-0.7007189 1.867024,-1.515267 0,-0.2310741 -0.0658,-0.452162 -0.184033,-0.6505715 z" />
  <path
     id="path5-7"
     style="fill:currentColor;fill-opacity:1;stroke-width:0.00978849"
     d="m 10.315339,4.4978287 c -1.159165,0 -2.296666,0.4454485 -2.557705,1.3580196 h -0.0019 C 7.092475,6.1282625 7.021411,6.7373969 7.128009,7.0648812 7.230338,6.6741437 7.717239,6.1939942 8.365336,6.1579931 8.320686,6.0789891 8.114496,5.9620981 8.024364,5.9417276 c 0.341099,-1.0926023 2.078834,-1.428021 3.142414,-1.234727 0.442616,0.08054 0.993816,0.3216702 1.161524,0.446983 C 11.835363,4.7514017 11.116215,4.4978287 10.315331,4.4978287 Z m 0.330819,0.3067126 c -0.175951,-0.00425 -0.360572,0.00357 -0.546129,0.02447 C 9.728917,4.8708473 9.353777,4.9650782 9.033866,5.1136428 8.655318,5.2894388 8.359689,5.5363456 8.213774,5.8593086 8.323897,5.9153516 8.446026,5.9999764 8.49418,6.0851707 l 0.117195,0.2073747 -0.23783,0.013211 C 8.225073,6.3140064 8.085729,6.3484304 7.959024,6.4010424 7.838484,6.4510974 7.729385,6.5176122 7.63478,6.5937148 7.503368,6.6994282 7.401686,6.8245837 7.337206,6.9422196 7.681801,6.7554644 8.08346,6.6561548 8.466364,6.6561548 c 1.125882,0 2.038702,0.7447519 2.038702,1.6634905 0,0.918728 -0.91282,1.663471 -2.038702,1.663471 l -1.15e-4,-1.155e-4 c -0.05425,0 -0.145669,-0.013868 -0.178832,0.040262 -0.03328,0.05413 0.04004,0.137508 0.08232,0.185235 0.183614,0.207716 0.40174,0.33967 0.605816,0.424118 0.247308,0.01303 0.630468,0.0163 0.860718,-0.02522 l 2e-5,-2e-5 c 4e-6,-6e-6 3e-5,-3e-5 3.9e-5,-3.7e-5 l 1.8e-5,-2e-5 h 1.9e-5 l 2e-5,-1.9e-5 h 1.9e-5 1.8e-5 2e-5 c 9e-6,0 4.8e-5,-2e-6 5.8e-5,0 9e-6,3e-6 4.8e-5,1.6e-5 5.7e-5,1.9e-5 0.0014,6.23e-4 0.0078,0.01239 0.02843,0.155602 l 0.0203,0.142871 c -0.133061,0.03954 -0.458765,0.0518 -0.572952,0.05565 -0.03732,0.0012 -0.07388,-2.99e-4 -0.110943,-1.49e-4 -0.07644,2.99e-4 -0.152605,-6.9e-5 -0.22783,-0.0043 -0.04318,-0.0024 -0.0856,-0.0071 -0.12834,-0.01099 -0.06826,-0.0062 -0.136089,-0.01347 -0.203113,-0.02346 -0.04383,-0.0065 -0.08706,-0.01438 -0.130328,-0.02248 -0.06467,-0.01211 -0.128583,-0.02583 -0.19187,-0.04141 -0.04257,-0.01047 -0.08485,-0.02131 -0.126753,-0.03332 -0.06324,-0.01814 -0.125252,-0.03864 -0.186862,-0.06024 -0.03928,-0.01376 -0.07873,-0.02697 -0.117309,-0.04212 -0.06494,-0.02551 -0.128058,-0.05418 -0.190875,-0.08355 -0.0327,-0.01528 -0.06614,-0.02913 -0.09823,-0.04545 -0.08138,-0.04135 -0.160348,-0.08653 -0.237563,-0.134369 -0.01162,-0.0072 -0.02402,-0.01318 -0.03554,-0.02051 -0.08794,-0.05605 -0.172577,-0.116744 -0.254444,-0.18103 -0.02515,-0.01975 -0.04842,-0.04174 -0.07297,-0.06225 -0.05555,-0.04642 -0.110477,-0.09349 -0.162791,-0.14373 -0.02863,-0.0275 -0.05551,-0.056784 -0.08313,-0.085401 C 6.708176,9.9197816 6.663666,9.8722246 6.621225,9.8223625 6.593655,9.7899765 6.567375,9.7564995 6.541045,9.7228895 6.501785,9.6727725 6.463855,9.6215461 6.427444,9.5687597 6.402774,9.5329957 6.378684,9.4968827 6.355364,9.4599192 6.320624,9.4048402 6.288034,9.348091 6.256414,9.2903987 6.235824,9.2528387 6.214954,9.2156347 6.195734,9.1769905 6.164444,9.1140985 6.136274,9.0489477 6.108704,8.9832459 6.093424,8.9468139 6.076884,8.9113799 6.062784,8.8741015 6.031434,8.7912325 6.004264,8.7055467 5.978954,8.6186059 c -0.0065,-0.022436 -0.01487,-0.043658 -0.02099,-0.066359 -7.37e-4,-0.00271 -0.0018,-0.00521 -0.0025,-0.00794 v -0.00361 C 5.894614,8.3119637 5.854017,8.0704153 5.837734,7.8163095 5.46864,8.2599681 5.368079,8.7716377 5.396429,9.2287014 c 0.01512,0.2437286 0.06798,0.4705359 0.136313,0.655791 0.06834,0.1852546 0.154897,0.3298086 0.220433,0.4014806 l -3.9e-4,4.5e-4 c 0.06551,0.06085 0.133104,0.119476 0.202672,0.175771 0.157889,0.127767 0.325929,0.243493 0.502732,0.34579 0.176802,0.102297 0.362366,0.191167 0.555306,0.265207 0.435605,0.167165 0.9088,0.258765 1.403597,0.258765 0.484618,0 0.950172,-0.09194 1.380523,-0.258765 0.169763,-0.06581 0.331781,-0.147255 0.489596,-0.235325 0.03633,-0.02027 0.07258,-0.04063 0.10821,-0.06202 0.152345,-0.09145 0.299824,-0.19057 0.438245,-0.301112 0.01661,-0.01327 0.0317,-0.02829 0.0481,-0.04181 0.92204,-0.7606262 1.502522,-1.9252951 1.446518,-3.1921595 l 9.05e-4,-0.00577 c -0.02456,-0.4042803 -0.177512,-0.9041336 -0.447976,-1.295924 0.194086,-0.00379 0.388097,0.010891 0.579412,0.043817 -0.25358,-0.2817593 -0.595752,-0.5095164 -0.994067,-0.657567 0.196917,-0.070821 0.400568,-0.1204619 0.607499,-0.1482413 -0.07805,-0.039645 -0.174846,-0.084308 -0.27859,-0.1259898 C 11.58852,4.9679454 11.346649,4.8902129 11.140287,4.852662 10.989397,4.825243 10.822112,4.808885 10.646159,4.804617 Z m -4.74398,0.5144899 c -0.002,-8.1e-5 -0.0039,-6.17e-5 -0.0058,3.73e-5 -0.03352,0.0017 -0.06232,0.029717 -0.06665,0.065995 C 5.750368,6.049859 5.578405,6.2802471 5.39305,6.5288464 5.114831,6.9018177 4.912661,7.332808 4.921539,7.8060923 4.820091,7.5941218 4.738526,7.3731971 4.677916,7.1461516 4.671116,7.1205646 4.634076,7.0491376 4.589306,7.0458206 4.565026,7.0440506 4.552116,7.0677366 4.546076,7.0927356 4.291666,8.1342903 4.488286,9.3584773 5.644013,10.385819 5.299947,10.00953 4.879842,8.6202339 5.806862,7.6277185 5.869282,7.5607945 5.976703,7.6099655 5.98013,7.7014015 6.05653,9.764127 7.72095,11.02395 9.639881,10.78839 8.161368,10.930153 6.428192,9.9853736 6.427723,8.3439056 6.427574,7.9564763 6.570762,7.6272517 6.799362,7.3652655 c -0.0011,1.497e-4 -0.0021,4.493e-4 -0.0032,6e-4 C 6.846382,6.525533 6.523757,5.5198671 5.920071,5.3223046 c -0.006,-0.00198 -0.01199,-0.003 -0.01788,-0.00328 z m 2.860211,0.1417024 c 0.12569,0.00408 0.188982,0.078633 0.188982,0.078633 0,0 0.01921,0.2159168 -0.198961,0.2846123 -0.249441,0.078523 -0.359958,-0.131113 -0.359958,-0.131113 0,0 0.03139,-0.1441359 0.233682,-0.2108157 0.04053,-0.013342 0.0773,-0.019675 0.110293,-0.021147 0.0089,-4.494e-4 0.01758,-4.494e-4 0.02596,-1.494e-4 z M 8.466364,6.8042443 c -0.57533,0 -1.19119,0.237701 -1.558399,0.6625391 l 0.05554,0.051963 c 0.415001,0.3889568 0.750534,0.7031887 1.223466,1.1068281 0.213428,0.182153 0.279762,0.1786007 0.489156,0 C 9.177687,8.1973548 9.554345,7.8658269 10.016445,7.4537066 9.677413,7.0641028 9.115007,6.8042447 8.466365,6.8042447 Z m 4.009764,0.429909 c 0.100793,2.279957 -1.773506,4.2457047 -4.059032,4.2457047 -1.069415,0 -1.890699,-0.269951 -2.616206,-0.945336 l -0.08467,0.09876 C 4.942596,9.9456016 4.40995,9.0320136 4.321685,8.2745828 c -2.69e-4,0.015292 -4.65e-4,0.030605 -5.66e-4,0.045903 0.01623,2.2458522 1.902856,4.1146852 4.145391,4.1146852 2.289421,0 4.145371,-1.855939 4.145371,-4.1453712 0,-0.3647869 -0.04726,-0.7185603 -0.13574,-1.0556473 z m -2.303183,0.43492 -1.501196,1.4365379 C 8.528789,9.2072257 8.376596,9.214555 8.22641,9.1224162 L 6.756205,7.6776565 C 6.642112,7.871717 6.575656,8.0948807 6.575768,8.3438482 6.576067,9.4839144 7.480486,10.270515 8.521022,10.545935 8.429712,10.478665 8.341056,10.39962 8.258892,10.30669 l -1.8e-5,-1.8e-5 -1.9e-5,-1.9e-5 c -2.1e-5,-2.3e-5 -3.8e-5,-5.4e-5 -5.7e-5,-7.7e-5 -0.03479,-0.03924 -0.194344,-0.203219 -0.09758,-0.3607787 1.9e-5,-3.29e-5 3.8e-5,-6.29e-5 5.7e-5,-9.57e-5 0.08565,-0.1394638 0.280733,-0.1107889 0.304974,-0.1107889 h 0.0237 c 1.049275,-0.010211 1.867024,-0.7007192 1.867024,-1.5152674 0,-0.2310741 -0.0658,-0.452162 -0.184033,-0.6505715 z"
     class="ColorScheme-Text" />
  <path
     id="gradient-path1"
     style="opacity:0.3;baseline-shift:baseline;display:inline;overflow:visible;vector-effect:none;enable-background:accumulate;stop-color:#000000;stop-opacity:1;fill:url(#linearGradient4)"
     d="M 8.4453131 1.2753492 C 4.4913166 1.2753492 1.2794833 4.4784283 1.2794833 8.4236094 C 1.2794833 12.36879 4.4913166 15.572386 8.4453131 15.572386 C 12.39931 15.572386 15.611143 12.36879 15.611143 8.4236094 C 15.611143 4.4784283 12.39931 1.2753492 8.4453131 1.2753492 z " />
</svg>
