<?xml version='1.0' encoding='UTF-8'?>
<svg xmlns:inkscape="http://www.inkscape.org/namespaces/inkscape" xmlns:sodipodi="http://sodipodi.sourceforge.net/DTD/sodipodi-0.dtd" xmlns:xlink="http://www.w3.org/1999/xlink" xmlns="http://www.w3.org/2000/svg" xmlns:svg="http://www.w3.org/2000/svg" xmlns:rdf="http://www.w3.org/1999/02/22-rdf-syntax-ns#" xmlns:cc="http://creativecommons.org/ns#" xmlns:dc="http://purl.org/dc/elements/1.1/" width="64" height="64" version="1.1" viewBox="0 0 16.933 16.933" id="svg7" sodipodi:docname="timeshift.svg" inkscape:version="1.4.2 (ebf0e940d0, 2025-05-08)">
  <sodipodi:namedview id="namedview7" pagecolor="#9c4444" bordercolor="#000000" borderopacity="0.25" inkscape:showpageshadow="2" inkscape:pageopacity="0.0" inkscape:pagecheckerboard="0" inkscape:deskcolor="#d1d1d1" inkscape:zoom="4.3531261" inkscape:cx="36.066035" inkscape:cy="26.417797" inkscape:window-width="2560" inkscape:window-height="1372" inkscape:window-x="0" inkscape:window-y="0" inkscape:window-maximized="1" inkscape:current-layer="svg7" showgrid="false"/>
  <defs id="defs2">
    <filter style="color-interpolation-filters:sRGB;" inkscape:label="Blur" id="filter3" x="-0.10843471" y="-0.10870992" width="1.2168694" height="1.2174198">
      <feGaussianBlur stdDeviation="0.5 0.5" result="blur" id="feGaussianBlur3"/>
    </filter>
    <style id="current-color-scheme" type="text/css">.ColorScheme-Text {color:#d8dee9} .ColorScheme-Highlight {color:#3b4252}</style><linearGradient id="linearGradient3" inkscape:collect="always">
      <stop style="stop-color:#000000;stop-opacity:1;" offset="0" id="stop3"/>
      <stop style="stop-color:#000000;stop-opacity:0;" offset="1" id="stop4"/>
    </linearGradient>
    <linearGradient inkscape:collect="always" xlink:href="#linearGradient3" id="linearGradient4" x1="13.512321" y1="13.490874" x2="3.3783066" y2="3.3568602" gradientUnits="userSpaceOnUse"/>
  </defs>
  <metadata id="metadata2">
    <rdf:RDF>
      <cc:Work rdf:about="">
        <dc:format>image/svg+xml</dc:format>
        <dc:type rdf:resource="http://purl.org/dc/dcmitype/StillImage"/>
      </cc:Work>
    </rdf:RDF>
  </metadata>
  <ellipse style="opacity:1;fill:none;stroke:#000000;stroke-width:0.582072;stroke-dasharray:none;stroke-opacity:1;filter:url(#filter3)" id="path1-5" cx="8.4450111" cy="8.423522" rx="6.8752708" ry="6.8578653"/>
  <ellipse style="opacity:1;fill:none;stroke-width:0.58207188;stroke-opacity:1;stroke:currentColor;stroke-dasharray:none;fill-opacity:1" id="path1" cx="8.4450111" cy="8.423522" rx="6.8752708" ry="6.8578653" class="ColorScheme-Text"/>
  <ellipse style="fill:currentColor;stroke:none;stroke-width:0.285844;stroke-dasharray:none;stroke-opacity:1" id="path1-2" cx="8.4557552" cy="8.423522" rx="6.5738997" ry="6.5692253" class="ColorScheme-Highlight"/>
<path d="m 8.7994413,12.543152 c -0.927522,-0.356808 -1.4137,-0.278242 -1.795072,-0.265509 -0.405245,0.03726 -0.797099,0.149058 -1.194193,0.288178 -0.217761,0.0677 -0.218051,0.06428 -0.01485,-0.178249 0.626209,-0.584431 1.353146,-1.062348 2.078628,-1.218549 0.526934,0 0.87541,-0.449969 0.762745,-0.823856 -0.423004,-0.734732 -1.590411,-1.693984 -1.590411,-1.955456 0,-0.218618 0.358082,-0.774481 0.8265,-1.301774 0.20699,-0.233213 0.485887,-0.420157 0.421258,-0.483507 -0.1345,-0.132289 -1.426218,-0.385998 -2.029428,-0.385998 -0.482101,0 -0.907144,0.34656 -0.907144,0.685978 0,0.09409 0.05939,0.355876 0.247456,0.581326 l 0.342071,0.41022 c -0.226204,0.275137 -0.322856,0.573253 -0.71209,0.573253 -0.558085,0 -0.558085,-0.481644 -0.554883,-0.950556 0.07861,-1.147747 1.721127,-2.4607 3.274566,-2.295805 0.982545,0.104031 1.843982,0.163033 2.7846047,0.238182 0.523442,0.02764 0.851539,-0.02081 1.342374,-0.219239 0.355754,-0.143779 0.128968,0.318612 -0.403498,0.822615 -0.640474,0.606479 -1.019518,0.759574 -2.0451487,0.658961 -0.767403,-0.07546 -0.977304,0.08385 -1.153143,0.583188 -0.139449,0.396557 0.201749,0.774171 0.926357,1.580637 0.35721,0.39811 0.482685,0.654615 0.480355,0.906149 -0.0021,0.22514 -0.09723,0.445622 -0.374677,0.758643 -0.244544,0.27638 -0.573806,0.550895 -0.538579,0.610517 0.109463,0.186944 0.836109,0.610207 1.2317467,0.610207 0.208736,0 0.792149,-0.139742 1.026504,-0.26551 0.395929,-0.213028 0.564199,-0.211165 0.564199,0.0062 0,0.172349 -1.436407,1.271341 -2.1496617,1.269167 -0.129842,-6.15e-4 -0.510632,-0.10993 -0.846589,-0.239424 z" fill="url(#b)" fill-rule="nonzero" id="path4-7" style="fill:#000000;fill-opacity:1;stroke-width:0.300675;opacity:0.3"/>
  <path d="m 8.7994413,12.013996 c -0.927522,-0.356808 -1.4137,-0.278242 -1.795072,-0.265509 -0.405245,0.03726 -0.797099,0.149057 -1.194193,0.288178 -0.217761,0.0677 -0.218051,0.06428 -0.01485,-0.178249 0.626209,-0.584431 1.353146,-1.062348 2.078628,-1.218549 0.526934,0 0.87541,-0.449969 0.762745,-0.8238558 -0.423004,-0.734732 -1.590411,-1.693984 -1.590411,-1.955456 0,-0.218618 0.358082,-0.774481 0.8265,-1.3017745 0.20699,-0.233213 0.485887,-0.420157 0.421258,-0.483507 -0.1345,-0.132289 -1.426218,-0.385998 -2.029428,-0.385998 -0.482101,0 -0.907144,0.34656 -0.907144,0.685978 0,0.09409 0.05939,0.355876 0.247456,0.581326 l 0.342071,0.4102205 c -0.226204,0.275137 -0.322856,0.573253 -0.71209,0.573253 -0.558085,0 -0.558085,-0.481644 -0.554883,-0.9505565 0.07861,-1.147747 1.721127,-2.4607 3.274566,-2.295805 0.982545,0.104031 1.843982,0.163033 2.7846047,0.238182 0.523442,0.02764 0.851539,-0.02081 1.342374,-0.219239 0.355754,-0.143779 0.128968,0.318612 -0.403498,0.822615 -0.640474,0.606479 -1.019518,0.759574 -2.0451487,0.658961 -0.767403,-0.07546 -0.977304,0.08385 -1.153143,0.583188 -0.139449,0.3965575 0.201749,0.7741715 0.926357,1.5806375 0.35721,0.39811 0.482685,0.654615 0.480355,0.906149 -0.0021,0.22514 -0.09723,0.445622 -0.374677,0.7586428 -0.244544,0.27638 -0.573806,0.550895 -0.538579,0.610517 0.109463,0.186944 0.836109,0.610207 1.2317467,0.610207 0.208736,0 0.792149,-0.139742 1.026504,-0.26551 0.395929,-0.213028 0.564199,-0.211165 0.564199,0.0062 0,0.172349 -1.436407,1.271341 -2.1496617,1.269167 -0.129842,-6.15e-4 -0.510632,-0.10993 -0.846589,-0.239424 z" fill="url(#b)" fill-rule="nonzero" id="path4-7-3" style="fill:currentColor;fill-opacity:1;stroke-width:0.300675" class="ColorScheme-Text"/>
<path id="gradient-path1" style="opacity:0.3;baseline-shift:baseline;display:inline;overflow:visible;vector-effect:none;enable-background:accumulate;stop-color:#000000;stop-opacity:1;fill:url(#linearGradient4)" d="M 8.4453131 1.2753492 C 4.4913166 1.2753492 1.2794833 4.4784283 1.2794833 8.4236094 C 1.2794833 12.36879 4.4913166 15.572386 8.4453131 15.572386 C 12.39931 15.572386 15.611143 12.36879 15.611143 8.4236094 C 15.611143 4.4784283 12.39931 1.2753492 8.4453131 1.2753492 z "/>
</svg>
