<?xml version="1.0" encoding="UTF-8" standalone="no"?>
<svg
   width="64"
   height="64"
   version="1.1"
   viewBox="0 0 16.933 16.933"
   id="svg7"
   sodipodi:docname="toolbox.svg"
   inkscape:version="1.4.2 (ebf0e940d0, 2025-05-08)"
   xmlns:inkscape="http://www.inkscape.org/namespaces/inkscape"
   xmlns:sodipodi="http://sodipodi.sourceforge.net/DTD/sodipodi-0.dtd"
   xmlns:xlink="http://www.w3.org/1999/xlink"
   xmlns="http://www.w3.org/2000/svg"
   xmlns:svg="http://www.w3.org/2000/svg"
   xmlns:rdf="http://www.w3.org/1999/02/22-rdf-syntax-ns#"
   xmlns:cc="http://creativecommons.org/ns#"
   xmlns:dc="http://purl.org/dc/elements/1.1/">
  <sodipodi:namedview
     id="namedview7"
     pagecolor="#9c4444"
     bordercolor="#000000"
     borderopacity="0.25"
     inkscape:showpageshadow="2"
     inkscape:pageopacity="0.0"
     inkscape:pagecheckerboard="0"
     inkscape:deskcolor="#d1d1d1"
     inkscape:zoom="8.7062522"
     inkscape:cx="73.912401"
     inkscape:cy="29.059576"
     inkscape:window-width="2560"
     inkscape:window-height="1388"
     inkscape:window-x="0"
     inkscape:window-y="0"
     inkscape:window-maximized="1"
     inkscape:current-layer="svg7"
     showgrid="false" />
  <defs
     id="defs2">
    <filter
       style="color-interpolation-filters:sRGB;"
       inkscape:label="Blur"
       id="filter3"
       x="-0.10843471"
       y="-0.10870992"
       width="1.2168694"
       height="1.2174198">
      <feGaussianBlur
         stdDeviation="0.5 0.5"
         result="blur"
         id="feGaussianBlur3" />
    </filter>
    <style
       id="current-color-scheme"
       type="text/css">.ColorScheme-Text {color:#d8dee9} .ColorScheme-Highlight {color:#3b4252}</style>
    <linearGradient
       id="linearGradient3"
       inkscape:collect="always">
      <stop
         style="stop-color:#000000;stop-opacity:1;"
         offset="0"
         id="stop3" />
      <stop
         style="stop-color:#000000;stop-opacity:0;"
         offset="1"
         id="stop4" />
    </linearGradient>
    <linearGradient
       inkscape:collect="always"
       xlink:href="#linearGradient3"
       id="linearGradient4"
       x1="13.512321"
       y1="13.490874"
       x2="3.3783066"
       y2="3.3568602"
       gradientUnits="userSpaceOnUse" />
  </defs>
  <metadata
     id="metadata2">
    <rdf:RDF>
      <cc:Work
         rdf:about="">
        <dc:format>image/svg+xml</dc:format>
        <dc:type
           rdf:resource="http://purl.org/dc/dcmitype/StillImage" />
      </cc:Work>
    </rdf:RDF>
  </metadata>
  <ellipse
     style="opacity:1;fill:none;stroke:#000000;stroke-width:0.582072;stroke-dasharray:none;stroke-opacity:1;filter:url(#filter3)"
     id="path1-5"
     cx="8.4450111"
     cy="8.423522"
     rx="6.8752708"
     ry="6.8578653" />
  <ellipse
     style="opacity:1;fill:none;stroke-width:0.58207188;stroke-opacity:1;stroke:currentColor;stroke-dasharray:none;fill-opacity:1"
     id="path1"
     cx="8.4450111"
     cy="8.423522"
     rx="6.8752708"
     ry="6.8578653"
     class="ColorScheme-Text" />
  <ellipse
     style="fill:currentColor;stroke:none;stroke-width:0.285844;stroke-dasharray:none;stroke-opacity:1"
     id="path1-2"
     cx="8.4557552"
     cy="8.423522"
     rx="6.5738997"
     ry="6.5692253"
     class="ColorScheme-Highlight" />
  <path
     id="path5-67"
     style="opacity:0.3;fill:#000000;fill-opacity:1;fill-rule:nonzero;stroke:none;stroke-width:0.183431"
     d="m 8.4665,5.0269844 c -2.230857,0 -4.039541,1.7769535 -4.039541,3.9686718 0,2.1917178 1.808684,3.9686718 4.039541,3.9686718 2.230858,0 4.039541,-1.776954 4.039541,-3.9686718 0,-2.1917183 -1.808683,-3.9686718 -4.039541,-3.9686718 z M 6.54279,6.1608907 h 3.847421 c 0.532838,0 0.961715,0.4213389 0.961715,0.9448296 v 3.7798717 c 0,0.523491 -0.428877,0.94483 -0.961715,0.94483 H 6.54279 c -0.532839,0 -0.961716,-0.421339 -0.961716,-0.94483 V 7.1057203 c 0,-0.5234907 0.428877,-0.9448296 0.961716,-0.9448296 z M 6.327968,6.6990532 V 7.1840639 H 7.044134 V 9.2705511 H 7.560705 V 7.1840639 H 8.27687 V 6.6990532 Z m 2.226289,0 v 2.5714979 h 1.156328 c 0.587608,0 0.894446,-0.2572386 0.894446,-0.7009401 0,-0.3236679 -0.160334,-0.5444296 -0.408881,-0.6358846 0.181742,-0.1107469 0.296764,-0.3086267 0.296764,-0.5658458 0,-0.4001183 -0.287405,-0.6688274 -0.846277,-0.6688274 z m 0.514077,0.447915 h 0.514355 c 0.252857,0 0.390057,0.099268 0.390057,0.3014708 0,0.2022025 -0.1372,0.3050694 -0.390057,0.3050694 H 9.068334 Z m 0,1.040337 H 9.67183 c 0.26866,0 0.41248,0.1029718 0.41248,0.3194648 0,0.2207787 -0.14382,0.315866 -0.41248,0.315866 H 9.068334 Z M 6.069407,10.795898 v 0.43878 h 2.221027 v -0.43878 z" />
  <path
     id="path5-67-3"
     style="fill:currentColor;fill-opacity:1;fill-rule:nonzero;stroke:none;stroke-width:0.183431"
     d="m 8.4665,4.4978281 c -2.230857,0 -4.039541,1.7769535 -4.039541,3.9686718 0,2.1917181 1.808684,3.9686721 4.039541,3.9686721 2.230858,0 4.039541,-1.776954 4.039541,-3.9686721 0,-2.1917183 -1.808683,-3.9686718 -4.039541,-3.9686718 z M 6.54279,5.6317344 h 3.847421 c 0.532838,0 0.961715,0.4213389 0.961715,0.9448296 v 3.779872 c 0,0.523491 -0.428877,0.94483 -0.961715,0.94483 H 6.54279 c -0.532839,0 -0.961716,-0.421339 -0.961716,-0.94483 V 6.576564 c 0,-0.5234907 0.428877,-0.9448296 0.961716,-0.9448296 z M 6.327968,6.1698969 V 6.6549076 H 7.044134 V 8.7413948 H 7.560705 V 6.6549076 H 8.27687 V 6.1698969 Z m 2.226289,0 v 2.5714979 h 1.156328 c 0.587608,0 0.894446,-0.2572386 0.894446,-0.7009401 0,-0.3236679 -0.160334,-0.5444296 -0.408881,-0.6358846 0.181742,-0.1107469 0.296764,-0.3086267 0.296764,-0.5658458 0,-0.4001183 -0.287405,-0.6688274 -0.846277,-0.6688274 z m 0.514077,0.447915 h 0.514355 c 0.252857,0 0.390057,0.099268 0.390057,0.3014708 0,0.2022025 -0.1372,0.3050694 -0.390057,0.3050694 H 9.068334 Z m 0,1.040337 H 9.67183 c 0.26866,0 0.41248,0.1029718 0.41248,0.3194648 0,0.2207787 -0.14382,0.315866 -0.41248,0.315866 H 9.068334 Z M 6.069407,10.266742 v 0.43878 h 2.221027 v -0.43878 z"
     class="ColorScheme-Text" />
  <path
     id="gradient-path1"
     style="opacity:0.3;baseline-shift:baseline;display:inline;overflow:visible;vector-effect:none;enable-background:accumulate;stop-color:#000000;stop-opacity:1;fill:url(#linearGradient4)"
     d="M 8.4453131 1.2753492 C 4.4913166 1.2753492 1.2794833 4.4784283 1.2794833 8.4236094 C 1.2794833 12.36879 4.4913166 15.572386 8.4453131 15.572386 C 12.39931 15.572386 15.611143 12.36879 15.611143 8.4236094 C 15.611143 4.4784283 12.39931 1.2753492 8.4453131 1.2753492 z " />
</svg>
