<?xml version="1.0" encoding="UTF-8" standalone="no"?>
<svg
   width="64"
   height="64"
   version="1.1"
   viewBox="0 0 16.933 16.933"
   id="svg7"
   sodipodi:docname="tutanota-desktop.svg"
   inkscape:version="1.4.3 (0d15f75042, 2025-12-25)"
   xmlns:inkscape="http://www.inkscape.org/namespaces/inkscape"
   xmlns:sodipodi="http://sodipodi.sourceforge.net/DTD/sodipodi-0.dtd"
   xmlns:xlink="http://www.w3.org/1999/xlink"
   xmlns="http://www.w3.org/2000/svg"
   xmlns:svg="http://www.w3.org/2000/svg"
   xmlns:rdf="http://www.w3.org/1999/02/22-rdf-syntax-ns#"
   xmlns:cc="http://creativecommons.org/ns#"
   xmlns:dc="http://purl.org/dc/elements/1.1/">
  <sodipodi:namedview
     id="namedview7"
     pagecolor="#9c4444"
     bordercolor="#000000"
     borderopacity="0.25"
     inkscape:showpageshadow="2"
     inkscape:pageopacity="0.0"
     inkscape:pagecheckerboard="0"
     inkscape:deskcolor="#d1d1d1"
     inkscape:zoom="4.3531261"
     inkscape:cx="36.410615"
     inkscape:cy="25.958357"
     inkscape:window-width="2560"
     inkscape:window-height="1388"
     inkscape:window-x="0"
     inkscape:window-y="0"
     inkscape:window-maximized="1"
     inkscape:current-layer="svg7"
     showgrid="false" />
  <defs
     id="defs2">
    <filter
       style="color-interpolation-filters:sRGB;"
       inkscape:label="Blur"
       id="filter3"
       x="-0.10843471"
       y="-0.10870992"
       width="1.2168694"
       height="1.2174198">
      <feGaussianBlur
         stdDeviation="0.5 0.5"
         result="blur"
         id="feGaussianBlur3" />
    </filter>
    <style
       id="current-color-scheme"
       type="text/css">.ColorScheme-Text {color:#d8dee9} .ColorScheme-Highlight {color:#3b4252}</style>
    <linearGradient
       id="linearGradient3"
       inkscape:collect="always">
      <stop
         style="stop-color:#000000;stop-opacity:1;"
         offset="0"
         id="stop3" />
      <stop
         style="stop-color:#000000;stop-opacity:0;"
         offset="1"
         id="stop4" />
    </linearGradient>
    <linearGradient
       inkscape:collect="always"
       xlink:href="#linearGradient3"
       id="linearGradient4"
       x1="13.512321"
       y1="13.490874"
       x2="3.3783066"
       y2="3.3568602"
       gradientUnits="userSpaceOnUse" />
  </defs>
  <metadata
     id="metadata2">
    <rdf:RDF>
      <cc:Work
         rdf:about="">
        <dc:format>image/svg+xml</dc:format>
        <dc:type
           rdf:resource="http://purl.org/dc/dcmitype/StillImage" />
      </cc:Work>
    </rdf:RDF>
  </metadata>
  <ellipse
     style="opacity:1;fill:none;stroke:#000000;stroke-width:0.582072;stroke-dasharray:none;stroke-opacity:1;filter:url(#filter3)"
     id="path1-5"
     cx="8.4450111"
     cy="8.423522"
     rx="6.8752708"
     ry="6.8578653" />
  <ellipse
     style="opacity:1;fill:none;stroke-width:0.58207188;stroke-opacity:1;stroke:currentColor;stroke-dasharray:none;fill-opacity:1"
     id="path1"
     cx="8.4450111"
     cy="8.423522"
     rx="6.8752708"
     ry="6.8578653"
     class="ColorScheme-Text" />
  <ellipse
     style="fill:currentColor;stroke:none;stroke-width:0.285844;stroke-dasharray:none;stroke-opacity:1"
     id="path1-2"
     cx="8.4557552"
     cy="8.423522"
     rx="6.5738997"
     ry="6.5692253"
     class="ColorScheme-Highlight" />
  <path
     id="path5-6"
     class="ColorScheme-Text"
     d="m 5.1621454,5.0269846 c -0.05556,0 -0.06353,0.047624 -0.03178,0.079373 l 1.357255,1.3732225 c 0.03175,0.03175 0.06353,0.039687 0.111153,0.039687 h 5.7227936 c 0.03969,0 0.06356,-0.047748 0.02388,-0.087435 L 11.004004,5.0745774 c -0.03175,-0.03175 -0.06347,-0.047593 -0.126966,-0.047593 z M 4.5435914,5.684761 c -0.02171,3.87e-4 -0.04031,0.015968 -0.04031,0.040772 V 11.3133 c 0,0.0635 0.07947,0.0635 0.09534,0 l 1.293695,-4.2146995 c 0.01588,-0.047624 0.01597,-0.079373 -0.02372,-0.1190602 L 4.5826534,5.7016589 c -0.01191,-0.011906 -0.02604,-0.017131 -0.03907,-0.016898 z m 2.166336,1.6282406 c -0.04763,0 -0.0635,0.015813 -0.07937,0.055499 l -1.698623,5.5322674 c -0.0079,0.03175 0.0079,0.06356 0.04759,0.06356 h 5.6435746 c 0.05556,0 0.07931,-0.02384 0.09519,-0.07147 l 1.706529,-5.5085484 c 0.01587,-0.055561 -0.0079,-0.071312 -0.0555,-0.071312 z"
     style="opacity:0.3;fill:#000000;fill-opacity:1;stroke-width:0.566038" />
  <path
     id="path5-6-5"
     class="ColorScheme-Text"
     d="m 5.1621454,4.4978287 c -0.05556,0 -0.06353,0.047624 -0.03178,0.079373 l 1.357255,1.3732225 c 0.03175,0.03175 0.06353,0.039687 0.111153,0.039687 h 5.7227936 c 0.03969,0 0.06356,-0.047748 0.02388,-0.087435 L 11.004004,4.5454214 c -0.03175,-0.03175 -0.06347,-0.047593 -0.126966,-0.047593 z m -0.618554,0.6577764 c -0.02171,3.87e-4 -0.04031,0.015968 -0.04031,0.040772 v 5.5877669 c 0,0.0635 0.07947,0.0635 0.09534,0 l 1.293695,-4.2146994 c 0.01588,-0.047624 0.01597,-0.079373 -0.02372,-0.1190602 L 4.5826534,5.172503 c -0.01191,-0.011906 -0.02604,-0.017131 -0.03907,-0.016898 z m 2.166336,1.6282406 c -0.04763,0 -0.0635,0.015813 -0.07937,0.055499 l -1.698623,5.5322673 c -0.0079,0.03175 0.0079,0.06356 0.04759,0.06356 h 5.6435746 c 0.05556,0 0.07931,-0.02384 0.09519,-0.07147 l 1.706529,-5.5085483 c 0.01587,-0.055561 -0.0079,-0.071312 -0.0555,-0.071312 z"
     style="fill:currentColor;stroke-width:0.566038" />
  <path
     id="gradient-path1"
     style="opacity:0.3;baseline-shift:baseline;display:inline;overflow:visible;vector-effect:none;enable-background:accumulate;stop-color:#000000;stop-opacity:1;fill:url(#linearGradient4)"
     d="M 8.4453131 1.2753492 C 4.4913166 1.2753492 1.2794833 4.4784283 1.2794833 8.4236094 C 1.2794833 12.36879 4.4913166 15.572386 8.4453131 15.572386 C 12.39931 15.572386 15.611143 12.36879 15.611143 8.4236094 C 15.611143 4.4784283 12.39931 1.2753492 8.4453131 1.2753492 z " />
</svg>
