<?xml version="1.0" encoding="UTF-8" standalone="no"?>
<svg
   width="64"
   height="64"
   version="1.1"
   viewBox="0 0 16.933 16.933"
   id="svg7"
   sodipodi:docname="umbrello.svg"
   inkscape:version="1.4.3 (0d15f75042, 2025-12-25)"
   xmlns:inkscape="http://www.inkscape.org/namespaces/inkscape"
   xmlns:sodipodi="http://sodipodi.sourceforge.net/DTD/sodipodi-0.dtd"
   xmlns:xlink="http://www.w3.org/1999/xlink"
   xmlns="http://www.w3.org/2000/svg"
   xmlns:svg="http://www.w3.org/2000/svg"
   xmlns:rdf="http://www.w3.org/1999/02/22-rdf-syntax-ns#"
   xmlns:cc="http://creativecommons.org/ns#"
   xmlns:dc="http://purl.org/dc/elements/1.1/">
  <sodipodi:namedview
     id="namedview7"
     pagecolor="#9c4444"
     bordercolor="#000000"
     borderopacity="0.25"
     inkscape:showpageshadow="2"
     inkscape:pageopacity="0.0"
     inkscape:pagecheckerboard="0"
     inkscape:deskcolor="#d1d1d1"
     inkscape:zoom="8.7062522"
     inkscape:cx="85.168679"
     inkscape:cy="11.715719"
     inkscape:window-width="2560"
     inkscape:window-height="1388"
     inkscape:window-x="0"
     inkscape:window-y="0"
     inkscape:window-maximized="1"
     inkscape:current-layer="svg7"
     showgrid="false" />
  <defs
     id="defs2">
    <filter
       style="color-interpolation-filters:sRGB;"
       inkscape:label="Blur"
       id="filter3"
       x="-0.10843471"
       y="-0.10870992"
       width="1.2168694"
       height="1.2174198">
      <feGaussianBlur
         stdDeviation="0.5 0.5"
         result="blur"
         id="feGaussianBlur3" />
    </filter>
    <style
       id="current-color-scheme"
       type="text/css">.ColorScheme-Text {color:#d8dee9} .ColorScheme-Highlight {color:#3b4252}</style>
    <linearGradient
       id="linearGradient3"
       inkscape:collect="always">
      <stop
         style="stop-color:#000000;stop-opacity:1;"
         offset="0"
         id="stop3" />
      <stop
         style="stop-color:#000000;stop-opacity:0;"
         offset="1"
         id="stop4" />
    </linearGradient>
    <linearGradient
       inkscape:collect="always"
       xlink:href="#linearGradient3"
       id="linearGradient4"
       x1="13.512321"
       y1="13.490874"
       x2="3.3783066"
       y2="3.3568602"
       gradientUnits="userSpaceOnUse" />
  </defs>
  <metadata
     id="metadata2">
    <rdf:RDF>
      <cc:Work
         rdf:about="">
        <dc:format>image/svg+xml</dc:format>
        <dc:type
           rdf:resource="http://purl.org/dc/dcmitype/StillImage" />
      </cc:Work>
    </rdf:RDF>
  </metadata>
  <ellipse
     style="opacity:1;fill:none;stroke:#000000;stroke-width:0.582072;stroke-dasharray:none;stroke-opacity:1;filter:url(#filter3)"
     id="path1-5"
     cx="8.4450111"
     cy="8.423522"
     rx="6.8752708"
     ry="6.8578653" />
  <ellipse
     style="opacity:1;fill:none;stroke-width:0.58207188;stroke-opacity:1;stroke:currentColor;stroke-dasharray:none;fill-opacity:1"
     id="path1"
     cx="8.4450111"
     cy="8.423522"
     rx="6.8752708"
     ry="6.8578653"
     class="ColorScheme-Text" />
  <ellipse
     style="fill:currentColor;stroke:none;stroke-width:0.285844;stroke-dasharray:none;stroke-opacity:1"
     id="path1-2"
     cx="8.4557552"
     cy="8.423522"
     rx="6.5738997"
     ry="6.5692253"
     class="ColorScheme-Highlight" />
  <path
     id="path5-6"
     style="opacity:0.3;fill:#000000;fill-opacity:1;stroke-width:0.566038"
     d="M 6.8436853,5.0465697 C 6.7661973,5.0792187 4.5569729,7.2763143 4.526562,7.3512356 4.494779,7.4290776 4.485988,10.544715 4.517422,10.619293 c 0.032649,0.0775 2.2294786,2.286985 2.3043886,2.3174 0.077831,0.03179 3.1907034,0.038 3.2675044,0.0091 0.08024,-0.03522 2.286712,-2.229745 2.317123,-2.304666 0.03178,-0.07784 0.04057,-3.1934806 0.0091,-3.2680577 -0.03265,-0.077503 -2.229479,-2.2868179 -2.304389,-2.3174049 -0.07783,-0.031789 -3.1929373,-0.040409 -3.2675037,-0.00914 z m 0.1099041,0.1691474 c 0.2699859,-8.491e-4 1.438207,0.2826192 1.5098674,0.2829272 0.076866,0.0017 1.5267205,-0.3533497 1.5738162,-0.2704693 0.138485,0.076857 0.845956,1.2405013 0.89972,1.2947651 0.05116,0.053474 1.233606,0.7720648 1.301132,0.9085778 0.06529,0.090422 -0.274009,1.4834711 -0.274345,1.561913 -0.0017,0.076983 0.353999,1.5316881 0.269639,1.5746471 -9.06e-4,-4.13e-4 -0.0016,-6.79e-4 -0.0025,-0.0011 -0.06093,0.131015 -1.241097,0.849141 -1.295595,0.903318 -0.05567,0.0531 -0.831942,1.333219 -0.922143,1.304178 -2.41e-4,-6.23e-4 -5.66e-4,-0.0013 -7.93e-4,-0.0019 -0.1537522,0.0431 -1.4744961,-0.278487 -1.5508297,-0.278814 -0.073836,-0.0016 -1.4201662,0.32725 -1.5624664,0.277667 -0.114878,-0.02768 -0.8533178,-1.242882 -0.9082863,-1.298362 -0.053259,-0.05568 -1.3326608,-0.832205 -1.3036242,-0.92242 0.00142,-5.15e-4 0.00272,-0.0011 0.00419,-0.0016 -0.047679,-0.14059 0.2776131,-1.4774727 0.2779425,-1.5544394 0.00164,-0.075345 -0.3405,-1.4764705 -0.2737913,-1.5704945 3.243e-4,-4.642e-4 4.862e-4,-0.00102 7.924e-4,-0.00142 C 4.776277,7.2826813 5.9355138,6.5767953 5.989691,6.522938 6.044704,6.470461 6.8033907,5.2193218 6.9082357,5.2182061 c 0.00125,-1.3e-5 0.00249,2.117e-4 0.00357,5.519e-4 1.245e-4,3.453e-4 1.517e-4,7.359e-4 2.745e-4,0.00113 0.00942,-0.00277 0.02353,-0.00408 0.041525,-0.00413 z m 0.051492,0.2574583 C 7.3864176,6.4992983 7.8745743,7.6760343 8.2284226,8.7631028 7.1691378,8.3833459 6.0677646,7.9774817 5.0234826,7.5693826 6.0013265,8.0148731 7.1434419,8.4896825 8.1354045,8.9945382 7.0797927,9.4936531 5.9723159,10.005191 4.9099796,10.46897 5.9429838,10.085697 7.1319525,9.5905834 8.2295286,9.2328948 7.8494133,10.294974 7.4431023,11.39929 7.0344247,12.445861 7.4805072,11.465979 7.9557939,10.320203 8.4615175,9.3256349 8.9533897,10.367041 9.4571418,11.459016 9.9154643,12.508149 9.5347444,11.484853 9.0487591,10.313161 8.6962755,9.2301263 9.8008264,9.6261119 10.951265,10.050463 12.034926,10.476168 11.030197,10.014119 9.8322766,9.5201884 8.7975974,8.9934309 9.8225283,8.5088227 10.896355,8.012734 11.930281,7.5596938 10.918097,7.9381036 9.7649209,8.4154736 8.698213,8.7631028 9.0864085,7.6784474 9.501886,6.5499236 9.9193394,5.4836952 9.4649831,6.4772342 8.9799793,7.6505207 8.4634556,8.6664868 7.9700552,7.6215056 7.4646616,6.5257516 7.0050802,5.4731754 Z"
     class="ColorScheme-Text" />
  <path
     id="path5-5"
     style="fill:currentColor;stroke-width:0.566038"
     d="M 6.8436853,4.5173722 C 6.7661973,4.5500212 4.5569729,6.7471168 4.526562,6.8220378 4.494779,6.8998798 4.485988,10.015518 4.517422,10.090095 c 0.032649,0.0775 2.2294786,2.286985 2.3043886,2.3174 0.077831,0.03179 3.1907034,0.038 3.2675044,0.0091 0.08024,-0.03522 2.286712,-2.229744 2.317123,-2.304665 0.03178,-0.07784 0.04057,-3.1934813 0.0091,-3.2680586 -0.03265,-0.077503 -2.229479,-2.2868174 -2.304389,-2.3174043 -0.07783,-0.03179 -3.1929373,-0.04041 -3.2675037,-0.00913 z m 0.1099041,0.1691473 c 0.2699859,-8.66e-4 1.438207,0.2826195 1.5098674,0.2829271 0.076866,0.00172 1.5267205,-0.3533498 1.5738162,-0.2704695 0.138485,0.076857 0.845956,1.2405017 0.89972,1.2947654 0.05116,0.053474 1.233606,0.7720648 1.301132,0.908578 0.06529,0.090422 -0.274009,1.4834708 -0.274345,1.5619127 -0.0017,0.076983 0.353999,1.5316882 0.269639,1.5746478 -9.06e-4,-4.13e-4 -0.0016,-6.79e-4 -0.0025,-0.0011 -0.06093,0.131019 -1.241097,0.849145 -1.295596,0.903323 -0.05567,0.0531 -0.831942,1.333217 -0.922143,1.304177 -2.4e-4,-6.23e-4 -5.66e-4,-0.0013 -7.92e-4,-0.0019 -0.1537522,0.0431 -1.4744961,-0.278491 -1.5508297,-0.278819 -0.073836,-0.0016 -1.4201662,0.327251 -1.5624664,0.277667 -0.114878,-0.02767 -0.8533178,-1.242882 -0.9082863,-1.298361 -0.053264,-0.05568 -1.3326608,-0.832205 -1.3036242,-0.92242 0.00142,-5.16e-4 0.00272,-0.0011 0.00419,-0.0016 C 4.6436928,9.8792174 4.9689845,8.5423346 4.9693139,8.4653679 4.9709539,8.3900229 4.6288139,6.9888974 4.6955226,6.8948732 4.6958469,6.8944093 4.6960088,6.893877 4.696315,6.8934832 4.776277,6.7535134 5.9355138,6.0476277 5.989691,5.9937701 6.044704,5.9412941 6.8033907,4.6901538 6.9082357,4.6890387 c 0.00125,-1.33e-5 0.00249,2.113e-4 0.00357,5.517e-4 1.245e-4,3.454e-4 1.517e-4,7.585e-4 2.745e-4,0.00111 0.00942,-0.00275 0.02353,-0.00409 0.041525,-0.00415 z m 0.051492,0.2574582 C 7.3864176,5.9701005 7.8745743,7.1468368 8.2284226,8.2339052 7.1691378,7.8541483 6.0677646,7.4482839 5.0234826,7.0401852 6.0013265,7.4856751 7.1434419,7.9604849 8.1354045,8.4653405 7.0797927,8.9644555 5.9723159,9.4759936 4.9099796,9.9397733 5.9429838,9.5565 7.1319525,9.0613858 8.2295286,8.7036971 7.8494133,9.7657772 7.4431023,10.870093 7.0344247,11.916664 7.4805072,10.936781 7.9557939,9.7910061 8.4615175,8.7964373 8.9533897,9.837844 9.4571418,10.929819 9.9154643,11.978952 9.5347444,10.955656 9.0487591,9.7839635 8.6962755,8.7009286 9.8008264,9.0969143 10.951265,9.5212659 12.034926,9.946971 11.030197,9.4849217 9.8322766,8.9909908 8.7975974,8.4642332 9.8225283,7.979625 10.896355,7.4835363 11.930281,7.0304958 10.918097,7.4089059 9.7649209,7.886276 8.698213,8.2339052 9.0864085,7.1492496 9.501886,6.0207261 9.9193394,4.9544974 9.4649831,5.9480368 8.9799793,7.1213233 8.4634556,8.1372892 7.9700552,7.0923082 7.4646616,5.9965537 7.0050802,4.9439777 Z"
     class="ColorScheme-Text" />
  <path
     id="gradient-path1"
     style="opacity:0.3;baseline-shift:baseline;display:inline;overflow:visible;vector-effect:none;enable-background:accumulate;stop-color:#000000;stop-opacity:1;fill:url(#linearGradient4)"
     d="M 8.4453131 1.2753492 C 4.4913166 1.2753492 1.2794833 4.4784283 1.2794833 8.4236094 C 1.2794833 12.36879 4.4913166 15.572386 8.4453131 15.572386 C 12.39931 15.572386 15.611143 12.36879 15.611143 8.4236094 C 15.611143 4.4784283 12.39931 1.2753492 8.4453131 1.2753492 z " />
</svg>
