<?xml version="1.0" encoding="UTF-8" standalone="no"?>
<svg
   width="64"
   height="64"
   version="1.1"
   viewBox="0 0 16.933 16.933"
   id="svg7"
   sodipodi:docname="org.upscayl.Upscayl.svg"
   inkscape:version="1.4.2 (ebf0e940d0, 2025-05-08)"
   xmlns:inkscape="http://www.inkscape.org/namespaces/inkscape"
   xmlns:sodipodi="http://sodipodi.sourceforge.net/DTD/sodipodi-0.dtd"
   xmlns:xlink="http://www.w3.org/1999/xlink"
   xmlns="http://www.w3.org/2000/svg"
   xmlns:svg="http://www.w3.org/2000/svg"
   xmlns:rdf="http://www.w3.org/1999/02/22-rdf-syntax-ns#"
   xmlns:cc="http://creativecommons.org/ns#"
   xmlns:dc="http://purl.org/dc/elements/1.1/">
  <sodipodi:namedview
     id="namedview7"
     pagecolor="#9c4444"
     bordercolor="#000000"
     borderopacity="0.25"
     inkscape:showpageshadow="2"
     inkscape:pageopacity="0.0"
     inkscape:pagecheckerboard="0"
     inkscape:deskcolor="#d1d1d1"
     inkscape:zoom="4.3531261"
     inkscape:cx="36.066035"
     inkscape:cy="26.647517"
     inkscape:window-width="2560"
     inkscape:window-height="1392"
     inkscape:window-x="0"
     inkscape:window-y="0"
     inkscape:window-maximized="1"
     inkscape:current-layer="svg7"
     showgrid="false" />
  <defs
     id="defs2">
    <filter
       style="color-interpolation-filters:sRGB;"
       inkscape:label="Blur"
       id="filter3"
       x="-0.10843471"
       y="-0.10870992"
       width="1.2168694"
       height="1.2174198">
      <feGaussianBlur
         stdDeviation="0.5 0.5"
         result="blur"
         id="feGaussianBlur3" />
    </filter>
    <style
       id="current-color-scheme"
       type="text/css">.ColorScheme-Text {color:#d8dee9} .ColorScheme-Highlight {color:#3b4252}</style>
    <linearGradient
       id="linearGradient3"
       inkscape:collect="always">
      <stop
         style="stop-color:#000000;stop-opacity:1;"
         offset="0"
         id="stop3" />
      <stop
         style="stop-color:#000000;stop-opacity:0;"
         offset="1"
         id="stop4" />
    </linearGradient>
    <linearGradient
       inkscape:collect="always"
       xlink:href="#linearGradient3"
       id="linearGradient4"
       x1="13.512321"
       y1="13.490874"
       x2="3.3783066"
       y2="3.3568602"
       gradientUnits="userSpaceOnUse" />
  </defs>
  <metadata
     id="metadata2">
    <rdf:RDF>
      <cc:Work
         rdf:about="">
        <dc:format>image/svg+xml</dc:format>
        <dc:type
           rdf:resource="http://purl.org/dc/dcmitype/StillImage" />
      </cc:Work>
    </rdf:RDF>
  </metadata>
  <ellipse
     style="opacity:1;fill:none;stroke:#000000;stroke-width:0.582072;stroke-dasharray:none;stroke-opacity:1;filter:url(#filter3)"
     id="path1-5"
     cx="8.4450111"
     cy="8.423522"
     rx="6.8752708"
     ry="6.8578653" />
  <ellipse
     style="opacity:1;fill:none;stroke-width:0.58207188;stroke-opacity:1;stroke:currentColor;stroke-dasharray:none;fill-opacity:1"
     id="path1"
     cx="8.4450111"
     cy="8.423522"
     rx="6.8752708"
     ry="6.8578653"
     class="ColorScheme-Text" />
  <ellipse
     style="fill:currentColor;stroke:none;stroke-width:0.285844;stroke-dasharray:none;stroke-opacity:1"
     id="path1-2"
     cx="8.4557552"
     cy="8.423522"
     rx="6.5738997"
     ry="6.5692253"
     class="ColorScheme-Highlight" />
  <path
     id="path5"
     style="opacity:0.3;fill:#000000;fill-opacity:1;stroke-width:0.0310052"
     d="M 6.279419,5.0269844 C 5.807596,5.0277429 5.354151,5.2154082 5.020194,5.5493502 4.686252,5.8832922 4.497828,6.3367527 4.497828,6.8085752 v 4.3741618 c 0,0.472582 0.188424,0.926086 0.522366,1.260012 0.333957,0.333958 0.787402,0.521579 1.259225,0.521579 h 4.374162 c 0.472582,0 0.926086,-0.187621 1.260012,-0.521579 0.333958,-0.333926 0.521579,-0.78743 0.521579,-1.260012 V 6.8085752 c 0,-0.4718225 -0.187621,-0.925283 -0.521579,-1.259225 -0.333926,-0.333942 -0.78743,-0.5215786 -1.260012,-0.5215786 z m 1.809386,0.3821155 h 0.186032 v 2.7170772 c -0.399429,0.087669 -0.698708,0.4439041 -0.698708,0.8694793 0,0.4255752 0.299279,0.7818048 0.698708,0.8694793 V 12.582212 H 8.088805 v -10e-4 H 7.271163 V 11.386083 H 6.076068 v 1.18038 C 5.466831,12.477608 4.984553,11.995328 4.895689,11.386088 H 6.076068 V 10.190993 H 4.880973 V 8.9958985 H 6.076068 V 7.8008037 H 4.880973 V 6.8085145 c 0,-0.06885 0.005,-0.1365473 0.01459,-0.2027452 H 6.076064 V 5.4248447 c 0.06635,-0.00968 0.134211,-0.014715 0.203229,-0.014715 H 8.088801 Z M 6.076068,6.6057693 V 7.8008037 H 7.271163 V 6.6057693 Z m 1.195095,0 H 8.088805 V 5.4106743 H 7.271163 Z m 0,1.1950344 V 8.9958985 H 7.390339 C 7.3901,8.9102935 7.400039,8.8247098 7.420369,8.741498 7.500509,8.4003184 7.760539,8.1091493 8.088799,7.987683 V 7.8008037 Z m 0,1.1950948 H 6.076068 v 1.1950945 h 1.195095 z m 0,1.1950945 v 1.195095 h 0.817642 v -1.195095 z m 1.387,-4.7818931 h 0.186032 v 0.00103 h 1.809508 c 0.771751,0 1.398324,0.626618 1.398324,1.3983852 v 4.3743439 c 0,0.771782 -0.626573,1.398325 -1.398324,1.398325 H 8.844195 v 10e-4 H 8.658163 V 9.8649976 C 9.057322,9.7771336 9.356387,9.4210349 9.356387,8.9956394 9.356387,8.5702439 9.057322,8.2141406 8.658163,8.1262813 Z M 8.222394,8.7324146 V 8.9956564 9.2589589 L 8.028006,9.1273074 7.833618,8.9956564 8.028006,8.8640053 Z m 0.488212,0 0.194146,0.1315907 0.194146,0.1316511 -0.194146,0.131651 -0.194146,0.1316515 V 8.9956564 Z" />
  <path
     id="path5-7"
     class="ColorScheme-Text"
     style="fill:currentColor;fill-opacity:1;stroke-width:0.0310052"
     d="M 6.279419,4.4978279 C 5.807596,4.4985864 5.354151,4.6862517 5.020194,5.0201937 4.686252,5.3541357 4.497828,5.8075962 4.497828,6.2794187 v 4.3741623 c 0,0.472582 0.188424,0.926086 0.522366,1.260012 0.333957,0.333958 0.787402,0.521579 1.259225,0.521579 h 4.374162 c 0.472582,0 0.926086,-0.187621 1.260012,-0.521579 0.333958,-0.333926 0.521579,-0.78743 0.521579,-1.260012 V 6.2794187 c 0,-0.4718225 -0.187621,-0.925283 -0.521579,-1.259225 -0.333926,-0.333942 -0.78743,-0.5215786 -1.260012,-0.5215786 z m 1.809386,0.3821155 h 0.186032 v 2.7170772 c -0.399429,0.087669 -0.698708,0.4439041 -0.698708,0.8694793 0,0.4255752 0.299279,0.7818048 0.698708,0.8694793 V 12.053056 H 8.088805 v -10e-4 H 7.271163 V 10.856947 H 6.076068 v 1.18038 C 5.466831,11.948477 4.984553,11.466192 4.895689,10.856952 H 6.076068 V 9.6618369 H 4.880973 V 8.466742 H 6.076068 V 7.2716472 H 4.880973 V 6.279358 c 0,-0.06885 0.005,-0.1365473 0.01459,-0.2027452 H 6.076064 V 4.8956882 c 0.06635,-0.00968 0.134211,-0.014715 0.203229,-0.014715 H 8.088801 Z M 6.076068,6.0766128 V 7.2716472 H 7.271163 V 6.0766128 Z m 1.195095,0 H 8.088805 V 4.8815178 H 7.271163 Z m 0,1.1950344 V 8.466742 H 7.390339 C 7.3901,8.381137 7.400039,8.2955533 7.420369,8.2123415 7.500509,7.8711619 7.760539,7.5799928 8.088799,7.4585265 V 7.2716472 Z m 0,1.1950948 H 6.076068 v 1.1950949 h 1.195095 z m 0,1.1950949 V 10.856932 H 8.088805 V 9.6618369 Z m 1.387,-4.7818935 h 0.186032 v 0.00103 h 1.809508 c 0.771751,0 1.398324,0.626618 1.398324,1.3983852 v 4.3743444 c 0,0.771782 -0.626573,1.398324 -1.398324,1.398324 H 8.844195 v 10e-4 H 8.658163 V 9.3358411 C 9.057322,9.2479771 9.356387,8.8918784 9.356387,8.4664829 9.356387,8.0410874 9.057322,7.6849841 8.658163,7.5971248 Z M 8.222394,8.2032581 V 8.4664999 8.7298024 L 8.028006,8.5981509 7.833618,8.4664999 8.028006,8.3348488 Z m 0.488212,0 0.194146,0.1315907 0.194146,0.1316511 -0.194146,0.131651 -0.194146,0.1316515 V 8.4664999 Z" />
  <path
     id="gradient-path1"
     style="opacity:0.3;baseline-shift:baseline;display:inline;overflow:visible;vector-effect:none;enable-background:accumulate;stop-color:#000000;stop-opacity:1;fill:url(#linearGradient4)"
     d="M 8.4453131 1.2753492 C 4.4913166 1.2753492 1.2794833 4.4784283 1.2794833 8.4236094 C 1.2794833 12.36879 4.4913166 15.572386 8.4453131 15.572386 C 12.39931 15.572386 15.611143 12.36879 15.611143 8.4236094 C 15.611143 4.4784283 12.39931 1.2753492 8.4453131 1.2753492 z " />
</svg>
