<?xml version='1.0' encoding='UTF-8'?>
<svg xmlns:inkscape="http://www.inkscape.org/namespaces/inkscape" xmlns:sodipodi="http://sodipodi.sourceforge.net/DTD/sodipodi-0.dtd" xmlns:xlink="http://www.w3.org/1999/xlink" xmlns="http://www.w3.org/2000/svg" xmlns:svg="http://www.w3.org/2000/svg" xmlns:rdf="http://www.w3.org/1999/02/22-rdf-syntax-ns#" xmlns:cc="http://creativecommons.org/ns#" xmlns:dc="http://purl.org/dc/elements/1.1/" width="64" height="64" version="1.1" viewBox="0 0 16.933 16.933" id="svg7" sodipodi:docname="utilities-system-monitor.svg" inkscape:version="1.4 (e7c3feb100, 2024-10-09)">
  <sodipodi:namedview id="namedview7" pagecolor="#9c4444" bordercolor="#000000" borderopacity="0.25" inkscape:showpageshadow="2" inkscape:pageopacity="0.0" inkscape:pagecheckerboard="0" inkscape:deskcolor="#d1d1d1" inkscape:zoom="4.3531261" inkscape:cx="36.066035" inkscape:cy="25.958357" inkscape:window-width="1280" inkscape:window-height="669" inkscape:window-x="61" inkscape:window-y="142" inkscape:window-maximized="0" inkscape:current-layer="svg7" showgrid="false"/>
  <defs id="defs2">
    <filter style="color-interpolation-filters:sRGB;" inkscape:label="Blur" id="filter3" x="-0.10843471" y="-0.10870992" width="1.2168694" height="1.2174198">
      <feGaussianBlur stdDeviation="0.5 0.5" result="blur" id="feGaussianBlur3"/>
    </filter>
    <style id="current-color-scheme" type="text/css">.ColorScheme-Text {color:#d8dee9} .ColorScheme-Highlight {color:#3b4252}</style><linearGradient id="linearGradient3" inkscape:collect="always">
      <stop style="stop-color:#000000;stop-opacity:1;" offset="0" id="stop3"/>
      <stop style="stop-color:#000000;stop-opacity:0;" offset="1" id="stop4"/>
    </linearGradient>
    <linearGradient inkscape:collect="always" xlink:href="#linearGradient3" id="linearGradient4" x1="13.512321" y1="13.490874" x2="3.3783066" y2="3.3568602" gradientUnits="userSpaceOnUse"/>
  </defs>
  <metadata id="metadata2">
    <rdf:RDF>
      <cc:Work rdf:about="">
        <dc:format>image/svg+xml</dc:format>
        <dc:type rdf:resource="http://purl.org/dc/dcmitype/StillImage"/>
      </cc:Work>
    </rdf:RDF>
  </metadata>
  <ellipse style="opacity:1;fill:none;stroke:#000000;stroke-width:0.582072;stroke-dasharray:none;stroke-opacity:1;filter:url(#filter3)" id="path1-5" cx="8.4450111" cy="8.423522" rx="6.8752708" ry="6.8578653"/>
  <ellipse style="opacity:1;fill:none;stroke-width:0.58207188;stroke-opacity:1;stroke:currentColor;stroke-dasharray:none;fill-opacity:1" id="path1" cx="8.4450111" cy="8.423522" rx="6.8752708" ry="6.8578653" class="ColorScheme-Text"/>
  <ellipse style="fill:currentColor;stroke:none;stroke-width:0.285844;stroke-dasharray:none;stroke-opacity:1" id="path1-2" cx="8.4557552" cy="8.423522" rx="6.5738997" ry="6.5692253" class="ColorScheme-Highlight"/>
<path style="fill:#000000;stroke:none;stroke-width:0.107154;stroke-linecap:round;stroke-linejoin:round;stroke-dasharray:none;stroke-opacity:0.6;opacity:0.3" d="M 8.1813393,6.0148787 A 0.47806239,0.49746652 0 0 0 7.6855558,6.3517242 L 6.9305946,8.6922332 H 4.7897239 A 0.47801458,0.49741679 0 0 0 4.311733,9.189626 0.47801458,0.49741679 0 0 0 4.7897239,9.6872949 H 7.274218 A 0.47806239,0.49746652 0 0 0 7.7275126,9.3479626 l 0.228374,-0.7082319 0.4655102,3.3018583 a 0.47806239,0.49746652 0 0 0 0.9262416,0.08622 L 10.102599,9.6872987 H 12.24347 A 0.47801458,0.49741679 0 0 0 12.721462,9.189626 0.47801458,0.49741679 0 0 0 12.24347,8.6922332 H 9.7589775 A 0.47806239,0.49746652 0 0 0 9.3056811,9.0315656 L 9.0773076,9.739798 8.6117972,6.4379387 a 0.47806239,0.49746652 0 0 0 -0.4304579,-0.42306 z" id="path8-5"/>
  <path style="fill:currentColor;stroke:none;stroke-width:0.107154;stroke-linecap:round;stroke-linejoin:round;stroke-dasharray:none;stroke-opacity:0.6" d="M 8.1813393,5.4857225 A 0.47806239,0.49746652 0 0 0 7.6855558,5.822568 L 6.9305946,8.163077 H 4.7897239 A 0.47801458,0.49741679 0 0 0 4.311733,8.6604698 0.47801458,0.49741679 0 0 0 4.7897239,9.1581387 H 7.274218 A 0.47806239,0.49746652 0 0 0 7.7275126,8.8188064 l 0.228374,-0.7082319 0.4655102,3.3018585 a 0.47806239,0.49746652 0 0 0 0.9262416,0.08622 L 10.102599,9.1581425 H 12.24347 A 0.47801458,0.49741679 0 0 0 12.721462,8.6604698 0.47801458,0.49741679 0 0 0 12.24347,8.163077 H 9.7589775 A 0.47806239,0.49746652 0 0 0 9.3056811,8.5024094 L 9.0773076,9.2106418 8.6117972,5.9087825 a 0.47806239,0.49746652 0 0 0 -0.4304579,-0.42306 z" id="path8" class="ColorScheme-Text"/>
<path id="gradient-path1" style="opacity:0.3;baseline-shift:baseline;display:inline;overflow:visible;vector-effect:none;enable-background:accumulate;stop-color:#000000;stop-opacity:1;fill:url(#linearGradient4)" d="M 8.4453131 1.2753492 C 4.4913166 1.2753492 1.2794833 4.4784283 1.2794833 8.4236094 C 1.2794833 12.36879 4.4913166 15.572386 8.4453131 15.572386 C 12.39931 15.572386 15.611143 12.36879 15.611143 8.4236094 C 15.611143 4.4784283 12.39931 1.2753492 8.4453131 1.2753492 z "/>
</svg>
