<?xml version='1.0' encoding='UTF-8'?>
<svg xmlns:inkscape="http://www.inkscape.org/namespaces/inkscape" xmlns:sodipodi="http://sodipodi.sourceforge.net/DTD/sodipodi-0.dtd" xmlns:xlink="http://www.w3.org/1999/xlink" xmlns="http://www.w3.org/2000/svg" xmlns:svg="http://www.w3.org/2000/svg" xmlns:rdf="http://www.w3.org/1999/02/22-rdf-syntax-ns#" xmlns:cc="http://creativecommons.org/ns#" xmlns:dc="http://purl.org/dc/elements/1.1/" width="64" height="64" version="1.1" viewBox="0 0 16.933 16.933" id="svg7" sodipodi:docname="ventoy.svg" inkscape:version="1.4.2 (ebf0e940d0, 2025-05-08)">
  <sodipodi:namedview id="namedview7" pagecolor="#a9abb3" bordercolor="#000000" borderopacity="0.25" inkscape:showpageshadow="2" inkscape:pageopacity="0.0" inkscape:pagecheckerboard="0" inkscape:deskcolor="#d1d1d1" inkscape:zoom="4.3531261" inkscape:cx="36.066035" inkscape:cy="26.417797" inkscape:window-width="2560" inkscape:window-height="1372" inkscape:window-x="0" inkscape:window-y="0" inkscape:window-maximized="1" inkscape:current-layer="svg7" showgrid="false"/>
  <defs id="defs2">
    <filter style="color-interpolation-filters:sRGB;" inkscape:label="Blur" id="filter3" x="-0.10843471" y="-0.10870992" width="1.2168694" height="1.2174198">
      <feGaussianBlur stdDeviation="0.5 0.5" result="blur" id="feGaussianBlur3"/>
    </filter>
    <style id="current-color-scheme" type="text/css">.ColorScheme-Text {color:#d8dee9} .ColorScheme-Highlight {color:#3b4252}</style><linearGradient id="linearGradient3" inkscape:collect="always">
      <stop style="stop-color:#000000;stop-opacity:1;" offset="0" id="stop3"/>
      <stop style="stop-color:#000000;stop-opacity:0;" offset="1" id="stop4"/>
    </linearGradient>
    <linearGradient inkscape:collect="always" xlink:href="#linearGradient3" id="linearGradient4" x1="13.512321" y1="13.490874" x2="3.3783066" y2="3.3568602" gradientUnits="userSpaceOnUse"/>
  </defs>
  <metadata id="metadata2">
    <rdf:RDF>
      <cc:Work rdf:about="">
        <dc:format>image/svg+xml</dc:format>
        <dc:type rdf:resource="http://purl.org/dc/dcmitype/StillImage"/>
      </cc:Work>
    </rdf:RDF>
  </metadata>
  <ellipse style="opacity:1;fill:none;stroke:#000000;stroke-width:0.582072;stroke-dasharray:none;stroke-opacity:1;filter:url(#filter3)" id="path1-5" cx="8.4450111" cy="8.423522" rx="6.8752708" ry="6.8578653"/>
  <ellipse style="opacity:1;fill:none;stroke-width:0.58207188;stroke-opacity:1;stroke:currentColor;stroke-dasharray:none;fill-opacity:1" id="path1" cx="8.4450111" cy="8.423522" rx="6.8752708" ry="6.8578653" class="ColorScheme-Text"/>
  <ellipse style="fill:currentColor;stroke:none;stroke-width:0.285844;stroke-dasharray:none;stroke-opacity:1" id="path1-2" cx="8.4557552" cy="8.423522" rx="6.5738997" ry="6.5692253" class="ColorScheme-Highlight"/>
<path d="m 9.4218444,12.782561 0.01236,-1.562015 -1.928655,-0.0056 -0.01267,1.562624 z m -0.461848,-0.362971 -0.392579,-7.36e-4 0.0034,-0.321659 0.391964,0.0013 z m -0.597347,-0.0015 -0.393496,-7.36e-4 0.0031,-0.321356 0.39258,7.37e-4 z m 1.582152,-1.633048 0.04219,-5.0711099 c 0.0024,-0.2753904 -0.219664,-0.4998454 -0.495643,-0.5010208 l -1.999263,-0.00416 c -0.276439,-7.144e-4 -0.501975,0.22332 -0.503756,0.4983781 l -0.04234,5.0706506 z m -1.493769,-0.68395 -0.266291,-0.4679743 0.193157,4.286e-4 0.01505,-1.8066572 -0.495783,0.4649557 c -0.03215,0.039407 -0.05474,0.090937 -0.0564,0.1442607 -0.0024,0.2790281 -0.0036,0.3771295 -0.0036,0.3771295 l 0.156787,5.358e-4 -0.0036,0.467749 -0.468068,-0.00114 0.0037,-0.4682065 0.156936,0.001 0.0031,-0.3727008 c 9.21e-4,-0.1048268 0.05938,-0.2143872 0.127291,-0.284012 0.0015,-0.00152 0.525731,-0.4924533 0.525731,-0.4924533 0.03215,-0.039407 0.05474,-0.091243 0.05655,-0.1444131 l 0.0044,-0.5877049 c 1.55e-4,-7.487e-4 1.58e-4,-0.00136 1.61e-4,-0.00199 l 0.0025,-0.2660386 C 8.2239674,6.6275976 8.0904894,6.4696338 8.0921164,6.280457 c 0.0019,-0.2159182 0.178445,-0.3905556 0.394218,-0.3900091 0.215621,4.108e-4 0.389194,0.1758398 0.387425,0.3916059 -0.0015,0.1893307 -0.137561,0.3467645 -0.316545,0.3821741 l -0.0021,0.2704724 c 7.97e-4,0.053337 0.0222,0.1054088 0.05347,0.145003 0,0 0.516466,0.4934616 0.518137,0.4951512 l -2.85e-4,2.858e-4 c 0.06671,0.069894 0.123275,0.1796092 0.122408,0.2841299 l -0.0031,0.3864538 c 0.09075,0.03212 0.155542,0.1185028 0.154842,0.2204268 -9.82e-4,0.1292763 -0.106391,0.2335424 -0.235671,0.2331539 -0.129128,-2.321e-4 -0.233241,-0.1054712 -0.23209,-0.2345945 8.59e-4,-0.1020763 0.06748,-0.1874482 0.158882,-0.2192016 10e-5,-0.04722 0.0011,-0.1752736 0.003,-0.3908862 -7.98e-4,-0.053337 -0.02282,-0.105412 -0.05424,-0.1451601 l -0.488033,-0.466567 -0.02001,2.390997 0.192547,1.165e-4 z" fill="#ffffff" fill-rule="nonzero" id="path2" style="fill:#000000;fill-opacity:1;stroke-width:0.216111;opacity:0.3"/>
  <path d="m 9.4218444,12.253391 0.01236,-1.562014 -1.928655,-0.0056 -0.01267,1.562624 z m -0.461848,-0.36297 -0.392579,-7.37e-4 0.0034,-0.321659 0.391964,0.0013 z m -0.597347,-0.0015 -0.393496,-7.37e-4 0.0031,-0.321355 0.39258,7.37e-4 z m 1.582152,-1.633049 0.04219,-5.07111 c 0.0024,-0.2753604 -0.219664,-0.4998154 -0.495643,-0.5009908 l -1.999263,-0.00416 c -0.276439,-7.144e-4 -0.501975,0.22332 -0.503756,0.4983781 l -0.04234,5.0706507 z m -1.493769,-0.6839195 -0.266291,-0.467975 0.193157,4.29e-4 0.01505,-1.8066575 -0.495783,0.4649557 c -0.03215,0.039407 -0.05474,0.090937 -0.0564,0.1442608 -0.0024,0.279028 -0.0036,0.377129 -0.0036,0.377129 l 0.156787,5.36e-4 -0.0036,0.467749 -0.468068,-0.0011 0.0037,-0.468206 0.156936,10e-4 0.0031,-0.372701 c 9.21e-4,-0.104827 0.05938,-0.2143873 0.127291,-0.2840121 0.0015,-0.00152 0.525731,-0.4924533 0.525731,-0.4924533 0.03215,-0.039407 0.05474,-0.091243 0.05655,-0.1444131 l 0.0044,-0.5877049 c 1.55e-4,-7.487e-4 1.58e-4,-0.00136 1.61e-4,-0.00199 l 0.0025,-0.2660386 c -0.178686,-0.036333 -0.312164,-0.1942968 -0.310537,-0.3834736 0.0019,-0.2159182 0.178445,-0.3905556 0.394218,-0.3900091 0.215621,4.108e-4 0.389194,0.1758398 0.387425,0.3916059 -0.0015,0.1893307 -0.137561,0.3467645 -0.316545,0.3821741 l -0.0021,0.2704724 c 7.97e-4,0.053337 0.0222,0.1054088 0.05347,0.145003 0,0 0.516466,0.4934616 0.518137,0.4951512 l -2.85e-4,2.858e-4 c 0.06671,0.069894 0.123275,0.1796092 0.122408,0.2841299 l -0.0031,0.3864538 c 0.09075,0.03212 0.155542,0.1185026 0.154842,0.2204266 -9.82e-4,0.129277 -0.106391,0.233543 -0.235671,0.233154 -0.129128,-2.32e-4 -0.233241,-0.105471 -0.23209,-0.234594 8.59e-4,-0.102077 0.06748,-0.1874486 0.158882,-0.219202 10e-5,-0.04722 0.0011,-0.1752736 0.003,-0.3908862 -7.98e-4,-0.053337 -0.02282,-0.105412 -0.05424,-0.1451601 l -0.488033,-0.466567 -0.02001,2.3909973 0.192547,1.16e-4 z" fill="#ffffff" fill-rule="nonzero" id="path2-9" style="fill:currentColor;fill-opacity:1;stroke-width:0.216111" class="ColorScheme-Text"/>
<path id="gradient-path1" style="opacity:0.3;baseline-shift:baseline;display:inline;overflow:visible;vector-effect:none;enable-background:accumulate;stop-color:#000000;stop-opacity:1;fill:url(#linearGradient4)" d="M 8.4453131 1.2753492 C 4.4913166 1.2753492 1.2794833 4.4784283 1.2794833 8.4236094 C 1.2794833 12.36879 4.4913166 15.572386 8.4453131 15.572386 C 12.39931 15.572386 15.611143 12.36879 15.611143 8.4236094 C 15.611143 4.4784283 12.39931 1.2753492 8.4453131 1.2753492 z "/>
</svg>
