<?xml version="1.0" encoding="UTF-8" standalone="no"?>
<svg
   width="64"
   height="64"
   version="1.1"
   viewBox="0 0 16.933 16.933"
   id="svg7"
   sodipodi:docname="vesktop.svg"
   inkscape:version="1.4.2 (ebf0e940d0, 2025-05-08)"
   xmlns:inkscape="http://www.inkscape.org/namespaces/inkscape"
   xmlns:sodipodi="http://sodipodi.sourceforge.net/DTD/sodipodi-0.dtd"
   xmlns:xlink="http://www.w3.org/1999/xlink"
   xmlns="http://www.w3.org/2000/svg"
   xmlns:svg="http://www.w3.org/2000/svg"
   xmlns:rdf="http://www.w3.org/1999/02/22-rdf-syntax-ns#"
   xmlns:cc="http://creativecommons.org/ns#"
   xmlns:dc="http://purl.org/dc/elements/1.1/">
  <sodipodi:namedview
     id="namedview7"
     pagecolor="#9c4444"
     bordercolor="#000000"
     borderopacity="0.25"
     inkscape:showpageshadow="2"
     inkscape:pageopacity="0.0"
     inkscape:pagecheckerboard="0"
     inkscape:deskcolor="#d1d1d1"
     inkscape:zoom="8.7062522"
     inkscape:cx="72.246931"
     inkscape:cy="15.276378"
     inkscape:window-width="2560"
     inkscape:window-height="1388"
     inkscape:window-x="0"
     inkscape:window-y="0"
     inkscape:window-maximized="1"
     inkscape:current-layer="svg7"
     showgrid="false" />
  <defs
     id="defs2">
    <filter
       style="color-interpolation-filters:sRGB;"
       inkscape:label="Blur"
       id="filter3"
       x="-0.10843471"
       y="-0.10870992"
       width="1.2168694"
       height="1.2174198">
      <feGaussianBlur
         stdDeviation="0.5 0.5"
         result="blur"
         id="feGaussianBlur3" />
    </filter>
    <style
       id="current-color-scheme"
       type="text/css">.ColorScheme-Text {color:#d8dee9} .ColorScheme-Highlight {color:#3b4252}</style>
    <linearGradient
       id="linearGradient3"
       inkscape:collect="always">
      <stop
         style="stop-color:#000000;stop-opacity:1;"
         offset="0"
         id="stop3" />
      <stop
         style="stop-color:#000000;stop-opacity:0;"
         offset="1"
         id="stop4" />
    </linearGradient>
    <linearGradient
       inkscape:collect="always"
       xlink:href="#linearGradient3"
       id="linearGradient4"
       x1="13.512321"
       y1="13.490874"
       x2="3.3783066"
       y2="3.3568602"
       gradientUnits="userSpaceOnUse" />
  </defs>
  <metadata
     id="metadata2">
    <rdf:RDF>
      <cc:Work
         rdf:about="">
        <dc:format>image/svg+xml</dc:format>
        <dc:type
           rdf:resource="http://purl.org/dc/dcmitype/StillImage" />
      </cc:Work>
    </rdf:RDF>
  </metadata>
  <ellipse
     style="opacity:1;fill:none;stroke:#000000;stroke-width:0.582072;stroke-dasharray:none;stroke-opacity:1;filter:url(#filter3)"
     id="path1-5"
     cx="8.4450111"
     cy="8.423522"
     rx="6.8752708"
     ry="6.8578653" />
  <ellipse
     style="opacity:1;fill:none;stroke-width:0.58207188;stroke-opacity:1;stroke:currentColor;stroke-dasharray:none;fill-opacity:1"
     id="path1"
     cx="8.4450111"
     cy="8.423522"
     rx="6.8752708"
     ry="6.8578653"
     class="ColorScheme-Text" />
  <ellipse
     style="fill:currentColor;stroke:none;stroke-width:0.285844;stroke-dasharray:none;stroke-opacity:1"
     id="path1-2"
     cx="8.4557552"
     cy="8.423522"
     rx="6.5738997"
     ry="6.5692253"
     class="ColorScheme-Highlight" />
  <path
     id="path5-6"
     style="opacity:0.3;fill:#000000;fill-opacity:1;stroke-width:0.0121906"
     d="m 8.3240174,5.0300359 c -0.734098,0.028568 -1.458283,0.2571628 -2.056935,0.6600333 -0.108165,0.07279 -0.3414,0.2478634 -0.341077,0.2560274 1.43e-4,0.00362 0.03087,0.028562 0.06826,0.055358 0.0949,0.068002 0.242791,0.2260698 0.317338,0.3391483 0.03455,0.052409 0.144055,0.271076 0.243337,0.4859354 0.133861,0.289693 0.182863,0.384789 0.189622,0.3679579 0.005,-0.012481 0.04522,-0.200979 0.08936,-0.4188871 0.08091,-0.3994466 0.123693,-0.5530924 0.191621,-0.6882243 0.172756,-0.3436714 0.481776,-0.6032467 0.840989,-0.7064625 0.15195,-0.043658 0.381754,-0.064497 0.515007,-0.04667 0.360261,0.048204 0.619329,0.2489065 0.720749,0.558365 0.03297,0.1006019 0.03564,0.1223083 0.03512,0.2856475 l -5.66e-4,0.1767645 -0.269885,1.0725633 c -0.148435,0.5899041 -0.268711,1.0737129 -0.26729,1.0751348 0.0014,0.00142 0.0573,-0.033345 0.124169,-0.077239 0.306707,-0.2013254 0.655471,-0.3328901 1.029777,-0.3885056 0.187221,-0.027815 0.5217656,-0.027934 0.6948666,-2.151e-4 0.676527,0.1083317 1.24973,0.4491226 1.649239,0.9805148 0.175477,0.2334045 0.25828,0.412252 0.274052,0.5919135 l 0.0076,0.086073 0.0096,-0.054215 c 0.04744,-0.2678513 0.06338,-0.7324969 0.03495,-1.0185622 C 12.383151,8.2123211 12.265639,7.7661583 12.098488,7.3869737 11.554376,6.1526419 10.391551,5.2664375 9.0571584,5.0691066 8.8145384,5.0332256 8.5687514,5.0205126 8.3240524,5.0300326 Z m -0.07595,0.704915 c -0.188924,0.00192 -0.300514,0.027555 -0.443149,0.1017634 -0.203314,0.1057755 -0.377888,0.3025964 -0.465174,0.5244124 -0.01451,0.036877 -0.111004,0.4784835 -0.214432,0.981348 -0.103427,0.5028645 -0.194225,0.9296048 -0.201764,0.9482993 -0.02658,0.065903 -0.08187,0.068659 -0.122645,0.00612 C 6.7908934,8.281537 6.6163254,7.909645 6.4129694,7.4704767 6.2096124,7.0313085 6.0240654,6.6390744 6.0006534,6.5988449 5.9772434,6.5586169 5.9075534,6.4754963 5.8457944,6.4141282 5.7493544,6.3182932 5.7156844,6.2937206 5.6071474,6.239959 5.3828344,6.1288492 5.1765154,6.1151431 4.9687814,6.19758 c -0.116006,0.046036 -0.245165,0.1720064 -0.286433,0.2793611 -0.0341,0.088726 -0.03864,0.251576 -0.0092,0.3291475 0.05953,0.1566657 1.481734,3.1699902 1.529665,3.2410004 0.09126,0.135202 0.261228,0.267359 0.429959,0.334338 0.298352,0.118432 0.627976,0.06232 0.888609,-0.151288 0.02901,-0.02377 0.05489,-0.043 0.06507,-0.04859 0.06403,-0.4129224 0.226166,-0.7997531 0.465459,-1.1289934 0.01833,-0.082978 0.165123,-0.6763737 0.343577,-1.3884485 0.303102,-1.2094522 0.349632,-1.4073367 0.350838,-1.491927 0.0028,-0.1932832 -0.08764,-0.3325562 -0.264099,-0.4069347 -0.06956,-0.029321 -0.08862,-0.031783 -0.234194,-0.030289 z M 4.6801304,7.797505 c -0.02891,0.028811 -0.123663,0.4515911 -0.157574,0.7030816 -0.03017,0.2237791 -0.03726,0.7134498 -0.01298,0.8960133 0.05632,0.423373 0.17467,0.8937431 0.288123,1.1450161 0.06127,0.1357 0.08298,0.241195 0.07672,0.37272 -0.0043,0.09074 -0.02884,0.198724 -0.141859,0.624509 -0.07974,0.300445 -0.1417,0.559324 -0.148787,0.6217 -0.02248,0.197883 0.0216,0.360635 0.129096,0.476745 0.114526,0.123701 0.245306,0.167981 0.464793,0.157335 0.121038,-0.0059 0.175559,-0.0183 0.632271,-0.144216 0.47587,-0.131189 0.505366,-0.137785 0.615628,-0.137597 0.142787,2.44e-4 0.215533,0.02064 0.395245,0.110859 0.35431,0.177879 0.803025,0.294293 1.299256,0.337052 0.115671,0.01 0.71876,-0.0024 0.83256,-0.01703 l 0.119407,-0.01536 -0.131597,-0.06945 c -0.54186,-0.285987 -0.944746,-0.724103 -1.178093,-1.281066 -0.108122,-0.25807 -0.189856,-0.603581 -0.190645,-0.806012 -1.24e-4,-0.03145 -0.0049,-0.06005 -0.01057,-0.06357 -0.0057,-0.0035 -0.05023,0.01034 -0.09895,0.03081 -0.04872,0.02047 -0.141436,0.05129 -0.206026,0.0685 -0.102128,0.0272 -0.142858,0.03136 -0.312482,0.03186 -0.217643,6.23e-4 -0.289227,-0.01193 -0.475435,-0.08355 -0.240954,-0.09267 -0.49551,-0.305115 -0.621723,-0.518865 -0.03353,-0.05678 -0.307814,-0.6307356 -0.609533,-1.2754712 -0.301719,-0.644735 -0.552303,-1.1685401 -0.556842,-1.1640169 z m 5.4200556,0.6172234 c -0.1376446,3.62e-5 -0.2760246,0.00762 -0.3526716,0.022715 -0.251977,0.049613 -0.394458,0.097743 -0.608842,0.2056936 -0.628384,0.3164162 -1.065447,0.9392942 -1.158803,1.651453 -0.05796,0.442165 0.01622,0.879499 0.216979,1.279232 0.206089,0.410347 0.568626,0.763958 0.984181,0.959919 0.212228,0.100079 0.382869,0.150997 0.621343,0.185432 0.169141,0.02442 0.5064126,0.01541 0.6666046,-0.01784 0.187339,-0.03888 0.321423,-0.08074 0.467792,-0.14605 0.264357,-0.117962 0.404095,-0.231378 0.478412,-0.388268 0.03687,-0.07784 0.03902,-0.09013 0.03902,-0.222574 0,-0.13662 -0.0011,-0.142622 -0.04529,-0.235051 -0.08358,-0.175034 -0.229624,-0.282954 -0.424054,-0.313386 -0.128171,-0.02006 -0.237663,0.004 -0.377195,0.08291 -0.199305,0.112697 -0.326711,0.148573 -0.527509,0.148573 -0.1723996,0 -0.2791846,-0.02433 -0.4301716,-0.09798 -0.260646,-0.127138 -0.431886,-0.327478 -0.531556,-0.62189 -0.03377,-0.09976 -0.03976,-0.136581 -0.04476,-0.274671 -0.0088,-0.24169 0.03647,-0.420315 0.157812,-0.623271 0.05852,-0.097887 0.205645,-0.2499541 0.308171,-0.3185279 0.191536,-0.1281073 0.370469,-0.1785498 0.5979606,-0.1685739 0.230116,0.010092 0.381847,0.064463 0.563865,0.202098 0.09588,0.072501 0.15395,0.1377051 0.28298,0.3176718 0.09908,0.138194 0.244741,0.217201 0.421626,0.228717 0.167902,0.01093 0.311879,-0.04621 0.425435,-0.168859 C 12.00874,9.9107793 12.033198,9.6483865 11.895205,9.419289 11.818955,9.2926952 11.712532,9.1599136 11.582844,9.0295692 11.269697,8.7148398 10.923848,8.5342449 10.44847,8.4372267 c -0.07373,-0.015045 -0.210646,-0.02254 -0.348291,-0.0225 z m -0.0053,1.5033313 C 9.7444034,9.91841 9.4684534,10.209124 9.4674014,10.579093 c -3.82e-4,0.134156 0.01652,0.204467 0.07762,0.323005 0.134961,0.261843 0.44699,0.39357 0.7183206,0.303242 0.0314,-0.01045 0.0994,-0.04321 0.151145,-0.07281 0.05175,-0.0296 0.145004,-0.07132 0.207241,-0.09272 0.106024,-0.03644 0.123926,-0.0389 0.283837,-0.03905 0.126617,-1.1e-4 0.190834,0.0054 0.248789,0.02155 0.162054,0.045 0.369321,0.172781 0.460245,0.283742 0.02447,0.02987 0.04839,0.04994 0.05315,0.04462 0.05819,-0.06513 0.268781,-0.40848 0.351792,-0.57358 0.08089,-0.16089 0.244111,-0.563722 0.228408,-0.563722 -0.0023,0 -0.01949,0.02304 -0.03812,0.05119 -0.117402,0.177405 -0.343868,0.33139 -0.562842,0.382743 -0.126623,0.02969 -0.329977,0.02755 -0.44465,-0.0047 -0.257119,-0.0723 -0.423587,-0.194193 -0.58208,-0.426241 -0.142556,-0.208715 -0.300723,-0.2985386 -0.525365,-0.2983133 z" />
  <path
     id="path5-6-5"
     style="fill:currentColor;stroke-width:0.0121906"
     d="m 8.3240174,4.5008743 c -0.734098,0.028568 -1.458283,0.2571628 -2.056935,0.6600333 -0.108165,0.07279 -0.3414,0.2478634 -0.341077,0.2560274 1.43e-4,0.00362 0.03087,0.028562 0.06826,0.055358 0.0949,0.068002 0.242791,0.2260698 0.317338,0.3391483 0.03455,0.052409 0.144055,0.271076 0.243337,0.4859354 0.133861,0.289693 0.182863,0.384789 0.189622,0.3679579 0.005,-0.012481 0.04522,-0.200979 0.08936,-0.4188871 0.08091,-0.3994466 0.123693,-0.5530924 0.191621,-0.6882243 0.172756,-0.3436714 0.481776,-0.6032467 0.840989,-0.7064625 0.15195,-0.043658 0.381754,-0.064497 0.515007,-0.04667 0.360261,0.048204 0.619329,0.2489065 0.720749,0.558365 0.03297,0.1006019 0.03564,0.1223083 0.03512,0.2856475 l -5.66e-4,0.1767645 -0.269885,1.0725633 c -0.148435,0.5899041 -0.268711,1.0737129 -0.26729,1.0751348 0.0014,0.00142 0.0573,-0.033345 0.124169,-0.077239 0.306707,-0.2013254 0.655471,-0.3328901 1.029777,-0.3885056 0.187221,-0.027815 0.5217656,-0.027934 0.6948666,-2.151e-4 0.676527,0.1083317 1.24973,0.4491226 1.649239,0.9805148 0.175477,0.2334045 0.25828,0.412252 0.274052,0.5919135 l 0.0076,0.086073 0.0096,-0.054215 c 0.04744,-0.2678513 0.06338,-0.7324969 0.03495,-1.0185622 C 12.383151,7.6831595 12.265639,7.2369967 12.098488,6.8578121 11.554376,5.6234803 10.391551,4.7372759 9.0571584,4.539945 8.8145384,4.504064 8.5687514,4.491351 8.3240524,4.500871 Z m -0.07595,0.704915 c -0.188924,0.00192 -0.300514,0.027555 -0.443149,0.1017634 -0.203314,0.1057755 -0.377888,0.3025964 -0.465174,0.5244124 -0.01451,0.036877 -0.111004,0.4784835 -0.214432,0.981348 -0.103427,0.5028645 -0.194225,0.9296048 -0.201764,0.9482993 -0.02658,0.065903 -0.08187,0.068659 -0.122645,0.00612 C 6.7908934,7.7523754 6.6163254,7.3804834 6.4129694,6.9413151 6.2096124,6.5021469 6.0240654,6.1099128 6.0006534,6.0696833 5.9772434,6.0294553 5.9075534,5.9463347 5.8457944,5.8849666 5.7493544,5.7891316 5.7156844,5.764559 5.6071474,5.7107974 5.3828344,5.5996876 5.1765154,5.5859815 4.9687814,5.6684184 c -0.116006,0.046036 -0.245165,0.1720064 -0.286433,0.2793611 -0.0341,0.088726 -0.03864,0.251576 -0.0092,0.3291475 0.05953,0.1566657 1.481734,3.1699902 1.529665,3.2410002 0.09126,0.1352026 0.261228,0.2673588 0.429959,0.334338 0.298352,0.1184327 0.627976,0.062322 0.888609,-0.1512882 0.02901,-0.023774 0.05489,-0.043002 0.06507,-0.048594 0.06403,-0.412922 0.226166,-0.7997527 0.465459,-1.128993 0.01833,-0.082978 0.165123,-0.6763737 0.343577,-1.3884485 0.303102,-1.2094522 0.349632,-1.4073367 0.350838,-1.491927 0.0028,-0.1932832 -0.08764,-0.3325562 -0.264099,-0.4069347 -0.06956,-0.029321 -0.08862,-0.031783 -0.234194,-0.030289 z m -3.567937,2.0625541 c -0.02891,0.028811 -0.123663,0.4515911 -0.157574,0.7030816 -0.03017,0.2237791 -0.03726,0.7134498 -0.01298,0.8960133 0.05632,0.423373 0.17467,0.8937427 0.288123,1.1450167 0.06127,0.1357 0.08298,0.241195 0.07672,0.37272 -0.0043,0.09074 -0.02884,0.198724 -0.141859,0.624509 -0.07974,0.300445 -0.1417,0.559324 -0.148787,0.6217 -0.02248,0.197883 0.0216,0.360635 0.129096,0.476744 0.114526,0.123702 0.245306,0.167982 0.464793,0.157336 0.121038,-0.0059 0.175559,-0.01831 0.632271,-0.144216 0.47587,-0.131189 0.505366,-0.137785 0.615628,-0.137598 0.142787,2.45e-4 0.215533,0.02064 0.395245,0.110859 0.35431,0.17788 0.803025,0.294294 1.299256,0.337053 0.115671,0.01 0.71876,-0.0024 0.83256,-0.01703 l 0.119407,-0.01536 -0.131597,-0.06945 c -0.54186,-0.285981 -0.944746,-0.724097 -1.178093,-1.28106 -0.108122,-0.25807 -0.189856,-0.603582 -0.190645,-0.806012 -1.24e-4,-0.03145 -0.0049,-0.06005 -0.01057,-0.06357 -0.0057,-0.0035 -0.05023,0.01034 -0.09895,0.03081 -0.04872,0.02047 -0.141436,0.05129 -0.206026,0.0685 -0.102128,0.0272 -0.142858,0.03136 -0.312482,0.03186 -0.217643,6.23e-4 -0.289227,-0.01193 -0.475435,-0.08355 C 6.2272774,10.134023 5.9727214,9.9215783 5.8465084,9.7078283 5.8129784,9.6510533 5.5386944,9.0770928 5.2369754,8.4323572 4.9352564,7.7876222 4.6846724,7.2638171 4.6801334,7.2683403 Z m 5.4200556,0.6172234 c -0.1376446,3.62e-5 -0.2760246,0.00762 -0.3526716,0.022715 -0.251977,0.049613 -0.394458,0.097743 -0.608842,0.2056936 -0.628384,0.3164162 -1.065447,0.9392942 -1.158803,1.6514526 -0.05796,0.442166 0.01622,0.8795 0.216979,1.279233 0.206089,0.410347 0.568626,0.763958 0.984181,0.959919 0.212228,0.100079 0.382869,0.150996 0.621343,0.185431 0.169141,0.02442 0.5064126,0.01541 0.6666046,-0.01784 0.187339,-0.03887 0.321423,-0.08074 0.467792,-0.146049 0.264357,-0.117962 0.404095,-0.231378 0.478412,-0.388268 0.03687,-0.07784 0.03902,-0.09013 0.03902,-0.222575 0,-0.136619 -0.0011,-0.142621 -0.04529,-0.235051 -0.08358,-0.175033 -0.229624,-0.282953 -0.424054,-0.313385 -0.128171,-0.02006 -0.237663,0.004 -0.377195,0.08291 -0.199305,0.112697 -0.326711,0.148573 -0.527509,0.148573 -0.1723996,0 -0.2791846,-0.02433 -0.4301716,-0.09798 -0.260646,-0.127137 -0.431886,-0.327477 -0.531556,-0.621889 -0.03377,-0.09976 -0.03976,-0.136581 -0.04476,-0.274671 -0.0088,-0.2416904 0.03647,-0.420316 0.157812,-0.6232711 0.05852,-0.097888 0.205645,-0.2499546 0.308171,-0.3185284 0.191536,-0.1281073 0.370469,-0.1785498 0.5979606,-0.1685739 0.230116,0.010092 0.381847,0.064463 0.563865,0.202098 0.09588,0.072501 0.15395,0.1377051 0.28298,0.3176715 0.09908,0.1381947 0.244741,0.2172011 0.421626,0.2287177 0.167902,0.01093 0.311879,-0.046206 0.425435,-0.1688598 C 12.00874,9.3816177 12.033198,9.1192249 11.895205,8.8901274 11.818955,8.7635336 11.712532,8.630752 11.582844,8.5004076 11.269697,8.1856782 10.923848,8.0050833 10.44847,7.9080651 c -0.07373,-0.015045 -0.210646,-0.02254 -0.348291,-0.0225 z m -0.0053,1.5033313 c -0.3504826,3.503e-4 -0.6264326,0.2910644 -0.6274846,0.6610339 -3.82e-4,0.134156 0.01652,0.204467 0.07762,0.323004 0.134961,0.261844 0.44699,0.393571 0.7183206,0.303243 0.0314,-0.01045 0.0994,-0.04321 0.151145,-0.07281 0.05175,-0.0296 0.145004,-0.07132 0.207241,-0.09272 0.106024,-0.03644 0.123926,-0.0389 0.283837,-0.03905 0.126617,-1.11e-4 0.190834,0.0054 0.248789,0.02155 0.162054,0.045 0.369321,0.17278 0.460245,0.283742 0.02447,0.02986 0.04839,0.04994 0.05315,0.04462 0.05819,-0.06513 0.268781,-0.40848 0.351792,-0.57358 0.08089,-0.160891 0.244111,-0.5637228 0.228408,-0.5637228 -0.0023,0 -0.01949,0.023043 -0.03812,0.051192 -0.117402,0.1774047 -0.343868,0.3313898 -0.562842,0.3827438 -0.126623,0.02969 -0.329977,0.02755 -0.44465,-0.0047 -0.257119,-0.0723 -0.423587,-0.1941965 -0.58208,-0.4262442 -0.142556,-0.2087151 -0.300723,-0.298539 -0.525365,-0.2983137 z"
     class="ColorScheme-Text" />
  <path
     id="gradient-path1"
     style="opacity:0.3;baseline-shift:baseline;display:inline;overflow:visible;vector-effect:none;enable-background:accumulate;stop-color:#000000;stop-opacity:1;fill:url(#linearGradient4)"
     d="M 8.4453131 1.2753492 C 4.4913166 1.2753492 1.2794833 4.4784283 1.2794833 8.4236094 C 1.2794833 12.36879 4.4913166 15.572386 8.4453131 15.572386 C 12.39931 15.572386 15.611143 12.36879 15.611143 8.4236094 C 15.611143 4.4784283 12.39931 1.2753492 8.4453131 1.2753492 z " />
</svg>
