<?xml version='1.0' encoding='UTF-8'?>
<svg xmlns:inkscape="http://www.inkscape.org/namespaces/inkscape" xmlns:sodipodi="http://sodipodi.sourceforge.net/DTD/sodipodi-0.dtd" xmlns:xlink="http://www.w3.org/1999/xlink" xmlns="http://www.w3.org/2000/svg" xmlns:svg="http://www.w3.org/2000/svg" xmlns:rdf="http://www.w3.org/1999/02/22-rdf-syntax-ns#" xmlns:cc="http://creativecommons.org/ns#" xmlns:dc="http://purl.org/dc/elements/1.1/" width="64" height="64" version="1.1" viewBox="0 0 16.933 16.933" id="svg7" sodipodi:docname="virtualbox.svg" inkscape:version="1.4.2 (ebf0e940d0, 2025-05-08)">
  <sodipodi:namedview id="namedview7" pagecolor="#9c4444" bordercolor="#000000" borderopacity="0.25" inkscape:showpageshadow="2" inkscape:pageopacity="0.0" inkscape:pagecheckerboard="0" inkscape:deskcolor="#d1d1d1" inkscape:zoom="4.3531261" inkscape:cx="36.066035" inkscape:cy="26.188077" inkscape:window-width="2560" inkscape:window-height="1372" inkscape:window-x="0" inkscape:window-y="0" inkscape:window-maximized="1" inkscape:current-layer="svg7" showgrid="false"/>
  <defs id="defs2">
    <filter style="color-interpolation-filters:sRGB;" inkscape:label="Blur" id="filter3" x="-0.10843471" y="-0.10870992" width="1.2168694" height="1.2174198">
      <feGaussianBlur stdDeviation="0.5 0.5" result="blur" id="feGaussianBlur3"/>
    </filter>
    <style id="current-color-scheme" type="text/css">.ColorScheme-Text {color:#d8dee9} .ColorScheme-Highlight {color:#3b4252}</style><linearGradient id="linearGradient3" inkscape:collect="always">
      <stop style="stop-color:#000000;stop-opacity:1;" offset="0" id="stop3"/>
      <stop style="stop-color:#000000;stop-opacity:0;" offset="1" id="stop4"/>
    </linearGradient>
    <linearGradient inkscape:collect="always" xlink:href="#linearGradient3" id="linearGradient4" x1="13.512321" y1="13.490874" x2="3.3783066" y2="3.3568602" gradientUnits="userSpaceOnUse"/>
  </defs>
  <metadata id="metadata2">
    <rdf:RDF>
      <cc:Work rdf:about="">
        <dc:format>image/svg+xml</dc:format>
        <dc:type rdf:resource="http://purl.org/dc/dcmitype/StillImage"/>
      </cc:Work>
    </rdf:RDF>
  </metadata>
  <ellipse style="opacity:1;fill:none;stroke:#000000;stroke-width:0.582072;stroke-dasharray:none;stroke-opacity:1;filter:url(#filter3)" id="path1-5" cx="8.4450111" cy="8.423522" rx="6.8752708" ry="6.8578653"/>
  <ellipse style="opacity:1;fill:none;stroke-width:0.58207188;stroke-opacity:1;stroke:currentColor;stroke-dasharray:none;fill-opacity:1" id="path1" cx="8.4450111" cy="8.423522" rx="6.8752708" ry="6.8578653" class="ColorScheme-Text"/>
  <ellipse style="fill:currentColor;stroke:none;stroke-width:0.285844;stroke-dasharray:none;stroke-opacity:1" id="path1-2" cx="8.4557552" cy="8.423522" rx="6.5738997" ry="6.5692253" class="ColorScheme-Highlight"/>
<path id="path4" style="fill:#000000;fill-opacity:1;stroke-width:0.0416075;opacity:0.3" d="m 4.9361743,5.2087495 -0.05534,0.030018 c -0.07374,0.03985 -0.137895,0.1084392 -0.172443,0.1848268 -0.02757,0.060948 -0.02801,0.086687 -0.02831,1.0990972 l -4.4e-4,1.0364877 h 0.878514 0.878944 l 0.294696,0.8632393 c 0.162063,0.4747737 0.299317,0.8679905 0.304992,0.8739606 0.0078,0.00824 0.69681,-1.9927544 1.083987,-3.1480585 0.02364,-0.070548 0.04752,-0.1282207 0.05277,-0.1282207 0.0052,0 0.198991,0.4335176 0.430678,0.9635863 0.231685,0.5300687 0.424772,0.9636317 0.429391,0.9635862 0.0046,-4.57e-5 0.205371,-0.5059425 0.445691,-1.1243984 0.24032,-0.6184563 0.439944,-1.1266189 0.443976,-1.1291155 0.004,-0.0025 0.2900937,0.8437659 0.6357207,1.8804298 l 0.62843,1.8847181 h 0.533199 0.532771 l -4.39e-4,-1.9863515 c -2.86e-4,-1.9677009 -3.3e-4,-1.9871481 -0.0283,-2.0489606 -0.03455,-0.076388 -0.09871,-0.1449767 -0.172443,-0.1848268 l -0.05533,-0.030018 H 8.4665403 Z M 4.6796553,8.529627 v 1.98335 c 0,2.163563 -0.0051,2.023015 0.07721,2.130867 0.03889,0.05097 0.138434,0.113973 0.205044,0.129937 0.02417,0.0058 1.613761,0.0098 3.532502,0.0086 l 3.4883177,-0.0022 0.05748,-0.03045 c 0.08981,-0.04803 0.138975,-0.09621 0.17759,-0.173678 l 0.0356,-0.07161 V 11.46712 10.429775 H 11.373598 10.493797 L 10.177652,9.4807689 C 10.003709,8.9589102 9.8576883,8.5342326 9.8533573,8.536909 c -0.0043,0.00268 -0.176068,0.4387258 -0.381776,0.969161 -0.205708,0.530436 -0.3793,0.962648 -0.386066,0.960584 -0.0068,-0.002 -0.187773,-0.404437 -0.401937,-0.8941149 -0.214165,-0.4896789 -0.392846,-0.890256 -0.397219,-0.890256 -0.006,0 -0.959193,2.7866829 -1.201523,3.5125659 -0.01988,0.05954 -0.03979,0.104733 -0.04418,0.100346 -0.0044,-0.0044 -0.296154,-0.851605 -0.648591,-1.883002 l -0.640869,-1.8752864 -0.535773,-0.00386 z"/>
  <path id="path4-6" style="fill:currentColor;fill-opacity:1;stroke-width:0.0416075" d="m 4.9361743,4.6795933 -0.05534,0.03002 c -0.07374,0.03985 -0.137895,0.10844 -0.172443,0.184827 -0.02757,0.06095 -0.02801,0.08669 -0.02831,1.099097 l -4.4e-4,1.0364882 h 0.878514 0.878944 l 0.294696,0.8632393 c 0.162063,0.4747737 0.299317,0.8679905 0.304992,0.8739606 0.0078,0.00824 0.69681,-1.9927541 1.083987,-3.1480581 0.02364,-0.07055 0.04752,-0.128221 0.05277,-0.128221 0.0052,0 0.198991,0.433518 0.430678,0.963586 0.231685,0.5300689 0.424772,0.9636319 0.429391,0.9635864 0.0046,-4.57e-5 0.205371,-0.5059425 0.445691,-1.1243984 0.24032,-0.618456 0.439944,-1.126619 0.443976,-1.129115 0.004,-0.0025 0.2900937,0.843765 0.6357207,1.8804293 l 0.62843,1.8847181 h 0.533199 0.532771 l -4.39e-4,-1.9863515 c -2.86e-4,-1.9677009 -3.3e-4,-1.9871479 -0.0283,-2.0489609 -0.03455,-0.07639 -0.09871,-0.144976 -0.172443,-0.184826 l -0.05533,-0.03002 H 8.4665403 Z m -0.256519,3.320878 v 1.9833495 c 0,2.1635632 -0.0051,2.0230152 0.07721,2.1308682 0.03889,0.05097 0.138434,0.113972 0.205044,0.129936 0.02417,0.0058 1.613761,0.0098 3.532502,0.0086 l 3.4883177,-0.0022 0.05748,-0.03045 c 0.08981,-0.04803 0.138975,-0.09621 0.17759,-0.173677 l 0.0356,-0.07162 V 10.937965 9.9006191 H 11.373598 10.493797 L 10.177652,8.9516132 C 10.003709,8.4297545 9.8576883,8.0050769 9.8533573,8.0077533 c -0.0043,0.00268 -0.176068,0.4387258 -0.381776,0.969161 -0.205708,0.5304356 -0.3793,0.9626482 -0.386066,0.9605844 -0.0068,-0.00204 -0.187773,-0.404437 -0.401937,-0.8941153 -0.214165,-0.4896789 -0.392846,-0.890256 -0.397219,-0.890256 -0.006,0 -0.959193,2.7866826 -1.201523,3.5125656 -0.01988,0.05954 -0.03979,0.104734 -0.04418,0.100347 -0.0044,-0.0044 -0.296154,-0.851606 -0.648591,-1.883003 l -0.640869,-1.8752861 -0.535773,-0.00386 z" class="ColorScheme-Text"/>
<path id="gradient-path1" style="opacity:0.3;baseline-shift:baseline;display:inline;overflow:visible;vector-effect:none;enable-background:accumulate;stop-color:#000000;stop-opacity:1;fill:url(#linearGradient4)" d="M 8.4453131 1.2753492 C 4.4913166 1.2753492 1.2794833 4.4784283 1.2794833 8.4236094 C 1.2794833 12.36879 4.4913166 15.572386 8.4453131 15.572386 C 12.39931 15.572386 15.611143 12.36879 15.611143 8.4236094 C 15.611143 4.4784283 12.39931 1.2753492 8.4453131 1.2753492 z "/>
</svg>
