<?xml version="1.0" encoding="UTF-8" standalone="no"?>
<svg
   width="64"
   height="64"
   version="1.1"
   viewBox="0 0 16.933 16.933"
   id="svg7"
   sodipodi:docname="vmware.svg"
   inkscape:version="1.4.2 (ebf0e940d0, 2025-05-08)"
   xmlns:inkscape="http://www.inkscape.org/namespaces/inkscape"
   xmlns:sodipodi="http://sodipodi.sourceforge.net/DTD/sodipodi-0.dtd"
   xmlns:xlink="http://www.w3.org/1999/xlink"
   xmlns="http://www.w3.org/2000/svg"
   xmlns:svg="http://www.w3.org/2000/svg"
   xmlns:rdf="http://www.w3.org/1999/02/22-rdf-syntax-ns#"
   xmlns:cc="http://creativecommons.org/ns#"
   xmlns:dc="http://purl.org/dc/elements/1.1/">
  <sodipodi:namedview
     id="namedview7"
     pagecolor="#9c4444"
     bordercolor="#000000"
     borderopacity="0.25"
     inkscape:showpageshadow="2"
     inkscape:pageopacity="0.0"
     inkscape:pagecheckerboard="0"
     inkscape:deskcolor="#d1d1d1"
     inkscape:zoom="8.7062522"
     inkscape:cx="70.926041"
     inkscape:cy="1.4931798"
     inkscape:window-width="2560"
     inkscape:window-height="1392"
     inkscape:window-x="0"
     inkscape:window-y="0"
     inkscape:window-maximized="1"
     inkscape:current-layer="svg7"
     showgrid="false" />
  <defs
     id="defs2">
    <filter
       style="color-interpolation-filters:sRGB;"
       inkscape:label="Blur"
       id="filter3"
       x="-0.10843471"
       y="-0.10870992"
       width="1.2168694"
       height="1.2174198">
      <feGaussianBlur
         stdDeviation="0.5 0.5"
         result="blur"
         id="feGaussianBlur3" />
    </filter>
    <style
       id="current-color-scheme"
       type="text/css">.ColorScheme-Text {color:#d8dee9} .ColorScheme-Highlight {color:#3b4252}</style>
    <linearGradient
       id="linearGradient3"
       inkscape:collect="always">
      <stop
         style="stop-color:#000000;stop-opacity:1;"
         offset="0"
         id="stop3" />
      <stop
         style="stop-color:#000000;stop-opacity:0;"
         offset="1"
         id="stop4" />
    </linearGradient>
    <linearGradient
       inkscape:collect="always"
       xlink:href="#linearGradient3"
       id="linearGradient4"
       x1="13.512321"
       y1="13.490874"
       x2="3.3783066"
       y2="3.3568602"
       gradientUnits="userSpaceOnUse" />
  </defs>
  <metadata
     id="metadata2">
    <rdf:RDF>
      <cc:Work
         rdf:about="">
        <dc:format>image/svg+xml</dc:format>
        <dc:type
           rdf:resource="http://purl.org/dc/dcmitype/StillImage" />
      </cc:Work>
    </rdf:RDF>
  </metadata>
  <ellipse
     style="opacity:1;fill:none;stroke:#000000;stroke-width:0.582072;stroke-dasharray:none;stroke-opacity:1;filter:url(#filter3)"
     id="path1-5"
     cx="8.4450111"
     cy="8.423522"
     rx="6.8752708"
     ry="6.8578653" />
  <ellipse
     style="opacity:1;fill:none;stroke-width:0.58207188;stroke-opacity:1;stroke:currentColor;stroke-dasharray:none;fill-opacity:1"
     id="path1"
     cx="8.4450111"
     cy="8.423522"
     rx="6.8752708"
     ry="6.8578653"
     class="ColorScheme-Text" />
  <ellipse
     style="fill:currentColor;stroke:none;stroke-width:0.285844;stroke-dasharray:none;stroke-opacity:1"
     id="path1-2"
     cx="8.4557552"
     cy="8.423522"
     rx="6.5738997"
     ry="6.5692253"
     class="ColorScheme-Highlight" />
  <path
     id="path5-6"
     style="opacity:0.3;fill:#000000;fill-opacity:1;stroke-width:0.204609"
     d="m 6.624748,5.0269844 c -0.273406,0 -0.489505,0.216099 -0.489505,0.489505 v 0.900292 h 4.910434 V 9.9374186 H 7.524738 V 8.3003054 H 6.135243 V 10.83771 c 0,0.273406 0.216099,0.489505 0.489505,0.489505 h 5.32122 c 0.273405,0 0.489204,-0.216099 0.489204,-0.489505 V 5.5164894 c 0,-0.273406 -0.215799,-0.489505 -0.489204,-0.489505 z m -1.635907,1.637415 c -0.273406,0 -0.491013,0.216166 -0.491013,0.489203 v 5.3200136 c 0,0.273037 0.217976,0.490712 0.491013,0.490712 h 5.319712 c 0.273038,0 0.489506,-0.217306 0.489506,-0.490712 V 11.574833 H 9.286112 6.611176 5.887624 v -0.723551 c -9.6e-5,-0.0034 0,-0.01159 0,-0.01357 V 8.0523864 H 7.648698 9.40977 v 1.6374139 h 1.388289 V 7.1324904 c -0.0084,-0.255222 -0.213527,-0.459287 -0.472918,-0.468091 H 6.011283 Z" />
  <path
     id="path5-6-5"
     style="fill:currentColor;stroke-width:0.204609"
     d="m 6.624748,4.4978281 c -0.273406,0 -0.489505,0.216099 -0.489505,0.489505 v 0.900292 h 4.910434 V 9.4082623 H 7.524738 V 7.7711491 H 6.135243 v 2.5374049 c 0,0.273406 0.216099,0.489505 0.489505,0.489505 h 5.32122 c 0.273405,0 0.489204,-0.216099 0.489204,-0.489505 V 4.9873331 c 0,-0.273406 -0.215799,-0.489505 -0.489204,-0.489505 z m -1.635907,1.637415 c -0.273406,0 -0.491013,0.216166 -0.491013,0.489203 V 11.94446 c 0,0.273037 0.217976,0.490712 0.491013,0.490712 h 5.319712 c 0.273038,0 0.489506,-0.217306 0.489506,-0.490712 V 11.045677 H 9.286112 6.611176 5.887624 v -0.723551 c -9.6e-5,-0.0034 0,-0.01159 0,-0.01357 V 7.5232301 H 7.648698 9.40977 V 9.160644 h 1.388289 V 6.6033341 c -0.0084,-0.255222 -0.213527,-0.459287 -0.472918,-0.468091 H 6.011283 Z"
     class="ColorScheme-Text" />
  <path
     id="gradient-path1"
     style="opacity:0.3;baseline-shift:baseline;display:inline;overflow:visible;vector-effect:none;enable-background:accumulate;stop-color:#000000;stop-opacity:1;fill:url(#linearGradient4)"
     d="M 8.4453131 1.2753492 C 4.4913166 1.2753492 1.2794833 4.4784283 1.2794833 8.4236094 C 1.2794833 12.36879 4.4913166 15.572386 8.4453131 15.572386 C 12.39931 15.572386 15.611143 12.36879 15.611143 8.4236094 C 15.611143 4.4784283 12.39931 1.2753492 8.4453131 1.2753492 z " />
</svg>
