<?xml version="1.0" encoding="UTF-8" standalone="no"?>
<svg
   width="64"
   height="64"
   version="1.1"
   viewBox="0 0 16.933 16.933"
   id="svg7"
   sodipodi:docname="vmware-netcfg.svg"
   inkscape:version="1.4.2 (ebf0e940d0, 2025-05-08)"
   xmlns:inkscape="http://www.inkscape.org/namespaces/inkscape"
   xmlns:sodipodi="http://sodipodi.sourceforge.net/DTD/sodipodi-0.dtd"
   xmlns:xlink="http://www.w3.org/1999/xlink"
   xmlns="http://www.w3.org/2000/svg"
   xmlns:svg="http://www.w3.org/2000/svg"
   xmlns:rdf="http://www.w3.org/1999/02/22-rdf-syntax-ns#"
   xmlns:cc="http://creativecommons.org/ns#"
   xmlns:dc="http://purl.org/dc/elements/1.1/">
  <sodipodi:namedview
     id="namedview7"
     pagecolor="#9c4444"
     bordercolor="#000000"
     borderopacity="0.25"
     inkscape:showpageshadow="2"
     inkscape:pageopacity="0.0"
     inkscape:pagecheckerboard="0"
     inkscape:deskcolor="#d1d1d1"
     inkscape:zoom="8.7062522"
     inkscape:cx="71.155761"
     inkscape:cy="1.4931798"
     inkscape:window-width="2560"
     inkscape:window-height="1392"
     inkscape:window-x="0"
     inkscape:window-y="0"
     inkscape:window-maximized="1"
     inkscape:current-layer="svg7"
     showgrid="false" />
  <defs
     id="defs2">
    <filter
       style="color-interpolation-filters:sRGB;"
       inkscape:label="Blur"
       id="filter3"
       x="-0.10843471"
       y="-0.10870992"
       width="1.2168694"
       height="1.2174198">
      <feGaussianBlur
         stdDeviation="0.5 0.5"
         result="blur"
         id="feGaussianBlur3" />
    </filter>
    <style
       id="current-color-scheme"
       type="text/css">.ColorScheme-Text {color:#d8dee9} .ColorScheme-Highlight {color:#3b4252}</style>
    <linearGradient
       id="linearGradient3"
       inkscape:collect="always">
      <stop
         style="stop-color:#000000;stop-opacity:1;"
         offset="0"
         id="stop3" />
      <stop
         style="stop-color:#000000;stop-opacity:0;"
         offset="1"
         id="stop4" />
    </linearGradient>
    <linearGradient
       inkscape:collect="always"
       xlink:href="#linearGradient3"
       id="linearGradient4"
       x1="13.512321"
       y1="13.490874"
       x2="3.3783066"
       y2="3.3568602"
       gradientUnits="userSpaceOnUse" />
  </defs>
  <metadata
     id="metadata2">
    <rdf:RDF>
      <cc:Work
         rdf:about="">
        <dc:format>image/svg+xml</dc:format>
        <dc:type
           rdf:resource="http://purl.org/dc/dcmitype/StillImage" />
      </cc:Work>
    </rdf:RDF>
  </metadata>
  <ellipse
     style="opacity:1;fill:none;stroke:#000000;stroke-width:0.582072;stroke-dasharray:none;stroke-opacity:1;filter:url(#filter3)"
     id="path1-5"
     cx="8.4450111"
     cy="8.423522"
     rx="6.8752708"
     ry="6.8578653" />
  <ellipse
     style="opacity:1;fill:none;stroke-width:0.58207188;stroke-opacity:1;stroke:currentColor;stroke-dasharray:none;fill-opacity:1"
     id="path1"
     cx="8.4450111"
     cy="8.423522"
     rx="6.8752708"
     ry="6.8578653"
     class="ColorScheme-Text" />
  <ellipse
     style="fill:currentColor;stroke:none;stroke-width:0.285844;stroke-dasharray:none;stroke-opacity:1"
     id="path1-2"
     cx="8.4557552"
     cy="8.423522"
     rx="6.5738997"
     ry="6.5692253"
     class="ColorScheme-Highlight"
     inkscape:label="path1-2" />
  <path
     id="path5-6"
     style="opacity:0.3;fill:#000000;fill-opacity:1;stroke-width:0.330722"
     d="m 6.373061,5.0269844 c -0.305883,0 -0.552245,0.246361 -0.552245,0.552245 v 4.1868782 c 0,0.3059174 0.246362,0.5525364 0.552245,0.5525364 h 4.186879 c 0.305916,0 0.552244,-0.246619 0.552244,-0.5525364 V 5.5792294 c 0,-0.305918 -0.246328,-0.552245 -0.552244,-0.552245 z m 0.770451,1.322988 h 2.645976 v 2.645684 H 7.143512 Z M 8.13568,10.545334 v 0.253307 c 0.105087,-0.02959 0.215975,-0.04563 0.330527,-0.04563 0.114763,0 0.225801,0.01595 0.331113,0.04563 V 10.545334 Z M 5.489996,10.979992 A 0.99216395,0.99216395 0 0 0 4.497828,11.97216 0.99216395,0.99216395 0 0 0 5.489996,12.964328 0.99216395,0.99216395 0 0 0 6.482164,11.97216 0.99216395,0.99216395 0 0 0 5.489996,10.979992 Z m 2.976504,0 A 0.99216395,0.99216395 0 0 0 7.474332,11.97216 0.99216395,0.99216395 0 0 0 8.4665,12.964328 0.99216395,0.99216395 0 0 0 9.458668,11.97216 0.99216395,0.99216395 0 0 0 8.4665,10.979992 Z m 2.976504,0 a 0.99216395,0.99216395 0 0 0 -0.992168,0.992168 0.99216395,0.99216395 0 0 0 0.992168,0.992168 0.99216395,0.99216395 0 0 0 0.992168,-0.992168 0.99216395,0.99216395 0 0 0 -0.992168,-0.992168 z M 6.66293,11.64134 c 0.02965,0.10533 0.04534,0.216354 0.04534,0.331113 0,0.114531 -0.01579,0.225437 -0.04534,0.330527 h 0.630343 c -0.02955,-0.10509 -0.04534,-0.215996 -0.04534,-0.330527 0,-0.114759 0.01569,-0.225783 0.04534,-0.331113 z m 2.97709,0 c 0.02969,0.105319 0.04563,0.216341 0.04563,0.331113 0,0.114544 -0.01604,0.225447 -0.04563,0.330527 h 0.629465 c -0.02959,-0.10508 -0.04563,-0.215983 -0.04563,-0.330527 0,-0.114772 0.01595,-0.225794 0.04563,-0.331113 z" />
  <path
     id="path5-6-5"
     style="fill:currentColor;fill-opacity:1;stroke-width:0.330722"
     d="m 6.373061,4.4978281 c -0.305883,0 -0.552245,0.246361 -0.552245,0.552245 v 4.1868782 c 0,0.305917 0.246362,0.5525368 0.552245,0.5525368 h 4.186879 c 0.305916,0 0.552244,-0.2466198 0.552244,-0.5525368 V 5.0500731 c 0,-0.305918 -0.246328,-0.552245 -0.552244,-0.552245 z m 0.770451,1.322988 h 2.645976 v 2.645684 H 7.143512 Z M 8.13568,10.016178 v 0.253307 c 0.105087,-0.02959 0.215975,-0.04563 0.330527,-0.04563 0.114763,0 0.225801,0.01595 0.331113,0.04563 v -0.253307 z m -2.645684,0.434658 a 0.99216395,0.99216395 0 0 0 -0.992168,0.992168 0.99216395,0.99216395 0 0 0 0.992168,0.992168 0.99216395,0.99216395 0 0 0 0.992168,-0.992168 0.99216395,0.99216395 0 0 0 -0.992168,-0.992168 z m 2.976504,0 A 0.99216395,0.99216395 0 0 0 7.474332,11.443004 0.99216395,0.99216395 0 0 0 8.4665,12.435172 0.99216395,0.99216395 0 0 0 9.458668,11.443004 0.99216395,0.99216395 0 0 0 8.4665,10.450836 Z m 2.976504,0 a 0.99216395,0.99216395 0 0 0 -0.992168,0.992168 0.99216395,0.99216395 0 0 0 0.992168,0.992168 0.99216395,0.99216395 0 0 0 0.992168,-0.992168 0.99216395,0.99216395 0 0 0 -0.992168,-0.992168 z M 6.66293,11.112184 c 0.02965,0.10533 0.04534,0.216354 0.04534,0.331113 0,0.114531 -0.01579,0.225437 -0.04534,0.330527 h 0.630343 c -0.02955,-0.10509 -0.04534,-0.215996 -0.04534,-0.330527 0,-0.114759 0.01569,-0.225783 0.04534,-0.331113 z m 2.97709,0 c 0.02969,0.105319 0.04563,0.216341 0.04563,0.331113 0,0.114544 -0.01604,0.225447 -0.04563,0.330527 h 0.629465 c -0.02959,-0.10508 -0.04563,-0.215983 -0.04563,-0.330527 0,-0.114772 0.01595,-0.225794 0.04563,-0.331113 z"
     class="ColorScheme-Text" />
  <path
     id="gradient-path1"
     style="opacity:0.3;baseline-shift:baseline;display:inline;overflow:visible;vector-effect:none;enable-background:accumulate;stop-color:#000000;stop-opacity:1;fill:url(#linearGradient4)"
     d="M 8.4453131 1.2753492 C 4.4913166 1.2753492 1.2794833 4.4784283 1.2794833 8.4236094 C 1.2794833 12.36879 4.4913166 15.572386 8.4453131 15.572386 C 12.39931 15.572386 15.611143 12.36879 15.611143 8.4236094 C 15.611143 4.4784283 12.39931 1.2753492 8.4453131 1.2753492 z " />
</svg>
