<?xml version="1.0" encoding="UTF-8" standalone="no"?>
<svg
   width="64"
   height="64"
   version="1.1"
   viewBox="0 0 16.933 16.933"
   id="svg7"
   sodipodi:docname="waterfox.svg"
   inkscape:version="1.4.2 (ebf0e940d0, 2025-05-08)"
   xmlns:inkscape="http://www.inkscape.org/namespaces/inkscape"
   xmlns:sodipodi="http://sodipodi.sourceforge.net/DTD/sodipodi-0.dtd"
   xmlns:xlink="http://www.w3.org/1999/xlink"
   xmlns="http://www.w3.org/2000/svg"
   xmlns:svg="http://www.w3.org/2000/svg"
   xmlns:rdf="http://www.w3.org/1999/02/22-rdf-syntax-ns#"
   xmlns:cc="http://creativecommons.org/ns#"
   xmlns:dc="http://purl.org/dc/elements/1.1/">
  <sodipodi:namedview
     id="namedview7"
     pagecolor="#9c4444"
     bordercolor="#000000"
     borderopacity="0.25"
     inkscape:showpageshadow="2"
     inkscape:pageopacity="0.0"
     inkscape:pagecheckerboard="0"
     inkscape:deskcolor="#d1d1d1"
     inkscape:zoom="4.3531261"
     inkscape:cx="36.066035"
     inkscape:cy="26.417797"
     inkscape:window-width="2560"
     inkscape:window-height="1392"
     inkscape:window-x="0"
     inkscape:window-y="0"
     inkscape:window-maximized="1"
     inkscape:current-layer="svg7"
     showgrid="false" />
  <defs
     id="defs2">
    <filter
       style="color-interpolation-filters:sRGB;"
       inkscape:label="Blur"
       id="filter3"
       x="-0.10843471"
       y="-0.10870992"
       width="1.2168694"
       height="1.2174198">
      <feGaussianBlur
         stdDeviation="0.5 0.5"
         result="blur"
         id="feGaussianBlur3" />
    </filter>
    <style
       id="current-color-scheme"
       type="text/css">.ColorScheme-Text {color:#d8dee9} .ColorScheme-Highlight {color:#3b4252}</style>
    <linearGradient
       id="linearGradient3"
       inkscape:collect="always">
      <stop
         style="stop-color:#000000;stop-opacity:1;"
         offset="0"
         id="stop3" />
      <stop
         style="stop-color:#000000;stop-opacity:0;"
         offset="1"
         id="stop4" />
    </linearGradient>
    <linearGradient
       inkscape:collect="always"
       xlink:href="#linearGradient3"
       id="linearGradient4"
       x1="13.512321"
       y1="13.490874"
       x2="3.3783066"
       y2="3.3568602"
       gradientUnits="userSpaceOnUse" />
  </defs>
  <metadata
     id="metadata2">
    <rdf:RDF>
      <cc:Work
         rdf:about="">
        <dc:format>image/svg+xml</dc:format>
        <dc:type
           rdf:resource="http://purl.org/dc/dcmitype/StillImage" />
      </cc:Work>
    </rdf:RDF>
  </metadata>
  <ellipse
     style="opacity:1;fill:none;stroke:#000000;stroke-width:0.582072;stroke-dasharray:none;stroke-opacity:1;filter:url(#filter3)"
     id="path1-5"
     cx="8.4450111"
     cy="8.423522"
     rx="6.8752708"
     ry="6.8578653" />
  <ellipse
     style="opacity:1;fill:none;stroke-width:0.58207188;stroke-opacity:1;stroke:currentColor;stroke-dasharray:none;fill-opacity:1"
     id="path1"
     cx="8.4450111"
     cy="8.423522"
     rx="6.8752708"
     ry="6.8578653"
     class="ColorScheme-Text" />
  <ellipse
     style="fill:currentColor;stroke:none;stroke-width:0.285844;stroke-dasharray:none;stroke-opacity:1"
     id="path1-2"
     cx="8.4557552"
     cy="8.423522"
     rx="6.5738997"
     ry="6.5692253"
     class="ColorScheme-Highlight" />
  <path
     id="path3"
     d="m 10.233175,5.3098184 c -0.226914,0 -0.4110207,0.1840696 -0.4110207,0.4109837 0,0.2269141 0.1839137,0.4110214 0.4110207,0.4110214 0.226915,0 0.410985,-0.1841073 0.410985,-0.4110214 0,-0.2269141 -0.183876,-0.4109837 -0.410985,-0.4109837 z M 8.6480181,5.5577939 C 8.4199389,5.5528219 8.1539393,5.6430289 7.8915645,5.8762409 7.1623775,6.5244286 7.4334698,7.5347815 7.5445053,7.5752812 7.6555399,7.6157805 7.5619445,7.2685245 8.5554439,6.881162 9.6752389,6.4442892 9.3322577,5.5727268 8.6480181,5.5577939 Z M 6.7046741,7.034292 C 6.5609445,7.038752 6.4088365,7.129706 6.3256331,7.341385 6.1946392,7.6750708 6.3821951,8.1874306 6.8026981,8.3405153 6.9024901,8.3767513 6.7478791,8.0473048 6.9955301,7.5744863 7.1604839,7.2597179 6.9442176,7.0268664 6.7046741,7.034292 Z M 9.7747323,7.067219 C 9.4262743,7.0794639 9.0174777,7.2033535 8.6287922,7.4417556 8.2401056,7.680158 7.8713752,8.0324018 7.5982097,8.4994739 7.3180706,8.9781098 6.684627,10.080987 6.2796486,10.786888 l -0.043518,0.07584 -0.00203,-0.0017 c -0.1184293,0.174945 -0.3185855,0.289457 -0.5451528,0.289457 -0.1074846,0 -0.2090147,-0.02579 -0.2986902,-0.07156 l 0.4867149,1.098706 c 0.1120417,0.252986 0.3318654,0.423192 0.5814105,0.481645 h 3.85e-5 v 3.9e-5 h 3.74e-5 3.74e-5 l 0.038268,0.0073 c 0.3485785,0.06629 0.7154313,-0.09211 0.8980029,-0.419915 l 1.133e-4,-1.93e-4 1.133e-4,-1.91e-4 C 7.6266678,11.836049 7.6266528,11.836048 7.902299,11.344906 8.1779451,10.853765 8.497664,10.281514 8.6731337,9.9587877 9.3010997,8.8038706 9.8556173,8.248728 10.21999,7.9289242 10.401822,7.769334 10.535191,7.6667058 10.595776,7.5929539 c 0.03029,-0.036876 0.04114,-0.0624 0.04292,-0.08561 0.0017,-0.02321 -0.0048,-0.052111 -0.0327,-0.09776 C 10.479273,7.202183 10.231502,7.0848585 9.9107423,7.0682771 c -0.04409,-0.00228 -0.08947,-0.00262 -0.135947,-9.744e-4 z M 5.0555541,7.4471301 c -0.1099267,0.00185 -0.2211922,0.0252 -0.3282877,0.072629 C 4.2988835,7.7094767 4.1063809,8.2084884 4.2961099,8.6368971 l 0.9277127,2.0931059 v 3.7e-5 h 3.85e-5 v 3.9e-5 3.7e-5 c 1.71e-5,4.2e-5 5.23e-5,9.9e-5 7.48e-5,1.52e-4 l 3.85e-5,3.8e-5 v 3.8e-5 h 3.85e-5 v 3.8e-5 c 2.78e-5,6.7e-5 1.155e-4,2.24e-4 1.507e-4,3.04e-4 0.084213,0.165784 0.2575922,0.279124 0.4575356,0.279124 0.2015921,0 0.3748774,-0.116012 0.4583685,-0.284688 l -1.519e-4,3.85e-4 c 0.00299,-0.0061 0.00706,-0.01186 0.01189,-0.01718 0.1510228,-0.263236 0.3329453,-0.580215 0.5162375,-0.8989863 L 5.8443702,7.9511042 C 5.7020691,7.6297869 5.385327,7.4415993 5.0555573,7.44713 Z M 11.87745,7.4476905 C 11.547682,7.4421605 11.230889,7.6303736 11.0886,7.951665 l -0.807699,1.8223087 0.561919,1.0086673 v 3.9e-5 h 3.7e-5 c 0.09278,0.130181 0.24419,0.214934 0.416548,0.214934 0.196546,0 0.36595,-0.110173 0.451935,-0.272008 l 3.7e-5,-7.6e-5 0.925518,-2.0880722 C 12.826614,8.2090697 12.634115,7.7100369 12.205738,7.5203192 12.098643,7.4728901 11.987377,7.4495338 11.87745,7.4476905 Z M 9.5806128,8.818746 c -0.2390025,0.3048769 -0.5044781,0.6987528 -0.7858607,1.216336 -0.06317,0.116177 -0.1447838,0.264214 -0.236092,0.42881 l 0.989896,1.776703 c 0.2138302,0.383715 0.6800729,0.535915 1.0742569,0.365756 l 0.0027,-0.0012 0.0028,-9.69e-4 c 0.09275,-0.03155 0.188914,-0.10101 0.268565,-0.183029 0.07965,-0.08202 0.143026,-0.176742 0.174514,-0.249148 l 7.6e-5,-2.25e-4 0.486717,-1.09882 c -0.08963,0.04572 -0.191144,0.07146 -0.298729,0.07146 -0.222816,0 -0.419642,-0.110505 -0.538908,-0.280448 l -0.0021,-0.0031 z m -3.3025157,1.966666 c -7.87e-4,0.0015 -0.00171,0.0029 -0.00257,0.0043 6.662e-4,-0.0011 0.0015,-0.0022 0.00203,-0.0032 2.406e-4,-4.33e-4 3.849e-4,-7.27e-4 5.603e-4,-0.0012 z"
     style="opacity:0.3;fill:#000000;fill-opacity:1;stroke-width:0.0193778" />
  <path
     id="path3-7"
     class="ColorScheme-Text"
     d="m 10.233175,4.7806816 c -0.226914,0 -0.4110207,0.1840695 -0.4110207,0.4109837 0,0.2269141 0.1839137,0.4110214 0.4110207,0.4110214 0.226915,0 0.410985,-0.1841073 0.410985,-0.4110214 0,-0.2269142 -0.183876,-0.4109837 -0.410985,-0.4109837 z M 8.6480181,5.0286571 C 8.4199389,5.0236851 8.1539393,5.1138921 7.8915645,5.3471041 7.1623775,5.9952918 7.4334698,7.0056447 7.5445053,7.0461444 7.6555399,7.0866437 7.5619445,6.7393877 8.5554439,6.3520252 9.6752389,5.9151524 9.3322577,5.04359 8.6480181,5.0286571 Z m -1.943344,1.4764981 c -0.1437296,0.00446 -0.2958376,0.095414 -0.379041,0.307093 -0.1309939,0.3336858 0.056562,0.8460456 0.477065,0.9991303 0.099792,0.036236 -0.054819,-0.2932105 0.192832,-0.766029 C 7.1604839,6.7305811 6.9442176,6.4977296 6.7046741,6.5051552 Z m 3.0700582,0.032927 C 9.4262743,6.5503271 9.0174777,6.6742167 8.6287922,6.9126188 8.2401056,7.1510212 7.8713752,7.503265 7.5982097,7.9703371 7.3180706,8.448973 6.684627,9.55185 6.2796486,10.257752 l -0.043518,0.07584 -0.00203,-0.0017 c -0.1184293,0.174943 -0.3185855,0.289456 -0.5451528,0.289456 -0.1074846,0 -0.2090147,-0.02579 -0.2986902,-0.07157 l 0.4867149,1.098707 c 0.1120417,0.252986 0.3318654,0.423192 0.5814105,0.481645 h 3.85e-5 v 3.8e-5 h 3.74e-5 3.74e-5 l 0.038268,0.0073 c 0.3485785,0.06629 0.7154313,-0.09211 0.8980029,-0.419916 l 1.133e-4,-1.92e-4 1.133e-4,-1.92e-4 c 0.2316725,-0.410311 0.2316575,-0.410312 0.5073037,-0.901453 0.2756461,-0.491142 0.595365,-1.0633923 0.7708347,-1.3861189 0.627966,-1.154917 1.1824841,-1.7100596 1.5468568,-2.0298634 0.181831,-0.1595902 0.3152,-0.2622184 0.375786,-0.3359703 0.03029,-0.036876 0.04114,-0.0624 0.04292,-0.08561 0.0017,-0.02321 -0.0048,-0.052111 -0.0327,-0.09776 C 10.479271,6.6729915 10.2315,6.555667 9.9107403,6.5390856 c -0.04409,-0.00228 -0.08947,-0.00262 -0.135947,-9.744e-4 z M 5.0555541,6.9179933 C 4.9456274,6.919843 4.8343619,6.9431929 4.7272664,6.990622 4.2988835,7.1803399 4.1063809,7.6793516 4.2961099,8.1077603 l 0.9277127,2.0931057 v 3.8e-5 h 3.85e-5 v 3.8e-5 3.8e-5 c 1.71e-5,4.1e-5 5.23e-5,9.8e-5 7.48e-5,1.51e-4 l 3.85e-5,3.8e-5 v 3.8e-5 h 3.85e-5 v 3.8e-5 c 2.78e-5,6.7e-5 1.155e-4,2.23e-4 1.507e-4,3.05e-4 0.084213,0.165783 0.2575922,0.279123 0.4575356,0.279123 0.2015921,0 0.3748774,-0.116012 0.4583685,-0.284688 l -1.519e-4,3.85e-4 c 0.00299,-0.0061 0.00706,-0.01186 0.01189,-0.01718 C 6.3028285,9.9159509 6.484751,9.5989722 6.6680432,9.2802007 L 5.8443702,7.4219674 C 5.7020691,7.1006501 5.385327,6.9124625 5.0555573,6.9179931 Z m 6.8218959,5.604e-4 c -0.329768,-0.00553 -0.646561,0.1826831 -0.78885,0.5039745 l -0.807699,1.8223088 0.561919,1.008668 v 3.7e-5 h 3.7e-5 c 0.09278,0.130182 0.24419,0.214935 0.416548,0.214935 0.196546,0 0.36595,-0.110173 0.451935,-0.272007 l 3.7e-5,-7.6e-5 0.925518,-2.088073 C 12.826614,7.6799329 12.634115,7.1809001 12.205738,6.9911824 12.098643,6.9437533 11.987377,6.920397 11.87745,6.9185537 Z M 9.5806128,8.2896092 C 9.3416103,8.5944861 9.0761347,8.988362 8.7947521,9.5059457 8.7315818,9.6221222 8.6499683,9.7701589 8.5586601,9.9347549 l 0.989896,1.7767031 c 0.2138302,0.383715 0.6800729,0.535915 1.0742569,0.365756 l 0.0027,-0.0012 0.0028,-9.69e-4 c 0.09275,-0.03155 0.188914,-0.10101 0.268565,-0.183029 0.07965,-0.08202 0.143026,-0.176742 0.174514,-0.249148 l 7.6e-5,-2.25e-4 0.486717,-1.09882 c -0.08963,0.04572 -0.191144,0.07146 -0.298729,0.07146 -0.222816,0 -0.419642,-0.110505 -0.538908,-0.280448 l -0.0021,-0.0031 z M 6.2780971,10.256275 c -7.87e-4,0.0015 -0.00171,0.0029 -0.00257,0.0043 6.662e-4,-0.0011 0.0015,-0.0022 0.00203,-0.0032 2.406e-4,-4.33e-4 3.849e-4,-7.27e-4 5.603e-4,-0.0012 z"
     style="fill:currentColor;fill-opacity:1;stroke-width:0.0193778" />
  <path
     id="gradient-path1"
     style="opacity:0.3;baseline-shift:baseline;display:inline;overflow:visible;vector-effect:none;enable-background:accumulate;stop-color:#000000;stop-opacity:1;fill:url(#linearGradient4)"
     d="M 8.4453131 1.2753492 C 4.4913166 1.2753492 1.2794833 4.4784283 1.2794833 8.4236094 C 1.2794833 12.36879 4.4913166 15.572386 8.4453131 15.572386 C 12.39931 15.572386 15.611143 12.36879 15.611143 8.4236094 C 15.611143 4.4784283 12.39931 1.2753492 8.4453131 1.2753492 z " />
</svg>
