<?xml version='1.0' encoding='UTF-8'?>
<svg xmlns:inkscape="http://www.inkscape.org/namespaces/inkscape" xmlns:sodipodi="http://sodipodi.sourceforge.net/DTD/sodipodi-0.dtd" xmlns="http://www.w3.org/2000/svg" xmlns:svg="http://www.w3.org/2000/svg" xmlns:rdf="http://www.w3.org/1999/02/22-rdf-syntax-ns#" xmlns:cc="http://creativecommons.org/ns#" xmlns:dc="http://purl.org/dc/elements/1.1/" width="64" height="64" version="1.1" viewBox="0 0 16.933 16.933" id="svg7" sodipodi:docname="wine.svg" inkscape:version="1.4.2 (ebf0e940d0, 2025-05-08)">
  <sodipodi:namedview id="namedview7" pagecolor="#9c4444" bordercolor="#000000" borderopacity="0.25" inkscape:showpageshadow="2" inkscape:pageopacity="0.0" inkscape:pagecheckerboard="0" inkscape:deskcolor="#d1d1d1" inkscape:zoom="4.3531261" inkscape:cx="36.755195" inkscape:cy="26.188077" inkscape:window-width="2560" inkscape:window-height="1376" inkscape:window-x="0" inkscape:window-y="0" inkscape:window-maximized="1" inkscape:current-layer="svg7" showgrid="false"/>
  <defs id="defs2">
    <filter style="color-interpolation-filters:sRGB;" inkscape:label="Blur" id="filter3" x="-0.10843471" y="-0.10870992" width="1.2168694" height="1.2174198">
      <feGaussianBlur stdDeviation="0.5 0.5" result="blur" id="feGaussianBlur3"/>
    </filter>
    <style id="current-color-scheme" type="text/css">.ColorScheme-Text {color:#d8dee9} .ColorScheme-Highlight {color:#3b4252}</style>
  <linearGradient id="linearGradient3" inkscape:collect="always">
      <stop style="stop-color:#000000;stop-opacity:1;" offset="0" id="stop3"/>
      <stop style="stop-color:#000000;stop-opacity:0;" offset="1" id="stop4"/>
    </linearGradient>
    <linearGradient xmlns:xlink="http://www.w3.org/1999/xlink" inkscape:collect="always" xlink:href="#linearGradient3" id="linearGradient4" x1="13.512321" y1="13.490874" x2="3.3783066" y2="3.3568602" gradientUnits="userSpaceOnUse"/>
  </defs>
  <metadata id="metadata2">
    <rdf:RDF>
      <cc:Work rdf:about="">
        <dc:format>image/svg+xml</dc:format>
        <dc:type rdf:resource="http://purl.org/dc/dcmitype/StillImage"/>
      </cc:Work>
    </rdf:RDF>
  </metadata>
  <ellipse style="opacity:1;fill:none;stroke:#000000;stroke-width:0.582072;stroke-dasharray:none;stroke-opacity:1;filter:url(#filter3)" id="path1-5" cx="8.4450111" cy="8.423522" rx="6.8752708" ry="6.8578653"/>
  <ellipse style="opacity:1;fill:none;stroke-width:0.58207188;stroke-opacity:1;stroke:currentColor;stroke-dasharray:none;fill-opacity:1" id="path1" cx="8.4450111" cy="8.423522" rx="6.8752708" ry="6.8578653" class="ColorScheme-Text"/>
  <ellipse style="fill:currentColor;stroke:none;stroke-width:0.285844;stroke-dasharray:none;stroke-opacity:1" id="path1-2" cx="8.4557552" cy="8.423522" rx="6.5738997" ry="6.5692253" class="ColorScheme-Highlight"/>
<path style="opacity:0.3;fill:#000000;fill-opacity:1;stroke-width:0.0124558" d="m 6.7270006,12.80716 v -0.107968 l 0.220053,-3.23e-4 c 0.434191,-5.89e-4 0.873636,-0.09802 1.090919,-0.241789 0.03392,-0.02245 0.07981,-0.07245 0.10195,-0.111106 l 0.04027,-0.07029 0.0047,-0.946643 c 0.0053,-1.037881 0.0022,-1.080826 -0.0949,-1.3309743 C 7.9870936,9.7329425 7.7763426,9.499191 7.2576046,9.0748469 7.0329006,8.8910329 6.9042796,8.7334349 6.7833906,8.4937961 6.5265566,7.9846806 6.4809176,7.1466399 6.6610336,6.2470503 c 0.08612,-0.4301769 0.295924,-1.1262189 0.347823,-1.1539954 0.0206,-0.011018 0.525768,-0.016859 1.460467,-0.016859 h 1.428978 l 0.02578,0.039341 c 0.05922,0.090384 0.2429414,0.6903106 0.3218934,1.0511443 0.09599,0.438662 0.134712,0.7791393 0.134712,1.1839687 0,0.3192362 -0.0048,0.3884378 -0.04076,0.5682878 -0.07628,0.3832071 -0.169503,0.6136338 -0.33957,0.8393317 -0.1083814,0.1438312 -0.1760554,0.209495 -0.4372234,0.4242341 -0.488473,0.4016326 -0.656902,0.6221979 -0.764076,1.0005845 -0.03726,0.131549 -0.03761,0.142564 -0.03621,1.11272 0.0016,1.082507 -0.003,1.034578 0.108415,1.128363 0.103221,0.08684 0.300941,0.169548 0.496356,0.207596 0.08147,0.01591 0.7575574,0.08402 0.8334684,0.08402 0.02576,0 0.03014,0.0143 0.03014,0.09965 v 0.09968 H 8.4791046 6.7269826 Z m 2.139253,-0.11665 c -0.0047,-0.0047 -0.04396,-0.03376 -0.08709,-0.06443 -0.04311,-0.03064 -0.107029,-0.09384 -0.142032,-0.140419 -0.05825,-0.07753 -0.06452,-0.09634 -0.07419,-0.222061 -0.0058,-0.07555 -0.01202,-0.529722 -0.01405,-1.009274 -0.0037,-0.946193 -5.6e-5,-0.995718 0.09392,-1.2719902 0.10807,-0.3177026 0.239447,-0.4821751 0.733067,-0.9176931 C 9.8140736,8.6780767 9.9403026,8.5241962 10.049097,8.2440199 10.23057,7.7766667 10.221009,6.9640813 10.024238,6.1308333 9.9542076,5.8342848 9.8134896,5.3764122 9.7788446,5.3323702 l -0.0321,-0.040823 -1.287133,0.00443 -1.287134,0.00443 -0.03164,0.039085 c -0.03975,0.049097 -0.09308,0.2210118 -0.196584,0.633544 -0.233635,0.9312772 -0.246323,1.7401519 -0.03585,2.2859078 0.10938,0.2836489 0.237806,0.4490106 0.553686,0.7129657 0.289388,0.2418194 0.539345,0.4814307 0.638033,0.6116237 0.08521,0.1124165 0.207436,0.3595223 0.235059,0.4752266 0.05609,0.234953 0.06921,0.467482 0.06777,1.200552 -7.45e-4,0.403721 -0.0066,0.830402 -0.01304,0.948169 l -0.01151,0.214132 -0.145502,0.138784 -0.145502,0.138787 h 0.39379 c 0.216587,0 0.389883,-0.0038 0.385107,-0.0086 z M 8.4365636,9.6402337 C 8.4086456,9.5556469 8.3173536,9.4133782 8.2229916,9.3074119 8.1845226,9.2642084 7.9857556,9.0939234 7.7812856,8.9289939 7.5768146,8.7640634 7.3711956,8.586414 7.3243526,8.534217 7.0648756,8.245088 6.9396146,7.7150131 6.9869816,7.1065398 l 0.01067,-0.1370143 h 1.466207 1.466209 l 0.01097,0.034617 c 0.01957,0.061654 0.01372,0.6174604 -0.0078,0.7542542 -0.04684,0.2963121 -0.154307,0.5681503 -0.294435,0.7447932 -0.0418,0.052668 -0.21757,0.208605 -0.408855,0.3626866 -0.184557,0.1486642 -0.379504,0.3115528 -0.433213,0.361974 -0.120045,0.1126945 -0.246485,0.2892007 -0.286108,0.3993902 -0.01625,0.045412 -0.0345,0.082569 -0.04035,0.082569 -0.0059,0 -0.021,-0.031306 -0.03364,-0.069574 z" id="path1-4" class="ColorScheme-Text"/>
  <path style="fill:currentColor;stroke-width:0.0124558" d="m 6.7270006,12.278003 v -0.107968 l 0.220053,-3.23e-4 c 0.434191,-5.89e-4 0.873636,-0.09802 1.090919,-0.241789 0.03392,-0.02245 0.07981,-0.07245 0.10195,-0.111106 l 0.04027,-0.07029 0.0047,-0.946643 c 0.0053,-1.037881 0.0022,-1.080826 -0.0949,-1.330974 C 7.9870936,9.203788 7.7763426,8.970036 7.2576046,8.545692 7.0329006,8.361878 6.9042796,8.20428 6.7833906,7.964641 6.5265566,7.455526 6.4809176,6.617485 6.6610336,5.717895 6.7471536,5.287719 6.9569576,4.591677 7.0088566,4.5639 c 0.0206,-0.01102 0.525768,-0.01686 1.460467,-0.01686 h 1.428978 l 0.02578,0.03934 c 0.05922,0.09038 0.2429414,0.690311 0.3218934,1.051144 0.09599,0.438662 0.134712,0.77914 0.134712,1.183969 0,0.319236 -0.0048,0.388438 -0.04076,0.568288 -0.07628,0.383207 -0.169503,0.613634 -0.33957,0.839332 -0.1083814,0.143831 -0.1760554,0.209495 -0.4372234,0.424234 -0.488473,0.401632 -0.656902,0.622198 -0.764076,1.000584 -0.03726,0.131549 -0.03761,0.142564 -0.03621,1.11272 0.0016,1.082507 -0.003,1.034578 0.108415,1.128363 0.103221,0.08684 0.300941,0.169548 0.496356,0.207596 0.08147,0.01591 0.7575574,0.08402 0.8334684,0.08402 0.02576,0 0.03014,0.0143 0.03014,0.09965 v 0.09968 H 8.4791046 6.7269826 Z m 2.139253,-0.11665 c -0.0047,-0.0047 -0.04396,-0.03376 -0.08709,-0.06443 -0.04311,-0.03064 -0.107029,-0.09384 -0.142032,-0.140419 -0.05825,-0.07753 -0.06452,-0.09634 -0.07419,-0.222061 -0.0058,-0.07555 -0.01202,-0.529722 -0.01405,-1.009274 -0.0037,-0.946193 -5.6e-5,-0.995718 0.09392,-1.27199 0.10807,-0.317703 0.239447,-0.482175 0.733067,-0.917693 C 9.8140736,8.148919 9.9403026,7.995038 10.049097,7.714862 10.23057,7.247509 10.221009,6.434923 10.024237,5.601675 9.954207,5.305127 9.8134886,4.847254 9.7788436,4.803212 l -0.0321,-0.04082 -1.287133,0.0044 -1.287134,0.0044 -0.03164,0.03909 c -0.03975,0.0491 -0.09308,0.221012 -0.196584,0.633544 -0.233635,0.931277 -0.246323,1.740152 -0.03585,2.285908 0.10938,0.283649 0.237806,0.449011 0.553686,0.712966 0.289388,0.241819 0.539345,0.48143 0.638033,0.611623 0.08521,0.112417 0.207436,0.359523 0.235059,0.475227 0.05609,0.234953 0.06921,0.467483 0.06777,1.200552 -7.45e-4,0.403721 -0.0066,0.830402 -0.01304,0.948169 l -0.01151,0.214132 -0.145502,0.138784 -0.145502,0.138787 h 0.39379 c 0.216587,0 0.389883,-0.0038 0.385107,-0.0086 z M 8.4365636,9.111077 C 8.4086436,9.026487 8.3173536,8.884221 8.2229916,8.778255 8.1845216,8.735055 7.9857556,8.564767 7.7812856,8.399837 7.5768146,8.234907 7.3711956,8.057257 7.3243526,8.00506 7.0648756,7.715931 6.9396146,7.185856 6.9869816,6.577383 l 0.01067,-0.137014 h 1.466207 1.466209 l 0.01097,0.03462 c 0.01957,0.06165 0.01372,0.61746 -0.0078,0.754254 -0.04684,0.296312 -0.154307,0.56815 -0.294435,0.744793 -0.0418,0.05267 -0.21757,0.208605 -0.408855,0.362687 -0.184557,0.148664 -0.379504,0.311553 -0.433213,0.361974 -0.120045,0.112694 -0.246485,0.2892 -0.286108,0.39939 -0.01625,0.04541 -0.0345,0.08257 -0.04035,0.08257 -0.0059,0 -0.021,-0.03131 -0.03364,-0.06957 z" id="path1-4-0" class="ColorScheme-Text"/>
<path id="gradient-path1" style="opacity:0.3;baseline-shift:baseline;display:inline;overflow:visible;vector-effect:none;enable-background:accumulate;stop-color:#000000;stop-opacity:1;fill:url(#linearGradient4)" d="M 8.4453131 1.2753492 C 4.4913166 1.2753492 1.2794833 4.4784283 1.2794833 8.4236094 C 1.2794833 12.36879 4.4913166 15.572386 8.4453131 15.572386 C 12.39931 15.572386 15.611143 12.36879 15.611143 8.4236094 C 15.611143 4.4784283 12.39931 1.2753492 8.4453131 1.2753492 z "/>
</svg>
