<?xml version='1.0' encoding='UTF-8'?>
<svg xmlns:inkscape="http://www.inkscape.org/namespaces/inkscape" xmlns:sodipodi="http://sodipodi.sourceforge.net/DTD/sodipodi-0.dtd" xmlns:xlink="http://www.w3.org/1999/xlink" xmlns="http://www.w3.org/2000/svg" xmlns:svg="http://www.w3.org/2000/svg" xmlns:rdf="http://www.w3.org/1999/02/22-rdf-syntax-ns#" xmlns:cc="http://creativecommons.org/ns#" xmlns:dc="http://purl.org/dc/elements/1.1/" width="64" height="64" version="1.1" viewBox="0 0 16.933 16.933" id="svg7" sodipodi:docname="worldofpadman.svg" inkscape:version="1.4.2 (ebf0e940d0, 2025-05-08)">
  <sodipodi:namedview id="namedview7" pagecolor="#9c4444" bordercolor="#000000" borderopacity="0.25" inkscape:showpageshadow="2" inkscape:pageopacity="0.0" inkscape:pagecheckerboard="0" inkscape:deskcolor="#d1d1d1" inkscape:zoom="4.3531261" inkscape:cx="36.066035" inkscape:cy="26.417797" inkscape:window-width="2560" inkscape:window-height="1372" inkscape:window-x="0" inkscape:window-y="0" inkscape:window-maximized="1" inkscape:current-layer="svg7" showgrid="false"/>
  <defs id="defs2">
    <filter style="color-interpolation-filters:sRGB;" inkscape:label="Blur" id="filter3" x="-0.10843471" y="-0.10870992" width="1.2168694" height="1.2174198">
      <feGaussianBlur stdDeviation="0.5 0.5" result="blur" id="feGaussianBlur3"/>
    </filter>
    <style id="current-color-scheme" type="text/css">.ColorScheme-Text {color:#d8dee9} .ColorScheme-Highlight {color:#3b4252}</style><linearGradient id="linearGradient3" inkscape:collect="always">
      <stop style="stop-color:#000000;stop-opacity:1;" offset="0" id="stop3"/>
      <stop style="stop-color:#000000;stop-opacity:0;" offset="1" id="stop4"/>
    </linearGradient>
    <linearGradient inkscape:collect="always" xlink:href="#linearGradient3" id="linearGradient4" x1="13.512321" y1="13.490874" x2="3.3783066" y2="3.3568602" gradientUnits="userSpaceOnUse"/>
  </defs>
  <metadata id="metadata2">
    <rdf:RDF>
      <cc:Work rdf:about="">
        <dc:format>image/svg+xml</dc:format>
        <dc:type rdf:resource="http://purl.org/dc/dcmitype/StillImage"/>
      </cc:Work>
    </rdf:RDF>
  </metadata>
  <ellipse style="opacity:1;fill:none;stroke:#000000;stroke-width:0.582072;stroke-dasharray:none;stroke-opacity:1;filter:url(#filter3)" id="path1-5" cx="8.4450111" cy="8.423522" rx="6.8752708" ry="6.8578653"/>
  <ellipse style="opacity:1;fill:none;stroke-width:0.58207188;stroke-opacity:1;stroke:currentColor;stroke-dasharray:none;fill-opacity:1" id="path1" cx="8.4450111" cy="8.423522" rx="6.8752708" ry="6.8578653" class="ColorScheme-Text"/>
  <ellipse style="fill:currentColor;stroke:none;stroke-width:0.285844;stroke-dasharray:none;stroke-opacity:1" id="path1-2" cx="8.4557552" cy="8.423522" rx="6.5738997" ry="6.5692253" class="ColorScheme-Highlight"/>
<path id="path10" style="fill:#000000;fill-opacity:1;stroke-width:0.0383638;opacity:0.3" d="M 7.9249095,5.2087495 7.1638417,5.3792927 6.4030709,5.549836 5.8190702,5.8321965 5.2353675,6.1145567 4.7003061,6.7457152 C 4.4060012,7.092729 4.1529365,7.3934422 4.1379579,7.4142451 4.1229828,7.4350491 4.1067339,7.4758963 4.1020707,7.5050026 4.0848001,7.6130019 3.9549717,8.6016739 3.935384,8.7744379 L 3.915217,8.9535826 4.1438938,9.5737671 c 0.125801,0.341119 0.2424608,0.6531729 0.2592253,0.6934439 0.029553,0.07098 0.042173,0.08272 0.4140486,0.382611 0.9621598,0.775898 0.9284407,0.750108 1.0446149,0.792802 0.2030462,0.07462 1.0409289,0.366117 1.2207938,0.424728 l 0.1806281,0.05902 0.7770848,0.04538 0.7770835,0.04508 0.4552772,-0.06971 c 0.250349,-0.03837 0.488054,-0.07353 0.528232,-0.0783 l 0.07327,-0.0089 0.815641,0.444006 c 0.622548,0.338723 0.833905,0.447686 0.892461,0.460615 0.08341,0.01843 0.147112,0.0235 0.147112,0.01154 0,-0.0042 -0.09757,-0.275987 -0.216515,-0.604168 -0.118959,-0.328182 -0.232454,-0.644244 -0.252404,-0.702341 l -0.03648,-0.105595 0.03855,-0.03174 c 0.02111,-0.01738 0.195593,-0.156534 0.38795,-0.309352 0.192355,-0.152815 0.380044,-0.312835 0.417016,-0.355322 0.06786,-0.07799 0.437383,-0.539041 0.630565,-0.7868719 0.124417,-0.159617 0.108779,-0.105115 0.232235,-0.8079303 l 0.0875,-0.4979871 -0.09995,-0.4273966 C 12.862898,7.9123549 12.802593,7.6581666 12.783762,7.5824168 L 12.749356,7.4444979 12.312173,6.9266395 C 11.807589,6.3289658 11.925508,6.4308268 11.191036,5.9603264 L 10.743174,5.6732204 10.045578,5.4561113 9.347686,5.2387058 8.6364455,5.2238756 Z m 0.051006,0.3974399 0.6542932,0.013348 0.6539963,0.013643 0.620186,0.1924914 c 0.341165,0.1059898 0.634536,0.1981555 0.651623,0.204652 0.01709,0.0065 0.255858,0.1563843 0.530908,0.3330786 l 0.500063,0.3212145 0.394178,0.4668438 c 0.316646,0.3752513 0.397261,0.4784201 0.411083,0.5255697 0.0095,0.032262 0.06188,0.2502897 0.116568,0.4843429 l 0.09936,0.4253204 -0.08632,0.487309 c -0.04763,0.2683545 -0.09515,0.5003394 -0.105595,0.5160784 -0.02008,0.03028 -0.342485,0.4384829 -0.546331,0.6916639 -0.113611,0.141113 -0.147118,0.171474 -0.517858,0.469217 -0.483395,0.388219 -0.522034,0.433775 -0.521714,0.619591 1.32e-4,0.07879 0.01202,0.122538 0.09788,0.364518 0.05369,0.151211 0.09758,0.279154 0.09758,0.284437 0,0.0053 -0.0043,0.0091 -0.0095,0.0087 -0.0053,-5.72e-4 -0.217855,-0.115149 -0.472182,-0.254479 -0.254327,-0.139327 -0.493053,-0.263938 -0.530611,-0.277023 -0.109512,-0.03815 -0.246253,-0.02898 -0.765221,0.05161 -0.3654393,0.05675 -0.4848128,0.07083 -0.5498917,0.06496 -0.045718,-0.0041 -0.3738504,-0.02388 -0.7290361,-0.04419 l -0.6456807,-0.03708 -0.2811747,-0.0955 C 6.5956706,11.284466 5.9594856,11.058383 5.9439373,11.046076 5.8880959,11.001879 5.276502,10.510214 5.0452484,10.323565 L 4.7619981,10.094889 4.5428135,9.4987291 4.3236265,8.902272 4.350322,8.6913914 C 4.4581998,7.8407356 4.4925883,7.611158 4.5158224,7.5856776 4.5288264,7.5714189 4.7531177,7.3067275 5.0144018,6.9975257 L 5.4895499,6.4354744 6.0044432,6.1854432 6.5193352,5.9357084 6.7106405,5.8929984 C 6.8158142,5.8695707 7.1433839,5.7955826 7.4387861,5.7283868 Z m 2.1283815,1.1157981 c -0.04794,0 -0.09085,0.006 -0.09521,0.013051 -0.0043,0.00705 0.02441,0.1174302 0.06376,0.2452859 0.03936,0.1278551 0.07685,0.2729769 0.08334,0.3226973 0.0065,0.049721 0.03886,0.4110702 0.07177,0.8028883 l 0.05962,0.7124262 -0.03946,0.6430219 -0.03974,0.6433189 -0.103215,0.266937 c -0.05678,0.146875 -0.100186,0.27026 -0.09639,0.274057 0.0038,0.0037 0.08904,-0.01166 0.189228,-0.03411 0.22465,-0.0504 0.270555,-0.05025 0.629675,0.0038 0.154736,0.02332 0.293365,0.04311 0.308165,0.04389 0.02509,0.0013 0.01891,-0.02359 -0.09195,-0.370154 l -0.118934,-0.3716369 -0.0089,-0.28058 c -0.0081,-0.248081 -0.0069,-0.2805809 0.0107,-0.2805809 0.01082,0 0.104898,0.011586 0.209101,0.025508 l 0.189526,0.02521 0.07771,-0.053981 c 0.04275,-0.029751 0.16437,-0.1144892 0.270497,-0.1883391 L 11.866696,9.030385 11.985932,8.7818363 12.104867,8.5329915 12.090036,8.1812273 12.075205,7.8291667 11.969911,7.5586703 11.864918,7.2878771 11.646919,7.1538155 c -0.119944,-0.073727 -0.22437,-0.1373162 -0.23194,-0.1414771 -0.0076,-0.00417 -0.153741,-0.016959 -0.324774,-0.028177 L 10.779371,6.9640073 10.485443,6.8429956 C 10.21293,6.730906 10.185117,6.7219866 10.104302,6.7219866 Z m -3.7786472,0.015721 c -0.00805,-6.645e-4 -0.012559,-4.812e-4 -0.013641,5.958e-4 -0.027162,0.027154 0.027234,0.070002 0.3769739,0.2971904 0.1291374,0.083888 0.2528652,0.1736842 0.2749456,0.1996097 0.022078,0.025925 0.1105459,0.1616742 0.1966439,0.3016394 l 0.1566032,0.2544799 -0.00865,0.2037622 -0.00829,0.2034657 -0.052196,0.086606 c -0.028688,0.04769 -0.055513,0.086606 -0.059624,0.086606 -0.00409,0 -0.038687,-0.021503 -0.076822,-0.048049 L 7.0425404,8.2752686 6.9977596,8.0999798 6.9526795,7.924988 6.7673077,7.737835 6.5819335,7.5509787 6.5065896,7.6322465 c -0.0415,0.044586 -0.1465617,0.1604216 -0.2334229,0.2577429 L 6.1153773,8.0670577 v 0.067327 c 0,0.036992 -0.00385,0.1192461 -0.00829,0.1830003 l -0.00829,0.1159699 -0.082747,0.035295 c -0.097362,0.041378 -0.097326,0.041465 -0.220074,-0.075929 L 5.7176763,8.3176819 5.6776423,8.065871 5.6375963,7.8140603 5.7304393,7.5589867 c 0.051139,-0.140255 0.1036353,-0.2733366 0.1165191,-0.2957066 0.012896,-0.022369 0.0961,-0.1306923 0.1850774,-0.240837 0.088985,-0.1101433 0.1592953,-0.2031451 0.1560095,-0.2064313 -0.00324,-0.00328 -0.1666615,0.074384 -0.363035,0.1726196 L 5.4679022,7.1674798 5.2475314,7.5518694 C 5.1263299,7.7633845 5.019238,7.9553908 5.0096605,7.978376 4.9907195,8.023829 4.8364478,8.8617906 4.8364478,8.919182 c 0,0.033165 0.1090917,0.6294511 0.1216042,0.6646741 0.00757,0.02137 0.00721,0.02171 0.3829075,-0.207025 C 5.6270449,9.2026235 5.680562,9.1747569 5.680562,9.2003558 c 0,0.013146 -0.091004,0.1589826 -0.2728687,0.4374803 -0.087975,0.134725 -0.1419647,0.228918 -0.1355444,0.236981 0.00589,0.0074 0.084406,0.05591 0.1743989,0.107665 l 0.1637217,0.09402 0.1340614,0.198423 c 0.073853,0.109188 0.1626773,0.238945 0.1972376,0.288293 l 0.062881,0.08987 0.045971,-0.178254 c 0.025359,-0.09808 0.077639,-0.307979 0.1159663,-0.466251 l 0.069695,-0.2876989 0.1468165,-0.107368 0.147111,-0.107072 0.1474079,0.04805 0.1477059,0.04834 0.2470662,0.4137529 c 0.1358797,0.227667 0.2509987,0.41405 0.2559624,0.41405 0.00505,0 0.054876,-0.09362 0.1109305,-0.207915 L 7.5411186,10.015109 7.7161112,9.8359641 7.8913996,9.6568201 8.0130049,9.3020912 8.1346103,8.9470644 8.1470735,8.6246638 8.1592362,8.3022626 8.0050042,7.8416474 C 7.920042,7.5881906 7.8452077,7.3741113 7.8388908,7.3659051 7.832521,7.3576965 7.6851276,7.2553315 7.5111505,7.1387114 L 7.1949804,6.9266421 6.9523634,6.8702886 C 6.6042169,6.7893907 6.3816347,6.7424034 6.3256538,6.7377085 Z m 2.7064484,0.8989852 -0.042113,0.024321 C 8.9668382,7.6744513 8.8743681,7.7311532 8.7844434,7.7867718 L 8.6207217,7.8879109 8.4860667,8.1569242 8.3514116,8.425938 8.32175,8.9073151 l -0.029662,0.48108 0.1465197,0.409304 0.1462228,0.4090069 0.1984227,0.199314 0.1984251,0.199313 0.1877454,0.02639 c 0.1032153,0.01443 0.1974323,0.02679 0.2093973,0.02758 0.01202,7.8e-4 0.101075,-0.03632 0.198127,-0.08245 l 0.176476,-0.08394 0.101135,-0.168467 0.100847,-0.168764 0.07296,-0.3532466 0.07326,-0.35295 -0.0056,-0.3120206 -0.0057,-0.3117144 L 9.980369,8.4837741 9.870628,8.1420941 9.677841,7.945747 9.485052,7.7491033 9.258451,7.6930467 Z m 2.2176558,0.3692637 0.151266,0.1402903 c 0.0833,0.077123 0.154074,0.1466917 0.157196,0.1548238 0.0031,0.00812 -0.0076,0.095103 -0.02372,0.1930845 l -0.02936,0.178255 -0.08305,0.054574 c -0.04561,0.030095 -0.120376,0.077248 -0.166094,0.1046989 -0.04572,0.027451 -0.103215,0.052693 -0.127833,0.056057 -0.03527,0.00482 -0.127779,-0.0058 -0.254479,-0.029065 -0.0079,-0.00142 0.0107,-0.5663915 0.02284,-0.6952239 0.0058,-0.061749 0.01484,-0.1162763 0.01987,-0.1213079 0.005,-0.00504 0.08201,-0.015105 0.171137,-0.022541 z m -1.889026,1.1021545 0.05577,0.046566 c 0.03061,0.025479 0.09221,0.079702 0.136732,0.1207154 l 0.08097,0.074742 0.0356,0.1690598 0.03589,0.16906 -0.0433,0.187747 c -0.0237,0.103296 -0.04446,0.1891139 -0.04627,0.1907109 -0.0018,0.0016 -0.0621,0.03224 -0.134061,0.06822 -0.07195,0.03598 -0.132474,0.06498 -0.134358,0.06436 -0.0019,-6.19e-4 -0.05668,-0.01901 -0.1216058,-0.04093 l -0.1180455,-0.03974 -0.069106,-0.2076179 -0.069395,-0.207321 0.067616,-0.221262 0.067616,-0.2212609 0.061991,-0.041821 c 0.034,-0.022965 0.091437,-0.057462 0.1278333,-0.076522 z"/>
  <path id="path10-6" style="fill:currentColor;fill-opacity:1;stroke-width:0.0383639" d="M 7.9249091,4.6796002 7.1638407,4.850144 6.4030691,5.0206876 5.8190679,5.3030475 5.2353647,5.5854087 4.7003028,6.2165669 C 4.4059976,6.5635816 4.1529327,6.864295 4.1379541,6.8850978 4.122979,6.9059018 4.10673,6.9467526 4.1020669,6.9758494 4.0847963,7.0838475 3.9549678,8.0725221 3.93538,8.2452855 L 3.915213,8.4244307 4.14389,9.044616 c 0.1258011,0.3411191 0.242461,0.6531741 0.2592256,0.6934441 0.029553,0.07097 0.042173,0.08272 0.414049,0.3826109 0.9621605,0.775899 0.9284415,0.750109 1.0446158,0.792804 0.2030464,0.07462 1.0409298,0.366116 1.2207949,0.424727 l 0.1806282,0.05902 0.7770855,0.04538 0.7770843,0.04508 0.4552767,-0.06971 c 0.25035,-0.03837 0.488056,-0.07353 0.528233,-0.0783 l 0.07327,-0.0089 0.815642,0.444006 c 0.622548,0.338723 0.833905,0.447687 0.892462,0.460616 0.08341,0.01842 0.147112,0.0235 0.147112,0.01154 0,-0.0042 -0.09757,-0.275988 -0.216515,-0.60417 -0.118959,-0.328181 -0.232455,-0.644244 -0.252404,-0.702341 l -0.03648,-0.105594 0.03855,-0.03174 c 0.02111,-0.01738 0.195593,-0.156536 0.38795,-0.309353 0.192356,-0.152815 0.380045,-0.312834 0.417016,-0.355322 0.06786,-0.07799 0.437384,-0.5390409 0.630566,-0.7868722 0.124417,-0.1596176 0.108779,-0.1051137 0.232235,-0.807931 l 0.0875,-0.4979885 -0.09995,-0.4273967 C 12.862904,7.3831584 12.802595,7.1289709 12.783766,7.0532208 L 12.749357,6.9153507 12.312173,6.397492 C 11.807593,5.7998174 11.925511,5.9016789 11.191038,5.4311779 L 10.743176,5.1440718 10.04558,4.9269626 9.347687,4.7095563 8.6364457,4.6947255 Z m 0.051006,0.3974409 0.6542937,0.013352 0.6539962,0.013641 0.620187,0.1924917 c 0.341165,0.1059911 0.634537,0.1981549 0.651624,0.2046521 0.01709,0.00649 0.255858,0.1563845 0.530908,0.333078 l 0.500064,0.3212157 0.394178,0.4668438 c 0.316646,0.3752521 0.397262,0.47842 0.411084,0.5255697 0.0095,0.032258 0.06188,0.2502899 0.116567,0.484344 l 0.09936,0.4253211 -0.08632,0.4873088 c -0.04763,0.2683549 -0.09515,0.5003406 -0.105594,0.5160788 -0.02008,0.030274 -0.342486,0.4384833 -0.546332,0.6916643 -0.11361,0.141113 -0.147118,0.171474 -0.517858,0.4692179 -0.483396,0.388217 -0.522034,0.433773 -0.521715,0.619591 1.33e-4,0.07879 0.01202,0.122538 0.09788,0.364517 0.05369,0.151211 0.09758,0.279155 0.09758,0.284438 0,0.0053 -0.0043,0.0091 -0.0095,0.0087 -0.0053,-5.74e-4 -0.217856,-0.11515 -0.472183,-0.254481 -0.254327,-0.139326 -0.493054,-0.263937 -0.530611,-0.277022 -0.109513,-0.03815 -0.246253,-0.02898 -0.765222,0.05161 -0.3654399,0.05675 -0.4848135,0.07082 -0.5498924,0.06496 -0.045718,-0.0041 -0.3738508,-0.02388 -0.7290368,-0.04419 L 7.323695,11.002817 7.04252,10.907318 C 6.595669,10.75538 5.9594835,10.529297 5.9439352,10.51699 5.8880973,10.472798 5.2764992,9.9811281 5.0452454,9.7944791 L 4.7619949,9.5658021 4.5428101,8.9696422 4.3236229,8.373185 4.350316,8.1623038 C 4.4581939,7.3116472 4.4925824,7.08207 4.5158166,7.0565896 4.5288206,7.0423357 4.753112,6.7776393 5.0143964,6.4684372 L 5.4895449,5.9063853 6.0044387,5.6563539 6.5193312,5.4066193 6.7106367,5.3639056 C 6.8158105,5.3404815 7.1433804,5.2664957 7.4387828,5.1992931 Z M 10.104298,6.19284 c -0.04794,0 -0.09085,0.00601 -0.09521,0.013052 -0.0043,0.00709 0.02441,0.1174326 0.06376,0.2452853 0.03936,0.1278551 0.07685,0.2729772 0.08334,0.3226977 0.0065,0.04972 0.03886,0.4110708 0.07178,0.8028891 l 0.05962,0.7124272 -0.03946,0.6430228 -0.03974,0.64332 -0.103215,0.266938 c -0.05678,0.146873 -0.100187,0.2702589 -0.09639,0.2740549 0.0038,0.0037 0.08905,-0.01166 0.189227,-0.03411 0.224651,-0.05041 0.270556,-0.05025 0.629677,0.0038 0.154735,0.02332 0.293365,0.04311 0.308164,0.04389 0.0251,0.0013 0.01891,-0.02359 -0.09195,-0.3701539 l -0.118934,-0.371636 -0.0089,-0.2805811 c -0.0081,-0.2480808 -0.0069,-0.2805812 0.0107,-0.2805812 0.01082,0 0.104896,0.011538 0.209101,0.025503 l 0.189526,0.025215 0.07771,-0.053975 c 0.04274,-0.029697 0.164363,-0.114439 0.27049,-0.1882903 L 11.8667,8.5012468 11.985935,8.2526973 12.10487,8.0038521 12.090039,7.6520877 12.075208,7.3000277 11.969914,7.02953 11.864921,6.7587366 11.646922,6.6246751 c -0.119944,-0.073721 -0.224371,-0.137316 -0.23194,-0.1414768 -0.0076,-0.00421 -0.153741,-0.016958 -0.324774,-0.028183 L 10.779374,6.4348479 10.485445,6.3138361 C 10.212931,6.2017517 10.185118,6.1928268 10.104303,6.1928268 Z M 6.3256479,6.20856 c -0.00805,-6.646e-4 -0.012559,-4.82e-4 -0.013641,5.949e-4 -0.027162,0.02715 0.027234,0.070008 0.3769744,0.2971908 0.1291374,0.083889 0.2528654,0.1736852 0.2749457,0.1996103 0.022078,0.025924 0.1105461,0.1616739 0.1966441,0.30164 l 0.1566034,0.2544795 -0.00865,0.2037627 -0.00829,0.2034658 -0.052196,0.086605 c -0.028688,0.047689 -0.055513,0.086605 -0.059624,0.086605 -0.00409,0 -0.038687,-0.021501 -0.076822,-0.04805 L 7.0425405,7.7461144 6.9977596,7.5708259 6.9526782,7.3958331 6.7673063,7.20868 6.5819319,7.0218237 6.506588,7.1030927 C 6.465088,7.1476817 6.3600261,7.2635143 6.2731649,7.3608364 L 6.1153753,7.5379048 v 0.067328 c 0,0.036993 -0.00385,0.1192475 -0.00829,0.1830008 L 6.0987953,7.9042 6.0160483,7.939498 C 5.9186863,7.980878 5.9187223,7.980962 5.7959741,7.863565 L 5.7176679,7.7885216 5.6776343,7.5367102 5.6375887,7.2849 5.7304315,7.0298256 C 5.7815702,6.8895711 5.834067,6.7564891 5.8469508,6.7341191 5.8598466,6.7117527 5.9430506,6.6034264 6.0320283,6.4932818 6.1210132,6.3831444 6.1913238,6.2901369 6.1880379,6.2868498 6.1847929,6.2836048 6.0213763,6.3612323 5.8250026,6.4594702 L 5.4678996,6.6383185 5.2475286,7.0227083 C 5.126327,7.2342229 5.019235,7.4262302 5.0096575,7.4492144 4.9907164,7.4946683 4.8364446,8.3326298 4.8364446,8.3900217 c 0,0.033159 0.1090918,0.6294516 0.1216043,0.6646742 0.00757,0.021369 0.00721,0.021705 0.3829079,-0.2070245 0.2860857,-0.174208 0.3396028,-0.2020741 0.3396028,-0.1764759 0,0.013148 -0.091004,0.158983 -0.272869,0.4374814 -0.087975,0.1347249 -0.1419648,0.2289174 -0.1355445,0.2369806 0.00589,0.00733 0.084406,0.05591 0.1743991,0.1076616 l 0.1637219,0.09402 0.1340614,0.198424 c 0.073854,0.109188 0.1626775,0.238944 0.1972378,0.2882919 l 0.062881,0.08986 0.045971,-0.1782529 c 0.025359,-0.09808 0.077639,-0.30798 0.1159664,-0.466251 L 6.2360797,9.1917109 6.3828964,9.0843377 6.5300075,8.977265 l 0.147408,0.04805 0.147706,0.04835 0.2470665,0.4137531 c 0.1358798,0.227668 0.2509989,0.414051 0.2559626,0.414051 0.00505,0 0.054876,-0.09362 0.1109306,-0.207915 L 7.5411179,9.4859381 7.7161107,9.3067945 7.8913992,9.1276493 8.0130046,8.77292 8.1346101,8.4178938 8.1470733,8.095493 8.159236,7.7730911 8.0050039,7.3124752 C 7.9200452,7.0590185 7.8452073,6.8449392 7.8388904,6.836733 7.8325206,6.8285604 7.685127,6.7261629 7.5111498,6.6095391 L 7.1949794,6.3974692 6.9523621,6.3411145 C 6.6042154,6.2602181 6.3816329,6.2132294 6.325652,6.2085337 Z m 2.7064508,0.8989854 -0.042113,0.024325 c -0.023148,0.013437 -0.1156179,0.07014 -0.2055426,0.1257579 L 8.6207219,7.3587645 8.4860668,7.6277779 8.3514116,7.8967914 8.32175,8.3781691 8.2920884,8.85925 l 0.1465198,0.4093041 0.1462229,0.409007 0.1984229,0.199314 0.1984252,0.1993139 0.1877457,0.02639 c 0.1032151,0.01443 0.1974321,0.02679 0.2093971,0.02758 0.01202,7.79e-4 0.101075,-0.03632 0.198127,-0.08245 l 0.176476,-0.08394 0.101135,-0.168468 0.100848,-0.168763 0.07296,-0.3532477 0.07327,-0.3529506 -0.0056,-0.3120204 -0.0056,-0.3117236 L 9.98037,7.9546303 9.870629,7.6129495 9.677842,7.4166022 9.485053,7.2199593 9.258452,7.1639051 Z m 2.2176583,0.3692647 0.151266,0.1402906 c 0.0833,0.077123 0.154074,0.1466917 0.157196,0.1548234 0.0031,0.00817 -0.0076,0.095102 -0.02373,0.1930854 l -0.02936,0.1782546 -0.08305,0.054576 c -0.04561,0.030094 -0.120376,0.077243 -0.166094,0.1047051 -0.04572,0.02745 -0.103215,0.052689 -0.127834,0.056054 -0.03527,0.00481 -0.127779,-0.00577 -0.254479,-0.029061 -0.0079,-0.00144 0.0107,-0.5663917 0.02283,-0.6952251 0.0058,-0.061751 0.01484,-0.1162789 0.01987,-0.1213075 0.005,-0.00505 0.08201,-0.015107 0.171137,-0.022547 z m -1.889028,1.1021555 0.05577,0.046572 c 0.03061,0.025479 0.09221,0.079707 0.136732,0.1207149 l 0.08097,0.074743 0.0356,0.1690605 0.03589,0.1690605 -0.0433,0.1877468 c -0.0237,0.1032988 -0.04446,0.1891138 -0.04627,0.1907118 -0.0018,0.0016 -0.0621,0.03224 -0.134062,0.06822 -0.07195,0.03597 -0.132474,0.06498 -0.134358,0.06436 -0.0019,-6.19e-4 -0.05668,-0.01901 -0.1216056,-0.04094 l -0.1180456,-0.03975 -0.069106,-0.207618 -0.069395,-0.2073207 0.067616,-0.2212616 0.067616,-0.2212616 0.061991,-0.041824 c 0.034,-0.022967 0.091437,-0.05746 0.1278342,-0.076522 z" class="ColorScheme-Text"/>
<path id="gradient-path1" style="opacity:0.3;baseline-shift:baseline;display:inline;overflow:visible;vector-effect:none;enable-background:accumulate;stop-color:#000000;stop-opacity:1;fill:url(#linearGradient4)" d="M 8.4453131 1.2753492 C 4.4913166 1.2753492 1.2794833 4.4784283 1.2794833 8.4236094 C 1.2794833 12.36879 4.4913166 15.572386 8.4453131 15.572386 C 12.39931 15.572386 15.611143 12.36879 15.611143 8.4236094 C 15.611143 4.4784283 12.39931 1.2753492 8.4453131 1.2753492 z "/>
</svg>
