<?xml version='1.0' encoding='UTF-8'?>
<svg xmlns:inkscape="http://www.inkscape.org/namespaces/inkscape" xmlns:sodipodi="http://sodipodi.sourceforge.net/DTD/sodipodi-0.dtd" xmlns="http://www.w3.org/2000/svg" xmlns:svg="http://www.w3.org/2000/svg" xmlns:rdf="http://www.w3.org/1999/02/22-rdf-syntax-ns#" xmlns:cc="http://creativecommons.org/ns#" xmlns:dc="http://purl.org/dc/elements/1.1/" width="64" height="64" version="1.1" viewBox="0 0 16.933 16.933" id="svg7" sodipodi:docname="xnview.svg" inkscape:version="1.4.2 (ebf0e940d0, 2025-05-08)">
  <sodipodi:namedview id="namedview7" pagecolor="#9c4444" bordercolor="#000000" borderopacity="0.25" inkscape:showpageshadow="2" inkscape:pageopacity="0.0" inkscape:pagecheckerboard="0" inkscape:deskcolor="#d1d1d1" inkscape:zoom="4.3531261" inkscape:cx="36.755195" inkscape:cy="26.188077" inkscape:window-width="2560" inkscape:window-height="1376" inkscape:window-x="0" inkscape:window-y="0" inkscape:window-maximized="1" inkscape:current-layer="svg7" showgrid="false"/>
  <defs id="defs2">
    <filter style="color-interpolation-filters:sRGB;" inkscape:label="Blur" id="filter3" x="-0.10843471" y="-0.10870992" width="1.2168694" height="1.2174198">
      <feGaussianBlur stdDeviation="0.5 0.5" result="blur" id="feGaussianBlur3"/>
    </filter>
    <style id="current-color-scheme" type="text/css">.ColorScheme-Text {color:#d8dee9} .ColorScheme-Highlight {color:#3b4252}</style>
  <linearGradient id="linearGradient3" inkscape:collect="always">
      <stop style="stop-color:#000000;stop-opacity:1;" offset="0" id="stop3"/>
      <stop style="stop-color:#000000;stop-opacity:0;" offset="1" id="stop4"/>
    </linearGradient>
    <linearGradient xmlns:xlink="http://www.w3.org/1999/xlink" inkscape:collect="always" xlink:href="#linearGradient3" id="linearGradient4" x1="13.512321" y1="13.490874" x2="3.3783066" y2="3.3568602" gradientUnits="userSpaceOnUse"/>
  </defs>
  <metadata id="metadata2">
    <rdf:RDF>
      <cc:Work rdf:about="">
        <dc:format>image/svg+xml</dc:format>
        <dc:type rdf:resource="http://purl.org/dc/dcmitype/StillImage"/>
      </cc:Work>
    </rdf:RDF>
  </metadata>
  <ellipse style="opacity:1;fill:none;stroke:#000000;stroke-width:0.582072;stroke-dasharray:none;stroke-opacity:1;filter:url(#filter3)" id="path1-5" cx="8.4450111" cy="8.423522" rx="6.8752708" ry="6.8578653"/>
  <ellipse style="opacity:1;fill:none;stroke-width:0.58207188;stroke-opacity:1;stroke:currentColor;stroke-dasharray:none;fill-opacity:1" id="path1" cx="8.4450111" cy="8.423522" rx="6.8752708" ry="6.8578653" class="ColorScheme-Text"/>
  <ellipse style="fill:currentColor;stroke:none;stroke-width:0.285844;stroke-dasharray:none;stroke-opacity:1" id="path1-2" cx="8.4557552" cy="8.423522" rx="6.5738997" ry="6.5692253" class="ColorScheme-Highlight"/>
<path id="path4" style="opacity:0.3;fill:#000000;fill-opacity:1;stroke-width:0.0117107" d="m 9.6552653,5.4953074 c -0.0894,2.17e-4 -0.181179,0.02196 -0.27137,0.06579 -0.08564,0.04161 -0.208762,0.165771 -0.250265,0.252182 -0.01746,0.03636 -0.08063,0.241098 -0.140344,0.455025 l -0.108548,0.388965 -0.07045,-0.0071 c -0.177727,-0.01786 -0.431132,-0.02134 -0.583584,-0.008 -0.08913,0.0078 -0.164943,0.01131 -0.168578,0.0077 -0.0036,-0.0036 -0.05333,-0.173958 -0.110468,-0.378547 -0.06314,-0.226054 -0.119982,-0.404739 -0.144731,-0.455574 -0.04914,-0.10094 -0.140269,-0.196183 -0.237106,-0.247797 -0.392753,-0.209335 -0.857421,0.06475 -0.857421,0.505736 0,0.08398 0.01283,0.143899 0.104162,0.481888 0.05736,0.212266 0.11213,0.416123 0.121706,0.452833 l 0.01754,0.06661 -0.165838,0.110741 c -0.09109,0.06094 -0.215185,0.150951 -0.27603,0.199827 -0.06084,0.048877 -0.114409,0.088813 -0.118965,0.088813 -0.0046,0 -0.161785,-0.159316 -0.349218,-0.354152 -0.187432,-0.194837 -0.366026,-0.371466 -0.396913,-0.392529 -0.222897,-0.151996 -0.535887,-0.120368 -0.730233,0.07401 -0.190568,0.190599 -0.227207,0.47502 -0.09046,0.7028219 0.02413,0.040201 0.179324,0.2107186 0.394994,0.4339185 l 0.355249,0.367858 -0.138426,0.1548729 c -0.195894,0.2195252 -0.530341,0.5516555 -0.650741,0.646081 -0.05621,0.044081 -0.120728,0.1071768 -0.143361,0.1400711 -0.113797,0.1653946 -0.130644,0.4114321 -0.04084,0.5997561 0.04229,0.088689 0.0994,0.148475 0.217918,0.2280611 0.2684,0.180231 0.448694,0.340143 0.905391,0.802874 0.645015,0.653535 0.837243,0.833663 1.101106,1.032303 0.421687,0.317454 0.861685,0.510874 1.282294,0.563299 0.05797,0.0072 0.118487,0.01535 0.134589,0.0181 0.0692,0.01178 0.515314,-0.0042 0.620863,-0.0222 0.511706,-0.08721 0.963105,-0.313228 1.4519687,-0.726946 0.169529,-0.143468 0.378804,-0.345988 0.824254,-0.797665 0.527895,-0.535286 0.668237,-0.661212 0.95939,-0.861269 C 12.323078,9.9323126 12.386816,9.8181183 12.38541,9.5765614 12.38411,9.3621309 12.32549,9.2462186 12.148576,9.1072829 12.026524,9.0114289 11.703397,8.6905551 11.503866,8.4672324 L 11.360232,8.3066029 11.709177,7.9461463 c 0.191912,-0.1982736 0.365951,-0.3862294 0.386771,-0.4177462 0.163226,-0.2471017 0.115039,-0.5717297 -0.113209,-0.7620297 -0.215737,-0.179872 -0.53214,-0.180389 -0.739278,-0.0014 -0.02299,0.01987 -0.188043,0.187617 -0.367036,0.372792 -0.178993,0.185175 -0.329122,0.3366089 -0.333594,0.3366089 -0.0044,0 -0.05811,-0.039965 -0.118963,-0.088812 -0.06084,-0.04885 -0.181677,-0.136384 -0.26863,-0.19462 -0.08695,-0.05824 -0.1596287,-0.11201 -0.1614517,-0.119513 -0.0019,-0.0075 0.04965,-0.209345 0.1143037,-0.448446 0.06466,-0.239102 0.120925,-0.46652 0.124996,-0.505462 0.01647,-0.157648 -0.04701,-0.324159 -0.170498,-0.44735 C 9.9464793,5.5543393 9.8042613,5.4949253 9.6552583,5.4952893 Z m -1.176487,1.814618 c 0.343241,9.99e-4 0.686494,0.07855 0.996944,0.23464 0.6825847,0.343197 1.1426587,1.0027894 1.2293907,1.7625375 0.05233,0.4584202 -0.04754,0.9549371 -0.271646,1.3500001 -0.362038,0.638213 -0.9987457,1.059031 -1.7211457,1.137836 -0.546749,0.05964 -1.098725,-0.08461 -1.555035,-0.406506 -0.14397,-0.101561 -0.416221,-0.373168 -0.515604,-0.514508 -0.269287,-0.382975 -0.402146,-0.77746 -0.417746,-1.2392586 -0.01328,-0.3929456 0.05638,-0.7229603 0.224498,-1.0651978 0.116914,-0.2379985 0.229035,-0.3957162 0.419664,-0.5896141 0.125368,-0.1275178 0.222013,-0.2082958 0.357168,-0.2985075 0.370815,-0.2475083 0.812202,-0.3727066 1.253512,-0.3714216 z m -0.0099,0.8623556 c -0.21051,0 -0.237458,0.00258 -0.343188,0.031248 -0.251153,0.06807 -0.460568,0.1889286 -0.641965,0.3703256 -0.182398,0.1823975 -0.304768,0.3950027 -0.369228,0.6419694 -0.03986,0.1527182 -0.05049,0.4156591 -0.0233,0.5715227 0.102328,0.5866333 0.554146,1.0420213 1.137563,1.1463343 0.123897,0.02215 0.337589,0.02292 0.468731,0.0017 0.582973,-0.09459 1.04603,-0.557265 1.149076,-1.1480153 0.02694,-0.1544719 0.01661,-0.4189456 -0.02247,-0.5679592 C 9.7560873,8.9600428 9.6371983,8.756459 9.4411623,8.5634369 9.2548603,8.3799987 9.0669623,8.272599 8.8120763,8.2035282 8.7060883,8.1748062 8.6795003,8.1722802 8.4688883,8.1722802 Z" class="ColorScheme-Text"/>
  <path id="path4-1" style="fill:currentColor;stroke-width:0.0117107" d="m 9.6552653,4.9662711 c -0.0894,2.17e-4 -0.181179,0.02196 -0.27137,0.06579 -0.08564,0.04161 -0.208762,0.165771 -0.250265,0.252182 -0.01746,0.03636 -0.08063,0.241098 -0.140344,0.455025 l -0.108548,0.388965 -0.07045,-0.0071 c -0.177727,-0.01786 -0.431132,-0.02134 -0.583584,-0.008 -0.08913,0.0078 -0.164943,0.01131 -0.168578,0.0077 -0.0036,-0.0036 -0.05333,-0.173958 -0.110468,-0.378547 -0.06314,-0.226054 -0.119982,-0.404739 -0.144731,-0.455574 -0.04914,-0.10094 -0.140269,-0.196183 -0.237106,-0.247797 -0.392753,-0.209335 -0.857421,0.06475 -0.857421,0.505736 0,0.08398 0.01283,0.143899 0.104162,0.481888 0.05736,0.212266 0.11213,0.416123 0.121706,0.452833 l 0.01754,0.06661 -0.165838,0.110741 c -0.09109,0.06094 -0.215185,0.150951 -0.27603,0.199827 -0.06084,0.04888 -0.114409,0.08881 -0.118965,0.08881 -0.0046,0 -0.161785,-0.159316 -0.349218,-0.354152 -0.187432,-0.194837 -0.366026,-0.371466 -0.396913,-0.392529 -0.222897,-0.151996 -0.535887,-0.120368 -0.730233,0.07401 -0.190568,0.190599 -0.227207,0.47502 -0.09046,0.702822 0.02413,0.0402 0.179324,0.210719 0.394994,0.433918 l 0.355249,0.367858 -0.138426,0.154873 c -0.195894,0.219526 -0.530341,0.551656 -0.650741,0.646081 -0.05621,0.04408 -0.120728,0.107177 -0.143361,0.140071 -0.113797,0.165395 -0.130644,0.411433 -0.04084,0.599757 0.04229,0.08869 0.0994,0.148475 0.217918,0.228061 0.2684,0.18023 0.448694,0.340143 0.905391,0.8028729 0.645015,0.653536 0.837243,0.833664 1.101106,1.032304 0.421687,0.317454 0.861685,0.510874 1.282294,0.563299 0.05797,0.0072 0.118487,0.01535 0.134589,0.0181 0.0692,0.01178 0.515314,-0.0042 0.620863,-0.0222 0.511706,-0.08721 0.963105,-0.313228 1.4519687,-0.726946 0.169529,-0.143468 0.378804,-0.345989 0.824254,-0.797665 0.527895,-0.5352839 0.668237,-0.6612089 0.95939,-0.8612669 0.220278,-0.151352 0.284016,-0.265546 0.28261,-0.507103 -0.0013,-0.21443 -0.05992,-0.330343 -0.236834,-0.469278 -0.122052,-0.09585 -0.445179,-0.416728 -0.64471,-0.640051 l -0.143634,-0.160629 0.348945,-0.360457 c 0.191912,-0.198274 0.365951,-0.386229 0.386771,-0.417746 0.163226,-0.247102 0.115039,-0.57173 -0.113209,-0.76203 -0.215737,-0.179872 -0.53214,-0.180389 -0.739278,-0.0014 -0.02299,0.01987 -0.188043,0.187617 -0.367036,0.372792 -0.178993,0.185175 -0.329122,0.336609 -0.333594,0.336609 -0.0044,0 -0.05811,-0.03997 -0.118963,-0.08881 -0.06084,-0.04885 -0.181677,-0.136384 -0.26863,-0.19462 -0.08695,-0.05824 -0.1596287,-0.11201 -0.1614517,-0.119513 -0.0019,-0.0075 0.04965,-0.209345 0.1143037,-0.448446 0.06466,-0.239102 0.120925,-0.46652 0.124996,-0.505462 0.01647,-0.157648 -0.04701,-0.324159 -0.170498,-0.44735 C 9.9464793,5.0253051 9.8042613,4.9658911 9.6552583,4.9662551 Z m -1.176487,1.814618 c 0.343241,9.99e-4 0.686494,0.07855 0.996944,0.23464 0.6825847,0.343197 1.1426587,1.002789 1.2293907,1.762538 0.05233,0.45842 -0.04754,0.954936 -0.271646,1.3499999 -0.362038,0.638213 -0.9987457,1.059031 -1.7211457,1.137836 -0.546749,0.05965 -1.098725,-0.08461 -1.555035,-0.406507 -0.14397,-0.101561 -0.416221,-0.373167 -0.515604,-0.514507 -0.269287,-0.3829749 -0.402146,-0.7774599 -0.417746,-1.2392589 -0.01328,-0.392946 0.05638,-0.72296 0.224498,-1.065198 0.116914,-0.237998 0.229035,-0.395716 0.419664,-0.589614 0.125368,-0.127518 0.222013,-0.208296 0.357168,-0.298507 0.370815,-0.247509 0.812202,-0.372707 1.253512,-0.371422 z m -0.0099,0.862356 c -0.21051,0 -0.237458,0.0026 -0.343188,0.03125 -0.251153,0.06807 -0.460568,0.188928 -0.641965,0.370325 -0.182398,0.182398 -0.304768,0.395003 -0.369228,0.64197 -0.03986,0.152718 -0.05049,0.415659 -0.0233,0.571522 0.102328,0.586634 0.554146,1.0420219 1.137563,1.1463349 0.123897,0.02215 0.337589,0.02291 0.468731,0.0017 0.582973,-0.09459 1.04603,-0.5572649 1.149076,-1.1480159 0.02694,-0.154472 0.01661,-0.418945 -0.02247,-0.567959 -0.06801,-0.259344 -0.186899,-0.462927 -0.382935,-0.655949 -0.186302,-0.183439 -0.3742,-0.290838 -0.629086,-0.359909 -0.105988,-0.02872 -0.132576,-0.03125 -0.343188,-0.03125 z" class="ColorScheme-Text"/>
<path id="gradient-path1" style="opacity:0.3;baseline-shift:baseline;display:inline;overflow:visible;vector-effect:none;enable-background:accumulate;stop-color:#000000;stop-opacity:1;fill:url(#linearGradient4)" d="M 8.4453131 1.2753492 C 4.4913166 1.2753492 1.2794833 4.4784283 1.2794833 8.4236094 C 1.2794833 12.36879 4.4913166 15.572386 8.4453131 15.572386 C 12.39931 15.572386 15.611143 12.36879 15.611143 8.4236094 C 15.611143 4.4784283 12.39931 1.2753492 8.4453131 1.2753492 z "/>
</svg>
