<?xml version="1.0" encoding="UTF-8" standalone="no"?>
<svg
   width="64"
   height="64"
   version="1.1"
   viewBox="0 0 16.933 16.933"
   id="svg7"
   sodipodi:docname="xppentablet.svg"
   inkscape:version="1.4.2 (ebf0e940d0, 2025-05-08)"
   xmlns:inkscape="http://www.inkscape.org/namespaces/inkscape"
   xmlns:sodipodi="http://sodipodi.sourceforge.net/DTD/sodipodi-0.dtd"
   xmlns:xlink="http://www.w3.org/1999/xlink"
   xmlns="http://www.w3.org/2000/svg"
   xmlns:svg="http://www.w3.org/2000/svg"
   xmlns:rdf="http://www.w3.org/1999/02/22-rdf-syntax-ns#"
   xmlns:cc="http://creativecommons.org/ns#"
   xmlns:dc="http://purl.org/dc/elements/1.1/">
  <sodipodi:namedview
     id="namedview7"
     pagecolor="#9c4444"
     bordercolor="#000000"
     borderopacity="0.25"
     inkscape:showpageshadow="2"
     inkscape:pageopacity="0.0"
     inkscape:pagecheckerboard="0"
     inkscape:deskcolor="#d1d1d1"
     inkscape:zoom="6.15625"
     inkscape:cx="90.639594"
     inkscape:cy="43.045685"
     inkscape:window-width="2560"
     inkscape:window-height="1376"
     inkscape:window-x="0"
     inkscape:window-y="0"
     inkscape:window-maximized="1"
     inkscape:current-layer="svg7"
     showgrid="false" />
  <defs
     id="defs2">
    <filter
       style="color-interpolation-filters:sRGB;"
       inkscape:label="Blur"
       id="filter3"
       x="-0.10843471"
       y="-0.10870992"
       width="1.2168694"
       height="1.2174198">
      <feGaussianBlur
         stdDeviation="0.5 0.5"
         result="blur"
         id="feGaussianBlur3" />
    </filter>
    <style
       id="current-color-scheme"
       type="text/css">.ColorScheme-Text {color:#d8dee9} .ColorScheme-Highlight {color:#3b4252}</style>
    <linearGradient
       id="linearGradient3"
       inkscape:collect="always">
      <stop
         style="stop-color:#000000;stop-opacity:1;"
         offset="0"
         id="stop3" />
      <stop
         style="stop-color:#000000;stop-opacity:0;"
         offset="1"
         id="stop4" />
    </linearGradient>
    <linearGradient
       inkscape:collect="always"
       xlink:href="#linearGradient3"
       id="linearGradient4"
       x1="13.512321"
       y1="13.490874"
       x2="3.3783066"
       y2="3.3568602"
       gradientUnits="userSpaceOnUse" />
  </defs>
  <metadata
     id="metadata2">
    <rdf:RDF>
      <cc:Work
         rdf:about="">
        <dc:format>image/svg+xml</dc:format>
        <dc:type
           rdf:resource="http://purl.org/dc/dcmitype/StillImage" />
      </cc:Work>
    </rdf:RDF>
  </metadata>
  <ellipse
     style="opacity:1;fill:none;stroke:#000000;stroke-width:0.582072;stroke-dasharray:none;stroke-opacity:1;filter:url(#filter3)"
     id="path1-5"
     cx="8.4450111"
     cy="8.423522"
     rx="6.8752708"
     ry="6.8578653" />
  <ellipse
     style="opacity:1;fill:none;stroke-width:0.58207188;stroke-opacity:1;stroke:currentColor;stroke-dasharray:none;fill-opacity:1"
     id="path1"
     cx="8.4450111"
     cy="8.423522"
     rx="6.8752708"
     ry="6.8578653"
     class="ColorScheme-Text" />
  <ellipse
     style="fill:currentColor;stroke:none;stroke-width:0.285844;stroke-dasharray:none;stroke-opacity:1"
     id="path1-2"
     cx="8.4557552"
     cy="8.423522"
     rx="6.5738997"
     ry="6.5692253"
     class="ColorScheme-Highlight" />
  <path
     id="rect8"
     style="opacity:0.3;fill:#000000;fill-opacity:1;stroke:none;stroke-width:0.112245;stroke-linejoin:bevel;paint-order:fill markers stroke"
     d="m 5.3236329,5.2915626 c -0.3109195,0 -0.5612267,0.250307 -0.5612267,0.5612263 v 6.2857361 c 0,0.310919 0.2503072,0.561225 0.5612267,0.561225 H 11.60937 c 0.310917,0 0.561224,-0.250306 0.561224,-0.561225 V 5.8527889 c 0,-0.3109193 -0.250308,-0.5612264 -0.561224,-0.5612264 z m 3.5120494,0.4733155 c 0.572363,0.00113 1.1447747,3.129e-4 1.7172217,8.762e-4 h 2.19e-4 c 0.651362,-0.00325 1.1994,0.4872124 1.26824,1.1349489 0.06884,0.6477798 -0.364096,1.2426492 -1.001658,1.37632 -0.09035,0.018527 -0.182465,0.027862 -0.274695,0.027842 -0.476579,2.093e-4 -0.9530073,-1.665e-4 -1.4295924,-8.763e-4 -0.014746,0 -0.019231,0.00232 -0.019509,0.00241 -7.71e-5,2.768e-4 -0.00232,0.00495 -0.00214,0.019511 0.00186,0.1789592 3.147e-4,0.3588485 0.0013,0.5373304 0,0.036438 -0.013539,0.056467 -0.05459,0.055246 -0.067581,-0.00218 -0.135254,-0.00218 -0.2027869,0 h -2.191e-4 c -0.042677,0.00153 -0.061471,-0.015018 -0.061388,-0.059849 0.0013,-0.3517567 8.812e-4,-0.7033442 8.812e-4,-1.0551495 l -2.15e-4,-0.4614705 c 0,-0.5055934 -1.56e-4,-1.0110488 -7.262e-4,-1.5166266 0,-0.04218 0.014708,-0.060594 0.059633,-0.060507 z m -0.8172864,0.00614 c 0.013158,3.585e-4 0.023093,0.00912 0.030039,0.016223 0.05863,0.060131 0.1185873,0.1189055 0.1782328,0.1786716 l 2.192e-4,2.194e-4 c 0.00613,0.00568 0.012006,0.013193 0.016222,0.017977 l 0.012712,0.014469 -0.013158,0.014031 c -0.00891,0.00949 -0.016816,0.018134 -0.024988,0.026307 L 7.458485,6.798323 C 7.3079661,6.9488419 7.1568958,7.0991283 7.0070929,7.2503734 6.978623,7.2792917 6.9552603,7.2797476 6.9272918,7.250154 V 7.2499347 H 6.9270736 C 6.876021,7.1950109 6.8229776,7.1421231 6.7679164,7.0912127 v -2.194e-4 c -0.011663,-0.010659 -0.021209,-0.022039 -0.023456,-0.036392 -0.00344,-0.021885 0.011486,-0.03758 0.024774,-0.050642 0.3597579,-0.3584627 0.718974,-0.7173876 1.0777304,-1.0768537 0.046466,-0.046471 0.093237,-0.092181 0.1385524,-0.1389912 v -2.192e-4 h 2.191e-4 c 0.00585,-0.00586 0.014996,-0.014374 0.026743,-0.016223 -3.7e-6,5e-7 0.00288,-7.415e-4 0.00594,-6.585e-4 z M 5.3262635,5.771455 h 0.0026 2.191e-4 c 6.222e-4,-2.01e-5 0.00139,-3.35e-5 0.00214,0 0.014114,5.496e-4 0.024737,0.00974 0.032667,0.017538 l 2.201e-4,2.192e-4 c 0.4075099,0.4083038 0.8151665,0.8163237 1.2232976,1.2239559 0.00529,0.00432 0.011134,0.00827 0.017104,0.011619 l 0.023456,0.013154 -0.018414,0.019731 c -0.00919,0.00989 -0.015721,0.017471 -0.021923,0.023677 -0.05797,0.058097 -0.116446,0.1152308 -0.1731916,0.1738487 -0.023335,0.024216 -0.04498,0.024399 -0.068398,0 C 6.2974626,7.2046906 6.2467694,7.1555218 6.1967401,7.1056814 5.8420424,6.7509839 5.4872863,6.3964459 5.1321643,6.0422012 c -0.034385,-0.034383 -0.03029,-0.06047 0.00176,-0.090323 0.055519,-0.052676 0.1095541,-0.1067118 0.1622299,-0.1622294 v -2.194e-4 h 2.191e-4 c 0.00669,-0.00692 0.015201,-0.014324 0.02587,-0.01688 1.95e-5,-1.34e-5 2.822e-4,-6.02e-5 8.812e-4,-2.193e-4 1.225e-4,-3.35e-5 2.98e-4,3.34e-5 4.243e-4,0 z m 3.785867,0.3108668 c -0.011449,1e-7 -0.015526,0.00128 -0.016659,0.00176 l -2.191e-4,2.192e-4 c -1.597e-4,3.605e-4 -4.996e-4,0.00123 -8.821e-4,0.0033 -5.702e-4,0.00328 -8.813e-4,0.00897 -8.813e-4,0.016223 0.00111,0.3102028 0.00111,0.6203318 0.00111,0.9304081 v 0.021265 h -2.143e-4 c 2.69e-5,0.3041797 6.221e-4,0.6084203 -7.262e-4,0.9126506 v 2.192e-4 c 5.6e-6,0.010578 0.00149,0.01457 0.00176,0.015566 0.00102,2.18e-4 0.00576,0.00155 0.016659,0.00154 0.4776826,-0.001 0.9555835,-0.00133 1.4333185,-6.584e-4 h 2.2e-4 c 0.523575,-0.00246 0.946193,-0.4269806 0.946193,-0.9505772 0,-0.5236137 -0.422814,-0.9483656 -0.946412,-0.9507964 -0.477581,-4.368e-4 -0.9556304,4.086e-4 -1.4333186,-0.0011 z m -2.7311563,1.326772 c 0.013882,1.384e-4 0.025248,0.00856 0.034422,0.018196 0.055983,0.058787 0.1146408,0.1158348 0.1725333,0.1738487 l 2.191e-4,2.193e-4 c 0.00557,0.00529 0.011254,0.01124 0.015786,0.016004 l 0.00659,0.00701 -8.812e-4,0.00987 c -0.00241,0.022021 -0.021571,0.034039 -0.024338,0.036831 -0.074657,0.075282 -0.1492318,0.1503069 -0.224273,0.2249295 -0.32876,0.3287183 -0.6575385,0.6574966 -0.9858733,0.9867502 -0.03432,0.034776 -0.060561,0.030857 -0.090545,-0.00131 V 8.8812192 H 5.2843982 C 5.2318134,8.8258441 5.1779751,8.7717828 5.1225991,8.7192072 H 5.12238 C 5.097207,8.6949362 5.099714,8.6736032 5.1225991,8.6508082 5.5302956,8.2440315 5.9377052,7.8366328 6.3445818,7.4290448 c 0.00743,-0.00743 0.018209,-0.018597 0.03354,-0.019731 7.261e-4,-6e-5 0.00176,-2.326e-4 0.00288,-2.192e-4 z m 0.5857808,0.00263 c 0.017569,-1.692e-4 0.031079,0.011029 0.043188,0.023238 0.3003245,0.3020795 0.6014021,0.603375 0.9030062,0.9041006 0.1025936,0.1025316 0.2045177,0.2054266 0.3077966,0.30714 0.026084,0.025635 0.030206,0.049029 7.252e-4,0.077168 -0.057088,0.054284 -0.1121699,0.1114514 -0.168806,0.1677103 h -2.191e-4 v 2.192e-4 c -0.00622,0.00606 -0.013882,0.012524 -0.020828,0.018854 l -0.01469,0.013153 -0.014253,-0.013373 c -0.00882,-0.00823 -0.017318,-0.016063 -0.025424,-0.024113 L 7.4880775,8.3967214 C 7.2474561,8.1560996 7.0066351,7.9156117 6.7657175,7.6752384 c -0.012062,-0.01206 -0.025322,-0.027075 -0.02171,-0.047353 0.00232,-0.0132 0.010827,-0.023566 0.020828,-0.032884 0.054953,-0.051235 0.1082876,-0.1042767 0.1595992,-0.1591604 0.010344,-0.011052 0.022759,-0.022268 0.038582,-0.023896 0.00121,-1.277e-4 0.00251,-2.06e-4 0.00371,-2.192e-4 z m 3.707821,2.1350719 c 0.248369,0.013582 0.480293,0.1281472 0.641902,0.3172245 l 2.2e-4,2.188e-4 c 0.156865,0.175805 0.240665,0.404842 0.234357,0.640369 0,8.7e-5 0,3.51e-4 0,4.37e-4 v 2.19e-4 c -8.82e-4,0.32628 -7.27e-4,0.652626 4.23e-4,0.978858 0,0.01872 -0.0012,0.0402 -0.01885,0.05261 -0.0116,0.0082 -0.02609,0.0093 -0.041,0.0085 -0.06099,-0.0031 -0.122055,-0.0031 -0.183055,0 -0.0144,6.75e-4 -0.02848,-7.78e-4 -0.03968,-0.0087 -0.01708,-0.01215 -0.01823,-0.03275 -0.0182,-0.0502 8.82e-4,-0.33525 9.29e-4,-0.670531 4.25e-4,-1.005824 0.0013,-0.337605 -0.260838,-0.6171992 -0.597839,-0.6377191 -0.337002,-0.020518 -0.631018,0.2250541 -0.6706222,0.5603501 v 2.19e-4 c -0.00362,0.02905 -0.00539,0.05842 -0.00529,0.08769 0,0.331499 -6.741e-4,0.662975 6.742e-4,0.994423 0,0.04414 -0.017466,0.06158 -0.060942,0.05985 -0.063709,-0.0021 -0.1274555,-0.0021 -0.1911682,0 h -2.191e-4 c -0.034951,7.78e-4 -0.048666,-0.0167 -0.048666,-0.04867 5.701e-4,-0.60254 5.701e-4,-1.205023 0,-1.807544 0,-0.033237 0.012489,-0.052161 0.050421,-0.051081 0.067525,0.00175 0.1353701,0.00131 0.2032247,0 0.030745,-4.963e-4 0.048016,0.013109 0.047134,0.046696 v 2.236e-4 c -7.28e-4,0.035518 -6.76e-4,0.071363 -4.271e-4,0.1100529 C 10.134171,9.6492556 10.337117,9.5618751 10.551778,9.548366 h 2.2e-4 c 0.04078,-0.00328 0.0817,-0.00377 0.122549,-0.00154 z m -4.4928806,0.032883 c 0.042175,0.00125 0.085057,0.00511 0.1286873,0.0114 0.2636536,0.036765 0.5011735,0.1786056 0.6585637,0.393297 v 2.192e-4 C 7.2941407,10.417238 7.2216438,11.028962 6.804305,11.373629 6.4007323,11.706927 5.8128994,11.676464 5.4459623,11.311369 v 0.07081 c 0,0.261038 -9.286e-4,0.52203 8.812e-4,0.782866 0,0.04799 -0.020429,0.06296 -0.063579,0.06117 -0.059837,-0.0027 -0.1197099,-0.0027 -0.1795495,0 -0.014096,6.74e-4 -0.027968,-6.22e-4 -0.039241,-0.0084 -0.017466,-0.01197 -0.019017,-0.03248 -0.01885,-0.05064 0.0013,-0.146041 6.741e-4,-0.292348 6.741e-4,-0.438897 0,-0.675769 -2.915e-4,-1.351619 -8.812e-4,-2.0274305 0,-0.04773 0.019546,-0.065344 0.065325,-0.063138 0.060849,0.00272 0.1221956,0.00196 0.183495,-2.192e-4 0.040077,-0.00136 0.05304,0.018944 0.052399,0.053273 -0.00111,0.059452 -7.782e-4,0.1190762 -7.262e-4,0.1828369 0.2115201,-0.1998219 0.456138,-0.3022686 0.7357341,-0.2939831 z m 2.1944828,2.193e-4 c 0.4434872,-0.00595 0.8391356,0.2773838 0.9764455,0.699122 0.043243,0.133779 0.058639,0.275118 0.044943,0.415 -0.00371,0.03778 -0.023084,0.04854 -0.055463,0.04845 -0.2732893,-7.25e-4 -0.5464142,-8.29e-4 -0.8199162,-4.36e-4 -0.2734072,0 -0.5472462,7.77e-4 -0.8207936,-8.83e-4 -0.00362,6e-6 -0.00659,1.84e-4 -0.00873,4.38e-4 4.16e-4,0.0025 0.00102,0.0058 0.00195,0.0096 l 2.192e-4,2.19e-4 v 2.19e-4 c 0.075344,0.331693 0.3749404,0.563207 0.7149063,0.552238 l 2.193e-4,-2.19e-4 h 4.243e-4 c 0.2435259,-0.0023 0.4674786,-0.132954 0.589288,-0.343751 0.013279,-0.03234 0.051053,-0.04722 0.082865,-0.03267 0.059038,0.01849 0.1186235,0.03503 0.1784529,0.04779 0.014634,0.0031 0.029148,0.0079 0.037709,0.01995 0.013148,0.01847 0.00306,0.03926 -0.00501,0.05437 l -2.2e-4,2.19e-4 v 2.2e-4 C 9.1284194,11.375853 8.8004274,11.587763 8.4353539,11.604235 8.0701031,11.620708 7.7244506,11.439085 7.5308147,11.128946 7.3371705,10.818814 7.3256052,10.428276 7.5007719,10.107345 7.6759377,9.7864135 8.0105606,9.584786 8.3761531,9.5798799 Z m 0.00158,0.2990288 C 8.141964,9.8783041 7.9224768,9.9990702 7.7967795,10.198564 l -2.201e-4,4.37e-4 -2.191e-4,2.2e-4 c -0.050839,0.07297 -0.085837,0.155746 -0.1025992,0.242905 0.4626221,0 0.9255396,3.33e-4 1.388159,8.82e-4 0.00297,0 0.0052,-1.4e-5 0.00706,-2.19e-4 -4.132e-4,-0.002 -9.286e-4,-0.0044 -0.00176,-0.0072 -0.00808,-0.02755 -0.01404,-0.05428 -0.023242,-0.07781 C 9.0097328,10.219171 8.9332923,10.109124 8.8339245,10.029558 8.7345567,9.949989 8.6120611,9.9005507 8.4643038,9.8846472 h -2.191e-4 -2.191e-4 c -0.028563,-0.00373 -0.057358,-0.0056 -0.086153,-0.0057 z M 6.1920448,9.8798083 C 5.7913432,9.8607523 5.4542196,10.175051 5.4453527,10.576084 c -0.00882,0.401032 0.3139976,0.73005 0.7151255,0.728717 0.3873609,-4.18e-4 0.7019565,-0.309065 0.7116173,-0.694079 2.8e-6,-1.13e-4 -2.8e-6,-3.26e-4 0,-4.37e-4 v -0.01754 C 6.8724767,10.211284 6.5730594,9.897452 6.192009,9.8798084 Z" />
  <path
     id="rect8-7"
     class="ColorScheme-Text"
     style="fill:currentColor;fill-opacity:1;stroke:none;stroke-width:0.112245;stroke-linejoin:bevel;paint-order:fill markers stroke"
     d="m 5.3236324,4.7624064 c -0.3109195,0 -0.5612267,0.2503068 -0.5612267,0.5612262 v 6.2857354 c 0,0.31092 0.2503072,0.561226 0.5612267,0.561226 h 6.2857356 c 0.310918,0 0.561226,-0.250306 0.561226,-0.561226 V 5.3236326 c 0,-0.3109194 -0.250309,-0.5612263 -0.561226,-0.5612263 z m 3.5120493,0.4733151 c 0.5723629,0.00111 1.1447756,3.129e-4 1.7172213,8.765e-4 h 2.19e-4 c 0.651362,-0.00325 1.1994,0.4872125 1.26824,1.1349491 0.06884,0.6477793 -0.364097,1.2426489 -1.001657,1.3763198 -0.09035,0.018525 -0.182465,0.027866 -0.274695,0.027838 -0.476579,2.099e-4 -0.9530078,-1.662e-4 -1.4295929,-8.756e-4 -0.014746,0 -0.019231,0.00232 -0.019509,0.00241 -7.71e-5,2.768e-4 -0.00232,0.00492 -0.00214,0.019509 0.00186,0.1789599 3.148e-4,0.3588493 0.0013,0.537331 0,0.036437 -0.013539,0.056466 -0.05459,0.05525 -0.067581,-0.00214 -0.1352541,-0.00214 -0.2027869,0 h -2.191e-4 c -0.042677,0.00158 -0.061471,-0.015015 -0.061388,-0.059846 0.0013,-0.3517569 8.812e-4,-0.7033439 8.812e-4,-1.0551499 L 8.7767502,6.8128633 c 0,-0.5055934 -1.56e-4,-1.0110485 -7.262e-4,-1.5166271 0,-0.042175 0.014708,-0.060598 0.059633,-0.060505 z m -0.8172864,0.00613 c 0.013158,3.594e-4 0.023093,0.0091 0.030039,0.016222 0.05863,0.060134 0.1185873,0.1189057 0.1782328,0.178672 l 2.192e-4,2.191e-4 c 0.00613,0.00566 0.012006,0.013195 0.016222,0.017977 l 0.012712,0.014467 -0.013158,0.014031 c -0.00891,0.00949 -0.016816,0.018135 -0.024988,0.026306 L 7.4584844,6.269154 C 7.3079656,6.4196729 7.1568952,6.5699595 7.0070923,6.7212045 c -0.02847,0.028916 -0.051833,0.029371 -0.079801,-2.201e-4 V 6.7207653 H 6.9270731 C 6.8760205,6.6658405 6.822977,6.612954 6.7679158,6.5620435 v -2.191e-4 c -0.011663,-0.01066 -0.021209,-0.022035 -0.023456,-0.036391 -0.00344,-0.021886 0.011486,-0.037579 0.024774,-0.050644 C 7.1289912,6.1163273 7.4882072,5.7574019 7.8469636,5.3979361 7.8934296,5.3514611 7.9402006,5.3057571 7.985516,5.2589445 v -2.191e-4 h 2.191e-4 c 0.00585,-0.00585 0.014996,-0.014374 0.026743,-0.016222 -3.8e-6,10e-7 0.00288,-7.41e-4 0.00594,-6.583e-4 z M 5.326263,5.2422889 h 0.0026 2.191e-4 c 6.222e-4,-2.05e-5 0.00139,-3.35e-5 0.00214,0 0.014114,5.497e-4 0.024737,0.00974 0.032667,0.017541 l 2.201e-4,2.191e-4 c 0.4075099,0.4083038 0.8151664,0.8163235 1.2232975,1.2239559 0.00529,0.00436 0.011133,0.00826 0.017104,0.011616 l 0.023456,0.013158 -0.018414,0.019732 c -0.00919,0.00989 -0.015721,0.017476 -0.021923,0.023678 -0.05797,0.0581 -0.116446,0.1152305 -0.1731916,0.1738481 -0.023335,0.024217 -0.04498,0.024403 -0.068398,0 C 6.2974621,6.6755311 6.2467689,6.6263625 6.1967395,6.5765226 5.8420419,6.221825 5.4872858,5.8672871 5.1321638,5.5130426 5.0977789,5.4786577 5.1018739,5.4525743 5.133928,5.4227209 5.189447,5.3700433 5.2434822,5.3160091 5.2961579,5.260491 v -2.192e-4 h 2.192e-4 c 0.00669,-0.00687 0.015201,-0.014328 0.02587,-0.016881 1.95e-5,-1.3e-5 2.823e-4,-6.04e-5 8.813e-4,-2.191e-4 1.225e-4,-3.35e-5 2.98e-4,3.34e-5 4.243e-4,0 z m 3.7858669,0.3108665 c -0.011449,0 -0.015526,0.0013 -0.016659,0.00176 l -2.191e-4,2.192e-4 c -1.597e-4,3.612e-4 -4.996e-4,0.00121 -8.822e-4,0.00334 -5.701e-4,0.00325 -8.812e-4,0.00901 -8.812e-4,0.016222 0.00111,0.3102035 0.00111,0.6203318 0.00111,0.9304081 v 0.021264 h -2.191e-4 c 2.69e-5,0.3041799 6.221e-4,0.6084201 -7.262e-4,0.9126511 v 2.191e-4 c 5.6e-6,0.010576 0.00149,0.014569 0.00176,0.015563 0.00102,2.173e-4 0.00576,0.00158 0.016659,0.00158 0.4776826,-0.00102 0.9555829,-0.0013 1.4333179,-6.593e-4 h 2.2e-4 c 0.523575,-0.00241 0.946193,-0.4269801 0.946193,-0.9505766 0,-0.5236141 -0.422814,-0.9483656 -0.946412,-0.9507966 C 10.06781,5.553913 9.5897612,5.5547579 9.112073,5.5532394 Z M 6.3809737,6.8799281 c 0.013882,1.384e-4 0.025248,0.00854 0.034422,0.0182 0.055983,0.058788 0.1146408,0.115835 0.1725332,0.1738491 l 2.192e-4,2.191e-4 c 0.00557,0.00529 0.011254,0.011245 0.015786,0.015999 l 0.00659,0.00706 -8.812e-4,0.00986 c -0.00241,0.022016 -0.021571,0.034041 -0.024338,0.036827 -0.074657,0.075279 -0.1492318,0.1503061 -0.224273,0.2249295 -0.32876,0.3287182 -0.6575386,0.6574958 -0.9858733,0.9867498 -0.03432,0.034775 -0.060561,0.030856 -0.090545,-0.0013 V 8.352101 h -2.16e-4 C 5.2318129,8.2967213 5.1779746,8.2426639 5.1225986,8.1900884 h -2.191e-4 c -0.025174,-0.024273 -0.022666,-0.045602 2.191e-4,-0.068398 0.4076965,-0.4067772 0.8151061,-0.8141757 1.2219827,-1.2217635 0.00743,-0.00743 0.018209,-0.018599 0.03354,-0.019732 7.262e-4,-6.03e-5 0.00176,-2.321e-4 0.00288,-2.191e-4 z m 0.5857807,0.0026 c 0.017568,-1.69e-4 0.031079,0.011031 0.043188,0.023242 0.3003245,0.3020795 0.601402,0.6033753 0.9030061,0.9041009 0.1025936,0.1025314 0.2045177,0.2054259 0.3077966,0.3071402 0.026083,0.025638 0.030206,0.049028 7.252e-4,0.077164 -0.057088,0.054284 -0.1121699,0.1114512 -0.168806,0.1677103 h -2.191e-4 v 2.191e-4 c -0.00622,0.00604 -0.013882,0.012526 -0.020828,0.01885 l -0.01469,0.013158 -0.014253,-0.013371 C 7.9938523,8.3724766 7.985356,8.3646766 7.9772496,8.356626 L 7.4880769,7.8675276 C 7.2474555,7.6269062 7.0066345,7.3864186 6.765717,7.1460451 6.753655,7.1339831 6.740395,7.1189681 6.744007,7.0986881 c 0.00232,-0.013204 0.010827,-0.023567 0.020828,-0.03288 0.054953,-0.051238 0.1082876,-0.1042771 0.1595993,-0.159161 0.010344,-0.01105 0.022759,-0.022267 0.038582,-0.023892 0.00121,-1.272e-4 0.00251,-2.052e-4 0.00371,-2.192e-4 z m 3.7078206,2.1350721 c 0.248369,0.013585 0.480292,0.1281468 0.641902,0.3172244 l 2.2e-4,2.191e-4 c 0.156865,0.1758056 0.240665,0.4048412 0.234356,0.6403682 0,8.73e-5 0,3.519e-4 0,4.373e-4 v 2.192e-4 c -8.81e-4,0.3262806 -7.25e-4,0.6526256 4.25e-4,0.9788576 0,0.01872 -0.0012,0.0402 -0.01885,0.05261 -0.0116,0.0082 -0.02609,0.0093 -0.041,0.0085 -0.06099,-0.0031 -0.122056,-0.0031 -0.183055,0 -0.0144,6.74e-4 -0.02848,-7.77e-4 -0.03968,-0.0087 -0.01708,-0.01215 -0.01823,-0.03275 -0.0182,-0.05021 8.81e-4,-0.335249 9.29e-4,-0.67053 4.25e-4,-1.0058229 0.0013,-0.3376211 -0.260843,-0.6172162 -0.597845,-0.6377357 -0.337001,-0.020521 -0.631018,0.2250539 -0.670621,0.5603501 v 2.192e-4 c -0.00362,0.029046 -0.00539,0.058416 -0.00529,0.087694 0,0.3314983 -6.742e-4,0.6629743 6.741e-4,0.9944223 0,0.04414 -0.017466,0.06158 -0.060942,0.05985 -0.063709,-0.0021 -0.1274556,-0.0021 -0.1911683,0 h -2.191e-4 c -0.034951,7.78e-4 -0.048666,-0.0167 -0.048666,-0.04867 5.702e-4,-0.602539 5.702e-4,-1.2050229 0,-1.8075438 0,-0.033233 0.012489,-0.052158 0.050421,-0.05108 0.067525,0.00176 0.1353702,0.0013 0.2032257,0 0.030745,-4.958e-4 0.048016,0.013111 0.047134,0.046698 v 2.201e-4 c -7.218e-4,0.035536 -6.698e-4,0.071378 -4.2e-4,0.1100707 C 10.134174,9.1200548 10.337119,9.0326739 10.551781,9.0191651 h 2.2e-4 c 0.04078,-0.00325 0.0817,-0.00381 0.122549,-0.00158 z m -4.4928801,0.03288 c 0.042175,0.0013 0.085057,0.00511 0.1286873,0.011403 0.2636535,0.036762 0.5011735,0.1786052 0.6585637,0.3932973 v 2.191e-4 C 7.2941401,9.8880442 7.2216432,10.499768 6.8043045,10.844436 6.4007317,11.177733 5.8128988,11.14727 5.4459618,10.782176 v 0.07081 c 0,0.261037 -9.286e-4,0.52203 8.812e-4,0.782866 0,0.04798 -0.020429,0.06296 -0.063579,0.06116 -0.059837,-0.0027 -0.1197099,-0.0027 -0.1795495,0 -0.014096,6.74e-4 -0.027969,-6.22e-4 -0.039241,-0.0084 -0.017466,-0.01197 -0.019017,-0.03248 -0.01885,-0.05064 0.0013,-0.146042 6.742e-4,-0.292349 6.742e-4,-0.438898 0,-0.675768 -2.916e-4,-1.3516189 -8.812e-4,-2.0274297 0,-0.047728 0.019546,-0.065343 0.065325,-0.063133 0.060849,0.00269 0.1221957,0.00195 0.183495,-2.191e-4 0.040077,-0.00139 0.05304,0.018943 0.052399,0.053272 -0.00111,0.059456 -7.782e-4,0.1190757 -7.262e-4,0.1828367 0.2115201,-0.199822 0.456138,-0.3022689 0.7357341,-0.2939833 z m 2.1944827,2.192e-4 c 0.4434872,-0.00594 0.8391357,0.2773842 0.9764456,0.6991216 0.043243,0.1337786 0.058639,0.275117 0.044943,0.415 -0.00371,0.03778 -0.023084,0.04854 -0.055463,0.04845 -0.2732893,-7.26e-4 -0.5464142,-8.29e-4 -0.8199161,-4.37e-4 -0.2734073,0 -0.5472463,7.78e-4 -0.8207937,-8.81e-4 -0.00362,5e-6 -0.00659,1.84e-4 -0.00873,4.37e-4 4.16e-4,0.0025 0.00102,0.0058 0.00195,0.0096 l 2.191e-4,2.19e-4 v 2.19e-4 c 0.075344,0.331694 0.3749404,0.563207 0.7149064,0.552239 l 2.192e-4,-2.19e-4 h 4.243e-4 c 0.243526,-0.0023 0.4674786,-0.132954 0.589288,-0.343751 0.013278,-0.03234 0.051053,-0.04722 0.082865,-0.03267 0.059038,0.01849 0.1186235,0.03503 0.1784529,0.04779 0.014634,0.0031 0.029148,0.0079 0.037709,0.01995 0.013148,0.01847 0.00306,0.03926 -0.00501,0.05437 l -2.201e-4,2.19e-4 v 2.2e-4 C 9.1284188,10.846657 8.8004268,11.058566 8.4353533,11.075038 8.0701025,11.09151 7.7244501,10.909888 7.5308142,10.599749 7.3371699,10.289617 7.3256046,9.89908 7.500775,9.578149 7.6759408,9.2572178 8.0105638,9.0555897 8.3761563,9.0506841 Z m 0.00158,0.2990291 C 8.1419634,9.3491078 7.9224762,9.4698744 7.7967789,9.6693677 l -2.201e-4,4.373e-4 -2.191e-4,2.201e-4 c -0.050839,0.072967 -0.085837,0.1557457 -0.1025992,0.2429044 0.4626222,0 0.9255396,3.334e-4 1.388159,8.822e-4 0.00297,0 0.0052,-1.4e-5 0.00706,-2.192e-4 -4.132e-4,-0.00195 -9.286e-4,-0.00436 -0.00176,-0.00724 -0.00808,-0.027551 -0.01404,-0.054284 -0.023242,-0.077814 C 9.0097313,9.6899649 8.9332917,9.5799176 8.8339239,9.5003525 8.7345561,9.4207836 8.6120605,9.3713448 8.4643033,9.3554413 H 8.4640841 8.463865 C 8.435302,9.3517313 8.406507,9.3498713 8.377713,9.3497813 Z M 6.1920428,9.3506102 C 5.7913412,9.331556 5.4542176,9.6458527 5.4453508,10.046885 c -0.00882,0.401032 0.3139976,0.73005 0.7151254,0.728718 0.3873609,-4.18e-4 0.7019566,-0.309065 0.7116174,-0.694079 2.7e-6,-1.14e-4 -2.8e-6,-3.27e-4 0,-4.38e-4 v -0.01754 C 6.8724761,9.6820863 6.5730589,9.3682549 6.1920085,9.3506112 Z" />
  <path
     id="gradient-path1"
     style="opacity:0.3;baseline-shift:baseline;display:inline;overflow:visible;vector-effect:none;enable-background:accumulate;stop-color:#000000;stop-opacity:1;fill:url(#linearGradient4)"
     d="M 8.4453131 1.2753492 C 4.4913166 1.2753492 1.2794833 4.4784283 1.2794833 8.4236094 C 1.2794833 12.36879 4.4913166 15.572386 8.4453131 15.572386 C 12.39931 15.572386 15.611143 12.36879 15.611143 8.4236094 C 15.611143 4.4784283 12.39931 1.2753492 8.4453131 1.2753492 z "
     inkscape:label="gradient-path1" />
</svg>
