<?xml version="1.0" encoding="UTF-8" standalone="no"?>
<svg
   width="64"
   height="64"
   version="1.1"
   viewBox="0 0 16.933 16.933"
   id="svg7"
   sodipodi:docname="xyz.z3ntu.razergenie.svg"
   inkscape:version="1.4.3 (0d15f75042, 2025-12-25)"
   xmlns:inkscape="http://www.inkscape.org/namespaces/inkscape"
   xmlns:sodipodi="http://sodipodi.sourceforge.net/DTD/sodipodi-0.dtd"
   xmlns:xlink="http://www.w3.org/1999/xlink"
   xmlns="http://www.w3.org/2000/svg"
   xmlns:svg="http://www.w3.org/2000/svg"
   xmlns:rdf="http://www.w3.org/1999/02/22-rdf-syntax-ns#"
   xmlns:cc="http://creativecommons.org/ns#"
   xmlns:dc="http://purl.org/dc/elements/1.1/">
  <sodipodi:namedview
     id="namedview7"
     pagecolor="#9c4444"
     bordercolor="#000000"
     borderopacity="0.25"
     inkscape:showpageshadow="2"
     inkscape:pageopacity="0.0"
     inkscape:pagecheckerboard="0"
     inkscape:deskcolor="#d1d1d1"
     inkscape:zoom="8.7062522"
     inkscape:cx="85.168679"
     inkscape:cy="11.715719"
     inkscape:window-width="2560"
     inkscape:window-height="1388"
     inkscape:window-x="0"
     inkscape:window-y="0"
     inkscape:window-maximized="1"
     inkscape:current-layer="svg7"
     showgrid="false" />
  <defs
     id="defs2">
    <filter
       style="color-interpolation-filters:sRGB;"
       inkscape:label="Blur"
       id="filter3"
       x="-0.10843471"
       y="-0.10870992"
       width="1.2168694"
       height="1.2174198">
      <feGaussianBlur
         stdDeviation="0.5 0.5"
         result="blur"
         id="feGaussianBlur3" />
    </filter>
    <style
       id="current-color-scheme"
       type="text/css">.ColorScheme-Text {color:#d8dee9} .ColorScheme-Highlight {color:#3b4252}</style>
    <linearGradient
       id="linearGradient3"
       inkscape:collect="always">
      <stop
         style="stop-color:#000000;stop-opacity:1;"
         offset="0"
         id="stop3" />
      <stop
         style="stop-color:#000000;stop-opacity:0;"
         offset="1"
         id="stop4" />
    </linearGradient>
    <linearGradient
       inkscape:collect="always"
       xlink:href="#linearGradient3"
       id="linearGradient4"
       x1="13.512321"
       y1="13.490874"
       x2="3.3783066"
       y2="3.3568602"
       gradientUnits="userSpaceOnUse" />
  </defs>
  <metadata
     id="metadata2">
    <rdf:RDF>
      <cc:Work
         rdf:about="">
        <dc:format>image/svg+xml</dc:format>
        <dc:type
           rdf:resource="http://purl.org/dc/dcmitype/StillImage" />
      </cc:Work>
    </rdf:RDF>
  </metadata>
  <ellipse
     style="opacity:1;fill:none;stroke:#000000;stroke-width:0.582072;stroke-dasharray:none;stroke-opacity:1;filter:url(#filter3)"
     id="path1-5"
     cx="8.4450111"
     cy="8.423522"
     rx="6.8752708"
     ry="6.8578653" />
  <ellipse
     style="opacity:1;fill:none;stroke-width:0.58207188;stroke-opacity:1;stroke:currentColor;stroke-dasharray:none;fill-opacity:1"
     id="path1"
     cx="8.4450111"
     cy="8.423522"
     rx="6.8752708"
     ry="6.8578653"
     class="ColorScheme-Text" />
  <ellipse
     style="fill:currentColor;stroke:none;stroke-width:0.285844;stroke-dasharray:none;stroke-opacity:1"
     id="path1-2"
     cx="8.4557552"
     cy="8.423522"
     rx="6.5738997"
     ry="6.5692253"
     class="ColorScheme-Highlight" />
  <path
     id="path5-6"
     style="opacity:0.3;fill:#000000;fill-opacity:1;stroke-width:0.566038"
     d="M 8.4665,5.0269844 A 3.9686996,3.968699 0 0 0 4.497827,8.9956567 3.9686996,3.968699 0 0 0 8.4665,12.964328 3.9686996,3.968699 0 0 0 12.435173,8.9956567 3.9686996,3.968699 0 0 0 8.4665,5.0269844 Z m 2.247538,1.470312 -0.12082,0.129775 -0.04769,0.02174 a 0.11390568,0.11390568 0 0 1 -0.04991,0.118138 c -0.02849,0.01839 -0.05876,0.03381 -0.09042,0.04598 -0.07706,0.02962 -0.139218,0.03762 -0.176152,0.05414 -0.01805,0.0081 -0.03066,0.01756 -0.03685,0.02482 -0.0045,0.0053 -0.0059,0.01094 -0.0063,0.01147 6.22e-4,0.002 0.005,0.01707 0.01888,0.04181 0.0096,0.01708 0.02359,0.03986 0.03565,0.07108 0.01231,0.03185 0.02222,0.072 0.01552,0.119051 -0.0084,0.05885 -0.03968,0.106371 -0.08243,0.139245 -0.04187,0.0322 -0.09001,0.04677 -0.137077,0.04871 -0.04639,0.0019 -0.08898,-0.0085 -0.126125,-0.02482 -0.03683,-0.01617 -0.0675,-0.0377 -0.0935,-0.06001 -0.05177,-0.04444 -0.08546,-0.09027 -0.115457,-0.122587 -0.02941,-0.03169 -0.0566,-0.05132 -0.07576,-0.05722 -0.01887,-0.0058 -0.0476,-0.0028 -0.06965,0.0096 -0.02313,0.01297 -0.04518,0.03796 -0.05807,0.06754 -0.01524,0.03498 -0.02015,0.07985 -0.01397,0.125668 0.0063,0.04645 0.02342,0.09547 0.04774,0.145006 0.08812,0.179419 0.249291,0.329535 0.417107,0.48613 0.168488,0.157224 0.352036,0.332763 0.449907,0.573464 0.0464,0.114123 0.07409,0.2485552 0.03982,0.3848198 -0.03329,0.1323447 -0.120873,0.2429462 -0.23622,0.3099781 -0.114729,0.066672 -0.249419,0.086642 -0.376834,0.063091 C 9.706065,9.2018513 9.603784,9.1450773 9.516476,9.0822173 9.429536,9.0196233 9.356326,8.9509543 9.284706,8.8917473 9.213226,8.8326533 9.142162,8.7822801 9.069136,8.752845 8.997436,8.723943 8.920492,8.716126 8.859271,8.734992 8.820841,8.746833 8.784511,8.770262 8.757904,8.800421 8.731304,8.83058 8.712554,8.869535 8.705594,8.9091473 a 0.11390568,0.11390568 0 0 1 -3.42e-4,0.0013 0.11390568,0.11390568 0 0 1 -0.0068,0.046432 C 8.649722,9.0876114 8.57344,9.2072305 8.475466,9.3065594 8.273532,9.5112839 7.999428,9.6129522 7.732067,9.6554984 c -0.266089,0.042345 -0.528412,0.030951 -0.780021,0.02966 -0.266368,-0.00136 -0.532651,0.0093 -0.798332,0.028466 v 1.5609546 h 4.625535 V 9.7197858 c -0.401375,-0.015747 -0.803413,-0.016336 -1.204657,0.00243 -0.01683,7.925e-4 -0.0362,0.00181 -0.05818,0.00142 C 9.395373,9.7215458 9.278686,9.6752738 9.189093,9.5938609 9.099503,9.5124489 9.042344,9.4007447 9.028685,9.2804605 a 0.11390568,0.11390568 0 0 1 0.04952,-0.1072998 l -0.06338,-0.1767798 0.117853,0.1324562 0.0086,0.024872 a 0.11390568,0.11390568 0 0 1 0.113746,0.1010253 c 0.0072,0.063719 0.03982,0.1273777 0.08728,0.1705047 0.04746,0.043126 0.113915,0.069502 0.178034,0.070621 0.01198,2.1e-4 0.02655,-3.974e-4 0.04364,-0.00119 0.444519,-0.020813 0.889975,-0.020779 1.33449,1.217e-4 a 0.11391707,0.11391707 0 0 1 0.108555,0.113803 v 1.7798902 a 0.11391707,0.11391707 0 0 1 -0.113856,0.113898 H 6.03985 A 0.11391707,0.11391707 0 0 1 5.925933,11.388462 V 9.6064046 A 0.11391707,0.11391707 0 0 1 6.030495,9.4928869 c 0.306886,-0.025257 0.614885,-0.037172 0.922803,-0.035598 0.257068,0.0013 0.506782,0.010789 0.743056,-0.026813 0.235001,-0.037398 0.46165,-0.1264795 0.616933,-0.2839082 0.06151,-0.062364 0.112361,-0.1358932 0.149284,-0.2155126 l -0.04164,-0.043636 c 0.0026,0.00204 0.0052,0.00408 0.0078,0.00605 l -0.01375,-0.012209 0.0059,0.00616 C 8.380141,8.8555071 8.343911,8.8181121 8.313296,8.7763555 8.241666,8.6786715 8.206126,8.5655076 8.191164,8.4558824 c -0.01488,-0.109055 -0.01002,-0.214313 -0.0026,-0.313286 0.0074,-0.09891 0.01729,-0.19235 0.01711,-0.280658 -1.75e-4,-0.08806 -0.01068,-0.171931 -0.03833,-0.244205 -0.02506,-0.06551 -0.06601,-0.121919 -0.115172,-0.154191 -0.02449,-0.01607 -0.05167,-0.02675 -0.07775,-0.03069 -0.02582,-0.0039 -0.05236,-0.0012 -0.0741,0.007 -0.02394,0.009 -0.04964,0.02763 -0.07233,0.05317 -0.02302,0.02591 -0.04391,0.05944 -0.06383,0.09806 -0.09331,0.180908 -0.131519,0.396089 -0.163831,0.618985 -0.03237,0.22326 -0.06088,0.4615593 -0.155503,0.6901768 C 7.420678,8.9585952 7.389918,9.0227359 7.339183,9.0809031 7.287443,9.1402261 7.215564,9.1911152 7.124697,9.205145 7.048897,9.216851 6.971987,9.200275 6.907644,9.15723 6.843164,9.114098 6.797827,9.0486685 6.780892,8.9722359 c -0.01875,-0.084605 4.53e-4,-0.1594184 0.01985,-0.2184793 0.0191,-0.058169 0.03798,-0.1031208 0.04432,-0.1382745 0.0031,-0.017394 0.0035,-0.03244 0.0019,-0.043698 -9.06e-4,-0.0064 -0.003,-0.00933 -0.0049,-0.013579 -0.003,0.00692 -0.0055,0.012079 -0.01,0.024074 -0.0057,0.015498 -0.01302,0.036232 -0.02607,0.060124 -0.01324,0.024238 -0.03224,0.051283 -0.06275,0.074043 -0.05195,0.038751 -0.111534,0.046721 -0.164971,0.037823 C 6.526741,8.7456891 6.485751,8.7224121 6.453458,8.6972811 6.389878,8.6478041 6.358378,8.5976751 6.333152,8.575321 6.322792,8.566131 6.311282,8.558068 6.299102,8.551474 A 0.11390568,0.11390568 0 0 1 6.245422,8.4147954 l -0.151395,-0.127436 0.168451,0.05527 0.02133,0.01842 h 5.8e-5 a 0.11390568,0.11390568 0 0 1 0.123671,-0.0099 c 0.02754,0.01491 0.05329,0.03296 0.07672,0.05373 0.05673,0.05028 0.08628,0.09483 0.109125,0.112605 0.0077,0.00596 0.01147,0.00689 0.01563,0.0085 0.0025,-0.00549 0.0051,-0.011061 0.0093,-0.022478 0.0068,-0.0184 0.01523,-0.04319 0.03126,-0.07142 0.01634,-0.02878 0.04029,-0.06048 0.07906,-0.08431 0.05354,-0.03291 0.113599,-0.03773 0.168508,-0.02213 0.05363,0.01524 0.09548,0.048 0.124984,0.08808 0.02901,0.03941 0.04407,0.08311 0.0502,0.1254411 0.0061,0.041909 0.0033,0.081294 -0.0031,0.116769 -0.01274,0.070588 -0.03766,0.1249931 -0.05208,0.168908 -0.01413,0.043024 -0.01836,0.077815 -0.01386,0.098116 0.0037,0.016562 0.01628,0.035123 0.03097,0.044949 0.01483,0.00992 0.03733,0.014926 0.05568,0.012091 0.02327,-0.00357 0.05335,-0.021113 0.07752,-0.048832 0.02518,-0.028874 0.04678,-0.069714 0.0668,-0.1180812 0.07905,-0.1909975 0.107825,-0.4095229 0.140613,-0.6356999 0.03284,-0.22654 0.07195,-0.468047 0.18682,-0.690747 0.02463,-0.04776 0.05447,-0.09814 0.09601,-0.144892 0.04186,-0.04712 0.09529,-0.08982 0.162291,-0.115058 0.03073,-0.01157 0.06234,-0.01864 0.09401,-0.02168 0.03166,-0.0031 0.06337,-0.002 0.09441,0.0027 0.06182,0.0093 0.11897,0.03278 0.168794,0.06549 0.09947,0.06529 0.16438,0.162655 0.202849,0.263202 0.04142,0.108271 0.05319,0.2199 0.05339,0.325151 2.1e-4,0.105 -0.01073,0.204196 -0.01774,0.298056 -0.007,0.0938 -0.01006,0.183062 0.0012,0.26554 0.01118,0.08191 0.03747,0.1583899 0.08015,0.2165967 0.01526,0.020813 0.03297,0.039974 0.0526,0.056816 0.01132,-0.017043 0.02385,-0.033379 0.03748,-0.048826 0.05485,-0.062187 0.125828,-0.1080351 0.205074,-0.1324567 0.125118,-0.03856 0.253022,-0.01969 0.362173,0.0243 0.107822,0.04346 0.196724,0.1094705 0.275524,0.1746124 0.07866,0.06503 0.148432,0.1298366 0.219733,0.1811717 0.07093,0.051068 0.144905,0.089187 0.217281,0.1025655 0.07542,0.013942 0.157316,9.057e-4 0.220932,-0.036051 0.063,-0.036611 0.112748,-0.1009246 0.129775,-0.1686227 0.01799,-0.07153 0.0044,-0.1589858 -0.02989,-0.2433504 C 10.113433,8.3691704 9.959096,8.2137884 9.793387,8.0591574 9.627004,7.9038994 9.44067,7.7377804 9.32728,7.5069144 9.29573,7.4426844 9.26887,7.3710674 9.2582,7.2919144 9.24745,7.2121244 9.2537,7.1259494 9.28912,7.0447424 c 0.03092,-0.07096 0.08292,-0.134497 0.155445,-0.175182 0.07359,-0.04129 0.162202,-0.0551 0.248142,-0.02864 0.08001,0.02463 0.134528,0.07566 0.175696,0.120021 0.04059,0.04373 0.06996,0.08148 0.09692,0.104619 0.01337,0.01148 0.02595,0.01962 0.03662,0.0243 0.0101,0.0044 0.01903,0.0058 0.02453,0.0057 -0.0035,-0.0083 -0.0099,-0.02033 -0.02013,-0.03862 -0.01844,-0.03279 -0.04717,-0.08114 -0.0482,-0.150368 -9.62e-4,-0.06511 0.02491,-0.120402 0.06087,-0.162519 0.03504,-0.04105 0.07713,-0.06703 0.117055,-0.08488 0.07901,-0.03534 0.145947,-0.04286 0.187446,-0.05881 0.01699,-0.0065 0.03336,-0.01483 0.04866,-0.0247 a 0.11390568,0.11390568 0 0 1 0.05613,-0.01803 0.11390568,0.11390568 0 0 1 0.0296,0.0024 0.11390568,0.11390568 0 0 1 0.0567,0.03092 z m -0.528115,0.40604 c -2.8e-5,-8.8e-5 -2.8e-5,-2.05e-4 -5.8e-5,-2.34e-4 1e-6,5.8e-5 -3e-6,2.04e-4 0,2.34e-4 z M 8.745902,9.9123561 h 0.173015 c 0.08963,0 0.167538,0.075033 0.167538,0.1664549 v 0.175068 c 0,0.09142 -0.07791,0.166512 -0.167538,0.166512 H 8.745902 c -0.08963,0 -0.167539,-0.07509 -0.167539,-0.166512 v -0.175068 c 0,-0.091421 0.07791,-0.1664549 0.167539,-0.1664549 z m -2.191064,6.793e-4 h 0.172958 c 0.08963,0 0.167595,0.074885 0.167595,0.1664546 v 0.175068 c 0,0.09157 -0.07796,0.166512 -0.167595,0.166512 H 6.554838 c -0.08963,0 -0.167596,-0.07494 -0.167596,-0.166512 V 10.07949 c 0,-0.09157 0.07796,-0.1664546 0.167596,-0.1664546 z m 2.921229,4.522e-4 h 0.173014 c 0.08963,0 0.167539,0.075033 0.167539,0.1664544 v 0.175069 c 0,0.09142 -0.07776,0.166569 -0.167539,0.166569 H 9.476067 c -0.08978,0 -0.167539,-0.07515 -0.167539,-0.166569 v -0.175066 c 0,-0.091421 0.07791,-0.1664551 0.167539,-0.1664551 z m 0.729137,0 h 0.172958 c 0.08963,0 0.167596,0.074885 0.167596,0.1664544 v 0.175069 c 0,0.09157 -0.07782,0.166569 -0.167596,0.166569 h -0.172958 c -0.08978,0 -0.167595,-0.075 -0.167595,-0.166569 v -0.175066 c 0,-0.09157 0.07796,-0.1664551 0.167595,-0.1664551 z m -2.92043,1.766e-4 h 0.173015 c 0.08963,0 0.167539,0.075034 0.167539,0.1664548 v 0.175069 c 0,0.09142 -0.07791,0.166511 -0.167539,0.166511 H 7.284774 c -0.08963,0 -0.167538,-0.07509 -0.167538,-0.166511 v -0.175069 c 0,-0.091421 0.07791,-0.1664548 0.167538,-0.1664548 z m 0.73045,0 h 0.173015 c 0.08963,0 0.167538,0.075034 0.167538,0.1664548 v 0.175069 c 0,0.09142 -0.07791,0.166511 -0.167538,0.166511 H 8.015224 c -0.08963,0 -0.167539,-0.07509 -0.167539,-0.166511 v -0.175069 c 0,-0.09142 0.07791,-0.1664548 0.167539,-0.1664548 z m 0.730678,0.5841318 h 0.173015 c 0.08963,0 0.167539,0.07503 0.167539,0.166454 v 0.175069 c 0,0.09142 -0.07791,0.166511 -0.167539,0.166511 H 8.745902 c -0.08963,0 -0.167539,-0.07509 -0.167539,-0.166511 v -0.175068 c 0,-0.09142 0.07791,-0.166455 0.167539,-0.166455 z m -2.191064,6.79e-4 h 0.172958 c 0.08963,0 0.167595,0.07489 0.167595,0.166455 v 0.175068 c 0,0.09157 -0.07796,0.166512 -0.167595,0.166512 H 6.554838 c -0.08963,0 -0.167596,-0.07494 -0.167596,-0.166512 V 10.66493 c 0,-0.09157 0.07796,-0.166455 0.167596,-0.166455 z m 2.921229,4.53e-4 h 0.173014 c 0.08978,0 0.167539,0.07509 0.167539,0.166512 v 0.175011 c 0,0.09142 -0.07776,0.166569 -0.167539,0.166569 H 9.476067 c -0.08978,0 -0.167539,-0.07515 -0.167539,-0.166569 V 10.66544 c 0,-0.09142 0.07776,-0.166512 0.167539,-0.166512 z m 0.729137,0 h 0.172958 c 0.08978,0 0.167596,0.07494 0.167596,0.166512 v 0.175011 c 0,0.09157 -0.07782,0.166569 -0.167596,0.166569 h -0.172958 c -0.08978,0 -0.167595,-0.075 -0.167595,-0.166569 V 10.66544 c 0,-0.09157 0.07782,-0.166512 0.167595,-0.166512 z m -2.92043,1.77e-4 h 0.173015 c 0.08963,0 0.167539,0.07503 0.167539,0.166454 v 0.175068 c 0,0.09142 -0.07791,0.166512 -0.167539,0.166512 H 7.284774 c -0.08963,0 -0.167538,-0.07509 -0.167538,-0.166512 v -0.175068 c 0,-0.09142 0.07791,-0.166454 0.167538,-0.166454 z m 0.73045,0 h 0.173015 c 0.08963,0 0.167538,0.07503 0.167538,0.166454 v 0.175068 c 0,0.09142 -0.07791,0.166512 -0.167538,0.166512 H 8.015224 c -0.08963,0 -0.167539,-0.07509 -0.167539,-0.166512 v -0.175068 c 0,-0.09142 0.07791,-0.166454 0.167539,-0.166454 z"
     class="ColorScheme-Text" />
  <path
     id="path5-6-5"
     style="fill:currentColor;stroke-width:0.566038"
     d="M 8.4665,4.4978281 A 3.9686996,3.968699 0 0 0 4.497827,8.4665004 3.9686996,3.968699 0 0 0 8.4665,12.435172 3.9686996,3.968699 0 0 0 12.435173,8.4665004 3.9686996,3.968699 0 0 0 8.4665,4.4978281 Z m 2.247538,1.470312 -0.12082,0.129775 -0.04769,0.02174 a 0.11390568,0.11390568 0 0 1 -0.04991,0.118138 c -0.02849,0.01839 -0.05876,0.03381 -0.09042,0.04598 -0.07706,0.02962 -0.139218,0.03762 -0.176152,0.05414 -0.01805,0.0081 -0.03066,0.01756 -0.03685,0.02482 -0.0045,0.0053 -0.0059,0.01094 -0.0063,0.01147 6.22e-4,0.002 0.005,0.01707 0.01888,0.04181 0.0096,0.01708 0.02359,0.03986 0.03565,0.07108 0.01231,0.03185 0.02222,0.072 0.01552,0.119051 -0.0084,0.05885 -0.03968,0.106371 -0.08243,0.139245 -0.04187,0.0322 -0.09001,0.04677 -0.137077,0.04871 -0.04639,0.0019 -0.08898,-0.0085 -0.126125,-0.02482 -0.03683,-0.01617 -0.0675,-0.0377 -0.0935,-0.06001 -0.05177,-0.04444 -0.08546,-0.09027 -0.115457,-0.122587 -0.02941,-0.03169 -0.0566,-0.05132 -0.07576,-0.05722 -0.01887,-0.0058 -0.0476,-0.0028 -0.06965,0.0096 -0.02313,0.01297 -0.04518,0.03796 -0.05807,0.06754 -0.01524,0.03498 -0.02015,0.07985 -0.01397,0.125668 0.0063,0.04645 0.02342,0.09547 0.04774,0.145006 0.08812,0.179419 0.249291,0.329535 0.417107,0.48613 0.168488,0.157224 0.352036,0.332763 0.449907,0.573464 0.0464,0.114123 0.07409,0.2485552 0.03982,0.3848198 -0.03329,0.1323447 -0.120873,0.2429462 -0.23622,0.3099781 C 10.087532,8.69834 9.952842,8.71831 9.825427,8.694759 9.706065,8.672695 9.603784,8.615921 9.516476,8.553061 9.429536,8.490467 9.356326,8.421798 9.284706,8.362591 9.213226,8.303497 9.142162,8.2531238 9.069136,8.2236887 8.997436,8.1947867 8.920492,8.1869697 8.859271,8.2058357 c -0.03843,0.011841 -0.07476,0.03527 -0.101367,0.065429 -0.0266,0.030159 -0.04535,0.069114 -0.05231,0.1087263 a 0.11390568,0.11390568 0 0 1 -3.42e-4,0.0013 0.11390568,0.11390568 0 0 1 -0.0068,0.046432 C 8.649722,8.5584551 8.57344,8.6780742 8.475466,8.7774031 8.273532,8.9821276 7.999428,9.0837959 7.732067,9.1263421 c -0.266089,0.042345 -0.528412,0.030951 -0.780021,0.02966 -0.266368,-0.00136 -0.532651,0.0093 -0.798332,0.028466 v 1.5609549 h 4.625535 V 9.1906295 c -0.401375,-0.015747 -0.803413,-0.016336 -1.204657,0.00243 -0.01683,7.925e-4 -0.0362,0.00181 -0.05818,0.00142 C 9.395373,9.1923895 9.278686,9.1461175 9.189093,9.0647046 9.099503,8.9832926 9.042344,8.8715884 9.028685,8.7513042 a 0.11390568,0.11390568 0 0 1 0.04952,-0.1072998 l -0.06338,-0.1767798 0.117853,0.1324562 0.0086,0.024872 a 0.11390568,0.11390568 0 0 1 0.113746,0.1010253 c 0.0072,0.063719 0.03982,0.1273777 0.08728,0.1705047 0.04746,0.043126 0.113915,0.069502 0.178034,0.070621 0.01198,2.1e-4 0.02655,-3.974e-4 0.04364,-0.00119 0.444519,-0.020813 0.889975,-0.020779 1.33449,1.217e-4 a 0.11391707,0.11391707 0 0 1 0.108555,0.113803 v 1.7798905 a 0.11391707,0.11391707 0 0 1 -0.113856,0.113898 H 6.03985 A 0.11391707,0.11391707 0 0 1 5.925933,10.859306 V 9.0772483 A 0.11391707,0.11391707 0 0 1 6.030495,8.9637306 c 0.306886,-0.025257 0.614885,-0.037172 0.922803,-0.035598 0.257068,0.0013 0.506782,0.010789 0.743056,-0.026813 0.235001,-0.037398 0.46165,-0.1264795 0.616933,-0.2839082 0.06151,-0.062364 0.112361,-0.1358932 0.149284,-0.2155126 l -0.04164,-0.043636 c 0.0026,0.00204 0.0052,0.00408 0.0078,0.00605 l -0.01375,-0.012209 0.0059,0.00616 C 8.380141,8.3263508 8.343911,8.2889558 8.313296,8.2471992 8.241666,8.1495152 8.206126,8.0363513 8.191164,7.9267261 c -0.01488,-0.109055 -0.01002,-0.214313 -0.0026,-0.313286 0.0074,-0.09891 0.01729,-0.19235 0.01711,-0.280658 -1.75e-4,-0.08806 -0.01068,-0.171931 -0.03833,-0.244205 -0.02506,-0.06551 -0.06601,-0.121919 -0.115172,-0.154191 -0.02449,-0.01607 -0.05167,-0.02675 -0.07775,-0.03069 -0.02582,-0.0039 -0.05236,-0.0012 -0.0741,0.007 -0.02394,0.009 -0.04964,0.02763 -0.07233,0.05317 -0.02302,0.02591 -0.04391,0.05944 -0.06383,0.09806 -0.09331,0.180908 -0.131519,0.396089 -0.163831,0.618985 -0.03237,0.22326 -0.06088,0.4615593 -0.155503,0.6901768 -0.02415,0.058351 -0.05491,0.1224917 -0.105645,0.1806589 -0.05174,0.059323 -0.123619,0.1102121 -0.214486,0.1242419 -0.0758,0.011706 -0.15271,-0.00487 -0.217053,-0.047915 -0.06448,-0.043132 -0.109817,-0.1085615 -0.126752,-0.1849941 -0.01875,-0.084605 4.53e-4,-0.1594184 0.01985,-0.2184793 0.0191,-0.058169 0.03798,-0.1031208 0.04432,-0.1382745 0.0031,-0.017394 0.0035,-0.03244 0.0019,-0.043698 -9.06e-4,-0.0064 -0.003,-0.00933 -0.0049,-0.013579 -0.003,0.00692 -0.0055,0.012079 -0.01,0.024074 -0.0057,0.015498 -0.01302,0.036232 -0.02607,0.060124 -0.01324,0.024238 -0.03224,0.051283 -0.06275,0.074043 -0.05195,0.038751 -0.111534,0.046721 -0.164971,0.037823 -0.05153,-0.00858 -0.09252,-0.031857 -0.124813,-0.056988 -0.06358,-0.049477 -0.09508,-0.099606 -0.120306,-0.1219601 -0.01036,-0.00919 -0.02187,-0.017253 -0.03405,-0.023847 A 0.11390568,0.11390568 0 0 1 6.245422,7.8856391 l -0.151395,-0.127436 0.168451,0.05527 0.02133,0.01842 h 5.8e-5 a 0.11390568,0.11390568 0 0 1 0.123671,-0.0099 c 0.02754,0.01491 0.05329,0.03296 0.07672,0.05373 0.05673,0.05028 0.08628,0.09483 0.109125,0.112605 0.0077,0.00596 0.01147,0.00689 0.01563,0.0085 0.0025,-0.00549 0.0051,-0.011061 0.0093,-0.022478 0.0068,-0.0184 0.01523,-0.04319 0.03126,-0.07142 0.01634,-0.02878 0.04029,-0.06048 0.07906,-0.08431 0.05354,-0.03291 0.113599,-0.03773 0.168508,-0.02213 0.05363,0.01524 0.09548,0.048 0.124984,0.08808 0.02901,0.03941 0.04407,0.08311 0.0502,0.1254411 0.0061,0.041909 0.0033,0.081294 -0.0031,0.116769 -0.01274,0.070588 -0.03766,0.1249931 -0.05208,0.168908 -0.01413,0.043024 -0.01836,0.077815 -0.01386,0.098116 0.0037,0.016562 0.01628,0.035123 0.03097,0.044949 0.01483,0.00992 0.03733,0.014926 0.05568,0.012091 0.02327,-0.00357 0.05335,-0.021113 0.07752,-0.048832 0.02518,-0.028874 0.04678,-0.069714 0.0668,-0.1180812 0.07905,-0.1909975 0.107825,-0.4095229 0.140613,-0.6356999 0.03284,-0.22654 0.07195,-0.468047 0.18682,-0.690747 0.02463,-0.04776 0.05447,-0.09814 0.09601,-0.144892 0.04186,-0.04712 0.09529,-0.08982 0.162291,-0.115058 0.03073,-0.01157 0.06234,-0.01864 0.09401,-0.02168 0.03166,-0.0031 0.06337,-0.002 0.09441,0.0027 0.06182,0.0093 0.11897,0.03278 0.168794,0.06549 0.09947,0.06529 0.16438,0.162655 0.202849,0.263202 0.04142,0.108271 0.05319,0.2199 0.05339,0.325151 2.1e-4,0.105 -0.01073,0.204196 -0.01774,0.298056 -0.007,0.0938 -0.01006,0.183062 0.0012,0.26554 0.01118,0.08191 0.03747,0.1583899 0.08015,0.2165967 0.01526,0.020813 0.03297,0.039974 0.0526,0.056816 0.01132,-0.017043 0.02385,-0.033379 0.03748,-0.048826 0.05485,-0.062187 0.125828,-0.1080351 0.205074,-0.1324567 0.125118,-0.03856 0.253022,-0.01969 0.362173,0.0243 0.107822,0.04346 0.196724,0.1094705 0.275524,0.1746124 0.07866,0.06503 0.148432,0.1298366 0.219733,0.1811717 0.07093,0.051068 0.144905,0.089187 0.217281,0.1025655 0.07542,0.013942 0.157316,9.057e-4 0.220932,-0.036051 0.063,-0.036611 0.112748,-0.1009246 0.129775,-0.1686227 0.01799,-0.07153 0.0044,-0.1589858 -0.02989,-0.2433504 C 10.113433,7.8400141 9.959096,7.6846321 9.793387,7.5300011 9.627004,7.3747431 9.44067,7.2086241 9.32728,6.9777581 9.29573,6.9135281 9.26887,6.8419111 9.2582,6.7627581 9.24745,6.6829681 9.2537,6.5967931 9.28912,6.5155861 c 0.03092,-0.07096 0.08292,-0.134497 0.155445,-0.175182 0.07359,-0.04129 0.162202,-0.0551 0.248142,-0.02864 0.08001,0.02463 0.134528,0.07566 0.175696,0.120021 0.04059,0.04373 0.06996,0.08148 0.09692,0.104619 0.01337,0.01148 0.02595,0.01962 0.03662,0.0243 0.0101,0.0044 0.01903,0.0058 0.02453,0.0057 -0.0035,-0.0083 -0.0099,-0.02033 -0.02013,-0.03862 -0.01844,-0.03279 -0.04717,-0.08114 -0.0482,-0.150368 -9.62e-4,-0.06511 0.02491,-0.120402 0.06087,-0.162519 0.03504,-0.04105 0.07713,-0.06703 0.117055,-0.08488 0.07901,-0.03534 0.145947,-0.04286 0.187446,-0.05881 0.01699,-0.0065 0.03336,-0.01483 0.04866,-0.0247 a 0.11390568,0.11390568 0 0 1 0.05613,-0.01803 0.11390568,0.11390568 0 0 1 0.0296,0.0024 0.11390568,0.11390568 0 0 1 0.0567,0.03092 z m -0.528115,0.40604 c -2.8e-5,-8.8e-5 -2.8e-5,-2.05e-4 -5.8e-5,-2.34e-4 1e-6,5.8e-5 -3e-6,2.04e-4 0,2.34e-4 z M 8.745902,9.3831998 h 0.173015 c 0.08963,0 0.167538,0.075033 0.167538,0.1664548 v 0.1750681 c 0,0.091421 -0.07791,0.1665119 -0.167538,0.1665119 H 8.745902 c -0.08963,0 -0.167539,-0.075091 -0.167539,-0.1665119 V 9.5496546 c 0,-0.091421 0.07791,-0.1664548 0.167539,-0.1664548 z m -2.191064,6.793e-4 h 0.172958 c 0.08963,0 0.167595,0.074885 0.167595,0.1664547 v 0.1750681 c 0,0.09157 -0.07796,0.1665119 -0.167595,0.1665119 H 6.554838 c -0.08963,0 -0.167596,-0.074942 -0.167596,-0.1665119 V 9.5503338 c 0,-0.09157 0.07796,-0.1664547 0.167596,-0.1664547 z m 2.921229,4.522e-4 h 0.173014 c 0.08963,0 0.167539,0.075033 0.167539,0.1664548 v 0.1750686 c 0,0.091421 -0.07776,0.1665691 -0.167539,0.1665691 H 9.476067 c -0.08978,0 -0.167539,-0.075148 -0.167539,-0.1665691 V 9.5507883 c 0,-0.091421 0.07791,-0.1664547 0.167539,-0.1664547 z m 0.729137,0 h 0.172958 c 0.08963,0 0.167596,0.074885 0.167596,0.1664548 v 0.1750686 c 0,0.09157 -0.07782,0.1665691 -0.167596,0.1665691 h -0.172958 c -0.08978,0 -0.167595,-0.074999 -0.167595,-0.1665691 V 9.5507883 c 0,-0.09157 0.07796,-0.1664547 0.167595,-0.1664547 z m -2.92043,1.766e-4 h 0.173015 c 0.08963,0 0.167539,0.075034 0.167539,0.1664548 v 0.1750687 c 0,0.091421 -0.07791,0.1665113 -0.167539,0.1665113 H 7.284774 c -0.08963,0 -0.167538,-0.075091 -0.167538,-0.1665113 V 9.5509627 c 0,-0.091421 0.07791,-0.1664548 0.167538,-0.1664548 z m 0.73045,0 h 0.173015 c 0.08963,0 0.167538,0.075034 0.167538,0.1664548 v 0.1750687 c 0,0.091421 -0.07791,0.1665113 -0.167538,0.1665113 H 8.015224 c -0.08963,0 -0.167539,-0.075091 -0.167539,-0.1665113 V 9.5509627 c 0,-0.09142 0.07791,-0.1664548 0.167539,-0.1664548 z m 0.730678,0.5841318 h 0.173015 c 0.08963,0 0.167539,0.075033 0.167539,0.1664543 v 0.175069 c 0,0.09142 -0.07791,0.166511 -0.167539,0.166511 H 8.745902 c -0.08963,0 -0.167539,-0.07509 -0.167539,-0.166511 v -0.175068 c 0,-0.09142 0.07791,-0.1664548 0.167539,-0.1664553 z m -2.191064,6.792e-4 h 0.172958 c 0.08963,0 0.167595,0.074886 0.167595,0.1664551 v 0.175068 c 0,0.09157 -0.07796,0.166512 -0.167595,0.166512 H 6.554838 c -0.08963,0 -0.167596,-0.07494 -0.167596,-0.166512 v -0.175068 c 0,-0.09157 0.07796,-0.1664551 0.167596,-0.1664551 z m 2.921229,4.528e-4 h 0.173014 c 0.08978,0 0.167539,0.075091 0.167539,0.1665123 v 0.175011 c 0,0.09142 -0.07776,0.166569 -0.167539,0.166569 H 9.476067 c -0.08978,0 -0.167539,-0.07515 -0.167539,-0.166569 v -0.175011 c 0,-0.09142 0.07776,-0.1665123 0.167539,-0.1665123 z m 0.729137,0 h 0.172958 c 0.08978,0 0.167596,0.074943 0.167596,0.1665123 v 0.175011 c 0,0.09157 -0.07782,0.166569 -0.167596,0.166569 h -0.172958 c -0.08978,0 -0.167595,-0.075 -0.167595,-0.166569 v -0.175011 c 0,-0.09157 0.07782,-0.1665123 0.167595,-0.1665123 z m -2.92043,1.766e-4 h 0.173015 c 0.08963,0 0.167539,0.075034 0.167539,0.1664547 v 0.175068 c 0,0.09142 -0.07791,0.166512 -0.167539,0.166512 H 7.284774 c -0.08963,0 -0.167538,-0.07509 -0.167538,-0.166512 v -0.175068 c 0,-0.09142 0.07791,-0.1664547 0.167538,-0.1664547 z m 0.73045,0 h 0.173015 c 0.08963,0 0.167538,0.075033 0.167538,0.1664547 v 0.175068 c 0,0.09142 -0.07791,0.166512 -0.167538,0.166512 H 8.015224 c -0.08963,0 -0.167539,-0.07509 -0.167539,-0.166512 v -0.175068 c 0,-0.09142 0.07791,-0.1664547 0.167539,-0.1664547 z"
     class="ColorScheme-Text" />
  <path
     id="gradient-path1"
     style="opacity:0.3;baseline-shift:baseline;display:inline;overflow:visible;vector-effect:none;enable-background:accumulate;stop-color:#000000;stop-opacity:1;fill:url(#linearGradient4)"
     d="M 8.4453131 1.2753492 C 4.4913166 1.2753492 1.2794833 4.4784283 1.2794833 8.4236094 C 1.2794833 12.36879 4.4913166 15.572386 8.4453131 15.572386 C 12.39931 15.572386 15.611143 12.36879 15.611143 8.4236094 C 15.611143 4.4784283 12.39931 1.2753492 8.4453131 1.2753492 z " />
</svg>
