<?xml version='1.0' encoding='UTF-8'?>
<svg xmlns:inkscape="http://www.inkscape.org/namespaces/inkscape" xmlns:sodipodi="http://sodipodi.sourceforge.net/DTD/sodipodi-0.dtd" xmlns:xlink="http://www.w3.org/1999/xlink" xmlns="http://www.w3.org/2000/svg" xmlns:svg="http://www.w3.org/2000/svg" xmlns:rdf="http://www.w3.org/1999/02/22-rdf-syntax-ns#" xmlns:cc="http://creativecommons.org/ns#" xmlns:dc="http://purl.org/dc/elements/1.1/" width="64" height="64" version="1.1" viewBox="0 0 16.933 16.933" id="svg7" sodipodi:docname="yad.svg" inkscape:version="1.4.2 (ebf0e940d0, 2025-05-08)">
  <sodipodi:namedview id="namedview7" pagecolor="#a9abb3" bordercolor="#000000" borderopacity="0.25" inkscape:showpageshadow="2" inkscape:pageopacity="0.0" inkscape:pagecheckerboard="0" inkscape:deskcolor="#d1d1d1" inkscape:zoom="4.3531261" inkscape:cx="36.066035" inkscape:cy="26.417797" inkscape:window-width="2560" inkscape:window-height="1372" inkscape:window-x="0" inkscape:window-y="0" inkscape:window-maximized="1" inkscape:current-layer="svg7" showgrid="false"/>
  <defs id="defs2">
    <filter style="color-interpolation-filters:sRGB;" inkscape:label="Blur" id="filter3" x="-0.10843471" y="-0.10870992" width="1.2168694" height="1.2174198">
      <feGaussianBlur stdDeviation="0.5 0.5" result="blur" id="feGaussianBlur3"/>
    </filter>
    <style id="current-color-scheme" type="text/css">.ColorScheme-Text {color:#d8dee9} .ColorScheme-Highlight {color:#3b4252}</style><linearGradient id="linearGradient3" inkscape:collect="always">
      <stop style="stop-color:#000000;stop-opacity:1;" offset="0" id="stop3"/>
      <stop style="stop-color:#000000;stop-opacity:0;" offset="1" id="stop4"/>
    </linearGradient>
    <linearGradient inkscape:collect="always" xlink:href="#linearGradient3" id="linearGradient4" x1="13.512321" y1="13.490874" x2="3.3783066" y2="3.3568602" gradientUnits="userSpaceOnUse"/>
  </defs>
  <metadata id="metadata2">
    <rdf:RDF>
      <cc:Work rdf:about="">
        <dc:format>image/svg+xml</dc:format>
        <dc:type rdf:resource="http://purl.org/dc/dcmitype/StillImage"/>
      </cc:Work>
    </rdf:RDF>
  </metadata>
  <ellipse style="opacity:1;fill:none;stroke:#000000;stroke-width:0.582072;stroke-dasharray:none;stroke-opacity:1;filter:url(#filter3)" id="path1-5" cx="8.4450111" cy="8.423522" rx="6.8752708" ry="6.8578653"/>
  <ellipse style="opacity:1;fill:none;stroke-width:0.58207188;stroke-opacity:1;stroke:currentColor;stroke-dasharray:none;fill-opacity:1" id="path1" cx="8.4450111" cy="8.423522" rx="6.8752708" ry="6.8578653" class="ColorScheme-Text"/>
  <ellipse style="fill:currentColor;stroke:none;stroke-width:0.285844;stroke-dasharray:none;stroke-opacity:1" id="path1-2" cx="8.4557552" cy="8.423522" rx="6.5738997" ry="6.5692253" class="ColorScheme-Highlight"/>
<path d="M 12.135648,11.126459 9.9781249,7.1347215 V 4.7566923 c 0,-0.2238478 -0.187354,-0.4022064 -0.410944,-0.4022064 h -2.202241 c -0.223848,0 -0.407861,0.1783586 -0.407861,0.4022064 v 2.3780292 l -2.159578,3.9917375 c -0.164481,0.304289 -0.156256,0.673856 0.02081,0.971206 0.177074,0.297351 0.498325,0.480849 0.844248,0.480849 H 11.26929 c 0.345923,0 0.667945,-0.183498 0.845019,-0.480849 0.177074,-0.29735 0.186068,-0.666917 0.02133,-0.971206 z M 8.8226489,9.4564675 c 0.193265,0 0.350035,0.1565135 0.350035,0.3497781 0,0.1932647 -0.157028,0.3500354 -0.350035,0.3500354 -0.193265,0 -0.350035,-0.1567707 -0.350035,-0.3500354 0,-0.1927506 0.15677,-0.3497781 0.350035,-0.3497781 z M 7.8385929,7.3524012 c 0.193521,0 0.350035,0.1567706 0.350035,0.3500352 0,0.1930077 -0.156514,0.3497782 -0.350035,0.3497782 -0.193265,0 -0.349779,-0.1567705 -0.349779,-0.3497782 0,-0.1932646 0.156514,-0.3500352 0.349779,-0.3500352 z m 0,1.2215252 c 0.313283,0 0.5672,0.2541739 0.5672,0.5672009 0,0.3130271 -0.253917,0.566944 -0.5672,0.566944 -0.313284,0 -0.567201,-0.2539169 -0.567201,-0.566944 0,-0.313284 0.253917,-0.5672009 0.567201,-0.5672009 z m 3.2574851,2.9092496 c -0.07273,0.123875 -0.205857,0.19712 -0.349264,0.19712 H 6.1850489 c -0.143406,0 -0.276533,-0.07325 -0.349264,-0.19712 -0.07273,-0.124131 -0.07479,-0.275248 -0.0049,-0.401178 L 6.3790839,10.0964 c 0.07813,-0.1408368 0.232585,-0.2215351 0.392953,-0.206372 0.728085,0.06939 1.546375,0.69236 2.2778,0.664604 0.391669,-0.01491 0.755325,-0.157798 1.1017621,-0.348493 0.195578,-0.108197 0.441528,-0.03726 0.549983,0.158056 l 0.399636,0.717546 c 0.06939,0.12593 0.06759,0.277561 -0.0052,0.401435 z" fill="#ffffff" fill-opacity="0.85" fill-rule="nonzero" id="path3" style="fill:#000000;fill-opacity:1;stroke-width:0.257001;opacity:0.3"/>
  <path d="M 12.135648,10.597244 9.9781249,6.6055065 v -2.378029 c 0,-0.223848 -0.187354,-0.402207 -0.410944,-0.402207 h -2.202241 c -0.223848,0 -0.407861,0.178359 -0.407861,0.402207 v 2.378029 l -2.159578,3.9917385 c -0.164481,0.304289 -0.156256,0.673856 0.02081,0.971205 0.177074,0.297351 0.498325,0.480849 0.844248,0.480849 H 11.26929 c 0.345923,0 0.667945,-0.183499 0.845019,-0.480849 0.177074,-0.297349 0.186068,-0.666916 0.02133,-0.971205 z M 8.8226489,8.9272525 c 0.193265,0 0.350035,0.156514 0.350035,0.349778 0,0.193265 -0.157028,0.3500355 -0.350035,0.3500355 -0.193265,0 -0.350035,-0.1567705 -0.350035,-0.3500355 0,-0.19275 0.15677,-0.349778 0.350035,-0.349778 z m -0.984056,-2.104066 c 0.193521,0 0.350035,0.15677 0.350035,0.350035 0,0.193008 -0.156514,0.349778 -0.350035,0.349778 -0.193265,0 -0.349779,-0.15677 -0.349779,-0.349778 0,-0.193265 0.156514,-0.350035 0.349779,-0.350035 z m 0,1.221525 c 0.313283,0 0.5672,0.254174 0.5672,0.567201 0,0.313027 -0.253917,0.566944 -0.5672,0.566944 -0.313284,0 -0.567201,-0.253917 -0.567201,-0.566944 0,-0.313284 0.253917,-0.567201 0.567201,-0.567201 z m 3.2574851,2.9092505 c -0.07273,0.123874 -0.205857,0.19712 -0.349264,0.19712 H 6.1850489 c -0.143406,0 -0.276533,-0.07325 -0.349264,-0.19712 -0.07273,-0.124131 -0.07479,-0.275248 -0.0049,-0.401178 l 0.548199,-0.985599 c 0.07813,-0.1408365 0.232585,-0.2215355 0.392953,-0.2063715 0.728085,0.06939 1.546375,0.6923605 2.2778,0.6646045 0.391669,-0.01491 0.755325,-0.157799 1.1017621,-0.348494 0.195578,-0.108198 0.441528,-0.03726 0.549983,0.158056 l 0.399636,0.717547 c 0.06939,0.12593 0.06759,0.27756 -0.0052,0.401434 z" fill="#ffffff" fill-opacity="0.85" fill-rule="nonzero" id="path3-9" style="fill:currentColor;fill-opacity:1;stroke-width:0.257001" class="ColorScheme-Text"/>
<path id="gradient-path1" style="opacity:0.3;baseline-shift:baseline;display:inline;overflow:visible;vector-effect:none;enable-background:accumulate;stop-color:#000000;stop-opacity:1;fill:url(#linearGradient4)" d="M 8.4453131 1.2753492 C 4.4913166 1.2753492 1.2794833 4.4784283 1.2794833 8.4236094 C 1.2794833 12.36879 4.4913166 15.572386 8.4453131 15.572386 C 12.39931 15.572386 15.611143 12.36879 15.611143 8.4236094 C 15.611143 4.4784283 12.39931 1.2753492 8.4453131 1.2753492 z "/>
</svg>
