<?xml version="1.0" encoding="UTF-8" standalone="no"?>
<svg
   width="64"
   height="64"
   version="1.1"
   viewBox="0 0 16.933 16.933"
   id="svg7"
   sodipodi:docname="yakuake.svg"
   inkscape:version="1.4.2 (ebf0e940d0, 2025-05-08)"
   xmlns:inkscape="http://www.inkscape.org/namespaces/inkscape"
   xmlns:sodipodi="http://sodipodi.sourceforge.net/DTD/sodipodi-0.dtd"
   xmlns:xlink="http://www.w3.org/1999/xlink"
   xmlns="http://www.w3.org/2000/svg"
   xmlns:svg="http://www.w3.org/2000/svg"
   xmlns:rdf="http://www.w3.org/1999/02/22-rdf-syntax-ns#"
   xmlns:cc="http://creativecommons.org/ns#"
   xmlns:dc="http://purl.org/dc/elements/1.1/">
  <sodipodi:namedview
     id="namedview7"
     pagecolor="#9c4444"
     bordercolor="#000000"
     borderopacity="0.25"
     inkscape:showpageshadow="2"
     inkscape:pageopacity="0.0"
     inkscape:pagecheckerboard="0"
     inkscape:deskcolor="#d1d1d1"
     inkscape:zoom="4.3531261"
     inkscape:cx="36.066035"
     inkscape:cy="26.188077"
     inkscape:window-width="2560"
     inkscape:window-height="1376"
     inkscape:window-x="0"
     inkscape:window-y="0"
     inkscape:window-maximized="1"
     inkscape:current-layer="svg7"
     showgrid="false" />
  <defs
     id="defs2">
    <filter
       style="color-interpolation-filters:sRGB;"
       inkscape:label="Blur"
       id="filter3"
       x="-0.10843471"
       y="-0.10870992"
       width="1.2168694"
       height="1.2174198">
      <feGaussianBlur
         stdDeviation="0.5 0.5"
         result="blur"
         id="feGaussianBlur3" />
    </filter>
    <style
       id="current-color-scheme"
       type="text/css">.ColorScheme-Text {color:#d8dee9} .ColorScheme-Highlight {color:#3b4252}</style>
    <linearGradient
       id="linearGradient3"
       inkscape:collect="always">
      <stop
         style="stop-color:#000000;stop-opacity:1;"
         offset="0"
         id="stop3" />
      <stop
         style="stop-color:#000000;stop-opacity:0;"
         offset="1"
         id="stop4" />
    </linearGradient>
    <linearGradient
       inkscape:collect="always"
       xlink:href="#linearGradient3"
       id="linearGradient4"
       x1="13.512321"
       y1="13.490874"
       x2="3.3783066"
       y2="3.3568602"
       gradientUnits="userSpaceOnUse" />
  </defs>
  <metadata
     id="metadata2">
    <rdf:RDF>
      <cc:Work
         rdf:about="">
        <dc:format>image/svg+xml</dc:format>
        <dc:type
           rdf:resource="http://purl.org/dc/dcmitype/StillImage" />
      </cc:Work>
    </rdf:RDF>
  </metadata>
  <ellipse
     style="opacity:1;fill:none;stroke:#000000;stroke-width:0.582072;stroke-dasharray:none;stroke-opacity:1;filter:url(#filter3)"
     id="path1-5"
     cx="8.4450111"
     cy="8.423522"
     rx="6.8752708"
     ry="6.8578653" />
  <ellipse
     style="opacity:1;fill:none;stroke-width:0.58207188;stroke-opacity:1;stroke:currentColor;stroke-dasharray:none;fill-opacity:1"
     id="path1"
     cx="8.4450111"
     cy="8.423522"
     rx="6.8752708"
     ry="6.8578653"
     class="ColorScheme-Text" />
  <ellipse
     style="fill:currentColor;stroke:none;stroke-width:0.285844;stroke-dasharray:none;stroke-opacity:1"
     id="path1-2"
     cx="8.4557552"
     cy="8.423522"
     rx="6.5738997"
     ry="6.5692253"
     class="ColorScheme-Highlight" />
  <path
     id="path13"
     style="opacity:0.3;fill:#000000;fill-opacity:1;stroke-width:0.164889;paint-order:markers stroke fill"
     d="m 4.409635,5.6442451 c -0.09772,0 -0.176385,0.078668 -0.176385,0.1763853 v 0.352771 c 0,0.097717 0.07866,0.1763855 0.176385,0.1763855 h 8.11373 c 0.09772,0 0.176385,-0.078668 0.176385,-0.1763855 v -0.352771 c 0,-0.097717 -0.07866,-0.1763853 -0.176385,-0.1763853 z m 0.326589,0.9604736 v 4.8102923 h 7.460552 V 6.6047187 Z M 6.977903,7.573805 7.84915,8.4450525 8.720399,7.573805 8.907464,7.7608701 9.094529,7.9479352 8.223282,8.8191827 8.036216,9.0062477 6.977903,10.06456 6.603773,9.6904303 7.47502,8.8191827 6.603773,7.9479352 Z M 8.4665,10.230266 h 1.940239 v 0.529156 H 8.4665 Z M 4.409635,11.64135 c -0.09772,0 -0.176385,0.07867 -0.176385,0.176385 0,0.09772 0.07866,0.176385 0.176385,0.176385 h 3.174937 l 0.352772,0.352771 H 8.995656 L 9.348428,11.99412 h 3.174937 c 0.09772,0 0.176385,-0.07867 0.176385,-0.176385 0,-0.09772 -0.07866,-0.176385 -0.176385,-0.176385 z" />
  <path
     id="path13-7"
     class="ColorScheme-Text"
     style="fill:currentColor;fill-opacity:1;stroke-width:0.164889;paint-order:markers stroke fill"
     d="m 4.409635,5.1151775 c -0.09772,0 -0.176385,0.07867 -0.176385,0.176385 v 0.352771 c 0,0.09772 0.07866,0.176386 0.176385,0.176386 h 8.11373 c 0.09772,0 0.176385,-0.07867 0.176385,-0.176386 v -0.352771 c 0,-0.09772 -0.07866,-0.176385 -0.176385,-0.176385 z m 0.326589,0.960473 v 4.8102915 h 7.460552 V 6.0756505 Z m 2.241679,0.969087 0.871247,0.871247 0.871249,-0.871247 0.187065,0.187065 0.187065,0.187065 -0.871247,0.871247 -0.187066,0.187065 -1.058313,1.058313 -0.37413,-0.37413 L 7.47502,8.2901145 6.603773,7.4188675 Z M 8.4665,9.7011985 h 1.940239 V 10.230354 H 8.4665 Z M 4.409635,11.112281 c -0.09772,0 -0.176385,0.07867 -0.176385,0.176385 0,0.09772 0.07866,0.176386 0.176385,0.176386 h 3.174937 l 0.352772,0.35277 h 1.058312 l 0.352772,-0.35277 h 3.174937 c 0.09772,0 0.176385,-0.07867 0.176385,-0.176386 0,-0.09772 -0.07866,-0.176385 -0.176385,-0.176385 z" />
  <path
     id="gradient-path1"
     style="opacity:0.3;baseline-shift:baseline;display:inline;overflow:visible;vector-effect:none;enable-background:accumulate;stop-color:#000000;stop-opacity:1;fill:url(#linearGradient4)"
     d="M 8.4453131 1.2753492 C 4.4913166 1.2753492 1.2794833 4.4784283 1.2794833 8.4236094 C 1.2794833 12.36879 4.4913166 15.572386 8.4453131 15.572386 C 12.39931 15.572386 15.611143 12.36879 15.611143 8.4236094 C 15.611143 4.4784283 12.39931 1.2753492 8.4453131 1.2753492 z " />
</svg>
