<?xml version="1.0" encoding="UTF-8" standalone="no"?>
<svg
   width="64"
   height="64"
   version="1.1"
   viewBox="0 0 16.933 16.933"
   id="svg7"
   sodipodi:docname="youtube-music.svg"
   inkscape:version="1.4.2 (ebf0e940d0, 2025-05-08)"
   xmlns:inkscape="http://www.inkscape.org/namespaces/inkscape"
   xmlns:sodipodi="http://sodipodi.sourceforge.net/DTD/sodipodi-0.dtd"
   xmlns:xlink="http://www.w3.org/1999/xlink"
   xmlns="http://www.w3.org/2000/svg"
   xmlns:svg="http://www.w3.org/2000/svg"
   xmlns:rdf="http://www.w3.org/1999/02/22-rdf-syntax-ns#"
   xmlns:cc="http://creativecommons.org/ns#"
   xmlns:dc="http://purl.org/dc/elements/1.1/">
  <sodipodi:namedview
     id="namedview7"
     pagecolor="#9c4444"
     bordercolor="#000000"
     borderopacity="0.25"
     inkscape:showpageshadow="2"
     inkscape:pageopacity="0.0"
     inkscape:pagecheckerboard="0"
     inkscape:deskcolor="#d1d1d1"
     inkscape:zoom="6.1562498"
     inkscape:cx="58.233504"
     inkscape:cy="63.512692"
     inkscape:window-width="2560"
     inkscape:window-height="1392"
     inkscape:window-x="0"
     inkscape:window-y="0"
     inkscape:window-maximized="1"
     inkscape:current-layer="svg7"
     showgrid="false" />
  <defs
     id="defs2">
    <filter
       style="color-interpolation-filters:sRGB;"
       inkscape:label="Blur"
       id="filter3"
       x="-0.10843471"
       y="-0.10870992"
       width="1.2168694"
       height="1.2174198">
      <feGaussianBlur
         stdDeviation="0.5 0.5"
         result="blur"
         id="feGaussianBlur3" />
    </filter>
    <style
       id="current-color-scheme"
       type="text/css">.ColorScheme-Text {color:#d8dee9} .ColorScheme-Highlight {color:#3b4252}</style>
    <linearGradient
       id="linearGradient3"
       inkscape:collect="always">
      <stop
         style="stop-color:#000000;stop-opacity:1;"
         offset="0"
         id="stop3" />
      <stop
         style="stop-color:#000000;stop-opacity:0;"
         offset="1"
         id="stop4" />
    </linearGradient>
    <linearGradient
       inkscape:collect="always"
       xlink:href="#linearGradient3"
       id="linearGradient4"
       x1="13.512321"
       y1="13.490874"
       x2="3.3783066"
       y2="3.3568602"
       gradientUnits="userSpaceOnUse" />
  </defs>
  <metadata
     id="metadata2">
    <rdf:RDF>
      <cc:Work
         rdf:about="">
        <dc:format>image/svg+xml</dc:format>
        <dc:type
           rdf:resource="http://purl.org/dc/dcmitype/StillImage" />
      </cc:Work>
    </rdf:RDF>
  </metadata>
  <ellipse
     style="opacity:1;fill:none;stroke:#000000;stroke-width:0.582072;stroke-dasharray:none;stroke-opacity:1;filter:url(#filter3)"
     id="path1-5"
     cx="8.4450111"
     cy="8.423522"
     rx="6.8752708"
     ry="6.8578653" />
  <ellipse
     style="opacity:1;fill:none;stroke-width:0.58207188;stroke-opacity:1;stroke:currentColor;stroke-dasharray:none;fill-opacity:1"
     id="path1"
     cx="8.4450111"
     cy="8.423522"
     rx="6.8752708"
     ry="6.8578653"
     class="ColorScheme-Text" />
  <ellipse
     style="fill:currentColor;stroke:none;stroke-width:0.285844;stroke-dasharray:none;stroke-opacity:1"
     id="path1-2"
     cx="8.4557552"
     cy="8.423522"
     rx="6.5738997"
     ry="6.5692253"
     class="ColorScheme-Highlight" />
  <path
     style="opacity:0.3;fill:#000000;fill-opacity:1;stroke-width:0.496084"
     d="M 8.466499,5.0269844 A 3.9686717,3.9686717 0 0 0 4.497828,8.995656 3.9686717,3.9686717 0 0 0 8.466499,12.964328 3.9686717,3.9686717 0 0 0 12.435172,8.995656 3.9686717,3.9686717 0 0 0 8.466499,5.0269844 Z m 0,1.4882518 A 2.4804197,2.4804197 0 0 1 10.946921,8.995656 2.4804197,2.4804197 0 0 1 8.466499,11.476076 2.4804197,2.4804197 0 0 1 5.986081,8.995656 2.4804197,2.4804197 0 0 1 8.466499,6.5152362 Z m -0.03004,0.496084 A 1.9843358,1.9843352 0 0 0 6.482162,8.995656 1.9843358,1.9843352 0 0 0 8.466496,10.979992 1.9843358,1.9843352 0 0 0 10.450834,8.995656 1.9843358,1.9843352 0 0 0 8.466496,7.0113202 a 1.9843358,1.9843352 0 0 0 -0.004,0 1.9843358,1.9843352 0 0 0 -0.02616,0 z M 7.970413,8.0034881 8.71454,8.499572 9.458666,8.995656 8.71454,9.4917399 7.970413,9.987824 V 8.995656 Z"
     id="path1-6" />
  <path
     style="fill:currentColor;stroke-width:0.496084"
     class="ColorScheme-Text"
     d="M 8.466499,4.497828 A 3.9686717,3.9686717 0 0 0 4.497828,8.4665 3.9686717,3.9686717 0 0 0 8.466499,12.435172 3.9686717,3.9686717 0 0 0 12.435172,8.4665 3.9686717,3.9686717 0 0 0 8.466499,4.497828 Z m 0,1.488252 A 2.4804197,2.4804197 0 0 1 10.946921,8.4665 2.4804197,2.4804197 0 0 1 8.466499,10.94692 2.4804197,2.4804197 0 0 1 5.986081,8.4665 2.4804197,2.4804197 0 0 1 8.466499,5.98608 Z M 8.436459,6.482164 A 1.9843358,1.9843352 0 0 0 6.482162,8.4665 1.9843358,1.9843352 0 0 0 8.466496,10.450836 1.9843358,1.9843352 0 0 0 10.450834,8.4665 1.9843358,1.9843352 0 0 0 8.466496,6.482164 a 1.9843358,1.9843352 0 0 0 -0.004,0 1.9843358,1.9843352 0 0 0 -0.02616,0 z M 7.970413,7.474332 8.71454,7.970416 9.458666,8.4665 8.71454,8.962584 7.970413,9.458668 V 8.4665 Z"
     id="path1-6-5" />
  <path
     id="gradient-path1"
     style="opacity:0.3;baseline-shift:baseline;display:inline;overflow:visible;vector-effect:none;enable-background:accumulate;stop-color:#000000;stop-opacity:1;fill:url(#linearGradient4)"
     d="M 8.4453131 1.2753492 C 4.4913166 1.2753492 1.2794833 4.4784283 1.2794833 8.4236094 C 1.2794833 12.36879 4.4913166 15.572386 8.4453131 15.572386 C 12.39931 15.572386 15.611143 12.36879 15.611143 8.4236094 C 15.611143 4.4784283 12.39931 1.2753492 8.4453131 1.2753492 z " />
</svg>
