<?xml version="1.0" encoding="UTF-8" standalone="no"?>
<svg
   width="64"
   height="64"
   version="1.1"
   viewBox="0 0 16.933 16.933"
   id="svg7"
   sodipodi:docname="zen.svg"
   inkscape:version="1.4.2 (ebf0e940d0, 2025-05-08)"
   xmlns:inkscape="http://www.inkscape.org/namespaces/inkscape"
   xmlns:sodipodi="http://sodipodi.sourceforge.net/DTD/sodipodi-0.dtd"
   xmlns:xlink="http://www.w3.org/1999/xlink"
   xmlns="http://www.w3.org/2000/svg"
   xmlns:svg="http://www.w3.org/2000/svg"
   xmlns:rdf="http://www.w3.org/1999/02/22-rdf-syntax-ns#"
   xmlns:cc="http://creativecommons.org/ns#"
   xmlns:dc="http://purl.org/dc/elements/1.1/">
  <sodipodi:namedview
     id="namedview7"
     pagecolor="#9c4444"
     bordercolor="#000000"
     borderopacity="0.25"
     inkscape:showpageshadow="2"
     inkscape:pageopacity="0.0"
     inkscape:pagecheckerboard="0"
     inkscape:deskcolor="#d1d1d1"
     inkscape:zoom="6.1562498"
     inkscape:cx="58.233504"
     inkscape:cy="63.512692"
     inkscape:window-width="2560"
     inkscape:window-height="1392"
     inkscape:window-x="0"
     inkscape:window-y="0"
     inkscape:window-maximized="1"
     inkscape:current-layer="svg7"
     showgrid="false" />
  <defs
     id="defs2">
    <filter
       style="color-interpolation-filters:sRGB;"
       inkscape:label="Blur"
       id="filter3"
       x="-0.10843471"
       y="-0.10870992"
       width="1.2168694"
       height="1.2174198">
      <feGaussianBlur
         stdDeviation="0.5 0.5"
         result="blur"
         id="feGaussianBlur3" />
    </filter>
    <style
       id="current-color-scheme"
       type="text/css">.ColorScheme-Text {color:#d8dee9} .ColorScheme-Highlight {color:#3b4252}</style>
    <linearGradient
       id="linearGradient3"
       inkscape:collect="always">
      <stop
         style="stop-color:#000000;stop-opacity:1;"
         offset="0"
         id="stop3" />
      <stop
         style="stop-color:#000000;stop-opacity:0;"
         offset="1"
         id="stop4" />
    </linearGradient>
    <linearGradient
       inkscape:collect="always"
       xlink:href="#linearGradient3"
       id="linearGradient4"
       x1="13.512321"
       y1="13.490874"
       x2="3.3783066"
       y2="3.3568602"
       gradientUnits="userSpaceOnUse" />
  </defs>
  <metadata
     id="metadata2">
    <rdf:RDF>
      <cc:Work
         rdf:about="">
        <dc:format>image/svg+xml</dc:format>
        <dc:type
           rdf:resource="http://purl.org/dc/dcmitype/StillImage" />
      </cc:Work>
    </rdf:RDF>
  </metadata>
  <ellipse
     style="opacity:1;fill:none;stroke:#000000;stroke-width:0.582072;stroke-dasharray:none;stroke-opacity:1;filter:url(#filter3)"
     id="path1-5"
     cx="8.4450111"
     cy="8.423522"
     rx="6.8752708"
     ry="6.8578653" />
  <ellipse
     style="opacity:1;fill:none;stroke-width:0.58207188;stroke-opacity:1;stroke:currentColor;stroke-dasharray:none;fill-opacity:1"
     id="path1"
     cx="8.4450111"
     cy="8.423522"
     rx="6.8752708"
     ry="6.8578653"
     class="ColorScheme-Text" />
  <ellipse
     style="fill:currentColor;stroke:none;stroke-width:0.285844;stroke-dasharray:none;stroke-opacity:1"
     id="path1-2"
     cx="8.4557552"
     cy="8.423522"
     rx="6.5738997"
     ry="6.5692253"
     class="ColorScheme-Highlight" />
  <path
     id="path5"
     style="opacity:0.3;fill:#000000;fill-opacity:1;stroke-width:0.124021"
     d="m 8.4664995,5.0269844 c -2.191835,0 -3.968672,1.7768366 -3.968672,3.9686718 0,2.1918348 1.776837,3.9686718 3.968672,3.9686718 2.1918355,0 3.9686735,-1.776837 3.9686735,-3.9686718 0,-2.1918352 -1.776837,-3.9686718 -3.9686735,-3.9686718 z m 0,0.7123455 c 1.7984285,0 3.2563265,1.4578981 3.2563265,3.2563263 0,1.7984278 -1.457898,3.2563258 -3.2563265,3.2563258 -1.798428,0 -3.256327,-1.457898 -3.256327,-3.2563258 0,-1.7984282 1.457899,-3.2563263 3.256327,-3.2563263 z m 0,0.6105611 c -1.461228,0 -2.645765,1.1845376 -2.645765,2.6457652 0,1.4612278 1.184537,2.6457648 2.645765,2.6457648 1.461228,0 2.6457645,-1.184537 2.6457645,-2.6457648 0,-1.4612276 -1.1845365,-2.6457652 -2.6457645,-2.6457652 z m 0,0.5087768 c 1.180222,0 2.1369875,0.9567674 2.1369875,2.1369884 0,1.1802208 -0.9567665,2.1369878 -2.1369875,2.1369878 -1.180221,0 -2.136989,-0.956767 -2.136989,-2.1369878 0,-1.180221 0.956768,-2.1369884 2.136989,-2.1369884 z m 0,0.6105612 c -0.843008,0 -1.526427,0.6834192 -1.526427,1.5264272 0,0.8430204 0.683419,1.5264268 1.526427,1.5264268 0.84302,0 1.526427,-0.6834064 1.526427,-1.5264268 0,-0.843008 -0.683407,-1.5264272 -1.526427,-1.5264272 z m 0,0.3053049 c 0.674414,0 1.221123,0.5467087 1.221123,1.2211223 0,0.6744142 -0.546709,1.2211228 -1.221123,1.2211228 -0.674414,0 -1.221123,-0.5467086 -1.221123,-1.2211228 0,-0.6744136 0.546709,-1.2211223 1.221123,-1.2211223 z" />
  <path
     id="path5-5"
     style="fill:currentColor;fill-opacity:1;stroke-width:0.124021"
     d="m 8.4664995,4.4978279 c -2.191835,0 -3.968672,1.7768366 -3.968672,3.9686722 0,2.1918349 1.776837,3.9686719 3.968672,3.9686719 2.1918365,0 3.9686735,-1.776837 3.9686735,-3.9686719 0,-2.1918355 -1.776837,-3.9686721 -3.9686735,-3.9686722 z m 0,0.7123455 c 1.7984295,0 3.2563275,1.4578976 3.2563275,3.2563266 0,1.798428 -1.457898,3.256326 -3.2563275,3.256326 -1.798428,0 -3.256327,-1.457898 -3.256327,-3.256326 0,-1.798429 1.457899,-3.2563266 3.256327,-3.2563266 z m 0,0.6105611 c -1.461228,0 -2.645765,1.1845375 -2.645765,2.6457655 0,1.461227 1.184537,2.645764 2.645765,2.645764 1.461228,0 2.6457645,-1.184537 2.6457645,-2.645764 0,-1.461228 -1.1845365,-2.6457655 -2.6457645,-2.6457655 z m 0,0.5087768 c 1.180222,0 2.1369885,0.9567677 2.1369885,2.1369887 0,1.18022 -0.9567675,2.136988 -2.1369885,2.136988 -1.180221,0 -2.136989,-0.956768 -2.136989,-2.136988 0,-1.180221 0.956768,-2.1369887 2.136989,-2.1369887 z m 0,0.6105617 c -0.843008,0 -1.526427,0.683419 -1.526427,1.526427 0,0.84302 0.683419,1.526427 1.526427,1.526427 0.84302,0 1.526427,-0.683407 1.526427,-1.526427 0,-0.843008 -0.683407,-1.526427 -1.526427,-1.526427 z m 0,0.305304 c 0.674414,0 1.221123,0.546709 1.221123,1.221123 0,0.674414 -0.546709,1.221122 -1.221123,1.221122 -0.674414,0 -1.221123,-0.546708 -1.221123,-1.221122 0,-0.674414 0.546709,-1.221123 1.221123,-1.221123 z"
     class="ColorScheme-Text" />
  <path
     id="gradient-path1"
     style="opacity:0.3;baseline-shift:baseline;display:inline;overflow:visible;vector-effect:none;enable-background:accumulate;stop-color:#000000;stop-opacity:1;fill:url(#linearGradient4)"
     d="M 8.4453131 1.2753492 C 4.4913166 1.2753492 1.2794833 4.4784283 1.2794833 8.4236094 C 1.2794833 12.36879 4.4913166 15.572386 8.4453131 15.572386 C 12.39931 15.572386 15.611143 12.36879 15.611143 8.4236094 C 15.611143 4.4784283 12.39931 1.2753492 8.4453131 1.2753492 z " />
</svg>
