<?xml version='1.0' encoding='UTF-8'?>
<svg xmlns:inkscape="http://www.inkscape.org/namespaces/inkscape" xmlns:sodipodi="http://sodipodi.sourceforge.net/DTD/sodipodi-0.dtd" xmlns:xlink="http://www.w3.org/1999/xlink" xmlns="http://www.w3.org/2000/svg" xmlns:svg="http://www.w3.org/2000/svg" xmlns:rdf="http://www.w3.org/1999/02/22-rdf-syntax-ns#" xmlns:cc="http://creativecommons.org/ns#" xmlns:dc="http://purl.org/dc/elements/1.1/" width="64" height="64" version="1.1" id="svg73" sodipodi:docname="application-x-partial-download.svg" inkscape:version="1.4 (e7c3feb100, 2024-10-09)">
  <metadata id="metadata77">
    <rdf:RDF>
      <cc:Work rdf:about="">
        <dc:format>image/svg+xml</dc:format>
        <dc:type rdf:resource="http://purl.org/dc/dcmitype/StillImage"/>
      </cc:Work>
    </rdf:RDF>
  </metadata>
  <sodipodi:namedview pagecolor="#f5f7fa" bordercolor="#666666" borderopacity="1" objecttolerance="10" gridtolerance="10" guidetolerance="10" inkscape:pageopacity="0" inkscape:pageshadow="2" inkscape:window-width="1183" inkscape:window-height="669" id="namedview75" showgrid="false" inkscape:zoom="4.4470387" inkscape:cx="19.451146" inkscape:cy="25.635037" inkscape:window-x="80" inkscape:window-y="161" inkscape:window-maximized="0" inkscape:current-layer="g877" inkscape:document-rotation="0" inkscape:pagecheckerboard="0" inkscape:showpageshadow="2" inkscape:deskcolor="#d1d1d1"/>
  <defs id="defs29">
    <filter style="color-interpolation-filters:sRGB" inkscape:label="Blur" id="filter1283" x="-0.082344266" y="-0.082344266" width="1.1646885" height="1.1646885">
      <feGaussianBlur stdDeviation="0.5 0.5" result="blur" id="feGaussianBlur1281"/>
    </filter>
    <style id="current-color-scheme" type="text/css">.ColorScheme-Text {color:#d8dee9} .ColorScheme-Highlight {color:#3b4252}</style><linearGradient id="linearGradient2" inkscape:collect="always">
      <stop style="stop-color:#000000;stop-opacity:1;" offset="0" id="stop2"/>
      <stop style="stop-color:#000000;stop-opacity:0;" offset="1" id="stop3"/>
    </linearGradient>
    <linearGradient inkscape:collect="always" xlink:href="#linearGradient2" id="linearGradient3" x1="45.039307" y1="45.130287" x2="19.025009" y2="19.11599" gradientUnits="userSpaceOnUse"/>
  </defs>
  <g id="g877" transform="matrix(1.1,0,0,1.1,-3.1845928,-3.2065454)" style="">
    <path style="fill:#f5f7fa;stroke-width:0.204426;fill-opacity:1" d="" id="path3"/>
    <rect style="fill:#000000;stroke:none;stroke-width:0.539739;stroke-dasharray:none;filter:url(#filter1283)" id="rect246-1" width="14.572964" height="14.572964" x="1.1932471" y="1.2138842" rx="2.1589575" ry="2.1589575" transform="matrix(2.4606127,0,0,3.1451146,11.16612,5.3876877)"/>
    <rect style="fill:#2b323e;stroke:currentColor;stroke-width:1.63561;stroke-dasharray:none;fill-opacity:1;stroke-opacity:1" id="rect246" width="35.155312" height="44.93494" x="14.453793" y="9.6548424" rx="5.2081943" ry="5.181818" class="ColorScheme-Text"/>
    <rect style="fill:currentColor;fill-opacity:1;stroke:none;stroke-width:1.41125;stroke-dasharray:none" id="rect246-5" width="33.483681" height="43.361137" x="15.289605" y="10.441746" rx="4.2572727" ry="4.2572727" class="ColorScheme-Highlight"/>
  <path d="m 30.622358,24.460496 c -1.359818,0 -2.454546,1.094728 -2.454546,2.454546 v 1.636363 h 4.090909 v 0.818182 h -5.727272 c -1.813091,0 -3.272728,1.459637 -3.272728,3.272728 v 1.636363 c 0,1.813091 1.459637,3.272728 3.272728,3.272728 v -1.636364 c 0,-1.506273 1.012909,-2.756455 2.394,-3.140182 0.120272,-0.03354 0.243001,-0.0589 0.367363,-0.08182 0.167729,-0.02619 0.336273,-0.05072 0.511364,-0.05072 h 5.911365 c 0.390272,-0.434455 0.634091,-1.00391 0.634091,-1.636364 v -4.090909 c 0,-1.359819 -1.094728,-2.454546 -2.454547,-2.454546 z m -0.818182,1.636364 c 0.453273,0 0.818182,0.364909 0.818182,0.818182 0,0.453273 -0.364909,0.818182 -0.818182,0.818182 -0.453273,0 -0.818182,-0.364909 -0.818182,-0.818182 0,-0.453273 0.364909,-0.818182 0.818182,-0.818182 m 8.181821,3.272727 v 1.636365 c 0,1.506272 -1.01291,2.756453 -2.394002,3.140181 -0.120273,0.03354 -0.243001,0.05891 -0.367363,0.08182 -0.16773,0.02619 -0.336273,0.05072 -0.511364,0.05072 h -5.911365 c -0.390272,0.434454 -0.634091,1.003909 -0.634091,1.636363 v 4.09091 c 0,1.359818 1.094728,2.454547 2.454546,2.454547 h 3.272727 c 1.359819,0 2.454546,-1.094729 2.454546,-2.454547 v -1.636364 h -4.09091 V 37.5514 h 5.727276 c 1.813091,0 3.272726,-1.459636 3.272726,-3.272728 v -1.63636 c 0,-1.81309 -1.459635,-3.272726 -3.272726,-3.272726 m -3.272729,9.818181 c 0.453273,0 0.818181,0.364908 0.818181,0.818182 0,0.453273 -0.364908,0.818181 -0.818181,0.818181 -0.453274,0 -0.818183,-0.364908 -0.818183,-0.818181 0,-0.453274 0.364909,-0.818182 0.818183,-0.818182" fill="#fde3a7" id="path11-0" style="fill:#000000;fill-opacity:1;stroke-width:0.818182;opacity:0.3"/>
    <path d="m 30.622358,22.642314 c -1.359818,0 -2.454546,1.094728 -2.454546,2.454546 v 1.636363 h 4.090909 v 0.818182 h -5.727272 c -1.813091,0 -3.272728,1.459637 -3.272728,3.272728 v 1.636363 c 0,1.813091 1.459637,3.272728 3.272728,3.272728 V 34.09686 c 0,-1.506273 1.012909,-2.756455 2.394,-3.140182 0.120272,-0.03354 0.243001,-0.0589 0.367363,-0.08182 0.167729,-0.02619 0.336273,-0.05072 0.511364,-0.05072 h 5.911365 c 0.390272,-0.434455 0.634091,-1.00391 0.634091,-1.636364 v -4.090909 c 0,-1.359819 -1.094728,-2.454546 -2.454547,-2.454546 z m -0.818182,1.636364 c 0.453273,0 0.818182,0.364909 0.818182,0.818182 0,0.453273 -0.364909,0.818182 -0.818182,0.818182 -0.453273,0 -0.818182,-0.364909 -0.818182,-0.818182 0,-0.453273 0.364909,-0.818182 0.818182,-0.818182 m 8.181821,3.272727 v 1.636365 c 0,1.506272 -1.01291,2.756453 -2.394002,3.140181 -0.120273,0.03354 -0.243001,0.05891 -0.367363,0.08182 -0.16773,0.02619 -0.336273,0.05072 -0.511364,0.05072 h -5.911365 c -0.390272,0.434454 -0.634091,1.003909 -0.634091,1.636363 v 4.09091 c 0,1.359818 1.094728,2.454547 2.454546,2.454547 h 3.272727 c 1.359819,0 2.454546,-1.094729 2.454546,-2.454547 V 36.5514 h -4.09091 v -0.818182 h 5.727276 c 1.813091,0 3.272726,-1.459636 3.272726,-3.272728 v -1.63636 c 0,-1.81309 -1.459635,-3.272726 -3.272726,-3.272726 m -3.272729,9.818181 c 0.453273,0 0.818181,0.364908 0.818181,0.818182 0,0.453273 -0.364908,0.818181 -0.818181,0.818181 -0.453274,0 -0.818183,-0.364908 -0.818183,-0.818181 0,-0.453274 0.364909,-0.818182 0.818183,-0.818182" fill="#fde3a7" id="path11" style="fill:currentColor;fill-opacity:1;stroke-width:0.818182" class="ColorScheme-Text"/>
  </g>
<path id="gradient-path1" style="opacity:0.3;baseline-shift:baseline;display:inline;overflow:visible;vector-effect:none;fill:url(#linearGradient3);enable-background:accumulate;stop-color:#000000;stop-opacity:1" d="M 19.661775 8.8383367 C 16.33974 8.8383367 13.637272 11.524326 13.637272 14.836206 L 13.637272 49.408294 C 13.637272 52.720174 16.33974 55.407939 19.661775 55.407939 L 44.400766 55.407939 C 47.722801 55.407939 50.427045 52.720174 50.427045 49.408294 L 50.427045 14.836206 C 50.427045 11.524326 47.722801 8.8383367 44.400766 8.8383367 L 19.661775 8.8383367 z " transform="matrix(1.1,0,0,1.1,-3.1845928,-3.2065454)"/>
</svg>
