<?xml version='1.0' encoding='UTF-8'?>
<svg xmlns:inkscape="http://www.inkscape.org/namespaces/inkscape" xmlns:sodipodi="http://sodipodi.sourceforge.net/DTD/sodipodi-0.dtd" xmlns:xlink="http://www.w3.org/1999/xlink" xmlns="http://www.w3.org/2000/svg" xmlns:svg="http://www.w3.org/2000/svg" xmlns:rdf="http://www.w3.org/1999/02/22-rdf-syntax-ns#" xmlns:cc="http://creativecommons.org/ns#" xmlns:dc="http://purl.org/dc/elements/1.1/" width="64" height="64" version="1.1" id="svg73" sodipodi:docname="application-x-bittorrent.svg" inkscape:version="1.4 (e7c3feb100, 2024-10-09)">
  <metadata id="metadata77">
    <rdf:RDF>
      <cc:Work rdf:about="">
        <dc:format>image/svg+xml</dc:format>
        <dc:type rdf:resource="http://purl.org/dc/dcmitype/StillImage"/>
      </cc:Work>
    </rdf:RDF>
  </metadata>
  <sodipodi:namedview pagecolor="#f5f7fa" bordercolor="#666666" borderopacity="1" objecttolerance="10" gridtolerance="10" guidetolerance="10" inkscape:pageopacity="0" inkscape:pageshadow="2" inkscape:window-width="1183" inkscape:window-height="669" id="namedview75" showgrid="false" inkscape:zoom="6.2890624" inkscape:cx="37.604969" inkscape:cy="23.214907" inkscape:window-x="169" inkscape:window-y="168" inkscape:window-maximized="0" inkscape:current-layer="g877" inkscape:document-rotation="0" inkscape:pagecheckerboard="0" inkscape:showpageshadow="2" inkscape:deskcolor="#d1d1d1"/>
  <defs id="defs29">
    <filter style="color-interpolation-filters:sRGB;" inkscape:label="Blur" id="filter6" x="-0.044145008" y="-0.044145008" width="1.08829" height="1.08829">
      <feGaussianBlur stdDeviation="1 1" result="blur" id="feGaussianBlur6"/>
    </filter>
    <filter style="color-interpolation-filters:sRGB;" inkscape:label="Blur" id="filter7" x="-0.098100013" y="-0.098100021" width="1.1962" height="1.1962">
      <feGaussianBlur stdDeviation="2 2" result="blur" id="feGaussianBlur7"/>
    </filter>
    <clipPath id="clip0_515_3621">
      <rect width="16" height="16" fill="#ffffff" transform="translate(0.00292969)" id="rect7969" x="0" y="0"/>
    </clipPath>
    <filter style="color-interpolation-filters:sRGB;" inkscape:label="Blur" id="filter7349" x="-0.10485812" y="-0.10485813" width="1.2097162" height="1.2097163">
      <feGaussianBlur stdDeviation="2 2" result="blur" id="feGaussianBlur7347"/>
    </filter>
    <filter style="color-interpolation-filters:sRGB" inkscape:label="Blur" id="filter1283" x="-0.082344266" y="-0.082344266" width="1.1646885" height="1.1646885">
      <feGaussianBlur stdDeviation="0.5 0.5" result="blur" id="feGaussianBlur1281"/>
    </filter>
    <filter style="color-interpolation-filters:sRGB" inkscape:label="Blur" id="filter1694" x="-0.94955398" y="-0.2118907" width="2.899108" height="1.4237814">
      <feGaussianBlur stdDeviation="0.2 0.2" result="blur" id="feGaussianBlur1692"/>
    </filter>
    <filter style="color-interpolation-filters:sRGB" inkscape:label="Blur" id="filter3" x="-0.10843471" y="-0.10870992" width="1.2168694" height="1.2174198">
      <feGaussianBlur stdDeviation="0.5 0.5" result="blur" id="feGaussianBlur3"/>
    </filter>
    <clipPath clipPathUnits="userSpaceOnUse" id="clipPath354">
      <rect style="display:block;opacity:0.2" width="36" height="36" x="15.620633" y="15.638589" rx="2.7690001" ry="2.7690001" id="rect356"/>
    </clipPath>
    <inkscape:path-effect effect="powerclip" id="path-effect358" is_visible="true" lpeversion="1" inverse="true" flatten="false" hide_clip="false" message=""/>
    <clipPath clipPathUnits="userSpaceOnUse" id="clipPath186">
      <rect style="display:block;opacity:0.2" width="36" height="36" x="5.391973" y="5.6022935" rx="2.7690001" ry="2.7690001" id="rect188"/>
    </clipPath>
    <inkscape:path-effect effect="powerclip" id="path-effect190" is_visible="true" lpeversion="1" inverse="true" flatten="false" hide_clip="false" message=""/>
    <style id="current-color-scheme" type="text/css">.ColorScheme-Text {color:#d8dee9} .ColorScheme-Highlight {color:#3b4252}</style><linearGradient id="linearGradient2" inkscape:collect="always">
      <stop style="stop-color:#000000;stop-opacity:1;" offset="0" id="stop2"/>
      <stop style="stop-color:#000000;stop-opacity:0;" offset="1" id="stop3"/>
    </linearGradient>
    <linearGradient inkscape:collect="always" xlink:href="#linearGradient2" id="linearGradient3" x1="45.039307" y1="45.130287" x2="19.025009" y2="19.11599" gradientUnits="userSpaceOnUse"/>
  </defs>
  <g id="g877" transform="matrix(1.1,0,0,1.1,-3.1845928,-3.2065454)" style="">
    <path style="fill:#f5f7fa;stroke-width:0.204426;fill-opacity:1" d="" id="path3"/>
    <rect style="fill:#000000;stroke:none;stroke-width:0.539739;stroke-dasharray:none;filter:url(#filter1283)" id="rect246-1" width="14.572964" height="14.572964" x="1.1932471" y="1.2138842" rx="2.1589575" ry="2.1589575" transform="matrix(2.4606127,0,0,3.1451146,11.16612,5.3876877)"/>
    <rect style="fill:#2b323e;stroke:currentColor;stroke-width:1.63561;stroke-dasharray:none;fill-opacity:1;stroke-opacity:1" id="rect246" width="35.155312" height="44.93494" x="14.453793" y="9.6548424" rx="5.2081943" ry="5.181818" class="ColorScheme-Text"/>
    <rect style="fill:currentColor;fill-opacity:1;stroke:none;stroke-width:1.41125;stroke-dasharray:none" id="rect246-5" width="33.483681" height="43.361137" x="15.289605" y="10.441746" rx="4.2572727" ry="4.2572727" class="ColorScheme-Highlight"/>
  <path d="m 23.33365,29.096859 c -0.74419,0 -1.347657,0.624152 -1.347657,1.368963 v 7.262077 c 0,0.744813 0.603467,1.368967 1.347657,1.368967 h 5.486505 c 0.74419,0 1.347657,-0.624155 1.347657,-1.368967 v -2.721947 h 3.636363 v 2.721947 c 0,0.744813 0.603467,1.368967 1.347657,1.368967 h 5.486506 c 0.74419,0 1.347655,-0.624155 1.347655,-1.368967 v -7.262077 c 0,-0.744812 -0.603465,-1.368963 -1.347655,-1.368963 h -5.486506 c -0.74419,0 -1.347657,0.624152 -1.347657,1.368963 v 2.721948 h -3.636363 v -2.721948 c 0,-0.744812 -0.603467,-1.368963 -1.347657,-1.368963 z m 0,0.891336 h 5.486505 c 0.253962,0 0.456321,0.200326 0.456321,0.477627 v 2.721948 h -1.381392 c -0.503636,0 -0.90909,0.405455 -0.90909,0.90909 0,0.503637 0.405454,0.909092 0.90909,0.909092 h 1.381392 v 2.721947 c 0,0.277319 -0.20236,0.477629 -0.456321,0.477629 H 23.33365 c -0.253962,0 -0.456321,-0.200319 -0.456321,-0.477629 v -7.262077 c 0,-0.277302 0.20236,-0.477627 0.456321,-0.477627 z m 11.818182,0 h 5.486506 c 0.253955,0 0.456321,0.200326 0.456321,0.477627 v 7.262077 c 0,0.277319 -0.202346,0.477629 -0.456321,0.477629 h -5.486506 c -0.253962,0 -0.456321,-0.200319 -0.456321,-0.477629 v -2.721947 h 1.381391 c 0.503637,0 0.909091,-0.405455 0.909091,-0.909092 0,-0.503635 -0.405454,-0.90909 -0.909091,-0.90909 h -1.381391 v -2.721948 c 0,-0.277302 0.202359,-0.477627 0.456321,-0.477627 z" color="#000000" color-rendering="auto" dominant-baseline="auto" fill="#ffffff" image-rendering="auto" opacity="0.6" shape-rendering="auto" solid-color="#000000" style="font-variant-ligatures:normal;font-variant-position:normal;font-variant-caps:normal;font-variant-numeric:normal;font-variant-alternates:normal;font-feature-settings:normal;text-indent:0;text-decoration-line:none;text-decoration-style:solid;text-transform:none;text-orientation:mixed;white-space:normal;shape-padding:0;isolation:auto;mix-blend-mode:normal;fill:#000000;stroke-width:0.909091;opacity:0.3" id="path7-7"/>
    <path d="m 23.33365,27.278677 c -0.74419,0 -1.347657,0.624152 -1.347657,1.368963 v 7.262077 c 0,0.744813 0.603467,1.368967 1.347657,1.368967 h 5.486505 c 0.74419,0 1.347657,-0.624155 1.347657,-1.368967 V 33.18777 h 3.636363 v 2.721947 c 0,0.744813 0.603467,1.368967 1.347657,1.368967 h 5.486506 c 0.74419,0 1.347655,-0.624155 1.347655,-1.368967 V 28.64764 c 0,-0.744812 -0.603465,-1.368963 -1.347655,-1.368963 h -5.486506 c -0.74419,0 -1.347657,0.624152 -1.347657,1.368963 v 2.721948 H 30.167812 V 28.64764 c 0,-0.744812 -0.603467,-1.368963 -1.347657,-1.368963 z m 0,0.891336 h 5.486505 c 0.253962,0 0.456321,0.200326 0.456321,0.477627 v 2.721948 h -1.381392 c -0.503636,0 -0.90909,0.405455 -0.90909,0.90909 0,0.503637 0.405454,0.909092 0.90909,0.909092 h 1.381392 v 2.721947 c 0,0.277319 -0.20236,0.477629 -0.456321,0.477629 H 23.33365 c -0.253962,0 -0.456321,-0.200319 -0.456321,-0.477629 V 28.64764 c 0,-0.277302 0.20236,-0.477627 0.456321,-0.477627 z m 11.818182,0 h 5.486506 c 0.253955,0 0.456321,0.200326 0.456321,0.477627 v 7.262077 c 0,0.277319 -0.202346,0.477629 -0.456321,0.477629 h -5.486506 c -0.253962,0 -0.456321,-0.200319 -0.456321,-0.477629 V 33.18777 h 1.381391 c 0.503637,0 0.909091,-0.405455 0.909091,-0.909092 0,-0.503635 -0.405454,-0.90909 -0.909091,-0.90909 H 34.695511 V 28.64764 c 0,-0.277302 0.202359,-0.477627 0.456321,-0.477627 z" color="#000000" color-rendering="auto" dominant-baseline="auto" fill="#ffffff" image-rendering="auto" opacity="0.6" shape-rendering="auto" solid-color="#000000" style="font-variant-ligatures:normal;font-variant-position:normal;font-variant-caps:normal;font-variant-numeric:normal;font-variant-alternates:normal;font-feature-settings:normal;text-indent:0;text-decoration-line:none;text-decoration-style:solid;text-transform:none;text-orientation:mixed;white-space:normal;shape-padding:0;isolation:auto;mix-blend-mode:normal;fill:currentColor;stroke-width:0.909091;opacity:1" id="path7" class="ColorScheme-Text"/>
  </g>
<path id="gradient-path1" style="opacity:0.3;baseline-shift:baseline;display:inline;overflow:visible;vector-effect:none;fill:url(#linearGradient3);enable-background:accumulate;stop-color:#000000;stop-opacity:1" d="M 19.661775 8.8383367 C 16.33974 8.8383367 13.637272 11.524326 13.637272 14.836206 L 13.637272 49.408294 C 13.637272 52.720174 16.33974 55.407939 19.661775 55.407939 L 44.400766 55.407939 C 47.722801 55.407939 50.427045 52.720174 50.427045 49.408294 L 50.427045 14.836206 C 50.427045 11.524326 47.722801 8.8383367 44.400766 8.8383367 L 19.661775 8.8383367 z " transform="matrix(1.1,0,0,1.1,-3.1845928,-3.2065454)"/>
</svg>
