<?xml version='1.0' encoding='UTF-8'?>
<svg xmlns:inkscape="http://www.inkscape.org/namespaces/inkscape" xmlns:sodipodi="http://sodipodi.sourceforge.net/DTD/sodipodi-0.dtd" xmlns:xlink="http://www.w3.org/1999/xlink" xmlns="http://www.w3.org/2000/svg" xmlns:svg="http://www.w3.org/2000/svg" xmlns:rdf="http://www.w3.org/1999/02/22-rdf-syntax-ns#" xmlns:cc="http://creativecommons.org/ns#" xmlns:dc="http://purl.org/dc/elements/1.1/" width="64" height="64" version="1.1" id="svg73" sodipodi:docname="application-x-partial-download.svg" inkscape:version="1.4 (e7c3feb100, 2024-10-09)">
  <metadata id="metadata77">
    <rdf:RDF>
      <cc:Work rdf:about="">
        <dc:format>image/svg+xml</dc:format>
        <dc:type rdf:resource="http://purl.org/dc/dcmitype/StillImage"/>
      </cc:Work>
    </rdf:RDF>
  </metadata>
  <sodipodi:namedview pagecolor="#f5f7fa" bordercolor="#666666" borderopacity="1" objecttolerance="10" gridtolerance="10" guidetolerance="10" inkscape:pageopacity="0" inkscape:pageshadow="2" inkscape:window-width="1183" inkscape:window-height="669" id="namedview75" showgrid="false" inkscape:zoom="4.4470387" inkscape:cx="19.451146" inkscape:cy="25.635037" inkscape:window-x="80" inkscape:window-y="161" inkscape:window-maximized="0" inkscape:current-layer="g877" inkscape:document-rotation="0" inkscape:pagecheckerboard="0" inkscape:showpageshadow="2" inkscape:deskcolor="#d1d1d1"/>
  <defs id="defs29">
    <filter style="color-interpolation-filters:sRGB" inkscape:label="Blur" id="filter1283" x="-0.082344266" y="-0.082344266" width="1.1646885" height="1.1646885">
      <feGaussianBlur stdDeviation="0.5 0.5" result="blur" id="feGaussianBlur1281"/>
    </filter>
    <style id="current-color-scheme" type="text/css">.ColorScheme-Text {color:#d8dee9} .ColorScheme-Highlight {color:#3b4252}</style><linearGradient id="linearGradient2" inkscape:collect="always">
      <stop style="stop-color:#000000;stop-opacity:1;" offset="0" id="stop2"/>
      <stop style="stop-color:#000000;stop-opacity:0;" offset="1" id="stop3"/>
    </linearGradient>
    <linearGradient inkscape:collect="always" xlink:href="#linearGradient2" id="linearGradient3" x1="45.039307" y1="45.130287" x2="19.025009" y2="19.11599" gradientUnits="userSpaceOnUse"/>
  </defs>
  <g id="g877" transform="matrix(1.1,0,0,1.1,-3.1845928,-3.2065454)" style="">
    <path style="fill:#f5f7fa;stroke-width:0.204426;fill-opacity:1" d="" id="path3"/>
    <rect style="fill:#000000;stroke:none;stroke-width:0.539739;stroke-dasharray:none;filter:url(#filter1283)" id="rect246-1" width="14.572964" height="14.572964" x="1.1932471" y="1.2138842" rx="2.1589575" ry="2.1589575" transform="matrix(2.4606127,0,0,3.1451146,11.16612,5.3876877)"/>
    <rect style="fill:#2b323e;stroke:currentColor;stroke-width:1.63561;stroke-dasharray:none;fill-opacity:1;stroke-opacity:1" id="rect246" width="35.155312" height="44.93494" x="14.453793" y="9.6548424" rx="5.2081943" ry="5.181818" class="ColorScheme-Text"/>
    <rect style="fill:currentColor;fill-opacity:1;stroke:none;stroke-width:1.41125;stroke-dasharray:none" id="rect246-5" width="33.483681" height="43.361137" x="15.289605" y="10.441746" rx="4.2572727" ry="4.2572727" class="ColorScheme-Highlight"/>
  <path fill="#f5f7fa" d="m 35.36417,23.01686 -5.241341,0.01054 c 0.57045,0.36466 1.326561,1.182358 1.949777,2.117886 0.696106,1.044951 1.250116,2.247362 1.666751,3.298023 l -1.478062,0.864015 4.717215,-0.01052 2.201365,-4.172574 -1.174061,0.79026 -0.744272,-1.422466 C 36.762548,23.689306 36.30507,23.107232 35.36417,23.016877 Z m -6.488783,0.168587 c -0.320012,-0.0069 -0.661078,0.05015 -1.037785,0.200202 l -2.285226,3.403384 4.025352,2.707962 2.159432,-4.09882 c -0.59679,-0.885007 -1.475044,-2.183161 -2.861773,-2.212728 z m 11.05924,5.784705 -4.056803,2.623671 1.876406,4.088291 1.61433,0.01065 c 0.942773,0.011 2.459943,-1.385521 2.400535,-2.39186 z m -13.449291,1.022078 -4.381762,0.242341 1.40468,0.76919 -0.471722,1.000998 c -1.522364,3.271495 0.403283,4.866811 2.683569,8.050122 -0.32585,-0.790273 -0.306279,-1.636025 -0.02096,-2.455078 l 2.023157,-4.351705 1.268406,0.663822 z m 8.606285,4.68888 -2.159433,4.140968 2.159433,4.088279 0.01027,-1.685892 h 1.058758 c 3.416308,-0.0013 3.888305,-2.550585 5.534864,-6.153495 -0.515919,0.66443 -1.231555,1.014232 -2.044129,1.106365 l -4.549488,0.01065 z m -3.406873,1.34871 -4.706725,0.158057 -0.733789,1.527836 c -0.429584,0.897755 0.06445,2.979835 0.932961,3.371776 H 31.6533 Z" id="path42-8" style="fill:#000000;stroke:none;stroke-width:0.909087;stroke-dasharray:none;stroke-opacity:0.3;opacity:0.3"/>
    <path fill="#f5f7fa" d="m 35.36417,21.198678 -5.241341,0.01054 c 0.57045,0.36466 1.326561,1.182358 1.949777,2.117886 0.696106,1.044951 1.250116,2.247362 1.666751,3.298023 l -1.478062,0.864015 4.717215,-0.01052 2.201365,-4.172574 -1.174061,0.79026 -0.744272,-1.422466 C 36.762548,21.871124 36.30507,21.28905 35.36417,21.198695 Z m -6.488783,0.168587 c -0.320012,-0.0069 -0.661078,0.05015 -1.037785,0.200202 l -2.285226,3.403384 4.025352,2.707962 2.159432,-4.09882 c -0.59679,-0.885007 -1.475044,-2.183161 -2.861773,-2.212728 z m 11.05924,5.784705 -4.056803,2.623671 1.876406,4.088291 1.61433,0.01065 c 0.942773,0.011 2.459943,-1.385521 2.400535,-2.39186 z m -13.449291,1.022078 -4.381762,0.242341 1.40468,0.76919 -0.471722,1.000998 c -1.522364,3.271495 0.403283,4.866811 2.683569,8.050122 -0.32585,-0.790273 -0.306279,-1.636025 -0.02096,-2.455078 l 2.023157,-4.351705 1.268406,0.663822 z m 8.606285,4.68888 -2.159433,4.140968 2.159433,4.088279 0.01027,-1.685892 h 1.058758 c 3.416308,-0.0013 3.888305,-2.550585 5.534864,-6.153495 -0.515919,0.66443 -1.231555,1.014232 -2.044129,1.106365 l -4.549488,0.01065 z m -3.406873,1.34871 -4.706725,0.158057 -0.733789,1.527836 c -0.429584,0.897755 0.06445,2.979835 0.932961,3.371776 H 31.6533 Z" id="path42" style="fill:currentColor;stroke:none;stroke-width:0.909087;stroke-dasharray:none;stroke-opacity:0.3" class="ColorScheme-Text"/>
  </g>
<path id="gradient-path1" style="opacity:0.3;baseline-shift:baseline;display:inline;overflow:visible;vector-effect:none;fill:url(#linearGradient3);enable-background:accumulate;stop-color:#000000;stop-opacity:1" d="M 19.661775 8.8383367 C 16.33974 8.8383367 13.637272 11.524326 13.637272 14.836206 L 13.637272 49.408294 C 13.637272 52.720174 16.33974 55.407939 19.661775 55.407939 L 44.400766 55.407939 C 47.722801 55.407939 50.427045 52.720174 50.427045 49.408294 L 50.427045 14.836206 C 50.427045 11.524326 47.722801 8.8383367 44.400766 8.8383367 L 19.661775 8.8383367 z " transform="matrix(1.1,0,0,1.1,-3.1845928,-3.2065454)"/>
</svg>
