<?xml version='1.0' encoding='UTF-8'?>
<svg xmlns:inkscape="http://www.inkscape.org/namespaces/inkscape" xmlns:sodipodi="http://sodipodi.sourceforge.net/DTD/sodipodi-0.dtd" xmlns="http://www.w3.org/2000/svg" xmlns:svg="http://www.w3.org/2000/svg" xmlns:rdf="http://www.w3.org/1999/02/22-rdf-syntax-ns#" xmlns:cc="http://creativecommons.org/ns#" xmlns:dc="http://purl.org/dc/elements/1.1/" width="64" height="64" version="1.1" id="svg73" sodipodi:docname="application-x-labplot2.svg" inkscape:version="1.4.2 (ebf0e940d0, 2025-05-08)">
  <metadata id="metadata77">
    <rdf:RDF>
      <cc:Work rdf:about="">
        <dc:format>image/svg+xml</dc:format>
        <dc:type rdf:resource="http://purl.org/dc/dcmitype/StillImage"/>
      </cc:Work>
    </rdf:RDF>
  </metadata>
  <sodipodi:namedview pagecolor="#f5f7fa" bordercolor="#666666" borderopacity="1" objecttolerance="10" gridtolerance="10" guidetolerance="10" inkscape:pageopacity="0" inkscape:pageshadow="2" inkscape:window-width="2560" inkscape:window-height="1376" id="namedview75" showgrid="false" inkscape:zoom="4.4470387" inkscape:cx="19.563581" inkscape:cy="25.859905" inkscape:window-x="0" inkscape:window-y="0" inkscape:window-maximized="1" inkscape:current-layer="svg73" inkscape:document-rotation="0" inkscape:pagecheckerboard="0" inkscape:showpageshadow="2" inkscape:deskcolor="#d1d1d1"/>
  <defs id="defs29">
    <filter style="color-interpolation-filters:sRGB;" inkscape:label="Blur" id="filter6" x="-0.044145008" y="-0.044145008" width="1.08829" height="1.08829">
      <feGaussianBlur stdDeviation="1 1" result="blur" id="feGaussianBlur6"/>
    </filter>
    <filter style="color-interpolation-filters:sRGB;" inkscape:label="Blur" id="filter7" x="-0.098100013" y="-0.098100021" width="1.1962" height="1.1962">
      <feGaussianBlur stdDeviation="2 2" result="blur" id="feGaussianBlur7"/>
    </filter>
    <clipPath id="clip0_515_3621">
      <rect width="16" height="16" fill="#ffffff" transform="translate(0.00292969)" id="rect7969" x="0" y="0"/>
    </clipPath>
    <filter style="color-interpolation-filters:sRGB;" inkscape:label="Blur" id="filter7349" x="-0.10485812" y="-0.10485813" width="1.2097162" height="1.2097163">
      <feGaussianBlur stdDeviation="2 2" result="blur" id="feGaussianBlur7347"/>
    </filter>
    <filter style="color-interpolation-filters:sRGB" inkscape:label="Blur" id="filter1283" x="-0.082344266" y="-0.082344266" width="1.1646885" height="1.1646885">
      <feGaussianBlur stdDeviation="0.5 0.5" result="blur" id="feGaussianBlur1281"/>
    </filter>
    <filter style="color-interpolation-filters:sRGB" inkscape:label="Blur" id="filter1694" x="-0.94955398" y="-0.2118907" width="2.899108" height="1.4237814">
      <feGaussianBlur stdDeviation="0.2 0.2" result="blur" id="feGaussianBlur1692"/>
    </filter>
    <filter style="color-interpolation-filters:sRGB" inkscape:label="Blur" id="filter3" x="-0.10843471" y="-0.10870992" width="1.2168694" height="1.2174198">
      <feGaussianBlur stdDeviation="0.5 0.5" result="blur" id="feGaussianBlur3"/>
    </filter>
    <clipPath clipPathUnits="userSpaceOnUse" id="clipPath354">
      <rect style="display:block;opacity:0.2" width="36" height="36" x="15.620633" y="15.638589" rx="2.7690001" ry="2.7690001" id="rect356"/>
    </clipPath>
    <inkscape:path-effect effect="powerclip" id="path-effect358" is_visible="true" lpeversion="1" inverse="true" flatten="false" hide_clip="false" message=""/>
    <clipPath clipPathUnits="userSpaceOnUse" id="clipPath186">
      <rect style="display:block;opacity:0.2" width="36" height="36" x="5.391973" y="5.6022935" rx="2.7690001" ry="2.7690001" id="rect188"/>
    </clipPath>
    <inkscape:path-effect effect="powerclip" id="path-effect190" is_visible="true" lpeversion="1" inverse="true" flatten="false" hide_clip="false" message=""/>
    <style id="current-color-scheme" type="text/css">.ColorScheme-Text {color:#d8dee9} .ColorScheme-Highlight {color:#3b4252}</style>
  <linearGradient id="linearGradient2" inkscape:collect="always">
      <stop style="stop-color:#000000;stop-opacity:1;" offset="0" id="stop2"/>
      <stop style="stop-color:#000000;stop-opacity:0;" offset="1" id="stop3"/>
    </linearGradient>
    <linearGradient xmlns:xlink="http://www.w3.org/1999/xlink" inkscape:collect="always" xlink:href="#linearGradient2" id="linearGradient3" x1="45.039307" y1="45.130287" x2="19.025009" y2="19.11599" gradientUnits="userSpaceOnUse"/>
  </defs>
  <path style="fill:#f5f7fa;stroke-width:0.204426;fill-opacity:1" d="" id="path3" transform="matrix(1.1,0,0,1.1,-3.1845928,-3.2065454)"/>
  <rect style="fill:#000000;stroke:none;stroke-width:0.539739;stroke-dasharray:none;filter:url(#filter1283)" id="rect246-1" width="14.572964" height="14.572964" x="1.1932471" y="1.2138842" rx="2.1589575" ry="2.1589575" transform="matrix(2.706674,0,0,3.4596261,9.0981392,2.7199111)"/>
  <rect style="fill:#2b323e;stroke:currentColor;stroke-width:1.63561;stroke-dasharray:none;fill-opacity:1;stroke-opacity:1" id="rect246" width="35.155312" height="44.93494" x="14.453793" y="9.6548424" rx="5.2081943" ry="5.181818" class="ColorScheme-Text" transform="matrix(1.1,0,0,1.1,-3.1845928,-3.2065454)"/>
  <rect style="fill:currentColor;fill-opacity:1;stroke:none;stroke-width:1.41125;stroke-dasharray:none" id="rect246-5" width="33.483681" height="43.361137" x="15.289605" y="10.441746" rx="4.2572727" ry="4.2572727" class="ColorScheme-Highlight"/>
  <path id="path33-4-5" style="baseline-shift:baseline;display:inline;overflow:visible;opacity:0.3;vector-effect:none;fill:#000000;fill-opacity:1;stroke:none;stroke-opacity:1;enable-background:accumulate;stop-color:#000000;stop-opacity:1" d="m 19.472656,21.945 v 24.109375 h 2.109375 V 34.999688 h 2.029297 c 1.82341,0.741011 3.104937,2.230783 4.210937,3.787109 0.783154,1.10203 1.454595,2.224313 2.15625,3.109375 0.701655,0.885063 1.481315,1.596374 2.498047,1.605469 1.01934,0.0082 1.8064,-0.699264 2.517579,-1.583984 0.711178,-0.884721 1.396164,-2.010636 2.191406,-3.119141 1.114684,-1.553787 2.404916,-3.045545 4.214844,-3.798828 h 3.126953 v -2 H 41.726562 C 41.15071,32.729512 40.63607,32.358962 40.160156,31.91375 39.130038,30.950088 38.303279,29.625743 37.560547,28.271172 36.817815,26.916602 36.16236,25.5382 35.40625,24.456719 c -0.756109,-1.08148 -1.681797,-1.925781 -2.910156,-1.925781 -1.208626,0 -2.133086,0.768774 -2.886719,1.761718 -0.753633,0.992945 -1.402754,2.25262 -2.136719,3.488282 -0.733964,1.235663 -1.548133,2.442262 -2.570312,3.320312 -0.903631,0.776218 -1.954285,1.308839 -3.320313,1.421875 V 21.945 Z m 13.023438,1.585938 c 0.771641,0 1.409054,0.524297 2.089843,1.498046 0.680789,0.973749 1.337837,2.336923 2.097657,3.722657 0.466113,0.850082 0.973395,1.711188 1.564453,2.501953 -0.402128,-0.357551 -0.775103,-0.736026 -1.128906,-1.119141 -0.794891,-0.860745 -1.479275,-1.740994 -2.185547,-2.4375 -0.706272,-0.696505 -1.476359,-1.244075 -2.419922,-1.246094 -0.921404,-0.002 -1.693575,0.463733 -2.400391,1.06836 -0.706815,0.604627 -1.385359,1.366937 -2.173828,2.111328 -0.389996,0.368195 -0.803542,0.732439 -1.255859,1.072266 0.630596,-0.756693 1.163263,-1.590058 1.65039,-2.410157 0.753083,-1.267848 1.400798,-2.509841 2.072266,-3.394531 0.671469,-0.884689 1.29847,-1.367187 2.089844,-1.367187 z m 0.01563,3.919921 c 0.551654,0.0012 1.087574,0.334612 1.720703,0.958985 0.633129,0.624375 1.320333,1.503518 2.15039,2.402344 0.368506,0.399034 0.767669,0.801788 1.207032,1.1875 h -0.0625 v 1 h -4 v -1 h -2 v 1 h -4 v -1 H 26.54688 c 0.799031,-0.502012 1.47951,-1.075476 2.078125,-1.640625 0.826184,-0.779997 1.510389,-1.542631 2.138672,-2.080079 0.628283,-0.537447 1.164667,-0.829382 1.748047,-0.828125 z m -6.984375,5.113282 v 0.435547 h -1.066407 c 0.375495,-0.128147 0.729997,-0.27413 1.066407,-0.435547 z m 2,2.435547 h 4 v 1 h 2 v -1 h 4 v 1 h 0.701172 c -0.706121,0.692045 -1.314596,1.460907 -1.855469,2.214843 -0.823076,1.147306 -1.513133,2.273691 -2.158203,3.076172 -0.64507,0.802481 -1.196407,1.215209 -1.730469,1.210938 -0.53667,-0.0048 -1.086034,-0.423533 -1.722656,-1.226563 -0.636622,-0.803031 -1.313572,-1.926545 -2.125,-3.068359 -0.534381,-0.751959 -1.136487,-1.518187 -1.837891,-2.207031 h 0.728516 z"/>
  <path id="path33-4-5-3" class="ColorScheme-Text" style="baseline-shift:baseline;display:inline;overflow:visible;vector-effect:none;fill:currentColor;fill-opacity:1;stroke:none;stroke-opacity:1;enable-background:accumulate;stop-color:#000000" d="m 19.47266,19.945312 v 24.109376 h 2.10937 V 33.000001 h 2.0293 c 1.82341,0.74101 3.10493,2.230783 4.21093,3.787109 0.78316,1.102029 1.4546,2.224313 2.15625,3.109375 0.70166,0.885062 1.48132,1.596374 2.49805,1.605469 1.01934,0.0082 1.8064,-0.699264 2.51758,-1.583984 0.71118,-0.884722 1.39616,-2.010636 2.1914,-3.119141 1.11469,-1.553787 2.40492,-3.045545 4.21485,-3.798828 h 3.12695 v -2 H 41.72656 C 41.15071,30.729825 40.63607,30.359275 40.16015,29.914063 39.13004,28.9504 38.30328,27.626055 37.56054,26.271484 36.81781,24.916914 36.16236,23.538512 35.40625,22.457031 34.65014,21.37555 33.72445,20.53125 32.49609,20.53125 c -1.20863,0 -2.13308,0.768773 -2.88672,1.761718 -0.75363,0.992944 -1.40275,2.252619 -2.13672,3.488282 -0.73396,1.235663 -1.54813,2.442262 -2.57031,3.320313 -0.90363,0.776218 -1.95428,1.308839 -3.32031,1.421875 V 19.945312 Z m 13.02343,1.585938 c 0.77164,0 1.40906,0.524297 2.08984,1.498046 0.68079,0.973748 1.33784,2.336922 2.09766,3.722657 0.46611,0.850082 0.9734,1.711187 1.56445,2.501954 -0.40212,-0.357551 -0.7751,-0.736027 -1.1289,-1.119142 -0.79489,-0.860746 -1.47928,-1.740995 -2.18555,-2.4375 -0.70627,-0.696505 -1.47636,-1.244075 -2.41992,-1.246094 -0.92141,-0.002 -1.69358,0.463733 -2.40039,1.06836 -0.70682,0.604627 -1.38536,1.366937 -2.17383,2.111328 -0.39,0.368194 -0.80354,0.732438 -1.25586,1.072266 0.6306,-0.756693 1.16326,-1.590058 1.65039,-2.410157 0.75308,-1.267849 1.4008,-2.509841 2.07227,-3.394531 0.67147,-0.884689 1.29847,-1.367187 2.08984,-1.367187 z m 0.0156,3.919921 c 0.55166,0.0012 1.08757,0.334612 1.7207,0.958985 0.63313,0.624374 1.32034,1.503518 2.15039,2.402345 0.36851,0.399033 0.76767,0.801788 1.20704,1.1875 h -0.0625 v 1 h -4 v -1 h -2 v 1 h -4 v -1 h -0.98047 c 0.79903,-0.502012 1.47951,-1.075476 2.07812,-1.640626 0.82619,-0.779997 1.51039,-1.542631 2.13867,-2.080079 0.62829,-0.537448 1.16467,-0.829382 1.74805,-0.828125 z m -6.98437,5.113283 v 0.435547 h -1.06641 c 0.37549,-0.128147 0.73,-0.274131 1.06641,-0.435547 z m 2,2.435547 h 4 v 1 h 2 v -1 h 4 v 1 h 0.70117 c -0.70612,0.692045 -1.3146,1.460907 -1.85547,2.214843 -0.82308,1.147306 -1.51313,2.273691 -2.1582,3.076172 -0.64507,0.802481 -1.19641,1.215208 -1.73047,1.210938 -0.53667,-0.0048 -1.08604,-0.423533 -1.72266,-1.226563 -0.63662,-0.803031 -1.31357,-1.926545 -2.125,-3.068359 -0.53438,-0.75196 -1.13649,-1.518188 -1.83789,-2.207031 h 0.72852 z"/>
<path id="gradient-path1" style="opacity:0.3;baseline-shift:baseline;display:inline;overflow:visible;vector-effect:none;fill:url(#linearGradient3);enable-background:accumulate;stop-color:#000000;stop-opacity:1" d="M 19.661775 8.8383367 C 16.33974 8.8383367 13.637272 11.524326 13.637272 14.836206 L 13.637272 49.408294 C 13.637272 52.720174 16.33974 55.407939 19.661775 55.407939 L 44.400766 55.407939 C 47.722801 55.407939 50.427045 52.720174 50.427045 49.408294 L 50.427045 14.836206 C 50.427045 11.524326 47.722801 8.8383367 44.400766 8.8383367 L 19.661775 8.8383367 z " transform="matrix(1.1,0,0,1.1,-3.1845928,-3.2065454)"/>
</svg>
