<?xml version='1.0' encoding='UTF-8'?>
<svg xmlns:inkscape="http://www.inkscape.org/namespaces/inkscape" xmlns:sodipodi="http://sodipodi.sourceforge.net/DTD/sodipodi-0.dtd" xmlns:xlink="http://www.w3.org/1999/xlink" xmlns="http://www.w3.org/2000/svg" xmlns:svg="http://www.w3.org/2000/svg" xmlns:rdf="http://www.w3.org/1999/02/22-rdf-syntax-ns#" xmlns:cc="http://creativecommons.org/ns#" xmlns:dc="http://purl.org/dc/elements/1.1/" width="64" height="64" version="1.1" id="svg73" sodipodi:docname="libreoffice-database.svg" inkscape:version="1.4 (e7c3feb100, 2024-10-09)">
  <metadata id="metadata77">
    <rdf:RDF>
      <cc:Work rdf:about="">
        <dc:format>image/svg+xml</dc:format>
        <dc:type rdf:resource="http://purl.org/dc/dcmitype/StillImage"/>
      </cc:Work>
    </rdf:RDF>
  </metadata>
  <sodipodi:namedview pagecolor="#f5f7fa" bordercolor="#666666" borderopacity="1" objecttolerance="10" gridtolerance="10" guidetolerance="10" inkscape:pageopacity="0" inkscape:pageshadow="2" inkscape:window-width="1183" inkscape:window-height="669" id="namedview75" showgrid="false" inkscape:zoom="4.4470387" inkscape:cx="19.451146" inkscape:cy="8.3201435" inkscape:window-x="422" inkscape:window-y="153" inkscape:window-maximized="0" inkscape:current-layer="g877" inkscape:document-rotation="0" inkscape:pagecheckerboard="0" inkscape:showpageshadow="2" inkscape:deskcolor="#d1d1d1"/>
  <defs id="defs29">
    <filter style="color-interpolation-filters:sRGB;" inkscape:label="Blur" id="filter6" x="-0.044145008" y="-0.044145008" width="1.08829" height="1.08829">
      <feGaussianBlur stdDeviation="1 1" result="blur" id="feGaussianBlur6"/>
    </filter>
    <filter style="color-interpolation-filters:sRGB;" inkscape:label="Blur" id="filter7" x="-0.098100013" y="-0.098100021" width="1.1962" height="1.1962">
      <feGaussianBlur stdDeviation="2 2" result="blur" id="feGaussianBlur7"/>
    </filter>
    <clipPath id="clip0_515_3621">
      <rect width="16" height="16" fill="#ffffff" transform="translate(0.00292969)" id="rect7969" x="0" y="0"/>
    </clipPath>
    <filter style="color-interpolation-filters:sRGB;" inkscape:label="Blur" id="filter7349" x="-0.10485812" y="-0.10485813" width="1.2097162" height="1.2097163">
      <feGaussianBlur stdDeviation="2 2" result="blur" id="feGaussianBlur7347"/>
    </filter>
    <filter style="color-interpolation-filters:sRGB" inkscape:label="Blur" id="filter1283" x="-0.082344266" y="-0.082344266" width="1.1646885" height="1.1646885">
      <feGaussianBlur stdDeviation="0.5 0.5" result="blur" id="feGaussianBlur1281"/>
    </filter>
    <filter style="color-interpolation-filters:sRGB" inkscape:label="Blur" id="filter1694" x="-0.94955398" y="-0.2118907" width="2.899108" height="1.4237814">
      <feGaussianBlur stdDeviation="0.2 0.2" result="blur" id="feGaussianBlur1692"/>
    </filter>
    <filter style="color-interpolation-filters:sRGB" inkscape:label="Blur" id="filter3" x="-0.10843471" y="-0.10870992" width="1.2168694" height="1.2174198">
      <feGaussianBlur stdDeviation="0.5 0.5" result="blur" id="feGaussianBlur3"/>
    </filter>
    <style id="current-color-scheme" type="text/css">.ColorScheme-Text {color:#d8dee9} .ColorScheme-Highlight {color:#3b4252}</style><linearGradient id="linearGradient2" inkscape:collect="always">
      <stop style="stop-color:#000000;stop-opacity:1;" offset="0" id="stop2"/>
      <stop style="stop-color:#000000;stop-opacity:0;" offset="1" id="stop3"/>
    </linearGradient>
    <linearGradient inkscape:collect="always" xlink:href="#linearGradient2" id="linearGradient3" x1="45.039307" y1="45.130287" x2="19.025009" y2="19.11599" gradientUnits="userSpaceOnUse"/>
  </defs>
  <g id="g877" transform="matrix(1.1,0,0,1.1,-3.1845928,-3.2065454)" style="">
    <path style="fill:#f5f7fa;stroke-width:0.204426;fill-opacity:1" d="" id="path3"/>
    <rect style="fill:#000000;stroke:none;stroke-width:0.539739;stroke-dasharray:none;filter:url(#filter1283)" id="rect246-1" width="14.572964" height="14.572964" x="1.1932471" y="1.2138842" rx="2.1589575" ry="2.1589575" transform="matrix(2.4606127,0,0,3.1451146,11.16612,5.3876877)"/>
    <rect style="fill:#2b323e;stroke:currentColor;stroke-width:1.63561;stroke-dasharray:none;fill-opacity:1;stroke-opacity:1" id="rect246" width="35.155312" height="44.93494" x="14.453793" y="9.6548424" rx="5.2081943" ry="5.181818" class="ColorScheme-Text"/>
    <rect style="fill:currentColor;fill-opacity:1;stroke:none;stroke-width:1.41125;stroke-dasharray:none" id="rect246-5" width="33.483681" height="43.361137" x="15.289605" y="10.441746" rx="4.2572727" ry="4.2572727" class="ColorScheme-Highlight"/>
  <path d="m 26.343082,26.869009 c -1.943289,0 -3.50751,1.564221 -3.50751,3.507508 v 9.353368 c 0,1.943293 1.564221,3.507514 3.50751,3.507514 h 9.353363 c 1.943289,0 3.507512,-1.564221 3.507512,-3.507514 v -4.676684 c 0,-0.64624 -0.522928,-1.16917 -1.169172,-1.16917 -0.646241,0 -1.169169,0.52293 -1.169169,1.16917 v 4.676684 c 0,0.648532 -0.520647,1.169176 -1.169171,1.169176 h -9.353363 c -0.648523,0 -1.16917,-0.520644 -1.16917,-1.169176 v -9.353368 c 0,-0.648522 0.520647,-1.169168 1.16917,-1.169168 h 4.676681 c 0.64624,0 1.169171,-0.522929 1.169171,-1.169171 0,-0.646239 -0.522931,-1.169169 -1.169171,-1.169169 z m 8.184191,-2.338341 c -0.646241,0 -1.169168,0.522929 -1.169168,1.16917 0,0.646241 0.522927,1.169171 1.169168,1.169171 h 3.021118 l -6.186097,6.1861 c -0.458991,0.456707 -0.458991,1.198856 0,1.655564 0.456707,0.456706 1.196571,0.456706 1.653279,0 l 6.188384,-6.188385 v 3.023402 c 0,0.64624 0.522925,1.169169 1.169166,1.169169 0.646241,0 1.169172,-0.522929 1.169172,-1.169169 v -5.845852 c 0,-0.102757 -0.01391,-0.203233 -0.04113,-0.301425 -0.02722,-0.100473 -0.06624,-0.194101 -0.11643,-0.283156 -0.05025,-0.08905 -0.114171,-0.168984 -0.184956,-0.242055 -0.01824,-0.0137 -0.03668,-0.02737 -0.05476,-0.04111 -0.06395,-0.05937 -0.137024,-0.10961 -0.212386,-0.150714 -0.04339,-0.02282 -0.08906,-0.04111 -0.134736,-0.0571 -0.05941,-0.02511 -0.121036,-0.04338 -0.182668,-0.0571 -0.04796,-0.01138 -0.09361,-0.01599 -0.14157,-0.02054 -0.03442,-0.01138 -0.06624,-0.01138 -0.100441,-0.0137 z m 0,0" id="path3-4-2" style="fill:#000000;fill-opacity:1;stroke:none;stroke-width:0.989991;stroke-dasharray:none;stroke-opacity:0.3;opacity:0.3"/>
    <path d="m 26.343082,25.050827 c -1.943289,0 -3.50751,1.564221 -3.50751,3.507508 v 9.353368 c 0,1.943293 1.564221,3.507514 3.50751,3.507514 h 9.353363 c 1.943289,0 3.507512,-1.564221 3.507512,-3.507514 v -4.676684 c 0,-0.64624 -0.522928,-1.16917 -1.169172,-1.16917 -0.646241,0 -1.169169,0.52293 -1.169169,1.16917 v 4.676684 c 0,0.648532 -0.520647,1.169176 -1.169171,1.169176 h -9.353363 c -0.648523,0 -1.16917,-0.520644 -1.16917,-1.169176 v -9.353368 c 0,-0.648522 0.520647,-1.169168 1.16917,-1.169168 h 4.676681 c 0.64624,0 1.169171,-0.522929 1.169171,-1.169171 0,-0.646239 -0.522931,-1.169169 -1.169171,-1.169169 z m 8.184191,-2.338341 c -0.646241,0 -1.169168,0.522929 -1.169168,1.16917 0,0.646241 0.522927,1.169171 1.169168,1.169171 h 3.021118 l -6.186097,6.1861 c -0.458991,0.456707 -0.458991,1.198856 0,1.655564 0.456707,0.456706 1.196571,0.456706 1.653279,0 l 6.188384,-6.188385 v 3.023402 c 0,0.64624 0.522925,1.169169 1.169166,1.169169 0.646241,0 1.169172,-0.522929 1.169172,-1.169169 v -5.845852 c 0,-0.102757 -0.01391,-0.203233 -0.04113,-0.301425 -0.02722,-0.100473 -0.06624,-0.194101 -0.11643,-0.283156 -0.05025,-0.08905 -0.114171,-0.168984 -0.184956,-0.242055 -0.01824,-0.0137 -0.03668,-0.02737 -0.05476,-0.04111 -0.06395,-0.05937 -0.137024,-0.10961 -0.212386,-0.150714 -0.04339,-0.02282 -0.08906,-0.04111 -0.134736,-0.0571 -0.05941,-0.02511 -0.121036,-0.04338 -0.182668,-0.0571 -0.04796,-0.01138 -0.09361,-0.01599 -0.14157,-0.02054 -0.03442,-0.01138 -0.06624,-0.01138 -0.100441,-0.0137 z m 0,0" id="path3-4" style="fill:currentColor;fill-opacity:1;stroke:none;stroke-width:0.989991;stroke-dasharray:none;stroke-opacity:0.3" class="ColorScheme-Text"/>
  </g>
<path id="gradient-path1" style="opacity:0.3;baseline-shift:baseline;display:inline;overflow:visible;vector-effect:none;fill:url(#linearGradient3);enable-background:accumulate;stop-color:#000000;stop-opacity:1" d="M 19.661775 8.8383367 C 16.33974 8.8383367 13.637272 11.524326 13.637272 14.836206 L 13.637272 49.408294 C 13.637272 52.720174 16.33974 55.407939 19.661775 55.407939 L 44.400766 55.407939 C 47.722801 55.407939 50.427045 52.720174 50.427045 49.408294 L 50.427045 14.836206 C 50.427045 11.524326 47.722801 8.8383367 44.400766 8.8383367 L 19.661775 8.8383367 z " transform="matrix(1.1,0,0,1.1,-3.1845928,-3.2065454)"/>
</svg>
