<?xml version='1.0' encoding='UTF-8'?>
<svg xmlns:inkscape="http://www.inkscape.org/namespaces/inkscape" xmlns:sodipodi="http://sodipodi.sourceforge.net/DTD/sodipodi-0.dtd" xmlns:xlink="http://www.w3.org/1999/xlink" xmlns="http://www.w3.org/2000/svg" xmlns:svg="http://www.w3.org/2000/svg" xmlns:rdf="http://www.w3.org/1999/02/22-rdf-syntax-ns#" xmlns:cc="http://creativecommons.org/ns#" xmlns:dc="http://purl.org/dc/elements/1.1/" width="64" height="64" version="1.1" id="svg73" sodipodi:docname="text-x-arduino.svg" inkscape:version="1.4 (e7c3feb100, 2024-10-09)">
  <metadata id="metadata77">
    <rdf:RDF>
      <cc:Work rdf:about="">
        <dc:format>image/svg+xml</dc:format>
        <dc:type rdf:resource="http://purl.org/dc/dcmitype/StillImage"/>
      </cc:Work>
    </rdf:RDF>
  </metadata>
  <sodipodi:namedview pagecolor="#f5f7fa" bordercolor="#666666" borderopacity="1" objecttolerance="10" gridtolerance="10" guidetolerance="10" inkscape:pageopacity="0" inkscape:pageshadow="2" inkscape:window-width="1183" inkscape:window-height="669" id="namedview75" showgrid="false" inkscape:zoom="4.4470387" inkscape:cx="19.451146" inkscape:cy="25.635037" inkscape:window-x="80" inkscape:window-y="161" inkscape:window-maximized="0" inkscape:current-layer="g877" inkscape:document-rotation="0" inkscape:pagecheckerboard="0" inkscape:showpageshadow="2" inkscape:deskcolor="#d1d1d1"/>
  <defs id="defs29">
    <filter style="color-interpolation-filters:sRGB" inkscape:label="Blur" id="filter1283" x="-0.082344266" y="-0.082344266" width="1.1646885" height="1.1646885">
      <feGaussianBlur stdDeviation="0.5 0.5" result="blur" id="feGaussianBlur1281"/>
    </filter>
    <style id="current-color-scheme" type="text/css">.ColorScheme-Text {color:#d8dee9} .ColorScheme-Highlight {color:#3b4252}</style><linearGradient id="linearGradient2" inkscape:collect="always">
      <stop style="stop-color:#000000;stop-opacity:1;" offset="0" id="stop2"/>
      <stop style="stop-color:#000000;stop-opacity:0;" offset="1" id="stop3"/>
    </linearGradient>
    <linearGradient inkscape:collect="always" xlink:href="#linearGradient2" id="linearGradient3" x1="45.039307" y1="45.130287" x2="19.025009" y2="19.11599" gradientUnits="userSpaceOnUse"/>
  </defs>
  <g id="g877" transform="matrix(1.1,0,0,1.1,-3.1845928,-3.2065454)" style="">
    <path style="fill:#f5f7fa;stroke-width:0.204426;fill-opacity:1" d="" id="path3"/>
    <rect style="fill:#000000;stroke:none;stroke-width:0.539739;stroke-dasharray:none;filter:url(#filter1283)" id="rect246-1" width="14.572964" height="14.572964" x="1.1932471" y="1.2138842" rx="2.1589575" ry="2.1589575" transform="matrix(2.4606127,0,0,3.1451146,11.16612,5.3876877)"/>
    <rect style="fill:#2b323e;stroke:currentColor;stroke-width:1.63561;stroke-dasharray:none;fill-opacity:1;stroke-opacity:1" id="rect246" width="35.155312" height="44.93494" x="14.453793" y="9.6548424" rx="5.2081943" ry="5.181818" class="ColorScheme-Text"/>
    <rect style="fill:currentColor;fill-opacity:1;stroke:none;stroke-width:1.41125;stroke-dasharray:none" id="rect246-5" width="33.483681" height="43.361137" x="15.289605" y="10.441746" rx="4.2572727" ry="4.2572727" class="ColorScheme-Highlight"/>
  <g id="g13" style="clip-rule:evenodd;fill:#000000;fill-opacity:1;fill-rule:evenodd;stroke:none;stroke-linejoin:round;stroke-miterlimit:2;stroke-opacity:1;opacity:0.3" transform="matrix(0.73636364,0,0,0.73636364,9.8950877,11.387806)">
      <path d="m 16.415,25.642 c -0.062,0 -0.078,-0.031 -0.047,-0.078 l 0.327,-0.42 c 0.032,-0.047 0.109,-0.078 0.172,-0.078 h 5.562 c 0.062,0 0.078,0.047 0.047,0.093 l -0.265,0.405 c -0.031,0.047 -0.109,0.094 -0.156,0.094 z" style="fill:#000000;fill-opacity:1;fill-rule:nonzero;stroke:none;stroke-opacity:1" id="path7-2"/>
      <path d="m 14.062,27.076 c -0.062,0 -0.078,-0.032 -0.046,-0.078 l 0.327,-0.421 c 0.031,-0.047 0.109,-0.078 0.171,-0.078 h 7.105 c 0.062,0 0.093,0.047 0.078,0.094 l -0.125,0.374 c -0.016,0.062 -0.078,0.093 -0.14,0.093 z" style="fill:#000000;fill-opacity:1;fill-rule:nonzero;stroke:none;stroke-opacity:1" id="path8-8"/>
      <path d="m 17.833,28.509 c -0.063,0 -0.078,-0.047 -0.047,-0.093 l 0.218,-0.39 c 0.031,-0.047 0.094,-0.093 0.156,-0.093 h 3.116 c 0.062,0 0.093,0.046 0.093,0.109 l -0.031,0.374 c 0,0.062 -0.062,0.109 -0.109,0.109 z" style="fill:#000000;fill-opacity:1;fill-rule:nonzero;stroke:none;stroke-opacity:1" id="path9-9"/>
      <path d="m 34.005,25.362 c -0.981,0.249 -1.651,0.436 -2.617,0.685 -0.234,0.063 -0.25,0.078 -0.452,-0.155 -0.234,-0.265 -0.405,-0.437 -0.733,-0.593 -0.981,-0.482 -1.931,-0.342 -2.82,0.234 -1.059,0.686 -1.604,1.698 -1.589,2.96 0.016,1.247 0.873,2.275 2.104,2.447 1.059,0.14 1.947,-0.234 2.648,-1.029 0.14,-0.171 0.265,-0.358 0.421,-0.576 H 27.96 c -0.327,0 -0.405,-0.203 -0.296,-0.468 0.202,-0.483 0.576,-1.293 0.795,-1.698 0.046,-0.093 0.155,-0.249 0.389,-0.249 h 5.671 c -0.031,0.421 -0.031,0.841 -0.093,1.262 -0.172,1.122 -0.592,2.15 -1.278,3.054 -1.122,1.48 -2.586,2.399 -4.44,2.648 -1.527,0.203 -2.945,-0.093 -4.191,-1.028 -1.153,-0.873 -1.808,-2.026 -1.979,-3.459 -0.203,-1.698 0.296,-3.225 1.324,-4.565 1.107,-1.449 2.571,-2.368 4.363,-2.695 1.464,-0.265 2.867,-0.094 4.129,0.763 0.825,0.545 1.417,1.293 1.807,2.197 0.093,0.14 0.031,0.218 -0.156,0.265 z" style="fill:#000000;fill-opacity:1;fill-rule:nonzero;stroke:none;stroke-opacity:1" id="path10-7"/>
      <path d="m 39.162,33.978 c -1.418,-0.031 -2.711,-0.437 -3.801,-1.371 -0.92,-0.795 -1.496,-1.808 -1.683,-3.007 -0.281,-1.761 0.202,-3.319 1.262,-4.706 1.137,-1.495 2.508,-2.274 4.362,-2.602 1.59,-0.28 3.085,-0.124 4.441,0.795 1.231,0.841 1.994,1.979 2.197,3.474 0.264,2.104 -0.343,3.818 -1.792,5.282 -1.028,1.044 -2.29,1.698 -3.739,1.994 -0.421,0.078 -0.842,0.094 -1.247,0.141 z m 3.708,-6.295 c -0.015,-0.202 -0.015,-0.358 -0.046,-0.514 -0.281,-1.542 -1.699,-2.415 -3.179,-2.072 -1.449,0.327 -2.384,1.246 -2.726,2.711 -0.281,1.215 0.311,2.446 1.433,2.945 0.857,0.374 1.714,0.327 2.54,-0.094 1.23,-0.639 1.9,-1.636 1.978,-2.976 z" style="fill:#000000;fill-opacity:1;fill-rule:nonzero;stroke:none;stroke-opacity:1" id="path11-3"/>
    </g>
    <g id="g12" style="clip-rule:evenodd;fill:currentColor;fill-opacity:1;fill-rule:evenodd;stroke-linejoin:round;stroke-miterlimit:2;stroke:none;stroke-opacity:1" transform="matrix(0.73636364,0,0,0.73636364,9.8950877,9.569624)" class="ColorScheme-Text">
      <path d="m 16.415,25.642 c -0.062,0 -0.078,-0.031 -0.047,-0.078 l 0.327,-0.42 c 0.032,-0.047 0.109,-0.078 0.172,-0.078 h 5.562 c 0.062,0 0.078,0.047 0.047,0.093 l -0.265,0.405 c -0.031,0.047 -0.109,0.094 -0.156,0.094 z" style="fill:currentColor;fill-opacity:1;fill-rule:nonzero;stroke:none;stroke-opacity:1" id="path7" class="ColorScheme-Text"/>
      <path d="m 14.062,27.076 c -0.062,0 -0.078,-0.032 -0.046,-0.078 l 0.327,-0.421 c 0.031,-0.047 0.109,-0.078 0.171,-0.078 h 7.105 c 0.062,0 0.093,0.047 0.078,0.094 l -0.125,0.374 c -0.016,0.062 -0.078,0.093 -0.14,0.093 z" style="fill:currentColor;fill-opacity:1;fill-rule:nonzero;stroke:none;stroke-opacity:1" id="path8" class="ColorScheme-Text"/>
      <path d="m 17.833,28.509 c -0.063,0 -0.078,-0.047 -0.047,-0.093 l 0.218,-0.39 c 0.031,-0.047 0.094,-0.093 0.156,-0.093 h 3.116 c 0.062,0 0.093,0.046 0.093,0.109 l -0.031,0.374 c 0,0.062 -0.062,0.109 -0.109,0.109 z" style="fill:currentColor;fill-opacity:1;fill-rule:nonzero;stroke:none;stroke-opacity:1" id="path9" class="ColorScheme-Text"/>
      <path d="m 34.005,25.362 c -0.981,0.249 -1.651,0.436 -2.617,0.685 -0.234,0.063 -0.25,0.078 -0.452,-0.155 -0.234,-0.265 -0.405,-0.437 -0.733,-0.593 -0.981,-0.482 -1.931,-0.342 -2.82,0.234 -1.059,0.686 -1.604,1.698 -1.589,2.96 0.016,1.247 0.873,2.275 2.104,2.447 1.059,0.14 1.947,-0.234 2.648,-1.029 0.14,-0.171 0.265,-0.358 0.421,-0.576 H 27.96 c -0.327,0 -0.405,-0.203 -0.296,-0.468 0.202,-0.483 0.576,-1.293 0.795,-1.698 0.046,-0.093 0.155,-0.249 0.389,-0.249 h 5.671 c -0.031,0.421 -0.031,0.841 -0.093,1.262 -0.172,1.122 -0.592,2.15 -1.278,3.054 -1.122,1.48 -2.586,2.399 -4.44,2.648 -1.527,0.203 -2.945,-0.093 -4.191,-1.028 -1.153,-0.873 -1.808,-2.026 -1.979,-3.459 -0.203,-1.698 0.296,-3.225 1.324,-4.565 1.107,-1.449 2.571,-2.368 4.363,-2.695 1.464,-0.265 2.867,-0.094 4.129,0.763 0.825,0.545 1.417,1.293 1.807,2.197 0.093,0.14 0.031,0.218 -0.156,0.265 z" style="fill:currentColor;fill-opacity:1;fill-rule:nonzero;stroke:none;stroke-opacity:1" id="path10" class="ColorScheme-Text"/>
      <path d="m 39.162,33.978 c -1.418,-0.031 -2.711,-0.437 -3.801,-1.371 -0.92,-0.795 -1.496,-1.808 -1.683,-3.007 -0.281,-1.761 0.202,-3.319 1.262,-4.706 1.137,-1.495 2.508,-2.274 4.362,-2.602 1.59,-0.28 3.085,-0.124 4.441,0.795 1.231,0.841 1.994,1.979 2.197,3.474 0.264,2.104 -0.343,3.818 -1.792,5.282 -1.028,1.044 -2.29,1.698 -3.739,1.994 -0.421,0.078 -0.842,0.094 -1.247,0.141 z m 3.708,-6.295 c -0.015,-0.202 -0.015,-0.358 -0.046,-0.514 -0.281,-1.542 -1.699,-2.415 -3.179,-2.072 -1.449,0.327 -2.384,1.246 -2.726,2.711 -0.281,1.215 0.311,2.446 1.433,2.945 0.857,0.374 1.714,0.327 2.54,-0.094 1.23,-0.639 1.9,-1.636 1.978,-2.976 z" style="fill:currentColor;fill-opacity:1;fill-rule:nonzero;stroke:none;stroke-opacity:1" id="path11" class="ColorScheme-Text"/>
    </g>
  </g>
<path id="gradient-path1" style="opacity:0.3;baseline-shift:baseline;display:inline;overflow:visible;vector-effect:none;fill:url(#linearGradient3);enable-background:accumulate;stop-color:#000000;stop-opacity:1" d="M 19.661775 8.8383367 C 16.33974 8.8383367 13.637272 11.524326 13.637272 14.836206 L 13.637272 49.408294 C 13.637272 52.720174 16.33974 55.407939 19.661775 55.407939 L 44.400766 55.407939 C 47.722801 55.407939 50.427045 52.720174 50.427045 49.408294 L 50.427045 14.836206 C 50.427045 11.524326 47.722801 8.8383367 44.400766 8.8383367 L 19.661775 8.8383367 z " transform="matrix(1.1,0,0,1.1,-3.1845928,-3.2065454)"/>
</svg>
