<?xml version='1.0' encoding='UTF-8'?>
<svg xmlns:inkscape="http://www.inkscape.org/namespaces/inkscape" xmlns:sodipodi="http://sodipodi.sourceforge.net/DTD/sodipodi-0.dtd" xmlns:xlink="http://www.w3.org/1999/xlink" xmlns="http://www.w3.org/2000/svg" xmlns:svg="http://www.w3.org/2000/svg" xmlns:rdf="http://www.w3.org/1999/02/22-rdf-syntax-ns#" xmlns:cc="http://creativecommons.org/ns#" xmlns:dc="http://purl.org/dc/elements/1.1/" width="64" height="64" version="1.1" id="svg73" sodipodi:docname="text.svg" inkscape:version="1.4 (e7c3feb100, 2024-10-09)">
  <metadata id="metadata77">
    <rdf:RDF>
      <cc:Work rdf:about="">
        <dc:format>image/svg+xml</dc:format>
        <dc:type rdf:resource="http://purl.org/dc/dcmitype/StillImage"/>
      </cc:Work>
    </rdf:RDF>
  </metadata>
  <sodipodi:namedview pagecolor="#f5f7fa" bordercolor="#666666" borderopacity="1" objecttolerance="10" gridtolerance="10" guidetolerance="10" inkscape:pageopacity="0" inkscape:pageshadow="2" inkscape:window-width="1183" inkscape:window-height="943" id="namedview75" showgrid="false" inkscape:zoom="4.4470387" inkscape:cx="19.451146" inkscape:cy="8.3201435" inkscape:window-x="31" inkscape:window-y="32" inkscape:window-maximized="0" inkscape:current-layer="g877" inkscape:document-rotation="0" inkscape:pagecheckerboard="0" inkscape:showpageshadow="2" inkscape:deskcolor="#d1d1d1"/>
  <defs id="defs29">
    <filter style="color-interpolation-filters:sRGB;" inkscape:label="Blur" id="filter6" x="-0.044145008" y="-0.044145008" width="1.08829" height="1.08829">
      <feGaussianBlur stdDeviation="1 1" result="blur" id="feGaussianBlur6"/>
    </filter>
    <filter style="color-interpolation-filters:sRGB;" inkscape:label="Blur" id="filter7" x="-0.098100013" y="-0.098100021" width="1.1962" height="1.1962">
      <feGaussianBlur stdDeviation="2 2" result="blur" id="feGaussianBlur7"/>
    </filter>
    <clipPath id="clip0_515_3621">
      <rect width="16" height="16" fill="#ffffff" transform="translate(0.00292969)" id="rect7969" x="0" y="0"/>
    </clipPath>
    <filter style="color-interpolation-filters:sRGB;" inkscape:label="Blur" id="filter7349" x="-0.10485812" y="-0.10485813" width="1.2097162" height="1.2097163">
      <feGaussianBlur stdDeviation="2 2" result="blur" id="feGaussianBlur7347"/>
    </filter>
    <filter style="color-interpolation-filters:sRGB" inkscape:label="Blur" id="filter1283" x="-0.082344266" y="-0.082344266" width="1.1646885" height="1.1646885">
      <feGaussianBlur stdDeviation="0.5 0.5" result="blur" id="feGaussianBlur1281"/>
    </filter>
    <filter style="color-interpolation-filters:sRGB" inkscape:label="Blur" id="filter1694" x="-0.94955398" y="-0.2118907" width="2.899108" height="1.4237814">
      <feGaussianBlur stdDeviation="0.2 0.2" result="blur" id="feGaussianBlur1692"/>
    </filter>
    <filter style="color-interpolation-filters:sRGB" inkscape:label="Blur" id="filter3" x="-0.10843471" y="-0.10870992" width="1.2168694" height="1.2174198">
      <feGaussianBlur stdDeviation="0.5 0.5" result="blur" id="feGaussianBlur3"/>
    </filter>
    <style id="current-color-scheme" type="text/css">.ColorScheme-Text {color:#d8dee9} .ColorScheme-Highlight {color:#3b4252}</style><linearGradient id="linearGradient2" inkscape:collect="always">
      <stop style="stop-color:#000000;stop-opacity:1;" offset="0" id="stop2"/>
      <stop style="stop-color:#000000;stop-opacity:0;" offset="1" id="stop3"/>
    </linearGradient>
    <linearGradient inkscape:collect="always" xlink:href="#linearGradient2" id="linearGradient3" x1="45.039307" y1="45.130287" x2="19.025009" y2="19.11599" gradientUnits="userSpaceOnUse"/>
  </defs>
  <g id="g877" transform="matrix(1.1,0,0,1.1,-3.1845928,-3.2065454)" style="">
    <path style="fill:#f5f7fa;stroke-width:0.204426;fill-opacity:1" d="" id="path3"/>
    <rect style="fill:#000000;stroke:none;stroke-width:0.539739;stroke-dasharray:none;filter:url(#filter1283)" id="rect246-1" width="14.572964" height="14.572964" x="1.1932471" y="1.2138842" rx="2.1589575" ry="2.1589575" transform="matrix(2.4606127,0,0,3.1451146,11.16612,5.3876877)"/>
    <rect style="fill:#2b323e;stroke:currentColor;stroke-width:1.63561;stroke-dasharray:none;fill-opacity:1;stroke-opacity:1" id="rect246" width="35.155312" height="44.93494" x="14.453793" y="9.6548424" rx="5.2081943" ry="5.181818" class="ColorScheme-Text"/>
    <rect style="fill:currentColor;fill-opacity:1;stroke:none;stroke-width:1.41125;stroke-dasharray:none" id="rect246-5" width="33.483681" height="43.361137" x="15.289605" y="10.441746" rx="4.2572727" ry="4.2572727" class="ColorScheme-Highlight"/>
  <path id="path16-0" style="fill:#000000;stroke-width:0.0939762;opacity:0.3" d="m 28.84382,25.416177 v 1.080256 1.080255 h 1.126599 1.128195 v -1.080255 -1.080256 h -1.128195 z m 3.005862,0 v 1.080256 1.080255 h 1.081853 1.080256 v -1.080255 -1.080256 h -1.080256 z m 6.340912,1.927202 c -0.227818,-0.0039 -0.384621,0.128554 -0.604049,0.431463 -0.63751,0.880058 -0.579516,1.898056 0.155023,2.715021 0.328914,0.365833 0.533835,0.501447 0.925249,0.615234 0.432896,0.125845 0.534856,0.20494 0.746271,0.565697 0.164948,0.28147 0.406156,0.509685 0.735085,0.698331 0.959764,0.550441 2.191564,0.276776 2.825286,-0.628019 0.253979,-0.362614 0.265978,-0.416008 0.154992,-0.683948 -0.162444,-0.392169 -0.844461,-0.978056 -1.297588,-1.113815 -0.588298,-0.176261 -0.902953,-0.138329 -1.727446,0.212535 -0.141137,0.06006 -0.15363,0.01113 -0.105482,-0.455433 0.09924,-0.961509 -0.407548,-1.829916 -1.291192,-2.21005 -0.216684,-0.09322 -0.379472,-0.144681 -0.516159,-0.147019 z m -13.106896,0.985973 v 1.126598 1.128196 h 1.128195 1.128199 V 29.45595 28.329352 h -1.128199 z m 2.913174,0 v 1.126598 1.128196 h 1.128199 1.128194 V 29.45595 28.329352 h -1.128194 z m 3.007461,0 v 1.126598 1.128196 h 1.081853 1.080257 V 29.45595 28.329352 h -1.080257 z m 2.913175,0 v 1.126598 1.128196 h 1.128198 1.128195 V 29.45595 28.329352 h -1.128195 z m -12.430936,3.005859 0.05272,0.642401 c 0.0993,1.184472 0.611862,2.623873 1.206498,3.39098 1.277908,1.648547 3.139086,2.6754 5.57067,3.072975 1.09199,0.178554 3.61818,0.104429 4.667795,-0.137427 3.564869,-0.821401 5.743928,-3.091694 6.061258,-6.312146 l 0.06553,-0.656783 h -8.81304 z m 3.659448,1.391868 c 0.39302,0 0.784623,0.341487 0.784623,0.685547 0,0.261654 -0.246155,0.708342 -0.428266,0.778232 -0.242538,0.09307 -0.640234,0.06204 -0.802202,-0.06233 -0.629137,-0.48304 -0.336819,-1.401456 0.445845,-1.401458 z"/>
    <path id="path16" style="fill:currentColor;stroke-width:0.0939762" d="m 28.84382,23.597995 v 1.080256 1.080255 h 1.126599 1.128195 v -1.080255 -1.080256 h -1.128195 z m 3.005862,0 v 1.080256 1.080255 h 1.081853 1.080256 v -1.080255 -1.080256 h -1.080256 z m 6.340912,1.927202 c -0.227818,-0.0039 -0.384621,0.128554 -0.604049,0.431463 -0.63751,0.880058 -0.579516,1.898056 0.155023,2.715021 0.328914,0.365833 0.533835,0.501447 0.925249,0.615234 0.432896,0.125845 0.534856,0.20494 0.746271,0.565697 0.164948,0.28147 0.406156,0.509685 0.735085,0.698331 0.959764,0.550441 2.191564,0.276776 2.825286,-0.628019 0.253979,-0.362614 0.265978,-0.416008 0.154992,-0.683948 -0.162444,-0.392169 -0.844461,-0.978056 -1.297588,-1.113815 -0.588298,-0.176261 -0.902953,-0.138329 -1.727446,0.212535 -0.141137,0.06006 -0.15363,0.01113 -0.105482,-0.455433 0.09924,-0.961509 -0.407548,-1.829916 -1.291192,-2.21005 -0.216684,-0.09322 -0.379472,-0.144681 -0.516159,-0.147019 z M 25.083698,26.51117 v 1.126598 1.128196 h 1.128195 1.128199 V 27.637768 26.51117 h -1.128199 z m 2.913174,0 v 1.126598 1.128196 h 1.128199 1.128194 V 27.637768 26.51117 h -1.128194 z m 3.007461,0 v 1.126598 1.128196 h 1.081853 1.080257 V 27.637768 26.51117 h -1.080257 z m 2.913175,0 v 1.126598 1.128196 h 1.128198 1.128195 V 27.637768 26.51117 h -1.128195 z m -12.430936,3.005859 0.05272,0.642401 c 0.0993,1.184472 0.611862,2.623873 1.206498,3.39098 1.277908,1.648547 3.139086,2.6754 5.57067,3.072975 1.09199,0.178554 3.61818,0.104429 4.667795,-0.137427 3.564869,-0.821401 5.743928,-3.091694 6.061258,-6.312146 l 0.06553,-0.656783 h -8.81304 z m 3.659448,1.391868 c 0.39302,0 0.784623,0.341487 0.784623,0.685547 0,0.261654 -0.246155,0.708342 -0.428266,0.778232 -0.242538,0.09307 -0.640234,0.06204 -0.802202,-0.06233 -0.629137,-0.48304 -0.336819,-1.401456 0.445845,-1.401458 z" class="ColorScheme-Text"/>
  </g>
<path id="gradient-path1" style="opacity:0.3;baseline-shift:baseline;display:inline;overflow:visible;vector-effect:none;fill:url(#linearGradient3);enable-background:accumulate;stop-color:#000000;stop-opacity:1" d="M 19.661775 8.8383367 C 16.33974 8.8383367 13.637272 11.524326 13.637272 14.836206 L 13.637272 49.408294 C 13.637272 52.720174 16.33974 55.407939 19.661775 55.407939 L 44.400766 55.407939 C 47.722801 55.407939 50.427045 52.720174 50.427045 49.408294 L 50.427045 14.836206 C 50.427045 11.524326 47.722801 8.8383367 44.400766 8.8383367 L 19.661775 8.8383367 z " transform="matrix(1.1,0,0,1.1,-3.1845928,-3.2065454)"/>
</svg>
