<?xml version='1.0' encoding='UTF-8'?>
<svg xmlns:inkscape="http://www.inkscape.org/namespaces/inkscape" xmlns:sodipodi="http://sodipodi.sourceforge.net/DTD/sodipodi-0.dtd" xmlns:xlink="http://www.w3.org/1999/xlink" xmlns="http://www.w3.org/2000/svg" xmlns:svg="http://www.w3.org/2000/svg" xmlns:rdf="http://www.w3.org/1999/02/22-rdf-syntax-ns#" xmlns:cc="http://creativecommons.org/ns#" xmlns:dc="http://purl.org/dc/elements/1.1/" width="64" height="64" version="1.1" id="svg73" sodipodi:docname="application-x-partial-download.svg" inkscape:version="1.4 (e7c3feb100, 2024-10-09)">
  <metadata id="metadata77">
    <rdf:RDF>
      <cc:Work rdf:about="">
        <dc:format>image/svg+xml</dc:format>
        <dc:type rdf:resource="http://purl.org/dc/dcmitype/StillImage"/>
      </cc:Work>
    </rdf:RDF>
  </metadata>
  <sodipodi:namedview pagecolor="#f5f7fa" bordercolor="#666666" borderopacity="1" objecttolerance="10" gridtolerance="10" guidetolerance="10" inkscape:pageopacity="0" inkscape:pageshadow="2" inkscape:window-width="1183" inkscape:window-height="669" id="namedview75" showgrid="false" inkscape:zoom="4.4470387" inkscape:cx="19.451146" inkscape:cy="25.635037" inkscape:window-x="80" inkscape:window-y="161" inkscape:window-maximized="0" inkscape:current-layer="g877" inkscape:document-rotation="0" inkscape:pagecheckerboard="0" inkscape:showpageshadow="2" inkscape:deskcolor="#d1d1d1"/>
  <defs id="defs29">
    <filter style="color-interpolation-filters:sRGB" inkscape:label="Blur" id="filter1283" x="-0.082344266" y="-0.082344266" width="1.1646885" height="1.1646885">
      <feGaussianBlur stdDeviation="0.5 0.5" result="blur" id="feGaussianBlur1281"/>
    </filter>
    <style id="current-color-scheme" type="text/css">.ColorScheme-Text {color:#d8dee9} .ColorScheme-Highlight {color:#3b4252}</style><linearGradient id="linearGradient2" inkscape:collect="always">
      <stop style="stop-color:#000000;stop-opacity:1;" offset="0" id="stop2"/>
      <stop style="stop-color:#000000;stop-opacity:0;" offset="1" id="stop3"/>
    </linearGradient>
    <linearGradient inkscape:collect="always" xlink:href="#linearGradient2" id="linearGradient3" x1="45.039307" y1="45.130287" x2="19.025009" y2="19.11599" gradientUnits="userSpaceOnUse"/>
  </defs>
  <g id="g877" transform="matrix(1.1,0,0,1.1,-3.1845928,-3.2065454)" style="">
    <path style="fill:#f5f7fa;stroke-width:0.204426;fill-opacity:1" d="" id="path3"/>
    <rect style="fill:#000000;stroke:none;stroke-width:0.539739;stroke-dasharray:none;filter:url(#filter1283)" id="rect246-1" width="14.572964" height="14.572964" x="1.1932471" y="1.2138842" rx="2.1589575" ry="2.1589575" transform="matrix(2.4606127,0,0,3.1451146,11.16612,5.3876877)"/>
    <rect style="fill:#2b323e;stroke:currentColor;stroke-width:1.63561;stroke-dasharray:none;fill-opacity:1;stroke-opacity:1" id="rect246" width="35.155312" height="44.93494" x="14.453793" y="9.6548424" rx="5.2081943" ry="5.181818" class="ColorScheme-Text"/>
    <rect style="fill:currentColor;fill-opacity:1;stroke:none;stroke-width:1.41125;stroke-dasharray:none" id="rect246-5" width="33.483681" height="43.361137" x="15.289605" y="10.441746" rx="4.2572727" ry="4.2572727" class="ColorScheme-Highlight"/>
  <path d="m 36.006971,34.477516 c 0,0 0.847554,0.255519 1.340186,0.505146 0.170824,0.0869 0.466117,0.258463 0.679663,0.485263 0.209139,0.221644 0.310746,0.446973 0.310746,0.446973 l 3.086836,4.799614 h -7.202376 l -1.392464,-3.639105 c 0,0 -0.516928,-0.888791 -0.835036,-1.146519 -0.265093,-0.214281 -0.378492,-0.290865 -0.640637,-0.290865 h -1.283482 l 7.36e-4,5.073543 h -5.891645 l 0.0014,-16.199997 h 9.469636 c 1.104545,0 6.709012,0.5427 6.709012,4.699472 0,4.157509 -4.352648,5.264265 -4.352648,5.264265 z M 30.07188,27.45997 v 4.41671 h 2.334272 c 0,0 1.771691,0 1.906446,-2.161228 C 34.45398,27.45997 32.405416,27.46218 32.405416,27.46218 Z" fill="#3f51b5" fill-rule="evenodd" stroke-width="1.47272" id="path5-3-3" style="fill:#000000;opacity:0.3"/>
    <path d="m 36.006971,32.659334 c 0,0 0.847554,0.255519 1.340186,0.505146 0.170824,0.0869 0.466117,0.258463 0.679663,0.485263 0.209139,0.221644 0.310746,0.446973 0.310746,0.446973 l 3.086836,4.799614 h -7.202376 l -1.392464,-3.639105 c 0,0 -0.516928,-0.888791 -0.835036,-1.146519 -0.265093,-0.214281 -0.378492,-0.290865 -0.640637,-0.290865 h -1.283482 l 7.36e-4,5.073543 h -5.891645 l 0.0014,-16.199997 h 9.469636 c 1.104545,0 6.709012,0.5427 6.709012,4.699472 0,4.157509 -4.352648,5.264265 -4.352648,5.264265 z M 30.07188,25.641788 v 4.41671 h 2.334272 c 0,0 1.771691,0 1.906446,-2.161228 0.141382,-2.255482 -1.907182,-2.253272 -1.907182,-2.253272 z" fill="#3f51b5" fill-rule="evenodd" stroke-width="1.47272" id="path5-3" style="fill:currentColor" class="ColorScheme-Text"/>
  </g>
<path id="gradient-path1" style="opacity:0.3;baseline-shift:baseline;display:inline;overflow:visible;vector-effect:none;fill:url(#linearGradient3);enable-background:accumulate;stop-color:#000000;stop-opacity:1" d="M 19.661775 8.8383367 C 16.33974 8.8383367 13.637272 11.524326 13.637272 14.836206 L 13.637272 49.408294 C 13.637272 52.720174 16.33974 55.407939 19.661775 55.407939 L 44.400766 55.407939 C 47.722801 55.407939 50.427045 52.720174 50.427045 49.408294 L 50.427045 14.836206 C 50.427045 11.524326 47.722801 8.8383367 44.400766 8.8383367 L 19.661775 8.8383367 z " transform="matrix(1.1,0,0,1.1,-3.1845928,-3.2065454)"/>
</svg>
