<?xml version='1.0' encoding='UTF-8'?>
<svg xmlns:inkscape="http://www.inkscape.org/namespaces/inkscape" xmlns:sodipodi="http://sodipodi.sourceforge.net/DTD/sodipodi-0.dtd" xmlns:xlink="http://www.w3.org/1999/xlink" xmlns="http://www.w3.org/2000/svg" xmlns:svg="http://www.w3.org/2000/svg" xmlns:rdf="http://www.w3.org/1999/02/22-rdf-syntax-ns#" xmlns:cc="http://creativecommons.org/ns#" xmlns:dc="http://purl.org/dc/elements/1.1/" width="64" height="64" version="1.1" id="svg73" sodipodi:docname="text-x-lua.svg" inkscape:version="1.4 (e7c3feb100, 2024-10-09)">
  <metadata id="metadata77">
    <rdf:RDF>
      <cc:Work rdf:about="">
        <dc:format>image/svg+xml</dc:format>
        <dc:type rdf:resource="http://purl.org/dc/dcmitype/StillImage"/>
      </cc:Work>
    </rdf:RDF>
  </metadata>
  <sodipodi:namedview pagecolor="#f5f7fa" bordercolor="#666666" borderopacity="1" objecttolerance="10" gridtolerance="10" guidetolerance="10" inkscape:pageopacity="0" inkscape:pageshadow="2" inkscape:window-width="1183" inkscape:window-height="669" id="namedview75" showgrid="false" inkscape:zoom="4.4470387" inkscape:cx="19.451146" inkscape:cy="25.635037" inkscape:window-x="98" inkscape:window-y="173" inkscape:window-maximized="0" inkscape:current-layer="g877" inkscape:document-rotation="0" inkscape:pagecheckerboard="0" inkscape:showpageshadow="2" inkscape:deskcolor="#d1d1d1"/>
  <defs id="defs29">
    <filter style="color-interpolation-filters:sRGB" inkscape:label="Blur" id="filter1283" x="-0.082344266" y="-0.082344266" width="1.1646885" height="1.1646885">
      <feGaussianBlur stdDeviation="0.5 0.5" result="blur" id="feGaussianBlur1281"/>
    </filter>
    <style id="current-color-scheme" type="text/css">.ColorScheme-Text {color:#d8dee9} .ColorScheme-Highlight {color:#3b4252}</style><linearGradient id="linearGradient2" inkscape:collect="always">
      <stop style="stop-color:#000000;stop-opacity:1;" offset="0" id="stop2"/>
      <stop style="stop-color:#000000;stop-opacity:0;" offset="1" id="stop3"/>
    </linearGradient>
    <linearGradient inkscape:collect="always" xlink:href="#linearGradient2" id="linearGradient3" x1="45.039307" y1="45.130287" x2="19.025009" y2="19.11599" gradientUnits="userSpaceOnUse"/>
  </defs>
  <g id="g877" transform="matrix(1.1,0,0,1.1,-3.1845928,-3.2065454)" style="">
    <path style="fill:#f5f7fa;stroke-width:0.204426;fill-opacity:1" d="" id="path3"/>
    <rect style="fill:#000000;stroke:none;stroke-width:0.539739;stroke-dasharray:none;filter:url(#filter1283)" id="rect246-1" width="14.572964" height="14.572964" x="1.1932471" y="1.2138842" rx="2.1589575" ry="2.1589575" transform="matrix(2.4606127,0,0,3.1451146,11.16612,5.3876877)"/>
    <rect style="fill:#2b323e;stroke:currentColor;stroke-width:1.63561;stroke-dasharray:none;fill-opacity:1;stroke-opacity:1" id="rect246" width="35.155312" height="44.93494" x="14.453793" y="9.6548424" rx="5.2081943" ry="5.181818" class="ColorScheme-Text"/>
    <rect style="fill:currentColor;fill-opacity:1;stroke:none;stroke-width:1.41125;stroke-dasharray:none" id="rect246-5" width="33.483681" height="43.361137" x="15.289605" y="10.441746" rx="4.2572727" ry="4.2572727" class="ColorScheme-Highlight"/>
  <path style="fill:#000000;stroke-width:0.662727;opacity:0.3" d="m 32.441116,23.182307 c -0.826639,2.025136 -1.325257,3.351567 -2.245207,5.316479 0.564603,0.597752 1.256445,1.290426 2.379991,2.076597 -1.208377,-0.497282 -2.03124,-0.992961 -2.64768,-1.511079 -1.177266,2.455973 -3.023763,5.950999 -6.765866,12.67431 2.940913,-1.697512 5.381178,-2.742791 7.505739,-3.142422 -0.09144,-0.392101 -0.142333,-0.818128 -0.138561,-1.261119 l 0.0027,-0.09143 c 0.04619,-1.884134 0.868154,-3.555766 2.029398,-3.457741 1.161252,0.09802 1.838718,1.929888 1.79159,3.814014 -0.0085,0.3544 -0.04805,0.694657 -0.117819,1.010406 2.100991,0.411889 4.583963,1.454339 7.483306,3.128283 -0.572138,-1.052811 -1.084898,-2.000064 -1.572211,-2.903958 -0.76819,-0.595683 -1.567492,-1.370449 -3.201907,-2.209314 1.122601,0.29219 1.92944,0.627734 2.556251,1.004752 -4.957994,-9.23102 -5.360476,-10.457453 -7.059928,-14.447217 z" id="path6-5-9"/>
    <path style="fill:currentColor;stroke-width:0.662727" d="m 32.441116,21.364125 c -0.826639,2.025136 -1.325257,3.351567 -2.245207,5.316479 0.564603,0.597752 1.256445,1.290426 2.379991,2.076597 -1.208377,-0.497282 -2.03124,-0.992961 -2.64768,-1.511079 -1.177266,2.455973 -3.023763,5.950999 -6.765866,12.67431 2.940913,-1.697512 5.381178,-2.742791 7.505739,-3.142422 -0.09144,-0.392101 -0.142333,-0.818128 -0.138561,-1.261119 l 0.0027,-0.09143 c 0.04619,-1.884134 0.868154,-3.555766 2.029398,-3.457741 1.161252,0.09802 1.838718,1.929888 1.79159,3.814014 -0.0085,0.3544 -0.04805,0.694657 -0.117819,1.010406 2.100991,0.411889 4.583963,1.454339 7.483306,3.128283 -0.572138,-1.052811 -1.084898,-2.000064 -1.572211,-2.903958 -0.76819,-0.595683 -1.567492,-1.370449 -3.201907,-2.209314 1.122601,0.29219 1.92944,0.627734 2.556251,1.004752 -4.957994,-9.23102 -5.360476,-10.457453 -7.059928,-14.447217 z" id="path6-5" class="ColorScheme-Text"/>
  </g>
<path id="gradient-path1" style="opacity:0.3;baseline-shift:baseline;display:inline;overflow:visible;vector-effect:none;fill:url(#linearGradient3);enable-background:accumulate;stop-color:#000000;stop-opacity:1" d="M 19.661775 8.8383367 C 16.33974 8.8383367 13.637272 11.524326 13.637272 14.836206 L 13.637272 49.408294 C 13.637272 52.720174 16.33974 55.407939 19.661775 55.407939 L 44.400766 55.407939 C 47.722801 55.407939 50.427045 52.720174 50.427045 49.408294 L 50.427045 14.836206 C 50.427045 11.524326 47.722801 8.8383367 44.400766 8.8383367 L 19.661775 8.8383367 z " transform="matrix(1.1,0,0,1.1,-3.1845928,-3.2065454)"/>
</svg>
