<?xml version='1.0' encoding='UTF-8'?>
<svg xmlns:inkscape="http://www.inkscape.org/namespaces/inkscape" xmlns:sodipodi="http://sodipodi.sourceforge.net/DTD/sodipodi-0.dtd" xmlns:xlink="http://www.w3.org/1999/xlink" xmlns="http://www.w3.org/2000/svg" xmlns:svg="http://www.w3.org/2000/svg" xmlns:rdf="http://www.w3.org/1999/02/22-rdf-syntax-ns#" xmlns:cc="http://creativecommons.org/ns#" xmlns:dc="http://purl.org/dc/elements/1.1/" width="64" height="64" version="1.1" viewBox="0 0 16.933 16.933" id="svg7" sodipodi:docname="applications-system.svg" inkscape:version="1.4 (e7c3feb100, 2024-10-09)">
  <sodipodi:namedview id="namedview7" pagecolor="#9c4444" bordercolor="#000000" borderopacity="0.25" inkscape:showpageshadow="2" inkscape:pageopacity="0.0" inkscape:pagecheckerboard="0" inkscape:deskcolor="#d1d1d1" inkscape:zoom="4.3531261" inkscape:cx="36.984915" inkscape:cy="25.958357" inkscape:window-width="1280" inkscape:window-height="669" inkscape:window-x="180" inkscape:window-y="166" inkscape:window-maximized="0" inkscape:current-layer="svg7" showgrid="false"/>
  <defs id="defs2">
    <filter style="color-interpolation-filters:sRGB;" inkscape:label="Blur" id="filter3" x="-0.10843471" y="-0.10870992" width="1.2168694" height="1.2174198">
      <feGaussianBlur stdDeviation="0.5 0.5" result="blur" id="feGaussianBlur3"/>
    </filter>
    <style id="current-color-scheme" type="text/css">.ColorScheme-Text {color:#d8dee9} .ColorScheme-Highlight {color:#3b4252}</style><linearGradient id="linearGradient3" inkscape:collect="always">
      <stop style="stop-color:#000000;stop-opacity:1;" offset="0" id="stop3"/>
      <stop style="stop-color:#000000;stop-opacity:0;" offset="1" id="stop4"/>
    </linearGradient>
    <linearGradient inkscape:collect="always" xlink:href="#linearGradient3" id="linearGradient4" x1="13.512321" y1="13.490874" x2="3.3783066" y2="3.3568602" gradientUnits="userSpaceOnUse"/>
  </defs>
  <metadata id="metadata2">
    <rdf:RDF>
      <cc:Work rdf:about="">
        <dc:format>image/svg+xml</dc:format>
        <dc:type rdf:resource="http://purl.org/dc/dcmitype/StillImage"/>
      </cc:Work>
    </rdf:RDF>
  </metadata>
  <ellipse style="opacity:1;fill:none;stroke:#000000;stroke-width:0.582072;stroke-dasharray:none;stroke-opacity:1;filter:url(#filter3)" id="path1-5" cx="8.4450111" cy="8.423522" rx="6.8752708" ry="6.8578653"/>
  <ellipse style="opacity:1;fill:none;stroke-width:0.58207188;stroke-opacity:1;stroke:currentColor;stroke-dasharray:none;fill-opacity:1" id="path1" cx="8.4450111" cy="8.423522" rx="6.8752708" ry="6.8578653" class="ColorScheme-Text"/>
  <ellipse style="fill:currentColor;stroke:none;stroke-width:0.285844;stroke-dasharray:none;stroke-opacity:1" id="path1-2" cx="8.4557552" cy="8.423522" rx="6.5738997" ry="6.5692253" class="ColorScheme-Highlight"/>
<path id="path1-6-2" style="fill:#000000;stroke-width:0.0294868;opacity:0.3" d="m 8.474333,5.1765554 c -1.8896711,0 -1.8708702,-0.00121 -2.0397195,0.1564386 C 6.2752831,5.4817596 6.2821861,5.350705 6.2821861,8.2210926 v 2.6634684 l 0.066686,0.129864 c 0.075675,0.148099 0.1765857,0.232294 0.3203986,0.266248 0.1393411,0.03289 3.4942873,0.03379 3.6356953,9.9e-4 0.159133,-0.03691 0.255788,-0.114311 0.333937,-0.267249 l 0.06669,-0.129865 V 8.2361146 c 0,-2.8501142 0.0047,-2.7594907 -0.151926,-2.9036423 -0.16731,-0.1540208 -0.191332,-0.155927 -2.0793344,-0.155927 z M 8.228644,6.5920248 H 8.4938879 8.7591316 V 7.7567906 8.9215568 H 8.4938879 8.228644 V 7.7567906 Z m 0.2837961,2.8309383 c 0.1432436,0 0.2469211,0.1085278 0.2456887,0.25672 C 8.7571028,9.8019245 8.7203558,9.8665684 8.621245,9.9193549 8.5121636,9.9774516 8.4070604,9.9593836 8.314886,9.8672092 8.2185508,9.770875 8.2052699,9.6713865 8.2717651,9.5427993 8.3214005,9.4468162 8.3696079,9.4229634 8.5124401,9.4229631 Z M 6.8427575,11.899909 v 0.54553 0.545528 h 1.6511304 1.6511301 v -0.545528 -0.54553 H 8.4938879 Z"/>
  <path id="path1-6" style="fill:currentColor;stroke-width:0.0294868" d="m 8.474333,4.6473992 c -1.8896711,0 -1.8708702,-0.00121 -2.0397195,0.1564386 -0.1593304,0.1487656 -0.1524274,0.017711 -0.1524274,2.8880986 v 2.6634686 l 0.066686,0.129864 c 0.075675,0.148099 0.1765857,0.232294 0.3203986,0.266248 0.1393411,0.03289 3.4942873,0.03379 3.6356953,9.9e-4 0.159133,-0.03691 0.255788,-0.114311 0.333937,-0.267249 l 0.06669,-0.129865 V 7.7069584 c 0,-2.8501142 0.0047,-2.7594907 -0.151926,-2.9036423 -0.16731,-0.1540208 -0.191332,-0.155927 -2.0793344,-0.155927 z M 8.228644,6.0628686 H 8.4938879 8.7591316 V 7.2276344 8.3924006 H 8.4938879 8.228644 V 7.2276344 Z m 0.2837961,2.8309383 c 0.1432436,0 0.2469211,0.1085278 0.2456887,0.25672 C 8.7571028,9.2727683 8.7203558,9.3374122 8.621245,9.3901987 8.5121636,9.4482954 8.4070604,9.4302274 8.314886,9.338053 8.2185508,9.2417188 8.2052699,9.1422303 8.2717651,9.0136431 8.3214005,8.91766 8.3696079,8.8938072 8.5124401,8.8938069 Z M 6.8427575,11.370753 v 0.54553 0.545528 h 1.6511304 1.6511301 v -0.545528 -0.54553 H 8.4938879 Z" class="ColorScheme-Text"/>
<path id="gradient-path1" style="opacity:0.3;baseline-shift:baseline;display:inline;overflow:visible;vector-effect:none;enable-background:accumulate;stop-color:#000000;stop-opacity:1;fill:url(#linearGradient4)" d="M 8.4453131 1.2753492 C 4.4913166 1.2753492 1.2794833 4.4784283 1.2794833 8.4236094 C 1.2794833 12.36879 4.4913166 15.572386 8.4453131 15.572386 C 12.39931 15.572386 15.611143 12.36879 15.611143 8.4236094 C 15.611143 4.4784283 12.39931 1.2753492 8.4453131 1.2753492 z "/>
</svg>
