<?xml version='1.0' encoding='UTF-8'?>
<svg xmlns:inkscape="http://www.inkscape.org/namespaces/inkscape" xmlns:sodipodi="http://sodipodi.sourceforge.net/DTD/sodipodi-0.dtd" xmlns:xlink="http://www.w3.org/1999/xlink" xmlns="http://www.w3.org/2000/svg" xmlns:svg="http://www.w3.org/2000/svg" xmlns:rdf="http://www.w3.org/1999/02/22-rdf-syntax-ns#" xmlns:cc="http://creativecommons.org/ns#" xmlns:dc="http://purl.org/dc/elements/1.1/" width="64" height="64" version="1.1" viewBox="0 0 16.933 16.933" id="svg7" sodipodi:docname="applications-system.svg" inkscape:version="1.4 (e7c3feb100, 2024-10-09)">
  <sodipodi:namedview id="namedview7" pagecolor="#9c4444" bordercolor="#000000" borderopacity="0.25" inkscape:showpageshadow="2" inkscape:pageopacity="0.0" inkscape:pagecheckerboard="0" inkscape:deskcolor="#d1d1d1" inkscape:zoom="4.3531261" inkscape:cx="36.984915" inkscape:cy="25.958357" inkscape:window-width="1280" inkscape:window-height="669" inkscape:window-x="180" inkscape:window-y="166" inkscape:window-maximized="0" inkscape:current-layer="svg7" showgrid="false"/>
  <defs id="defs2">
    <filter style="color-interpolation-filters:sRGB;" inkscape:label="Blur" id="filter3" x="-0.10843471" y="-0.10870992" width="1.2168694" height="1.2174198">
      <feGaussianBlur stdDeviation="0.5 0.5" result="blur" id="feGaussianBlur3"/>
    </filter>
    <style id="current-color-scheme" type="text/css">.ColorScheme-Text {color:#d8dee9} .ColorScheme-Highlight {color:#3b4252}</style><linearGradient id="linearGradient3" inkscape:collect="always">
      <stop style="stop-color:#000000;stop-opacity:1;" offset="0" id="stop3"/>
      <stop style="stop-color:#000000;stop-opacity:0;" offset="1" id="stop4"/>
    </linearGradient>
    <linearGradient inkscape:collect="always" xlink:href="#linearGradient3" id="linearGradient4" x1="13.512321" y1="13.490874" x2="3.3783066" y2="3.3568602" gradientUnits="userSpaceOnUse"/>
  </defs>
  <metadata id="metadata2">
    <rdf:RDF>
      <cc:Work rdf:about="">
        <dc:format>image/svg+xml</dc:format>
        <dc:type rdf:resource="http://purl.org/dc/dcmitype/StillImage"/>
      </cc:Work>
    </rdf:RDF>
  </metadata>
  <ellipse style="opacity:1;fill:none;stroke:#000000;stroke-width:0.582072;stroke-dasharray:none;stroke-opacity:1;filter:url(#filter3)" id="path1-5" cx="8.4450111" cy="8.423522" rx="6.8752708" ry="6.8578653"/>
  <ellipse style="opacity:1;fill:none;stroke-width:0.58207188;stroke-opacity:1;stroke:currentColor;stroke-dasharray:none;fill-opacity:1" id="path1" cx="8.4450111" cy="8.423522" rx="6.8752708" ry="6.8578653" class="ColorScheme-Text"/>
  <ellipse style="fill:currentColor;stroke:none;stroke-width:0.285844;stroke-dasharray:none;stroke-opacity:1" id="path1-2" cx="8.4557552" cy="8.423522" rx="6.5738997" ry="6.5692253" class="ColorScheme-Highlight"/>
<path id="path51393-8" style="fill:#000000;fill-opacity:1;stroke:none;stroke-width:0.233382;stroke-dasharray:none;stroke-opacity:1;opacity:0.3" d="m 10.454235,6.9084908 c -0.8768052,-0.00147 -1.4054164,0.4916657 -1.6186297,1.509688 -0.1108021,0.5290486 -0.1095014,1.46826 0.00274,1.8848312 0.1588342,0.589524 0.4971386,0.968083 0.9430991,1.056143 0.3629196,0.07167 0.8068196,-0.06731 1.0310736,-0.322723 0.28202,-0.321202 0.417463,-0.885997 0.340043,-1.4171558 C 11.100213,9.260102 10.981194,9.0140557 10.761009,8.811099 10.573726,8.6384675 10.402917,8.5781979 10.104623,8.5790844 9.8286328,8.5799142 9.635291,8.675597 9.4254452,8.9154824 L 9.2508645,9.1146772 V 8.9423759 c 0,-0.2582363 0.097592,-0.7179243 0.1982834,-0.9339824 C 9.5604757,7.7695125 9.7394154,7.5867458 9.9560251,7.4901219 10.153155,7.4021874 10.58381,7.3657901 10.78152,7.42038 l 0.139482,0.038289 V 7.206144 c 0,-0.2979828 0.0013,-0.2968593 -0.466763,-0.2976529 z m -3.4761112,0.00365 c -0.031107,1.532e-4 -0.063022,0.00114 -0.095722,0.00274 C 6.6077825,6.9281765 6.5275824,6.9479126 6.3376917,7.0498034 6.2152319,7.1155097 6.0495016,7.2251694 5.9689302,7.2932109 L 5.8221551,7.4167398 5.9447712,7.6077302 C 6.0121632,7.7127496 6.0783709,7.79872 6.0920027,7.79872 c 0.013632,0 0.086115,-0.050486 0.1609057,-0.1121324 0.2138391,-0.1762647 0.427802,-0.257542 0.6823681,-0.2584521 0.4130938,-0.00148 0.6145763,0.2275601 0.6130828,0.6969545 -0.00168,0.5351726 -0.1002408,0.696802 -1.3364749,2.19707 l -0.4120645,0.500494 v 0.250703 0.250702 h 1.206109 1.2061094 V 11.045554 10.767499 H 7.3181682 c -0.5168287,0 -0.888716,-0.01434 -0.8815628,-0.03374 0.0068,-0.01844 0.2296947,-0.28754 0.4950246,-0.598037 C 7.918511,8.9808507 8.0871503,8.6559246 8.0566028,7.9696539 8.0438653,7.6835297 8.02532,7.6013441 7.9339858,7.4340613 7.7351006,7.0697944 7.4447286,6.9098395 6.9781238,6.912143 Z M 4.25321,8.0225263 c -0.057939,-4.925e-4 -0.1197776,0.02907 -0.180506,0.089797 l -0.091165,0.091165 v 0.9244105 c 0,0.8790072 0.00345,0.9289812 0.076578,1.0219572 0.1183721,0.150485 0.2955492,0.126148 0.388362,-0.05333 0.079139,-0.1530406 0.079139,-1.7709923 0,-1.9240322 C 4.3953899,8.0736965 4.327704,8.0231472 4.25321,8.0225263 Z m 8.497921,0 c -0.05793,-4.925e-4 -0.119776,0.029068 -0.180508,0.089797 l -0.09116,0.091165 v 0.9244105 c 0,0.8790102 0.0039,0.9289812 0.07704,1.0219572 0.118374,0.150486 0.295547,0.126148 0.388361,-0.05333 0.07914,-0.1530411 0.07914,-1.7709915 0,-1.9240321 -0.05109,-0.098795 -0.119239,-0.1493445 -0.193734,-0.1499658 z m -2.732208,1.0379108 c 0.269649,0 0.429842,0.092649 0.546078,0.3154299 0.06542,0.1254007 0.07749,0.2147221 0.07749,0.5752492 0,0.3981928 -0.0068,0.4382638 -0.101649,0.5994088 -0.07051,0.119932 -0.150512,0.196231 -0.262092,0.250247 -0.18296,0.08857 -0.3650555,0.09747 -0.5269338,0.02553 C 9.3418688,10.644096 9.125517,9.8435409 9.3725656,9.4232709 9.5161661,9.1789825 9.7274136,9.0604352 10.018923,9.0604352 Z"/>
  <path id="path51393" style="fill:currentColor;fill-opacity:1;stroke:none;stroke-width:0.233382;stroke-dasharray:none;stroke-opacity:1" d="m 10.454235,6.3793346 c -0.8768052,-0.00147 -1.4054164,0.4916657 -1.6186297,1.509688 -0.1108021,0.5290486 -0.1095014,1.46826 0.00274,1.8848307 0.1588342,0.5895247 0.4971386,0.9680837 0.9430991,1.0561437 0.3629196,0.07167 0.8068196,-0.06731 1.0310736,-0.322723 0.28202,-0.321202 0.417463,-0.8859973 0.340043,-1.417156 C 11.100213,8.7309458 10.981194,8.4848995 10.761009,8.2819428 10.573726,8.1093113 10.402917,8.0490417 10.104623,8.0499282 9.8286328,8.050758 9.635291,8.1464408 9.4254452,8.3863262 L 9.2508645,8.585521 V 8.4132197 c 0,-0.2582363 0.097592,-0.7179244 0.1982834,-0.9339824 C 9.5604757,7.2403563 9.7394154,7.0575896 9.9560251,6.9609657 10.153155,6.8730312 10.58381,6.8366339 10.78152,6.8912238 l 0.139482,0.038289 v -0.252525 c 0,-0.2979828 0.0013,-0.2968593 -0.466763,-0.2976529 z m -3.4761112,0.00365 c -0.031107,1.532e-4 -0.063022,0.00114 -0.095722,0.00274 C 6.6077825,6.3990203 6.5275824,6.4187564 6.3376917,6.5206472 6.2152319,6.5863535 6.0495016,6.6960132 5.9689302,6.7640547 L 5.8221551,6.8875836 5.9447712,7.078574 c 0.067392,0.1050194 0.1335997,0.1909898 0.1472315,0.1909898 0.013632,0 0.086115,-0.050486 0.1609057,-0.1121324 0.2138391,-0.1762647 0.427802,-0.257542 0.6823681,-0.2584521 0.4130938,-0.00148 0.6145763,0.2275601 0.6130828,0.6969545 -0.00168,0.5351726 -0.1002408,0.696802 -1.3364749,2.1970703 L 5.7998199,10.293498 v 0.250703 0.250702 h 1.206109 1.2061094 V 10.516398 10.238343 H 7.3181682 c -0.5168287,0 -0.888716,-0.01434 -0.8815628,-0.03374 C 6.4434013,10.186163 6.6663001,9.9170632 6.93163,9.6065658 7.918511,8.4516945 8.0871503,8.1267684 8.0566028,7.4404977 8.0438653,7.1543735 8.02532,7.0721879 7.9339858,6.9049051 7.7351006,6.5406382 7.4447286,6.3806833 6.9781238,6.3829868 Z M 4.25321,7.4933701 c -0.057939,-4.925e-4 -0.1197776,0.02907 -0.180506,0.089797 l -0.091165,0.091165 v 0.9244105 c 0,0.8790075 0.00345,0.9289813 0.076578,1.0219567 0.1183721,0.1504852 0.2955492,0.1261487 0.388362,-0.053331 0.079139,-0.1530401 0.079139,-1.7709918 0,-1.9240317 C 4.3953899,7.5445403 4.327704,7.493991 4.25321,7.4933701 Z m 8.497921,0 c -0.05793,-4.925e-4 -0.119776,0.029068 -0.180508,0.089797 l -0.09116,0.091165 v 0.9244105 c 0,0.8790104 0.0039,0.9289814 0.07704,1.0219568 0.118374,0.1504859 0.295547,0.1261487 0.388361,-0.053331 0.07914,-0.1530407 0.07914,-1.7709911 0,-1.9240317 -0.05109,-0.098795 -0.119239,-0.1493445 -0.193734,-0.1499658 z m -2.732208,1.0379108 c 0.269649,0 0.429842,0.092649 0.546078,0.3154299 0.06542,0.1254007 0.07749,0.2147221 0.07749,0.5752492 0,0.398193 -0.0068,0.4382637 -0.101649,0.599409 -0.07051,0.119932 -0.150512,0.196231 -0.262092,0.250247 -0.18296,0.08857 -0.3650555,0.09747 -0.5269338,0.02553 C 9.3418688,10.11494 9.125517,9.3143847 9.3725656,8.8941147 9.5161661,8.6498263 9.7274136,8.531279 10.018923,8.531279 Z" class="ColorScheme-Text"/>
<path id="gradient-path1" style="opacity:0.3;baseline-shift:baseline;display:inline;overflow:visible;vector-effect:none;enable-background:accumulate;stop-color:#000000;stop-opacity:1;fill:url(#linearGradient4)" d="M 8.4453131 1.2753492 C 4.4913166 1.2753492 1.2794833 4.4784283 1.2794833 8.4236094 C 1.2794833 12.36879 4.4913166 15.572386 8.4453131 15.572386 C 12.39931 15.572386 15.611143 12.36879 15.611143 8.4236094 C 15.611143 4.4784283 12.39931 1.2753492 8.4453131 1.2753492 z "/>
</svg>
