<?xml version='1.0' encoding='UTF-8'?>
<svg xmlns:inkscape="http://www.inkscape.org/namespaces/inkscape" xmlns:sodipodi="http://sodipodi.sourceforge.net/DTD/sodipodi-0.dtd" xmlns:xlink="http://www.w3.org/1999/xlink" xmlns="http://www.w3.org/2000/svg" xmlns:svg="http://www.w3.org/2000/svg" xmlns:rdf="http://www.w3.org/1999/02/22-rdf-syntax-ns#" xmlns:cc="http://creativecommons.org/ns#" xmlns:dc="http://purl.org/dc/elements/1.1/" width="64" height="64" version="1.1" viewBox="0 0 16.933 16.933" id="svg7" sodipodi:docname="Education.svg" inkscape:version="1.4 (e7c3feb100, 2024-10-09)">
  <sodipodi:namedview id="namedview7" pagecolor="#9c4444" bordercolor="#000000" borderopacity="0.25" inkscape:showpageshadow="2" inkscape:pageopacity="0.0" inkscape:pagecheckerboard="0" inkscape:deskcolor="#d1d1d1" inkscape:zoom="4.3531261" inkscape:cx="36.755195" inkscape:cy="25.958357" inkscape:window-width="1280" inkscape:window-height="669" inkscape:window-x="366" inkscape:window-y="88" inkscape:window-maximized="0" inkscape:current-layer="svg7" showgrid="false"/>
  <defs id="defs2">
    <filter style="color-interpolation-filters:sRGB;" inkscape:label="Blur" id="filter3" x="-0.10843471" y="-0.10870992" width="1.2168694" height="1.2174198">
      <feGaussianBlur stdDeviation="0.5 0.5" result="blur" id="feGaussianBlur3"/>
    </filter>
    <style id="current-color-scheme" type="text/css">.ColorScheme-Text {color:#d8dee9} .ColorScheme-Highlight {color:#3b4252}</style><linearGradient id="linearGradient3" inkscape:collect="always">
      <stop style="stop-color:#000000;stop-opacity:1;" offset="0" id="stop3"/>
      <stop style="stop-color:#000000;stop-opacity:0;" offset="1" id="stop4"/>
    </linearGradient>
    <linearGradient inkscape:collect="always" xlink:href="#linearGradient3" id="linearGradient4" x1="13.512321" y1="13.490874" x2="3.3783066" y2="3.3568602" gradientUnits="userSpaceOnUse"/>
  </defs>
  <metadata id="metadata2">
    <rdf:RDF>
      <cc:Work rdf:about="">
        <dc:format>image/svg+xml</dc:format>
        <dc:type rdf:resource="http://purl.org/dc/dcmitype/StillImage"/>
      </cc:Work>
    </rdf:RDF>
  </metadata>
  <ellipse style="opacity:1;fill:none;stroke:#000000;stroke-width:0.582072;stroke-dasharray:none;stroke-opacity:1;filter:url(#filter3)" id="path1-5" cx="8.4450111" cy="8.423522" rx="6.8752708" ry="6.8578653"/>
  <ellipse style="opacity:1;fill:none;stroke-width:0.58207188;stroke-opacity:1;stroke:currentColor;stroke-dasharray:none;fill-opacity:1" id="path1" cx="8.4450111" cy="8.423522" rx="6.8752708" ry="6.8578653" class="ColorScheme-Text"/>
  <ellipse style="fill:currentColor;stroke:none;stroke-width:0.285844;stroke-dasharray:none;stroke-opacity:1" id="path1-2" cx="8.4557552" cy="8.423522" rx="6.5738997" ry="6.5692253" class="ColorScheme-Highlight"/>
<path style="fill:#000000;stroke:none;stroke-width:0.232173;opacity:0.3" d="M 9.640911,5.5160298 8.8050909,6.3286346 10.337432,7.837759 8.8050909,9.3468838 9.640911,10.159487 11.962643,7.837759 Z M 6.6226659,5.7482033 A 0.46434575,0.46434575 0 0 0 6.1583205,6.2125481 0.46434575,0.46434575 0 0 0 6.6226659,6.6768943 0.46434575,0.46434575 0 0 0 7.0870123,6.2125481 0.46434575,0.46434575 0 0 0 6.6226659,5.7482033 Z M 5.5778884,8.3021051 A 0.58043218,0.58043217 0 0 0 4.9974559,8.8825393 0.58043218,0.58043217 0 0 0 5.5778884,9.4629702 0.58043218,0.58043217 0 0 0 6.1583205,8.8825393 0.58043218,0.58043217 0 0 0 5.5778884,8.3021051 Z M 7.78353,10.623837 A 0.92869137,0.92869137 0 0 0 6.854839,11.552527 0.92869137,0.92869137 0 0 0 7.78353,12.481219 0.92869137,0.92869137 0 0 0 8.7122216,11.552527 0.92869137,0.92869137 0 0 0 7.78353,10.623837 Z" class="ColorScheme-Text" id="path5-4-7"/>
  <path style="fill:currentColor;stroke:none;stroke-width:0.232173" d="M 9.640911,4.9868736 8.8050909,5.7994784 10.337432,7.3086028 8.8050909,8.8177276 9.640911,9.6303306 11.962643,7.3086028 Z M 6.6226659,5.2190471 A 0.46434575,0.46434575 0 0 0 6.1583205,5.6833919 0.46434575,0.46434575 0 0 0 6.6226659,6.1477381 0.46434575,0.46434575 0 0 0 7.0870123,5.6833919 0.46434575,0.46434575 0 0 0 6.6226659,5.2190471 Z M 5.5778884,7.7729489 A 0.58043218,0.58043217 0 0 0 4.9974559,8.3533831 0.58043218,0.58043217 0 0 0 5.5778884,8.933814 0.58043218,0.58043217 0 0 0 6.1583205,8.3533831 0.58043218,0.58043217 0 0 0 5.5778884,7.7729489 Z M 7.78353,10.094681 A 0.92869137,0.92869137 0 0 0 6.854839,11.023371 0.92869137,0.92869137 0 0 0 7.78353,11.952063 0.92869137,0.92869137 0 0 0 8.7122216,11.023371 0.92869137,0.92869137 0 0 0 7.78353,10.094681 Z" class="ColorScheme-Text" id="path5-4"/>
<path id="gradient-path1" style="opacity:0.3;baseline-shift:baseline;display:inline;overflow:visible;vector-effect:none;enable-background:accumulate;stop-color:#000000;stop-opacity:1;fill:url(#linearGradient4)" d="M 8.4453131 1.2753492 C 4.4913166 1.2753492 1.2794833 4.4784283 1.2794833 8.4236094 C 1.2794833 12.36879 4.4913166 15.572386 8.4453131 15.572386 C 12.39931 15.572386 15.611143 12.36879 15.611143 8.4236094 C 15.611143 4.4784283 12.39931 1.2753492 8.4453131 1.2753492 z "/>
</svg>
