<?xml version="1.0" encoding="UTF-8" standalone="no"?>
<svg
   width="64"
   height="64"
   version="1.1"
   viewBox="0 0 16.933 16.933"
   id="svg7"
   sodipodi:docname="preferences-system-network-vpn.svg"
   inkscape:version="1.4.2 (ebf0e940d0, 2025-05-08)"
   xmlns:inkscape="http://www.inkscape.org/namespaces/inkscape"
   xmlns:sodipodi="http://sodipodi.sourceforge.net/DTD/sodipodi-0.dtd"
   xmlns:xlink="http://www.w3.org/1999/xlink"
   xmlns="http://www.w3.org/2000/svg"
   xmlns:svg="http://www.w3.org/2000/svg"
   xmlns:rdf="http://www.w3.org/1999/02/22-rdf-syntax-ns#"
   xmlns:cc="http://creativecommons.org/ns#"
   xmlns:dc="http://purl.org/dc/elements/1.1/">
  <sodipodi:namedview
     id="namedview7"
     pagecolor="#9c4444"
     bordercolor="#000000"
     borderopacity="0.25"
     inkscape:showpageshadow="2"
     inkscape:pageopacity="0.0"
     inkscape:pagecheckerboard="0"
     inkscape:deskcolor="#d1d1d1"
     inkscape:zoom="4.3531261"
     inkscape:cx="36.755195"
     inkscape:cy="26.188077"
     inkscape:window-width="1543"
     inkscape:window-height="1372"
     inkscape:window-x="0"
     inkscape:window-y="0"
     inkscape:window-maximized="0"
     inkscape:current-layer="svg7"
     showgrid="false" />
  <defs
     id="defs2">
    <filter
       style="color-interpolation-filters:sRGB;"
       inkscape:label="Blur"
       id="filter3"
       x="-0.10843471"
       y="-0.10870992"
       width="1.2168694"
       height="1.2174198">
      <feGaussianBlur
         stdDeviation="0.5 0.5"
         result="blur"
         id="feGaussianBlur3" />
    </filter>
    <style
       id="current-color-scheme"
       type="text/css">.ColorScheme-Text {color:#d8dee9} .ColorScheme-Highlight {color:#3b4252}</style>
    <linearGradient
       id="linearGradient3"
       inkscape:collect="always">
      <stop
         style="stop-color:#000000;stop-opacity:1;"
         offset="0"
         id="stop3" />
      <stop
         style="stop-color:#000000;stop-opacity:0;"
         offset="1"
         id="stop4" />
    </linearGradient>
    <linearGradient
       inkscape:collect="always"
       xlink:href="#linearGradient3"
       id="linearGradient4"
       x1="13.512321"
       y1="13.490874"
       x2="3.3783066"
       y2="3.3568602"
       gradientUnits="userSpaceOnUse" />
  </defs>
  <metadata
     id="metadata2">
    <rdf:RDF>
      <cc:Work
         rdf:about="">
        <dc:format>image/svg+xml</dc:format>
        <dc:type
           rdf:resource="http://purl.org/dc/dcmitype/StillImage" />
      </cc:Work>
    </rdf:RDF>
    <itype>type-a</itype>
  </metadata>
  <ellipse
     style="opacity:1;fill:none;stroke:#000000;stroke-width:0.582072;stroke-dasharray:none;stroke-opacity:1;filter:url(#filter3)"
     id="path1-5"
     cx="8.4450111"
     cy="8.423522"
     rx="6.8752708"
     ry="6.8578653" />
  <ellipse
     style="opacity:1;fill:none;stroke-width:0.58207188;stroke-opacity:1;stroke:currentColor;stroke-dasharray:none;fill-opacity:1"
     id="path1"
     cx="8.4450111"
     cy="8.423522"
     rx="6.8752708"
     ry="6.8578653"
     class="ColorScheme-Text" />
  <ellipse
     style="fill:currentColor;stroke:none;stroke-width:0.285844;stroke-dasharray:none;stroke-opacity:1"
     id="path1-2"
     cx="8.4557552"
     cy="8.423522"
     rx="6.5738997"
     ry="6.5692253"
     class="ColorScheme-Highlight" />
  <path
     id="rect6"
     style="baseline-shift:baseline;display:inline;overflow:visible;opacity:0.3;vector-effect:none;fill:#000000;fill-opacity:1;stroke-width:0.261156;enable-background:accumulate;stop-color:#000000"
     d="m 8.4665,5.2087495 c -2.095615,0 -3.786775,1.69116 -3.786775,3.786774 0,2.0956145 1.69116,3.7867745 3.786775,3.7867745 2.095615,0 3.786775,-1.69116 3.786775,-3.7867745 0,-2.095614 -1.69116,-3.786774 -3.786775,-3.786774 z m 0.261156,0.270338 c 0.938585,0.06787 1.772249,0.499 2.362144,1.154293 l -0.01172,0.01173 v 0.261157 h 0.233608 c 0.04088,0.05573 0.08022,0.112693 0.117828,0.170875 l -0.09029,0.09028 -0.522314,0.522313 -0.261157,0.261158 -0.168834,0.505992 v 5.1e-4 5.1e-4 c -0.02142,0.120917 -0.05126,0.257199 -0.09232,0.402933 v 0.134659 l 0.261156,0.261156 0.261157,0.261157 0.522314,0.261157 0.596274,-0.146901 C 11.649536,11.217577 10.313066,12.42513 8.66543,12.515503 L 8.72766,12.390537 V 12.129379 L 9.249973,11.868222 9.51113,11.607065 V 11.084751 L 9.772288,10.823595 V 10.562438 L 9.51113,10.301282 9.4994,10.297282 C 9.247413,10.558783 8.928226,10.79137 8.523633,10.960376 l -0.05713,0.02397 -0.05713,-0.02397 C 7.422737,10.548384 6.943203,9.7591835 6.710323,9.0899425 L 6.377247,9.2567355 H 5.854928 V 8.7344325 H 5.593772 V 8.2121195 H 5.332614 l -0.261157,0.261156 h -0.09283 c 0.04248,-0.289317 0.119767,-0.566841 0.227492,-0.828357 l 0.648812,-0.216271 0.261157,0.261157 0.261157,0.261158 V 7.4286135 L 6.899558,7.1674565 V 6.9062995 L 7.421876,6.6451425 7.94419,6.1228295 v 0.261157 L 8.205347,6.1228295 7.94419,5.8616725 h 0.522314 v 0.261157 L 8.988817,5.8616725 8.72766,5.6005155 Z M 8.4665,7.1674255 c 0,0 -0.457025,0.606733 -1.828098,0.758987 0,0 0,2.1338485 1.828098,2.8972085 1.828098,-0.763622 1.828098,-2.8972085 1.828098,-2.8972085 C 8.923525,7.7741585 8.4665,7.1674255 8.4665,7.1674255 Z m 0,0.314714 c 0.362485,0.307382 0.886166,0.51224 1.564391,0.615658 -0.03656,0.330101 -0.07248,0.578401 -0.157612,0.818665 C 9.693602,9.4212795 9.484656,9.7286805 9.297407,9.9493585 9.006217,10.291735 8.742281,10.429675 8.4665,10.567565 8.190718,10.429937 7.926782,10.291735 7.635592,9.9493585 7.448343,9.7286805 7.239397,9.4212795 7.059721,8.9164625 6.974581,8.6761985 6.938932,8.4281605 6.902109,8.0977975 7.580594,7.9943795 8.104013,7.7895215 8.4665,7.4821395 Z m 0,0.273909 C 8.067975,8.0328745 7.620107,8.1730995 7.170916,8.2681615 7.383759,9.4752285 7.842335,9.9912575 8.4665,10.31457 9.090665,9.9912575 9.549239,9.4752285 9.762083,8.2681615 9.312893,8.1730915 8.865025,8.0328745 8.4665,7.7560485 Z m -3.520517,1.046158 0.386634,0.193317 0.261158,0.261157 0.522313,0.261156 0.261157,0.261157 -0.261157,0.2611585 v 0.522312 l 0.261157,0.522314 0.522313,0.522314 V 12.15797 C 5.736137,11.583691 4.940882,10.387164 4.940882,8.9955235 c 0,-0.06484 0.0017,-0.129369 0.0051,-0.193317 z" />
  <path
     id="rect6-1"
     class="ColorScheme-Text"
     style="baseline-shift:baseline;display:inline;overflow:visible;vector-effect:none;fill:currentColor;stroke-width:0.261156;enable-background:accumulate;stop-color:#000000"
     d="m 8.4665,4.6797255 c -2.095615,0 -3.786775,1.69116 -3.786775,3.786774 0,2.0956145 1.69116,3.7867745 3.786775,3.7867745 2.095615,0 3.786775,-1.69116 3.786775,-3.7867745 0,-2.095614 -1.69116,-3.786774 -3.786775,-3.786774 z m 0.261156,0.270338 c 0.938585,0.06787 1.772249,0.499 2.362144,1.154293 l -0.01172,0.01173 v 0.261157 h 0.233608 c 0.04088,0.05573 0.08022,0.112693 0.117828,0.170875 l -0.09029,0.09028 -0.522314,0.522313 -0.261157,0.261158 -0.168834,0.505992 v 5.1e-4 5.1e-4 c -0.02142,0.120917 -0.05126,0.257199 -0.09232,0.402933 v 0.134659 l 0.261156,0.261156 0.261157,0.261157 0.522314,0.261157 0.596274,-0.146901 C 11.649536,10.688553 10.313066,11.896106 8.66543,11.986479 L 8.72766,11.861513 V 11.600355 L 9.249973,11.339198 9.51113,11.078041 V 10.555727 L 9.772288,10.294571 V 10.033414 L 9.51113,9.7722575 9.4994,9.7682575 C 9.247413,10.029759 8.928226,10.262346 8.523633,10.431352 l -0.05713,0.02397 -0.05713,-0.02397 C 7.422737,10.01936 6.943203,9.2301595 6.710323,8.5609185 L 6.377247,8.7277115 H 5.854928 V 8.2054085 H 5.593772 V 7.6830955 H 5.332614 l -0.261157,0.261156 h -0.09283 c 0.04248,-0.289317 0.119767,-0.566841 0.227492,-0.828357 l 0.648812,-0.216271 0.261157,0.261157 0.261157,0.261158 V 6.8995895 L 6.899558,6.6384325 V 6.3772755 L 7.421876,6.1161185 7.94419,5.5938055 v 0.261157 L 8.205347,5.5938055 7.94419,5.3326485 h 0.522314 v 0.261157 L 8.988817,5.3326485 8.72766,5.0714915 Z M 8.4665,6.6384015 c 0,0 -0.457025,0.606733 -1.828098,0.758987 0,0 0,2.133848 1.828098,2.8972085 C 10.294598,9.5309745 10.294598,7.3973885 10.294598,7.3973885 8.923525,7.2451345 8.4665,6.6384015 8.4665,6.6384015 Z m 0,0.314714 c 0.362485,0.307382 0.886166,0.51224 1.564391,0.615658 -0.03656,0.330101 -0.07248,0.578401 -0.157612,0.818665 C 9.693602,8.8922555 9.484656,9.1996565 9.297407,9.4203345 9.006217,9.7627105 8.742281,9.9006505 8.4665,10.038541 8.190718,9.9009125 7.926782,9.7627105 7.635592,9.4203345 7.448343,9.1996565 7.239397,8.8922555 7.059721,8.3874385 6.974581,8.1471745 6.938932,7.8991365 6.902109,7.5687735 7.580594,7.4653555 8.104013,7.2604975 8.4665,6.9531155 Z m 0,0.273909 C 8.067975,7.5038505 7.620107,7.6440755 7.170916,7.7391375 7.383759,8.9462045 7.842335,9.4622335 8.4665,9.7855455 9.090665,9.4622335 9.549239,8.9462045 9.762083,7.7391375 9.312893,7.6440675 8.865025,7.5038505 8.4665,7.2270245 Z m -3.520517,1.046158 0.386634,0.193317 0.261158,0.261157 0.522313,0.261156 0.261157,0.261157 -0.261157,0.261158 V 10.03344 l 0.261157,0.522314 0.522313,0.522314 v 0.550878 C 5.736137,11.054667 4.940882,9.8581395 4.940882,8.4664995 c 0,-0.06484 0.0017,-0.129369 0.0051,-0.193317 z" />
  <path
     id="gradient-path1"
     style="opacity:0.3;baseline-shift:baseline;display:inline;overflow:visible;vector-effect:none;enable-background:accumulate;stop-color:#000000;stop-opacity:1;fill:url(#linearGradient4)"
     d="M 8.4453131 1.2753492 C 4.4913166 1.2753492 1.2794833 4.4784283 1.2794833 8.4236094 C 1.2794833 12.36879 4.4913166 15.572386 8.4453131 15.572386 C 12.39931 15.572386 15.611143 12.36879 15.611143 8.4236094 C 15.611143 4.4784283 12.39931 1.2753492 8.4453131 1.2753492 z " />
</svg>
