<?xml version="1.0" encoding="UTF-8" standalone="no"?>
<svg
   width="64"
   height="64"
   version="1.1"
   viewBox="0 0 16.933 16.933"
   id="svg7"
   sodipodi:docname="preferences-web-browser-stylesheets.svg"
   inkscape:version="1.4.2 (ebf0e940d0, 2025-05-08)"
   xmlns:inkscape="http://www.inkscape.org/namespaces/inkscape"
   xmlns:sodipodi="http://sodipodi.sourceforge.net/DTD/sodipodi-0.dtd"
   xmlns:xlink="http://www.w3.org/1999/xlink"
   xmlns="http://www.w3.org/2000/svg"
   xmlns:svg="http://www.w3.org/2000/svg"
   xmlns:rdf="http://www.w3.org/1999/02/22-rdf-syntax-ns#"
   xmlns:cc="http://creativecommons.org/ns#"
   xmlns:dc="http://purl.org/dc/elements/1.1/">
  <sodipodi:namedview
     id="namedview7"
     pagecolor="#9c4444"
     bordercolor="#000000"
     borderopacity="0.25"
     inkscape:showpageshadow="2"
     inkscape:pageopacity="0.0"
     inkscape:pagecheckerboard="0"
     inkscape:deskcolor="#d1d1d1"
     inkscape:zoom="4.3531261"
     inkscape:cx="36.755195"
     inkscape:cy="26.188077"
     inkscape:window-width="1543"
     inkscape:window-height="1372"
     inkscape:window-x="0"
     inkscape:window-y="0"
     inkscape:window-maximized="0"
     inkscape:current-layer="svg7"
     showgrid="false" />
  <defs
     id="defs2">
    <filter
       style="color-interpolation-filters:sRGB;"
       inkscape:label="Blur"
       id="filter3"
       x="-0.10843471"
       y="-0.10870992"
       width="1.2168694"
       height="1.2174198">
      <feGaussianBlur
         stdDeviation="0.5 0.5"
         result="blur"
         id="feGaussianBlur3" />
    </filter>
    <style
       id="current-color-scheme"
       type="text/css">.ColorScheme-Text {color:#d8dee9} .ColorScheme-Highlight {color:#3b4252}</style>
    <linearGradient
       id="linearGradient3"
       inkscape:collect="always">
      <stop
         style="stop-color:#000000;stop-opacity:1;"
         offset="0"
         id="stop3" />
      <stop
         style="stop-color:#000000;stop-opacity:0;"
         offset="1"
         id="stop4" />
    </linearGradient>
    <linearGradient
       inkscape:collect="always"
       xlink:href="#linearGradient3"
       id="linearGradient4"
       x1="13.512321"
       y1="13.490874"
       x2="3.3783066"
       y2="3.3568602"
       gradientUnits="userSpaceOnUse" />
  </defs>
  <metadata
     id="metadata2">
    <rdf:RDF>
      <cc:Work
         rdf:about="">
        <dc:format>image/svg+xml</dc:format>
        <dc:type
           rdf:resource="http://purl.org/dc/dcmitype/StillImage" />
      </cc:Work>
    </rdf:RDF>
    <itype>type-a</itype>
  </metadata>
  <ellipse
     style="opacity:1;fill:none;stroke:#000000;stroke-width:0.582072;stroke-dasharray:none;stroke-opacity:1;filter:url(#filter3)"
     id="path1-5"
     cx="8.4450111"
     cy="8.423522"
     rx="6.8752708"
     ry="6.8578653" />
  <ellipse
     style="opacity:1;fill:none;stroke-width:0.58207188;stroke-opacity:1;stroke:currentColor;stroke-dasharray:none;fill-opacity:1"
     id="path1"
     cx="8.4450111"
     cy="8.423522"
     rx="6.8752708"
     ry="6.8578653"
     class="ColorScheme-Text" />
  <ellipse
     style="fill:currentColor;stroke:none;stroke-width:0.285844;stroke-dasharray:none;stroke-opacity:1"
     id="path1-2"
     cx="8.4557552"
     cy="8.423522"
     rx="6.5738997"
     ry="6.5692253"
     class="ColorScheme-Highlight" />
  <path
     id="rect6"
     style="baseline-shift:baseline;display:inline;overflow:visible;opacity:0.3;vector-effect:none;fill:#000000;fill-opacity:1;stroke-width:0.261157;enable-background:accumulate;stop-color:#000000"
     d="m 8.4665,5.2090141 c -2.095615,0 -3.786775,1.6911601 -3.786775,3.7867743 0,2.0956146 1.691161,3.7867746 3.786775,3.7867746 2.095614,0 3.786775,-1.69116 3.786775,-3.7867746 0,-2.0956142 -1.691161,-3.7867743 -3.786775,-3.7867743 z m 0.261157,0.2703376 c 0.938627,0.0679 1.772262,0.4989217 2.362143,1.1542935 v 5.089e-4 l -0.01173,0.011734 v 0.261157 h 0.233613 c 0.04084,0.05569 0.08025,0.11222 0.117828,0.1703643 l -0.09029,0.090287 -0.522313,0.5223135 -0.261157,0.261157 -0.261157,0.78347 v 0.261157 l 0.261157,0.2611575 0.261157,0.261157 0.522313,0.2611568 0.596275,-0.1469008 C 11.649493,11.217632 10.312779,12.425222 8.665427,12.515802 l 0.06172,-0.124458 V 12.130188 L 9.249462,11.86903 9.510619,11.607873 V 11.08556 L 9.771776,10.824403 V 10.563246 L 9.51623,10.3077 C 9.4736,10.765413 9.209034,10.971814 8.711847,10.971814 H 8.563926 v -0.604946 h 0.147921 c 0.0674,0 0.107706,-0.0086 0.122416,-0.0148 0.0074,-0.0032 0.0091,-0.0051 0.01071,-0.0066 0.0016,-0.0016 0.0037,-0.0039 0.0077,-0.01224 0.0077,-0.01667 0.01847,-0.05895 0.02346,-0.125987 0.0025,-0.03284 0.0038,-0.07142 0.0046,-0.115276 L 8.727201,10.040944 8.466044,9.7797873 8.204888,9.5186305 H 8.043194 c 0.006,0.055246 0.0082,0.1073508 0.0082,0.1535316 v 0.265239 c 0,0.1128509 4.18e-4,0.2035389 0.0051,0.2708489 0.0046,0.06731 0.01493,0.109909 0.02245,0.126498 0.0037,0.0083 0.0063,0.01042 0.0077,0.01172 3.4e-4,3.39e-4 6.13e-4,6.63e-4 9.7e-4,9.7e-4 0.0013,9.69e-4 0.0037,0.0027 0.0082,0.0047 0.01399,0.006 0.054,0.01479 0.121396,0.01479 h 0.147922 v 0.604941 H 8.21721 c -0.545545,0 -0.806423,-0.248514 -0.806423,-0.803364 V 9.7919959 c 0,-0.086359 -9.19e-4,-0.1736571 -0.0082,-0.249935 -0.0072,-0.07628 -0.02197,-0.1412079 -0.03928,-0.178525 -0.01153,-0.024882 -0.02237,-0.036295 -0.0301,-0.041823 -0.0077,-0.00553 -0.01451,-0.00967 -0.03979,-0.00967 H 7.012878 V 9.0340527 L 6.899131,8.9963087 6.376817,9.2574652 H 5.854596 V 8.7351612 H 5.593439 V 8.2128472 L 5.332791,8.2123383 5.071634,8.4734948 H 4.978804 C 5.021294,8.1841926 5.098578,7.9066419 5.206296,7.6451378 l 0.648812,-0.21627 0.261157,0.261157 0.261157,0.2611565 V 7.4288678 L 6.899736,7.1677108 V 6.9065533 L 7.422049,6.6453963 7.944364,6.1230828 v 0.261157 L 8.20552,6.1230828 7.944364,5.8619263 H 8.466677 V 6.1230828 L 8.988818,5.8619053 8.727661,5.6007488 Z M 8.217075,7.1676909 c -0.464076,0 -0.658503,0.1843151 -0.658503,0.6554422 v 0.3764328 c 0,0.2909289 -0.0091,0.6278993 -0.265238,0.6278993 H 7.160715 V 9.164112 h 0.132619 c 0.256194,0 0.265238,0.3369705 0.265238,0.6278991 v 0.3764329 c 0,0.471128 0.194427,0.655443 0.658503,0.655443 v -0.309104 c -0.309471,0 -0.313695,-0.125078 -0.313695,-0.5774011 V 9.6721434 C 7.90338,9.4551226 7.84981,9.132051 7.589176,8.9983389 7.849811,8.8643659 7.90338,8.5410453 7.90338,8.3240234 V 8.0541952 c 0,-0.4523233 0.0044,-0.577401 0.313695,-0.577401 z m 0.49477,0 v 0.3091033 c 0.309471,0 0.317775,0.1250777 0.317775,0.577401 v 0.2698282 c 0,0.2167605 0.05357,0.5406028 0.314204,0.6743155 C 9.083189,9.132051 9.02962,9.4551226 9.02962,9.6721434 v 0.265239 c 0,0.4523236 -0.0083,0.5774006 -0.317775,0.5774006 v 0.309104 c 0.464075,0 0.662583,-0.184315 0.662583,-0.655443 V 9.792521 c 0,-0.2909292 0.01781,-0.6278985 0.269828,-0.6278985 H 9.772284 V 8.8274652 H 9.644256 c -0.252016,0 -0.269828,-0.3369704 -0.269828,-0.6278993 V 7.8231331 c 0,-0.4711271 -0.198247,-0.6554422 -0.662583,-0.6554422 z M 4.945983,8.8029811 5.332107,8.9962983 5.593264,9.2574553 6.115578,9.5186118 6.376735,9.7797685 6.115578,10.040926 v 0.522314 l 0.261157,0.522314 0.522313,0.522314 v 0.550367 C 5.735706,11.583929 4.940882,10.387371 4.940882,8.9957884 c 0,-0.064772 0.0017,-0.1289281 0.0051,-0.1928073 z" />
  <path
     id="rect6-3"
     class="ColorScheme-Text"
     style="baseline-shift:baseline;display:inline;overflow:visible;vector-effect:none;fill:currentColor;stroke-width:0.261157;enable-background:accumulate;stop-color:#000000"
     d="m 8.4665,4.6797255 c -2.095615,0 -3.786775,1.691161 -3.786775,3.786775 0,2.0956135 1.691161,3.7867735 3.786775,3.7867735 2.095614,0 3.786775,-1.69116 3.786775,-3.7867735 0,-2.095614 -1.691161,-3.786775 -3.786775,-3.786775 z m 0.261157,0.270338 c 0.938627,0.0679 1.772262,0.498922 2.362143,1.154294 v 5.08e-4 l -0.01173,0.01173 v 0.261157 h 0.233613 c 0.04084,0.05569 0.08025,0.11222 0.117828,0.170365 l -0.09029,0.09029 -0.522313,0.522313 -0.261157,0.261157 -0.261157,0.78347 v 0.261157 l 0.261157,0.261158 0.261157,0.261157 0.522313,0.261157 0.596275,-0.146901 C 11.649493,10.688343 10.312779,11.895933 8.665427,11.986513 l 0.06172,-0.124459 V 11.600898 L 9.249462,11.339741 9.510619,11.078583 V 10.55627 L 9.771776,10.295113 V 10.033957 L 9.51623,9.7784105 C 9.4736,10.236124 9.209034,10.442523 8.711847,10.442523 H 8.563926 V 9.8375795 h 0.147921 c 0.0674,0 0.107706,-0.0086 0.122416,-0.0148 0.0074,-0.0032 0.0091,-0.0051 0.01071,-0.0066 0.0016,-0.0016 0.0037,-0.0039 0.0077,-0.01224 0.0077,-0.01667 0.01847,-0.05895 0.02346,-0.125987 0.0025,-0.03284 0.0038,-0.07141 0.0046,-0.115276 L 8.727201,9.5116665 8.466044,9.2505105 8.204888,8.9893535 H 8.043194 c 0.006,0.05525 0.0082,0.107351 0.0082,0.153532 v 0.265239 c 0,0.11285 4.18e-4,0.203539 0.0051,0.270849 0.0046,0.06731 0.01493,0.109909 0.02245,0.126497 0.0037,0.0083 0.0063,0.01042 0.0077,0.01172 3.4e-4,3.4e-4 6.13e-4,6.64e-4 9.7e-4,9.7e-4 0.0013,9.7e-4 0.0037,0.0027 0.0082,0.0046 0.01399,0.006 0.054,0.01479 0.121396,0.01479 H 8.365132 V 10.442496 H 8.21721 c -0.545545,0 -0.806423,-0.248514 -0.806423,-0.8033635 v -0.376459 c 0,-0.08636 -9.19e-4,-0.173657 -0.0082,-0.249935 -0.0072,-0.07628 -0.02197,-0.141208 -0.03928,-0.178525 -0.01153,-0.02488 -0.02237,-0.03629 -0.0301,-0.04182 -0.0077,-0.0055 -0.01451,-0.0097 -0.03979,-0.0097 H 7.012878 v -0.27799 L 6.899131,8.4669635 6.376817,8.7281205 H 5.854596 V 8.2058165 H 5.593439 v -0.522314 l -0.260648,-5.09e-4 -0.261157,0.261156 h -0.09283 c 0.04249,-0.289302 0.119774,-0.566853 0.227492,-0.828357 l 0.648812,-0.21627 0.261157,0.261157 0.261157,0.261157 v -0.522314 l 0.522314,-0.261157 v -0.261157 l 0.522313,-0.261157 0.522315,-0.522314 v 0.261157 L 8.20552,5.5937375 7.944364,5.3325815 h 0.522313 v 0.261156 L 8.988818,5.3325605 8.727661,5.0714035 Z m -0.510582,1.688339 c -0.464076,0 -0.658503,0.184315 -0.658503,0.655442 v 0.376433 c 0,0.290929 -0.0091,0.6279 -0.265238,0.6279 H 7.160715 v 0.336646 h 0.132619 c 0.256194,0 0.265238,0.336971 0.265238,0.627899 v 0.376433 c 0,0.4711265 0.194427,0.6554425 0.658503,0.6554425 V 9.9854945 c -0.309471,0 -0.313695,-0.125077 -0.313695,-0.577401 v -0.265238 c 0,-0.217021 -0.05357,-0.540093 -0.314204,-0.673805 0.260635,-0.133973 0.314204,-0.457293 0.314204,-0.674315 v -0.269828 c 0,-0.452324 0.0044,-0.577401 0.313695,-0.577401 z m 0.49477,0 v 0.309104 c 0.309471,0 0.317775,0.125077 0.317775,0.577401 v 0.269828 c 0,0.21676 0.05357,0.540603 0.314204,0.674315 -0.260635,0.133712 -0.314204,0.456784 -0.314204,0.673805 v 0.265239 c 0,0.452323 -0.0083,0.577401 -0.317775,0.577401 v 0.3091025 c 0.464075,0 0.662583,-0.184315 0.662583,-0.6554415 v -0.375924 c 0,-0.290929 0.01781,-0.627898 0.269828,-0.627898 H 9.772284 V 8.2981775 H 9.644256 c -0.252016,0 -0.269828,-0.336971 -0.269828,-0.6279 v -0.376433 c 0,-0.471127 -0.198247,-0.655442 -0.662583,-0.655442 z m -3.765862,1.63529 0.386124,0.193318 0.261157,0.261157 0.522314,0.261156 0.261157,0.261157 -0.261157,0.261157 v 0.5223145 l 0.261157,0.522314 0.522313,0.522313 v 0.550368 C 5.735706,11.054641 4.940882,9.8580825 4.940882,8.4665005 c 0,-0.06477 0.0017,-0.128928 0.0051,-0.192808 z" />
  <path
     id="gradient-path1"
     style="opacity:0.3;baseline-shift:baseline;display:inline;overflow:visible;vector-effect:none;enable-background:accumulate;stop-color:#000000;stop-opacity:1;fill:url(#linearGradient4)"
     d="M 8.4453131 1.2753492 C 4.4913166 1.2753492 1.2794833 4.4784283 1.2794833 8.4236094 C 1.2794833 12.36879 4.4913166 15.572386 8.4453131 15.572386 C 12.39931 15.572386 15.611143 12.36879 15.611143 8.4236094 C 15.611143 4.4784283 12.39931 1.2753492 8.4453131 1.2753492 z " />
</svg>
