<?xml version="1.0" encoding="UTF-8" standalone="no"?>
<svg
   width="64"
   height="64"
   version="1.1"
   viewBox="0 0 16.933 16.933"
   id="svg7"
   sodipodi:docname="preferences-desktop-keyboard.svg"
   inkscape:version="1.4.2 (ebf0e940d0, 2025-05-08)"
   xmlns:inkscape="http://www.inkscape.org/namespaces/inkscape"
   xmlns:sodipodi="http://sodipodi.sourceforge.net/DTD/sodipodi-0.dtd"
   xmlns:xlink="http://www.w3.org/1999/xlink"
   xmlns="http://www.w3.org/2000/svg"
   xmlns:svg="http://www.w3.org/2000/svg"
   xmlns:rdf="http://www.w3.org/1999/02/22-rdf-syntax-ns#"
   xmlns:cc="http://creativecommons.org/ns#"
   xmlns:dc="http://purl.org/dc/elements/1.1/">
  <sodipodi:namedview
     id="namedview7"
     pagecolor="#9c4444"
     bordercolor="#000000"
     borderopacity="0.25"
     inkscape:showpageshadow="2"
     inkscape:pageopacity="0.0"
     inkscape:pagecheckerboard="0"
     inkscape:deskcolor="#d1d1d1"
     inkscape:zoom="4.3531261"
     inkscape:cx="36.640335"
     inkscape:cy="26.188077"
     inkscape:window-width="1272"
     inkscape:window-height="1372"
     inkscape:window-x="0"
     inkscape:window-y="0"
     inkscape:window-maximized="0"
     inkscape:current-layer="svg7"
     showgrid="false" />
  <defs
     id="defs2">
    <filter
       style="color-interpolation-filters:sRGB;"
       inkscape:label="Blur"
       id="filter3"
       x="-0.10843471"
       y="-0.10870992"
       width="1.2168694"
       height="1.2174198">
      <feGaussianBlur
         stdDeviation="0.5 0.5"
         result="blur"
         id="feGaussianBlur3" />
    </filter>
    <style
       id="current-color-scheme"
       type="text/css">.ColorScheme-Text {color:#d8dee9} .ColorScheme-Highlight {color:#3b4252}</style>
    <linearGradient
       id="linearGradient3"
       inkscape:collect="always">
      <stop
         style="stop-color:#000000;stop-opacity:1;"
         offset="0"
         id="stop3" />
      <stop
         style="stop-color:#000000;stop-opacity:0;"
         offset="1"
         id="stop4" />
    </linearGradient>
    <linearGradient
       inkscape:collect="always"
       xlink:href="#linearGradient3"
       id="linearGradient4"
       x1="13.512321"
       y1="13.490874"
       x2="3.3783066"
       y2="3.3568602"
       gradientUnits="userSpaceOnUse" />
  </defs>
  <metadata
     id="metadata2">
    <rdf:RDF>
      <cc:Work
         rdf:about="">
        <dc:format>image/svg+xml</dc:format>
        <dc:type
           rdf:resource="http://purl.org/dc/dcmitype/StillImage" />
      </cc:Work>
    </rdf:RDF>
    <itype>type-a</itype>
  </metadata>
  <ellipse
     style="opacity:1;fill:none;stroke:#000000;stroke-width:0.582072;stroke-dasharray:none;stroke-opacity:1;filter:url(#filter3)"
     id="path1-5"
     cx="8.4450111"
     cy="8.423522"
     rx="6.8752708"
     ry="6.8578653" />
  <ellipse
     style="opacity:1;fill:none;stroke-width:0.58207188;stroke-opacity:1;stroke:currentColor;stroke-dasharray:none;fill-opacity:1"
     id="path1"
     cx="8.4450111"
     cy="8.423522"
     rx="6.8752708"
     ry="6.8578653"
     class="ColorScheme-Text" />
  <ellipse
     style="fill:currentColor;stroke:none;stroke-width:0.285844;stroke-dasharray:none;stroke-opacity:1"
     id="path1-2"
     cx="8.4557552"
     cy="8.423522"
     rx="6.5738997"
     ry="6.5692253"
     class="ColorScheme-Highlight" />
  <path
     style="opacity:0.3;fill:#000000;fill-opacity:1;stroke:none;stroke-width:0.23195;stroke-dasharray:none;stroke-opacity:0.3"
     d="m 5.6895315,5.9662367 c 0,0 -1.009806,0 -1.009806,1.0098069 v 4.0392254 c 0,1.009807 1.009806,1.009807 1.009806,1.009807 h 5.5539355 c 0,0 1.009807,0 1.009807,-1.009807 V 6.9760436 c 0,-1.0098069 -1.009807,-1.0098069 -1.009807,-1.0098069 z m 0.126226,1.0098069 h 0.757355 c 0.06993,0 0.126226,0.0563 0.126226,0.126226 v 0.757354 c 0,0.06993 -0.0563,0.126226 -0.126226,0.126226 h -0.757355 c -0.06993,0 -0.126226,-0.0563 -0.126226,-0.126226 v -0.757354 c 0,-0.06993 0.0563,-0.126226 0.126226,-0.126226 z m 1.51471,0 h 0.757355 c 0.06993,0 0.126226,0.0563 0.126226,0.126226 v 0.757354 c 0,0.06993 -0.0563,0.126226 -0.126226,0.126226 h -0.757355 c -0.06993,0 -0.126226,-0.0563 -0.126226,-0.126226 v -0.757354 c 0,-0.06993 0.0563,-0.126226 0.126226,-0.126226 z m 1.51471,0 h 0.757354 c 0.06993,0 0.126226,0.0563 0.126226,0.126226 v 0.757354 c 0,0.06993 -0.0563,0.126226 -0.126226,0.126226 h -0.757354 c -0.06993,0 -0.126226,-0.0563 -0.126226,-0.126226 v -0.757354 c 0,-0.06993 0.0563,-0.126226 0.126226,-0.126226 z m 1.5147095,0 h 0.757354 c 0.06993,0 0.126226,0.0563 0.126226,0.126226 v 0.757354 c 0,0.06993 -0.05629,0.126226 -0.126226,0.126226 h -0.757354 c -0.06994,0 -0.126226,-0.0563 -0.126226,-0.126226 v -0.757354 c 0,-0.06993 0.0563,-0.126226 0.126226,-0.126226 z m -4.5441295,1.514709 h 0.757355 c 0.06993,0 0.126226,0.0563 0.126226,0.1262261 v 0.7573551 c 0,0.06993 -0.0563,0.1262258 -0.126226,0.1262258 h -0.757355 c -0.06993,0 -0.126226,-0.056297 -0.126226,-0.1262258 V 8.6169787 c 0,-0.06993 0.0563,-0.1262261 0.126226,-0.1262261 z m 1.51471,0 h 0.757355 c 0.06993,0 0.126226,0.0563 0.126226,0.1262261 v 0.7573551 c 0,0.06993 -0.0563,0.1262258 -0.126226,0.1262258 h -0.757355 c -0.06993,0 -0.126226,-0.056297 -0.126226,-0.1262258 V 8.6169787 c 0,-0.06993 0.0563,-0.1262261 0.126226,-0.1262261 z m 1.51471,0 h 0.757354 c 0.06993,0 0.126226,0.0563 0.126226,0.1262261 v 0.7573551 c 0,0.06993 -0.0563,0.1262258 -0.126226,0.1262258 h -0.757354 c -0.06993,0 -0.126226,-0.056297 -0.126226,-0.1262258 V 8.6169787 c 0,-0.06993 0.0563,-0.1262261 0.126226,-0.1262261 z m 1.5147105,0 h 0.757354 c 0.06993,0 0.126226,0.0563 0.126226,0.1262261 v 0.7573551 c 0,0.06993 -0.05629,0.1262258 -0.126226,0.1262258 h -0.757354 c -0.06994,0 -0.126226,-0.056297 -0.126226,-0.1262258 V 8.6169787 c 0,-0.06993 0.0563,-0.1262261 0.126226,-0.1262261 z M 6.8255645,10.005463 h 3.2818725 c 0.06993,0 0.126225,0.0563 0.126225,0.126225 v 0.757355 c 0,0.06993 -0.0563,0.126226 -0.126225,0.126226 H 6.8255645 c -0.06993,0 -0.126226,-0.05629 -0.126226,-0.126226 v -0.757355 c 0,-0.06993 0.0563,-0.126225 0.126226,-0.126225 z"
     id="path5" />
  <path
     style="fill:currentColor;fill-opacity:1;stroke:none;stroke-width:0.23195;stroke-dasharray:none;stroke-opacity:0.3"
     class="ColorScheme-Text"
     d="m 5.6895315,5.4370799 c 0,0 -1.009806,0 -1.009806,1.0098075 v 4.0392256 c 0,1.009807 1.009806,1.009807 1.009806,1.009807 h 5.5539355 c 0,0 1.009807,0 1.009807,-1.009807 V 6.4468874 c 0,-1.0098075 -1.009807,-1.0098075 -1.009807,-1.0098075 z m 0.126226,1.0098075 h 0.757355 c 0.06993,0 0.126226,0.0563 0.126226,0.126226 v 0.757354 c 0,0.06993 -0.0563,0.1262264 -0.126226,0.1262264 h -0.757355 c -0.06993,0 -0.126226,-0.0563 -0.126226,-0.1262264 v -0.757354 c 0,-0.06993 0.0563,-0.126226 0.126226,-0.126226 z m 1.51471,0 h 0.757355 c 0.06993,0 0.126226,0.0563 0.126226,0.126226 v 0.757354 c 0,0.06993 -0.0563,0.1262264 -0.126226,0.1262264 h -0.757355 c -0.06993,0 -0.126226,-0.0563 -0.126226,-0.1262264 v -0.757354 c 0,-0.06993 0.0563,-0.126226 0.126226,-0.126226 z m 1.51471,0 h 0.757354 c 0.06993,0 0.126226,0.0563 0.126226,0.126226 v 0.757354 c 0,0.06993 -0.0563,0.1262264 -0.126226,0.1262264 h -0.757354 c -0.06993,0 -0.126226,-0.0563 -0.126226,-0.1262264 v -0.757354 c 0,-0.06993 0.0563,-0.126226 0.126226,-0.126226 z m 1.5147095,0 h 0.757354 c 0.06993,0 0.126226,0.0563 0.126226,0.126226 v 0.757354 c 0,0.06993 -0.05629,0.1262264 -0.126226,0.1262264 h -0.757354 c -0.06994,0 -0.126225,-0.0563 -0.126225,-0.1262264 v -0.757354 c 0,-0.06993 0.0563,-0.126226 0.126225,-0.126226 z M 5.8157575,7.9615968 h 0.757355 c 0.06993,0 0.126226,0.0563 0.126226,0.126226 v 0.7573551 c 0,0.06993 -0.0563,0.1262258 -0.126226,0.1262258 h -0.757355 c -0.06993,0 -0.126226,-0.056297 -0.126226,-0.1262258 V 8.0878228 c 0,-0.06993 0.0563,-0.126226 0.126226,-0.126226 z m 1.51471,0 h 0.757355 c 0.06993,0 0.126226,0.0563 0.126226,0.126226 v 0.7573551 c 0,0.06993 -0.0563,0.1262258 -0.126226,0.1262258 h -0.757355 c -0.06993,0 -0.126226,-0.056297 -0.126226,-0.1262258 V 8.0878228 c 0,-0.06993 0.0563,-0.126226 0.126226,-0.126226 z m 1.51471,0 h 0.757354 c 0.06993,0 0.126226,0.0563 0.126226,0.126226 v 0.7573551 c 0,0.06993 -0.0563,0.1262258 -0.126226,0.1262258 h -0.757354 c -0.06993,0 -0.126226,-0.056297 -0.126226,-0.1262258 V 8.0878228 c 0,-0.06993 0.0563,-0.126226 0.126226,-0.126226 z m 1.5147105,0 h 0.757354 c 0.06993,0 0.126226,0.0563 0.126226,0.126226 v 0.7573551 c 0,0.06993 -0.05629,0.1262258 -0.126226,0.1262258 h -0.757354 c -0.06994,0 -0.126226,-0.056297 -0.126226,-0.1262258 V 8.0878228 c 0,-0.06993 0.0563,-0.126226 0.126226,-0.126226 z M 6.8255645,9.4763067 h 3.2818725 c 0.06993,0 0.126225,0.056296 0.126225,0.1262254 v 0.7573559 c 0,0.06993 -0.0563,0.126225 -0.126225,0.126225 H 6.8255645 c -0.06993,0 -0.126226,-0.05629 -0.126226,-0.126225 V 9.6025321 c 0,-0.069931 0.0563,-0.1262254 0.126226,-0.1262254 z"
     id="path5-6" />
  <path
     id="gradient-path1"
     style="opacity:0.3;baseline-shift:baseline;display:inline;overflow:visible;vector-effect:none;enable-background:accumulate;stop-color:#000000;stop-opacity:1;fill:url(#linearGradient4)"
     d="M 8.4453131 1.2753492 C 4.4913166 1.2753492 1.2794833 4.4784283 1.2794833 8.4236094 C 1.2794833 12.36879 4.4913166 15.572386 8.4453131 15.572386 C 12.39931 15.572386 15.611143 12.36879 15.611143 8.4236094 C 15.611143 4.4784283 12.39931 1.2753492 8.4453131 1.2753492 z " />
</svg>
