<?xml version="1.0" encoding="UTF-8" standalone="no"?>
<svg
   width="64"
   height="64"
   version="1.1"
   viewBox="0 0 16.933 16.933"
   id="svg7"
   sodipodi:docname="preferences-desktop-touchpad.svg"
   inkscape:version="1.4.2 (ebf0e940d0, 2025-05-08)"
   xmlns:inkscape="http://www.inkscape.org/namespaces/inkscape"
   xmlns:sodipodi="http://sodipodi.sourceforge.net/DTD/sodipodi-0.dtd"
   xmlns:xlink="http://www.w3.org/1999/xlink"
   xmlns="http://www.w3.org/2000/svg"
   xmlns:svg="http://www.w3.org/2000/svg"
   xmlns:rdf="http://www.w3.org/1999/02/22-rdf-syntax-ns#"
   xmlns:cc="http://creativecommons.org/ns#"
   xmlns:dc="http://purl.org/dc/elements/1.1/">
  <sodipodi:namedview
     id="namedview7"
     pagecolor="#9c4444"
     bordercolor="#000000"
     borderopacity="0.25"
     inkscape:showpageshadow="2"
     inkscape:pageopacity="0.0"
     inkscape:pagecheckerboard="0"
     inkscape:deskcolor="#d1d1d1"
     inkscape:zoom="4.3531261"
     inkscape:cx="36.640335"
     inkscape:cy="26.188077"
     inkscape:window-width="1272"
     inkscape:window-height="1372"
     inkscape:window-x="0"
     inkscape:window-y="0"
     inkscape:window-maximized="0"
     inkscape:current-layer="svg7"
     showgrid="false" />
  <defs
     id="defs2">
    <filter
       style="color-interpolation-filters:sRGB;"
       inkscape:label="Blur"
       id="filter3"
       x="-0.10843471"
       y="-0.10870992"
       width="1.2168694"
       height="1.2174198">
      <feGaussianBlur
         stdDeviation="0.5 0.5"
         result="blur"
         id="feGaussianBlur3" />
    </filter>
    <style
       id="current-color-scheme"
       type="text/css">.ColorScheme-Text {color:#d8dee9} .ColorScheme-Highlight {color:#3b4252}</style>
    <linearGradient
       id="linearGradient3"
       inkscape:collect="always">
      <stop
         style="stop-color:#000000;stop-opacity:1;"
         offset="0"
         id="stop3" />
      <stop
         style="stop-color:#000000;stop-opacity:0;"
         offset="1"
         id="stop4" />
    </linearGradient>
    <linearGradient
       inkscape:collect="always"
       xlink:href="#linearGradient3"
       id="linearGradient4"
       x1="13.512321"
       y1="13.490874"
       x2="3.3783066"
       y2="3.3568602"
       gradientUnits="userSpaceOnUse" />
  </defs>
  <metadata
     id="metadata2">
    <rdf:RDF>
      <cc:Work
         rdf:about="">
        <dc:format>image/svg+xml</dc:format>
        <dc:type
           rdf:resource="http://purl.org/dc/dcmitype/StillImage" />
      </cc:Work>
    </rdf:RDF>
    <itype>type-a</itype>
  </metadata>
  <ellipse
     style="opacity:1;fill:none;stroke:#000000;stroke-width:0.582072;stroke-dasharray:none;stroke-opacity:1;filter:url(#filter3)"
     id="path1-5"
     cx="8.4450111"
     cy="8.423522"
     rx="6.8752708"
     ry="6.8578653" />
  <ellipse
     style="opacity:1;fill:none;stroke-width:0.58207188;stroke-opacity:1;stroke:currentColor;stroke-dasharray:none;fill-opacity:1"
     id="path1"
     cx="8.4450111"
     cy="8.423522"
     rx="6.8752708"
     ry="6.8578653"
     class="ColorScheme-Text" />
  <ellipse
     style="fill:currentColor;stroke:none;stroke-width:0.285844;stroke-dasharray:none;stroke-opacity:1"
     id="path1-2"
     cx="8.4557552"
     cy="8.423522"
     rx="6.5738997"
     ry="6.5692253"
     class="ColorScheme-Highlight" />
  <path
     id="rect4239"
     style="opacity:0.3;fill:#000000;fill-opacity:1;stroke-width:0.315568;stroke-linejoin:round"
     d="m 9.8988395,5.29659 a 0.92404833,0.92404696 0 0 0 -0.92395,0.9239505 0.92404833,0.92404696 0 0 0 0.07652,0.3655524 L 9.4413645,6.282848 A 0.46202417,0.46202348 0 0 1 9.4366645,6.22054 0.46202417,0.46202348 0 0 1 9.8988755,5.7585647 0.46202417,0.46202348 0 0 1 10.360851,6.22054 0.46202417,0.46202348 0 0 1 10.129864,6.6194964 V 7.1148767 A 0.92404833,0.92404696 0 0 0 10.822826,6.22054 0.92404833,0.92404696 0 0 0 9.8988755,5.2965895 Z m -2.16e-4,0.9239505 -3.465051,2.6567124 h 2.079125 l 1.383319,1.8481371 0.0028,-4.5048495 z m -5.218898,5.2120275 v 1.262258 h 3.47121 v -1.262258 z m 4.102339,0 v 1.262258 h 3.4712095 v -1.262258 z" />
  <path
     id="rect4239-9"
     class="ColorScheme-Text"
     style="fill:currentColor;stroke-width:0.315568;stroke-linejoin:round"
     d="m 9.8988395,4.7673823 a 0.92404833,0.92404696 0 0 0 -0.92395,0.9239505 0.92404833,0.92404696 0 0 0 0.07652,0.3655524 l 0.389955,-0.3032449 a 0.46202417,0.46202348 0 0 1 -0.0047,-0.062308 0.46202417,0.46202348 0 0 1 0.462211,-0.4619753 0.46202417,0.46202348 0 0 1 0.4619755,0.4619753 0.46202417,0.46202348 0 0 1 -0.230987,0.3989564 V 6.585669 A 0.92404833,0.92404696 0 0 0 10.822826,5.6913323 0.92404833,0.92404696 0 0 0 9.8988755,4.7673818 Z m -2.16e-4,0.9239505 -3.465051,2.6567124 h 2.079125 l 1.383319,1.8481368 0.0028,-4.5048492 z M 4.6797255,10.90336 v 1.262258 h 3.47121 V 10.90336 Z m 4.102339,0 v 1.262258 H 12.253274 V 10.90336 Z" />
  <path
     id="gradient-path1"
     style="opacity:0.3;baseline-shift:baseline;display:inline;overflow:visible;vector-effect:none;enable-background:accumulate;stop-color:#000000;stop-opacity:1;fill:url(#linearGradient4)"
     d="M 8.4453131 1.2753492 C 4.4913166 1.2753492 1.2794833 4.4784283 1.2794833 8.4236094 C 1.2794833 12.36879 4.4913166 15.572386 8.4453131 15.572386 C 12.39931 15.572386 15.611143 12.36879 15.611143 8.4236094 C 15.611143 4.4784283 12.39931 1.2753492 8.4453131 1.2753492 z " />
</svg>
