<?xml version="1.0" encoding="UTF-8" standalone="no"?>
<svg
   width="64"
   height="64"
   version="1.1"
   viewBox="0 0 16.933 16.933"
   id="svg7"
   sodipodi:docname="preferences-web-browser-cache.svg"
   inkscape:version="1.4.2 (ebf0e940d0, 2025-05-08)"
   xmlns:inkscape="http://www.inkscape.org/namespaces/inkscape"
   xmlns:sodipodi="http://sodipodi.sourceforge.net/DTD/sodipodi-0.dtd"
   xmlns:xlink="http://www.w3.org/1999/xlink"
   xmlns="http://www.w3.org/2000/svg"
   xmlns:svg="http://www.w3.org/2000/svg"
   xmlns:rdf="http://www.w3.org/1999/02/22-rdf-syntax-ns#"
   xmlns:cc="http://creativecommons.org/ns#"
   xmlns:dc="http://purl.org/dc/elements/1.1/">
  <sodipodi:namedview
     id="namedview7"
     pagecolor="#9c4444"
     bordercolor="#000000"
     borderopacity="0.25"
     inkscape:showpageshadow="2"
     inkscape:pageopacity="0.0"
     inkscape:pagecheckerboard="0"
     inkscape:deskcolor="#d1d1d1"
     inkscape:zoom="4.3531261"
     inkscape:cx="36.755195"
     inkscape:cy="26.188077"
     inkscape:window-width="1543"
     inkscape:window-height="1372"
     inkscape:window-x="0"
     inkscape:window-y="0"
     inkscape:window-maximized="0"
     inkscape:current-layer="svg7"
     showgrid="false" />
  <defs
     id="defs2">
    <filter
       style="color-interpolation-filters:sRGB;"
       inkscape:label="Blur"
       id="filter3"
       x="-0.10843471"
       y="-0.10870992"
       width="1.2168694"
       height="1.2174198">
      <feGaussianBlur
         stdDeviation="0.5 0.5"
         result="blur"
         id="feGaussianBlur3" />
    </filter>
    <style
       id="current-color-scheme"
       type="text/css">.ColorScheme-Text {color:#d8dee9} .ColorScheme-Highlight {color:#3b4252}</style>
    <linearGradient
       id="linearGradient3"
       inkscape:collect="always">
      <stop
         style="stop-color:#000000;stop-opacity:1;"
         offset="0"
         id="stop3" />
      <stop
         style="stop-color:#000000;stop-opacity:0;"
         offset="1"
         id="stop4" />
    </linearGradient>
    <linearGradient
       inkscape:collect="always"
       xlink:href="#linearGradient3"
       id="linearGradient4"
       x1="13.512321"
       y1="13.490874"
       x2="3.3783066"
       y2="3.3568602"
       gradientUnits="userSpaceOnUse" />
  </defs>
  <metadata
     id="metadata2">
    <rdf:RDF>
      <cc:Work
         rdf:about="">
        <dc:format>image/svg+xml</dc:format>
        <dc:type
           rdf:resource="http://purl.org/dc/dcmitype/StillImage" />
      </cc:Work>
    </rdf:RDF>
    <itype>type-a</itype>
  </metadata>
  <ellipse
     style="opacity:1;fill:none;stroke:#000000;stroke-width:0.582072;stroke-dasharray:none;stroke-opacity:1;filter:url(#filter3)"
     id="path1-5"
     cx="8.4450111"
     cy="8.423522"
     rx="6.8752708"
     ry="6.8578653" />
  <ellipse
     style="opacity:1;fill:none;stroke-width:0.58207188;stroke-opacity:1;stroke:currentColor;stroke-dasharray:none;fill-opacity:1"
     id="path1"
     cx="8.4450111"
     cy="8.423522"
     rx="6.8752708"
     ry="6.8578653"
     class="ColorScheme-Text" />
  <ellipse
     style="fill:currentColor;stroke:none;stroke-width:0.285844;stroke-dasharray:none;stroke-opacity:1"
     id="path1-2"
     cx="8.4557552"
     cy="8.423522"
     rx="6.5738997"
     ry="6.5692253"
     class="ColorScheme-Highlight" />
  <path
     id="rect6"
     style="baseline-shift:baseline;display:inline;overflow:visible;opacity:0.3;vector-effect:none;fill:#000000;fill-opacity:1;stroke-width:0.261157;enable-background:accumulate;stop-color:#000000"
     d="m 8.4665,5.2090141 c -2.095615,0 -3.786775,1.6911601 -3.786775,3.7867746 0,2.0956143 1.69116,3.7867743 3.786775,3.7867743 2.095615,0 3.786775,-1.69116 3.786775,-3.7867743 0,-2.0956145 -1.69116,-3.7867746 -3.786775,-3.7867746 z m 0.261156,0.2703382 c 0.938585,0.067866 1.772249,0.4989999 2.362144,1.1542929 l -0.01172,0.011731 v 0.261157 h 0.233613 c 0.04088,0.055728 0.08022,0.1126928 0.117827,0.1708741 l -0.09029,0.090282 -0.522314,0.5223136 -0.261156,0.2611569 -0.261157,0.783471 v 0.2611565 l 0.261157,0.261157 0.261156,0.2611568 0.522314,0.2611571 0.596274,-0.146901 C 11.649535,11.217869 10.313066,12.425423 8.66543,12.515797 L 8.727655,12.390829 V 12.129672 L 9.249972,11.868515 9.511129,11.607358 V 11.085044 L 9.772287,10.823887 V 10.710651 H 7.012798 V 9.0335342 L 6.899561,8.9957898 6.377247,9.2569463 H 5.854931 V 8.7346317 H 5.593775 V 8.2123181 H 5.332617 L 5.07146,8.473475 H 4.97863 C 5.02111,8.1841575 5.098397,7.9066345 5.206122,7.6451181 L 5.854934,7.4288475 6.116091,7.6900043 6.377248,7.9511612 V 7.4288475 L 6.899558,7.1676906 V 6.9065338 L 7.421872,6.6453769 7.944186,6.1230631 V 6.38422 L 8.205343,6.1230631 7.944186,5.8619063 H 8.4665 V 6.1230631 L 8.988813,5.8619063 8.727656,5.6007494 Z M 7.944186,7.4288475 V 7.6900043 H 6.899558 V 7.9511612 H 7.160715 V 10.56273 H 9.772284 V 7.9511612 h 0.261157 V 7.6900043 H 8.988813 V 7.4288475 Z M 8.205343,7.6900043 H 8.727656 V 7.9511612 H 8.205343 Z M 7.944186,8.473475 H 8.205343 V 9.7792591 H 7.944186 Z m 0.78347,0 H 8.988813 V 9.7792591 H 8.727656 Z M 4.945983,8.8024716 5.332617,8.9957887 5.593775,9.2569458 6.116088,9.5181021 6.377245,9.7792591 6.116088,10.040416 v 0.522314 l 0.261157,0.522314 0.522313,0.522314 v 0.550877 C 5.736137,11.583957 4.940882,10.387429 4.940882,8.9957887 c 0,-0.064839 0.0017,-0.1293696 0.0051,-0.193317 z" />
  <path
     id="rect6-2"
     class="ColorScheme-Text"
     style="baseline-shift:baseline;display:inline;overflow:visible;vector-effect:none;fill:currentColor;fill-opacity:1;stroke-width:0.261157;enable-background:accumulate;stop-color:#000000"
     d="m 8.4665,4.6797255 c -2.095615,0 -3.786775,1.69116 -3.786775,3.786774 0,2.0956135 1.69116,3.7867745 3.786775,3.7867745 2.095615,0 3.786775,-1.69116 3.786775,-3.7867745 0,-2.095614 -1.69116,-3.786774 -3.786775,-3.786774 z m 0.261156,0.270338 c 0.938585,0.06787 1.772249,0.499 2.362144,1.154293 l -0.01172,0.01173 v 0.261157 h 0.233613 c 0.04088,0.05573 0.08022,0.112693 0.117827,0.170874 l -0.09029,0.09028 -0.522314,0.522314 -0.261156,0.261157 -0.261157,0.783471 v 0.261156 l 0.261157,0.261157 0.261156,0.261157 0.522314,0.261157 0.596274,-0.146901 C 11.649535,10.688577 10.313066,11.896132 8.66543,11.986505 L 8.72765,11.861537 V 11.600382 L 9.249967,11.339225 9.511124,11.078069 V 10.555754 L 9.772282,10.294597 V 10.181361 H 7.012793 V 8.5042455 L 6.899556,8.4665055 6.377242,8.7276615 H 5.854931 V 8.2053425 H 5.593775 V 7.6830295 H 5.332617 L 5.07146,7.9441865 H 4.97863 c 0.04248,-0.289318 0.119767,-0.566841 0.227492,-0.828357 l 0.648812,-0.216271 0.261157,0.261157 0.261157,0.261157 v -0.522314 l 0.52231,-0.261157 v -0.261156 l 0.522314,-0.261157 0.522314,-0.522314 v 0.261157 L 8.205343,5.5937745 7.944186,5.3326175 H 8.4665 v 0.261157 L 8.988813,5.3326175 8.727656,5.0714605 Z m -0.78347,1.949495 v 0.261157 H 6.899558 v 0.261157 H 7.160715 V 10.033441 H 9.772284 V 7.4218725 h 0.261157 V 7.1607155 H 8.988813 v -0.261157 z m 0.261157,0.261157 h 0.522313 v 0.261157 H 8.205343 Z m -0.261157,0.783471 h 0.261157 v 1.305784 H 7.944186 Z m 0.78347,0 h 0.261157 v 1.305784 H 8.727656 Z m -3.781673,0.328996 0.386634,0.193317 0.261158,0.261158 0.522313,0.261156 0.261157,0.261157 -0.261157,0.261157 V 10.03344 l 0.261157,0.522314 0.522313,0.522315 v 0.550878 C 5.736137,11.054668 4.940882,9.8581405 4.940882,8.4664995 c 0,-0.06484 0.0017,-0.129369 0.0051,-0.193317 z" />
  <path
     id="gradient-path1"
     style="opacity:0.3;baseline-shift:baseline;display:inline;overflow:visible;vector-effect:none;enable-background:accumulate;stop-color:#000000;stop-opacity:1;fill:url(#linearGradient4)"
     d="M 8.4453131 1.2753492 C 4.4913166 1.2753492 1.2794833 4.4784283 1.2794833 8.4236094 C 1.2794833 12.36879 4.4913166 15.572386 8.4453131 15.572386 C 12.39931 15.572386 15.611143 12.36879 15.611143 8.4236094 C 15.611143 4.4784283 12.39931 1.2753492 8.4453131 1.2753492 z " />
</svg>
