<?xml version="1.0" encoding="UTF-8" standalone="no"?>
<svg
   width="64"
   height="64"
   version="1.1"
   viewBox="0 0 16.933 16.933"
   id="svg7"
   sodipodi:docname="preferences-security-kerberos.svg"
   inkscape:version="1.4.2 (ebf0e940d0, 2025-05-08)"
   xmlns:inkscape="http://www.inkscape.org/namespaces/inkscape"
   xmlns:sodipodi="http://sodipodi.sourceforge.net/DTD/sodipodi-0.dtd"
   xmlns:xlink="http://www.w3.org/1999/xlink"
   xmlns="http://www.w3.org/2000/svg"
   xmlns:svg="http://www.w3.org/2000/svg"
   xmlns:rdf="http://www.w3.org/1999/02/22-rdf-syntax-ns#"
   xmlns:cc="http://creativecommons.org/ns#"
   xmlns:dc="http://purl.org/dc/elements/1.1/">
  <sodipodi:namedview
     id="namedview7"
     pagecolor="#9c4444"
     bordercolor="#000000"
     borderopacity="0.25"
     inkscape:showpageshadow="2"
     inkscape:pageopacity="0.0"
     inkscape:pagecheckerboard="0"
     inkscape:deskcolor="#d1d1d1"
     inkscape:zoom="4.3531261"
     inkscape:cx="70.179451"
     inkscape:cy="26.188077"
     inkscape:window-width="1272"
     inkscape:window-height="1372"
     inkscape:window-x="0"
     inkscape:window-y="0"
     inkscape:window-maximized="0"
     inkscape:current-layer="svg7"
     showgrid="false" />
  <defs
     id="defs2">
    <filter
       style="color-interpolation-filters:sRGB;"
       inkscape:label="Blur"
       id="filter3"
       x="-0.10843471"
       y="-0.10870992"
       width="1.2168694"
       height="1.2174198">
      <feGaussianBlur
         stdDeviation="0.5 0.5"
         result="blur"
         id="feGaussianBlur3" />
    </filter>
    <style
       id="current-color-scheme"
       type="text/css">.ColorScheme-Text {color:#d8dee9} .ColorScheme-Highlight {color:#3b4252}</style>
    <linearGradient
       id="linearGradient3"
       inkscape:collect="always">
      <stop
         style="stop-color:#000000;stop-opacity:1;"
         offset="0"
         id="stop3" />
      <stop
         style="stop-color:#000000;stop-opacity:0;"
         offset="1"
         id="stop4" />
    </linearGradient>
    <linearGradient
       inkscape:collect="always"
       xlink:href="#linearGradient3"
       id="linearGradient4"
       x1="13.512321"
       y1="13.490874"
       x2="3.3783066"
       y2="3.3568602"
       gradientUnits="userSpaceOnUse" />
  </defs>
  <metadata
     id="metadata2">
    <rdf:RDF>
      <cc:Work
         rdf:about="">
        <dc:format>image/svg+xml</dc:format>
        <dc:type
           rdf:resource="http://purl.org/dc/dcmitype/StillImage" />
      </cc:Work>
    </rdf:RDF>
    <itype>type-a</itype>
  </metadata>
  <ellipse
     style="opacity:1;fill:none;stroke:#000000;stroke-width:0.582072;stroke-dasharray:none;stroke-opacity:1;filter:url(#filter3)"
     id="path1-5"
     cx="8.4450111"
     cy="8.423522"
     rx="6.8752708"
     ry="6.8578653" />
  <ellipse
     style="opacity:1;fill:none;stroke-width:0.58207188;stroke-opacity:1;stroke:currentColor;stroke-dasharray:none;fill-opacity:1"
     id="path1"
     cx="8.4450111"
     cy="8.423522"
     rx="6.8752708"
     ry="6.8578653"
     class="ColorScheme-Text" />
  <ellipse
     style="fill:currentColor;stroke:none;stroke-width:0.285844;stroke-dasharray:none;stroke-opacity:1"
     id="path1-2"
     cx="8.4557552"
     cy="8.423522"
     rx="6.5738997"
     ry="6.5692253"
     class="ColorScheme-Highlight" />
  <path
     d="M 10.0894,5.479413 9.0074665,6.5613482 7.9255305,7.1023149 7.3845635,7.6432816 4.6797255,8.1842513 v 1.0819349 l 0.540967,0.5409668 v 0.540966 l 0.540968,0.540967 v 0.540967 l 0.540968,0.540969 H 10.0894 l 0.540967,0.540969 1.622907,-1.622905 L 11.712306,10.348119 11.171337,7.6432816 10.0894,8.725218 9.0074665,9.2661862 8.4664985,9.807153 5.9488355,10.311334 5.7616685,10.124166 V 9.7097877 L 8.1927765,9.222917 8.7878405,8.6278526 9.8697755,8.0868829 10.758046,7.1986141 10.630391,6.5613558 9.5484555,7.6432892 8.4665205,8.1842606 7.9255535,8.7252258 5.4078905,9.2294057 5.2207245,9.0422406 V 8.6278587 l 2.431105,-0.4868705 0.595066,-0.5950644 1.081935,-0.5409653 0.8882705,-0.88827 z"
     fill="#232629"
     id="path13"
     style="opacity:0.3;fill:#000000;fill-opacity:1;stroke-width:0.540968" />
  <path
     d="M 10.0894,4.9502108 9.0074665,6.032146 7.9255305,6.5731127 7.3845635,7.1140794 4.6797255,7.6550491 V 8.736984 l 0.540967,0.5409668 v 0.5409663 l 0.540968,0.5409669 v 0.540967 l 0.540968,0.540969 H 10.0894 l 0.540967,0.540969 1.622907,-1.622905 L 11.712306,9.8189171 11.171337,7.1140794 10.0894,8.1960158 9.0074665,8.736984 8.4664985,9.2779508 5.9488355,9.7821323 5.7616685,9.5949641 V 9.1805855 L 8.1927765,8.6937148 8.7878405,8.0986504 9.8697755,7.5576807 10.758046,6.6694119 10.63039,6.0321536 9.5484555,7.114087 8.4665205,7.6550584 7.9255535,8.1960236 5.4078905,8.7002035 5.2207245,8.5130384 V 8.0986565 l 2.431105,-0.4868705 0.595066,-0.5950644 1.081935,-0.5409653 0.8882705,-0.88827 z"
     fill="#232629"
     id="path13-4"
     style="fill:currentColor;stroke-width:0.540968"
     class="ColorScheme-Text" />
  <path
     id="gradient-path1"
     style="opacity:0.3;baseline-shift:baseline;display:inline;overflow:visible;vector-effect:none;enable-background:accumulate;stop-color:#000000;stop-opacity:1;fill:url(#linearGradient4)"
     d="M 8.4453131 1.2753492 C 4.4913166 1.2753492 1.2794833 4.4784283 1.2794833 8.4236094 C 1.2794833 12.36879 4.4913166 15.572386 8.4453131 15.572386 C 12.39931 15.572386 15.611143 12.36879 15.611143 8.4236094 C 15.611143 4.4784283 12.39931 1.2753492 8.4453131 1.2753492 z " />
</svg>
