<?xml version="1.0" encoding="UTF-8" standalone="no"?>
<svg
   width="64"
   height="64"
   version="1.1"
   viewBox="0 0 16.933 16.933"
   id="svg7"
   sodipodi:docname="preferences-system-linux.svg"
   inkscape:version="1.4.2 (ebf0e940d0, 2025-05-08)"
   xmlns:inkscape="http://www.inkscape.org/namespaces/inkscape"
   xmlns:sodipodi="http://sodipodi.sourceforge.net/DTD/sodipodi-0.dtd"
   xmlns:xlink="http://www.w3.org/1999/xlink"
   xmlns="http://www.w3.org/2000/svg"
   xmlns:svg="http://www.w3.org/2000/svg"
   xmlns:rdf="http://www.w3.org/1999/02/22-rdf-syntax-ns#"
   xmlns:cc="http://creativecommons.org/ns#"
   xmlns:dc="http://purl.org/dc/elements/1.1/">
  <sodipodi:namedview
     id="namedview7"
     pagecolor="#9c4444"
     bordercolor="#000000"
     borderopacity="0.25"
     inkscape:showpageshadow="2"
     inkscape:pageopacity="0.0"
     inkscape:pagecheckerboard="0"
     inkscape:deskcolor="#d1d1d1"
     inkscape:zoom="4.3531261"
     inkscape:cx="36.755195"
     inkscape:cy="26.188077"
     inkscape:window-width="1543"
     inkscape:window-height="1372"
     inkscape:window-x="0"
     inkscape:window-y="0"
     inkscape:window-maximized="0"
     inkscape:current-layer="svg7"
     showgrid="false" />
  <defs
     id="defs2">
    <filter
       style="color-interpolation-filters:sRGB;"
       inkscape:label="Blur"
       id="filter3"
       x="-0.10843471"
       y="-0.10870992"
       width="1.2168694"
       height="1.2174198">
      <feGaussianBlur
         stdDeviation="0.5 0.5"
         result="blur"
         id="feGaussianBlur3" />
    </filter>
    <style
       id="current-color-scheme"
       type="text/css">.ColorScheme-Text {color:#d8dee9} .ColorScheme-Highlight {color:#3b4252}</style>
    <linearGradient
       id="linearGradient3"
       inkscape:collect="always">
      <stop
         style="stop-color:#000000;stop-opacity:1;"
         offset="0"
         id="stop3" />
      <stop
         style="stop-color:#000000;stop-opacity:0;"
         offset="1"
         id="stop4" />
    </linearGradient>
    <linearGradient
       inkscape:collect="always"
       xlink:href="#linearGradient3"
       id="linearGradient4"
       x1="13.512321"
       y1="13.490874"
       x2="3.3783066"
       y2="3.3568602"
       gradientUnits="userSpaceOnUse" />
  </defs>
  <metadata
     id="metadata2">
    <rdf:RDF>
      <cc:Work
         rdf:about="">
        <dc:format>image/svg+xml</dc:format>
        <dc:type
           rdf:resource="http://purl.org/dc/dcmitype/StillImage" />
      </cc:Work>
    </rdf:RDF>
    <itype>type-a</itype>
  </metadata>
  <ellipse
     style="opacity:1;fill:none;stroke:#000000;stroke-width:0.582072;stroke-dasharray:none;stroke-opacity:1;filter:url(#filter3)"
     id="path1-5"
     cx="8.4450111"
     cy="8.423522"
     rx="6.8752708"
     ry="6.8578653" />
  <ellipse
     style="opacity:1;fill:none;stroke-width:0.58207188;stroke-opacity:1;stroke:currentColor;stroke-dasharray:none;fill-opacity:1"
     id="path1"
     cx="8.4450111"
     cy="8.423522"
     rx="6.8752708"
     ry="6.8578653"
     class="ColorScheme-Text" />
  <ellipse
     style="fill:currentColor;stroke:none;stroke-width:0.285844;stroke-dasharray:none;stroke-opacity:1"
     id="path1-2"
     cx="8.4557552"
     cy="8.423522"
     rx="6.5738997"
     ry="6.5692253"
     class="ColorScheme-Highlight" />
  <path
     id="path8"
     style="opacity:0.3;fill:#000000;fill-opacity:1;stroke-width:0.274044"
     d="m 8.6061002,5.2094823 c -0.03655,-0.00104 -0.07329,-2.796e-4 -0.109189,0.00161 -0.50068,0.026034 -0.988959,0.2250591 -1.019103,1.1047423 -0.0137,0.4028456 0.08153,0.8183269 -0.01713,1.2091148 -0.228827,0.9065396 -1.234998,1.5544281 -1.295289,2.4872766 -0.01206,0.187 -0.01236,0.385618 0.001,0.587697 0.0041,-0.0058 0.0081,-0.01139 0.01231,-0.01713 0.05313,-0.07252 0.110449,-0.136436 0.193758,-0.155756 0.02129,-0.0049 0.04288,-0.0072 0.06477,-0.007 0.0093,1.11e-4 0.01897,6.63e-4 0.02837,0.0016 a 0.288843,0.288843 0 0 1 0.0069,0.0011 c 0.0025,3.02e-4 0.005,0.0012 0.0075,0.0016 0.01092,0.0016 0.02176,0.0033 0.03265,0.0059 0.08734,0.02061 0.172629,0.07109 0.239788,0.126317 0.235953,0.194024 0.271832,0.552033 0.457634,0.794837 0.01891,0.02465 0.03988,0.04764 0.06208,0.06958 0.356468,0.179589 0.660353,0.207863 0.511159,0.02569 l -0.902321,-1.10312 c 0.03344,-0.182514 0.08206,-0.3642568 0.12043,-0.5459485 0.09482,-0.4499814 0.411596,-0.9218009 0.537384,-1.2824437 0.120698,-0.3460558 -0.03396,-0.5900224 0.211421,-0.8360501 -0.09091,-0.058783 -0.174103,-0.1260676 -0.177167,-0.2232163 -0.0037,-0.1123296 0.0935,-0.1955094 0.195363,-0.2686923 a 0.28692472,0.42750954 0 0 1 -0.149868,-0.3752055 0.28692472,0.42750954 0 0 1 0.28689,-0.4276595 0.28692472,0.42750954 0 0 1 0.286891,0.4276595 0.28692472,0.42750954 0 0 1 -0.0096,0.11026 c 0.04168,-0.015177 0.08431,-0.024982 0.128458,-0.027297 0.05493,-0.00292 0.108541,0.00556 0.161108,0.02141 a 0.40613408,0.52506942 0 0 1 -0.01122,-0.1231491 0.40613408,0.52506942 0 0 1 0.406249,-0.5250737 0.40613408,0.52506942 0 0 1 0.40625,0.5250737 0.40613408,0.52506942 0 0 1 -0.143981,0.4014325 c 0.07404,0.035249 0.130539,0.082127 0.140235,0.1578968 0.0057,0.044201 -0.0035,0.08401 -0.02356,0.120965 0.315905,0.2534132 0.193,0.8170127 0.320076,1.1277577 0.132637,0.3250169 0.278073,0.4271069 0.403038,0.7932306 0.07207,0.2099183 0.2153518,0.460194 0.2874258,0.7391709 -0.119758,-0.01919 -0.2588748,-0.01149 -0.3238228,0.07922 -0.06303,0.08826 -0.07918,0.186694 -0.06369,0.279933 0.0011,-0.0011 0.0026,-0.0021 0.0037,-0.0032 0.01295,0.06155 0.04221,0.123686 0.08136,0.179841 v 5.62e-4 c 0.06524,0.09344 0.1586998,0.169359 0.2520998,0.195363 0.154664,0.04293 0.370804,-0.03986 0.475296,-0.174489 0.01492,-0.01923 0.0276,-0.03935 0.03746,-0.06048 0.08162,0.0022 0.164906,2.5e-4 0.24193,0.0107 0.03471,0.0047 0.06802,0.01184 0.09956,0.02301 0.04403,-0.219626 0.06484,-0.440355 0.06156,-0.651926 C 11.107473,9.0853992 10.082804,8.4387309 9.8441122,7.5426051 9.7416182,7.1583946 9.8121822,6.7482439 9.7927322,6.3511534 9.7542022,5.5732093 9.1542342,5.225073 8.6060982,5.2094793 Z m 0.210887,1.3948441 a 0.16634507,0.27486672 0 0 0 -0.166462,0.2745799 0.16634507,0.27486672 0 0 0 0.01713,0.1225707 c 0.05159,0.026814 0.102957,0.054415 0.153616,0.078681 0.02525,0.012162 0.05293,0.023449 0.08243,0.03372 a 0.16634507,0.27486672 0 0 0 0.07975,-0.2349719 0.16634507,0.27486672 0 0 0 -0.16646,-0.2745799 z m -0.909915,0.070117 a 0.1266086,0.2047113 0 0 0 -0.126852,0.204463 0.1266086,0.2047113 0 0 0 0.126852,0.2049982 0.1266086,0.2047113 0 0 0 0.0054,0 c 0.02751,-0.020695 0.05607,-0.041686 0.0851,-0.061553 a 0.1266086,0.2047113 0 0 0 0.03583,-0.1434451 0.1266086,0.2047113 0 0 0 -0.126318,-0.2044628 z m 0.411602,0.3302451 c -0.05668,0.00297 -0.116382,0.024271 -0.178235,0.058341 -0.06186,0.034071 -0.124804,0.080346 -0.1868,0.1273879 -0.06967,0.052856 -0.146827,0.101148 -0.200181,0.1487976 -0.05335,0.047649 -0.07393,0.082613 -0.07279,0.1172183 9.19e-4,0.029079 0.02024,0.057993 0.07279,0.098485 0.05256,0.040492 0.127758,0.080766 0.196969,0.1295289 0.07536,0.053065 0.149473,0.1084871 0.221056,0.1487977 0.07158,0.04031 0.13847,0.064074 0.202857,0.064764 0.06405,6.023e-4 0.131459,-0.021167 0.202857,-0.058877 0.0714,-0.037709 0.145067,-0.090147 0.218379,-0.1418394 0.09065,-0.063854 0.19782,-0.1208356 0.272975,-0.1798418 0.03758,-0.029503 0.06621,-0.058497 0.08136,-0.082963 0.01515,-0.024467 0.0191,-0.041217 0.01606,-0.064764 -0.0022,-0.016953 -0.0064,-0.024201 -0.02301,-0.039073 -0.01656,-0.014873 -0.04672,-0.032756 -0.08564,-0.048707 -0.05982,-0.024517 -0.2069,-0.065998 -0.281003,-0.101696 -0.08734,-0.041832 -0.168862,-0.09026 -0.245676,-0.1247116 -0.07681,-0.034452 -0.146286,-0.054336 -0.211957,-0.050848 z m -1.88245,3.5288595 c -0.01366,-1.62e-4 -0.02667,0.0013 -0.03961,0.0043 -0.04346,0.01008 -0.08302,0.04741 -0.132205,0.114542 -0.03482,0.04745 -0.07923,0.116697 -0.128994,0.171278 -0.009,0.0099 -0.01876,0.01973 -0.02837,0.0289 -0.0085,0.0081 -0.01933,0.01791 -0.03104,0.0273 -0.02333,0.01863 -0.04748,0.0351 -0.07226,0.04978 v 0.0027 l -0.05887,0.0289 -5.1e-4,5.62e-4 -0.0054,0.0021 -0.01606,0.0086 h -10e-4 c -0.01917,0.0086 -0.0392,0.01625 -0.05245,0.02195 -0.01385,0.006 -0.03701,0.01698 -0.05673,0.02516 -0.132638,0.05491 -0.231121,0.102346 -0.269228,0.178771 -0.0035,0.007 -0.0063,0.01358 -0.0081,0.0198 -0.0014,0.0053 -0.0023,0.01091 -0.0032,0.01713 -0.0043,0.02717 -0.0029,0.05959 0.0048,0.09849 0.0077,0.03889 0.02087,0.08316 0.03479,0.131135 0.02696,0.09295 0.06208,0.213312 0.03158,0.333992 -0.0075,0.02969 -0.02128,0.05491 -0.0364,0.07601 l -0.08564,0.119359 c 0.01296,0.05938 0.05196,0.119682 0.11026,0.177701 0.0625,0.06219 0.144529,0.119302 0.222126,0.16539 0.08713,0.05186 0.195436,0.07292 0.319004,0.08671 0.119709,0.01336 0.264461,0.02122 0.397687,0.05834 0.09452,0.0263 0.190068,0.0787 0.261199,0.112401 0.07587,0.03595 0.139902,0.05851 0.198575,0.0562 0.162147,-0.0062 0.352827,-0.03798 0.493494,-0.106513 0.09378,-0.04569 0.163245,-0.10489 0.201787,-0.180912 0.02745,-0.05418 0.02827,-0.120266 0.0069,-0.202322 -0.0213,-0.08206 -0.06493,-0.173725 -0.110795,-0.259594 -0.01116,-0.02089 -0.02219,-0.04141 -0.03265,-0.06048 -0.0082,-0.01483 -0.01673,-0.02831 -0.02623,-0.04122 -0.0091,-0.01243 -0.02051,-0.02571 -0.03319,-0.03961 -0.0456,-0.05005 -0.105841,-0.09824 -0.170746,-0.150938 -0.06288,-0.05105 -0.136644,-0.112538 -0.193223,-0.186265 -0.102988,-0.134586 -0.164842,-0.302586 -0.223196,-0.438902 -0.06024,-0.140713 -0.122068,-0.260493 -0.217308,-0.338809 -0.0576,-0.04737 -0.132346,-0.08966 -0.19697,-0.104908 -0.006,-0.0014 -0.01316,-0.0023 -0.02301,-0.0037 -0.0039,-5.61e-4 -0.0065,-0.0013 -0.0081,-0.0016 h -0.0016 v -5.61e-4 h -5.1e-4 l -0.0022,-5.62e-4 c -0.0055,-4.93e-4 -0.01114,-4.65e-4 -0.01659,-5.61e-4 z m 3.406288,0.166996 c -0.0041,0.0068 -0.008,0.0135 -0.01178,0.02034 -0.0072,0.01318 -0.01356,0.02657 -0.0198,0.04121 l -5.62e-4,5.61e-4 c -0.0023,0.0052 -0.0043,0.01072 -0.0064,0.01606 l -10e-4,0.0021 c -0.01427,0.03744 -0.02429,0.07703 -0.03158,0.119895 -0.01128,0.06632 -0.01523,0.139206 -0.01713,0.215703 -0.0027,0.108813 -0.0012,0.23639 -0.01766,0.355937 v 5.62e-4 c -3.28e-4,0.0024 -7.14e-4,0.0046 -10e-4,0.007 v 5.61e-4 c -0.0061,0.04204 -0.01508,0.08482 -0.02677,0.126317 -0.0062,0.02197 -0.01305,0.04281 -0.02087,0.06316 v 0.0011 l -0.0081,0.01927 v 5.62e-4 c -0.02816,0.0681 -0.0657,0.134272 -0.09848,0.192687 -0.0045,0.0081 -0.009,0.01573 -0.01338,0.02355 v 5.62e-4 c -0.049,0.08824 -0.08743,0.167146 -0.09688,0.243535 -0.01296,0.105033 -0.02583,0.221581 -0.0182,0.320076 0.0077,0.0985 0.03357,0.171204 0.08457,0.216239 0.06389,0.05623 0.150673,0.08548 0.254776,0.09313 0.156152,0.01148 0.3450178,-0.02985 0.4977748,-0.08403 0.05555,-0.01966 0.106702,-0.06428 0.163785,-0.125783 0.05352,-0.05766 0.122509,-0.141782 0.200717,-0.201251 0.109817,-0.08378 0.24156,-0.144585 0.347908,-0.201252 0.109778,-0.05849 0.20277,-0.117864 0.264409,-0.19804 0.05462,-0.07118 0.109493,-0.154019 0.144517,-0.234436 0.03502,-0.08042 0.04851,-0.155353 0.03533,-0.216238 -10e-4,-0.005 -0.0023,-0.0092 -0.0032,-0.01285 -0.0021,-0.0013 -0.0045,-0.0033 -0.0086,-0.0053 -0.0098,-0.005 -0.0383,-0.01587 -0.06423,-0.02783 h -0.0027 l -0.01445,-0.008 h -0.0037 l -0.01338,-0.0086 h -0.0048 l -0.02944,-0.02301 c -0.01015,-0.008 -0.01805,-0.01694 -0.02035,-0.01927 -0.0058,-0.0059 -0.01287,-0.01395 -0.0198,-0.02355 -0.03203,-0.04426 -0.05162,-0.09168 -0.06477,-0.138629 -0.02054,-0.07339 -0.02746,-0.158942 -0.03373,-0.222125 -0.0054,-0.05398 -0.01142,-0.102444 -0.02248,-0.139163 -0.01109,-0.03689 -0.02503,-0.06042 -0.04603,-0.07922 -0.01811,-0.01618 -0.03875,-0.02853 -0.06316,-0.038 -0.02442,-0.0095 -0.05277,-0.01588 -0.08564,-0.02034 -0.04889,-0.0066 -0.105989,-0.0076 -0.167531,-0.0086 -0.0043,0.0062 -0.0088,0.01229 -0.01338,0.0182 -0.127702,0.16454 -0.38616,0.267352 -0.587697,0.211421 -0.123367,-0.03435 -0.2363348,-0.129681 -0.3109758,-0.236578 v -5.61e-4 l -0.01927,-0.0273 v -0.0016 c -0.0016,-0.0027 -0.0032,-0.0053 -0.0048,-0.008 z m -0.26334,0.947916 c -0.306147,0.256084 -0.67008,0.448164 -1.00251,0.470479 -0.306935,0.02068 -0.615981,-0.08163 -0.885292,-0.244071 0.08865,0.170457 0.169708,0.370254 0.08885,0.529891 -0.0707,0.13946 -0.213623,0.226428 -0.375206,0.278327 0.379598,0.0082 0.814138,-0.277295 1.212862,-0.304554 0.233899,-0.01581 0.486406,0.0533 0.729001,0.09099 -0.0083,-0.112474 0.0058,-0.233651 0.01874,-0.338274 0.01245,-0.100693 0.05903,-0.191743 0.109188,-0.282073 v -5.62e-4 c 0.03668,-0.06603 0.07539,-0.131445 0.104374,-0.200181 z" />
  <path
     id="path8-7"
     class="ColorScheme-Text"
     style="fill:currentColor;fill-opacity:1;stroke-width:0.274044"
     d="m 8.6061002,4.6801752 c -0.03655,-0.00104 -0.07329,-2.796e-4 -0.109189,0.00161 -0.50068,0.026034 -0.988959,0.2250591 -1.019103,1.1047423 -0.0137,0.4028451 0.08153,0.8183271 -0.01713,1.2091151 -0.228827,0.906539 -1.234998,1.554428 -1.295289,2.487276 -0.01206,0.187 -0.01236,0.385618 0.001,0.5876974 0.0041,-0.0058 0.0081,-0.01139 0.01231,-0.01713 0.05313,-0.07252 0.110449,-0.1364364 0.193758,-0.1557564 0.02129,-0.0049 0.04288,-0.0072 0.06477,-0.007 0.0093,1.12e-4 0.01897,6.64e-4 0.02837,0.0016 a 0.288843,0.288843 0 0 1 0.0069,0.0011 c 0.0025,3.02e-4 0.005,0.0012 0.0075,0.0016 0.01092,0.0016 0.02176,0.0033 0.03265,0.0059 0.08734,0.02061 0.172629,0.07109 0.239788,0.1263184 0.235953,0.194023 0.271832,0.552033 0.457634,0.794836 0.01891,0.02465 0.03988,0.04764 0.06208,0.06958 0.356468,0.179589 0.660353,0.207863 0.511159,0.02569 L 6.8809872,9.8142276 c 0.03344,-0.182514 0.08206,-0.364257 0.12043,-0.545948 0.09482,-0.449982 0.411596,-0.921801 0.537384,-1.282444 0.120698,-0.346056 -0.03396,-0.590022 0.211421,-0.83605 -0.09091,-0.05878 -0.174103,-0.126068 -0.177167,-0.223216 -0.0037,-0.11233 0.0935,-0.19551 0.195363,-0.268693 a 0.28692472,0.42750954 0 0 1 -0.149868,-0.375205 0.28692472,0.42750954 0 0 1 0.28689,-0.4276596 0.28692472,0.42750954 0 0 1 0.286891,0.4276596 0.28692472,0.42750954 0 0 1 -0.0096,0.11026 c 0.04168,-0.01518 0.08431,-0.02498 0.128458,-0.0273 0.05493,-0.0029 0.108541,0.0056 0.161108,0.02141 a 0.40613408,0.52506942 0 0 1 -0.01122,-0.123149 0.40613408,0.52506942 0 0 1 0.406249,-0.5250739 0.40613408,0.52506942 0 0 1 0.40625,0.5250739 0.40613408,0.52506942 0 0 1 -0.143981,0.401432 c 0.07404,0.03525 0.130539,0.08213 0.140235,0.157897 0.0057,0.0442 -0.0035,0.08401 -0.02356,0.120965 0.315905,0.253413 0.193,0.817013 0.320076,1.127758 0.132637,0.325017 0.278073,0.427107 0.403038,0.79323 0.07207,0.209919 0.2153518,0.460194 0.2874258,0.739172 -0.119758,-0.01919 -0.2588748,-0.01149 -0.3238228,0.07922 -0.06303,0.08826 -0.07918,0.186693 -0.06369,0.279932 0.0011,-0.0011 0.0026,-0.0021 0.0037,-0.0032 0.01295,0.06156 0.04221,0.1236864 0.08136,0.1798414 v 5.62e-4 c 0.06524,0.09344 0.1586998,0.169359 0.2520998,0.195364 0.154664,0.04292 0.370804,-0.03986 0.475296,-0.174489 0.01492,-0.01923 0.0276,-0.03935 0.03746,-0.06048 0.08162,0.0022 0.164906,2.49e-4 0.24193,0.0107 0.03471,0.0047 0.06802,0.01184 0.09956,0.02301 0.04403,-0.2196274 0.06484,-0.4403554 0.06156,-0.6519264 -0.01479,-0.926828 -1.039459,-1.573497 -1.2781508,-2.469623 -0.102494,-0.38421 -0.03193,-0.794361 -0.05138,-1.1914513 -0.03853,-0.7779441 -0.638498,-1.1260804 -1.186634,-1.1416741 z m 0.210887,1.3948444 a 0.16634507,0.27486672 0 0 0 -0.166462,0.27458 0.16634507,0.27486672 0 0 0 0.01713,0.12257 c 0.05159,0.02681 0.102957,0.05442 0.153616,0.07868 0.02525,0.01216 0.05293,0.02345 0.08243,0.03372 a 0.16634507,0.27486672 0 0 0 0.07975,-0.234972 0.16634507,0.27486672 0 0 0 -0.16646,-0.27458 z m -0.909915,0.07012 a 0.1266086,0.2047113 0 0 0 -0.126852,0.204463 0.1266086,0.2047113 0 0 0 0.126852,0.204998 0.1266086,0.2047113 0 0 0 0.0054,0 c 0.02751,-0.02069 0.05607,-0.04169 0.0851,-0.06155 a 0.1266086,0.2047113 0 0 0 0.03583,-0.143445 0.1266086,0.2047113 0 0 0 -0.126318,-0.204463 z m 0.411602,0.330245 c -0.05668,0.003 -0.116382,0.02427 -0.178235,0.05834 -0.06186,0.03407 -0.124804,0.08035 -0.1868,0.127388 -0.06967,0.05286 -0.146827,0.101148 -0.200181,0.148797 -0.05335,0.04765 -0.07393,0.08261 -0.07279,0.117219 9.19e-4,0.02908 0.02024,0.05799 0.07279,0.09849 0.05256,0.04049 0.127758,0.08077 0.196969,0.129529 0.07536,0.05307 0.149473,0.108487 0.221056,0.148797 0.07158,0.04031 0.13847,0.06407 0.202857,0.06476 0.06405,6.03e-4 0.131459,-0.02117 0.202857,-0.05888 0.0714,-0.03771 0.145067,-0.09015 0.218379,-0.141839 0.09065,-0.06385 0.19782,-0.120836 0.272975,-0.179842 0.03758,-0.0295 0.06621,-0.0585 0.08136,-0.08296 0.01515,-0.02447 0.0191,-0.04122 0.01606,-0.06476 -0.0022,-0.01695 -0.0064,-0.0242 -0.02301,-0.03907 -0.01656,-0.01487 -0.04672,-0.03276 -0.08564,-0.04871 -0.05982,-0.02452 -0.2069,-0.066 -0.281003,-0.101696 -0.08734,-0.04183 -0.168862,-0.09026 -0.245676,-0.124712 -0.07681,-0.03445 -0.146286,-0.05434 -0.211957,-0.05085 z m -1.88245,3.5288594 c -0.01366,-1.62e-4 -0.02667,0.0013 -0.03961,0.0043 -0.04346,0.01008 -0.08302,0.04741 -0.132205,0.114542 -0.03482,0.04745 -0.07923,0.116697 -0.128994,0.171278 -0.009,0.0099 -0.01876,0.01973 -0.02837,0.0289 -0.0085,0.0081 -0.01933,0.01791 -0.03104,0.0273 -0.02333,0.01863 -0.04748,0.0351 -0.07226,0.04978 v 0.0027 l -0.05887,0.0289 -5.1e-4,5.61e-4 -0.0054,0.0021 -0.01606,0.0086 h -10e-4 c -0.01917,0.0086 -0.0392,0.01625 -0.05245,0.02195 -0.01385,0.006 -0.03701,0.01698 -0.05673,0.02516 -0.132638,0.05491 -0.231121,0.102346 -0.269228,0.178771 -0.0035,0.007 -0.0063,0.01358 -0.0081,0.0198 -0.0014,0.0053 -0.0023,0.01091 -0.0032,0.01713 -0.0043,0.02717 -0.0029,0.05959 0.0048,0.09849 0.0077,0.03889 0.02087,0.08316 0.03479,0.131135 0.02696,0.09295 0.06208,0.213312 0.03158,0.333992 -0.0075,0.02969 -0.02128,0.05491 -0.0364,0.07601 l -0.08564,0.119359 c 0.01296,0.05937 0.05196,0.119682 0.11026,0.177701 0.0625,0.06219 0.144529,0.119302 0.222126,0.16539 0.08713,0.05186 0.195436,0.07292 0.319004,0.08671 0.119709,0.01336 0.264461,0.02122 0.397687,0.05834 0.09452,0.0263 0.190068,0.0787 0.261199,0.112401 0.07587,0.03595 0.139902,0.05851 0.198575,0.0562 0.162147,-0.0062 0.352827,-0.03798 0.493494,-0.106513 0.09378,-0.04569 0.163245,-0.10489 0.201787,-0.180912 0.02745,-0.05418 0.02827,-0.120266 0.0069,-0.202322 -0.0213,-0.08206 -0.06493,-0.173724 -0.110795,-0.259593 -0.01116,-0.02089 -0.02219,-0.04141 -0.03265,-0.06048 -0.0082,-0.01483 -0.01673,-0.02831 -0.02623,-0.04122 -0.0091,-0.01243 -0.02051,-0.02571 -0.03319,-0.03961 -0.0456,-0.05005 -0.105841,-0.09824 -0.170746,-0.150938 -0.06288,-0.05105 -0.136644,-0.112539 -0.193223,-0.186265 -0.102988,-0.134587 -0.164842,-0.302587 -0.223196,-0.438903 -0.06024,-0.140713 -0.122068,-0.260493 -0.217308,-0.338809 -0.0576,-0.04736 -0.132346,-0.08966 -0.19697,-0.104908 -0.006,-0.0014 -0.01316,-0.0023 -0.02301,-0.0037 -0.0039,-5.61e-4 -0.0065,-0.0013 -0.0081,-0.0016 h -0.0016 v -5.61e-4 h -5.1e-4 l -0.0022,-5.61e-4 c -0.0055,-4.93e-4 -0.01114,-4.66e-4 -0.01659,-5.62e-4 z m 3.406288,0.166996 c -0.0041,0.0068 -0.008,0.0135 -0.01178,0.02034 -0.0072,0.01318 -0.01356,0.02657 -0.0198,0.04122 l -5.62e-4,5.62e-4 c -0.0023,0.0052 -0.0043,0.01072 -0.0064,0.01606 l -10e-4,0.0021 c -0.01427,0.03744 -0.02429,0.07703 -0.03158,0.119894 -0.01128,0.06632 -0.01523,0.139207 -0.01713,0.215704 -0.0027,0.108812 -0.0012,0.236389 -0.01766,0.355936 v 5.62e-4 c -3.28e-4,0.0024 -7.14e-4,0.0046 -10e-4,0.007 v 5.61e-4 c -0.0061,0.04204 -0.01508,0.08482 -0.02677,0.126317 -0.0062,0.02197 -0.01305,0.04281 -0.02087,0.06316 v 0.0011 l -0.0081,0.01927 v 5.62e-4 c -0.02816,0.0681 -0.0657,0.134272 -0.09848,0.192688 -0.0045,0.0081 -0.009,0.01573 -0.01338,0.02355 v 5.61e-4 c -0.049,0.08824 -0.08743,0.167146 -0.09688,0.243536 -0.01296,0.105033 -0.02583,0.22158 -0.0182,0.320075 0.0077,0.0985 0.03357,0.171204 0.08457,0.216239 0.06389,0.05623 0.150673,0.08548 0.254776,0.09313 0.156152,0.01148 0.3450178,-0.02985 0.4977748,-0.08403 0.05555,-0.01966 0.106702,-0.06428 0.163785,-0.125782 0.05352,-0.05766 0.122509,-0.141783 0.200717,-0.201252 0.109817,-0.08378 0.24156,-0.144585 0.347908,-0.201251 0.109778,-0.0585 0.20277,-0.117865 0.264409,-0.198041 0.05462,-0.07118 0.109493,-0.154019 0.144517,-0.234436 0.03502,-0.08042 0.04851,-0.155353 0.03533,-0.216238 -10e-4,-0.0051 -0.0023,-0.0092 -0.0032,-0.01285 -0.0021,-0.0013 -0.0045,-0.0033 -0.0086,-0.0053 -0.0098,-0.0049 -0.0383,-0.01587 -0.06423,-0.02783 h -0.0027 l -0.01445,-0.008 h -0.0037 l -0.01338,-0.0086 h -0.0048 l -0.02944,-0.02301 c -0.01015,-0.008 -0.01805,-0.01693 -0.02035,-0.01927 -0.0058,-0.0059 -0.01287,-0.01395 -0.0198,-0.02355 -0.03203,-0.04426 -0.05162,-0.09168 -0.06477,-0.138628 -0.02054,-0.07339 -0.02746,-0.158943 -0.03373,-0.222126 -0.0054,-0.05398 -0.01142,-0.102444 -0.02248,-0.139163 -0.01109,-0.03689 -0.02503,-0.06042 -0.04603,-0.07922 -0.01811,-0.01618 -0.03875,-0.02853 -0.06316,-0.038 -0.02442,-0.0095 -0.05277,-0.01588 -0.08564,-0.02034 -0.04889,-0.0066 -0.105989,-0.0076 -0.167531,-0.0086 -0.0043,0.0062 -0.0088,0.01229 -0.01338,0.0182 -0.127702,0.16454 -0.38616,0.267352 -0.587697,0.211421 -0.123367,-0.03435 -0.2363348,-0.129681 -0.3109758,-0.236578 v -5.61e-4 l -0.01927,-0.0273 v -0.0016 c -0.0016,-0.0026 -0.0032,-0.0053 -0.0048,-0.008 z m -0.26334,0.947916 c -0.306147,0.256085 -0.67008,0.448164 -1.00251,0.470479 -0.306935,0.02068 -0.615981,-0.08163 -0.885292,-0.244071 0.08865,0.170457 0.169708,0.370254 0.08885,0.529891 -0.0707,0.139461 -0.213623,0.226428 -0.375206,0.278327 0.379598,0.0082 0.814138,-0.277295 1.212862,-0.304554 0.233899,-0.01581 0.486406,0.0533 0.729001,0.09099 -0.0083,-0.112474 0.0058,-0.233651 0.01874,-0.338274 0.01245,-0.100692 0.05903,-0.191742 0.109188,-0.282073 v -5.62e-4 c 0.03668,-0.06603 0.07539,-0.131445 0.104374,-0.20018 z" />
  <path
     id="gradient-path1"
     style="opacity:0.3;baseline-shift:baseline;display:inline;overflow:visible;vector-effect:none;enable-background:accumulate;stop-color:#000000;stop-opacity:1;fill:url(#linearGradient4)"
     d="M 8.4453131 1.2753492 C 4.4913166 1.2753492 1.2794833 4.4784283 1.2794833 8.4236094 C 1.2794833 12.36879 4.4913166 15.572386 8.4453131 15.572386 C 12.39931 15.572386 15.611143 12.36879 15.611143 8.4236094 C 15.611143 4.4784283 12.39931 1.2753492 8.4453131 1.2753492 z " />
</svg>
