<?xml version='1.0' encoding='UTF-8'?>
<svg xmlns:inkscape="http://www.inkscape.org/namespaces/inkscape" xmlns:sodipodi="http://sodipodi.sourceforge.net/DTD/sodipodi-0.dtd" xmlns:xlink="http://www.w3.org/1999/xlink" xmlns="http://www.w3.org/2000/svg" xmlns:svg="http://www.w3.org/2000/svg" xmlns:rdf="http://www.w3.org/1999/02/22-rdf-syntax-ns#" xmlns:cc="http://creativecommons.org/ns#" xmlns:dc="http://purl.org/dc/elements/1.1/" width="64" height="64" version="1.1" viewBox="0 0 16.933 16.933" id="svg7" sodipodi:docname="applications-system.svg" inkscape:version="1.4 (e7c3feb100, 2024-10-09)">
  <sodipodi:namedview id="namedview7" pagecolor="#9c4444" bordercolor="#000000" borderopacity="0.25" inkscape:showpageshadow="2" inkscape:pageopacity="0.0" inkscape:pagecheckerboard="0" inkscape:deskcolor="#d1d1d1" inkscape:zoom="4.3531261" inkscape:cx="36.984915" inkscape:cy="25.958357" inkscape:window-width="1280" inkscape:window-height="669" inkscape:window-x="59" inkscape:window-y="140" inkscape:window-maximized="0" inkscape:current-layer="svg7" showgrid="false"/>
  <defs id="defs2">
    <filter style="color-interpolation-filters:sRGB;" inkscape:label="Blur" id="filter3" x="-0.10843471" y="-0.10870992" width="1.2168694" height="1.2174198">
      <feGaussianBlur stdDeviation="0.5 0.5" result="blur" id="feGaussianBlur3"/>
    </filter>
    <style id="current-color-scheme" type="text/css">.ColorScheme-Text {color:#d8dee9} .ColorScheme-Highlight {color:#3b4252}</style><linearGradient id="linearGradient3" inkscape:collect="always">
      <stop style="stop-color:#000000;stop-opacity:1;" offset="0" id="stop3"/>
      <stop style="stop-color:#000000;stop-opacity:0;" offset="1" id="stop4"/>
    </linearGradient>
    <linearGradient inkscape:collect="always" xlink:href="#linearGradient3" id="linearGradient4" x1="13.512321" y1="13.490874" x2="3.3783066" y2="3.3568602" gradientUnits="userSpaceOnUse"/>
  </defs>
  <metadata id="metadata2">
    <rdf:RDF>
      <cc:Work rdf:about="">
        <dc:format>image/svg+xml</dc:format>
        <dc:type rdf:resource="http://purl.org/dc/dcmitype/StillImage"/>
      </cc:Work>
    </rdf:RDF>
  </metadata>
  <ellipse style="opacity:1;fill:none;stroke:#000000;stroke-width:0.582072;stroke-dasharray:none;stroke-opacity:1;filter:url(#filter3)" id="path1-5" cx="8.4450111" cy="8.423522" rx="6.8752708" ry="6.8578653"/>
  <ellipse style="opacity:1;fill:none;stroke-width:0.58207188;stroke-opacity:1;stroke:currentColor;stroke-dasharray:none;fill-opacity:1" id="path1" cx="8.4450111" cy="8.423522" rx="6.8752708" ry="6.8578653" class="ColorScheme-Text"/>
  <ellipse style="fill:currentColor;stroke:none;stroke-width:0.285844;stroke-dasharray:none;stroke-opacity:1" id="path1-2" cx="8.4557552" cy="8.423522" rx="6.5738997" ry="6.5692253" class="ColorScheme-Highlight"/>
<path id="path6-1" style="fill:#000000;fill-opacity:1;stroke:none;stroke-width:0.233382;stroke-dasharray:none;stroke-dashoffset:2.2;stroke-opacity:0.3;opacity:0.3" d="m 8.4145534,5.3405827 c -0.2940992,1.929e-4 -0.51546,0.055833 -0.7940453,0.1937252 -0.4883076,0.2416997 -0.8315809,0.6412322 -1.014208,1.1796718 -0.053005,0.1562633 -0.056012,0.2300689 -0.064728,1.7713306 -0.010355,1.8316877 -0.010628,1.8256627 0.2001068,2.2640747 0.1046073,0.217625 0.1568251,0.288523 0.3664822,0.496847 0.3086363,0.306674 0.5922724,0.46106 1.0105614,0.549269 0.06524,0.01376 0.2512555,0.0208 0.4134322,0.01596 0.2332097,-0.0069 0.3395483,-0.02389 0.5091561,-0.08113 0.526458,-0.177701 0.9201509,-0.525011 1.1559692,-1.020134 0.187617,-0.393918 0.184608,-0.359304 0.184608,-2.1309734 0,-1.8073446 0.0068,-1.7383551 -0.218795,-2.197526 C 10.060626,6.1730826 9.9993481,6.08919 9.8212262,5.9126433 9.4449526,5.5396981 9.0605403,5.3682716 8.5453749,5.3437756 8.500009,5.3416285 8.4565675,5.3405572 8.4145534,5.3405827 Z m 2.7983006,4.3914054 c -0.101468,0 -0.139464,0.077516 -0.158625,0.3245469 -0.04641,0.59843 -0.26752,1.124733 -0.665503,1.585353 C 10.103774,11.971687 9.5728426,12.29488 9.1178894,12.41542 8.8540262,12.48533 8.3400821,12.51109 8.0631131,12.46829 7.7736409,12.423562 7.3726536,12.278857 7.1195576,12.127793 6.8802365,11.984949 6.4673026,11.600709 6.3223214,11.385712 6.0842307,11.032638 5.9072422,10.546946 5.8783495,10.168662 5.8521337,9.8254906 5.8414251,9.7857658 5.7694066,9.7529524 5.7204243,9.7306363 5.6859347,9.7311661 5.6331158,9.7552395 l -0.070655,0.032364 0.0155,0.3003875 c 0.049451,0.978738 0.6407331,1.893708 1.5297445,2.366634 0.2688487,0.14302 0.4637125,0.213952 0.7676081,0.279877 0.283198,0.06144 0.8250319,0.06878 1.1058289,0.01503 0.5568346,-0.10654 1.0302507,-0.348401 1.4517997,-0.742081 0.540655,-0.504913 0.858874,-1.178625 0.917573,-1.942263 0.01507,-0.1960374 0.01084,-0.2336434 -0.03099,-0.2798761 -0.02658,-0.029374 -0.07438,-0.053331 -0.106663,-0.053331 z"/>
  <path id="path6" style="fill:currentColor;fill-opacity:1;stroke:none;stroke-width:0.233382;stroke-dasharray:none;stroke-dashoffset:2.2;stroke-opacity:0.3" d="m 8.4145534,4.8114265 c -0.2940992,1.929e-4 -0.51546,0.055833 -0.7940453,0.1937252 -0.4883076,0.2416997 -0.8315809,0.6412322 -1.014208,1.1796718 -0.053005,0.1562633 -0.056012,0.2300689 -0.064728,1.7713306 -0.010355,1.8316878 -0.010628,1.825663 0.2001068,2.2640749 0.1046073,0.217625 0.1568251,0.288523 0.3664822,0.496847 0.3086363,0.306674 0.5922724,0.46106 1.0105614,0.549269 0.06524,0.01376 0.2512555,0.0208 0.4134322,0.01596 0.2332097,-0.0069 0.3395483,-0.02389 0.5091561,-0.08113 0.526458,-0.177701 0.9201509,-0.525011 1.1559692,-1.020134 0.187617,-0.3939185 0.184608,-0.3593047 0.184608,-2.1309736 0,-1.8073446 0.0068,-1.7383551 -0.218795,-2.197526 C 10.060626,5.6439264 9.9993481,5.5600338 9.8212262,5.3834871 9.4449526,5.0105419 9.0605403,4.8391154 8.5453749,4.8146194 8.500009,4.8124723 8.4565675,4.811401 8.4145534,4.8114265 Z m 2.7983006,4.3914054 c -0.101468,0 -0.139464,0.077516 -0.158625,0.3245464 -0.04641,0.5984307 -0.26752,1.1247337 -0.665503,1.5853537 -0.284952,0.329799 -0.8158834,0.652992 -1.2708366,0.773532 -0.2638632,0.06991 -0.7778073,0.09567 -1.0547763,0.05287 C 7.7736409,11.894406 7.3726536,11.749701 7.1195576,11.598637 6.8802365,11.455793 6.4673026,11.071553 6.3223214,10.856556 6.0842307,10.503482 5.9072422,10.01779 5.8783495,9.6395061 5.8521337,9.2963344 5.8414251,9.2566096 5.7694066,9.2237962 5.7204243,9.2014801 5.6859347,9.2020099 5.6331158,9.2260833 l -0.070655,0.032364 0.0155,0.3003876 c 0.049451,0.9787381 0.6407331,1.8937081 1.5297445,2.3666341 0.2688487,0.14302 0.4637125,0.213952 0.7676081,0.279877 0.283198,0.06144 0.8250319,0.06878 1.1058289,0.01503 0.5568346,-0.10654 1.0302507,-0.348401 1.4517997,-0.742081 0.540655,-0.504913 0.858874,-1.178625 0.917573,-1.9422633 0.01507,-0.1960373 0.01084,-0.2336433 -0.03099,-0.279876 -0.02658,-0.029374 -0.07438,-0.053331 -0.106663,-0.053331 z" class="ColorScheme-Text"/>
<path id="gradient-path1" style="opacity:0.3;baseline-shift:baseline;display:inline;overflow:visible;vector-effect:none;enable-background:accumulate;stop-color:#000000;stop-opacity:1;fill:url(#linearGradient4)" d="M 8.4453131 1.2753492 C 4.4913166 1.2753492 1.2794833 4.4784283 1.2794833 8.4236094 C 1.2794833 12.36879 4.4913166 15.572386 8.4453131 15.572386 C 12.39931 15.572386 15.611143 12.36879 15.611143 8.4236094 C 15.611143 4.4784283 12.39931 1.2753492 8.4453131 1.2753492 z "/>
</svg>
