<?xml version="1.0" encoding="UTF-8" standalone="no"?>
<svg
   width="64"
   height="64"
   version="1.1"
   viewBox="0 0 16.933 16.933"
   id="svg7"
   sodipodi:docname="preferences-desktop-navigation.svg"
   inkscape:version="1.4.2 (ebf0e940d0, 2025-05-08)"
   xmlns:inkscape="http://www.inkscape.org/namespaces/inkscape"
   xmlns:sodipodi="http://sodipodi.sourceforge.net/DTD/sodipodi-0.dtd"
   xmlns:xlink="http://www.w3.org/1999/xlink"
   xmlns="http://www.w3.org/2000/svg"
   xmlns:svg="http://www.w3.org/2000/svg"
   xmlns:rdf="http://www.w3.org/1999/02/22-rdf-syntax-ns#"
   xmlns:cc="http://creativecommons.org/ns#"
   xmlns:dc="http://purl.org/dc/elements/1.1/">
  <sodipodi:namedview
     id="namedview7"
     pagecolor="#9c4444"
     bordercolor="#000000"
     borderopacity="0.25"
     inkscape:showpageshadow="2"
     inkscape:pageopacity="0.0"
     inkscape:pagecheckerboard="0"
     inkscape:deskcolor="#d1d1d1"
     inkscape:zoom="4.3531261"
     inkscape:cx="36.640335"
     inkscape:cy="26.188077"
     inkscape:window-width="1272"
     inkscape:window-height="1372"
     inkscape:window-x="0"
     inkscape:window-y="0"
     inkscape:window-maximized="0"
     inkscape:current-layer="svg7"
     showgrid="false" />
  <defs
     id="defs2">
    <filter
       style="color-interpolation-filters:sRGB;"
       inkscape:label="Blur"
       id="filter3"
       x="-0.10843471"
       y="-0.10870992"
       width="1.2168694"
       height="1.2174198">
      <feGaussianBlur
         stdDeviation="0.5 0.5"
         result="blur"
         id="feGaussianBlur3" />
    </filter>
    <style
       id="current-color-scheme"
       type="text/css">.ColorScheme-Text {color:#d8dee9} .ColorScheme-Highlight {color:#3b4252}</style>
    <linearGradient
       id="linearGradient3"
       inkscape:collect="always">
      <stop
         style="stop-color:#000000;stop-opacity:1;"
         offset="0"
         id="stop3" />
      <stop
         style="stop-color:#000000;stop-opacity:0;"
         offset="1"
         id="stop4" />
    </linearGradient>
    <linearGradient
       inkscape:collect="always"
       xlink:href="#linearGradient3"
       id="linearGradient4"
       x1="13.512321"
       y1="13.490874"
       x2="3.3783066"
       y2="3.3568602"
       gradientUnits="userSpaceOnUse" />
  </defs>
  <metadata
     id="metadata2">
    <rdf:RDF>
      <cc:Work
         rdf:about="">
        <dc:format>image/svg+xml</dc:format>
        <dc:type
           rdf:resource="http://purl.org/dc/dcmitype/StillImage" />
      </cc:Work>
    </rdf:RDF>
    <itype>type-a</itype>
  </metadata>
  <ellipse
     style="opacity:1;fill:none;stroke:#000000;stroke-width:0.582072;stroke-dasharray:none;stroke-opacity:1;filter:url(#filter3)"
     id="path1-5"
     cx="8.4450111"
     cy="8.423522"
     rx="6.8752708"
     ry="6.8578653" />
  <ellipse
     style="opacity:1;fill:none;stroke-width:0.58207188;stroke-opacity:1;stroke:currentColor;stroke-dasharray:none;fill-opacity:1"
     id="path1"
     cx="8.4450111"
     cy="8.423522"
     rx="6.8752708"
     ry="6.8578653"
     class="ColorScheme-Text" />
  <ellipse
     style="fill:currentColor;stroke:none;stroke-width:0.285844;stroke-dasharray:none;stroke-opacity:1"
     id="path1-2"
     cx="8.4557552"
     cy="8.423522"
     rx="6.5738997"
     ry="6.5692253"
     class="ColorScheme-Highlight" />
  <path
     style="opacity:0.3;fill:#000000;fill-opacity:1;stroke:none;stroke-width:0.248009;stroke-dasharray:none;stroke-dashoffset:2.2;stroke-opacity:0.3"
     d="m 8.1016139,12.773865 c -0.039169,-0.0068 -0.160948,-0.0265 -0.27062,-0.04399 -0.459313,-0.07325 -1.010656,-0.298581 -1.454004,-0.594246 -0.2804,-0.186997 -0.777097,-0.685121 -0.967177,-0.969954 -0.289944,-0.434474 -0.494273,-0.926214 -0.603485,-1.452352 -0.069468,-0.3346647 -0.069929,-1.0868537 -8.54e-4,-1.4295036 0.158612,-0.7870587 0.494948,-1.4169857 1.056279,-1.9783168 0.451601,-0.4516013 0.870809,-0.7138603 1.451627,-0.9081462 1.32161,-0.4420843 2.7672681,-0.092791 3.7658691,0.9098926 0.551138,0.5533907 0.91738,1.2573368 1.053279,2.0244901 0.06678,0.3769748 0.06095,1.0052909 -0.01284,1.3841591 -0.29907,1.5354728 -1.432455,2.6893098 -2.9498131,3.0030428 -0.216861,0.04484 -0.916823,0.08083 -1.068235,0.05493 z M 7.3830959,10.413785 8.6728589,9.3950712 8.5035499,9.2052399 C 8.4104289,9.1008333 8.2746689,8.957725 8.2018589,8.8872212 l -0.132381,-0.128188 -0.05243,0.071216 c -0.02884,0.039169 -0.489225,0.6416536 -1.02308,1.3388538 -0.533855,0.697199 -0.970917,1.278821 -0.971246,1.292491 -3.26e-4,0.01367 0.01542,0.0127 0.035,-0.0021 0.01959,-0.01483 0.616002,-0.485395 1.325372,-1.045688 z M 9.9531319,7.850709 C 10.486822,7.1631215 10.917867,6.5949391 10.911012,6.5880821 c -0.0095,-0.00949 -2.3751671,1.8133828 -2.5093141,1.9335537 -0.02833,0.025383 0.520827,0.6002375 0.560272,0.586488 0.01145,-0.00399 0.457471,-0.5698268 0.991162,-1.2574148 z"
     id="path68" />
  <path
     style="fill:currentColor;stroke:none;stroke-width:0.248009;stroke-dasharray:none;stroke-dashoffset:2.2;stroke-opacity:0.3"
     d="m 8.1016144,12.24458 c -0.03917,-0.0068 -0.160948,-0.0265 -0.27062,-0.04399 -0.459313,-0.07325 -1.010656,-0.298581 -1.454004,-0.594246 -0.2804,-0.186997 -0.777097,-0.685121 -0.967177,-0.969953 -0.289944,-0.434478 -0.494273,-0.9262178 -0.603485,-1.4523562 -0.06947,-0.3346647 -0.06993,-1.0868537 -8.54e-4,-1.4295036 0.158612,-0.7870587 0.494948,-1.4169857 1.056279,-1.9783168 0.451601,-0.4516013 0.870809,-0.7138603 1.451627,-0.9081462 1.32161,-0.4420843 2.7672676,-0.092791 3.7658686,0.9098926 0.551138,0.5533907 0.91738,1.2573368 1.053279,2.0244901 0.06678,0.3769748 0.06095,1.0052909 -0.01284,1.3841591 -0.29907,1.535473 -1.432455,2.68931 -2.9498126,3.003043 -0.216861,0.04484 -0.916823,0.08083 -1.068235,0.05492 z M 7.3830964,9.8844999 8.6728594,8.865786 8.5035504,8.6759547 C 8.4104294,8.5715481 8.2746694,8.4284398 8.2018594,8.357936 l -0.132381,-0.128188 -0.05243,0.071216 c -0.02884,0.039169 -0.489225,0.6416536 -1.02308,1.3388533 -0.533855,0.6971997 -0.970917,1.2788217 -0.971246,1.2924917 -3.26e-4,0.01367 0.01542,0.01271 0.035,-0.0021 0.01959,-0.01483 0.616002,-0.485395 1.325372,-1.0456886 z M 9.9531324,7.3214238 C 10.486822,6.6338363 10.917867,6.0656539 10.911012,6.0587969 c -0.0095,-0.00949 -2.3751666,1.8133828 -2.5093136,1.9335537 -0.02833,0.025383 0.520827,0.6002375 0.560272,0.586488 0.01145,-0.00399 0.457471,-0.5698268 0.991162,-1.2574148 z"
     id="path68-7"
     class="ColorScheme-Text" />
  <path
     id="gradient-path1"
     style="opacity:0.3;baseline-shift:baseline;display:inline;overflow:visible;vector-effect:none;enable-background:accumulate;stop-color:#000000;stop-opacity:1;fill:url(#linearGradient4)"
     d="M 8.4453131 1.2753492 C 4.4913166 1.2753492 1.2794833 4.4784283 1.2794833 8.4236094 C 1.2794833 12.36879 4.4913166 15.572386 8.4453131 15.572386 C 12.39931 15.572386 15.611143 12.36879 15.611143 8.4236094 C 15.611143 4.4784283 12.39931 1.2753492 8.4453131 1.2753492 z " />
</svg>
