<?xml version="1.0" encoding="UTF-8" standalone="no"?>
<svg
   width="64"
   height="64"
   version="1.1"
   viewBox="0 0 16.933 16.933"
   id="svg7"
   sodipodi:docname="preferences-desktop-baloo.svg"
   inkscape:version="1.4.2 (ebf0e940d0, 2025-05-08)"
   xmlns:inkscape="http://www.inkscape.org/namespaces/inkscape"
   xmlns:sodipodi="http://sodipodi.sourceforge.net/DTD/sodipodi-0.dtd"
   xmlns:xlink="http://www.w3.org/1999/xlink"
   xmlns="http://www.w3.org/2000/svg"
   xmlns:svg="http://www.w3.org/2000/svg"
   xmlns:rdf="http://www.w3.org/1999/02/22-rdf-syntax-ns#"
   xmlns:cc="http://creativecommons.org/ns#"
   xmlns:dc="http://purl.org/dc/elements/1.1/">
  <sodipodi:namedview
     id="namedview7"
     pagecolor="#9c4444"
     bordercolor="#000000"
     borderopacity="0.25"
     inkscape:showpageshadow="2"
     inkscape:pageopacity="0.0"
     inkscape:pagecheckerboard="0"
     inkscape:deskcolor="#d1d1d1"
     inkscape:zoom="4.3531261"
     inkscape:cx="36.755195"
     inkscape:cy="26.188077"
     inkscape:window-width="1272"
     inkscape:window-height="1372"
     inkscape:window-x="0"
     inkscape:window-y="0"
     inkscape:window-maximized="0"
     inkscape:current-layer="svg7"
     showgrid="false" />
  <defs
     id="defs2">
    <filter
       style="color-interpolation-filters:sRGB;"
       inkscape:label="Blur"
       id="filter3"
       x="-0.10843471"
       y="-0.10870992"
       width="1.2168694"
       height="1.2174198">
      <feGaussianBlur
         stdDeviation="0.5 0.5"
         result="blur"
         id="feGaussianBlur3" />
    </filter>
    <style
       id="current-color-scheme"
       type="text/css">.ColorScheme-Text {color:#d8dee9} .ColorScheme-Highlight {color:#3b4252}</style>
    <linearGradient
       id="linearGradient3"
       inkscape:collect="always">
      <stop
         style="stop-color:#000000;stop-opacity:1;"
         offset="0"
         id="stop3" />
      <stop
         style="stop-color:#000000;stop-opacity:0;"
         offset="1"
         id="stop4" />
    </linearGradient>
    <linearGradient
       inkscape:collect="always"
       xlink:href="#linearGradient3"
       id="linearGradient4"
       x1="13.512321"
       y1="13.490874"
       x2="3.3783066"
       y2="3.3568602"
       gradientUnits="userSpaceOnUse" />
  </defs>
  <metadata
     id="metadata2">
    <rdf:RDF>
      <cc:Work
         rdf:about="">
        <dc:format>image/svg+xml</dc:format>
        <dc:type
           rdf:resource="http://purl.org/dc/dcmitype/StillImage" />
      </cc:Work>
    </rdf:RDF>
    <itype>type-a</itype>
  </metadata>
  <ellipse
     style="opacity:1;fill:none;stroke:#000000;stroke-width:0.582072;stroke-dasharray:none;stroke-opacity:1;filter:url(#filter3)"
     id="path1-5"
     cx="8.4450111"
     cy="8.423522"
     rx="6.8752708"
     ry="6.8578653" />
  <ellipse
     style="opacity:1;fill:none;stroke-width:0.58207188;stroke-opacity:1;stroke:currentColor;stroke-dasharray:none;fill-opacity:1"
     id="path1"
     cx="8.4450111"
     cy="8.423522"
     rx="6.8752708"
     ry="6.8578653"
     class="ColorScheme-Text" />
  <ellipse
     style="fill:currentColor;stroke:none;stroke-width:0.285844;stroke-dasharray:none;stroke-opacity:1"
     id="path1-2"
     cx="8.4557552"
     cy="8.423522"
     rx="6.5738997"
     ry="6.5692253"
     class="ColorScheme-Highlight" />
  <path
     id="path6"
     style="opacity:0.3;fill:#000000;fill-opacity:1;stroke-width:0.657543"
     d="m 6.9774798,5.2150994 c -0.240379,0.771431 -0.285743,0.734641 -0.359855,1.559202 -0.382848,0.342516 -0.433907,0.731282 -0.417139,1.110067 0.01815,0.411301 0.30107,0.680749 0.633649,0.699621 0.412596,-0.0013 0.65287,-0.407868 0.690942,-0.802047 0.04458,-0.462141 -0.03393,-0.762843 -0.365063,-1.000697 -0.0087,-0.625325 -0.03485,-0.773871 -0.182534,-1.566146 z m 3.009779,0.195922 c -0.147685,0.792275 -0.173586,0.940821 -0.182285,1.566146 -0.3311,0.237854 -0.409664,0.538805 -0.365062,1.000948 0.03807,0.394178 0.278095,0.800481 0.6906922,0.801796 v 2.5e-4 c 0.332579,-0.01887 0.615744,-0.28832 0.633899,-0.699621 0.01677,-0.378785 -0.03452,-0.767552 -0.41739,-1.110067 -0.07411,-0.824561 -0.119476,-0.788021 -0.3598542,-1.559452 z M 5.459696,6.4407364 c -0.2403786,0.771431 -0.2857427,0.734641 -0.3598544,1.559202 -0.3828489,0.342515 -0.4341571,0.731282 -0.4173897,1.110067 0.018148,0.411301 0.3013198,0.680749 0.6338991,0.699621 0.4125958,-0.0013 0.6526198,-0.407868 0.6906918,-0.802047 0.04458,-0.462142 -0.03393,-0.762843 -0.365062,-1.000697 -0.0087,-0.625325 -0.03459,-0.773871 -0.1822848,-1.566146 z m 6.013607,0.03669 c -0.147685,0.792276 -0.173585,0.940822 -0.182285,1.566146 -0.3311,0.237854 -0.409663,0.538556 -0.365062,1.000698 0.03807,0.394099 0.278503,0.800567 0.690941,0.802046 0.332475,-0.019 0.615502,-0.288418 0.63365,-0.699621 0.01677,-0.378784 -0.03452,-0.767551 -0.41739,-1.110066 -0.07411,-0.824561 -0.119476,-0.787772 -0.359854,-1.559203 z m -2.9986202,2.004617 c -0.572985,-0.02795 -0.887258,0.238163 -1.773233,0.95482 -1.14691,0.7017316 -1.4907461,1.0898536 -1.5071193,2.1184506 -0.018146,1.137171 1.4528453,1.503529 2.6372803,0.999455 0.361057,-0.153675 1.140031,-0.166313 1.555974,0.01638 h 2.5e-4 c 0.8642762,0.279719 2.3966252,0.0983 2.4210192,-1.147021 0.04912,-1.043525 -0.616389,-1.338612 -1.625917,-1.9872596 -0.6036252,-0.586977 -0.9040772,-0.915631 -1.7082542,-0.95482 z" />
  <path
     id="path6-6"
     class="ColorScheme-Text"
     style="fill:currentColor;fill-opacity:1;stroke-width:0.657543"
     d="m 6.97748,4.6859572 c -0.240379,0.771431 -0.285743,0.734641 -0.359855,1.559202 -0.382848,0.342516 -0.433907,0.731282 -0.417139,1.110067 0.01815,0.411301 0.30107,0.680749 0.633649,0.699621 0.412596,-0.0013 0.65287,-0.407868 0.690942,-0.802047 0.04458,-0.462141 -0.03393,-0.762843 -0.365063,-1.000697 -0.0087,-0.625325 -0.03485,-0.773871 -0.182534,-1.566146 z m 3.009779,0.195922 c -0.147685,0.792275 -0.173586,0.940821 -0.182285,1.566146 -0.3311,0.237854 -0.409664,0.538805 -0.365062,1.000948 0.03807,0.394178 0.278095,0.800481 0.690692,0.801796 v 2.5e-4 c 0.332579,-0.01887 0.615744,-0.28832 0.633899,-0.699621 0.01677,-0.378785 -0.03452,-0.767552 -0.41739,-1.110067 -0.07411,-0.824561 -0.119476,-0.788021 -0.359854,-1.559452 z m -4.527563,1.029715 c -0.240379,0.771431 -0.285743,0.734641 -0.359855,1.559202 -0.382848,0.342515 -0.434157,0.731282 -0.417389,1.110067 0.01815,0.411301 0.30132,0.680749 0.633899,0.699621 0.412596,-0.0013 0.65262,-0.407868 0.690692,-0.802047 0.04458,-0.462142 -0.03393,-0.762843 -0.365062,-1.000697 -0.0087,-0.625325 -0.03459,-0.773871 -0.182285,-1.566146 z m 6.013607,0.03669 c -0.147685,0.792276 -0.173585,0.940822 -0.182285,1.566146 -0.3311,0.237854 -0.409663,0.538556 -0.365062,1.000698 0.03807,0.394099 0.278503,0.800567 0.690941,0.802046 0.332475,-0.019 0.615502,-0.288418 0.63365,-0.699621 0.01677,-0.378784 -0.03452,-0.767551 -0.41739,-1.110066 -0.07411,-0.824561 -0.119476,-0.787772 -0.359854,-1.559203 z m -2.99862,2.004617 c -0.572985,-0.02795 -0.887258,0.238163 -1.773233,0.95482 -1.14691,0.701732 -1.490746,1.089854 -1.50712,2.1184508 -0.01815,1.137171 1.452846,1.503529 2.637281,0.999455 0.361057,-0.153675 1.140031,-0.166313 1.555974,0.01638 h 2.5e-4 c 0.864276,0.279719 2.396625,0.0983 2.421019,-1.147021 C 11.857974,9.8514612 11.192465,9.5563742 10.182937,8.9077262 9.579312,8.3207492 9.27886,7.9920952 8.474683,7.9529062 Z" />
  <path
     id="gradient-path1"
     style="opacity:0.3;baseline-shift:baseline;display:inline;overflow:visible;vector-effect:none;enable-background:accumulate;stop-color:#000000;stop-opacity:1;fill:url(#linearGradient4)"
     d="M 8.4453131 1.2753492 C 4.4913166 1.2753492 1.2794833 4.4784283 1.2794833 8.4236094 C 1.2794833 12.36879 4.4913166 15.572386 8.4453131 15.572386 C 12.39931 15.572386 15.611143 12.36879 15.611143 8.4236094 C 15.611143 4.4784283 12.39931 1.2753492 8.4453131 1.2753492 z " />
</svg>
