<?xml version="1.0" encoding="UTF-8" standalone="no"?>
<svg
   width="64"
   height="64"
   version="1.1"
   viewBox="0 0 16.933 16.933"
   id="svg7"
   sodipodi:docname="preferences-system-bluetooth.svg"
   inkscape:version="1.4.2 (ebf0e940d0, 2025-05-08)"
   xmlns:inkscape="http://www.inkscape.org/namespaces/inkscape"
   xmlns:sodipodi="http://sodipodi.sourceforge.net/DTD/sodipodi-0.dtd"
   xmlns:xlink="http://www.w3.org/1999/xlink"
   xmlns="http://www.w3.org/2000/svg"
   xmlns:svg="http://www.w3.org/2000/svg"
   xmlns:rdf="http://www.w3.org/1999/02/22-rdf-syntax-ns#"
   xmlns:cc="http://creativecommons.org/ns#"
   xmlns:dc="http://purl.org/dc/elements/1.1/">
  <sodipodi:namedview
     id="namedview7"
     pagecolor="#9c4444"
     bordercolor="#000000"
     borderopacity="0.25"
     inkscape:showpageshadow="2"
     inkscape:pageopacity="0.0"
     inkscape:pagecheckerboard="0"
     inkscape:deskcolor="#d1d1d1"
     inkscape:zoom="4.3531261"
     inkscape:cx="70.179451"
     inkscape:cy="26.188077"
     inkscape:window-width="1272"
     inkscape:window-height="1372"
     inkscape:window-x="0"
     inkscape:window-y="0"
     inkscape:window-maximized="0"
     inkscape:current-layer="svg7"
     showgrid="false" />
  <defs
     id="defs2">
    <filter
       style="color-interpolation-filters:sRGB;"
       inkscape:label="Blur"
       id="filter3"
       x="-0.10843471"
       y="-0.10870992"
       width="1.2168694"
       height="1.2174198">
      <feGaussianBlur
         stdDeviation="0.5 0.5"
         result="blur"
         id="feGaussianBlur3" />
    </filter>
    <style
       id="current-color-scheme"
       type="text/css">.ColorScheme-Text {color:#d8dee9} .ColorScheme-Highlight {color:#3b4252}</style>
    <linearGradient
       id="linearGradient3"
       inkscape:collect="always">
      <stop
         style="stop-color:#000000;stop-opacity:1;"
         offset="0"
         id="stop3" />
      <stop
         style="stop-color:#000000;stop-opacity:0;"
         offset="1"
         id="stop4" />
    </linearGradient>
    <linearGradient
       inkscape:collect="always"
       xlink:href="#linearGradient3"
       id="linearGradient4"
       x1="13.512321"
       y1="13.490874"
       x2="3.3783066"
       y2="3.3568602"
       gradientUnits="userSpaceOnUse" />
  </defs>
  <metadata
     id="metadata2">
    <rdf:RDF>
      <cc:Work
         rdf:about="">
        <dc:format>image/svg+xml</dc:format>
        <dc:type
           rdf:resource="http://purl.org/dc/dcmitype/StillImage" />
      </cc:Work>
    </rdf:RDF>
    <itype>type-a</itype>
  </metadata>
  <ellipse
     style="opacity:1;fill:none;stroke:#000000;stroke-width:0.582072;stroke-dasharray:none;stroke-opacity:1;filter:url(#filter3)"
     id="path1-5"
     cx="8.4450111"
     cy="8.423522"
     rx="6.8752708"
     ry="6.8578653" />
  <ellipse
     style="opacity:1;fill:none;stroke-width:0.58207188;stroke-opacity:1;stroke:currentColor;stroke-dasharray:none;fill-opacity:1"
     id="path1"
     cx="8.4450111"
     cy="8.423522"
     rx="6.8752708"
     ry="6.8578653"
     class="ColorScheme-Text" />
  <ellipse
     style="fill:currentColor;stroke:none;stroke-width:0.285844;stroke-dasharray:none;stroke-opacity:1"
     id="path1-2"
     cx="8.4557552"
     cy="8.423522"
     rx="6.5738997"
     ry="6.5692253"
     class="ColorScheme-Highlight" />
  <path
     id="path17"
     style="opacity:0.3;fill:#000000;fill-opacity:1;stroke:none;stroke-width:0.226142;stroke-dasharray:none;stroke-dashoffset:2.2;stroke-opacity:0.3"
     d="m 8.3406725,5.209908 c -0.05045,0.00677 -0.10122,0.049303 -0.13648,0.1174874 -0.0337,0.065174 -0.03931,0.2934783 -0.03931,1.6223003 0,0.8507277 -0.0087,1.5469162 -0.01944,1.5467723 -0.01071,-1.43e-4 -0.419682,-0.3379639 -0.90854,-0.7504185 -0.488859,-0.4124547 -0.908071,-0.757156 -0.93195,-0.7663193 -0.02388,-0.00916 -0.07166,0.00179 -0.106004,0.024293 -0.105719,0.069269 -0.142059,0.2297319 -0.08171,0.3621799 0.01679,0.036854 0.440591,0.4129286 0.941667,0.8356633 0.501076,0.4227352 0.913649,0.7820282 0.916933,0.7981204 0.0033,0.016095 -0.397434,0.356327 -0.890874,0.7561605 -0.49344,0.3998347 -0.915433,0.7470247 -0.937692,0.7716207 -0.06645,0.07342 -0.07166,0.254046 -0.01016,0.352021 0.100583,0.160233 0.114127,0.15248 1.092723,-0.642649 0.492306,-0.4000086 0.904171,-0.7274515 0.915167,-0.7274515 0.011,0 0.01988,0.6889275 0.01988,1.5308725 0,1.000549 0.0092,1.555958 0.02694,1.603749 0.01493,0.04021 0.04671,0.0877 0.07023,0.105563 0.02351,0.01786 0.06779,0.03269 0.09849,0.03269 0.05764,0 2.2753585,-1.67559 2.4084945,-1.819732 0.09556,-0.103466 0.101976,-0.313299 0.01281,-0.417391 -0.03208,-0.03745 -0.485158,-0.39288 -1.0065975,-0.7897325 -0.521439,-0.3968545 -0.957182,-0.7293783 -0.968609,-0.7393782 -0.01142,-0.01 0.41811,-0.3547924 0.954918,-0.7658777 0.5368065,-0.4110853 0.9991505,-0.7768431 1.0273525,-0.812696 0.05891,-0.074896 0.06882,-0.2706075 0.01811,-0.3612968 -0.03284,-0.05872 -2.3337455,-1.8302108 -2.4168865,-1.8608084 -0.01619,-0.00595 -0.03265,-0.008 -0.04947,-0.00574 z m 0.228791,0.7672026 c 0.02663,0 1.6474755,1.2497501 1.6474755,1.2702793 0,0.010987 -0.3644595,0.2997275 -0.8100445,0.6413228 -0.445586,0.341596 -0.81968,0.6246356 -0.831247,0.6293979 -0.01157,0.00476 -0.0212,-0.5646566 -0.0212,-1.2658623 0,-0.7012055 0.0069,-1.2751377 0.01502,-1.2751377 z m 0.0044,3.5069599 c 0.0376,7.441e-4 1.6298085,1.2374025 1.6298085,1.2658635 0,0.01583 -0.3667275,0.310199 -0.8153455,0.654131 -0.448618,0.343931 -0.819657,0.624981 -0.824621,0.624981 -0.005,0 -0.0093,-0.572473 -0.0093,-1.272489 0,-0.700014 0.0087,-1.2726966 0.01943,-1.2724865 z" />
  <path
     id="path17-4"
     style="fill:currentColor;fill-opacity:1;stroke:none;stroke-width:0.226142;stroke-dasharray:none;stroke-dashoffset:2.2;stroke-opacity:0.3"
     d="m 8.340671,4.6806205 c -0.05045,0.00677 -0.10122,0.049303 -0.13648,0.1174874 -0.0337,0.065174 -0.03931,0.2934783 -0.03931,1.6223003 0,0.8507277 -0.0087,1.5469162 -0.01944,1.5467723 C 8.134731,7.9670375 7.725759,7.6292166 7.236901,7.216762 6.748042,6.8043073 6.328831,6.459606 6.304951,6.4504427 c -0.02388,-0.00916 -0.07166,0.00179 -0.106003,0.024293 -0.105719,0.069269 -0.142059,0.2297319 -0.08171,0.3621799 0.01679,0.036854 0.440592,0.4129286 0.941667,0.8356633 0.501076,0.4227352 0.913649,0.7820282 0.916933,0.7981204 0.0033,0.016095 -0.397434,0.356327 -0.890874,0.7561605 C 6.591524,9.626694 6.169531,9.9738842 6.147273,9.9984805 6.080823,10.071901 6.075613,10.252526 6.137113,10.350501 6.237696,10.510735 6.25124,10.502982 7.229836,9.7078528 7.722141,9.3078439 8.134007,8.980401 8.145003,8.980401 c 0.011,0 0.01988,0.688927 0.01988,1.530872 0,1.000549 0.0092,1.555959 0.02694,1.60375 0.01493,0.04021 0.04671,0.0877 0.07023,0.105563 0.02351,0.01786 0.06779,0.03269 0.09849,0.03269 0.05764,0 2.275358,-1.67559 2.408495,-1.819732 0.09556,-0.103466 0.101976,-0.313299 0.01281,-0.417391 C 10.749768,9.9787068 10.29669,9.623273 9.77525,9.2264203 9.253811,8.8295658 8.818068,8.497042 8.806641,8.4870421 c -0.01142,-0.01 0.418109,-0.3547924 0.954918,-0.7658777 0.536806,-0.4110853 0.999151,-0.7768431 1.027353,-0.812696 0.05891,-0.074896 0.06882,-0.2706075 0.01811,-0.3612968 -0.03284,-0.05872 -2.333746,-1.8302108 -2.416887,-1.8608084 -0.01619,-0.00595 -0.03265,-0.008 -0.04947,-0.00574 z m 0.228791,0.7672026 c 0.02663,0 1.647476,1.2497501 1.647476,1.2702793 0,0.010987 -0.36446,0.2997275 -0.810044,0.6413228 -0.445586,0.341596 -0.819681,0.6246356 -0.831248,0.6293979 -0.01157,0.00476 -0.0212,-0.5646566 -0.0212,-1.2658623 0,-0.7012055 0.0069,-1.2751377 0.01502,-1.2751377 z m 0.0044,3.5069599 c 0.0376,7.441e-4 1.62981,1.237403 1.62981,1.265863 0,0.01583 -0.366728,0.310199 -0.815347,0.654132 -0.448618,0.343931 -0.819657,0.62498 -0.824621,0.62498 -0.005,0 -0.0093,-0.572472 -0.0093,-1.272488 0,-0.7000142 0.0087,-1.2726971 0.01943,-1.272487 z"
     class="ColorScheme-Text" />
  <path
     id="gradient-path1"
     style="opacity:0.3;baseline-shift:baseline;display:inline;overflow:visible;vector-effect:none;enable-background:accumulate;stop-color:#000000;stop-opacity:1;fill:url(#linearGradient4)"
     d="M 8.4453131 1.2753492 C 4.4913166 1.2753492 1.2794833 4.4784283 1.2794833 8.4236094 C 1.2794833 12.36879 4.4913166 15.572386 8.4453131 15.572386 C 12.39931 15.572386 15.611143 12.36879 15.611143 8.4236094 C 15.611143 4.4784283 12.39931 1.2753492 8.4453131 1.2753492 z " />
</svg>
