<?xml version="1.0" encoding="UTF-8" standalone="no"?>
<svg
   width="64"
   height="64"
   version="1.1"
   viewBox="0 0 16.933 16.933"
   id="svg7"
   sodipodi:docname="preferences-git.svg"
   inkscape:version="1.4.2 (ebf0e940d0, 2025-05-08)"
   xmlns:inkscape="http://www.inkscape.org/namespaces/inkscape"
   xmlns:sodipodi="http://sodipodi.sourceforge.net/DTD/sodipodi-0.dtd"
   xmlns:xlink="http://www.w3.org/1999/xlink"
   xmlns="http://www.w3.org/2000/svg"
   xmlns:svg="http://www.w3.org/2000/svg"
   xmlns:rdf="http://www.w3.org/1999/02/22-rdf-syntax-ns#"
   xmlns:cc="http://creativecommons.org/ns#"
   xmlns:dc="http://purl.org/dc/elements/1.1/">
  <sodipodi:namedview
     id="namedview7"
     pagecolor="#9c4444"
     bordercolor="#000000"
     borderopacity="0.25"
     inkscape:showpageshadow="2"
     inkscape:pageopacity="0.0"
     inkscape:pagecheckerboard="0"
     inkscape:deskcolor="#d1d1d1"
     inkscape:zoom="4.3531261"
     inkscape:cx="36.640335"
     inkscape:cy="26.188077"
     inkscape:window-width="1272"
     inkscape:window-height="1372"
     inkscape:window-x="0"
     inkscape:window-y="0"
     inkscape:window-maximized="0"
     inkscape:current-layer="svg7"
     showgrid="false" />
  <defs
     id="defs2">
    <filter
       style="color-interpolation-filters:sRGB;"
       inkscape:label="Blur"
       id="filter3"
       x="-0.10843471"
       y="-0.10870992"
       width="1.2168694"
       height="1.2174198">
      <feGaussianBlur
         stdDeviation="0.5 0.5"
         result="blur"
         id="feGaussianBlur3" />
    </filter>
    <style
       id="current-color-scheme"
       type="text/css">.ColorScheme-Text {color:#d8dee9} .ColorScheme-Highlight {color:#3b4252}</style>
    <linearGradient
       id="linearGradient3"
       inkscape:collect="always">
      <stop
         style="stop-color:#000000;stop-opacity:1;"
         offset="0"
         id="stop3" />
      <stop
         style="stop-color:#000000;stop-opacity:0;"
         offset="1"
         id="stop4" />
    </linearGradient>
    <linearGradient
       inkscape:collect="always"
       xlink:href="#linearGradient3"
       id="linearGradient4"
       x1="13.512321"
       y1="13.490874"
       x2="3.3783066"
       y2="3.3568602"
       gradientUnits="userSpaceOnUse" />
  </defs>
  <metadata
     id="metadata2">
    <rdf:RDF>
      <cc:Work
         rdf:about="">
        <dc:format>image/svg+xml</dc:format>
        <dc:type
           rdf:resource="http://purl.org/dc/dcmitype/StillImage" />
      </cc:Work>
    </rdf:RDF>
    <itype>type-a</itype>
  </metadata>
  <ellipse
     style="opacity:1;fill:none;stroke:#000000;stroke-width:0.582072;stroke-dasharray:none;stroke-opacity:1;filter:url(#filter3)"
     id="path1-5"
     cx="8.4450111"
     cy="8.423522"
     rx="6.8752708"
     ry="6.8578653" />
  <ellipse
     style="opacity:1;fill:none;stroke-width:0.58207188;stroke-opacity:1;stroke:currentColor;stroke-dasharray:none;fill-opacity:1"
     id="path1"
     cx="8.4450111"
     cy="8.423522"
     rx="6.8752708"
     ry="6.8578653"
     class="ColorScheme-Text" />
  <ellipse
     style="fill:currentColor;stroke:none;stroke-width:0.285844;stroke-dasharray:none;stroke-opacity:1"
     id="path1-2"
     cx="8.4557552"
     cy="8.423522"
     rx="6.5738997"
     ry="6.5692253"
     class="ColorScheme-Highlight" />
  <path
     d="m 8.4671901,5.2090141 c -0.122034,0 -0.242219,0.046229 -0.33467,0.1386726 l -0.750698,0.7507043 2.479521,2.4776758 c 0.08322,-0.035156 0.1719689,-0.053622 0.2625589,-0.053622 0.391989,0 0.710021,0.3180274 0.710021,0.7100193 0,0.3919885 -0.318032,0.71002 -0.710021,0.71002 -0.3919899,0 -0.7100179,-0.3180315 -0.7100179,-0.71002 0,-0.086891 0.0167,-0.1719662 0.04807,-0.2514637 L 8.4912291,8.010265 v 1.9821389 c 0.271802,0.1072451 0.449307,0.3679511 0.449307,0.6600941 0,0.391992 -0.318028,0.710019 -0.710019,0.710019 -0.391991,0 -0.710019,-0.318027 -0.710019,-0.710019 0,-0.310633 0.201542,-0.584287 0.497383,-0.676738 V 7.5369215 L 6.9805881,6.4996243 4.8190951,8.661114 c -0.184901,0.1849104 -0.184901,0.4844429 0,0.6693422 l 3.313425,3.3134258 c 0.18491,0.184909 0.48444,0.184909 0.669341,0 L 12.115287,9.3304562 c 0.183058,-0.1848895 0.183058,-0.4844398 0,-0.6693422 L 8.8018611,5.3476903 C 8.7094261,5.2552308 8.5892241,5.2090172 8.4671901,5.2090172 Z m 0,0"
     id="path1-7"
     style="opacity:0.3;fill:#000000;fill-opacity:1;stroke:none;stroke-width:0.478127;stroke-dasharray:none;stroke-opacity:0.3" />
  <path
     d="m 8.4671901,4.6797242 c -0.122034,0 -0.242219,0.04623 -0.33467,0.138673 l -0.750698,0.750704 2.479521,2.477676 c 0.08322,-0.03516 0.1719689,-0.05362 0.2625589,-0.05362 0.391989,0 0.710021,0.318028 0.710021,0.710019 0,0.3919891 -0.318032,0.71002 -0.710021,0.71002 -0.3919899,0 -0.7100179,-0.3180309 -0.7100179,-0.71002 0,-0.08689 0.0167,-0.1719659 0.04807,-0.2514629 L 8.4912291,7.4809772 v 1.982139 c 0.271802,0.1072451 0.449307,0.3679511 0.449307,0.6600938 0,0.391992 -0.318028,0.710018 -0.710019,0.710018 -0.391991,0 -0.710019,-0.318026 -0.710019,-0.710018 0,-0.3106327 0.201542,-0.5842867 0.497383,-0.6767377 v -2.438838 l -1.037293,-1.037297 -2.161493,2.161489 c -0.184901,0.1849109 -0.184901,0.484443 0,0.669343 l 3.313425,3.3134237 c 0.18491,0.18491 0.48444,0.18491 0.669341,0 L 12.115287,8.8011693 c 0.183058,-0.18489 0.183058,-0.48444 0,-0.669343 L 8.8018611,4.8184032 c -0.09243,-0.09246 -0.212637,-0.138673 -0.334671,-0.138673 z m 0,0"
     id="path1-7-0"
     style="fill:currentColor;stroke:none;stroke-width:0.478127;stroke-dasharray:none;stroke-opacity:0.3"
     class="ColorScheme-Text" />
  <path
     id="gradient-path1"
     style="opacity:0.3;baseline-shift:baseline;display:inline;overflow:visible;vector-effect:none;enable-background:accumulate;stop-color:#000000;stop-opacity:1;fill:url(#linearGradient4)"
     d="M 8.4453131 1.2753492 C 4.4913166 1.2753492 1.2794833 4.4784283 1.2794833 8.4236094 C 1.2794833 12.36879 4.4913166 15.572386 8.4453131 15.572386 C 12.39931 15.572386 15.611143 12.36879 15.611143 8.4236094 C 15.611143 4.4784283 12.39931 1.2753492 8.4453131 1.2753492 z " />
</svg>
