<?xml version="1.0" encoding="UTF-8" standalone="no"?>
<svg
   width="64"
   height="64"
   version="1.1"
   viewBox="0 0 16.933 16.933"
   id="svg7"
   sodipodi:docname="preferences-system-startup.svg"
   inkscape:version="1.4.2 (ebf0e940d0, 2025-05-08)"
   xmlns:inkscape="http://www.inkscape.org/namespaces/inkscape"
   xmlns:sodipodi="http://sodipodi.sourceforge.net/DTD/sodipodi-0.dtd"
   xmlns:xlink="http://www.w3.org/1999/xlink"
   xmlns="http://www.w3.org/2000/svg"
   xmlns:svg="http://www.w3.org/2000/svg"
   xmlns:rdf="http://www.w3.org/1999/02/22-rdf-syntax-ns#"
   xmlns:cc="http://creativecommons.org/ns#"
   xmlns:dc="http://purl.org/dc/elements/1.1/">
  <sodipodi:namedview
     id="namedview7"
     pagecolor="#9c4444"
     bordercolor="#000000"
     borderopacity="0.25"
     inkscape:showpageshadow="2"
     inkscape:pageopacity="0.0"
     inkscape:pagecheckerboard="0"
     inkscape:deskcolor="#d1d1d1"
     inkscape:zoom="4.3531261"
     inkscape:cx="36.755195"
     inkscape:cy="26.188077"
     inkscape:window-width="1272"
     inkscape:window-height="1372"
     inkscape:window-x="0"
     inkscape:window-y="0"
     inkscape:window-maximized="0"
     inkscape:current-layer="svg7"
     showgrid="false" />
  <defs
     id="defs2">
    <filter
       style="color-interpolation-filters:sRGB;"
       inkscape:label="Blur"
       id="filter3"
       x="-0.10843471"
       y="-0.10870992"
       width="1.2168694"
       height="1.2174198">
      <feGaussianBlur
         stdDeviation="0.5 0.5"
         result="blur"
         id="feGaussianBlur3" />
    </filter>
    <style
       id="current-color-scheme"
       type="text/css">.ColorScheme-Text {color:#d8dee9} .ColorScheme-Highlight {color:#3b4252}</style>
    <linearGradient
       id="linearGradient3"
       inkscape:collect="always">
      <stop
         style="stop-color:#000000;stop-opacity:1;"
         offset="0"
         id="stop3" />
      <stop
         style="stop-color:#000000;stop-opacity:0;"
         offset="1"
         id="stop4" />
    </linearGradient>
    <linearGradient
       inkscape:collect="always"
       xlink:href="#linearGradient3"
       id="linearGradient4"
       x1="13.512321"
       y1="13.490874"
       x2="3.3783066"
       y2="3.3568602"
       gradientUnits="userSpaceOnUse" />
  </defs>
  <metadata
     id="metadata2">
    <rdf:RDF>
      <cc:Work
         rdf:about="">
        <dc:format>image/svg+xml</dc:format>
        <dc:type
           rdf:resource="http://purl.org/dc/dcmitype/StillImage" />
      </cc:Work>
    </rdf:RDF>
    <itype>type-a</itype>
  </metadata>
  <ellipse
     style="opacity:1;fill:none;stroke:#000000;stroke-width:0.582072;stroke-dasharray:none;stroke-opacity:1;filter:url(#filter3)"
     id="path1-5"
     cx="8.4450111"
     cy="8.423522"
     rx="6.8752708"
     ry="6.8578653" />
  <ellipse
     style="opacity:1;fill:none;stroke-width:0.58207188;stroke-opacity:1;stroke:currentColor;stroke-dasharray:none;fill-opacity:1"
     id="path1"
     cx="8.4450111"
     cy="8.423522"
     rx="6.8752708"
     ry="6.8578653"
     class="ColorScheme-Text" />
  <ellipse
     style="fill:currentColor;stroke:none;stroke-width:0.285844;stroke-dasharray:none;stroke-opacity:1"
     id="path1-2"
     cx="8.4557552"
     cy="8.423522"
     rx="6.5738997"
     ry="6.5692253"
     class="ColorScheme-Highlight" />
  <path
     id="path21"
     style="opacity:0.3;fill:#000000;fill-opacity:1;stroke-width:0.714038"
     d="M 4.932431,5.2090141 V 5.7139207 H 6.447146 V 5.2090141 Z m 2.019111,0 v 0.5049066 h 5.049027 V 5.2090141 Z M 4.932431,6.2188223 V 6.7237239 H 6.447146 V 6.2188223 Z m 2.019111,0 v 0.5049016 h 4.039223 V 6.2188223 Z M 4.932431,7.2286254 V 7.733532 H 6.447146 V 7.2286254 Z m 2.019111,0 V 7.733532 h 3.02942 V 7.2286254 Z M 4.932431,8.2384336 V 8.7433352 H 6.447146 V 8.2384336 Z m 2.019111,0 v 0.5049016 h 4.039223 V 8.2384336 Z M 4.932431,9.2482418 V 9.7531434 H 6.447146 V 9.2482418 Z m 2.019111,0 v 0.5049016 h 4.039223 V 9.2482418 Z M 4.932431,10.258045 v 0.504907 h 1.514715 v -0.504907 z m 2.019111,0 v 0.504907 h 3.02942 v -0.504907 z m -2.019111,1.009809 v 0.504901 h 1.514715 v -0.504901 z m 2.019111,0 v 0.504901 h 5.049027 v -0.504901 z m -2.019111,1.009803 v 0.504906 h 1.514715 v -0.504906 z m 2.019111,0 v 0.504906 h 3.02942 v -0.504906 z" />
  <path
     id="path21-3"
     style="fill:currentColor;fill-opacity:1;stroke-width:0.714038"
     class="ColorScheme-Text"
     d="M 4.932431,4.6797257 V 5.1846323 H 6.447146 V 4.6797257 Z m 2.019111,0 v 0.5049066 h 5.049027 V 4.6797257 Z M 4.932431,5.6895339 V 6.1944355 H 6.447146 V 5.6895339 Z m 2.019111,0 v 0.5049016 h 4.039223 V 5.6895339 Z M 4.932431,6.699337 V 7.2042436 H 6.447146 V 6.699337 Z m 2.019111,0 v 0.5049066 h 3.02942 V 6.699337 Z M 4.932431,7.7091452 V 8.2140468 H 6.447146 V 7.7091452 Z m 2.019111,0 v 0.5049016 h 4.039223 V 7.7091452 Z M 4.932431,8.7189534 V 9.223855 H 6.447146 V 8.7189534 Z m 2.019111,0 V 9.223855 h 4.039223 V 8.7189534 Z M 4.932431,9.7287566 V 10.233663 H 6.447146 V 9.7287566 Z m 2.019111,0 v 0.5049064 h 3.02942 V 9.7287566 Z M 4.932431,10.738565 v 0.504901 h 1.514715 v -0.504901 z m 2.019111,0 v 0.504901 h 5.049027 v -0.504901 z m -2.019111,1.009803 v 0.504906 h 1.514715 v -0.504906 z m 2.019111,0 v 0.504906 h 3.02942 v -0.504906 z" />
  <path
     id="gradient-path1"
     style="opacity:0.3;baseline-shift:baseline;display:inline;overflow:visible;vector-effect:none;enable-background:accumulate;stop-color:#000000;stop-opacity:1;fill:url(#linearGradient4)"
     d="M 8.4453131 1.2753492 C 4.4913166 1.2753492 1.2794833 4.4784283 1.2794833 8.4236094 C 1.2794833 12.36879 4.4913166 15.572386 8.4453131 15.572386 C 12.39931 15.572386 15.611143 12.36879 15.611143 8.4236094 C 15.611143 4.4784283 12.39931 1.2753492 8.4453131 1.2753492 z " />
</svg>
