<?xml version='1.0' encoding='UTF-8'?>
<svg xmlns:inkscape="http://www.inkscape.org/namespaces/inkscape" xmlns:sodipodi="http://sodipodi.sourceforge.net/DTD/sodipodi-0.dtd" xmlns:xlink="http://www.w3.org/1999/xlink" xmlns="http://www.w3.org/2000/svg" xmlns:svg="http://www.w3.org/2000/svg" xmlns:rdf="http://www.w3.org/1999/02/22-rdf-syntax-ns#" xmlns:cc="http://creativecommons.org/ns#" xmlns:dc="http://purl.org/dc/elements/1.1/" width="64" height="64" version="1.1" viewBox="0 0 16.933 16.933" id="svg7" sodipodi:docname="applications-system.svg" inkscape:version="1.4 (e7c3feb100, 2024-10-09)">
  <sodipodi:namedview id="namedview7" pagecolor="#9c4444" bordercolor="#000000" borderopacity="0.25" inkscape:showpageshadow="2" inkscape:pageopacity="0.0" inkscape:pagecheckerboard="0" inkscape:deskcolor="#d1d1d1" inkscape:zoom="4.3531261" inkscape:cx="36.984915" inkscape:cy="25.958357" inkscape:window-width="1280" inkscape:window-height="669" inkscape:window-x="180" inkscape:window-y="166" inkscape:window-maximized="0" inkscape:current-layer="svg7" showgrid="false"/>
  <defs id="defs2">
    <filter style="color-interpolation-filters:sRGB;" inkscape:label="Blur" id="filter3" x="-0.10843471" y="-0.10870992" width="1.2168694" height="1.2174198">
      <feGaussianBlur stdDeviation="0.5 0.5" result="blur" id="feGaussianBlur3"/>
    </filter>
    <style id="current-color-scheme" type="text/css">.ColorScheme-Text {color:#d8dee9} .ColorScheme-Highlight {color:#3b4252}</style><linearGradient id="linearGradient3" inkscape:collect="always">
      <stop style="stop-color:#000000;stop-opacity:1;" offset="0" id="stop3"/>
      <stop style="stop-color:#000000;stop-opacity:0;" offset="1" id="stop4"/>
    </linearGradient>
    <linearGradient inkscape:collect="always" xlink:href="#linearGradient3" id="linearGradient4" x1="13.512321" y1="13.490874" x2="3.3783066" y2="3.3568602" gradientUnits="userSpaceOnUse"/>
  </defs>
  <metadata id="metadata2">
    <rdf:RDF>
      <cc:Work rdf:about="">
        <dc:format>image/svg+xml</dc:format>
        <dc:type rdf:resource="http://purl.org/dc/dcmitype/StillImage"/>
      </cc:Work>
    </rdf:RDF>
  </metadata>
  <ellipse style="opacity:1;fill:none;stroke:#000000;stroke-width:0.582072;stroke-dasharray:none;stroke-opacity:1;filter:url(#filter3)" id="path1-5" cx="8.4450111" cy="8.423522" rx="6.8752708" ry="6.8578653"/>
  <ellipse style="opacity:1;fill:none;stroke-width:0.58207188;stroke-opacity:1;stroke:currentColor;stroke-dasharray:none;fill-opacity:1" id="path1" cx="8.4450111" cy="8.423522" rx="6.8752708" ry="6.8578653" class="ColorScheme-Text"/>
  <ellipse style="fill:currentColor;stroke:none;stroke-width:0.285844;stroke-dasharray:none;stroke-opacity:1" id="path1-2" cx="8.4557552" cy="8.423522" rx="6.5738997" ry="6.5692253" class="ColorScheme-Highlight"/>
<path style="clip-rule:nonzero;display:inline;overflow:visible;visibility:visible;isolation:auto;mix-blend-mode:normal;color-interpolation:sRGB;color-interpolation-filters:linearRGB;solid-opacity:1;fill:#000000;fill-opacity:1;fill-rule:evenodd;stroke:none;stroke-width:0.235739;stroke-linecap:butt;stroke-linejoin:miter;stroke-miterlimit:4;stroke-dasharray:none;stroke-dashoffset:0;stroke-opacity:0.3;color-rendering:auto;image-rendering:auto;shape-rendering:auto;text-rendering:auto;enable-background:accumulate;opacity:0.3" d="M 8.3788751,5.2670749 A 0.91392021,0.98136342 0 0 0 7.4649547,6.2484384 0.91392021,0.98136342 0 0 0 8.3788751,7.2298015 0.91392021,0.98136342 0 0 0 9.2927951,6.2484384 0.91392021,0.98136342 0 0 0 8.3788751,5.2670749 Z M 5.4586141,7.4260743 C 5.2483827,7.4202917 5.1968467,7.737697 5.3964962,7.8086527 l 2.0684584,0.7402394 v 1.5954829 l -0.7229253,2.523177 c -0.064616,0.224158 0.2252146,0.359109 0.3334381,0.155254 l 1.3034076,-2.449191 1.3034074,2.449191 c 0.108099,0.20492 0.3992386,0.06903 0.3334376,-0.155638 L 9.2927951,10.173125 V 8.5488921 L 11.361253,7.8086527 c 0.210132,-0.074711 0.138876,-0.4112392 -0.08068,-0.3810449 L 8.3788751,7.8170866 5.4771783,7.4276078 c -0.00616,-8.262e-4 -0.012356,-0.00136 -0.018565,-0.00153 z" id="path4184-2"/>
  <path style="clip-rule:nonzero;display:inline;overflow:visible;visibility:visible;isolation:auto;mix-blend-mode:normal;color-interpolation:sRGB;color-interpolation-filters:linearRGB;solid-opacity:1;fill:currentColor;fill-opacity:1;fill-rule:evenodd;stroke:none;stroke-width:0.235739;stroke-linecap:butt;stroke-linejoin:miter;stroke-miterlimit:4;stroke-dasharray:none;stroke-dashoffset:0;stroke-opacity:0.3;color-rendering:auto;image-rendering:auto;shape-rendering:auto;text-rendering:auto;enable-background:accumulate" d="M 8.3788751,4.7379187 A 0.91392021,0.98136342 0 0 0 7.4649547,5.7192822 0.91392021,0.98136342 0 0 0 8.3788751,6.7006453 0.91392021,0.98136342 0 0 0 9.2927951,5.7192822 0.91392021,0.98136342 0 0 0 8.3788751,4.7379187 Z M 5.4586141,6.8969181 C 5.2483827,6.8911355 5.1968467,7.2085408 5.3964962,7.2794965 L 7.4649546,8.0197359 V 9.6152183 L 6.7420293,12.138396 c -0.064616,0.224158 0.2252146,0.359109 0.3334381,0.155254 L 8.378875,9.8444585 9.6822824,12.29365 c 0.108099,0.20492 0.3992386,0.06903 0.3334376,-0.155638 L 9.2927951,9.6439692 V 8.0197359 L 11.361253,7.2794965 c 0.210132,-0.074711 0.138876,-0.4112392 -0.08068,-0.3810449 L 8.3788751,7.2879304 5.4771783,6.8984516 c -0.00616,-8.262e-4 -0.012356,-0.00136 -0.018565,-0.00153 z" id="path4184" class="ColorScheme-Text"/>
<path id="gradient-path1" style="opacity:0.3;baseline-shift:baseline;display:inline;overflow:visible;vector-effect:none;enable-background:accumulate;stop-color:#000000;stop-opacity:1;fill:url(#linearGradient4)" d="M 8.4453131 1.2753492 C 4.4913166 1.2753492 1.2794833 4.4784283 1.2794833 8.4236094 C 1.2794833 12.36879 4.4913166 15.572386 8.4453131 15.572386 C 12.39931 15.572386 15.611143 12.36879 15.611143 8.4236094 C 15.611143 4.4784283 12.39931 1.2753492 8.4453131 1.2753492 z "/>
</svg>
