<?xml version="1.0" encoding="UTF-8" standalone="no"?>
<svg
   width="64"
   height="64"
   version="1.1"
   viewBox="0 0 16.933 16.933"
   id="svg7"
   sodipodi:docname="preferences-desktop-search.svg"
   inkscape:version="1.4.2 (ebf0e940d0, 2025-05-08)"
   xmlns:inkscape="http://www.inkscape.org/namespaces/inkscape"
   xmlns:sodipodi="http://sodipodi.sourceforge.net/DTD/sodipodi-0.dtd"
   xmlns:xlink="http://www.w3.org/1999/xlink"
   xmlns="http://www.w3.org/2000/svg"
   xmlns:svg="http://www.w3.org/2000/svg"
   xmlns:rdf="http://www.w3.org/1999/02/22-rdf-syntax-ns#"
   xmlns:cc="http://creativecommons.org/ns#"
   xmlns:dc="http://purl.org/dc/elements/1.1/">
  <sodipodi:namedview
     id="namedview7"
     pagecolor="#9c4444"
     bordercolor="#000000"
     borderopacity="0.25"
     inkscape:showpageshadow="2"
     inkscape:pageopacity="0.0"
     inkscape:pagecheckerboard="0"
     inkscape:deskcolor="#d1d1d1"
     inkscape:zoom="4.3531261"
     inkscape:cx="36.640335"
     inkscape:cy="26.188077"
     inkscape:window-width="1272"
     inkscape:window-height="1372"
     inkscape:window-x="0"
     inkscape:window-y="0"
     inkscape:window-maximized="0"
     inkscape:current-layer="svg7"
     showgrid="false" />
  <defs
     id="defs2">
    <filter
       style="color-interpolation-filters:sRGB;"
       inkscape:label="Blur"
       id="filter3"
       x="-0.10843471"
       y="-0.10870992"
       width="1.2168694"
       height="1.2174198">
      <feGaussianBlur
         stdDeviation="0.5 0.5"
         result="blur"
         id="feGaussianBlur3" />
    </filter>
    <style
       id="current-color-scheme"
       type="text/css">.ColorScheme-Text {color:#d8dee9} .ColorScheme-Highlight {color:#3b4252}</style>
    <linearGradient
       id="linearGradient3"
       inkscape:collect="always">
      <stop
         style="stop-color:#000000;stop-opacity:1;"
         offset="0"
         id="stop3" />
      <stop
         style="stop-color:#000000;stop-opacity:0;"
         offset="1"
         id="stop4" />
    </linearGradient>
    <linearGradient
       inkscape:collect="always"
       xlink:href="#linearGradient3"
       id="linearGradient4"
       x1="13.512321"
       y1="13.490874"
       x2="3.3783066"
       y2="3.3568602"
       gradientUnits="userSpaceOnUse" />
  </defs>
  <metadata
     id="metadata2">
    <rdf:RDF>
      <cc:Work
         rdf:about="">
        <dc:format>image/svg+xml</dc:format>
        <dc:type
           rdf:resource="http://purl.org/dc/dcmitype/StillImage" />
      </cc:Work>
    </rdf:RDF>
    <itype>type-a</itype>
  </metadata>
  <ellipse
     style="opacity:1;fill:none;stroke:#000000;stroke-width:0.582072;stroke-dasharray:none;stroke-opacity:1;filter:url(#filter3)"
     id="path1-5"
     cx="8.4450111"
     cy="8.423522"
     rx="6.8752708"
     ry="6.8578653" />
  <ellipse
     style="opacity:1;fill:none;stroke-width:0.58207188;stroke-opacity:1;stroke:currentColor;stroke-dasharray:none;fill-opacity:1"
     id="path1"
     cx="8.4450111"
     cy="8.423522"
     rx="6.8752708"
     ry="6.8578653"
     class="ColorScheme-Text" />
  <ellipse
     style="fill:currentColor;stroke:none;stroke-width:0.285844;stroke-dasharray:none;stroke-opacity:1"
     id="path1-2"
     cx="8.4557552"
     cy="8.423522"
     rx="6.5738997"
     ry="6.5692253"
     class="ColorScheme-Highlight" />
  <path
     style="opacity:0.3;fill:#000000;fill-opacity:1;stroke:none;stroke-width:0.276614;stroke-dasharray:none;stroke-opacity:0.3"
     d="m 7.6519791,5.2087495 c 1.634367,0 2.9846849,1.3383415 2.9846849,2.9745736 0,0.6219025 -0.210021,1.1940484 -0.539609,1.6732249 l 1.989808,1.994317 A 0.5425768,0.54380625 0 0 1 11.32801,12.62831 L 9.3382031,10.633993 c -0.478789,0.330401 -1.064648,0.523932 -1.686278,0.523932 -1.634422,0 -2.967848,-1.3383427 -2.967848,-2.9745745 0,-1.6362326 1.333426,-2.9745741 2.967848,-2.9745741 z m 0,1.0816632 c -1.050835,0 -1.888633,0.8408847 -1.888633,1.8929104 0,1.0519715 0.837798,1.8929099 1.888633,1.8929099 1.050834,0 1.888631,-0.8409384 1.888631,-1.8929099 0,-1.0520257 -0.837797,-1.8929104 -1.888631,-1.8929104 z"
     id="path8" />
  <path
     style="fill:currentColor;stroke:none;stroke-width:0.276614;stroke-dasharray:none;stroke-opacity:0.3"
     d="m 7.6519791,4.6797124 c 1.634367,0 2.9846849,1.3383415 2.9846849,2.9745736 0,0.6219025 -0.210021,1.1940484 -0.539609,1.6732249 l 1.989808,1.9943171 A 0.5425768,0.54380625 0 0 1 11.32801,12.099273 L 9.3382031,10.104956 c -0.478789,0.330401 -1.064648,0.523932 -1.686278,0.523932 -1.634422,0 -2.967848,-1.3383428 -2.967848,-2.9745746 0,-1.6362326 1.333426,-2.9745741 2.967848,-2.9745741 z m 0,1.0816632 c -1.050835,0 -1.888633,0.8408847 -1.888633,1.8929104 0,1.0519715 0.837798,1.8929103 1.888633,1.8929103 1.050834,0 1.888631,-0.8409388 1.888631,-1.8929103 0,-1.0520257 -0.837797,-1.8929104 -1.888631,-1.8929104 z"
     id="path8-7"
     class="ColorScheme-Text" />
  <path
     id="gradient-path1"
     style="opacity:0.3;baseline-shift:baseline;display:inline;overflow:visible;vector-effect:none;enable-background:accumulate;stop-color:#000000;stop-opacity:1;fill:url(#linearGradient4)"
     d="M 8.4453131 1.2753492 C 4.4913166 1.2753492 1.2794833 4.4784283 1.2794833 8.4236094 C 1.2794833 12.36879 4.4913166 15.572386 8.4453131 15.572386 C 12.39931 15.572386 15.611143 12.36879 15.611143 8.4236094 C 15.611143 4.4784283 12.39931 1.2753492 8.4453131 1.2753492 z " />
</svg>
