<?xml version="1.0" encoding="UTF-8" standalone="no"?>
<svg
   width="64"
   height="64"
   version="1.1"
   viewBox="0 0 16.933 16.933"
   id="svg7"
   sodipodi:docname="preferences-desktop-feedback.svg"
   inkscape:version="1.4.2 (ebf0e940d0, 2025-05-08)"
   xmlns:inkscape="http://www.inkscape.org/namespaces/inkscape"
   xmlns:sodipodi="http://sodipodi.sourceforge.net/DTD/sodipodi-0.dtd"
   xmlns:xlink="http://www.w3.org/1999/xlink"
   xmlns="http://www.w3.org/2000/svg"
   xmlns:svg="http://www.w3.org/2000/svg"
   xmlns:rdf="http://www.w3.org/1999/02/22-rdf-syntax-ns#"
   xmlns:cc="http://creativecommons.org/ns#"
   xmlns:dc="http://purl.org/dc/elements/1.1/">
  <sodipodi:namedview
     id="namedview7"
     pagecolor="#9c4444"
     bordercolor="#000000"
     borderopacity="0.25"
     inkscape:showpageshadow="2"
     inkscape:pageopacity="0.0"
     inkscape:pagecheckerboard="0"
     inkscape:deskcolor="#d1d1d1"
     inkscape:zoom="4.3531261"
     inkscape:cx="36.640335"
     inkscape:cy="26.188077"
     inkscape:window-width="1272"
     inkscape:window-height="1372"
     inkscape:window-x="0"
     inkscape:window-y="0"
     inkscape:window-maximized="0"
     inkscape:current-layer="svg7"
     showgrid="false" />
  <defs
     id="defs2">
    <filter
       style="color-interpolation-filters:sRGB;"
       inkscape:label="Blur"
       id="filter3"
       x="-0.10843471"
       y="-0.10870992"
       width="1.2168694"
       height="1.2174198">
      <feGaussianBlur
         stdDeviation="0.5 0.5"
         result="blur"
         id="feGaussianBlur3" />
    </filter>
    <style
       id="current-color-scheme"
       type="text/css">.ColorScheme-Text {color:#d8dee9} .ColorScheme-Highlight {color:#3b4252}</style>
    <linearGradient
       id="linearGradient3"
       inkscape:collect="always">
      <stop
         style="stop-color:#000000;stop-opacity:1;"
         offset="0"
         id="stop3" />
      <stop
         style="stop-color:#000000;stop-opacity:0;"
         offset="1"
         id="stop4" />
    </linearGradient>
    <linearGradient
       inkscape:collect="always"
       xlink:href="#linearGradient3"
       id="linearGradient4"
       x1="13.512321"
       y1="13.490874"
       x2="3.3783066"
       y2="3.3568602"
       gradientUnits="userSpaceOnUse" />
  </defs>
  <metadata
     id="metadata2">
    <rdf:RDF>
      <cc:Work
         rdf:about="">
        <dc:format>image/svg+xml</dc:format>
        <dc:type
           rdf:resource="http://purl.org/dc/dcmitype/StillImage" />
      </cc:Work>
    </rdf:RDF>
    <itype>type-a</itype>
  </metadata>
  <ellipse
     style="opacity:1;fill:none;stroke:#000000;stroke-width:0.582072;stroke-dasharray:none;stroke-opacity:1;filter:url(#filter3)"
     id="path1-5"
     cx="8.4450111"
     cy="8.423522"
     rx="6.8752708"
     ry="6.8578653" />
  <ellipse
     style="opacity:1;fill:none;stroke-width:0.58207188;stroke-opacity:1;stroke:currentColor;stroke-dasharray:none;fill-opacity:1"
     id="path1"
     cx="8.4450111"
     cy="8.423522"
     rx="6.8752708"
     ry="6.8578653"
     class="ColorScheme-Text" />
  <ellipse
     style="fill:currentColor;stroke:none;stroke-width:0.285844;stroke-dasharray:none;stroke-opacity:1"
     id="path1-2"
     cx="8.4557552"
     cy="8.423522"
     rx="6.5738997"
     ry="6.5692253"
     class="ColorScheme-Highlight" />
  <path
     style=";opacity:0.3;fill:#000000;fill-opacity:1;stroke:none;stroke-width:0.246439;stroke-dasharray:none;stroke-dashoffset:2.2;stroke-opacity:0.3"
     d="m 5.5193476,12.1363 c -0.03065,-0.0241 -0.06192,-0.07204 -0.06949,-0.106518 -0.01226,-0.05581 0.211001,-1.190173 0.239941,-1.219112 0.0055,-0.0055 -0.09576,-0.118707 -0.225091,-0.251495 -0.513312,-0.527026 -0.75767,-1.0582046 -0.78244,-1.7008506 -0.0172,-0.446221 0.05123,-0.760765 0.255906,-1.176246 0.395783,-0.803433 1.280903,-1.458077 2.340932,-1.731379 0.411332,-0.106052 0.693157,-0.13917 1.187137,-0.139503 0.446138,-2.91e-4 0.695392,0.02533 1.067335,0.109761 0.9759744,0.22154 1.8348054,0.778607 2.3037084,1.494259 0.952318,1.453459 0.214349,3.2327896 -1.650238,3.9789166 -0.5650764,0.226119 -1.0540404,0.315874 -1.7208054,0.315874 -0.482244,0 -0.762213,-0.03161 -1.148925,-0.129703 -0.116309,-0.0295 -0.224704,-0.05364 -0.240878,-0.05364 -0.01618,0 -0.329124,0.147031 -0.695445,0.326735 -0.438289,0.215008 -0.689955,0.326735 -0.735982,0.326735 -0.03847,0 -0.09502,-0.01971 -0.125666,-0.04383 z m 5.1045544,-1.85188 c 0.15726,-0.08416 0.132378,-0.4371356 -0.03531,-0.5008896 -0.07586,-0.02884 -4.1034874,-0.02884 -4.1793534,0 -0.158122,0.06012 -0.191752,0.3438856 -0.05675,0.4788846 0.04411,0.04411 0.05982,0.04443 2.13697,0.04443 1.393533,0 2.1065364,-0.0075 2.1344434,-0.02242 z m 0.02568,-1.3480716 c 0.06685,-0.05973 0.07114,-0.0723 0.07114,-0.208718 0,-0.136416 -0.0043,-0.148987 -0.07114,-0.208719 l -0.07114,-0.06356 H 8.4989136 6.4193876 l -0.07114,0.06356 c -0.06685,0.05973 -0.07114,0.0723 -0.07114,0.208719 0,0.136416 0.0043,0.148987 0.07114,0.208718 l 0.07114,0.06356 h 2.079526 2.0795264 z m -0.06099,-1.264619 c 0.170674,-0.06489 0.192395,-0.371446 0.03509,-0.495398 -0.02592,-0.02043 -0.515121,-0.0267 -2.1261164,-0.02723 l -2.092433,-6.53e-4 -0.04901,0.04565 c -0.135903,0.126614 -0.107887,0.414473 0.04637,0.476492 0.0682,0.02742 4.1140804,0.02855 4.1860894,0.0012 z"
     id="path39" />
  <path
     style="fill:currentColor;fill-opacity:1;stroke:none;stroke-width:0.246439;stroke-dasharray:none;stroke-dashoffset:2.2;stroke-opacity:0.3"
     d="m 5.5193476,11.607136 c -0.03065,-0.0241 -0.06192,-0.07204 -0.06949,-0.106518 -0.01226,-0.05581 0.211001,-1.190173 0.239941,-1.219112 0.0055,-0.0055 -0.09576,-0.118707 -0.225091,-0.251495 -0.513312,-0.5270257 -0.75767,-1.0582047 -0.78244,-1.7008507 -0.0172,-0.446221 0.05123,-0.760765 0.255906,-1.1762462 0.395783,-0.803433 1.280903,-1.458077 2.340932,-1.731379 0.411332,-0.106052 0.693157,-0.13917 1.187137,-0.139503 0.446138,-2.91e-4 0.695392,0.02533 1.067335,0.109761 0.9759744,0.22154 1.8348054,0.778607 2.3037084,1.494259 0.952318,1.4534592 0.214349,3.2327899 -1.650238,3.9789169 -0.5650764,0.226119 -1.0540404,0.315874 -1.7208054,0.315874 -0.482244,0 -0.762213,-0.03161 -1.148925,-0.129703 -0.116309,-0.0295 -0.224704,-0.05364 -0.240878,-0.05364 -0.01618,0 -0.329124,0.147031 -0.695445,0.326735 -0.438289,0.215008 -0.689955,0.326735 -0.735982,0.326735 -0.03847,0 -0.09502,-0.01971 -0.125666,-0.04383 z M 10.623902,9.7552563 c 0.15726,-0.08416 0.132378,-0.437136 -0.03531,-0.50089 -0.07586,-0.02884 -4.1034874,-0.02884 -4.1793534,0 -0.158122,0.06012 -0.191752,0.343886 -0.05675,0.478885 0.04411,0.04411 0.05982,0.04443 2.13697,0.04443 1.393533,0 2.1065364,-0.0075 2.1344434,-0.02242 z m 0.02568,-1.348072 c 0.06685,-0.05973 0.07114,-0.0723 0.07114,-0.208718 0,-0.136416 -0.0043,-0.148987 -0.07114,-0.208719 l -0.07114,-0.06356 H 8.4989136 6.4193876 l -0.07114,0.06356 c -0.06685,0.05973 -0.07114,0.0723 -0.07114,0.208719 0,0.136416 0.0043,0.148987 0.07114,0.208718 l 0.07114,0.06356 h 2.079526 2.0795264 z m -0.06099,-1.2646192 c 0.170674,-0.06489 0.192395,-0.371446 0.03509,-0.495398 -0.02592,-0.02043 -0.515121,-0.0267 -2.1261164,-0.02723 l -2.092433,-6.53e-4 -0.04901,0.04565 c -0.135903,0.126614 -0.107887,0.414473 0.04637,0.476492 0.0682,0.02742 4.1140804,0.02855 4.1860894,0.0012 z"
     id="path39-7"
     class="ColorScheme-Text" />
  <path
     id="gradient-path1"
     style="opacity:0.3;baseline-shift:baseline;display:inline;overflow:visible;vector-effect:none;enable-background:accumulate;stop-color:#000000;stop-opacity:1;fill:url(#linearGradient4)"
     d="M 8.4453131 1.2753492 C 4.4913166 1.2753492 1.2794833 4.4784283 1.2794833 8.4236094 C 1.2794833 12.36879 4.4913166 15.572386 8.4453131 15.572386 C 12.39931 15.572386 15.611143 12.36879 15.611143 8.4236094 C 15.611143 4.4784283 12.39931 1.2753492 8.4453131 1.2753492 z " />
</svg>
