<?xml version="1.0" encoding="UTF-8" standalone="no"?>
<svg
   width="64"
   height="64"
   version="1.1"
   viewBox="0 0 16.933 16.933"
   id="svg7"
   sodipodi:docname="preferences-system-network-share-windows.svg"
   inkscape:version="1.4.2 (ebf0e940d0, 2025-05-08)"
   xmlns:inkscape="http://www.inkscape.org/namespaces/inkscape"
   xmlns:sodipodi="http://sodipodi.sourceforge.net/DTD/sodipodi-0.dtd"
   xmlns:xlink="http://www.w3.org/1999/xlink"
   xmlns="http://www.w3.org/2000/svg"
   xmlns:svg="http://www.w3.org/2000/svg"
   xmlns:rdf="http://www.w3.org/1999/02/22-rdf-syntax-ns#"
   xmlns:cc="http://creativecommons.org/ns#"
   xmlns:dc="http://purl.org/dc/elements/1.1/">
  <sodipodi:namedview
     id="namedview7"
     pagecolor="#9c4444"
     bordercolor="#000000"
     borderopacity="0.25"
     inkscape:showpageshadow="2"
     inkscape:pageopacity="0.0"
     inkscape:pagecheckerboard="0"
     inkscape:deskcolor="#d1d1d1"
     inkscape:zoom="4.3531261"
     inkscape:cx="36.755195"
     inkscape:cy="26.188077"
     inkscape:window-width="1272"
     inkscape:window-height="1372"
     inkscape:window-x="0"
     inkscape:window-y="0"
     inkscape:window-maximized="0"
     inkscape:current-layer="svg7"
     showgrid="false" />
  <defs
     id="defs2">
    <filter
       style="color-interpolation-filters:sRGB;"
       inkscape:label="Blur"
       id="filter3"
       x="-0.10843471"
       y="-0.10870992"
       width="1.2168694"
       height="1.2174198">
      <feGaussianBlur
         stdDeviation="0.5 0.5"
         result="blur"
         id="feGaussianBlur3" />
    </filter>
    <style
       id="current-color-scheme"
       type="text/css">.ColorScheme-Text {color:#d8dee9} .ColorScheme-Highlight {color:#3b4252}</style>
    <linearGradient
       id="linearGradient3"
       inkscape:collect="always">
      <stop
         style="stop-color:#000000;stop-opacity:1;"
         offset="0"
         id="stop3" />
      <stop
         style="stop-color:#000000;stop-opacity:0;"
         offset="1"
         id="stop4" />
    </linearGradient>
    <linearGradient
       inkscape:collect="always"
       xlink:href="#linearGradient3"
       id="linearGradient4"
       x1="13.512321"
       y1="13.490874"
       x2="3.3783066"
       y2="3.3568602"
       gradientUnits="userSpaceOnUse" />
  </defs>
  <metadata
     id="metadata2">
    <rdf:RDF>
      <cc:Work
         rdf:about="">
        <dc:format>image/svg+xml</dc:format>
        <dc:type
           rdf:resource="http://purl.org/dc/dcmitype/StillImage" />
      </cc:Work>
    </rdf:RDF>
    <itype>type-a</itype>
  </metadata>
  <ellipse
     style="opacity:1;fill:none;stroke:#000000;stroke-width:0.582072;stroke-dasharray:none;stroke-opacity:1;filter:url(#filter3)"
     id="path1-5"
     cx="8.4450111"
     cy="8.423522"
     rx="6.8752708"
     ry="6.8578653" />
  <ellipse
     style="opacity:1;fill:none;stroke-width:0.58207188;stroke-opacity:1;stroke:currentColor;stroke-dasharray:none;fill-opacity:1"
     id="path1"
     cx="8.4450111"
     cy="8.423522"
     rx="6.8752708"
     ry="6.8578653"
     class="ColorScheme-Text" />
  <ellipse
     style="fill:currentColor;stroke:none;stroke-width:0.285844;stroke-dasharray:none;stroke-opacity:1"
     id="path1-2"
     cx="8.4557552"
     cy="8.423522"
     rx="6.5738997"
     ry="6.5692253"
     class="ColorScheme-Highlight" />
  <path
     id="path13"
     style="opacity:0.3;fill:#000000;fill-opacity:1;stroke-width:0.63111"
     d="m 4.6798425,5.2090141 v 3.155626 h 1.302525 a 1.2622236,1.2622236 0 0 1 -0.04023,-0.315634 v -0.315396 a 1.2622236,1.2622236 0 0 1 1.262061,-1.262298 h 0.631267 v -1.262298 z m 4.417923,0 v 1.262298 h 1.8933275 v 0.63103 H 9.0977655 v 1.262298 h 3.1553875 v -3.155626 z m -1.893565,1.893328 a 0.63552962,0.63552962 0 0 0 -0.186144,0.02856 0.62921847,0.62921847 0 0 0 -0.220896,0.119732 0.63111181,0.63111181 0 0 0 -0.155198,0.197093 0.62921847,0.62921847 0 0 0 -0.06879,0.285879 v 0.315396 a 0.63111181,0.63111181 0 0 0 0.08641,0.315634 h 1.175892 v -1.262298 z m -2.524358,2.524595 v 3.1556259 h 3.155626 v -1.262297 h -1.893328 v -0.631267 h 1.893328 V 9.6269371 Z m 4.417923,0 v 1.2620619 h 0.631031 a 0.63552962,0.63552962 0 0 0 0.186142,-0.02833 0.62921847,0.62921847 0 0 0 0.2208975,-0.11997 0.63111181,0.63111181 0 0 0 0.155197,-0.196854 0.62921847,0.62921847 0 0 0 0.06879,-0.285881 V 9.9423311 a 0.63111181,0.63111181 0 0 0 -0.08641,-0.315397 z m 1.8528625,0 a 1.2622236,1.2622236 0 0 1 0.04047,0.315397 v 0.3156329 a 1.2622236,1.2622236 0 0 1 -1.2622985,1.262299 h -0.63103 v 1.262297 H 12.253157 V 9.6269371 h -1.262059 z" />
  <path
     id="path13-2"
     style="fill:currentColor;stroke-width:0.63111"
     class="ColorScheme-Text"
     d="m 4.6798425,4.6797257 v 3.155626 h 1.302525 a 1.2622236,1.2622236 0 0 1 -0.04023,-0.315634 v -0.315396 a 1.2622236,1.2622236 0 0 1 1.262061,-1.262298 h 0.631267 v -1.262298 z m 4.417923,0 v 1.262298 h 1.8933275 v 0.63103 H 9.0977655 v 1.262298 h 3.1553875 v -3.155626 z m -1.893565,1.893328 a 0.63552962,0.63552962 0 0 0 -0.186144,0.02856 0.62921847,0.62921847 0 0 0 -0.220896,0.119732 0.63111181,0.63111181 0 0 0 -0.155198,0.197093 0.62921847,0.62921847 0 0 0 -0.06879,0.285879 v 0.315396 a 0.63111181,0.63111181 0 0 0 0.08641,0.315634 h 1.175892 v -1.262298 z m -2.524358,2.5245947 v 3.1556256 h 3.155626 v -1.262298 h -1.893328 v -0.631267 h 1.893328 V 9.0976484 Z m 4.417923,0 v 1.2620606 h 0.631031 a 0.63552962,0.63552962 0 0 0 0.186142,-0.02833 0.62921847,0.62921847 0 0 0 0.2208965,-0.11997 0.63111181,0.63111181 0 0 0 0.155198,-0.196854 0.62921847,0.62921847 0 0 0 0.06879,-0.2858796 v -0.315633 a 0.63111181,0.63111181 0 0 0 -0.08641,-0.315397 z m 1.8528615,0 a 1.2622236,1.2622236 0 0 1 0.04047,0.315397 v 0.315633 A 1.2622236,1.2622236 0 0 1 9.7287995,10.990976 h -0.63103 v 1.262298 H 12.253157 V 9.0976484 h -1.26206 z" />
  <path
     id="gradient-path1"
     style="opacity:0.3;baseline-shift:baseline;display:inline;overflow:visible;vector-effect:none;enable-background:accumulate;stop-color:#000000;stop-opacity:1;fill:url(#linearGradient4)"
     d="M 8.4453131 1.2753492 C 4.4913166 1.2753492 1.2794833 4.4784283 1.2794833 8.4236094 C 1.2794833 12.36879 4.4913166 15.572386 8.4453131 15.572386 C 12.39931 15.572386 15.611143 12.36879 15.611143 8.4236094 C 15.611143 4.4784283 12.39931 1.2753492 8.4453131 1.2753492 z " />
</svg>
