<?xml version="1.0" encoding="UTF-8" standalone="no"?>
<svg
   width="64"
   height="64"
   version="1.1"
   viewBox="0 0 16.933 16.933"
   id="svg7"
   sodipodi:docname="preferences-system-time.svg"
   inkscape:version="1.4.2 (ebf0e940d0, 2025-05-08)"
   xmlns:inkscape="http://www.inkscape.org/namespaces/inkscape"
   xmlns:sodipodi="http://sodipodi.sourceforge.net/DTD/sodipodi-0.dtd"
   xmlns:xlink="http://www.w3.org/1999/xlink"
   xmlns="http://www.w3.org/2000/svg"
   xmlns:svg="http://www.w3.org/2000/svg"
   xmlns:rdf="http://www.w3.org/1999/02/22-rdf-syntax-ns#"
   xmlns:cc="http://creativecommons.org/ns#"
   xmlns:dc="http://purl.org/dc/elements/1.1/">
  <sodipodi:namedview
     id="namedview7"
     pagecolor="#9c4444"
     bordercolor="#000000"
     borderopacity="0.25"
     inkscape:showpageshadow="2"
     inkscape:pageopacity="0.0"
     inkscape:pagecheckerboard="0"
     inkscape:deskcolor="#d1d1d1"
     inkscape:zoom="4.3531261"
     inkscape:cx="36.755195"
     inkscape:cy="26.188077"
     inkscape:window-width="1272"
     inkscape:window-height="1372"
     inkscape:window-x="0"
     inkscape:window-y="0"
     inkscape:window-maximized="0"
     inkscape:current-layer="svg7"
     showgrid="false" />
  <defs
     id="defs2">
    <filter
       style="color-interpolation-filters:sRGB;"
       inkscape:label="Blur"
       id="filter3"
       x="-0.10843471"
       y="-0.10870992"
       width="1.2168694"
       height="1.2174198">
      <feGaussianBlur
         stdDeviation="0.5 0.5"
         result="blur"
         id="feGaussianBlur3" />
    </filter>
    <style
       id="current-color-scheme"
       type="text/css">.ColorScheme-Text {color:#d8dee9} .ColorScheme-Highlight {color:#3b4252}</style>
    <linearGradient
       id="linearGradient3"
       inkscape:collect="always">
      <stop
         style="stop-color:#000000;stop-opacity:1;"
         offset="0"
         id="stop3" />
      <stop
         style="stop-color:#000000;stop-opacity:0;"
         offset="1"
         id="stop4" />
    </linearGradient>
    <linearGradient
       inkscape:collect="always"
       xlink:href="#linearGradient3"
       id="linearGradient4"
       x1="13.512321"
       y1="13.490874"
       x2="3.3783066"
       y2="3.3568602"
       gradientUnits="userSpaceOnUse" />
  </defs>
  <metadata
     id="metadata2">
    <rdf:RDF>
      <cc:Work
         rdf:about="">
        <dc:format>image/svg+xml</dc:format>
        <dc:type
           rdf:resource="http://purl.org/dc/dcmitype/StillImage" />
      </cc:Work>
    </rdf:RDF>
    <itype>type-a</itype>
  </metadata>
  <ellipse
     style="opacity:1;fill:none;stroke:#000000;stroke-width:0.582072;stroke-dasharray:none;stroke-opacity:1;filter:url(#filter3)"
     id="path1-5"
     cx="8.4450111"
     cy="8.423522"
     rx="6.8752708"
     ry="6.8578653" />
  <ellipse
     style="opacity:1;fill:none;stroke-width:0.58207188;stroke-opacity:1;stroke:currentColor;stroke-dasharray:none;fill-opacity:1"
     id="path1"
     cx="8.4450111"
     cy="8.423522"
     rx="6.8752708"
     ry="6.8578653"
     class="ColorScheme-Text" />
  <ellipse
     style="fill:currentColor;stroke:none;stroke-width:0.285844;stroke-dasharray:none;stroke-opacity:1"
     id="path1-2"
     cx="8.4557552"
     cy="8.423522"
     rx="6.5738997"
     ry="6.5692253"
     class="ColorScheme-Highlight" />
  <path
     id="path11"
     style="opacity:0.3;fill:#000000;fill-opacity:1;stroke-width:0.0113042;stroke-opacity:0.6"
     d="m 8.4065775,5.2099881 c -0.381024,0.006 -0.764758,0.069644 -1.1383,0.1931569 -1.764592,0.5834773 -2.842499,2.3737554 -2.536964,4.214514 0.164248,0.989543 0.696777,1.851333 1.511383,2.445941 0.542612,0.396071 1.2301,0.652319 1.896637,0.707006 0.06491,0.0053 0.199926,0.01025 0.300054,0.0111 1.8638945,0.0161 3.4601145,-1.32643 3.7615225,-3.1635308 0.06982,-0.4255367 0.06982,-0.8185038 0,-1.2430807 C 12.071996,7.5911753 11.70883,6.8824885 11.145694,6.3175947 10.452134,5.6218702 9.5250505,5.2369081 8.5695695,5.2110471 c -0.05429,-0.0015 -0.10856,-0.0019 -0.162992,-0.0011 z m -0.04181,0.534488 c 0.625293,-0.019031 1.218788,0.129341 1.7442295,0.4365863 0.267549,0.1564465 0.466776,0.3136782 0.696421,0.5493051 0.477598,0.4900354 0.776053,1.0961397 0.884288,1.7939731 0.02131,0.1374358 0.0254,0.2072841 0.0254,0.4720428 0,0.3563485 -0.01712,0.5034305 -0.09366,0.8059647 -0.108085,0.4271999 -0.289721,0.8044649 -0.562534,1.1700509 -0.13515,0.181108 -0.441139,0.48587 -0.628155,0.625508 -0.4387375,0.327588 -0.9434605,0.538389 -1.4849255,0.620218 -0.180289,0.02725 -0.605624,0.03938 -0.783739,0.02223 -0.606049,-0.05839 -1.17357,-0.279698 -1.671729,-0.651442 -0.181108,-0.135149 -0.48587,-0.441138 -0.62551,-0.628156 -0.329271,-0.440991 -0.535834,-0.937122 -0.621804,-1.4923299 -0.02121,-0.1369946 -0.02525,-0.2081329 -0.0254,-0.4720425 -1.52e-4,-0.2645247 0.0038,-0.3342003 0.02487,-0.4688675 0.09619,-0.6158842 0.329638,-1.1429345 0.716001,-1.6140466 0.04557,-0.055561 0.154225,-0.1707235 0.241314,-0.2556016 0.586813,-0.5719186 1.336895,-0.8881906 2.164938,-0.9133916 z m -0.158228,0.8213116 v 1.4812187 1.4806894 h 1.073737 1.0737385 V 9.3975137 9.2678607 H 9.4104595 8.4663755 V 7.9168241 6.5657877 h -0.130183 z" />
  <path
     id="path11-6"
     style="fill:currentColor;stroke-width:0.0113042;stroke-opacity:0.6"
     d="m 8.4065775,4.6807929 c -0.381024,0.006 -0.764758,0.069644 -1.1383,0.1931569 -1.764592,0.5834773 -2.842499,2.3737554 -2.536964,4.214514 0.164248,0.9895432 0.696777,1.8513332 1.511383,2.4459412 0.542612,0.396071 1.2301,0.652319 1.896637,0.707006 0.06491,0.0053 0.199926,0.01025 0.300054,0.0111 1.8638945,0.0161 3.4601145,-1.32643 3.7615225,-3.163531 0.06982,-0.4255367 0.06982,-0.8185038 0,-1.2430807 C 12.071996,7.0619801 11.70883,6.3532933 11.145694,5.7883995 10.452134,5.092675 9.5250505,4.7077129 8.5695695,4.6818519 c -0.05429,-0.0015 -0.10856,-0.0019 -0.162992,-0.0011 z m -0.04181,0.534488 c 0.625293,-0.019031 1.218788,0.129341 1.7442295,0.4365863 0.267549,0.1564465 0.466776,0.3136782 0.696421,0.5493051 0.477598,0.4900354 0.776053,1.0961397 0.884288,1.7939731 0.02131,0.1374358 0.0254,0.2072841 0.0254,0.4720428 0,0.3563485 -0.01712,0.5034305 -0.09366,0.8059647 -0.108085,0.4272 -0.289721,0.8044651 -0.562534,1.1700511 -0.13515,0.181108 -0.441139,0.48587 -0.628155,0.625508 -0.4387375,0.327588 -0.9434605,0.538389 -1.4849255,0.620218 -0.180289,0.02725 -0.605624,0.03938 -0.783739,0.02223 -0.606049,-0.05839 -1.17357,-0.279698 -1.671729,-0.651442 -0.181108,-0.135149 -0.48587,-0.441138 -0.62551,-0.628156 -0.329271,-0.4409907 -0.535834,-0.9371218 -0.621804,-1.4923301 -0.02121,-0.1369946 -0.02525,-0.2081329 -0.0254,-0.4720425 -1.52e-4,-0.2645247 0.0038,-0.3342003 0.02487,-0.4688675 0.09619,-0.6158842 0.329638,-1.1429345 0.716001,-1.6140466 0.04557,-0.055561 0.154225,-0.1707235 0.241314,-0.2556016 0.586813,-0.5719186 1.336895,-0.8881906 2.164938,-0.9133916 z m -0.158228,0.8213116 v 1.4812187 1.4806894 h 1.073737 1.0737385 V 8.8683185 8.7386655 H 9.4104595 8.4663755 V 7.3876289 6.0365925 h -0.130183 z"
     class="ColorScheme-Text" />
  <path
     id="gradient-path1"
     style="opacity:0.3;baseline-shift:baseline;display:inline;overflow:visible;vector-effect:none;enable-background:accumulate;stop-color:#000000;stop-opacity:1;fill:url(#linearGradient4)"
     d="M 8.4453131 1.2753492 C 4.4913166 1.2753492 1.2794833 4.4784283 1.2794833 8.4236094 C 1.2794833 12.36879 4.4913166 15.572386 8.4453131 15.572386 C 12.39931 15.572386 15.611143 12.36879 15.611143 8.4236094 C 15.611143 4.4784283 12.39931 1.2753492 8.4453131 1.2753492 z " />
</svg>
