<?xml version="1.0" encoding="UTF-8" standalone="no"?>
<svg
   width="64"
   height="64"
   version="1.1"
   viewBox="0 0 16.933 16.933"
   id="svg7"
   sodipodi:docname="preferences-desktop-font.svg"
   inkscape:version="1.4.2 (ebf0e940d0, 2025-05-08)"
   xmlns:inkscape="http://www.inkscape.org/namespaces/inkscape"
   xmlns:sodipodi="http://sodipodi.sourceforge.net/DTD/sodipodi-0.dtd"
   xmlns:xlink="http://www.w3.org/1999/xlink"
   xmlns="http://www.w3.org/2000/svg"
   xmlns:svg="http://www.w3.org/2000/svg"
   xmlns:rdf="http://www.w3.org/1999/02/22-rdf-syntax-ns#"
   xmlns:cc="http://creativecommons.org/ns#"
   xmlns:dc="http://purl.org/dc/elements/1.1/">
  <sodipodi:namedview
     id="namedview7"
     pagecolor="#9c4444"
     bordercolor="#000000"
     borderopacity="0.25"
     inkscape:showpageshadow="2"
     inkscape:pageopacity="0.0"
     inkscape:pagecheckerboard="0"
     inkscape:deskcolor="#d1d1d1"
     inkscape:zoom="4.3531261"
     inkscape:cx="36.640335"
     inkscape:cy="26.188077"
     inkscape:window-width="1272"
     inkscape:window-height="1372"
     inkscape:window-x="0"
     inkscape:window-y="0"
     inkscape:window-maximized="0"
     inkscape:current-layer="svg7"
     showgrid="false" />
  <defs
     id="defs2">
    <filter
       style="color-interpolation-filters:sRGB;"
       inkscape:label="Blur"
       id="filter3"
       x="-0.10843471"
       y="-0.10870992"
       width="1.2168694"
       height="1.2174198">
      <feGaussianBlur
         stdDeviation="0.5 0.5"
         result="blur"
         id="feGaussianBlur3" />
    </filter>
    <style
       id="current-color-scheme"
       type="text/css">.ColorScheme-Text {color:#d8dee9} .ColorScheme-Highlight {color:#3b4252}</style>
    <linearGradient
       id="linearGradient3"
       inkscape:collect="always">
      <stop
         style="stop-color:#000000;stop-opacity:1;"
         offset="0"
         id="stop3" />
      <stop
         style="stop-color:#000000;stop-opacity:0;"
         offset="1"
         id="stop4" />
    </linearGradient>
    <linearGradient
       inkscape:collect="always"
       xlink:href="#linearGradient3"
       id="linearGradient4"
       x1="13.512321"
       y1="13.490874"
       x2="3.3783066"
       y2="3.3568602"
       gradientUnits="userSpaceOnUse" />
  </defs>
  <metadata
     id="metadata2">
    <rdf:RDF>
      <cc:Work
         rdf:about="">
        <dc:format>image/svg+xml</dc:format>
        <dc:type
           rdf:resource="http://purl.org/dc/dcmitype/StillImage" />
      </cc:Work>
    </rdf:RDF>
    <itype>type-a</itype>
  </metadata>
  <ellipse
     style="opacity:1;fill:none;stroke:#000000;stroke-width:0.582072;stroke-dasharray:none;stroke-opacity:1;filter:url(#filter3)"
     id="path1-5"
     cx="8.4450111"
     cy="8.423522"
     rx="6.8752708"
     ry="6.8578653" />
  <ellipse
     style="opacity:1;fill:none;stroke-width:0.58207188;stroke-opacity:1;stroke:currentColor;stroke-dasharray:none;fill-opacity:1"
     id="path1"
     cx="8.4450111"
     cy="8.423522"
     rx="6.8752708"
     ry="6.8578653"
     class="ColorScheme-Text" />
  <ellipse
     style="fill:currentColor;stroke:none;stroke-width:0.285844;stroke-dasharray:none;stroke-opacity:1"
     id="path1-2"
     cx="8.4557552"
     cy="8.423522"
     rx="6.5738997"
     ry="6.5692253"
     class="ColorScheme-Highlight" />
  <path
     id="path4233"
     style="opacity:0.3;fill:#000000;fill-opacity:1;stroke-width:0.428888"
     d="m 6.5753635,6.4099342 -1.895636,5.0874808 h 0.613408 l 0.606301,-1.6097778 h 2.021158 l 0.557511,1.6097778 h 0.613408 L 7.3003205,6.4099342 Z m 0.369465,0.5852213 0.773507,2.4254404 h -1.630853 z m 3.9911625,0.6761712 c -0.529675,0 -1.0244325,0.1322946 -1.3101785,0.2856219 l 0.16034,0.4462017 C 10.092807,8.2567924 10.538768,8.152101 10.949964,8.152101 c 0.515738,0 0.738694,0.2371276 0.738694,0.69014 v 0.4251219 l -0.376331,0.041688 c -0.961781,0.1393884 -1.9096125,0.2718332 -1.9096125,1.2545211 0,0.696942 0.522797,1.017686 1.1361045,1.017686 0.390288,0 0.83625,-0.125608 1.163812,-0.494988 l 0.0836,0.411149 h 0.467041 V 8.75154 c 0,-0.8363306 -0.578527,-1.0802089 -1.317285,-1.0802089 z m 0.752667,1.9932118 v 0.9198685 c -0.24393,0.334533 -0.738741,0.550645 -1.094182,0.550645 -0.35544,0 -0.6202735,-0.174158 -0.6202735,-0.592324 0,-0.522706 0.3135845,-0.6900151 1.3729365,-0.8294036 0.007,0 0.34152,-0.048786 0.341519,-0.048786 z" />
  <path
     id="path4233-1"
     style="fill:currentColor;fill-opacity:1;stroke-width:0.428888"
     class="ColorScheme-Text"
     d="m 6.5753635,5.8808379 -1.895636,5.0874811 h 0.613408 l 0.606301,-1.6097781 h 2.021158 l 0.557511,1.6097781 h 0.613408 L 7.3003205,5.8808379 Z m 0.369465,0.5852212 0.773507,2.4254404 h -1.630853 z m 3.9911625,0.6761712 c -0.529676,0 -1.0244325,0.1322946 -1.3101785,0.2856218 l 0.16034,0.4462017 C 10.092806,7.7276959 10.538768,7.6230045 10.949964,7.6230045 c 0.515737,0 0.738694,0.2371276 0.738694,0.6901401 v 0.4251219 l -0.376331,0.041688 c -0.961781,0.1393884 -1.9096125,0.2718332 -1.9096125,1.2545215 0,0.696942 0.522797,1.017686 1.1361045,1.017686 0.390288,0 0.83625,-0.125608 1.163812,-0.494988 l 0.0836,0.411149 h 0.467041 V 8.2224435 c 0,-0.8363306 -0.578527,-1.0802089 -1.317285,-1.0802089 z m 0.752667,1.9932118 v 0.9198689 c -0.24393,0.334533 -0.738741,0.550645 -1.094182,0.550645 -0.35544,0 -0.6202735,-0.174158 -0.6202735,-0.592324 0,-0.5227064 0.3135845,-0.6900154 1.3729365,-0.8294039 0.007,0 0.341519,-0.048786 0.341519,-0.048786 z" />
  <path
     id="gradient-path1"
     style="opacity:0.3;baseline-shift:baseline;display:inline;overflow:visible;vector-effect:none;enable-background:accumulate;stop-color:#000000;stop-opacity:1;fill:url(#linearGradient4)"
     d="M 8.4453131 1.2753492 C 4.4913166 1.2753492 1.2794833 4.4784283 1.2794833 8.4236094 C 1.2794833 12.36879 4.4913166 15.572386 8.4453131 15.572386 C 12.39931 15.572386 15.611143 12.36879 15.611143 8.4236094 C 15.611143 4.4784283 12.39931 1.2753492 8.4453131 1.2753492 z " />
</svg>
