<?xml version="1.0" encoding="UTF-8" standalone="no"?>
<svg
   width="64"
   height="64"
   version="1.1"
   viewBox="0 0 16.933 16.933"
   id="svg7"
   sodipodi:docname="preferences-desktop-screensaver.svg"
   inkscape:version="1.4.2 (ebf0e940d0, 2025-05-08)"
   xmlns:inkscape="http://www.inkscape.org/namespaces/inkscape"
   xmlns:sodipodi="http://sodipodi.sourceforge.net/DTD/sodipodi-0.dtd"
   xmlns:xlink="http://www.w3.org/1999/xlink"
   xmlns="http://www.w3.org/2000/svg"
   xmlns:svg="http://www.w3.org/2000/svg"
   xmlns:rdf="http://www.w3.org/1999/02/22-rdf-syntax-ns#"
   xmlns:cc="http://creativecommons.org/ns#"
   xmlns:dc="http://purl.org/dc/elements/1.1/">
  <sodipodi:namedview
     id="namedview7"
     pagecolor="#9c4444"
     bordercolor="#000000"
     borderopacity="0.25"
     inkscape:showpageshadow="2"
     inkscape:pageopacity="0.0"
     inkscape:pagecheckerboard="0"
     inkscape:deskcolor="#d1d1d1"
     inkscape:zoom="4.3531261"
     inkscape:cx="36.640335"
     inkscape:cy="26.188077"
     inkscape:window-width="1272"
     inkscape:window-height="1372"
     inkscape:window-x="0"
     inkscape:window-y="0"
     inkscape:window-maximized="0"
     inkscape:current-layer="svg7"
     showgrid="false" />
  <defs
     id="defs2">
    <filter
       style="color-interpolation-filters:sRGB;"
       inkscape:label="Blur"
       id="filter3"
       x="-0.10843471"
       y="-0.10870992"
       width="1.2168694"
       height="1.2174198">
      <feGaussianBlur
         stdDeviation="0.5 0.5"
         result="blur"
         id="feGaussianBlur3" />
    </filter>
    <style
       id="current-color-scheme"
       type="text/css">.ColorScheme-Text {color:#d8dee9} .ColorScheme-Highlight {color:#3b4252}</style>
    <linearGradient
       id="linearGradient3"
       inkscape:collect="always">
      <stop
         style="stop-color:#000000;stop-opacity:1;"
         offset="0"
         id="stop3" />
      <stop
         style="stop-color:#000000;stop-opacity:0;"
         offset="1"
         id="stop4" />
    </linearGradient>
    <linearGradient
       inkscape:collect="always"
       xlink:href="#linearGradient3"
       id="linearGradient4"
       x1="13.512321"
       y1="13.490874"
       x2="3.3783066"
       y2="3.3568602"
       gradientUnits="userSpaceOnUse" />
  </defs>
  <metadata
     id="metadata2">
    <rdf:RDF>
      <cc:Work
         rdf:about="">
        <dc:format>image/svg+xml</dc:format>
        <dc:type
           rdf:resource="http://purl.org/dc/dcmitype/StillImage" />
      </cc:Work>
    </rdf:RDF>
    <itype>type-a</itype>
  </metadata>
  <ellipse
     style="opacity:1;fill:none;stroke:#000000;stroke-width:0.582072;stroke-dasharray:none;stroke-opacity:1;filter:url(#filter3)"
     id="path1-5"
     cx="8.4450111"
     cy="8.423522"
     rx="6.8752708"
     ry="6.8578653" />
  <ellipse
     style="opacity:1;fill:none;stroke-width:0.58207188;stroke-opacity:1;stroke:currentColor;stroke-dasharray:none;fill-opacity:1"
     id="path1"
     cx="8.4450111"
     cy="8.423522"
     rx="6.8752708"
     ry="6.8578653"
     class="ColorScheme-Text" />
  <ellipse
     style="fill:currentColor;stroke:none;stroke-width:0.285844;stroke-dasharray:none;stroke-opacity:1"
     id="path1-2"
     cx="8.4557552"
     cy="8.423522"
     rx="6.5738997"
     ry="6.5692253"
     class="ColorScheme-Highlight" />
  <path
     id="path2-3"
     style="opacity:0.3;fill:#000000;fill-opacity:1;stroke:none;stroke-width:0.215795;stroke-dasharray:none;stroke-opacity:0.3"
     d="M 6.1459466,5.6976899 5.7818296,6.799794 4.6797256,7.1641433 5.7818296,7.5282601 6.1459466,8.6303645 6.5100636,7.5282601 7.6123996,7.1641433 6.5100636,6.799794 Z m 1.46924,0.1393305 c -0.195024,0 -0.352274,0.1574572 -0.352274,0.3529706 a 0.35192403,0.35192403 0 0 0 0.352971,0.3518094 0.35192403,0.35192403 0 0 0 0.351809,-0.3522739 c 0,-0.1950246 -0.156992,-0.3525061 -0.352506,-0.3525061 z m 1.955271,0.4999642 c -0.189424,2.57e-4 -0.341591,0.1521284 -0.341591,0.3411275 a 0.34068202,0.34068202 0 0 0 0.341591,0.3422885 0.3417081,0.3417081 0 0 0 4.5e-4,-0.683416 h -2.33e-4 z m -1.466453,0.9662571 c -0.195025,0 -0.352274,0.1574573 -0.352274,0.3529705 a 0.35192403,0.35192403 0 0 0 0.352738,0.3520415 0.35192403,0.35192403 0 0 0 0.352042,-0.3525062 c 0,-0.1950243 -0.156993,-0.3525058 -0.352506,-0.3525058 z M 10.351406,7.406114 c 0.303046,0.3665875 0.486495,0.8357286 0.486495,1.3489515 A 2.123275,2.123275 0 0 1 8.7145046,10.87823 c -0.513223,0 -0.982364,-0.183706 -1.348951,-0.486263 A 2.4708,2.4708 0 0 0 9.7762026,12.293828 2.4771542,2.4771542 0 0 0 12.253267,9.8167635 2.4708,2.4708 0 0 0 10.351406,7.406114 Z" />
  <path
     id="path2-3-2"
     style="fill:currentColor;fill-opacity:1;stroke:none;stroke-width:0.215795;stroke-dasharray:none;stroke-opacity:0.3"
     class="ColorScheme-Text"
     d="m 6.1459466,5.1684271 -0.364117,1.102104 -1.102104,0.36435 1.102104,0.364116 0.364117,1.102105 0.364117,-1.102105 1.102336,-0.364116 -1.102336,-0.36435 z m 1.46924,0.139331 c -0.195024,0 -0.352274,0.157457 -0.352274,0.35297 a 0.35192403,0.35192403 0 0 0 0.352971,0.35181 0.35192403,0.35192403 0 0 0 0.351809,-0.352274 c 0,-0.195025 -0.156992,-0.352506 -0.352506,-0.352506 z m 1.955271,0.499964 c -0.189424,2.57e-4 -0.341591,0.152128 -0.341591,0.341127 a 0.34068202,0.34068202 0 0 0 0.341591,0.342289 0.3417081,0.3417081 0 0 0 4.5e-4,-0.683416 h -2.33e-4 z m -1.466453,0.966257 c -0.195025,0 -0.352274,0.157457 -0.352274,0.352971 a 0.35192403,0.35192403 0 0 0 0.352738,0.352041 0.35192403,0.35192403 0 0 0 0.352042,-0.352506 c 0,-0.195024 -0.156993,-0.352506 -0.352506,-0.352506 z m 2.2474014,0.102872 c 0.303046,0.366588 0.486495,0.835729 0.486495,1.348952 A 2.123275,2.123275 0 0 1 8.7145046,10.348967 c -0.513223,0 -0.982364,-0.183706 -1.348951,-0.4862629 a 2.4708,2.4708 0 0 0 2.410649,1.9018609 2.4771542,2.4771542 0 0 0 2.4770644,-2.4770639 2.4708,2.4708 0 0 0 -1.901861,-2.41065 z" />
  <path
     id="gradient-path1"
     style="opacity:0.3;baseline-shift:baseline;display:inline;overflow:visible;vector-effect:none;enable-background:accumulate;stop-color:#000000;stop-opacity:1;fill:url(#linearGradient4)"
     d="M 8.4453131 1.2753492 C 4.4913166 1.2753492 1.2794833 4.4784283 1.2794833 8.4236094 C 1.2794833 12.36879 4.4913166 15.572386 8.4453131 15.572386 C 12.39931 15.572386 15.611143 12.36879 15.611143 8.4236094 C 15.611143 4.4784283 12.39931 1.2753492 8.4453131 1.2753492 z " />
</svg>
