<?xml version="1.0" encoding="UTF-8" standalone="no"?>
<svg
   width="64"
   height="64"
   version="1.1"
   viewBox="0 0 16.933 16.933"
   id="svg7"
   sodipodi:docname="preferences-system-network-ntp.svg"
   inkscape:version="1.4.2 (ebf0e940d0, 2025-05-08)"
   xmlns:inkscape="http://www.inkscape.org/namespaces/inkscape"
   xmlns:sodipodi="http://sodipodi.sourceforge.net/DTD/sodipodi-0.dtd"
   xmlns:xlink="http://www.w3.org/1999/xlink"
   xmlns="http://www.w3.org/2000/svg"
   xmlns:svg="http://www.w3.org/2000/svg"
   xmlns:rdf="http://www.w3.org/1999/02/22-rdf-syntax-ns#"
   xmlns:cc="http://creativecommons.org/ns#"
   xmlns:dc="http://purl.org/dc/elements/1.1/">
  <sodipodi:namedview
     id="namedview7"
     pagecolor="#9c4444"
     bordercolor="#000000"
     borderopacity="0.25"
     inkscape:showpageshadow="2"
     inkscape:pageopacity="0.0"
     inkscape:pagecheckerboard="0"
     inkscape:deskcolor="#d1d1d1"
     inkscape:zoom="4.3531261"
     inkscape:cx="36.755195"
     inkscape:cy="26.188077"
     inkscape:window-width="1543"
     inkscape:window-height="1372"
     inkscape:window-x="0"
     inkscape:window-y="0"
     inkscape:window-maximized="0"
     inkscape:current-layer="svg7"
     showgrid="false" />
  <defs
     id="defs2">
    <filter
       style="color-interpolation-filters:sRGB;"
       inkscape:label="Blur"
       id="filter3"
       x="-0.10843471"
       y="-0.10870992"
       width="1.2168694"
       height="1.2174198">
      <feGaussianBlur
         stdDeviation="0.5 0.5"
         result="blur"
         id="feGaussianBlur3" />
    </filter>
    <style
       id="current-color-scheme"
       type="text/css">.ColorScheme-Text {color:#d8dee9} .ColorScheme-Highlight {color:#3b4252}</style>
    <linearGradient
       id="linearGradient3"
       inkscape:collect="always">
      <stop
         style="stop-color:#000000;stop-opacity:1;"
         offset="0"
         id="stop3" />
      <stop
         style="stop-color:#000000;stop-opacity:0;"
         offset="1"
         id="stop4" />
    </linearGradient>
    <linearGradient
       inkscape:collect="always"
       xlink:href="#linearGradient3"
       id="linearGradient4"
       x1="13.512321"
       y1="13.490874"
       x2="3.3783066"
       y2="3.3568602"
       gradientUnits="userSpaceOnUse" />
  </defs>
  <metadata
     id="metadata2">
    <rdf:RDF>
      <cc:Work
         rdf:about="">
        <dc:format>image/svg+xml</dc:format>
        <dc:type
           rdf:resource="http://purl.org/dc/dcmitype/StillImage" />
      </cc:Work>
    </rdf:RDF>
    <itype>type-a</itype>
  </metadata>
  <ellipse
     style="opacity:1;fill:none;stroke:#000000;stroke-width:0.582072;stroke-dasharray:none;stroke-opacity:1;filter:url(#filter3)"
     id="path1-5"
     cx="8.4450111"
     cy="8.423522"
     rx="6.8752708"
     ry="6.8578653" />
  <ellipse
     style="opacity:1;fill:none;stroke-width:0.58207188;stroke-opacity:1;stroke:currentColor;stroke-dasharray:none;fill-opacity:1"
     id="path1"
     cx="8.4450111"
     cy="8.423522"
     rx="6.8752708"
     ry="6.8578653"
     class="ColorScheme-Text" />
  <ellipse
     style="fill:currentColor;stroke:none;stroke-width:0.285844;stroke-dasharray:none;stroke-opacity:1"
     id="path1-2"
     cx="8.4557552"
     cy="8.423522"
     rx="6.5738997"
     ry="6.5692253"
     class="ColorScheme-Highlight" />
  <path
     id="path10"
     style="baseline-shift:baseline;display:inline;overflow:visible;opacity:0.3;vector-effect:none;fill:#000000;fill-opacity:1;stroke-width:0.261157;enable-background:accumulate;stop-color:#000000"
     d="m 8.4664995,5.2087495 c -2.089831,0 -3.786774,1.696943 -3.786774,3.786774 0,2.0898305 1.696943,3.7867745 3.786774,3.7867745 2.0898305,0 3.7867745,-1.696944 3.7867745,-3.7867745 0,-2.089831 -1.696944,-3.786774 -3.7867745,-3.786774 z m 0,0.2611569 c 1.339752,0 2.5035545,0.7453152 3.1002175,1.8444201 l -0.749805,0.375413 -0.261158,0.78347 -0.374393,0.374394 h 0.261156 v 0.556998 H 9.4764425 l -0.226473,0.113236 v 0.5223145 l -0.522313,0.261156 -0.261157,0.261157 h -0.522313 l -0.261157,-0.261157 h -0.261158 l 0.261158,1.044627 h -0.522314 l -0.261157,-0.261157 h -0.522313 l -0.522314,0.261157 0.02092,0.04132 c -0.580227,-0.628277 -0.934967,-1.4680725 -0.934967,-2.3917285 0,-0.230808 0.02203,-0.456449 0.06427,-0.674825 l 0.327467,-0.108646 0.261158,-0.522313 v -0.739604 c 0.04501,-0.06314 0.09231,-0.125217 0.141289,-0.185156 l 0.119867,-0.1198674 v -0.019385 c 0.08249,-0.090873 0.169673,-0.1772854 0.261157,-0.2591164 v 0.017345 h 0.522314 l 0.261152,-0.26116 v 0.5223134 l 0.261157,0.2611574 -0.241263,0.482528 1.13797,1.13848 V 6.4971914 l -0.113236,-0.1132363 -0.261157,-0.7834703 -0.0352,-0.035195 c 0.262688,-0.06235 0.536769,-0.095383 0.818665,-0.095383 z m -0.259626,0.9176195 v 2.5003726 l -1.715882,-1.715882 -0.111196,0.111196 1.827078,1.827077 v 0.01938 a 0.13057842,0.13057842 0 0 0 0.130578,0.130579 H 10.296127 V 8.9990965 H 8.4680295 V 6.387528 Z m 0.407548,0.9278206 v 0.339709 l 0.113235,-0.226473 z m -2.136182,0.273399 -0.100994,0.100994 v 0.522313 l -0.522314,0.261157 v 0.261157 l 0.783471,0.261157 0.522313,-0.261157 -0.261157,0.522314 h -0.522313 l -0.261157,0.261157 -0.522313,0.261157 v 0.2611575 l 1.044627,-0.2611575 0.261156,-0.261157 0.522313,0.261157 0.522315,-0.261157 h 1.044627 l 0.05662,-0.113236 h -0.70951 c -0.138774,0 -0.252583,-0.100251 -0.274419,-0.232593 z m 2.510574,0.100994 -0.261157,0.261157 h -0.113235 v 0.896707 h 0.261156 l 0.374392,-0.374394 v -0.522313 z" />
  <path
     id="path10-6"
     class="ColorScheme-Text"
     style="baseline-shift:baseline;display:inline;overflow:visible;vector-effect:none;fill:currentColor;stroke-width:0.261157;enable-background:accumulate;stop-color:#000000"
     d="m 8.4664995,4.6797255 c -2.089831,0 -3.786774,1.696943 -3.786774,3.786774 0,2.0898305 1.696943,3.7867745 3.786774,3.7867745 2.0898305,0 3.7867745,-1.696944 3.7867745,-3.7867745 0,-2.089831 -1.696944,-3.786774 -3.7867745,-3.786774 z m 0,0.261157 c 1.339752,0 2.5035545,0.745315 3.1002175,1.84442 l -0.749805,0.375413 -0.261158,0.78347 -0.374393,0.374394 h 0.261156 v 0.556998 H 9.4764425 l -0.226473,0.113236 v 0.522314 l -0.522313,0.261156 -0.261157,0.2611575 H 7.9441865 L 7.6830295,9.7722835 h -0.261158 l 0.261158,1.0446275 h -0.522314 l -0.261157,-0.261157 h -0.522313 l -0.522314,0.261157 0.02092,0.04132 c -0.580227,-0.628277 -0.934967,-1.4680725 -0.934967,-2.3917285 0,-0.230808 0.02203,-0.456449 0.06427,-0.674825 l 0.327467,-0.108646 0.261158,-0.522313 v -0.739604 c 0.04501,-0.06314 0.09231,-0.125217 0.141289,-0.185156 l 0.119867,-0.119867 v -0.01938 c 0.08249,-0.09087 0.169673,-0.177286 0.261157,-0.259117 v 0.01734 h 0.522314 l 0.261152,-0.26116 v 0.522314 l 0.261157,0.261157 -0.241263,0.482528 1.13797,1.13848 v -2.030086 l -0.113236,-0.113236 -0.261157,-0.783471 -0.0352,-0.0352 c 0.262688,-0.06235 0.536769,-0.09538 0.818665,-0.09538 z m -0.259626,0.917619 v 2.500373 l -1.715882,-1.715882 -0.111196,0.111196 1.827078,1.827077 v 0.01938 a 0.13057842,0.13057842 0 0 0 0.130578,0.130579 H 10.296127 V 8.4700725 H 8.4680295 v -2.611569 z m 0.407548,0.927821 v 0.339709 l 0.113235,-0.226473 z m -2.136182,0.273399 -0.100994,0.100994 v 0.522313 l -0.522314,0.261157 v 0.261157 l 0.783471,0.261157 0.522313,-0.261157 -0.261157,0.522314 h -0.522313 l -0.261157,0.261157 -0.522313,0.261157 v 0.261157 l 1.044627,-0.261157 0.261156,-0.261157 0.522313,0.261157 0.522315,-0.261157 h 1.044627 l 0.05662,-0.113236 h -0.70951 c -0.138774,0 -0.252583,-0.100251 -0.274419,-0.232593 z m 2.510574,0.100994 -0.261157,0.261157 h -0.113235 v 0.896707 h 0.261156 l 0.374392,-0.374394 v -0.522313 z" />
  <path
     id="gradient-path1"
     style="opacity:0.3;baseline-shift:baseline;display:inline;overflow:visible;vector-effect:none;enable-background:accumulate;stop-color:#000000;stop-opacity:1;fill:url(#linearGradient4)"
     d="M 8.4453131 1.2753492 C 4.4913166 1.2753492 1.2794833 4.4784283 1.2794833 8.4236094 C 1.2794833 12.36879 4.4913166 15.572386 8.4453131 15.572386 C 12.39931 15.572386 15.611143 12.36879 15.611143 8.4236094 C 15.611143 4.4784283 12.39931 1.2753492 8.4453131 1.2753492 z " />
</svg>
