<?xml version="1.0" encoding="UTF-8" standalone="no"?>
<svg
   width="64"
   height="64"
   version="1.1"
   viewBox="0 0 16.933 16.933"
   id="svg7"
   sodipodi:docname="preferences-online-accounts.svg"
   inkscape:version="1.4.2 (ebf0e940d0, 2025-05-08)"
   xmlns:inkscape="http://www.inkscape.org/namespaces/inkscape"
   xmlns:sodipodi="http://sodipodi.sourceforge.net/DTD/sodipodi-0.dtd"
   xmlns:xlink="http://www.w3.org/1999/xlink"
   xmlns="http://www.w3.org/2000/svg"
   xmlns:svg="http://www.w3.org/2000/svg"
   xmlns:rdf="http://www.w3.org/1999/02/22-rdf-syntax-ns#"
   xmlns:cc="http://creativecommons.org/ns#"
   xmlns:dc="http://purl.org/dc/elements/1.1/">
  <sodipodi:namedview
     id="namedview7"
     pagecolor="#9c4444"
     bordercolor="#000000"
     borderopacity="0.25"
     inkscape:showpageshadow="2"
     inkscape:pageopacity="0.0"
     inkscape:pagecheckerboard="0"
     inkscape:deskcolor="#d1d1d1"
     inkscape:zoom="4.3531261"
     inkscape:cx="36.640335"
     inkscape:cy="26.188077"
     inkscape:window-width="1272"
     inkscape:window-height="1372"
     inkscape:window-x="0"
     inkscape:window-y="0"
     inkscape:window-maximized="0"
     inkscape:current-layer="svg7"
     showgrid="false" />
  <defs
     id="defs2">
    <filter
       style="color-interpolation-filters:sRGB;"
       inkscape:label="Blur"
       id="filter3"
       x="-0.10843471"
       y="-0.10870992"
       width="1.2168694"
       height="1.2174198">
      <feGaussianBlur
         stdDeviation="0.5 0.5"
         result="blur"
         id="feGaussianBlur3" />
    </filter>
    <style
       id="current-color-scheme"
       type="text/css">.ColorScheme-Text {color:#d8dee9} .ColorScheme-Highlight {color:#3b4252}</style>
    <linearGradient
       id="linearGradient3"
       inkscape:collect="always">
      <stop
         style="stop-color:#000000;stop-opacity:1;"
         offset="0"
         id="stop3" />
      <stop
         style="stop-color:#000000;stop-opacity:0;"
         offset="1"
         id="stop4" />
    </linearGradient>
    <linearGradient
       inkscape:collect="always"
       xlink:href="#linearGradient3"
       id="linearGradient4"
       x1="13.512321"
       y1="13.490874"
       x2="3.3783066"
       y2="3.3568602"
       gradientUnits="userSpaceOnUse" />
  </defs>
  <metadata
     id="metadata2">
    <rdf:RDF>
      <cc:Work
         rdf:about="">
        <dc:format>image/svg+xml</dc:format>
        <dc:type
           rdf:resource="http://purl.org/dc/dcmitype/StillImage" />
      </cc:Work>
    </rdf:RDF>
    <itype>type-a</itype>
  </metadata>
  <ellipse
     style="opacity:1;fill:none;stroke:#000000;stroke-width:0.582072;stroke-dasharray:none;stroke-opacity:1;filter:url(#filter3)"
     id="path1-5"
     cx="8.4450111"
     cy="8.423522"
     rx="6.8752708"
     ry="6.8578653" />
  <ellipse
     style="opacity:1;fill:none;stroke-width:0.58207188;stroke-opacity:1;stroke:currentColor;stroke-dasharray:none;fill-opacity:1"
     id="path1"
     cx="8.4450111"
     cy="8.423522"
     rx="6.8752708"
     ry="6.8578653"
     class="ColorScheme-Text" />
  <ellipse
     style="fill:currentColor;stroke:none;stroke-width:0.285844;stroke-dasharray:none;stroke-opacity:1"
     id="path1-2"
     cx="8.4557552"
     cy="8.423522"
     rx="6.5738997"
     ry="6.5692253"
     class="ColorScheme-Highlight" />
  <path
     d="m 8.4664995,5.2275346 c -2.091377,0 -3.786774,1.6870589 -3.786774,3.7681479 0,2.0810875 1.695397,3.7681465 3.786774,3.7681465 2.0913765,0 3.7867745,-1.687059 3.7867745,-3.7681465 0,-2.081089 -1.695399,-3.7681479 -3.7867745,-3.7681479 z m -0.270484,1.04297 c 0.03619,-0.0038 0.08183,0.0021 0.118345,0 0.0043,0.01723 -0.02636,0.07852 -0.06762,0.168221 -0.262835,0.571338 -0.277745,1.2404529 -0.03382,1.5980989 0.04415,0.06484 0.08452,0.126554 0.08452,0.134577 0,0.008 -0.0476,0.01678 -0.101435,0.01678 -0.126358,0 -0.245935,-0.07663 -0.490252,-0.2691479 -0.10853,-0.08552 -0.249631,-0.157352 -0.304297,-0.168225 -0.08583,-0.01707 -0.108713,-0.0096 -0.219772,0.100932 -0.103316,0.102796 -0.135232,0.158224 -0.135232,0.252331 0,0.356866 0.425784,0.640553 1.217178,0.80746 1.074739,0.226665 1.33968,0.4301721 1.369323,0.9925034 0.03722,0.705171 -0.340051,1.236905 -1.166462,1.648564 -0.09863,0.04914 -0.161486,0.06823 -0.202869,0.08411 -0.0184,-0.0016 -0.03241,0.0017 -0.05069,0 -0.0069,-0.0218 -0.01697,-0.07238 -0.01697,-0.168221 0,-0.374543 -0.14836,-0.760062 -0.371909,-0.975682 -0.06001,-0.05788 -0.228033,-0.18052 -0.371918,-0.269151 -0.143883,-0.08863 -0.288852,-0.191582 -0.321202,-0.2355081 -0.05361,-0.072893 -0.05807,-0.1176747 -0.01697,-0.2523316 0.07506,-0.2459363 0.164409,-0.3829137 0.3381,-0.5383057 0.09107,-0.08147 0.182688,-0.149785 0.202869,-0.1514 0.02024,-0.0016 -0.116381,-0.04242 -0.321199,-0.08411 -0.20482,-0.04176 -0.504403,-0.129249 -0.659319,-0.185033 -0.283241,-0.101982 -0.66565,-0.3160731 -0.811458,-0.4710181 -0.0061,-0.0066 -0.01145,-0.01099 -0.01697,-0.01678 0.208884,-0.827948 0.795078,-1.5065379 1.572183,-1.833608 0.16259,-0.06844 0.330218,-0.115386 0.507158,-0.1514 0.08812,-0.01792 0.179478,-0.02444 0.270482,-0.03364 z m 2.5357865,1.2616559 c 0.06353,0.03908 0.303433,0.555559 0.371916,0.80746 0.08841,0.3252391 0.08201,0.8880711 0,1.2111906 -0.03123,0.12297 -0.07121,0.2380119 -0.08452,0.2523313 -0.01329,0.014326 -0.06156,-0.068112 -0.118344,-0.1682218 -0.05678,-0.1000917 -0.238107,-0.3127821 -0.388815,-0.471018 -0.435012,-0.456769 -0.50342,-0.695265 -0.321198,-1.0597911 0.09189,-0.183827 0.491793,-0.60215 0.540966,-0.571951 z"
     fill="#333333"
     id="path2-0"
     style="opacity:0.3;fill:#000000;fill-opacity:1;stroke:none;stroke-width:0.229081;stroke-dasharray:none;stroke-opacity:0.3" />
  <path
     d="m 8.4664995,4.6983529 c -2.091377,0 -3.786774,1.687059 -3.786774,3.768148 0,2.0810871 1.695397,3.7681461 3.786774,3.7681461 2.0913765,0 3.7867755,-1.687059 3.7867755,-3.7681461 0,-2.081089 -1.6954,-3.768148 -3.7867755,-3.768148 z m -0.270484,1.04297 c 0.03619,-0.0038 0.08183,0.0021 0.118345,0 0.0043,0.01723 -0.02636,0.07852 -0.06762,0.168221 -0.262835,0.571338 -0.277745,1.240453 -0.03382,1.598099 0.04415,0.06484 0.08452,0.126554 0.08452,0.134577 0,0.008 -0.0476,0.01678 -0.101435,0.01678 -0.126358,0 -0.245935,-0.07663 -0.490252,-0.269148 -0.10853,-0.08552 -0.249631,-0.157352 -0.304297,-0.168225 -0.08583,-0.01707 -0.108713,-0.0096 -0.219772,0.100932 -0.103316,0.102796 -0.135232,0.158224 -0.135232,0.252331 0,0.356866 0.425784,0.640553 1.217178,0.80746 1.074739,0.226665 1.33968,0.4301721 1.369323,0.9925034 0.03722,0.7051707 -0.340051,1.2369047 -1.166462,1.6485637 -0.09863,0.04914 -0.161486,0.06823 -0.202869,0.08411 -0.0184,-0.0016 -0.03241,0.0017 -0.05069,0 -0.0069,-0.0218 -0.01697,-0.07238 -0.01697,-0.168221 0,-0.374543 -0.14836,-0.760062 -0.371909,-0.9756813 C 7.7640435,9.9057447 7.5960205,9.7831023 7.4521355,9.694471 7.3082525,9.605844 7.1632835,9.5028894 7.1309335,9.4589632 c -0.05361,-0.072893 -0.05807,-0.1176747 -0.01697,-0.2523316 0.07506,-0.2459363 0.164409,-0.3829137 0.3381,-0.5383057 0.09107,-0.08147 0.182688,-0.149785 0.202869,-0.1514 0.02024,-0.0016 -0.116381,-0.04242 -0.321199,-0.08411 -0.20482,-0.04176 -0.504403,-0.129249 -0.659319,-0.185033 -0.283241,-0.101982 -0.66565,-0.316073 -0.811458,-0.471018 -0.0061,-0.0066 -0.01145,-0.01099 -0.01697,-0.01678 0.208884,-0.827948 0.795078,-1.506538 1.572183,-1.833608 0.16259,-0.06844 0.330218,-0.115386 0.507158,-0.1514 0.08812,-0.01792 0.179478,-0.02444 0.270482,-0.03364 z m 2.5357875,1.261656 c 0.06353,0.03908 0.303432,0.555559 0.371915,0.80746 0.08841,0.325239 0.08201,0.888071 0,1.2111905 -0.03123,0.12297 -0.07121,0.2380119 -0.08452,0.2523313 -0.01329,0.014326 -0.06156,-0.068112 -0.118344,-0.1682218 -0.05678,-0.1000917 -0.238107,-0.3127821 -0.388816,-0.471018 -0.435012,-0.456769 -0.503419,-0.695265 -0.321198,-1.059791 0.09189,-0.183827 0.491793,-0.60215 0.540967,-0.571951 z"
     fill="#333333"
     id="path2-0-7"
     style="fill:currentColor;fill-opacity:1;stroke:none;stroke-width:0.229081;stroke-dasharray:none;stroke-opacity:0.3"
     class="ColorScheme-Text" />
  <path
     id="gradient-path1"
     style="opacity:0.3;baseline-shift:baseline;display:inline;overflow:visible;vector-effect:none;enable-background:accumulate;stop-color:#000000;stop-opacity:1;fill:url(#linearGradient4)"
     d="M 8.4453131 1.2753492 C 4.4913166 1.2753492 1.2794833 4.4784283 1.2794833 8.4236094 C 1.2794833 12.36879 4.4913166 15.572386 8.4453131 15.572386 C 12.39931 15.572386 15.611143 12.36879 15.611143 8.4236094 C 15.611143 4.4784283 12.39931 1.2753492 8.4453131 1.2753492 z " />
</svg>
