<?xml version="1.0" encoding="UTF-8" standalone="no"?>
<svg
   width="64"
   height="64"
   version="1.1"
   viewBox="0 0 16.933 16.933"
   id="svg7"
   sodipodi:docname="preferences-system-network-proxy.svg"
   inkscape:version="1.4.2 (ebf0e940d0, 2025-05-08)"
   xmlns:inkscape="http://www.inkscape.org/namespaces/inkscape"
   xmlns:sodipodi="http://sodipodi.sourceforge.net/DTD/sodipodi-0.dtd"
   xmlns:xlink="http://www.w3.org/1999/xlink"
   xmlns="http://www.w3.org/2000/svg"
   xmlns:svg="http://www.w3.org/2000/svg"
   xmlns:rdf="http://www.w3.org/1999/02/22-rdf-syntax-ns#"
   xmlns:cc="http://creativecommons.org/ns#"
   xmlns:dc="http://purl.org/dc/elements/1.1/">
  <sodipodi:namedview
     id="namedview7"
     pagecolor="#9c4444"
     bordercolor="#000000"
     borderopacity="0.25"
     inkscape:showpageshadow="2"
     inkscape:pageopacity="0.0"
     inkscape:pagecheckerboard="0"
     inkscape:deskcolor="#d1d1d1"
     inkscape:zoom="4.3531261"
     inkscape:cx="36.755195"
     inkscape:cy="26.188077"
     inkscape:window-width="1272"
     inkscape:window-height="1372"
     inkscape:window-x="0"
     inkscape:window-y="0"
     inkscape:window-maximized="0"
     inkscape:current-layer="svg7"
     showgrid="false" />
  <defs
     id="defs2">
    <filter
       style="color-interpolation-filters:sRGB;"
       inkscape:label="Blur"
       id="filter3"
       x="-0.10843471"
       y="-0.10870992"
       width="1.2168694"
       height="1.2174198">
      <feGaussianBlur
         stdDeviation="0.5 0.5"
         result="blur"
         id="feGaussianBlur3" />
    </filter>
    <style
       id="current-color-scheme"
       type="text/css">.ColorScheme-Text {color:#d8dee9} .ColorScheme-Highlight {color:#3b4252}</style>
    <linearGradient
       id="linearGradient3"
       inkscape:collect="always">
      <stop
         style="stop-color:#000000;stop-opacity:1;"
         offset="0"
         id="stop3" />
      <stop
         style="stop-color:#000000;stop-opacity:0;"
         offset="1"
         id="stop4" />
    </linearGradient>
    <linearGradient
       inkscape:collect="always"
       xlink:href="#linearGradient3"
       id="linearGradient4"
       x1="13.512321"
       y1="13.490874"
       x2="3.3783066"
       y2="3.3568602"
       gradientUnits="userSpaceOnUse" />
  </defs>
  <metadata
     id="metadata2">
    <rdf:RDF>
      <cc:Work
         rdf:about="">
        <dc:format>image/svg+xml</dc:format>
        <dc:type
           rdf:resource="http://purl.org/dc/dcmitype/StillImage" />
      </cc:Work>
    </rdf:RDF>
    <itype>type-a</itype>
  </metadata>
  <ellipse
     style="opacity:1;fill:none;stroke:#000000;stroke-width:0.582072;stroke-dasharray:none;stroke-opacity:1;filter:url(#filter3)"
     id="path1-5"
     cx="8.4450111"
     cy="8.423522"
     rx="6.8752708"
     ry="6.8578653" />
  <ellipse
     style="opacity:1;fill:none;stroke-width:0.58207188;stroke-opacity:1;stroke:currentColor;stroke-dasharray:none;fill-opacity:1"
     id="path1"
     cx="8.4450111"
     cy="8.423522"
     rx="6.8752708"
     ry="6.8578653"
     class="ColorScheme-Text" />
  <ellipse
     style="fill:currentColor;stroke:none;stroke-width:0.285844;stroke-dasharray:none;stroke-opacity:1"
     id="path1-2"
     cx="8.4557552"
     cy="8.423522"
     rx="6.5738997"
     ry="6.5692253"
     class="ColorScheme-Highlight" />
  <path
     d="m 7.1103435,6.2935199 c -0.139331,0 -0.251513,0.1121815 -0.251513,0.2515127 v 0.5110737 c 0,0.1393314 0.112182,0.2515127 0.251513,0.2515127 h 2.712314 c 0.13933,0 0.2515115,-0.1121813 0.2515115,-0.2515127 V 6.5450326 c 0,-0.1393312 -0.1121815,-0.2515127 -0.2515115,-0.2515127 z m 0.22938,0.3038272 c 0.0055,-0.00108 0.01028,0 0.01609,0 h 0.615703 c 0.0465,0 0.08451,0.035995 0.08451,0.082496 v 0.23944 c 0,0.046502 -0.038,0.084508 -0.08451,0.084508 h -0.615703 c -0.0465,0 -0.08451,-0.038006 -0.08451,-0.084508 v -0.23944 c 0,-0.040689 0.02998,-0.074971 0.06841,-0.082496 z m -0.22938,1.1589704 c -0.139331,0 -0.251513,0.1121814 -0.251513,0.2515127 v 0.5110737 c 0,0.1393313 0.112182,0.2515126 0.251513,0.2515126 h 2.712314 c 0.13933,0 0.2515115,-0.1121813 0.2515115,-0.2515126 V 8.0078302 c 0,-0.1393313 -0.1121815,-0.2515127 -0.2515115,-0.2515127 z m 0.22938,0.3038272 c 0.0055,-0.00108 0.01028,0 0.01609,0 h 0.615703 c 0.0465,0 0.08451,0.035995 0.08451,0.082496 v 0.23944 c 0,0.046502 -0.038,0.084508 -0.08451,0.084508 h -0.615703 c -0.0465,0 -0.08451,-0.038006 -0.08451,-0.084508 v -0.23944 c 0,-0.040689 0.02998,-0.074971 0.06841,-0.082496 z m -1.380301,0.3279726 -1.279697,0.6076545 1.279697,0.6076545 V 9.2855144 h 0.505037 c 0.07341,0 0.132799,-0.059392 0.132799,-0.1327987 V 8.838828 c 0,-0.073407 -0.05939,-0.1327987 -0.132799,-0.1327987 h -0.505037 z m 5.0141565,0 v 0.317912 h -0.503027 c -0.0734,0 -0.132798,0.059392 -0.132798,0.1327987 v 0.3138877 c 0,0.073406 0.05939,0.1327987 0.132798,0.1327987 h 0.503027 V 9.6034263 L 12.253274,8.9957718 Z M 7.1103435,9.2211272 c -0.139331,0 -0.251513,0.1121814 -0.251513,0.2515125 v 0.5110737 c 0,0.1393316 0.112182,0.2515126 0.251513,0.2515126 h 2.712314 c 0.13933,0 0.2515115,-0.112181 0.2515115,-0.2515126 V 9.4726397 c 0,-0.1393311 -0.1121815,-0.2515125 -0.2515115,-0.2515125 z m 0.22938,0.3038272 c 0.0055,-0.00108 0.01028,0 0.01609,0 h 0.615703 c 0.0465,0 0.08451,0.035995 0.08451,0.082496 v 0.2394401 c 0,0.046504 -0.038,0.084508 -0.08451,0.084508 h -0.615703 c -0.0465,0 -0.08451,-0.038009 -0.08451,-0.084508 V 9.6074504 c 0,-0.040689 0.02998,-0.074971 0.06841,-0.082496 z m -0.22938,1.1589706 c -0.139331,0 -0.251513,0.112181 -0.251513,0.251512 v 0.511075 c 0,0.13933 0.112182,0.251512 0.251513,0.251512 h 2.712314 c 0.13933,0 0.2515115,-0.112182 0.2515115,-0.251512 v -0.511075 c 0,-0.139331 -0.1121815,-0.251512 -0.2515115,-0.251512 z m 0.22938,0.303829 c 0.0055,-0.001 0.01028,0 0.01609,0 h 0.615703 c 0.0465,0 0.08451,0.03599 0.08451,0.08249 v 0.23944 c 0,0.04651 -0.038,0.08451 -0.08451,0.08451 h -0.615703 c -0.0465,0 -0.08451,-0.038 -0.08451,-0.08451 v -0.23944 c 0,-0.04069 0.02998,-0.07497 0.06841,-0.08249 z"
     id="path2"
     style="opacity:0.3;fill:#000000;fill-opacity:1;stroke-width:0.064387" />
  <path
     d="m 7.1103435,5.7642482 c -0.139331,0 -0.251513,0.1121815 -0.251513,0.2515127 v 0.5110737 c 0,0.1393314 0.112182,0.2515127 0.251513,0.2515127 h 2.712314 c 0.13933,0 0.2515115,-0.1121813 0.2515115,-0.2515127 V 6.0157609 c 0,-0.1393312 -0.1121815,-0.2515127 -0.2515115,-0.2515127 z m 0.22938,0.3038272 c 0.0055,-0.00108 0.01028,0 0.01609,0 h 0.615703 c 0.0465,0 0.08451,0.035995 0.08451,0.082496 v 0.23944 c 0,0.046502 -0.038,0.084508 -0.08451,0.084508 h -0.615703 c -0.0465,0 -0.08451,-0.038006 -0.08451,-0.084508 v -0.23944 c 0,-0.040689 0.02998,-0.074971 0.06841,-0.082496 z m -0.22938,1.1589704 c -0.139331,0 -0.251513,0.1121814 -0.251513,0.2515127 v 0.5110737 c 0,0.1393313 0.112182,0.2515126 0.251513,0.2515126 h 2.712314 c 0.13933,0 0.2515115,-0.1121813 0.2515115,-0.2515126 V 7.4785585 c 0,-0.1393313 -0.1121815,-0.2515127 -0.2515115,-0.2515127 z m 0.22938,0.3038272 c 0.0055,-0.00108 0.01028,0 0.01609,0 h 0.615703 c 0.0465,0 0.08451,0.035995 0.08451,0.082496 v 0.23944 c 0,0.046502 -0.038,0.084508 -0.08451,0.084508 h -0.615703 c -0.0465,0 -0.08451,-0.038006 -0.08451,-0.084508 v -0.23944 c 0,-0.040689 0.02998,-0.074971 0.06841,-0.082496 z m -1.380301,0.3279726 -1.279697,0.6076545 1.279697,0.6076545 V 8.7562427 h 0.505037 c 0.07341,0 0.132799,-0.059392 0.132799,-0.1327987 V 8.3095563 c 0,-0.073407 -0.05939,-0.1327987 -0.132799,-0.1327987 h -0.505037 z m 5.0141565,0 v 0.317912 h -0.503027 c -0.0734,0 -0.132798,0.059392 -0.132798,0.1327987 V 8.623444 c 0,0.073406 0.05939,0.1327987 0.132798,0.1327987 h 0.503027 V 9.0741546 L 12.253275,8.4665001 Z M 7.1103435,8.6918555 c -0.139331,0 -0.251513,0.1121814 -0.251513,0.2515125 v 0.5110737 c 0,0.1393319 0.112182,0.2515122 0.251513,0.2515122 h 2.712314 c 0.13933,0 0.2515115,-0.1121803 0.2515115,-0.2515122 V 8.943368 c 0,-0.1393311 -0.1121815,-0.2515125 -0.2515115,-0.2515125 z m 0.22938,0.3038272 c 0.0055,-0.00108 0.01028,0 0.01609,0 h 0.615703 c 0.0465,0 0.08451,0.035995 0.08451,0.082496 v 0.2394401 c 0,0.046504 -0.038,0.084508 -0.08451,0.084508 h -0.615703 c -0.0465,0 -0.08451,-0.038009 -0.08451,-0.084508 V 9.0781787 c 0,-0.040689 0.02998,-0.074971 0.06841,-0.082496 z m -0.22938,1.1589703 c -0.139331,0 -0.251513,0.112181 -0.251513,0.251512 v 0.511075 c 0,0.13933 0.112182,0.251512 0.251513,0.251512 h 2.712314 c 0.13933,0 0.2515115,-0.112182 0.2515115,-0.251512 v -0.511075 c 0,-0.139331 -0.1121815,-0.251512 -0.2515115,-0.251512 z m 0.22938,0.303829 c 0.0055,-0.001 0.01028,0 0.01609,0 h 0.615703 c 0.0465,0 0.08451,0.03599 0.08451,0.08249 v 0.23944 c 0,0.04651 -0.038,0.08451 -0.08451,0.08451 h -0.615703 c -0.0465,0 -0.08451,-0.038 -0.08451,-0.08451 v -0.23944 c 0,-0.04069 0.02998,-0.07497 0.06841,-0.08249 z"
     id="path2-7"
     style="fill:currentColor;fill-opacity:1;stroke-width:0.064387"
     class="ColorScheme-Text" />
  <path
     id="gradient-path1"
     style="opacity:0.3;baseline-shift:baseline;display:inline;overflow:visible;vector-effect:none;enable-background:accumulate;stop-color:#000000;stop-opacity:1;fill:url(#linearGradient4)"
     d="M 8.4453131 1.2753492 C 4.4913166 1.2753492 1.2794833 4.4784283 1.2794833 8.4236094 C 1.2794833 12.36879 4.4913166 15.572386 8.4453131 15.572386 C 12.39931 15.572386 15.611143 12.36879 15.611143 8.4236094 C 15.611143 4.4784283 12.39931 1.2753492 8.4453131 1.2753492 z " />
</svg>
