<?xml version="1.0" encoding="UTF-8" standalone="no"?>
<svg
   width="64"
   height="64"
   version="1.1"
   viewBox="0 0 16.933 16.933"
   id="svg7"
   sodipodi:docname="gtkconfig.svg"
   inkscape:version="1.4.2 (ebf0e940d0, 2025-05-08)"
   xmlns:inkscape="http://www.inkscape.org/namespaces/inkscape"
   xmlns:sodipodi="http://sodipodi.sourceforge.net/DTD/sodipodi-0.dtd"
   xmlns:xlink="http://www.w3.org/1999/xlink"
   xmlns="http://www.w3.org/2000/svg"
   xmlns:svg="http://www.w3.org/2000/svg"
   xmlns:rdf="http://www.w3.org/1999/02/22-rdf-syntax-ns#"
   xmlns:cc="http://creativecommons.org/ns#"
   xmlns:dc="http://purl.org/dc/elements/1.1/">
  <sodipodi:namedview
     id="namedview7"
     pagecolor="#9c4444"
     bordercolor="#000000"
     borderopacity="0.25"
     inkscape:showpageshadow="2"
     inkscape:pageopacity="0.0"
     inkscape:pagecheckerboard="0"
     inkscape:deskcolor="#d1d1d1"
     inkscape:zoom="4.3531261"
     inkscape:cx="36.755195"
     inkscape:cy="26.417797"
     inkscape:window-width="2560"
     inkscape:window-height="1376"
     inkscape:window-x="0"
     inkscape:window-y="0"
     inkscape:window-maximized="1"
     inkscape:current-layer="svg7"
     showgrid="false" />
  <defs
     id="defs2">
    <filter
       style="color-interpolation-filters:sRGB;"
       inkscape:label="Blur"
       id="filter3"
       x="-0.10843471"
       y="-0.10870992"
       width="1.2168694"
       height="1.2174198">
      <feGaussianBlur
         stdDeviation="0.5 0.5"
         result="blur"
         id="feGaussianBlur3" />
    </filter>
    <style
       id="current-color-scheme"
       type="text/css">.ColorScheme-Text {color:#d8dee9} .ColorScheme-Highlight {color:#3b4252}</style>
    <linearGradient
       id="linearGradient3"
       inkscape:collect="always">
      <stop
         style="stop-color:#000000;stop-opacity:1;"
         offset="0"
         id="stop3" />
      <stop
         style="stop-color:#000000;stop-opacity:0;"
         offset="1"
         id="stop4" />
    </linearGradient>
    <linearGradient
       inkscape:collect="always"
       xlink:href="#linearGradient3"
       id="linearGradient4"
       x1="13.512321"
       y1="13.490874"
       x2="3.3783066"
       y2="3.3568602"
       gradientUnits="userSpaceOnUse" />
  </defs>
  <metadata
     id="metadata2">
    <rdf:RDF>
      <cc:Work
         rdf:about="">
        <dc:format>image/svg+xml</dc:format>
        <dc:type
           rdf:resource="http://purl.org/dc/dcmitype/StillImage" />
      </cc:Work>
    </rdf:RDF>
    <itype>type-a</itype>
  </metadata>
  <ellipse
     style="opacity:1;fill:none;stroke:#000000;stroke-width:0.582072;stroke-dasharray:none;stroke-opacity:1;filter:url(#filter3)"
     id="path1-5"
     cx="8.4450111"
     cy="8.423522"
     rx="6.8752708"
     ry="6.8578653" />
  <ellipse
     style="opacity:1;fill:none;stroke-width:0.58207188;stroke-opacity:1;stroke:currentColor;stroke-dasharray:none;fill-opacity:1"
     id="path1"
     cx="8.4450111"
     cy="8.423522"
     rx="6.8752708"
     ry="6.8578653"
     class="ColorScheme-Text" />
  <ellipse
     style="fill:currentColor;stroke:none;stroke-width:0.285844;stroke-dasharray:none;stroke-opacity:1"
     id="path1-2"
     cx="8.4557552"
     cy="8.423522"
     rx="6.5738997"
     ry="6.5692253"
     class="ColorScheme-Highlight" />
  <path
     id="path15571"
     style="opacity:0.3;fill:#000000;fill-opacity:1;stroke:none;stroke-width:0.233275;stroke-dasharray:none;stroke-opacity:0.3"
     d="m 10.925148,5.2092074 c -0.498456,0.00885 -0.9791879,0.3186185 -1.2155779,0.8105371 -0.276818,0.5760471 -0.232297,1.1797742 0.09978,1.3572744 0.09412,0.050307 0.141462,0.060186 0.2350969,0.04784 0.459119,-0.060538 1.111311,-0.6574736 1.410581,-1.2912104 0.08883,-0.1880901 0.09703,-0.225353 0.0975,-0.4369337 L 11.553402,5.465263 11.446332,5.365484 C 11.36989,5.2941146 11.299769,5.2570273 11.202141,5.2360886 11.110039,5.2163349 11.017433,5.2075677 10.925127,5.2092076 Z M 8.5668901,5.5641305 c -0.352934,0.00832 -0.565513,0.268391 -0.588197,0.7194149 -0.0062,0.1233178 0.0022,0.2890165 0.01868,0.3685915 0.04191,0.201861 0.162785,0.4451914 0.262889,0.5294234 0.171698,0.144474 0.339839,0.056008 0.510288,-0.2683567 C 8.9675561,6.5383004 9.0318441,6.0209249 8.9108791,5.7841922 8.8264101,5.6188804 8.7345021,5.5601766 8.5668901,5.5641305 Z m -1.596927,0.3439889 c -0.04749,-9.278e-4 -0.09861,0.00705 -0.153087,0.023239 -0.297681,0.088402 -0.453373,0.355732 -0.39775,0.6829654 0.05303,0.311979 0.299647,0.6887254 0.513021,0.7841117 0.04617,0.02064 0.119378,0.031713 0.162654,0.024603 0.303445,-0.049854 0.431564,-0.8345072 0.208215,-1.2752643 C 7.2235291,5.9909129 7.1124241,5.9109388 6.9699631,5.9081209 Z m -1.135391,1.2142114 c -0.149871,-5.586e-4 -0.310129,0.076165 -0.400484,0.2091266 -0.05184,0.076287 -0.06024,0.1163101 -0.05148,0.2414753 0.0085,0.1216669 0.02964,0.1780626 0.112537,0.2984273 0.1133,0.1645086 0.316633,0.3315009 0.473838,0.3890947 0.05649,0.020694 0.123937,0.038612 0.149897,0.039639 0.08621,0.00338 0.195932,-0.074108 0.225529,-0.1590094 0.102309,-0.2934835 -0.07019,-0.8157844 -0.319386,-0.9677247 -0.05628,-0.034318 -0.122322,-0.050775 -0.190447,-0.051029 z m 3.102276,0.6861545 c -0.510012,0.00799 -1.082257,0.1334047 -1.569134,0.3740594 -0.885097,0.4374868 -1.354057,1.1216739 -1.301234,1.8980853 0.02236,0.328644 0.102392,0.60375 0.279291,0.961802 0.43602,0.882527 1.247401,1.553439 2.075322,1.715842 0.181091,0.03552 0.495669,0.03148 0.644695,-0.0082 0.674443,-0.179573 1.2983549,-0.841053 1.4520419,-1.539519 0.02816,-0.127995 0.02654,-0.158658 -0.01276,-0.241476 -0.128938,-0.271719 -0.7977659,-0.305061 -1.2561279,-0.06288 -0.202154,0.106812 -0.23832,0.166445 -0.24193,0.397751 -0.005,0.32037 -0.12276,0.465776 -0.375427,0.463815 -0.25771,-0.002 -0.535096,-0.157298 -0.629659,-0.35264 -0.113173,-0.233783 -0.047781,-0.446973 0.209582,-0.685245 0.085815,-0.07945 0.449396,-0.338522 0.807804,-0.575896 0.794034,-0.5258832 1.0747869,-0.7741049 1.2292469,-1.0866331 0.08917,-0.1804245 0.09837,-0.2184396 0.09796,-0.4100525 C 10.345981,8.4139992 10.298603,8.2989726 10.132832,8.1392652 9.8948371,7.9099674 9.4468611,7.8004947 8.9368481,7.8084867 Z"
     class="ColorScheme-Text" />
  <path
     id="path15571-5"
     style="fill:currentColor;stroke:none;stroke-width:0.233275;stroke-dasharray:none;stroke-opacity:0.3"
     d="m 10.925148,4.67992 c -0.498456,0.00885 -0.9791879,0.3186185 -1.2155779,0.8105371 -0.276818,0.5760471 -0.232297,1.1797742 0.09978,1.3572744 0.09412,0.050307 0.141462,0.060186 0.2350969,0.04784 0.459119,-0.060538 1.111311,-0.6574736 1.410581,-1.2912104 0.08883,-0.1880901 0.09703,-0.225353 0.0975,-0.4369337 l 8.74e-4,-0.2314518 -0.10707,-0.099779 c -0.07644,-0.071369 -0.146563,-0.1084567 -0.244191,-0.1293954 -0.0921,-0.019754 -0.184708,-0.028521 -0.277014,-0.026881 z M 8.5668901,5.0348431 c -0.352934,0.00832 -0.565513,0.268391 -0.588197,0.7194149 -0.0062,0.1233178 0.0022,0.2890165 0.01868,0.3685915 0.04191,0.201861 0.162785,0.4451914 0.262889,0.5294234 0.171698,0.144474 0.339839,0.056008 0.510288,-0.2683567 C 8.9675561,6.009013 9.0318441,5.4916375 8.9108791,5.2549048 8.8264091,5.089593 8.7345021,5.0308892 8.5668901,5.0348431 Z M 6.9699631,5.378832 c -0.04749,-9.278e-4 -0.09861,0.00705 -0.153087,0.023239 -0.297681,0.088402 -0.453373,0.355732 -0.39775,0.6829654 0.05303,0.311979 0.299647,0.6887254 0.513021,0.7841117 0.04617,0.02064 0.119378,0.031713 0.162654,0.024603 0.303445,-0.049854 0.431564,-0.8345072 0.208215,-1.2752643 -0.07949,-0.1568613 -0.190592,-0.2368354 -0.333053,-0.2396533 z m -1.135391,1.2142114 c -0.149871,-5.586e-4 -0.310129,0.076165 -0.400484,0.2091266 -0.05184,0.076287 -0.06024,0.1163101 -0.05148,0.2414753 0.0085,0.1216669 0.02964,0.1780626 0.112537,0.2984273 0.1133,0.1645086 0.316633,0.3315009 0.473838,0.3890947 0.05649,0.020694 0.123937,0.038612 0.149897,0.039639 0.08621,0.00338 0.195932,-0.074108 0.225529,-0.1590094 0.102309,-0.2934835 -0.07019,-0.8157844 -0.319386,-0.9677247 -0.05628,-0.034318 -0.122322,-0.050775 -0.190447,-0.051029 z m 3.102276,0.6861545 c -0.510012,0.00799 -1.082257,0.1334047 -1.569134,0.3740594 -0.885097,0.4374868 -1.354057,1.1216736 -1.301234,1.8980856 0.02236,0.328644 0.102392,0.6037501 0.279291,0.9618021 0.43602,0.882527 1.247401,1.553439 2.075322,1.715842 0.181091,0.03552 0.495669,0.03148 0.644695,-0.0082 0.674443,-0.179573 1.2983549,-0.841053 1.4520419,-1.539519 0.02816,-0.127995 0.02654,-0.158658 -0.01276,-0.241476 -0.128938,-0.271719 -0.7977659,-0.305061 -1.2561279,-0.06288 -0.202154,0.106812 -0.23832,0.166445 -0.24193,0.397751 -0.005,0.32037 -0.12276,0.465776 -0.375427,0.463815 -0.25771,-0.002 -0.535096,-0.157298 -0.629659,-0.35264 -0.113173,-0.233783 -0.04778,-0.446973 0.209582,-0.685245 0.08582,-0.07945 0.449396,-0.3385231 0.807804,-0.5758961 0.794034,-0.525887 1.0747869,-0.774109 1.2292469,-1.0866374 0.08917,-0.1804245 0.09837,-0.2184396 0.09796,-0.4100525 C 10.345981,7.8847118 10.298603,7.7696852 10.132832,7.6099778 9.8948371,7.38068 9.4468611,7.2712073 8.9368481,7.2791993 Z"
     class="ColorScheme-Text" />
  <path
     id="gradient-path1"
     style="opacity:0.3;baseline-shift:baseline;display:inline;overflow:visible;vector-effect:none;enable-background:accumulate;stop-color:#000000;stop-opacity:1;fill:url(#linearGradient4)"
     d="M 8.4453131 1.2753492 C 4.4913166 1.2753492 1.2794833 4.4784283 1.2794833 8.4236094 C 1.2794833 12.36879 4.4913166 15.572386 8.4453131 15.572386 C 12.39931 15.572386 15.611143 12.36879 15.611143 8.4236094 C 15.611143 4.4784283 12.39931 1.2753492 8.4453131 1.2753492 z " />
</svg>
