<?xml version="1.0" encoding="UTF-8" standalone="no"?>
<svg
   width="64"
   height="64"
   version="1.1"
   viewBox="0 0 16.933 16.933"
   id="svg7"
   sodipodi:docname="preferences-desktop-cryptography.svg"
   inkscape:version="1.4.2 (ebf0e940d0, 2025-05-08)"
   xmlns:inkscape="http://www.inkscape.org/namespaces/inkscape"
   xmlns:sodipodi="http://sodipodi.sourceforge.net/DTD/sodipodi-0.dtd"
   xmlns:xlink="http://www.w3.org/1999/xlink"
   xmlns="http://www.w3.org/2000/svg"
   xmlns:svg="http://www.w3.org/2000/svg"
   xmlns:rdf="http://www.w3.org/1999/02/22-rdf-syntax-ns#"
   xmlns:cc="http://creativecommons.org/ns#"
   xmlns:dc="http://purl.org/dc/elements/1.1/">
  <sodipodi:namedview
     id="namedview7"
     pagecolor="#9c4444"
     bordercolor="#000000"
     borderopacity="0.25"
     inkscape:showpageshadow="2"
     inkscape:pageopacity="0.0"
     inkscape:pagecheckerboard="0"
     inkscape:deskcolor="#d1d1d1"
     inkscape:zoom="4.3531261"
     inkscape:cx="36.755195"
     inkscape:cy="26.188077"
     inkscape:window-width="1543"
     inkscape:window-height="1372"
     inkscape:window-x="0"
     inkscape:window-y="0"
     inkscape:window-maximized="0"
     inkscape:current-layer="svg7"
     showgrid="false" />
  <defs
     id="defs2">
    <filter
       style="color-interpolation-filters:sRGB;"
       inkscape:label="Blur"
       id="filter3"
       x="-0.10843471"
       y="-0.10870992"
       width="1.2168694"
       height="1.2174198">
      <feGaussianBlur
         stdDeviation="0.5 0.5"
         result="blur"
         id="feGaussianBlur3" />
    </filter>
    <style
       id="current-color-scheme"
       type="text/css">.ColorScheme-Text {color:#d8dee9} .ColorScheme-Highlight {color:#3b4252}</style>
    <linearGradient
       id="linearGradient3"
       inkscape:collect="always">
      <stop
         style="stop-color:#000000;stop-opacity:1;"
         offset="0"
         id="stop3" />
      <stop
         style="stop-color:#000000;stop-opacity:0;"
         offset="1"
         id="stop4" />
    </linearGradient>
    <linearGradient
       inkscape:collect="always"
       xlink:href="#linearGradient3"
       id="linearGradient4"
       x1="13.512321"
       y1="13.490874"
       x2="3.3783066"
       y2="3.3568602"
       gradientUnits="userSpaceOnUse" />
  </defs>
  <metadata
     id="metadata2">
    <rdf:RDF>
      <cc:Work
         rdf:about="">
        <dc:format>image/svg+xml</dc:format>
        <dc:type
           rdf:resource="http://purl.org/dc/dcmitype/StillImage" />
      </cc:Work>
    </rdf:RDF>
    <itype>type-a</itype>
  </metadata>
  <ellipse
     style="opacity:1;fill:none;stroke:#000000;stroke-width:0.582072;stroke-dasharray:none;stroke-opacity:1;filter:url(#filter3)"
     id="path1-5"
     cx="8.4450111"
     cy="8.423522"
     rx="6.8752708"
     ry="6.8578653" />
  <ellipse
     style="opacity:1;fill:none;stroke-width:0.58207188;stroke-opacity:1;stroke:currentColor;stroke-dasharray:none;fill-opacity:1"
     id="path1"
     cx="8.4450111"
     cy="8.423522"
     rx="6.8752708"
     ry="6.8578653"
     class="ColorScheme-Text" />
  <ellipse
     style="fill:currentColor;stroke:none;stroke-width:0.285844;stroke-dasharray:none;stroke-opacity:1"
     id="path1-2"
     cx="8.4557552"
     cy="8.423522"
     rx="6.5738997"
     ry="6.5692253"
     class="ColorScheme-Highlight" />
  <path
     id="path8"
     d="m 5.220693,5.2090141 v 7.5735489 h 0.811452 v -0.811451 h 4.86871 v 0.811451 h 0.811452 V 5.2090141 Z M 7.11408,5.7674146 h 2.704839 c 0.746921,0 1.35242,0.5976423 1.35242,1.3349868 v 1.3524195 c -0.190953,0.1686034 -0.300326,0.4233046 -0.300597,0.6762097 2.71e-4,0.2528025 0.109723,0.507674 0.300597,0.6762099 v 0.8114515 l -0.811451,0.811452 H 6.573112 L 5.761661,10.618692 V 9.8072405 C 5.952536,9.6387046 6.061988,9.3838331 6.062258,9.1310306 6.061988,8.8781255 5.952614,8.6234243 5.761661,8.4548209 V 7.1024014 c 0,-0.7373445 0.6055,-1.3349868 1.352419,-1.3349868 z m 1.35242,0.794019 c -0.449545,0 -0.811451,0.3619074 -0.811451,0.8114517 V 8.184337 H 7.11408 v 1.893387 H 9.818919 V 8.184337 H 9.277951 V 7.3728853 C 9.277951,6.923341 8.916044,6.5614336 8.4665,6.5614336 Z m 0,0.2704839 c 0.337159,0 0.540967,0.1476301 0.540967,0.5409678 V 8.184337 H 7.925532 V 7.3728853 c 0,-0.3933377 0.203813,-0.5409678 0.540968,-0.5409678 z M 6.573112,12.241596 v 0.270484 h 2.434355 v -0.270484 z m 2.704839,0 v 0.270484 h 1.081937 v -0.270484 z"
     style="opacity:0.3;fill:#000000;fill-opacity:1;stroke-width:0.270484" />
  <path
     id="path8-7"
     class="ColorScheme-Text"
     d="m 5.220693,4.6797255 v 7.5735485 h 0.811452 v -0.811452 h 4.86871 v 0.811452 h 0.811452 V 4.6797255 Z m 1.893387,0.558401 h 2.704839 c 0.746921,0 1.352421,0.597642 1.352421,1.334986 v 1.35242 c -0.190954,0.168603 -0.300327,0.423304 -0.300598,0.67621 2.71e-4,0.252802 0.109723,0.507673 0.300598,0.676209 v 0.8114525 l -0.811452,0.811452 H 6.573112 L 5.761661,10.089404 V 9.2779515 c 0.190875,-0.168536 0.300327,-0.423407 0.300597,-0.676209 -2.7e-4,-0.252906 -0.109644,-0.507607 -0.300597,-0.67621 v -1.35242 c 0,-0.737344 0.6055,-1.334986 1.352419,-1.334986 z m 1.35242,0.794019 c -0.449545,0 -0.811451,0.361907 -0.811451,0.811451 v 0.811452 H 7.11408 v 1.893387 H 9.818919 V 7.6550485 H 9.277952 v -0.811452 c 0,-0.449544 -0.361908,-0.811451 -0.811452,-0.811451 z m 0,0.270483 c 0.337159,0 0.540967,0.147631 0.540967,0.540968 v 0.811452 H 7.925532 v -0.811452 c 0,-0.393337 0.203813,-0.540968 0.540968,-0.540968 z M 6.573112,11.712307 v 0.270484 h 2.434355 v -0.270484 z m 2.70484,0 v 0.270484 h 1.081936 v -0.270484 z"
     style="fill:currentColor;fill-opacity:1;stroke-width:0.270484" />
  <path
     id="gradient-path1"
     style="opacity:0.3;baseline-shift:baseline;display:inline;overflow:visible;vector-effect:none;enable-background:accumulate;stop-color:#000000;stop-opacity:1;fill:url(#linearGradient4)"
     d="M 8.4453131 1.2753492 C 4.4913166 1.2753492 1.2794833 4.4784283 1.2794833 8.4236094 C 1.2794833 12.36879 4.4913166 15.572386 8.4453131 15.572386 C 12.39931 15.572386 15.611143 12.36879 15.611143 8.4236094 C 15.611143 4.4784283 12.39931 1.2753492 8.4453131 1.2753492 z " />
</svg>
