<?xml version="1.0" encoding="UTF-8" standalone="no"?>
<svg
   width="64"
   height="64"
   version="1.1"
   viewBox="0 0 16.933 16.933"
   id="svg7"
   sodipodi:docname="preferences-desktop-filetype-association.svg"
   inkscape:version="1.4.2 (ebf0e940d0, 2025-05-08)"
   xmlns:inkscape="http://www.inkscape.org/namespaces/inkscape"
   xmlns:sodipodi="http://sodipodi.sourceforge.net/DTD/sodipodi-0.dtd"
   xmlns:xlink="http://www.w3.org/1999/xlink"
   xmlns="http://www.w3.org/2000/svg"
   xmlns:svg="http://www.w3.org/2000/svg"
   xmlns:rdf="http://www.w3.org/1999/02/22-rdf-syntax-ns#"
   xmlns:cc="http://creativecommons.org/ns#"
   xmlns:dc="http://purl.org/dc/elements/1.1/">
  <sodipodi:namedview
     id="namedview7"
     pagecolor="#9c4444"
     bordercolor="#000000"
     borderopacity="0.25"
     inkscape:showpageshadow="2"
     inkscape:pageopacity="0.0"
     inkscape:pagecheckerboard="0"
     inkscape:deskcolor="#d1d1d1"
     inkscape:zoom="4.3531261"
     inkscape:cx="36.640335"
     inkscape:cy="26.188077"
     inkscape:window-width="1272"
     inkscape:window-height="1372"
     inkscape:window-x="0"
     inkscape:window-y="0"
     inkscape:window-maximized="0"
     inkscape:current-layer="svg7"
     showgrid="false" />
  <defs
     id="defs2">
    <filter
       style="color-interpolation-filters:sRGB;"
       inkscape:label="Blur"
       id="filter3"
       x="-0.10843471"
       y="-0.10870992"
       width="1.2168694"
       height="1.2174198">
      <feGaussianBlur
         stdDeviation="0.5 0.5"
         result="blur"
         id="feGaussianBlur3" />
    </filter>
    <style
       id="current-color-scheme"
       type="text/css">.ColorScheme-Text {color:#d8dee9} .ColorScheme-Highlight {color:#3b4252}</style>
    <linearGradient
       id="linearGradient3"
       inkscape:collect="always">
      <stop
         style="stop-color:#000000;stop-opacity:1;"
         offset="0"
         id="stop3" />
      <stop
         style="stop-color:#000000;stop-opacity:0;"
         offset="1"
         id="stop4" />
    </linearGradient>
    <linearGradient
       inkscape:collect="always"
       xlink:href="#linearGradient3"
       id="linearGradient4"
       x1="13.512321"
       y1="13.490874"
       x2="3.3783066"
       y2="3.3568602"
       gradientUnits="userSpaceOnUse" />
  </defs>
  <metadata
     id="metadata2">
    <rdf:RDF>
      <cc:Work
         rdf:about="">
        <dc:format>image/svg+xml</dc:format>
        <dc:type
           rdf:resource="http://purl.org/dc/dcmitype/StillImage" />
      </cc:Work>
    </rdf:RDF>
    <itype>type-a</itype>
  </metadata>
  <ellipse
     style="opacity:1;fill:none;stroke:#000000;stroke-width:0.582072;stroke-dasharray:none;stroke-opacity:1;filter:url(#filter3)"
     id="path1-5"
     cx="8.4450111"
     cy="8.423522"
     rx="6.8752708"
     ry="6.8578653" />
  <ellipse
     style="opacity:1;fill:none;stroke-width:0.58207188;stroke-opacity:1;stroke:currentColor;stroke-dasharray:none;fill-opacity:1"
     id="path1"
     cx="8.4450111"
     cy="8.423522"
     rx="6.8752708"
     ry="6.8578653"
     class="ColorScheme-Text" />
  <ellipse
     style="fill:currentColor;stroke:none;stroke-width:0.285844;stroke-dasharray:none;stroke-opacity:1"
     id="path1-2"
     cx="8.4557552"
     cy="8.423522"
     rx="6.5738997"
     ry="6.5692253"
     class="ColorScheme-Highlight" />
  <path
     id="path8532"
     style="opacity:0.3;fill:#000000;fill-opacity:1;stroke-width:0.329354"
     d="M 7.801876,5.2090141 A 0.98575793,0.98575793 0 0 0 6.829144,6.0455317 V 6.1972159 H 8.512155 L 10.78145,8.466511 c 0.0013,0.8899158 -9.65e-4,1.77938 0,2.668967 a 0.98707536,0.98707536 0 0 0 0.972485,-0.986206 V 7.679143 A 0.98806344,0.98806344 0 0 0 11.481997,6.9980544 L 10.015289,5.5315971 C 9.829204,5.3402421 9.550584,5.2090141 9.283806,5.2090141 Z M 6.151797,6.8541035 A 0.98575793,0.98575793 0 0 0 5.179065,7.690868 v 4.255181 a 0.98575793,0.98575793 0 0 0 0.972732,0.836514 h 2.964105 a 0.98806344,0.98806344 0 0 0 0.988201,-0.987951 V 9.3242324 A 0.98806344,0.98806344 0 0 0 9.831918,8.6431438 L 8.36521,7.1766864 C 8.179125,6.9856608 7.900501,6.8541035 7.633724,6.8541035 Z" />
  <path
     id="path8532-3"
     style="fill:currentColor;fill-opacity:1;stroke-width:0.329354"
     class="ColorScheme-Text"
     d="M 7.801876,4.6797255 A 0.98575793,0.98575793 0 0 0 6.829144,5.5162431 v 0.1516842 h 1.683011 l 2.269295,2.2692951 c 0.0013,0.889916 -9.65e-4,1.77938 0,2.6689666 A 0.98707536,0.98707536 0 0 0 11.753935,9.6199834 V 7.1498544 A 0.98806344,0.98806344 0 0 0 11.481997,6.4687654 L 10.015289,5.0023085 C 9.829204,4.8109535 9.550584,4.6797255 9.283806,4.6797255 Z M 6.151797,6.3248144 A 0.98575793,0.98575793 0 0 0 5.179065,7.1615794 V 11.41676 a 0.98575793,0.98575793 0 0 0 0.972732,0.836514 h 2.964105 a 0.98806344,0.98806344 0 0 0 0.988201,-0.987951 V 8.7949434 A 0.98806344,0.98806344 0 0 0 9.831918,8.1138554 L 8.36521,6.6473974 C 8.179125,6.4563724 7.900501,6.3248144 7.633724,6.3248144 Z" />
  <path
     id="gradient-path1"
     style="opacity:0.3;baseline-shift:baseline;display:inline;overflow:visible;vector-effect:none;enable-background:accumulate;stop-color:#000000;stop-opacity:1;fill:url(#linearGradient4)"
     d="M 8.4453131 1.2753492 C 4.4913166 1.2753492 1.2794833 4.4784283 1.2794833 8.4236094 C 1.2794833 12.36879 4.4913166 15.572386 8.4453131 15.572386 C 12.39931 15.572386 15.611143 12.36879 15.611143 8.4236094 C 15.611143 4.4784283 12.39931 1.2753492 8.4453131 1.2753492 z " />
</svg>
