<?xml version="1.0" encoding="UTF-8" standalone="no"?>
<svg
   width="64"
   height="64"
   version="1.1"
   viewBox="0 0 16.933 16.933"
   id="svg7"
   sodipodi:docname="preferences-system-network.svg"
   inkscape:version="1.4.2 (ebf0e940d0, 2025-05-08)"
   xmlns:inkscape="http://www.inkscape.org/namespaces/inkscape"
   xmlns:sodipodi="http://sodipodi.sourceforge.net/DTD/sodipodi-0.dtd"
   xmlns:xlink="http://www.w3.org/1999/xlink"
   xmlns="http://www.w3.org/2000/svg"
   xmlns:svg="http://www.w3.org/2000/svg"
   xmlns:rdf="http://www.w3.org/1999/02/22-rdf-syntax-ns#"
   xmlns:cc="http://creativecommons.org/ns#"
   xmlns:dc="http://purl.org/dc/elements/1.1/">
  <sodipodi:namedview
     id="namedview7"
     pagecolor="#9c4444"
     bordercolor="#000000"
     borderopacity="0.25"
     inkscape:showpageshadow="2"
     inkscape:pageopacity="0.0"
     inkscape:pagecheckerboard="0"
     inkscape:deskcolor="#d1d1d1"
     inkscape:zoom="4.3531261"
     inkscape:cx="70.179451"
     inkscape:cy="26.188077"
     inkscape:window-width="1272"
     inkscape:window-height="1372"
     inkscape:window-x="0"
     inkscape:window-y="0"
     inkscape:window-maximized="0"
     inkscape:current-layer="svg7"
     showgrid="false" />
  <defs
     id="defs2">
    <filter
       style="color-interpolation-filters:sRGB;"
       inkscape:label="Blur"
       id="filter3"
       x="-0.10843471"
       y="-0.10870992"
       width="1.2168694"
       height="1.2174198">
      <feGaussianBlur
         stdDeviation="0.5 0.5"
         result="blur"
         id="feGaussianBlur3" />
    </filter>
    <style
       id="current-color-scheme"
       type="text/css">.ColorScheme-Text {color:#d8dee9} .ColorScheme-Highlight {color:#3b4252}</style>
    <linearGradient
       id="linearGradient3"
       inkscape:collect="always">
      <stop
         style="stop-color:#000000;stop-opacity:1;"
         offset="0"
         id="stop3" />
      <stop
         style="stop-color:#000000;stop-opacity:0;"
         offset="1"
         id="stop4" />
    </linearGradient>
    <linearGradient
       inkscape:collect="always"
       xlink:href="#linearGradient3"
       id="linearGradient4"
       x1="13.512321"
       y1="13.490874"
       x2="3.3783066"
       y2="3.3568602"
       gradientUnits="userSpaceOnUse" />
  </defs>
  <metadata
     id="metadata2">
    <rdf:RDF>
      <cc:Work
         rdf:about="">
        <dc:format>image/svg+xml</dc:format>
        <dc:type
           rdf:resource="http://purl.org/dc/dcmitype/StillImage" />
      </cc:Work>
    </rdf:RDF>
    <itype>type-a</itype>
  </metadata>
  <ellipse
     style="opacity:1;fill:none;stroke:#000000;stroke-width:0.582072;stroke-dasharray:none;stroke-opacity:1;filter:url(#filter3)"
     id="path1-5"
     cx="8.4450111"
     cy="8.423522"
     rx="6.8752708"
     ry="6.8578653" />
  <ellipse
     style="opacity:1;fill:none;stroke-width:0.58207188;stroke-opacity:1;stroke:currentColor;stroke-dasharray:none;fill-opacity:1"
     id="path1"
     cx="8.4450111"
     cy="8.423522"
     rx="6.8752708"
     ry="6.8578653"
     class="ColorScheme-Text" />
  <ellipse
     style="fill:currentColor;stroke:none;stroke-width:0.285844;stroke-dasharray:none;stroke-opacity:1"
     id="path1-2"
     cx="8.4557552"
     cy="8.423522"
     rx="6.5738997"
     ry="6.5692253"
     class="ColorScheme-Highlight" />
  <path
     style="opacity:0.3;fill:#000000;fill-opacity:1;stroke:none;stroke-width:0.228526;stroke-dasharray:none;stroke-dashoffset:2.2;stroke-opacity:0.3"
     d="m 5.7843723,11.747584 c -0.33778,-0.07932 -0.747328,-0.432675 -0.921722,-0.795257 -0.142458,-0.296182 -0.183083,-0.483261 -0.182924,-0.842377 1.12e-4,-0.2549626 0.011729,-0.3524941 0.060971,-0.5118448 0.192561,-0.6231591 0.629667,-1.0443102 1.174391,-1.1315214 0.152763,-0.024458 0.221712,-0.022587 0.380603,0.01034 0.106723,0.022113 0.214714,0.048454 0.239977,0.058533 0.0413,0.016476 0.04594,-0.00159 0.04594,-0.179036 0,-0.5931319 0.239196,-1.1735041 0.656227,-1.5922275 0.351661,-0.3530875 0.68916,-0.51613 1.127133,-0.5445047 1.028554,-0.066638 1.9041047,0.84661 1.9870057,2.0725565 0.0095,0.1407571 0.01996,0.2559225 0.02318,0.2559225 0.0032,0 0.05757,-0.019383 0.120734,-0.043072 0.172469,-0.064676 0.545317,-0.057955 0.742701,0.013389 0.455766,0.1647381 0.826597,0.598205 0.96178,1.1242296 0.06629,0.2579284 0.07091,0.6702698 0.01032,0.9205458 -0.134068,0.553867 -0.532785,1.015914 -1.001635,1.160728 -0.166361,0.05138 -0.237003,0.05267 -2.7469007,0.05011 -1.443621,-0.0015 -2.620833,-0.01314 -2.677793,-0.02651 z"
     id="path99" />
  <path
     style="fill:currentColor;fill-opacity:1;stroke:none;stroke-width:0.228526;stroke-dasharray:none;stroke-dashoffset:2.2;stroke-opacity:0.3"
     d="m 5.7843728,11.218532 c -0.33778,-0.07932 -0.747328,-0.432675 -0.921722,-0.795257 -0.142458,-0.296182 -0.183083,-0.4832605 -0.182924,-0.8423765 1.12e-4,-0.254963 0.01173,-0.352494 0.06097,-0.511845 0.192561,-0.623159 0.629667,-1.04431 1.174391,-1.131521 0.152763,-0.02446 0.221712,-0.02259 0.380603,0.01034 0.106723,0.02211 0.214714,0.04845 0.239977,0.05853 0.0413,0.01648 0.04594,-0.0016 0.04594,-0.179036 0,-0.593132 0.239196,-1.1735044 0.656227,-1.5922278 0.351661,-0.3530875 0.68916,-0.5161301 1.127133,-0.5445047 1.028554,-0.066638 1.9041052,0.84661 1.9870062,2.0725565 0.0095,0.140757 0.01996,0.255923 0.02318,0.255923 0.0032,0 0.05757,-0.01938 0.120734,-0.04307 0.172469,-0.06468 0.545317,-0.05795 0.742701,0.01339 0.455766,0.164738 0.826597,0.598205 0.96178,1.124229 0.06629,0.257929 0.07091,0.67027 0.01032,0.9205455 -0.134068,0.553867 -0.532785,1.015914 -1.001635,1.160728 -0.166361,0.05138 -0.237003,0.05267 -2.7469012,0.05011 -1.443621,-0.0015 -2.620833,-0.01314 -2.677793,-0.02651 z"
     id="path99-9"
     class="ColorScheme-Text" />
  <path
     id="gradient-path1"
     style="opacity:0.3;baseline-shift:baseline;display:inline;overflow:visible;vector-effect:none;enable-background:accumulate;stop-color:#000000;stop-opacity:1;fill:url(#linearGradient4)"
     d="M 8.4453131 1.2753492 C 4.4913166 1.2753492 1.2794833 4.4784283 1.2794833 8.4236094 C 1.2794833 12.36879 4.4913166 15.572386 8.4453131 15.572386 C 12.39931 15.572386 15.611143 12.36879 15.611143 8.4236094 C 15.611143 4.4784283 12.39931 1.2753492 8.4453131 1.2753492 z " />
</svg>
