<?xml version='1.0' encoding='UTF-8'?>
<svg xmlns:inkscape="http://www.inkscape.org/namespaces/inkscape" xmlns:sodipodi="http://sodipodi.sourceforge.net/DTD/sodipodi-0.dtd" xmlns:xlink="http://www.w3.org/1999/xlink" xmlns="http://www.w3.org/2000/svg" xmlns:svg="http://www.w3.org/2000/svg" xmlns:rdf="http://www.w3.org/1999/02/22-rdf-syntax-ns#" xmlns:cc="http://creativecommons.org/ns#" xmlns:dc="http://purl.org/dc/elements/1.1/" width="64" height="64" version="1.1" viewBox="0 0 16.933 16.933" id="svg7" sodipodi:docname="preferences-desktop-theme-applications.svg" inkscape:version="1.4 (e7c3feb100, 2024-10-09)">
  <sodipodi:namedview id="namedview7" pagecolor="#9c4444" bordercolor="#000000" borderopacity="0.25" inkscape:showpageshadow="2" inkscape:pageopacity="0.0" inkscape:pagecheckerboard="0" inkscape:deskcolor="#d1d1d1" inkscape:zoom="4.3531261" inkscape:cx="36.984915" inkscape:cy="25.958357" inkscape:window-width="1280" inkscape:window-height="669" inkscape:window-x="11" inkscape:window-y="118" inkscape:window-maximized="0" inkscape:current-layer="svg7" showgrid="false"/>
  <defs id="defs2">
    <filter style="color-interpolation-filters:sRGB;" inkscape:label="Blur" id="filter3" x="-0.10843471" y="-0.10870992" width="1.2168694" height="1.2174198">
      <feGaussianBlur stdDeviation="0.5 0.5" result="blur" id="feGaussianBlur3"/>
    </filter>
    <style id="current-color-scheme" type="text/css">.ColorScheme-Text {color:#d8dee9} .ColorScheme-Highlight {color:#3b4252}</style><linearGradient id="linearGradient3" inkscape:collect="always">
      <stop style="stop-color:#000000;stop-opacity:1;" offset="0" id="stop3"/>
      <stop style="stop-color:#000000;stop-opacity:0;" offset="1" id="stop4"/>
    </linearGradient>
    <linearGradient inkscape:collect="always" xlink:href="#linearGradient3" id="linearGradient4" x1="13.512321" y1="13.490874" x2="3.3783066" y2="3.3568602" gradientUnits="userSpaceOnUse"/>
  </defs>
  <metadata id="metadata2">
    <rdf:RDF>
      <cc:Work rdf:about="">
        <dc:format>image/svg+xml</dc:format>
        <dc:type rdf:resource="http://purl.org/dc/dcmitype/StillImage"/>
      </cc:Work>
    </rdf:RDF>
  </metadata>
  <ellipse style="opacity:1;fill:none;stroke:#000000;stroke-width:0.582072;stroke-dasharray:none;stroke-opacity:1;filter:url(#filter3)" id="path1-5" cx="8.4450111" cy="8.423522" rx="6.8752708" ry="6.8578653"/>
  <ellipse style="opacity:1;fill:none;stroke-width:0.58207188;stroke-opacity:1;stroke:currentColor;stroke-dasharray:none;fill-opacity:1" id="path1" cx="8.4450111" cy="8.423522" rx="6.8752708" ry="6.8578653" class="ColorScheme-Text"/>
  <ellipse style="fill:currentColor;stroke:none;stroke-width:0.285844;stroke-dasharray:none;stroke-opacity:1" id="path1-2" cx="8.4557552" cy="8.423522" rx="6.5738997" ry="6.5692253" class="ColorScheme-Highlight"/>
<path d="M 10.054202,8.1185987 11.343038,6.8297634 10.872372,6.3590965 9.5835349,7.6479316 Z m 1.966245,-1.2888353 q 0,0.1187659 -0.07918,0.1979438 L 6.2844671,12.684506 q -0.079177,0.07918 -0.1979436,0.07918 -0.1187668,0 -0.1979443,-0.07918 L 5.0176255,11.813553 q -0.079178,-0.07918 -0.079178,-0.197943 0,-0.118766 0.079178,-0.197945 L 10.674427,5.7608655 q 0.07918,-0.079178 0.197945,-0.079178 0.118766,0 0.197943,0.079178 l 0.870954,0.870953 q 0.07918,0.079179 0.07918,0.1979449 z M 6.077727,5.9939996 6.5088049,6.1259621 6.077727,6.2579255 5.9457646,6.6890024 5.8138018,6.2579255 5.3827241,6.1259621 5.8138018,5.9939996 5.9457646,5.5629213 Z M 7.6172914,6.7065983 8.4794472,6.9705233 7.6172914,7.2344489 7.3533664,8.096605 7.0894411,7.2344489 6.2272846,6.9705233 7.0894411,6.7065983 7.3533664,5.844442 Z M 11.708135,8.8092031 12.139212,8.941166 11.708135,9.073129 11.576172,9.5042066 11.444207,9.073129 11.013131,8.941166 11.444207,8.8092031 11.576172,8.3781253 Z M 8.8929312,5.9939996 9.3240086,6.1259621 8.8929312,6.2579255 8.7609678,6.6890024 8.6290049,6.2579255 8.1979273,6.1259621 8.6290049,5.9939996 8.7609678,5.5629213 Z" id="path1-3-3-6" style="overflow:hidden;opacity:0.3;fill:#000000;fill-opacity:1;stroke-width:0.00769783"/>
  <path d="M 10.054202,7.5365269 11.343038,6.2476915 10.872372,5.7770246 9.5835349,7.0658598 Z m 1.966245,-1.2888354 q 0,0.1187659 -0.07918,0.1979438 L 6.2844671,12.102435 q -0.079177,0.07918 -0.1979436,0.07918 -0.1187668,0 -0.1979443,-0.07918 L 5.0176255,11.231481 q -0.079178,-0.07918 -0.079178,-0.197943 0,-0.118766 0.079178,-0.197945 L 10.674427,5.1787937 q 0.07918,-0.079178 0.197945,-0.079178 0.118766,0 0.197943,0.079178 l 0.870954,0.870953 q 0.07918,0.079179 0.07918,0.1979448 z M 6.077727,5.4119278 6.5088049,5.5438903 6.077727,5.6758537 5.9457646,6.1069306 5.8138018,5.6758537 5.3827241,5.5438903 5.8138018,5.4119278 5.9457646,4.9808495 Z M 7.6172914,6.1245265 8.4794472,6.3884515 7.6172914,6.652377 7.3533664,7.5145332 7.0894411,6.652377 6.2272846,6.3884515 7.0894411,6.1245265 7.3533664,5.2623702 Z M 11.708135,8.2271313 12.139212,8.3590941 11.708135,8.4910572 11.576172,8.9221347 11.444207,8.4910572 11.013131,8.3590941 11.444207,8.2271313 11.576172,7.7960535 Z M 8.8929312,5.4119278 9.3240086,5.5438903 8.8929312,5.6758537 8.7609678,6.1069306 8.6290049,5.6758537 8.1979273,5.5438903 8.6290049,5.4119278 8.7609678,4.9808495 Z" id="path1-3-3" style="overflow:hidden;fill:currentColor;stroke-width:0.00769783" class="ColorScheme-Text"/>
<path id="gradient-path1" style="opacity:0.3;baseline-shift:baseline;display:inline;overflow:visible;vector-effect:none;enable-background:accumulate;stop-color:#000000;stop-opacity:1;fill:url(#linearGradient4)" d="M 8.4453131 1.2753492 C 4.4913166 1.2753492 1.2794833 4.4784283 1.2794833 8.4236094 C 1.2794833 12.36879 4.4913166 15.572386 8.4453131 15.572386 C 12.39931 15.572386 15.611143 12.36879 15.611143 8.4236094 C 15.611143 4.4784283 12.39931 1.2753492 8.4453131 1.2753492 z "/>
</svg>
