<?xml version="1.0" encoding="UTF-8" standalone="no"?>
<svg
   width="64"
   height="64"
   version="1.1"
   viewBox="0 0 16.933 16.933"
   id="svg7"
   sodipodi:docname="preferences-kde-connect.svg"
   inkscape:version="1.4.2 (ebf0e940d0, 2025-05-08)"
   xmlns:inkscape="http://www.inkscape.org/namespaces/inkscape"
   xmlns:sodipodi="http://sodipodi.sourceforge.net/DTD/sodipodi-0.dtd"
   xmlns:xlink="http://www.w3.org/1999/xlink"
   xmlns="http://www.w3.org/2000/svg"
   xmlns:svg="http://www.w3.org/2000/svg"
   xmlns:rdf="http://www.w3.org/1999/02/22-rdf-syntax-ns#"
   xmlns:cc="http://creativecommons.org/ns#"
   xmlns:dc="http://purl.org/dc/elements/1.1/">
  <sodipodi:namedview
     id="namedview7"
     pagecolor="#9c4444"
     bordercolor="#000000"
     borderopacity="0.25"
     inkscape:showpageshadow="2"
     inkscape:pageopacity="0.0"
     inkscape:pagecheckerboard="0"
     inkscape:deskcolor="#d1d1d1"
     inkscape:zoom="4.3531261"
     inkscape:cx="36.525475"
     inkscape:cy="26.647517"
     inkscape:window-width="1272"
     inkscape:window-height="1372"
     inkscape:window-x="0"
     inkscape:window-y="0"
     inkscape:window-maximized="0"
     inkscape:current-layer="svg7"
     showgrid="false" />
  <defs
     id="defs2">
    <filter
       style="color-interpolation-filters:sRGB;"
       inkscape:label="Blur"
       id="filter3"
       x="-0.10843471"
       y="-0.10870992"
       width="1.2168694"
       height="1.2174198">
      <feGaussianBlur
         stdDeviation="0.5 0.5"
         result="blur"
         id="feGaussianBlur3" />
    </filter>
    <style
       id="current-color-scheme"
       type="text/css">.ColorScheme-Text {color:#d8dee9} .ColorScheme-Highlight {color:#3b4252}</style>
    <linearGradient
       id="linearGradient3"
       inkscape:collect="always">
      <stop
         style="stop-color:#000000;stop-opacity:1;"
         offset="0"
         id="stop3" />
      <stop
         style="stop-color:#000000;stop-opacity:0;"
         offset="1"
         id="stop4" />
    </linearGradient>
    <linearGradient
       inkscape:collect="always"
       xlink:href="#linearGradient3"
       id="linearGradient4"
       x1="13.512321"
       y1="13.490874"
       x2="3.3783066"
       y2="3.3568602"
       gradientUnits="userSpaceOnUse" />
  </defs>
  <metadata
     id="metadata2">
    <rdf:RDF>
      <cc:Work
         rdf:about="">
        <dc:format>image/svg+xml</dc:format>
        <dc:type
           rdf:resource="http://purl.org/dc/dcmitype/StillImage" />
      </cc:Work>
    </rdf:RDF>
    <itype>type-a</itype>
  </metadata>
  <ellipse
     style="opacity:1;fill:none;stroke:#000000;stroke-width:0.582072;stroke-dasharray:none;stroke-opacity:1;filter:url(#filter3)"
     id="path1-5"
     cx="8.4450111"
     cy="8.423522"
     rx="6.8752708"
     ry="6.8578653" />
  <ellipse
     style="opacity:1;fill:none;stroke-width:0.58207188;stroke-opacity:1;stroke:currentColor;stroke-dasharray:none;fill-opacity:1"
     id="path1"
     cx="8.4450111"
     cy="8.423522"
     rx="6.8752708"
     ry="6.8578653"
     class="ColorScheme-Text" />
  <ellipse
     style="fill:currentColor;stroke:none;stroke-width:0.285844;stroke-dasharray:none;stroke-opacity:1"
     id="path1-2"
     cx="8.4557552"
     cy="8.423522"
     rx="6.5738997"
     ry="6.5692253"
     class="ColorScheme-Highlight" />
  <path
     id="rect4232"
     style="opacity:0.3;fill:#000000;fill-opacity:1;stroke-width:0.312145"
     d="m 6.2974319,4.4978281 c -0.1423949,0 -0.2569176,0.114525 -0.2569176,0.2569188 v 8.4818191 c 0,0.142395 0.114525,0.256918 0.2569176,0.256918 h 4.3381371 c 0.142394,0 0.256917,-0.114525 0.256917,-0.256918 V 4.7547469 c 0,-0.142395 -0.114525,-0.2569188 -0.256917,-0.2569188 z m 1.3894768,0.3211475 h 1.5591836 c 0.072002,0 0.1302273,0.05763 0.1302273,0.1296371 v 0.061872 c 0,0.072002 -0.058213,0.1296383 -0.1302273,0.1296383 H 7.6869087 c -0.072002,0 -0.1302262,-0.057631 -0.1302262,-0.1296383 v -0.061872 c 0,-0.072002 0.058212,-0.1296371 0.1302262,-0.1296371 z M 6.343394,5.4612697 h 4.246213 V 12.530043 H 6.343394 Z m 2.3941664,1.805495 -0.5745293,0.05539 v 2.3670607 l 0.5686367,-0.08603 V 8.5943697 L 9.4965293,9.7139643 10.095807,9.523634 9.3126788,8.4470543 10.1017,7.431758 9.4906356,7.2915139 8.7316678,8.3068103 8.7374878,7.2673543 Z M 7.4352946,7.8436508 v 5.847e-4 c -0.00654,9.691e-4 -0.01341,0.00228 -0.018268,0.00707 L 7.1907511,8.0775789 c -0.0095,0.00953 -0.010453,0.023874 -0.00356,0.035356 L 7.4511795,8.5489877 C 7.4043095,8.6277697 7.3660165,8.7121831 7.33922,8.8017805 L 6.8542568,8.9025429 c -0.013493,0.00289 -0.022983,0.015648 -0.022983,0.029463 V 9.250796 c 0,0.013493 0.00985,0.025072 0.022983,0.028284 l 0.4702297,0.114316 c 0.025157,0.1037374 0.064093,0.2030394 0.1154991,0.2934523 L 7.1677481,10.101687 c -0.00761,0.0116 -0.00642,0.02734 0.00356,0.03713 l 0.2256875,0.225687 c 0.0095,0.0095 0.024468,0.01048 0.035942,0.0035 l 0.4272133,-0.258685 c 0.083798,0.04838 0.174313,0.08674 0.2698822,0.11255 l 0.099583,0.479069 c 0.00285,0.01353 0.014467,0.02357 0.02828,0.02357 h 0.319379 c 0.013398,0 0.025134,-0.0093 0.028293,-0.02239 l 0.1178534,-0.481405 c 0.098561,-0.02661 0.1909928,-0.06608 0.2769531,-0.116673 l 0.4213208,0.276362 c 0.01164,0.0075 0.027307,0.0063 0.037129,-0.0035 l 0.2245081,-0.226276 c 0.0095,-0.0095 0.01164,-0.0239 0.00463,-0.03536 l -0.1532084,-0.2527917 -0.050683,0.01591 c -0.00724,0.0019 -0.015108,-0.0016 -0.019444,-0.0077 0,0 -0.096827,-0.142433 -0.2233298,-0.3276294 C 9.0900084,9.8390963 8.7811162,10.04157 8.4257606,10.04157 c -0.5049578,0 -0.9145327,-0.4095719 -0.9145327,-0.9145331 0,-0.3714305 0.2222833,-0.6906642 0.540351,-0.8338043 v -0.235659 c -0.057892,0.020241 -0.1136104,0.0447 -0.1667597,0.073657 V 8.1306123 8.1300276 L 7.4534841,7.8477719 c -0.00582,-0.00376 -0.011759,-0.00474 -0.018268,-0.00412 z" />
  <path
     id="rect4232-6"
     style="fill:currentColor;fill-opacity:1;stroke-width:0.312145"
     class="ColorScheme-Text"
     d="m 6.2974319,3.9686716 c -0.1423949,0 -0.2569176,0.114525 -0.2569176,0.2569188 v 8.4818186 c 0,0.142395 0.114525,0.256919 0.2569176,0.256919 h 4.3381371 c 0.142395,0 0.256917,-0.114526 0.256917,-0.256919 V 4.2255904 c 0,-0.1423949 -0.114525,-0.2569188 -0.256917,-0.2569188 z m 1.3894769,0.3211477 h 1.5591836 c 0.072002,0 0.1302274,0.05763 0.1302274,0.1296371 v 0.061871 c 0,0.072002 -0.058213,0.1296383 -0.1302274,0.1296383 H 7.6869088 c -0.072002,0 -0.1302262,-0.057631 -0.1302262,-0.1296383 v -0.061871 c 0,-0.072002 0.058213,-0.1296371 0.1302262,-0.1296371 z M 6.343394,4.9321134 h 4.246213 V 12.000885 H 6.343394 Z M 8.7375605,6.7376083 8.1630312,6.7929989 V 9.1600597 L 8.7316679,9.0740281 V 8.0652134 L 9.4965295,9.184809 10.095807,8.9944779 9.312679,7.9178983 10.1017,6.9026017 9.4906359,6.7623576 8.7316679,7.7776541 8.737488,6.7381979 Z M 7.4352947,7.3144945 v 5.848e-4 c -0.00654,9.69e-4 -0.01341,0.00228 -0.018268,0.00707 L 7.1907511,7.5484227 c -0.0095,0.00953 -0.010453,0.023874 -0.00356,0.035356 l 0.263988,0.4360528 C 7.4043068,8.0986131 7.3660134,8.1830263 7.3392168,8.2726236 L 6.8542563,8.3733871 c -0.013493,0.00289 -0.022983,0.015648 -0.022983,0.029463 v 0.3187902 c 0,0.013493 0.00985,0.025072 0.022983,0.028285 l 0.4702298,0.114316 c 0.025157,0.1037373 0.064093,0.2030384 0.115499,0.2934517 L 7.1677476,9.5725321 c -0.00761,0.011592 -0.00642,0.027337 0.00356,0.037123 l 0.2256876,0.2256872 c 0.0095,0.0095 0.024468,0.01049 0.035942,0.0035 L 7.8601538,9.5801955 c 0.083798,0.048382 0.1743129,0.086737 0.2698822,0.1125488 l 0.099583,0.4790687 c 0.00285,0.01352 0.014467,0.02357 0.02828,0.02357 h 0.3193791 c 0.013398,0 0.025134,-0.0092 0.028293,-0.02239 l 0.117851,-0.4814298 c 0.098561,-0.026608 0.1909927,-0.066077 0.2769531,-0.1166738 l 0.4213211,0.276365 c 0.01164,0.0075 0.027307,0.0063 0.037129,-0.0035 L 9.6833342,9.6214391 c 0.0095,-0.00953 0.01164,-0.023906 0.00463,-0.035356 L 9.5347584,9.3332907 9.4840757,9.3492 c -0.00724,0.00194 -0.015108,-0.00155 -0.019444,-0.00766 0,0 -0.096827,-0.1424327 -0.2233298,-0.327629 -0.1512891,0.2960402 -0.4601814,0.4985143 -0.8155369,0.4985143 -0.5049578,0 -0.9145328,-0.4095718 -0.9145328,-0.9145327 0,-0.3714304 0.2222834,-0.6906643 0.5403512,-0.8338043 v -0.235705 c -0.057892,0.020241 -0.1136105,0.0447 -0.1667598,0.073657 v -5.84e-4 -5.848e-4 L 7.4534842,7.3186156 c -0.00582,-0.00376 -0.011759,-0.00474 -0.018268,-0.00412 z" />
  <path
     id="gradient-path1"
     style="opacity:0.3;baseline-shift:baseline;display:inline;overflow:visible;vector-effect:none;enable-background:accumulate;stop-color:#000000;stop-opacity:1;fill:url(#linearGradient4)"
     d="M 8.4453131 1.2753492 C 4.4913166 1.2753492 1.2794833 4.4784283 1.2794833 8.4236094 C 1.2794833 12.36879 4.4913166 15.572386 8.4453131 15.572386 C 12.39931 15.572386 15.611143 12.36879 15.611143 8.4236094 C 15.611143 4.4784283 12.39931 1.2753492 8.4453131 1.2753492 z " />
</svg>
