<?xml version="1.0" encoding="UTF-8" standalone="no"?>
<svg
   width="64"
   height="64"
   version="1.1"
   viewBox="0 0 16.933 16.933"
   id="svg7"
   sodipodi:docname="preferences-system-network-wakeonlan.svg"
   inkscape:version="1.4.2 (ebf0e940d0, 2025-05-08)"
   xmlns:inkscape="http://www.inkscape.org/namespaces/inkscape"
   xmlns:sodipodi="http://sodipodi.sourceforge.net/DTD/sodipodi-0.dtd"
   xmlns:xlink="http://www.w3.org/1999/xlink"
   xmlns="http://www.w3.org/2000/svg"
   xmlns:svg="http://www.w3.org/2000/svg"
   xmlns:rdf="http://www.w3.org/1999/02/22-rdf-syntax-ns#"
   xmlns:cc="http://creativecommons.org/ns#"
   xmlns:dc="http://purl.org/dc/elements/1.1/">
  <sodipodi:namedview
     id="namedview7"
     pagecolor="#9c4444"
     bordercolor="#000000"
     borderopacity="0.25"
     inkscape:showpageshadow="2"
     inkscape:pageopacity="0.0"
     inkscape:pagecheckerboard="0"
     inkscape:deskcolor="#d1d1d1"
     inkscape:zoom="4.3531261"
     inkscape:cx="36.755195"
     inkscape:cy="26.188077"
     inkscape:window-width="1543"
     inkscape:window-height="1372"
     inkscape:window-x="0"
     inkscape:window-y="0"
     inkscape:window-maximized="0"
     inkscape:current-layer="svg7"
     showgrid="false" />
  <defs
     id="defs2">
    <filter
       style="color-interpolation-filters:sRGB;"
       inkscape:label="Blur"
       id="filter3"
       x="-0.10843471"
       y="-0.10870992"
       width="1.2168694"
       height="1.2174198">
      <feGaussianBlur
         stdDeviation="0.5 0.5"
         result="blur"
         id="feGaussianBlur3" />
    </filter>
    <style
       id="current-color-scheme"
       type="text/css">.ColorScheme-Text {color:#d8dee9} .ColorScheme-Highlight {color:#3b4252}</style>
    <linearGradient
       id="linearGradient3"
       inkscape:collect="always">
      <stop
         style="stop-color:#000000;stop-opacity:1;"
         offset="0"
         id="stop3" />
      <stop
         style="stop-color:#000000;stop-opacity:0;"
         offset="1"
         id="stop4" />
    </linearGradient>
    <linearGradient
       inkscape:collect="always"
       xlink:href="#linearGradient3"
       id="linearGradient4"
       x1="13.512321"
       y1="13.490874"
       x2="3.3783066"
       y2="3.3568602"
       gradientUnits="userSpaceOnUse" />
  </defs>
  <metadata
     id="metadata2">
    <rdf:RDF>
      <cc:Work
         rdf:about="">
        <dc:format>image/svg+xml</dc:format>
        <dc:type
           rdf:resource="http://purl.org/dc/dcmitype/StillImage" />
      </cc:Work>
    </rdf:RDF>
    <itype>type-a</itype>
  </metadata>
  <ellipse
     style="opacity:1;fill:none;stroke:#000000;stroke-width:0.582072;stroke-dasharray:none;stroke-opacity:1;filter:url(#filter3)"
     id="path1-5"
     cx="8.4450111"
     cy="8.423522"
     rx="6.8752708"
     ry="6.8578653" />
  <ellipse
     style="opacity:1;fill:none;stroke-width:0.58207188;stroke-opacity:1;stroke:currentColor;stroke-dasharray:none;fill-opacity:1"
     id="path1"
     cx="8.4450111"
     cy="8.423522"
     rx="6.8752708"
     ry="6.8578653"
     class="ColorScheme-Text" />
  <ellipse
     style="fill:currentColor;stroke:none;stroke-width:0.285844;stroke-dasharray:none;stroke-opacity:1"
     id="path1-2"
     cx="8.4557552"
     cy="8.423522"
     rx="6.5738997"
     ry="6.5692253"
     class="ColorScheme-Highlight" />
  <path
     id="rect6"
     style="baseline-shift:baseline;display:inline;overflow:visible;opacity:0.3;vector-effect:none;fill:#000000;fill-opacity:1;stroke-width:0.261157;enable-background:accumulate;stop-color:#000000"
     d="m 8.4665,5.2090141 c -2.095615,0 -3.786775,1.6911603 -3.786775,3.7867749 0,2.095615 1.69116,3.786774 3.786775,3.786774 2.095615,0 3.786775,-1.69116 3.786775,-3.786774 0,-2.0956146 -1.69116,-3.7867739 -3.786775,-3.7867749 z m 0.261157,0.270339 c 0.938585,0.06787 1.772248,0.498999 2.362143,1.1542924 l -0.01173,0.011731 v 0.261157 h 0.233613 c 0.04088,0.055728 0.08022,0.1126927 0.117828,0.1708741 l -0.09029,0.090282 -0.522313,0.522314 -0.261157,0.2611565 -0.179546,0.5386362 c 0.04318,0.1623994 0.06613,0.3320226 0.06631,0.5059918 0,0.048029 -0.0017,0.095647 -0.0051,0.1428198 l 0.118337,0.1183367 0.261156,0.261157 0.522314,0.2611562 0.596275,-0.1469002 C 11.64953,11.217867 10.31306,12.425421 8.665424,12.515795 l 0.06223,-0.124968 V 12.12967 l 0.522314,-0.261157 0.261157,-0.261156 v -0.522314 l 0.261157,-0.261157 v -0.261157 l -0.04488,-0.04489 c -0.342069,0.283634 -0.781533,0.453965 -1.260899,0.453965 -1.024409,0 -1.866357,-0.77862 -1.966327,-1.7765806 L 6.377248,9.2569494 H 5.854929 V 8.7346293 H 5.593773 V 8.2123158 H 5.332615 L 5.071458,8.4734723 H 4.978628 C 5.021118,8.1841553 5.098395,7.9066322 5.20612,7.6451158 l 0.648812,-0.216271 0.261157,0.261157 0.261157,0.261157 V 7.4288448 L 6.89956,7.1676883 V 6.9065341 L 7.421876,6.6453771 7.94419,6.1230634 V 6.3842202 L 8.205347,6.1230634 7.94419,5.8619061 H 8.466504 V 6.1230634 L 8.988818,5.8619061 8.727661,5.6007501 Z M 8.205343,7.1676911 V 8.734632 H 8.727657 V 7.1676911 Z M 7.944186,7.2447121 A 1.8280981,1.8280981 0 0 0 6.638402,8.995789 1.8280981,1.8280981 0 0 0 8.4665,10.823888 1.8280981,1.8280981 0 0 0 10.294599,8.995789 1.8280981,1.8280981 0 0 0 8.988814,7.2457319 V 7.5206606 A 1.5669412,1.5669412 0 0 1 10.033442,8.995789 1.5669412,1.5669412 0 0 1 8.4665,10.56273 1.5669412,1.5669412 0 0 1 6.899558,8.995789 1.5669412,1.5669412 0 0 1 7.944186,7.5201507 Z M 4.945983,8.8024719 5.332617,8.995789 5.593775,9.256946 6.116088,9.518103 6.377245,9.7792592 6.116088,10.040416 v 0.522314 l 0.261157,0.522315 0.522313,0.522313 v 0.550877 C 5.736137,11.583958 4.940882,10.387429 4.940882,8.995789 c 0,-0.06484 0.0017,-0.1293701 0.0051,-0.1933171 z M 7.048499,9.0452661 C 7.074509,9.8074024 7.69772,10.41481 8.4665,10.41481 c 0.274811,0 0.531267,-0.07767 0.748275,-0.21219 L 8.727657,10.040416 8.4665,9.7792592 8.205343,9.518103 H 7.944186 L 7.68303,9.256946 Z" />
  <path
     id="rect6-9"
     class="ColorScheme-Text"
     style="baseline-shift:baseline;display:inline;overflow:visible;vector-effect:none;fill:currentColor;stroke-width:0.261157;enable-background:accumulate;stop-color:#000000"
     d="m 8.4665005,4.6797256 c -2.095616,0 -3.786775,1.6911603 -3.786775,3.7867749 0,2.0956145 1.691159,3.7867735 3.786775,3.7867735 2.0956135,0 3.7867735,-1.69116 3.7867735,-3.7867735 0,-2.0956146 -1.69116,-3.7867739 -3.7867735,-3.7867749 z m 0.261156,0.270339 c 0.938586,0.06787 1.7722485,0.498999 2.3621435,1.1542924 l -0.01173,0.011731 v 0.261157 h 0.233612 c 0.04088,0.055728 0.08022,0.1126927 0.117828,0.1708741 l -0.09029,0.090282 -0.522313,0.522314 -0.261157,0.2611565 -0.179546,0.5386362 c 0.04318,0.1623994 0.06613,0.3320226 0.06631,0.5059918 0,0.048029 -0.0017,0.095647 -0.0051,0.1428198 l 0.118339,0.1183367 0.261156,0.261157 0.522314,0.2611562 0.596275,-0.1469002 C 11.64953,10.688578 10.313059,11.896132 8.6654235,11.986506 l 0.06223,-0.124968 v -0.261157 l 0.522315,-0.261157 0.261157,-0.261156 v -0.522314 l 0.261157,-0.261157 V 10.03344 l -0.04488,-0.044885 c -0.342069,0.2836332 -0.781533,0.4539642 -1.260899,0.4539642 -1.024409,0 -1.866357,-0.7786191 -1.966327,-1.7765801 l -0.122928,0.061722 h -0.52232 V 8.2053408 H 5.5937725 V 7.6830273 h -0.261158 l -0.261157,0.2611565 h -0.09283 c 0.04249,-0.289317 0.119767,-0.5668401 0.227492,-0.8283565 l 0.648812,-0.216271 0.261158,0.261157 0.261156,0.261157 V 6.8995563 L 6.8995595,6.6383998 V 6.3772456 l 0.522317,-0.261157 0.522314,-0.5223137 V 5.8549317 L 8.2053475,5.5937749 7.9441905,5.3326176 h 0.522314 v 0.2611573 l 0.522314,-0.2611573 -0.261157,-0.261156 z m -0.522314,1.688338 v 1.5669409 h 0.522314 V 6.6384026 Z m -0.261157,0.077021 A 1.8280981,1.8280981 0 0 0 6.6384015,8.4665005 1.8280981,1.8280981 0 0 0 8.4665005,10.294599 1.8280981,1.8280981 0 0 0 10.294598,8.4665005 1.8280981,1.8280981 0 0 0 8.9888135,6.7164434 V 6.9913721 A 1.5669412,1.5669412 0 0 1 10.033441,8.4665005 1.5669412,1.5669412 0 0 1 8.4664995,10.033441 1.5669412,1.5669412 0 0 1 6.8995575,8.4665005 1.5669412,1.5669412 0 0 1 7.9441855,6.9908622 Z m -2.998203,1.5577598 0.386634,0.1933171 0.261158,0.261157 0.522314,0.261157 0.261156,0.2611562 -0.261156,0.261157 v 0.5223133 l 0.261156,0.522315 0.522314,0.522313 v 0.550877 c -1.163421,-0.574277 -1.958677,-1.7708057 -1.958677,-3.1624455 0,-0.06484 0.0017,-0.1293701 0.0051,-0.1933171 z m 2.102516,0.2427942 c 0.02601,0.7621363 0.649222,1.3695439 1.418002,1.3695439 0.274811,0 0.531267,-0.077673 0.748275,-0.2121904 L 8.7276565,9.5111277 8.4665005,9.2499707 8.2053425,8.9888145 h -0.261157 l -0.261156,-0.261157 z" />
  <path
     id="gradient-path1"
     style="opacity:0.3;baseline-shift:baseline;display:inline;overflow:visible;vector-effect:none;enable-background:accumulate;stop-color:#000000;stop-opacity:1;fill:url(#linearGradient4)"
     d="M 8.4453131 1.2753492 C 4.4913166 1.2753492 1.2794833 4.4784283 1.2794833 8.4236094 C 1.2794833 12.36879 4.4913166 15.572386 8.4453131 15.572386 C 12.39931 15.572386 15.611143 12.36879 15.611143 8.4236094 C 15.611143 4.4784283 12.39931 1.2753492 8.4453131 1.2753492 z " />
</svg>
