<?xml version="1.0" encoding="UTF-8" standalone="no"?>
<svg
   width="64"
   height="64"
   version="1.1"
   viewBox="0 0 16.933 16.933"
   id="svg7"
   sodipodi:docname="preferences-releasenotes.svg"
   inkscape:version="1.4.2 (ebf0e940d0, 2025-05-08)"
   xmlns:inkscape="http://www.inkscape.org/namespaces/inkscape"
   xmlns:sodipodi="http://sodipodi.sourceforge.net/DTD/sodipodi-0.dtd"
   xmlns:xlink="http://www.w3.org/1999/xlink"
   xmlns="http://www.w3.org/2000/svg"
   xmlns:svg="http://www.w3.org/2000/svg"
   xmlns:rdf="http://www.w3.org/1999/02/22-rdf-syntax-ns#"
   xmlns:cc="http://creativecommons.org/ns#"
   xmlns:dc="http://purl.org/dc/elements/1.1/">
  <sodipodi:namedview
     id="namedview7"
     pagecolor="#9c4444"
     bordercolor="#000000"
     borderopacity="0.25"
     inkscape:showpageshadow="2"
     inkscape:pageopacity="0.0"
     inkscape:pagecheckerboard="0"
     inkscape:deskcolor="#d1d1d1"
     inkscape:zoom="4.3531261"
     inkscape:cx="36.640335"
     inkscape:cy="26.188077"
     inkscape:window-width="1272"
     inkscape:window-height="1372"
     inkscape:window-x="0"
     inkscape:window-y="0"
     inkscape:window-maximized="0"
     inkscape:current-layer="svg7"
     showgrid="false" />
  <defs
     id="defs2">
    <filter
       style="color-interpolation-filters:sRGB;"
       inkscape:label="Blur"
       id="filter3"
       x="-0.10843471"
       y="-0.10870992"
       width="1.2168694"
       height="1.2174198">
      <feGaussianBlur
         stdDeviation="0.5 0.5"
         result="blur"
         id="feGaussianBlur3" />
    </filter>
    <style
       id="current-color-scheme"
       type="text/css">.ColorScheme-Text {color:#d8dee9} .ColorScheme-Highlight {color:#3b4252}</style>
    <linearGradient
       id="linearGradient3"
       inkscape:collect="always">
      <stop
         style="stop-color:#000000;stop-opacity:1;"
         offset="0"
         id="stop3" />
      <stop
         style="stop-color:#000000;stop-opacity:0;"
         offset="1"
         id="stop4" />
    </linearGradient>
    <linearGradient
       inkscape:collect="always"
       xlink:href="#linearGradient3"
       id="linearGradient4"
       x1="13.512321"
       y1="13.490874"
       x2="3.3783066"
       y2="3.3568602"
       gradientUnits="userSpaceOnUse" />
  </defs>
  <metadata
     id="metadata2">
    <rdf:RDF>
      <cc:Work
         rdf:about="">
        <dc:format>image/svg+xml</dc:format>
        <dc:type
           rdf:resource="http://purl.org/dc/dcmitype/StillImage" />
      </cc:Work>
    </rdf:RDF>
    <itype>type-a</itype>
  </metadata>
  <ellipse
     style="opacity:1;fill:none;stroke:#000000;stroke-width:0.582072;stroke-dasharray:none;stroke-opacity:1;filter:url(#filter3)"
     id="path1-5"
     cx="8.4450111"
     cy="8.423522"
     rx="6.8752708"
     ry="6.8578653" />
  <ellipse
     style="opacity:1;fill:none;stroke-width:0.58207188;stroke-opacity:1;stroke:currentColor;stroke-dasharray:none;fill-opacity:1"
     id="path1"
     cx="8.4450111"
     cy="8.423522"
     rx="6.8752708"
     ry="6.8578653"
     class="ColorScheme-Text" />
  <ellipse
     style="fill:currentColor;stroke:none;stroke-width:0.285844;stroke-dasharray:none;stroke-opacity:1"
     id="path1-2"
     cx="8.4557552"
     cy="8.423522"
     rx="6.5738997"
     ry="6.5692253"
     class="ColorScheme-Highlight" />
  <path
     style="opacity:0.3;fill:#000000;fill-opacity:1;stroke-width:0.0403267"
     d="m 5.4804752,12.090266 c -0.031433,-0.05873 -0.010819,-0.233333 0.081671,-0.691769 l 0.123716,-0.613212 -0.17918,-0.185332 c -0.532017,-0.550276 -0.771782,-1.0426134 -0.820444,-1.6847101 -0.100615,-1.3276492 0.97297,-2.5428784 2.636948,-2.9848528 0.35175,-0.09343 0.472591,-0.1050552 1.120163,-0.1077659 0.623373,-0.00262 0.776215,0.00963 1.082358,0.086713 1.2797208,0.3221918 2.2517468,1.0980717 2.5974778,2.0733276 0.454473,1.2820069 -0.31337,2.7006512 -1.81126,3.3464262 -0.6221198,0.268209 -0.8954158,0.323919 -1.6948418,0.345474 -0.622488,0.01679 -0.767763,0.0081 -1.139466,-0.06801 l -0.426018,-0.08725 -0.685449,0.324761 c -0.376996,0.178618 -0.72104,0.32476 -0.764541,0.32476 -0.0435,0 -0.09801,-0.03535 -0.121134,-0.07856 z m 3.033445,-1.734278 c 0.218587,-0.244622 0.118015,-0.6255647 -0.192182,-0.7279389 -0.495591,-0.1635593 -0.816313,0.5311799 -0.373394,0.8088369 0.187013,0.117236 0.418059,0.08419 0.565576,-0.0809 z M 9.7541222,8.8820542 10.37837,8.2568302 9.7441072,7.6225669 9.1098432,6.9883036 8.8673302,7.2282859 c -0.133382,0.1319902 -0.242512,0.258338 -0.242512,0.280773 0,0.022438 0.158406,0.1999353 0.352015,0.3944451 l 0.352016,0.3536544 -0.352016,0.3536542 c -0.193609,0.1945096 -0.352015,0.3709157 -0.352015,0.3920135 0,0.040009 0.444823,0.504452 0.483142,0.504452 0.01206,0 0.302826,-0.2813507 0.646162,-0.6252239 z m -2.324374,0.017401 c 0.08573,-0.067433 0.106254,-0.1175065 0.106254,-0.2591952 0,-0.1416881 -0.02053,-0.1917618 -0.106254,-0.2591948 -0.336299,-0.2645326 -0.752252,0.1882738 -0.459352,0.500051 0.119212,0.1268947 0.311581,0.1345748 0.459352,0.018339 z m 0.501455,-1.4972168 c 0.02662,-0.026615 0.04839,-0.1046471 0.04839,-0.173404 0,-0.1582994 -0.06349,-0.2217952 -0.221795,-0.2217952 -0.158299,0 -0.221796,0.063496 -0.221796,0.2217952 0,0.1582997 0.0635,0.2217957 0.221796,0.2217957 0.06876,0 0.146789,-0.021777 0.173404,-0.048392 z"
     id="path3-6" />
  <path
     style="fill:currentColor;stroke-width:0.0403267"
     d="m 5.4804752,11.561199 c -0.03143,-0.05873 -0.01082,-0.233333 0.08167,-0.691769 l 0.123717,-0.613212 -0.17918,-0.185331 C 4.9746652,9.520611 4.7349002,9.028273 4.6862382,8.386176 c -0.100615,-1.327649 0.97297,-2.5428778 2.636948,-2.9848522 0.35175,-0.09343 0.472591,-0.1050552 1.120163,-0.1077659 0.623373,-0.00262 0.776215,0.00963 1.082358,0.086713 1.2797208,0.3221918 2.2517468,1.0980717 2.5974778,2.0733271 0.454473,1.282007 -0.31337,2.700651 -1.81126,3.346426 -0.6221198,0.26821 -0.8954158,0.323919 -1.6948418,0.345475 -0.622488,0.01679 -0.767763,0.0081 -1.139466,-0.06801 l -0.426018,-0.08725 -0.685449,0.32476 c -0.376996,0.178618 -0.72104,0.324761 -0.764541,0.324761 -0.0435,0 -0.09801,-0.03535 -0.121134,-0.07856 z M 8.5139202,9.826921 C 8.7325072,9.5823 8.6319352,9.201357 8.3217382,9.098983 c -0.495591,-0.16356 -0.816313,0.53118 -0.373394,0.808836 0.187013,0.117236 0.418059,0.08419 0.565576,-0.0809 z M 9.7541222,8.352988 10.37837,7.727764 9.7441072,7.093501 9.1098432,6.4592373 8.8673302,6.6992196 c -0.133382,0.1319902 -0.242512,0.2583384 -0.242512,0.2807734 0,0.02244 0.158406,0.199935 0.352015,0.394445 l 0.352016,0.353654 -0.352016,0.353654 c -0.193609,0.19451 -0.352015,0.370916 -0.352015,0.392014 0,0.04001 0.444823,0.504452 0.483142,0.504452 0.01206,0 0.302826,-0.281351 0.646162,-0.625224 z m -2.324374,0.0174 c 0.08573,-0.06743 0.106254,-0.117507 0.106254,-0.259195 0,-0.141688 -0.02053,-0.191762 -0.106254,-0.259195 -0.336299,-0.264533 -0.752252,0.188274 -0.459352,0.500051 0.119212,0.126895 0.311581,0.134575 0.459352,0.01834 z m 0.501455,-1.4972169 c 0.02662,-0.026615 0.04839,-0.1046471 0.04839,-0.173404 0,-0.1582994 -0.06349,-0.2217952 -0.221795,-0.2217952 -0.158299,0 -0.221796,0.063496 -0.221796,0.2217952 0,0.1582997 0.0635,0.2217957 0.221796,0.2217957 0.06876,0 0.146789,-0.021777 0.173404,-0.048392 z"
     id="path3-6-2"
     class="ColorScheme-Text" />
  <path
     id="gradient-path1"
     style="opacity:0.3;baseline-shift:baseline;display:inline;overflow:visible;vector-effect:none;enable-background:accumulate;stop-color:#000000;stop-opacity:1;fill:url(#linearGradient4)"
     d="M 8.4453131 1.2753492 C 4.4913166 1.2753492 1.2794833 4.4784283 1.2794833 8.4236094 C 1.2794833 12.36879 4.4913166 15.572386 8.4453131 15.572386 C 12.39931 15.572386 15.611143 12.36879 15.611143 8.4236094 C 15.611143 4.4784283 12.39931 1.2753492 8.4453131 1.2753492 z " />
</svg>
