<?xml version="1.0" encoding="UTF-8" standalone="no"?>
<svg
   width="64"
   height="64"
   version="1.1"
   viewBox="0 0 16.933 16.933"
   id="svg7"
   sodipodi:docname="preferences-smart-status.svg"
   inkscape:version="1.4.2 (ebf0e940d0, 2025-05-08)"
   xmlns:inkscape="http://www.inkscape.org/namespaces/inkscape"
   xmlns:sodipodi="http://sodipodi.sourceforge.net/DTD/sodipodi-0.dtd"
   xmlns:xlink="http://www.w3.org/1999/xlink"
   xmlns="http://www.w3.org/2000/svg"
   xmlns:svg="http://www.w3.org/2000/svg"
   xmlns:rdf="http://www.w3.org/1999/02/22-rdf-syntax-ns#"
   xmlns:cc="http://creativecommons.org/ns#"
   xmlns:dc="http://purl.org/dc/elements/1.1/">
  <sodipodi:namedview
     id="namedview7"
     pagecolor="#9c4444"
     bordercolor="#000000"
     borderopacity="0.25"
     inkscape:showpageshadow="2"
     inkscape:pageopacity="0.0"
     inkscape:pagecheckerboard="0"
     inkscape:deskcolor="#d1d1d1"
     inkscape:zoom="4.3531261"
     inkscape:cx="36.755195"
     inkscape:cy="26.188077"
     inkscape:window-width="1543"
     inkscape:window-height="1372"
     inkscape:window-x="0"
     inkscape:window-y="0"
     inkscape:window-maximized="0"
     inkscape:current-layer="svg7"
     showgrid="false" />
  <defs
     id="defs2">
    <filter
       style="color-interpolation-filters:sRGB;"
       inkscape:label="Blur"
       id="filter3"
       x="-0.10843471"
       y="-0.10870992"
       width="1.2168694"
       height="1.2174198">
      <feGaussianBlur
         stdDeviation="0.5 0.5"
         result="blur"
         id="feGaussianBlur3" />
    </filter>
    <style
       id="current-color-scheme"
       type="text/css">.ColorScheme-Text {color:#d8dee9} .ColorScheme-Highlight {color:#3b4252}</style>
    <linearGradient
       id="linearGradient3"
       inkscape:collect="always">
      <stop
         style="stop-color:#000000;stop-opacity:1;"
         offset="0"
         id="stop3" />
      <stop
         style="stop-color:#000000;stop-opacity:0;"
         offset="1"
         id="stop4" />
    </linearGradient>
    <linearGradient
       inkscape:collect="always"
       xlink:href="#linearGradient3"
       id="linearGradient4"
       x1="13.512321"
       y1="13.490874"
       x2="3.3783066"
       y2="3.3568602"
       gradientUnits="userSpaceOnUse" />
  </defs>
  <metadata
     id="metadata2">
    <rdf:RDF>
      <cc:Work
         rdf:about="">
        <dc:format>image/svg+xml</dc:format>
        <dc:type
           rdf:resource="http://purl.org/dc/dcmitype/StillImage" />
      </cc:Work>
    </rdf:RDF>
    <itype>type-a</itype>
  </metadata>
  <ellipse
     style="opacity:1;fill:none;stroke:#000000;stroke-width:0.582072;stroke-dasharray:none;stroke-opacity:1;filter:url(#filter3)"
     id="path1-5"
     cx="8.4450111"
     cy="8.423522"
     rx="6.8752708"
     ry="6.8578653" />
  <ellipse
     style="opacity:1;fill:none;stroke-width:0.58207188;stroke-opacity:1;stroke:currentColor;stroke-dasharray:none;fill-opacity:1"
     id="path1"
     cx="8.4450111"
     cy="8.423522"
     rx="6.8752708"
     ry="6.8578653"
     class="ColorScheme-Text" />
  <ellipse
     style="fill:currentColor;stroke:none;stroke-width:0.285844;stroke-dasharray:none;stroke-opacity:1"
     id="path1-2"
     cx="8.4557552"
     cy="8.423522"
     rx="6.5738997"
     ry="6.5692253"
     class="ColorScheme-Highlight" />
  <path
     id="path14"
     style="opacity:0.3;fill:#000000;fill-opacity:1;stroke-width:0.270484"
     d="m 4.9502095,5.2090141 v 7.5735489 h 0.811452 v -0.811451 h 4.8687095 v 0.811451 h 0.811452 V 9.0539005 l -0.543609,0.5436092 a 0.8114517,0.8114517 0 0 0 0.0027,0.00211 v 1.0190693 l -0.811451,0.811452 H 9.7143775 c -0.345251,0.265782 -0.778021,0.423687 -1.247818,0.423687 -0.469621,0 -0.902025,-0.157965 -1.247291,-0.423687 h -0.9166 l -0.81149,-0.811448 V 9.5990946 a 0.8114517,0.8114517 0 0 0 0.267842,-0.5478356 0.8114517,0.8114517 0 0 0 0,-0.0016 0.54096778,0.54096778 0 0 0 0.0027,-0.053874 0.54096778,0.54096778 0 0 0 -0.001,-0.031168 0.8114517,0.8114517 0 0 0 -0.269501,-0.572665 V 7.1024014 a 1.3524195,1.3524195 0 0 1 1.352419,-1.3524195 h 2.010668 V 5.5967781 h 0.558929 c 0.163967,0 0.311003,0.070289 0.413122,0.1822597 a 1.3524195,1.3524195 0 0 1 0.4215835,0.1658826 c 0.08302,-0.2043731 0.283064,-0.3481423 0.517723,-0.3481423 h 0.55893 V 5.867262 h 0.117279 V 5.2090141 Z m 4.057259,0.5409678 v 0.2704839 h -0.811452 v 1.3524195 0.9234488 l 1.618677,1.6186772 c -0.05491,0.6965377 -0.637546,1.2446487 -1.348193,1.2446487 -0.746921,0 -1.35242,-0.605498 -1.35242,-1.3524196 V 9.2197832 a 0.8114517,0.8114517 0 0 0 0.540969,-0.7649623 0.8114517,0.8114517 0 0 0 -0.811453,-0.8114517 0.8114517,0.8114517 0 0 0 -0.811451,0.8114517 0.8114517,0.8114517 0 0 0 0.540967,0.7649623 v 0.5874572 c 0,1.0456886 0.847699,1.8933876 1.893388,1.8933876 1.00692,0 1.8300215,-0.78577 1.8896885,-1.7776925 L 11.98279,8.2963341 V 7.3728853 6.0204658 H 11.171339 V 5.7499819 h -0.405726 c -0.224076,0 -0.405726,0.1816497 -0.405726,0.4057258 0,0.2240762 0.181649,0.4057258 0.405726,0.4057258 h 0.405726 V 6.2909497 h 0.540967 V 7.3728853 H 11.441823 V 7.7284237 A 1.6229034,1.6229034 0 0 1 10.089403,8.4548209 1.6229034,1.6229034 0 0 1 8.7369835,7.7284237 V 7.3728853 H 8.4665005 V 6.2909497 h 0.540968 v 0.2704838 h 0.405725 c 0.224078,0 0.405726,-0.1816496 0.405726,-0.4057258 0,-0.2240761 -0.181649,-0.4057258 -0.405726,-0.4057258 z m 2.3170735,0.6941715 v 0.2704839 h -0.480214 a 1.3524195,1.3524195 0 0 1 0.05652,0.3877641 v 0.954618 c 0.149509,-0.099088 0.281475,-0.2259492 0.387764,-0.3761417 V 7.2196815 h 0.153207 V 6.4441534 Z M 6.8435965,7.9138531 a 0.54096778,0.54096778 0 0 1 0.540968,0.5409678 0.54096778,0.54096778 0 0 1 -0.540968,0.5409678 0.54096778,0.54096778 0 0 1 -0.540967,-0.5409678 0.54096778,0.54096778 0 0 1 0.540967,-0.5409678 z m 2.283792,0.5488921 a 1.8933873,1.8933873 0 0 0 0.9620145,0.2625596 1.8933873,1.8933873 0 0 0 0.962014,-0.2625596 l -0.962014,0.9620142 z m -2.824759,3.7788508 v 0.270483 h 2.434354 v -0.270483 z m 2.704838,0 v 0.270483 h 1.0819365 v -0.270483 z" />
  <path
     id="path14-5"
     class="ColorScheme-Text"
     style="fill:currentColor;fill-opacity:1;stroke-width:0.270484"
     d="m 4.950209,4.6797255 v 7.5735485 h 0.811452 v -0.811452 h 4.86871 v 0.811452 h 0.811453 V 8.5246115 l -0.54361,0.543609 a 0.81145172,0.81145172 0 0 0 0.0027,0.0021 V 10.08939 l -0.811451,0.811452 H 9.714378 c -0.345252,0.265781 -0.778022,0.423687 -1.247819,0.423687 -0.469621,0 -0.902025,-0.157965 -1.247291,-0.423687 h -0.9166 L 5.491217,10.089389 V 9.0697915 a 0.81145172,0.81145172 0 0 0 0.267842,-0.547835 0.81145172,0.81145172 0 0 0 0,-0.0016 0.54096779,0.54096779 0 0 0 0.0027,-0.05387 0.54096779,0.54096779 0 0 0 -10e-4,-0.03117 0.81145172,0.81145172 0 0 0 -0.269427,-0.572666 v -1.289552 a 1.3524196,1.3524196 0 0 1 1.352419,-1.35242 h 2.010668 v -0.153203 h 0.55893 c 0.163966,0 0.311002,0.07029 0.413121,0.182259 a 1.3524196,1.3524196 0 0 1 0.421584,0.165883 c 0.08302,-0.204373 0.283064,-0.348142 0.517723,-0.348142 h 0.55893 v 0.270484 h 0.11728 v -0.658207 z m 4.057259,0.540968 v 0.270483 H 8.196017 v 1.35242 0.923449 l 1.618677,1.618677 C 9.759784,10.082259 9.177147,10.630371 8.4665,10.630371 c -0.74692,0 -1.35242,-0.605499 -1.35242,-1.3524195 v -0.587457 a 0.81145172,0.81145172 0 0 0 0.540969,-0.764962 0.81145172,0.81145172 0 0 0 -0.811453,-0.811452 0.81145172,0.81145172 0 0 0 -0.811451,0.811452 0.81145172,0.81145172 0 0 0 0.540968,0.764962 v 0.587457 c 0,1.0456885 0.847698,1.8933865 1.893387,1.8933865 1.00692,0 1.830023,-0.78577 1.88969,-1.7776915 l 1.626601,-1.626601 v -0.923449 -1.35242 H 11.17134 v -0.270483 h -0.405726 c -0.224077,0 -0.405726,0.181649 -0.405726,0.405725 0,0.224077 0.181649,0.405726 0.405726,0.405726 h 0.405726 v -0.270484 h 0.540967 v 1.081936 h -0.270484 v 0.355538 a 1.6229034,1.6229034 0 0 1 -1.352419,0.726398 1.6229034,1.6229034 0 0 1 -1.35242,-0.726398 V 6.8435965 H 8.4665 v -1.081936 h 0.540968 v 0.270484 h 0.405725 c 0.224078,0 0.405727,-0.181649 0.405727,-0.405726 0,-0.224076 -0.18165,-0.405725 -0.405727,-0.405725 z m 2.317075,0.694171 v 0.270484 h -0.480215 a 1.3524196,1.3524196 0 0 1 0.05652,0.387764 v 0.954618 c 0.149509,-0.09909 0.281476,-0.225949 0.387765,-0.376141 v -0.461197 h 0.153203 v -0.775528 z m -4.480947,1.4697 a 0.54096779,0.54096779 0 0 1 0.540968,0.540968 0.54096779,0.54096779 0 0 1 -0.540968,0.540967 0.54096779,0.54096779 0 0 1 -0.540967,-0.540967 0.54096779,0.54096779 0 0 1 0.540967,-0.540968 z m 2.283793,0.548892 a 1.8933873,1.8933873 0 0 0 0.962015,0.262559 1.8933873,1.8933873 0 0 0 0.962014,-0.262559 l -0.962014,0.962014 z m -2.82476,3.7788495 v 0.270484 h 2.434355 v -0.270484 z m 2.704839,0 v 0.270484 h 1.081937 v -0.270484 z" />
  <path
     id="gradient-path1"
     style="opacity:0.3;baseline-shift:baseline;display:inline;overflow:visible;vector-effect:none;enable-background:accumulate;stop-color:#000000;stop-opacity:1;fill:url(#linearGradient4)"
     d="M 8.4453131 1.2753492 C 4.4913166 1.2753492 1.2794833 4.4784283 1.2794833 8.4236094 C 1.2794833 12.36879 4.4913166 15.572386 8.4453131 15.572386 C 12.39931 15.572386 15.611143 12.36879 15.611143 8.4236094 C 15.611143 4.4784283 12.39931 1.2753492 8.4453131 1.2753492 z " />
</svg>
