<?xml version="1.0" encoding="UTF-8" standalone="no"?>
<svg
   width="64"
   height="64"
   version="1.1"
   viewBox="0 0 16.933 16.933"
   id="svg7"
   sodipodi:docname="preferences-system-user-sudo.svg"
   inkscape:version="1.4.2 (ebf0e940d0, 2025-05-08)"
   xmlns:inkscape="http://www.inkscape.org/namespaces/inkscape"
   xmlns:sodipodi="http://sodipodi.sourceforge.net/DTD/sodipodi-0.dtd"
   xmlns:xlink="http://www.w3.org/1999/xlink"
   xmlns="http://www.w3.org/2000/svg"
   xmlns:svg="http://www.w3.org/2000/svg"
   xmlns:rdf="http://www.w3.org/1999/02/22-rdf-syntax-ns#"
   xmlns:cc="http://creativecommons.org/ns#"
   xmlns:dc="http://purl.org/dc/elements/1.1/">
  <sodipodi:namedview
     id="namedview7"
     pagecolor="#9c4444"
     bordercolor="#000000"
     borderopacity="0.25"
     inkscape:showpageshadow="2"
     inkscape:pageopacity="0.0"
     inkscape:pagecheckerboard="0"
     inkscape:deskcolor="#d1d1d1"
     inkscape:zoom="4.3531261"
     inkscape:cx="36.755195"
     inkscape:cy="26.188077"
     inkscape:window-width="1272"
     inkscape:window-height="1372"
     inkscape:window-x="0"
     inkscape:window-y="0"
     inkscape:window-maximized="0"
     inkscape:current-layer="svg7"
     showgrid="false" />
  <defs
     id="defs2">
    <filter
       style="color-interpolation-filters:sRGB;"
       inkscape:label="Blur"
       id="filter3"
       x="-0.10843471"
       y="-0.10870992"
       width="1.2168694"
       height="1.2174198">
      <feGaussianBlur
         stdDeviation="0.5 0.5"
         result="blur"
         id="feGaussianBlur3" />
    </filter>
    <style
       id="current-color-scheme"
       type="text/css">.ColorScheme-Text {color:#d8dee9} .ColorScheme-Highlight {color:#3b4252}</style>
    <linearGradient
       id="linearGradient3"
       inkscape:collect="always">
      <stop
         style="stop-color:#000000;stop-opacity:1;"
         offset="0"
         id="stop3" />
      <stop
         style="stop-color:#000000;stop-opacity:0;"
         offset="1"
         id="stop4" />
    </linearGradient>
    <linearGradient
       inkscape:collect="always"
       xlink:href="#linearGradient3"
       id="linearGradient4"
       x1="13.512321"
       y1="13.490874"
       x2="3.3783066"
       y2="3.3568602"
       gradientUnits="userSpaceOnUse" />
  </defs>
  <metadata
     id="metadata2">
    <rdf:RDF>
      <cc:Work
         rdf:about="">
        <dc:format>image/svg+xml</dc:format>
        <dc:type
           rdf:resource="http://purl.org/dc/dcmitype/StillImage" />
      </cc:Work>
    </rdf:RDF>
    <itype>type-a</itype>
  </metadata>
  <ellipse
     style="opacity:1;fill:none;stroke:#000000;stroke-width:0.582072;stroke-dasharray:none;stroke-opacity:1;filter:url(#filter3)"
     id="path1-5"
     cx="8.4450111"
     cy="8.423522"
     rx="6.8752708"
     ry="6.8578653" />
  <ellipse
     style="opacity:1;fill:none;stroke-width:0.58207188;stroke-opacity:1;stroke:currentColor;stroke-dasharray:none;fill-opacity:1"
     id="path1"
     cx="8.4450111"
     cy="8.423522"
     rx="6.8752708"
     ry="6.8578653"
     class="ColorScheme-Text" />
  <ellipse
     style="fill:currentColor;stroke:none;stroke-width:0.285844;stroke-dasharray:none;stroke-opacity:1"
     id="path1-2"
     cx="8.4557552"
     cy="8.423522"
     rx="6.5738997"
     ry="6.5692253"
     class="ColorScheme-Highlight" />
  <path
     id="path7"
     style="opacity:0.3;fill:#000000;fill-opacity:1;stroke-width:0.504901"
     d="m 8.2140485,5.4614217 c -0.979005,0 -1.767162,0.788157 -1.767162,1.767162 0,0.979004 0.788157,1.767161 1.767162,1.767161 0.979004,0 1.767161,-0.788157 1.767161,-1.767161 0,-0.979005 -0.788157,-1.767162 -1.767161,-1.767162 z m 0,3.534323 c -1.958009,0 -3.534323,1.5763133 -3.534323,3.5343223 h 4.039226 v -0.504903 h -3.488953 a 3.0193125,3.0193125 0 0 1 2.98405,-2.5245163 c 0.18126,0 0.357058,0.01914 0.527715,0.05247 l 0.131295,-0.491217 a 3.3596162,3.3596162 0 0 0 -0.65901,-0.06615 z m 0,-3.029419 c 0.699288,0 1.262258,0.562968 1.262258,1.262258 0,0.699289 -0.56297,1.262258 -1.262258,1.262258 -0.699289,0 -1.262259,-0.562969 -1.262259,-1.262258 0,-0.69929 0.56297,-1.262258 1.262259,-1.262258 z m 1.514709,3.534322 v 0.5049033 h -0.504903 v 0.504903 h 0.504903 v 1.009806 h -0.504903 v 0.504904 h 0.504903 v 0.504903 h 0.5049035 v -0.504903 h 1.009807 v 0.504903 h 0.504902 v -0.504903 h 0.504904 V 11.52026 H 11.74837 v -1.009806 h 0.504904 V 10.005551 H 11.74837 V 9.5006477 H 11.243468 V 10.005551 H 10.233661 V 9.5006477 Z m 0.5049035,1.0098063 h 1.009807 v 1.009806 h -1.009807 z" />
  <path
     id="path7-6"
     style="fill:currentColor;stroke-width:0.504901"
     class="ColorScheme-Text"
     d="m 8.2140485,4.9321772 c -0.979005,0 -1.767162,0.788157 -1.767162,1.767162 0,0.979004 0.788157,1.7671611 1.767162,1.7671611 0.979004,0 1.767161,-0.7881571 1.767161,-1.7671611 0,-0.979005 -0.788157,-1.767162 -1.767161,-1.767162 z m 0,3.5343231 c -1.958009,0 -3.534323,1.5763137 -3.534323,3.5343227 h 4.039226 V 11.49592 h -3.488953 a 3.0193125,3.0193125 0 0 1 2.98405,-2.5245167 c 0.18126,0 0.357058,0.01914 0.527715,0.05247 l 0.131295,-0.491217 a 3.3596162,3.3596162 0 0 0 -0.65901,-0.06615 z m 0,-3.0294191 c 0.699288,0 1.262258,0.562968 1.262258,1.262258 0,0.699289 -0.56297,1.262258 -1.262258,1.262258 -0.699289,0 -1.262259,-0.562969 -1.262259,-1.262258 0,-0.69929 0.56297,-1.262258 1.262259,-1.262258 z m 1.514709,3.5343221 V 9.4763065 H 9.2238545 V 9.98121 h 0.504903 v 1.009806 h -0.504903 v 0.504904 h 0.504903 v 0.504903 H 10.23366 V 11.49592 h 1.009807 v 0.504903 H 11.74837 V 11.49592 h 0.504904 V 10.991016 H 11.74837 V 9.98121 h 0.504904 V 9.4763066 H 11.74837 V 8.9714033 H 11.243467 V 9.4763066 H 10.23366 V 8.9714033 Z M 10.23366,9.98121 h 1.009807 v 1.009806 H 10.23366 Z" />
  <path
     id="gradient-path1"
     style="opacity:0.3;baseline-shift:baseline;display:inline;overflow:visible;vector-effect:none;enable-background:accumulate;stop-color:#000000;stop-opacity:1;fill:url(#linearGradient4)"
     d="M 8.4453131 1.2753492 C 4.4913166 1.2753492 1.2794833 4.4784283 1.2794833 8.4236094 C 1.2794833 12.36879 4.4913166 15.572386 8.4453131 15.572386 C 12.39931 15.572386 15.611143 12.36879 15.611143 8.4236094 C 15.611143 4.4784283 12.39931 1.2753492 8.4453131 1.2753492 z " />
</svg>
