<?xml version="1.0" encoding="UTF-8" standalone="no"?>
<svg
   width="64"
   height="64"
   version="1.1"
   viewBox="0 0 16.933 16.933"
   id="svg7"
   sodipodi:docname="preferences-system-services.svg"
   inkscape:version="1.4.2 (ebf0e940d0, 2025-05-08)"
   xmlns:inkscape="http://www.inkscape.org/namespaces/inkscape"
   xmlns:sodipodi="http://sodipodi.sourceforge.net/DTD/sodipodi-0.dtd"
   xmlns:xlink="http://www.w3.org/1999/xlink"
   xmlns="http://www.w3.org/2000/svg"
   xmlns:svg="http://www.w3.org/2000/svg"
   xmlns:rdf="http://www.w3.org/1999/02/22-rdf-syntax-ns#"
   xmlns:cc="http://creativecommons.org/ns#"
   xmlns:dc="http://purl.org/dc/elements/1.1/">
  <sodipodi:namedview
     id="namedview7"
     pagecolor="#9c4444"
     bordercolor="#000000"
     borderopacity="0.25"
     inkscape:showpageshadow="2"
     inkscape:pageopacity="0.0"
     inkscape:pagecheckerboard="0"
     inkscape:deskcolor="#d1d1d1"
     inkscape:zoom="4.3531261"
     inkscape:cx="36.755195"
     inkscape:cy="26.188077"
     inkscape:window-width="1272"
     inkscape:window-height="1372"
     inkscape:window-x="0"
     inkscape:window-y="0"
     inkscape:window-maximized="0"
     inkscape:current-layer="svg7"
     showgrid="false" />
  <defs
     id="defs2">
    <filter
       style="color-interpolation-filters:sRGB;"
       inkscape:label="Blur"
       id="filter3"
       x="-0.10843471"
       y="-0.10870992"
       width="1.2168694"
       height="1.2174198">
      <feGaussianBlur
         stdDeviation="0.5 0.5"
         result="blur"
         id="feGaussianBlur3" />
    </filter>
    <style
       id="current-color-scheme"
       type="text/css">.ColorScheme-Text {color:#d8dee9} .ColorScheme-Highlight {color:#3b4252}</style>
    <linearGradient
       id="linearGradient3"
       inkscape:collect="always">
      <stop
         style="stop-color:#000000;stop-opacity:1;"
         offset="0"
         id="stop3" />
      <stop
         style="stop-color:#000000;stop-opacity:0;"
         offset="1"
         id="stop4" />
    </linearGradient>
    <linearGradient
       inkscape:collect="always"
       xlink:href="#linearGradient3"
       id="linearGradient4"
       x1="13.512321"
       y1="13.490874"
       x2="3.3783066"
       y2="3.3568602"
       gradientUnits="userSpaceOnUse" />
  </defs>
  <metadata
     id="metadata2">
    <rdf:RDF>
      <cc:Work
         rdf:about="">
        <dc:format>image/svg+xml</dc:format>
        <dc:type
           rdf:resource="http://purl.org/dc/dcmitype/StillImage" />
      </cc:Work>
    </rdf:RDF>
    <itype>type-a</itype>
  </metadata>
  <ellipse
     style="opacity:1;fill:none;stroke:#000000;stroke-width:0.582072;stroke-dasharray:none;stroke-opacity:1;filter:url(#filter3)"
     id="path1-5"
     cx="8.4450111"
     cy="8.423522"
     rx="6.8752708"
     ry="6.8578653" />
  <ellipse
     style="opacity:1;fill:none;stroke-width:0.58207188;stroke-opacity:1;stroke:currentColor;stroke-dasharray:none;fill-opacity:1"
     id="path1"
     cx="8.4450111"
     cy="8.423522"
     rx="6.8752708"
     ry="6.8578653"
     class="ColorScheme-Text" />
  <ellipse
     style="fill:currentColor;stroke:none;stroke-width:0.285844;stroke-dasharray:none;stroke-opacity:1"
     id="path1-2"
     cx="8.4557552"
     cy="8.423522"
     rx="6.5738997"
     ry="6.5692253"
     class="ColorScheme-Highlight" />
  <path
     id="path12"
     style="opacity:0.3;fill:#000000;fill-opacity:1;stroke-width:0.0340768;stroke-opacity:0.6"
     d="m 8.4742955,5.7472273 c -0.2234,0.00368 -0.462829,0.1757397 -0.505613,0.3896585 l -0.02172,0.1098089 h 0.519544 0.519544 l -0.02172,-0.1098089 c -0.02884,-0.1442055 -0.207841,-0.3253431 -0.369172,-0.3736787 -0.03894,-0.011668 -0.0795,-0.016661 -0.120871,-0.01598 z m -0.0078,1.0894867 c -0.730615,0 -1.4611,0.2507762 -2.07408,0.752274 -0.642666,0.5257864 -1.094774,1.3858815 -1.152993,2.1933138 l -0.02049,0.2810782 h 3.247562 3.2475605 L 11.693565,9.7823018 C 11.635345,8.9748695 11.183236,8.1147744 10.540569,7.588988 9.9275905,7.0874902 9.1971055,6.836714 8.4664895,6.836714 Z m 0,3.806032 c -3.355575,0 -3.382321,5.29e-4 -3.505285,0.07047 -0.247852,0.14094 -0.258995,0.177325 -0.270835,0.891994 l -0.01065,0.638778 h 3.786774 3.7867745 l -0.01065,-0.638778 c -0.01184,-0.714669 -0.02299,-0.751054 -0.270836,-0.891994 -0.122963,-0.06991 -0.149711,-0.07047 -3.5052865,-0.07047 z" />
  <path
     id="path12-2"
     style="fill:currentColor;fill-opacity:1;stroke-width:0.0340768;stroke-opacity:0.6"
     d="m 8.4742955,5.2181485 c -0.2234,0.00368 -0.462829,0.1757397 -0.505613,0.3896585 l -0.02172,0.1098089 h 0.519544 0.519544 L 8.9643305,5.607807 c -0.02884,-0.1442055 -0.207841,-0.3253431 -0.369172,-0.3736787 -0.03894,-0.011668 -0.0795,-0.016661 -0.120871,-0.01598 z m -0.0078,1.0894867 c -0.730615,0 -1.4611,0.2507762 -2.07408,0.752274 -0.642666,0.5257864 -1.094774,1.3858815 -1.152993,2.1933138 l -0.02049,0.2810785 h 3.247562 3.2475615 L 11.693565,9.253223 C 11.635345,8.4457907 11.183236,7.5856956 10.540569,7.0599092 9.9275905,6.5584114 9.1971055,6.3076352 8.4664895,6.3076352 Z m 0,3.8060318 c -3.355575,0 -3.382321,5.29e-4 -3.505285,0.07047 -0.247852,0.14094 -0.258995,0.177325 -0.270835,0.891994 l -0.01065,0.638778 h 3.786774 3.7867745 l -0.01065,-0.638778 c -0.01184,-0.714669 -0.02299,-0.751054 -0.270835,-0.891994 -0.122963,-0.06991 -0.149711,-0.07047 -3.5052865,-0.07047 z"
     class="ColorScheme-Text" />
  <path
     id="gradient-path1"
     style="opacity:0.3;baseline-shift:baseline;display:inline;overflow:visible;vector-effect:none;enable-background:accumulate;stop-color:#000000;stop-opacity:1;fill:url(#linearGradient4)"
     d="M 8.4453131 1.2753492 C 4.4913166 1.2753492 1.2794833 4.4784283 1.2794833 8.4236094 C 1.2794833 12.36879 4.4913166 15.572386 8.4453131 15.572386 C 12.39931 15.572386 15.611143 12.36879 15.611143 8.4236094 C 15.611143 4.4784283 12.39931 1.2753492 8.4453131 1.2753492 z " />
</svg>
