<?xml version="1.0" encoding="UTF-8" standalone="no"?>
<svg
   width="64"
   height="64"
   version="1.1"
   viewBox="0 0 16.933 16.933"
   id="svg7"
   sodipodi:docname="preferences-system-backup.svg"
   inkscape:version="1.4.2 (ebf0e940d0, 2025-05-08)"
   xmlns:inkscape="http://www.inkscape.org/namespaces/inkscape"
   xmlns:sodipodi="http://sodipodi.sourceforge.net/DTD/sodipodi-0.dtd"
   xmlns:xlink="http://www.w3.org/1999/xlink"
   xmlns="http://www.w3.org/2000/svg"
   xmlns:svg="http://www.w3.org/2000/svg"
   xmlns:rdf="http://www.w3.org/1999/02/22-rdf-syntax-ns#"
   xmlns:cc="http://creativecommons.org/ns#"
   xmlns:dc="http://purl.org/dc/elements/1.1/">
  <sodipodi:namedview
     id="namedview7"
     pagecolor="#9c4444"
     bordercolor="#000000"
     borderopacity="0.25"
     inkscape:showpageshadow="2"
     inkscape:pageopacity="0.0"
     inkscape:pagecheckerboard="0"
     inkscape:deskcolor="#d1d1d1"
     inkscape:zoom="4.3531261"
     inkscape:cx="36.755195"
     inkscape:cy="26.188077"
     inkscape:window-width="1543"
     inkscape:window-height="1372"
     inkscape:window-x="0"
     inkscape:window-y="0"
     inkscape:window-maximized="0"
     inkscape:current-layer="svg7"
     showgrid="false" />
  <defs
     id="defs2">
    <filter
       style="color-interpolation-filters:sRGB;"
       inkscape:label="Blur"
       id="filter3"
       x="-0.10843471"
       y="-0.10870992"
       width="1.2168694"
       height="1.2174198">
      <feGaussianBlur
         stdDeviation="0.5 0.5"
         result="blur"
         id="feGaussianBlur3" />
    </filter>
    <style
       id="current-color-scheme"
       type="text/css">.ColorScheme-Text {color:#d8dee9} .ColorScheme-Highlight {color:#3b4252}</style>
    <linearGradient
       id="linearGradient3"
       inkscape:collect="always">
      <stop
         style="stop-color:#000000;stop-opacity:1;"
         offset="0"
         id="stop3" />
      <stop
         style="stop-color:#000000;stop-opacity:0;"
         offset="1"
         id="stop4" />
    </linearGradient>
    <linearGradient
       inkscape:collect="always"
       xlink:href="#linearGradient3"
       id="linearGradient4"
       x1="13.512321"
       y1="13.490874"
       x2="3.3783066"
       y2="3.3568602"
       gradientUnits="userSpaceOnUse" />
  </defs>
  <metadata
     id="metadata2">
    <rdf:RDF>
      <cc:Work
         rdf:about="">
        <dc:format>image/svg+xml</dc:format>
        <dc:type
           rdf:resource="http://purl.org/dc/dcmitype/StillImage" />
      </cc:Work>
    </rdf:RDF>
    <itype>type-a</itype>
  </metadata>
  <ellipse
     style="opacity:1;fill:none;stroke:#000000;stroke-width:0.582072;stroke-dasharray:none;stroke-opacity:1;filter:url(#filter3)"
     id="path1-5"
     cx="8.4450111"
     cy="8.423522"
     rx="6.8752708"
     ry="6.8578653" />
  <ellipse
     style="opacity:1;fill:none;stroke-width:0.58207188;stroke-opacity:1;stroke:currentColor;stroke-dasharray:none;fill-opacity:1"
     id="path1"
     cx="8.4450111"
     cy="8.423522"
     rx="6.8752708"
     ry="6.8578653"
     class="ColorScheme-Text" />
  <ellipse
     style="fill:currentColor;stroke:none;stroke-width:0.285844;stroke-dasharray:none;stroke-opacity:1"
     id="path1-2"
     cx="8.4557552"
     cy="8.423522"
     rx="6.5738997"
     ry="6.5692253"
     class="ColorScheme-Highlight" />
  <path
     id="path8"
     style="opacity:0.3;fill:#000000;fill-opacity:1;stroke-width:0.270484"
     d="m 5.2206935,5.2090141 v 7.5735489 h 0.811452 v -0.811452 h 4.8687095 v 0.811452 h 0.811452 V 5.2090141 Z m 1.893387,0.5409678 h 2.70484 A 1.3524194,1.3524194 0 0 1 11.17134,7.1024013 v 1.2900811 a 0.81145165,0.81145165 0 0 0 -0.267842,0.5478358 0.54096777,0.54096777 0 0 0 -0.0027,0.05547 0.54096777,0.54096777 0 0 0 10e-4,0.03117 0.81145165,0.81145165 0 0 0 0.269428,0.5726654 V 10.618694 L 10.35989,11.430146 H 6.5731155 L 5.7616645,10.618694 V 9.5990964 a 0.81145165,0.81145165 0 0 0 0.267842,-0.5478357 0.81145165,0.81145165 0 0 0 0,-0.00158 0.54096777,0.54096777 0 0 0 0.0027,-0.053875 0.54096777,0.54096777 0 0 0 -0.001,-0.03117 0.81145165,0.81145165 0 0 0 -0.269426,-0.5726649 V 7.1024036 a 1.3524194,1.3524194 0 0 1 1.352418,-1.3524194 z m 1.35242,0.5409677 c -1.198784,0 -2.163871,0.9650866 -2.163871,2.163871 0,1.1987844 0.965087,2.1638714 2.163871,2.1638714 1.198785,0 2.1638705,-0.9650869 2.1638705,-2.1638713 0,-1.1987845 -0.9650855,-2.1638711 -2.1638705,-2.1638711 z m 0,0.2704839 c 1.048937,0 1.8933885,0.8444506 1.8933885,1.8933871 0,1.0489364 -0.8444515,1.8933874 -1.8933885,1.8933874 -1.048936,0 -1.893387,-0.844451 -1.893387,-1.8933874 0,-1.0489365 0.844451,-1.8933871 1.893387,-1.8933871 z m -0.270484,0.2704839 v 1.8933874 h 1.622904 V 8.4548206 h -1.35242 V 6.8319174 Z m -1.622903,5.4096776 v 0.270484 h 2.434355 v -0.270484 z m 2.704839,0 v 0.270484 h 1.0819365 v -0.270484 z" />
  <path
     id="path8-9"
     class="ColorScheme-Text"
     style="fill:currentColor;fill-opacity:1;stroke-width:0.270484"
     d="m 5.2206935,4.6797255 v 7.5735495 h 0.811452 v -0.811452 h 4.8687095 v 0.811452 h 0.811451 V 4.6797255 Z m 1.893387,0.540968 h 2.70484 a 1.3524194,1.3524194 0 0 1 1.3524185,1.35242 v 1.290081 a 0.81145165,0.81145165 0 0 0 -0.267842,0.547835 0.54096777,0.54096777 0 0 0 -0.0027,0.05547 0.54096777,0.54096777 0 0 0 10e-4,0.03117 0.81145165,0.81145165 0 0 0 0.269428,0.572666 V 10.089405 L 10.35989,10.900858 H 6.5731155 L 5.7616645,10.089406 V 9.0698085 a 0.81145165,0.81145165 0 0 0 0.267842,-0.547836 0.81145165,0.81145165 0 0 0 0,-0.0016 0.54096777,0.54096777 0 0 0 0.0027,-0.05387 0.54096777,0.54096777 0 0 0 -0.001,-0.03117 0.81145165,0.81145165 0 0 0 -0.269426,-0.572665 v -1.289567 a 1.3524194,1.3524194 0 0 1 1.352418,-1.35242 z m 1.35242,0.540968 c -1.198784,0 -2.163871,0.965086 -2.163871,2.163871 0,1.198784 0.965087,2.1638715 2.163871,2.1638715 1.198785,0 2.1638705,-0.9650875 2.1638705,-2.1638715 0,-1.198785 -0.9650855,-2.163871 -2.1638705,-2.163871 z m 0,0.270484 c 1.048937,0 1.8933875,0.84445 1.8933875,1.893387 0,1.048936 -0.8444505,1.893387 -1.8933875,1.893387 -1.048936,0 -1.893387,-0.844451 -1.893387,-1.893387 0,-1.048937 0.844451,-1.893387 1.893387,-1.893387 z m -0.270484,0.270484 v 1.893387 h 1.622904 v -0.270484 h -1.35242 v -1.622903 z m -1.622903,5.4096775 v 0.270482 h 2.434355 v -0.270482 z m 2.704839,0 v 0.270482 h 1.0819355 v -0.270482 z" />
  <path
     id="gradient-path1"
     style="opacity:0.3;baseline-shift:baseline;display:inline;overflow:visible;vector-effect:none;enable-background:accumulate;stop-color:#000000;stop-opacity:1;fill:url(#linearGradient4)"
     d="M 8.4453131 1.2753492 C 4.4913166 1.2753492 1.2794833 4.4784283 1.2794833 8.4236094 C 1.2794833 12.36879 4.4913166 15.572386 8.4453131 15.572386 C 12.39931 15.572386 15.611143 12.36879 15.611143 8.4236094 C 15.611143 4.4784283 12.39931 1.2753492 8.4453131 1.2753492 z " />
</svg>
