<?xml version="1.0" encoding="UTF-8" standalone="no"?>
<svg
   width="64"
   height="64"
   version="1.1"
   viewBox="0 0 16.933 16.933"
   id="svg7"
   sodipodi:docname="preferences-plugin.svg"
   inkscape:version="1.4.2 (ebf0e940d0, 2025-05-08)"
   xmlns:inkscape="http://www.inkscape.org/namespaces/inkscape"
   xmlns:sodipodi="http://sodipodi.sourceforge.net/DTD/sodipodi-0.dtd"
   xmlns:xlink="http://www.w3.org/1999/xlink"
   xmlns="http://www.w3.org/2000/svg"
   xmlns:svg="http://www.w3.org/2000/svg"
   xmlns:rdf="http://www.w3.org/1999/02/22-rdf-syntax-ns#"
   xmlns:cc="http://creativecommons.org/ns#"
   xmlns:dc="http://purl.org/dc/elements/1.1/">
  <sodipodi:namedview
     id="namedview7"
     pagecolor="#9c4444"
     bordercolor="#000000"
     borderopacity="0.25"
     inkscape:showpageshadow="2"
     inkscape:pageopacity="0.0"
     inkscape:pagecheckerboard="0"
     inkscape:deskcolor="#d1d1d1"
     inkscape:zoom="4.3531261"
     inkscape:cx="36.640335"
     inkscape:cy="26.188077"
     inkscape:window-width="1272"
     inkscape:window-height="1372"
     inkscape:window-x="0"
     inkscape:window-y="0"
     inkscape:window-maximized="0"
     inkscape:current-layer="svg7"
     showgrid="false" />
  <defs
     id="defs2">
    <filter
       style="color-interpolation-filters:sRGB;"
       inkscape:label="Blur"
       id="filter3"
       x="-0.10843471"
       y="-0.10870992"
       width="1.2168694"
       height="1.2174198">
      <feGaussianBlur
         stdDeviation="0.5 0.5"
         result="blur"
         id="feGaussianBlur3" />
    </filter>
    <style
       id="current-color-scheme"
       type="text/css">.ColorScheme-Text {color:#d8dee9} .ColorScheme-Highlight {color:#3b4252}</style>
    <linearGradient
       id="linearGradient3"
       inkscape:collect="always">
      <stop
         style="stop-color:#000000;stop-opacity:1;"
         offset="0"
         id="stop3" />
      <stop
         style="stop-color:#000000;stop-opacity:0;"
         offset="1"
         id="stop4" />
    </linearGradient>
    <linearGradient
       inkscape:collect="always"
       xlink:href="#linearGradient3"
       id="linearGradient4"
       x1="13.512321"
       y1="13.490874"
       x2="3.3783066"
       y2="3.3568602"
       gradientUnits="userSpaceOnUse" />
  </defs>
  <metadata
     id="metadata2">
    <rdf:RDF>
      <cc:Work
         rdf:about="">
        <dc:format>image/svg+xml</dc:format>
        <dc:type
           rdf:resource="http://purl.org/dc/dcmitype/StillImage" />
      </cc:Work>
    </rdf:RDF>
    <itype>type-a</itype>
  </metadata>
  <ellipse
     style="opacity:1;fill:none;stroke:#000000;stroke-width:0.582072;stroke-dasharray:none;stroke-opacity:1;filter:url(#filter3)"
     id="path1-5"
     cx="8.4450111"
     cy="8.423522"
     rx="6.8752708"
     ry="6.8578653" />
  <ellipse
     style="opacity:1;fill:none;stroke-width:0.58207188;stroke-opacity:1;stroke:currentColor;stroke-dasharray:none;fill-opacity:1"
     id="path1"
     cx="8.4450111"
     cy="8.423522"
     rx="6.8752708"
     ry="6.8578653"
     class="ColorScheme-Text" />
  <ellipse
     style="fill:currentColor;stroke:none;stroke-width:0.285844;stroke-dasharray:none;stroke-opacity:1"
     id="path1-2"
     cx="8.4557552"
     cy="8.423522"
     rx="6.5738997"
     ry="6.5692253"
     class="ColorScheme-Highlight" />
  <path
     style="opacity:0.3;fill:#000000;fill-opacity:1;stroke:none;stroke-width:0.029199;stroke-dashoffset:2.2;stroke-opacity:0.3"
     d="m 5.0583582,12.733729 c -0.135512,-0.07144 -0.221725,-0.159702 -0.280601,-0.28727 -0.049182,-0.106563 -0.053961,-0.20826 -0.054546,-1.160663 l -6.26e-4,-1.043866 0.124096,6.74e-4 c 0.08385,4.62e-4 0.171445,0.02853 0.270091,0.08655 0.44475,0.261585 0.61158,0.29368 0.820934,0.157933 0.267454,-0.1734 0.404514,-0.5188983 0.385534,-0.9718238 -0.01762,-0.4205524 -0.168466,-0.713676 -0.438829,-0.8527438 -0.190554,-0.098017 -0.351522,-0.063905 -0.677215,0.1435126 -0.179578,0.1143644 -0.321066,0.1618871 -0.413163,0.1387721 l -0.07145,-0.017931 V 8.108406 c 0,-0.8884661 0.0029,-0.9069553 0.171228,-1.0882653 0.167117,-0.1800155 0.160758,-0.1790472 1.241006,-0.1889711 l 0.988848,-0.00908 -0.01217,-0.1682241 c -0.0098,-0.1357306 -0.03864,-0.2126973 -0.149191,-0.3984686 -0.222913,-0.3745719 -0.221813,-0.5452601 0.005,-0.7720515 0.199912,-0.1999117 0.407377,-0.2745959 0.762799,-0.2745959 0.355422,0 0.562888,0.074684 0.762799,0.2745958 0.226791,0.2267914 0.227893,0.3974796 0.005,0.7720516 -0.111062,0.1866247 -0.139351,0.2624525 -0.149319,0.4002532 l -0.0123,0.170008 h 0.844982 c 0.9518938,0 1.0696898,0.017469 1.2251618,0.1816939 0.172663,0.1823835 0.169425,0.1605481 0.185201,1.2490594 l 0.01461,1.0073669 0.06953,0.00984 c 0.127771,0.01807 0.249792,-0.02324 0.49507,-0.1676052 0.133873,-0.078793 0.288294,-0.1516817 0.343158,-0.1619744 0.207107,-0.038853 0.478118,0.1615356 0.598601,0.4426129 0.240779,0.5617146 0.01511,1.3062024 -0.43699,1.4416544 -0.10984,0.0329 -0.129598,0.02865 -0.330304,-0.0712 -0.117419,-0.05842 -0.272507,-0.139676 -0.34465,-0.180592 -0.09807,-0.05562 -0.164377,-0.07223 -0.262792,-0.06578 l -0.131622,0.0087 -0.01461,0.93437 c -0.01572,1.005875 -0.01871,1.02539 -0.17972,1.171846 -0.161025,0.146468 -0.216926,0.156711 -0.8553958,0.156711 h -0.600069 v -0.111857 c 0,-0.06503 0.03221,-0.171959 0.07696,-0.255492 0.04233,-0.079 0.114597,-0.214478 0.160595,-0.301053 0.251326,-0.473034 -0.110392,-0.910651 -0.792338,-0.958592 -0.522247,-0.03671 -0.993463,0.234288 -1.042453,0.599527 -0.01916,0.142877 0.02098,0.268591 0.156631,0.490544 0.121784,0.199262 0.187626,0.389342 0.164928,0.476139 -0.0158,0.06041 -0.02355,0.06077 -1.275346,0.05961 -1.090459,-10e-4 -1.271206,-0.0074 -1.34705,-0.04735 z"
     id="path1-7" />
  <path
     style="fill:currentColor;fill-opacity:1;stroke:none;stroke-width:0.029199;stroke-dashoffset:2.2;stroke-opacity:0.3"
     d="m 5.0583612,12.204713 c -0.135512,-0.07144 -0.221725,-0.159702 -0.280601,-0.28727 -0.04918,-0.106563 -0.05396,-0.20826 -0.05455,-1.160663 l -6.26e-4,-1.0438658 0.124096,6.74e-4 c 0.08385,4.62e-4 0.171445,0.02853 0.270091,0.08655 0.44475,0.2615848 0.61158,0.2936798 0.820935,0.157933 0.267454,-0.1734 0.404513,-0.518898 0.385533,-0.971824 -0.01762,-0.420552 -0.168465,-0.713676 -0.438828,-0.852744 -0.190554,-0.09802 -0.351522,-0.06391 -0.677215,0.143513 -0.179578,0.114364 -0.321066,0.161887 -0.413163,0.138772 l -0.07145,-0.01793 v -0.818467 c 0,-0.888466 0.0029,-0.906955 0.171228,-1.088265 0.167117,-0.180016 0.160758,-0.179047 1.241005,-0.188971 l 0.988849,-0.0091 -0.01217,-0.168224 c -0.0098,-0.135731 -0.03864,-0.212698 -0.149191,-0.398469 -0.222913,-0.374572 -0.221813,-0.54526 0.005,-0.772052 0.199912,-0.1999112 0.407377,-0.2745954 0.762799,-0.2745954 0.355422,0 0.562888,0.074684 0.762799,0.2745954 0.226791,0.226792 0.227893,0.39748 0.005,0.772052 -0.111062,0.186625 -0.139352,0.262452 -0.149319,0.400253 l -0.0123,0.170008 h 0.844982 c 0.9518938,0 1.0696898,0.01747 1.2251618,0.181694 0.172663,0.182384 0.169425,0.160548 0.185201,1.249059 l 0.01461,1.007367 0.06953,0.0098 c 0.127771,0.01807 0.249792,-0.02324 0.49507,-0.167605 0.133873,-0.07879 0.288294,-0.151682 0.343158,-0.161974 0.207107,-0.03885 0.478118,0.161535 0.598601,0.442613 0.240779,0.561714 0.01511,1.3062018 -0.43699,1.4416538 -0.10984,0.0329 -0.129599,0.02865 -0.330305,-0.0712 -0.117419,-0.05842 -0.272507,-0.139676 -0.34465,-0.180592 -0.09807,-0.05562 -0.164377,-0.07223 -0.262792,-0.06578 l -0.131622,0.0087 -0.01461,0.9343688 c -0.01572,1.005875 -0.01871,1.025391 -0.17972,1.171847 -0.161025,0.146468 -0.216926,0.15671 -0.8553958,0.15671 h -0.600069 v -0.111857 c 0,-0.06503 0.03221,-0.171958 0.07696,-0.255492 0.04233,-0.079 0.114597,-0.214478 0.160595,-0.301052 0.251326,-0.473035 -0.110392,-0.910652 -0.792338,-0.958593 -0.522247,-0.03671 -0.993462,0.234288 -1.042453,0.599527 -0.01916,0.142877 0.02098,0.268591 0.156631,0.490544 0.121784,0.199262 0.187626,0.389342 0.164928,0.476139 -0.0158,0.06041 -0.02355,0.06077 -1.275346,0.05961 -1.090459,-10e-4 -1.271206,-0.0074 -1.34705,-0.04735 z"
     id="path1-7-7"
     class="ColorScheme-Text" />
  <path
     id="gradient-path1"
     style="opacity:0.3;baseline-shift:baseline;display:inline;overflow:visible;vector-effect:none;enable-background:accumulate;stop-color:#000000;stop-opacity:1;fill:url(#linearGradient4)"
     d="M 8.4453131 1.2753492 C 4.4913166 1.2753492 1.2794833 4.4784283 1.2794833 8.4236094 C 1.2794833 12.36879 4.4913166 15.572386 8.4453131 15.572386 C 12.39931 15.572386 15.611143 12.36879 15.611143 8.4236094 C 15.611143 4.4784283 12.39931 1.2753492 8.4453131 1.2753492 z " />
</svg>
