<?xml version="1.0" encoding="UTF-8" standalone="no"?>
<svg
   width="64"
   height="64"
   version="1.1"
   viewBox="0 0 16.933 16.933"
   id="svg7"
   sodipodi:docname="preferences-system-network-iscsi.svg"
   inkscape:version="1.4.2 (ebf0e940d0, 2025-05-08)"
   xmlns:inkscape="http://www.inkscape.org/namespaces/inkscape"
   xmlns:sodipodi="http://sodipodi.sourceforge.net/DTD/sodipodi-0.dtd"
   xmlns:xlink="http://www.w3.org/1999/xlink"
   xmlns="http://www.w3.org/2000/svg"
   xmlns:svg="http://www.w3.org/2000/svg"
   xmlns:rdf="http://www.w3.org/1999/02/22-rdf-syntax-ns#"
   xmlns:cc="http://creativecommons.org/ns#"
   xmlns:dc="http://purl.org/dc/elements/1.1/">
  <sodipodi:namedview
     id="namedview7"
     pagecolor="#9c4444"
     bordercolor="#000000"
     borderopacity="0.25"
     inkscape:showpageshadow="2"
     inkscape:pageopacity="0.0"
     inkscape:pagecheckerboard="0"
     inkscape:deskcolor="#d1d1d1"
     inkscape:zoom="4.3531261"
     inkscape:cx="36.755195"
     inkscape:cy="26.188077"
     inkscape:window-width="1543"
     inkscape:window-height="1372"
     inkscape:window-x="0"
     inkscape:window-y="0"
     inkscape:window-maximized="0"
     inkscape:current-layer="svg7"
     showgrid="false" />
  <defs
     id="defs2">
    <filter
       style="color-interpolation-filters:sRGB;"
       inkscape:label="Blur"
       id="filter3"
       x="-0.10843471"
       y="-0.10870992"
       width="1.2168694"
       height="1.2174198">
      <feGaussianBlur
         stdDeviation="0.5 0.5"
         result="blur"
         id="feGaussianBlur3" />
    </filter>
    <style
       id="current-color-scheme"
       type="text/css">.ColorScheme-Text {color:#d8dee9} .ColorScheme-Highlight {color:#3b4252}</style>
    <linearGradient
       id="linearGradient3"
       inkscape:collect="always">
      <stop
         style="stop-color:#000000;stop-opacity:1;"
         offset="0"
         id="stop3" />
      <stop
         style="stop-color:#000000;stop-opacity:0;"
         offset="1"
         id="stop4" />
    </linearGradient>
    <linearGradient
       inkscape:collect="always"
       xlink:href="#linearGradient3"
       id="linearGradient4"
       x1="13.512321"
       y1="13.490874"
       x2="3.3783066"
       y2="3.3568602"
       gradientUnits="userSpaceOnUse" />
  </defs>
  <metadata
     id="metadata2">
    <rdf:RDF>
      <cc:Work
         rdf:about="">
        <dc:format>image/svg+xml</dc:format>
        <dc:type
           rdf:resource="http://purl.org/dc/dcmitype/StillImage" />
      </cc:Work>
    </rdf:RDF>
    <itype>type-a</itype>
  </metadata>
  <ellipse
     style="opacity:1;fill:none;stroke:#000000;stroke-width:0.582072;stroke-dasharray:none;stroke-opacity:1;filter:url(#filter3)"
     id="path1-5"
     cx="8.4450111"
     cy="8.423522"
     rx="6.8752708"
     ry="6.8578653" />
  <ellipse
     style="opacity:1;fill:none;stroke-width:0.58207188;stroke-opacity:1;stroke:currentColor;stroke-dasharray:none;fill-opacity:1"
     id="path1"
     cx="8.4450111"
     cy="8.423522"
     rx="6.8752708"
     ry="6.8578653"
     class="ColorScheme-Text" />
  <ellipse
     style="fill:currentColor;stroke:none;stroke-width:0.285844;stroke-dasharray:none;stroke-opacity:1"
     id="path1-2"
     cx="8.4557552"
     cy="8.423522"
     rx="6.5738997"
     ry="6.5692253"
     class="ColorScheme-Highlight" />
  <path
     id="path8"
     style="opacity:0.3;fill:#000000;fill-opacity:1;stroke-width:0.270484"
     d="m 5.2206935,5.2090141 v 7.5735489 h 0.811452 v -0.811451 h 4.8687095 v 0.811451 h 0.811451 V 5.2090141 Z m 1.893387,0.5409678 h 2.70484 A 1.3524194,1.3524194 0 0 1 11.17134,7.1024013 v 1.2900814 a 0.8114516,0.8114516 0 0 0 -0.267843,0.5478352 0.54096775,0.54096775 0 0 0 -0.0027,0.05547 0.54096775,0.54096775 0 0 0 10e-4,0.03117 0.8114516,0.8114516 0 0 0 0.269428,0.5726658 V 10.618692 L 10.35984,11.430145 H 6.5731165 L 5.7616645,10.618693 V 9.5990961 a 0.8114516,0.8114516 0 0 0 0.267842,-0.5478357 0.8114516,0.8114516 0 0 0 0,-0.00158 0.54096775,0.54096775 0 0 0 0.0027,-0.053874 0.54096775,0.54096775 0 0 0 -0.001,-0.03117 0.8114516,0.8114516 0 0 0 -0.269477,-0.5726669 v -1.289568 a 1.3524194,1.3524194 0 0 1 1.352418,-1.3524194 z m 1.353476,0.5409677 c -0.08628,0 -0.169728,0.0069 -0.253579,0.016905 a 2.2125581,2.2125581 0 0 0 -0.245125,0.042263 c -0.02542,0.00595 -0.04985,0.018055 -0.07555,0.025358 -0.02299,0.00623 -0.04544,0.010401 -0.06763,0.017434 -0.02867,0.00892 -0.05827,0.015891 -0.08506,0.025358 -0.02894,0.010279 -0.05586,0.02245 -0.08453,0.03381 -0.05572,0.02245 -0.107314,0.049038 -0.1606,0.075546 -0.0192,0.010009 -0.04076,0.015608 -0.05969,0.025886 -0.06221,0.032458 -0.118824,0.071205 -0.176977,0.109884 -0.02218,0.014877 -0.04598,0.026317 -0.06762,0.041735 -0.0089,0.00649 -0.01643,0.010141 -0.02535,0.016905 -0.02542,0.019204 -0.05173,0.038599 -0.07607,0.059696 -0.02894,0.023803 -0.05667,0.050119 -0.08453,0.075546 -0.0087,0.00812 -0.01671,0.017244 -0.02535,0.025358 l -0.0085,0.00845 c -0.0041,0.00406 -0.0049,0.012402 -0.0085,0.016905 -0.0568,0.055179 -0.119013,0.1079231 -0.169053,0.1690524 v 5.257e-4 h -5.1e-4 v 5.257e-4 5.257e-4 c -6.5e-5,0.00173 9.7e-4,0.00444 0.001,0.00581 h -4.34e-4 v 5.257e-4 5.257e-4 c -0.04896,0.059506 -0.09277,0.1215698 -0.135241,0.1864863 -0.0057,0.00866 -0.01122,0.016159 -0.01691,0.025357 -0.0041,0.00649 -0.01311,0.00988 -0.01743,0.016905 -0.01623,0.02651 -0.02739,0.056667 -0.04226,0.084526 -0.0049,0.00893 -0.01204,0.01643 -0.01691,0.025357 -0.02028,0.03949 -0.04024,0.078305 -0.05917,0.1183367 l -5.11e-4,5.615e-4 v 5.614e-4 5.615e-4 5.614e-4 c 1.36e-4,0.00148 5.11e-4,0.00342 5.11e-4,0.00475 v 5.614e-4 5.614e-4 5.615e-4 a 2.1709036,2.1709036 0 0 0 -0.08453,0.2107872 c -0.0051,0.014608 -0.01204,0.028455 -0.01691,0.042792 l -5.1e-4,5.615e-4 v 5.614e-4 c -1.74e-4,0.00174 4.65e-4,0.00419 5.1e-4,0.00582 v 5.615e-4 5.614e-4 c -0.0054,0.017042 -0.0123,0.034202 -0.01743,0.051244 -0.01974,0.069244 -0.03773,0.1385681 -0.05072,0.2107872 -0.0092,0.051933 -0.01995,0.1073145 -0.02535,0.1605997 a 2.1920013,2.1920013 0 0 0 -0.0085,0.2201593 c 0,0.1090049 0.0097,0.2159943 0.02535,0.3206711 0.0016,0.011091 -0.0019,0.022989 0,0.033809 0.0119,0.071949 0.03178,0.1423425 0.05072,0.2113155 0.0071,0.026235 0.01777,0.050377 0.02589,0.076074 0.01081,0.034891 0.02137,0.067093 0.03381,0.1009033 a 2.1368225,2.1368225 0 0 0 0.06762,0.169052 c 0.01353,0.028675 0.02713,0.057199 0.04173,0.085057 a 2.1638711,2.1638711 0 0 0 0.135242,0.2282212 c 0.0043,0.00644 0.01283,0.010417 0.01743,0.01691 0.05356,0.075733 0.106571,0.151606 0.169052,0.2197685 0.01082,0.011903 0.02272,0.022182 0.03381,0.033809 0.01082,0.011357 0.02272,0.022728 0.03381,0.033809 0.05788,0.057884 0.121582,0.1094786 0.185957,0.1606006 0.08277,0.066 0.170067,0.123961 0.262031,0.176976 0.0033,0.0026 0.0049,0.0065 0.008,0.0085 0.01461,0.0081 0.02845,0.01751 0.04279,0.02535 0.0852,0.0422 0.187039,0.0883 0.253578,0.118866 0.02975,0.01136 0.06241,0.01534 0.09298,0.02535 0.01433,0.0049 0.02793,0.01231 0.04226,0.01691 0.03679,0.01109 0.07203,0.02434 0.109358,0.03381 l 0.03381,0.0085 c 0.07898,0.01894 0.162899,0.03279 0.245126,0.04226 0.08385,0.0097 0.167551,0.01691 0.254106,0.01691 0.09197,0 0.181225,-0.0055 0.270485,-0.01691 0.09872,-0.01298 0.183929,-0.03393 0.270484,-0.05124 A 2.139257,2.139257 0 0 0 10.14854,9.807517 c 0.0076,-0.00951 0.01805,-0.015624 0.02535,-0.025352 0.0027,-0.00327 0.006,-0.00522 0.0085,-0.00797 0.0038,-0.00511 0.0049,-0.012301 0.0085,-0.01743 a 2.1541335,2.1541335 0 0 0 0.363463,-0.7602067 c 0.01515,-0.058694 0.03199,-0.1169168 0.04226,-0.1775048 0.0013,-0.00812 -0.0013,-0.016971 0,-0.025357 0.0016,-0.010821 0.0069,-0.021371 0.0085,-0.033809 0.0016,-0.011632 0.0071,-0.022177 0.0085,-0.033809 h -0.0085 c 0.01163,-0.088989 0.02535,-0.178249 0.02535,-0.2704841 0,-0.1490365 -0.01359,-0.298614 -0.04226,-0.4395361 -0.0024,-0.011632 -0.0057,-0.022177 -0.008,-0.033809 -0.01271,-0.05599 -0.03393,-0.1138864 -0.05125,-0.1685242 v -5.614e-4 -5.615e-4 c -2.09e-4,-0.00209 2.1e-4,-0.0049 0,-0.00687 v -5.615e-4 a 0.93019402,0.93019402 0 0 0 -0.008,-0.025357 c -0.01082,-0.032457 -0.02244,-0.069785 -0.03434,-0.1014317 -0.0033,-0.00866 -0.0047,-0.017772 -0.008,-0.025888 -0.0119,-0.029751 -0.02981,-0.055584 -0.04279,-0.084526 -1.4e-4,-0.00117 6.64e-4,-0.00599 5.61e-4,-0.00792 h -5.61e-4 v -5.615e-4 c -0.0067,-0.014608 -0.01832,-0.027929 -0.02535,-0.042261 a 2.1132906,2.1132906 0 0 0 -0.08453,-0.1605497 c -0.01568,-0.026505 -0.02549,-0.058031 -0.04226,-0.083998 -0.0064,-0.00973 -0.01859,-0.016149 -0.02535,-0.025888 -0.01812,-0.027051 -0.0397,-0.049579 -0.05917,-0.075546 -0.02164,-0.027049 -0.03781,-0.058817 -0.05917,-0.085054 l -5.62e-4,-5.257e-4 V 7.085135 7.0846093 7.0840835 c 8.5e-5,-0.00157 4.34e-4,-0.00346 5.62e-4,-0.00475 V 7.0788078 7.078282 7.0777563 c -0.04655,-0.056951 -0.100497,-0.1090871 -0.1526985,-0.1607495 -0.02516,-0.024884 -0.04958,-0.052284 -0.07555,-0.075546 -0.0079,-0.00703 -0.01804,-0.010671 -0.02588,-0.017433 A 2.1993044,2.1993044 0 0 0 9.7088865,6.6887859 c -0.01487,-0.010009 -0.02711,-0.023274 -0.04226,-0.033283 -0.01894,-0.012443 -0.03996,-0.021909 -0.05917,-0.03381 -0.03624,-0.022721 -0.07201,-0.047065 -0.109884,-0.067621 a 2.189026,2.189026 0 0 0 -0.101439,-0.051244 2.1368225,2.1368225 0 0 0 -0.177504,-0.075546 2.0689311,2.0689311 0 0 0 -0.219769,-0.067621 2.0981435,2.0981435 0 0 0 -0.532516,-0.067627 z m -0.001,0.2715404 a 1.8996082,1.8996082 0 0 1 0.380368,0.042263 h 0.008 c 0.04517,0.00947 0.09169,0.021369 0.135242,0.03381 0.02623,0.0073 0.05118,0.016973 0.0766,0.025358 0.04653,0.015418 0.09034,0.031511 0.135242,0.050715 0.05248,0.021639 0.102378,0.041114 0.152148,0.067621 l -0.02536,0.00845 a 0.08628435,0.08628435 0 0 0 -0.03381,0.03381 c -0.0054,0.012984 0.0013,0.03097 0,0.050715 3.25e-4,1.437e-4 0.0012,8.83e-4 0.0016,0.00105 0.0092,0.00599 0.01574,0.023878 0.03222,0.032754 0.0021,0.00118 0.0046,0.00129 0.0063,0.00105 0.0034,-7.401e-4 0.0066,-0.00275 0.01056,-0.00105 0.01028,0.00568 0.0188,0.023532 0.01691,0.03381 -6.63e-4,0.00325 -0.0027,0.00596 -0.0048,0.00739 -0.0076,0.00428 -0.02155,0.00119 -0.02905,0.00951 0.0016,0.021098 -0.0115,0.028469 -0.01691,0.042263 1.01e-4,2.786e-4 4.06e-4,0.00133 5.62e-4,0.00158 l 5.61e-4,5.257e-4 5.62e-4,5.257e-4 c 0.0037,0.00465 0.01107,0.006 0.01426,0.011094 l 5.62e-4,5.257e-4 c 3.24e-4,7.809e-4 3.79e-4,0.00165 5.61e-4,0.00264 -0.0013,0.00836 -0.01224,0.01231 -0.01638,0.017962 -1.53e-4,2.557e-4 -9.18e-4,0.00132 -10e-4,0.00158 -1.92e-4,5.614e-4 5.1e-5,0.00203 0,0.00264 3.7e-5,9.749e-4 9.7e-5,0.00203 5.61e-4,0.00317 0.01948,0.015147 0.04051,-0.00549 0.05917,-0.00792 0.0403,-0.00541 0.07655,0.010752 0.101435,-0.00845 -0.0033,-0.019205 0.02698,-0.024952 0.02535,-0.042263 -2.02e-4,-0.00162 -0.0013,-0.00392 -0.0021,-0.00529 -0.0062,-0.00876 -0.02371,-0.012544 -0.0317,-0.020075 -0.0054,-0.00486 -0.01068,-0.015891 -0.01691,-0.025358 -0.0071,-0.010819 -0.01725,-0.023532 -0.02535,-0.03381 -0.01082,-0.014065 -0.03381,-0.031715 -0.03381,-0.042263 0,-0.012172 0.01393,-0.01704 0.01691,-0.03381 -0.0033,-0.015418 -0.03165,-3.923e-4 -0.03381,-0.017434 a 0.04381839,0.04381839 0 0 1 0.008,-0.016905 c 0.04058,0.022179 0.081,0.048485 0.118864,0.076074 l 0.02535,0.016905 c 0.02921,0.02191 0.05638,0.045982 0.08506,0.067621 -0.01812,0.00324 -0.02739,0.024411 -0.04226,0.042263 a 0.12550452,0.12550452 0 0 1 -0.04226,0.03381 l -5.61e-4,5.257e-4 c -0.0065,0.00219 -0.01608,-0.00303 -0.02272,-0.00158 -2.41e-4,7.18e-5 -0.0013,4.355e-4 -0.0016,5.257e-4 l -5.61e-4,5.257e-4 c -0.01002,0.00676 -0.01373,0.025967 -0.02535,0.03381 -0.0081,0.00524 -0.03291,0.024179 -0.04226,0.025358 -0.0093,0 -0.02421,-0.0086 -0.03222,-0.00845 -2.61e-4,2.72e-5 -0.0013,-5.09e-5 -0.0016,0 -6.64e-4,2.198e-4 -0.002,0.00127 -0.0027,0.00158 -2.49e-4,1.833e-4 -0.0013,8.523e-4 -0.0016,0.00105 -1.98e-4,2.244e-4 -8.67e-4,0.00134 -0.001,0.00158 -0.0032,0.00517 -0.0033,0.014066 -0.008,0.019018 -2.61e-4,2.301e-4 -0.0013,0.00137 -0.0016,0.00158 -6.64e-4,3.814e-4 -0.0013,7.707e-4 -0.0021,0.00105 -0.0238,0.00812 -0.06769,-0.019069 -0.07607,0.016905 0.01027,0.020557 0.04131,0.013457 0.05917,0.025358 a 0.12847985,0.12847985 0 0 1 0.03381,0.050715 0.17419161,0.17419161 0 0 1 0,0.059168 c -0.01109,0.028669 -0.04335,0.026169 -0.07607,0.025357 -0.0092,-2.7e-4 -0.01697,0 -0.02535,0 -0.05599,-0.00378 -0.110088,-0.022601 -0.135242,0.017435 0.0019,0.030563 0.0067,0.04931 0,0.075546 -0.0049,0.019477 -0.02617,0.033676 -0.02535,0.050714 5.62e-4,0.00866 0.01474,0.022177 0.01691,0.033809 0.0012,0.00583 -0.0026,0.01864 -5.62e-4,0.024831 l 5.62e-4,5.614e-4 c 0.0092,0.017854 0.03422,-0.00271 0.05072,0 0.01596,0.00271 0.03408,0.03312 0.03381,0.051244 a 0.09358742,0.09358742 0 0 1 -0.01691,0.042261 c -0.01569,0.024341 -0.04517,0.02083 -0.06762,0.033809 -0.01894,0.01055 -0.02272,0.032053 -0.03381,0.050714 -0.0119,0.020018 -0.02177,0.029685 -0.01691,0.059169 a 0.13118468,0.13118468 0 0 1 -0.06762,0.067621 c -0.01002,0.00459 -0.02488,0.010412 -0.03381,0.016905 a 0.17040484,0.17040484 0 0 0 -0.02535,0.025357 c -0.01271,0.014067 -0.02705,0.022989 -0.03381,0.033809 -0.0054,0.00812 -0.0028,0.022723 -0.0085,0.033809 -0.0081,0.015149 -0.0238,0.027118 -0.03381,0.042261 -0.0046,0.00703 -0.01202,0.015889 -0.01743,0.025357 -0.01136,0.02083 -0.02726,0.040776 -0.02535,0.059169 0.0019,0.017854 0.024,0.018395 0.02535,0.033809 0.0011,0.00866 -0.0085,0.016159 -0.008,0.025357 0,0.013796 0.0072,0.023259 0.008,0.033809 0.0027,0.027046 -0.01177,0.032324 -0.01691,0.050714 -0.0027,0.00866 0.0021,0.018324 0,0.025357 -0.0043,0.013526 -0.02509,0.026577 -0.02535,0.042261 -2.7e-4,0.011362 0.01583,0.026306 0.01691,0.042262 5.62e-4,0.01082 -0.01035,0.015353 -0.0085,0.025357 0.0038,0.019742 0.04428,0.043752 0.05969,0.059168 0.02028,0.020289 0.04179,0.038061 0.05072,0.059696 0.0073,0.018124 0.01075,0.045375 0.02535,0.059168 0.01055,0.010009 0.02874,0.014536 0.04226,0.025357 0.01271,0.00973 0.02901,0.014807 0.04226,0.025357 0.02164,0.017313 0.04936,0.05315 0.08453,0.050714 0.01839,-0.0027 0.03834,-0.013388 0.05917,-0.016905 0.02137,-0.00378 0.04598,-0.010887 0.06762,-0.00845 0.01624,0.00271 0.03341,0.017716 0.05072,0.016905 0.01812,0 0.03861,-0.01643 0.05917,-0.025357 0.03543,-0.015419 0.09176,-0.041384 0.143695,-0.033809 0.03949,0.00541 0.04058,0.059033 0.06762,0.076074 0.03192,0.00271 0.05938,-0.014674 0.08453,-0.00845 0.01894,0.00459 0.04064,0.036096 0.04226,0.051244 0.0019,0.01569 -0.01448,0.031997 -0.01691,0.041736 -0.0049,0.0211 -0.0049,0.045916 -0.0085,0.059168 -0.0033,0.01028 -0.0087,0.023264 -0.0085,0.033809 a 0.14606129,0.14606129 0 0 0 0.02535,0.050714 c 0.0119,0.015149 0.02793,0.026036 0.04226,0.042262 a 0.48687098,0.48687098 0 0 1 0.05969,0.1014316 c 0.0043,0.010009 -0.0046,0.020824 0,0.033809 -0.0081,0.060589 -0.02813,0.1019726 -0.06762,0.1690525 -0.01893,0.021636 -0.04334,0.040572 -0.04279,0.067621 -0.0013,0.064917 0.03678,0.1062998 0.03381,0.169052 -0.0064,0.084393 0.0065,0.090066 0,0.1352418 0.0284,0.014332 0.0084,0.062955 0,0.09298 -0.01218,0.035698 -0.02705,0.043818 -0.03381,0.067616 0.01921,0.00807 0.04625,0.00511 0.06762,0 0,0 0.02589,0.1082621 0.02535,0.1098846 a 1.8941986,1.8941986 0 0 1 -0.794141,0.4643709 c -0.148767,0.03598 -0.193045,0.03584 -0.26256,0.05072 a 1.7264985,1.7264985 0 0 1 -0.278408,0.02589 c -0.06573,0 -0.131104,-0.0028 -0.194939,-0.0085 -0.04922,-0.0049 -0.09556,-0.0167 -0.143166,-0.02535 a 1.9393694,1.9393694 0 0 1 -0.04226,-0.0085 c -0.04409,-0.01487 -0.09467,-0.0238 -0.135242,-0.03381 a 1.9115096,1.9115096 0 0 1 -0.135242,-0.04226 c 0.0019,-0.0017 0.0043,-0.0028 0.0058,-0.0037 l 5.61e-4,-5.62e-4 v -5.61e-4 l 5.62e-4,-5.62e-4 5.61e-4,-5.61e-4 c 1.2e-4,-2.21e-4 4.33e-4,-0.0013 5.62e-4,-0.0016 8.5e-5,-2.98e-4 4.6e-4,-7.15e-4 5.61e-4,-0.001 0.0027,-0.01081 5.62e-4,-0.01677 0,-0.03381 0.0041,-0.01758 0.02157,-0.01569 0.02535,-0.03381 -0.0076,-0.01299 -0.02245,-0.01012 -0.03381,-0.01691 a 0.03597435,0.03597435 0 0 1 -0.01743,-0.03381 c 0.01894,-0.0079 0.0541,0.01779 0.06762,-0.0085 0.0067,-0.01244 -0.0092,-0.03773 0,-0.05072 1.95e-4,-2.55e-4 0.0013,-0.0013 0.0016,-0.0016 0.0095,-0.0075 0.04543,-0.01382 0.05811,-0.01585 0.01894,-0.0033 0.03989,-0.0026 0.05072,-0.008 a 0.0603179,0.0603179 0 0 0 0.02535,-0.051249 c -0.0011,-0.01055 -0.0088,-0.015889 -0.01691,-0.025352 -0.0067,-0.00787 -0.0039,-0.017788 -0.0085,-0.025352 -0.0087,-0.012709 -0.0213,-0.015685 -0.02535,-0.033809 0.02597,-0.00511 0.06383,0.027449 0.101435,0.01691 0.01785,-0.00511 0.04233,-0.050852 0.05072,-0.067626 v -5.614e-4 l 5.61e-4,-5.615e-4 v -5.614e-4 c 8.17e-4,-0.00459 -0.0029,-0.00992 -5.61e-4,-0.015327 0.0029,-0.00613 0.0133,-0.01202 0.01638,-0.015848 l 5.61e-4,-5.615e-4 v -5.614e-4 c 0.0027,-0.00971 -0.0021,-0.018859 0,-0.025352 0.0065,-0.01839 0.02299,-0.020283 0.03381,-0.033809 0.0081,-0.010274 0.01751,-0.023535 0.02535,-0.033809 0.0084,-0.010815 0.01176,-0.024076 0.01743,-0.033809 0.0054,-0.032722 -0.01657,-0.055583 -0.0085,-0.084525 0.0084,-0.032457 0.05288,-0.044819 0.08453,-0.059693 0.01082,-0.0049 0.02488,-0.013658 0.03381,-0.01691 0.02164,-0.00756 0.0476,-0.00961 0.06762,-0.01691 0.03381,-0.012444 0.04239,-0.045237 0.05917,-0.076071 a 0.16526565,0.16526565 0 0 0 0.01691,-0.042262 c 0.0013,-0.00951 -0.0019,-0.014271 0,-0.025352 0.0016,-0.010815 0.0055,-0.021907 0.0085,-0.033809 a 0.29753226,0.29753226 0 0 0 0.0085,-0.059172 c 0,-0.014332 -0.0079,-0.0211 -0.0085,-0.033809 -0.0024,-0.046794 0.0165,-0.058831 0.03381,-0.084527 0.0087,-0.012714 0.01068,-0.024341 0.01691,-0.033809 0.02921,-0.043277 0.08013,-0.061062 0.07607,-0.1267895 -0.0011,-0.021641 -0.0094,-0.069311 -0.02535,-0.076074 -0.0092,-0.00408 -0.02902,-0.0025 -0.04226,-0.00792 -0.04273,-0.016231 -0.07398,-0.073098 -0.118336,-0.076074 -0.0095,0 -0.01481,0.00792 -0.02535,0.00792 -0.01758,0 -0.03969,-0.014199 -0.05917,-0.016905 -0.01205,-0.0026 -0.0343,0.00281 -0.04226,0 -7.15e-4,-3.247e-4 -0.002,-0.00112 -0.0027,-0.00158 -0.0072,-0.00672 -0.007,-0.023387 -0.01268,-0.03064 -4.87e-4,-5.104e-4 -10e-4,-0.00117 -0.0016,-0.00158 -0.0073,-0.00485 -0.02272,-0.00413 -0.03381,-0.00845 -0.01785,-0.00676 -0.03069,-0.015011 -0.05125,-0.016905 -0.0062,-2.706e-4 -0.01805,0 -0.02535,0 -0.01136,-0.00271 -0.02326,-0.010683 -0.03381,-0.016905 a 0.05626065,0.05626065 0 0 1 -0.02535,-0.025357 c 0.0119,-0.038949 -0.02596,-0.045171 -0.03381,-0.067621 -0.0038,-0.01055 0.0035,-0.024341 0,-0.033809 -0.0046,-0.013526 -0.01894,-0.022723 -0.03381,-0.033809 -0.02623,-0.020018 -0.04693,-0.037663 -0.08452,-0.042262 -0.01623,-0.0027 -0.03915,0 -0.05917,0 a 0.09926758,0.09926758 0 0 1 -0.05917,-0.033809 c -0.01515,-0.017578 -0.02056,-0.033875 -0.03381,-0.042261 -0.01271,-0.00812 -0.03361,-0.00798 -0.04226,-0.016904 -0.0038,-0.00378 -0.0049,-0.00798 -0.0085,-0.016905 -0.0065,-0.012985 -0.01657,-0.026577 -0.0085,-0.042262 -0.0017,-9.187e-4 -0.0035,-0.00163 -0.0048,-0.00158 h -5.62e-4 l -5.61e-4,5.615e-4 h -5.62e-4 -5.61e-4 v 5.614e-4 c -2.46e-4,1.429e-4 -0.0013,8.677e-4 -0.0016,0.00107 l -5.62e-4,5.614e-4 c -0.0023,0.00291 -0.0043,0.00853 -0.0068,0.012148 -2.32e-4,2.706e-4 -0.0013,0.00133 -0.0016,0.00158 -5.61e-4,4.599e-4 -0.002,0.00128 -0.0027,0.00158 -0.0014,4.869e-4 -0.0033,8.166e-4 -0.0053,5.614e-4 -0.01407,-0.020018 -0.02698,-0.031038 -0.05917,-0.025357 -0.01461,0.00271 -0.02522,0.016093 -0.04226,0.016905 -0.01407,0 -0.02387,-0.014199 -0.04226,-0.016905 -0.01407,-0.00271 -0.03253,0.0098 -0.04226,0.00845 -0.01542,-0.00271 -0.01974,-0.015889 -0.03381,-0.025357 -0.009,-0.00592 -0.02433,-0.021825 -0.0317,-0.025357 -2.44e-4,-9.54e-5 -0.0013,-4.598e-4 -0.0016,-5.614e-4 h -5.62e-4 c -0.01812,0 -0.03401,0.039138 -0.05917,0.025888 -0.0017,-0.00214 -0.0026,-0.00511 -0.0027,-0.00687 v -3.704e-4 -5.614e-4 c 0.0013,-0.00699 0.01329,-0.011949 0.01479,-0.018492 V 8.327769 8.3272076 8.3266461 8.3260847 l -5.61e-4,-5.615e-4 c -4.59e-4,-0.00153 -0.0013,-0.00291 -0.0032,-0.00475 -0.001,-0.00102 -0.0028,-0.00255 -0.0037,-0.00316 -6.12e-4,-3.246e-4 -0.002,-8.677e-4 -0.0027,-0.00107 -2.71e-4,-5.36e-5 -0.0013,2.04e-5 -0.0016,0 -2.66e-4,1.02e-5 -0.0013,-3.93e-5 -0.0016,0 -2.56e-4,6.59e-5 -0.0013,4.323e-4 -0.0016,5.615e-4 -0.0047,0.00214 -0.0088,0.00825 -0.01426,0.011622 a 0.18014226,0.18014226 0 0 1 -0.03381,0.017435 c -0.02488,0.0092 -0.03969,0.00662 -0.05917,0.016905 -0.01785,0.0092 -0.02353,0.023872 -0.03381,0.042261 -0.0081,0.015149 -0.02137,0.041455 -0.03381,0.042261 -0.01515,0 -0.02874,-0.019406 -0.04226,-0.025357 -0.04138,-0.017854 -0.06707,0.00766 -0.101435,0.00792 -0.03192,0 -0.0777,-0.045794 -0.07607,-0.075545 0.0011,-0.018125 0.015,-0.0449 0.01743,-0.067621 0.0016,-0.017854 0.01663,-0.034218 0.01691,-0.050714 0,-0.021912 -0.03638,-0.039827 -0.05072,-0.042261 -0.03381,-0.00623 -0.08018,0.016231 -0.118865,0 -0.0073,-0.012173 0.01311,-0.021912 0.01743,-0.033809 4.6e-4,-0.00128 5.11e-4,-0.00322 5.62e-4,-0.00424 -2.97e-4,-0.00393 -0.0026,-0.0068 -5.62e-4,-0.012678 0.0043,-0.011362 0.01995,-0.021641 0.02535,-0.033809 0.0041,-0.0092 0.0041,-0.022177 0.008,-0.033809 0.0049,-0.013526 0.01635,-0.024617 0.01743,-0.033809 0.0013,-0.012173 -0.0072,-0.025694 -0.01691,-0.033809 -0.03003,0.00271 -0.05059,6.78e-5 -0.06762,0.00845 -0.03895,0.017854 -0.02866,0.071813 -0.06762,0.084527 -0.01353,0.00434 -0.03637,0.00522 -0.05125,0.00792 -0.01271,0.00271 -0.02848,0.00925 -0.04173,0.00898 a 0.09575128,0.09575128 0 0 1 -0.05124,-0.025883 0.04706419,0.04706419 0 0 1 -0.0085,-0.016905 c 5.62e-4,-0.00271 -5.61e-4,-0.00575 0,-0.00845 0.01244,-0.060318 0.02522,-0.1201625 0.04226,-0.1775048 l 5.1e-4,-5.615e-4 V 7.888059 c 1.74e-4,-0.00174 -4.65e-4,-0.00367 -5.1e-4,-0.00529 v -5.615e-4 -5.614e-4 -5.614e-4 c 0.01136,-0.037867 0.02793,-0.072828 0.04226,-0.1098839 0.0035,-0.00271 0.0055,-0.00656 0.0085,-0.00845 0.0211,-0.014608 0.04247,-0.032457 0.06762,-0.033809 0.01568,0 0.04429,0.00575 0.05917,0.00845 0.01353,0.00271 0.02219,0.015822 0.03381,0.016905 0.03327,0.00271 0.0403,-0.027398 0.06762,-0.041736 0.02813,0.00408 0.04219,-0.00271 0.06762,0 0.01731,0.00271 0.03719,0.024275 0.05072,0.025357 0.0014,0 0.0036,-0.00107 0.0048,-0.00158 0.0057,-0.00306 0.01012,-0.011469 0.01532,-0.014792 2.7e-4,-1.413e-4 0.0013,-4.057e-4 0.0016,-5.614e-4 0.0011,-3.246e-4 0.0029,-7.656e-4 0.0042,-5.615e-4 0.01082,0.00271 0.03218,0.029282 0.03381,0.042261 0.0019,0.016231 -0.01306,0.033135 -0.0085,0.050714 0.01704,0.017313 0.0512,0.015077 0.07555,0.025357 0.01624,-0.012985 0.0027,-0.032053 0,-0.050714 -2.7e-4,-0.00838 0.0013,-0.017783 0,-0.025357 -0.0013,-0.012985 -0.008,-0.022723 -0.008,-0.033809 -2.69e-4,-0.051392 0.04147,-0.081145 0.07555,-0.1014316 0.01515,-0.00893 0.02928,-0.018865 0.04226,-0.025357 0.01812,-0.0092 0.02711,-0.016971 0.04226,-0.025357 0.02732,-0.015419 0.0547,-0.024954 0.07607,-0.042261 0.01002,-0.023264 -0.0011,-0.053083 0,-0.076074 0.01002,-0.00595 0.01481,0 0.02536,0 0.0165,-0.00352 0.02434,-0.024612 0.03381,-0.033809 0.0054,-0.00541 0.01886,-0.011494 0.02535,-0.016905 0.0165,-0.012985 0.01948,-0.028128 0.03381,-0.033809 0.0054,-0.00271 0.01725,-0.00464 0.02535,-0.00845 0.01081,-0.00296 0.02495,-0.010683 0.04226,-0.016905 0.01065,-0.00357 0.03522,-0.00434 0.04173,-0.00792 v -5.098e-4 h 5.61e-4 l 5.62e-4,-5.104e-4 v -5.104e-4 c 1.23e-4,-2.241e-4 9.7e-4,-0.00133 0.001,-0.00158 0.0022,-0.00762 -0.003,-0.024071 -0.0016,-0.03117 0.0087,-0.040572 0.07364,-0.045375 0.109883,-0.059168 0.02542,-0.00973 0.04821,-0.030767 0.07607,-0.025357 -0.0034,0.012173 -0.01511,0.01373 -0.02166,0.018492 -0.0034,0.00286 -0.0057,0.00723 -0.0042,0.015322 8.67e-4,0.00459 0.0032,0.00841 0.0053,0.010565 2.44e-4,2.129e-4 0.0013,8.677e-4 0.0016,0.00107 2.68e-4,1.628e-4 0.0013,9.187e-4 0.0016,0.00107 0.01446,0.00576 0.04195,-0.017537 0.05125,-0.021131 0.02164,-0.00947 0.06404,-0.014807 0.09298,-0.025357 0.02542,-0.0092 0.06634,-0.021503 0.04226,-0.050715 -0.02002,0 -0.02495,0.017784 -0.04226,0.025358 -0.0119,0.00271 -0.01508,-0.00764 -0.02535,-0.00845 -0.0097,0 -0.01588,0.010346 -0.02588,0.00845 l -5.61e-4,-5.257e-4 c -0.0099,-0.00361 -0.02326,-0.022015 -0.02483,-0.033282 -0.0041,-0.029753 0.02982,-0.036717 0.04226,-0.059168 -0.0081,-0.027048 -0.0449,-0.00688 -0.06762,-0.017433 a 0.04003161,0.04003161 0 0 1 0.03381,-0.033282 c 0.01542,-0.00271 0.05023,0.00252 0.05969,0.00792 l 5.62e-4,5.257e-4 v 5.257e-4 l 5.61e-4,5.258e-4 5.62e-4,5.257e-4 c 0.0027,0.0059 -7.66e-4,0.017146 0.0063,0.023773 0.0092,0.00812 0.02191,0.00271 0.03381,0 0.0035,-0.016703 -0.01799,-0.014299 -0.0243,-0.020075 v -5.257e-4 l -5.62e-4,-5.257e-4 -5.61e-4,-5.257e-4 v -5.257e-4 -5.257e-4 -5.257e-4 -5.258e-4 -5.257e-4 c 3.3e-5,-3.895e-4 -1.01e-4,-6.227e-4 0,-0.00105 0.02434,-0.016229 0.07167,-0.00439 0.101434,-0.00845 0.01704,-0.00271 0.0353,-0.016703 0.05072,-0.025358 0.01461,-0.00812 0.02711,-0.021977 0.04226,-0.00845 0.0012,0.00411 5.1e-4,0.0079 -5.62e-4,0.010566 -0.003,0.00622 -0.01061,0.00959 -0.01638,0.014792 a 0.59019583,0.59019583 0 0 0 -0.07555,0.084527 c 0.01298,0.012984 0.03619,0.00602 0.05864,0.00845 0.0087,0 0.01617,0.0063 0.02535,0.00792 0.01082,0.00271 0.02542,-0.00325 0.03381,0 0.01515,0.00378 0.01894,0.025886 0.03381,0.025886 0.02462,0 0.02252,-0.034204 0.0085,-0.051244 0.0043,-0.01704 0.0144,-0.021639 0.0085,-0.03381 -0.01082,-0.022179 -0.05674,0.00385 -0.05917,-0.025358 -0.0013,-0.018123 0.01886,-0.020286 0.02535,-0.03381 -0.0027,-0.034622 0.0286,-0.036245 0.02535,-0.067621 -0.0016,-0.012713 -0.01616,-0.012659 -0.02535,-0.024829 -0.0043,-0.00583 -0.0032,-0.019748 -0.0074,-0.025358 l -5.61e-4,-5.257e-4 c -0.01894,-0.016229 -0.05699,-0.011441 -0.05969,-0.041735 -0.0011,-0.017852 0.0027,-0.031499 0,-0.051244 -0.0024,-0.01784 -0.01812,-0.071069 -0.03381,-0.076074 -0.02028,-0.00432 -0.03482,0.030903 -0.05917,0.042262 a 0.10521823,0.10521823 0 0 1 -0.05072,0.00845 c -0.0087,-0.00271 -0.024,-0.00859 -0.02535,-0.025358 -0.0016,-0.018933 0.01339,-0.022248 0.01691,-0.042262 -3.52e-4,-0.00149 -0.0015,-0.00317 -0.0021,-0.00422 -1.59e-4,-2.404e-4 -8.68e-4,-0.00137 -10e-4,-0.00158 l -5.61e-4,-5.258e-4 c -0.0047,-0.00437 -0.01274,-0.00387 -0.02166,-0.010566 -0.01326,-0.010009 -0.02441,-0.031376 -0.04226,-0.03381 -0.0089,0 -0.02516,0.00791 -0.03381,0.00845 -0.01624,0 -0.02874,-0.00412 -0.04226,-0.00845 0.0057,-0.00271 0.01095,-0.00656 0.01691,-0.00845 0.033,-0.01136 0.06762,-0.015891 0.101435,-0.025358 0.0059,-0.00271 0.01096,-0.00683 0.01691,-0.00845 0.0084,0.00892 0.01561,0.027859 0.02589,0.03381 l 5.62e-4,5.257e-4 h 5.61e-4 c 0.0067,0.00242 0.01644,-0.00307 0.0243,-5.257e-4 0.02651,0.00812 0.04713,0.022856 0.07607,0.016905 0.0072,-0.012637 -0.0069,-0.018 -0.01057,-0.024829 -2.46e-4,-6.125e-4 -4.6e-4,-0.00199 -5.61e-4,-0.00264 V 6.652366 6.6518403 6.6513145 c 3.24e-4,-0.00142 0.0011,-0.00303 0.0027,-0.00475 0.0192,0.00271 0.03557,0.011212 0.05072,0.017434 0.02082,-0.015147 0.03463,-0.017919 0.03381,-0.042263 0,-0.00116 -2.53e-4,-0.00319 -5.61e-4,-0.00422 -0.0034,-0.00933 -0.01726,-0.013794 -0.02483,-0.021131 0.01704,-0.00298 0.03341,-0.00602 0.05072,-0.00845 0.001,0.00345 0.0044,0.0066 0.0069,0.00792 h 5.61e-4 5.62e-4 l 5.61e-4,5.257e-4 c 0.01028,0.00271 0.04449,-0.014188 0.05072,-0.017434 h 5.62e-4 v -2.688e-4 -5.257e-4 c -1.53e-4,-0.0014 -0.001,-0.00414 -0.001,-0.00581 V 6.571816 l 5.61e-4,-5.257e-4 v -5.257e-4 c 0.06843,-0.0073 0.140991,-0.00792 0.211316,-0.00792 z m -0.675683,0.1273177 h 5.62e-4 c -0.0062,0.011631 -0.01265,0.021301 -0.02535,0.025357 0.0033,0.017582 -0.02266,0.028469 -0.02535,0.042263 -0.0016,0.00947 -5.61e-4,0.025425 0,0.03381 0.0054,0.086284 -0.06748,0.1284248 -0.152147,0.126261 -0.01623,0.015688 -0.0083,0.045982 -0.01743,0.067621 -0.0076,0.018123 -0.03232,0.035434 -0.05072,0.03381 -0.01353,0 -0.03381,-0.021369 -0.03381,-0.03381 0,-0.015418 0.02198,-0.024411 0.0085,-0.042263 0.0019,-0.011901 0.0286,-0.022801 0.02535,-0.041735 -0.0033,-0.020016 -0.02584,-0.00548 -0.05072,-0.00845 a 0.24965661,0.24965661 0 0 1 -0.05072,-0.017434 c 0.02732,-0.018123 0.05532,-0.033946 0.08452,-0.050715 0.02542,-0.015147 0.05011,-0.028469 0.07607,-0.042263 0.06816,-0.034081 0.14126,-0.065402 0.211316,-0.09245 z m 1.457549,0.2023346 c -0.0012,1.1e-5 -0.003,4.246e-4 -0.0042,5.257e-4 -0.007,1.852e-4 -0.01082,0.00448 -0.01691,0.00792 -0.01379,0.00838 -0.01454,0.021571 -0.02536,0.025358 -0.01461,0.00568 -0.03164,0.00257 -0.03381,0.016905 -0.0016,0.01109 0.0087,0.015337 0.008,0.025886 -0.0054,0.013524 -0.01367,0.017852 -0.01638,0.03381 0.01839,0.029753 0.06181,-0.00305 0.08453,-0.00845 0.01028,-0.00324 0.01968,2.03e-4 0.02535,-0.00845 0.0062,-0.00947 0.0034,-0.028469 0.008,-0.042263 0.0037,-0.010413 0.01202,-0.012445 0.01584,-0.016905 1.58e-4,-2.157e-4 9.19e-4,-0.00136 0.001,-0.00158 1.21e-4,-2.482e-4 4.32e-4,-0.00132 5.62e-4,-0.00158 4.05e-4,-0.00145 2.54e-4,-0.00313 0,-0.00529 -0.0015,-0.012679 -0.02523,-0.026075 -0.04648,-0.025886 z m -1.993762,0.210259 c 0.0042,-1.733e-4 0.008,1.099e-4 0.01162,0.00105 0.01623,0.0046 0.05341,0.052474 0.01743,0.067621 a 0.25182049,0.25182049 0 0 1 -0.05969,0.00845 c -0.01218,-0.00271 -0.0211,-0.023194 -0.03381,-0.025358 -0.02488,-0.00432 -0.05851,0.027048 -0.07555,0 9.7e-4,-0.00355 0.0031,-0.00657 0.0053,-0.00845 0.0081,-0.00581 0.02225,-0.00439 0.03646,-0.00845 0.02959,-0.00805 0.06927,-0.033655 0.09827,-0.034868 z m 0.0766,0.085583 c 8.68e-4,-3.82e-5 0.0017,-5.06e-5 0.0027,0 2.53e-4,0 0.0013,4.977e-4 0.0016,5.257e-4 2.5e-4,5.85e-5 0.0013,4.436e-4 0.0016,5.257e-4 0.0068,0.00307 0.0132,0.01543 0.02218,0.016376 0.0088,0 0.0183,-0.00849 0.0243,-0.00898 l 5.62e-4,5.257e-4 h 4.85e-4 c 0.01515,0.00406 0.02279,0.031173 0.0085,0.042263 -0.0119,0 -0.01616,-0.010081 -0.02536,-0.00845 -0.02282,0.00408 -0.03216,0.046554 -0.04807,0.050714 -2.69e-4,4.75e-5 -0.0013,-2.55e-5 -0.0016,0 -2.71e-4,2.6e-6 -7.65e-4,2.1e-5 -10e-4,0 -0.01731,-0.00271 -0.02604,-0.038005 -0.0085,-0.050714 5.62e-4,-0.010821 -0.009,-0.014536 -0.0085,-0.025358 0.0051,-0.00634 0.01801,-0.016859 0.03117,-0.017434 z m -0.09456,0.00845 a 0.11928339,0.11928339 0 0 1 0.01321,0 c 0.0046,4.356e-4 0.0058,0 0.0074,0 -0.0021,0.019475 -0.0099,0.024615 -0.02483,0.03381 a 0.10224291,0.10224291 0 0 0 -0.05124,0.067622 c -0.0027,0.00973 -0.02957,0.036244 -0.04173,0.033809 -0.0022,-4.655e-4 -0.0049,-0.00214 -0.0063,-0.00316 -2.62e-4,-2.195e-4 -0.0013,-8.166e-4 -0.0016,-0.00107 -4.05e-4,-5.104e-4 -0.0012,-0.00204 -0.0016,-0.00265 -0.007,-0.0162 0.02081,-0.054034 0.02642,-0.060753 0.0073,-0.00866 0.01671,-0.015077 0.02535,-0.025357 0.0076,-0.00939 0.0096,-0.026766 0.01638,-0.033283 l 5.61e-4,-5.257e-4 a 0.11928339,0.11928339 0 0 1 0.03804,-0.00845 z m 2.579636,0.00739 h 5.61e-4 5.61e-4 c 2.12e-4,-2.75e-5 0.0013,2.7e-6 0.0016,0 l -5.62e-4,0.00105 c 0.01299,0.00378 0.01614,0.018596 0.02589,0.025357 0.0073,0.00485 0.01725,0.00357 0.02535,0.00845 0.0095,0.00623 0.01454,0.015889 0.02535,0.025357 0.01515,0.012714 0.03806,0.023805 0.05969,0.033809 0.0041,0.00271 0.01123,0.00656 0.01638,0.00845 0.01487,0.019477 0.02819,0.038883 0.042261,0.059168 0.0016,0.01082 0.0033,0.026776 0.0085,0.033809 0.01407,0.019207 0.0353,0.035366 0.05072,0.059168 0,0.022177 0.0097,0.03604 0.02535,0.042261 0.01974,0.033539 0.04076,0.067079 0.05969,0.1014316 0.0076,0.01569 0.0093,0.034759 0.01691,0.050714 -0.0051,0 -0.01175,0.00194 -0.01691,0 -0.01785,-0.031375 -0.11102,-0.037785 -0.118864,0.00792 -0.0035,0.020554 0.01366,0.047728 -0.01691,0.051244 -0.01894,0.00271 -0.041381,-0.019676 -0.067621,-0.025357 -0.01082,-0.00271 -0.02542,0.00378 -0.03381,0 -0.01974,-0.00676 -0.01677,-0.030364 -0.03381,-0.042261 a 0.14795468,0.14795468 0 0 0 -0.05072,-0.016904 h -0.02536 c -0.01217,-0.00271 -0.03199,-0.00276 -0.04226,-0.00845 -0.0094,-0.00577 -0.03032,-0.016849 -0.03381,-0.025357 -0.0038,-0.013526 0.02428,-0.0309 0.02535,-0.042261 5.61e-4,-0.00812 -0.006,-0.012107 -0.008,-0.025357 -0.0016,-0.00784 0.0013,-0.019947 0,-0.025357 -0.0027,-0.0092 -0.01973,-0.01716 -0.03434,-0.017435 -0.01299,0 -0.02272,0.00818 -0.03381,0.00845 -0.01596,2.706e-4 -0.04788,-0.00981 -0.06762,-0.00792 -0.01163,0 -0.02219,0.00711 -0.03329,0.00792 -0.03138,0.00271 -0.05173,-0.00271 -0.07607,0 a 0.20556774,0.20556774 0 0 0 -0.06762,0.01743 c -0.0084,0.00378 -0.01454,0.011494 -0.02535,0.016905 a 0.16742952,0.16742952 0 0 1 -0.01743,0.00845 c -0.01027,0.00459 -0.02434,0.014199 -0.03381,0.016905 -0.01407,0.00352 -0.03321,0 -0.05917,0 -0.01813,0 -0.05044,-0.00373 -0.05072,-0.025357 -2.7e-4,-0.033268 0.06133,-0.019405 0.09298,-0.025357 0.0119,-0.00271 0.01974,-0.016971 0.03381,-0.025357 0.0067,-0.00408 0.01042,-0.00439 0.01691,-0.00845 0.01048,-0.00759 0.03107,-0.024903 0.03381,-0.033809 5.1e-5,-2.537e-4 5.11e-4,-0.00133 5.62e-4,-0.00158 1.06e-4,-0.00689 -0.0077,-0.016364 -0.009,-0.022187 V 7.4087554 7.408194 7.4076325 c 4.3e-5,-2.368e-4 4.6e-4,-0.00133 5.62e-4,-0.00158 0.0027,-0.00717 0.01598,-0.015169 0.02535,-0.0243 0.01515,-0.014878 0.02308,-0.031997 0.04173,-0.041736 0.01271,-0.00676 0.03658,-0.00688 0.04226,-0.017435 0.0013,-0.011632 -2.71e-4,-0.014807 0,-0.025357 0.0079,-0.0073 0.01067,-0.015552 0.01743,-0.016905 0.01948,-0.00434 0.03645,0.00954 0.05917,0.00845 a 0.07844032,0.07844032 0 0 0 0.03329,-0.00845 c 0.0089,-0.00623 0.01671,-0.012035 0.02535,-0.016905 0.0095,-0.00485 0.01373,-0.016353 0.02535,-0.017435 0.0284,-0.00271 0.04644,0.033932 0.05969,0.051244 0.01082,0.014337 0.04131,0.032523 0.05917,0.042261 0.01002,0.00569 0.02272,0.012035 0.03381,0.016905 0.02353,0.01082 0.06681,0.04463 0.06762,0.067621 5.61e-4,0.011362 -0.01061,0.014536 -0.0085,0.025357 0.01758,0.00296 0.03327,-0.01596 0.03381,-0.033809 2.71e-4,-0.010821 -0.01089,-0.013459 -0.0085,-0.025357 0.0081,-0.017849 0.0399,-0.00306 0.05072,-0.00845 -0.0019,-0.020559 -0.0334,-0.023264 -0.05072,-0.033809 -0.0092,-0.00541 -0.01562,-0.012847 -0.02535,-0.016905 -0.01407,-0.00541 -0.03145,-0.00905 -0.04226,-0.017435 -0.01028,-0.00784 -0.01534,-0.021636 -0.02535,-0.033809 -0.01461,-0.017313 -0.04273,-0.019676 -0.03381,-0.059168 0.0035,-0.00485 0.0084,-0.014459 0.01374,-0.016905 z m -2.336623,0.057055 c 0.0019,-8.78e-5 0.0045,5.614e-4 0.0058,0.00107 h 5.61e-4 l 5.62e-4,5.104e-4 v 5.104e-4 l 5.61e-4,5.104e-4 c -0.0059,0.02353 -0.05741,0.016578 -0.07607,0.00792 3.4e-5,-2.787e-4 4.59e-4,-0.00133 5.61e-4,-0.00158 V 7.26931 l 5.62e-4,-5.104e-4 c 1.17e-4,-2.026e-4 4.06e-4,-0.00138 5.61e-4,-0.00158 h 5.62e-4 l 5.61e-4,-5.104e-4 c 1.88e-4,-1.394e-4 0.0013,-9.187e-4 0.0016,-0.00107 0.0048,-0.00245 0.01294,-0.00153 0.02113,-0.00209 h 0.02535 c 0.0057,0 0.01259,-0.0024 0.01796,-0.00265 z m 2.226209,0.042261 v 5.104e-4 c -5.1e-4,3.058e-4 -0.0015,6.636e-4 -0.0021,0.00107 l -5.62e-4,5.104e-4 h -5.61e-4 -5.62e-4 -5.61e-4 v 5.104e-4 c -0.01163,0.00352 -0.01785,0.030037 0,0.033284 0.0081,-0.00485 0.01089,-0.018395 0.0085,-0.033809 -2.71e-4,-3.057e-4 -0.0013,-0.00133 -0.0016,-0.00158 h -5.62e-4 l -5.61e-4,-5.104e-4 h -5.62e-4 -5.61e-4 z m -2.345602,0.00107 c 0.0027,-3.384e-4 0.0052,-2.95e-4 0.0085,0.00107 a 0.19204356,0.19204356 0 0 1 -0.06762,0.033809 c -0.0099,0.00311 -0.02225,0.00459 -0.02905,0 -0.0022,-0.00179 -0.0042,-0.00419 -0.0048,-0.00792 -8.17e-4,-0.00532 4.88e-4,-0.00975 0.0021,-0.012148 l 5.61e-4,-5.104e-4 c 2.28e-4,-2.118e-4 0.0013,-0.00138 0.0016,-0.00158 0.0051,-0.00311 0.01359,-0.00204 0.02113,-0.00316 0.01568,-0.00271 0.04104,-0.00766 0.05969,-0.00792 l -5.61e-4,-5.104e-4 c 0.0031,0 0.0058,-7.146e-4 0.0085,-0.00107 z m 2.336094,0.051243 c -10e-4,1.128e-4 -0.002,2.41e-4 -0.0032,5.105e-4 -0.0057,0.00271 -0.01068,0.00276 -0.01691,0.00845 0,0.020283 0.0041,0.033135 0,0.050714 0.01163,0.022177 0.03631,0.00749 0.04226,-0.00792 0.0065,-0.035248 -0.0062,-0.053462 -0.02218,-0.051772 z m 0.123619,0.09879 c -0.0019,2.22e-4 -0.0047,0.00133 -0.0063,0.00209 -6.13e-4,3.516e-4 -0.0015,6.125e-4 -0.0021,0.00107 0.01353,0.021641 0.03814,0.037122 0.06762,0.042262 0.01082,-0.00812 0.01177,-0.02847 0.01691,-0.042262 h -0.04226 c -0.01197,0 -0.02439,-0.00424 -0.03381,-0.00316 z m -3.169205,0.7300944 h 10e-4 c 0.04353,-0.00168 0.05649,0.058101 0.09193,0.075545 0.0089,0.00485 0.02219,0.00654 0.03381,0.00898 0.0095,0.00271 0.01616,0.00522 0.02535,0.00792 0.01893,0.00676 0.04376,0.0025 0.05917,0.00845 0.02299,0.01028 0.03942,0.05572 0.05917,0.067621 0.0011,0.011362 -0.0035,0.025153 0,0.033809 0.0095,0.012714 0.02685,0.017241 0.04226,0.025357 0.01839,0.010009 0.02495,0.034422 0.04226,0.042261 h 5.62e-4 l 5.61e-4,5.614e-4 c 0.006,0.00163 0.01542,-0.00306 0.0243,-5.614e-4 0.0238,0.0073 0.03069,0.03976 0.05124,0.033809 0.01353,-0.00378 0.01474,-0.0211 0.01691,-0.033809 0.0089,-0.00973 0.02002,-0.025086 0.03381,-0.025357 0.02245,0 0.02569,0.020355 0.03381,0.042261 0.0046,0.012444 0.01339,0.029282 0.01691,0.042262 0.0054,0.022448 0.0046,0.087907 0,0.1014316 -0.0057,0.016231 -0.02874,0.023611 -0.04226,0.041736 -0.0064,0.00812 -0.01177,0.019395 -0.01691,0.025888 -0.0087,0.010821 -0.01886,0.015353 -0.02535,0.025357 -0.0038,0.00541 -0.0049,0.017783 -0.0085,0.025357 -0.01082,0.022989 -0.02584,0.040031 -0.01691,0.067621 0.0038,0.011362 0.01663,0.020559 0.01691,0.033809 0,0.01569 -0.03111,0.025224 -0.03381,0.042261 -0.0019,0.012714 0.01285,0.033947 0.01691,0.050714 0.0027,0.012714 0.02623,0.025423 0.03381,0.033809 0.01271,0.014337 0.02217,0.032594 0.03381,0.050714 0.02299,0.035162 0.03672,0.075803 0.05917,0.1098839 0.01163,0.017854 0.03442,0.032324 0.04226,0.050714 0.0038,0.00888 -0.0022,0.024055 0,0.032753 9.7e-5,2.705e-4 -1.19e-4,7.656e-4 0,0.00107 0.01298,0.029215 0.07195,0.061738 0.101434,0.076074 0.01353,0.00675 0.02982,6.74e-5 0.04226,0.00849 a 0.24857468,0.24857468 0 0 1 0.06763,0.059172 c 0.0087,0.015149 0.01258,0.052016 0.01691,0.075549 0.0054,0.031916 -0.0013,0.059152 0,0.093512 0.0011,0.018655 0.0085,0.032048 0.0085,0.050719 0,0.00644 5.61e-4,0.018864 0,0.025352 -2.7e-4,0.022448 0.0021,0.044635 0,0.067626 a 0.20124,0.20124 0 0 0 0,0.033809 c 0.0013,0.011091 0.0077,0.015343 0.0085,0.025352 5.1e-4,0.010121 -0.0083,0.024392 -0.0085,0.032758 1.3e-5,2.664e-4 -3.4e-5,8.167e-4 0,0.00102 0.0024,0.022713 0.02076,0.038071 0.02535,0.059172 0.0035,0.016236 0.01089,0.05633 0.0085,0.076071 -0.0011,0.010815 -0.0069,0.022453 -0.0085,0.033809 -0.0011,0.0089 0.0013,0.016706 0,0.025352 -0.0016,0.012709 -0.0093,0.021907 -0.0085,0.033809 0.0016,0.024341 0.0221,0.043277 0.02589,0.067616 0.0013,0.0081 -2.69e-4,0.01751 0,0.02535 0,0.0073 0.006,0.01012 0.008,0.01691 A 1.887707,1.887707 0 0 1 7.3276035,9.9588592 1.9109685,1.9109685 0 0 1 7.1506265,9.8067124 l -0.0085,-0.00797 A 1.9555984,1.9555984 0 0 1 6.9815405,9.6213027 c -0.02813,-0.035698 -0.05936,-0.072288 -0.08506,-0.1098839 -0.01515,-0.022453 -0.0282,-0.044359 -0.04226,-0.067616 -0.0087,-0.013791 -0.01697,-0.028195 -0.02535,-0.042261 a 1.7789725,1.7789725 0 0 1 -0.06762,-0.1267895 c -0.01353,-0.027051 -0.02191,-0.056125 -0.03381,-0.084527 a 1.8236023,1.8236023 0 0 1 -0.07607,-0.2028627 c -0.01461,-0.04977 -0.02326,-0.1002143 -0.03381,-0.1521474 -0.0081,-0.03949 -0.01968,-0.078035 -0.02535,-0.1183367 a 1.7751857,1.7751857 0 0 1 -0.0085,-0.067621 1.9225994,1.9225994 0 0 1 0.009,-0.4310834 v -0.00792 c 0.01675,0 0.03936,-0.024525 0.05811,-0.025888 z m 0.731152,0.2018062 c 2.47e-4,-3.88e-5 0.0013,1.78e-5 0.0016,0 h 5.62e-4 5.04e-4 c 2.23e-4,3.93e-5 0.0013,4.598e-4 0.0016,5.614e-4 0.01002,0.00357 0.01189,0.026934 0.0037,0.033284 h -5.61e-4 l -5.62e-4,5.614e-4 h -5.61e-4 l -5.61e-4,5.615e-4 h -5.62e-4 c -0.0026,5.104e-4 -0.0058,-6.636e-4 -0.008,-0.00209 -0.0081,-0.00703 -0.01109,-0.026837 -5.62e-4,-0.031696 0.0011,-5.104e-4 0.0021,-8.677e-4 0.0032,-0.00107 z m -0.80881,3.8554521 v 0.270484 h 2.434354 v -0.270475 z m 2.704839,0 v 0.270484 h 1.0819355 v -0.270475 z" />
  <path
     id="path8-3"
     class="ColorScheme-Text"
     style="fill:currentColor;fill-opacity:1;stroke-width:0.270484"
     d="m 5.2206935,4.6797255 v 7.5735485 h 0.811452 v -0.811452 h 4.8687095 v 0.811452 h 0.811451 V 4.6797255 Z m 1.893387,0.540968 h 2.70484 a 1.3524194,1.3524194 0 0 1 1.3524185,1.352419 v 1.290082 a 0.8114516,0.8114516 0 0 0 -0.267843,0.547835 0.54096775,0.54096775 0 0 0 -0.0027,0.05547 0.54096775,0.54096775 0 0 0 10e-4,0.03117 0.8114516,0.8114516 0 0 0 0.269428,0.572666 V 10.089403 L 10.35984,10.900855 H 6.5731165 L 5.7616645,10.089404 V 9.0698075 a 0.8114516,0.8114516 0 0 0 0.267842,-0.547836 0.8114516,0.8114516 0 0 0 0,-0.0016 0.54096775,0.54096775 0 0 0 0.0027,-0.05387 0.54096775,0.54096775 0 0 0 -0.001,-0.03117 0.8114516,0.8114516 0 0 0 -0.269477,-0.572667 v -1.289566 a 1.3524194,1.3524194 0 0 1 1.352418,-1.352419 z m 1.353476,0.540968 c -0.08628,0 -0.169728,0.0069 -0.253579,0.0169 a 2.2125581,2.2125581 0 0 0 -0.245125,0.04226 c -0.02542,0.006 -0.04985,0.01806 -0.07555,0.02536 -0.02299,0.0062 -0.04544,0.0104 -0.06763,0.01743 -0.02867,0.0089 -0.05827,0.01589 -0.08506,0.02536 -0.02894,0.01028 -0.05586,0.02245 -0.08453,0.03381 -0.05572,0.02245 -0.107314,0.04904 -0.1606,0.07555 -0.0192,0.01001 -0.04076,0.01561 -0.05969,0.02589 -0.06221,0.03246 -0.118824,0.0712 -0.176977,0.109883 -0.02218,0.01488 -0.04598,0.02632 -0.06762,0.04174 -0.0089,0.0065 -0.01643,0.01014 -0.02535,0.0169 -0.02542,0.0192 -0.05173,0.0386 -0.07607,0.0597 -0.02894,0.0238 -0.05667,0.05012 -0.08453,0.07555 -0.0087,0.0081 -0.01671,0.01724 -0.02535,0.02536 l -0.0085,0.0085 c -0.0041,0.0041 -0.0049,0.0124 -0.0085,0.0169 -0.0568,0.05518 -0.119013,0.107923 -0.169053,0.169052 v 5.26e-4 h -5.1e-4 v 5.25e-4 5.26e-4 c -6.5e-5,0.0017 9.7e-4,0.0044 0.001,0.0058 h -4.34e-4 v 5.26e-4 5.25e-4 c -0.04896,0.05951 -0.09277,0.12157 -0.135241,0.186487 -0.0057,0.0087 -0.01122,0.01616 -0.01691,0.02536 -0.0041,0.0065 -0.01311,0.0099 -0.01743,0.0169 -0.01623,0.02651 -0.02739,0.05667 -0.04226,0.08453 -0.0049,0.0089 -0.01204,0.01643 -0.01691,0.02536 -0.02028,0.03949 -0.04024,0.07831 -0.05917,0.118336 l -5.11e-4,5.62e-4 v 5.61e-4 5.62e-4 5.61e-4 c 1.36e-4,0.0015 5.11e-4,0.0034 5.11e-4,0.0047 v 5.62e-4 5.61e-4 5.61e-4 a 2.1709036,2.1709036 0 0 0 -0.08453,0.210788 c -0.0051,0.01461 -0.01204,0.02846 -0.01691,0.04279 l -5.1e-4,5.61e-4 v 5.62e-4 c -1.74e-4,0.0017 4.65e-4,0.0042 5.1e-4,0.0058 v 5.61e-4 5.61e-4 c -0.0054,0.01704 -0.0123,0.0342 -0.01743,0.05124 -0.01974,0.06924 -0.03773,0.138568 -0.05072,0.210787 -0.0092,0.05193 -0.01995,0.107314 -0.02535,0.160599 a 2.1920013,2.1920013 0 0 0 -0.0085,0.22016 c 0,0.109005 0.0097,0.215994 0.02535,0.320671 0.0016,0.01109 -0.0019,0.02299 0,0.03381 0.0119,0.07195 0.03178,0.142343 0.05072,0.211316 0.0071,0.02623 0.01777,0.05038 0.02589,0.07607 0.01081,0.03489 0.02137,0.06709 0.03381,0.100903 a 2.1368225,2.1368225 0 0 0 0.06762,0.169052 c 0.01353,0.02867 0.02713,0.0572 0.04173,0.08506 a 2.1638711,2.1638711 0 0 0 0.135242,0.228221 c 0.0043,0.0064 0.01283,0.01042 0.01743,0.01691 0.05356,0.07573 0.106571,0.151606 0.169052,0.219769 0.01082,0.0119 0.02272,0.02218 0.03381,0.03381 0.01082,0.01136 0.02272,0.02273 0.03381,0.03381 0.05788,0.05788 0.121582,0.109479 0.185957,0.160601 0.08277,0.066 0.170067,0.123961 0.262031,0.176976 0.0033,0.0027 0.0049,0.0065 0.008,0.0085 0.01461,0.0081 0.02845,0.01751 0.04279,0.02535 0.0852,0.0422 0.187039,0.0883 0.253578,0.118865 0.02975,0.01136 0.06241,0.01534 0.09298,0.02535 0.01433,0.0049 0.02793,0.01231 0.04226,0.01691 0.03679,0.01109 0.07203,0.024339 0.109358,0.03381 l 0.03381,0.0085 c 0.07898,0.01894 0.162899,0.03279 0.245126,0.04226 0.08385,0.0097 0.167551,0.01691 0.254106,0.01691 0.09197,0 0.181225,-0.0055 0.270485,-0.01691 0.09872,-0.01299 0.183929,-0.03393 0.270484,-0.05124 A 2.139257,2.139257 0 0 0 10.14854,9.2782285 c 0.0076,-0.0095 0.01805,-0.01562 0.02535,-0.02535 0.0027,-0.0033 0.006,-0.0052 0.0085,-0.008 0.0038,-0.0051 0.0049,-0.0123 0.0085,-0.01743 a 2.1541335,2.1541335 0 0 0 0.363463,-0.760207 c 0.01515,-0.05869 0.03199,-0.116917 0.04226,-0.177505 0.0013,-0.0081 -0.0013,-0.01697 0,-0.02536 0.0016,-0.01082 0.0069,-0.02137 0.0085,-0.03381 0.0016,-0.01163 0.0071,-0.02218 0.0085,-0.03381 h -0.0085 c 0.01163,-0.08899 0.02535,-0.178249 0.02535,-0.270484 0,-0.149037 -0.01359,-0.298614 -0.04226,-0.439536 -0.0024,-0.01163 -0.0057,-0.02218 -0.008,-0.03381 -0.01271,-0.05599 -0.03393,-0.113887 -0.05125,-0.168524 v -5.62e-4 -5.61e-4 c -2.09e-4,-0.0021 2.1e-4,-0.0049 0,-0.0069 v -5.62e-4 a 0.93019402,0.93019402 0 0 0 -0.008,-0.02536 c -0.01082,-0.03246 -0.02244,-0.06979 -0.03434,-0.101431 -0.0033,-0.0087 -0.0047,-0.01777 -0.008,-0.02589 -0.0119,-0.02975 -0.02981,-0.05558 -0.04279,-0.08453 -1.39e-4,-0.0012 6.64e-4,-0.006 5.62e-4,-0.0079 h -5.62e-4 v -5.62e-4 c -0.0067,-0.01461 -0.01832,-0.02793 -0.02535,-0.04226 a 2.1132906,2.1132906 0 0 0 -0.08453,-0.16055 c -0.01568,-0.0265 -0.02549,-0.05803 -0.04226,-0.084 -0.0064,-0.0097 -0.01859,-0.01615 -0.02535,-0.02589 -0.01812,-0.02705 -0.0397,-0.04958 -0.05917,-0.07555 -0.02164,-0.02705 -0.03781,-0.05882 -0.05917,-0.08505 l -5.62e-4,-5.25e-4 v -5.26e-4 -5.26e-4 -5.26e-4 c 8.4e-5,-0.0016 4.33e-4,-0.0035 5.62e-4,-0.0047 v -5.25e-4 -5.26e-4 -5.26e-4 c -0.04655,-0.05695 -0.100497,-0.109087 -0.1526985,-0.160749 -0.02516,-0.02488 -0.04958,-0.05228 -0.07555,-0.07555 -0.0079,-0.007 -0.01804,-0.01067 -0.02588,-0.01743 a 2.1993044,2.1993044 0 0 0 -0.176978,-0.135242 c -0.01487,-0.01001 -0.02711,-0.02327 -0.04226,-0.03328 -0.01894,-0.01244 -0.03996,-0.02191 -0.05917,-0.03381 -0.03624,-0.02272 -0.07201,-0.04706 -0.109884,-0.06762 a 2.189026,2.189026 0 0 0 -0.101439,-0.05124 2.1368225,2.1368225 0 0 0 -0.177504,-0.07555 2.0689311,2.0689311 0 0 0 -0.219769,-0.06762 2.0981435,2.0981435 0 0 0 -0.532516,-0.06763 z m -0.001,0.27154 a 1.8996082,1.8996082 0 0 1 0.380368,0.04226 h 0.008 c 0.04517,0.0095 0.09169,0.02137 0.135242,0.03381 0.02623,0.0073 0.05118,0.01697 0.0766,0.02536 0.04653,0.01542 0.09034,0.03151 0.135242,0.05072 0.05248,0.02164 0.102378,0.04111 0.152148,0.06762 l -0.02536,0.0085 a 0.08628435,0.08628435 0 0 0 -0.03381,0.03381 c -0.0054,0.01298 0.0013,0.03097 0,0.05072 3.25e-4,1.44e-4 0.0012,8.83e-4 0.0016,0.001 0.0092,0.006 0.01574,0.02388 0.03222,0.03275 0.0021,0.0012 0.0046,0.0013 0.0063,10e-4 0.0034,-7.4e-4 0.0066,-0.0027 0.01056,-10e-4 0.01028,0.0057 0.0188,0.02353 0.01691,0.03381 -6.63e-4,0.0032 -0.0027,0.006 -0.0048,0.0074 -0.0076,0.0043 -0.02155,0.0012 -0.02905,0.0095 0.0016,0.0211 -0.0115,0.02847 -0.01691,0.04226 1.01e-4,2.78e-4 4.06e-4,0.0013 5.62e-4,0.0016 l 5.61e-4,5.26e-4 5.62e-4,5.25e-4 c 0.0037,0.0046 0.01107,0.006 0.01426,0.01109 l 5.62e-4,5.26e-4 c 3.24e-4,7.81e-4 3.79e-4,0.0016 5.61e-4,0.0026 -0.0013,0.0084 -0.01224,0.01231 -0.01638,0.01796 -1.53e-4,2.56e-4 -9.18e-4,0.0013 -10e-4,0.0016 -1.92e-4,5.61e-4 5.1e-5,0.002 0,0.0026 3.7e-5,9.75e-4 9.7e-5,0.002 5.61e-4,0.0032 0.01948,0.01515 0.04051,-0.0055 0.05917,-0.0079 0.0403,-0.0054 0.07655,0.01075 0.101435,-0.0084 -0.0033,-0.0192 0.02698,-0.02495 0.02535,-0.04226 -2.02e-4,-0.0016 -0.0013,-0.0039 -0.0021,-0.0053 -0.0062,-0.0088 -0.02371,-0.01254 -0.0317,-0.02008 -0.0054,-0.0049 -0.01068,-0.01589 -0.01691,-0.02536 -0.0071,-0.01082 -0.01725,-0.02353 -0.02535,-0.03381 -0.01082,-0.01407 -0.03381,-0.03172 -0.03381,-0.04226 0,-0.01217 0.01393,-0.01704 0.01691,-0.03381 -0.0033,-0.01542 -0.03165,-3.92e-4 -0.03381,-0.01743 a 0.04381839,0.04381839 0 0 1 0.008,-0.0169 c 0.04058,0.02218 0.081,0.04848 0.118864,0.07607 l 0.02535,0.0169 c 0.02921,0.02191 0.05638,0.04598 0.08506,0.06762 -0.01812,0.0032 -0.02739,0.02441 -0.04226,0.04226 a 0.12550452,0.12550452 0 0 1 -0.04226,0.03381 l -5.61e-4,5.26e-4 c -0.0065,0.0022 -0.01608,-0.003 -0.02272,-0.0016 -2.41e-4,7.1e-5 -0.0013,4.35e-4 -0.0016,5.25e-4 l -5.61e-4,5.26e-4 c -0.01002,0.0068 -0.01373,0.02597 -0.02535,0.03381 -0.0081,0.0052 -0.03291,0.02418 -0.04226,0.02536 -0.0093,0 -0.02421,-0.0086 -0.03222,-0.0084 -2.61e-4,2.7e-5 -0.0013,-5.1e-5 -0.0016,0 -6.64e-4,2.2e-4 -0.002,0.0013 -0.0027,0.0016 -2.49e-4,1.83e-4 -0.0013,8.52e-4 -0.0016,0.0011 -1.98e-4,2.24e-4 -8.67e-4,0.0013 -0.001,0.0016 -0.0032,0.0052 -0.0033,0.01407 -0.008,0.01902 -2.61e-4,2.3e-4 -0.0013,0.0014 -0.0016,0.0016 -6.64e-4,3.82e-4 -0.0013,7.71e-4 -0.0021,10e-4 -0.0238,0.0081 -0.06769,-0.01907 -0.07607,0.0169 0.01027,0.02056 0.04131,0.01346 0.05917,0.02536 a 0.12847985,0.12847985 0 0 1 0.03381,0.05072 0.17419161,0.17419161 0 0 1 0,0.05917 c -0.01109,0.02867 -0.04335,0.02617 -0.07607,0.02536 -0.0092,-2.7e-4 -0.01697,0 -0.02535,0 -0.05599,-0.0038 -0.110088,-0.0226 -0.135242,0.01744 0.0019,0.03056 0.0067,0.04931 0,0.07555 -0.0049,0.01948 -0.02617,0.03368 -0.02535,0.05071 5.62e-4,0.0087 0.01474,0.02218 0.01691,0.03381 0.0012,0.0058 -0.0026,0.01864 -5.62e-4,0.02483 l 5.62e-4,5.61e-4 c 0.0092,0.01785 0.03422,-0.0027 0.05072,0 0.01596,0.0027 0.03408,0.03312 0.03381,0.05124 a 0.09358742,0.09358742 0 0 1 -0.01691,0.04226 c -0.01569,0.02434 -0.04517,0.02083 -0.06762,0.03381 -0.01894,0.01055 -0.02272,0.03205 -0.03381,0.05071 -0.0119,0.02002 -0.02177,0.02968 -0.01691,0.05917 a 0.13118468,0.13118468 0 0 1 -0.06762,0.06762 c -0.01002,0.0046 -0.02488,0.01041 -0.03381,0.0169 a 0.17040484,0.17040484 0 0 0 -0.02535,0.02536 c -0.01271,0.01407 -0.02705,0.02299 -0.03381,0.03381 -0.0054,0.0081 -0.0028,0.02272 -0.0085,0.03381 -0.0081,0.01515 -0.0238,0.02712 -0.03381,0.04226 -0.0046,0.007 -0.01202,0.01589 -0.01743,0.02536 -0.01136,0.02083 -0.02726,0.04078 -0.02535,0.05917 0.0019,0.01785 0.024,0.01839 0.02535,0.03381 0.0011,0.0087 -0.0085,0.01616 -0.008,0.02536 0,0.0138 0.0072,0.02326 0.008,0.03381 0.0027,0.02705 -0.01177,0.03232 -0.01691,0.05071 -0.0027,0.0087 0.0021,0.01832 0,0.02536 -0.0043,0.01353 -0.02509,0.02658 -0.02535,0.04226 -2.7e-4,0.01136 0.01583,0.02631 0.01691,0.04226 5.62e-4,0.01082 -0.01035,0.01535 -0.0085,0.02536 0.0038,0.01974 0.04428,0.04375 0.05969,0.05917 0.02028,0.02029 0.04179,0.03806 0.05072,0.0597 0.0073,0.01812 0.01075,0.04537 0.02535,0.05917 0.01055,0.01001 0.02874,0.01454 0.04226,0.02536 0.01271,0.0097 0.02901,0.01481 0.04226,0.02536 0.02164,0.01731 0.04936,0.05315 0.08453,0.05071 0.01839,-0.0027 0.03834,-0.01339 0.05917,-0.0169 0.02137,-0.0038 0.04598,-0.01089 0.06762,-0.0085 0.01624,0.0027 0.03341,0.01772 0.05072,0.0169 0.01812,0 0.03861,-0.01643 0.05917,-0.02536 0.03543,-0.01542 0.09176,-0.04138 0.143695,-0.03381 0.03949,0.0054 0.04058,0.05903 0.06762,0.07607 0.03192,0.0027 0.05938,-0.01467 0.08453,-0.0085 0.01894,0.0046 0.04064,0.0361 0.04226,0.05124 0.0019,0.01569 -0.01448,0.032 -0.01691,0.04174 -0.0049,0.0211 -0.0049,0.04592 -0.0085,0.05917 -0.0033,0.01028 -0.0087,0.02326 -0.0085,0.03381 a 0.14606129,0.14606129 0 0 0 0.02535,0.05071 c 0.0119,0.01515 0.02793,0.02604 0.04226,0.04226 a 0.48687098,0.48687098 0 0 1 0.05969,0.101432 c 0.0043,0.01001 -0.0046,0.02082 0,0.03381 -0.0081,0.06059 -0.02813,0.101973 -0.06762,0.169053 -0.01893,0.02164 -0.04334,0.04057 -0.04279,0.06762 -0.0013,0.06492 0.03678,0.1063 0.03381,0.169052 -0.0064,0.08439 0.0065,0.09007 0,0.135242 0.0284,0.01433 0.0084,0.06296 0,0.09298 -0.01218,0.0357 -0.02705,0.04382 -0.03381,0.06762 0.01921,0.0081 0.04625,0.0051 0.06762,0 0,0 0.02589,0.108262 0.02535,0.109885 a 1.8941986,1.8941986 0 0 1 -0.794141,0.464374 c -0.148767,0.03598 -0.193045,0.03584 -0.26256,0.05072 a 1.7264985,1.7264985 0 0 1 -0.278408,0.02589 c -0.06573,0 -0.131104,-0.0028 -0.194939,-0.0085 -0.04922,-0.0049 -0.09556,-0.01671 -0.143166,-0.02535 a 1.9393694,1.9393694 0 0 1 -0.04226,-0.0085 c -0.04409,-0.01487 -0.09467,-0.0238 -0.135242,-0.03381 a 1.9115096,1.9115096 0 0 1 -0.135242,-0.04226 c 0.0019,-0.0017 0.0043,-0.0028 0.0058,-0.0037 l 5.61e-4,-5.61e-4 v -5.61e-4 l 5.62e-4,-5.62e-4 5.61e-4,-5.61e-4 c 1.2e-4,-2.21e-4 4.33e-4,-0.0013 5.62e-4,-0.0016 8.5e-5,-2.98e-4 4.6e-4,-7.15e-4 5.61e-4,-10e-4 0.0027,-0.01082 5.62e-4,-0.01677 0,-0.03381 0.0041,-0.01758 0.02157,-0.0157 0.02535,-0.03381 -0.0076,-0.01298 -0.02245,-0.01012 -0.03381,-0.01691 a 0.03597435,0.03597435 0 0 1 -0.01743,-0.03381 c 0.01894,-0.0079 0.0541,0.01779 0.06762,-0.0085 0.0067,-0.01244 -0.0092,-0.03773 0,-0.05072 1.95e-4,-2.55e-4 0.0013,-0.0013 0.0016,-0.0016 0.0095,-0.0075 0.04543,-0.01382 0.05811,-0.01585 0.01894,-0.0033 0.03989,-0.0026 0.05072,-0.008 a 0.0603179,0.0603179 0 0 0 0.02535,-0.05125 c -0.0011,-0.01055 -0.0088,-0.01589 -0.01691,-0.02535 -0.0067,-0.0079 -0.0039,-0.01779 -0.0085,-0.02535 -0.0087,-0.01271 -0.0213,-0.01569 -0.02535,-0.03381 0.02597,-0.0051 0.06383,0.02745 0.101435,0.01691 0.01785,-0.0051 0.04233,-0.05085 0.05072,-0.06763 v -5.62e-4 l 5.61e-4,-5.61e-4 v -5.62e-4 c 8.17e-4,-0.0046 -0.0029,-0.0099 -5.61e-4,-0.01533 0.0029,-0.0061 0.0133,-0.01202 0.01638,-0.01585 l 5.61e-4,-5.62e-4 v -5.61e-4 c 0.0027,-0.0097 -0.0021,-0.01886 0,-0.02535 0.0065,-0.01839 0.02299,-0.02028 0.03381,-0.03381 0.0081,-0.01028 0.01751,-0.02354 0.02535,-0.03381 0.0084,-0.01082 0.01176,-0.02408 0.01743,-0.03381 0.0054,-0.03272 -0.01657,-0.05558 -0.0085,-0.08452 0.0084,-0.03246 0.05288,-0.04482 0.08453,-0.05969 0.01082,-0.0049 0.02488,-0.01366 0.03381,-0.01691 0.02164,-0.0076 0.0476,-0.0096 0.06762,-0.01691 0.03381,-0.01244 0.04239,-0.04524 0.05917,-0.07607 a 0.16526565,0.16526565 0 0 0 0.01691,-0.04226 c 0.0013,-0.0095 -0.0019,-0.01427 0,-0.02535 0.0016,-0.01082 0.0055,-0.02191 0.0085,-0.03381 a 0.29753226,0.29753226 0 0 0 0.0085,-0.05917 c 0,-0.01433 -0.0079,-0.0211 -0.0085,-0.03381 -0.0024,-0.04679 0.0165,-0.05883 0.03381,-0.08453 0.0087,-0.01271 0.01068,-0.02434 0.01691,-0.03381 0.02921,-0.04328 0.08013,-0.06106 0.07607,-0.126789 -0.0011,-0.02164 -0.0094,-0.06931 -0.02535,-0.07607 -0.0092,-0.0041 -0.02902,-0.0025 -0.04226,-0.0079 -0.04273,-0.01623 -0.07398,-0.0731 -0.118336,-0.07607 -0.0095,0 -0.01481,0.0079 -0.02535,0.0079 -0.01758,0 -0.03969,-0.0142 -0.05917,-0.0169 -0.01205,-0.0026 -0.0343,0.0028 -0.04226,0 -7.15e-4,-3.24e-4 -0.002,-0.0011 -0.0027,-0.0016 -0.0072,-0.0067 -0.007,-0.02339 -0.01268,-0.03064 -4.87e-4,-5.11e-4 -10e-4,-0.0012 -0.0016,-0.0016 -0.0073,-0.0048 -0.02272,-0.0041 -0.03381,-0.0085 -0.01785,-0.0068 -0.03069,-0.01501 -0.05125,-0.0169 -0.0062,-2.71e-4 -0.01805,0 -0.02535,0 -0.01136,-0.0027 -0.02326,-0.01068 -0.03381,-0.0169 a 0.05626065,0.05626065 0 0 1 -0.02535,-0.02536 c 0.0119,-0.03895 -0.02596,-0.04517 -0.03381,-0.06762 -0.0038,-0.01055 0.0035,-0.02434 0,-0.03381 -0.0046,-0.01353 -0.01894,-0.02272 -0.03381,-0.03381 -0.02623,-0.02002 -0.04693,-0.03766 -0.08452,-0.04226 -0.01623,-0.0027 -0.03915,0 -0.05917,0 a 0.09926758,0.09926758 0 0 1 -0.05917,-0.03381 c -0.01515,-0.01758 -0.02056,-0.03388 -0.03381,-0.04226 -0.01271,-0.0081 -0.03361,-0.008 -0.04226,-0.0169 -0.0038,-0.0038 -0.0049,-0.008 -0.0085,-0.0169 -0.0065,-0.01299 -0.01657,-0.02658 -0.0085,-0.04226 -0.0017,-9.19e-4 -0.0035,-0.0016 -0.0048,-0.0016 h -5.62e-4 l -5.61e-4,5.61e-4 h -5.62e-4 -5.61e-4 v 5.62e-4 c -2.46e-4,1.43e-4 -0.0013,8.68e-4 -0.0016,0.0011 l -5.62e-4,5.61e-4 c -0.0023,0.0029 -0.0043,0.0085 -0.0068,0.01215 -2.32e-4,2.71e-4 -0.0013,0.0013 -0.0016,0.0016 -5.61e-4,4.6e-4 -0.002,0.0013 -0.0027,0.0016 -0.0014,4.87e-4 -0.0033,8.17e-4 -0.0053,5.62e-4 -0.01407,-0.02002 -0.02698,-0.03104 -0.05917,-0.02536 -0.01461,0.0027 -0.02522,0.01609 -0.04226,0.0169 -0.01407,0 -0.02387,-0.0142 -0.04226,-0.0169 -0.01407,-0.0027 -0.03253,0.0098 -0.04226,0.0084 -0.01542,-0.0027 -0.01974,-0.01589 -0.03381,-0.02536 -0.009,-0.0059 -0.02433,-0.02183 -0.0317,-0.02536 -2.44e-4,-9.6e-5 -0.0013,-4.6e-4 -0.0016,-5.62e-4 h -5.62e-4 c -0.01812,0 -0.03401,0.03914 -0.05917,0.02589 -0.0017,-0.0021 -0.0026,-0.0051 -0.0027,-0.0069 v -3.39e-4 -5.62e-4 c 0.0013,-0.007 0.01329,-0.01195 0.01479,-0.01849 v -5.61e-4 -5.62e-4 -5.61e-4 -5.61e-4 l -5.61e-4,-5.62e-4 c -4.59e-4,-0.0015 -0.0013,-0.0029 -0.0032,-0.0047 -0.001,-10e-4 -0.0028,-0.0026 -0.0037,-0.0032 -6.12e-4,-3.25e-4 -0.002,-8.68e-4 -0.0027,-0.0011 -2.71e-4,-5.4e-5 -0.0013,2e-5 -0.0016,0 -2.66e-4,10e-6 -0.0013,-3.9e-5 -0.0016,0 -2.56e-4,6.6e-5 -0.0013,4.32e-4 -0.0016,5.62e-4 -0.0047,0.0021 -0.0088,0.0083 -0.01426,0.01162 a 0.18014226,0.18014226 0 0 1 -0.03381,0.01743 c -0.02488,0.0092 -0.03969,0.0066 -0.05917,0.01691 -0.01785,0.0092 -0.02353,0.02387 -0.03381,0.04226 -0.0081,0.01515 -0.02137,0.04145 -0.03381,0.04226 -0.01515,0 -0.02874,-0.01941 -0.04226,-0.02536 -0.04138,-0.01785 -0.06707,0.0077 -0.101435,0.0079 -0.03192,0 -0.0777,-0.04579 -0.07607,-0.07554 0.0011,-0.01812 0.015,-0.0449 0.01743,-0.06762 0.0016,-0.01785 0.01663,-0.03422 0.01691,-0.05071 0,-0.02191 -0.03638,-0.03983 -0.05072,-0.04226 -0.03381,-0.0062 -0.08018,0.01623 -0.118865,0 -0.0073,-0.01217 0.01311,-0.02191 0.01743,-0.03381 4.6e-4,-0.0013 5.11e-4,-0.0032 5.62e-4,-0.0042 -2.97e-4,-0.0039 -0.0026,-0.0068 -5.62e-4,-0.01268 0.0043,-0.01136 0.01995,-0.02164 0.02535,-0.03381 0.0041,-0.0092 0.0041,-0.02218 0.008,-0.03381 0.0049,-0.01353 0.01635,-0.02462 0.01743,-0.03381 0.0013,-0.01217 -0.0072,-0.02569 -0.01691,-0.03381 -0.03003,0.0027 -0.05059,6.8e-5 -0.06762,0.0084 -0.03895,0.01785 -0.02866,0.07181 -0.06762,0.08453 -0.01353,0.0043 -0.03637,0.0052 -0.05125,0.0079 -0.01271,0.0027 -0.02848,0.0092 -0.04173,0.009 a 0.09575128,0.09575128 0 0 1 -0.05124,-0.02588 0.04706419,0.04706419 0 0 1 -0.0085,-0.01691 c 5.62e-4,-0.0027 -5.61e-4,-0.0057 0,-0.0084 0.01244,-0.06032 0.02522,-0.120162 0.04226,-0.177505 l 5.1e-4,-5.61e-4 v -5.62e-4 c 1.74e-4,-0.0017 -4.65e-4,-0.0037 -5.1e-4,-0.0053 v -5.61e-4 -5.61e-4 -5.62e-4 c 0.01136,-0.03787 0.02793,-0.07283 0.04226,-0.109884 0.0035,-0.0027 0.0055,-0.0066 0.0085,-0.0084 0.0211,-0.01461 0.04247,-0.03246 0.06762,-0.03381 0.01568,0 0.04429,0.0058 0.05917,0.0084 0.01353,0.0027 0.02219,0.01582 0.03381,0.01691 0.03327,0.0027 0.0403,-0.0274 0.06762,-0.04174 0.02813,0.0041 0.04219,-0.0027 0.06762,0 0.01731,0.0027 0.03719,0.02427 0.05072,0.02536 0.0014,0 0.0036,-0.0011 0.0048,-0.0016 0.0057,-0.0031 0.01012,-0.01147 0.01532,-0.01479 2.7e-4,-1.41e-4 0.0013,-4.05e-4 0.0016,-5.61e-4 0.0011,-3.25e-4 0.0029,-7.66e-4 0.0042,-5.62e-4 0.01082,0.0027 0.03218,0.02928 0.03381,0.04226 0.0019,0.01623 -0.01306,0.03313 -0.0085,0.05071 0.01704,0.01731 0.0512,0.01508 0.07555,0.02536 0.01624,-0.01299 0.0027,-0.03205 0,-0.05071 -2.7e-4,-0.0084 0.0013,-0.01778 0,-0.02536 -0.0013,-0.01299 -0.008,-0.02272 -0.008,-0.03381 -2.69e-4,-0.05139 0.04147,-0.08114 0.07555,-0.101431 0.01515,-0.0089 0.02928,-0.01886 0.04226,-0.02536 0.01812,-0.0092 0.02711,-0.01697 0.04226,-0.02536 0.02732,-0.01542 0.0547,-0.02495 0.07607,-0.04226 0.01002,-0.02326 -0.0011,-0.05308 0,-0.07607 0.01002,-0.006 0.01481,0 0.02536,0 0.0165,-0.0035 0.02434,-0.02461 0.03381,-0.03381 0.0054,-0.0054 0.01886,-0.01149 0.02535,-0.0169 0.0165,-0.01299 0.01948,-0.02813 0.03381,-0.03381 0.0054,-0.0027 0.01725,-0.0046 0.02535,-0.0084 0.01081,-0.003 0.02495,-0.01068 0.04226,-0.0169 0.01065,-0.0036 0.03522,-0.0043 0.04173,-0.0079 v -5.11e-4 h 5.61e-4 l 5.62e-4,-5.1e-4 v -5.1e-4 c 1.23e-4,-2.25e-4 9.7e-4,-0.0013 0.001,-0.0016 0.0022,-0.0076 -0.003,-0.02407 -0.0016,-0.03117 0.0087,-0.04057 0.07364,-0.04537 0.109883,-0.05917 0.02542,-0.0097 0.04821,-0.03077 0.07607,-0.02536 -0.0034,0.01217 -0.01511,0.01373 -0.02166,0.01849 -0.0034,0.0029 -0.0057,0.0072 -0.0042,0.01532 8.67e-4,0.0046 0.0032,0.0084 0.0053,0.01056 2.44e-4,2.12e-4 0.0013,8.67e-4 0.0016,0.0011 2.68e-4,1.62e-4 0.0013,9.18e-4 0.0016,0.0011 0.01446,0.0058 0.04195,-0.01754 0.05125,-0.02113 0.02164,-0.0095 0.06404,-0.01481 0.09298,-0.02536 0.02542,-0.0092 0.06634,-0.0215 0.04226,-0.05071 -0.02002,0 -0.02495,0.01778 -0.04226,0.02536 -0.0119,0.0027 -0.01508,-0.0076 -0.02535,-0.0084 -0.0097,0 -0.01588,0.01035 -0.02588,0.0084 l -5.61e-4,-5.26e-4 c -0.0099,-0.0036 -0.02326,-0.02202 -0.02483,-0.03328 -0.0041,-0.02975 0.02982,-0.03672 0.04226,-0.05917 -0.0081,-0.02705 -0.0449,-0.0069 -0.06762,-0.01743 a 0.04003161,0.04003161 0 0 1 0.03381,-0.03328 c 0.01542,-0.0027 0.05023,0.0025 0.05969,0.0079 l 5.62e-4,5.26e-4 v 5.25e-4 l 5.61e-4,5.26e-4 5.62e-4,5.26e-4 c 0.0027,0.0059 -7.66e-4,0.01715 0.0063,0.02377 0.0092,0.0081 0.02191,0.0027 0.03381,0 0.0035,-0.0167 -0.01799,-0.0143 -0.0243,-0.02008 v -5.26e-4 l -5.62e-4,-5.26e-4 -5.61e-4,-5.25e-4 v -5.26e-4 -5.26e-4 -5.25e-4 -5.26e-4 -5.26e-4 c 3.3e-5,-3.89e-4 -1.01e-4,-6.23e-4 0,-10e-4 0.02434,-0.01623 0.07167,-0.0044 0.101434,-0.0084 0.01704,-0.0027 0.0353,-0.0167 0.05072,-0.02536 0.01461,-0.0081 0.02711,-0.02198 0.04226,-0.0084 0.0012,0.0041 5.1e-4,0.0079 -5.62e-4,0.01057 -0.003,0.0062 -0.01061,0.0096 -0.01638,0.01479 a 0.59019583,0.59019583 0 0 0 -0.07555,0.08453 c 0.01298,0.01298 0.03619,0.006 0.05864,0.0084 0.0087,0 0.01617,0.0063 0.02535,0.0079 0.01082,0.0027 0.02542,-0.0032 0.03381,0 0.01515,0.0038 0.01894,0.02589 0.03381,0.02589 0.02462,0 0.02252,-0.0342 0.0085,-0.05124 0.0043,-0.01704 0.0144,-0.02164 0.0085,-0.03381 -0.01082,-0.02218 -0.05674,0.0038 -0.05917,-0.02536 -0.0013,-0.01812 0.01886,-0.02029 0.02535,-0.03381 -0.0027,-0.03462 0.0286,-0.03624 0.02535,-0.06762 -0.0016,-0.01271 -0.01616,-0.01266 -0.02535,-0.02483 -0.0043,-0.0058 -0.0032,-0.01975 -0.0074,-0.02536 l -5.61e-4,-5.26e-4 c -0.01894,-0.01623 -0.05699,-0.01144 -0.05969,-0.04174 -0.0011,-0.01785 0.0027,-0.0315 0,-0.05124 -0.0024,-0.01784 -0.01812,-0.07107 -0.03381,-0.07607 -0.02028,-0.0043 -0.03482,0.0309 -0.05917,0.04226 a 0.10521823,0.10521823 0 0 1 -0.05072,0.0084 c -0.0087,-0.0027 -0.024,-0.0086 -0.02535,-0.02536 -0.0016,-0.01893 0.01339,-0.02225 0.01691,-0.04226 -3.52e-4,-0.0015 -0.0015,-0.0032 -0.0021,-0.0042 -1.59e-4,-2.4e-4 -8.68e-4,-0.0014 -10e-4,-0.0016 l -5.61e-4,-5.25e-4 c -0.0047,-0.0044 -0.01274,-0.0039 -0.02166,-0.01057 -0.01326,-0.01001 -0.02441,-0.03138 -0.04226,-0.03381 -0.0089,0 -0.02516,0.0079 -0.03381,0.0084 -0.01624,0 -0.02874,-0.0041 -0.04226,-0.0084 0.0057,-0.0027 0.01095,-0.0066 0.01691,-0.0084 0.033,-0.01136 0.06762,-0.01589 0.101435,-0.02536 0.0059,-0.0027 0.01096,-0.0068 0.01691,-0.0084 0.0084,0.0089 0.01561,0.02786 0.02589,0.03381 l 5.62e-4,5.25e-4 h 5.61e-4 c 0.0067,0.0024 0.01644,-0.0031 0.0243,-5.25e-4 0.02651,0.0081 0.04713,0.02286 0.07607,0.0169 0.0072,-0.01264 -0.0069,-0.018 -0.01057,-0.02483 -2.46e-4,-6.13e-4 -4.6e-4,-0.002 -5.61e-4,-0.0026 v -5.26e-4 -5.26e-4 -5.26e-4 c 3.24e-4,-0.0014 0.0011,-0.003 0.0027,-0.0048 0.0192,0.0027 0.03557,0.01121 0.05072,0.01743 0.02082,-0.01515 0.03463,-0.01792 0.03381,-0.04226 0,-0.0012 -2.53e-4,-0.0032 -5.61e-4,-0.0042 -0.0034,-0.0093 -0.01726,-0.01379 -0.02483,-0.02113 0.01704,-0.003 0.03341,-0.006 0.05072,-0.0084 0.001,0.0034 0.0044,0.0066 0.0069,0.0079 h 5.61e-4 5.62e-4 l 5.61e-4,5.26e-4 c 0.01028,0.0027 0.04449,-0.01419 0.05072,-0.01743 h 5.62e-4 v -2.69e-4 -5.25e-4 c -1.53e-4,-0.0014 -0.001,-0.0041 -0.001,-0.0058 v -5.26e-4 l 5.61e-4,-5.26e-4 v -5.26e-4 c 0.06843,-0.0073 0.140991,-0.0079 0.211316,-0.0079 z m -0.675683,0.127318 h 5.62e-4 c -0.0062,0.01163 -0.01265,0.0213 -0.02535,0.02536 0.0033,0.01758 -0.02266,0.02847 -0.02535,0.04226 -0.0016,0.0095 -5.61e-4,0.02543 0,0.03381 0.0054,0.08628 -0.06748,0.128424 -0.152147,0.126261 -0.01623,0.01569 -0.0083,0.04598 -0.01743,0.06762 -0.0076,0.01812 -0.03232,0.03543 -0.05072,0.03381 -0.01353,0 -0.03381,-0.02137 -0.03381,-0.03381 0,-0.01542 0.02198,-0.02441 0.0085,-0.04226 0.0019,-0.0119 0.0286,-0.0228 0.02535,-0.04173 -0.0033,-0.02002 -0.02584,-0.0055 -0.05072,-0.0084 a 0.24965661,0.24965661 0 0 1 -0.05072,-0.01743 c 0.02732,-0.01812 0.05532,-0.03395 0.08452,-0.05071 0.02542,-0.01515 0.05011,-0.02847 0.07607,-0.04226 0.06816,-0.03408 0.14126,-0.0654 0.211316,-0.09245 z m 1.457549,0.202334 c -0.0012,1.1e-5 -0.003,4.25e-4 -0.0042,5.26e-4 -0.007,1.85e-4 -0.01082,0.0045 -0.01691,0.0079 -0.01379,0.0084 -0.01454,0.02157 -0.02536,0.02536 -0.01461,0.0057 -0.03164,0.0026 -0.03381,0.01691 -0.0016,0.01109 0.0087,0.01534 0.008,0.02589 -0.0054,0.01352 -0.01367,0.01785 -0.01638,0.03381 0.01839,0.02975 0.06181,-0.003 0.08453,-0.0084 0.01028,-0.0032 0.01968,2.03e-4 0.02535,-0.0084 0.0062,-0.0095 0.0034,-0.02847 0.008,-0.04226 0.0037,-0.01041 0.01202,-0.01244 0.01584,-0.0169 1.58e-4,-2.16e-4 9.19e-4,-0.0014 0.001,-0.0016 1.21e-4,-2.48e-4 4.32e-4,-0.0013 5.62e-4,-0.0016 4.05e-4,-0.0015 2.54e-4,-0.0031 0,-0.0053 -0.0015,-0.01268 -0.02523,-0.02608 -0.04648,-0.02589 z m -1.993762,0.210259 c 0.0042,-1.73e-4 0.008,1.1e-4 0.01162,0.001 0.01623,0.0046 0.05341,0.05247 0.01743,0.06762 a 0.25182049,0.25182049 0 0 1 -0.05969,0.0084 c -0.01218,-0.0027 -0.0211,-0.02319 -0.03381,-0.02536 -0.02488,-0.0043 -0.05851,0.02705 -0.07555,0 9.7e-4,-0.0035 0.0031,-0.0066 0.0053,-0.0084 0.0081,-0.0058 0.02225,-0.0044 0.03646,-0.0084 0.02959,-0.008 0.06927,-0.03365 0.09827,-0.03487 z m 0.0766,0.08558 c 8.68e-4,-3.8e-5 0.0017,-5e-5 0.0027,0 2.53e-4,0 0.0013,4.98e-4 0.0016,5.26e-4 2.5e-4,5.8e-5 0.0013,4.44e-4 0.0016,5.26e-4 0.0068,0.0031 0.0132,0.01543 0.02218,0.01638 0.0088,0 0.0183,-0.0085 0.0243,-0.009 l 5.62e-4,5.25e-4 h 4.85e-4 c 0.01515,0.0041 0.02279,0.03117 0.0085,0.04226 -0.0119,0 -0.01616,-0.01008 -0.02536,-0.0084 -0.02282,0.0041 -0.03216,0.04655 -0.04807,0.05071 -2.69e-4,4.8e-5 -0.0013,-2.5e-5 -0.0016,0 -2.71e-4,3e-6 -7.65e-4,2.1e-5 -10e-4,0 -0.01731,-0.0027 -0.02604,-0.03801 -0.0085,-0.05071 5.62e-4,-0.01082 -0.009,-0.01454 -0.0085,-0.02536 0.0051,-0.0063 0.01801,-0.01686 0.03117,-0.01743 z m -0.09456,0.0084 a 0.11928339,0.11928339 0 0 1 0.01321,0 c 0.0046,4.36e-4 0.0058,0 0.0074,0 -0.0021,0.01947 -0.0099,0.02462 -0.02483,0.03381 a 0.10224291,0.10224291 0 0 0 -0.05124,0.06762 c -0.0027,0.0097 -0.02957,0.03624 -0.04173,0.03381 -0.0022,-4.65e-4 -0.0049,-0.0021 -0.0063,-0.0032 -2.62e-4,-2.19e-4 -0.0013,-8.16e-4 -0.0016,-0.0011 -4.05e-4,-5.1e-4 -0.0012,-0.002 -0.0016,-0.0027 -0.007,-0.0162 0.02081,-0.05403 0.02642,-0.06075 0.0073,-0.0087 0.01671,-0.01508 0.02535,-0.02536 0.0076,-0.0094 0.0096,-0.02677 0.01638,-0.03328 l 5.61e-4,-5.26e-4 a 0.11928339,0.11928339 0 0 1 0.03804,-0.0084 z m 2.579636,0.0074 h 5.61e-4 5.61e-4 c 2.12e-4,-2.7e-5 0.0013,3e-6 0.0016,0 l -5.62e-4,10e-4 c 0.01299,0.0038 0.01614,0.0186 0.02589,0.02536 0.0073,0.0049 0.01725,0.0036 0.02535,0.0084 0.0095,0.0062 0.01454,0.01589 0.02535,0.02536 0.01515,0.01271 0.03806,0.0238 0.05969,0.03381 0.0041,0.0027 0.01123,0.0066 0.01638,0.0084 0.01487,0.01948 0.02819,0.03888 0.04226,0.05917 0.0016,0.01082 0.0033,0.02678 0.0085,0.03381 0.01407,0.01921 0.0353,0.03537 0.05072,0.05917 0,0.02218 0.0097,0.03604 0.02535,0.04226 0.01974,0.03354 0.04076,0.06708 0.05969,0.101432 0.0076,0.01569 0.0093,0.03476 0.01691,0.05071 -0.0051,0 -0.01175,0.0019 -0.01691,0 -0.01785,-0.03137 -0.11102,-0.03778 -0.118865,0.0079 -0.0035,0.02055 0.01366,0.04773 -0.01691,0.05124 -0.01894,0.0027 -0.041379,-0.01968 -0.067619,-0.02536 -0.01082,-0.0027 -0.02542,0.0038 -0.03381,0 -0.01974,-0.0068 -0.01677,-0.03036 -0.03381,-0.04226 a 0.14795468,0.14795468 0 0 0 -0.05072,-0.0169 h -0.02536 c -0.01217,-0.0027 -0.03199,-0.0028 -0.04226,-0.0084 -0.0094,-0.0058 -0.03032,-0.01685 -0.03381,-0.02536 -0.0038,-0.01353 0.02428,-0.0309 0.02535,-0.04226 5.61e-4,-0.0081 -0.006,-0.01211 -0.008,-0.02536 -0.0016,-0.0078 0.0013,-0.01995 0,-0.02536 -0.0027,-0.0092 -0.01973,-0.01716 -0.03434,-0.01744 -0.01299,0 -0.02272,0.0082 -0.03381,0.0084 -0.01596,2.7e-4 -0.04788,-0.0098 -0.06762,-0.0079 -0.01163,0 -0.02219,0.0071 -0.03329,0.0079 -0.03138,0.0027 -0.05173,-0.0027 -0.07607,0 a 0.20556774,0.20556774 0 0 0 -0.06762,0.01743 c -0.0084,0.0038 -0.01454,0.01149 -0.02535,0.0169 a 0.16742952,0.16742952 0 0 1 -0.01743,0.0084 c -0.01027,0.0046 -0.02434,0.0142 -0.03381,0.01691 -0.01407,0.0035 -0.03321,0 -0.05917,0 -0.01813,0 -0.05044,-0.0037 -0.05072,-0.02536 -2.7e-4,-0.03327 0.06133,-0.0194 0.09298,-0.02536 0.0119,-0.0027 0.01974,-0.01697 0.03381,-0.02536 0.0067,-0.0041 0.01042,-0.0044 0.01691,-0.0084 0.01048,-0.0076 0.03107,-0.0249 0.03381,-0.03381 5.1e-5,-2.54e-4 5.11e-4,-0.0013 5.62e-4,-0.0016 1.06e-4,-0.0069 -0.0077,-0.01636 -0.009,-0.02219 v -5.62e-4 -5.61e-4 -5.62e-4 c 4.3e-5,-2.36e-4 4.6e-4,-0.0013 5.62e-4,-0.0016 0.0027,-0.0072 0.01598,-0.01517 0.02535,-0.0243 0.01515,-0.01488 0.02308,-0.032 0.04173,-0.04174 0.01271,-0.0068 0.03658,-0.0069 0.04226,-0.01744 0.0013,-0.01163 -2.71e-4,-0.01481 0,-0.02536 0.0079,-0.0073 0.01067,-0.01555 0.01743,-0.0169 0.01948,-0.0043 0.03645,0.0095 0.05917,0.0084 a 0.07844032,0.07844032 0 0 0 0.03329,-0.0084 c 0.0089,-0.0062 0.01671,-0.01204 0.02535,-0.0169 0.0095,-0.0049 0.01373,-0.01635 0.02535,-0.01744 0.0284,-0.0027 0.04644,0.03393 0.05969,0.05124 0.01082,0.01434 0.04131,0.03252 0.05917,0.04226 0.01002,0.0057 0.02272,0.01203 0.03381,0.0169 0.02353,0.01082 0.06681,0.04463 0.06762,0.06762 5.61e-4,0.01136 -0.01061,0.01454 -0.0085,0.02536 0.01758,0.003 0.03327,-0.01596 0.03381,-0.03381 2.71e-4,-0.01082 -0.01089,-0.01346 -0.0085,-0.02536 0.0081,-0.01785 0.0399,-0.0031 0.05072,-0.0085 -0.0019,-0.02056 -0.0334,-0.02326 -0.05072,-0.03381 -0.0092,-0.0054 -0.01562,-0.01285 -0.02535,-0.0169 -0.01407,-0.0054 -0.03145,-0.0091 -0.04226,-0.01744 -0.01028,-0.0078 -0.01534,-0.02164 -0.02535,-0.03381 -0.01461,-0.01731 -0.04273,-0.01968 -0.03381,-0.05917 0.0035,-0.0048 0.0084,-0.01446 0.01374,-0.0169 z m -2.336623,0.05706 c 0.0019,-8.8e-5 0.0045,5.62e-4 0.0058,0.0011 h 5.61e-4 l 5.62e-4,5.11e-4 v 5.1e-4 l 5.61e-4,5.1e-4 c -0.0059,0.02353 -0.05741,0.01658 -0.07607,0.0079 3.4e-5,-2.78e-4 4.59e-4,-0.0013 5.61e-4,-0.0016 v -5.1e-4 l 5.62e-4,-5.1e-4 c 1.17e-4,-2.03e-4 4.06e-4,-0.0014 5.61e-4,-0.0016 h 5.62e-4 l 5.61e-4,-5.1e-4 c 1.88e-4,-1.39e-4 0.0013,-9.19e-4 0.0016,-0.0011 0.0048,-0.0024 0.01294,-0.0015 0.02113,-0.0021 h 0.02535 c 0.0057,0 0.01259,-0.0024 0.01796,-0.0027 z m 2.226209,0.04226 v 5.11e-4 c -5.1e-4,3.05e-4 -0.0015,6.63e-4 -0.0021,0.0011 l -5.62e-4,5.1e-4 h -5.61e-4 -5.62e-4 -5.61e-4 v 5.1e-4 c -0.01163,0.0035 -0.01785,0.03004 0,0.03328 0.0081,-0.0048 0.01089,-0.01839 0.0085,-0.03381 -2.71e-4,-3.05e-4 -0.0013,-0.0013 -0.0016,-0.0016 h -5.62e-4 l -5.61e-4,-5.1e-4 h -5.62e-4 -5.61e-4 z m -2.345602,0.0011 c 0.0027,-3.38e-4 0.0052,-2.95e-4 0.0085,0.0011 a 0.19204356,0.19204356 0 0 1 -0.06762,0.03381 c -0.0099,0.0031 -0.02225,0.0046 -0.02905,0 -0.0022,-0.0018 -0.0042,-0.0042 -0.0048,-0.0079 -8.17e-4,-0.0053 4.88e-4,-0.0098 0.0021,-0.01215 l 5.61e-4,-5.1e-4 c 2.28e-4,-2.12e-4 0.0013,-0.0014 0.0016,-0.0016 0.0051,-0.0031 0.01359,-0.002 0.02113,-0.0032 0.01568,-0.0027 0.04104,-0.0077 0.05969,-0.0079 l -5.61e-4,-5.11e-4 c 0.0031,0 0.0058,-7.14e-4 0.0085,-0.0011 z m 2.336094,0.05124 c -10e-4,1.13e-4 -0.002,2.41e-4 -0.0032,5.11e-4 -0.0057,0.0027 -0.01068,0.0028 -0.01691,0.0084 0,0.02028 0.0041,0.03313 0,0.05071 0.01163,0.02218 0.03631,0.0075 0.04226,-0.0079 0.0065,-0.03525 -0.0062,-0.05346 -0.02218,-0.05177 z m 0.123619,0.09879 c -0.0019,2.22e-4 -0.0047,0.0013 -0.0063,0.0021 -6.13e-4,3.52e-4 -0.0015,6.13e-4 -0.0021,0.0011 0.01353,0.02164 0.03814,0.03712 0.06762,0.04226 0.01082,-0.0081 0.01177,-0.02847 0.01691,-0.04226 h -0.04226 c -0.01197,0 -0.02439,-0.0042 -0.03381,-0.0032 z m -3.169205,0.730095 h 10e-4 c 0.04353,-0.0017 0.05649,0.0581 0.09193,0.07554 0.0089,0.0048 0.02219,0.0065 0.03381,0.009 0.0095,0.0027 0.01616,0.0052 0.02535,0.0079 0.01893,0.0068 0.04376,0.0025 0.05917,0.0084 0.02299,0.01028 0.03942,0.05572 0.05917,0.06762 0.0011,0.01136 -0.0035,0.02515 0,0.03381 0.0095,0.01271 0.02685,0.01724 0.04226,0.02536 0.01839,0.01001 0.02495,0.03442 0.04226,0.04226 h 5.62e-4 l 5.61e-4,5.61e-4 c 0.006,0.0016 0.01542,-0.0031 0.0243,-5.61e-4 0.0238,0.0073 0.03069,0.03976 0.05124,0.03381 0.01353,-0.0038 0.01474,-0.0211 0.01691,-0.03381 0.0089,-0.0097 0.02002,-0.02509 0.03381,-0.02536 0.02245,0 0.02569,0.02036 0.03381,0.04226 0.0046,0.01244 0.01339,0.02928 0.01691,0.04226 0.0054,0.02245 0.0046,0.08791 0,0.101432 -0.0057,0.01623 -0.02874,0.02361 -0.04226,0.04174 -0.0064,0.0081 -0.01177,0.01939 -0.01691,0.02589 -0.0087,0.01082 -0.01886,0.01535 -0.02535,0.02536 -0.0038,0.0054 -0.0049,0.01778 -0.0085,0.02536 -0.01082,0.02299 -0.02584,0.04003 -0.01691,0.06762 0.0038,0.01136 0.01663,0.02056 0.01691,0.03381 0,0.01569 -0.03111,0.02522 -0.03381,0.04226 -0.0019,0.01271 0.01285,0.03395 0.01691,0.05071 0.0027,0.01271 0.02623,0.02542 0.03381,0.03381 0.01271,0.01434 0.02217,0.03259 0.03381,0.05071 0.02299,0.03516 0.03672,0.0758 0.05917,0.109884 0.01163,0.01785 0.03442,0.03232 0.04226,0.05071 0.0038,0.0089 -0.0022,0.02406 0,0.03275 9.7e-5,2.71e-4 -1.19e-4,7.66e-4 0,0.0011 0.01298,0.02922 0.07195,0.06174 0.101434,0.07607 0.01353,0.0067 0.02982,6.8e-5 0.04226,0.0085 a 0.24857468,0.24857468 0 0 1 0.06763,0.05917 c 0.0087,0.01515 0.01258,0.05202 0.01691,0.07555 0.0054,0.03192 -0.0013,0.05915 0,0.09351 0.0011,0.01866 0.0085,0.03205 0.0085,0.05072 0,0.0064 5.61e-4,0.01887 0,0.02535 -2.7e-4,0.02245 0.0021,0.04463 0,0.06763 a 0.20124,0.20124 0 0 0 0,0.03381 c 0.0013,0.01109 0.0077,0.01534 0.0085,0.02535 5.1e-4,0.01012 -0.0083,0.02439 -0.0085,0.03276 1.3e-5,2.67e-4 -3.4e-5,8.17e-4 0,10e-4 0.0024,0.02271 0.02076,0.03807 0.02535,0.05917 0.0035,0.01624 0.01089,0.05633 0.0085,0.07607 -0.0011,0.01082 -0.0069,0.02245 -0.0085,0.03381 -0.0011,0.0089 0.0013,0.01671 0,0.02535 -0.0016,0.01271 -0.0093,0.02191 -0.0085,0.03381 0.0016,0.02434 0.0221,0.04328 0.02589,0.06762 0.0013,0.0081 -2.69e-4,0.01751 0,0.02535 0,0.0073 0.006,0.01012 0.008,0.01691 a 1.887707,1.887707 0 0 1 -0.202882,-0.135231 1.9109685,1.9109685 0 0 1 -0.176977,-0.152147 l -0.0085,-0.008 a 1.9555984,1.9555984 0 0 1 -0.160586,-0.177436 c -0.02813,-0.0357 -0.05936,-0.07229 -0.08506,-0.109884 -0.01515,-0.02245 -0.0282,-0.04436 -0.04226,-0.06762 -0.0087,-0.01379 -0.01697,-0.02819 -0.02535,-0.04226 a 1.7789725,1.7789725 0 0 1 -0.06762,-0.12679 c -0.01353,-0.02705 -0.02191,-0.05613 -0.03381,-0.08453 a 1.8236023,1.8236023 0 0 1 -0.07607,-0.202863 c -0.01461,-0.04977 -0.02326,-0.100214 -0.03381,-0.152147 -0.0081,-0.03949 -0.01968,-0.07803 -0.02535,-0.118337 a 1.7751857,1.7751857 0 0 1 -0.0085,-0.06762 1.9225994,1.9225994 0 0 1 0.009,-0.431084 v -0.0079 c 0.01675,0 0.03936,-0.02452 0.05811,-0.02589 z m 0.731152,0.201806 c 2.47e-4,-3.9e-5 0.0013,1.8e-5 0.0016,0 h 5.62e-4 5.04e-4 c 2.23e-4,3.9e-5 0.0013,4.6e-4 0.0016,5.61e-4 0.01002,0.0036 0.01189,0.02693 0.0037,0.03328 h -5.61e-4 l -5.62e-4,5.62e-4 h -5.61e-4 l -5.61e-4,5.61e-4 h -5.62e-4 c -0.0026,5.1e-4 -0.0058,-6.64e-4 -0.008,-0.0021 -0.0081,-0.007 -0.01109,-0.02684 -5.62e-4,-0.0317 0.0011,-5.1e-4 0.0021,-8.68e-4 0.0032,-0.0011 z m -0.80881,3.8554515 v 0.270484 h 2.434354 v -0.270475 z m 2.704839,0 v 0.270484 h 1.0819355 v -0.270475 z" />
  <path
     id="gradient-path1"
     style="opacity:0.3;baseline-shift:baseline;display:inline;overflow:visible;vector-effect:none;enable-background:accumulate;stop-color:#000000;stop-opacity:1;fill:url(#linearGradient4)"
     d="M 8.4453131 1.2753492 C 4.4913166 1.2753492 1.2794833 4.4784283 1.2794833 8.4236094 C 1.2794833 12.36879 4.4913166 15.572386 8.4453131 15.572386 C 12.39931 15.572386 15.611143 12.36879 15.611143 8.4236094 C 15.611143 4.4784283 12.39931 1.2753492 8.4453131 1.2753492 z " />
</svg>
