<?xml version="1.0" encoding="UTF-8" standalone="no"?>
<svg
   width="64"
   height="64"
   version="1.1"
   viewBox="0 0 16.933 16.933"
   id="svg7"
   sodipodi:docname="preferences-document.svg"
   inkscape:version="1.4.2 (ebf0e940d0, 2025-05-08)"
   xmlns:inkscape="http://www.inkscape.org/namespaces/inkscape"
   xmlns:sodipodi="http://sodipodi.sourceforge.net/DTD/sodipodi-0.dtd"
   xmlns:xlink="http://www.w3.org/1999/xlink"
   xmlns="http://www.w3.org/2000/svg"
   xmlns:svg="http://www.w3.org/2000/svg"
   xmlns:rdf="http://www.w3.org/1999/02/22-rdf-syntax-ns#"
   xmlns:cc="http://creativecommons.org/ns#"
   xmlns:dc="http://purl.org/dc/elements/1.1/">
  <sodipodi:namedview
     id="namedview7"
     pagecolor="#9c4444"
     bordercolor="#000000"
     borderopacity="0.25"
     inkscape:showpageshadow="2"
     inkscape:pageopacity="0.0"
     inkscape:pagecheckerboard="0"
     inkscape:deskcolor="#d1d1d1"
     inkscape:zoom="4.3531261"
     inkscape:cx="36.640335"
     inkscape:cy="26.188077"
     inkscape:window-width="1272"
     inkscape:window-height="1372"
     inkscape:window-x="0"
     inkscape:window-y="0"
     inkscape:window-maximized="0"
     inkscape:current-layer="svg7"
     showgrid="false" />
  <defs
     id="defs2">
    <filter
       style="color-interpolation-filters:sRGB;"
       inkscape:label="Blur"
       id="filter3"
       x="-0.10843471"
       y="-0.10870992"
       width="1.2168694"
       height="1.2174198">
      <feGaussianBlur
         stdDeviation="0.5 0.5"
         result="blur"
         id="feGaussianBlur3" />
    </filter>
    <style
       id="current-color-scheme"
       type="text/css">.ColorScheme-Text {color:#d8dee9} .ColorScheme-Highlight {color:#3b4252}</style>
    <linearGradient
       id="linearGradient3"
       inkscape:collect="always">
      <stop
         style="stop-color:#000000;stop-opacity:1;"
         offset="0"
         id="stop3" />
      <stop
         style="stop-color:#000000;stop-opacity:0;"
         offset="1"
         id="stop4" />
    </linearGradient>
    <linearGradient
       inkscape:collect="always"
       xlink:href="#linearGradient3"
       id="linearGradient4"
       x1="13.512321"
       y1="13.490874"
       x2="3.3783066"
       y2="3.3568602"
       gradientUnits="userSpaceOnUse" />
  </defs>
  <metadata
     id="metadata2">
    <rdf:RDF>
      <cc:Work
         rdf:about="">
        <dc:format>image/svg+xml</dc:format>
        <dc:type
           rdf:resource="http://purl.org/dc/dcmitype/StillImage" />
      </cc:Work>
    </rdf:RDF>
    <itype>type-a</itype>
  </metadata>
  <ellipse
     style="opacity:1;fill:none;stroke:#000000;stroke-width:0.582072;stroke-dasharray:none;stroke-opacity:1;filter:url(#filter3)"
     id="path1-5"
     cx="8.4450111"
     cy="8.423522"
     rx="6.8752708"
     ry="6.8578653" />
  <ellipse
     style="opacity:1;fill:none;stroke-width:0.58207188;stroke-opacity:1;stroke:currentColor;stroke-dasharray:none;fill-opacity:1"
     id="path1"
     cx="8.4450111"
     cy="8.423522"
     rx="6.8752708"
     ry="6.8578653"
     class="ColorScheme-Text" />
  <ellipse
     style="fill:currentColor;stroke:none;stroke-width:0.285844;stroke-dasharray:none;stroke-opacity:1"
     id="path1-2"
     cx="8.4557552"
     cy="8.423522"
     rx="6.5738997"
     ry="6.5692253"
     class="ColorScheme-Highlight" />
  <path
     id="path102"
     style="opacity:0.3;fill:#000000;fill-opacity:1;stroke:none;stroke-width:0.246025;stroke-dasharray:none;stroke-dashoffset:2.2;stroke-opacity:0.3"
     d="m 7.3760516,5.208772 c -1.78755,0 -1.726082,-0.00583 -1.83029,0.1705838 -0.04211,0.071302 -0.04613,0.3906038 -0.04613,3.6005144 0,3.8894948 -0.01249,3.6310498 0.177791,3.7470708 0.08805,0.0537 0.162515,0.05516 2.783638,0.05526 2.9342924,1.15e-4 2.7825424,0.0084 2.9138564,-0.158571 0.05881,-0.07477 0.05862,-0.08346 0.05862,-2.529922 V 7.639231 h -1.06675 C 9.1707386,7.6391819 9.1502646,7.635851 9.0530516,7.4412576 c -0.04442,-0.088913 -0.04945,-0.206746 -0.0495,-1.1657341 V 5.2087724 Z m 1.966758,0.043247 v 0.912502 c 0,0.9960236 0.0051,1.0342776 0.162415,1.1196047 0.06369,0.034554 0.23649,0.042311 0.9778524,0.043247 l 0.90049,9.361e-4 -0.481478,-0.501658 C 10.637104,6.5507903 10.177818,6.0834117 9.8814696,5.7882652 Z m -2.515028,3.6024369 h 1.638565 1.6390444 V 9.0663633 9.2782714 H 8.4663466 6.8277816 V 9.0663633 Z m 0,0.7909313 h 1.638565 1.6390444 v 0.226323 0.2258428 H 8.4663466 6.8277816 V 9.8717102 Z m 0,0.8197608 h 1.638565 1.6390444 v 0.225843 0.226324 H 8.4663466 6.8277816 v -0.226324 z m 0,0.819283 h 1.031191 1.03167 v 0.226322 0.225843 h -1.03167 -1.031191 v -0.225843 z" />
  <path
     id="path102-6"
     style="fill:currentColor;fill-opacity:1;stroke:none;stroke-width:0.246025;stroke-dasharray:none;stroke-dashoffset:2.2;stroke-opacity:0.3"
     d="m 7.3760516,4.6797484 c -1.78755,0 -1.726082,-0.00583 -1.83029,0.1705838 -0.04211,0.071302 -0.04613,0.3906038 -0.04613,3.6005141 0,3.8894947 -0.01249,3.6310497 0.177791,3.7470707 0.08805,0.0537 0.162515,0.05516 2.783638,0.05526 2.9342924,1.15e-4 2.7825424,0.0084 2.9138564,-0.15857 0.05881,-0.07477 0.05862,-0.08346 0.05862,-2.5299227 V 7.1102074 h -1.06675 C 9.1707386,7.1101583 9.1502646,7.1068274 9.0530516,6.912234 9.0086316,6.823321 9.0036016,6.705488 9.0035516,5.7464999 V 4.6797488 Z m 1.966758,0.043247 v 0.912502 c 0,0.9960236 0.0051,1.0342776 0.162415,1.1196047 0.06369,0.034554 0.23649,0.042311 0.9778524,0.043247 l 0.90049,9.361e-4 -0.481478,-0.501658 C 10.637104,6.0217667 10.177818,5.5543881 9.8814696,5.2592416 Z m -2.515028,3.6024369 h 1.638565 1.6390444 v 0.211908 0.211908 H 8.4663466 6.8277816 v -0.211908 z m 0,0.790931 h 1.638565 1.6390444 v 0.226323 0.225843 H 8.4663466 6.8277816 v -0.225843 z m 0,0.819761 h 1.638565 1.6390444 v 0.2258437 0.226323 H 8.4663466 6.8277816 v -0.226323 z m 0,0.8192827 h 1.031191 1.03167 v 0.226323 0.225843 h -1.03167 -1.031191 v -0.225844 z"
     class="ColorScheme-Text" />
  <path
     id="gradient-path1"
     style="opacity:0.3;baseline-shift:baseline;display:inline;overflow:visible;vector-effect:none;enable-background:accumulate;stop-color:#000000;stop-opacity:1;fill:url(#linearGradient4)"
     d="M 8.4453131 1.2753492 C 4.4913166 1.2753492 1.2794833 4.4784283 1.2794833 8.4236094 C 1.2794833 12.36879 4.4913166 15.572386 8.4453131 15.572386 C 12.39931 15.572386 15.611143 12.36879 15.611143 8.4236094 C 15.611143 4.4784283 12.39931 1.2753492 8.4453131 1.2753492 z " />
</svg>
