<?xml version="1.0" encoding="UTF-8" standalone="no"?>
<svg
   width="64"
   height="64"
   version="1.1"
   viewBox="0 0 16.933 16.933"
   id="svg7"
   sodipodi:docname="preferences-system-windows-behavior.svg"
   inkscape:version="1.4.2 (ebf0e940d0, 2025-05-08)"
   xmlns:inkscape="http://www.inkscape.org/namespaces/inkscape"
   xmlns:sodipodi="http://sodipodi.sourceforge.net/DTD/sodipodi-0.dtd"
   xmlns:xlink="http://www.w3.org/1999/xlink"
   xmlns="http://www.w3.org/2000/svg"
   xmlns:svg="http://www.w3.org/2000/svg"
   xmlns:rdf="http://www.w3.org/1999/02/22-rdf-syntax-ns#"
   xmlns:cc="http://creativecommons.org/ns#"
   xmlns:dc="http://purl.org/dc/elements/1.1/">
  <sodipodi:namedview
     id="namedview7"
     pagecolor="#9c4444"
     bordercolor="#000000"
     borderopacity="0.25"
     inkscape:showpageshadow="2"
     inkscape:pageopacity="0.0"
     inkscape:pagecheckerboard="0"
     inkscape:deskcolor="#d1d1d1"
     inkscape:zoom="4.3531261"
     inkscape:cx="36.755195"
     inkscape:cy="26.188077"
     inkscape:window-width="1272"
     inkscape:window-height="1372"
     inkscape:window-x="0"
     inkscape:window-y="0"
     inkscape:window-maximized="0"
     inkscape:current-layer="svg7"
     showgrid="false" />
  <defs
     id="defs2">
    <filter
       style="color-interpolation-filters:sRGB;"
       inkscape:label="Blur"
       id="filter3"
       x="-0.10843471"
       y="-0.10870992"
       width="1.2168694"
       height="1.2174198">
      <feGaussianBlur
         stdDeviation="0.5 0.5"
         result="blur"
         id="feGaussianBlur3" />
    </filter>
    <style
       id="current-color-scheme"
       type="text/css">.ColorScheme-Text {color:#d8dee9} .ColorScheme-Highlight {color:#3b4252}</style>
    <linearGradient
       id="linearGradient3"
       inkscape:collect="always">
      <stop
         style="stop-color:#000000;stop-opacity:1;"
         offset="0"
         id="stop3" />
      <stop
         style="stop-color:#000000;stop-opacity:0;"
         offset="1"
         id="stop4" />
    </linearGradient>
    <linearGradient
       inkscape:collect="always"
       xlink:href="#linearGradient3"
       id="linearGradient4"
       x1="13.512321"
       y1="13.490874"
       x2="3.3783066"
       y2="3.3568602"
       gradientUnits="userSpaceOnUse" />
  </defs>
  <metadata
     id="metadata2">
    <rdf:RDF>
      <cc:Work
         rdf:about="">
        <dc:format>image/svg+xml</dc:format>
        <dc:type
           rdf:resource="http://purl.org/dc/dcmitype/StillImage" />
      </cc:Work>
    </rdf:RDF>
    <itype>type-a</itype>
  </metadata>
  <ellipse
     style="opacity:1;fill:none;stroke:#000000;stroke-width:0.582072;stroke-dasharray:none;stroke-opacity:1;filter:url(#filter3)"
     id="path1-5"
     cx="8.4450111"
     cy="8.423522"
     rx="6.8752708"
     ry="6.8578653" />
  <ellipse
     style="opacity:1;fill:none;stroke-width:0.58207188;stroke-opacity:1;stroke:currentColor;stroke-dasharray:none;fill-opacity:1"
     id="path1"
     cx="8.4450111"
     cy="8.423522"
     rx="6.8752708"
     ry="6.8578653"
     class="ColorScheme-Text" />
  <ellipse
     style="fill:currentColor;stroke:none;stroke-width:0.285844;stroke-dasharray:none;stroke-opacity:1"
     id="path1-2"
     cx="8.4557552"
     cy="8.423522"
     rx="6.5738997"
     ry="6.5692253"
     class="ColorScheme-Highlight" />
  <path
     id="path99"
     style="opacity:0.3;fill:#000000;fill-opacity:1;stroke-width:0.0376277"
     d="m 8.4986042,5.7363183 c -1.445115,0 -2.588997,0.01538 -2.698756,0.03619 -0.442659,0.08395 -0.808787,0.365425 -1.006208,0.773659 -0.09351,0.193358 -0.10891,0.269804 -0.109489,0.544728 -5.79e-4,0.271344 0.01534,0.3540955 0.104059,0.5456327 0.165302,0.3568817 0.482527,0.646027 0.82795,0.755109 0.124987,0.03947 0.715404,0.047946 2.886063,0.042076 L 11.230839,8.426473 11.481487,8.3029592 C 11.641082,8.2243822 11.793731,8.1109794 11.901795,7.9907854 12.444324,7.3873624 12.323792,6.4263413 11.649339,5.9806303 11.279365,5.7361343 11.28188,5.7363173 8.4986042,5.7363183 Z m 2.1662438,0.470982 c 0.264716,-5.79e-4 0.325471,0.01293 0.504913,0.112203 0.242904,0.134377 0.393392,0.327573 0.455146,0.584994 0.10027,0.417973 -0.11106,0.8226622 -0.527535,1.0111854 -0.222755,0.1008333 -0.634358,0.1043969 -0.8465,0.00769 C 9.8897922,7.7587726 9.6975482,7.471491 9.6975482,7.0954223 c 0,-0.246515 0.06689,-0.40878 0.247028,-0.600378 0.2038798,-0.216846 0.3794698,-0.287005 0.7202718,-0.287746 z M 9.5704152,9.6177316 c -0.344276,-3.196e-4 -0.74449,4.366e-4 -1.203469,0.00226 -3.051553,0.012142 -2.855455,-0.00941 -3.253437,0.3574209 -0.415015,0.3825345 -0.542446,0.9314375 -0.337967,1.4581875 0.159094,0.409834 0.596635,0.752688 1.027925,0.805329 0.17617,0.0215 3.664998,0.01795 4.9740358,-0.005 0.51989,-0.0091 0.530025,-0.01096 0.762801,-0.137087 0.715281,-0.38756 0.928599,-1.248843 0.473695,-1.913335 C 11.845563,9.9394578 11.50718,9.7070578 11.235816,9.6507231 11.13289,9.6293601 10.603243,9.6186551 9.5704152,9.6176961 Z m -3.35433,0.4180474 c 0.392072,-0.0088 0.789252,0.166191 0.96549,0.530249 0.215066,0.444269 0.0098,0.958905 -0.467815,1.173157 -0.549575,0.246524 -1.231956,0.0259 -1.436923,-0.464649 -0.07455,-0.178435 -0.07258,-0.481636 0.0045,-0.665526 0.155782,-0.371555 0.542652,-0.564378 0.934724,-0.573231 z" />
  <path
     id="path99-0"
     style="fill:currentColor;stroke-width:0.0376277"
     d="m 8.4986042,5.2070319 c -1.445115,0 -2.588997,0.01538 -2.698756,0.03619 -0.442659,0.08395 -0.808787,0.365425 -1.006208,0.773659 -0.09351,0.193358 -0.10891,0.269804 -0.109489,0.544728 -5.79e-4,0.271344 0.01534,0.3540955 0.104059,0.5456327 0.165302,0.3568817 0.482527,0.646027 0.82795,0.755109 0.124987,0.03947 0.715404,0.047946 2.886063,0.042076 l 2.7286158,-0.00724 0.250648,-0.1235138 C 11.641082,7.6950958 11.793731,7.581693 11.901795,7.461499 12.444324,6.858076 12.323792,5.8970549 11.649339,5.4513439 11.279365,5.2068479 11.28188,5.2070309 8.4986042,5.2070319 Z m 2.1662438,0.470982 c 0.264716,-5.79e-4 0.325471,0.01293 0.504913,0.112203 0.242904,0.134377 0.393392,0.327573 0.455146,0.584994 0.10027,0.417973 -0.11106,0.8226622 -0.527535,1.0111854 -0.222755,0.1008333 -0.634358,0.1043969 -0.8465,0.00769 C 9.8897922,7.2294862 9.6975482,6.9422046 9.6975482,6.5661359 c 0,-0.246515 0.06689,-0.40878 0.247028,-0.600378 0.2038798,-0.216846 0.3794698,-0.287005 0.7202718,-0.287746 z M 9.5704152,9.0884452 c -0.344276,-3.196e-4 -0.74449,4.366e-4 -1.203469,0.00226 -3.051553,0.012142 -2.855455,-0.00941 -3.253437,0.3574209 -0.415015,0.3825342 -0.542446,0.9314379 -0.337967,1.4581879 0.159094,0.409834 0.596635,0.752688 1.027925,0.805329 0.17617,0.0215 3.664998,0.01795 4.9740358,-0.005 0.51989,-0.0091 0.530025,-0.01096 0.762801,-0.137087 0.715281,-0.38756 0.928599,-1.248843 0.473695,-1.9133355 C 11.845563,9.4101714 11.50718,9.1777714 11.235816,9.1214367 11.13289,9.1000737 10.603243,9.0893687 9.5704152,9.0884097 Z m -3.35433,0.4180474 c 0.392072,-0.00885 0.789252,0.1661913 0.96549,0.5302494 0.215066,0.444269 0.0098,0.958905 -0.467815,1.173157 -0.549575,0.246524 -1.231956,0.0259 -1.436923,-0.464649 -0.07455,-0.178435 -0.07258,-0.481636 0.0045,-0.665526 0.155782,-0.3715559 0.542652,-0.5643787 0.934724,-0.5732314 z"
     class="ColorScheme-Text" />
  <path
     id="gradient-path1"
     style="opacity:0.3;baseline-shift:baseline;display:inline;overflow:visible;vector-effect:none;enable-background:accumulate;stop-color:#000000;stop-opacity:1;fill:url(#linearGradient4)"
     d="M 8.4453131 1.2753492 C 4.4913166 1.2753492 1.2794833 4.4784283 1.2794833 8.4236094 C 1.2794833 12.36879 4.4913166 15.572386 8.4453131 15.572386 C 12.39931 15.572386 15.611143 12.36879 15.611143 8.4236094 C 15.611143 4.4784283 12.39931 1.2753492 8.4453131 1.2753492 z " />
</svg>
