<?xml version="1.0" encoding="UTF-8" standalone="no"?>
<svg
   width="64"
   height="64"
   version="1.1"
   viewBox="0 0 16.933 16.933"
   id="svg7"
   sodipodi:docname="preferences-web-browser-identification.svg"
   inkscape:version="1.4.2 (ebf0e940d0, 2025-05-08)"
   xmlns:inkscape="http://www.inkscape.org/namespaces/inkscape"
   xmlns:sodipodi="http://sodipodi.sourceforge.net/DTD/sodipodi-0.dtd"
   xmlns:xlink="http://www.w3.org/1999/xlink"
   xmlns="http://www.w3.org/2000/svg"
   xmlns:svg="http://www.w3.org/2000/svg"
   xmlns:rdf="http://www.w3.org/1999/02/22-rdf-syntax-ns#"
   xmlns:cc="http://creativecommons.org/ns#"
   xmlns:dc="http://purl.org/dc/elements/1.1/">
  <sodipodi:namedview
     id="namedview7"
     pagecolor="#9c4444"
     bordercolor="#000000"
     borderopacity="0.25"
     inkscape:showpageshadow="2"
     inkscape:pageopacity="0.0"
     inkscape:pagecheckerboard="0"
     inkscape:deskcolor="#d1d1d1"
     inkscape:zoom="4.3531261"
     inkscape:cx="36.755195"
     inkscape:cy="26.188077"
     inkscape:window-width="1543"
     inkscape:window-height="1372"
     inkscape:window-x="0"
     inkscape:window-y="0"
     inkscape:window-maximized="0"
     inkscape:current-layer="svg7"
     showgrid="false" />
  <defs
     id="defs2">
    <filter
       style="color-interpolation-filters:sRGB;"
       inkscape:label="Blur"
       id="filter3"
       x="-0.10843471"
       y="-0.10870992"
       width="1.2168694"
       height="1.2174198">
      <feGaussianBlur
         stdDeviation="0.5 0.5"
         result="blur"
         id="feGaussianBlur3" />
    </filter>
    <style
       id="current-color-scheme"
       type="text/css">.ColorScheme-Text {color:#d8dee9} .ColorScheme-Highlight {color:#3b4252}</style>
    <linearGradient
       id="linearGradient3"
       inkscape:collect="always">
      <stop
         style="stop-color:#000000;stop-opacity:1;"
         offset="0"
         id="stop3" />
      <stop
         style="stop-color:#000000;stop-opacity:0;"
         offset="1"
         id="stop4" />
    </linearGradient>
    <linearGradient
       inkscape:collect="always"
       xlink:href="#linearGradient3"
       id="linearGradient4"
       x1="13.512321"
       y1="13.490874"
       x2="3.3783066"
       y2="3.3568602"
       gradientUnits="userSpaceOnUse" />
  </defs>
  <metadata
     id="metadata2">
    <rdf:RDF>
      <cc:Work
         rdf:about="">
        <dc:format>image/svg+xml</dc:format>
        <dc:type
           rdf:resource="http://purl.org/dc/dcmitype/StillImage" />
      </cc:Work>
    </rdf:RDF>
    <itype>type-a</itype>
  </metadata>
  <ellipse
     style="opacity:1;fill:none;stroke:#000000;stroke-width:0.582072;stroke-dasharray:none;stroke-opacity:1;filter:url(#filter3)"
     id="path1-5"
     cx="8.4450111"
     cy="8.423522"
     rx="6.8752708"
     ry="6.8578653" />
  <ellipse
     style="opacity:1;fill:none;stroke-width:0.58207188;stroke-opacity:1;stroke:currentColor;stroke-dasharray:none;fill-opacity:1"
     id="path1"
     cx="8.4450111"
     cy="8.423522"
     rx="6.8752708"
     ry="6.8578653"
     class="ColorScheme-Text" />
  <ellipse
     style="fill:currentColor;stroke:none;stroke-width:0.285844;stroke-dasharray:none;stroke-opacity:1"
     id="path1-2"
     cx="8.4557552"
     cy="8.423522"
     rx="6.5738997"
     ry="6.5692253"
     class="ColorScheme-Highlight" />
  <path
     id="rect6"
     style="baseline-shift:baseline;display:inline;overflow:visible;opacity:0.3;vector-effect:none;fill:#000000;fill-opacity:1;stroke-width:0.261156;enable-background:accumulate;stop-color:#000000"
     d="m 8.4664995,5.2090141 c -2.095614,0 -3.786774,1.6911601 -3.786774,3.7867743 0,2.0956146 1.69116,3.7867746 3.786774,3.7867746 2.0956145,0 3.7867745,-1.69116 3.7867745,-3.7867746 0,-2.0956142 -1.69116,-3.7867743 -3.7867745,-3.7867743 z m 0.261158,0.2703387 c 0.938583,0.067861 1.7722475,0.4989997 2.3621415,1.1542919 l -0.01173,0.011734 v 0.261157 h 0.233612 c 0.04088,0.055729 0.08022,0.1126927 0.117828,0.1708742 l -0.09029,0.090277 -0.522314,0.5223135 -0.261156,0.261157 -0.113237,0.3397087 v 0.3305256 h -0.110177 l -0.03774,0.1132367 v 0.261157 l 0.261157,0.2611565 0.261156,0.2611565 0.522314,0.2611568 0.596274,-0.1469002 c -0.285965,1.58551 -1.622436,2.793064 -3.2700705,2.883437 l 0.06222,-0.124968 v -0.261157 l 0.522313,-0.261156 0.261157,-0.261157 v -0.522313 l 0.113236,-0.113236 H 9.3631935 V 10.71065 h -0.487628 -0.03469 -0.522314 v -0.261157 h -0.226472 v 0.522314 H 6.4904635 V 9.4048663 9.3701793 9.2003244 l -0.113236,0.056618 H 5.8549155 V 8.7346305 H 5.5937585 V 8.212317 h -0.261158 l -0.261156,0.261157 h -0.09283 c 0.04248,-0.2893181 0.119767,-0.5668412 0.227491,-0.8283575 l 0.648813,-0.2162705 0.261156,0.2611564 0.261157,0.2611571 V 7.428846 L 6.4904675,7.372228 V 7.0197686 h 0.409078 V 6.9065339 l 0.522313,-0.261157 0.522315,-0.522313 V 6.3842204 L 8.2053295,6.1230639 7.9441735,5.8619058 h 0.522313 V 6.1230639 L 8.9887995,5.8619058 8.7276435,5.6007494 Z m -2.089256,1.6883376 v 1.305785 h 1.305786 v -1.305785 z m 1.828098,0 v 0.261157 h 0.261158 v -0.261157 z m 0.522314,0 v 1.305785 h 1.3057855 v -1.305785 z m -2.089255,0.261157 h 0.783471 v 0.783471 h -0.783471 z m 2.350412,0 h 0.7834705 v 0.783471 H 9.2499705 Z m -2.089255,0.2611565 v 0.261157 h 0.261157 v -0.261157 z m 1.044628,0 v 0.5223145 h 0.261156 V 7.9511609 h 0.261157 v -0.261157 h -0.261157 z m 0.261156,0.5223145 v 0.261157 h -0.261156 v 0.2611565 h -0.261157 v 0.2611565 h 0.261157 v 0.261157 h 0.522313 V 8.9957884 H 8.4664995 V 8.7346319 h 0.261157 V 8.2123184 Z m 0.261157,0.5223135 v 0.2611565 h 0.261157 v 0.261157 h 0.261157 v -0.261157 h 0.261157 V 8.7346319 h -0.522314 z m 0.783471,-1.044628 v 0.261157 h 0.261158 v -0.261157 z m -2.611569,1.044628 v 0.2611565 h 0.261157 V 8.7346319 Z m 0.261157,0.2611565 v 0.261157 h 0.522314 V 8.7346319 h -0.261157 v 0.2611565 z m -0.261157,0 h -0.261157 v 0.261157 h 0.261157 z M 9.7722855,8.7346319 V 8.9957884 H 10.033441 V 8.7346319 Z m -4.826302,0.067841 0.386634,0.1933171 0.261158,0.261157 0.522313,0.2611565 0.261157,0.2611568 -0.261157,0.2611567 v 0.522315 l 0.261157,0.522313 0.522313,0.522314 v 0.550878 C 5.7361375,11.583958 4.9408815,10.38743 4.9408815,8.99579 c 0,-0.06484 0.0017,-0.1293691 0.0051,-0.1933171 z M 9.7722855,9.256947 V 9.5181035 H 10.033441 V 9.256947 Z m 0.2611555,0.2611565 v 0.2611568 h 0.261157 V 9.5181035 Z m -3.3950395,0 v 1.3057845 h 1.305785 V 9.5181035 Z m 1.453705,0 V 9.892497 h 0.226473 V 9.6313403 L 8.2053435,9.5181035 Z m 0.63555,0 v 0.2611568 h 0.261157 V 9.5181035 Z m 0,0.2611568 h -0.261157 v 0.2611567 h -0.261156 v 0.261158 h 0.261156 v 0.261157 h 0.261157 v -0.522315 z m 0.522314,-0.2611568 v 0.2611568 h 0.261157 V 9.5181035 Z m 0.261157,0.2611568 v 0.2611567 h 0.261157 V 9.7792603 Z m 0.261157,0.2611567 v 0.261158 h 0.2611565 v -0.261158 z m 0,0.261158 h -0.261157 v 0.522313 h 0.261157 v -0.261156 z m -0.261157,0 v -0.26116 h -0.522314 v 0.522315 h 0.261157 V 10.301573 Z M 6.8995595,9.7792603 h 0.78347 v 0.7834717 h -0.78347 z m 0.261156,0.2611567 v 0.261158 h 0.261157 v -0.261158 z m 2.8727255,0.522315 v 0.261156 h 0.261157 v -0.261156 z" />
  <path
     id="rect6-2"
     class="ColorScheme-Text"
     style="baseline-shift:baseline;display:inline;overflow:visible;vector-effect:none;fill:currentColor;stroke-width:0.261156;enable-background:accumulate;stop-color:#000000"
     d="m 8.4664995,4.6797257 c -2.095614,0 -3.786774,1.6911601 -3.786774,3.7867745 0,2.0956138 1.69116,3.7867738 3.786774,3.7867738 2.0956145,0 3.7867745,-1.69116 3.7867745,-3.7867738 0,-2.0956144 -1.69116,-3.7867745 -3.7867745,-3.7867745 z m 0.261158,0.2703387 c 0.938583,0.067861 1.7722475,0.4989997 2.3621415,1.1542919 l -0.01173,0.011734 v 0.261157 h 0.233612 c 0.04088,0.055729 0.08022,0.1126927 0.117828,0.1708742 l -0.09029,0.090277 -0.522314,0.5223137 -0.261156,0.261157 -0.113237,0.339709 v 0.330525 h -0.110177 l -0.03774,0.113237 v 0.261157 l 0.261157,0.261156 0.261156,0.261157 0.522314,0.261157 0.596274,-0.146901 C 11.649531,10.688576 10.31306,11.89613 8.6654255,11.986503 l 0.06222,-0.124968 v -0.261157 l 0.522313,-0.261156 0.261157,-0.261157 v -0.522313 l 0.113236,-0.113237 h -0.261158 v -0.261154 h -0.487628 -0.03469 -0.522314 V 9.9202042 H 8.0920895 V 10.442517 H 6.4904635 V 8.8755782 8.8408882 8.6710333 l -0.113236,0.05662 H 5.8549155 V 8.2053422 h -0.261157 v -0.522314 h -0.261158 l -0.261156,0.2611571 h -0.09283 c 0.04248,-0.289318 0.119767,-0.5668411 0.227491,-0.8283571 l 0.648813,-0.216271 0.261156,0.261157 0.261157,0.2611571 v -0.522314 l 0.113236,-0.05662 V 6.4904802 h 0.409078 V 6.3772455 l 0.522313,-0.261157 0.522315,-0.522313 V 5.854932 L 8.2053295,5.5937755 7.9441735,5.3326174 h 0.522313 V 5.5937755 L 8.9887995,5.3326174 8.7276435,5.071461 Z M 6.6384015,6.638402 v 1.3057853 h 1.305786 V 6.638402 Z m 1.828098,0 v 0.2611572 h 0.261158 V 6.638402 Z m 0.522314,0 V 7.9441872 H 10.294599 V 6.638402 Z m -2.089255,0.2611572 h 0.783471 v 0.783471 h -0.783471 z m 2.350412,0 h 0.7834705 v 0.783471 H 9.2499705 Z m -2.089255,0.261156 v 0.261157 h 0.261157 v -0.261157 z m 1.044628,0 v 0.522315 h 0.261156 v -0.261158 h 0.261157 v -0.261157 h -0.261157 z m 0.261156,0.522315 v 0.2611571 h -0.261156 v 0.261156 h -0.261157 v 0.261157 h 0.261157 v 0.261157 h 0.522313 v -0.261157 h -0.261157 v -0.261157 h 0.261157 V 7.6830302 Z m 0.261157,0.5223131 v 0.261157 h 0.261157 v 0.261157 h 0.261157 v -0.261157 h 0.261157 v -0.261157 h -0.522314 z m 0.783471,-1.044628 v 0.261157 h 0.261158 v -0.261157 z m -2.611569,1.044628 v 0.261157 h 0.261157 v -0.261157 z m 0.261157,0.261157 v 0.261157 h 0.522314 v -0.522314 h -0.261157 v 0.261157 z m -0.261157,0 h -0.261157 v 0.261157 h 0.261157 z m 2.872727,-0.261157 v 0.261157 h 0.2611555 v -0.261157 z m -4.826302,0.06784 0.386634,0.193317 0.261158,0.261157 0.522313,0.261157 0.261157,0.261157 -0.261157,0.261157 v 0.5223137 l 0.261157,0.522313 0.522313,0.522314 v 0.550878 c -1.163421,-0.574279 -1.958677,-1.7708057 -1.958677,-3.1624467 0,-0.06484 0.0017,-0.129369 0.0051,-0.193317 z m 4.826302,0.454474 V 8.9888142 H 10.033441 V 8.7276573 Z m 0.2611555,0.2611569 v 0.2611571 h 0.261157 V 8.9888142 Z m -3.3950395,0 v 1.3057838 h 1.305785 V 8.9888142 Z m 1.453705,0 v 0.374393 h 0.226473 v -0.261155 l -0.113236,-0.113237 z m 0.63555,0 v 0.2611571 h 0.261157 V 8.9888142 Z m 0,0.2611571 h -0.261157 v 0.261157 h -0.261156 v 0.261158 h 0.261156 v 0.2611557 h 0.261157 V 9.5111273 Z m 0.522314,-0.2611571 v 0.2611571 h 0.261157 V 8.9888142 Z m 0.261157,0.2611571 v 0.261156 h 0.261157 V 9.2499722 Z m 0.261157,0.261156 v 0.261158 h 0.2611565 v -0.261158 z m 0,0.261158 h -0.261157 v 0.5223127 h 0.261157 v -0.261156 z m -0.261157,0 V 9.5111252 H 8.9888135 V 10.03344 h 0.261157 V 9.7722842 Z M 6.8995595,9.2499722 h 0.78347 v 0.7834708 h -0.78347 z m 0.261156,0.261157 v 0.261158 h 0.261157 v -0.261159 z m 2.8727255,0.5223138 v 0.261156 h 0.261157 v -0.261156 z" />
  <path
     id="gradient-path1"
     style="opacity:0.3;baseline-shift:baseline;display:inline;overflow:visible;vector-effect:none;enable-background:accumulate;stop-color:#000000;stop-opacity:1;fill:url(#linearGradient4)"
     d="M 8.4453131 1.2753492 C 4.4913166 1.2753492 1.2794833 4.4784283 1.2794833 8.4236094 C 1.2794833 12.36879 4.4913166 15.572386 8.4453131 15.572386 C 12.39931 15.572386 15.611143 12.36879 15.611143 8.4236094 C 15.611143 4.4784283 12.39931 1.2753492 8.4453131 1.2753492 z " />
</svg>
