<?xml version="1.0" encoding="UTF-8" standalone="no"?>
<svg
   width="64"
   height="64"
   version="1.1"
   viewBox="0 0 16.933 16.933"
   id="svg7"
   sodipodi:docname="preferences-web-browser-cookies.svg"
   inkscape:version="1.4.2 (ebf0e940d0, 2025-05-08)"
   xmlns:inkscape="http://www.inkscape.org/namespaces/inkscape"
   xmlns:sodipodi="http://sodipodi.sourceforge.net/DTD/sodipodi-0.dtd"
   xmlns:xlink="http://www.w3.org/1999/xlink"
   xmlns="http://www.w3.org/2000/svg"
   xmlns:svg="http://www.w3.org/2000/svg"
   xmlns:rdf="http://www.w3.org/1999/02/22-rdf-syntax-ns#"
   xmlns:cc="http://creativecommons.org/ns#"
   xmlns:dc="http://purl.org/dc/elements/1.1/">
  <sodipodi:namedview
     id="namedview7"
     pagecolor="#9c4444"
     bordercolor="#000000"
     borderopacity="0.25"
     inkscape:showpageshadow="2"
     inkscape:pageopacity="0.0"
     inkscape:pagecheckerboard="0"
     inkscape:deskcolor="#d1d1d1"
     inkscape:zoom="4.3531261"
     inkscape:cx="36.755195"
     inkscape:cy="26.188077"
     inkscape:window-width="1543"
     inkscape:window-height="1372"
     inkscape:window-x="0"
     inkscape:window-y="0"
     inkscape:window-maximized="0"
     inkscape:current-layer="svg7"
     showgrid="false" />
  <defs
     id="defs2">
    <filter
       style="color-interpolation-filters:sRGB;"
       inkscape:label="Blur"
       id="filter3"
       x="-0.10843471"
       y="-0.10870992"
       width="1.2168694"
       height="1.2174198">
      <feGaussianBlur
         stdDeviation="0.5 0.5"
         result="blur"
         id="feGaussianBlur3" />
    </filter>
    <style
       id="current-color-scheme"
       type="text/css">.ColorScheme-Text {color:#d8dee9} .ColorScheme-Highlight {color:#3b4252}</style>
    <linearGradient
       id="linearGradient3"
       inkscape:collect="always">
      <stop
         style="stop-color:#000000;stop-opacity:1;"
         offset="0"
         id="stop3" />
      <stop
         style="stop-color:#000000;stop-opacity:0;"
         offset="1"
         id="stop4" />
    </linearGradient>
    <linearGradient
       inkscape:collect="always"
       xlink:href="#linearGradient3"
       id="linearGradient4"
       x1="13.512321"
       y1="13.490874"
       x2="3.3783066"
       y2="3.3568602"
       gradientUnits="userSpaceOnUse" />
  </defs>
  <metadata
     id="metadata2">
    <rdf:RDF>
      <cc:Work
         rdf:about="">
        <dc:format>image/svg+xml</dc:format>
        <dc:type
           rdf:resource="http://purl.org/dc/dcmitype/StillImage" />
      </cc:Work>
    </rdf:RDF>
    <itype>type-a</itype>
  </metadata>
  <ellipse
     style="opacity:1;fill:none;stroke:#000000;stroke-width:0.582072;stroke-dasharray:none;stroke-opacity:1;filter:url(#filter3)"
     id="path1-5"
     cx="8.4450111"
     cy="8.423522"
     rx="6.8752708"
     ry="6.8578653" />
  <ellipse
     style="opacity:1;fill:none;stroke-width:0.58207188;stroke-opacity:1;stroke:currentColor;stroke-dasharray:none;fill-opacity:1"
     id="path1"
     cx="8.4450111"
     cy="8.423522"
     rx="6.8752708"
     ry="6.8578653"
     class="ColorScheme-Text" />
  <ellipse
     style="fill:currentColor;stroke:none;stroke-width:0.285844;stroke-dasharray:none;stroke-opacity:1"
     id="path1-2"
     cx="8.4557552"
     cy="8.423522"
     rx="6.5738997"
     ry="6.5692253"
     class="ColorScheme-Highlight" />
  <path
     id="rect6"
     style="baseline-shift:baseline;display:inline;overflow:visible;opacity:0.3;vector-effect:none;fill:#000000;fill-opacity:1;stroke-width:0.261156;enable-background:accumulate;stop-color:#000000"
     d="m 8.4664995,5.2087495 c -2.095614,0 -3.786774,1.69116 -3.786774,3.786774 0,2.0956145 1.69116,3.7867745 3.786774,3.7867745 2.0956155,0 3.7867745,-1.69116 3.7867745,-3.7867745 0,-2.095614 -1.69116,-3.786774 -3.7867745,-3.786774 z m 0.261157,0.270339 c 0.938584,0.06786 1.7722485,0.498999 2.3621425,1.154292 l -0.01172,0.01173 v 0.261157 h 0.233609 c 0.04088,0.05573 0.08022,0.112692 0.117827,0.170874 l -0.09029,0.09028 -0.522313,0.522314 -0.261157,0.261156 -0.261156,0.783472 v 0.261157 l 0.261156,0.261156 0.261157,0.261157 0.522313,0.261156 0.596274,-0.1469 C 11.649533,11.217599 10.313063,12.425153 8.6654285,12.515525 l 0.06222,-0.124968 v -0.261154 l 0.522314,-0.261156 0.261157,-0.261158 v -0.522313 l 0.261158,-0.261157 v -0.261157 l -0.09284,-0.09283 c -0.310312,0.310304 -0.739298,0.501911 -1.212951,0.501911 -0.947261,0 -1.714863,-0.767602 -1.714862,-1.714862 6.1e-5,-0.06495 0.004,-0.129373 0.01122,-0.192807 L 6.3772295,9.256681 H 5.8549165 V 8.734369 H 5.5937605 V 8.212055 h -0.261158 l -0.261157,0.261157 h -0.09283 c 0.04249,-0.289318 0.119767,-0.566841 0.227492,-0.828357 l 0.648812,-0.216271 0.261157,0.261157 0.261157,0.261157 V 7.428584 L 6.8995465,7.167427 V 6.906271 L 7.4218605,6.645114 7.9441745,6.122801 V 6.383957 L 8.2053315,6.122801 7.9441745,5.861643 h 0.522314 V 6.122801 L 8.9888015,5.861643 8.7276445,5.600486 Z m -0.261157,1.688337 a 0.52231372,0.52231372 0 0 0 -0.522313,0.522313 0.52231372,0.52231372 0 0 0 0.0082,0.08824 1.5669411,1.5669411 0 0 0 -1.052789,1.478698 1.5669411,1.5669411 0 0 0 1.566942,1.5669415 1.5669411,1.5669411 0 0 0 1.5669405,-1.5669415 1.5669411,1.5669411 0 0 0 -0.2963515,-0.914559 0.26115686,0.26115686 0 0 0 0.0352,-0.130068 0.26115686,0.26115686 0 0 0 -0.261157,-0.261158 0.26115686,0.26115686 0 0 0 -0.130579,0.0352 1.5669411,1.5669411 0 0 0 -0.399386,-0.207599 0.52231372,0.52231372 0 0 0 0.0077,-0.08876 0.52231372,0.52231372 0 0 0 -0.522313,-0.522313 z m 0,0.261157 a 0.26115686,0.26115686 0 0 1 0.261157,0.261156 0.26115686,0.26115686 0 0 1 -0.0016,0.02193 1.5669411,1.5669411 0 0 0 -0.259616,-0.02193 1.5669411,1.5669411 0 0 0 -0.260137,0.02346 0.26115686,0.26115686 0 0 1 -9.7e-4,-0.02346 0.26115686,0.26115686 0 0 1 0.261157,-0.261156 z m 0,0.522314 a 1.3057843,1.3057843 0 0 1 0.115277,0.0056 1.3057843,1.3057843 0 0 1 0.0153,9.69e-4 1.3057843,1.3057843 0 0 1 0.03417,0.0051 1.3057843,1.3057843 0 0 1 0.08314,0.01327 1.3057843,1.3057843 0 0 1 0.0352,0.0077 1.3057843,1.3057843 0 0 1 0.09641,0.02499 1.3057843,1.3057843 0 0 1 0.02704,0.0082 1.3057843,1.3057843 0 0 1 5.1e-4,0 1.3057843,1.3057843 0 0 1 0.01633,0.0061 1.3057843,1.3057843 0 0 1 0.08926,0.03469 1.3057843,1.3057843 0 0 1 0.03469,0.01581 1.3057843,1.3057843 0 0 1 0.08569,0.04336 1.3057843,1.3057843 0 0 1 0.02295,0.01327 1.3057843,1.3057843 0 0 1 0.09538,0.06121 1.3057843,1.3057843 0 0 1 0.0036,0.0021 1.3057843,1.3057843 0 0 1 0.01581,0.01172 1.3057843,1.3057843 0 0 1 0.01274,0.0092 1.3057843,1.3057843 0 0 1 0.259118,0.259118 1.3057843,1.3057843 0 0 1 5.1e-4,9.69e-4 1.3057843,1.3057843 0 0 1 0.06937,0.102014 1.3057843,1.3057843 0 0 1 0.0036,0.0051 1.3057843,1.3057843 0 0 1 0.0021,0.004 1.3057843,1.3057843 0 0 1 0.05866,0.108644 1.3057843,1.3057843 0 0 1 9.7e-4,0.0021 1.3057843,1.3057843 0 0 1 9.7e-4,0.0021 1.3057843,1.3057843 0 0 1 0.04591,0.110176 1.3057843,1.3057843 0 0 1 0.0056,0.0153 1.3057843,1.3057843 0 0 1 0.03111,0.101504 1.3057843,1.3057843 0 0 1 0.0082,0.03214 1.3057843,1.3057843 0 0 1 0.01683,0.08416 1.3057843,1.3057843 0 0 1 0.0082,0.05254 1.3057843,1.3057843 0 0 1 0.0066,0.07294 1.3057843,1.3057843 0 0 1 0.0045,0.08978 1.3057843,1.3057843 0 0 1 -0.0056,0.115276 1.3057843,1.3057843 0 0 1 -0.0066,0.05457 1.3057843,1.3057843 0 0 1 -0.01122,0.07192 1.3057843,1.3057843 0 0 1 -0.01377,0.06172 1.3057843,1.3057843 0 0 1 -0.01581,0.06325 1.3057843,1.3057843 0 0 1 -0.02193,0.06529 1.3057843,1.3057843 0 0 1 -0.02092,0.05763 1.3057843,1.3057843 0 0 1 -0.03111,0.06834 1.3057843,1.3057843 0 0 1 -0.02245,0.04642 1.3057843,1.3057843 0 0 1 -0.03775,0.06631 1.3057843,1.3057843 0 0 1 -0.03009,0.04897 1.3057843,1.3057843 0 0 1 -0.04132,0.05763 1.3057843,1.3057843 0 0 1 -0.0357,0.04693 1.3057843,1.3057843 0 0 1 -0.0454,0.05203 1.3057843,1.3057843 0 0 1 -0.04335,0.04641 1.3057843,1.3057843 0 0 1 -0.04642,0.04335 1.3057843,1.3057843 0 0 1 -0.05203,0.0454 1.3057843,1.3057843 0 0 1 -0.04693,0.0357 1.3057843,1.3057843 0 0 1 -0.05764,0.04132 1.3057843,1.3057843 0 0 1 -0.04897,0.03009 1.3057843,1.3057843 0 0 1 -0.06631,0.03774 1.3057843,1.3057843 0 0 1 -0.04641,0.02245 1.3057843,1.3057843 0 0 1 -0.06835,0.03111 1.3057843,1.3057843 0 0 1 -0.05764,0.02092 1.3057843,1.3057843 0 0 1 -0.06528,0.02193 1.3057843,1.3057843 0 0 1 -0.06325,0.01581 1.3057843,1.3057843 0 0 1 -0.06172,0.01377 1.3057843,1.3057843 0 0 1 -0.07192,0.01122 1.3057843,1.3057843 0 0 1 -0.05457,0.0066 1.3057843,1.3057843 0 0 1 -0.115278,0.0056 1.3057843,1.3057843 0 0 1 -0.115276,-0.0056 1.3057843,1.3057843 0 0 1 -0.05457,-0.0066 1.3057843,1.3057843 0 0 1 -0.07192,-0.01122 1.3057843,1.3057843 0 0 1 -0.06172,-0.01377 1.3057843,1.3057843 0 0 1 -0.06325,-0.01581 1.3057843,1.3057843 0 0 1 -0.06528,-0.02193 1.3057843,1.3057843 0 0 1 -0.05763,-0.02092 1.3057843,1.3057843 0 0 1 -0.06834,-0.03111 1.3057843,1.3057843 0 0 1 -0.04642,-0.02245 1.3057843,1.3057843 0 0 1 -0.06631,-0.03774 1.3057843,1.3057843 0 0 1 -0.04897,-0.03009 1.3057843,1.3057843 0 0 1 -0.05763,-0.04132 1.3057843,1.3057843 0 0 1 -0.04693,-0.0357 1.3057843,1.3057843 0 0 1 -0.05203,-0.0454 1.3057843,1.3057843 0 0 1 -0.04641,-0.04335 1.3057843,1.3057843 0 0 1 -0.04335,-0.04641 1.3057843,1.3057843 0 0 1 -0.0454,-0.05203 1.3057843,1.3057843 0 0 1 -0.0357,-0.04693 1.3057843,1.3057843 0 0 1 -0.04132,-0.05763 1.3057843,1.3057843 0 0 1 -0.03009,-0.04897 1.3057843,1.3057843 0 0 1 -0.03775,-0.06631 1.3057843,1.3057843 0 0 1 -0.02245,-0.04641 1.3057843,1.3057843 0 0 1 -0.03111,-0.06834 1.3057843,1.3057843 0 0 1 -0.02092,-0.05764 1.3057843,1.3057843 0 0 1 -0.02193,-0.06528 1.3057843,1.3057843 0 0 1 -0.01581,-0.06325 1.3057843,1.3057843 0 0 1 -0.01377,-0.06172 1.3057843,1.3057843 0 0 1 -0.01122,-0.07192 1.3057843,1.3057843 0 0 1 -0.0066,-0.05457 1.3057843,1.3057843 0 0 1 -0.0056,-0.115278 1.3057843,1.3057843 0 0 1 0.0056,-0.115276 1.3057843,1.3057843 0 0 1 0.0061,-0.04947 1.3057843,1.3057843 0 0 1 0.01327,-0.08314 1.3057843,1.3057843 0 0 1 0.0082,-0.03774 1.3057843,1.3057843 0 0 1 0.02295,-0.08926 1.3057843,1.3057843 0 0 1 0.01224,-0.03723 1.3057843,1.3057843 0 0 1 0.03061,-0.08416 1.3057843,1.3057843 0 0 1 0.01887,-0.04182 1.3057843,1.3057843 0 0 1 0.03774,-0.07702 1.3057843,1.3057843 0 0 1 0.01785,-0.03162 1.3057843,1.3057843 0 0 1 0.05101,-0.08314 1.3057843,1.3057843 0 0 1 0.01633,-0.02245 1.3057843,1.3057843 0 0 1 0.06427,-0.08416 1.3057843,1.3057843 0 0 1 0.0102,-0.01172 1.3057843,1.3057843 0 0 1 0.08212,-0.08773 1.3057843,1.3057843 0 0 1 0.09641,-0.08467 1.3057843,1.3057843 0 0 1 0.0061,-0.0051 1.3057843,1.3057843 0 0 1 0.09844,-0.06989 1.3057843,1.3057843 0 0 1 0.01071,-0.0066 1.3057843,1.3057843 0 0 1 0.106094,-0.06069 1.3057843,1.3057843 0 0 1 0.118847,-0.05305 1.3057843,1.3057843 0 0 1 0.292782,-0.076 1.3057843,1.3057843 0 0 1 0.0066,-9.7e-4 1.3057843,1.3057843 0 0 1 0.0056,-5.1e-4 1.3057843,1.3057843 0 0 1 0.09691,-0.0087 1.3057843,1.3057843 0 0 1 0.02958,-0.0021 1.3057843,1.3057843 0 0 1 0.0403,-0.0015 z m 0,0.261157 v 0.78347 a 0.26115686,0.26115686 0 0 1 0.261157,0.261157 h 0.783471 a 1.0446274,1.0446274 0 0 0 -0.0046,-0.08824 1.0446274,1.0446274 0 0 0 -0.0066,-0.05509 1.0446274,1.0446274 0 0 0 -0.0071,-0.04845 1.0446274,1.0446274 0 0 0 -0.01327,-0.05815 1.0446274,1.0446274 0 0 0 -0.01021,-0.04029 1.0446274,1.0446274 0 0 0 -0.01836,-0.0561 1.0446274,1.0446274 0 0 0 -0.01734,-0.04693 1.0446274,1.0446274 0 0 0 -0.0204,-0.0454 1.0446274,1.0446274 0 0 0 -0.02346,-0.04845 1.0446274,1.0446274 0 0 0 -0.02448,-0.04285 1.0446274,1.0446274 0 0 0 -0.0301,-0.04897 1.0446274,1.0446274 0 0 0 -0.0255,-0.0352 1.0446274,1.0446274 0 0 0 -0.03673,-0.04845 1.0446274,1.0446274 0 0 0 -0.02958,-0.03367 1.0446274,1.0446274 0 0 0 -0.03876,-0.04182 1.0446274,1.0446274 0 0 0 -0.04182,-0.03876 1.0446274,1.0446274 0 0 0 -0.03367,-0.02958 1.0446274,1.0446274 0 0 0 -0.04845,-0.03673 1.0446274,1.0446274 0 0 0 -0.0352,-0.02551 1.0446274,1.0446274 0 0 0 -0.04897,-0.03009 1.0446274,1.0446274 0 0 0 -0.04285,-0.02448 1.0446274,1.0446274 0 0 0 -0.04845,-0.02346 1.0446274,1.0446274 0 0 0 -0.0454,-0.0204 1.0446274,1.0446274 0 0 0 -0.04693,-0.01734 1.0446274,1.0446274 0 0 0 -0.05611,-0.01836 1.0446274,1.0446274 0 0 0 -0.04029,-0.0102 1.0446274,1.0446274 0 0 0 -0.05815,-0.01327 1.0446274,1.0446274 0 0 0 -0.04846,-0.0071 1.0446274,1.0446274 0 0 0 -0.05509,-0.0066 1.0446274,1.0446274 0 0 0 -0.08824,-0.0046 z m -3.520516,0.590153 0.386634,0.193317 0.261158,0.261157 0.522313,0.261157 0.261157,0.261156 -0.261157,0.2611575 v 0.522314 l 0.261157,0.522313 0.522313,0.522314 v 0.550879 c -1.163421,-0.57428 -1.958676,-1.770807 -1.958676,-3.1624475 0,-0.06484 0.0017,-0.129369 0.0051,-0.193317 z m 2.369795,0.332057 c -8.17e-4,0.0074 -0.0017,0.01509 -0.0026,0.02295 -0.003,0.03207 -0.0051,0.0662 -0.0051,0.09997 1.15e-4,0.03276 0.002,0.06675 0.0051,0.100995 0.0016,0.0154 0.0034,0.03168 0.0056,0.04693 l 9.7e-4,0.0016 v 9.7e-4 c 0.0028,0.02134 0.0057,0.04248 0.0097,0.06376 0.0034,0.01663 0.0078,0.03533 0.01224,0.05304 l 5.1e-4,0.0021 v 0.0016 c 0.0038,0.01736 0.0087,0.0354 0.01377,0.05407 l 5.1e-4,0.0021 c 0.0056,0.01807 0.01187,0.03581 0.01836,0.05356 l 5.1e-4,0.0021 5.1e-4,0.0016 c 0.0056,0.0167 0.01161,0.0334 0.01785,0.04948 l 5.11e-4,0.0016 c 0.0081,0.01918 0.01717,0.03801 0.02652,0.05713 l 5.11e-4,0.0016 9.69e-4,0.0016 c 0.0066,0.01428 0.01326,0.02831 0.01989,0.04132 0.0096,0.01797 0.02056,0.03765 0.03213,0.05662 l 5.1e-4,9.7e-4 9.7e-4,0.0016 c 0.0077,0.01317 0.01571,0.02657 0.02448,0.04029 3.4e-4,5.1e-4 6.64e-4,0.0011 9.7e-4,0.0016 l 9.7e-4,0.0016 c 0.01122,0.01647 0.02293,0.03249 0.03469,0.04794 l 9.69e-4,0.0016 9.7e-4,9.69e-4 c 0.0098,0.01341 0.01933,0.02688 0.02958,0.03979 v 5.11e-4 h 5.11e-4 v 5.1e-4 h 5.09e-4 l 9.7e-4,9.7e-4 c 0.01262,0.015161 0.02526,0.02977 0.03826,0.04386 l 9.7e-4,9.7e-4 9.7e-4,9.7e-4 c 0.01202,0.01354 0.02477,0.02703 0.03774,0.04029 0.01263,0.01241 0.02573,0.0252 0.03979,0.03774 0.01689,0.01548 0.03248,0.02856 0.04794,0.04132 0.01176,0.0094 0.0256,0.0198 0.03979,0.0301 l 9.7e-4,9.7e-4 0.0016,9.7e-4 c 0.01547,0.01175 0.03149,0.02345 0.04794,0.03469 5.1e-4,3.39e-4 9.69e-4,6.63e-4 0.0016,9.69e-4 l 0.0016,9.7e-4 c 0.01373,0.0088 0.02712,0.01682 0.04029,0.02448 l 0.0016,9.7e-4 9.7e-4,5.1e-4 c 0.01807,0.01103 0.03687,0.02182 0.0561,0.03214 l 5.11e-4,5.1e-4 h 5.1e-4 5.1e-4 c 0.0137,0.0069 0.02669,0.01364 0.03928,0.01938 l 0.0021,9.7e-4 0.0021,9.7e-4 c 0.01874,0.0093 0.03828,0.01785 0.05866,0.02652 l 0.0021,9.7e-4 c 0.01571,0.006 0.03132,0.01159 0.04693,0.01683 l 0.0021,5.1e-4 0.0021,5.11e-4 c 0.01842,0.0067 0.03683,0.01308 0.0556,0.01887 0.01837,0.0051 0.03653,0.0099 0.05407,0.01377 h 0.0021 l 0.0016,5.11e-4 c 0.01772,0.0044 0.03638,0.0085 0.05509,0.01224 0.01902,0.0036 0.04032,0.0069 0.06172,0.0097 0.01803,0.0026 0.03405,0.0044 0.05101,0.0061 0.03273,0.0031 0.06672,0.0051 0.100484,0.0051 0.03275,-1.16e-4 0.06675,-0.002 0.100994,-0.0051 0.01541,-0.0016 0.03168,-0.0034 0.04693,-0.0056 l 0.0016,-5.1e-4 h 9.7e-4 c 0.02134,-0.0028 0.04247,-0.0057 0.06376,-0.0097 0.01663,-0.0034 0.03534,-0.0078 0.05305,-0.01224 l 0.0021,-5.1e-4 h 0.0016 c 0.01736,-0.0038 0.0354,-0.0087 0.05407,-0.01377 0.01875,-0.0058 0.03719,-0.01215 0.0556,-0.01887 l 0.0021,-5.11e-4 0.0016,-5.1e-4 c 0.01619,-0.0054 0.03233,-0.01131 0.04794,-0.01734 h 5.1e-4 l 5.1e-4,-5.1e-4 h 5.11e-4 l 0.0016,-5.11e-4 c 0.01918,-0.0081 0.038,-0.01717 0.05713,-0.02652 l 0.0016,-5.11e-4 0.0016,-9.69e-4 c 0.01429,-0.0066 0.02831,-0.01326 0.04132,-0.01989 0.01797,-0.0096 0.03765,-0.02056 0.05662,-0.03214 l 9.7e-4,-5.1e-4 0.0016,-9.7e-4 c 0.01368,-0.008 0.02753,-0.01635 0.04182,-0.0255 0.017,-0.01155 0.03353,-0.02358 0.04947,-0.0357 l 0.0016,-9.7e-4 9.69e-4,-9.69e-4 5.11e-4,-5.11e-4 -0.429755,-0.143386 -0.261156,-0.2611565 -0.261157,-0.261156 h -0.261157 l -0.261157,-0.261156 z" />
  <path
     id="rect6-5"
     class="ColorScheme-Text"
     style="baseline-shift:baseline;display:inline;overflow:visible;vector-effect:none;fill:currentColor;fill-opacity:1;stroke-width:0.261156;enable-background:accumulate;stop-color:#000000"
     d="m 8.4664995,4.6797255 c -2.095614,0 -3.786774,1.69116 -3.786774,3.786774 0,2.0956155 1.69116,3.7867745 3.786774,3.7867745 2.0956165,0 3.7867755,-1.691159 3.7867755,-3.7867745 0,-2.095614 -1.69116,-3.786774 -3.7867755,-3.786774 z m 0.261157,0.270339 c 0.938584,0.06786 1.7722485,0.498999 2.3621435,1.154292 l -0.01172,0.01173 v 0.261157 h 0.233609 c 0.04088,0.05573 0.08022,0.112692 0.117827,0.170874 l -0.09029,0.09028 -0.522313,0.522314 -0.261157,0.261156 -0.261156,0.783472 v 0.261157 l 0.261156,0.261156 0.261157,0.261157 0.522313,0.261156 0.596274,-0.1469 C 11.649534,10.688575 10.313064,11.896129 8.6654285,11.986501 l 0.06222,-0.124968 v -0.261154 l 0.522314,-0.261156 0.261157,-0.261158 v -0.522313 l 0.261158,-0.261156 v -0.261158 l -0.09284,-0.09283 c -0.310312,0.3103035 -0.739298,0.5019115 -1.212951,0.5019115 -0.947261,0 -1.714863,-0.7676025 -1.714862,-1.7148625 6.1e-5,-0.06495 0.004,-0.129373 0.01122,-0.192807 l -0.385615,0.192807 h -0.522313 v -0.522312 h -0.261156 v -0.522314 h -0.261158 l -0.261157,0.261157 h -0.09283 c 0.04249,-0.289318 0.119767,-0.566841 0.227492,-0.828357 l 0.648812,-0.216271 0.261157,0.261157 0.261157,0.261157 v -0.522314 l 0.522313,-0.261157 v -0.261156 l 0.522314,-0.261157 0.522314,-0.522313 v 0.261156 l 0.261157,-0.261156 -0.261157,-0.261158 h 0.522314 v 0.261158 l 0.522313,-0.261158 -0.261157,-0.261157 z m -0.261157,1.688337 a 0.52231372,0.52231372 0 0 0 -0.522313,0.522313 0.52231372,0.52231372 0 0 0 0.0082,0.08824 1.5669411,1.5669411 0 0 0 -1.052789,1.478698 1.5669411,1.5669411 0 0 0 1.566942,1.5669415 1.5669411,1.5669411 0 0 0 1.5669405,-1.5669415 1.5669411,1.5669411 0 0 0 -0.2963515,-0.914559 0.26115686,0.26115686 0 0 0 0.0352,-0.130068 0.26115686,0.26115686 0 0 0 -0.261157,-0.261158 0.26115686,0.26115686 0 0 0 -0.130579,0.0352 1.5669411,1.5669411 0 0 0 -0.399386,-0.207599 0.52231372,0.52231372 0 0 0 0.0077,-0.08876 0.52231372,0.52231372 0 0 0 -0.522313,-0.522313 z m 0,0.261157 a 0.26115686,0.26115686 0 0 1 0.261157,0.261156 0.26115686,0.26115686 0 0 1 -0.0016,0.02193 1.5669411,1.5669411 0 0 0 -0.259616,-0.02193 1.5669411,1.5669411 0 0 0 -0.260137,0.02346 0.26115686,0.26115686 0 0 1 -9.7e-4,-0.02346 0.26115686,0.26115686 0 0 1 0.261157,-0.261156 z m 0,0.522314 a 1.3057843,1.3057843 0 0 1 0.115277,0.0056 1.3057843,1.3057843 0 0 1 0.0153,9.69e-4 1.3057843,1.3057843 0 0 1 0.03417,0.0051 1.3057843,1.3057843 0 0 1 0.08314,0.01327 1.3057843,1.3057843 0 0 1 0.0352,0.0077 1.3057843,1.3057843 0 0 1 0.09641,0.02499 1.3057843,1.3057843 0 0 1 0.02704,0.0082 1.3057843,1.3057843 0 0 1 5.1e-4,0 1.3057843,1.3057843 0 0 1 0.01633,0.0061 1.3057843,1.3057843 0 0 1 0.08926,0.03469 1.3057843,1.3057843 0 0 1 0.03469,0.01581 1.3057843,1.3057843 0 0 1 0.08569,0.04336 1.3057843,1.3057843 0 0 1 0.02295,0.01327 1.3057843,1.3057843 0 0 1 0.09538,0.06121 1.3057843,1.3057843 0 0 1 0.0036,0.0021 1.3057843,1.3057843 0 0 1 0.01581,0.01172 1.3057843,1.3057843 0 0 1 0.01274,0.0092 1.3057843,1.3057843 0 0 1 0.259118,0.259118 1.3057843,1.3057843 0 0 1 5.1e-4,9.69e-4 1.3057843,1.3057843 0 0 1 0.06937,0.102014 1.3057843,1.3057843 0 0 1 0.0036,0.0051 1.3057843,1.3057843 0 0 1 0.0021,0.004 1.3057843,1.3057843 0 0 1 0.05866,0.108644 1.3057843,1.3057843 0 0 1 9.7e-4,0.0021 1.3057843,1.3057843 0 0 1 9.7e-4,0.0021 1.3057843,1.3057843 0 0 1 0.04591,0.110176 1.3057843,1.3057843 0 0 1 0.0056,0.0153 1.3057843,1.3057843 0 0 1 0.03111,0.101504 1.3057843,1.3057843 0 0 1 0.0082,0.03214 1.3057843,1.3057843 0 0 1 0.01683,0.08416 1.3057843,1.3057843 0 0 1 0.0082,0.05254 1.3057843,1.3057843 0 0 1 0.0066,0.07294 1.3057843,1.3057843 0 0 1 0.0045,0.08978 1.3057843,1.3057843 0 0 1 -0.0056,0.115276 1.3057843,1.3057843 0 0 1 -0.0066,0.05457 1.3057843,1.3057843 0 0 1 -0.01122,0.07192 1.3057843,1.3057843 0 0 1 -0.01377,0.06172 1.3057843,1.3057843 0 0 1 -0.01581,0.06325 1.3057843,1.3057843 0 0 1 -0.02193,0.06529 1.3057843,1.3057843 0 0 1 -0.02092,0.05763 1.3057843,1.3057843 0 0 1 -0.03111,0.06834 1.3057843,1.3057843 0 0 1 -0.02245,0.04642 1.3057843,1.3057843 0 0 1 -0.03775,0.06631 1.3057843,1.3057843 0 0 1 -0.03009,0.04897 1.3057843,1.3057843 0 0 1 -0.04132,0.05763 1.3057843,1.3057843 0 0 1 -0.0357,0.04693 1.3057843,1.3057843 0 0 1 -0.0454,0.05203 1.3057843,1.3057843 0 0 1 -0.04335,0.04641 1.3057843,1.3057843 0 0 1 -0.04642,0.04335 1.3057843,1.3057843 0 0 1 -0.05203,0.0454 1.3057843,1.3057843 0 0 1 -0.04693,0.0357 1.3057843,1.3057843 0 0 1 -0.05764,0.04132 1.3057843,1.3057843 0 0 1 -0.04897,0.03009 1.3057843,1.3057843 0 0 1 -0.06631,0.03774 1.3057843,1.3057843 0 0 1 -0.04641,0.02245 1.3057843,1.3057843 0 0 1 -0.06835,0.03111 1.3057843,1.3057843 0 0 1 -0.05764,0.02092 1.3057843,1.3057843 0 0 1 -0.06528,0.02193 1.3057843,1.3057843 0 0 1 -0.06325,0.01581 1.3057843,1.3057843 0 0 1 -0.06172,0.01377 1.3057843,1.3057843 0 0 1 -0.07192,0.01122 1.3057843,1.3057843 0 0 1 -0.05457,0.0066 1.3057843,1.3057843 0 0 1 -0.115278,0.0056 1.3057843,1.3057843 0 0 1 -0.115276,-0.0056 1.3057843,1.3057843 0 0 1 -0.05457,-0.0066 1.3057843,1.3057843 0 0 1 -0.07192,-0.01122 1.3057843,1.3057843 0 0 1 -0.06172,-0.01377 1.3057843,1.3057843 0 0 1 -0.06325,-0.01581 1.3057843,1.3057843 0 0 1 -0.06528,-0.02193 1.3057843,1.3057843 0 0 1 -0.05763,-0.02092 1.3057843,1.3057843 0 0 1 -0.06834,-0.03111 1.3057843,1.3057843 0 0 1 -0.04642,-0.02245 1.3057843,1.3057843 0 0 1 -0.06631,-0.03774 1.3057843,1.3057843 0 0 1 -0.04897,-0.03009 1.3057843,1.3057843 0 0 1 -0.05763,-0.04132 1.3057843,1.3057843 0 0 1 -0.04693,-0.0357 1.3057843,1.3057843 0 0 1 -0.05203,-0.0454 1.3057843,1.3057843 0 0 1 -0.04641,-0.04335 1.3057843,1.3057843 0 0 1 -0.04335,-0.04641 1.3057843,1.3057843 0 0 1 -0.0454,-0.05203 1.3057843,1.3057843 0 0 1 -0.0357,-0.04693 1.3057843,1.3057843 0 0 1 -0.04132,-0.05763 1.3057843,1.3057843 0 0 1 -0.03009,-0.04897 1.3057843,1.3057843 0 0 1 -0.03775,-0.06631 1.3057843,1.3057843 0 0 1 -0.02245,-0.04641 1.3057843,1.3057843 0 0 1 -0.03111,-0.06834 1.3057843,1.3057843 0 0 1 -0.02092,-0.05764 1.3057843,1.3057843 0 0 1 -0.02193,-0.06528 1.3057843,1.3057843 0 0 1 -0.01581,-0.06325 1.3057843,1.3057843 0 0 1 -0.01377,-0.06172 1.3057843,1.3057843 0 0 1 -0.01122,-0.07192 1.3057843,1.3057843 0 0 1 -0.0066,-0.05457 1.3057843,1.3057843 0 0 1 -0.0056,-0.115278 1.3057843,1.3057843 0 0 1 0.0056,-0.115276 1.3057843,1.3057843 0 0 1 0.0061,-0.04947 1.3057843,1.3057843 0 0 1 0.01327,-0.08314 1.3057843,1.3057843 0 0 1 0.0082,-0.03774 1.3057843,1.3057843 0 0 1 0.02295,-0.08926 1.3057843,1.3057843 0 0 1 0.01224,-0.03723 1.3057843,1.3057843 0 0 1 0.03061,-0.08416 1.3057843,1.3057843 0 0 1 0.01887,-0.04182 1.3057843,1.3057843 0 0 1 0.03774,-0.07702 1.3057843,1.3057843 0 0 1 0.01785,-0.03162 1.3057843,1.3057843 0 0 1 0.05101,-0.08314 1.3057843,1.3057843 0 0 1 0.01633,-0.02245 1.3057843,1.3057843 0 0 1 0.06427,-0.08416 1.3057843,1.3057843 0 0 1 0.0102,-0.01172 1.3057843,1.3057843 0 0 1 0.08212,-0.08773 1.3057843,1.3057843 0 0 1 0.09641,-0.08467 1.3057843,1.3057843 0 0 1 0.0061,-0.0051 1.3057843,1.3057843 0 0 1 0.09844,-0.06989 1.3057843,1.3057843 0 0 1 0.01071,-0.0066 1.3057843,1.3057843 0 0 1 0.106094,-0.06069 1.3057843,1.3057843 0 0 1 0.118847,-0.05305 1.3057843,1.3057843 0 0 1 0.292782,-0.076 1.3057843,1.3057843 0 0 1 0.0066,-9.7e-4 1.3057843,1.3057843 0 0 1 0.0056,-5.1e-4 1.3057843,1.3057843 0 0 1 0.09691,-0.0087 1.3057843,1.3057843 0 0 1 0.02958,-0.0021 1.3057843,1.3057843 0 0 1 0.0403,-0.0015 z m 0,0.261157 v 0.78347 a 0.26115686,0.26115686 0 0 1 0.261157,0.261157 h 0.783471 a 1.0446274,1.0446274 0 0 0 -0.0046,-0.08824 1.0446274,1.0446274 0 0 0 -0.0066,-0.05509 1.0446274,1.0446274 0 0 0 -0.0071,-0.04845 1.0446274,1.0446274 0 0 0 -0.01327,-0.05815 1.0446274,1.0446274 0 0 0 -0.01021,-0.04029 1.0446274,1.0446274 0 0 0 -0.01836,-0.0561 1.0446274,1.0446274 0 0 0 -0.01734,-0.04693 1.0446274,1.0446274 0 0 0 -0.0204,-0.0454 1.0446274,1.0446274 0 0 0 -0.02346,-0.04845 1.0446274,1.0446274 0 0 0 -0.02448,-0.04285 1.0446274,1.0446274 0 0 0 -0.0301,-0.04897 1.0446274,1.0446274 0 0 0 -0.0255,-0.0352 1.0446274,1.0446274 0 0 0 -0.03673,-0.04845 1.0446274,1.0446274 0 0 0 -0.02958,-0.03367 1.0446274,1.0446274 0 0 0 -0.03876,-0.04182 1.0446274,1.0446274 0 0 0 -0.04182,-0.03876 1.0446274,1.0446274 0 0 0 -0.03367,-0.02958 1.0446274,1.0446274 0 0 0 -0.04845,-0.03673 1.0446274,1.0446274 0 0 0 -0.0352,-0.02551 1.0446274,1.0446274 0 0 0 -0.04897,-0.03009 1.0446274,1.0446274 0 0 0 -0.04285,-0.02448 1.0446274,1.0446274 0 0 0 -0.04845,-0.02346 1.0446274,1.0446274 0 0 0 -0.0454,-0.0204 1.0446274,1.0446274 0 0 0 -0.04693,-0.01734 1.0446274,1.0446274 0 0 0 -0.05611,-0.01836 1.0446274,1.0446274 0 0 0 -0.04029,-0.0102 1.0446274,1.0446274 0 0 0 -0.05815,-0.01327 1.0446274,1.0446274 0 0 0 -0.04846,-0.0071 1.0446274,1.0446274 0 0 0 -0.05509,-0.0066 1.0446274,1.0446274 0 0 0 -0.08824,-0.0046 z m -3.520516,0.590153 0.386634,0.193317 0.261158,0.261157 0.522313,0.261157 0.261157,0.261156 -0.261157,0.261157 V 10.03344 l 0.261157,0.522314 0.522313,0.522314 v 0.550878 c -1.163421,-0.574279 -1.958676,-1.7708065 -1.958676,-3.1624465 0,-0.06484 0.0017,-0.129369 0.0051,-0.193317 z m 2.369795,0.332057 c -8.17e-4,0.0074 -0.0017,0.01509 -0.0026,0.02295 -0.003,0.03207 -0.0051,0.0662 -0.0051,0.09997 1.15e-4,0.03276 0.002,0.06675 0.0051,0.100995 0.0016,0.0154 0.0034,0.03168 0.0056,0.04693 l 9.7e-4,0.0016 v 9.7e-4 c 0.0028,0.02134 0.0057,0.04248 0.0097,0.06376 0.0034,0.01663 0.0078,0.03533 0.01224,0.05304 l 5.1e-4,0.0021 v 0.0016 c 0.0038,0.01736 0.0087,0.0354 0.01377,0.05407 l 5.1e-4,0.0021 c 0.0056,0.01807 0.01187,0.03581 0.01836,0.05356 l 5.1e-4,0.0021 5.1e-4,0.0016 c 0.0056,0.0167 0.01161,0.0334 0.01785,0.04948 l 5.11e-4,0.0016 c 0.0081,0.01918 0.01717,0.03801 0.02652,0.05713 l 5.11e-4,0.0016 9.69e-4,0.0016 c 0.0066,0.01428 0.01326,0.02831 0.01989,0.04132 0.0096,0.01797 0.02056,0.03765 0.03213,0.05662 l 5.1e-4,9.7e-4 9.7e-4,0.0016 c 0.0077,0.01317 0.01571,0.02657 0.02448,0.04029 3.4e-4,5.1e-4 6.64e-4,0.0011 9.7e-4,0.0016 l 9.7e-4,0.0016 c 0.01122,0.01647 0.02293,0.03249 0.03469,0.04794 l 9.69e-4,0.0016 9.7e-4,9.69e-4 c 0.0098,0.01341 0.01933,0.02688 0.02958,0.03979 v 5.11e-4 h 5.11e-4 v 5.1e-4 h 5.09e-4 l 9.7e-4,9.7e-4 c 0.01262,0.01516 0.02526,0.02977 0.03826,0.04386 l 9.7e-4,9.7e-4 9.7e-4,9.7e-4 c 0.01202,0.01354 0.02477,0.02703 0.03774,0.04029 0.01263,0.01241 0.02573,0.0252 0.03979,0.03774 0.01689,0.01548 0.03248,0.02856 0.04794,0.04132 0.01176,0.0094 0.0256,0.0198 0.03979,0.0301 l 9.7e-4,9.7e-4 0.0016,9.7e-4 c 0.01547,0.01175 0.03149,0.02345 0.04794,0.03469 5.1e-4,3.39e-4 9.69e-4,6.63e-4 0.0016,9.69e-4 l 0.0016,9.7e-4 c 0.01373,0.0088 0.02712,0.01682 0.04029,0.02448 l 0.0016,9.7e-4 9.7e-4,5.1e-4 c 0.01807,0.01103 0.03687,0.02182 0.0561,0.03214 l 5.11e-4,5.1e-4 h 5.1e-4 5.1e-4 c 0.0137,0.0069 0.02669,0.01364 0.03928,0.01938 l 0.0021,9.7e-4 0.0021,9.7e-4 c 0.01874,0.0093 0.03828,0.01785 0.05866,0.02652 l 0.0021,9.7e-4 c 0.01571,0.006 0.03132,0.01159 0.04693,0.01683 l 0.0021,5.1e-4 0.0021,5.11e-4 c 0.01842,0.0067 0.03683,0.01308 0.0556,0.01887 0.01837,0.0051 0.03653,0.0099 0.05407,0.01377 h 0.0021 l 0.0016,5.11e-4 c 0.01772,0.0044 0.03638,0.0085 0.05509,0.01224 0.01902,0.0036 0.04032,0.0069 0.06172,0.0097 0.01803,0.0026 0.03405,0.0044 0.05101,0.0061 0.03273,0.0031 0.06672,0.0051 0.100484,0.0051 0.03275,-1.16e-4 0.06675,-0.002 0.100994,-0.0051 0.01541,-0.0016 0.03168,-0.0034 0.04693,-0.0056 l 0.0016,-5.1e-4 h 9.7e-4 c 0.02134,-0.0028 0.04247,-0.0057 0.06376,-0.0097 0.01663,-0.0034 0.03534,-0.0078 0.05305,-0.01224 l 0.0021,-5.1e-4 h 0.0016 c 0.01736,-0.0038 0.0354,-0.0087 0.05407,-0.01377 0.01875,-0.0058 0.03719,-0.01215 0.0556,-0.01887 l 0.0021,-5.11e-4 0.0016,-5.1e-4 c 0.01619,-0.0054 0.03233,-0.01131 0.04794,-0.01734 h 5.1e-4 l 5.1e-4,-5.1e-4 h 5.11e-4 l 0.0016,-5.11e-4 c 0.01918,-0.0081 0.038,-0.01717 0.05713,-0.02652 l 0.0016,-5.11e-4 0.0016,-9.69e-4 c 0.01429,-0.0066 0.02831,-0.01326 0.04132,-0.01989 0.01797,-0.0096 0.03765,-0.02056 0.05662,-0.03214 l 9.7e-4,-5.1e-4 0.0016,-9.7e-4 c 0.01368,-0.008 0.02753,-0.01635 0.04182,-0.0255 0.017,-0.01155 0.03353,-0.02358 0.04947,-0.0357 l 0.0016,-9.7e-4 9.69e-4,-9.69e-4 5.11e-4,-5.11e-4 -0.429755,-0.143386 -0.261156,-0.261156 -0.261157,-0.261156 h -0.261157 l -0.261157,-0.261156 z" />
  <path
     id="gradient-path1"
     style="opacity:0.3;baseline-shift:baseline;display:inline;overflow:visible;vector-effect:none;enable-background:accumulate;stop-color:#000000;stop-opacity:1;fill:url(#linearGradient4)"
     d="M 8.4453131 1.2753492 C 4.4913166 1.2753492 1.2794833 4.4784283 1.2794833 8.4236094 C 1.2794833 12.36879 4.4913166 15.572386 8.4453131 15.572386 C 12.39931 15.572386 15.611143 12.36879 15.611143 8.4236094 C 15.611143 4.4784283 12.39931 1.2753492 8.4453131 1.2753492 z " />
</svg>
