<?xml version="1.0" encoding="UTF-8" standalone="no"?>
<svg
   width="64"
   height="64"
   version="1.1"
   viewBox="0 0 16.933 16.933"
   id="svg7"
   sodipodi:docname="preferences-desktop-user.svg"
   inkscape:version="1.4.2 (ebf0e940d0, 2025-05-08)"
   xmlns:inkscape="http://www.inkscape.org/namespaces/inkscape"
   xmlns:sodipodi="http://sodipodi.sourceforge.net/DTD/sodipodi-0.dtd"
   xmlns:xlink="http://www.w3.org/1999/xlink"
   xmlns="http://www.w3.org/2000/svg"
   xmlns:svg="http://www.w3.org/2000/svg"
   xmlns:rdf="http://www.w3.org/1999/02/22-rdf-syntax-ns#"
   xmlns:cc="http://creativecommons.org/ns#"
   xmlns:dc="http://purl.org/dc/elements/1.1/">
  <sodipodi:namedview
     id="namedview7"
     pagecolor="#9c4444"
     bordercolor="#000000"
     borderopacity="0.25"
     inkscape:showpageshadow="2"
     inkscape:pageopacity="0.0"
     inkscape:pagecheckerboard="0"
     inkscape:deskcolor="#d1d1d1"
     inkscape:zoom="4.3531261"
     inkscape:cx="36.640335"
     inkscape:cy="26.188077"
     inkscape:window-width="1272"
     inkscape:window-height="1372"
     inkscape:window-x="0"
     inkscape:window-y="0"
     inkscape:window-maximized="0"
     inkscape:current-layer="svg7"
     showgrid="false" />
  <defs
     id="defs2">
    <filter
       style="color-interpolation-filters:sRGB;"
       inkscape:label="Blur"
       id="filter3"
       x="-0.10843471"
       y="-0.10870992"
       width="1.2168694"
       height="1.2174198">
      <feGaussianBlur
         stdDeviation="0.5 0.5"
         result="blur"
         id="feGaussianBlur3" />
    </filter>
    <style
       id="current-color-scheme"
       type="text/css">.ColorScheme-Text {color:#d8dee9} .ColorScheme-Highlight {color:#3b4252}</style>
    <linearGradient
       id="linearGradient3"
       inkscape:collect="always">
      <stop
         style="stop-color:#000000;stop-opacity:1;"
         offset="0"
         id="stop3" />
      <stop
         style="stop-color:#000000;stop-opacity:0;"
         offset="1"
         id="stop4" />
    </linearGradient>
    <linearGradient
       inkscape:collect="always"
       xlink:href="#linearGradient3"
       id="linearGradient4"
       x1="13.512321"
       y1="13.490874"
       x2="3.3783066"
       y2="3.3568602"
       gradientUnits="userSpaceOnUse" />
  </defs>
  <metadata
     id="metadata2">
    <rdf:RDF>
      <cc:Work
         rdf:about="">
        <dc:format>image/svg+xml</dc:format>
        <dc:type
           rdf:resource="http://purl.org/dc/dcmitype/StillImage" />
      </cc:Work>
    </rdf:RDF>
    <itype>type-a</itype>
  </metadata>
  <ellipse
     style="opacity:1;fill:none;stroke:#000000;stroke-width:0.582072;stroke-dasharray:none;stroke-opacity:1;filter:url(#filter3)"
     id="path1-5"
     cx="8.4450111"
     cy="8.423522"
     rx="6.8752708"
     ry="6.8578653" />
  <ellipse
     style="opacity:1;fill:none;stroke-width:0.58207188;stroke-opacity:1;stroke:currentColor;stroke-dasharray:none;fill-opacity:1"
     id="path1"
     cx="8.4450111"
     cy="8.423522"
     rx="6.8752708"
     ry="6.8578653"
     class="ColorScheme-Text" />
  <ellipse
     style="fill:currentColor;stroke:none;stroke-width:0.285844;stroke-dasharray:none;stroke-opacity:1"
     id="path1-2"
     cx="8.4557552"
     cy="8.423522"
     rx="6.5738997"
     ry="6.5692253"
     class="ColorScheme-Highlight" />
  <path
     id="path19"
     style="opacity:0.3;fill:#000000;fill-opacity:1;stroke:none;stroke-width:0.249576;stroke-dasharray:none;stroke-dashoffset:2.2;stroke-opacity:0.3"
     d="m 7.5069495,5.9232125 c -0.193497,0.00237 -0.389492,0.045843 -0.576656,0.1355122 -0.888927,0.4258722 -1.086777,1.5687552 -0.389962,2.25398 0.210463,0.2069622 0.430215,0.3281577 0.700957,0.3870369 0.222273,0.048339 0.309916,0.050558 0.521574,0.012186 0.51516,-0.093392 0.966919,-0.4985194 1.113829,-0.9992773 0.06928,-0.2361561 0.05938,-0.6042438 -0.02242,-0.8359812 -0.21086,-0.5973157 -0.766829,-0.9605416 -1.347319,-0.9534568 z m 2.370482,0.9227476 c -0.106191,0.00162 -0.213156,0.017372 -0.318794,0.048744 l -0.148185,0.043871 0.01755,0.2510383 c 0.03287,0.4630885 -0.139913,1.0132257 -0.417259,1.3283079 -0.06445,0.073221 -0.117476,0.1445356 -0.117476,0.1584223 0,0.033166 0.279883,0.3015185 0.3768,0.3612019 0.04162,0.025631 0.15133,0.073098 0.243726,0.1057775 0.259478,0.091775 0.6201125,0.071475 0.8779015,-0.049232 0.25724,-0.12045 0.484192,-0.338323 0.602004,-0.5776314 0.08672,-0.1761416 0.09261,-0.2076771 0.09261,-0.4903771 0,-0.2820123 -0.0062,-0.3146201 -0.09164,-0.4879397 C 10.778858,7.1005054 10.337593,6.8389566 9.8774315,6.8459601 Z m -0.191081,2.8715829 0.140386,0.092615 c 0.3242285,0.21476 0.6167355,0.546355 0.7964975,0.901788 0.09704,0.191864 0.219353,0.614279 0.219353,0.7575 v 0.111139 h 0.705343 0.705344 l -0.0097,-0.338291 C 12.23379,10.918736 12.228256,10.894363 12.125566,10.686597 11.820021,10.068454 11.039693,9.717543 9.9715135,9.717543 Z m -2.115544,0.00536 c -0.06888,6.62e-5 -0.139143,0.00128 -0.211067,0.0034 -0.601709,0.01767 -0.890842,0.065948 -1.302473,0.2174071 -0.894997,0.3293149 -1.376593,0.9993689 -1.377541,1.9166639 v 0.207655 h 2.837949 2.8379465 v -0.29491 c 0,-0.551984 -0.156234,-0.92972 -0.5415575,-1.311247 C 9.2999765,9.9528484 8.6040075,9.7219016 7.5708065,9.7228904 Z" />
  <path
     id="path19-8"
     style="fill:currentColor;fill-opacity:1;stroke:none;stroke-width:0.249576;stroke-dasharray:none;stroke-dashoffset:2.2;stroke-opacity:0.3"
     d="m 7.5069495,5.3941204 c -0.193497,0.0024 -0.389492,0.04584 -0.576656,0.135512 -0.888927,0.425873 -1.086777,1.568756 -0.389962,2.25398 0.210463,0.206963 0.430215,0.328158 0.700957,0.387037 0.222273,0.04834 0.309916,0.05056 0.521574,0.01219 0.51516,-0.09339 0.966919,-0.498519 1.113829,-0.999277 0.06928,-0.236156 0.05938,-0.604244 -0.02242,-0.835981 -0.21086,-0.597316 -0.766829,-0.960542 -1.347319,-0.953457 z m 2.370482,0.922748 c -0.106191,0.0016 -0.213156,0.01737 -0.318794,0.04874 l -0.148185,0.04387 0.01755,0.251038 c 0.03287,0.463089 -0.139913,1.013226 -0.417259,1.328308 -0.06445,0.07322 -0.117476,0.144536 -0.117476,0.158422 0,0.03317 0.279883,0.301519 0.3768,0.361202 0.04162,0.02563 0.15133,0.0731 0.243726,0.105778 0.259478,0.09178 0.6201125,0.07148 0.8779015,-0.04923 0.25724,-0.12045 0.484192,-0.338323 0.602004,-0.577632 0.08672,-0.176141 0.09261,-0.207677 0.09261,-0.490377 0,-0.282012 -0.0062,-0.31462 -0.09164,-0.487939 -0.215811,-0.437638 -0.657076,-0.699187 -1.1172375,-0.692183 z m -0.191081,2.871583 0.140386,0.09262 c 0.3242285,0.21476 0.6167355,0.546355 0.7964975,0.9017866 0.09704,0.191864 0.219353,0.61428 0.219353,0.757501 v 0.111139 h 0.705343 0.705344 l -0.0097,-0.338291 C 12.233774,10.389648 12.228254,10.365276 12.125566,10.15751 11.820021,9.5393664 11.039693,9.1884564 9.9715135,9.1884564 Z m -2.115544,0.0054 c -0.06888,6.6e-5 -0.139143,0.0013 -0.211067,0.0034 -0.601709,0.01767 -0.890842,0.06595 -1.302473,0.217407 -0.894997,0.329315 -1.376593,0.9993686 -1.377541,1.9166636 v 0.207655 h 2.837949 2.8379465 v -0.29491 c 0,-0.551984 -0.156234,-0.929721 -0.5415575,-1.3112476 -0.514087,-0.509023 -1.210056,-0.73997 -2.243257,-0.738981 z"
     class="ColorScheme-Text" />
  <path
     id="gradient-path1"
     style="opacity:0.3;baseline-shift:baseline;display:inline;overflow:visible;vector-effect:none;enable-background:accumulate;stop-color:#000000;stop-opacity:1;fill:url(#linearGradient4)"
     d="M 8.4453131 1.2753492 C 4.4913166 1.2753492 1.2794833 4.4784283 1.2794833 8.4236094 C 1.2794833 12.36879 4.4913166 15.572386 8.4453131 15.572386 C 12.39931 15.572386 15.611143 12.36879 15.611143 8.4236094 C 15.611143 4.4784283 12.39931 1.2753492 8.4453131 1.2753492 z " />
</svg>
