<?xml version='1.0' encoding='UTF-8'?>
<svg xmlns:inkscape="http://www.inkscape.org/namespaces/inkscape" xmlns:sodipodi="http://sodipodi.sourceforge.net/DTD/sodipodi-0.dtd" xmlns="http://www.w3.org/2000/svg" xmlns:svg="http://www.w3.org/2000/svg" xmlns:rdf="http://www.w3.org/1999/02/22-rdf-syntax-ns#" xmlns:cc="http://creativecommons.org/ns#" xmlns:dc="http://purl.org/dc/elements/1.1/" width="64" height="64" version="1.1" viewBox="0 0 16.933 16.933" id="svg7" sodipodi:docname="applications-graphics.svg" inkscape:version="1.4.2 (ebf0e940d0, 2025-05-08)">
  <sodipodi:namedview id="namedview7" pagecolor="#9c4444" bordercolor="#000000" borderopacity="0.25" inkscape:showpageshadow="2" inkscape:pageopacity="0.0" inkscape:pagecheckerboard="0" inkscape:deskcolor="#d1d1d1" inkscape:zoom="4.3531261" inkscape:cx="36.984915" inkscape:cy="26.073217" inkscape:window-width="1280" inkscape:window-height="669" inkscape:window-x="0" inkscape:window-y="0" inkscape:window-maximized="0" inkscape:current-layer="svg7" showgrid="false"/>
  <defs id="defs2">
    <filter style="color-interpolation-filters:sRGB;" inkscape:label="Blur" id="filter3" x="-0.10843471" y="-0.10870992" width="1.2168694" height="1.2174198">
      <feGaussianBlur stdDeviation="0.5 0.5" result="blur" id="feGaussianBlur3"/>
    </filter>
    <style id="current-color-scheme" type="text/css">.ColorScheme-Text {color:#d8dee9} .ColorScheme-Highlight {color:#3b4252}</style>
  <linearGradient id="linearGradient3" inkscape:collect="always">
      <stop style="stop-color:#000000;stop-opacity:1;" offset="0" id="stop3"/>
      <stop style="stop-color:#000000;stop-opacity:0;" offset="1" id="stop4"/>
    </linearGradient>
    <linearGradient xmlns:xlink="http://www.w3.org/1999/xlink" inkscape:collect="always" xlink:href="#linearGradient3" id="linearGradient4" x1="13.512321" y1="13.490874" x2="3.3783066" y2="3.3568602" gradientUnits="userSpaceOnUse"/>
  </defs>
  <metadata id="metadata2">
    <rdf:RDF>
      <cc:Work rdf:about="">
        <dc:format>image/svg+xml</dc:format>
        <dc:type rdf:resource="http://purl.org/dc/dcmitype/StillImage"/>
      </cc:Work>
    </rdf:RDF>
  </metadata>
  <ellipse style="opacity:1;fill:none;stroke:#000000;stroke-width:0.582072;stroke-dasharray:none;stroke-opacity:1;filter:url(#filter3)" id="path1-5" cx="8.4450111" cy="8.423522" rx="6.8752708" ry="6.8578653"/>
  <ellipse style="opacity:1;fill:none;stroke-width:0.58207188;stroke-opacity:1;stroke:currentColor;stroke-dasharray:none;fill-opacity:1" id="path1" cx="8.4450111" cy="8.423522" rx="6.8752708" ry="6.8578653" class="ColorScheme-Text"/>
  <ellipse style="fill:currentColor;stroke:none;stroke-width:0.285844;stroke-dasharray:none;stroke-opacity:1" id="path1-2" cx="8.4557552" cy="8.423522" rx="6.5738997" ry="6.5692253" class="ColorScheme-Highlight"/>
<path id="path4-3-5" style="fill:#000000;fill-opacity:1;stroke:none;stroke-width:1.62452;stroke-dasharray:none;stroke-opacity:0.3;opacity:0.3" d="M 52.5848 10.056102 C 50.441112 10.159146 40.041935 18.526267 37.610017 20.870268 C 34.476949 23.888168 27.390716 32.667853 27.390716 32.667853 L 32.686047 39.163229 C 32.686047 39.163229 39.363834 33.582243 44.029746 27.551325 C 48.211381 22.150357 53.93364 11.280432 52.897706 10.152381 C 52.83296 10.081573 52.727712 10.049233 52.5848 10.056102 z M 26.964339 33.72348 L 23.006595 39.369541 L 26.053129 43.743346 L 31.774837 39.792479 L 26.964339 33.72348 z M 21.277016 40.875615 C 20.199399 40.897171 19.259745 41.435457 18.691244 42.05503 C 17.777432 43.041463 17.168914 45.303203 16.13298 47.42257 C 15.097047 49.537054 11.752297 53.484692 11.752297 53.484692 C 11.752297 53.484692 15.153901 53.71421 16.985735 53.484692 C 20.33357 53.059842 22.831566 51.365246 23.804333 49.812346 C 24.7771 48.259446 24.897784 46.139999 24.897784 46.139999 C 24.897784 46.139999 25.446885 42.87454 23.316062 41.487673 C 22.621228 41.035354 21.923586 40.862682 21.277016 40.875615 z " transform="matrix(0.1502836,0,0,0.1502836,3.5548399,4.3585431)"/>
  <path id="path4-3" style="fill:currentColor;fill-opacity:1;stroke:none;stroke-width:1.62452;stroke-dasharray:none;stroke-opacity:0.3" class="ColorScheme-Text" d="M 52.5848 10.056102 C 50.441112 10.159146 40.041935 18.526266 37.610017 20.870268 C 34.476949 23.888168 27.390716 32.667852 27.390716 32.667852 L 32.686047 39.163229 C 32.686047 39.163229 39.363834 33.582243 44.029746 27.551325 C 48.211381 22.150357 53.93364 11.280432 52.897706 10.152381 C 52.83296 10.081572 52.727712 10.049232 52.5848 10.056102 z M 26.964339 33.72348 L 23.006595 39.36954 L 26.053129 43.743346 L 31.774837 39.792479 L 26.964339 33.72348 z M 21.277016 40.875615 C 20.199399 40.89717 19.259745 41.435456 18.691244 42.05503 C 17.777432 43.041463 17.168914 45.303203 16.13298 47.42257 C 15.097047 49.537054 11.752297 53.484692 11.752297 53.484692 C 11.752297 53.484692 15.153901 53.71421 16.985735 53.484692 C 20.33357 53.059842 22.831566 51.365245 23.804333 49.812345 C 24.7771 48.259445 24.897784 46.139999 24.897784 46.139999 C 24.897784 46.139999 25.446885 42.87454 23.316062 41.487673 C 22.621228 41.035354 21.923586 40.862682 21.277016 40.875615 z " transform="matrix(0.1502836,0,0,0.1502836,3.5548399,3.8293868)"/>
<path id="gradient-path1" style="opacity:0.3;baseline-shift:baseline;display:inline;overflow:visible;vector-effect:none;enable-background:accumulate;stop-color:#000000;stop-opacity:1;fill:url(#linearGradient4)" d="M 8.4453131 1.2753492 C 4.4913166 1.2753492 1.2794833 4.4784283 1.2794833 8.4236094 C 1.2794833 12.36879 4.4913166 15.572386 8.4453131 15.572386 C 12.39931 15.572386 15.611143 12.36879 15.611143 8.4236094 C 15.611143 4.4784283 12.39931 1.2753492 8.4453131 1.2753492 z "/>
</svg>
