<?xml version='1.0' encoding='UTF-8'?>
<svg xmlns:inkscape="http://www.inkscape.org/namespaces/inkscape" xmlns:sodipodi="http://sodipodi.sourceforge.net/DTD/sodipodi-0.dtd" xmlns="http://www.w3.org/2000/svg" xmlns:svg="http://www.w3.org/2000/svg" xmlns:rdf="http://www.w3.org/1999/02/22-rdf-syntax-ns#" xmlns:cc="http://creativecommons.org/ns#" xmlns:dc="http://purl.org/dc/elements/1.1/" width="64" height="64" version="1.1" viewBox="0 0 16.933 16.933" id="svg7" sodipodi:docname="applications-science.svg" inkscape:version="1.4.2 (ebf0e940d0, 2025-05-08)">
  <sodipodi:namedview id="namedview7" pagecolor="#9c4444" bordercolor="#000000" borderopacity="0.25" inkscape:showpageshadow="2" inkscape:pageopacity="0.0" inkscape:pagecheckerboard="0" inkscape:deskcolor="#d1d1d1" inkscape:zoom="4.3531261" inkscape:cx="36.755195" inkscape:cy="26.073217" inkscape:window-width="1280" inkscape:window-height="669" inkscape:window-x="0" inkscape:window-y="0" inkscape:window-maximized="0" inkscape:current-layer="svg7" showgrid="false"/>
  <defs id="defs2">
    <filter style="color-interpolation-filters:sRGB;" inkscape:label="Blur" id="filter3" x="-0.10843471" y="-0.10870992" width="1.2168694" height="1.2174198">
      <feGaussianBlur stdDeviation="0.5 0.5" result="blur" id="feGaussianBlur3"/>
    </filter>
    <style id="current-color-scheme" type="text/css">.ColorScheme-Text {color:#d8dee9} .ColorScheme-Highlight {color:#3b4252}</style>
  <linearGradient id="linearGradient3" inkscape:collect="always">
      <stop style="stop-color:#000000;stop-opacity:1;" offset="0" id="stop3"/>
      <stop style="stop-color:#000000;stop-opacity:0;" offset="1" id="stop4"/>
    </linearGradient>
    <linearGradient xmlns:xlink="http://www.w3.org/1999/xlink" inkscape:collect="always" xlink:href="#linearGradient3" id="linearGradient4" x1="13.512321" y1="13.490874" x2="3.3783066" y2="3.3568602" gradientUnits="userSpaceOnUse"/>
  </defs>
  <metadata id="metadata2">
    <rdf:RDF>
      <cc:Work rdf:about="">
        <dc:format>image/svg+xml</dc:format>
        <dc:type rdf:resource="http://purl.org/dc/dcmitype/StillImage"/>
      </cc:Work>
    </rdf:RDF>
  </metadata>
  <ellipse style="opacity:1;fill:none;stroke:#000000;stroke-width:0.582072;stroke-dasharray:none;stroke-opacity:1;filter:url(#filter3)" id="path1-5" cx="8.4450111" cy="8.423522" rx="6.8752708" ry="6.8578653"/>
  <ellipse style="opacity:1;fill:none;stroke-width:0.58207188;stroke-opacity:1;stroke:currentColor;stroke-dasharray:none;fill-opacity:1" id="path1" cx="8.4450111" cy="8.423522" rx="6.8752708" ry="6.8578653" class="ColorScheme-Text"/>
  <ellipse style="fill:currentColor;stroke:none;stroke-width:0.285844;stroke-dasharray:none;stroke-opacity:1" id="path1-2" cx="8.4557552" cy="8.423522" rx="6.5738997" ry="6.5692253" class="ColorScheme-Highlight"/>
<path id="path3-1-7" style="fill:#000000;fill-opacity:1;stroke:none;stroke-width:1;stroke-dasharray:none;stroke-opacity:0.3;opacity:1;stroke-dashoffset:2.2" d="m 17.130209,-30.578861 c -1.067759,-0.002 -1.878613,0.01076 -1.975782,0.03515 -0.687968,0.172669 -0.872114,0.980926 -0.326953,1.439649 0.17493,0.147194 0.360589,0.268946 0.413086,0.268946 0.05337,0 0.0969,0.579579 0.09668,1.316602 -3.29e-4,1.119838 -0.03083,1.367227 -0.200391,1.645312 -0.42403,0.695412 -2.840794,5.074825 -3.070899,5.565234 -0.177269,0.377809 -0.24172,0.698888 -0.24082,1.190039 0.0026,1.380787 0.843762,2.406462 2.202539,2.685938 0.236307,0.04861 2.152006,0.08014 4.255665,0.07032 l 3.825,-0.01758 0.601172,-0.295313 c 1.022515,-0.502086 1.592408,-1.529178 1.495898,-2.692969 -0.0542,-0.653547 -0.317726,-1.22379 -1.585547,-3.420703 -0.492163,-0.852835 -1.122518,-1.958042 -1.400976,-2.455664 l -0.50625,-0.905273 v -1.288477 -1.290234 l 0.283008,-0.175782 c 0.156352,-0.09683 0.34377,-0.246313 0.414843,-0.332227 0.191953,-0.232049 0.156185,-0.783986 -0.06855,-1.061718 l -0.196875,-0.244336 -2.877539,-0.02988 c -0.395663,-0.0042 -0.781385,-0.0064 -1.137304,-0.007 z m -0.03692,1.74375 h 0.93164 0.929883 v 1.423828 c 0,1.4039 0.0045,1.434158 0.346289,2.144532 0.190738,0.396385 0.825039,1.534518 1.408008,2.529492 1.253497,2.139383 1.863282,3.326212 1.863282,3.621094 0,0.344864 -0.298783,0.824692 -0.580078,0.931641 -0.148673,0.05653 -1.899131,0.100195 -4.085157,0.100195 h -3.826754 l -0.302344,-0.302344 c -0.523231,-0.52323 -0.453159,-0.78229 0.875391,-3.193945 0.648049,-1.176374 1.463622,-2.627125 1.810546,-3.223828 l 0.629297,-1.084571 v -1.473046 z m -0.671485,6.305274 -0.581835,1.059961 c -0.320657,0.582974 -0.756322,1.372279 -0.966798,1.756055 l -0.383202,0.697851 h 3.529687 3.529688 l -0.360352,-0.645117 c -0.198359,-0.355347 -0.632879,-1.13446 -0.965039,-1.731446 l -0.60293,-1.086328 -1.599609,-0.02637 z" transform="matrix(0.45938882,0,0,0.45938882,0.17302378,19.912352)"/>
  <path id="path3-1" style="fill:currentColor;fill-opacity:1;stroke:none;stroke-width:1;stroke-dasharray:none;stroke-opacity:0.3;opacity:1;stroke-dashoffset:2.2" d="m 17.130209,-30.578861 c -1.067759,-0.002 -1.878613,0.01076 -1.975782,0.03515 -0.687968,0.172669 -0.872114,0.980926 -0.326953,1.439649 0.17493,0.147194 0.360589,0.268946 0.413086,0.268946 0.05337,0 0.0969,0.579579 0.09668,1.316602 -3.29e-4,1.119838 -0.03083,1.367227 -0.200391,1.645312 -0.42403,0.695412 -2.840794,5.074825 -3.070899,5.565234 -0.177269,0.377809 -0.24172,0.698888 -0.24082,1.190039 0.0026,1.380787 0.843762,2.406462 2.202539,2.685938 0.236307,0.04861 2.152006,0.08014 4.255665,0.07032 l 3.825,-0.01758 0.601172,-0.295313 c 1.022515,-0.502086 1.592408,-1.529178 1.495898,-2.692969 -0.0542,-0.653547 -0.317726,-1.22379 -1.585547,-3.420703 -0.492163,-0.852835 -1.122518,-1.958042 -1.400976,-2.455664 l -0.50625,-0.905273 v -1.288477 -1.290234 l 0.283008,-0.175782 c 0.156352,-0.09683 0.34377,-0.246313 0.414843,-0.332227 0.191953,-0.232049 0.156185,-0.783986 -0.06855,-1.061718 l -0.196875,-0.244336 -2.877539,-0.02988 c -0.395663,-0.0042 -0.781385,-0.0064 -1.137304,-0.007 z m -0.03692,1.74375 h 0.93164 0.929883 v 1.423828 c 0,1.4039 0.0045,1.434158 0.346289,2.144532 0.190738,0.396385 0.825039,1.534518 1.408008,2.529492 1.253497,2.139383 1.863282,3.326212 1.863282,3.621094 0,0.344864 -0.298783,0.824692 -0.580078,0.931641 -0.148673,0.05653 -1.899131,0.100195 -4.085157,0.100195 h -3.826754 l -0.302344,-0.302344 c -0.523231,-0.52323 -0.453159,-0.78229 0.875391,-3.193945 0.648049,-1.176374 1.463622,-2.627125 1.810546,-3.223828 l 0.629297,-1.084571 v -1.473046 z m -0.671485,6.305274 -0.581835,1.059961 c -0.320657,0.582974 -0.756322,1.372279 -0.966798,1.756055 l -0.383202,0.697851 h 3.529687 3.529688 l -0.360352,-0.645117 c -0.198359,-0.355347 -0.632879,-1.13446 -0.965039,-1.731446 l -0.60293,-1.086328 -1.599609,-0.02637 z" class="ColorScheme-Text" transform="matrix(0.45938882,0,0,0.45938882,0.17302378,19.383196)"/>
<path id="gradient-path1" style="opacity:0.3;baseline-shift:baseline;display:inline;overflow:visible;vector-effect:none;enable-background:accumulate;stop-color:#000000;stop-opacity:1;fill:url(#linearGradient4)" d="M 8.4453131 1.2753492 C 4.4913166 1.2753492 1.2794833 4.4784283 1.2794833 8.4236094 C 1.2794833 12.36879 4.4913166 15.572386 8.4453131 15.572386 C 12.39931 15.572386 15.611143 12.36879 15.611143 8.4236094 C 15.611143 4.4784283 12.39931 1.2753492 8.4453131 1.2753492 z "/>
</svg>
