<?xml version='1.0' encoding='UTF-8'?>
<svg xmlns:inkscape="http://www.inkscape.org/namespaces/inkscape" xmlns:sodipodi="http://sodipodi.sourceforge.net/DTD/sodipodi-0.dtd" xmlns:xlink="http://www.w3.org/1999/xlink" xmlns="http://www.w3.org/2000/svg" xmlns:svg="http://www.w3.org/2000/svg" xmlns:rdf="http://www.w3.org/1999/02/22-rdf-syntax-ns#" xmlns:cc="http://creativecommons.org/ns#" xmlns:dc="http://purl.org/dc/elements/1.1/" width="64" height="64" version="1.1" viewBox="0 0 16.933 16.933" id="svg7" sodipodi:docname="Graphics.svg" inkscape:version="1.4 (e7c3feb100, 2024-10-09)">
  <sodipodi:namedview id="namedview7" pagecolor="#9c4444" bordercolor="#000000" borderopacity="0.25" inkscape:showpageshadow="2" inkscape:pageopacity="0.0" inkscape:pagecheckerboard="0" inkscape:deskcolor="#d1d1d1" inkscape:zoom="4.3531261" inkscape:cx="36.984915" inkscape:cy="25.958357" inkscape:window-width="1280" inkscape:window-height="669" inkscape:window-x="180" inkscape:window-y="166" inkscape:window-maximized="0" inkscape:current-layer="svg7" showgrid="false"/>
  <defs id="defs2">
    <filter style="color-interpolation-filters:sRGB;" inkscape:label="Blur" id="filter3" x="-0.10843471" y="-0.10870992" width="1.2168694" height="1.2174198">
      <feGaussianBlur stdDeviation="0.5 0.5" result="blur" id="feGaussianBlur3"/>
    </filter>
    <style id="current-color-scheme" type="text/css">.ColorScheme-Text {color:#d8dee9} .ColorScheme-Highlight {color:#3b4252}</style><linearGradient id="linearGradient3" inkscape:collect="always">
      <stop style="stop-color:#000000;stop-opacity:1;" offset="0" id="stop3"/>
      <stop style="stop-color:#000000;stop-opacity:0;" offset="1" id="stop4"/>
    </linearGradient>
    <linearGradient inkscape:collect="always" xlink:href="#linearGradient3" id="linearGradient4" x1="13.512321" y1="13.490874" x2="3.3783066" y2="3.3568602" gradientUnits="userSpaceOnUse"/>
  </defs>
  <metadata id="metadata2">
    <rdf:RDF>
      <cc:Work rdf:about="">
        <dc:format>image/svg+xml</dc:format>
        <dc:type rdf:resource="http://purl.org/dc/dcmitype/StillImage"/>
      </cc:Work>
    </rdf:RDF>
  </metadata>
  <ellipse style="opacity:1;fill:none;stroke:#000000;stroke-width:0.582072;stroke-dasharray:none;stroke-opacity:1;filter:url(#filter3)" id="path1-5" cx="8.4450111" cy="8.423522" rx="6.8752708" ry="6.8578653"/>
  <ellipse style="opacity:1;fill:none;stroke-width:0.58207188;stroke-opacity:1;stroke:currentColor;stroke-dasharray:none;fill-opacity:1" id="path1" cx="8.4450111" cy="8.423522" rx="6.8752708" ry="6.8578653" class="ColorScheme-Text"/>
  <ellipse style="fill:currentColor;stroke:none;stroke-width:0.285844;stroke-dasharray:none;stroke-opacity:1" id="path1-2" cx="8.4557552" cy="8.423522" rx="6.5738997" ry="6.5692253" class="ColorScheme-Highlight"/>
<path id="path102-0" style="fill:#000000;fill-opacity:1;stroke:none;stroke-width:0.235739;stroke-dasharray:none;stroke-dashoffset:2.2;stroke-opacity:0.3;opacity:0.3" d="m 7.6048315,5.346329 c -1.7128182,0 -1.6539195,-0.00559 -1.7537713,0.163452 -0.040353,0.068321 -0.044203,0.3742738 -0.044203,3.4499865 0,3.7268855 -0.011966,3.4792455 0.1703583,3.5904155 0.084369,0.05144 0.1557201,0.05285 2.6672609,0.05295 2.8116186,1.12e-4 2.6662116,0.008 2.7920366,-0.15194 0.05636,-0.07165 0.05617,-0.07996 0.05617,-2.424153 V 7.6751764 H 10.470531 C 9.3244875,7.6751292 9.3048695,7.671942 9.2117208,7.4854799 9.1691577,7.4002843 9.1643374,7.2873772 9.1642929,6.3684817 V 5.346329 Z m 1.8845329,0.041439 v 0.8743529 c 0,0.9543825 0.0049,0.9910369 0.155625,1.072797 0.061025,0.033109 0.2266026,0.040542 0.9369706,0.041439 l 0.862843,9.18e-4 L 10.983454,6.896588 C 10.729548,6.6322511 10.289463,6.1844124 10.005504,5.9016051 Z M 7.0794826,8.839596 H 8.6495432 10.220064 V 9.0426445 9.2456933 H 8.6495431 7.0794825 V 9.0426445 Z m 0,0.7578644 H 8.6495432 10.220064 V 9.814322 10.030723 H 8.6495431 7.0794825 V 9.8143218 Z m 0,0.7854896 h 1.5700606 1.5705208 v 0.216402 0.216862 H 8.6495431 7.0794825 v -0.216862 z m 0,0.78503 H 8.067562 9.0561014 v 0.216862 0.2164 H 8.0675619 7.0794825 v -0.2164 z"/>
  <path id="path102" style="fill:currentColor;fill-opacity:1;stroke:none;stroke-width:0.235739;stroke-dasharray:none;stroke-dashoffset:2.2;stroke-opacity:0.3" d="m 7.6048315,4.8171728 c -1.7128182,0 -1.6539195,-0.00559 -1.7537713,0.163452 -0.040353,0.068321 -0.044203,0.3742738 -0.044203,3.4499865 0,3.7268857 -0.011966,3.4792457 0.1703583,3.5904157 0.084369,0.05144 0.1557201,0.05285 2.6672609,0.05295 2.8116186,1.12e-4 2.6662116,0.008 2.7920366,-0.15194 0.05636,-0.07165 0.05617,-0.07996 0.05617,-2.4241531 V 7.1460202 H 10.470531 C 9.3244875,7.145973 9.3048695,7.1427858 9.2117208,6.9563237 9.1691577,6.8711281 9.1643374,6.758221 9.1642929,5.8393255 V 4.8171728 Z m 1.8845329,0.041439 v 0.8743529 c 0,0.9543825 0.0049,0.9910369 0.155625,1.072797 0.061025,0.033109 0.2266026,0.040542 0.9369706,0.041439 l 0.862843,9.18e-4 -0.461349,-0.4806869 C 10.729548,6.1030949 10.289463,5.6552562 10.005504,5.3724489 Z M 7.0794826,8.3104398 H 8.6495432 10.220064 V 8.5134883 8.7165371 H 8.6495431 7.0794825 V 8.5134883 Z m 0,0.7578644 h 1.5700606 1.5705208 v 0.2168616 0.216401 H 8.6495431 7.0794825 V 9.2851656 Z m 0,0.7854899 h 1.5700606 1.5705208 v 0.2164019 0.216862 H 8.6495431 7.0794825 v -0.216862 z m 0,0.7850299 H 8.067562 9.0561014 v 0.216862 0.2164 H 8.0675619 7.0794825 v -0.2164 z" class="ColorScheme-Text"/>
<path id="gradient-path1" style="opacity:0.3;baseline-shift:baseline;display:inline;overflow:visible;vector-effect:none;enable-background:accumulate;stop-color:#000000;stop-opacity:1;fill:url(#linearGradient4)" d="M 8.4453131 1.2753492 C 4.4913166 1.2753492 1.2794833 4.4784283 1.2794833 8.4236094 C 1.2794833 12.36879 4.4913166 15.572386 8.4453131 15.572386 C 12.39931 15.572386 15.611143 12.36879 15.611143 8.4236094 C 15.611143 4.4784283 12.39931 1.2753492 8.4453131 1.2753492 z "/>
</svg>
