<?xml version='1.0' encoding='UTF-8'?>
<svg xmlns:inkscape="http://www.inkscape.org/namespaces/inkscape" xmlns:sodipodi="http://sodipodi.sourceforge.net/DTD/sodipodi-0.dtd" xmlns="http://www.w3.org/2000/svg" xmlns:svg="http://www.w3.org/2000/svg" xmlns:rdf="http://www.w3.org/1999/02/22-rdf-syntax-ns#" xmlns:cc="http://creativecommons.org/ns#" xmlns:dc="http://purl.org/dc/elements/1.1/" width="64" height="64" version="1.1" id="svg73" sodipodi:docname="document-open-recent.svg" inkscape:version="1.4.2 (ebf0e940d0, 2025-05-08)">
  <metadata id="metadata77">
    <rdf:RDF>
      <cc:Work rdf:about="">
        <dc:format>image/svg+xml</dc:format>
        <dc:type rdf:resource="http://purl.org/dc/dcmitype/StillImage"/>
      </cc:Work>
    </rdf:RDF>
  </metadata>
  <sodipodi:namedview pagecolor="#f5f7fa" bordercolor="#666666" borderopacity="1" objecttolerance="10" gridtolerance="10" guidetolerance="10" inkscape:pageopacity="0" inkscape:pageshadow="2" inkscape:window-width="1920" inkscape:window-height="1052" id="namedview75" showgrid="false" inkscape:zoom="4.4470387" inkscape:cx="19.563581" inkscape:cy="8.3201435" inkscape:window-x="0" inkscape:window-y="0" inkscape:window-maximized="1" inkscape:current-layer="g877" inkscape:document-rotation="0" inkscape:pagecheckerboard="0" inkscape:showpageshadow="2" inkscape:deskcolor="#d1d1d1"/>
  <defs id="defs29">
    <filter style="color-interpolation-filters:sRGB;" inkscape:label="Blur" id="filter6" x="-0.044145008" y="-0.044145008" width="1.08829" height="1.08829">
      <feGaussianBlur stdDeviation="1 1" result="blur" id="feGaussianBlur6"/>
    </filter>
    <filter style="color-interpolation-filters:sRGB;" inkscape:label="Blur" id="filter7" x="-0.098100013" y="-0.098100021" width="1.1962" height="1.1962">
      <feGaussianBlur stdDeviation="2 2" result="blur" id="feGaussianBlur7"/>
    </filter>
    <clipPath id="clip0_515_3621">
      <rect width="16" height="16" fill="#ffffff" transform="translate(0.00292969)" id="rect7969" x="0" y="0"/>
    </clipPath>
    <filter style="color-interpolation-filters:sRGB;" inkscape:label="Blur" id="filter7349" x="-0.10485812" y="-0.10485813" width="1.2097162" height="1.2097163">
      <feGaussianBlur stdDeviation="2 2" result="blur" id="feGaussianBlur7347"/>
    </filter>
    <filter style="color-interpolation-filters:sRGB" inkscape:label="Blur" id="filter1283" x="-0.082344266" y="-0.082344266" width="1.1646885" height="1.1646885">
      <feGaussianBlur stdDeviation="0.5 0.5" result="blur" id="feGaussianBlur1281"/>
    </filter>
    <filter style="color-interpolation-filters:sRGB" inkscape:label="Blur" id="filter1694" x="-0.94955398" y="-0.2118907" width="2.899108" height="1.4237814">
      <feGaussianBlur stdDeviation="0.2 0.2" result="blur" id="feGaussianBlur1692"/>
    </filter>
    <filter style="color-interpolation-filters:sRGB" inkscape:label="Blur" id="filter3" x="-0.10843471" y="-0.10870992" width="1.2168694" height="1.2174198">
      <feGaussianBlur stdDeviation="0.5 0.5" result="blur" id="feGaussianBlur3"/>
    </filter>
    <style id="current-color-scheme" type="text/css">.ColorScheme-Text {color:#d8dee9} .ColorScheme-Highlight {color:#3b4252}</style>
  <linearGradient id="linearGradient2" inkscape:collect="always">
      <stop style="stop-color:#000000;stop-opacity:1;" offset="0" id="stop2"/>
      <stop style="stop-color:#000000;stop-opacity:0;" offset="1" id="stop3"/>
    </linearGradient>
    <linearGradient xmlns:xlink="http://www.w3.org/1999/xlink" inkscape:collect="always" xlink:href="#linearGradient2" id="linearGradient3" x1="45.039307" y1="45.130287" x2="19.025009" y2="19.11599" gradientUnits="userSpaceOnUse"/>
  </defs>
  <g id="g877" transform="matrix(1.1,0,0,1.1,-3.1845928,-3.2065454)" style="">
    <path style="fill:#f5f7fa;stroke-width:0.204426;fill-opacity:1" d="" id="path3"/>
    <rect style="fill:#000000;stroke:none;stroke-width:0.539739;stroke-dasharray:none;filter:url(#filter1283)" id="rect246-1" width="14.572964" height="14.572964" x="1.1932471" y="1.2138842" rx="2.1589575" ry="2.1589575" transform="matrix(2.4606127,0,0,3.1451146,11.16612,5.3876877)"/>
    <rect style="fill:#2b323e;stroke:currentColor;stroke-width:1.63561;stroke-dasharray:none;fill-opacity:1;stroke-opacity:1" id="rect246" width="35.155312" height="44.93494" x="14.453793" y="9.6548424" rx="5.2081943" ry="5.181818" class="ColorScheme-Text"/>
    <rect style="fill:currentColor;fill-opacity:1;stroke:none;stroke-width:1.41125;stroke-dasharray:none" id="rect246-5" width="33.483681" height="43.361137" x="15.289605" y="10.441746" rx="4.2572727" ry="4.2572727" class="ColorScheme-Highlight"/>
  <path id="path2504-1-2-2" style="display:inline;overflow:visible;visibility:visible;opacity:0.3;fill:#000000;fill-opacity:1;fill-rule:nonzero;stroke:none;stroke-width:1.13636;stroke-linecap:butt;stroke-linejoin:miter;stroke-miterlimit:4;stroke-dasharray:none;stroke-dashoffset:0;stroke-opacity:0.3;marker:none;enable-background:accumulate" d="m 33.08507,25.12595 c -4.60401,0 -8.392683,3.031852 -8.806818,7.455611 h -2.233665 l 3.299006,4.1424 3.299005,-4.1424 h -2.153764 c 0.407352,-3.225209 3.209446,-5.294744 6.596236,-5.294744 3.666677,0 6.6424,2.929097 6.6424,6.537642 -10e-7,3.608544 -2.975722,6.537641 -6.6424,6.537641 -1.989347,0 -3.775176,-0.863319 -4.992898,-2.228337 l -1.615767,1.471946 c 1.619895,1.792346 3.98089,2.917257 6.608665,2.917258 4.880475,0 8.842329,-3.897056 8.84233,-8.698508 0,-4.801452 -3.961856,-8.698509 -8.84233,-8.698509 z m -0.269886,3.31321 -0.829191,5.799006 4.142401,3.314986 v -0.829191 l -2.485795,-3.31321 V 28.43916 Z"/>
    <path id="path2504-1-2-2-2" style="color:#d8dee9;display:inline;overflow:visible;visibility:visible;fill:currentColor;fill-opacity:1;fill-rule:nonzero;stroke:none;stroke-width:1.13636;stroke-linecap:butt;stroke-linejoin:miter;stroke-miterlimit:4;stroke-dasharray:none;stroke-dashoffset:0;stroke-opacity:0.3;marker:none;enable-background:accumulate" class="ColorScheme-Text" d="m 33.08507,23.307442 c -4.60401,0 -8.392683,3.031853 -8.806818,7.455611 h -2.233665 l 3.299006,4.142401 3.299005,-4.142401 h -2.153764 c 0.407352,-3.225208 3.209446,-5.294745 6.596236,-5.294745 3.666677,0 6.6424,2.929098 6.6424,6.537643 -10e-7,3.608545 -2.975722,6.537642 -6.6424,6.537642 -1.989347,0 -3.775176,-0.86332 -4.992898,-2.228338 l -1.615767,1.471946 c 1.619895,1.792346 3.98089,2.917258 6.608665,2.917258 4.880475,0 8.842329,-3.897056 8.84233,-8.698508 0,-4.801452 -3.961856,-8.698509 -8.84233,-8.698509 z m -0.269886,3.31321 -0.829191,5.799006 4.142401,3.314986 v -0.82919 l -2.485795,-3.313211 v -4.971591 z"/>
  </g>
<path id="gradient-path1" style="opacity:0.3;baseline-shift:baseline;display:inline;overflow:visible;vector-effect:none;fill:url(#linearGradient3);enable-background:accumulate;stop-color:#000000;stop-opacity:1" d="M 19.661775 8.8383367 C 16.33974 8.8383367 13.637272 11.524326 13.637272 14.836206 L 13.637272 49.408294 C 13.637272 52.720174 16.33974 55.407939 19.661775 55.407939 L 44.400766 55.407939 C 47.722801 55.407939 50.427045 52.720174 50.427045 49.408294 L 50.427045 14.836206 C 50.427045 11.524326 47.722801 8.8383367 44.400766 8.8383367 L 19.661775 8.8383367 z " transform="matrix(1.1,0,0,1.1,-3.1845928,-3.2065454)"/>
</svg>
