<?xml version="1.0" encoding="UTF-8" standalone="no"?>
<svg
   width="64"
   height="64"
   version="1.1"
   viewBox="0 0 16.933 16.933"
   id="svg7"
   sodipodi:docname="org.kde.dolphin.v1.svg"
   inkscape:version="1.4.2 (ebf0e940d0, 2025-05-08)"
   xmlns:inkscape="http://www.inkscape.org/namespaces/inkscape"
   xmlns:sodipodi="http://sodipodi.sourceforge.net/DTD/sodipodi-0.dtd"
   xmlns="http://www.w3.org/2000/svg"
   xmlns:svg="http://www.w3.org/2000/svg"
   xmlns:rdf="http://www.w3.org/1999/02/22-rdf-syntax-ns#"
   xmlns:cc="http://creativecommons.org/ns#"
   xmlns:dc="http://purl.org/dc/elements/1.1/">
  <sodipodi:namedview
     id="namedview7"
     pagecolor="#9c4444"
     bordercolor="#000000"
     borderopacity="0.25"
     inkscape:showpageshadow="2"
     inkscape:pageopacity="0.0"
     inkscape:pagecheckerboard="0"
     inkscape:deskcolor="#d1d1d1"
     inkscape:zoom="6.15625"
     inkscape:cx="15.918782"
     inkscape:cy="29.725888"
     inkscape:window-width="2560"
     inkscape:window-height="1376"
     inkscape:window-x="0"
     inkscape:window-y="0"
     inkscape:window-maximized="1"
     inkscape:current-layer="svg7"
     showgrid="false" />
  <defs
     id="defs2">
    <style
       id="current-color-scheme"
       type="text/css">.ColorScheme-Text {color:#d8dee9} .ColorScheme-Highlight {color:#3b4252}</style>
  </defs>
  <metadata
     id="metadata2">
    <rdf:RDF>
      <cc:Work
         rdf:about="">
        <dc:format>image/svg+xml</dc:format>
        <dc:type
           rdf:resource="http://purl.org/dc/dcmitype/StillImage" />
      </cc:Work>
    </rdf:RDF>
  </metadata>
  <path
     id="path10-0"
     class="ColorScheme-Text"
     style="fill:currentColor;fill-opacity:1;stroke:none;stroke-width:0.448265;stroke-dasharray:none;stroke-opacity:0.3"
     d="M 3.8963263 2.6364797 C 2.2342796 2.6364797 2.1424968 2.6502366 1.8380945 2.9356803 C 1.7566461 3.0120532 1.647141 3.1670804 1.5947033 3.2803553 C 1.5039722 3.4763033 1.4991227 3.729487 1.4980703 8.4954382 C 1.4969863 13.328461 1.5002224 13.511226 1.5952201 13.695535 C 1.737195 13.97098 2.0152026 14.217482 2.2752685 14.298587 C 2.4605181 14.356287 3.5826886 14.369783 8.5290273 14.372483 C 15.283559 14.376345 14.865932 14.39915 15.248381 14.005071 C 15.35611 13.894044 15.474399 13.717833 15.511409 13.613371 C 15.564629 13.462597 15.579104 12.503758 15.579104 8.960517 C 15.579104 4.5277703 15.578061 4.4970012 15.472136 4.3526202 C 15.413488 4.2726695 15.286065 4.1664923 15.188955 4.1169803 C 15.025583 4.0336743 14.727616 4.0271398 11.197546 4.0270651 L 7.3828665 4.0270651 L 7.0774648 3.8741059 C 6.8700594 3.7704641 6.6168197 3.5656914 6.2904483 3.236948 C 5.9549643 2.899026 5.7510905 2.7346421 5.6166009 2.6943561 C 5.4928475 2.6572831 4.8765518 2.6364797 3.8963263 2.6364797 z M 10.270489 6.6986841 C 11.229596 6.6923395 11.894835 7.0271709 12.313218 7.2955351 C 12.515522 7.4253027 14.328073 6.366383 14.562132 7.2386921 C 14.783211 8.062591 13.792685 8.9377798 13.792685 8.9377798 C 12.228464 10.737321 11.223717 11.349556 11.115899 13.40977 L 2.3383125 13.404603 C 4.2125655 11.392505 4.9098246 8.9183931 7.4774326 7.5249739 C 8.6007606 6.9153541 9.5245171 6.7036341 10.270489 6.6986841 z M 14.35543 7.4924184 C 13.722662 8.1028266 13.096324 8.6886213 12.378846 9.3511831 C 11.713356 9.9657377 10.335853 11.018676 10.352653 11.047687 C 10.414336 11.154283 11.740762 10.142447 12.512685 9.43128 C 13.304181 8.7020789 13.886412 8.1071842 14.35543 7.4924184 z M 8.6721682 10.577441 C 8.4712502 10.577441 8.3083732 10.777335 8.3083732 11.023916 C 8.3083732 11.270498 8.4712502 11.470392 8.6721682 11.470392 C 8.8730862 11.470392 9.0359631 11.270498 9.0359631 11.023916 C 9.0359631 10.777335 8.8730862 10.577441 8.6721682 10.577441 z " />
</svg>
