<?xml version="1.0" encoding="UTF-8" standalone="no"?>
<svg
   width="64"
   height="64"
   version="1.1"
   viewBox="0 0 16.933 16.933"
   id="svg7"
   sodipodi:docname="easyeffects.svg"
   inkscape:version="1.4.2 (ebf0e940d0, 2025-05-08)"
   xmlns:inkscape="http://www.inkscape.org/namespaces/inkscape"
   xmlns:sodipodi="http://sodipodi.sourceforge.net/DTD/sodipodi-0.dtd"
   xmlns="http://www.w3.org/2000/svg"
   xmlns:svg="http://www.w3.org/2000/svg"
   xmlns:rdf="http://www.w3.org/1999/02/22-rdf-syntax-ns#"
   xmlns:cc="http://creativecommons.org/ns#"
   xmlns:dc="http://purl.org/dc/elements/1.1/">
  <sodipodi:namedview
     id="namedview7"
     pagecolor="#9c4444"
     bordercolor="#000000"
     borderopacity="0.25"
     inkscape:showpageshadow="2"
     inkscape:pageopacity="0.0"
     inkscape:pagecheckerboard="0"
     inkscape:deskcolor="#d1d1d1"
     inkscape:zoom="4.3531261"
     inkscape:cx="36.295755"
     inkscape:cy="41.119875"
     inkscape:window-width="2560"
     inkscape:window-height="1380"
     inkscape:window-x="0"
     inkscape:window-y="0"
     inkscape:window-maximized="1"
     inkscape:current-layer="svg7"
     showgrid="false" />
  <defs
     id="defs2">
    <filter
       style="color-interpolation-filters:sRGB;"
       inkscape:label="Blur"
       id="filter1283"
       x="-0.082344266"
       y="-0.082344266"
       width="1.1646885"
       height="1.1646885">
      <feGaussianBlur
         stdDeviation="0.5 0.5"
         result="blur"
         id="feGaussianBlur1281" />
    </filter>
    <filter
       style="color-interpolation-filters:sRGB;"
       inkscape:label="Blur"
       id="filter1694"
       x="-0.94955398"
       y="-0.2118907"
       width="2.899108"
       height="1.4237814">
      <feGaussianBlur
         stdDeviation="0.2 0.2"
         result="blur"
         id="feGaussianBlur1692" />
    </filter>
    <style
       id="current-color-scheme"
       type="text/css">.ColorScheme-Text {color:#d8dee9} .ColorScheme-Highlight {color:#3b4252}</style>
    <inkscape:path-effect
       effect="offset"
       id="path-effect3-3"
       is_visible="true"
       lpeversion="1.3"
       linejoin_type="miter"
       unit="mm"
       offset="-0.2"
       miter_limit="4"
       attempt_force_join="false"
       update_on_knot_move="true" />
    <inkscape:path-effect
       effect="offset"
       id="path-effect1-6"
       is_visible="true"
       lpeversion="1.3"
       linejoin_type="miter"
       unit="mm"
       offset="-0.35"
       miter_limit="4"
       attempt_force_join="false"
       update_on_knot_move="true" />
    <inkscape:path-effect
       effect="offset"
       id="path-effect2-7"
       is_visible="true"
       lpeversion="1.3"
       linejoin_type="miter"
       unit="mm"
       offset="-0.3"
       miter_limit="4"
       attempt_force_join="false"
       update_on_knot_move="true" />
  </defs>
  <metadata
     id="metadata2">
    <rdf:RDF>
      <cc:Work
         rdf:about="">
        <dc:format>image/svg+xml</dc:format>
        <dc:type
           rdf:resource="http://purl.org/dc/dcmitype/StillImage" />
      </cc:Work>
    </rdf:RDF>
  </metadata>
  <path
     id="path4"
     class="ColorScheme-Text"
     d="m 8.4664993,1.4891779 c -1.7856232,0 -3.5712211,0.6813371 -4.933506,2.043855 -2.72503514,2.7245707 -2.72503514,7.1424411 0,9.8670121 2.7245709,2.725036 7.1424417,2.725036 9.8670127,0 2.725036,-2.724571 2.725036,-7.1424414 0,-9.8670121 C 12.03772,2.170515 10.252123,1.4891779 8.4664993,1.4891779 Z m -4.399e-4,2.4417696 c 0.2570954,0 0.4651422,0.2080466 0.4651422,0.4651423 v 1.2873174 c 0.2780542,0.16086 0.4651431,0.4615137 0.4651431,0.8058226 0,0.344309 -0.1870889,0.6449626 -0.4651431,0.8058227 V 12.76865 c 0,0.257096 -0.2080468,0.465142 -0.4651422,0.465142 -0.2570953,0 -0.4651421,-0.208046 -0.4651421,-0.465142 V 7.2950525 C 7.7228483,7.1341924 7.5357604,6.8335388 7.5357604,6.4892298 c 0,-0.3443089 0.1870879,-0.6449626 0.4651422,-0.8058226 V 4.3960898 c 0,-0.2570957 0.2080467,-0.4651423 0.4651431,-0.4651423 z M 5.6752067,4.861232 c 0.2570954,0 0.4651411,0.2080465 0.4651411,0.4651423 V 7.7765474 C 6.4184031,7.9374074 6.605491,8.238061 6.605491,8.58237 c 0,0.3443089 -0.1870879,0.6449626 -0.4651432,0.8058226 v 2.4501734 c 0,0.257095 -0.2080457,0.465142 -0.4651411,0.465142 -0.2570964,0 -0.4651431,-0.208047 -0.4651431,-0.465142 V 9.3881926 C 4.9319945,9.2273326 4.7449077,8.9266789 4.7449077,8.58237 c 0,-0.344309 0.1870868,-0.6449626 0.4651411,-0.8058226 V 5.3263743 c 0,-0.2570958 0.2080467,-0.4651423 0.4651432,-0.4651423 z m 5.5817073,0 c 0.257095,0 0.465142,0.2080465 0.465142,0.4651423 v 3.3804575 c 0.278055,0.1608602 0.465142,0.4615137 0.465142,0.8058229 0,0.3443084 -0.187087,0.6449613 -0.465142,0.8058213 v 1.51989 c 0,0.257095 -0.208047,0.465142 -0.465142,0.465142 -0.257096,0 -0.465143,-0.208047 -0.465143,-0.465142 v -1.51989 c -0.278055,-0.16086 -0.465142,-0.4615129 -0.465142,-0.8058213 0,-0.3443092 0.187087,-0.6449627 0.465142,-0.8058229 V 5.3263743 c 0,-0.2570958 0.208047,-0.4651423 0.465143,-0.4651423 z"
     style="fill:currentColor;fill-opacity:1;stroke-width:0.116285" />
</svg>
