<?xml version='1.0' encoding='UTF-8'?>
<svg xmlns:inkscape="http://www.inkscape.org/namespaces/inkscape" xmlns:sodipodi="http://sodipodi.sourceforge.net/DTD/sodipodi-0.dtd" xmlns="http://www.w3.org/2000/svg" xmlns:svg="http://www.w3.org/2000/svg" xmlns:rdf="http://www.w3.org/1999/02/22-rdf-syntax-ns#" xmlns:cc="http://creativecommons.org/ns#" xmlns:dc="http://purl.org/dc/elements/1.1/" width="64" height="64" version="1.1" viewBox="0 0 16.933 16.933" id="svg7" sodipodi:docname="ksnapshot.svg" inkscape:version="1.4.2 (ebf0e940d0, 2025-05-08)">
  <sodipodi:namedview id="namedview7" pagecolor="#9c4444" bordercolor="#000000" borderopacity="0.25" inkscape:showpageshadow="2" inkscape:pageopacity="0.0" inkscape:pagecheckerboard="0" inkscape:deskcolor="#d1d1d1" inkscape:zoom="6.15625" inkscape:cx="15.837563" inkscape:cy="29.64467" inkscape:window-width="1183" inkscape:window-height="941" inkscape:window-x="0" inkscape:window-y="0" inkscape:window-maximized="0" inkscape:current-layer="svg7" showgrid="false"/>
  <defs id="defs2">
    <rect x="67.489848" y="35.60533" width="15.337563" height="22.51269" id="rect3808"/>
    <filter style="color-interpolation-filters:sRGB;" inkscape:label="Blur" id="filter1283" x="-0.082344266" y="-0.082344266" width="1.1646885" height="1.1646885">
      <feGaussianBlur stdDeviation="0.5 0.5" result="blur" id="feGaussianBlur1281"/>
    </filter>
    <filter style="color-interpolation-filters:sRGB;" inkscape:label="Blur" id="filter1694" x="-0.94955398" y="-0.2118907" width="2.899108" height="1.4237814">
      <feGaussianBlur stdDeviation="0.2 0.2" result="blur" id="feGaussianBlur1692"/>
    </filter>
    <filter style="color-interpolation-filters:sRGB;" inkscape:label="Blur" id="filter3148" x="-0.94955398" y="-0.2118907" width="2.899108" height="1.4237814">
      <feGaussianBlur stdDeviation="0.2 0.2" result="blur" id="feGaussianBlur3146"/>
    </filter>
    <clipPath clipPathUnits="userSpaceOnUse" id="clipPath44">
      <path id="path46" style="display:block;opacity:0.85;fill:#f2f2f2;stroke-width:4.39162" d="m 17.570312,8.4453125 a 6.5431988,7.4283052 9.9958727e-8 0 0 -6.535156,7.4394535 6.5431988,7.4283052 9.9958727e-8 0 0 6.552735,7.417968 6.5431988,7.4283052 9.9958727e-8 0 0 6.535156,-7.4375 6.5431988,7.4283052 9.9958727e-8 0 0 -6.552735,-7.4199215 z M 45.646484,41.177734 a 6.5431986,7.0703472 2.4665357e-6 0 0 -6.533203,7.080078 6.5431986,7.0703472 2.4665357e-6 0 0 6.550781,7.060547 6.5431986,7.0703472 2.4665357e-6 0 0 6.535157,-7.080078 6.5431986,7.0703472 2.4665357e-6 0 0 -6.552735,-7.060547 z"/>
    </clipPath>
    <inkscape:path-effect effect="powerclip" id="path-effect48" is_visible="true" lpeversion="1" inverse="true" flatten="false" hide_clip="false" message=""/>
    <style id="current-color-scheme" type="text/css">.ColorScheme-Text {color:#d8dee9} .ColorScheme-Highlight {color:#3b4252}</style>
  </defs>
  <metadata id="metadata2">
    <rdf:RDF>
      <cc:Work rdf:about="">
        <dc:format>image/svg+xml</dc:format>
        <dc:type rdf:resource="http://purl.org/dc/dcmitype/StillImage"/>
      </cc:Work>
    </rdf:RDF>
  </metadata>
  <path id="path2" style="fill:currentColor;fill-opacity:1;stroke:none;stroke-width:0.58349;stroke-dasharray:none;stroke-opacity:0.3" class="ColorScheme-Text" d="M 2.0002125 -0.00031989674 C 0.80021254 -0.00031989674 0.0001444011 0.79774825 0.0001444011 1.9997482 L 0.0001444011 11.875246 C 0.0001444011 13.077246 0.80021254 14.000157 2.0002125 14.000157 L 2.0002125 2.2500785 C 2.0002125 2.1260785 2.0561211 1.9997482 2.1881211 1.9997482 L 13.812069 1.9997482 C 13.943069 1.9997482 13.999978 2.1260785 13.999978 2.2500785 L 13.999978 5.9998845 L 16.000046 5.9998845 L 16.000046 1.9997482 C 16.000046 0.79774825 15.199978 -0.00031989674 13.999978 -0.00031989674 L 2.0002125 -0.00031989674 z M 7.2500697 5.9998845 C 6.7790697 5.9998845 6.5067223 6.5419186 6.4997223 6.9999186 L 6.4997223 7.9999527 L 4.0002807 7.9999527 C 3.5312807 8.0649527 3.0002466 8.5419867 3.0002466 8.9999867 L 3.0002466 15.000191 C 3.0002466 15.458191 3.5272807 16.000225 4.0002807 16.000225 L 13.999978 16.000225 C 14.472978 16.000225 15.000012 15.458191 15.000012 15.000191 L 15.000012 8.9999867 C 15.000012 8.5419867 14.472978 7.9999527 13.999978 7.9999527 L 11.499893 7.9999527 L 11.499893 6.9999186 C 11.499893 6.5419186 11.159124 5.9998845 10.687124 5.9998845 L 7.2500697 5.9998845 z M 8.9998075 8.9999867 A 3.0001022 3.0001022 0 0 1 8.9998075 15.000191 A 3.0001022 3.0001022 0 0 1 8.9998075 8.9999867 z M 8.9998075 10.000021 A 2 2 0 0 0 6.9997394 12.000089 A 2 2 0 0 0 8.9998075 14.000157 A 2 2 0 0 0 10.999876 12.000089 A 2 2 0 0 0 8.9998075 10.000021 z " transform="matrix(0.80300858,0,0,0.80300858,2.0798195,2.1380688)"/>
</svg>
