<?xml version='1.0' encoding='UTF-8'?>
<svg xmlns:inkscape="http://www.inkscape.org/namespaces/inkscape" xmlns:sodipodi="http://sodipodi.sourceforge.net/DTD/sodipodi-0.dtd" xmlns="http://www.w3.org/2000/svg" xmlns:svg="http://www.w3.org/2000/svg" xmlns:rdf="http://www.w3.org/1999/02/22-rdf-syntax-ns#" xmlns:cc="http://creativecommons.org/ns#" xmlns:dc="http://purl.org/dc/elements/1.1/" width="64" height="64" version="1.1" viewBox="0 0 16.933 16.933" id="svg7" sodipodi:docname="officenx-textmaker.svg" inkscape:version="1.4.2 (ebf0e940d0, 2025-05-08)">
  <sodipodi:namedview id="namedview7" pagecolor="#9c4444" bordercolor="#000000" borderopacity="0.25" inkscape:showpageshadow="2" inkscape:pageopacity="0.0" inkscape:pagecheckerboard="0" inkscape:deskcolor="#d1d1d1" inkscape:zoom="6.15625" inkscape:cx="15.918782" inkscape:cy="29.64467" inkscape:window-width="1226" inkscape:window-height="669" inkscape:window-x="0" inkscape:window-y="0" inkscape:window-maximized="0" inkscape:current-layer="svg7" showgrid="false"/>
  <defs id="defs2">
    <rect x="67.489848" y="35.60533" width="15.337563" height="22.51269" id="rect3808"/>
    <filter style="color-interpolation-filters:sRGB;" inkscape:label="Blur" id="filter1283" x="-0.082344266" y="-0.082344266" width="1.1646885" height="1.1646885">
      <feGaussianBlur stdDeviation="0.5 0.5" result="blur" id="feGaussianBlur1281"/>
    </filter>
    <filter style="color-interpolation-filters:sRGB;" inkscape:label="Blur" id="filter1694" x="-0.94955398" y="-0.2118907" width="2.899108" height="1.4237814">
      <feGaussianBlur stdDeviation="0.2 0.2" result="blur" id="feGaussianBlur1692"/>
    </filter>
    <filter style="color-interpolation-filters:sRGB;" inkscape:label="Blur" id="filter3148" x="-0.94955398" y="-0.2118907" width="2.899108" height="1.4237814">
      <feGaussianBlur stdDeviation="0.2 0.2" result="blur" id="feGaussianBlur3146"/>
    </filter>
    <clipPath clipPathUnits="userSpaceOnUse" id="clipPath44">
      <path id="path46" style="display:block;opacity:0.85;fill:#f2f2f2;stroke-width:4.39162" d="m 17.570312,8.4453125 a 6.5431988,7.4283052 9.9958727e-8 0 0 -6.535156,7.4394535 6.5431988,7.4283052 9.9958727e-8 0 0 6.552735,7.417968 6.5431988,7.4283052 9.9958727e-8 0 0 6.535156,-7.4375 6.5431988,7.4283052 9.9958727e-8 0 0 -6.552735,-7.4199215 z M 45.646484,41.177734 a 6.5431986,7.0703472 2.4665357e-6 0 0 -6.533203,7.080078 6.5431986,7.0703472 2.4665357e-6 0 0 6.550781,7.060547 6.5431986,7.0703472 2.4665357e-6 0 0 6.535157,-7.080078 6.5431986,7.0703472 2.4665357e-6 0 0 -6.552735,-7.060547 z"/>
    </clipPath>
    <inkscape:path-effect effect="powerclip" id="path-effect48" is_visible="true" lpeversion="1" inverse="true" flatten="false" hide_clip="false" message=""/>
    <style id="current-color-scheme" type="text/css">.ColorScheme-Text {color:#d8dee9} .ColorScheme-Highlight {color:#3b4252}</style>
  </defs>
  <metadata id="metadata2">
    <rdf:RDF>
      <cc:Work rdf:about="">
        <dc:format>image/svg+xml</dc:format>
        <dc:type rdf:resource="http://purl.org/dc/dcmitype/StillImage"/>
      </cc:Work>
    </rdf:RDF>
  </metadata>
  <path id="path4" style="fill:currentColor" class="ColorScheme-Text" d="M 6.0010058 6.0010066 L 6.0010058 48.000873 L 10.000686 48.000873 L 10.000686 10.000687 L 53.999318 10.000687 L 53.999318 53.999319 L 15.999132 53.999319 L 15.999132 57.998999 L 57.998998 57.998999 L 57.998998 6.0010066 L 6.0010058 6.0010066 z M 18.999429 14.99975 L 18.999429 21.000345 L 28.999704 21.000345 L 28.999704 49.000256 L 35.000299 49.000256 L 35.000299 21.000345 L 45.000575 21.000345 L 45.000575 14.99975 L 18.999429 14.99975 z M 6.0010058 52.000553 L 6.0010058 57.998999 L 11.999452 57.998999 L 11.999452 52.000553 L 6.0010058 52.000553 z " transform="matrix(0.24043909,0,0,0.24043909,0.77244867,0.77244848)"/>
</svg>
