<?xml version='1.0' encoding='UTF-8'?>
<svg xmlns:inkscape="http://www.inkscape.org/namespaces/inkscape" xmlns:sodipodi="http://sodipodi.sourceforge.net/DTD/sodipodi-0.dtd" xmlns="http://www.w3.org/2000/svg" xmlns:svg="http://www.w3.org/2000/svg" xmlns:rdf="http://www.w3.org/1999/02/22-rdf-syntax-ns#" xmlns:cc="http://creativecommons.org/ns#" xmlns:dc="http://purl.org/dc/elements/1.1/" width="64" height="64" version="1.1" viewBox="0 0 16.933 16.933" id="svg7" sodipodi:docname="org.kde.kdenlive.svg" inkscape:version="1.4.2 (ebf0e940d0, 2025-05-08)">
  <sodipodi:namedview id="namedview7" pagecolor="#9c4444" bordercolor="#000000" borderopacity="0.25" inkscape:showpageshadow="2" inkscape:pageopacity="0.0" inkscape:pagecheckerboard="0" inkscape:deskcolor="#d1d1d1" inkscape:zoom="6.15625" inkscape:cx="15.837563" inkscape:cy="29.64467" inkscape:window-width="1183" inkscape:window-height="941" inkscape:window-x="0" inkscape:window-y="0" inkscape:window-maximized="0" inkscape:current-layer="svg7" showgrid="false"/>
  <defs id="defs2">
    <rect x="67.489848" y="35.60533" width="15.337563" height="22.51269" id="rect3808"/>
    <filter style="color-interpolation-filters:sRGB;" inkscape:label="Blur" id="filter1283" x="-0.082344266" y="-0.082344266" width="1.1646885" height="1.1646885">
      <feGaussianBlur stdDeviation="0.5 0.5" result="blur" id="feGaussianBlur1281"/>
    </filter>
    <filter style="color-interpolation-filters:sRGB;" inkscape:label="Blur" id="filter1694" x="-0.94955398" y="-0.2118907" width="2.899108" height="1.4237814">
      <feGaussianBlur stdDeviation="0.2 0.2" result="blur" id="feGaussianBlur1692"/>
    </filter>
    <filter style="color-interpolation-filters:sRGB;" inkscape:label="Blur" id="filter3148" x="-0.94955398" y="-0.2118907" width="2.899108" height="1.4237814">
      <feGaussianBlur stdDeviation="0.2 0.2" result="blur" id="feGaussianBlur3146"/>
    </filter>
    <clipPath clipPathUnits="userSpaceOnUse" id="clipPath44">
      <path id="path46" style="display:block;opacity:0.85;fill:#f2f2f2;stroke-width:4.39162" d="m 17.570312,8.4453125 a 6.5431988,7.4283052 9.9958727e-8 0 0 -6.535156,7.4394535 6.5431988,7.4283052 9.9958727e-8 0 0 6.552735,7.417968 6.5431988,7.4283052 9.9958727e-8 0 0 6.535156,-7.4375 6.5431988,7.4283052 9.9958727e-8 0 0 -6.552735,-7.4199215 z M 45.646484,41.177734 a 6.5431986,7.0703472 2.4665357e-6 0 0 -6.533203,7.080078 6.5431986,7.0703472 2.4665357e-6 0 0 6.550781,7.060547 6.5431986,7.0703472 2.4665357e-6 0 0 6.535157,-7.080078 6.5431986,7.0703472 2.4665357e-6 0 0 -6.552735,-7.060547 z"/>
    </clipPath>
    <inkscape:path-effect effect="powerclip" id="path-effect48" is_visible="true" lpeversion="1" inverse="true" flatten="false" hide_clip="false" message=""/>
    <style id="current-color-scheme" type="text/css">.ColorScheme-Text {color:#d8dee9} .ColorScheme-Highlight {color:#3b4252}</style>
  </defs>
  <metadata id="metadata2">
    <rdf:RDF>
      <cc:Work rdf:about="">
        <dc:format>image/svg+xml</dc:format>
        <dc:type rdf:resource="http://purl.org/dc/dcmitype/StillImage"/>
      </cc:Work>
    </rdf:RDF>
  </metadata>
  <path id="path6" style="fill:currentColor;fill-opacity:1;fill-rule:evenodd" class="ColorScheme-Text" d="M 32.03581 6.0109336 C 30.601139 6.0109336 29.16073 6.0134089 28.065633 6.0187489 L 24.083733 6.0382871 L 28.042187 11.975968 L 32.000641 17.91365 L 35.957141 11.975968 L 39.915595 6.0382871 L 35.982541 6.0187489 C 34.900894 6.0134089 33.470481 6.0109336 32.03581 6.0109336 z M 22.000953 16.000853 L 22.000953 18.999978 L 26.000437 18.999978 L 26.000437 16.000853 L 22.000953 16.000853 z M 33.987683 17.143842 L 33.030308 18.585766 C 32.504298 19.379113 32.041911 20.029553 32.000641 20.029645 C 31.959371 20.029737 31.524462 19.421406 31.033496 18.67955 C 30.542532 17.937692 30.127784 17.331409 30.113244 17.331409 C 30.098704 17.331409 30.08589 26.481795 30.08589 37.66489 L 30.08589 57.998371 L 32.037764 57.998371 L 33.987683 57.998371 L 33.987683 37.571106 L 33.987683 17.143842 z M 39.556091 21.401231 C 38.819563 21.440951 38.026344 22.088443 38.028198 22.806033 L 38.000845 43.993337 C 38.000845 44.950199 39.408891 45.782921 40.214531 45.214479 L 55.391862 34.585658 C 56.202762 34.024242 56.200912 32.70728 55.391862 32.143374 L 40.241884 21.584891 C 40.039654 21.444031 39.801707 21.388111 39.556091 21.401231 z M 17.999514 21.999103 L 17.999514 25.000181 L 26.000437 25.000181 L 26.000437 21.999103 L 17.999514 21.999103 z M 10.000545 27.999306 L 10.000545 31.000385 L 26.000437 31.000385 L 26.000437 27.999306 L 10.000545 27.999306 z M 5.9991069 33.99951 L 5.9991069 37.000589 L 26.000437 37.000589 L 26.000437 33.99951 L 5.9991069 33.99951 z M 10.000545 39.999714 L 10.000545 43.000792 L 26.000437 43.000792 L 26.000437 39.999714 L 10.000545 39.999714 z M 17.999514 45.999917 L 17.999514 48.999042 L 26.000437 48.999042 L 26.000437 45.999917 L 17.999514 45.999917 z " transform="matrix(0.26448302,0,0,0.26448302,0.21474307,0.08242657)"/>
</svg>
