<?xml version='1.0' encoding='UTF-8'?>
<svg xmlns:inkscape="http://www.inkscape.org/namespaces/inkscape" xmlns:sodipodi="http://sodipodi.sourceforge.net/DTD/sodipodi-0.dtd" xmlns="http://www.w3.org/2000/svg" xmlns:svg="http://www.w3.org/2000/svg" xmlns:rdf="http://www.w3.org/1999/02/22-rdf-syntax-ns#" xmlns:cc="http://creativecommons.org/ns#" xmlns:dc="http://purl.org/dc/elements/1.1/" width="64" height="64" version="1.1" viewBox="0 0 16.933 16.933" id="svg7" sodipodi:docname="akregator.svg" inkscape:version="1.4.2 (ebf0e940d0, 2025-05-08)">
  <sodipodi:namedview id="namedview7" pagecolor="#9c4444" bordercolor="#000000" borderopacity="0.25" inkscape:showpageshadow="2" inkscape:pageopacity="0.0" inkscape:pagecheckerboard="0" inkscape:deskcolor="#d1d1d1" inkscape:zoom="6.15625" inkscape:cx="15.756345" inkscape:cy="29.64467" inkscape:window-width="1226" inkscape:window-height="669" inkscape:window-x="0" inkscape:window-y="0" inkscape:window-maximized="0" inkscape:current-layer="svg7" showgrid="false"/>
  <defs id="defs2">
    <rect x="67.489848" y="35.60533" width="15.337563" height="22.51269" id="rect3808"/>
    <filter style="color-interpolation-filters:sRGB;" inkscape:label="Blur" id="filter1283" x="-0.082344266" y="-0.082344266" width="1.1646885" height="1.1646885">
      <feGaussianBlur stdDeviation="0.5 0.5" result="blur" id="feGaussianBlur1281"/>
    </filter>
    <filter style="color-interpolation-filters:sRGB;" inkscape:label="Blur" id="filter1694" x="-0.94955398" y="-0.2118907" width="2.899108" height="1.4237814">
      <feGaussianBlur stdDeviation="0.2 0.2" result="blur" id="feGaussianBlur1692"/>
    </filter>
    <filter style="color-interpolation-filters:sRGB;" inkscape:label="Blur" id="filter3148" x="-0.94955398" y="-0.2118907" width="2.899108" height="1.4237814">
      <feGaussianBlur stdDeviation="0.2 0.2" result="blur" id="feGaussianBlur3146"/>
    </filter>
    <clipPath clipPathUnits="userSpaceOnUse" id="clipPath44">
      <path id="path46" style="display:block;opacity:0.85;fill:#f2f2f2;stroke-width:4.39162" d="m 17.570312,8.4453125 a 6.5431988,7.4283052 9.9958727e-8 0 0 -6.535156,7.4394535 6.5431988,7.4283052 9.9958727e-8 0 0 6.552735,7.417968 6.5431988,7.4283052 9.9958727e-8 0 0 6.535156,-7.4375 6.5431988,7.4283052 9.9958727e-8 0 0 -6.552735,-7.4199215 z M 45.646484,41.177734 a 6.5431986,7.0703472 2.4665357e-6 0 0 -6.533203,7.080078 6.5431986,7.0703472 2.4665357e-6 0 0 6.550781,7.060547 6.5431986,7.0703472 2.4665357e-6 0 0 6.535157,-7.080078 6.5431986,7.0703472 2.4665357e-6 0 0 -6.552735,-7.060547 z"/>
    </clipPath>
    <inkscape:path-effect effect="powerclip" id="path-effect48" is_visible="true" lpeversion="1" inverse="true" flatten="false" hide_clip="false" message=""/>
    <style id="current-color-scheme" type="text/css">.ColorScheme-Text {color:#d8dee9} .ColorScheme-Highlight {color:#3b4252}</style>
  </defs>
  <metadata id="metadata2">
    <rdf:RDF>
      <cc:Work rdf:about="">
        <dc:format>image/svg+xml</dc:format>
        <dc:type rdf:resource="http://purl.org/dc/dcmitype/StillImage"/>
      </cc:Work>
    </rdf:RDF>
  </metadata>
  <path id="circle24" class="ColorScheme-Text" style="font-size:34.1545px;line-height:1.25;font-family:'padmaa-Bold.1.1';-inkscape-font-specification:'padmaa-Bold.1.1';fill:currentColor;fill-opacity:1;stroke:none;stroke-width:0.569489;stroke-dasharray:none;stroke-opacity:0.3" d="M 37.99991 13.99998 L 37.99991 15.352289 C 37.99991 16.081289 38.602891 16.666787 39.331891 16.667787 C 45.951891 16.667787 51.342041 22.063218 51.332041 28.684218 C 51.341041 29.413218 51.935022 29.999716 52.664022 29.999716 L 54.00011 29.999716 L 54.00011 28.551183 C 54.00011 20.667183 47.582204 13.99998 39.726204 13.99998 L 37.99991 13.99998 z M 37.99991 18.999777 L 37.99991 20.40827 C 38.00991 21.15927 38.620204 21.762162 39.371204 21.763162 C 43.133204 21.763162 46.245282 24.885679 46.245282 28.628679 C 46.246282 29.385679 46.850775 29.998716 47.607775 29.999716 L 49.000194 29.999716 L 49.000194 28.644824 C 49.000194 23.475824 44.873262 18.999777 39.750262 18.999777 L 37.99991 18.999777 z M 41.000094 24.000219 A 3 3 0 0 0 37.99991 26.999968 A 3 3 0 0 0 41.000094 29.999716 A 3 3 0 0 0 44.000278 26.999968 A 3 3 0 0 0 41.000094 24.000219 z " transform="matrix(0.88066721,0,0,0.80017471,-31.895893,-9.4857732)"/>
</svg>
