<?xml version="1.0" encoding="UTF-8" standalone="no"?>
<svg
   width="64"
   height="64"
   version="1.1"
   viewBox="0 0 16.933 16.933"
   id="svg7"
   sodipodi:docname="preferences-desktop-emoticons.svg"
   inkscape:version="1.4.2 (ebf0e940d0, 2025-05-08)"
   xmlns:inkscape="http://www.inkscape.org/namespaces/inkscape"
   xmlns:sodipodi="http://sodipodi.sourceforge.net/DTD/sodipodi-0.dtd"
   xmlns="http://www.w3.org/2000/svg"
   xmlns:svg="http://www.w3.org/2000/svg"
   xmlns:rdf="http://www.w3.org/1999/02/22-rdf-syntax-ns#"
   xmlns:cc="http://creativecommons.org/ns#"
   xmlns:dc="http://purl.org/dc/elements/1.1/">
  <sodipodi:namedview
     id="namedview7"
     pagecolor="#9c4444"
     bordercolor="#000000"
     borderopacity="0.25"
     inkscape:showpageshadow="2"
     inkscape:pageopacity="0.0"
     inkscape:pagecheckerboard="0"
     inkscape:deskcolor="#d1d1d1"
     inkscape:zoom="6.15625"
     inkscape:cx="15.756345"
     inkscape:cy="29.64467"
     inkscape:window-width="1226"
     inkscape:window-height="669"
     inkscape:window-x="0"
     inkscape:window-y="0"
     inkscape:window-maximized="0"
     inkscape:current-layer="svg7"
     showgrid="false" />
  <defs
     id="defs2">
    <rect
       x="67.489848"
       y="35.60533"
       width="15.337563"
       height="22.51269"
       id="rect3808" />
    <filter
       style="color-interpolation-filters:sRGB;"
       inkscape:label="Blur"
       id="filter1283"
       x="-0.082344266"
       y="-0.082344266"
       width="1.1646885"
       height="1.1646885">
      <feGaussianBlur
         stdDeviation="0.5 0.5"
         result="blur"
         id="feGaussianBlur1281" />
    </filter>
    <filter
       style="color-interpolation-filters:sRGB;"
       inkscape:label="Blur"
       id="filter1694"
       x="-0.94955398"
       y="-0.2118907"
       width="2.899108"
       height="1.4237814">
      <feGaussianBlur
         stdDeviation="0.2 0.2"
         result="blur"
         id="feGaussianBlur1692" />
    </filter>
    <filter
       style="color-interpolation-filters:sRGB;"
       inkscape:label="Blur"
       id="filter3148"
       x="-0.94955398"
       y="-0.2118907"
       width="2.899108"
       height="1.4237814">
      <feGaussianBlur
         stdDeviation="0.2 0.2"
         result="blur"
         id="feGaussianBlur3146" />
    </filter>
    <clipPath
       clipPathUnits="userSpaceOnUse"
       id="clipPath44">
      <path
         id="path46"
         style="display:block;opacity:0.85;fill:#f2f2f2;stroke-width:4.39162"
         d="m 17.570312,8.4453125 a 6.5431988,7.4283052 9.9958727e-8 0 0 -6.535156,7.4394535 6.5431988,7.4283052 9.9958727e-8 0 0 6.552735,7.417968 6.5431988,7.4283052 9.9958727e-8 0 0 6.535156,-7.4375 6.5431988,7.4283052 9.9958727e-8 0 0 -6.552735,-7.4199215 z M 45.646484,41.177734 a 6.5431986,7.0703472 2.4665357e-6 0 0 -6.533203,7.080078 6.5431986,7.0703472 2.4665357e-6 0 0 6.550781,7.060547 6.5431986,7.0703472 2.4665357e-6 0 0 6.535157,-7.080078 6.5431986,7.0703472 2.4665357e-6 0 0 -6.552735,-7.060547 z" />
    </clipPath>
    <inkscape:path-effect
       effect="powerclip"
       id="path-effect48"
       is_visible="true"
       lpeversion="1"
       inverse="true"
       flatten="false"
       hide_clip="false"
       message="" />
    <style
       id="current-color-scheme"
       type="text/css">.ColorScheme-Text {color:#d8dee9} .ColorScheme-Highlight {color:#3b4252}</style>
  </defs>
  <metadata
     id="metadata2">
    <rdf:RDF>
      <cc:Work
         rdf:about="">
        <dc:format>image/svg+xml</dc:format>
        <dc:type
           rdf:resource="http://purl.org/dc/dcmitype/StillImage" />
      </cc:Work>
    </rdf:RDF>
  </metadata>
  <path
     style="fill:currentColor;stroke-width:0.0157913"
     d="M 8.028376,13.748965 C 6.7539465,13.6299 5.6480784,13.123523 4.7549763,12.250071 3.8760546,11.390492 3.3439397,10.293566 3.1950021,9.0342735 c -0.026753,-0.2261979 -0.026753,-0.9111111 0,-1.1373088 0.1499823,-1.2681294 0.6849963,-2.365295 1.5752736,-3.230452 0.8377347,-0.814097 1.8489322,-1.2998173 3.0449794,-1.4626301 0.151783,-0.020662 0.3162254,-0.028187 0.6314694,-0.02889 0.4335133,-9.695e-4 0.5802398,0.010292 0.9393108,0.072144 1.6673547,0.2871894 3.1120917,1.3838489 3.8512337,2.9233601 1.043481,2.1734087 0.482536,4.7963313 -1.356931,6.3448583 -0.812005,0.683573 -1.754698,1.089083 -2.8337174,1.218957 -0.1902636,0.02289 -0.8312331,0.03212 -1.0182446,0.01467 z m 0.8130169,-2.660856 c 0.2762179,-0.05787 0.5135451,-0.158196 0.7567667,-0.319895 0.2568181,-0.170738 0.5492464,-0.473662 0.7244114,-0.750411 0.0663,-0.1047556 0.152749,-0.2722453 0.152749,-0.295955 0,-0.00991 -0.05439,-0.016243 -0.139326,-0.016243 h -0.139326 l -0.08303,0.102405 c -0.1219369,0.1503724 -0.3599097,0.36979 -0.5096985,0.469951 -0.371451,0.248384 -0.7280122,0.359604 -1.1528563,0.359604 -0.4047633,0 -0.7629425,-0.114148 -1.131453,-0.360581 C 7.171658,10.178032 6.9006134,9.9268489 6.7974981,9.7931143 L 6.7300231,9.7056018 H 6.58197 c -0.081431,0 -0.1480544,0.00492 -0.1480544,0.010833 0,0.019721 0.1702657,0.3112332 0.2396638,0.4103282 0.3726837,0.532166 0.9034753,0.87869 1.4968777,0.977231 0.1688637,0.02805 0.4985192,0.02023 0.6709361,-0.01589 z M 6.7490073,7.3115834 C 7.1594833,7.2181681 7.4135944,6.7883128 7.3048182,6.3713724 7.2041692,5.9855861 6.8064079,5.7397768 6.414959,5.8214561 6.2902456,5.8474786 6.1460617,5.9215929 6.051903,6.0080761 5.7315505,6.3023143 5.7216411,6.8004922 6.0300189,7.1082543 6.2236033,7.3014523 6.4777324,7.3733196 6.7490073,7.3115834 Z m 3.7888167,0 c 0.410477,-0.093415 0.664588,-0.5232706 0.555813,-0.940211 -0.10065,-0.3857863 -0.498412,-0.6315956 -0.889861,-0.5499163 -0.124713,0.026023 -0.268897,0.1001368 -0.3630563,0.18662 -0.3203518,0.2942382 -0.3302612,0.7924161 -0.021886,1.1001782 0.193585,0.193198 0.447714,0.2650653 0.71899,0.2033291 z"
     id="path99"
     class="ColorScheme-Text" />
  <g
     fill="#474747"
     id="g9"
     transform="matrix(0.36111857,0,0,0.36132945,4.0174028,3.2497523)"
     style="fill:#999999;fill-opacity:1;stroke:none;stroke-width:0.58349;stroke-dasharray:none;stroke-opacity:0.3" />
  <text
     xml:space="preserve"
     transform="matrix(0.20346029,0,0,0.2035791,0.36687028,0.36658463)"
     id="text3806"
     style="font-size:6.66667px;white-space:pre;shape-inside:url(#rect3808);display:inline;fill:#999999;stroke-width:2" />
</svg>
