<?xml version="1.0" encoding="UTF-8" standalone="no"?>
<svg
   width="64"
   height="64"
   version="1.1"
   viewBox="0 0 16.933 16.933"
   id="svg7"
   sodipodi:docname="snapper-tools.svg"
   inkscape:version="1.4.2 (ebf0e940d0, 2025-05-08)"
   xmlns:inkscape="http://www.inkscape.org/namespaces/inkscape"
   xmlns:sodipodi="http://sodipodi.sourceforge.net/DTD/sodipodi-0.dtd"
   xmlns="http://www.w3.org/2000/svg"
   xmlns:svg="http://www.w3.org/2000/svg"
   xmlns:rdf="http://www.w3.org/1999/02/22-rdf-syntax-ns#"
   xmlns:cc="http://creativecommons.org/ns#"
   xmlns:dc="http://purl.org/dc/elements/1.1/">
  <sodipodi:namedview
     id="namedview7"
     pagecolor="#9c4444"
     bordercolor="#000000"
     borderopacity="0.25"
     inkscape:showpageshadow="2"
     inkscape:pageopacity="0.0"
     inkscape:pagecheckerboard="0"
     inkscape:deskcolor="#d1d1d1"
     inkscape:zoom="4.3531261"
     inkscape:cx="36.295755"
     inkscape:cy="39.971275"
     inkscape:window-width="2560"
     inkscape:window-height="1376"
     inkscape:window-x="0"
     inkscape:window-y="0"
     inkscape:window-maximized="1"
     inkscape:current-layer="svg7"
     showgrid="false" />
  <defs
     id="defs2">
    <style
       id="current-color-scheme"
       type="text/css">.ColorScheme-Text {color:#d8dee9} .ColorScheme-Highlight {color:#3b4252}</style>
  </defs>
  <metadata
     id="metadata2">
    <rdf:RDF>
      <cc:Work
         rdf:about="">
        <dc:format>image/svg+xml</dc:format>
        <dc:type
           rdf:resource="http://purl.org/dc/dcmitype/StillImage" />
      </cc:Work>
    </rdf:RDF>
  </metadata>
  <path
     d="m 10.325096,1.0479311 -0.531741,0.535427 a 7.0418149,7.0418149 0 0 0 -2.900082,0.06254 L 6.365575,1.1217671 A 7.6818787,7.6818787 0 0 0 3.446587,2.7100931 7.6818787,7.6818787 0 0 0 1.093348,6.432043 l 0.530076,0.526272 a 7.0418149,7.0418149 0 0 0 -0.03567,2.888072 l -0.540421,0.544107 a 7.6818787,7.6818787 0 0 0 5.145832,5.437862 l 0.522942,-0.526629 a 7.0418149,7.0418149 0 0 0 3.363928,0.05434 l 0.532574,0.529006 a 7.6818787,7.6818787 0 0 0 5.273058,-5.309444 l -0.529006,-0.525321 a 7.0418149,7.0418149 0 0 0 -0.08026,-3.368803 l 0.525676,-0.529363 a 7.6818787,7.6818787 0 0 0 -5.47698,-5.1042149 z m -1.834459,1.2699 A 6.1844715,6.1844715 0 0 1 14.675099,8.502295 6.1844715,6.1844715 0 0 1 8.490637,14.686757 6.1844715,6.1844715 0 0 1 2.306174,8.502295 6.1844715,6.1844715 0 0 1 8.490637,2.3178311 Z m 0.1585,1.323646 c -0.625213,0 -1.188773,0.114445 -1.690704,0.343396 C 6.456503,4.2138241 6.060217,4.544102 5.769625,4.975585 5.48784,5.3982641 5.34692,5.895818 5.34692,6.468194 c 0,0.678047 0.189358,1.241608 0.568007,1.6907041 0.387455,0.449096 1.065462,0.8585589 2.0341,1.228403 0.493124,0.1849209 0.827795,0.3653749 1.003911,0.5414908 0.176116,0.1673111 0.264205,0.3875351 0.264205,0.6605151 0,0.255368 -0.0793,0.462296 -0.237809,0.620801 -0.158504,0.158504 -0.405084,0.237689 -0.739705,0.237689 -0.660435,0 -1.316479,-0.290506 -1.968108,-0.871689 l -1.281196,1.4133 c 0.915803,0.915803 2.060615,1.373704 3.43432,1.373704 0.730881,0 1.364843,-0.12335 1.901996,-0.369912 0.537155,-0.255369 0.946618,-0.612002 1.228404,-1.069903 0.290591,-0.457902 0.435903,-0.98181 0.435903,-1.571799 0,-0.5459601 -0.08809,-0.9994679 -0.264205,-1.360507 C 11.559432,8.621148 11.299674,8.30856 10.947443,8.053192 10.59521,7.789018 10.124131,7.542438 9.534143,7.313487 9.120271,7.154982 8.816467,7.027359 8.62274,6.930495 8.429012,6.824826 8.292485,6.723558 8.213232,6.626694 8.133982,6.521024 8.094328,6.38889 8.094328,6.230386 c 0,-0.21134 0.07052,-0.378615 0.211412,-0.501896 0.140893,-0.132088 0.352214,-0.198096 0.633999,-0.198096 0.581183,0 1.15353,0.242069 1.7171,0.726388 L 11.792854,4.883078 C 11.387786,4.478011 10.929886,4.169815 10.419149,3.9584761 9.908413,3.7471371 9.318377,3.6414771 8.649137,3.6414771 Z"
     id="path4"
     class="ColorScheme-Text"
     style="fill:currentColor;fill-opacity:1;stroke-width:0.0589989" />
</svg>
