<?xml version='1.0' encoding='UTF-8'?>
<svg xmlns:inkscape="http://www.inkscape.org/namespaces/inkscape" xmlns:sodipodi="http://sodipodi.sourceforge.net/DTD/sodipodi-0.dtd" xmlns="http://www.w3.org/2000/svg" xmlns:svg="http://www.w3.org/2000/svg" height="16px" viewBox="0 0 16 16" width="16px" version="1.1" id="svg1" sodipodi:docname="folder-music-symbolic.svg" inkscape:version="1.4.2 (ebf0e940d0, 2025-05-08)">
  <defs id="defs1">
    <style id="current-color-scheme" type="text/css">.ColorScheme-Text {color:#d8dee9} .ColorScheme-Highlight {color:#3b4252}</style>
  </defs>
  <sodipodi:namedview id="namedview1" pagecolor="#ffffff" bordercolor="#000000" borderopacity="0.25" inkscape:showpageshadow="2" inkscape:pageopacity="0.0" inkscape:pagecheckerboard="0" inkscape:deskcolor="#d1d1d1" inkscape:zoom="17.766058" inkscape:cx="8.0771998" inkscape:cy="7.9927691" inkscape:window-width="1463" inkscape:window-height="750" inkscape:window-x="0" inkscape:window-y="0" inkscape:window-maximized="0" inkscape:current-layer="svg1"/>
  <path class="ColorScheme-Text" style="fill:currentColor;fill-opacity:1;stroke:none;stroke-width:1.12959;stroke-dasharray:none;display:inline;overflow:visible;visibility:visible;fill-rule:nonzero;stroke-linecap:butt;stroke-linejoin:miter;stroke-miterlimit:4;stroke-dashoffset:0;stroke-opacity:0.3;marker:none;enable-background:accumulate" id="rect2996-4-03" d="M 13.053978,0 6,1.90625 C 5.446,2.0546939 5,2.645207 5,3.21875 V 12.3125 C 4.4382289,12.018344 3.716744,11.899398 2.96875,12.09375 1.6189863,12.444461 0.77316552,13.577902 1.0625,14.625 c 0.2893345,1.047098 1.6189863,1.631961 2.96875,1.28125 1.0768335,-0.279795 1.5252383,-1.064241 1.6436216,-1.899043 V 5.3360911 L 13.011969,3.3350644 13,10.3125 C 12.438229,10.018344 11.716744,9.8993976 10.96875,10.09375 9.6189863,10.444461 8.7731655,11.577902 9.0625,12.625 c 0.2893345,1.047098 1.618986,1.631961 2.96875,1.28125 1.076834,-0.279795 1.529345,-1.065268 1.647728,-1.90007 V 0.8125 c 0,-0.43015725 -0.265844,-0.75198835 -0.625,-0.8125 z" transform="matrix(0.88528053,0,0,0.88528053,0.91650642,1.049076)"/>
</svg>
