<?xml version='1.0' encoding='UTF-8'?>
<svg xmlns:inkscape="http://www.inkscape.org/namespaces/inkscape" xmlns:sodipodi="http://sodipodi.sourceforge.net/DTD/sodipodi-0.dtd" xmlns="http://www.w3.org/2000/svg" xmlns:svg="http://www.w3.org/2000/svg" height="16px" viewBox="0 0 16 16" width="16px" version="1.1" id="svg1" sodipodi:docname="folder-documents-symbolic.svg" inkscape:version="1.4.2 (ebf0e940d0, 2025-05-08)">
  <defs id="defs1">
    <style id="current-color-scheme" type="text/css">.ColorScheme-Text {color:#d8dee9} .ColorScheme-Highlight {color:#3b4252}</style>
  </defs>
  <sodipodi:namedview id="namedview1" pagecolor="#ffffff" bordercolor="#000000" borderopacity="0.25" inkscape:showpageshadow="2" inkscape:pageopacity="0.0" inkscape:pagecheckerboard="0" inkscape:deskcolor="#d1d1d1" inkscape:zoom="17.766058" inkscape:cx="7.9927691" inkscape:cy="8.0490562" inkscape:window-width="1920" inkscape:window-height="1044" inkscape:window-x="0" inkscape:window-y="0" inkscape:window-maximized="1" inkscape:current-layer="svg1"/>
  <path class="ColorScheme-Text" style="fill:currentColor;fill-opacity:1;stroke:none;display:inline;overflow:visible;visibility:visible;fill-rule:nonzero;stroke-width:0.32664;stroke-linecap:butt;stroke-linejoin:miter;stroke-miterlimit:4;stroke-dasharray:none;stroke-dashoffset:0;stroke-opacity:0.3;marker:none;enable-background:accumulate" id="rect21401-5-1" d="m 7.0180837,8.5988808 c -0.1602811,0 -0.2893163,0.1290353 -0.2893163,0.2893163 v 4.0504269 c 0,0.160281 0.1290352,0.289316 0.2893163,0.289316 h 2.8931611 c 0.1602822,0 0.2892342,-0.129035 0.2893182,-0.289316 l 0.0015,-2.9895948 C 10.202188,9.7887482 9.0122436,8.5988866 8.8519624,8.5988866 Z m 0.2426417,0.3857608 h 1.5912389 v 0.9643876 h 0.9643874 v 2.7485028 c 0,0.08014 -0.06452,0.144659 -0.144658,0.144659 H 7.2607254 c -0.080139,0 -0.1446581,-0.06451 -0.1446581,-0.144659 V 9.1292997 c 0,-0.080139 0.064516,-0.1446581 0.1446581,-0.1446581 z" transform="matrix(3.0614776,0,0,3.0614776,-17.642664,-25.307523)"/>
</svg>
