<?xml version='1.0' encoding='UTF-8'?>
<svg xmlns:inkscape="http://www.inkscape.org/namespaces/inkscape" xmlns:sodipodi="http://sodipodi.sourceforge.net/DTD/sodipodi-0.dtd" xmlns="http://www.w3.org/2000/svg" xmlns:svg="http://www.w3.org/2000/svg" height="16px" viewBox="0 0 16 16" width="16px" version="1.1" id="svg4" sodipodi:docname="folder-remote-symbolic.svg" inkscape:version="1.4.2 (ebf0e940d0, 2025-05-08)">
  <defs id="defs2">
    <style id="current-color-scheme" type="text/css">.ColorScheme-Text {color:#d8dee9} .ColorScheme-Highlight {color:#3b4252}</style>
  </defs>
  <sodipodi:namedview id="namedview4" pagecolor="#ffffff" bordercolor="#000000" borderopacity="0.25" inkscape:showpageshadow="2" inkscape:pageopacity="0.0" inkscape:pagecheckerboard="0" inkscape:deskcolor="#d1d1d1" inkscape:zoom="12.5625" inkscape:cx="8" inkscape:cy="8.039801" inkscape:window-width="1463" inkscape:window-height="750" inkscape:window-x="0" inkscape:window-y="0" inkscape:window-maximized="0" inkscape:current-layer="svg4"/>
  <path d="m 59.064,265.043 c -3.41,0 -6.363,1.995 -7.827,4.892 a 6,6 0 0 0 -3.28,-0.978 c -3.384,0 -6.127,2.803 -6.127,6.26 0,0.55 0.085,1.082 0.216,1.59 -2.445,1.684 -4.046,4.55 -4.046,7.8 0,5.204 4.1,9.393 9.191,9.393 H 64.81 c 5.09,0 9.19,-4.189 9.19,-9.392 0,-4.155 -2.625,-7.657 -6.271,-8.902 0.099,-0.54 0.144,-1.093 0.144,-1.663 0,-4.97 -3.944,-9 -8.81,-9 z" overflow="visible" style="fill:currentColor;fill-opacity:1;stroke:none;stroke-width:2.54026;stroke-dasharray:none;stroke-linecap:butt;stroke-linejoin:miter;stroke-miterlimit:4;stroke-dashoffset:0;stroke-opacity:0.3;marker:none;overflow:visible" class="ColorScheme-Text" id="path66" transform="matrix(0.39365997,0,0,0.39365997,-13.863558,-102.18264)"/>
</svg>
