<?xml version='1.0' encoding='UTF-8'?>
<svg xmlns:inkscape="http://www.inkscape.org/namespaces/inkscape" xmlns:sodipodi="http://sodipodi.sourceforge.net/DTD/sodipodi-0.dtd" xmlns="http://www.w3.org/2000/svg" xmlns:svg="http://www.w3.org/2000/svg" width="16px" height="16px" viewBox="0 0 16 16" version="1.1" id="svg8" sodipodi:docname="network-workgroup-symbolic.svg" inkscape:version="1.4.2 (ebf0e940d0, 2025-05-08)">
  <defs id="defs2">
  <style id="current-color-scheme" type="text/css">.ColorScheme-Text {color:#d8dee9} .ColorScheme-Highlight {color:#3b4252}</style>
  </defs>
  <sodipodi:namedview id="namedview8" pagecolor="#505050" bordercolor="#eeeeee" borderopacity="1" inkscape:showpageshadow="0" inkscape:pageopacity="0" inkscape:pagecheckerboard="0" inkscape:deskcolor="#505050" inkscape:zoom="52.25" inkscape:cx="8" inkscape:cy="8" inkscape:window-width="2560" inkscape:window-height="1376" inkscape:window-x="0" inkscape:window-y="0" inkscape:window-maximized="1" inkscape:current-layer="svg8"/>
  <path id="path5" class="ColorScheme-Text" style="stroke:none;fill-rule:nonzero;fill:currentColor;fill-opacity:1" d="M 3.1132812 1.9960938 C 1.4179693 1.9960938 0.0234375 3.3906245 0.0234375 5.0859375 L 0.0234375 7.8945312 C 0.0234375 9.5598001 1.368979 10.934208 3.0234375 10.982422 L 3.0234375 12.271484 C 2.7343799 12.439052 2.4867334 12.677672 2.3085938 12.972656 L 0.99609375 12.972656 C 0.44531175 12.972656 -0.00390625 13.421875 -0.00390625 13.972656 C -0.00390625 14.523438 0.44531175 14.972656 0.99609375 14.972656 L 2.2773438 14.972656 C 2.6289058 15.613281 3.2968747 16.007812 4.0273438 16.011719 C 4.7578117 16.007812 5.429688 15.613281 5.78125 14.972656 L 6.9960938 14.972656 L 9.0273438 14.972656 L 10.242188 14.972656 C 10.593749 15.613281 11.265625 16.007812 11.996094 16.011719 C 12.726562 16.007812 13.394531 15.613281 13.746094 14.972656 L 15.027344 14.972656 C 15.578125 14.972656 16.027344 14.523438 16.027344 13.972656 C 16.027344 13.421875 15.578125 12.972656 15.027344 12.972656 L 13.714844 12.972656 C 13.536704 12.677672 13.289057 12.439052 13 12.271484 L 13 10.982422 C 14.650798 10.934102 16 9.5597324 16 7.8945312 L 16 5.0859375 C 16 3.3906245 14.601562 1.9960938 12.910156 1.9960938 L 11.089844 1.9960938 C 9.4848278 1.9960938 8.1494219 3.2466154 8.0117188 4.8183594 C 7.873653 3.2466154 6.5349108 1.9960938 4.9335938 1.9960938 L 3.1132812 1.9960938 z M 3.1132812 3.9960938 L 4.9335938 3.9960938 C 5.5546877 3.9960938 6.0234375 4.4648435 6.0234375 5.0859375 L 6.0234375 7 L 2.0234375 7 L 2.0234375 5.0859375 C 2.0234375 4.4648435 2.4921882 3.9960938 3.1132812 3.9960938 z M 11.089844 3.9960938 L 12.910156 3.9960938 C 13.53125 3.9960938 14 4.4648435 14 5.0859375 L 14 7 L 10 7 L 10 5.0859375 C 10 4.4648435 10.46875 3.9960938 11.089844 3.9960938 z M 2.0332031 8.0507812 L 6.0136719 8.0507812 C 5.942288 8.5925854 5.5014172 8.984375 4.9335938 8.984375 L 3.1132812 8.984375 C 2.5454587 8.984375 2.104587 8.5925854 2.0332031 8.0507812 z M 10.009766 8.0507812 L 13.990234 8.0507812 C 13.91885 8.5925854 13.47798 8.984375 12.910156 8.984375 L 11.089844 8.984375 C 10.52202 8.984375 10.08115 8.5925854 10.009766 8.0507812 z M 8.0117188 8.1621094 C 8.1466193 9.7018642 9.430965 10.932955 10.992188 10.982422 L 10.992188 12.271484 C 10.70385 12.438541 10.457369 12.677848 10.28125 12.972656 L 9.0273438 12.972656 L 6.9960938 12.972656 L 5.7421875 12.972656 C 5.5644617 12.678358 5.3184877 12.440452 5.03125 12.273438 L 5.03125 10.982422 C 6.5890266 10.932848 7.8764693 9.7017927 8.0117188 8.1621094 z M 4.0273438 13 C 4.5820307 13 5.0351562 13.449219 5.0351562 14.007812 C 5.0351563 14.5625 4.5820307 15.011719 4.0273438 15.011719 C 3.4726557 15.011719 3.0195305 14.562501 3.0234375 14.007812 C 3.0195305 13.449219 3.4726557 13 4.0273438 13 z M 11.996094 13 C 12.550781 13 13 13.449219 13 14.007812 C 13 14.562501 12.550781 15.011719 11.996094 15.011719 C 11.441406 15.011719 10.988281 14.5625 10.988281 14.007812 C 10.988281 13.449219 11.441406 13 11.996094 13 z "/>
</svg>
