<?xml version='1.0' encoding='UTF-8'?>
<svg xmlns:inkscape="http://www.inkscape.org/namespaces/inkscape" xmlns:sodipodi="http://sodipodi.sourceforge.net/DTD/sodipodi-0.dtd" xmlns="http://www.w3.org/2000/svg" xmlns:svg="http://www.w3.org/2000/svg" height="16px" viewBox="0 0 16 16" width="16px" version="1.1" id="svg5" sodipodi:docname="network-server-symbolic.svg" inkscape:version="1.4.2 (ebf0e940d0, 2025-05-08)">
  <defs id="defs2">
  <style id="current-color-scheme" type="text/css">.ColorScheme-Text {color:#d8dee9} .ColorScheme-Highlight {color:#3b4252}</style>
</defs>
  <sodipodi:namedview id="namedview5" pagecolor="#505050" bordercolor="#eeeeee" borderopacity="1" inkscape:showpageshadow="0" inkscape:pageopacity="0" inkscape:pagecheckerboard="0" inkscape:deskcolor="#505050" inkscape:zoom="52.25" inkscape:cx="8" inkscape:cy="8" inkscape:window-width="1920" inkscape:window-height="1044" inkscape:window-x="0" inkscape:window-y="0" inkscape:window-maximized="1" inkscape:current-layer="svg5"/>
  <path id="path5" class="ColorScheme-Text" d="M 4.0078125 0 C 1.7890625 0 -1.1842379e-15 1.7890625 0 4.0078125 L 0 6.9804688 C 0 9.1992188 1.7890625 10.984375 4.0078125 10.984375 L 6.9921875 10.984375 L 6.9921875 12.271484 C 6.7038497 12.439038 6.4573691 12.677848 6.28125 12.972656 L 2.9960938 12.972656 C 2.4414057 12.972656 1.9960937 13.421875 1.9960938 13.972656 C 1.9960938 14.523438 2.4414057 14.972656 2.9960938 14.972656 L 6.2421875 14.972656 C 6.5937495 15.613281 7.2656247 16.007812 7.9960938 16.011719 C 8.7226557 16.007812 9.3945307 15.613281 9.7460938 14.972656 L 13.007812 14.972656 C 13.558594 14.972656 14.007812 14.523438 14.007812 13.972656 C 14.007812 13.421875 13.558594 12.972656 13.007812 12.972656 L 9.7148438 12.972656 C 9.5367037 12.677672 9.2890573 12.439052 9 12.271484 L 9 10.984375 L 11.992188 10.984375 C 14.210938 10.984375 16 9.1992188 16 6.9804688 L 16 4.0078125 C 16 1.7890625 14.210938 -5.9211895e-16 11.992188 0 L 4.0078125 0 z M 4.0078125 2 L 11.992188 2 C 13.105469 2 14 2.8945315 14 4.0078125 L 14 6.9804688 C 14 8.0898438 13.105469 8.984375 11.992188 8.984375 L 4.0078125 8.984375 C 2.8945315 8.984375 2 8.0898438 2 6.9804688 L 2 4.0078125 C 2 2.8945315 2.8945315 2 4.0078125 2 z M 5 4 C 4.449219 4 4 4.449219 4 5 C 4 5.550781 4.449219 6 5 6 C 5.550781 6 6 5.550781 6 5 C 6 4.449219 5.550781 4 5 4 z M 8 4 C 7.449219 4 7 4.449219 7 5 C 7 5.550781 7.449219 6 8 6 C 8.550781 6 9 5.550781 9 5 C 9 4.449219 8.550781 4 8 4 z M 7.9960938 13 C 8.5507808 13 9 13.449219 9 14.007812 C 9 14.562501 8.5507808 15.011719 7.9960938 15.011719 C 7.4374997 15.011719 6.9882812 14.5625 6.9882812 14.007812 C 6.9882812 13.449219 7.4374997 13 7.9960938 13 z " style="fill:currentColor;fill-opacity:1"/>
</svg>
