<?xml version='1.0' encoding='UTF-8'?>
<svg xmlns:inkscape="http://www.inkscape.org/namespaces/inkscape" xmlns:sodipodi="http://sodipodi.sourceforge.net/DTD/sodipodi-0.dtd" xmlns="http://www.w3.org/2000/svg" xmlns:svg="http://www.w3.org/2000/svg" height="16px" viewBox="0 0 16 16" width="16px" version="1.1" id="svg5" sodipodi:docname="user-trash-symbolic.svg" inkscape:version="1.4.2 (ebf0e940d0, 2025-05-08)">
  <defs id="defs2"><style id="current-color-scheme" type="text/css">.ColorScheme-Text {color:#d8dee9} .ColorScheme-Highlight {color:#3b4252}</style><linearGradient id="linearGradient3" inkscape:collect="always">
      <stop style="stop-color:#000000;stop-opacity:1;" offset="0" id="stop3"/>
      <stop style="stop-color:#000000;stop-opacity:0;" offset="1" id="stop4"/>
    </linearGradient>
    <linearGradient xmlns:xlink="http://www.w3.org/1999/xlink" inkscape:collect="always" xlink:href="#linearGradient3" id="linearGradient4" x1="13.512321" y1="13.490874" x2="3.3783066" y2="3.3568602" gradientUnits="userSpaceOnUse"/>
  </defs>
  <sodipodi:namedview id="namedview5" pagecolor="#505050" bordercolor="#eeeeee" borderopacity="1" inkscape:showpageshadow="0" inkscape:pageopacity="0" inkscape:pagecheckerboard="0" inkscape:deskcolor="#505050" inkscape:zoom="52.25" inkscape:cx="8" inkscape:cy="8" inkscape:window-width="1920" inkscape:window-height="1044" inkscape:window-x="0" inkscape:window-y="0" inkscape:window-maximized="1" inkscape:current-layer="svg5"/>
  <path id="path1" class="ColorScheme-Text" style="fill:currentColor;" d="M 6.5 0 C 5.113281 0 4 1.113281 4 2.5 L 4 3 L 1 3 C 0.449219 3 0 3.449219 0 4 C 0 4.550781 0.449219 5 1 5 L 2 5 L 2 13 C 2 14.660156 3.339844 16 5 16 L 11 16 C 12.660156 16 14 14.660156 14 13 L 14 5 L 15 5 C 15.550781 5 16 4.550781 16 4 C 16 3.449219 15.550781 3 15 3 L 11.980469 3 L 11.980469 2.5 C 11.980469 1.113281 10.863281 0 9.4804688 0 L 6.5 0 z M 6.5 2 L 9.4804688 2 C 9.7499998 2 9.9804688 2.230469 9.9804688 2.5 L 9.9804688 3 L 6 3 L 6 2.5 C 6 2.230469 6.230469 2 6.5 2 z M 4 5 L 12 5 L 12 13 C 12 13.546875 11.546875 14 11 14 L 5 14 C 4.453125 14 4 13.546875 4 13 L 4 5 z M 6.5 6.5 C 6.222656 6.5 6 6.722656 6 7 L 6 12 C 6 12.277344 6.222656 12.5 6.5 12.5 C 6.777344 12.5 7 12.277344 7 12 L 7 7 C 7 6.722656 6.777344 6.5 6.5 6.5 z M 9.5 6.5 C 9.222656 6.5 9 6.722656 9 7 L 9 12 C 9 12.277344 9.222656 12.5 9.5 12.5 C 9.777344 12.5 10 12.277344 10 12 L 10 7 C 10 6.722656 9.777344 6.5 9.5 6.5 z "/>
<path id="gradient-path1" style="opacity:0.3;baseline-shift:baseline;display:inline;overflow:visible;vector-effect:none;enable-background:accumulate;stop-color:#000000;stop-opacity:1;fill:url(#linearGradient4)" d="M 8.4453131 1.2753492 C 4.4913166 1.2753492 1.2794833 4.4784283 1.2794833 8.4236094 C 1.2794833 12.36879 4.4913166 15.572386 8.4453131 15.572386 C 12.39931 15.572386 15.611143 12.36879 15.611143 8.4236094 C 15.611143 4.4784283 12.39931 1.2753492 8.4453131 1.2753492 z "/>
</svg>
