<?xml version='1.0' encoding='UTF-8'?>
<svg xmlns:inkscape="http://www.inkscape.org/namespaces/inkscape" xmlns:sodipodi="http://sodipodi.sourceforge.net/DTD/sodipodi-0.dtd" xmlns="http://www.w3.org/2000/svg" xmlns:svg="http://www.w3.org/2000/svg" width="48" height="48" version="1.1" id="svg1" sodipodi:docname="emblem-insync-synced-shared.svg" inkscape:version="1.4.2 (ebf0e940d0, 2025-05-08)">
  <defs id="defs1">
    <style id="current-color-scheme" type="text/css">.ColorScheme-Text {color:#d8dee9} .ColorScheme-Highlight {color:#3b4252}</style>
  </defs>
  <sodipodi:namedview id="namedview1" pagecolor="#ffffff" bordercolor="#000000" borderopacity="0.25" inkscape:showpageshadow="2" inkscape:pageopacity="0.0" inkscape:pagecheckerboard="0" inkscape:deskcolor="#d1d1d1" inkscape:zoom="4" inkscape:cx="24" inkscape:cy="23.875" inkscape:window-width="1272" inkscape:window-height="669" inkscape:window-x="0" inkscape:window-y="0" inkscape:window-maximized="0" inkscape:current-layer="svg1"/>
  <path style="baseline-shift:baseline;display:inline;overflow:visible;vector-effect:none;fill:currentColor;enable-background:accumulate;stop-color:#000000" d="M 44,24 A 20,20 0 0 1 24,44 20,20 0 0 1 4,24 20,20 0 0 1 24,4 20,20 0 0 1 44,24 Z" id="path2" class="ColorScheme-Highlight" inkscape:label="path2"/>
  <path style="baseline-shift:baseline;display:inline;overflow:visible;vector-effect:none;fill:currentColor;enable-background:accumulate;stop-color:#000000" d="M 24,2 C 11.873425,2 2,11.873425 2,24 2,36.126575 11.873425,46 24,46 36.126575,46 46,36.126575 46,24 46,11.873425 36.126575,2 24,2 Z m 0,4 c 9.964815,0 18,8.035185 18,18 0,9.964815 -8.035185,18 -18,18 C 14.035185,42 6,33.964815 6,24 6,14.035185 14.035185,6 24,6 Z" class="ColorScheme-Text" id="path3"/>
  <path style="fill:currentColor" class="ColorScheme-Text" d="m 28.81102,13.147437 a 4,4 0 0 0 -3.2754,1.9961 4,4 0 0 0 -0.38672,3.0684 l -5.2949,3.0586 a 4,4 0 0 0 -2.854,-1.199 4,4 0 0 0 -4,4 4,4 0 0 0 4,4 4,4 0 0 0 2.8516,-1.1992 l 5.2949,3.0586 a 4,4 0 0 0 0.388,3.068 4,4 0 0 0 5.465,1.465 4,4 0 0 0 1.465,-5.465 4,4 0 0 0 -5.465,-1.463 4,4 0 0 0 -0.854,0.662 l -5.296,-3.057 a 4,4 0 0 0 0.15,-1.07 4,4 0 0 0 -0.146,-1.07 l 5.2949,-3.0566 a 4,4 0 0 0 0.851,0.662 4,4 0 0 0 5.465,-1.463 4,4 0 0 0 -1.465,-5.465 4,4 0 0 0 -2.189,-0.531 z" id="path99"/>
</svg>
