<?xml version='1.0' encoding='UTF-8'?>
<svg xmlns:inkscape="http://www.inkscape.org/namespaces/inkscape" xmlns:sodipodi="http://sodipodi.sourceforge.net/DTD/sodipodi-0.dtd" xmlns="http://www.w3.org/2000/svg" xmlns:svg="http://www.w3.org/2000/svg" width="48" height="48" version="1.1" id="svg1" sodipodi:docname="emblem-dropbox-infinite.svg" inkscape:version="1.4.2 (ebf0e940d0, 2025-05-08)">
  <defs id="defs1">
    <style id="current-color-scheme" type="text/css">.ColorScheme-Text {color:#d8dee9} .ColorScheme-Highlight {color:#3b4252}</style>
  </defs>
  <sodipodi:namedview id="namedview1" pagecolor="#ffffff" bordercolor="#000000" borderopacity="0.25" inkscape:showpageshadow="2" inkscape:pageopacity="0.0" inkscape:pagecheckerboard="0" inkscape:deskcolor="#d1d1d1" inkscape:zoom="4" inkscape:cx="24" inkscape:cy="23.875" inkscape:window-width="1272" inkscape:window-height="669" inkscape:window-x="0" inkscape:window-y="0" inkscape:window-maximized="0" inkscape:current-layer="svg1"/>
  <path style="baseline-shift:baseline;display:inline;overflow:visible;vector-effect:none;fill:currentColor;enable-background:accumulate;stop-color:#000000" d="M 44,24 A 20,20 0 0 1 24,44 20,20 0 0 1 4,24 20,20 0 0 1 24,4 20,20 0 0 1 44,24 Z" id="path2" class="ColorScheme-Highlight" inkscape:label="path2"/>
  <path style="baseline-shift:baseline;display:inline;overflow:visible;vector-effect:none;fill:currentColor;enable-background:accumulate;stop-color:#000000" d="M 24,2 C 11.873425,2 2,11.873425 2,24 2,36.126575 11.873425,46 24,46 36.126575,46 46,36.126575 46,24 46,11.873425 36.126575,2 24,2 Z m 0,4 c 9.964815,0 18,8.035185 18,18 0,9.964815 -8.035185,18 -18,18 C 14.035185,42 6,33.964815 6,24 6,14.035185 14.035185,6 24,6 Z" class="ColorScheme-Text" id="path3"/>
  <path style="fill:currentColor" class="ColorScheme-Text" d="m 24,15 c -3.364,0 -6.224,2.189 -7.459,5.097 C 13.405,20.569 11,23.234 11,26.5 11,30.091 13.909,33 17.5,33 H 31 c 3.137,0 6,-2.864 6,-6 0,-2.925 -2.194,-5 -5.021,-5.326 C 31.231,17.952 27.949,15 24,15 Z" id="path99"/>
</svg>
