<?xml version='1.0' encoding='UTF-8'?>
<svg xmlns:inkscape="http://www.inkscape.org/namespaces/inkscape" xmlns:sodipodi="http://sodipodi.sourceforge.net/DTD/sodipodi-0.dtd" xmlns="http://www.w3.org/2000/svg" xmlns:svg="http://www.w3.org/2000/svg" width="48" height="48" version="1.1" id="svg1" sodipodi:docname="emblem-locked.svg" inkscape:version="1.4.2 (ebf0e940d0, 2025-05-08)">
  <defs id="defs1">
    <style id="current-color-scheme" type="text/css">.ColorScheme-Text {color:#d8dee9} .ColorScheme-Highlight {color:#3b4252}</style>
  </defs>
  <sodipodi:namedview id="namedview1" pagecolor="#ffffff" bordercolor="#000000" borderopacity="0.25" inkscape:showpageshadow="2" inkscape:pageopacity="0.0" inkscape:pagecheckerboard="0" inkscape:deskcolor="#d1d1d1" inkscape:zoom="4" inkscape:cx="24" inkscape:cy="23.875" inkscape:window-width="1272" inkscape:window-height="669" inkscape:window-x="0" inkscape:window-y="0" inkscape:window-maximized="0" inkscape:current-layer="svg1"/>
  <path style="baseline-shift:baseline;display:inline;overflow:visible;vector-effect:none;fill:currentColor;enable-background:accumulate;stop-color:#000000" d="M 44,24 A 20,20 0 0 1 24,44 20,20 0 0 1 4,24 20,20 0 0 1 24,4 20,20 0 0 1 44,24 Z" id="path2" class="ColorScheme-Highlight" inkscape:label="path2"/>
  <path style="baseline-shift:baseline;display:inline;overflow:visible;vector-effect:none;fill:currentColor;enable-background:accumulate;stop-color:#000000" d="M 24,2 C 11.873425,2 2,11.873425 2,24 2,36.126575 11.873425,46 24,46 36.126575,46 46,36.126575 46,24 46,11.873425 36.126575,2 24,2 Z m 0,4 c 9.964815,0 18,8.035185 18,18 0,9.964815 -8.035185,18 -18,18 C 14.035185,42 6,33.964815 6,24 6,14.035185 14.035185,6 24,6 Z" class="ColorScheme-Text" id="path3"/>
  <path style="fill:currentColor;stroke-width:0.9" class="ColorScheme-Text" d="m 23.999998,12.2 c -3.6,0 -6.3,1.800005 -6.3,6.299995 v 2.7 h -1.2 c -0.830999,0 -1.5,0.675262 -1.5,1.530005 v 9.527143 c 0,0.854742 0.669001,1.542857 1.5,1.542857 h 15.000001 c 0.830999,0 1.5,-0.688115 1.5,-1.542857 V 22.73 c 0,-0.854743 -0.669001,-1.530005 -1.5,-1.530005 h -1.2 v -2.7 c 0,-4.49999 -2.7,-6.299995 -6.300001,-6.299995 z m 0,2.7 c 1.800001,0 3.600001,0.899995 3.600001,3.599995 v 2.7 h -7.200001 v -2.7 c 0,-2.7 1.8,-3.599995 3.6,-3.599995 z" id="path99"/>
</svg>
