<?xml version='1.0' encoding='UTF-8'?>
<svg xmlns:inkscape="http://www.inkscape.org/namespaces/inkscape" xmlns:sodipodi="http://sodipodi.sourceforge.net/DTD/sodipodi-0.dtd" xmlns="http://www.w3.org/2000/svg" xmlns:svg="http://www.w3.org/2000/svg" width="48" height="48" version="1.1" id="svg1" sodipodi:docname="emblem-mail.svg" inkscape:version="1.4.2 (ebf0e940d0, 2025-05-08)">
  <defs id="defs1">
    <style id="current-color-scheme" type="text/css">.ColorScheme-Text {color:#d8dee9} .ColorScheme-Highlight {color:#3b4252}</style>
  </defs>
  <sodipodi:namedview id="namedview1" pagecolor="#ffffff" bordercolor="#000000" borderopacity="0.25" inkscape:showpageshadow="2" inkscape:pageopacity="0.0" inkscape:pagecheckerboard="0" inkscape:deskcolor="#d1d1d1" inkscape:zoom="4" inkscape:cx="24" inkscape:cy="23.875" inkscape:window-width="1272" inkscape:window-height="669" inkscape:window-x="0" inkscape:window-y="0" inkscape:window-maximized="0" inkscape:current-layer="svg1"/>
  <path style="baseline-shift:baseline;display:inline;overflow:visible;vector-effect:none;fill:currentColor;enable-background:accumulate;stop-color:#000000" d="M 44,24 A 20,20 0 0 1 24,44 20,20 0 0 1 4,24 20,20 0 0 1 24,4 20,20 0 0 1 44,24 Z" id="path2" class="ColorScheme-Highlight" inkscape:label="path2"/>
  <path style="baseline-shift:baseline;display:inline;overflow:visible;vector-effect:none;fill:currentColor;enable-background:accumulate;stop-color:#000000" d="M 24,2 C 11.873425,2 2,11.873425 2,24 2,36.126575 11.873425,46 24,46 36.126575,46 46,36.126575 46,24 46,11.873425 36.126575,2 24,2 Z m 0,4 c 9.964815,0 18,8.035185 18,18 0,9.964815 -8.035185,18 -18,18 C 14.035185,42 6,33.964815 6,24 6,14.035185 14.035185,6 24,6 Z" class="ColorScheme-Text" id="path3"/>
  <path style="fill:currentColor" class="ColorScheme-Text" d="m 24,12 c -6.627,0 -12,5.373 -12,12 0,6.627 5.373,12 12,12 h 7.5 c 0,0 1.4063,0 1.5,-1.5 C 33,33 31.5,33 31.5,33 H 24 c -4.9706,0 -9,-4.0294 -9,-9 0,-4.9706 4.0294,-9 9,-9 4.971,0 9,4.029 9,9 v 1.5 C 33,26.328 32.328,27 31.5,27 30.672,27 30,26.328 30,25.5 V 24 c 0,-3.314 -2.686,-6 -6,-6 -3.314,0 -6,2.686 -6,6 0,3.314 2.686,6 6,6 1.569,0 2.986,-0.616 4.055,-1.603 0.855,1.017 2.116,1.604 3.445,1.603 2.485,0 4.5,-2.015 4.5,-4.5 V 24 C 36,17.373 30.627,12 24,12 Z m 0,9 c 1.6568,0 3,1.3432 3,3 0,1.657 -1.343,3 -3,3 -1.657,0 -3,-1.343 -3,-3 0,-1.6568 1.3432,-3 3,-3 z" id="path99"/>
</svg>
