<?xml version='1.0' encoding='UTF-8'?>
<svg xmlns:inkscape="http://www.inkscape.org/namespaces/inkscape" xmlns:sodipodi="http://sodipodi.sourceforge.net/DTD/sodipodi-0.dtd" xmlns="http://www.w3.org/2000/svg" xmlns:svg="http://www.w3.org/2000/svg" width="48" height="48" version="1.1" id="svg1" sodipodi:docname="emblem-generic.svg" inkscape:version="1.4.2 (ebf0e940d0, 2025-05-08)">
  <defs id="defs1">
    <style id="current-color-scheme" type="text/css">.ColorScheme-Text {color:#d8dee9} .ColorScheme-Highlight {color:#3b4252}</style>
  </defs>
  <sodipodi:namedview id="namedview1" pagecolor="#ffffff" bordercolor="#000000" borderopacity="0.25" inkscape:showpageshadow="2" inkscape:pageopacity="0.0" inkscape:pagecheckerboard="0" inkscape:deskcolor="#d1d1d1" inkscape:zoom="4" inkscape:cx="24" inkscape:cy="23.875" inkscape:window-width="1272" inkscape:window-height="669" inkscape:window-x="0" inkscape:window-y="0" inkscape:window-maximized="0" inkscape:current-layer="svg1"/>
  <path style="baseline-shift:baseline;display:inline;overflow:visible;vector-effect:none;fill:currentColor;enable-background:accumulate;stop-color:#000000" d="M 44,24 A 20,20 0 0 1 24,44 20,20 0 0 1 4,24 20,20 0 0 1 24,4 20,20 0 0 1 44,24 Z" id="path2" class="ColorScheme-Highlight" inkscape:label="path2"/>
  <path style="baseline-shift:baseline;display:inline;overflow:visible;vector-effect:none;fill:currentColor;enable-background:accumulate;stop-color:#000000" d="M 24,2 C 11.873425,2 2,11.873425 2,24 2,36.126575 11.873425,46 24,46 36.126575,46 46,36.126575 46,24 46,11.873425 36.126575,2 24,2 Z m 0,4 c 9.964815,0 18,8.035185 18,18 0,9.964815 -8.035185,18 -18,18 C 14.035185,42 6,33.964815 6,24 6,14.035185 14.035185,6 24,6 Z" class="ColorScheme-Text" id="path3"/>
  <path style="fill:currentColor" class="ColorScheme-Text" d="m 22,10 v 9.171875 L 15.515625,12.685547 12.685547,15.515625 19.171875,22 H 10 v 4 h 9.171875 l -6.486328,6.484375 2.830078,2.830078 L 22,28.828125 V 38 h 4 v -9.171875 l 6.484375,6.486328 2.830078,-2.830078 L 28.828125,26 H 38 V 22 H 28.828125 L 35.314453,15.515625 32.484375,12.685547 26,19.171875 V 10 Z" id="path99"/>
</svg>
