<?xml version="1.0" encoding="UTF-8" standalone="no"?>
<svg
   width="64"
   height="64"
   version="1.1"
   viewBox="0 0 16.933 16.933"
   id="svg7"
   sodipodi:docname="drive-multidisk.svg"
   inkscape:version="1.4.2 (ebf0e940d0, 2025-05-08)"
   xmlns:inkscape="http://www.inkscape.org/namespaces/inkscape"
   xmlns:sodipodi="http://sodipodi.sourceforge.net/DTD/sodipodi-0.dtd"
   xmlns="http://www.w3.org/2000/svg"
   xmlns:svg="http://www.w3.org/2000/svg"
   xmlns:rdf="http://www.w3.org/1999/02/22-rdf-syntax-ns#"
   xmlns:cc="http://creativecommons.org/ns#"
   xmlns:dc="http://purl.org/dc/elements/1.1/">
  <sodipodi:namedview
     id="namedview7"
     pagecolor="#9c4444"
     bordercolor="#000000"
     borderopacity="0.25"
     inkscape:showpageshadow="2"
     inkscape:pageopacity="0.0"
     inkscape:pagecheckerboard="0"
     inkscape:deskcolor="#d1d1d1"
     inkscape:zoom="4.3531261"
     inkscape:cx="36.295755"
     inkscape:cy="39.971275"
     inkscape:window-width="2560"
     inkscape:window-height="1376"
     inkscape:window-x="0"
     inkscape:window-y="0"
     inkscape:window-maximized="1"
     inkscape:current-layer="svg7"
     showgrid="false" />
  <defs
     id="defs2">
    <filter
       style="color-interpolation-filters:sRGB;"
       inkscape:label="Blur"
       id="filter1283"
       x="-0.082344266"
       y="-0.082344266"
       width="1.1646885"
       height="1.1646885">
      <feGaussianBlur
         stdDeviation="0.5 0.5"
         result="blur"
         id="feGaussianBlur1281" />
    </filter>
    <filter
       style="color-interpolation-filters:sRGB;"
       inkscape:label="Blur"
       id="filter1694"
       x="-0.94955398"
       y="-0.2118907"
       width="2.899108"
       height="1.4237814">
      <feGaussianBlur
         stdDeviation="0.2 0.2"
         result="blur"
         id="feGaussianBlur1692" />
    </filter>
    <style
       id="current-color-scheme"
       type="text/css">.ColorScheme-Text {color:#d8dee9} .ColorScheme-Highlight {color:#3b4252}</style>
  </defs>
  <metadata
     id="metadata2">
    <rdf:RDF>
      <cc:Work
         rdf:about="">
        <dc:format>image/svg+xml</dc:format>
        <dc:type
           rdf:resource="http://purl.org/dc/dcmitype/StillImage" />
      </cc:Work>
    </rdf:RDF>
  </metadata>
  <path
     d="M 4.056864,3.1749375 V 13.758062 h 8.819272 V 3.1749375 Z m 1.763856,0.881927 h 5.29156 a 0.88192693,0.88192693 0 0 1 0.881926,0.881926 c -1.175606,0 -1.175606,1.763856 0,1.763856 L 11.11228,7.5845735 H 5.82072 L 4.938791,6.7026465 c 1.175609,0 1.175609,-1.763856 0,-1.763856 A 0.88192693,0.88192693 0 0 1 5.82072,4.0568645 Z M 4.938791,8.4665005 H 8.4665 v 0.881926 H 4.938791 Z m 5.291562,0 h 1.763853 v 0.881926 H 10.230353 Z M 4.938791,10.230353 H 8.4665 v 0.881926 H 4.938791 Z m 5.291562,0 h 1.763853 v 0.881926 H 10.230353 Z M 4.938791,11.994206 H 8.4665 v 0.881929 H 4.938791 Z m 5.291562,0 h 1.763853 v 0.881929 h -1.763853 z"
     class="ColorScheme-Text"
     id="path5"
     style="fill:currentColor;fill-opacity:1;stroke-width:0.881927" />
</svg>
