<?xml version="1.0" encoding="UTF-8" standalone="no"?>
<svg
   width="64"
   height="64"
   version="1.1"
   viewBox="0 0 16.933 16.933"
   id="svg7"
   sodipodi:docname="network-wireless.svg"
   inkscape:version="1.4.2 (ebf0e940d0, 2025-05-08)"
   xmlns:inkscape="http://www.inkscape.org/namespaces/inkscape"
   xmlns:sodipodi="http://sodipodi.sourceforge.net/DTD/sodipodi-0.dtd"
   xmlns="http://www.w3.org/2000/svg"
   xmlns:svg="http://www.w3.org/2000/svg"
   xmlns:rdf="http://www.w3.org/1999/02/22-rdf-syntax-ns#"
   xmlns:cc="http://creativecommons.org/ns#"
   xmlns:dc="http://purl.org/dc/elements/1.1/">
  <sodipodi:namedview
     id="namedview7"
     pagecolor="#9c4444"
     bordercolor="#000000"
     borderopacity="0.25"
     inkscape:showpageshadow="2"
     inkscape:pageopacity="0.0"
     inkscape:pagecheckerboard="0"
     inkscape:deskcolor="#d1d1d1"
     inkscape:zoom="6.15625"
     inkscape:cx="15.837563"
     inkscape:cy="29.64467"
     inkscape:window-width="1183"
     inkscape:window-height="941"
     inkscape:window-x="0"
     inkscape:window-y="0"
     inkscape:window-maximized="0"
     inkscape:current-layer="svg7"
     showgrid="false" />
  <defs
     id="defs2">
    <rect
       x="67.489848"
       y="35.60533"
       width="15.337563"
       height="22.51269"
       id="rect3808" />
    <filter
       style="color-interpolation-filters:sRGB;"
       inkscape:label="Blur"
       id="filter1283"
       x="-0.082344266"
       y="-0.082344266"
       width="1.1646885"
       height="1.1646885">
      <feGaussianBlur
         stdDeviation="0.5 0.5"
         result="blur"
         id="feGaussianBlur1281" />
    </filter>
    <filter
       style="color-interpolation-filters:sRGB;"
       inkscape:label="Blur"
       id="filter1694"
       x="-0.94955398"
       y="-0.2118907"
       width="2.899108"
       height="1.4237814">
      <feGaussianBlur
         stdDeviation="0.2 0.2"
         result="blur"
         id="feGaussianBlur1692" />
    </filter>
    <filter
       style="color-interpolation-filters:sRGB;"
       inkscape:label="Blur"
       id="filter3148"
       x="-0.94955398"
       y="-0.2118907"
       width="2.899108"
       height="1.4237814">
      <feGaussianBlur
         stdDeviation="0.2 0.2"
         result="blur"
         id="feGaussianBlur3146" />
    </filter>
    <clipPath
       clipPathUnits="userSpaceOnUse"
       id="clipPath44">
      <path
         id="path46"
         style="display:block;opacity:0.85;fill:#f2f2f2;stroke-width:4.39162"
         d="m 17.570312,8.4453125 a 6.5431988,7.4283052 9.9958727e-8 0 0 -6.535156,7.4394535 6.5431988,7.4283052 9.9958727e-8 0 0 6.552735,7.417968 6.5431988,7.4283052 9.9958727e-8 0 0 6.535156,-7.4375 6.5431988,7.4283052 9.9958727e-8 0 0 -6.552735,-7.4199215 z M 45.646484,41.177734 a 6.5431986,7.0703472 2.4665357e-6 0 0 -6.533203,7.080078 6.5431986,7.0703472 2.4665357e-6 0 0 6.550781,7.060547 6.5431986,7.0703472 2.4665357e-6 0 0 6.535157,-7.080078 6.5431986,7.0703472 2.4665357e-6 0 0 -6.552735,-7.060547 z" />
    </clipPath>
    <inkscape:path-effect
       effect="powerclip"
       id="path-effect48"
       is_visible="true"
       lpeversion="1"
       inverse="true"
       flatten="false"
       hide_clip="false"
       message="" />
    <style
       id="current-color-scheme"
       type="text/css">.ColorScheme-Text {color:#d8dee9} .ColorScheme-Highlight {color:#3b4252}</style>
  </defs>
  <metadata
     id="metadata2">
    <rdf:RDF>
      <cc:Work
         rdf:about="">
        <dc:format>image/svg+xml</dc:format>
        <dc:type
           rdf:resource="http://purl.org/dc/dcmitype/StillImage" />
      </cc:Work>
    </rdf:RDF>
  </metadata>
  <path
     id="path7250"
     style="fill:currentColor;fill-opacity:1;stroke:none;stroke-width:0.077099;stroke-dasharray:none;stroke-opacity:1"
     d="M 8.5639151,4.9224067 C 7.4461392,4.9087849 6.3249224,5.1521902 5.3128303,5.6435985 4.5741317,6.0022637 3.8890384,6.489972 3.3264212,7.0577756 L 3.1749377,7.2106111 3.7637503,7.7447235 4.3524728,8.2788366 4.531982,8.1114027 C 4.6306824,8.0193143 4.7453734,7.9148389 4.7869178,7.8792656 6.5082431,6.4053453 8.959457,6.1034267 10.990357,7.1151789 c 0.524325,0.2612097 0.944358,0.5571162 1.403003,0.988203 l 0.187979,0.1766261 0.588363,-0.5342929 0.58836,-0.534383 -0.167251,-0.1685154 C 12.754963,6.2006944 11.71601,5.5805757 10.547802,5.226455 9.9040029,5.0312998 9.2345812,4.9305792 8.5639151,4.9224067 Z m -0.097955,1.8533085 c -0.2568638,1.58e-5 -0.5136714,0.00958 -0.6551373,0.028566 -1.2067833,0.1618681 -2.2411578,0.658341 -3.1187054,1.4969031 -0.07899,0.07548 -0.1416312,0.1429429 -0.1392282,0.1499516 0.00239,0.00702 0.2676852,0.2515014 0.5895332,0.5433047 L 5.72754,9.5249482 5.8439687,9.412214 c 0.561987,-0.5441259 1.3369995,-0.9106682 2.1487965,-1.0164086 0.2388007,-0.031086 0.708695,-0.031074 0.9467501,1.05e-4 0.811965,0.1063012 1.4971227,0.4235907 2.1148227,0.9793713 l 0.157881,0.1420214 0.03398,-0.030459 c 0.166292,-0.1486099 1.06204,-0.9593229 1.097511,-0.9933399 l 0.04577,-0.043887 -0.06119,-0.063801 C 12.089235,8.1365521 11.663664,7.7964783 11.326484,7.5852308 11.08569,7.4343697 10.641606,7.2139616 10.382801,7.1168121 9.9983462,6.9724976 9.5510699,6.8616545 9.1214577,6.8042027 8.9796971,6.7852439 8.7228247,6.7757108 8.4659599,6.7757264 Z m -0.033883,1.8375383 c -0.060714,6.409e-4 -0.1215124,0.00277 -0.1823034,0.00657 -0.8409473,0.052644 -1.6070013,0.3856894 -2.239722,0.9735172 l -0.1046243,0.097145 0.5903447,0.5351933 c 0.3246692,0.294364 0.5926008,0.535503 0.595391,0.535826 0.00277,3.2e-4 0.044363,-0.03327 0.092457,-0.07471 0.7228415,-0.622821 1.8102343,-0.632416 2.5381833,-0.02236 l 0.1181435,0.09904 0.066144,-0.05848 c 0.036383,-0.03216 0.3037871,-0.273636 0.5942181,-0.536542 L 11.028388,9.6904923 10.907633,9.5773985 C 10.237945,8.9505275 9.3427847,8.6039586 8.4320771,8.6132535 Z m -0.014059,1.8463695 c -0.098812,0.0022 -0.1965683,0.01291 -0.2910723,0.03288 -0.3003267,0.06353 -0.6013904,0.213411 -0.7965277,0.396689 l -0.048571,0.0457 0.5927777,0.53808 0.5927779,0.538166 0.3501875,-0.318377 c 0.1925899,-0.175074 0.4591415,-0.416205 0.5923276,-0.53582 l 0.2421386,-0.217444 -0.072541,-0.06804 C 9.2938853,10.603508 8.8462078,10.45042 8.4180181,10.459623 Z"
     class="ColorScheme-Text" />
  <text
     xml:space="preserve"
     transform="matrix(0.1797656,0,0,0.1797656,0.22603552,1.0558173)"
     id="text3806"
     style="font-size:6.66667px;white-space:pre;shape-inside:url(#rect3808);fill:#999999;stroke-width:2" />
</svg>
