<?xml version='1.0' encoding='UTF-8'?>
<svg xmlns:inkscape="http://www.inkscape.org/namespaces/inkscape" xmlns:sodipodi="http://sodipodi.sourceforge.net/DTD/sodipodi-0.dtd" xmlns="http://www.w3.org/2000/svg" xmlns:svg="http://www.w3.org/2000/svg" xmlns:rdf="http://www.w3.org/1999/02/22-rdf-syntax-ns#" xmlns:cc="http://creativecommons.org/ns#" xmlns:dc="http://purl.org/dc/elements/1.1/" width="64" height="64" version="1.1" viewBox="0 0 16.933 16.933" id="svg7" sodipodi:docname="audio-input-microphone.svg" inkscape:version="1.4.2 (ebf0e940d0, 2025-05-08)">
  <sodipodi:namedview id="namedview7" pagecolor="#9c4444" bordercolor="#000000" borderopacity="0.25" inkscape:showpageshadow="2" inkscape:pageopacity="0.0" inkscape:pagecheckerboard="0" inkscape:deskcolor="#d1d1d1" inkscape:zoom="4.3531261" inkscape:cx="36.984915" inkscape:cy="26.073217" inkscape:window-width="1280" inkscape:window-height="669" inkscape:window-x="0" inkscape:window-y="0" inkscape:window-maximized="0" inkscape:current-layer="svg7" showgrid="false"/>
  <defs id="defs2">
    <filter style="color-interpolation-filters:sRGB;" inkscape:label="Blur" id="filter3" x="-0.10843471" y="-0.10870992" width="1.2168694" height="1.2174198">
      <feGaussianBlur stdDeviation="0.5 0.5" result="blur" id="feGaussianBlur3"/>
    </filter>
    <style id="current-color-scheme" type="text/css">.ColorScheme-Text {color:#d8dee9} .ColorScheme-Highlight {color:#3b4252}</style>
  <linearGradient id="linearGradient3" inkscape:collect="always">
      <stop style="stop-color:#000000;stop-opacity:1;" offset="0" id="stop3"/>
      <stop style="stop-color:#000000;stop-opacity:0;" offset="1" id="stop4"/>
    </linearGradient>
    <linearGradient xmlns:xlink="http://www.w3.org/1999/xlink" inkscape:collect="always" xlink:href="#linearGradient3" id="linearGradient4" x1="13.512321" y1="13.490874" x2="3.3783066" y2="3.3568602" gradientUnits="userSpaceOnUse"/>
  </defs>
  <metadata id="metadata2">
    <rdf:RDF>
      <cc:Work rdf:about="">
        <dc:format>image/svg+xml</dc:format>
        <dc:type rdf:resource="http://purl.org/dc/dcmitype/StillImage"/>
      </cc:Work>
    </rdf:RDF>
  </metadata>
  <ellipse style="opacity:1;fill:none;stroke:#000000;stroke-width:0.582072;stroke-dasharray:none;stroke-opacity:1;filter:url(#filter3)" id="path1-5" cx="8.4450111" cy="8.423522" rx="6.8752708" ry="6.8578653"/>
  <ellipse style="opacity:1;fill:none;stroke-width:0.58207188;stroke-opacity:1;stroke:currentColor;stroke-dasharray:none;fill-opacity:1" id="path1" cx="8.4450111" cy="8.423522" rx="6.8752708" ry="6.8578653" class="ColorScheme-Text"/>
  <ellipse style="fill:currentColor;stroke:none;stroke-width:0.285844;stroke-dasharray:none;stroke-opacity:1" id="path1-2" cx="8.4557552" cy="8.423522" rx="6.5738997" ry="6.5692253" class="ColorScheme-Highlight"/>
<path d="m 42.711,28.673 c 0.244,0.244 0.366,0.532 0.366,0.865 V 32 c 0,2.833 -0.946,5.298 -2.837,7.394 -1.891,2.096 -4.227,3.298 -7.009,3.606 v 2.538 h 4.922 c 0.334,0 0.623,0.122 0.866,0.366 0.243,0.243 0.366,0.532 0.366,0.865 0,0.333 -0.123,0.622 -0.366,0.865 C 38.776,47.878 38.487,48 38.153,48 H 25.846 c -0.333,0 -0.622,-0.122 -0.865,-0.366 -0.244,-0.243 -0.366,-0.532 -0.366,-0.865 0,-0.333 0.122,-0.622 0.366,-0.865 0.243,-0.244 0.532,-0.366 0.865,-0.366 h 4.923 V 43 C 27.987,42.692 25.65,41.49 23.759,39.394 21.868,37.298 20.923,34.833 20.923,32 v -2.462 c 0,-0.333 0.122,-0.621 0.365,-0.865 0.244,-0.244 0.532,-0.365 0.866,-0.365 0.333,0 0.622,0.121 0.865,0.365 0.244,0.244 0.366,0.532 0.366,0.865 V 32 c 0,2.372 0.842,4.401 2.528,6.086 1.686,1.686 3.715,2.529 6.087,2.529 2.372,0 4.401,-0.843 6.086,-2.529 C 39.772,36.4 40.615,34.372 40.615,32 v -2.462 c 0,-0.333 0.122,-0.621 0.366,-0.865 0.243,-0.244 0.532,-0.365 0.865,-0.365 0.333,0 0.622,0.121 0.865,0.365 z M 32,38.153 c 1.692,0 3.141,-0.602 4.346,-1.807 1.205,-1.205 1.807,-2.654 1.807,-4.346 v -9.846 c 0,-1.692 -0.602,-3.141 -1.807,-4.346 C 35.141,16.603 33.692,16 32,16 c -1.693,0 -3.141,0.603 -4.346,1.808 -1.205,1.205 -1.808,2.654 -1.808,4.346 V 32 c 0,1.692 0.603,3.141 1.808,4.346 1.205,1.205 2.653,1.807 4.346,1.807 z" style="clip-rule:evenodd;opacity:0.3;fill:#000000;fill-opacity:1;fill-rule:nonzero;stroke-linejoin:round;stroke-miterlimit:2" id="path1-9-2" transform="matrix(0.24371082,0,0,0.24371082,0.66775386,1.2762697)"/>
  <path d="m 42.711,28.673 c 0.244,0.244 0.366,0.532 0.366,0.865 V 32 c 0,2.833 -0.946,5.298 -2.837,7.394 -1.891,2.096 -4.227,3.298 -7.009,3.606 v 2.538 h 4.922 c 0.334,0 0.623,0.122 0.866,0.366 0.243,0.243 0.366,0.532 0.366,0.865 0,0.333 -0.123,0.622 -0.366,0.865 C 38.776,47.878 38.487,48 38.153,48 H 25.846 c -0.333,0 -0.622,-0.122 -0.865,-0.366 -0.244,-0.243 -0.366,-0.532 -0.366,-0.865 0,-0.333 0.122,-0.622 0.366,-0.865 0.243,-0.244 0.532,-0.366 0.865,-0.366 h 4.923 V 43 C 27.987,42.692 25.65,41.49 23.759,39.394 21.868,37.298 20.923,34.833 20.923,32 v -2.462 c 0,-0.333 0.122,-0.621 0.365,-0.865 0.244,-0.244 0.532,-0.365 0.866,-0.365 0.333,0 0.622,0.121 0.865,0.365 0.244,0.244 0.366,0.532 0.366,0.865 V 32 c 0,2.372 0.842,4.401 2.528,6.086 1.686,1.686 3.715,2.529 6.087,2.529 2.372,0 4.401,-0.843 6.086,-2.529 C 39.772,36.4 40.615,34.372 40.615,32 v -2.462 c 0,-0.333 0.122,-0.621 0.366,-0.865 0.243,-0.244 0.532,-0.365 0.865,-0.365 0.333,0 0.622,0.121 0.865,0.365 z M 32,38.153 c 1.692,0 3.141,-0.602 4.346,-1.807 1.205,-1.205 1.807,-2.654 1.807,-4.346 v -9.846 c 0,-1.692 -0.602,-3.141 -1.807,-4.346 C 35.141,16.603 33.692,16 32,16 c -1.693,0 -3.141,0.603 -4.346,1.808 -1.205,1.205 -1.808,2.654 -1.808,4.346 V 32 c 0,1.692 0.603,3.141 1.808,4.346 1.205,1.205 2.653,1.807 4.346,1.807 z" style="clip-rule:evenodd;fill:currentColor;fill-rule:nonzero;stroke-linejoin:round;stroke-miterlimit:2;fill-opacity:1" id="path1-9" class="ColorScheme-Text" transform="matrix(0.24371082,0,0,0.24371082,0.66775386,0.69419786)"/>
<path id="gradient-path1" style="opacity:0.3;baseline-shift:baseline;display:inline;overflow:visible;vector-effect:none;enable-background:accumulate;stop-color:#000000;stop-opacity:1;fill:url(#linearGradient4)" d="M 8.4453131 1.2753492 C 4.4913166 1.2753492 1.2794833 4.4784283 1.2794833 8.4236094 C 1.2794833 12.36879 4.4913166 15.572386 8.4453131 15.572386 C 12.39931 15.572386 15.611143 12.36879 15.611143 8.4236094 C 15.611143 4.4784283 12.39931 1.2753492 8.4453131 1.2753492 z "/>
</svg>
