<?xml version='1.0' encoding='UTF-8'?>
<svg xmlns:inkscape="http://www.inkscape.org/namespaces/inkscape" xmlns:sodipodi="http://sodipodi.sourceforge.net/DTD/sodipodi-0.dtd" xmlns="http://www.w3.org/2000/svg" xmlns:svg="http://www.w3.org/2000/svg" xmlns:rdf="http://www.w3.org/1999/02/22-rdf-syntax-ns#" xmlns:cc="http://creativecommons.org/ns#" xmlns:dc="http://purl.org/dc/elements/1.1/" width="64" height="64" version="1.1" viewBox="0 0 16.933 16.933" id="svg7" sodipodi:docname="audio-card.svg" inkscape:version="1.4.2 (ebf0e940d0, 2025-05-08)">
  <sodipodi:namedview id="namedview7" pagecolor="#9c4444" bordercolor="#000000" borderopacity="0.25" inkscape:showpageshadow="2" inkscape:pageopacity="0.0" inkscape:pagecheckerboard="0" inkscape:deskcolor="#d1d1d1" inkscape:zoom="4.3531261" inkscape:cx="36.984915" inkscape:cy="26.073217" inkscape:window-width="1280" inkscape:window-height="669" inkscape:window-x="0" inkscape:window-y="0" inkscape:window-maximized="0" inkscape:current-layer="svg7" showgrid="false"/>
  <defs id="defs2">
    <filter style="color-interpolation-filters:sRGB;" inkscape:label="Blur" id="filter3" x="-0.10843471" y="-0.10870992" width="1.2168694" height="1.2174198">
      <feGaussianBlur stdDeviation="0.5 0.5" result="blur" id="feGaussianBlur3"/>
    </filter>
    <style id="current-color-scheme" type="text/css">.ColorScheme-Text {color:#d8dee9} .ColorScheme-Highlight {color:#3b4252}</style>
  <linearGradient id="linearGradient3" inkscape:collect="always">
      <stop style="stop-color:#000000;stop-opacity:1;" offset="0" id="stop3"/>
      <stop style="stop-color:#000000;stop-opacity:0;" offset="1" id="stop4"/>
    </linearGradient>
    <linearGradient xmlns:xlink="http://www.w3.org/1999/xlink" inkscape:collect="always" xlink:href="#linearGradient3" id="linearGradient4" x1="13.512321" y1="13.490874" x2="3.3783066" y2="3.3568602" gradientUnits="userSpaceOnUse"/>
  </defs>
  <metadata id="metadata2">
    <rdf:RDF>
      <cc:Work rdf:about="">
        <dc:format>image/svg+xml</dc:format>
        <dc:type rdf:resource="http://purl.org/dc/dcmitype/StillImage"/>
      </cc:Work>
    </rdf:RDF>
  </metadata>
  <ellipse style="opacity:1;fill:none;stroke:#000000;stroke-width:0.582072;stroke-dasharray:none;stroke-opacity:1;filter:url(#filter3)" id="path1-5" cx="8.4450111" cy="8.423522" rx="6.8752708" ry="6.8578653"/>
  <ellipse style="opacity:1;fill:none;stroke-width:0.58207188;stroke-opacity:1;stroke:currentColor;stroke-dasharray:none;fill-opacity:1" id="path1" cx="8.4450111" cy="8.423522" rx="6.8752708" ry="6.8578653" class="ColorScheme-Text"/>
  <ellipse style="fill:currentColor;stroke:none;stroke-width:0.285844;stroke-dasharray:none;stroke-opacity:1" id="path1-2" cx="8.4557552" cy="8.423522" rx="6.5738997" ry="6.5692253" class="ColorScheme-Highlight"/>
<path id="path2-1" style="fill:#000000;fill-opacity:1;opacity:0.3;stroke-width:0.256755" d="M 30.294328 16.657174 C 29.758227 16.673424 29.243167 16.854379 28.815156 17.176555 L 19.715365 24.29298 L 14.515484 24.29298 C 13.075274 24.29298 11.915544 25.446798 11.915544 26.880771 L 11.915544 37.234973 C 11.915544 38.668947 13.075274 39.822764 14.515484 39.822764 L 19.715365 39.822764 L 28.815156 46.939189 C 30.115103 47.956449 32.712029 47.586427 32.712029 44.998346 L 32.712029 19.117398 C 32.712029 17.339325 31.484899 16.608005 30.294328 16.657174 z M 48.00794 19.220666 L 42.726052 21.629256 C 48.007741 29.331905 48.007741 34.7869 42.726052 42.489525 L 48.00794 44.898115 C 53.289894 37.195494 53.289894 26.92329 48.00794 19.220666 z M 40.323537 24.098592 L 35.281596 25.705331 C 37.802409 30.840414 37.802409 32.765061 35.281596 37.900144 L 40.323537 39.503846 C 42.844608 34.368765 42.844608 29.233675 40.323537 24.098592 z " transform="matrix(0.17013527,0,0,0.17013527,3.0193669,3.5567259)"/>
  <path id="path2" style="fill:currentColor;fill-opacity:1;stroke-width:0.256755" class="ColorScheme-Text" d="M 30.294328 16.657174 C 29.758227 16.673424 29.243167 16.854378 28.815156 17.176554 L 19.715365 24.29298 L 14.515484 24.29298 C 13.075274 24.29298 11.915544 25.446798 11.915544 26.880771 L 11.915544 37.234972 C 11.915544 38.668946 13.075274 39.822764 14.515484 39.822764 L 19.715365 39.822764 L 28.815156 46.939189 C 30.115103 47.956449 32.712029 47.586427 32.712029 44.998346 L 32.712029 19.117398 C 32.712029 17.339325 31.484899 16.608005 30.294328 16.657174 z M 48.00794 19.220666 L 42.726052 21.629256 C 48.007741 29.331905 48.007741 34.7869 42.726052 42.489525 L 48.00794 44.898114 C 53.289894 37.195493 53.289894 26.92329 48.00794 19.220666 z M 40.323537 24.098592 L 35.281596 25.70533 C 37.802409 30.840413 37.802409 32.765061 35.281596 37.900144 L 40.323537 39.503846 C 42.844608 34.368765 42.844608 29.233675 40.323537 24.098592 z " transform="matrix(0.17013527,0,0,0.17013527,3.0193669,3.0275696)"/>
<path id="gradient-path1" style="opacity:0.3;baseline-shift:baseline;display:inline;overflow:visible;vector-effect:none;enable-background:accumulate;stop-color:#000000;stop-opacity:1;fill:url(#linearGradient4)" d="M 8.4453131 1.2753492 C 4.4913166 1.2753492 1.2794833 4.4784283 1.2794833 8.4236094 C 1.2794833 12.36879 4.4913166 15.572386 8.4453131 15.572386 C 12.39931 15.572386 15.611143 12.36879 15.611143 8.4236094 C 15.611143 4.4784283 12.39931 1.2753492 8.4453131 1.2753492 z "/>
</svg>
