<?xml version='1.0' encoding='UTF-8'?>
<svg xmlns:inkscape="http://www.inkscape.org/namespaces/inkscape" xmlns:sodipodi="http://sodipodi.sourceforge.net/DTD/sodipodi-0.dtd" xmlns:xlink="http://www.w3.org/1999/xlink" xmlns="http://www.w3.org/2000/svg" xmlns:svg="http://www.w3.org/2000/svg" xmlns:rdf="http://www.w3.org/1999/02/22-rdf-syntax-ns#" xmlns:cc="http://creativecommons.org/ns#" xmlns:dc="http://purl.org/dc/elements/1.1/" width="64" height="64" version="1.1" viewBox="0 0 16.933 16.933" id="svg7" sodipodi:docname="System.svg" inkscape:version="1.4 (e7c3feb100, 2024-10-09)">
  <sodipodi:namedview id="namedview7" pagecolor="#9c4444" bordercolor="#000000" borderopacity="0.25" inkscape:showpageshadow="2" inkscape:pageopacity="0.0" inkscape:pagecheckerboard="0" inkscape:deskcolor="#d1d1d1" inkscape:zoom="4.3531261" inkscape:cx="36.755195" inkscape:cy="25.958357" inkscape:window-width="1280" inkscape:window-height="669" inkscape:window-x="180" inkscape:window-y="166" inkscape:window-maximized="0" inkscape:current-layer="svg7" showgrid="false"/>
  <defs id="defs2">
    <filter style="color-interpolation-filters:sRGB;" inkscape:label="Blur" id="filter3" x="-0.10843471" y="-0.10870992" width="1.2168694" height="1.2174198">
      <feGaussianBlur stdDeviation="0.5 0.5" result="blur" id="feGaussianBlur3"/>
    </filter>
    <style id="current-color-scheme" type="text/css">.ColorScheme-Text {color:#d8dee9} .ColorScheme-Highlight {color:#3b4252}</style><linearGradient id="linearGradient3" inkscape:collect="always">
      <stop style="stop-color:#000000;stop-opacity:1;" offset="0" id="stop3"/>
      <stop style="stop-color:#000000;stop-opacity:0;" offset="1" id="stop4"/>
    </linearGradient>
    <linearGradient inkscape:collect="always" xlink:href="#linearGradient3" id="linearGradient4" x1="13.512321" y1="13.490874" x2="3.3783066" y2="3.3568602" gradientUnits="userSpaceOnUse"/>
  </defs>
  <metadata id="metadata2">
    <rdf:RDF>
      <cc:Work rdf:about="">
        <dc:format>image/svg+xml</dc:format>
        <dc:type rdf:resource="http://purl.org/dc/dcmitype/StillImage"/>
      </cc:Work>
    </rdf:RDF>
  </metadata>
  <ellipse style="opacity:1;fill:none;stroke:#000000;stroke-width:0.582072;stroke-dasharray:none;stroke-opacity:1;filter:url(#filter3)" id="path1-5" cx="8.4450111" cy="8.423522" rx="6.8752708" ry="6.8578653"/>
  <ellipse style="opacity:1;fill:none;stroke-width:0.58207188;stroke-opacity:1;stroke:currentColor;stroke-dasharray:none;fill-opacity:1" id="path1" cx="8.4450111" cy="8.423522" rx="6.8752708" ry="6.8578653" class="ColorScheme-Text"/>
  <ellipse style="fill:currentColor;stroke:none;stroke-width:0.285844;stroke-dasharray:none;stroke-opacity:1" id="path1-2" cx="8.4557552" cy="8.423522" rx="6.5738997" ry="6.5692253" class="ColorScheme-Highlight"/>
<path fill="#f5f7fa" d="m 8.5106684,12.822576 c -2.1044576,0 -3.8104571,-1.680485 -3.8104571,-3.7534647 0,-2.0729825 1.7059995,-3.7534664 3.8104571,-3.7534664 2.1044566,0 3.8104576,1.6804838 3.8104576,3.7534664 0,2.0729797 -1.706001,3.7534647 -3.8104576,3.7534647 z m 0,-2.085259 c 0.9353147,0 1.6935356,-0.7468817 1.6935356,-1.6682057 0,-0.9213248 -0.7582209,-1.6682083 -1.6935356,-1.6682083 -0.9353141,0 -1.693536,0.7468835 -1.693536,1.6682083 0,0.921324 0.7582219,1.6682057 1.693536,1.6682057 z m 0,-0.417051 c -0.7014862,0 -1.2701517,-0.5601605 -1.2701517,-1.2511547 0,-0.6909948 0.5686655,-1.2511569 1.2701517,-1.2511569 0.7014858,0 1.2701535,0.5601621 1.2701535,1.2511569 0,0.6909941 -0.5686677,1.2511547 -1.2701535,1.2511547 z m 0,-0.4170518 c 0.4676568,0 0.8467679,-0.3734397 0.8467679,-0.8341017 0,-0.4606648 -0.3791111,-0.8341057 -0.8467679,-0.8341057 -0.4676573,0 -0.8467676,0.3734409 -0.8467676,0.8341057 0,0.460662 0.3791103,0.8341017 0.8467676,0.8341017 z" id="path42-1" style="fill:#000000;fill-opacity:1;stroke:none;stroke-width:0.246605;stroke-dasharray:none;stroke-opacity:0.3;opacity:0.3" sodipodi:nodetypes="ssssssssssssssssssss"/>
  <path fill="#f5f7fa" d="m 8.5106684,12.29342 c -2.1044576,0 -3.8104571,-1.680485 -3.8104571,-3.7534649 0,-2.0729825 1.7059995,-3.7534664 3.8104571,-3.7534664 2.1044566,0 3.8104576,1.6804838 3.8104576,3.7534664 0,2.0729799 -1.706001,3.7534649 -3.8104576,3.7534649 z m 0,-2.085259 c 0.9353147,0 1.6935356,-0.7468819 1.6935356,-1.6682059 0,-0.9213248 -0.7582209,-1.6682083 -1.6935356,-1.6682083 -0.9353141,0 -1.693536,0.7468835 -1.693536,1.6682083 0,0.921324 0.7582219,1.6682059 1.693536,1.6682059 z m 0,-0.417051 c -0.7014862,0 -1.2701517,-0.5601607 -1.2701517,-1.2511549 0,-0.6909948 0.5686655,-1.2511569 1.2701517,-1.2511569 0.7014858,0 1.2701535,0.5601621 1.2701535,1.2511569 0,0.6909941 -0.5686677,1.2511549 -1.2701535,1.2511549 z m 0,-0.417052 c 0.4676568,0 0.8467679,-0.3734397 0.8467679,-0.8341017 0,-0.4606648 -0.3791111,-0.8341057 -0.8467679,-0.8341057 -0.4676573,0 -0.8467676,0.3734409 -0.8467676,0.8341057 0,0.460662 0.3791103,0.8341017 0.8467676,0.8341017 z" id="path42" style="fill:currentColor;fill-opacity:1;stroke:none;stroke-width:0.246605;stroke-dasharray:none;stroke-opacity:0.3" sodipodi:nodetypes="ssssssssssssssssssss" class="ColorScheme-Text"/>
<path id="gradient-path1" style="opacity:0.3;baseline-shift:baseline;display:inline;overflow:visible;vector-effect:none;enable-background:accumulate;stop-color:#000000;stop-opacity:1;fill:url(#linearGradient4)" d="M 8.4453131 1.2753492 C 4.4913166 1.2753492 1.2794833 4.4784283 1.2794833 8.4236094 C 1.2794833 12.36879 4.4913166 15.572386 8.4453131 15.572386 C 12.39931 15.572386 15.611143 12.36879 15.611143 8.4236094 C 15.611143 4.4784283 12.39931 1.2753492 8.4453131 1.2753492 z "/>
</svg>
