<?xml version="1.0" encoding="UTF-8" standalone="no"?>
<svg
   width="64"
   height="64"
   version="1.1"
   viewBox="0 0 16.933 16.933"
   id="svg7"
   sodipodi:docname="drive-multidisk.svg"
   inkscape:version="1.4.2 (ebf0e940d0, 2025-05-08)"
   xmlns:inkscape="http://www.inkscape.org/namespaces/inkscape"
   xmlns:sodipodi="http://sodipodi.sourceforge.net/DTD/sodipodi-0.dtd"
   xmlns:xlink="http://www.w3.org/1999/xlink"
   xmlns="http://www.w3.org/2000/svg"
   xmlns:svg="http://www.w3.org/2000/svg"
   xmlns:rdf="http://www.w3.org/1999/02/22-rdf-syntax-ns#"
   xmlns:cc="http://creativecommons.org/ns#"
   xmlns:dc="http://purl.org/dc/elements/1.1/">
  <sodipodi:namedview
     id="namedview7"
     pagecolor="#9c4444"
     bordercolor="#000000"
     borderopacity="0.25"
     inkscape:showpageshadow="2"
     inkscape:pageopacity="0.0"
     inkscape:pagecheckerboard="0"
     inkscape:deskcolor="#d1d1d1"
     inkscape:zoom="4.3531261"
     inkscape:cx="36.066035"
     inkscape:cy="26.188077"
     inkscape:window-width="2560"
     inkscape:window-height="1376"
     inkscape:window-x="0"
     inkscape:window-y="0"
     inkscape:window-maximized="1"
     inkscape:current-layer="svg7"
     showgrid="false" />
  <defs
     id="defs2">
    <filter
       style="color-interpolation-filters:sRGB;"
       inkscape:label="Blur"
       id="filter3"
       x="-0.10843471"
       y="-0.10870992"
       width="1.2168694"
       height="1.2174198">
      <feGaussianBlur
         stdDeviation="0.5 0.5"
         result="blur"
         id="feGaussianBlur3" />
    </filter>
    <style
       id="current-color-scheme"
       type="text/css">.ColorScheme-Text {color:#d8dee9} .ColorScheme-Highlight {color:#3b4252}</style>
    <linearGradient
       id="linearGradient3"
       inkscape:collect="always">
      <stop
         style="stop-color:#000000;stop-opacity:1;"
         offset="0"
         id="stop3" />
      <stop
         style="stop-color:#000000;stop-opacity:0;"
         offset="1"
         id="stop4" />
    </linearGradient>
    <linearGradient
       inkscape:collect="always"
       xlink:href="#linearGradient3"
       id="linearGradient4"
       x1="13.512321"
       y1="13.490874"
       x2="3.3783066"
       y2="3.3568602"
       gradientUnits="userSpaceOnUse" />
  </defs>
  <metadata
     id="metadata2">
    <rdf:RDF>
      <cc:Work
         rdf:about="">
        <dc:format>image/svg+xml</dc:format>
        <dc:type
           rdf:resource="http://purl.org/dc/dcmitype/StillImage" />
      </cc:Work>
    </rdf:RDF>
  </metadata>
  <ellipse
     style="opacity:1;fill:none;stroke:#000000;stroke-width:0.582072;stroke-dasharray:none;stroke-opacity:1;filter:url(#filter3)"
     id="path1-5"
     cx="8.4450111"
     cy="8.423522"
     rx="6.8752708"
     ry="6.8578653" />
  <ellipse
     style="opacity:1;fill:none;stroke-width:0.58207188;stroke-opacity:1;stroke:currentColor;stroke-dasharray:none;fill-opacity:1"
     id="path1"
     cx="8.4450111"
     cy="8.423522"
     rx="6.8752708"
     ry="6.8578653"
     class="ColorScheme-Text" />
  <ellipse
     style="fill:currentColor;stroke:none;stroke-width:0.285844;stroke-dasharray:none;stroke-opacity:1"
     id="path1-2"
     cx="8.4557552"
     cy="8.423522"
     rx="6.5738997"
     ry="6.5692253"
     class="ColorScheme-Highlight" />
  <path
     d="m 5.310854,5.2087495 v 7.5735485 h 6.311292 V 5.2087495 Z m 1.26226,0.6311291 h 3.786773 a 0.63112902,0.63112902 0 0 1 0.631128,0.6311283 c -0.841293,0 -0.841293,1.2622596 0,1.2622596 L 10.359887,8.3643956 H 6.573114 L 5.941983,7.7332665 c 0.841295,0 0.841295,-1.2622596 0,-1.2622596 A 0.63112902,0.63112902 0 0 1 6.573114,5.8398786 Z M 5.941983,8.9955245 H 8.4665 v 0.631128 H 5.941983 Z m 3.786774,0 h 1.262258 v 0.631128 H 9.728757 Z M 5.941983,10.257783 H 8.4665 V 10.88891 H 5.941983 Z m 3.786774,0 h 1.262258 V 10.88891 H 9.728757 Z M 5.941983,11.520039 H 8.4665 v 0.63113 H 5.941983 Z m 3.786774,0 h 1.262258 v 0.63113 H 9.728757 Z"
     id="path5"
     style="opacity:0.3;fill:#000000;fill-opacity:1;stroke-width:0.631129" />
  <path
     d="m 5.310854,4.6797255 v 7.5735485 h 6.311292 V 4.6797255 Z m 1.26226,0.631129 h 3.786774 a 0.63112902,0.63112902 0 0 1 0.631127,0.631128 c -0.841292,0 -0.841292,1.26226 0,1.26226 l -0.631127,0.631129 H 6.573114 l -0.63113,-0.631129 c 0.841295,0 0.841295,-1.26226 0,-1.26226 a 0.63112902,0.63112902 0 0 1 0.63113,-0.631128 z m -0.63113,3.155646 h 2.524517 v 0.631128 H 5.941984 Z m 3.786774,0 h 1.262257 v 0.631128 H 9.728758 Z M 5.941984,9.7287585 H 8.466501 V 10.359887 H 5.941984 Z m 3.786774,0 h 1.262257 V 10.359887 H 9.728758 Z M 5.941984,10.991016 h 2.524517 v 0.631129 H 5.941984 Z m 3.786774,0 h 1.262257 v 0.631129 H 9.728758 Z"
     class="ColorScheme-Text"
     id="path5-7"
     style="fill:currentColor;fill-opacity:1;stroke-width:0.631129" />
  <path
     id="gradient-path1"
     style="opacity:0.3;baseline-shift:baseline;display:inline;overflow:visible;vector-effect:none;enable-background:accumulate;stop-color:#000000;stop-opacity:1;fill:url(#linearGradient4)"
     d="M 8.4453131 1.2753492 C 4.4913166 1.2753492 1.2794833 4.4784283 1.2794833 8.4236094 C 1.2794833 12.36879 4.4913166 15.572386 8.4453131 15.572386 C 12.39931 15.572386 15.611143 12.36879 15.611143 8.4236094 C 15.611143 4.4784283 12.39931 1.2753492 8.4453131 1.2753492 z " />
</svg>
