<?xml version='1.0' encoding='UTF-8'?>
<svg xmlns:inkscape="http://www.inkscape.org/namespaces/inkscape" xmlns:sodipodi="http://sodipodi.sourceforge.net/DTD/sodipodi-0.dtd" xmlns:xlink="http://www.w3.org/1999/xlink" xmlns="http://www.w3.org/2000/svg" xmlns:svg="http://www.w3.org/2000/svg" xmlns:rdf="http://www.w3.org/1999/02/22-rdf-syntax-ns#" xmlns:cc="http://creativecommons.org/ns#" xmlns:dc="http://purl.org/dc/elements/1.1/" width="64" height="64" version="1.1" viewBox="0 0 16.933 16.933" id="svg7" sodipodi:docname="System.svg" inkscape:version="1.4 (e7c3feb100, 2024-10-09)">
  <sodipodi:namedview id="namedview7" pagecolor="#9c4444" bordercolor="#000000" borderopacity="0.25" inkscape:showpageshadow="2" inkscape:pageopacity="0.0" inkscape:pagecheckerboard="0" inkscape:deskcolor="#d1d1d1" inkscape:zoom="4.3531261" inkscape:cx="36.755195" inkscape:cy="25.958357" inkscape:window-width="1280" inkscape:window-height="669" inkscape:window-x="180" inkscape:window-y="166" inkscape:window-maximized="0" inkscape:current-layer="svg7" showgrid="false"/>
  <defs id="defs2">
    <filter style="color-interpolation-filters:sRGB;" inkscape:label="Blur" id="filter3" x="-0.10843471" y="-0.10870992" width="1.2168694" height="1.2174198">
      <feGaussianBlur stdDeviation="0.5 0.5" result="blur" id="feGaussianBlur3"/>
    </filter>
    <style id="current-color-scheme" type="text/css">.ColorScheme-Text {color:#d8dee9} .ColorScheme-Highlight {color:#3b4252}</style><linearGradient id="linearGradient3" inkscape:collect="always">
      <stop style="stop-color:#000000;stop-opacity:1;" offset="0" id="stop3"/>
      <stop style="stop-color:#000000;stop-opacity:0;" offset="1" id="stop4"/>
    </linearGradient>
    <linearGradient inkscape:collect="always" xlink:href="#linearGradient3" id="linearGradient4" x1="13.512321" y1="13.490874" x2="3.3783066" y2="3.3568602" gradientUnits="userSpaceOnUse"/>
  </defs>
  <metadata id="metadata2">
    <rdf:RDF>
      <cc:Work rdf:about="">
        <dc:format>image/svg+xml</dc:format>
        <dc:type rdf:resource="http://purl.org/dc/dcmitype/StillImage"/>
      </cc:Work>
    </rdf:RDF>
  </metadata>
  <ellipse style="opacity:1;fill:none;stroke:#000000;stroke-width:0.582072;stroke-dasharray:none;stroke-opacity:1;filter:url(#filter3)" id="path1-5" cx="8.4450111" cy="8.423522" rx="6.8752708" ry="6.8578653"/>
  <ellipse style="opacity:1;fill:none;stroke-width:0.58207188;stroke-opacity:1;stroke:currentColor;stroke-dasharray:none;fill-opacity:1" id="path1" cx="8.4450111" cy="8.423522" rx="6.8752708" ry="6.8578653" class="ColorScheme-Text"/>
  <ellipse style="fill:currentColor;stroke:none;stroke-width:0.285844;stroke-dasharray:none;stroke-opacity:1" id="path1-2" cx="8.4557552" cy="8.423522" rx="6.5738997" ry="6.5692253" class="ColorScheme-Highlight"/>
<path style="fill:#000000;fill-opacity:1;stroke:none;stroke-width:0.224185;stroke-dasharray:none;stroke-opacity:0.3;opacity:0.3" class="ColorScheme-Text" d="m 5.7942832,6.0259408 c 0,0 -0.9760063,0 -0.9760063,0.9760067 v 3.9040245 c 0,0.976007 0.9760063,0.976007 0.9760063,0.976007 h 5.3680348 c 0,0 0.976008,0 0.976008,-0.976007 V 7.0019475 c 0,-0.9760067 -0.976008,-0.9760067 -0.976008,-0.9760067 z M 5.9162843,7.0019475 H 6.648289 c 0.067589,0 0.1220002,0.054414 0.1220002,0.1220013 v 0.7320047 c 0,0.067589 -0.054413,0.1220005 -0.1220002,0.1220005 H 5.9162843 c -0.067589,0 -0.1220011,-0.054414 -0.1220011,-0.1220005 V 7.1239488 c 0,-0.067589 0.054413,-0.1220013 0.1220011,-0.1220013 z m 1.4640096,0 h 0.7320045 c 0.06759,0 0.1220003,0.054414 0.1220003,0.1220013 v 0.7320047 c 0,0.067589 -0.054412,0.1220005 -0.1220003,0.1220005 H 7.3802939 c -0.06759,0 -0.1220013,-0.054414 -0.1220013,-0.1220005 V 7.1239488 c 0,-0.067589 0.054413,-0.1220013 0.1220013,-0.1220013 z m 1.4640095,0 h 0.732004 c 0.067589,0 0.1220021,0.054414 0.1220021,0.1220013 v 0.7320047 c 0,0.067589 -0.054412,0.1220005 -0.1220021,0.1220005 h -0.732004 c -0.067589,0 -0.122001,-0.054414 -0.122001,-0.1220005 V 7.1239488 c 0,-0.067589 0.054412,-0.1220013 0.122001,-0.1220013 z m 1.4640086,0 h 0.732006 c 0.06759,0 0.122,0.054414 0.122,0.1220013 v 0.7320047 c 0,0.067589 -0.05442,0.1220005 -0.122,0.1220005 h -0.732006 c -0.06759,0 -0.122,-0.054414 -0.122,-0.1220005 V 7.1239488 c 0,-0.067589 0.05441,-0.1220013 0.122,-0.1220013 z M 5.9162843,8.4659571 H 6.648289 c 0.067589,0 0.1220002,0.054413 0.1220002,0.1220003 v 0.7320053 c 0,0.06759 -0.054413,0.1220002 -0.1220002,0.1220002 H 5.9162843 c -0.067589,0 -0.1220011,-0.054413 -0.1220011,-0.1220002 V 8.5879574 c 0,-0.067589 0.054413,-0.1220003 0.1220011,-0.1220003 z m 1.4640096,0 h 0.7320045 c 0.06759,0 0.1220003,0.054413 0.1220003,0.1220003 v 0.7320053 c 0,0.06759 -0.054412,0.1220002 -0.1220003,0.1220002 H 7.3802939 c -0.06759,0 -0.1220013,-0.054413 -0.1220013,-0.1220002 V 8.5879574 c 0,-0.067589 0.054413,-0.1220003 0.1220013,-0.1220003 z m 1.4640095,0 h 0.732004 c 0.067589,0 0.1220021,0.054413 0.1220021,0.1220003 v 0.7320053 c 0,0.06759 -0.054412,0.1220002 -0.1220021,0.1220002 h -0.732004 c -0.067589,0 -0.122001,-0.054413 -0.122001,-0.1220002 V 8.5879574 c 0,-0.067589 0.054412,-0.1220003 0.122001,-0.1220003 z m 1.4640086,0 h 0.732006 c 0.06759,0 0.122,0.054413 0.122,0.1220003 v 0.7320053 c 0,0.06759 -0.05442,0.1220002 -0.122,0.1220002 h -0.732006 c -0.06759,0 -0.122,-0.054413 -0.122,-0.1220002 V 8.5879574 c 0,-0.067589 0.05441,-0.1220003 0.122,-0.1220003 z M 6.89229,9.9299665 h 3.172021 c 0.06759,0 0.122001,0.054414 0.122001,0.1220005 v 0.732003 c 0,0.0676 -0.05442,0.122002 -0.122001,0.122002 H 6.89229 c -0.067589,0 -0.1220008,-0.05442 -0.1220008,-0.122002 v -0.732003 c 0,-0.067586 0.054413,-0.1220004 0.1220008,-0.1220005 z" id="path5-2"/>
  <path style="fill:currentColor;fill-opacity:1;stroke:none;stroke-width:0.224185;stroke-dasharray:none;stroke-opacity:0.3" class="ColorScheme-Text" d="m 5.7942832,5.4967846 c 0,0 -0.9760063,0 -0.9760063,0.9760067 v 3.9040247 c 0,0.976007 0.9760063,0.976007 0.9760063,0.976007 h 5.3680348 c 0,0 0.976008,0 0.976008,-0.976007 V 6.4727913 c 0,-0.9760067 -0.976008,-0.9760067 -0.976008,-0.9760067 z M 5.9162843,6.4727913 H 6.648289 c 0.067589,0 0.1220002,0.054414 0.1220002,0.1220013 v 0.7320047 c 0,0.067589 -0.054413,0.1220005 -0.1220002,0.1220005 H 5.9162843 c -0.067589,0 -0.1220011,-0.054414 -0.1220011,-0.1220005 V 6.5947926 c 0,-0.067589 0.054413,-0.1220013 0.1220011,-0.1220013 z m 1.4640096,0 h 0.7320045 c 0.06759,0 0.1220003,0.054414 0.1220003,0.1220013 v 0.7320047 c 0,0.067589 -0.054412,0.1220005 -0.1220003,0.1220005 H 7.3802939 c -0.06759,0 -0.1220013,-0.054414 -0.1220013,-0.1220005 V 6.5947926 c 0,-0.067589 0.054413,-0.1220013 0.1220013,-0.1220013 z m 1.4640095,0 h 0.732004 c 0.067589,0 0.1220021,0.054414 0.1220021,0.1220013 v 0.7320047 c 0,0.067589 -0.054412,0.1220005 -0.1220021,0.1220005 h -0.732004 c -0.067589,0 -0.122001,-0.054414 -0.122001,-0.1220005 V 6.5947926 c 0,-0.067589 0.054412,-0.1220013 0.122001,-0.1220013 z m 1.4640086,0 h 0.732006 c 0.06759,0 0.122,0.054414 0.122,0.1220013 v 0.7320047 c 0,0.067589 -0.05442,0.1220005 -0.122,0.1220005 h -0.732006 c -0.06759,0 -0.122,-0.054414 -0.122,-0.1220005 V 6.5947926 c 0,-0.067589 0.05441,-0.1220013 0.122,-0.1220013 z M 5.9162843,7.9368009 H 6.648289 c 0.067589,0 0.1220002,0.054413 0.1220002,0.1220003 v 0.7320053 c 0,0.06759 -0.054413,0.1220002 -0.1220002,0.1220002 H 5.9162843 c -0.067589,0 -0.1220011,-0.054413 -0.1220011,-0.1220002 V 8.0588012 c 0,-0.067589 0.054413,-0.1220003 0.1220011,-0.1220003 z m 1.4640096,0 h 0.7320045 c 0.06759,0 0.1220003,0.054413 0.1220003,0.1220003 v 0.7320053 c 0,0.06759 -0.054412,0.1220002 -0.1220003,0.1220002 H 7.3802939 c -0.06759,0 -0.1220013,-0.054413 -0.1220013,-0.1220002 V 8.0588012 c 0,-0.067589 0.054413,-0.1220003 0.1220013,-0.1220003 z m 1.4640095,0 h 0.732004 c 0.067589,0 0.1220021,0.054413 0.1220021,0.1220003 v 0.7320053 c 0,0.06759 -0.054412,0.1220002 -0.1220021,0.1220002 h -0.732004 c -0.067589,0 -0.122001,-0.054413 -0.122001,-0.1220002 V 8.0588012 c 0,-0.067589 0.054412,-0.1220003 0.122001,-0.1220003 z m 1.4640086,0 h 0.732006 c 0.06759,0 0.122,0.054413 0.122,0.1220003 v 0.7320053 c 0,0.06759 -0.05442,0.1220002 -0.122,0.1220002 h -0.732006 c -0.06759,0 -0.122,-0.054413 -0.122,-0.1220002 V 8.0588012 c 0,-0.067589 0.05441,-0.1220003 0.122,-0.1220003 z M 6.89229,9.4008103 h 3.172021 c 0.06759,0 0.122001,0.054414 0.122001,0.1220004 v 0.7320033 c 0,0.0676 -0.05442,0.122002 -0.122001,0.122002 H 6.89229 c -0.067589,0 -0.1220008,-0.05442 -0.1220008,-0.122002 V 9.5228107 c 0,-0.067586 0.054413,-0.1220004 0.1220008,-0.1220004 z" id="path5"/>
<path id="gradient-path1" style="opacity:0.3;baseline-shift:baseline;display:inline;overflow:visible;vector-effect:none;enable-background:accumulate;stop-color:#000000;stop-opacity:1;fill:url(#linearGradient4)" d="M 8.4453131 1.2753492 C 4.4913166 1.2753492 1.2794833 4.4784283 1.2794833 8.4236094 C 1.2794833 12.36879 4.4913166 15.572386 8.4453131 15.572386 C 12.39931 15.572386 15.611143 12.36879 15.611143 8.4236094 C 15.611143 4.4784283 12.39931 1.2753492 8.4453131 1.2753492 z "/>
</svg>
