<?xml version='1.0' encoding='UTF-8'?>
<svg xmlns:inkscape="http://www.inkscape.org/namespaces/inkscape" xmlns:sodipodi="http://sodipodi.sourceforge.net/DTD/sodipodi-0.dtd" xmlns="http://www.w3.org/2000/svg" xmlns:svg="http://www.w3.org/2000/svg" xmlns:rdf="http://www.w3.org/1999/02/22-rdf-syntax-ns#" xmlns:cc="http://creativecommons.org/ns#" xmlns:dc="http://purl.org/dc/elements/1.1/" width="64" height="64" version="1.1" viewBox="0 0 16.933 16.933" id="svg7" sodipodi:docname="media-flash.svg" inkscape:version="1.4.2 (ebf0e940d0, 2025-05-08)">
  <sodipodi:namedview id="namedview7" pagecolor="#9c4444" bordercolor="#000000" borderopacity="0.25" inkscape:showpageshadow="2" inkscape:pageopacity="0.0" inkscape:pagecheckerboard="0" inkscape:deskcolor="#d1d1d1" inkscape:zoom="4.3531261" inkscape:cx="36.755195" inkscape:cy="25.958357" inkscape:window-width="2560" inkscape:window-height="1376" inkscape:window-x="0" inkscape:window-y="0" inkscape:window-maximized="1" inkscape:current-layer="svg7" showgrid="false"/>
  <defs id="defs2">
    <filter style="color-interpolation-filters:sRGB;" inkscape:label="Blur" id="filter3" x="-0.10843471" y="-0.10870992" width="1.2168694" height="1.2174198">
      <feGaussianBlur stdDeviation="0.5 0.5" result="blur" id="feGaussianBlur3"/>
    </filter>
    <style id="current-color-scheme" type="text/css">.ColorScheme-Text {color:#d8dee9} .ColorScheme-Highlight {color:#3b4252}</style>
  <linearGradient id="linearGradient3" inkscape:collect="always">
      <stop style="stop-color:#000000;stop-opacity:1;" offset="0" id="stop3"/>
      <stop style="stop-color:#000000;stop-opacity:0;" offset="1" id="stop4"/>
    </linearGradient>
    <linearGradient xmlns:xlink="http://www.w3.org/1999/xlink" inkscape:collect="always" xlink:href="#linearGradient3" id="linearGradient4" x1="13.512321" y1="13.490874" x2="3.3783066" y2="3.3568602" gradientUnits="userSpaceOnUse"/>
  </defs>
  <metadata id="metadata2">
    <rdf:RDF>
      <cc:Work rdf:about="">
        <dc:format>image/svg+xml</dc:format>
        <dc:type rdf:resource="http://purl.org/dc/dcmitype/StillImage"/>
      </cc:Work>
    </rdf:RDF>
  </metadata>
  <ellipse style="opacity:1;fill:none;stroke:#000000;stroke-width:0.582072;stroke-dasharray:none;stroke-opacity:1;filter:url(#filter3)" id="path1-5" cx="8.4450111" cy="8.423522" rx="6.8752708" ry="6.8578653"/>
  <ellipse style="opacity:1;fill:none;stroke-width:0.58207188;stroke-opacity:1;stroke:currentColor;stroke-dasharray:none;fill-opacity:1" id="path1" cx="8.4450111" cy="8.423522" rx="6.8752708" ry="6.8578653" class="ColorScheme-Text"/>
  <ellipse style="fill:currentColor;stroke:none;stroke-width:0.285844;stroke-dasharray:none;stroke-opacity:1" id="path1-2" cx="8.4557552" cy="8.423522" rx="6.5738997" ry="6.5692253" class="ColorScheme-Highlight"/>
<path style="opacity:0.3;fill:#000000;fill-opacity:1;stroke:none;stroke-width:0.246605;stroke-dasharray:none;stroke-opacity:0.3" d="m 5.245679,12.216561 c 0,0.297391 0.2394145,0.536805 0.5368041,0.536805 H 6.8560899 V 12.216561 H 10.07691 v 0.536805 h 1.073608 c 0.297388,0 0.536803,-0.239414 0.536803,-0.536805 V 5.7749209 c 0,-0.297389 -0.239415,-0.5368032 -0.536803,-0.5368032 H 7.3928931 L 5.245679,7.3853319 Z M 7.9296971,6.3117249 H 8.4665002 V 7.9221354 H 7.9296971 Z m 1.0736065,0 H 9.5401073 V 7.9221354 H 9.0033036 Z m 1.0736064,0 h 0.536805 V 7.9221354 H 10.07691 Z M 6.8560899,6.8485281 H 7.3928931 V 7.9221354 H 6.8560899 Z" id="path5-3"/>
  <path style="fill:currentColor;fill-opacity:1;stroke:none;stroke-width:0.246605;stroke-dasharray:none;stroke-opacity:0.3" class="ColorScheme-Text" d="m 5.245679,11.687319 c 0,0.297391 0.239414,0.536805 0.536804,0.536805 H 6.85609 v -0.536805 h 3.22082 v 0.536805 h 1.073608 c 0.297388,0 0.536803,-0.239414 0.536803,-0.536805 V 5.2456789 c 0,-0.297389 -0.239415,-0.5368032 -0.536803,-0.5368032 H 7.392893 L 5.245679,6.8560899 Z M 7.929697,5.7824829 H 8.4665 V 7.3928934 H 7.929697 Z m 1.073607,0 H 9.540107 V 7.3928934 H 9.003304 Z m 1.073606,0 h 0.536805 V 7.3928934 H 10.07691 Z M 6.85609,6.3192861 H 7.392893 V 7.3928934 H 6.85609 Z" id="path5-3-7"/>
<path id="gradient-path1" style="opacity:0.3;baseline-shift:baseline;display:inline;overflow:visible;vector-effect:none;enable-background:accumulate;stop-color:#000000;stop-opacity:1;fill:url(#linearGradient4)" d="M 8.4453131 1.2753492 C 4.4913166 1.2753492 1.2794833 4.4784283 1.2794833 8.4236094 C 1.2794833 12.36879 4.4913166 15.572386 8.4453131 15.572386 C 12.39931 15.572386 15.611143 12.36879 15.611143 8.4236094 C 15.611143 4.4784283 12.39931 1.2753492 8.4453131 1.2753492 z "/>
</svg>
