<?xml version='1.0' encoding='UTF-8'?>
<svg xmlns:inkscape="http://www.inkscape.org/namespaces/inkscape" xmlns:sodipodi="http://sodipodi.sourceforge.net/DTD/sodipodi-0.dtd" xmlns:xlink="http://www.w3.org/1999/xlink" xmlns="http://www.w3.org/2000/svg" xmlns:svg="http://www.w3.org/2000/svg" xmlns:rdf="http://www.w3.org/1999/02/22-rdf-syntax-ns#" xmlns:cc="http://creativecommons.org/ns#" xmlns:dc="http://purl.org/dc/elements/1.1/" width="64" height="64" version="1.1" viewBox="0 0 16.933 16.933" id="svg7" sodipodi:docname="network-server.svg" inkscape:version="1.4 (e7c3feb100, 2024-10-09)">
  <sodipodi:namedview id="namedview7" pagecolor="#9c4444" bordercolor="#000000" borderopacity="0.25" inkscape:showpageshadow="2" inkscape:pageopacity="0.0" inkscape:pagecheckerboard="0" inkscape:deskcolor="#d1d1d1" inkscape:zoom="4.3531261" inkscape:cx="36.755195" inkscape:cy="25.958357" inkscape:window-width="1280" inkscape:window-height="669" inkscape:window-x="56" inkscape:window-y="135" inkscape:window-maximized="0" inkscape:current-layer="svg7" showgrid="false"/>
  <defs id="defs2">
    <filter style="color-interpolation-filters:sRGB;" inkscape:label="Blur" id="filter3" x="-0.10843471" y="-0.10870992" width="1.2168694" height="1.2174198">
      <feGaussianBlur stdDeviation="0.5 0.5" result="blur" id="feGaussianBlur3"/>
    </filter>
    <filter style="color-interpolation-filters:sRGB" inkscape:label="Blur" id="filter3-8" x="-0.10843471" y="-0.10870992" width="1.2168694" height="1.2174198">
      <feGaussianBlur stdDeviation="0.5 0.5" result="blur" id="feGaussianBlur3-7"/>
    </filter>
    <style id="current-color-scheme" type="text/css">.ColorScheme-Text {color:#d8dee9} .ColorScheme-Highlight {color:#3b4252}</style><linearGradient id="linearGradient3" inkscape:collect="always">
      <stop style="stop-color:#000000;stop-opacity:1;" offset="0" id="stop3"/>
      <stop style="stop-color:#000000;stop-opacity:0;" offset="1" id="stop4"/>
    </linearGradient>
    <linearGradient inkscape:collect="always" xlink:href="#linearGradient3" id="linearGradient4" x1="13.512321" y1="13.490874" x2="3.3783066" y2="3.3568602" gradientUnits="userSpaceOnUse"/>
  </defs>
  <metadata id="metadata2">
    <rdf:RDF>
      <cc:Work rdf:about="">
        <dc:format>image/svg+xml</dc:format>
        <dc:type rdf:resource="http://purl.org/dc/dcmitype/StillImage"/>
      </cc:Work>
    </rdf:RDF>
  </metadata>
  <ellipse style="opacity:1;fill:none;stroke:#000000;stroke-width:0.582072;stroke-dasharray:none;stroke-opacity:1;filter:url(#filter3)" id="path1-5" cx="8.4450111" cy="8.423522" rx="6.8752708" ry="6.8578653"/>
  <ellipse style="opacity:1;fill:none;stroke-width:0.58207188;stroke-opacity:1;stroke:currentColor;stroke-dasharray:none;fill-opacity:1" id="path1" cx="8.4450111" cy="8.423522" rx="6.8752708" ry="6.8578653" class="ColorScheme-Text"/>
  <ellipse style="fill:currentColor;stroke:none;stroke-width:0.285844;stroke-dasharray:none;stroke-opacity:1" id="path1-2" cx="8.4557552" cy="8.423522" rx="6.5738997" ry="6.5692253" class="ColorScheme-Highlight"/>
<path style="fill:#000000;fill-opacity:1;stroke:none;stroke-width:0.224185;stroke-dasharray:none;stroke-opacity:0.3;opacity:0.3" class="ColorScheme-Text" d="m 6.3391321,5.1465735 c -0.5422254,0 -0.5422254,0.5422252 -0.5422254,0.5422252 v 6.5067073 c 0,0 0,0.542227 0.5422254,0.542227 h 4.3378059 c 0.542226,0 0.542226,-0.542227 0.542226,-0.542227 V 5.6887987 c 0,0 0,-0.5422252 -0.542226,-0.5422252 z m 0.5422256,1.626677 H 10.134712 V 11.111056 H 6.8813577 Z M 8.2369222,11.653281 H 8.779148 c 0,0 0.2711128,0 0.2711128,0.271113 0,0.271112 -0.2711128,0.271112 -0.2711128,0.271112 H 8.2369222 c 0,0 -0.2711128,0 -0.2711128,-0.271112 0,-0.271113 0.2711128,-0.271113 0.2711128,-0.271113 z" id="path5-6-9"/>
  <path style="fill:currentColor;fill-opacity:1;stroke:none;stroke-width:0.224185;stroke-dasharray:none;stroke-opacity:0.3" class="ColorScheme-Text" d="m 6.3391321,4.6174173 c -0.5422254,0 -0.5422254,0.5422252 -0.5422254,0.5422252 V 11.66635 c 0,0 0,0.542227 0.5422254,0.542227 h 4.3378059 c 0.542226,0 0.542226,-0.542227 0.542226,-0.542227 V 5.1596425 c 0,0 0,-0.5422252 -0.542226,-0.5422252 z m 0.5422256,1.626677 H 10.134712 V 10.5819 H 6.8813577 Z M 8.2369222,11.124125 H 8.779148 c 0,0 0.2711128,0 0.2711128,0.271113 0,0.271112 -0.2711128,0.271112 -0.2711128,0.271112 H 8.2369222 c 0,0 -0.2711128,0 -0.2711128,-0.271112 0,-0.271113 0.2711128,-0.271113 0.2711128,-0.271113 z" id="path5-6"/>
<path id="gradient-path1" style="opacity:0.3;baseline-shift:baseline;display:inline;overflow:visible;vector-effect:none;enable-background:accumulate;stop-color:#000000;stop-opacity:1;fill:url(#linearGradient4)" d="M 8.4453131 1.2753492 C 4.4913166 1.2753492 1.2794833 4.4784283 1.2794833 8.4236094 C 1.2794833 12.36879 4.4913166 15.572386 8.4453131 15.572386 C 12.39931 15.572386 15.611143 12.36879 15.611143 8.4236094 C 15.611143 4.4784283 12.39931 1.2753492 8.4453131 1.2753492 z "/>
</svg>
