<?xml version='1.0' encoding='UTF-8'?>
<svg xmlns:inkscape="http://www.inkscape.org/namespaces/inkscape" xmlns:sodipodi="http://sodipodi.sourceforge.net/DTD/sodipodi-0.dtd" xmlns:xlink="http://www.w3.org/1999/xlink" xmlns="http://www.w3.org/2000/svg" xmlns:svg="http://www.w3.org/2000/svg" xmlns:rdf="http://www.w3.org/1999/02/22-rdf-syntax-ns#" xmlns:cc="http://creativecommons.org/ns#" xmlns:dc="http://purl.org/dc/elements/1.1/" width="64" height="64" version="1.1" viewBox="0 0 16.933 16.933" id="svg7" sodipodi:docname="printer-network.svg" inkscape:version="1.4 (e7c3feb100, 2024-10-09)">
  <sodipodi:namedview id="namedview7" pagecolor="#9c4444" bordercolor="#000000" borderopacity="0.25" inkscape:showpageshadow="2" inkscape:pageopacity="0.0" inkscape:pagecheckerboard="0" inkscape:deskcolor="#d1d1d1" inkscape:zoom="4.3531261" inkscape:cx="36.295755" inkscape:cy="25.958357" inkscape:window-width="1280" inkscape:window-height="669" inkscape:window-x="180" inkscape:window-y="166" inkscape:window-maximized="0" inkscape:current-layer="svg7" showgrid="false"/>
  <defs id="defs2">
    <filter style="color-interpolation-filters:sRGB;" inkscape:label="Blur" id="filter3" x="-0.10843471" y="-0.10870992" width="1.2168694" height="1.2174198">
      <feGaussianBlur stdDeviation="0.5 0.5" result="blur" id="feGaussianBlur3"/>
    </filter>
    <filter style="color-interpolation-filters:sRGB" inkscape:label="Blur" id="filter3-8" x="-0.10843471" y="-0.10870992" width="1.2168694" height="1.2174198">
      <feGaussianBlur stdDeviation="0.5 0.5" result="blur" id="feGaussianBlur3-7"/>
    </filter>
    <style id="current-color-scheme" type="text/css">.ColorScheme-Text {color:#d8dee9} .ColorScheme-Highlight {color:#3b4252}</style><linearGradient id="linearGradient4" inkscape:collect="always">
      <stop style="stop-color:#000000;stop-opacity:1;" offset="0" id="stop4"/>
      <stop style="stop-color:#000000;stop-opacity:0;" offset="1" id="stop5"/>
    </linearGradient>
    <linearGradient inkscape:collect="always" xlink:href="#linearGradient4" id="linearGradient5" x1="14.157616" y1="14.109557" x2="3.4890218" y2="3.440964" gradientUnits="userSpaceOnUse"/>
  </defs>
  <metadata id="metadata2">
    <rdf:RDF>
      <cc:Work rdf:about="">
        <dc:format>image/svg+xml</dc:format>
        <dc:type rdf:resource="http://purl.org/dc/dcmitype/StillImage"/>
      </cc:Work>
    </rdf:RDF>
  </metadata>
  <ellipse style="opacity:1;fill:none;stroke:#000000;stroke-width:0.582072;stroke-dasharray:none;stroke-opacity:1;filter:url(#filter3)" id="path1-5" cx="8.4450111" cy="8.423522" rx="6.8752708" ry="6.8578653"/>
  <ellipse style="opacity:1;fill:none;stroke-width:0.58207188;stroke-opacity:1;stroke:currentColor;stroke-dasharray:none;fill-opacity:1" id="path1" cx="8.4450111" cy="8.423522" rx="6.8752708" ry="6.8578653" class="ColorScheme-Text"/>
  <ellipse style="fill:currentColor;stroke:none;stroke-width:0.285728;stroke-dasharray:none;stroke-opacity:1" id="path1-2" cx="8.4450111" cy="8.423522" rx="6.5766377" ry="6.5612183" class="ColorScheme-Highlight"/>
  <path style="opacity:0.3;fill:#000000;fill-opacity:1;stroke:none;stroke-width:0.0964386;stroke-dasharray:none;stroke-opacity:0.6" class="ColorScheme-Text" d="M 6.3987345,5.7581854 V 6.8104269 H 10.607702 V 5.7581854 Z M 5.3464919,7.3365478 c -0.2630601,0 -0.5261208,0.2630611 -0.5261208,0.5261209 v 2.1044848 c 0,0.2630595 0.2630607,0.5261215 0.5261208,0.5261215 H 5.8726137 V 9.4410322 h 5.2612103 v 1.0522428 h 0.526122 c 0.26306,0 0.52612,-0.263062 0.52612,-0.5261215 V 7.8626687 c 0,-0.2630598 -0.26306,-0.5261209 -0.52612,-0.5261209 z M 6.3987345,9.9671534 V 12.597759 H 10.607702 V 9.9671534 Z" id="path5-6"/>
  <path style="fill:currentColor;fill-opacity:1;stroke:none;stroke-width:0.0964386;stroke-dasharray:none;stroke-opacity:0.6" class="ColorScheme-Text" d="M 6.3987345,5.2290292 V 6.2812707 H 10.607702 V 5.2290292 Z M 5.3464919,6.8073916 c -0.2630601,0 -0.5261208,0.2630611 -0.5261208,0.5261209 v 2.1044848 c 0,0.2630595 0.2630607,0.526121 0.5261208,0.526121 H 5.8726137 V 8.911876 h 5.2612103 v 1.0522423 h 0.526122 c 0.26306,0 0.52612,-0.2630615 0.52612,-0.526121 V 7.3335125 c 0,-0.2630598 -0.26306,-0.5261209 -0.52612,-0.5261209 z M 6.3987345,9.4379972 V 12.068603 H 10.607702 V 9.4379972 Z" id="path5"/>
  <ellipse style="fill:none;stroke:#000000;stroke-width:0.582072;stroke-dasharray:none;stroke-opacity:1;filter:url(#filter3-8)" id="path1-5-7" cx="8.4450111" cy="8.423522" rx="6.8752708" ry="6.8578653" transform="matrix(0.4782969,0,0,0.4782969,8.9000071,8.8280171)"/>
  <ellipse style="fill:currentColor;fill-opacity:1;stroke:currentColor;stroke-width:0.278402;stroke-dasharray:none;stroke-opacity:1" id="path1-59" cx="12.939234" cy="12.856965" rx="3.2884204" ry="3.2800953" class="ColorScheme-Text"/>
  <ellipse style="fill:currentColor;stroke:none;stroke-width:0.246622;stroke-dasharray:none;stroke-opacity:1" id="path1-2-2" cx="12.939234" cy="12.856965" rx="2.9130225" ry="2.9056478" class="ColorScheme-Highlight"/>
  <path id="path6-7" style="fill:#000000;fill-opacity:1;stroke:none;stroke-width:0.235739;stroke-dasharray:none;stroke-opacity:0.3;opacity:0.3" d="m 14.247309,11.741094 c -0.802859,0 -1.548823,0.320863 -2.116587,0.911186 -0.54703,0.568766 -0.807577,1.185408 -0.855475,2.024042 l -0.01795,0.314013 h 0.179566 c 0.15894,0 0.189947,-0.0087 0.265668,-0.07643 0.08181,-0.0731 0.08648,-0.08871 0.106819,-0.351307 0.0492,-0.6352 0.295317,-1.16937 0.73346,-1.5917 0.45876,-0.442199 0.955696,-0.666661 1.565916,-0.707217 0.243718,-0.0162 0.261945,-0.02144 0.345321,-0.104517 0.08008,-0.0798 0.08794,-0.10247 0.08794,-0.252775 v -0.165294 z m 0.09393,1.082926 c -0.870896,0 -1.614924,0.531864 -1.874402,1.339846 -0.05085,0.158325 -0.0737,0.299606 -0.08426,0.521666 l -0.01427,0.304803 h 0.18187 c 0.1649,0 0.189296,-0.0074 0.261063,-0.07919 0.05962,-0.05962 0.0793,-0.104744 0.07966,-0.18279 7.78e-4,-0.172838 0.07147,-0.453068 0.157927,-0.624341 0.219822,-0.435466 0.62574,-0.694392 1.179617,-0.753261 0.12659,-0.01345 0.176148,-0.03342 0.23666,-0.09392 0.06858,-0.06858 0.0769,-0.09523 0.0769,-0.254618 v -0.178188 z m -0.341177,1.057143 c -0.08419,4.48e-4 -0.173926,0.01457 -0.23712,0.04098 -0.459582,0.192026 -0.445826,0.851242 0.02165,1.037804 0.10164,0.04056 0.287246,0.03498 0.399652,-0.01197 0.293712,-0.122689 0.432702,-0.453308 0.307105,-0.729777 -0.05293,-0.116514 -0.211387,-0.271513 -0.319537,-0.312631 -0.04403,-0.01674 -0.106266,-0.02475 -0.171739,-0.02441 z"/>
  <path id="path6" style="opacity:1;fill:currentColor;fill-opacity:1;stroke:none;stroke-width:0.235739;stroke-dasharray:none;stroke-opacity:0.3" d="m 14.247309,11.211938 c -0.802859,0 -1.548823,0.320863 -2.116587,0.911186 -0.54703,0.568766 -0.807577,1.185408 -0.855475,2.024042 l -0.01795,0.314013 h 0.179566 c 0.15894,0 0.189947,-0.0087 0.265668,-0.07643 0.08181,-0.0731 0.08648,-0.08871 0.106819,-0.351307 0.0492,-0.6352 0.295317,-1.16937 0.73346,-1.5917 0.45876,-0.442199 0.955696,-0.666661 1.565916,-0.707217 0.243718,-0.0162 0.261945,-0.02144 0.345321,-0.104517 0.08008,-0.0798 0.08794,-0.10247 0.08794,-0.252775 v -0.165294 z m 0.09393,1.082926 c -0.870896,0 -1.614924,0.531864 -1.874402,1.339846 -0.05085,0.158325 -0.0737,0.299606 -0.08426,0.521666 l -0.01427,0.304803 h 0.18187 c 0.1649,0 0.189296,-0.0074 0.261063,-0.07919 0.05962,-0.05962 0.0793,-0.104744 0.07966,-0.18279 7.78e-4,-0.172838 0.07147,-0.453068 0.157927,-0.624341 0.219822,-0.435466 0.62574,-0.694392 1.179617,-0.753261 0.12659,-0.01345 0.176148,-0.03342 0.23666,-0.09392 0.06858,-0.06858 0.0769,-0.09523 0.0769,-0.254618 v -0.178188 z m -0.341177,1.057143 c -0.08419,4.48e-4 -0.173926,0.01457 -0.23712,0.04098 -0.459582,0.192026 -0.445826,0.851242 0.02165,1.037804 0.10164,0.04056 0.287246,0.03498 0.399652,-0.01197 0.293712,-0.122689 0.432702,-0.453308 0.307105,-0.729777 -0.05293,-0.116514 -0.211387,-0.271513 -0.319537,-0.312631 -0.04403,-0.01674 -0.106266,-0.02475 -0.171739,-0.02441 z" class="ColorScheme-Text"/>
<path id="gradient-path1" style="opacity:0.3;baseline-shift:baseline;display:inline;overflow:visible;vector-effect:none;enable-background:accumulate;stop-color:#000000;stop-opacity:1;fill:url(#linearGradient5)" d="M 8.4453131 1.2753492 C 4.4913166 1.2753492 1.2794833 4.4784283 1.2794833 8.4236094 C 1.2794833 12.36879 4.4913166 15.572386 8.4453131 15.572386 C 9.1638027 15.572386 9.8576697 15.466358 10.51233 15.269568 C 11.133159 15.890536 11.991864 16.275172 12.939524 16.275172 C 14.830708 16.275172 16.367154 14.744327 16.367154 12.85736 C 16.367154 11.897867 15.969699 11.029882 15.330545 10.408462 C 15.513101 9.7781514 15.611143 9.1121932 15.611143 8.4236094 C 15.611143 4.4784283 12.39931 1.2753492 8.4453131 1.2753492 z "/>
</svg>
